ply
format ascii 1.0
element vertex 270
property float x
property float y
property float z
element face 232
property list uchar int vertex_index
end_header
25.29129 43.441563 12.326591
22.180426 50.754559 -12.457651
25.648823 49.074089 4.82505
28.418846 42.980377 -2.256566
25.855656 47.091255 -7.729711
20.22164 52.321171 -14.792441
25.490911 46.317787 8.302843
27.613411 43.819984 4.249182
27.817257 41.100574 7.766978
27.085135 48.761185 -2.233202
27.439148 46.279339 0.972162
23.447901 51.613113 8.915195
23.050562 48.48608 12.924674
24.129107 49.017929 -10.119138
27.329922 45.01899 -5.0907
25.414719 44.83984 10.268475
26.59181 43.675014 8.145424
26.590441 42.342163 9.947253
21.20487 51.486485 -13.590063
26.635607 49.058334 1.014436
26.615812 47.76823 2.809225
28.701376 41.131886 4.055698
28.521675 42.351337 2.343
22.295998 52.706249 11.056684
23.304626 49.985744 10.775428
22.119396 50.978294 13.045856
25.034159 48.063473 -8.920063
27.732899 45.849308 -2.318344
27.299459 47.206047 -3.806404
27.92128 43.944172 -3.747542
25.541544 47.688591 6.624672
26.595728 46.453068 4.529945
26.637396 44.989647 6.256862
27.712917 42.465958 5.992639
28.843407 39.982605 5.710956
26.251516 49.322342 -6.706703
29.169872 39.820263 -2.44979
28.577095 40.818111 -3.642381
27.328457 47.39851 -0.724955
28.073044 44.601231 -0.691259
27.569986 44.956432 2.591153
28.338732 43.436836 0.719962
28.923843 41.594913 -0.906583
24.591503 50.364723 6.814883
24.462074 48.882603 8.607644
24.283264 47.46138 10.569777
24.138914 46.024681 12.534514
22.913879 46.960453 14.870406
24.015907 44.518509 14.575269
23.201443 50.218281 -11.319223
26.838831 48.254715 -5.250027
26.653486 46.243656 -6.372164
25.924655 42.226288 12.087843
26.57423 41.676588 10.898173
25.940866 42.891863 11.136922
21.693238 49.399287 -12.553757
21.205461 49.765249 -13.119962
21.692648 51.120522 -13.023857
22.219409 49.13361 -12.050231
21.693238 49.399287 -12.553757
26.132317 48.42116 3.817138
26.186876 49.155293 2.87161
25.703381 49.808222 3.879523
29.11836 40.392077 3.14178
29.286397 39.775979 3.921479
21.729971 53.208416 12.101018
21.880491 54.062732 11.013607
21.64167 52.344438 13.095603
22.207697 51.842271 12.05127
21.729971 53.208416 12.101018
25.444907 47.577364 -8.324887
25.329408 49.287611 -8.454987
25.740156 48.801502 -7.859811
25.532308 45.921686 -8.123592
25.12156 46.407795 -8.718768
25.444907 47.577364 -8.324887
28.413902 39.897097 7.621815
28.926977 39.338112 6.593804
28.330332 40.54159 6.738967
26.314024 50.350178 -6.084869
26.066118 50.917518 -6.877185
29.180517 38.767345 -3.071785
29.567395 38.304873 -2.425173
19.673497 50.842661 -14.823864
19.708608 52.461 -15.355418
28.765311 42.137834 0.694362
28.430203 42.894087 1.531481
28.856783 41.595085 1.505882
29.057867 41.216873 -0.11891
28.631287 42.515874 -0.093311
28.765311 42.137834 0.694362
29.331739 40.20121 -0.965639
29.057867 41.216873 -0.11891
23.604455 52.35382 7.855314
23.050147 52.955898 8.85945
24.019702 50.988918 7.865039
24.176256 51.729625 6.805157
23.604455 52.35382 7.855314
22.866782 46.144241 15.875352
22.351574 47.381882 15.934913
23.417796 44.92327 15.727784
23.464893 45.739481 14.722838
22.866782 46.144241 15.875352
24.087651 50.707033 -10.403363
24.491535 50.120461 -9.745541
23.665275 49.618105 -10.719181
23.623819 51.307209 -11.003405
24.087651 50.707033 -10.403363
23.713227 47.898825 -10.361626
23.249395 48.499 -10.961669
23.665275 49.618105 -10.719181
26.925651 49.4781 -3.025142
26.765428 50.319775 -2.344648
28.209199 41.384472 -4.292818
28.460952 39.850437 -4.244231
27.17352 41.143417 9.849402
27.786928 40.522623 8.759265
27.203849 41.721368 8.857115
27.17352 41.143417 9.849402
26.57423 41.676588 10.898173
20.664158 50.161236 -13.690137
20.172543 50.578579 -14.291326
20.713255 51.903828 -14.191252
20.664158 50.161236 -13.690137
21.205461 49.765249 -13.119962
26.196773 49.800345 1.974215
26.239274 50.492266 1.091913
26.625709 48.413282 1.91183
26.196773 49.800345 1.974215
26.186876 49.155293 2.87161
29.028509 41.001802 2.285431
28.611525 41.741612 3.199349
29.11836 40.392077 3.14178
28.856783 41.595085 1.505882
29.028509 41.001802 2.285431
22.474196 53.502466 9.930194
21.880491 54.062732 11.013607
22.871949 52.159681 9.98594
23.050147 52.955898 8.85945
22.474196 53.502466 9.930194
24.94406 49.643232 -9.146004
25.329408 49.287611 -8.454987
24.581633 48.540701 -9.5196
24.491535 50.120461 -9.745541
24.94406 49.643232 -9.146004
24.661443 46.894132 -9.230402
24.208917 47.371361 -9.82994
24.581633 48.540701 -9.5196
24.661443 46.894132 -9.230402
25.12156 46.407795 -8.718768
20.236139 53.86376 -15.304971
19.708608 52.461 -15.355418
20.75153 53.599282 -14.659209
20.236139 53.86376 -15.304971
21.243145 53.181939 -14.058021
20.713255 51.903828 -14.191252
20.75153 53.599282 -14.659209
21.68467 52.799885 -13.462448
21.243145 53.181939 -14.058021
22.172449 52.433922 -12.896242
21.692648 51.120522 -13.023857
21.68467 52.799885 -13.462448
29.357412 39.201338 4.749108
29.286397 39.775979 3.921479
28.772391 40.557246 4.883327
29.448799 38.712294 5.573723
29.962805 37.931027 4.611875
29.357412 39.201338 4.749108
29.448799 38.712294 5.573723
28.926977 39.338112 6.593804
28.413902 39.897097 7.621815
27.786928 40.522623 8.759265
25.938086 49.917046 -7.348307
26.066118 50.917518 -6.877185
26.053586 48.206798 -7.218207
25.740156 48.801502 -7.859811
25.938086 49.917046 -7.348307
28.884128 39.266269 -3.66808
28.873483 40.319187 -3.046086
29.180517 38.767345 -3.071785
28.460952 39.850437 -4.244231
28.884128 39.266269 -3.66808
19.673497 50.842661 -14.823864
20.172543 50.578579 -14.291326
26.824223 49.611345 -1.444328
26.765428 50.319775 -2.344648
26.599459 49.75992 0.179491
26.239274 50.492266 1.091913
26.945884 48.930008 -0.690204
26.599459 49.75992 0.179491
26.982032 48.228422 0.14474
27.206796 48.079847 -1.479078
26.824223 49.611345 -1.444328
26.945884 48.930008 -0.690204
29.454753 39.313885 -1.737242
29.046858 40.707588 -1.678187
29.331739 40.20121 -0.965639
29.567395 38.304873 -2.425173
29.454753 39.313885 -1.737242
25.211886 50.443922 4.888803
25.703381 49.808222 3.879523
24.683226 51.089239 5.883719
24.176256 51.729625 6.805157
25.120163 49.719406 5.819966
25.211886 50.443922 4.888803
24.683226 51.089239 5.883719
21.478704 51.539186 14.21201
21.64167 52.344438 13.095603
21.992957 50.275116 14.040989
21.478704 51.539186 14.21201
22.45854 49.029009 13.980398
22.584979 49.732187 12.985265
21.992957 50.275116 14.040989
22.390199 48.266196 14.953264
22.351574 47.381882 15.934913
22.982221 47.723267 13.89754
22.45854 49.029009 13.980398
22.390199 48.266196 14.953264
24.025931 43.648058 15.55277
23.417796 44.92327 15.727784
24.656928 43.240509 14.3553
24.025931 43.648058 15.55277
25.294619 42.702036 13.230961
24.653599 43.980036 13.45093
24.656928 43.240509 14.3553
25.924655 42.226288 12.087843
25.294619 42.702036 13.230961
22.642569 52.067083 -12.262646
22.172449 52.433922 -12.896242
23.153078 51.798944 -11.693431
23.623819 51.307209 -11.003405
22.690935 50.48642 -11.888437
22.642569 52.067083 -12.262646
23.153078 51.798944 -11.693431
22.729917 48.865471 -11.481017
22.219409 49.13361 -12.050231
22.690935 50.48642 -11.888437
22.729917 48.865471 -11.481017
23.249395 48.499 -10.961669
23.713227 47.898825 -10.361626
24.208917 47.371361 -9.82994
27.032813 48.700531 -3.811743
26.925651 49.4781 -3.025142
27.192297 47.983616 -3.019803
26.802499 49.224865 -4.533554
27.032813 48.700531 -3.811743
27.069145 47.730381 -4.528215
26.607681 49.816364 -5.356532
26.802499 49.224865 -4.533554
26.545173 48.788528 -5.978365
26.314024 50.350178 -6.084869
26.607681 49.816364 -5.356532
27.881291 42.947502 -4.345398
28.249187 42.381141 -3.694961
28.209199 41.384472 -4.292818
27.585612 43.484911 -5.016977
27.625601 44.481581 -4.419121
27.881291 42.947502 -4.345398
27.178331 43.958469 -5.652812
27.585612 43.484911 -5.016977
26.840114 44.570802 -6.293544
26.991704 45.631323 -5.731432
27.178331 43.958469 -5.652812
26.407261 45.059908 -6.872681
26.840114 44.570802 -6.293544
26.008346 45.483707 -7.551455
26.254571 46.667456 -7.050937
26.407261 45.059908 -6.872681
25.532308 45.921686 -8.123592
26.008346 45.483707 -7.551455
3 0 17 15
3 0 52 54
3 54 53 17
3 52 53 54
3 1 55 57
3 57 56 18
3 55 56 57
3 1 58 59
3 2 60 62
3 60 20 61
3 60 61 62
3 64 63 21
3 65 23 66
3 67 25 68
3 69 68 23
3 67 68 69
3 4 70 72
3 70 26 71
3 70 71 72
3 4 73 75
3 75 74 26
3 73 74 75
3 3 29 27
3 6 32 30
3 8 33 16
3 8 34 33
3 8 76 78
3 78 77 34
3 76 77 78
3 79 35 80
3 82 81 36
3 5 83 84
3 10 38 19
3 10 39 38
3 7 40 31
3 85 41 86
3 87 86 22
3 85 86 87
3 88 42 89
3 90 89 41
3 88 89 90
3 92 91 42
3 11 93 94
3 11 95 97
3 95 43 96
3 95 96 97
3 11 44 43
3 12 45 24
3 12 46 45
3 98 47 99
3 100 48 101
3 102 101 47
3 100 101 102
3 13 103 104
3 13 105 107
3 105 49 106
3 105 106 107
3 13 108 110
3 110 109 49
3 108 109 110
3 9 111 112
3 14 50 28
3 14 51 50
3 114 113 37
3 15 16 6
3 17 16 15
3 17 8 16
3 17 115 117
3 117 116 8
3 115 116 117
3 119 118 17
3 18 120 122
3 122 121 5
3 120 121 122
3 124 123 18
3 125 19 126
3 20 127 129
3 127 19 128
3 127 128 129
3 20 10 19
3 21 22 7
3 130 22 131
3 132 131 21
3 130 131 132
3 134 133 22
3 23 135 136
3 23 137 139
3 137 11 138
3 137 138 139
3 23 24 11
3 25 24 23
3 25 12 24
3 26 140 141
3 26 142 144
3 142 13 143
3 142 143 144
3 26 145 147
3 147 146 13
3 145 146 147
3 149 148 26
3 27 28 9
3 29 28 27
3 29 14 28
3 150 5 151
3 152 5 153
3 154 18 155
3 156 155 5
3 154 155 156
3 157 18 158
3 159 1 160
3 161 160 18
3 159 160 161
3 30 31 2
3 32 31 30
3 32 7 31
3 16 32 6
3 33 32 16
3 33 7 32
3 33 21 7
3 34 21 33
3 34 162 164
3 164 163 21
3 162 163 164
3 34 165 167
3 165 166 167
3 169 168 34
3 171 170 8
3 35 172 173
3 35 174 176
3 174 4 175
3 174 175 176
3 36 37 3
3 177 37 178
3 179 178 36
3 177 178 179
3 181 180 37
3 183 182 5
3 184 9 185
3 19 186 187
3 38 188 190
3 190 189 19
3 188 189 190
3 38 191 193
3 191 9 192
3 191 192 193
3 38 27 9
3 39 27 38
3 39 3 27
3 31 20 2
3 40 20 31
3 40 10 20
3 22 40 7
3 41 40 22
3 41 10 40
3 41 39 10
3 42 39 41
3 42 3 39
3 42 36 3
3 194 36 195
3 196 195 42
3 194 195 196
3 198 197 36
3 199 2 200
3 43 201 202
3 43 203 205
3 203 2 204
3 203 204 205
3 43 30 2
3 44 30 43
3 44 6 30
3 24 44 11
3 45 44 24
3 45 6 44
3 45 15 6
3 46 15 45
3 46 0 15
3 206 25 207
3 208 25 209
3 210 12 211
3 212 211 25
3 210 211 212
3 47 213 214
3 47 215 217
3 215 12 216
3 215 216 217
3 47 46 12
3 48 46 47
3 48 0 46
3 218 48 219
3 220 48 221
3 222 0 223
3 224 223 48
3 222 223 224
3 226 225 0
3 227 1 228
3 49 229 230
3 49 231 233
3 231 1 232
3 231 232 233
3 49 234 236
3 236 235 1
3 234 235 236
3 238 237 49
3 240 239 13
3 28 241 243
3 243 242 9
3 241 242 243
3 50 244 246
3 246 245 28
3 244 245 246
3 50 247 248
3 50 249 251
3 249 35 250
3 249 250 251
3 51 35 50
3 51 4 35
3 37 29 3
3 252 29 253
3 254 253 37
3 252 253 254
3 255 14 256
3 257 256 29
3 255 256 257
3 258 14 259
3 260 51 261
3 262 261 14
3 260 261 262
3 263 51 264
3 265 4 266
3 267 266 51
3 265 266 267
3 269 268 4
