ply
format ascii 1.0
element vertex 212
property float x
property float y
property float z
element face 198
property list uchar int vertex_index
end_header
22.898739 1.457074 -69.116684
30.48975 -1.073428 -65.342247
33.698982 -3.117537 -62.362423
31.651331 -8.788216 -62.323772
28.288628 -7.03097 -64.677353
19.002815 0.968042 -69.462723
17.751371 -5.157186 -67.219872
21.11084 -4.583806 -67.361458
32.067852 4.689155 -65.258591
28.552561 6.129224 -68.059029
26.763741 0.452781 -67.652771
24.713245 -5.416555 -66.441727
33.139454 -10.187976 -60.809769
21.689037 4.353676 -70.209328
20.983828 1.413973 -69.435036
20.133587 -1.629363 -68.500046
21.932076 -1.605262 -68.308235
16.575172 -2.989737 -67.982727
32.123539 -2.080468 -63.946957
32.986767 0.85626 -63.843174
31.275679 1.932207 -65.473106
30.365316 5.838687 -66.807907
29.580635 2.719475 -66.794373
27.612946 3.23903 -67.988892
28.747688 -0.374093 -66.522072
27.116428 -9.888318 -64.104568
26.492752 -6.049039 -65.697884
25.306492 -9.116512 -64.932793
23.523939 -8.176571 -65.680847
23.69669 4.158694 -69.688644
35.626282 -8.191032 -59.07132
35.144917 -3.974267 -60.664051
34.306477 -7.111215 -60.752548
32.881584 -6.204051 -62.254906
31.186708 -5.005483 -63.808205
29.487879 -3.963211 -65.106041
29.914116 -7.938358 -63.60688
28.669271 -11.076525 -63.078331
17.645729 3.522296 -70.347931
17.037081 0.259995 -69.222221
18.352209 -2.096395 -68.397041
19.471348 -4.691329 -67.42141
18.846392 -7.597072 -66.305588
20.385851 -7.411275 -66.356758
31.060152 8.423479 -66.498329
25.608347 3.969526 -69.017921
24.910152 1.056279 -68.475304
27.63847 -3.217019 -66.208427
25.775747 -2.512399 -67.115738
23.866495 -1.894935 -67.842773
22.869965 -4.853596 -67.02784
21.896641 -7.571875 -66.159561
15.919647 -1.741991 -68.394363
15.627492 -3.400574 -67.706654
25.517081 -10.985034 -64.158237
26.21146 -9.502415 -64.518681
26.422049 -11.370937 -63.744125
24.618023 -10.522751 -64.538384
25.517081 -10.985034 -64.158237
24.033785 5.616144 -69.929596
23.021823 5.669266 -70.242664
34.487296 -9.233903 -59.934627
34.96638 -7.651123 -59.911934
35.147198 -9.773812 -59.094014
28.749688 -13.013348 -62.312534
29.495579 -11.486028 -62.54306
27.975108 -12.410141 -62.831604
28.749688 -13.013348 -62.312534
18.324272 2.245169 -69.905327
18.679108 3.802538 -70.381115
19.357651 2.525411 -69.938511
17.522104 -6.823016 -66.535576
16.880956 -5.72671 -66.916183
18.298882 -6.377129 -66.76273
18.069615 -8.042959 -66.078434
17.522104 -6.823016 -66.535576
34.116757 -1.613902 -62.22641
34.839724 -2.042267 -61.377224
34.421949 -3.545902 -61.513237
32.894543 4.240747 -64.382042
33.354 2.324299 -63.674334
32.52731 2.772708 -64.550883
32.436356 5.996626 -65.002015
32.894543 4.240747 -64.382042
31.564002 6.556317 -65.87846
31.932505 7.863788 -65.621883
32.436356 5.996626 -65.002015
28.828857 7.625125 -68.074341
29.735234 7.479857 -67.44878
29.458939 5.983956 -67.433468
27.888524 7.856439 -68.685517
28.828857 7.625125 -68.074341
27.522728 6.425503 -68.650925
27.888524 7.856439 -68.685517
22.094421 -9.219307 -65.490868
22.71029 -7.874223 -65.920204
22.908071 -9.521655 -65.25151
21.361244 -8.712656 -65.764847
22.094421 -9.219307 -65.490868
33.295174 -12.096585 -60.024473
33.903784 -10.772284 -59.963238
32.524504 -11.582088 -60.75533
33.295174 -12.096585 -60.024473
31.780442 -10.882207 -61.512331
32.395392 -9.488096 -61.566771
32.524504 -11.582088 -60.75533
30.98661 -10.341874 -62.165781
31.780442 -10.882207 -61.512331
20.700762 4.218228 -70.311813
21.006541 5.715416 -70.692067
20.348158 2.748377 -69.924667
20.700762 4.218228 -70.311813
21.336433 2.883825 -69.822182
19.993322 1.191007 -69.44888
19.357651 2.525411 -69.938511
20.348158 2.748377 -69.924667
16.292857 -4.642985 -67.297611
15.627492 -3.400574 -67.706654
17.163272 -4.073462 -67.601299
16.880956 -5.72671 -66.916183
16.292857 -4.642985 -67.297611
23.726746 -10.05278 -64.91241
24.415215 -8.646541 -65.30682
24.618023 -10.522751 -64.538384
22.908071 -9.521655 -65.25151
23.726746 -10.05278 -64.91241
22.017996 5.766758 -70.503006
21.006541 5.715416 -70.692067
22.692864 4.256185 -69.948986
22.017996 5.766758 -70.503006
23.021823 5.669266 -70.242664
35.385599 -6.08265 -59.867686
35.796919 -4.615399 -59.699492
36.037602 -6.723781 -58.903126
33.722966 -8.649596 -60.781159
34.487296 -9.233903 -59.934627
33.903784 -10.772284 -59.963238
30.118002 -9.916945 -62.807335
30.782723 -8.363287 -62.965326
30.98661 -10.341874 -62.165781
29.291694 -9.507442 -63.342605
30.118002 -9.916945 -62.807335
29.495579 -11.486028 -62.54306
27.198687 -11.816037 -63.344723
27.892849 -10.482422 -63.591449
27.975108 -12.410141 -62.831604
26.422049 -11.370937 -63.744125
27.198687 -11.816037 -63.344723
36.234518 -8.831533 -58.129462
36.037602 -6.723781 -58.903126
36.645837 -7.364282 -57.961268
35.789854 -10.194872 -58.29195
36.234518 -8.831533 -58.129462
36.39809 -10.835373 -57.350092
35.147198 -9.773812 -59.094014
35.789854 -10.194872 -58.29195
17.912065 5.194534 -70.843308
18.679108 3.802538 -70.381115
16.902894 4.821385 -70.742985
17.912065 5.194534 -70.843308
16.631304 3.169516 -70.192047
16.902894 4.821385 -70.742985
16.326981 1.538365 -69.629192
16.631304 3.169516 -70.192047
17.341405 1.891145 -69.785076
16.150602 -0.117125 -69.014111
16.326981 1.538365 -69.629192
16.806126 -1.364871 -68.602474
15.919647 -1.741991 -68.394363
16.150602 -0.117125 -69.014111
19.996836 -8.402012 -65.98127
19.227107 -8.49491 -65.955685
19.616121 -7.504174 -66.331173
18.647948 -8.980711 -65.737454
18.069615 -8.042959 -66.078434
19.227107 -8.49491 -65.955685
18.647948 -8.980711 -65.737454
35.529206 -2.671637 -60.415104
35.796919 -4.615399 -59.699492
35.529206 -2.671637 -60.415104
34.839724 -2.042267 -61.377224
33.760649 0.372997 -62.966786
34.116757 -1.613902 -62.22641
33.342875 -1.130638 -63.102798
33.760649 0.372997 -62.966786
33.354 2.324299 -63.674334
31.343247 9.718839 -66.243496
32.215601 9.159148 -65.367051
31.932505 7.863788 -65.621883
30.41444 10.218001 -67.097698
31.343247 9.718839 -66.243496
30.082652 8.772253 -67.293991
30.712734 7.131083 -66.653118
29.735234 7.479857 -67.44878
30.41444 10.218001 -67.097698
30.082652 8.772253 -67.293991
27.05292 4.980406 -68.615857
27.522728 6.425503 -68.650925
28.082754 4.684127 -68.023961
26.050621 5.345654 -69.130371
27.05292 4.980406 -68.615857
26.610647 3.604278 -68.503407
24.989613 5.52156 -69.594234
26.050621 5.345654 -69.130371
24.652518 4.06411 -69.353283
24.033785 5.616144 -69.929596
24.989613 5.52156 -69.594234
20.605849 -8.632355 -65.863445
21.141246 -7.491575 -66.25816
21.361244 -8.712656 -65.764847
19.996836 -8.402012 -65.98127
20.605849 -8.632355 -65.863445
3 0 14 13
3 0 16 14
3 52 17 53
3 1 20 18
3 1 22 20
3 1 24 22
3 54 27 55
3 56 55 25
3 54 55 56
3 58 57 27
3 59 29 60
3 61 32 62
3 63 62 30
3 61 62 63
3 3 33 12
3 3 34 33
3 3 36 34
3 64 37 65
3 67 66 37
3 5 68 70
3 68 38 69
3 68 69 70
3 5 39 38
3 5 40 39
3 7 41 15
3 7 43 41
3 6 71 72
3 6 73 75
3 73 42 74
3 73 74 75
3 2 76 78
3 78 77 31
3 76 77 78
3 8 79 81
3 81 80 19
3 79 80 81
3 8 82 83
3 8 84 86
3 84 44 85
3 84 85 86
3 9 87 89
3 89 88 21
3 87 88 89
3 9 90 91
3 9 92 93
3 10 45 23
3 10 46 45
3 4 47 35
3 11 48 26
3 11 49 48
3 11 50 49
3 94 51 95
3 96 95 28
3 94 95 96
3 98 97 51
3 99 12 100
3 101 12 102
3 103 3 104
3 105 104 12
3 103 104 105
3 107 106 3
3 13 108 109
3 14 110 112
3 112 111 13
3 110 111 112
3 14 113 115
3 113 5 114
3 113 114 115
3 14 15 5
3 16 15 14
3 16 7 15
3 17 116 117
3 17 118 120
3 118 6 119
3 118 119 120
3 18 19 2
3 20 19 18
3 20 8 19
3 20 21 8
3 22 21 20
3 22 9 21
3 22 23 9
3 24 23 22
3 24 10 23
3 25 26 4
3 27 26 25
3 27 11 26
3 27 28 11
3 121 28 122
3 123 122 27
3 121 122 123
3 125 124 28
3 126 13 127
3 29 128 130
3 128 13 129
3 128 129 130
3 29 0 13
3 30 131 133
3 131 31 132
3 131 132 133
3 32 31 30
3 32 2 31
3 12 134 136
3 134 32 135
3 134 135 136
3 33 32 12
3 33 2 32
3 33 18 2
3 34 18 33
3 34 1 18
3 34 35 1
3 36 35 34
3 36 4 35
3 137 36 138
3 139 138 3
3 137 138 139
3 37 140 142
3 140 36 141
3 140 141 142
3 37 4 36
3 37 25 4
3 143 25 144
3 145 144 37
3 143 144 145
3 147 146 25
3 148 30 149
3 148 149 150
3 151 30 152
3 151 152 153
3 155 154 30
3 38 156 157
3 38 158 159
3 38 160 161
3 39 162 164
3 164 163 38
3 162 163 164
3 39 165 166
3 39 167 169
3 167 17 168
3 167 168 169
3 40 17 39
3 40 6 17
3 15 40 5
3 41 40 15
3 41 6 40
3 41 42 6
3 43 42 41
3 43 170 172
3 172 171 42
3 170 171 172
3 42 173 174
3 42 175 176
3 31 177 178
3 180 179 31
3 19 181 183
3 183 182 2
3 181 182 183
3 185 184 19
3 44 186 188
3 186 187 188
3 44 189 190
3 21 44 8
3 191 44 192
3 193 192 21
3 191 192 193
3 195 194 44
3 23 196 198
3 198 197 9
3 196 197 198
3 45 199 201
3 201 200 23
3 199 200 201
3 45 202 203
3 45 204 206
3 204 29 205
3 204 205 206
3 46 29 45
3 46 0 29
3 35 24 1
3 47 24 35
3 47 10 24
3 26 47 4
3 48 47 26
3 48 10 47
3 48 46 10
3 49 46 48
3 49 0 46
3 49 16 0
3 50 16 49
3 50 7 16
3 28 50 11
3 51 50 28
3 51 7 50
3 51 43 7
3 207 43 208
3 209 208 51
3 207 208 209
3 211 210 43
