ply
format ascii 1.0
element vertex 217
property float x
property float y
property float z
element face 196
property list uchar int vertex_index
end_header
-23.801796 -75.73098 -24.93902
-18.611448 -81.799835 -32.498245
-20.003159 -73.459061 -39.426769
-10.728344 -83.214699 -40.653412
-21.546309 -78.879913 -28.829062
-23.553974 -71.020821 -36.75145
-27.020281 -69.71209 -25.239531
-25.24227 -72.467911 -29.306633
-14.946329 -84.845421 -35.3643
-22.805727 -75.110214 -32.780777
-19.36871 -78.088364 -35.99559
-15.45074 -80.579834 -38.731098
-22.061691 -78.789375 -24.89603
-20.983366 -80.336464 -26.762617
-22.836901 -77.193268 -26.902905
-8.279974 -81.535057 -42.534279
-18.171942 -83.524422 -30.48822
-16.497889 -85.095375 -32.13995
-16.816711 -83.424828 -33.967274
-25.828165 -70.749535 -31.333752
-24.076193 -73.876152 -31.039982
-24.711088 -71.818359 -33.077278
-21.872114 -72.139557 -38.23156
-21.541618 -74.41613 -36.455814
-19.62336 -75.951347 -37.784683
-17.450085 -79.444809 -37.409939
-17.620592 -77.24292 -39.08226
-15.707624 -78.035034 -40.314842
-17.891094 -74.590431 -40.698994
-19.703693 -81.884903 -28.687464
-20.111769 -80.44722 -30.721659
-22.135139 -69.681572 -39.941753
-20.021545 -71.015076 -41.135414
-25.47908 -72.650284 -25.167152
-24.614773 -74.049385 -27.11591
-26.256977 -71.038399 -27.305737
-24.618311 -74.22937 -23.000477
-26.197165 -71.210236 -23.115429
-27.709776 -68.186378 -23.302074
-12.856964 -86.158356 -36.742882
-23.453619 -75.655548 -28.98407
-22.215635 -77.058083 -30.799023
-20.813833 -78.362366 -32.625305
-23.174215 -73.235542 -34.76857
-21.209282 -76.468407 -34.567261
-19.039383 -79.952682 -34.305588
-17.056942 -81.594307 -35.787552
-15.03616 -82.993973 -37.13554
-13.015305 -84.052261 -38.391628
-13.297605 -81.798569 -39.779968
-13.215068 -79.517677 -41.229565
-8.383146 -80.064942 -43.058842
-9.640617 -79.612743 -42.860225
-25.618366 -70.193447 -33.214412
-25.269627 -71.283947 -32.205515
-26.176904 -69.659035 -32.34265
-9.468232 -83.708568 -41.012018
-9.459982 -84.936879 -40.360714
-10.74412 -81.910054 -41.326595
-9.468232 -83.708568 -41.012018
-23.173645 -67.960316 -40.066799
-23.045331 -69.150295 -39.235048
-22.233458 -68.365364 -40.770502
-23.173645 -67.960316 -40.066799
-24.952473 -73.460399 -21.900745
-24.194322 -74.904289 -21.755356
-25.7419 -71.950832 -21.958222
-25.407738 -72.719803 -23.057953
-24.952473 -73.460399 -21.900745
-27.912422 -67.570865 -22.311303
-27.191435 -69.052536 -22.128069
-27.394081 -68.437024 -21.137298
-28.389698 -66.769001 -23.415636
-27.912422 -67.570865 -22.311303
-13.787675 -86.483318 -35.180571
-13.705583 -87.298916 -34.303402
-14.864237 -85.661019 -34.487131
-13.901647 -85.501889 -36.053591
-12.742992 -87.139786 -35.869861
-13.787675 -86.483318 -35.180571
-23.364095 -72.128181 -35.76001
-24.180122 -71.457393 -34.969358
-24.370002 -70.350033 -35.960798
-14.418941 -77.631649 -41.49302
-14.461346 -78.776355 -40.772204
-15.665218 -76.890327 -41.035658
-13.340114 -78.120674 -41.882035
-14.418941 -77.631649 -41.49302
-18.995094 -71.456604 -41.696909
-20.156157 -69.530178 -41.926489
-10.716147 -84.300682 -39.986452
-9.459982 -84.936879 -40.360714
-21.522528 -79.56292 -25.829324
-20.701297 -80.960743 -25.687414
-21.24046 -80.187198 -24.75412
-27.454974 -68.82011 -26.33649
-27.772604 -68.212788 -25.409368
-7.11376 -81.842182 -42.699675
-6.979492 -83.265384 -42.186943
-7.11376 -81.842182 -42.699675
-8.383146 -80.064942 -43.058842
-17.140981 -85.074119 -30.402634
-17.953964 -84.237404 -29.542692
-16.303954 -85.859596 -31.228499
-17.140981 -85.074119 -30.402634
-17.334916 -84.309899 -31.314085
-15.485311 -86.579132 -31.989688
-16.303954 -85.859596 -31.228499
-15.640017 -85.785996 -32.874956
-15.485311 -86.579132 -31.989688
-15.799428 -84.950722 -33.788618
-15.640017 -85.785996 -32.874956
-16.6573 -84.260102 -33.053612
-15.88152 -84.135125 -34.665787
-14.864237 -85.661019 -34.487131
-15.799428 -84.950722 -33.788618
-16.756954 -75.168026 -41.227734
-15.665218 -76.890327 -41.035658
-16.799359 -76.312732 -40.506918
-8.244047 -82.868747 -41.952452
-6.979492 -83.265384 -42.186943
-9.519934 -81.070233 -42.267029
-8.244047 -82.868747 -41.952452
-9.640617 -79.612743 -42.860225
-9.519934 -81.070233 -42.267029
-20.120841 -81.736985 -26.719904
-20.701297 -80.960743 -25.687414
-19.481005 -82.511204 -27.682327
-20.120841 -81.736985 -26.719904
-20.34353 -81.110683 -27.72504
-18.719839 -83.417644 -28.642314
-19.481005 -82.511204 -27.682327
-18.937818 -82.704662 -29.587842
-17.953964 -84.237404 -29.542692
-18.719839 -83.417644 -28.642314
-24.523076 -69.317193 -36.91574
-24.370002 -70.350033 -35.960798
-23.754749 -69.81992 -37.639896
-24.523076 -69.317193 -36.91574
-22.913819 -70.379288 -38.379952
-22.713044 -71.580189 -37.491505
-23.754749 -69.81992 -37.639896
-22.003626 -70.910564 -39.086657
-22.913819 -70.379288 -38.379952
-23.045331 -69.150295 -39.235048
-21.176662 -69.032116 -41.367333
-21.078342 -70.348324 -40.538584
-22.233458 -68.365364 -40.770502
-20.156157 -69.530178 -41.926489
-21.176662 -69.032116 -41.367333
-27.073322 -69.483265 -27.369593
-26.638629 -70.375245 -26.272634
-27.454974 -68.82011 -26.33649
-26.65009 -70.113888 -28.366725
-27.073322 -69.483265 -27.369593
-26.142736 -70.828644 -29.367173
-25.749623 -71.753155 -28.306185
-26.65009 -70.113888 -28.366725
-26.435684 -69.969456 -30.380733
-25.535218 -71.608723 -30.320193
-26.142736 -70.828644 -29.367173
-26.761428 -69.037781 -31.448402
-26.435684 -69.969456 -30.380733
-26.176904 -69.659035 -32.34265
-26.761428 -69.037781 -31.448402
-21.74576 -79.375389 -23.743757
-21.24046 -80.187198 -24.75412
-22.569558 -77.921002 -23.84641
-21.74576 -79.375389 -23.743757
-23.439611 -76.391804 -23.867905
-22.931743 -77.260177 -24.917525
-22.569558 -77.921002 -23.84641
-23.847868 -75.640999 -22.898634
-24.194322 -74.904289 -21.755356
-24.210054 -74.980175 -23.969749
-23.439611 -76.391804 -23.867905
-23.847868 -75.640999 -22.898634
-26.435129 -70.564465 -22.034746
-25.7419 -71.950832 -21.958222
-26.953471 -69.698307 -23.208751
-26.435129 -70.564465 -22.034746
-27.191435 -69.052536 -22.128069
-28.117352 -67.449932 -24.44064
-27.772604 -68.212788 -25.409368
-27.365029 -68.949234 -24.270803
-28.117352 -67.449932 -24.44064
-28.389698 -66.769001 -23.415636
-11.686704 -87.735817 -36.536057
-12.742992 -87.139786 -35.869861
-11.694046 -86.858826 -37.298958
-11.686704 -87.735817 -36.536057
-24.948559 -70.748802 -34.123712
-25.618366 -70.193447 -33.214412
-23.942652 -72.52695 -33.922924
-24.948559 -70.748802 -34.123712
-24.180122 -71.457393 -34.969358
-11.773217 -85.805779 -38.123331
-11.694046 -86.858826 -37.298958
-12.936134 -85.105309 -37.567255
-11.859628 -84.719463 -38.85556
-11.773217 -85.805779 -38.123331
-12.000778 -83.592617 -39.54973
-11.859628 -84.719463 -38.85556
-13.156455 -82.925415 -39.085798
-12.012975 -82.506634 -40.21669
-10.716147 -84.300682 -39.986452
-12.000778 -83.592617 -39.54973
-11.987482 -80.061543 -41.614672
-10.74412 -81.910054 -41.326595
-11.971706 -81.366188 -40.941489
-11.987482 -80.061543 -41.614672
-13.340114 -78.120674 -41.882035
-17.929868 -73.244281 -41.478699
-18.956319 -72.802753 -40.917204
-18.995094 -71.456604 -41.696909
-16.756954 -75.168026 -41.227734
-17.929868 -73.244281 -41.478699
3 0 14 12
3 52 51 15
3 1 17 16
3 1 18 17
3 53 21 54
3 55 54 19
3 53 54 55
3 2 24 22
3 2 26 24
3 2 28 26
3 3 56 57
3 3 58 59
3 4 29 13
3 4 30 29
3 60 31 61
3 63 62 31
3 6 35 33
3 64 36 65
3 66 37 67
3 68 67 36
3 66 67 68
3 69 38 70
3 69 70 71
3 73 72 38
3 8 74 76
3 74 75 76
3 8 77 79
3 77 39 78
3 77 78 79
3 7 40 34
3 9 41 20
3 9 42 41
3 5 80 82
3 80 43 81
3 80 81 82
3 10 44 23
3 10 45 44
3 10 46 45
3 11 47 25
3 11 48 47
3 11 49 48
3 83 50 84
3 85 84 27
3 83 84 85
3 87 86 50
3 89 88 32
3 90 3 91
3 12 92 94
3 92 13 93
3 92 93 94
3 14 13 12
3 14 4 13
3 96 95 6
3 15 97 98
3 100 99 15
3 16 101 102
3 17 103 105
3 105 104 16
3 103 104 105
3 17 106 107
3 17 108 109
3 18 110 112
3 112 111 17
3 110 111 112
3 18 113 115
3 113 8 114
3 113 114 115
3 19 20 7
3 21 20 19
3 21 9 20
3 22 23 5
3 24 23 22
3 24 10 23
3 24 25 10
3 26 25 24
3 26 11 25
3 26 27 11
3 28 27 26
3 28 116 118
3 118 117 27
3 116 117 118
3 119 15 120
3 121 15 122
3 124 123 15
3 13 125 126
3 29 127 129
3 129 128 13
3 127 128 129
3 29 130 131
3 29 132 134
3 132 16 133
3 132 133 134
3 30 16 29
3 30 1 16
3 135 5 136
3 137 5 138
3 139 22 140
3 141 140 5
3 139 140 141
3 31 142 144
3 142 22 143
3 142 143 144
3 31 2 22
3 31 32 2
3 145 32 146
3 147 146 31
3 145 146 147
3 149 148 32
3 33 34 0
3 35 34 33
3 35 7 34
3 150 35 151
3 152 151 6
3 150 151 152
3 153 35 154
3 155 7 156
3 157 156 35
3 155 156 157
3 158 19 159
3 160 159 7
3 158 159 160
3 161 19 162
3 164 163 19
3 165 12 166
3 167 12 168
3 169 0 170
3 171 170 12
3 169 170 171
3 36 172 173
3 36 174 176
3 174 0 175
3 174 175 176
3 36 33 0
3 37 33 36
3 37 6 33
3 177 37 178
3 38 179 181
3 179 37 180
3 179 180 181
3 38 6 37
3 38 182 184
3 184 183 6
3 182 183 184
3 186 185 38
3 39 187 188
3 39 189 190
3 34 14 0
3 40 14 34
3 40 4 14
3 20 40 7
3 41 40 20
3 41 4 40
3 41 30 4
3 42 30 41
3 42 1 30
3 191 21 192
3 43 193 195
3 193 21 194
3 193 194 195
3 43 9 21
3 23 43 5
3 44 43 23
3 44 9 43
3 44 42 9
3 45 42 44
3 45 1 42
3 45 18 1
3 46 18 45
3 46 8 18
3 25 46 10
3 47 46 25
3 47 8 46
3 47 39 8
3 48 39 47
3 48 196 198
3 198 197 39
3 196 197 198
3 48 199 200
3 49 201 203
3 203 202 48
3 201 202 203
3 49 204 206
3 204 3 205
3 204 205 206
3 27 49 11
3 50 49 27
3 50 3 49
3 50 207 209
3 209 208 3
3 207 208 209
3 211 210 50
3 32 28 2
3 212 28 213
3 214 213 32
3 212 213 214
3 216 215 28
