ply
format ascii 1.0
element vertex 187
property float x
property float y
property float z
element face 171
property list uchar int vertex_index
end_header
22.104193 -76.273903 -25.493099
26.161314 -68.709404 -19.651012
20.525904 -77.855659 -29.94315
24.612293 -71.583359 -29.260714
23.051771 -72.491745 -33.439953
20.89072 -72.819649 -37.405621
20.627153 -78.05249 -16.474716
22.983088 -74.669159 -20.450842
19.525682 -80.417 -21.332428
25.678474 -70.236252 -24.562843
25.020105 -70.415031 -17.520441
19.440319 -78.63829 -32.049412
21.697147 -75.344818 -31.857836
20.720789 -75.858078 -33.741543
20.007652 -79.436417 -18.852571
22.632225 -75.46788 -23.09421
24.386555 -72.422211 -22.435818
23.962822 -73.224174 -24.981594
26.019854 -68.759766 -30.991749
26.555178 -68.389397 -28.781849
22.131191 -69.608421 -38.824654
23.457764 -69.416603 -37.023201
27.512278 -66.462296 -21.622158
21.216982 -77.353386 -27.787317
23.293398 -74.115013 -27.414692
22.627337 -74.680618 -29.676561
23.922586 -72.077438 -31.328295
25.260424 -69.219391 -33.002384
19.596809 -76.135895 -35.698902
19.596748 -72.76506 -39.125645
20.896448 -69.208794 -40.546619
23.433336 -73.456734 -17.896551
21.846567 -76.330986 -18.426727
21.317543 -77.527519 -20.962931
20.743635 -78.544395 -23.349962
20.022552 -79.515762 -25.745384
19.11277 -80.487709 -28.066036
24.622719 -71.674568 -19.925697
25.909058 -69.628242 -22.112616
27.329134 -67.171562 -24.081055
25.2113 -70.961082 -26.980335
26.960142 -67.912994 -26.504644
21.942652 -72.878937 -35.506855
24.333321 -69.57679 -35.00774
24.36768 -71.391468 -16.497545
25.069199 -69.962986 -16.25325
19.507741 -77.47884 -33.939802
20.080554 -77.248184 -32.895477
18.867506 -78.868946 -33.093737
26.9767 -67.163944 -30.800463
26.665282 -67.365834 -31.817289
23.416033 -67.851135 -38.708481
22.741127 -67.937511 -39.516256
26.873444 -67.222756 -19.453244
26.261421 -68.191864 -18.437205
26.836796 -67.58585 -20.636585
27.548927 -66.099201 -20.438817
26.873444 -67.222756 -19.453244
18.910209 -72.664642 -39.866826
18.280971 -74.433819 -39.147972
19.560059 -70.886509 -40.577313
20.246598 -70.986927 -39.836132
18.910209 -72.664642 -39.866826
21.23686 -77.191738 -17.450722
21.996195 -75.809784 -17.068017
21.386488 -76.670536 -16.092012
18.929105 -81.10389 -26.025678
19.430265 -80.49039 -24.796198
18.474214 -81.589863 -27.186003
19.567661 -80.001735 -26.90571
18.929105 -81.10389 -26.025678
27.670698 -66.537017 -27.485684
26.75766 -68.151196 -27.643247
27.468216 -66.775219 -28.624287
27.799974 -66.346348 -26.344958
27.670698 -66.537017 -27.485684
25.00448 -67.945412 -35.824179
23.895543 -69.496696 -36.01547
24.566701 -67.865319 -36.831909
25.422821 -67.940159 -34.835289
25.00448 -67.945412 -35.824179
25.690817 -69.044678 -17.37192
25.069199 -69.962986 -16.25325
25.59071 -69.562218 -18.585726
26.261421 -68.191864 -18.437205
25.690817 -69.044678 -17.37192
19.404528 -80.251324 -17.834927
20.317403 -78.744454 -17.663643
19.714279 -79.55936 -16.646
19.072679 -80.934708 -19.195417
19.404528 -80.251324 -17.834927
18.831694 -81.424999 -20.435346
19.766667 -79.926709 -20.0925
19.072679 -80.934708 -19.195417
27.244362 -66.97876 -29.695513
26.287516 -68.574581 -29.886799
26.9767 -67.163944 -30.800463
27.468216 -66.775219 -28.624287
27.244362 -66.97876 -29.695513
24.079319 -67.755226 -37.807755
22.794477 -69.512512 -37.923928
23.416033 -67.851135 -38.708481
24.566701 -67.865319 -36.831909
24.079319 -67.755226 -37.807755
28.21373 -64.984921 -21.501821
27.548927 -66.099201 -20.438817
28.165441 -65.338173 -22.698425
28.21373 -64.984921 -21.501821
26.285567 -67.595646 -32.822607
26.665282 -67.365834 -31.817289
25.640139 -68.989578 -31.997066
18.33559 -77.709805 -35.880893
18.945751 -77.617749 -34.918482
18.999067 -76.101067 -36.643884
18.33559 -77.709805 -35.880893
19.646023 -74.442943 -37.497244
20.243765 -74.477772 -36.552262
18.999067 -76.101067 -36.643884
18.999037 -74.415649 -38.357256
18.280971 -74.433819 -39.147972
20.243734 -72.792355 -38.265633
19.646023 -74.442943 -37.497244
18.999037 -74.415649 -38.357256
22.123756 -67.737698 -40.377239
22.741127 -67.937511 -39.516256
21.51382 -69.408608 -39.685637
20.140048 -69.079342 -41.276499
19.560059 -70.886509 -40.577313
21.509183 -67.411068 -41.226543
20.140048 -69.079342 -41.276499
22.123756 -67.737698 -40.377239
21.509183 -67.411068 -41.226543
22.78958 -74.372658 -16.802929
23.574296 -72.912319 -16.685599
22.639952 -74.89386 -18.161639
22.78958 -74.372658 -16.802929
21.996195 -75.809784 -17.068017
18.522218 -81.939885 -21.665988
18.831694 -81.424999 -20.435346
19.18183 -80.94101 -22.58972
18.522218 -81.939885 -21.665988
18.178365 -82.463894 -22.92328
19.790807 -80.004707 -23.598487
20.134659 -79.480697 -22.341195
19.18183 -80.94101 -22.58972
20.383094 -79.030079 -24.547673
19.790807 -80.004707 -23.598487
19.430265 -80.49039 -24.796198
17.975822 -82.05154 -28.35789
18.474214 -81.589863 -27.186003
18.667845 -80.814319 -29.170011
17.975822 -82.05154 -28.35789
19.374412 -79.498295 -30.108567
19.819337 -79.171684 -29.004593
18.667845 -80.814319 -29.170011
18.83162 -79.88961 -31.161698
19.983111 -78.246974 -30.996281
19.374412 -79.498295 -30.108567
18.248933 -80.241523 -32.220777
18.83162 -79.88961 -31.161698
18.867506 -78.868946 -33.093737
18.248933 -80.241523 -32.220777
20.754084 -77.538822 -15.067294
21.386488 -76.670536 -16.092012
19.979904 -78.891494 -15.33327
20.754084 -77.538822 -15.067294
19.714279 -79.55936 -16.646
19.979904 -78.891494 -15.33327
24.22672 -71.935882 -17.708496
24.36768 -71.391468 -16.497545
23.574296 -72.912319 -16.685599
28.073869 -65.692806 -23.927874
28.165441 -65.338173 -22.698425
27.420706 -66.816929 -22.851606
27.984469 -65.975631 -25.133164
27.144638 -67.542278 -25.292849
27.799974 -66.346348 -26.344958
28.073869 -65.692806 -23.927874
27.984469 -65.975631 -25.133164
20.158799 -75.996987 -34.720222
19.507741 -77.47884 -33.939802
18.945751 -77.617749 -34.918482
25.886372 -67.76146 -33.832611
24.796872 -69.39809 -34.005062
25.422821 -67.940159 -34.835289
26.285567 -67.595646 -32.822607
25.886372 -67.76146 -33.832611
3 44 10 45
3 46 13 47
3 48 47 11
3 46 47 48
3 0 17 15
3 50 49 18
3 52 51 20
3 1 53 54
3 1 55 57
3 55 22 56
3 55 56 57
3 2 25 23
3 4 26 12
3 4 27 26
3 58 29 59
3 60 30 61
3 62 61 29
3 60 61 62
3 6 63 65
3 63 32 64
3 63 64 65
3 8 33 14
3 8 34 33
3 66 35 67
3 68 36 69
3 70 69 35
3 68 69 70
3 7 37 31
3 9 38 16
3 9 39 38
3 3 40 24
3 71 41 72
3 73 72 19
3 71 72 73
3 75 74 41
3 5 42 28
3 76 43 77
3 78 77 21
3 76 77 78
3 80 79 43
3 10 81 82
3 10 83 85
3 83 1 84
3 83 84 85
3 11 12 2
3 13 12 11
3 13 4 12
3 86 14 87
3 88 87 6
3 86 87 88
3 89 14 90
3 91 8 92
3 93 92 14
3 91 92 93
3 15 16 7
3 17 16 15
3 17 9 16
3 18 19 3
3 94 19 95
3 96 95 18
3 94 95 96
3 98 97 19
3 20 21 5
3 99 21 100
3 101 100 20
3 99 100 101
3 103 102 21
3 22 104 105
3 22 106 107
3 23 24 0
3 25 24 23
3 25 3 24
3 12 25 2
3 26 25 12
3 26 3 25
3 26 18 3
3 27 18 26
3 27 108 110
3 110 109 18
3 108 109 110
3 111 28 112
3 113 28 114
3 115 5 116
3 117 116 28
3 115 116 117
3 29 118 119
3 29 120 122
3 120 5 121
3 120 121 122
3 29 20 5
3 30 20 29
3 30 123 125
3 125 124 20
3 123 124 125
3 126 30 127
3 128 30 129
3 131 130 30
3 132 31 133
3 32 134 136
3 134 31 135
3 134 135 136
3 32 7 31
3 14 32 6
3 33 32 14
3 33 7 32
3 33 15 7
3 34 15 33
3 34 0 15
3 137 8 138
3 139 8 140
3 139 140 141
3 142 34 143
3 144 143 8
3 142 143 144
3 35 145 147
3 145 34 146
3 145 146 147
3 35 0 34
3 35 23 0
3 36 23 35
3 36 2 23
3 148 36 149
3 150 36 151
3 152 2 153
3 154 153 36
3 152 153 154
3 155 11 156
3 157 156 2
3 155 156 157
3 158 11 159
3 161 160 11
3 162 6 163
3 164 6 165
3 167 166 6
3 31 168 170
3 168 10 169
3 168 169 170
3 37 10 31
3 37 1 10
3 16 37 7
3 38 37 16
3 38 1 37
3 38 22 1
3 39 22 38
3 39 171 173
3 173 172 22
3 171 172 173
3 24 17 0
3 40 17 24
3 40 9 17
3 19 40 3
3 41 40 19
3 41 9 40
3 41 39 9
3 174 39 175
3 176 175 41
3 174 175 176
3 178 177 39
3 28 179 181
3 179 13 180
3 179 180 181
3 42 13 28
3 42 4 13
3 21 42 5
3 43 42 21
3 43 4 42
3 43 27 4
3 182 27 183
3 184 183 43
3 182 183 184
3 186 185 27
