ply
format ascii 1.0
element vertex 216
property float x
property float y
property float z
element face 191
property list uchar int vertex_index
end_header
-10.136556 -96.101494 -24.153463
-2.49782 -102.116959 -26.627516
-10.308064 -93.674995 -30.995928
-13.840785 -91.124298 -16.600214
-6.981666 -98.920975 -25.467503
-6.212714 -98.573402 -29.210302
-10.333289 -95.218246 -27.273064
2.611563 -104.816689 -26.962103
-1.657042 -101.291603 -30.598034
-11.830182 -94.147476 -20.831543
-13.161286 -92.410057 -24.550459
-13.919643 -90.553543 -28.0872
-8.793118 -97.379295 -24.736748
-8.593131 -97.250694 -26.489508
-10.147416 -95.859627 -25.582176
0.080697 -103.63459 -26.764885
0.677643 -103.319412 -28.905088
-1.860321 -101.996124 -28.591955
-8.270576 -96.263908 -30.149776
-6.129204 -97.738663 -31.131516
-8.270308 -95.224236 -32.037449
-12.856139 -92.695045 -18.73209
-13.690388 -91.83149 -20.672955
-12.880303 -91.884872 -14.484056
-11.845257 -93.596695 -16.887865
-11.037823 -94.843597 -18.976793
-13.488619 -91.648651 -26.313354
-4.874846 -100.550201 -25.970016
-4.421638 -100.42691 -27.997015
-6.557737 -98.907082 -27.301277
-8.375423 -96.938271 -28.266239
-10.192053 -94.709595 -29.121645
-12.750072 -90.692184 -9.482378
-13.651198 -90.270187 -11.783888
5.181368 -105.728485 -27.11084
5.910875 -105.209503 -29.130924
3.250808 -104.401505 -29.072153
-3.985619 -100.031883 -29.936777
-10.919381 -95.279625 -22.723444
-11.484104 -94.537994 -24.312798
-12.565663 -93.313286 -22.707804
-10.047502 -96.143867 -21.125828
-9.255457 -97.035355 -22.988289
-11.759515 -93.920967 -25.947567
-12.035379 -93.06752 -27.771343
-12.107747 -92.233589 -29.659866
-10.336847 -93.05809 -31.940656
-9.317969 -93.832711 -32.461416
-9.289186 -94.449615 -31.516689
-14.253919 -90.737972 -17.633647
-13.761596 -91.523346 -18.699585
-13.348462 -91.909672 -17.666152
-13.128419 -89.843952 -8.243594
-12.193639 -90.935642 -8.319362
-14.545284 -89.07962 -11.723453
-14.084167 -89.37331 -10.566574
-14.155091 -89.921036 -12.998088
-14.545284 -89.07962 -11.723453
-0.252912 -101.994732 -30.711789
0.91443 -103.008636 -29.865316
-0.489699 -102.305508 -29.751561
-1.367941 -100.94051 -31.507452
-0.252912 -101.994732 -30.711789
-4.86689 -98.520355 -31.501339
-6.017981 -97.26632 -32.041384
6.290015 -104.808411 -30.052629
4.883669 -104.439415 -30.08088
-13.99134 -91.446766 -21.653493
-14.584762 -90.616158 -20.711601
-8.720989 -97.514813 -22.223351
-8.366041 -97.853722 -23.210275
-7.088532 -96.009106 -32.49435
-6.017981 -97.26632 -32.041384
-7.199756 -96.481449 -31.584483
-8.215061 -94.632008 -32.951814
-7.088532 -96.009106 -32.49435
-8.215061 -94.632008 -32.951814
-9.317969 -93.832711 -32.461416
-14.178721 -91.091568 -19.670018
-13.273264 -92.263267 -19.702523
-13.761596 -91.523346 -18.699585
-14.584762 -90.616158 -20.711601
-14.178721 -91.091568 -19.670018
-11.928244 -93.010391 -14.669117
-12.325604 -92.244995 -13.360482
-11.410722 -93.866302 -15.871021
-11.928244 -93.010391 -14.669117
-12.36278 -92.740783 -15.685961
-10.871593 -94.670391 -17.001085
-11.410722 -93.866302 -15.871021
-11.44154 -94.220146 -17.932329
-10.467875 -95.293842 -18.045549
-10.871593 -94.670391 -17.001085
-14.184539 -90.867726 -25.455357
-13.324953 -92.029354 -25.431907
-14.020873 -91.248428 -24.57391
-14.476631 -90.273449 -26.424671
-14.184539 -90.867726 -25.455357
-14.692143 -89.725895 -27.311594
-13.704131 -91.101097 -27.200277
-14.476631 -90.273449 -26.424671
-14.73389 -89.902214 -16.486241
-14.249884 -90.348091 -15.406251
-11.767467 -91.836021 -9.687925
-12.193639 -90.935642 -8.319362
-12.260489 -91.648651 -10.859643
-11.767467 -91.836021 -9.687925
-13.633605 -89.584308 -9.41582
-13.128419 -89.843952 -8.243594
-13.200635 -90.481186 -10.633133
-13.633605 -89.584308 -9.41582
-14.084167 -89.37331 -10.566574
-12.711051 -91.437653 -12.010398
-12.260489 -91.648651 -10.859643
-13.200635 -90.481186 -10.633133
-13.26575 -91.077529 -13.133972
-12.325604 -92.244995 -13.360482
-12.711051 -91.437653 -12.010398
-13.769643 -90.728378 -14.348171
-13.26575 -91.077529 -13.133972
-14.155091 -89.921036 -12.998088
-14.249884 -90.348091 -15.406251
-13.360544 -91.504585 -15.542135
-13.769643 -90.728378 -14.348171
5.546121 -105.468994 -28.120882
6.989641 -105.853134 -27.996933
6.624887 -106.112625 -26.986891
3.553636 -104.035416 -30.051495
4.883669 -104.439415 -30.08088
4.580842 -104.805504 -29.101539
2.201013 -103.549683 -29.948849
1.964225 -103.860458 -28.98862
0.91443 -103.008636 -29.865316
3.553636 -104.035416 -30.051495
2.201013 -103.549683 -29.948849
-3.795097 -99.666966 -30.90397
-5.057411 -98.885273 -30.534146
-4.86689 -98.520355 -31.501339
-2.630809 -100.296825 -31.234598
-2.82133 -100.661743 -30.267405
-3.795097 -99.666966 -30.90397
-1.367941 -100.94051 -31.507452
-2.630809 -100.296825 -31.234598
7.308803 -105.515808 -28.993718
6.989641 -105.853134 -27.996933
7.308803 -105.515808 -28.993718
6.290015 -104.808411 -30.052629
-13.428978 -92.187664 -22.670918
-13.128025 -92.572388 -21.690379
-13.99134 -91.446766 -21.653493
-13.72679 -91.73605 -23.592245
-12.863475 -92.861671 -23.629131
-13.428978 -92.187664 -22.670918
-14.020873 -91.248428 -24.57391
-13.72679 -91.73605 -23.592245
-14.253919 -90.737972 -17.633647
-14.73389 -89.902214 -16.486241
-10.039682 -95.902393 -19.165087
-10.467875 -95.293842 -18.045549
-9.544521 -96.552528 -20.239604
-10.039682 -95.902393 -19.165087
-10.542662 -95.493732 -20.05131
-9.117012 -97.069069 -21.29212
-9.544521 -96.552528 -20.239604
-9.65148 -96.589611 -22.057059
-8.720989 -97.514813 -22.223351
-9.117012 -97.069069 -21.29212
6.239629 -106.273922 -25.942639
6.624887 -106.112625 -26.986891
4.841876 -105.839333 -26.049045
6.239629 -106.273922 -25.942639
3.556974 -105.383434 -25.974676
3.896465 -105.272587 -27.036471
4.841876 -105.839333 -26.049045
2.25605 -104.84684 -25.920248
3.556974 -105.383434 -25.974676
0.990617 -104.255791 -25.821639
1.34613 -104.225639 -26.863494
2.25605 -104.84684 -25.920248
-0.256373 -103.606105 -25.729546
0.990617 -104.255791 -25.821639
-1.545632 -102.84729 -25.660861
-1.208562 -102.875775 -26.6962
-0.256373 -103.606105 -25.729546
-2.744995 -102.102554 -25.554482
-1.545632 -102.84729 -25.660861
-3.933508 -101.319176 -25.225732
-3.686333 -101.33358 -26.298766
-2.744995 -102.102554 -25.554482
-5.151702 -100.44551 -24.975091
-3.933508 -101.319176 -25.225732
-6.205112 -99.630898 -24.723834
-5.928256 -99.735588 -25.71876
-5.151702 -100.44551 -24.975091
-7.229145 -98.796532 -24.449882
-6.205112 -99.630898 -24.723834
-8.134871 -98.025692 -24.084505
-7.887392 -98.150135 -25.102125
-7.229145 -98.796532 -24.449882
-9.024287 -97.207325 -23.862519
-8.134871 -98.025692 -24.084505
-8.366041 -97.853722 -23.210275
-14.860743 -89.205487 -28.245065
-14.692143 -89.725895 -27.311594
-14.032074 -90.023415 -29.026159
-14.860743 -89.205487 -28.245065
-13.126126 -90.863438 -29.812492
-13.013695 -91.393566 -28.873533
-14.032074 -90.023415 -29.026159
-12.278244 -91.546646 -30.58282
-13.126126 -90.863438 -29.812492
-11.378402 -92.267349 -31.250851
-11.207905 -92.954292 -30.327897
-12.278244 -91.546646 -30.58282
-10.336847 -93.05809 -31.940656
-11.378402 -92.267349 -31.250851
3 0 14 12
3 1 17 15
3 2 20 18
3 2 46 48
3 48 47 20
3 46 47 48
3 3 49 51
3 51 50 21
3 49 50 51
3 3 24 23
3 3 21 24
3 4 29 27
3 6 30 13
3 6 31 30
3 52 32 53
3 54 33 55
3 57 56 33
3 7 36 34
3 8 58 60
3 60 59 16
3 58 59 60
3 8 61 62
3 5 37 28
3 64 63 19
3 66 65 35
3 9 40 38
3 68 67 22
3 9 41 25
3 9 38 41
3 69 42 70
3 10 43 39
3 11 44 26
3 11 45 44
3 12 13 4
3 14 13 12
3 14 6 13
3 15 16 7
3 17 16 15
3 17 8 16
3 18 19 5
3 20 19 18
3 20 71 73
3 73 72 19
3 71 72 73
3 20 74 75
3 77 76 20
3 21 22 9
3 78 22 79
3 80 79 21
3 78 79 80
3 82 81 22
3 23 83 84
3 24 85 87
3 87 86 23
3 85 86 87
3 24 88 89
3 24 90 92
3 90 25 91
3 90 91 92
3 21 25 24
3 21 9 25
3 93 26 94
3 95 94 10
3 93 94 95
3 96 26 97
3 98 11 99
3 100 99 26
3 98 99 100
3 27 28 1
3 29 28 27
3 29 5 28
3 13 29 4
3 30 29 13
3 30 5 29
3 30 18 5
3 31 18 30
3 31 2 18
3 102 101 3
3 32 103 104
3 32 105 106
3 107 32 108
3 33 109 111
3 109 32 110
3 109 110 111
3 33 112 114
3 114 113 32
3 112 113 114
3 33 115 117
3 115 23 116
3 115 116 117
3 118 23 119
3 120 119 33
3 118 119 120
3 121 3 122
3 123 122 23
3 121 122 123
3 34 124 126
3 124 35 125
3 124 125 126
3 36 35 34
3 36 127 129
3 129 128 35
3 127 128 129
3 16 36 7
3 130 36 131
3 132 131 16
3 130 131 132
3 134 133 36
3 28 17 1
3 37 17 28
3 37 8 17
3 19 37 5
3 135 37 136
3 137 136 19
3 135 136 137
3 138 8 139
3 140 139 37
3 138 139 140
3 142 141 8
3 35 143 144
3 146 145 35
3 38 39 0
3 40 39 38
3 40 10 39
3 22 40 9
3 147 40 148
3 149 148 22
3 147 148 149
3 150 10 151
3 152 151 40
3 150 151 152
3 154 153 10
3 156 155 3
3 25 157 158
3 41 159 161
3 161 160 25
3 159 160 161
3 41 162 163
3 41 164 166
3 164 42 165
3 164 165 166
3 38 42 41
3 38 0 42
3 167 34 168
3 169 34 170
3 171 7 172
3 173 172 34
3 171 172 173
3 174 7 175
3 176 15 177
3 178 177 7
3 176 177 178
3 179 15 180
3 181 1 182
3 183 182 15
3 181 182 183
3 184 1 185
3 186 27 187
3 188 187 1
3 186 187 188
3 189 27 190
3 191 4 192
3 193 192 27
3 191 192 193
3 194 4 195
3 196 12 197
3 198 197 4
3 196 197 198
3 42 199 201
3 199 12 200
3 199 200 201
3 42 0 12
3 39 14 0
3 43 14 39
3 43 6 14
3 26 43 10
3 44 43 26
3 44 6 43
3 44 31 6
3 45 31 44
3 45 2 31
3 202 11 203
3 204 11 205
3 206 45 207
3 208 207 11
3 206 207 208
3 209 45 210
3 211 2 212
3 213 212 45
3 211 212 213
3 215 214 2
