ply
format ascii 1.0
element vertex 295
property float x
property float y
property float z
element face 297
property list uchar int vertex_index
end_header
-22.949369 -7.076767 -6.347281
-17.605505 15.61138 -10.025839
-23.243307 -0.753532 -4.570301
-19.391895 2.872742 -8.127129
-18.007877 7.659054 -12.466965
-18.0562 13.802598 -18.963219
-22.247456 5.174368 -5.956969
-18.287991 8.927508 -9.075715
-18.463007 5.149936 -10.052222
-17.229885 11.084056 -10.922724
-22.523855 -4.445214 -5.145306
-20.953787 -2.415253 -7.155027
-20.926704 0.954433 -6.367955
-19.945221 6.868007 -7.458177
-19.364504 13.386274 -8.540758
-20.105057 -0.186176 -9.313561
-19.78841 2.471994 -11.942013
-19.885981 5.477718 -15.039108
-16.545025 13.870604 -13.204623
-17.879644 10.739916 -15.518682
-20.310457 8.561144 -18.545399
-20.656376 12.235103 -22.515949
-22.461229 -5.975803 -7.444369
-23.564173 -8.003903 -5.246374
-24.712479 -10.161271 -4.82541
-24.135893 -9.259463 -5.964876
-17.919403 12.246794 -9.531073
-17.680931 10.016174 -9.983852
-17.260456 13.346479 -10.407122
-22.656956 -2.595284 -4.861673
-21.646196 -1.750081 -5.769053
-21.969961 0.204934 -5.501103
-21.049541 5.966846 -6.679193
-20.677887 9.034754 -7.285177
-19.542448 9.934175 -8.031267
-20.436295 12.220563 -7.85292
-23.513973 -5.140196 -4.1873
-20.098532 0.264577 -7.617939
-20.448156 -1.321406 -8.158638
-19.573792 1.341 -8.623466
-18.187748 6.366603 -11.236007
-18.939486 3.784047 -10.903828
-18.899349 4.935702 -12.30174
-19.823906 3.832954 -13.3978
-18.781252 6.472972 -13.627369
-16.281216 15.923846 -12.44264
-17.022732 14.99946 -17.32328
-17.028635 13.557409 -15.774843
-18.021559 12.057032 -17.191223
-18.992441 9.394492 -16.877457
-19.099089 11.037191 -18.608725
-20.484564 10.297009 -20.415476
-19.350479 12.591399 -20.554586
-24.003374 1.466783 -4.477865
-22.635307 2.116331 -5.296136
-18.82452 5.655047 -8.562175
-18.854284 3.98446 -9.093593
-18.213932 6.96517 -9.51785
-17.812361 7.961078 -10.502017
-17.461205 9.355723 -11.584221
-16.882185 16.781879 -10.910749
-22.55933 -5.830946 -5.68811
-21.896975 -4.791251 -6.665595
-21.626213 -3.407423 -6.155072
-20.792128 -0.896766 -6.705948
-20.067993 1.941562 -7.233884
-21.433611 2.929269 -6.100189
-20.403999 3.830991 -6.896597
-19.503363 4.728576 -7.736423
-19.019033 7.798271 -8.258024
-18.702837 10.968656 -8.725841
-18.417536 14.470013 -9.254356
-19.133871 16.941877 -9.106687
-18.231232 18.119215 -9.765924
-23.349073 -6.641452 -4.671977
-21.391771 -3.709436 -7.760344
-21.078905 -2.605996 -8.926779
-20.877304 -1.294034 -10.24443
-19.228737 2.400791 -9.719756
-19.854162 1.188882 -10.597087
-16.740219 14.422385 -11.3614
-16.818712 12.578685 -12.040328
-17.264912 10.547316 -12.837445
-16.34495 15.244954 -14.526538
-17.053362 12.201303 -14.220966
-17.911816 9.189933 -13.990303
-18.882116 7.851509 -15.208751
-20.042727 7.115457 -16.792494
-22.705299 -6.526285 -6.895825
-23.067075 -7.076576 -7.293557
-23.311145 -7.627058 -6.745013
-23.311145 -7.627058 -6.745013
-23.904407 -8.718406 -6.55381
-23.542631 -8.168115 -6.156078
-21.174655 10.156372 -7.241572
-21.312453 8.642077 -6.936593
-21.053859 11.749277 -7.525443
-20.557091 10.627658 -7.569049
-21.174655 10.156372 -7.241572
-23.561587 -1.953354 -4.245664
-23.946649 -0.946784 -4.131278
-22.950132 -1.674408 -4.715987
-23.268411 -2.87423 -4.391349
-23.561587 -1.953354 -4.245664
-25.346909 -11.200563 -4.611817
-25.033895 -10.691128 -5.238328
-23.808485 2.894778 -4.831114
-24.552881 2.56269 -4.438999
-24.552881 2.56269 -4.438999
-24.825814 1.265624 -4.033455
-19.122821 18.74224 -9.34423
-19.659759 18.034381 -9.022338
-18.671501 19.330909 -9.673849
-18.682551 17.530546 -9.436305
-19.122821 18.74224 -9.34423
-18.183864 19.878529 -10.000816
-18.671501 19.330909 -9.673849
-20.283735 1.328467 -11.811347
-20.316611 0.686911 -11.138884
-19.821286 1.830438 -11.26955
-20.340775 2.00841 -12.57723
-20.283735 1.328467 -11.811347
-20.394392 4.341838 -14.888084
-20.363354 3.519456 -14.067429
-19.854944 4.655336 -14.218454
-20.549979 5.094899 -15.7924
-20.394392 4.341838 -14.888084
-16.533682 16.171146 -11.59466
-16.811202 15.602132 -11.136074
-16.604665 17.350893 -11.369335
-16.287508 15.926593 -15.262402
-16.014122 16.944049 -14.732672
-20.860148 7.484604 -18.438716
-20.726282 6.76176 -17.562264
-20.176592 7.838301 -17.668947
-21.017485 8.349889 -19.438975
-20.860148 7.484604 -18.438716
-21.312647 11.115004 -22.447427
-21.226741 10.145957 -21.397191
-20.57047 11.266056 -21.465713
-21.455029 12.032211 -23.5154
-21.312647 11.115004 -22.447427
-22.895624 -6.46258 -7.912614
-23.067075 -7.076576 -7.293557
-22.314351 -5.413024 -8.049909
-22.895624 -6.46258 -7.912614
-24.138326 -9.082587 -5.035892
-24.549262 -9.545752 -4.492801
-23.975108 -8.467068 -4.703283
-24.745603 -10.240224 -5.808061
-25.033895 -10.691128 -5.238328
-24.424186 -9.710367 -5.395143
-24.50976 -9.686833 -6.411802
-24.745603 -10.240224 -5.808061
-24.50976 -9.686833 -6.411802
-23.904407 -8.718406 -6.55381
-21.49828 7.108124 -6.633601
-21.648499 5.570607 -6.318081
-22.097238 6.711885 -6.272489
-20.863714 7.5008 -6.982185
-21.49828 7.108124 -6.633601
-21.312453 8.642077 -6.936593
-23.696919 -4.146687 -4.054163
-24.080632 -5.394987 -3.711216
-23.085465 -3.86774 -4.524487
-23.696919 -4.146687 -4.054163
-23.268411 -2.87423 -4.391349
-16.076155 17.619459 -12.614818
-16.304181 16.921876 -12.135281
-16.118489 16.56041 -13.008538
-16.076155 17.619459 -12.614818
-16.250393 15.533789 -13.38953
-16.41312 14.897225 -12.823632
-16.118489 16.56041 -13.008538
-17.025683 14.278434 -16.549062
-16.629351 15.082821 -15.886554
-16.626399 15.803846 -16.660773
-25.131918 -10.640103 -4.234116
-24.549262 -9.545752 -4.492801
-25.131918 -10.640103 -4.234116
-25.346909 -11.200563 -4.611817
-23.124451 3.219552 -5.240249
-23.319341 1.791557 -4.887001
-23.808485 2.894778 -4.831114
-22.930526 4.74857 -5.570666
-22.441381 3.64535 -5.626552
-23.124451 3.219552 -5.240249
-22.774459 6.29287 -5.925469
-22.930526 4.74857 -5.570666
-22.097238 6.711885 -6.272489
-22.774459 6.29287 -5.925469
-24.326683 0.163373 -4.08506
-24.825814 1.265624 -4.033455
-23.623341 0.356625 -4.524083
-23.946649 -0.946784 -4.131278
-24.326683 0.163373 -4.08506
-16.566644 16.631474 -17.449489
-16.626399 15.803846 -16.660773
-17.039756 15.764318 -18.180502
-16.566644 16.631474 -17.449489
-17.55649 15.165888 -19.000471
-17.539466 14.401029 -18.143249
-17.039756 15.764318 -18.180502
-18.149752 14.526203 -19.893193
-17.55649 15.165888 -19.000471
-17.142661 17.872186 -10.691717
-17.243845 16.19663 -10.468294
-17.504321 17.286936 -10.249262
-16.76076 18.524664 -11.129992
-17.142661 17.872186 -10.691717
-16.604665 17.350893 -11.369335
-16.76076 18.524664 -11.129992
-20.951107 13.487952 -7.84371
-21.053859 11.749277 -7.525443
-20.331629 13.98958 -8.150871
-20.951107 13.487952 -7.84371
-19.795734 14.572436 -8.49479
-19.900399 12.803418 -8.196839
-20.331629 13.98958 -8.150871
-19.680417 16.350237 -8.777755
-19.659759 18.034381 -9.022338
-19.249187 15.164076 -8.823723
-19.795734 14.572436 -8.49479
-19.680417 16.350237 -8.777755
-17.817184 18.540854 -10.119305
-17.504321 17.286936 -10.249262
-17.918368 16.865298 -9.895881
-17.817184 18.540854 -10.119305
-18.183864 19.878529 -10.000816
-23.948766 -6.309518 -3.899838
-24.080632 -5.394987 -3.711216
-23.866315 -7.060145 -4.142176
-23.948766 -6.309518 -3.899838
-23.431523 -5.890824 -4.429638
-23.867559 -7.785842 -4.416085
-23.866315 -7.060145 -4.142176
-23.456623 -7.322677 -4.959176
-23.975108 -8.467068 -4.703283
-23.867559 -7.785842 -4.416085
-21.779622 -4.279841 -8.207896
-22.314351 -5.413024 -8.049909
-21.9265 -4.842619 -7.602356
-21.623189 -3.728121 -8.791113
-21.779622 -4.279841 -8.207896
-21.235338 -3.157716 -8.343561
-21.500736 -3.021849 -9.454636
-21.623189 -3.728121 -8.791113
-21.399935 -2.365868 -10.113462
-21.500736 -3.021849 -9.454636
-20.978105 -1.950015 -9.585604
-21.37941 -1.653617 -10.843798
-21.399935 -2.365868 -10.113462
-20.828182 -0.554547 -10.962556
-20.365733 -0.052576 -10.420758
-20.316611 0.686911 -11.138884
-21.37941 -1.653617 -10.843798
-20.828182 -0.554547 -10.962556
-20.358522 2.68889 -13.305124
-20.340775 2.00841 -12.57723
-19.806158 3.152474 -12.669906
-20.358522 2.68889 -13.305124
-20.363354 3.519456 -14.067429
-16.510717 15.173115 -11.90202
-16.533682 16.171146 -11.59466
-16.304181 16.921876 -12.135281
-16.150355 16.220964 -14.050487
-16.014122 16.944049 -14.732672
-16.444987 14.557779 -13.865581
-16.250393 15.533789 -13.38953
-16.150355 16.220964 -14.050487
-16.686793 14.401181 -15.15069
-16.287508 15.926593 -15.262402
-16.629351 15.082821 -15.886554
-20.628352 5.913768 -16.669093
-20.549979 5.094899 -15.7924
-19.964354 6.296588 -15.915801
-20.628352 5.913768 -16.669093
-20.726282 6.76176 -17.562264
-21.104538 9.217822 -20.374013
-21.017485 8.349889 -19.438975
-20.39751 9.429077 -19.480438
-21.104538 9.217822 -20.374013
-21.226741 10.145957 -21.397191
-18.796891 13.920603 -20.688877
-18.703339 13.196998 -19.758902
-18.149752 14.526203 -19.893193
-19.40449 13.484981 -21.52196
-18.796891 13.920603 -20.688877
-20.057438 13.306833 -22.502641
-20.003428 12.413251 -21.535267
-19.40449 13.484981 -21.52196
-20.769862 13.06716 -23.505195
-20.057438 13.306833 -22.502641
-21.455029 12.032211 -23.5154
-20.769862 13.06716 -23.505195
3 0 88 90
3 88 22 89
3 88 89 90
3 0 25 23
3 0 91 93
3 93 92 25
3 91 92 93
3 1 28 26
3 2 31 29
3 94 33 95
3 96 35 97
3 98 97 33
3 96 97 98
3 2 99 100
3 2 101 103
3 101 29 102
3 101 102 103
3 3 39 37
3 4 42 40
3 4 44 42
3 5 48 46
3 5 50 48
3 5 52 50
3 105 104 24
3 107 106 53
3 108 53 109
3 7 57 55
3 9 58 27
3 9 59 58
3 10 63 61
3 12 64 30
3 12 65 64
3 6 66 54
3 13 67 32
3 13 68 67
3 13 69 68
3 14 70 34
3 14 71 70
3 110 72 111
3 112 73 113
3 114 113 72
3 112 113 114
3 116 115 73
3 10 74 36
3 10 61 74
3 11 75 62
3 15 76 38
3 15 77 76
3 8 78 56
3 16 79 41
3 16 117 119
3 119 118 79
3 117 118 119
3 16 120 121
3 17 122 124
3 124 123 43
3 122 123 124
3 17 125 126
3 127 80 128
3 129 128 60
3 127 128 129
3 18 81 45
3 18 82 81
3 130 83 131
3 19 84 47
3 19 85 84
3 19 86 85
3 20 87 49
3 20 132 134
3 134 133 87
3 132 133 134
3 20 135 136
3 21 137 139
3 139 138 51
3 137 138 139
3 21 140 141
3 22 142 143
3 22 144 145
3 23 146 148
3 146 24 147
3 146 147 148
3 25 24 23
3 25 149 151
3 151 150 24
3 149 150 151
3 25 152 153
3 155 154 25
3 26 27 7
3 28 27 26
3 28 9 27
3 29 30 10
3 31 30 29
3 31 12 30
3 156 32 157
3 158 157 6
3 156 157 158
3 33 159 161
3 159 32 160
3 159 160 161
3 33 13 32
3 33 34 13
3 35 34 33
3 35 14 34
3 162 36 163
3 29 164 166
3 164 36 165
3 164 165 166
3 29 10 36
3 37 38 11
3 39 38 37
3 39 15 38
3 40 41 8
3 42 41 40
3 42 16 41
3 42 43 16
3 44 43 42
3 44 17 43
3 167 45 168
3 169 45 170
3 171 18 172
3 173 172 45
3 171 172 173
3 46 174 176
3 174 47 175
3 174 175 176
3 48 47 46
3 48 19 47
3 48 49 19
3 50 49 48
3 50 20 49
3 50 51 20
3 52 51 50
3 52 21 51
3 24 177 178
3 180 179 24
3 53 54 2
3 181 54 182
3 183 182 53
3 181 182 183
3 184 6 185
3 186 185 54
3 184 185 186
3 187 6 188
3 190 189 6
3 53 191 192
3 53 193 195
3 193 2 194
3 193 194 195
3 55 56 3
3 57 56 55
3 57 8 56
3 27 57 7
3 58 57 27
3 58 8 57
3 58 40 8
3 59 40 58
3 59 4 40
3 196 46 197
3 198 46 199
3 200 5 201
3 202 201 46
3 200 201 202
3 204 203 5
3 205 60 206
3 207 206 1
3 205 206 207
3 208 60 209
3 211 210 60
3 61 62 0
3 63 62 61
3 63 11 62
3 30 63 10
3 64 63 30
3 64 11 63
3 64 37 11
3 65 37 64
3 65 3 37
3 54 31 2
3 66 31 54
3 66 12 31
3 32 66 6
3 67 66 32
3 67 12 66
3 67 65 12
3 68 65 67
3 68 3 65
3 68 55 3
3 69 55 68
3 69 7 55
3 34 69 13
3 70 69 34
3 70 7 69
3 70 26 7
3 71 26 70
3 71 1 26
3 212 35 213
3 214 35 215
3 216 14 217
3 218 217 35
3 216 217 218
3 72 219 220
3 72 221 223
3 221 14 222
3 221 222 223
3 72 71 14
3 73 71 72
3 73 1 71
3 73 224 226
3 226 225 1
3 224 225 226
3 228 227 73
3 36 229 230
3 74 231 233
3 233 232 36
3 231 232 233
3 74 234 235
3 74 236 238
3 236 23 237
3 236 237 238
3 61 23 74
3 61 0 23
3 62 22 0
3 75 22 62
3 75 239 241
3 241 240 22
3 239 240 241
3 38 75 11
3 76 75 38
3 76 242 244
3 244 243 75
3 242 243 244
3 76 245 246
3 77 247 249
3 249 248 76
3 247 248 249
3 77 250 251
3 56 39 3
3 78 39 56
3 78 15 39
3 41 78 8
3 79 78 41
3 79 15 78
3 79 77 15
3 252 77 253
3 254 253 79
3 252 253 254
3 256 255 77
3 43 257 259
3 259 258 16
3 257 258 259
3 261 260 43
3 60 28 1
3 80 28 60
3 80 9 28
3 45 262 264
3 262 80 263
3 262 263 264
3 81 80 45
3 81 9 80
3 81 59 9
3 82 59 81
3 82 4 59
3 83 265 266
3 83 267 269
3 267 18 268
3 267 268 269
3 47 270 272
3 270 83 271
3 270 271 272
3 84 83 47
3 84 18 83
3 84 82 18
3 85 82 84
3 85 4 82
3 85 44 4
3 86 44 85
3 86 17 44
3 49 86 19
3 87 86 49
3 87 17 86
3 87 273 275
3 275 274 17
3 273 274 275
3 277 276 87
3 51 278 280
3 280 279 20
3 278 279 280
3 282 281 51
3 283 52 284
3 285 284 5
3 283 284 285
3 286 52 287
3 288 21 289
3 290 289 52
3 288 289 290
3 291 21 292
3 294 293 21
