ply
format ascii 1.0
element vertex 161
property float x
property float y
property float z
element face 146
property list uchar int vertex_index
end_header
7.685016 -91.253311 -34.549564
0.806557 -89.541084 -39.143723
-5.499354 -83.653511 -40.273411
2.029612 -96.182678 -33.988892
4.512986 -90.748016 -37.336998
-1.716709 -95.515541 -36.084259
-8.352298 -90.145943 -37.872581
-5.168711 -93.353653 -37.443703
-2.693183 -87.076126 -40.075092
0.151477 -95.997238 -35.158592
2.727443 -90.306801 -38.323914
3.891831 -87.215935 -39.702625
2.222043 -86.176353 -40.477154
-6.650359 -96.111801 -35.8843
-8.219408 -94.853714 -36.219997
-6.952853 -86.832916 -39.161133
-5.657486 -88.808006 -39.017509
-4.154255 -85.475685 -40.250534
-1.296234 -83.68222 -41.225262
-2.658607 -81.706894 -41.42662
4.991765 -93.745819 -34.360817
6.14607 -91.091774 -36.075085
3.181181 -93.634148 -35.740452
1.45285 -93.247208 -36.819839
-0.341046 -92.568459 -37.713924
-9.648604 -93.262138 -36.436401
-11.138363 -91.284439 -36.456924
-9.617765 -88.325668 -37.841232
-8.301153 -85.091637 -39.007317
-4.955614 -97.321602 -35.205559
-3.487387 -94.58609 -36.87735
-2.341425 -91.684776 -38.349003
-6.770678 -91.832916 -37.78109
-3.845523 -90.157288 -38.8969
-0.859504 -88.477234 -39.712769
0.460217 -85.037506 -40.968174
-6.725537 -81.515305 -40.183002
8.492574 -91.083141 -33.742826
7.103389 -92.499866 -33.645605
9.06919 -89.827305 -34.603096
8.492574 -91.083141 -33.742826
8.362317 -89.795665 -35.396627
9.06919 -89.827305 -34.603096
-9.703976 -95.453418 -35.477516
-8.835414 -96.22295 -35.367387
2.904135 -96.162887 -33.281661
1.399652 -97.341674 -33.057592
3.510689 -94.964248 -34.174854
4.385211 -94.944458 -33.467623
2.904135 -96.162887 -33.281661
-12.509483 -91.790173 -35.606358
-11.809675 -92.683739 -35.709084
-10.213826 -87.230396 -37.765514
-11.046587 -88.795852 -37.049556
-11.642648 -87.700581 -36.973838
-9.555521 -85.613381 -38.348557
-8.959459 -86.708652 -38.424274
-10.213826 -87.230396 -37.765514
5.920431 -89.467133 -37.499836
6.736973 -89.639012 -36.86888
5.329528 -90.919895 -36.706041
-6.395935 -98.022343 -34.654821
-5.426744 -98.424499 -34.374153
0.256672 -82.620956 -41.656904
-0.497267 -81.825244 -41.791211
-7.190958 -80.271241 -40.133146
-8.040774 -82.105396 -39.530542
0.502597 -97.211643 -33.76239
1.399652 -97.341674 -33.057592
-0.436471 -97.118923 -34.34724
1.090545 -96.089958 -34.573742
0.502597 -97.211643 -33.76239
-1.391736 -96.975048 -34.80644
-0.436471 -97.118923 -34.34724
-2.325829 -96.7342 -35.269273
-0.782616 -95.756389 -35.621426
-1.391736 -96.975048 -34.80644
4.153442 -89.090309 -38.552964
5.046214 -89.310917 -38.059506
3.620214 -90.527409 -37.830456
4.735636 -87.544876 -39.242319
4.153442 -89.090309 -38.552964
3.309637 -88.761368 -39.013269
5.395026 -85.92606 -39.910097
4.735636 -87.544876 -39.242319
4.468047 -85.554856 -40.351501
5.395026 -85.92606 -39.910097
3.633154 -85.035065 -40.738766
4.468047 -85.554856 -40.351501
3.056937 -86.696144 -40.089889
2.914265 -84.367275 -41.106373
3.633154 -85.035065 -40.738766
-8.05089 -96.851993 -35.199539
-7.243308 -97.417442 -34.994192
-7.434883 -95.482757 -36.052149
-8.05089 -96.851993 -35.199539
-8.835414 -96.22295 -35.367387
-1.178454 -80.837581 -41.89189
-0.497267 -81.825244 -41.791211
-1.977421 -82.694557 -41.325941
5.756763 -93.74612 -33.551232
4.385211 -94.944458 -33.467623
6.338391 -92.499565 -34.455191
7.103389 -92.499866 -33.645605
5.756763 -93.74612 -33.551232
-11.064796 -93.672588 -35.698822
-10.418574 -94.65763 -35.585718
-10.393484 -92.273289 -36.446663
-11.064796 -93.672588 -35.698822
-11.809675 -92.683739 -35.709084
-11.806885 -90.275238 -36.357402
-12.509483 -91.790173 -35.606358
-10.378064 -89.805053 -37.149078
-11.806885 -90.275238 -36.357402
-11.046587 -88.795852 -37.049556
7.592843 -89.714897 -36.159388
8.362317 -89.795665 -35.396627
6.915543 -91.172542 -35.312325
7.592843 -89.714897 -36.159388
6.736973 -89.639012 -36.86888
5.920431 -89.467133 -37.499836
5.046214 -89.310917 -38.059506
-3.945281 -97.63723 -34.829923
-4.416411 -98.740127 -33.998517
-5.426744 -98.424499 -34.374153
-3.336161 -96.418571 -35.644909
-2.325829 -96.7342 -35.269273
-3.945281 -97.63723 -34.829923
-5.802986 -96.716701 -35.54493
-6.395935 -98.022343 -34.654821
-7.243308 -97.417442 -34.994192
-8.934006 -94.057926 -36.328199
-9.703976 -95.453418 -35.477516
-10.418574 -94.65763 -35.585718
2.033352 -83.797852 -41.351883
2.914265 -84.367275 -41.106373
1.34113 -85.60693 -40.722664
1.134898 -83.298599 -41.52836
-0.418009 -84.359863 -41.096718
0.256672 -82.620956 -41.656904
2.033352 -83.797852 -41.351883
1.134898 -83.298599 -41.52836
-8.828582 -83.893563 -38.9427
-9.555521 -85.613381 -38.348557
-7.513345 -83.303471 -39.59516
-8.828582 -83.893563 -38.9427
-8.040774 -82.105396 -39.530542
-5.91919 -79.544731 -40.74844
-7.190958 -80.271241 -40.133146
-5.386352 -80.77195 -40.765712
-5.91919 -79.544731 -40.74844
-4.773261 -81.841053 -40.810917
-6.112445 -82.584408 -40.228206
-5.386352 -80.77195 -40.765712
-3.352887 -80.867745 -41.387521
-4.078981 -82.680203 -40.850015
-4.773261 -81.841053 -40.810917
-1.858138 -79.868527 -41.961678
-3.352887 -80.867745 -41.387521
-1.178454 -80.837581 -41.89189
-1.858138 -79.868527 -41.961678
3 0 37 38
3 0 39 40
3 0 41 42
3 1 11 10
3 1 12 11
3 43 14 44
3 2 17 15
3 2 19 17
3 3 45 46
3 3 47 49
3 47 20 48
3 47 48 49
3 3 22 20
3 5 23 9
3 5 24 23
3 50 26 51
3 52 27 53
3 52 53 54
3 55 28 56
3 57 56 27
3 55 56 57
3 4 58 60
3 60 59 21
3 58 59 60
3 61 29 62
3 7 30 13
3 7 31 30
3 6 32 25
3 8 33 16
3 8 34 33
3 8 35 34
3 64 63 18
3 65 36 66
3 67 3 68
3 69 9 70
3 71 70 3
3 69 70 71
3 72 9 73
3 74 5 75
3 76 75 9
3 74 75 76
3 10 77 79
3 79 78 4
3 77 78 79
3 11 80 82
3 82 81 10
3 80 81 82
3 11 83 84
3 11 85 86
3 12 87 89
3 89 88 11
3 87 88 89
3 12 90 91
3 92 13 93
3 14 94 96
3 94 13 95
3 94 95 96
3 14 7 13
3 15 16 6
3 17 16 15
3 17 8 16
3 17 18 8
3 19 18 17
3 19 97 99
3 99 98 18
3 97 98 99
3 20 100 101
3 20 102 104
3 102 0 103
3 102 103 104
3 20 21 0
3 22 21 20
3 22 4 21
3 9 22 3
3 23 22 9
3 23 4 22
3 23 10 4
3 24 10 23
3 24 1 10
3 105 25 106
3 26 107 109
3 107 25 108
3 107 108 109
3 26 6 25
3 110 26 111
3 27 112 114
3 112 26 113
3 112 113 114
3 27 6 26
3 27 15 6
3 28 15 27
3 28 2 15
3 21 115 117
3 117 116 0
3 115 116 117
3 119 118 21
3 121 120 4
3 29 122 124
3 122 123 124
3 29 125 127
3 125 5 126
3 125 126 127
3 13 128 130
3 128 29 129
3 128 129 130
3 30 29 13
3 30 5 29
3 30 24 5
3 31 24 30
3 31 1 24
3 25 131 133
3 131 14 132
3 131 132 133
3 32 14 25
3 32 7 14
3 16 32 6
3 33 32 16
3 33 7 32
3 33 31 7
3 34 31 33
3 34 1 31
3 34 12 1
3 35 12 34
3 35 134 136
3 136 135 12
3 134 135 136
3 18 35 8
3 137 35 138
3 139 138 18
3 137 138 139
3 141 140 35
3 142 28 143
3 36 144 146
3 144 28 145
3 144 145 146
3 36 2 28
3 147 36 148
3 149 36 150
3 151 2 152
3 153 152 36
3 151 152 153
3 154 19 155
3 156 155 2
3 154 155 156
3 157 19 158
3 160 159 19
