ply
format ascii 1.0
element vertex 263
property float x
property float y
property float z
element face 235
property list uchar int vertex_index
end_header
17.538254 -63.814774 -45.53101
11.57533 -58.518627 -48.21051
6.784005 -49.827591 -49.415119
14.557706 -61.259823 -47.250092
1.827839 -54.057178 -46.934647
20.662912 -65.208527 -43.268372
22.88903 -57.499294 -45.882118
19.818455 -55.50359 -48.069241
16.792009 -52.575684 -49.724289
13.970145 -49.30135 -50.766426
9.086836 -54.36895 -48.939476
-0.543482 -55.513336 -45.700871
16.277065 -67.905556 -44.289001
17.833305 -68.504852 -43.249786
19.188473 -64.567314 -44.462936
21.752913 -61.467236 -44.564247
20.308739 -60.582439 -45.759605
21.207172 -56.640972 -47.092377
18.651875 -59.67635 -46.809402
13.107967 -59.764748 -47.85656
15.721155 -56.883976 -48.479774
14.286835 -55.33313 -49.066299
15.452662 -50.875393 -50.33342
12.794396 -53.827404 -49.474178
5.346334 -54.23542 -48.111568
6.537027 -56.510445 -47.976276
7.823985 -52.256229 -49.153854
10.131048 -50.053638 -50.128834
9.148494 -47.508476 -50.554096
14.756147 -67.011429 -45.197376
16.07761 -62.680134 -46.445267
13.234561 -65.571053 -46.069195
11.658593 -64.270844 -46.667229
10.219929 -62.859901 -47.082733
2.913883 -56.455856 -46.951649
4.288744 -51.982033 -48.205414
-5.520941 -55.718002 -42.979004
-3.252798 -54.292408 -44.473579
-1.245034 -52.795891 -45.727772
16.507362 -72.452957 -41.924126
19.383648 -68.94989 -42.006378
22.121918 -65.613342 -41.906467
22.342728 -52.340801 -48.458328
20.789097 -51.141479 -49.461407
17.203476 -58.245487 -47.758862
18.349556 -54.115433 -48.961815
19.311781 -49.985107 -50.228905
17.920269 -48.198322 -51.028065
16.504154 -46.522827 -51.641525
8.904506 -60.930973 -47.459866
7.638885 -58.757885 -47.749413
10.28518 -56.344437 -48.65358
11.563787 -51.821327 -49.894703
12.638331 -47.501801 -51.156498
1.061433 -51.084671 -47.081593
3.364985 -49.24321 -48.377678
-1.71401 -56.531532 -45.009727
-1.264582 -57.777168 -45.094145
13.414904 -68.277783 -45.075489
14.094356 -68.95805 -44.637457
12.65411 -67.557594 -45.511398
13.995354 -66.291241 -45.633285
13.414904 -68.277783 -45.075489
10.288767 -65.642933 -46.3468
11.054726 -66.414055 -46.095886
9.569435 -64.937461 -46.554552
10.939261 -63.565372 -46.874981
10.288767 -65.642933 -46.3468
2.370861 -55.256517 -46.943148
1.597525 -57.45343 -46.309233
1.054504 -56.254091 -46.300732
-4.716412 -53.690256 -43.668593
-5.696725 -54.195123 -42.966793
-3.58234 -52.977459 -44.41588
-4.386869 -55.005205 -43.726292
-4.716412 -53.690256 -43.668593
-2.556635 -52.104031 -45.129568
-3.58234 -52.977459 -44.41588
15.788902 -72.113922 -42.489123
15.229941 -73.911225 -41.866064
21.906926 -63.564774 -43.314656
22.636429 -63.767182 -42.633703
21.392415 -65.410934 -42.587419
23.592876 -57.774683 -45.301721
23.024817 -59.758654 -44.642786
22.320971 -59.483265 -45.223183
24.151608 -55.729725 -46.013643
23.592876 -57.774683 -45.301721
23.332171 -55.552839 -46.568618
24.594749 -53.78327 -46.700143
24.151608 -55.729725 -46.013643
14.541442 -47.068323 -51.449469
15.808446 -45.679062 -51.887018
15.23715 -47.912088 -51.203975
7.630122 -62.041012 -47.057225
8.127149 -63.192717 -46.887451
12.055729 -46.510199 -51.342776
11.38469 -48.77772 -50.642666
10.802087 -47.786118 -50.828943
13.218664 -45.071283 -51.919424
12.055729 -46.510199 -51.342776
0.654678 -49.713745 -47.113478
-0.0918 -51.940281 -46.404682
-0.498556 -50.569355 -46.436568
4.059038 -46.991415 -49.108869
2.966812 -47.861774 -48.476908
4.527774 -48.253958 -49.004537
4.059038 -46.991415 -49.108869
-0.131157 -56.98217 -45.683844
-1.264582 -57.777168 -45.094145
0.642178 -54.785257 -46.317759
1.054504 -56.254091 -46.300732
-0.131157 -56.98217 -45.683844
17.055185 -68.205204 -43.769393
16.451874 -70.13987 -43.151953
15.673754 -69.840222 -43.67156
5.941681 -55.372932 -48.043922
5.246568 -57.70879 -47.421478
4.651221 -56.571277 -47.489124
10.31081 -46.513537 -51.041574
10.802087 -47.786118 -50.828943
9.639771 -48.781057 -50.341465
14.854816 -69.405113 -44.183269
15.673754 -69.840222 -43.67156
15.516606 -67.458493 -44.743189
14.854816 -69.405113 -44.183269
14.094356 -68.95805 -44.637457
11.84271 -67.06416 -45.796869
12.65411 -67.557594 -45.511398
12.446577 -64.920949 -46.368212
11.84271 -67.06416 -45.796869
11.054726 -66.414055 -46.095886
2.121652 -58.601801 -46.347018
1.597525 -57.45343 -46.309233
3.434995 -57.681495 -46.909165
2.121652 -58.601801 -46.347018
4.130108 -55.345638 -47.531609
4.651221 -56.571277 -47.489124
3.434995 -57.681495 -46.909165
-6.512352 -56.220064 -42.266634
-6.688136 -54.697186 -42.254423
-5.696725 -54.195123 -42.966793
-6.279547 -57.722471 -42.352274
-6.512352 -56.220064 -42.266634
-5.23675 -57.075705 -43.042986
-6.279547 -57.722471 -42.352274
-4.102678 -56.362908 -43.790273
-5.23675 -57.075705 -43.042986
-4.386869 -55.005205 -43.726292
-3.068668 -55.921068 -44.396082
-4.102678 -56.362908 -43.790273
-2.248916 -53.54415 -45.100676
-2.064786 -55.172809 -45.023178
-3.068668 -55.921068 -44.396082
-1.552753 -51.355772 -45.756664
-2.248916 -53.54415 -45.100676
-2.556635 -52.104031 -45.129568
-0.498556 -50.569355 -46.436568
-1.552753 -51.355772 -45.756664
16.0345 -74.15485 -41.223313
15.229941 -73.911225 -41.866064
17.365516 -72.50859 -41.266066
16.0345 -74.15485 -41.223313
17.170333 -70.478904 -42.586956
15.788902 -72.113922 -42.489123
16.451874 -70.13987 -43.151953
18.803659 -70.757057 -41.307192
17.365516 -72.50859 -41.266066
17.945505 -70.701424 -41.965252
20.140048 -69.079342 -41.276499
19.560059 -70.886509 -40.577313
18.803659 -70.757057 -41.307192
21.509183 -67.411068 -41.226543
20.140048 -69.079342 -41.276499
20.752783 -67.281616 -41.956423
22.736491 -65.939972 -41.057163
22.123756 -67.737698 -40.377239
21.509183 -67.411068 -41.226543
23.300441 -64.062715 -41.866603
22.736491 -65.939972 -41.057163
23.300441 -64.062715 -41.866603
22.636429 -63.767182 -42.633703
22.451926 -61.694129 -43.962593
21.906926 -63.564774 -43.314656
21.207912 -63.337882 -43.916309
22.451926 -61.694129 -43.962593
23.024817 -59.758654 -44.642786
22.491242 -55.123678 -47.173748
23.332171 -55.552839 -46.568618
22.048101 -57.070133 -46.487247
23.059019 -52.973592 -47.856724
22.491242 -55.123678 -47.173748
21.77495 -54.490887 -47.775352
23.561655 -50.739393 -48.628761
23.059019 -52.973592 -47.856724
22.795428 -50.266007 -49.151506
23.561655 -50.739393 -48.628761
22.018612 -49.666345 -49.653046
22.795428 -50.266007 -49.151506
21.565913 -51.74114 -48.959868
21.388344 -48.894131 -50.15741
22.617859 -47.418997 -50.349049
22.018612 -49.666345 -49.653046
20.649686 -48.315945 -50.541159
21.388344 -48.894131 -50.15741
20.050439 -50.563293 -49.845156
19.848075 -47.730907 -50.933367
20.649686 -48.315945 -50.541159
19.152319 -46.837514 -51.332947
19.848075 -47.730907 -50.933367
18.616025 -49.091714 -50.628485
18.478006 -45.947425 -51.731443
19.152319 -46.837514 -51.332947
17.769949 -45.109678 -52.038173
18.478006 -45.947425 -51.731443
17.212212 -47.360574 -51.334795
16.989268 -44.343187 -52.333307
17.769949 -45.109678 -52.038173
16.989268 -44.343187 -52.333307
15.808446 -45.679062 -51.887018
8.78486 -64.15718 -46.698885
9.569435 -64.937461 -46.554552
9.562217 -61.895437 -47.271299
8.78486 -64.15718 -46.698885
8.127149 -63.192717 -46.887451
5.77184 -58.884987 -47.3544
5.246568 -57.70879 -47.421478
6.322769 -60.008707 -47.240969
5.77184 -58.884987 -47.3544
7.087956 -57.634165 -47.862844
6.997312 -60.954468 -47.201998
6.322769 -60.008707 -47.240969
8.271695 -59.844429 -47.604639
7.630122 -62.041012 -47.057225
6.997312 -60.954468 -47.201998
13.875535 -46.168549 -51.644504
14.541442 -47.068323 -51.449469
13.304238 -48.401575 -50.961462
13.875535 -46.168549 -51.644504
13.218664 -45.071283 -51.919424
-0.894258 -54.154613 -45.714321
-1.71401 -56.531532 -45.009727
-2.064786 -55.172809 -45.023178
1.815036 -48.782505 -47.828865
0.654678 -49.713745 -47.113478
2.213209 -50.16394 -47.729636
1.815036 -48.782505 -47.828865
2.966812 -47.861774 -48.476908
4.989654 -49.623369 -48.918405
3.826865 -50.612622 -48.291546
4.527774 -48.253958 -49.004537
6.237284 -48.546149 -49.523258
5.536374 -50.904812 -48.810266
4.989654 -49.623369 -48.918405
7.396441 -47.596359 -50.101269
6.237284 -48.546149 -49.523258
8.578685 -46.436802 -50.670757
7.966249 -48.668033 -49.984607
7.396441 -47.596359 -50.101269
9.761464 -45.18861 -51.295466
8.578685 -46.436802 -50.670757
10.31081 -46.513537 -51.041574
9.761464 -45.18861 -51.295466
3 56 11 57
3 0 14 12
3 0 16 14
3 0 18 16
3 1 21 19
3 1 23 21
3 2 26 24
3 2 28 26
3 58 29 59
3 60 31 61
3 62 61 29
3 60 61 62
3 63 32 64
3 65 33 66
3 67 66 32
3 65 66 67
3 4 68 70
3 68 34 69
3 68 69 70
3 4 35 34
3 71 36 72
3 73 37 74
3 75 74 36
3 73 74 75
3 77 76 37
3 78 39 79
3 5 40 13
3 5 41 40
3 5 80 82
3 82 81 41
3 80 81 82
3 6 83 85
3 85 84 15
3 83 84 85
3 6 86 87
3 6 88 90
3 88 89 90
3 7 42 17
3 7 43 42
3 3 44 30
3 8 45 20
3 8 46 45
3 8 47 46
3 9 48 22
3 9 91 93
3 93 92 48
3 91 92 93
3 94 49 95
3 10 50 25
3 10 51 50
3 10 52 51
3 96 53 97
3 98 97 27
3 96 97 98
3 100 99 53
3 101 54 102
3 103 102 38
3 101 102 103
3 104 55 105
3 107 106 55
3 11 108 109
3 11 110 112
3 110 4 111
3 110 111 112
3 12 113 115
3 113 13 114
3 113 114 115
3 14 13 12
3 14 5 13
3 14 15 5
3 16 15 14
3 16 6 15
3 16 17 6
3 18 17 16
3 18 7 17
3 19 20 3
3 21 20 19
3 21 8 20
3 21 22 8
3 23 22 21
3 23 9 22
3 24 116 118
3 116 25 117
3 116 117 118
3 26 25 24
3 26 10 25
3 26 27 10
3 28 27 26
3 28 119 121
3 121 120 27
3 119 120 121
3 122 12 123
3 29 124 126
3 124 12 125
3 124 125 126
3 29 0 12
3 29 30 0
3 31 30 29
3 31 3 30
3 127 31 128
3 32 129 131
3 129 31 130
3 129 130 131
3 32 3 31
3 32 19 3
3 33 19 32
3 33 1 19
3 34 132 133
3 34 134 135
3 34 136 138
3 136 24 137
3 136 137 138
3 35 24 34
3 35 2 24
3 36 139 141
3 139 140 141
3 36 142 143
3 36 144 145
3 37 146 148
3 148 147 36
3 146 147 148
3 37 149 150
3 37 151 153
3 151 38 152
3 151 152 153
3 154 38 155
3 156 155 37
3 154 155 156
3 158 157 38
3 39 159 160
3 39 161 162
3 13 163 165
3 163 39 164
3 163 164 165
3 40 39 13
3 40 166 168
3 168 167 39
3 166 167 168
3 40 169 171
3 169 170 171
3 41 172 174
3 174 173 40
3 172 173 174
3 41 175 177
3 175 176 177
3 41 178 179
3 181 180 41
3 15 182 184
3 184 183 5
3 182 183 184
3 186 185 15
3 17 187 189
3 189 188 6
3 187 188 189
3 42 190 192
3 192 191 17
3 190 191 192
3 42 193 194
3 42 195 196
3 43 197 199
3 199 198 42
3 197 198 199
3 43 200 202
3 200 201 202
3 30 18 0
3 44 18 30
3 44 7 18
3 20 44 3
3 45 44 20
3 45 7 44
3 45 43 7
3 46 43 45
3 46 203 205
3 205 204 43
3 203 204 205
3 46 206 207
3 47 208 210
3 210 209 46
3 208 209 210
3 47 211 212
3 22 47 8
3 48 47 22
3 48 213 215
3 215 214 47
3 213 214 215
3 48 216 217
3 219 218 48
3 220 33 221
3 49 222 224
3 222 33 223
3 222 223 224
3 49 1 33
3 25 225 226
3 50 227 229
3 229 228 25
3 227 228 229
3 50 230 231
3 50 232 234
3 232 49 233
3 232 233 234
3 51 49 50
3 51 1 49
3 51 23 1
3 52 23 51
3 52 9 23
3 27 52 10
3 53 52 27
3 53 9 52
3 53 235 237
3 237 236 9
3 235 236 237
3 239 238 53
3 38 240 242
3 240 11 241
3 240 241 242
3 54 11 38
3 54 4 11
3 243 54 244
3 55 245 247
3 245 54 246
3 245 246 247
3 55 4 54
3 55 35 4
3 248 35 249
3 250 249 55
3 248 249 250
3 251 2 252
3 253 252 35
3 251 252 253
3 254 2 255
3 256 28 257
3 258 257 2
3 256 257 258
3 259 28 260
3 262 261 28
