ply
format ascii 1.0
element vertex 228
property float x
property float y
property float z
element face 204
property list uchar int vertex_index
end_header
17.062969 105.305801 -0.575343
31.732601 90.273857 -11.302322
28.396069 98.416046 -3.272506
31.153576 86.814835 3.556382
23.743395 104.235001 -2.298258
20.759415 104.214119 2.059986
28.309875 96.03196 4.603518
29.931341 93.184647 0.159759
26.268929 100.830505 1.092946
30.128162 94.915771 -7.55385
31.446367 89.033737 -3.861928
32.492401 82.45298 -0.00657
20.425798 105.501152 -1.680492
18.972343 104.90979 0.746774
29.118237 93.275108 6.121077
31.851446 90.502861 -14.825294
23.70966 103.109146 1.626022
25.091763 102.641777 -0.502287
25.098886 101.36116 3.435683
26.343267 99.273842 5.197129
28.383886 99.290382 -7.194592
29.343346 97.468323 -9.448958
29.310791 96.755287 -5.465065
30.534344 90.174057 2.109618
30.730909 91.037697 -1.726781
31.293562 88.030388 -0.094145
31.980791 85.879723 -1.952825
31.831661 84.740814 1.56221
31.082207 93.308014 -16.599268
31.031107 93.117348 -13.216702
22.255428 104.426651 -0.028684
22.375437 102.983498 3.979505
28.326242 97.46582 0.536774
29.197159 95.999825 -1.616287
29.152367 94.730598 2.407557
29.872583 91.827614 3.945793
30.469627 88.700523 5.666759
27.320368 100.877922 -5.133183
24.965971 103.758636 -4.540796
26.305901 101.902153 -2.938935
27.393543 99.82914 -1.266325
27.413408 98.547676 2.693875
27.381765 97.004234 6.812072
30.166508 95.554428 -11.53451
30.912785 92.818428 -9.535384
30.074785 93.988083 -3.536972
30.800707 92.121452 -5.528205
31.528028 90.056534 -7.654775
32.121979 86.902679 -5.646619
32.274574 81.430611 3.450373
18.017656 105.107796 0.085716
18.815698 105.525536 -1.210238
17.861012 105.723541 -1.871297
16.896459 105.85606 -2.471642
16.051219 105.355377 -1.236052
17.861012 105.723541 -1.871297
16.896459 105.85606 -2.471642
32.121302 88.919208 -12.018496
32.180724 89.03371 -13.779982
31.792023 90.388359 -13.063808
32.020258 88.847031 -10.277029
32.121302 88.919208 -12.018496
24.477226 101.484516 4.432968
24.404273 102.235153 2.530852
23.782613 102.358509 3.528137
25.141376 100.554821 5.358235
24.477226 101.484516 4.432968
30.632866 94.599285 -15.918397
30.65937 94.555176 -17.60009
30.607316 94.503952 -14.227114
31.056657 93.212681 -14.907985
30.632866 94.599285 -15.918397
29.818332 91.06382 5.91732
29.49541 92.551361 5.033435
29.441159 91.787567 7.004962
30.116854 89.500275 6.777803
30.171105 90.264069 4.806276
29.818332 91.06382 5.91732
26.726378 101.900276 -6.042542
27.340081 101.175468 -7.130641
24.354683 103.996818 -3.419527
24.169494 104.538642 -5.333561
23.558205 104.776825 -4.212292
26.880602 97.283714 7.936172
26.862516 98.139038 6.004601
26.361353 98.418518 7.1287
27.378647 96.076702 8.793674
26.880602 97.283714 7.936172
32.598297 82.930664 -1.826937
32.342492 84.644036 -2.800065
32.236596 84.166351 -0.979697
32.845108 81.267452 -0.906627
32.598297 82.930664 -1.826937
32.185257 80.686375 5.236199
31.955767 82.453106 4.391139
19.542426 105.821217 -2.423871
20.391634 105.986778 -3.589437
19.69907 105.205471 -0.466859
19.542426 105.821217 -2.423871
18.815698 105.525536 -1.210238
28.70617 93.825382 7.28692
28.714056 94.653534 5.362298
28.30199 95.203808 6.52814
29.061274 92.486874 8.071886
28.70617 93.825382 7.28692
29.441159 91.787567 7.004962
29.061274 92.486874 8.071886
32.246949 89.114925 -15.64531
31.879071 90.571834 -16.609804
32.246949 89.114925 -15.64531
32.180724 89.03371 -13.779982
25.763567 99.511162 6.238957
25.721077 100.317501 4.316406
25.141376 100.554821 5.358235
26.361353 98.418518 7.1287
25.763567 99.511162 6.238957
28.863616 98.379352 -8.321775
28.850378 98.688332 -10.370628
28.370648 99.599361 -9.243445
31.123546 93.187172 -18.416435
30.65937 94.555176 -17.60009
31.494452 91.974411 -17.496791
31.123546 93.187172 -18.416435
31.466826 91.905438 -15.712281
31.879071 90.571834 -16.609804
31.494452 91.974411 -17.496791
22.901158 104.863213 -2.959603
23.558205 104.776825 -4.212292
21.242359 105.496289 -2.65072
20.391634 105.986778 -3.589437
22.157174 104.959038 -1.824816
21.242359 105.496289 -2.65072
21.340613 104.963902 -0.854588
22.999412 104.330826 -1.163471
22.901158 104.863213 -2.959603
22.157174 104.959038 -1.824816
23.115502 102.295685 4.704879
23.782613 102.358509 3.528137
23.042549 103.046322 2.802764
17.180833 104.677445 1.141253
16.205274 104.786544 0.438132
16.205274 104.786544 0.438132
16.051219 105.355377 -1.236052
27.87184 100.381698 -8.161346
28.370648 99.599361 -9.243445
27.852127 100.084152 -6.163887
27.87184 100.381698 -8.161346
27.340081 101.175468 -7.130641
24.86415 104.188358 -6.511302
24.169494 104.538642 -5.333561
25.54918 103.340633 -5.746349
24.86415 104.188358 -6.511302
26.219145 102.412391 -4.945418
25.54918 103.340633 -5.746349
25.635936 102.830394 -3.739866
26.813134 101.390038 -4.036059
26.726378 101.900276 -6.042542
26.219145 102.412391 -4.945418
27.837935 95.689945 7.632417
28.30199 95.203808 6.52814
27.84582 96.518097 5.707795
27.837935 95.689945 7.632417
27.378647 96.076702 8.793674
18.13552 104.479439 1.802312
18.017656 105.107796 0.085716
17.180833 104.677445 1.141253
19.0674 104.181488 2.612704
18.13552 104.479439 1.802312
19.960936 103.833652 3.26931
19.865879 104.561954 1.40338
19.0674 104.181488 2.612704
20.844566 103.420345 3.993159
19.960936 103.833652 3.26931
21.652577 102.805035 4.952919
21.567426 103.598808 3.019745
20.844566 103.420345 3.993159
22.472119 102.159676 5.827814
21.652577 102.805035 4.952919
23.115502 102.295685 4.704879
22.472119 102.159676 5.827814
29.319887 97.753743 -11.413688
28.850378 98.688332 -10.370628
29.731468 96.796795 -12.456464
29.319887 97.753743 -11.413688
29.754927 96.511375 -10.491734
30.175016 95.722492 -13.386018
29.731468 96.796795 -12.456464
30.598807 94.335888 -12.375606
30.607316 94.503952 -14.227114
30.175016 95.722492 -13.386018
31.917972 88.738369 -8.453255
32.020258 88.847031 -10.277029
31.630314 90.165196 -9.478549
32.214947 87.161441 -7.449177
31.917972 88.738369 -8.453255
31.825004 88.479607 -6.650697
32.524201 85.459846 -6.422581
32.214947 87.161441 -7.449177
32.413086 85.155514 -4.646962
32.051385 86.391201 -3.799722
32.342492 84.644036 -2.800065
32.524201 85.459846 -6.422581
32.413086 85.155514 -4.646962
30.406636 87.899292 7.601516
30.116854 89.500275 6.777803
30.715835 87.092422 6.576108
30.406636 87.899292 7.601516
30.652845 86.291191 8.510865
31.05781 86.149579 5.520919
30.811602 87.757679 4.611571
30.715835 87.092422 6.576108
31.395268 85.145218 4.444144
31.05781 86.149579 5.520919
31.73431 84.108207 3.447058
31.492618 85.777825 2.559296
31.395268 85.145218 4.444144
32.053117 83.085712 2.506292
31.73431 84.108207 3.447058
31.955767 82.453106 4.391139
32.503715 79.628654 4.323535
32.185257 80.686375 5.236199
32.635809 80.147377 2.597959
32.503715 79.628654 4.323535
32.744723 80.658561 0.869488
32.383488 81.941795 1.721901
32.635809 80.147377 2.597959
32.845108 81.267452 -0.906627
32.744723 80.658561 0.869488
3 0 50 52
3 50 13 51
3 50 51 52
3 0 53 54
3 0 55 56
3 1 57 59
3 59 58 15
3 57 58 59
3 1 60 61
3 62 18 63
3 64 63 16
3 62 63 64
3 66 65 18
3 2 22 20
3 3 25 23
3 3 27 25
3 67 28 68
3 69 29 70
3 71 70 28
3 69 70 71
3 5 30 12
3 5 31 30
3 6 34 32
3 72 35 73
3 74 73 14
3 72 73 74
3 75 36 76
3 77 76 35
3 75 76 77
3 78 37 79
3 4 80 82
3 80 38 81
3 80 81 82
3 8 39 17
3 8 40 39
3 8 41 40
3 83 42 84
3 85 84 19
3 83 84 85
3 87 86 42
3 9 43 21
3 9 44 43
3 7 45 33
3 10 46 24
3 10 47 46
3 10 48 47
3 11 88 90
3 90 89 26
3 88 89 90
3 11 91 92
3 93 49 94
3 95 12 96
3 13 97 99
3 97 12 98
3 97 98 99
3 13 5 12
3 100 14 101
3 102 101 6
3 100 101 102
3 103 14 104
3 106 105 14
3 15 107 108
3 110 109 15
3 16 17 4
3 18 17 16
3 18 8 17
3 18 19 8
3 111 19 112
3 113 112 18
3 111 112 113
3 115 114 19
3 20 116 118
3 116 21 117
3 116 117 118
3 22 21 20
3 22 9 21
3 23 24 7
3 25 24 23
3 25 10 24
3 25 26 10
3 27 26 25
3 27 11 26
3 28 119 120
3 28 121 122
3 28 123 125
3 123 15 124
3 123 124 125
3 29 15 28
3 29 1 15
3 126 4 127
3 12 128 129
3 30 130 132
3 132 131 12
3 130 131 132
3 30 133 135
3 133 4 134
3 133 134 135
3 30 16 4
3 31 16 30
3 31 136 138
3 138 137 16
3 136 137 138
3 32 33 2
3 34 33 32
3 34 7 33
3 14 34 6
3 35 34 14
3 35 7 34
3 35 23 7
3 36 23 35
3 36 3 23
3 140 139 0
3 141 0 142
3 143 20 144
3 37 145 147
3 145 20 146
3 145 146 147
3 37 2 20
3 38 148 149
3 38 150 151
3 17 38 4
3 39 38 17
3 39 152 154
3 154 153 38
3 152 153 154
3 39 155 157
3 155 37 156
3 155 156 157
3 40 37 39
3 40 2 37
3 40 32 2
3 41 32 40
3 41 6 32
3 19 41 8
3 42 41 19
3 42 6 41
3 42 158 160
3 160 159 6
3 158 159 160
3 162 161 42
3 163 13 164
3 165 164 0
3 163 164 165
3 166 13 167
3 168 5 169
3 170 169 13
3 168 169 170
3 171 5 172
3 173 31 174
3 175 174 5
3 173 174 175
3 176 31 177
3 179 178 31
3 21 180 181
3 43 182 184
3 184 183 21
3 182 183 184
3 43 185 186
3 43 187 189
3 187 29 188
3 187 188 189
3 44 29 43
3 44 1 29
3 33 22 2
3 45 22 33
3 45 9 22
3 24 45 7
3 46 45 24
3 46 9 45
3 46 44 9
3 47 44 46
3 47 1 44
3 47 190 192
3 192 191 1
3 190 191 192
3 48 193 195
3 195 194 47
3 193 194 195
3 48 196 197
3 26 48 10
3 198 48 199
3 200 199 26
3 198 199 200
3 202 201 48
3 203 36 204
3 205 36 206
3 205 206 207
3 208 3 209
3 210 209 36
3 208 209 210
3 211 3 212
3 213 27 214
3 215 214 3
3 213 214 215
3 49 216 218
3 216 27 217
3 216 217 218
3 49 11 27
3 219 49 220
3 221 49 222
3 223 11 224
3 225 224 49
3 223 224 225
3 227 226 11
