ply
format ascii 1.0
element vertex 162
property float x
property float y
property float z
element face 147
property list uchar int vertex_index
end_header
-26.28582 -85.588722 1.693339
-25.253162 -85.318695 12.746408
-23.708393 -89.00341 13.810966
-25.978977 -90.167053 2.773947
-23.228161 -93.151299 8.950747
-25.014954 -89.957352 8.294302
-25.915646 -85.686722 7.248753
-25.877567 -81.171135 11.313988
-26.017191 -80.953911 5.869428
-25.675634 -75.918907 4.152712
-26.237331 -87.861603 2.302618
-24.591566 -87.331856 13.33229
-24.439075 -89.399445 11.133822
-25.125507 -87.597961 10.704863
-25.579269 -87.800873 7.968442
-25.595064 -85.630058 10.072493
-25.979616 -78.920692 10.304541
-25.9741 -81.03717 8.665721
-25.960457 -78.64019 7.799326
-24.054724 -86.691742 16.124928
-24.82699 -85.048325 15.446054
-22.835262 -95.351334 6.332359
-23.95619 -93.965683 6.137563
-23.47768 -91.119072 11.349792
-24.260681 -91.683212 8.598739
-24.896593 -92.200165 5.820482
-25.56616 -90.132874 5.465075
-25.961283 -87.959373 5.078304
-26.139063 -85.575531 4.569509
-25.383183 -83.048874 14.829978
-25.636402 -83.381897 12.104535
-25.873917 -83.414612 9.303265
-26.035402 -83.301361 6.717061
-26.138334 -83.311783 3.942008
-25.854925 -76.32106 6.789882
-25.888685 -78.493073 5.036905
-25.997507 -80.808678 3.025608
-26.346778 -86.734501 0.592739
-26.322533 -87.870942 0.897379
-26.261575 -86.725163 1.997978
-26.307194 -85.369198 0.38656
-26.346778 -86.734501 0.592739
-25.982561 -77.626678 9.966093
-26.027373 -77.700172 11.269623
-25.972982 -77.486427 8.713485
-25.970036 -78.780441 9.051934
-25.982561 -77.626678 9.966093
-24.197669 -85.653103 17.194798
-23.71362 -86.475769 17.422283
-24.583802 -84.831395 16.855361
-24.440857 -85.870034 15.785491
-24.197669 -85.653103 17.194798
-25.939369 -91.29552 1.669836
-25.722112 -91.276497 2.962875
-23.031712 -94.251317 7.641553
-22.393204 -94.988857 7.558421
-22.589654 -93.88884 8.867615
-23.593037 -90.061241 12.580379
-23.048298 -90.79715 12.66692
-23.163654 -89.739318 13.897507
-25.474874 -81.972595 15.795446
-25.224612 -82.918873 16.216933
-25.81679 -81.056942 12.631713
-25.924526 -79.942299 12.190185
-25.756985 -82.276516 11.709262
-25.696208 -82.162323 13.026986
-25.81679 -81.056942 12.631713
-25.682905 -74.814731 5.063223
-25.557676 -73.590481 4.597419
-25.550404 -74.694657 3.686909
-25.765279 -76.119984 5.471297
-25.772551 -75.015808 6.381808
-25.682905 -74.814731 5.063223
-25.945615 -80.584721 1.665619
-25.88381 -79.555534 2.712817
-26.074101 -81.878391 2.147277
-25.945615 -80.584721 1.665619
-26.250835 -89.084183 1.166457
-26.121658 -90.236908 1.402121
-26.108154 -89.014328 2.538283
-26.250835 -89.084183 1.166457
-26.322533 -87.870942 0.897379
-22.729081 -92.888878 10.1857
-22.589654 -93.88884 8.867615
-25.975551 -78.817078 11.685461
-26.027373 -77.700172 11.269623
-25.928591 -80.045914 10.809265
-25.924526 -79.942299 12.190185
-25.975551 -78.817078 11.685461
-25.563075 -75.758659 2.843614
-25.550404 -74.694657 3.686909
-25.722873 -77.110649 3.276369
-25.563075 -75.758659 2.843614
-23.369552 -88.667145 15.081853
-23.163654 -89.739318 13.897507
-23.542717 -87.511311 16.238833
-23.71362 -86.475769 17.422283
-23.881559 -87.847576 14.967947
-23.369552 -88.667145 15.081853
-23.542717 -87.511311 16.238833
-25.939369 -91.29552 1.669836
-26.121658 -90.236908 1.402121
-22.086717 -95.995399 6.326059
-22.393204 -94.988857 7.558421
-22.608038 -96.356625 5.065241
-21.859493 -97.00069 5.058941
-22.086717 -95.995399 6.326059
-23.265828 -95.691559 4.922524
-22.608038 -96.356625 5.065241
-23.826292 -94.998734 4.825126
-23.265828 -95.691559 4.922524
-23.395726 -94.658508 6.234961
-24.318453 -94.141835 4.82458
-23.826292 -94.998734 4.825126
-22.85384 -91.872765 11.385223
-23.048298 -90.79715 12.66692
-23.35292 -92.135186 10.15027
-22.729081 -92.888878 10.1857
-22.85384 -91.872765 11.385223
-24.788654 -93.259075 4.66604
-24.318453 -94.141835 4.82458
-24.426392 -93.082924 5.979023
-25.18092 -92.293053 4.486142
-24.788654 -93.259075 4.66604
-25.515703 -91.259408 4.308439
-25.18092 -92.293053 4.486142
-25.231376 -91.166519 5.642779
-25.772568 -90.149963 4.119511
-25.722112 -91.276497 2.962875
-25.515703 -91.259408 4.308439
-24.946515 -83.918599 16.524971
-24.583802 -84.831395 16.855361
-24.703327 -83.701668 17.934278
-25.105086 -84.048599 15.138016
-24.946515 -83.918599 16.524971
-25.224612 -82.918873 16.216933
-25.569598 -81.995812 14.389708
-25.474874 -81.972595 15.795446
-25.509792 -83.215385 13.467257
-25.569598 -81.995812 14.389708
-25.696208 -82.162323 13.026986
-25.883563 -75.145012 7.707358
-25.772551 -75.015808 6.381808
-25.920216 -76.326862 8.208763
-25.883563 -75.145012 7.707358
-25.907691 -77.480625 7.294604
-25.972982 -77.486427 8.713485
-25.920216 -76.326862 8.208763
-25.829399 -78.397732 3.718465
-25.782159 -77.20599 4.594809
-25.722873 -77.110649 3.276369
-25.943096 -79.650875 4.031256
-25.829399 -78.397732 3.718465
-25.88381 -79.555534 2.712817
-26.144515 -83.129944 2.605476
-26.06792 -82.060231 3.483808
-26.074101 -81.878391 2.147277
-26.218258 -84.268414 1.481142
-26.212077 -84.450253 2.817673
-26.144515 -83.129944 2.605476
-26.307194 -85.369198 0.38656
-26.218258 -84.268414 1.481142
3 0 37 39
3 39 38 10
3 37 38 39
3 0 40 41
3 1 13 11
3 1 15 13
3 42 16 43
3 44 18 45
3 46 45 16
3 44 45 46
3 47 19 48
3 49 20 50
3 51 50 19
3 49 50 51
3 3 52 53
3 4 54 56
3 54 21 55
3 54 55 56
3 4 22 21
3 2 57 59
3 57 23 58
3 57 58 59
3 5 24 12
3 5 25 24
3 5 26 25
3 6 27 14
3 6 28 27
3 60 29 61
3 7 62 63
3 7 64 66
3 64 30 65
3 64 65 66
3 7 31 30
3 8 32 17
3 8 33 32
3 9 67 69
3 67 68 69
3 9 70 72
3 70 34 71
3 70 71 72
3 9 35 34
3 73 36 74
3 76 75 36
3 10 77 79
3 79 78 3
3 77 78 79
3 81 80 10
3 82 4 83
3 11 12 2
3 13 12 11
3 13 5 12
3 13 14 5
3 15 14 13
3 15 6 14
3 16 84 85
3 16 86 88
3 86 7 87
3 86 87 88
3 16 17 7
3 18 17 16
3 18 8 17
3 89 9 90
3 92 91 9
3 93 2 94
3 19 95 96
3 19 97 99
3 97 2 98
3 97 98 99
3 19 11 2
3 20 11 19
3 20 1 11
3 101 100 3
3 21 102 103
3 21 104 106
3 104 105 106
3 21 107 108
3 22 109 111
3 111 110 21
3 109 110 111
3 22 112 113
3 23 114 115
3 23 116 118
3 116 4 117
3 116 117 118
3 12 23 2
3 24 23 12
3 24 4 23
3 24 22 4
3 25 22 24
3 25 119 121
3 121 120 22
3 119 120 121
3 25 122 123
3 26 124 126
3 126 125 25
3 124 125 126
3 26 127 129
3 127 3 128
3 127 128 129
3 14 26 5
3 27 26 14
3 27 3 26
3 27 10 3
3 28 10 27
3 28 0 10
3 130 20 131
3 130 131 132
3 29 133 135
3 133 20 134
3 133 134 135
3 29 1 20
3 136 29 137
3 30 138 140
3 138 29 139
3 138 139 140
3 30 1 29
3 30 15 1
3 31 15 30
3 31 6 15
3 17 31 7
3 32 31 17
3 32 6 31
3 32 28 6
3 33 28 32
3 33 0 28
3 34 141 142
3 34 143 144
3 34 145 147
3 145 18 146
3 145 146 147
3 35 18 34
3 35 8 18
3 148 35 149
3 150 149 9
3 148 149 150
3 36 151 153
3 151 35 152
3 151 152 153
3 36 8 35
3 36 33 8
3 154 33 155
3 156 155 36
3 154 155 156
3 157 0 158
3 159 158 33
3 157 158 159
3 161 160 0
