ply
format ascii 1.0
element vertex 225
property float x
property float y
property float z
element face 230
property list uchar int vertex_index
end_header
-40.820976 -9.411622 -30.364738
-41.078243 -6.745286 -36.599899
-38.384956 -8.600811 -24.766571
-40.527443 -16.775082 -24.837408
-41.174511 -12.364612 -31.03838
-40.998741 -8.168198 -33.044319
-36.237854 -8.917751 -21.337856
-36.708424 -5.112305 -24.827965
-33.977333 -5.478679 -21.324968
-38.01524 -12.552472 -21.312368
-40.015949 -8.907515 -27.957867
-40.271809 -6.003226 -31.156153
-38.908882 -5.160671 -28.373888
-39.7216 -12.54559 -24.757908
-40.730236 -12.592896 -27.970728
-41.08601 -16.555708 -28.264498
-41.007378 -10.615383 -30.674248
-41.120228 -10.233159 -32.086143
-40.922916 -8.832008 -31.568371
-35.053795 -7.132172 -21.231262
-35.969566 -10.939658 -19.4744
-39.292267 -8.756786 -26.373749
-39.468349 -7.03804 -28.043955
-38.621994 -6.817647 -26.51235
-35.707306 -3.351641 -24.922064
-36.997974 -3.183562 -26.767004
-38.224636 -10.576091 -23.074661
-38.977234 -12.55352 -23.091497
-39.135464 -10.608086 -24.744057
-39.870163 -10.705076 -26.336912
-40.736206 -18.844652 -24.905783
-40.972786 -18.848156 -26.589046
-40.858849 -16.750599 -26.521662
-40.946201 -14.62976 -28.027925
-40.630192 -14.628054 -26.417492
-39.838665 -4.087892 -31.607931
-40.380497 -4.879296 -32.820217
-41.272369 -14.235379 -31.342653
-41.263245 -12.023964 -32.598297
-41.183926 -9.684094 -33.676533
-41.046635 -7.487441 -34.674236
-37.376312 -8.779933 -23.022263
-37.633381 -6.797679 -24.877293
-36.431923 -6.978242 -23.040106
-35.435841 -5.291259 -23.080763
-34.292133 -3.653412 -23.088083
-36.929909 -12.828581 -19.394022
-37.127399 -10.806742 -21.173326
-40.539391 -9.257705 -29.304991
-40.622204 -7.94486 -30.70755
-40.158463 -7.430519 -29.498936
-39.697853 -5.507413 -29.868782
-39.09882 -3.548468 -30.177135
-37.900776 -5.017299 -26.6768
-38.17041 -3.314109 -28.531826
-40.047607 -16.603752 -23.15229
-38.797283 -14.497244 -21.392887
-39.584538 -14.53852 -23.124645
-40.177887 -14.54721 -24.79561
-40.305733 -12.633281 -26.354979
-40.407566 -10.783236 -27.830948
-40.786682 -10.746344 -29.303556
-40.980839 -21.265554 -26.499134
-41.128559 -18.813101 -28.263247
-41.226852 -16.525692 -29.894974
-41.153229 -14.373395 -29.746855
-41.000385 -12.49432 -29.465664
-40.710163 -6.985559 -32.162888
-40.787731 -6.120586 -33.806702
-40.819618 -5.156374 -35.631004
-41.171272 -7.744765 -36.926558
-41.154656 -7.981163 -36.007652
-41.08485 -6.404486 -37.56299
-41.171272 -7.744765 -36.926558
-35.837385 -2.31668 -25.933444
-35.173952 -2.526474 -24.97893
-39.859834 -3.333326 -32.498212
-39.539524 -3.051448 -31.805062
-36.318741 -12.872492 -18.506583
-36.814083 -13.793905 -18.487718
-37.711475 -2.396323 -28.560119
-37.584192 -3.248836 -27.649415
-37.125258 -2.331049 -27.677708
-38.246601 -2.458964 -29.437444
-37.711475 -2.396323 -28.560119
-39.729171 -16.593332 -22.258985
-39.946207 -17.648867 -22.20402
-38.406261 -13.524858 -21.352628
-38.300238 -14.585226 -20.405535
-37.909216 -13.61284 -20.365275
-40.897011 -21.205115 -25.624948
-40.882176 -22.400098 -25.543146
-40.610841 -4.942804 -34.17268
-40.584114 -5.499941 -33.31346
-40.407224 -4.322159 -33.679437
-40.626785 -4.460698 -35.084831
-40.803674 -5.63848 -34.718853
-40.610841 -4.942804 -34.17268
-34.928168 -8.107338 -20.34321
-35.645825 -8.024961 -21.284559
-35.520197 -9.000128 -20.396507
-34.333533 -7.249591 -20.351793
-34.928168 -8.107338 -20.34321
-33.795302 -6.422844 -20.398646
-34.515564 -6.305426 -21.278115
-34.333533 -7.249591 -20.351793
-35.271675 -11.006143 -18.562093
-35.838569 -11.928031 -18.546771
-35.386053 -10.011081 -19.464779
-35.271675 -11.006143 -18.562093
-35.520197 -9.000128 -20.396507
-36.10371 -9.928705 -20.406128
-35.386053 -10.011081 -19.464779
-36.482719 -2.232641 -26.855914
-36.35264 -3.267601 -25.844534
-35.837385 -2.31668 -25.933444
-37.125258 -2.331049 -27.677708
-36.482719 -2.232641 -26.855914
-40.854496 -18.846404 -25.747414
-40.892984 -19.996416 -25.669904
-40.774695 -19.994664 -24.828272
-40.13075 -3.729028 -33.104355
-40.109581 -4.483594 -32.214074
-39.859834 -3.333326 -32.498212
-40.407224 -4.322159 -33.679437
-40.13075 -3.729028 -33.104355
-41.310327 -14.279515 -32.127793
-41.292516 -15.378712 -31.416887
-41.305765 -13.173807 -32.755615
-41.310327 -14.279515 -32.127793
-41.267807 -13.129672 -31.970475
-41.291857 -11.890161 -33.387211
-41.305765 -13.173807 -32.755615
-41.252198 -10.720226 -33.926329
-41.291857 -11.890161 -33.387211
-41.223585 -10.854029 -33.137415
-41.207497 -9.450567 -34.545969
-41.252198 -10.720226 -33.926329
-41.138852 -8.352241 -35.044821
-41.207497 -9.450567 -34.545969
-41.11528 -8.585767 -34.175384
-41.062439 -7.116364 -35.637068
-41.154656 -7.981163 -36.007652
-41.138852 -8.352241 -35.044821
-34.466365 -2.677359 -24.06194
-35.173952 -2.526474 -24.97893
-34.999719 -3.502527 -24.005074
-37.366551 -13.750895 -19.406102
-36.814083 -13.793905 -18.487718
-37.472575 -12.690527 -20.353195
-37.909216 -13.61284 -20.365275
-37.366551 -13.750895 -19.406102
-36.449737 -11.88412 -19.434211
-36.318741 -12.872492 -18.506583
-35.838569 -11.928031 -18.546771
-40.650734 -19.935585 -23.9851
-40.774695 -19.994664 -24.828272
-40.548601 -18.805692 -24.004812
-40.650734 -19.935585 -23.9851
-40.44422 -17.770907 -23.970624
-40.631825 -17.809867 -24.871595
-40.548601 -18.805692 -24.004812
-39.169601 -2.781735 -31.089664
-39.539524 -3.051448 -31.805062
-39.468743 -3.81818 -30.892533
-38.710806 -2.576144 -30.260098
-38.634615 -3.431288 -29.354481
-38.246601 -2.458964 -29.437444
-39.169601 -2.781735 -31.089664
-38.710806 -2.576144 -30.260098
-33.206419 -5.62157 -20.433711
-33.795302 -6.422844 -20.398646
-33.382429 -4.649684 -21.377095
-33.206419 -5.62157 -20.433711
-33.539829 -3.73705 -22.258653
-34.134733 -4.566045 -22.206525
-33.382429 -4.649684 -21.377095
-33.703125 -2.732623 -23.227906
-33.539829 -3.73705 -22.258653
-34.466365 -2.677359 -24.06194
-33.703125 -2.732623 -23.227906
-40.204301 -17.685243 -23.128065
-39.946207 -17.648867 -22.20402
-40.287525 -16.689417 -23.994849
-40.44422 -17.770907 -23.970624
-40.204301 -17.685243 -23.128065
-38.667513 -15.511654 -20.41677
-38.300238 -14.585226 -20.405535
-39.10401 -15.540078 -21.379283
-38.667513 -15.511654 -20.41677
-39.497637 -15.560716 -22.245162
-39.10401 -15.540078 -21.379283
-39.190911 -14.517882 -22.258766
-39.816073 -15.571136 -23.138468
-39.729171 -16.593332 -22.258985
-39.497637 -15.560716 -22.245162
-40.933794 -22.56364 -26.410496
-40.882176 -22.400098 -25.543146
-41.031027 -21.315756 -27.283078
-40.933794 -22.56364 -26.410496
-40.976813 -20.056855 -26.54409
-40.897011 -21.205115 -25.624948
-40.892984 -19.996416 -25.669904
-41.104887 -20.08953 -28.165135
-41.031027 -21.315756 -27.283078
-41.054699 -20.039327 -27.381191
-41.175026 -18.905477 -29.039284
-41.104887 -20.08953 -28.165135
-41.224173 -17.761773 -29.855148
-41.175026 -18.905477 -29.039284
-41.177706 -17.669396 -29.07911
-41.269758 -16.523868 -30.693047
-41.224173 -17.761773 -29.855148
-41.249611 -15.380536 -30.618814
-41.292516 -15.378712 -31.416887
-41.269758 -16.523868 -30.693047
-40.654413 -3.959197 -36.059776
-40.626785 -4.460698 -35.084831
-40.826389 -4.693311 -36.602469
-40.654413 -3.959197 -36.059776
-40.955702 -5.487767 -37.086916
-40.948931 -5.95083 -36.115451
-40.826389 -4.693311 -36.602469
-41.08485 -6.404486 -37.56299
-40.955702 -5.487767 -37.086916
3 0 18 16
3 1 70 71
3 1 72 73
3 2 23 21
3 75 74 24
3 2 28 26
3 2 21 28
3 3 32 30
3 3 34 32
3 77 76 35
3 4 38 37
3 5 39 17
3 5 40 39
3 6 43 41
3 8 44 19
3 8 45 44
3 78 46 79
3 6 47 20
3 6 41 47
3 10 50 48
3 12 51 22
3 12 52 51
3 7 53 42
3 80 54 81
3 82 81 25
3 80 81 82
3 84 83 54
3 85 55 86
3 9 87 89
3 87 56 88
3 87 88 89
3 13 57 27
3 13 58 57
3 13 59 58
3 10 60 29
3 10 48 60
3 90 62 91
3 15 63 31
3 15 64 63
3 15 65 64
3 14 66 33
3 14 61 66
3 11 67 49
3 92 68 93
3 94 93 36
3 92 93 94
3 95 69 96
3 97 96 68
3 95 96 97
3 16 17 4
3 18 17 16
3 18 5 17
3 98 19 99
3 100 99 6
3 98 99 100
3 101 19 102
3 103 8 104
3 105 104 19
3 103 104 105
3 106 20 107
3 108 20 109
3 110 6 111
3 112 111 20
3 110 111 112
3 21 22 10
3 23 22 21
3 23 12 22
3 24 25 7
3 113 25 114
3 115 114 24
3 113 114 115
3 117 116 25
3 26 27 9
3 28 27 26
3 28 13 27
3 28 29 13
3 21 29 28
3 21 10 29
3 30 118 120
3 118 31 119
3 118 119 120
3 32 31 30
3 32 15 31
3 32 33 15
3 34 33 32
3 34 14 33
3 35 36 11
3 121 36 122
3 123 122 35
3 121 122 123
3 125 124 36
3 37 126 127
3 38 128 130
3 130 129 37
3 128 129 130
3 38 131 132
3 17 38 4
3 39 38 17
3 39 133 135
3 135 134 38
3 133 134 135
3 39 136 137
3 40 138 140
3 140 139 39
3 138 139 140
3 40 141 143
3 141 1 142
3 141 142 143
3 41 42 2
3 43 42 41
3 43 7 42
3 19 43 6
3 44 43 19
3 44 7 43
3 44 24 7
3 45 24 44
3 45 144 146
3 146 145 24
3 144 145 146
3 46 147 148
3 46 149 151
3 149 9 150
3 149 150 151
3 20 152 154
3 152 46 153
3 152 153 154
3 47 46 20
3 47 9 46
3 47 26 9
3 41 26 47
3 41 2 26
3 155 30 156
3 157 30 158
3 159 3 160
3 161 160 30
3 159 160 161
3 48 49 0
3 50 49 48
3 50 11 49
3 22 50 10
3 51 50 22
3 51 11 50
3 51 35 11
3 52 35 51
3 52 162 164
3 164 163 35
3 162 163 164
3 42 23 2
3 53 23 42
3 53 12 23
3 25 53 7
3 54 53 25
3 54 12 53
3 54 52 12
3 165 52 166
3 167 166 54
3 165 166 167
3 169 168 52
3 170 8 171
3 172 8 173
3 174 45 175
3 176 175 8
3 174 175 176
3 177 45 178
3 180 179 45
3 55 181 182
3 55 183 185
3 183 3 184
3 183 184 185
3 56 186 187
3 56 188 189
3 27 56 9
3 57 56 27
3 57 190 192
3 192 191 56
3 190 191 192
3 57 193 195
3 193 55 194
3 193 194 195
3 58 55 57
3 58 3 55
3 58 34 3
3 59 34 58
3 59 14 34
3 29 59 13
3 60 59 29
3 60 14 59
3 60 61 14
3 48 61 60
3 48 0 61
3 62 196 197
3 62 198 199
3 31 200 202
3 200 62 201
3 200 201 202
3 63 62 31
3 63 203 205
3 205 204 62
3 203 204 205
3 63 206 207
3 64 208 210
3 210 209 63
3 208 209 210
3 64 211 212
3 64 213 215
3 213 37 214
3 213 214 215
3 65 37 64
3 65 4 37
3 33 65 15
3 66 65 33
3 66 4 65
3 66 16 4
3 61 16 66
3 61 0 16
3 49 18 0
3 67 18 49
3 67 5 18
3 36 67 11
3 68 67 36
3 68 5 67
3 68 40 5
3 69 40 68
3 69 1 40
3 216 69 217
3 218 69 219
3 220 1 221
3 222 221 69
3 220 221 222
3 224 223 1
