ply
format ascii 1.0
element vertex 209
property float x
property float y
property float z
element face 202
property list uchar int vertex_index
end_header
25.632113 89.413521 -42.811924
31.607412 83.952881 -37.061638
22.192945 77.413986 -48.906933
29.439291 73.700485 -45.47966
34.398579 66.808807 -39.205219
21.477091 90.56929 -44.494705
24.075443 83.840958 -46.441017
26.109947 75.874786 -47.629223
27.91448 81.965805 -44.419552
33.679958 79.489433 -33.351173
33.143242 75.788567 -38.430576
35.054012 71.127975 -34.803547
28.89535 87.369049 -40.32159
30.816219 79.340439 -41.743805
32.144554 70.433952 -42.731743
23.632814 90.317558 -43.675503
22.809784 87.613541 -45.483536
24.786673 86.938141 -44.758392
25.997536 83.190941 -45.542343
26.741947 85.835358 -43.793594
34.364853 75.477341 -34.20475
23.119493 73.509895 -49.337795
27.890471 74.709412 -46.661285
26.971066 71.59964 -47.885418
28.599699 70.30751 -46.901653
30.116743 69.338753 -45.632694
30.332991 85.720894 -38.848381
29.999653 83.387375 -41.024494
31.345325 81.679131 -39.418293
33.797474 71.264023 -38.982922
32.706898 73.172417 -40.78112
33.309353 68.588928 -41.114609
32.703964 65.683716 -42.885899
21.954992 84.548866 -47.028275
23.107527 80.689171 -47.840897
24.235041 76.564171 -48.40163
25.146719 79.89183 -47.165707
27.003448 79.201065 -46.179169
28.680634 78.055885 -45.06205
32.681923 81.992996 -35.190109
32.458221 79.849731 -37.76992
33.453663 77.887779 -35.93898
34.126347 73.585579 -36.683132
34.817635 69.180954 -36.957321
35.321682 64.503387 -37.514629
27.386852 88.497841 -41.633953
31.838337 85.816696 -34.387901
32.828926 83.655945 -32.527763
33.738804 81.160744 -30.611113
25.132185 72.711441 -48.702583
28.479362 84.655067 -42.539288
29.434788 80.95491 -43.102791
30.230057 76.618881 -43.717335
32.069187 77.40097 -40.243378
31.593531 74.850716 -42.274044
30.921377 72.157349 -44.098663
31.411654 67.45533 -44.429688
24.632464 89.86554 -43.243713
24.02693 91.529811 -42.613558
25.02658 91.077793 -42.181769
21.101286 77.599556 -49.097351
21.58921 79.205521 -48.637051
21.700252 75.644077 -49.333098
21.101286 77.599556 -49.097351
22.656219 75.46194 -49.122364
22.163525 73.692031 -49.548529
21.700252 75.644077 -49.333098
34.144512 65.248577 -40.188835
33.599899 66.138638 -41.14353
33.853966 67.698868 -40.159914
34.619619 64.376173 -39.376028
34.144512 65.248577 -40.188835
20.694356 92.073723 -43.821281
21.838507 91.950859 -43.486496
20.257464 90.733467 -44.719273
20.694356 92.073723 -43.821281
21.014169 89.206665 -45.307533
20.257464 90.733467 -44.719273
35.36417 68.878113 -35.048525
35.245981 67.904602 -36.125412
34.935823 70.154465 -35.880434
31.893055 86.646766 -32.933929
31.363836 87.678581 -33.843944
32.38835 85.566391 -32.003861
32.333632 84.736321 -33.457832
31.893055 86.646766 -32.933929
33.70805 81.978893 -29.082093
33.307165 83.131733 -30.178532
34.104338 80.02018 -29.660265
33.70805 81.978893 -29.082093
26.378999 70.004093 -48.405271
27.215867 69.28268 -48.004549
32.302386 64.185564 -43.656075
32.913967 63.223652 -42.905348
35.551302 62.159475 -37.632631
35.750239 63.415508 -36.576
22.916369 91.824993 -43.076895
24.02693 91.529811 -42.613558
22.554952 90.443424 -44.085104
21.838507 91.950859 -43.486496
22.916369 91.824993 -43.076895
34.436493 76.278649 -32.875755
34.022405 77.483387 -33.777962
34.094046 78.284695 -32.448967
34.773823 74.284347 -33.258005
34.436493 76.278649 -32.875755
35.118403 72.109665 -33.557403
34.709432 73.302658 -34.504148
34.773823 74.284347 -33.258005
35.457172 69.922843 -33.855217
35.118403 72.109665 -33.557403
22.49656 71.65316 -49.733799
22.163525 73.692031 -49.548529
23.48988 71.302624 -49.490812
22.49656 71.65316 -49.733799
28.030183 68.636616 -47.512667
27.215867 69.28268 -48.004549
27.785383 70.953575 -47.393535
28.864213 68.092613 -46.9475
28.030183 68.636616 -47.512667
29.622735 67.608235 -46.313021
28.864213 68.092613 -46.9475
29.358221 69.823131 -46.267173
30.363684 66.802868 -45.694772
29.622735 67.608235 -46.313021
33.297205 64.686031 -42.029175
33.006659 67.136322 -42.000254
33.599899 66.138638 -41.14353
32.913967 63.223652 -42.905348
33.297205 64.686031 -42.029175
21.680515 87.728791 -45.801949
21.014169 89.206665 -45.307533
22.143438 89.091415 -44.98912
21.25312 86.196453 -46.574318
21.680515 87.728791 -45.801949
22.382388 86.081204 -46.255905
20.810063 84.531288 -47.304799
21.25312 86.196453 -46.574318
21.470233 82.772961 -47.697722
20.810063 84.531288 -47.304799
22.046501 80.843113 -48.104033
21.470233 82.772961 -47.697722
22.53126 82.619019 -47.434586
22.650236 79.051579 -48.373915
21.58921 79.205521 -48.637051
22.046501 80.843113 -48.104033
35.498005 65.565819 -36.404066
35.069659 66.842171 -37.235975
35.245981 67.904602 -36.125412
35.750239 63.415508 -36.576
35.498005 65.565819 -36.404066
35.36417 68.878113 -35.048525
35.457172 69.922843 -33.855217
25.895499 90.724483 -41.659436
25.02658 91.077793 -42.181769
26.772869 90.266643 -41.07045
26.509483 88.955681 -42.222938
25.895499 90.724483 -41.659436
27.630508 89.720379 -40.403129
26.772869 90.266643 -41.07045
28.384757 89.155983 -39.746948
28.141101 87.933445 -40.977772
27.630508 89.720379 -40.403129
29.139734 88.360306 -39.089366
28.384757 89.155983 -39.746948
29.858555 87.536228 -38.352762
29.614171 86.544972 -39.584986
29.139734 88.360306 -39.089366
30.516743 86.729287 -37.495669
29.858555 87.536228 -38.352762
31.153954 85.84528 -36.602297
30.970202 84.836888 -37.95501
30.516743 86.729287 -37.495669
31.269416 86.777187 -35.265428
31.363836 87.678581 -33.843944
31.722874 84.884788 -35.72477
31.153954 85.84528 -36.602297
31.269416 86.777187 -35.265428
32.852226 84.379334 -31.136857
32.38835 85.566391 -32.003861
33.283865 82.408344 -31.569438
32.852226 84.379334 -31.136857
33.307165 83.131733 -30.178532
34.123469 79.12035 -31.078937
34.094046 78.284695 -32.448967
33.709381 80.325088 -31.981143
34.123469 79.12035 -31.078937
34.104338 80.02018 -29.660265
24.496226 70.903396 -49.173206
23.48988 71.302624 -49.490812
24.125839 73.110668 -49.020189
25.459558 70.559993 -48.813854
26.051626 72.155541 -48.294
26.378999 70.004093 -48.405271
24.496226 70.903396 -49.173206
25.459558 70.559993 -48.813854
31.01114 65.861156 -45.093269
30.363684 66.802868 -45.694772
30.764198 68.397042 -45.031191
31.656231 65.071371 -44.427969
32.057809 66.569523 -43.657793
32.302386 64.185564 -43.656075
31.01114 65.861156 -45.093269
31.656231 65.071371 -44.427969
35.081171 63.223463 -38.530733
34.619619 64.376173 -39.376028
34.86013 65.656097 -38.359924
35.081171 63.223463 -38.530733
35.551302 62.159475 -37.632631
3 0 57 59
3 57 15 58
3 57 58 59
3 0 17 15
3 0 19 17
3 2 60 61
3 2 62 63
3 2 64 66
3 64 21 65
3 64 65 66
3 3 24 22
3 3 25 24
3 1 28 26
3 4 31 29
3 4 67 69
3 69 68 31
3 67 68 69
3 4 70 71
3 5 72 73
3 5 74 75
3 5 76 77
3 6 33 16
3 6 34 33
3 6 36 34
3 8 37 18
3 8 38 37
3 9 41 39
3 11 42 20
3 11 43 42
3 11 78 80
3 80 79 43
3 78 79 80
3 81 46 82
3 83 47 84
3 85 84 46
3 83 84 85
3 86 48 87
3 89 88 48
3 7 49 35
3 91 90 23
3 12 50 45
3 13 51 27
3 13 52 51
3 10 53 40
3 14 54 30
3 14 55 54
3 14 56 55
3 93 92 32
3 95 94 44
3 15 96 97
3 15 98 100
3 98 5 99
3 98 99 100
3 15 16 5
3 17 16 15
3 17 6 16
3 17 18 6
3 19 18 17
3 19 8 18
3 101 20 102
3 103 102 9
3 101 102 103
3 104 20 105
3 106 11 107
3 108 107 20
3 106 107 108
3 110 109 11
3 21 111 112
3 21 113 114
3 22 23 7
3 24 23 22
3 24 115 117
3 117 116 23
3 115 116 117
3 24 118 119
3 25 120 122
3 122 121 24
3 120 121 122
3 25 123 124
3 26 27 12
3 28 27 26
3 28 13 27
3 29 30 10
3 31 30 29
3 31 14 30
3 31 32 14
3 125 32 126
3 127 126 31
3 125 126 127
3 129 128 32
3 16 130 132
3 132 131 5
3 130 131 132
3 33 133 135
3 135 134 16
3 133 134 135
3 33 136 137
3 33 138 139
3 34 140 142
3 142 141 33
3 140 141 142
3 34 143 145
3 143 2 144
3 143 144 145
3 34 35 2
3 36 35 34
3 36 7 35
3 18 36 6
3 37 36 18
3 37 7 36
3 37 22 7
3 38 22 37
3 38 3 22
3 39 40 1
3 41 40 39
3 41 10 40
3 20 41 9
3 42 41 20
3 42 10 41
3 42 29 10
3 43 29 42
3 43 4 29
3 43 44 4
3 146 44 147
3 148 147 43
3 146 147 148
3 150 149 44
3 152 151 11
3 153 0 154
3 155 45 156
3 157 156 0
3 155 156 157
3 158 45 159
3 160 12 161
3 162 161 45
3 160 161 162
3 163 12 164
3 165 26 166
3 167 166 12
3 165 166 167
3 168 26 169
3 170 1 171
3 172 171 26
3 170 171 172
3 46 173 174
3 46 175 177
3 175 1 176
3 175 176 177
3 46 39 1
3 47 39 46
3 47 9 39
3 178 47 179
3 48 180 182
3 180 47 181
3 180 181 182
3 48 9 47
3 48 183 185
3 185 184 9
3 183 184 185
3 187 186 48
3 35 21 2
3 49 21 35
3 49 188 190
3 190 189 21
3 188 189 190
3 23 49 7
3 191 49 192
3 193 192 23
3 191 192 193
3 195 194 49
3 45 19 0
3 50 19 45
3 50 8 19
3 27 50 12
3 51 50 27
3 51 8 50
3 51 38 8
3 52 38 51
3 52 3 38
3 40 28 1
3 53 28 40
3 53 13 28
3 30 53 10
3 54 53 30
3 54 13 53
3 54 52 13
3 55 52 54
3 55 3 52
3 55 25 3
3 56 25 55
3 56 196 198
3 198 197 25
3 196 197 198
3 32 56 14
3 199 56 200
3 201 200 32
3 199 200 201
3 203 202 56
3 44 204 206
3 206 205 4
3 204 205 206
3 208 207 44
