ply
format ascii 1.0
element vertex 266
property float x
property float y
property float z
element face 260
property list uchar int vertex_index
end_header
-34.725185 -46.925648 3.07241
-37.121796 -42.093597 10.197
-38.52737 -35.706154 16.404354
-38.312817 -34.029602 6.911961
-36.642517 -42.768669 1.646453
-35.289314 -46.100449 11.973898
-36.586639 -43.036373 15.150571
-38.794327 -31.710592 18.778147
-38.859272 -31.604057 14.350604
-38.612087 -35.074757 11.718349
-38.361786 -31.118519 9.846937
-33.840145 -48.696014 8.406509
-35.938046 -44.779533 6.672934
-37.525028 -40.539471 5.181339
-37.967056 -35.534634 20.753374
-37.965866 -39.217937 13.488289
-38.148464 -38.227379 8.658536
-38.17207 -36.546329 3.638548
-38.672501 -31.493637 12.127586
-33.662094 -48.85733 3.904994
-34.130997 -47.915207 1.243762
-32.6726 -50.590252 9.067323
-33.463322 -49.304409 11.005792
-36.270885 -44.147865 11.002405
-35.627369 -45.496559 9.313959
-36.512039 -43.59866 8.536114
-36.80994 -42.733025 5.954223
-37.292652 -41.511436 7.635438
-38.70549 -33.769276 17.503698
-38.464905 -33.507599 19.820192
-38.337036 -35.544151 18.654757
-37.761372 -37.560452 19.675318
-38.090542 -37.556763 17.475328
-37.771633 -39.441525 15.943411
-38.293022 -37.481583 15.08565
-38.484467 -34.753174 9.23592
-38.413391 -36.756435 10.296845
-38.358009 -36.120754 7.743586
-38.178322 -37.406017 6.110194
-38.264214 -35.333164 5.276776
-35.716518 -44.942123 2.490939
-35.181744 -45.899467 0.642654
-36.18988 -43.711334 -0.05016
-34.22308 -47.960693 12.854019
-35.987003 -44.594765 13.587056
-36.847095 -42.723145 12.678541
-38.907505 -31.771839 16.578114
-38.801495 -33.591404 15.32487
-38.64061 -35.377132 14.138489
-38.756294 -33.379597 13.151299
-38.589291 -33.173965 10.766335
-38.357819 -32.726086 8.554228
-31.945644 -51.727551 7.47494
-33.11657 -49.853909 6.504859
-34.274841 -47.872784 5.695596
-34.593689 -47.415291 10.276077
-34.949623 -46.741035 7.597623
-35.307674 -45.938255 4.935729
-36.297367 -43.812225 4.075676
-37.420135 -33.089157 23.956648
-38.525227 -31.410936 20.838598
-38.039783 -33.31868 21.942509
-37.410004 -35.347927 22.920059
-37.351116 -41.141319 14.503412
-37.565105 -40.748569 12.034211
-38.40387 -37.147011 12.740726
-38.11195 -38.684471 11.064146
-37.712578 -40.24707 9.489106
-37.86277 -39.407684 6.936963
-37.939056 -38.648987 4.414774
-37.989586 -30.671623 7.689392
-38.06023 -32.06292 6.3248
-38.113922 -33.314796 4.616249
-38.157425 -34.417007 2.928319
-33.282887 -49.526245 12.289499
-32.8729 -50.217706 11.413949
-36.286821 -43.815569 14.368813
-35.812584 -44.763279 14.836186
-36.112402 -43.984083 15.617943
-38.883388 -31.687948 15.464359
-38.928078 -30.715642 16.020027
-38.903961 -30.631751 14.906273
-34.94636 -46.309244 -0.319032
-35.469519 -45.229198 -0.65454
-31.685647 -52.1099 8.811144
-31.297455 -52.723839 7.924378
-37.305975 -41.151359 4.317316
-36.948431 -42.248137 4.703758
-37.167484 -41.636248 5.567781
-37.60109 -40.097753 3.914557
-37.305975 -41.151359 4.317316
-37.739313 -32.138815 23.390514
-37.364372 -32.02145 24.435367
-38.659777 -31.560764 19.808373
-38.698502 -30.422062 20.24924
-38.833052 -30.57189 19.219015
-37.621943 -36.4956 21.306435
-37.343417 -36.402247 22.389777
-37.68853 -35.44128 21.836717
-37.390884 -38.554218 20.156029
-37.627907 -38.505842 18.993319
-38.104712 -37.086905 2.807478
-37.988205 -38.138233 3.195591
-38.055563 -37.597658 4.026661
-37.781092 -30.405127 6.556366
-37.689818 -29.683136 7.15488
-37.816414 -31.100775 5.87407
-38.024908 -31.367272 7.007096
-37.781092 -30.405127 6.556366
-38.002071 -32.839359 3.446026
-37.920431 -32.312874 4.291203
-38.023823 -33.390465 2.602062
-38.135674 -33.865901 3.772284
-38.002071 -32.839359 3.446026
-36.825524 -42.182188 0.459035
-37.000953 -41.726059 1.36398
-36.415611 -43.123178 16.393785
-36.112402 -43.984083 15.617943
-38.798301 -30.57949 13.821407
-38.903961 -30.631751 14.906273
-38.704916 -30.52428 12.709898
-38.765886 -31.548847 13.239095
-38.798301 -30.57949 13.821407
-38.527129 -30.494264 11.573654
-38.704916 -30.52428 12.709898
-38.371771 -30.306705 10.433329
-38.517144 -31.306078 10.987262
-38.527129 -30.494264 11.573654
-33.306961 -49.430242 3.018077
-33.03141 -49.916343 4.341242
-33.541412 -48.959181 1.687461
-33.306961 -49.430242 3.018077
-33.896546 -48.386268 2.574378
-33.858398 -48.37478 0.438843
-33.541412 -48.959181 1.687461
-32.477539 -50.860628 10.444714
-32.049125 -51.541251 9.607335
-33.067961 -49.94733 10.036558
-32.477539 -50.860628 10.444714
-32.8729 -50.217706 11.413949
-37.792492 -38.503998 17.893324
-37.627907 -38.505842 18.993319
-37.925957 -37.558607 18.575323
-37.931088 -38.499144 16.70937
-37.633038 -39.446379 17.127366
-37.792492 -38.503998 17.893324
-35.973587 -44.135131 -1.000948
-35.469519 -45.229198 -0.65454
-35.685812 -44.805401 0.296247
-36.599205 -42.65352 -0.389271
-36.416199 -43.240002 0.798146
-36.825524 -42.182188 0.459035
-36.431337 -43.045004 -1.313902
-36.599205 -42.65352 -0.389271
-35.973587 -44.135131 -1.000948
-36.431337 -43.045004 -1.313902
-34.015562 -48.181011 14.102327
-33.662766 -48.854387 13.213612
-34.594021 -47.228188 13.676727
-34.015562 -48.181011 14.102327
-35.127138 -46.298065 13.236667
-34.756197 -47.030571 12.413958
-34.594021 -47.228188 13.676727
-35.475983 -45.545224 14.043246
-35.812584 -44.763279 14.836186
-35.638159 -45.347607 12.780477
-35.127138 -46.298065 13.236667
-35.475983 -45.545224 14.043246
-38.891859 -30.748928 18.19955
-38.833052 -30.57189 19.219015
-38.948448 -30.779552 17.099533
-38.928078 -30.715642 16.020027
-38.850916 -31.741215 17.678131
-38.891859 -30.748928 18.19955
-38.948448 -30.779552 17.099533
-34.420986 -47.317114 -0.018478
-34.656371 -46.907337 0.943208
-34.94636 -46.309244 -0.319032
-33.858398 -48.37478 0.438843
-34.420986 -47.317114 -0.018478
-31.555246 -52.3402 6.627266
-31.297455 -52.723839 7.924378
-32.173185 -51.351454 6.126215
-31.555246 -52.3402 6.627266
-32.309122 -51.158901 8.271131
-31.685647 -52.1099 8.811144
-32.049125 -51.541251 9.607335
-32.758648 -50.414633 5.641174
-32.173185 -51.351454 6.126215
-32.531107 -50.79073 6.989899
-33.389332 -49.35562 5.204927
-33.03141 -49.916343 4.341242
-32.758648 -50.414633 5.641174
-33.843201 -48.632551 11.929906
-33.282887 -49.526245 12.289499
-33.662766 -48.854387 13.213612
-36.692144 -42.787736 3.764484
-36.553653 -43.272625 5.01495
-36.948431 -42.248137 4.703758
-36.864719 -42.265958 2.549872
-36.469942 -43.290447 2.861064
-36.692144 -42.787736 3.764484
-37.000953 -41.726059 1.36398
-36.864719 -42.265958 2.549872
-36.999203 -33.076693 24.898966
-37.364372 -32.02145 24.435367
-37.056576 -34.155832 24.397281
-36.999203 -33.076693 24.898966
-38.526043 -30.335814 21.303762
-38.698502 -30.422062 20.24924
-38.291859 -31.299704 21.831488
-38.526043 -30.335814 21.303762
-38.049137 -32.253577 22.383444
-38.291859 -31.299704 21.831488
-38.282505 -32.364808 21.390554
-37.729959 -33.203919 22.949579
-37.739313 -32.138815 23.390514
-38.049137 -32.253577 22.383444
-37.05151 -35.285217 23.878987
-37.056576 -34.155832 24.397281
-37.41507 -34.218542 23.438353
-37.031206 -36.374424 23.354416
-37.05151 -35.285217 23.878987
-37.031206 -36.374424 23.354416
-37.343417 -36.402247 22.389777
-37.519101 -37.508509 20.767406
-37.621943 -36.4956 21.306435
-37.864214 -36.547543 20.214346
-37.519101 -37.508509 20.767406
-37.390884 -38.554218 20.156029
-36.821821 -42.209289 16.038542
-36.415611 -43.123178 16.393785
-37.414318 -40.411865 16.434963
-37.633038 -39.446379 17.127366
-37.204059 -41.261763 15.714963
-37.414318 -40.411865 16.434963
-37.561374 -40.291422 15.223412
-36.968877 -42.088846 14.826992
-36.821821 -42.209289 16.038542
-37.204059 -41.261763 15.714963
-37.808104 -39.152512 3.531275
-37.60109 -40.097753 3.914557
-37.732042 -39.594229 4.798057
-37.808104 -39.152512 3.531275
-37.988205 -38.138233 3.195591
-38.129553 -30.085918 9.311231
-38.371771 -30.306705 10.433329
-37.943453 -29.862471 8.232458
-37.689818 -29.683136 7.15488
-38.175686 -30.895071 8.768165
-38.129553 -30.085918 9.311231
-37.943453 -29.862471 8.232458
-37.893585 -31.686935 5.145478
-37.816414 -31.100775 5.87407
-38.087076 -32.688858 5.470524
-37.893585 -31.686935 5.145478
-37.920431 -32.312874 4.291203
-38.105341 -33.886608 1.779701
-38.023823 -33.390465 2.602062
-38.164183 -34.960211 2.094721
-38.105341 -33.886608 1.779701
-38.171505 -36.024872 2.449836
-38.164748 -35.481668 3.283434
-38.164183 -34.960211 2.094721
-38.104712 -37.086905 2.807478
-38.171505 -36.024872 2.449836
3 0 20 19
3 74 22 75
3 1 25 23
3 1 27 25
3 2 30 28
3 2 32 30
3 2 34 32
3 3 37 35
3 3 39 37
3 4 42 40
3 6 76 78
3 76 44 77
3 76 77 78
3 6 45 44
3 8 79 81
3 79 46 80
3 79 80 81
3 8 47 46
3 8 49 47
3 10 50 18
3 10 51 50
3 83 82 41
3 84 52 85
3 11 53 21
3 11 54 53
3 5 55 43
3 12 56 24
3 12 57 56
3 12 58 57
3 13 86 88
3 88 87 26
3 86 87 88
3 13 89 90
3 91 59 92
3 7 93 95
3 93 60 94
3 93 94 95
3 14 61 29
3 14 62 61
3 14 96 98
3 98 97 62
3 96 97 98
3 100 99 31
3 15 63 33
3 15 64 63
3 9 65 48
3 16 66 36
3 16 67 66
3 16 68 67
3 17 69 38
3 17 101 103
3 103 102 69
3 101 102 103
3 104 70 105
3 106 71 107
3 108 107 70
3 106 107 108
3 109 72 110
3 111 73 112
3 113 112 72
3 111 112 113
3 115 114 4
3 116 6 117
3 118 8 119
3 120 18 121
3 122 121 8
3 120 121 122
3 123 18 124
3 125 10 126
3 127 126 18
3 125 126 127
3 19 128 129
3 20 130 132
3 132 131 19
3 130 131 132
3 20 133 134
3 135 21 136
3 22 137 139
3 137 21 138
3 137 138 139
3 22 11 21
3 23 24 5
3 25 24 23
3 25 12 24
3 25 26 12
3 27 26 25
3 27 13 26
3 28 29 7
3 30 29 28
3 30 14 29
3 30 31 14
3 32 31 30
3 32 140 142
3 142 141 31
3 140 141 142
3 32 143 145
3 143 33 144
3 143 144 145
3 34 33 32
3 34 15 33
3 35 36 9
3 37 36 35
3 37 16 36
3 37 38 16
3 39 38 37
3 39 17 38
3 40 41 0
3 42 41 40
3 42 146 148
3 148 147 41
3 146 147 148
3 149 42 150
3 151 150 4
3 149 150 151
3 152 42 153
3 155 154 42
3 156 43 157
3 158 43 159
3 160 5 161
3 162 161 43
3 160 161 162
3 44 163 164
3 44 165 167
3 165 5 166
3 165 166 167
3 44 23 5
3 45 23 44
3 45 1 23
3 168 7 169
3 46 170 171
3 46 172 174
3 172 7 173
3 172 173 174
3 46 28 7
3 47 28 46
3 47 2 28
3 47 48 2
3 49 48 47
3 49 9 48
3 18 49 8
3 50 49 18
3 50 9 49
3 50 35 9
3 51 35 50
3 51 3 35
3 41 20 0
3 175 20 176
3 177 176 41
3 175 176 177
3 179 178 20
3 52 180 181
3 52 182 183
3 21 184 186
3 184 52 185
3 184 185 186
3 53 52 21
3 53 187 189
3 189 188 52
3 187 188 189
3 53 190 192
3 190 19 191
3 190 191 192
3 54 19 53
3 54 0 19
3 43 193 195
3 193 22 194
3 193 194 195
3 55 22 43
3 55 11 22
3 24 55 5
3 56 55 24
3 56 11 55
3 56 54 11
3 57 54 56
3 57 0 54
3 57 40 0
3 58 40 57
3 58 4 40
3 26 58 12
3 196 58 197
3 198 197 26
3 196 197 198
3 199 4 200
3 201 200 58
3 199 200 201
3 203 202 4
3 59 204 205
3 59 206 207
3 60 208 209
3 60 210 211
3 29 60 7
3 61 60 29
3 61 212 214
3 214 213 60
3 212 213 214
3 61 215 217
3 215 59 216
3 215 216 217
3 62 59 61
3 62 218 220
3 220 219 59
3 218 219 220
3 62 221 222
3 224 223 62
3 31 225 227
3 227 226 14
3 225 226 227
3 229 228 31
3 230 6 231
3 33 232 233
3 63 234 236
3 236 235 33
3 234 235 236
3 63 237 239
3 237 6 238
3 237 238 239
3 63 45 6
3 64 45 63
3 64 1 45
3 48 34 2
3 65 34 48
3 65 15 34
3 36 65 9
3 66 65 36
3 66 15 65
3 66 64 15
3 67 64 66
3 67 1 64
3 67 27 1
3 68 27 67
3 68 13 27
3 38 68 16
3 69 68 38
3 69 13 68
3 69 240 242
3 242 241 13
3 240 241 242
3 244 243 69
3 245 10 246
3 70 247 248
3 70 249 251
3 249 10 250
3 249 250 251
3 70 51 10
3 71 51 70
3 71 3 51
3 252 71 253
3 72 254 256
3 254 71 255
3 254 255 256
3 72 3 71
3 72 39 3
3 73 39 72
3 73 17 39
3 257 73 258
3 259 73 260
3 261 17 262
3 263 262 73
3 261 262 263
3 265 264 17
