ply
format ascii 1.0
element vertex 168
property float x
property float y
property float z
element face 148
property list uchar int vertex_index
end_header
-24.32995 -80.31768 -18.25366
-25.992374 -83.917152 -9.012271
-25.176865 -86.271843 -18.106136
-24.141607 -89.275818 -22.61582
-23.82979 -83.534416 -22.335939
-26.515232 -89.342056 -8.195225
-26.093977 -88.192825 -13.324671
-25.363787 -82.431328 -13.572407
-25.549301 -79.568329 -4.850148
-24.837357 -83.384766 -18.031031
-24.566746 -85.053787 -20.252939
-24.198256 -82.11042 -20.234846
-23.342838 -87.743927 -24.567961
-26.332541 -86.654312 -8.622035
-26.367804 -88.754585 -10.651019
-26.109426 -86.060326 -11.094816
-25.792459 -85.257462 -13.395009
-25.714382 -83.263329 -11.414463
-25.406637 -89.019211 -18.003334
-24.833719 -90.865303 -20.48102
-24.834568 -88.050659 -20.213568
-24.121258 -86.473518 -22.297178
-26.49749 -91.91468 -7.966772
-26.203117 -84.477562 -6.358748
-24.022621 -92.162811 -22.749489
-26.426691 -91.553085 -10.562295
-26.249178 -90.835045 -12.924991
-25.880623 -90.142563 -15.662678
-25.710537 -87.208504 -15.62088
-25.365685 -84.418739 -15.773758
-24.884287 -81.407349 -15.948027
-25.976442 -82.171967 -4.192528
-25.793734 -81.765213 -6.845749
-25.541285 -81.183708 -9.282136
-25.194628 -80.310394 -11.639202
-23.453037 -80.346657 -22.257368
-22.825722 -88.298389 -25.629145
-22.836747 -86.812023 -25.572187
-23.521712 -84.111488 -23.393989
-23.667446 -85.581039 -23.374609
-23.975524 -85.003967 -22.316558
-26.257197 -84.682556 -5.070491
-26.333975 -85.805947 -6.172983
-25.762871 -80.870148 -4.521338
-25.854456 -81.015339 -3.203215
-25.640886 -79.71352 -3.532024
-25.270898 -79.800232 -9.468456
-25.410981 -80.069549 -8.299735
-25.097569 -79.363575 -10.64699
-25.367956 -80.747051 -10.460669
-25.270898 -79.800232 -9.468456
-23.249927 -78.788032 -22.179466
-23.593514 -79.627274 -21.226855
-23.29837 -89.230491 -24.654807
-23.697755 -89.996437 -23.678736
-23.742223 -88.509873 -23.59189
-23.29837 -89.230491 -24.654807
-22.825722 -88.298389 -25.629145
-25.435842 -78.469784 -3.936212
-25.640886 -79.71352 -3.532024
-25.120178 -89.942257 -19.242177
-25.14002 -91.379036 -19.231212
-25.426479 -90.45599 -17.992369
-23.278236 -86.216243 -24.510001
-23.732048 -87.108722 -23.432569
-23.667446 -85.581039 -23.374609
-22.836747 -86.812023 -25.572187
-23.278236 -86.216243 -24.510001
-26.46615 -92.040695 -6.515498
-26.380636 -93.121974 -7.756862
-26.524566 -90.798069 -6.693164
-26.46615 -92.040695 -6.515498
-26.533437 -89.511757 -6.807391
-26.506361 -90.628368 -8.080998
-26.524566 -90.798069 -6.693164
-26.490032 -88.238193 -7.091222
-26.533437 -89.511757 -6.807391
-26.398687 -86.894322 -7.304627
-26.423887 -87.998184 -8.40863
-26.490032 -88.238193 -7.091222
-26.267829 -85.565937 -7.490392
-26.398687 -86.894322 -7.304627
-26.333975 -85.805947 -6.172983
-24.794061 -92.15934 -20.397533
-25.14002 -91.379036 -19.231212
-24.388513 -92.808094 -21.531767
-24.794061 -92.15934 -20.397533
-24.42817 -91.514057 -21.615254
-23.864933 -93.47491 -22.763841
-24.388513 -92.808094 -21.531767
-23.638261 -91.439933 -23.745571
-24.082114 -90.719314 -22.682654
-23.697755 -89.996437 -23.678736
-23.432702 -92.718693 -23.933549
-23.638261 -91.439933 -23.745571
-23.864933 -93.47491 -22.763841
-23.432702 -92.718693 -23.933549
-24.03197 -79.612785 -19.225001
-24.078663 -78.800552 -18.262142
-26.381773 -93.043316 -9.199751
-26.380636 -93.121974 -7.756862
-26.346373 -92.862518 -10.497512
-26.381773 -93.043316 -9.199751
-26.462091 -91.733882 -9.264534
-26.285978 -92.566085 -11.790677
-26.346373 -92.862518 -10.497512
-26.197221 -92.207065 -12.972024
-26.285978 -92.566085 -11.790677
-26.337935 -91.194065 -11.743643
-26.067629 -91.833123 -14.178433
-26.197221 -92.207065 -12.972024
-25.883351 -91.486881 -15.547276
-26.067629 -91.833123 -14.178433
-26.064901 -90.488804 -14.293834
-25.663472 -91.017666 -16.822041
-25.883351 -91.486881 -15.547276
-25.64363 -89.580887 -16.833006
-25.426479 -90.45599 -17.992369
-25.663472 -91.017666 -16.822041
-26.038097 -82.402031 -2.890737
-25.854456 -81.015339 -3.203215
-26.143859 -83.529758 -3.987381
-26.038097 -82.402031 -2.890737
-26.089779 -83.324765 -5.275638
-26.257197 -84.682556 -5.070491
-26.143859 -83.529758 -3.987381
-25.304257 -78.199303 -5.089244
-25.435842 -78.469784 -3.936212
-25.41499 -79.26186 -6.083741
-25.304257 -78.199303 -5.089244
-25.537206 -80.360302 -7.081542
-25.671518 -80.666771 -5.847948
-25.41499 -79.26186 -6.083741
-25.66751 -81.47446 -8.063942
-25.537206 -80.360302 -7.081542
-25.410981 -80.069549 -8.299735
-24.913031 -78.922958 -11.824502
-25.097569 -79.363575 -10.64699
-24.999141 -79.898525 -12.827043
-24.913031 -78.922958 -11.824502
-25.08372 -80.958992 -13.793646
-25.279207 -81.370861 -12.605804
-24.999141 -79.898525 -12.827043
-24.843971 -80.447002 -14.981456
-25.124037 -81.919338 -14.760217
-25.08372 -80.958992 -13.793646
-24.615988 -79.929542 -16.057356
-24.843971 -80.447002 -14.981456
-24.338819 -79.384708 -17.210172
-24.607118 -80.862515 -17.100843
-24.615988 -79.929542 -16.057356
-24.078663 -78.800552 -18.262142
-24.338819 -79.384708 -17.210172
-23.966123 -80.509155 -20.215594
-24.264103 -81.21405 -19.244253
-24.03197 -79.612785 -19.225001
-23.825646 -81.228538 -21.246107
-23.966123 -80.509155 -20.215594
-23.593514 -79.627274 -21.226855
-23.046625 -79.438076 -23.218703
-23.249927 -78.788032 -22.179466
-23.193351 -81.003029 -23.343967
-23.046625 -79.438076 -23.218703
-23.381727 -82.596908 -23.383253
-23.641413 -81.940536 -22.296653
-23.193351 -81.003029 -23.343967
-23.521712 -84.111488 -23.393989
-23.381727 -82.596908 -23.383253
3 0 11 9
3 37 36 12
3 1 15 13
3 1 17 15
3 2 20 18
3 4 21 10
3 4 38 40
3 40 39 21
3 38 39 40
3 41 23 42
3 3 24 19
3 5 25 22
3 6 26 14
3 6 27 26
3 6 28 27
3 7 29 16
3 7 30 29
3 8 43 45
3 43 31 44
3 43 44 45
3 8 32 31
3 46 33 47
3 48 34 49
3 50 49 33
3 48 49 50
3 51 35 52
3 9 10 2
3 11 10 9
3 11 4 10
3 12 53 55
3 55 54 3
3 53 54 55
3 57 56 12
3 13 14 5
3 15 14 13
3 15 6 14
3 15 16 6
3 17 16 15
3 17 7 16
3 58 8 59
3 18 60 62
3 60 19 61
3 60 61 62
3 20 19 18
3 20 3 19
3 10 20 2
3 21 20 10
3 21 3 20
3 21 12 3
3 63 12 64
3 65 64 21
3 63 64 65
3 67 66 12
3 68 22 69
3 70 22 71
3 72 5 73
3 74 73 22
3 72 73 74
3 75 5 76
3 77 13 78
3 79 78 5
3 77 78 79
3 23 80 82
3 80 13 81
3 80 81 82
3 23 1 13
3 19 83 84
3 24 85 87
3 87 86 19
3 85 86 87
3 24 88 89
3 90 24 91
3 92 91 3
3 90 91 92
3 93 24 94
3 96 95 24
3 98 97 0
3 22 99 100
3 25 101 103
3 103 102 22
3 101 102 103
3 25 104 105
3 14 25 5
3 26 25 14
3 26 106 108
3 108 107 25
3 106 107 108
3 26 109 110
3 27 111 113
3 113 112 26
3 111 112 113
3 27 114 115
3 27 116 118
3 116 18 117
3 116 117 118
3 28 18 27
3 28 2 18
3 16 28 6
3 29 28 16
3 29 2 28
3 29 9 2
3 30 9 29
3 30 0 9
3 31 119 120
3 31 121 122
3 31 123 125
3 123 23 124
3 123 124 125
3 32 23 31
3 32 1 23
3 126 8 127
3 128 8 129
3 130 32 131
3 132 131 8
3 130 131 132
3 33 133 135
3 133 32 134
3 133 134 135
3 33 1 32
3 33 17 1
3 34 17 33
3 34 7 17
3 136 34 137
3 138 34 139
3 140 7 141
3 142 141 34
3 140 141 142
3 143 30 144
3 145 144 7
3 143 144 145
3 146 30 147
3 148 0 149
3 150 149 30
3 148 149 150
3 152 151 0
3 153 11 154
3 155 154 0
3 153 154 155
3 35 156 158
3 156 11 157
3 156 157 158
3 35 4 11
3 159 35 160
3 161 35 162
3 163 4 164
3 165 164 35
3 163 164 165
3 167 166 4
