ply
format ascii 1.0
element vertex 291
property float x
property float y
property float z
element face 268
property list uchar int vertex_index
end_header
-4.84901 20.338627 53.584236
-11.62616 15.415567 49.990971
-17.459005 20.681528 43.058491
-19.94381 12.913456 42.33535
-20.07147 17.801311 40.857975
-17.446987 15.6266 44.439274
-8.489848 17.933165 51.772488
-11.491796 20.783464 48.665848
-1.2367 22.917229 55.013878
-19.45927 28.735476 37.837536
-14.545677 13.135626 47.974007
-19.991554 23.261507 39.244797
-17.13463 26.161623 41.68644
-14.684901 18.067747 46.601929
-14.411811 23.511198 45.325523
5.70697 21.344217 59.735775
-18.584778 11.91135 44.136673
-18.698315 14.35682 43.389252
-17.302372 13.033263 45.246986
-6.692063 19.189861 52.693718
-8.206762 20.673477 51.199219
-6.473364 21.985044 52.005795
-19.744896 10.656672 43.148895
-3.018609 21.429667 54.408543
-18.057674 30.167896 39.05999
-18.842752 19.268736 41.89872
-20.076197 20.496027 40.049568
-18.760454 21.900984 41.209698
-18.638159 24.645802 40.454201
-17.290615 23.422943 42.417408
-13.0812 14.241762 49.037891
-14.600801 15.46909 47.346817
-13.132774 16.759924 48.359772
-11.254687 23.511171 48.050835
-13.015439 22.295111 46.946991
-12.772386 24.985491 46.337494
-14.138806 26.40336 44.662701
-21.245594 14.161083 40.44323
-21.329819 16.602568 39.646038
-20.028307 15.376603 41.582825
-18.805439 16.837313 42.617596
-17.428621 17.986675 43.840996
-10.096434 16.672386 50.896961
-11.571327 18.111977 49.337048
-9.87567 19.346796 50.345787
-9.797045 22.103628 49.607334
-20.852888 9.433357 42.201221
-21.145021 11.737624 41.229176
0.672829 23.884741 55.831581
-13.053301 11.740725 49.678154
-11.719533 12.911317 50.537693
-5.019484 17.600389 54.275173
-3.267278 18.58996 55.124386
-21.338165 19.040848 38.901833
-19.786594 25.980738 38.516582
-18.320898 27.44956 39.825531
-16.754095 29.1273 41.033749
-16.077282 14.288371 46.199631
-16.040022 16.818172 45.600407
-16.106485 19.514334 44.817848
-13.157005 19.476629 47.621185
-14.606927 20.732393 45.950768
-15.954541 22.156561 44.220383
-15.735012 24.971273 43.577305
-15.613187 27.860338 42.726292
-1.469747 19.864492 55.861492
0.33388 20.879339 56.641369
2.232853 22.209249 57.346588
3.87967 20.144201 59.01722
-17.250292 11.812926 45.601749
-17.943575 12.472307 44.691829
-17.891495 11.25197 45.046593
-4.747323 21.790463 53.190376
-5.5595 22.613671 52.401156
-5.661187 21.161835 52.795015
-17.891495 11.25197 45.046593
-18.457935 10.6538 44.591349
-3.933809 20.884147 53.996389
-3.832122 22.335983 53.60253
-4.747323 21.790463 53.190376
-17.828665 31.607277 38.706667
-17.285582 31.043859 39.615814
-11.965805 25.703442 46.767144
-12.013537 24.248331 47.194164
-11.206956 24.966282 47.623814
-12.604494 26.490665 45.982281
-11.965805 25.703442 46.767144
-8.968397 22.776982 50.002999
-9.001904 21.388552 50.403277
-8.173255 22.061906 50.798941
-9.697204 23.592572 49.216034
-8.968397 22.776982 50.002999
-20.167457 8.95703 43.109504
-20.682295 8.365464 42.693412
-1.008098 24.382198 54.635006
-1.980341 23.727976 54.282669
-0.281935 23.400985 55.42273
-0.053333 24.865953 55.043858
-1.008098 24.382198 54.635006
-19.973433 29.268759 36.857027
-20.1788 27.880803 37.194851
-12.325245 11.107386 50.459877
-12.982655 10.565846 50.027656
-11.658361 11.692682 50.889646
-12.386417 12.326021 50.107923
-12.325245 11.107386 50.459877
-5.165215 16.230618 54.5529
-5.940126 17.12184 53.781382
-4.25277 16.766379 55.010998
-5.165215 16.230618 54.5529
-20.623603 22.436943 38.704952
-20.665924 21.054203 39.107338
-20.033876 21.878767 39.647182
-20.557915 23.775833 38.302364
-20.623603 22.436943 38.704952
-19.889074 24.621122 38.88069
-20.455435 25.135448 37.938257
-20.557915 23.775833 38.302364
-15.31148 13.711998 47.086819
-15.997837 13.086906 46.574883
-15.232034 12.510533 47.46207
-14.732517 28.579334 43.323548
-14.875996 27.131849 43.694496
-13.995327 27.850845 44.291752
-15.389402 29.296992 42.418539
-14.732517 28.579334 43.323548
-1.538003 18.482302 56.234853
-2.368513 19.227226 55.492939
-2.436769 17.845036 55.866301
1.198879 20.036217 57.43255
0.290412 19.47134 57.054657
2.148365 20.701172 57.78516
1.283367 21.544294 56.993978
1.198879 20.036217 57.43255
4.79332 20.744209 59.376497
4.643019 19.230331 59.761158
5.556669 19.830338 60.120435
4.93313 22.298001 58.946125
4.019481 21.697993 58.586848
4.79332 20.744209 59.376497
5.872902 22.912569 59.3104
4.93313 22.298001 58.946125
-7.306556 22.71769 51.202229
-8.173255 22.061906 50.798941
-7.340063 21.32926 51.602507
-6.347859 23.372981 51.640739
-7.306556 22.71769 51.202229
-6.347859 23.372981 51.640739
-5.5595 22.613671 52.401156
-19.037994 10.026461 44.097459
-19.613461 9.568687 43.583342
-19.164837 11.284011 43.642784
-19.037994 10.026461 44.097459
-18.457935 10.6538 44.591349
-2.871295 22.984195 53.980002
-3.832122 22.335983 53.60253
-2.127655 22.173448 54.71121
-1.980341 23.727976 54.282669
-2.871295 22.984195 53.980002
-18.570918 30.902229 38.045906
-19.271716 30.186019 37.434679
-18.758472 29.451686 38.448763
-18.570918 30.902229 38.045906
-17.828665 31.607277 38.706667
-13.287705 27.199599 45.144885
-13.455596 25.694426 45.500097
-12.604494 26.490665 45.982281
-13.995327 27.850845 44.291752
-13.287705 27.199599 45.144885
6.549914 20.351743 60.557024
5.556669 19.830338 60.120435
6.642195 21.879482 60.130566
6.549914 20.351743 60.557024
-21.287706 15.381826 40.044634
-21.932281 15.98574 39.064469
-21.890168 14.764997 39.463065
-10.426025 24.296343 48.437784
-10.525866 22.8074 48.829085
-9.697204 23.592572 49.216034
-11.206956 24.966282 47.623814
-10.426025 24.296343 48.437784
-21.379387 8.940848 41.724975
-20.682295 8.365464 42.693412
-21.49677 9.988035 41.28589
-21.379387 8.940848 41.724975
-20.298892 10.045015 42.675058
-20.167457 8.95703 43.109504
-19.613461 9.568687 43.583342
-21.642837 11.140168 40.799868
-21.49677 9.988035 41.28589
-20.998954 10.585491 41.715198
-21.7911 12.314258 40.283082
-21.642837 11.140168 40.799868
-21.841387 13.525987 39.890108
-21.7911 12.314258 40.283082
-21.195307 12.949354 40.836203
-21.890168 14.764997 39.463065
-21.841387 13.525987 39.890108
0.834247 25.473526 55.349911
-0.053333 24.865953 55.043858
1.593613 24.539846 56.153046
0.834247 25.473526 55.349911
-19.973433 29.268759 36.857027
-19.271716 30.186019 37.434679
-14.482236 11.932151 48.327183
-15.232034 12.510533 47.46207
-13.736048 11.2347 49.179257
-12.982655 10.565846 50.027656
-13.799489 12.438175 48.826081
-14.482236 11.932151 48.327183
-13.736048 11.2347 49.179257
-10.9364 12.319501 51.32061
-11.658361 11.692682 50.889646
-10.935318 13.591298 51.003687
-10.9364 12.319501 51.32061
-10.888632 14.843423 50.730326
-11.672847 14.163442 50.264332
-10.935318 13.591298 51.003687
-10.123769 15.471832 51.183321
-10.861297 16.043976 50.443966
-10.888632 14.843423 50.730326
-9.298546 16.022583 51.67127
-10.123769 15.471832 51.183321
-8.495253 16.652973 52.109034
-9.293141 17.302775 51.334725
-9.298546 16.022583 51.67127
-7.675308 17.288228 52.530039
-8.495253 16.652973 52.109034
-6.776415 17.916576 52.990654
-7.590955 18.561513 52.233103
-7.675308 17.288228 52.530039
-5.855773 18.395125 53.484445
-6.776415 17.916576 52.990654
-5.940126 17.12184 53.781382
-3.376667 17.261165 55.435604
-4.143381 18.095174 54.69978
-4.25277 16.766379 55.010998
-2.436769 17.845036 55.866301
-3.376667 17.261165 55.435604
-21.99704 17.161247 38.614553
-21.932281 15.98574 39.064469
-22.001213 18.380387 38.242451
-21.99704 17.161247 38.614553
-21.333992 17.821708 39.273936
-21.94066 19.59944 37.916522
-22.001213 18.380387 38.242451
-21.296908 20.326614 38.53347
-20.707181 19.768438 39.475701
-20.665924 21.054203 39.107338
-21.94066 19.59944 37.916522
-21.296908 20.326614 38.53347
-20.342461 26.503434 37.534374
-20.455435 25.135448 37.938257
-19.622932 27.358107 38.177059
-20.1788 27.880803 37.194851
-20.342461 26.503434 37.534374
-16.633793 30.523561 40.602694
-17.285582 31.043859 39.615814
-17.405884 29.647598 40.046869
-16.610381 12.459352 46.09856
-17.250292 11.812926 45.601749
-16.689827 13.660817 45.723309
-16.610381 12.459352 46.09856
-15.997837 13.086906 46.574883
-15.959857 29.930473 41.572267
-16.183641 28.493819 41.880021
-15.389402 29.296992 42.418539
-16.633793 30.523561 40.602694
-15.959857 29.930473 41.572267
-0.611401 18.963916 56.664718
-1.538003 18.482302 56.234853
-0.567933 20.371916 56.25143
-0.611401 18.963916 56.664718
0.290412 19.47134 57.054657
2.373625 23.702101 56.910549
1.593613 24.539846 56.153046
1.452841 23.046995 56.589084
3.72219 18.733914 59.358683
4.643019 19.230331 59.761158
2.971774 19.668647 58.620476
3.72219 18.733914 59.358683
3.056261 21.176725 58.181904
2.148365 20.701172 57.78516
2.971774 19.668647 58.620476
3.196072 22.730517 57.751531
3.056261 21.176725 58.181904
4.019481 21.697993 58.586848
2.373625 23.702101 56.910549
3.196072 22.730517 57.751531
5.872902 22.912569 59.3104
6.642195 21.879482 60.130566
3 69 18 70
3 71 70 16
3 69 70 71
3 0 21 19
3 0 72 74
3 74 73 21
3 72 73 74
3 75 16 76
3 0 77 79
3 77 23 78
3 77 78 79
3 81 80 24
3 2 27 25
3 2 29 27
3 1 32 30
3 82 35 83
3 84 83 33
3 82 83 84
3 86 85 35
3 3 39 37
3 5 40 17
3 5 41 40
3 6 44 42
3 87 45 88
3 89 88 20
3 87 88 89
3 91 90 45
3 92 46 93
3 3 47 22
3 3 37 47
3 8 94 95
3 8 96 98
3 96 48 97
3 96 97 98
3 9 99 100
3 101 49 102
3 103 50 104
3 105 104 49
3 103 104 105
3 106 51 107
3 109 108 51
3 4 53 38
3 11 110 112
3 112 111 26
3 110 111 112
3 11 113 114
3 11 115 117
3 115 54 116
3 115 116 117
3 12 55 28
3 12 56 55
3 10 118 120
3 118 57 119
3 118 119 120
3 13 58 31
3 13 59 58
3 7 60 43
3 14 61 34
3 14 62 61
3 14 63 62
3 121 64 122
3 123 122 36
3 121 122 123
3 125 124 64
3 126 65 127
3 128 127 52
3 126 127 128
3 129 66 130
3 131 67 132
3 133 132 66
3 131 132 133
3 15 134 136
3 134 68 135
3 134 135 136
3 15 137 139
3 139 138 68
3 137 138 139
3 15 140 141
3 16 17 3
3 18 17 16
3 18 5 17
3 19 20 6
3 21 20 19
3 21 142 144
3 144 143 20
3 142 143 144
3 21 145 146
3 148 147 21
3 149 22 150
3 16 151 153
3 151 22 152
3 151 152 153
3 16 3 22
3 23 154 155
3 23 156 158
3 156 8 157
3 156 157 158
3 24 159 161
3 161 160 9
3 159 160 161
3 163 162 24
3 25 26 4
3 27 26 25
3 27 11 26
3 27 28 11
3 29 28 27
3 29 12 28
3 30 31 10
3 32 31 30
3 32 13 31
3 33 34 7
3 35 34 33
3 35 14 34
3 35 36 14
3 164 36 165
3 166 165 35
3 164 165 166
3 168 167 36
3 169 15 170
3 172 171 15
3 37 173 175
3 173 38 174
3 173 174 175
3 39 38 37
3 39 4 38
3 17 39 3
3 40 39 17
3 40 4 39
3 40 25 4
3 41 25 40
3 41 2 25
3 42 43 1
3 44 43 42
3 44 7 43
3 20 44 6
3 45 44 20
3 45 7 44
3 45 33 7
3 176 33 177
3 178 177 45
3 176 177 178
3 180 179 33
3 46 181 182
3 46 183 184
3 22 185 187
3 185 46 186
3 185 186 187
3 47 46 22
3 47 188 190
3 190 189 46
3 188 189 190
3 47 191 192
3 37 193 195
3 195 194 47
3 193 194 195
3 37 196 197
3 48 198 199
3 48 200 201
3 203 202 9
3 204 10 205
3 49 206 207
3 49 208 210
3 208 10 209
3 208 209 210
3 49 30 10
3 50 30 49
3 50 1 30
3 211 50 212
3 213 50 214
3 215 1 216
3 217 216 50
3 215 216 217
3 218 42 219
3 220 219 1
3 218 219 220
3 221 42 222
3 223 6 224
3 225 224 42
3 223 224 225
3 226 6 227
3 228 19 229
3 230 229 6
3 228 229 230
3 51 231 233
3 231 19 232
3 231 232 233
3 51 0 19
3 51 52 0
3 234 52 235
3 236 235 51
3 234 235 236
3 238 237 52
3 38 239 240
3 53 241 243
3 243 242 38
3 241 242 243
3 53 244 245
3 26 53 4
3 246 53 247
3 248 247 26
3 246 247 248
3 250 249 53
3 54 251 252
3 54 253 255
3 253 9 254
3 253 254 255
3 28 54 11
3 55 54 28
3 55 9 54
3 55 24 9
3 56 24 55
3 56 256 258
3 258 257 24
3 256 257 258
3 259 18 260
3 57 261 263
3 261 18 262
3 261 262 263
3 57 5 18
3 31 57 10
3 58 57 31
3 58 5 57
3 58 41 5
3 59 41 58
3 59 2 41
3 43 32 1
3 60 32 43
3 60 13 32
3 34 60 7
3 61 60 34
3 61 13 60
3 61 59 13
3 62 59 61
3 62 2 59
3 62 29 2
3 63 29 62
3 63 12 29
3 36 63 14
3 64 63 36
3 64 12 63
3 64 56 12
3 264 56 265
3 266 265 64
3 264 265 266
3 268 267 56
3 52 23 0
3 65 23 52
3 65 8 23
3 269 65 270
3 66 271 273
3 271 65 272
3 271 272 273
3 66 8 65
3 66 48 8
3 67 48 66
3 67 274 276
3 276 275 48
3 274 275 276
3 68 277 278
3 68 279 280
3 68 281 283
3 281 67 282
3 281 282 283
3 284 67 285
3 286 285 68
3 284 285 286
3 288 287 67
3 290 289 15
