ply
format ascii 1.0
element vertex 190
property float x
property float y
property float z
element face 185
property list uchar int vertex_index
end_header
-35.148685 -51.245071 -27.766279
-30.044308 -63.542824 -25.920618
-31.18865 -58.61401 -18.369013
-32.758831 -57.428562 -26.790991
-34.465233 -53.197868 -31.339155
-28.738447 -64.17382 -17.287855
-28.115068 -66.955353 -21.320532
-30.784777 -61.12011 -22.07172
-33.197727 -55.278038 -22.870277
-31.318205 -56.413811 -14.626274
-33.379097 -53.253422 -19.32214
-35.463818 -49.272774 -24.088095
-33.942715 -54.462208 -27.123306
-33.631279 -55.437778 -29.039963
-34.820553 -52.351643 -29.500898
-27.111065 -68.483971 -19.006399
-29.998699 -61.371464 -17.831785
-29.7635 -62.674927 -19.559109
-31.028357 -59.831558 -20.177551
-32.04491 -58.132584 -22.427734
-32.221142 -56.993488 -20.706776
-30.293507 -57.760975 -12.108358
-31.433958 -55.294388 -12.920373
-33.441826 -52.253677 -17.567581
-34.502491 -50.423134 -20.022093
-34.444359 -51.336449 -21.720293
-35.460522 -48.580826 -22.295874
-36.429035 -46.440403 -24.646891
-31.48805 -60.379627 -26.314247
-32.283028 -58.659229 -28.523071
-27.498121 -66.902679 -16.956282
-28.92729 -62.841854 -15.386307
-30.07925 -60.206444 -15.849923
-36.191879 -48.197758 -28.16534
-35.98563 -49.058937 -29.952686
-29.06962 -65.351624 -23.529198
-28.457611 -65.597954 -19.283871
-29.463448 -64.012138 -21.461712
-30.472883 -62.3451 -24.020983
-31.813005 -59.274349 -24.318327
-33.02095 -56.367771 -24.794743
-34.227577 -53.277561 -25.314302
-30.170952 -58.98251 -13.921995
-31.240749 -57.52845 -16.436089
-32.425392 -53.816139 -15.16246
-32.39452 -54.798153 -17.017008
-32.283913 -55.955547 -18.79664
-33.373547 -54.095325 -21.153658
-34.388844 -52.241985 -23.57583
-35.326813 -50.272568 -25.85429
-36.346443 -47.313549 -26.512373
-35.699848 -49.848137 -31.8309
-35.250118 -50.665455 -33.760445
-29.758184 -64.141709 -26.859647
-29.284618 -65.128155 -25.749912
-26.639898 -69.083626 -17.743612
-26.426208 -69.859238 -18.728308
-31.456414 -54.859201 -12.020812
-30.885333 -56.052412 -11.593602
-35.03906 -48.987825 -20.348019
-34.528087 -49.980312 -19.188247
-35.518076 -48.066671 -21.484909
-34.981506 -49.50198 -21.158984
-35.03906 -48.987825 -20.348019
-35.954162 -47.151862 -22.596706
-35.518076 -48.066671 -21.484909
-33.827118 -54.789289 -31.051209
-33.410141 -55.909244 -29.901613
-34.048256 -54.317823 -30.189559
-34.225714 -53.57271 -32.255206
-33.827118 -54.789289 -31.051209
-28.982532 -62.216143 -14.420264
-28.401073 -63.482458 -14.088778
-29.558512 -60.898438 -14.652071
-29.50327 -61.524149 -15.618115
-28.982532 -62.216143 -14.420264
-36.597915 -47.057654 -29.341949
-36.706375 -46.58466 -28.498241
-27.912422 -67.570865 -22.311303
-27.394081 -68.437024 -21.137298
-28.592344 -66.153489 -22.424865
-28.389698 -66.769001 -23.415636
-27.912422 -67.570865 -22.311303
-32.962214 -52.589527 -15.555401
-32.501124 -53.258919 -14.345945
-36.860489 -45.358561 -25.820881
-36.889155 -44.984976 -24.952639
-36.236025 -48.252892 -32.006225
-35.842739 -49.453537 -30.891793
-36.378916 -47.858291 -31.067117
-35.548925 -49.448742 -34.871967
-35.83278 -49.030039 -33.932394
-34.907167 -51.151211 -34.631786
-35.548925 -49.448742 -34.871967
-26.89208 -69.201333 -19.980231
-26.426208 -69.859238 -18.728308
-27.613067 -67.719662 -20.163466
-27.394081 -68.437024 -21.137298
-26.89208 -69.201333 -19.980231
-30.315108 -57.285706 -11.187594
-29.772171 -58.475448 -10.906739
-30.863733 -56.527681 -12.514366
-30.315108 -57.285706 -11.187594
-30.885333 -56.052412 -11.593602
-33.997755 -50.895584 -17.960991
-33.47043 -51.808296 -16.757962
-33.972158 -51.338406 -18.794837
-33.997755 -50.895584 -17.960991
-34.528087 -49.980312 -19.188247
-36.438419 -46.08165 -23.772215
-35.944778 -47.510615 -23.471383
-35.954162 -47.151862 -22.596706
-36.889155 -44.984976 -24.952639
-36.438419 -46.08165 -23.772215
-31.197302 -61.044782 -27.323317
-30.475431 -62.626381 -27.126502
-30.766179 -61.961225 -26.117432
-31.594791 -60.184584 -28.427729
-31.197302 -61.044782 -27.323317
-31.885539 -59.519428 -27.418659
-32.065109 -59.039096 -29.541251
-31.594791 -60.184584 -28.427729
-32.736016 -57.51997 -29.643168
-32.957154 -57.048504 -28.781517
-33.410141 -55.909244 -29.901613
-32.065109 -59.039096 -29.541251
-32.736016 -57.51997 -29.643168
-26.972231 -67.567962 -15.665812
-26.833426 -68.29298 -16.718553
-27.589836 -66.221478 -15.865617
-26.972231 -67.567962 -15.665812
-28.209999 -64.857048 -16.031403
-28.118284 -65.53825 -17.122069
-27.589836 -66.221478 -15.865617
-28.30442 -64.191065 -15.08063
-28.401073 -63.482458 -14.088778
-28.832869 -63.507837 -16.337081
-28.209999 -64.857048 -16.031403
-28.30442 -64.191065 -15.08063
-29.758184 -64.141709 -26.859647
-30.475431 -62.626381 -27.126502
-36.494791 -47.488243 -30.235622
-36.088755 -48.628348 -29.059013
-36.597915 -47.057654 -29.341949
-36.378916 -47.858291 -31.067117
-36.494791 -47.488243 -30.235622
-28.797274 -66.032555 -24.554202
-28.389698 -66.769001 -23.415636
-29.556964 -64.447224 -24.724908
-29.284618 -65.128155 -25.749912
-28.797274 -66.032555 -24.554202
-27.304593 -67.693325 -17.981341
-26.639898 -69.083626 -17.743612
-26.833426 -68.29298 -16.718553
-29.697739 -59.087572 -11.792185
-29.772171 -58.475448 -10.906739
-29.636461 -59.69834 -12.699003
-29.697739 -59.087572 -11.792185
-30.23223 -58.371742 -13.015177
-29.604363 -60.286471 -13.688108
-29.636461 -59.69834 -12.699003
-30.125101 -59.594477 -14.885959
-29.558512 -60.898438 -14.652071
-29.604363 -60.286471 -13.688108
-32.005406 -53.998043 -13.224901
-31.456414 -54.859201 -12.020812
-31.929675 -54.555263 -14.041417
-32.005406 -53.998043 -13.224901
-32.501124 -53.258919 -14.345945
-32.933609 -53.034908 -16.36502
-32.962214 -52.589527 -15.555401
-33.47043 -51.808296 -16.757962
-36.783657 -46.142555 -27.671757
-36.706375 -46.58466 -28.498241
-36.269161 -47.755654 -27.338856
-36.819193 -45.795134 -26.753622
-36.387739 -46.876976 -25.579632
-36.860489 -45.358561 -25.820881
-36.783657 -46.142555 -27.671757
-36.819193 -45.795134 -26.753622
-36.057646 -48.62138 -32.967621
-36.236025 -48.252892 -32.006225
-35.474983 -50.256796 -32.795672
-36.057646 -48.62138 -32.967621
-35.83278 -49.030039 -33.932394
-34.618156 -52.306504 -33.465851
-34.225714 -53.57271 -32.255206
-34.857675 -51.931662 -32.5498
-34.618156 -52.306504 -33.465851
-34.907167 -51.151211 -34.631786
3 0 14 12
3 1 53 54
3 55 15 56
3 2 18 16
3 2 20 18
3 57 22 58
3 59 24 60
3 61 26 62
3 63 62 24
3 61 62 63
3 65 64 26
3 3 29 28
3 4 66 68
3 68 67 13
3 66 67 68
3 4 69 70
3 71 31 72
3 73 32 74
3 75 74 31
3 73 74 75
3 77 76 33
3 6 78 79
3 6 80 82
3 80 35 81
3 80 81 82
3 5 36 30
3 7 37 17
3 7 38 37
3 7 39 38
3 8 40 19
3 8 41 40
3 9 42 21
3 9 43 42
3 83 44 84
3 10 45 23
3 10 46 45
3 10 47 46
3 11 48 25
3 11 49 48
3 11 50 49
3 86 85 27
3 87 51 88
3 89 88 34
3 87 88 89
3 90 52 91
3 93 92 52
3 12 13 3
3 14 13 12
3 14 4 13
3 15 94 95
3 15 96 98
3 96 6 97
3 96 97 98
3 16 17 5
3 18 17 16
3 18 7 17
3 18 19 7
3 20 19 18
3 20 8 19
3 99 21 100
3 22 101 103
3 101 21 102
3 101 102 103
3 22 9 21
3 104 23 105
3 24 106 108
3 106 23 107
3 106 107 108
3 24 10 23
3 24 25 10
3 26 25 24
3 26 11 25
3 26 27 11
3 109 27 110
3 111 110 26
3 109 110 111
3 113 112 27
3 28 114 116
3 116 115 1
3 114 115 116
3 29 117 119
3 119 118 28
3 117 118 119
3 29 120 121
3 13 29 3
3 122 29 123
3 124 123 13
3 122 123 124
3 126 125 29
3 127 30 128
3 129 30 130
3 131 5 132
3 133 132 30
3 131 132 133
3 31 134 135
3 31 136 138
3 136 5 137
3 136 137 138
3 31 16 5
3 32 16 31
3 32 2 16
3 140 139 1
3 33 34 0
3 141 34 142
3 143 142 33
3 141 142 143
3 145 144 34
3 35 146 147
3 35 148 150
3 148 1 149
3 148 149 150
3 30 151 153
3 151 15 152
3 151 152 153
3 36 15 30
3 36 6 15
3 17 36 5
3 37 36 17
3 37 6 36
3 37 35 6
3 38 35 37
3 38 1 35
3 38 28 1
3 39 28 38
3 39 3 28
3 19 39 7
3 40 39 19
3 40 3 39
3 40 12 3
3 41 12 40
3 41 0 12
3 21 154 155
3 42 156 158
3 158 157 21
3 156 157 158
3 42 159 160
3 42 161 163
3 161 32 162
3 161 162 163
3 43 32 42
3 43 2 32
3 164 22 165
3 44 166 168
3 166 22 167
3 166 167 168
3 44 9 22
3 23 169 171
3 169 44 170
3 169 170 171
3 45 44 23
3 45 9 44
3 45 43 9
3 46 43 45
3 46 2 43
3 46 20 2
3 47 20 46
3 47 8 20
3 25 47 10
3 48 47 25
3 48 8 47
3 48 41 8
3 49 41 48
3 49 0 41
3 49 33 0
3 50 33 49
3 50 172 174
3 174 173 33
3 172 173 174
3 27 50 11
3 175 50 176
3 177 176 27
3 175 176 177
3 179 178 50
3 34 14 0
3 51 14 34
3 51 4 14
3 180 51 181
3 52 182 184
3 182 51 183
3 182 183 184
3 52 4 51
3 52 185 187
3 187 186 4
3 185 186 187
3 189 188 52
