ply
format ascii 1.0
element vertex 192
property float x
property float y
property float z
element face 181
property list uchar int vertex_index
end_header
6.071878 88.000343 -44.613766
16.534964 90.682693 -45.302849
9.787875 83.392479 -47.374176
18.371193 96.243958 -41.549103
19.665134 84.51371 -47.581322
2.232996 91.40303 -41.03204
7.675148 93.81398 -41.953545
13.173433 95.469955 -42.175282
11.458139 89.683609 -45.356598
14.863297 84.293373 -47.86274
3.534416 86.81102 -44.062176
5.417623 84.93959 -45.557938
7.283359 82.55114 -46.939156
8.041951 85.97612 -46.078285
-0.423398 89.877251 -40.333939
0.176132 92.401253 -39.035789
5.666492 95.322441 -39.948814
17.525867 93.456894 -43.662441
15.826352 95.955452 -42.00098
14.976637 93.271469 -43.837879
12.161475 92.686913 -43.87851
14.131002 90.339096 -45.409489
13.359569 87.361961 -46.644241
15.862379 87.555275 -46.729485
20.985474 80.997055 -48.367168
18.672007 81.405151 -48.631306
11.443811 80.602898 -48.455406
19.211565 98.592033 -39.262142
20.720018 96.258957 -40.888069
19.911621 93.578156 -43.147858
19.037836 90.897644 -44.94384
18.320171 87.911064 -46.470192
20.551247 87.84404 -46.120361
1.655059 88.654442 -42.267807
4.238458 89.870667 -42.945858
2.860618 93.976059 -39.542622
4.922545 92.819748 -41.498955
6.675768 91.000839 -43.347797
16.660528 98.478241 -39.803806
10.404963 94.89267 -42.03965
9.530905 91.943611 -43.728783
8.603617 89.106705 -44.950279
10.639567 86.651993 -46.476181
12.465988 84.109276 -47.665737
13.777616 80.999077 -48.697304
17.237043 84.722961 -47.757648
16.353613 81.368675 -48.748978
-0.654705 92.915932 -37.953075
-1.063214 91.704445 -38.614645
-1.894051 92.219124 -37.531931
21.101286 77.599556 -49.097351
20.49755 79.391091 -48.827468
21.58921 79.205521 -48.637051
9.387794 81.663296 -47.726785
8.135536 81.242627 -47.509276
8.535617 82.97181 -47.156666
10.615843 81.997688 -47.914791
10.215762 80.268506 -48.267401
9.387794 81.663296 -47.726785
21.774589 96.00169 -40.573187
21.024986 97.377499 -39.703501
20.694356 92.073723 -43.821281
21.055772 93.455292 -42.813073
21.838507 91.950859 -43.486496
20.257464 90.733467 -44.719273
19.474728 92.2379 -44.045849
20.694356 92.073723 -43.821281
21.014169 89.206665 -45.307533
19.794542 89.370842 -45.5321
20.257464 90.733467 -44.719273
3.341929 95.269142 -38.654803
1.932159 94.503578 -38.44496
13.618415 96.802853 -41.117086
14.944875 97.045601 -41.029936
14.499892 95.712704 -42.088131
12.260541 96.367363 -41.27014
13.618415 96.802853 -41.117086
11.789198 95.181312 -42.107466
10.876306 96.078721 -41.202324
12.260541 96.367363 -41.27014
17.011979 79.708435 -49.108849
17.51281 81.386913 -48.690142
18.171176 79.726673 -49.050013
15.791832 79.568878 -49.133385
17.011979 79.708435 -49.108849
3.207374 85.269954 -44.474564
2.31354 86.202373 -43.694696
4.148978 84.334239 -45.222445
3.207374 85.269954 -44.474564
4.476019 85.875305 -44.810057
5.027636 83.31158 -45.897513
4.148978 84.334239 -45.222445
6.350491 83.745365 -46.248547
5.960504 82.117356 -46.588121
5.027636 83.31158 -45.897513
-1.362979 90.442444 -39.26372
-1.574748 89.116967 -39.95085
-0.123633 91.139252 -39.684864
-1.362979 90.442444 -39.26372
-1.063214 91.704445 -38.614645
6.097518 96.471405 -39.08424
4.744866 95.942333 -38.857899
7.116303 95.944812 -40.034294
6.097518 96.471405 -39.08424
8.120631 95.190582 -41.036659
6.67082 94.56821 -40.951179
7.116303 95.944812 -40.034294
19.340817 79.595139 -48.959537
19.828741 81.201103 -48.499237
20.49755 79.391091 -48.827468
18.839986 77.916661 -49.378244
18.171176 79.726673 -49.050013
19.340817 79.595139 -48.959537
6.862995 80.92112 -47.206243
5.960504 82.117356 -46.588121
6.862995 80.92112 -47.206243
8.135536 81.242627 -47.509276
10.921615 78.801796 -48.735928
10.215762 80.268506 -48.267401
12.142256 79.006592 -48.9095
10.921615 78.801796 -48.735928
20.27076 98.544037 -38.890537
19.470453 99.691421 -37.951889
20.529648 99.643425 -37.580284
19.965792 97.425495 -40.075105
20.27076 98.544037 -38.890537
21.024986 97.377499 -39.703501
21.459971 94.795693 -41.683178
21.774589 96.00169 -40.573187
20.315819 94.918556 -42.017964
21.459971 94.795693 -41.683178
21.055772 93.455292 -42.813073
21.680515 87.728791 -45.801949
21.014169 89.206665 -45.307533
21.25312 86.196453 -46.574318
21.680515 87.728791 -45.801949
20.810063 84.531288 -47.304799
20.10819 86.178875 -46.850842
21.25312 86.196453 -46.574318
21.470233 82.772961 -47.697722
20.325304 82.755382 -47.974245
20.810063 84.531288 -47.304799
22.046501 80.843113 -48.104033
21.470233 82.772961 -47.697722
21.58921 79.205521 -48.637051
22.046501 80.843113 -48.104033
-0.646738 88.463959 -40.940413
-1.798088 87.703675 -40.557323
-1.574748 89.116967 -39.95085
0.392491 87.852554 -41.907347
-0.646738 88.463959 -40.940413
0.615831 89.265847 -41.300873
1.373862 87.124085 -42.797512
0.392491 87.852554 -41.907347
2.594737 87.732731 -43.164991
2.31354 86.202373 -43.694696
1.373862 87.124085 -42.797512
0.589916 93.716175 -38.191544
-0.654705 92.915932 -37.953075
-0.240921 94.230854 -37.108829
1.518375 93.188656 -39.289206
0.589916 93.716175 -38.191544
1.932159 94.503578 -38.44496
4.263555 94.64925 -39.745718
3.341929 95.269142 -38.654803
4.744866 95.942333 -38.857899
18.326211 99.650398 -38.30292
19.470453 99.691421 -37.951889
17.050693 99.593502 -38.573752
18.326211 99.650398 -38.30292
17.936046 98.535137 -39.532974
15.79445 99.379673 -38.868296
16.184615 100.494934 -37.638241
17.050693 99.593502 -38.573752
15.361963 98.306995 -39.931348
16.24344 97.216847 -40.902393
14.944875 97.045601 -41.029936
15.79445 99.379673 -38.868296
15.361963 98.306995 -39.931348
9.485539 95.729927 -41.079712
10.876306 96.078721 -41.202324
9.040056 94.353325 -41.996598
8.120631 95.190582 -41.036659
9.485539 95.729927 -41.079712
13.309158 79.204681 -49.030449
12.142256 79.006592 -48.9095
12.610713 80.800987 -48.576355
14.503833 79.384079 -49.107548
15.065614 81.183876 -48.723141
15.791832 79.568878 -49.133385
13.309158 79.204681 -49.030449
14.503833 79.384079 -49.107548
3 0 11 10
3 0 13 11
3 47 15 48
3 47 48 49
3 1 19 17
3 1 21 19
3 1 23 21
3 52 51 24
3 50 51 52
3 2 53 55
3 55 54 12
3 53 54 55
3 2 56 58
3 56 26 57
3 56 57 58
3 59 28 60
3 61 29 62
3 61 62 63
3 64 30 65
3 66 65 29
3 64 65 66
3 67 32 68
3 69 68 30
3 67 68 69
3 5 33 14
3 5 34 33
3 70 35 71
3 6 36 16
3 6 37 36
3 3 38 27
3 7 72 74
3 74 73 18
3 72 73 74
3 7 75 76
3 7 77 79
3 77 39 78
3 77 78 79
3 8 40 20
3 8 41 40
3 8 42 41
3 9 43 22
3 9 44 43
3 4 45 31
3 80 46 81
3 82 81 25
3 80 81 82
3 84 83 46
3 10 85 86
3 11 87 89
3 89 88 10
3 87 88 89
3 11 90 91
3 11 92 94
3 92 12 93
3 92 93 94
3 13 12 11
3 13 2 12
3 95 14 96
3 15 97 99
3 97 14 98
3 97 98 99
3 15 5 14
3 100 16 101
3 102 16 103
3 104 6 105
3 106 105 16
3 104 105 106
3 17 18 3
3 19 18 17
3 19 7 18
3 19 20 7
3 21 20 19
3 21 8 20
3 21 22 8
3 23 22 21
3 23 9 22
3 24 25 4
3 107 25 108
3 109 108 24
3 107 108 109
3 112 111 25
3 110 111 112
3 12 113 114
3 116 115 12
3 26 117 118
3 26 119 120
3 121 27 122
3 121 122 123
3 28 124 126
3 124 27 125
3 124 125 126
3 28 3 27
3 127 28 128
3 29 129 131
3 129 28 130
3 129 130 131
3 29 3 28
3 29 17 3
3 30 17 29
3 30 1 17
3 30 31 1
3 32 31 30
3 32 4 31
3 132 32 133
3 134 32 135
3 136 4 137
3 138 137 32
3 136 137 138
3 139 24 140
3 141 140 4
3 139 140 141
3 142 24 143
3 145 144 24
3 14 146 148
3 146 147 148
3 33 149 151
3 151 150 14
3 149 150 151
3 33 152 153
3 33 154 156
3 154 10 155
3 154 155 156
3 34 10 33
3 34 0 10
3 157 15 158
3 157 158 159
3 35 160 162
3 160 15 161
3 160 161 162
3 35 5 15
3 16 163 165
3 163 35 164
3 163 164 165
3 36 35 16
3 36 5 35
3 36 34 5
3 37 34 36
3 37 0 34
3 27 166 167
3 38 168 170
3 170 169 27
3 168 169 170
3 38 171 173
3 171 172 173
3 18 38 3
3 174 38 175
3 176 175 18
3 174 175 176
3 178 177 38
3 39 179 180
3 39 181 183
3 181 6 182
3 181 182 183
3 20 39 7
3 40 39 20
3 40 6 39
3 40 37 6
3 41 37 40
3 41 0 37
3 41 13 0
3 42 13 41
3 42 2 13
3 22 42 8
3 43 42 22
3 43 2 42
3 43 26 2
3 44 26 43
3 44 184 186
3 186 185 26
3 184 185 186
3 31 23 1
3 45 23 31
3 45 9 23
3 25 45 4
3 46 45 25
3 46 9 45
3 46 44 9
3 187 44 188
3 189 188 46
3 187 188 189
3 191 190 44
