ply
format ascii 1.0
element vertex 216
property float x
property float y
property float z
element face 200
property list uchar int vertex_index
end_header
11.13856 60.794109 27.928234
9.640492 51.981979 36.104591
0.043891 59.379417 39.296467
0.977802 64.63871 35.303284
3.585368 58.496078 37.335484
7.248049 57.525135 34.905457
6.282763 52.775482 38.682827
13.288664 55.283989 28.989338
13.818754 59.17453 24.915638
7.969782 62.232349 30.847391
10.345449 56.417439 32.306252
12.647458 50.984779 33.203598
12.049823 46.320259 37.007191
15.046732 45.4566 33.668957
1.814823 59.050095 38.275482
3.173221 55.901985 39.194542
4.986129 55.704956 37.978622
4.620506 53.005905 39.817142
8.442872 54.737892 35.561707
8.884858 56.978691 33.606014
10.026667 54.071087 34.319233
11.446793 53.790157 32.794846
11.224832 51.502258 34.657021
13.273825 43.508499 37.268364
13.547051 45.922371 35.448135
14.763262 43.361774 35.457031
-0.817108 64.84304 36.464054
0.584199 61.955715 37.343876
2.404748 61.529709 36.296314
4.088666 61.086746 35.288773
5.864047 60.633701 34.092121
5.433973 58.130749 36.117096
6.821411 55.186333 36.79314
8.058584 52.14901 37.539295
12.161753 57.876724 28.707989
12.496318 59.90617 26.566629
13.55574 57.181293 27.015272
9.59185 61.50301 29.469809
7.558249 59.827915 33.026428
9.132602 59.296848 31.68132
10.640636 58.76812 30.187794
11.843157 55.789501 30.786556
13.041798 53.041462 31.122534
14.193273 50.222996 31.49765
5.78974 49.952286 40.635483
7.554616 49.82338 39.324047
9.30605 49.549759 37.92207
10.529931 46.587906 38.451008
10.876238 49.154583 36.56461
12.429284 48.637321 35.095684
13.955415 48.126827 33.401493
16.2272 42.787987 33.67741
2.973073 54.598641 40.068531
2.251083 56.147169 39.684719
3.696715 53.1506 40.379831
3.896863 54.453945 39.505842
2.973073 54.598641 40.068531
11.293641 61.856645 26.854102
10.561457 62.271589 27.570805
13.92724 42.181579 37.2304
13.080839 42.38438 38.11486
14.671959 42.108217 36.324734
14.018543 43.435136 36.362697
13.92724 42.181579 37.2304
-0.891215 59.448057 39.878735
-0.159606 57.86766 40.297985
-0.652648 60.821479 38.893832
-0.891215 59.448057 39.878735
0.314045 60.667566 38.320172
-0.382494 62.109628 37.917536
-0.652648 60.821479 38.893832
0.319691 66.102703 34.770808
-0.577763 66.204868 35.351192
0.080347 64.740875 35.883669
8.253277 63.205717 29.779749
7.388975 63.700956 30.36518
8.780816 61.86768 30.1586
9.064311 62.841048 29.090958
8.253277 63.205717 29.779749
13.33488 60.524817 24.651189
12.673662 60.890636 25.476684
13.157536 59.54035 25.741134
5.573338 48.709319 41.438225
4.924844 50.204363 41.114055
8.227502 48.44035 39.515165
7.335571 48.535967 40.195791
9.10322 48.303539 38.814177
8.430333 49.68657 38.623058
8.227502 48.44035 39.515165
11.289877 46.454082 37.7291
11.104286 45.205923 38.649996
11.864232 45.0721 37.928088
15.177839 46.491562 32.711556
14.63218 47.826676 32.577824
14.501074 46.791714 33.535225
16.812298 41.498368 33.594723
16.098409 41.660826 34.589903
0.686418 57.885885 39.735681
-0.159606 57.86766 40.297985
1.571884 57.721224 39.225189
0.929357 59.214756 38.785974
0.686418 57.885885 39.735681
2.494022 57.47604 38.735012
1.571884 57.721224 39.225189
2.251083 56.147169 39.684719
13.970319 54.84494 28.169325
13.832896 53.811369 29.262172
1.25501 65.828343 34.262586
1.895817 64.376538 34.782051
7.196672 62.540501 31.42761
7.388975 63.700956 30.36518
14.009891 60.146347 23.76399
14.480622 58.71146 24.051707
12.476233 43.666219 38.058674
13.080839 42.38438 38.11486
12.661824 44.914379 37.137777
11.864232 45.0721 37.928088
12.476233 43.666219 38.058674
-1.083147 63.553291 37.477625
-1.807212 65.097984 36.984131
-0.116454 63.399377 36.903965
-1.083147 63.553291 37.477625
-0.382494 62.109628 37.917536
2.60929 62.822037 35.278566
1.895817 64.376538 34.782051
1.691275 63.08421 35.799799
3.451249 62.600555 34.774795
2.60929 62.822037 35.278566
3.246707 61.308228 35.792544
4.364162 62.280195 34.245377
3.451249 62.600555 34.774795
4.976356 60.860224 34.690447
5.251853 62.053673 33.647051
4.364162 62.280195 34.245377
14.103856 55.793592 27.182292
13.422202 56.232641 28.002305
13.970319 54.84494 28.169325
14.173815 56.845163 26.172498
14.103856 55.793592 27.182292
14.305322 57.841781 25.122681
13.687247 58.177911 25.965455
14.173815 56.845163 26.172498
14.480622 58.71146 24.051707
14.305322 57.841781 25.122681
-1.5073 66.408157 35.87606
-2.497405 66.663101 36.396137
-1.807212 65.097984 36.984131
-1.5073 66.408157 35.87606
-0.577763 66.204868 35.351192
0.319691 66.102703 34.770808
1.25501 65.828343 34.262586
9.788101 62.62604 28.341593
9.064311 62.841048 29.090958
10.365205 61.14856 28.699022
10.561457 62.271589 27.570805
9.788101 62.62604 28.341593
6.143804 61.741177 33.049975
5.251853 62.053673 33.647051
6.990905 61.338284 32.517128
6.143804 61.741177 33.049975
6.711148 60.230808 33.559275
7.764016 61.030132 31.936909
7.196672 62.540501 31.42761
6.990905 61.338284 32.517128
13.709463 52.690106 30.328771
13.832896 53.811369 29.262172
13.165231 54.162726 30.055936
14.285201 51.280873 30.516329
13.709463 52.690106 30.328771
13.617535 51.632229 31.310092
14.869395 49.911894 30.60134
14.285201 51.280873 30.516329
11.97252 61.412676 26.173299
11.293641 61.856645 26.854102
11.817439 60.350139 27.247431
11.97252 61.412676 26.173299
12.673662 60.890636 25.476684
13.526017 61.496634 23.499541
13.33488 60.524817 24.651189
14.009891 60.146347 23.76399
4.340227 51.731172 40.704885
3.696715 53.1506 40.379831
5.205123 51.479095 40.226312
4.340227 51.731172 40.704885
4.924844 50.204363 41.114055
6.453133 48.60042 40.851509
5.573338 48.709319 41.438225
6.672178 49.887833 39.979765
6.453133 48.60042 40.851509
7.335571 48.535967 40.195791
10.283548 45.350021 39.362383
11.104286 45.205923 38.649996
9.71516 46.822613 39.078646
10.283548 45.350021 39.362383
9.917991 48.068832 38.186539
9.10322 48.303539 38.814177
9.71516 46.822613 39.078646
14.751109 48.87476 31.625902
14.074344 49.174912 32.449572
14.63218 47.826676 32.577824
14.869395 49.911894 30.60134
14.751109 48.87476 31.625902
15.36644 41.947719 35.479714
14.671959 42.108217 36.324734
15.495231 43.07488 34.567221
15.36644 41.947719 35.479714
16.098409 41.660826 34.589903
16.951535 42.575121 32.612397
16.812298 41.498368 33.594723
16.308938 43.881063 32.769594
16.951535 42.575121 32.612397
15.718704 45.21537 32.765367
15.636966 44.122293 33.673184
16.308938 43.881063 32.769594
15.177839 46.491562 32.711556
15.718704 45.21537 32.765367
3 52 15 53
3 54 17 55
3 56 55 15
3 54 55 56
3 1 20 18
3 1 22 20
3 0 57 58
3 59 23 60
3 61 25 62
3 63 62 23
3 61 62 63
3 2 64 65
3 2 66 67
3 2 68 70
3 68 27 69
3 68 69 70
3 4 28 14
3 4 29 28
3 4 31 29
3 6 32 16
3 6 33 32
3 7 36 34
3 3 71 73
3 73 72 26
3 71 72 73
3 9 74 75
3 9 76 78
3 76 37 77
3 76 77 78
3 5 38 30
3 10 39 19
3 10 40 39
3 10 41 40
3 11 42 21
3 11 43 42
3 8 79 81
3 81 80 35
3 79 80 81
3 82 44 83
3 84 45 85
3 86 46 87
3 88 87 45
3 86 87 88
3 12 89 91
3 89 47 90
3 89 90 91
3 12 48 47
3 12 49 48
3 13 50 24
3 13 92 94
3 94 93 50
3 92 93 94
3 95 51 96
3 97 2 98
3 99 14 100
3 101 100 2
3 99 100 101
3 15 102 104
3 102 14 103
3 102 103 104
3 15 4 14
3 15 16 4
3 17 16 15
3 17 6 16
3 106 105 7
3 108 107 3
3 109 9 110
3 18 19 5
3 20 19 18
3 20 10 19
3 20 21 10
3 22 21 20
3 22 11 21
3 112 111 8
3 23 113 114
3 23 115 117
3 115 12 116
3 115 116 117
3 23 24 12
3 25 24 23
3 25 13 24
3 118 26 119
3 27 120 122
3 120 26 121
3 120 121 122
3 27 3 26
3 14 27 2
3 28 27 14
3 28 3 27
3 28 123 125
3 125 124 3
3 123 124 125
3 29 126 128
3 128 127 28
3 126 127 128
3 29 129 130
3 29 131 133
3 131 30 132
3 131 132 133
3 31 30 29
3 31 5 30
3 16 31 4
3 32 31 16
3 32 5 31
3 32 18 5
3 33 18 32
3 33 1 18
3 34 35 0
3 36 35 34
3 36 8 35
3 134 36 135
3 136 135 7
3 134 135 136
3 137 36 138
3 139 8 140
3 141 140 36
3 139 140 141
3 143 142 8
3 26 144 146
3 144 145 146
3 148 147 26
3 150 149 3
3 37 151 152
3 37 153 155
3 153 0 154
3 153 154 155
3 30 156 157
3 38 158 160
3 160 159 30
3 158 159 160
3 38 161 163
3 161 9 162
3 161 162 163
3 19 38 5
3 39 38 19
3 39 9 38
3 39 37 9
3 40 37 39
3 40 0 37
3 40 34 0
3 41 34 40
3 41 7 34
3 21 41 10
3 42 41 21
3 42 7 41
3 42 164 166
3 166 165 7
3 164 165 166
3 43 167 169
3 169 168 42
3 167 168 169
3 43 170 171
3 35 172 174
3 174 173 0
3 172 173 174
3 176 175 35
3 179 178 8
3 177 178 179
3 180 17 181
3 44 182 184
3 182 17 183
3 182 183 184
3 44 6 17
3 185 44 186
3 45 187 189
3 187 44 188
3 187 188 189
3 45 6 44
3 45 33 6
3 46 33 45
3 46 1 33
3 47 190 191
3 47 192 193
3 47 194 196
3 194 46 195
3 194 195 196
3 48 46 47
3 48 1 46
3 48 22 1
3 49 22 48
3 49 11 22
3 24 49 12
3 50 49 24
3 50 11 49
3 50 43 11
3 197 43 198
3 199 198 50
3 197 198 199
3 201 200 43
3 202 25 203
3 51 204 206
3 204 25 205
3 204 205 206
3 51 13 25
3 207 51 208
3 209 51 210
3 211 13 212
3 213 212 51
3 211 212 213
3 215 214 13
