ply
format ascii 1.0
element vertex 213
property float x
property float y
property float z
element face 191
property list uchar int vertex_index
end_header
25.823698 54.93568 -2.441801
25.505648 57.589821 -6.076673
25.29887 53.709343 -8.520334
26.376532 51.378014 -5.463036
25.842941 51.926197 1.16939
24.718067 60.80286 -3.03244
23.175997 63.549538 0.362579
24.440023 57.893322 0.902806
23.973482 54.639217 4.943289
23.84799 55.637146 -11.456809
25.733603 56.20327 -4.331831
25.933788 54.456272 -5.802798
26.215628 53.331757 -4.092022
25.75794 50.542355 2.933995
22.860447 62.008644 2.52011
23.782919 60.824291 0.675362
23.560894 59.037178 2.768548
24.256138 56.173096 2.895938
23.213331 57.409275 4.956363
22.652393 54.298683 8.803704
25.624657 50.511749 -7.989911
24.853962 51.222992 -9.371945
22.164471 54.113285 -13.334833
25.170849 58.918949 -7.917707
25.017904 56.92128 -9.05599
25.541145 55.70171 -7.372662
25.88072 52.512695 -7.047668
25.907213 53.351974 -0.747345
26.445721 51.878365 -2.456095
26.563311 50.461506 -0.655454
25.068977 60.671001 -6.629877
25.217356 59.31554 -4.6238
25.280773 57.793556 -2.707179
23.383797 65.244812 -1.840881
24.019148 62.354603 -1.482679
24.580065 59.489479 -1.038467
25.201517 56.475124 -0.761632
25.178875 54.721115 1.029742
24.961784 53.310257 3.044455
24.77495 51.813755 4.952556
22.878527 55.92963 6.947329
23.761009 53.094528 6.795432
23.104712 53.379608 -12.06764
24.643721 54.490063 -9.946038
24.046196 52.396137 -10.687588
26.766167 50.195015 -3.817081
26.186876 49.155293 2.87161
25.703381 49.808222 3.879523
22.700485 61.139253 3.598118
22.358144 62.58469 3.427766
23.050708 59.65352 3.722337
23.21067 60.522911 2.644329
22.700485 61.139253 3.598118
22.876926 58.839569 4.816244
23.387113 58.223226 3.862455
23.050708 59.65352 3.722337
25.329408 49.287611 -8.454987
25.740156 48.801502 -7.859811
22.132714 55.8561 -13.847112
21.722946 54.495339 -13.930405
26.314024 50.350178 -6.084869
26.066118 50.917518 -6.877185
26.128626 51.945355 -6.255352
24.823567 62.254095 -6.867194
24.927566 61.319465 -7.580004
24.967712 60.0592 -3.82812
24.96199 60.814004 -4.815457
24.712346 61.557665 -4.019777
22.812844 65.0635 0.163854
22.653108 64.208675 1.335993
23.279897 64.397175 -0.739151
22.916745 65.911136 -0.937875
22.812844 65.0635 0.163854
22.317068 56.494291 7.964671
22.482169 57.344328 6.93548
21.92071 57.908989 7.952822
23.604455 52.35382 7.855314
23.206701 53.696605 7.799568
23.050147 52.955898 8.85945
24.176256 51.729625 6.805157
23.604455 52.35382 7.855314
23.412357 56.16628 -12.20702
23.754445 57.220236 -11.866928
23.476351 54.508377 -11.762225
23.040717 55.037511 -12.512436
23.412357 56.16628 -12.20702
24.087651 50.707033 -10.403363
24.450079 51.809565 -10.029767
24.491535 50.120461 -9.745541
23.623819 51.307209 -11.003405
24.087651 50.707033 -10.403363
26.925651 49.4781 -3.025142
26.605944 51.03669 -3.136588
26.765428 50.319775 -2.344648
26.196773 49.800345 1.974215
26.239274 50.492266 1.091913
25.800441 51.234276 2.051692
26.196773 49.800345 1.974215
26.186876 49.155293 2.87161
24.419581 62.345768 -3.251396
24.712346 61.557665 -4.019777
22.495333 63.438228 2.414759
22.358144 62.58469 3.427766
23.018222 62.779091 1.441345
22.653108 64.208675 1.335993
22.495333 63.438228 2.414759
22.058689 54.858949 9.887117
22.204002 55.678817 8.892858
22.474196 53.502466 9.930194
22.058689 54.858949 9.887117
21.880491 54.062732 11.013607
23.050147 52.955898 8.85945
22.474196 53.502466 9.930194
24.126991 56.701861 -11.055311
23.754445 57.220236 -11.866928
24.94406 49.643232 -9.146004
25.239309 50.86737 -8.680928
25.329408 49.287611 -8.454987
24.491535 50.120461 -9.745541
24.94406 49.643232 -9.146004
21.68467 52.799885 -13.462448
21.243145 53.181939 -14.058021
21.722946 54.495339 -13.930405
22.172449 52.433922 -12.896242
21.68467 52.799885 -13.462448
25.094377 57.920114 -8.486849
24.880835 58.409329 -9.345513
24.957308 59.408163 -8.776372
25.938086 49.917046 -7.348307
25.752688 51.512222 -7.51879
26.066118 50.917518 -6.877185
25.740156 48.801502 -7.859811
25.938086 49.917046 -7.348307
26.824223 49.611345 -1.444328
26.765428 50.319775 -2.344648
26.504516 51.169936 -1.555775
26.599459 49.75992 0.179491
26.203126 51.193852 0.256968
26.239274 50.492266 1.091913
26.945884 48.930008 -0.690204
26.599459 49.75992 0.179491
26.824223 49.611345 -1.444328
26.945884 48.930008 -0.690204
24.978502 60.443439 -8.22392
24.957308 59.408163 -8.776372
24.764961 60.932654 -9.082584
25.119913 59.794975 -7.273792
24.978502 60.443439 -8.22392
24.927566 61.319465 -7.580004
24.887801 61.491735 -5.818495
24.823567 62.254095 -6.867194
25.143166 59.99327 -5.626838
24.887801 61.491735 -5.818495
24.96199 60.814004 -4.815457
23.055098 66.653358 -2.092771
22.916745 65.911136 -0.937875
23.442448 66.072689 -2.955154
23.113748 67.481235 -3.207044
23.055098 66.653358 -2.092771
23.752447 64.566744 -2.655616
23.442448 66.072689 -2.955154
24.070122 63.12164 -2.476516
23.752447 64.566744 -2.655616
23.701473 63.799707 -1.66178
24.368608 61.578732 -2.25756
24.419581 62.345768 -3.251396
24.070122 63.12164 -2.476516
25.211886 50.443922 4.888803
25.703381 49.808222 3.879523
25.266445 51.178055 3.943276
22.64957 58.08415 5.939997
22.876926 58.839569 4.816244
23.045929 56.669453 5.951846
22.64957 58.08415 5.939997
22.482169 57.344328 6.93548
22.76546 55.114156 7.875516
22.317068 56.494291 7.964671
22.204002 55.678817 8.892858
24.683226 51.089239 5.883719
24.26798 52.454141 5.873994
24.176256 51.729625 6.805157
25.211886 50.443922 4.888803
24.683226 51.089239 5.883719
22.570597 55.40435 -13.146033
22.132714 55.8561 -13.847112
22.634591 53.746446 -12.701237
22.570597 55.40435 -13.146033
23.040717 55.037511 -12.512436
22.642569 52.067083 -12.262646
22.172449 52.433922 -12.896242
22.634591 53.746446 -12.701237
24.711948 57.343928 -9.854902
24.880835 58.409329 -9.345513
24.524857 56.128319 -10.299926
24.711948 57.343928 -9.854902
24.830813 55.705672 -9.501014
24.245855 55.063604 -10.701424
24.126991 56.701861 -11.055311
24.524857 56.128319 -10.299926
23.153078 51.798944 -11.693431
23.575454 52.887873 -11.377614
23.623819 51.307209 -11.003405
22.642569 52.067083 -12.262646
23.153078 51.798944 -11.693431
27.032813 48.700531 -3.811743
26.925651 49.4781 -3.025142
26.802499 49.224865 -4.533554
27.032813 48.700531 -3.811743
26.607681 49.816364 -5.356532
26.57135 50.786514 -4.640059
26.802499 49.224865 -4.533554
26.314024 50.350178 -6.084869
26.607681 49.816364 -5.356532
3 0 12 10
3 47 46 13
3 48 14 49
3 50 16 51
3 52 51 14
3 50 51 52
3 53 18 54
3 55 54 16
3 53 54 55
3 57 56 20
3 58 22 59
3 1 25 23
3 3 26 11
3 3 60 62
3 62 61 26
3 60 61 62
3 4 29 27
3 63 30 64
3 5 65 67
3 65 31 66
3 65 66 67
3 5 32 31
3 6 68 69
3 6 70 72
3 70 33 71
3 70 71 72
3 6 34 33
3 7 35 15
3 7 36 35
3 7 37 36
3 8 38 17
3 8 39 38
3 73 40 74
3 73 74 75
3 76 41 77
3 78 77 19
3 76 77 78
3 80 79 41
3 9 81 82
3 9 83 85
3 83 42 84
3 83 84 85
3 2 43 24
3 86 44 87
3 88 87 21
3 86 87 88
3 90 89 44
3 91 45 92
3 93 92 28
3 91 92 93
3 10 11 1
3 12 11 10
3 12 3 11
3 13 94 96
3 96 95 4
3 94 95 96
3 98 97 13
3 99 5 100
3 14 101 102
3 14 103 105
3 103 6 104
3 103 104 105
3 14 15 6
3 16 15 14
3 16 7 15
3 16 17 7
3 18 17 16
3 18 8 17
3 106 19 107
3 108 19 109
3 108 109 110
3 112 111 19
3 113 9 114
3 20 21 2
3 115 21 116
3 117 116 20
3 115 116 117
3 119 118 21
3 22 120 122
3 120 121 122
3 22 123 124
3 23 125 127
3 125 24 126
3 125 126 127
3 25 24 23
3 25 2 24
3 11 25 1
3 26 25 11
3 26 2 25
3 26 20 2
3 128 20 129
3 130 129 26
3 128 129 130
3 132 131 20
3 27 28 0
3 29 28 27
3 29 133 135
3 135 134 28
3 133 134 135
3 136 29 137
3 138 137 4
3 136 137 138
3 139 29 140
3 142 141 29
3 143 23 144
3 143 144 145
3 30 146 148
3 146 23 147
3 146 147 148
3 30 1 23
3 149 30 150
3 31 151 153
3 151 30 152
3 151 152 153
3 31 1 30
3 31 10 1
3 32 10 31
3 32 0 10
3 33 154 155
3 33 156 158
3 156 157 158
3 33 159 160
3 34 161 163
3 163 162 33
3 161 162 163
3 34 164 166
3 164 5 165
3 164 165 166
3 15 34 6
3 35 34 15
3 35 5 34
3 35 32 5
3 36 32 35
3 36 0 32
3 36 27 0
3 37 27 36
3 37 4 27
3 17 37 7
3 38 37 17
3 38 4 37
3 38 13 4
3 39 13 38
3 39 167 169
3 169 168 13
3 167 168 169
3 170 18 171
3 40 172 174
3 172 18 173
3 172 173 174
3 40 8 18
3 19 175 177
3 175 40 176
3 175 176 177
3 41 40 19
3 41 8 40
3 41 39 8
3 178 39 179
3 180 179 41
3 178 179 180
3 182 181 39
3 183 22 184
3 42 185 187
3 185 22 186
3 185 186 187
3 42 188 190
3 190 189 22
3 188 189 190
3 24 191 192
3 43 193 195
3 195 194 24
3 193 194 195
3 43 196 198
3 196 9 197
3 196 197 198
3 21 43 2
3 44 43 21
3 44 9 43
3 44 42 9
3 199 42 200
3 201 200 44
3 199 200 201
3 203 202 42
3 28 12 0
3 45 12 28
3 45 3 12
3 204 45 205
3 206 45 207
3 208 3 209
3 210 209 45
3 208 209 210
3 212 211 3
