ply
format ascii 1.0
element vertex 208
property float x
property float y
property float z
element face 197
property list uchar int vertex_index
end_header
1.703861 71.965729 31.247068
-5.795286 63.968281 31.46624
-10.644199 67.742203 22.725607
-3.82166 75.830513 22.946648
-11.562975 61.843426 26.707647
-2.196039 67.883461 31.491142
-4.846037 70.106804 27.308802
-1.046348 74.216331 27.071938
-0.078989 79.894012 22.405714
2.732856 78.019577 26.680838
-8.427734 65.762634 27.330189
-7.43575 71.803856 22.992861
-13.125687 59.6394 26.30545
-0.215423 69.762032 31.569969
-1.6572 71.049561 29.342392
0.206429 73.034096 29.166
0.872917 76.226959 26.836254
2.229273 74.938248 29.100628
4.197884 77.33223 28.48649
3.739152 74.126709 30.965315
-12.180111 65.505211 22.544239
-10.261418 70.570984 20.567446
-7.117313 64.937714 29.438747
-4.334876 72.937836 25.236031
-6.242941 70.790642 25.282528
-5.595914 73.882156 23.035753
-6.943255 74.671799 20.71924
-5.091351 76.834778 20.57946
-3.359385 78.697838 20.451443
1.88303 81.841339 22.154863
-12.581502 62.491566 24.649719
-11.105243 64.863655 24.704405
-4.083085 65.854431 31.512266
-5.366555 67.100304 29.374292
-3.593812 68.959152 29.439651
-3.001915 72.11882 27.242079
-2.448711 75.123276 24.966482
-1.977335 77.93428 22.630943
-0.602549 77.086433 24.750261
1.305569 78.988403 24.551916
3.211356 80.824638 24.340796
5.212799 83.00473 23.796669
4.763595 80.24984 26.183411
-0.71777 66.810661 33.472061
1.278279 68.835136 33.426952
3.234044 70.822159 33.310036
2.890041 67.768906 35.385387
-10.048685 63.775871 27.065456
-9.554054 66.795502 25.055542
-6.664702 67.872574 27.444187
-7.968083 68.73494 25.243261
-9.093558 69.804001 22.868698
-8.673429 72.723282 20.567078
-11.277603 68.002872 21.552467
-12.045559 66.884377 21.461782
-11.412155 66.623707 22.634923
-10.452808 69.156593 21.646527
-11.086212 69.417263 20.473386
-11.277603 68.002872 21.552467
-6.4563 64.452997 30.452493
-7.328586 63.427597 30.413164
-6.667573 62.942881 31.42691
2.118605 83.174374 20.932564
2.795055 82.748535 21.998261
5.237708 78.413601 28.293553
4.973534 76.888061 29.480837
0.02723 66.249904 34.426519
-0.977696 65.145471 34.472571
1.025255 67.262142 34.403965
0.280254 67.822899 33.449506
0.02723 66.249904 34.426519
1.831136 66.729027 35.383183
2.08416 68.302021 34.40617
1.025255 67.262142 34.403965
-9.238209 64.769253 27.197823
-9.474154 63.251562 28.191704
-8.663678 64.244944 28.32407
-7.601934 75.031212 19.531744
-6.697268 76.087307 19.507722
-0.782434 80.269463 21.335377
-1.731607 79.289597 21.447991
-1.028162 78.914146 22.518328
6.851283 83.776073 24.323705
6.122838 84.092197 23.413104
5.941244 82.688606 24.70727
4.188546 71.97229 33.079016
4.022872 70.321419 34.262741
-13.342792 58.199202 27.197045
-13.86099 58.519109 26.081041
-12.579282 59.241924 27.434497
-13.342792 58.199202 27.197045
-11.797926 60.343937 27.635596
-12.344331 60.741413 26.506549
-12.579282 59.241924 27.434497
4.744167 75.285301 30.720249
4.973534 76.888061 29.480837
3.968518 75.729469 29.725903
-12.747594 65.713348 21.435837
-12.914245 64.361875 22.402112
-12.747594 65.713348 21.435837
-12.045559 66.884377 21.461782
-10.840632 70.868915 19.432842
-11.086212 69.417263 20.473386
-10.039901 72.002137 19.44379
-10.840632 70.868915 19.432842
-8.008468 63.832483 29.378349
-7.328586 63.427597 30.413164
-7.772524 65.350174 28.384468
-8.663678 64.244944 28.32407
-8.008468 63.832483 29.378349
-5.771317 77.168796 19.437832
-6.697268 76.087307 19.507722
-6.017303 75.753288 20.64935
-4.850853 78.200809 19.358719
-5.530819 78.534828 18.217091
-5.771317 77.168796 19.437832
-3.98487 79.13234 19.294711
-4.850853 78.200809 19.358719
-4.225368 77.766308 20.515452
-2.992277 80.067021 19.329161
-3.98487 79.13234 19.294711
1.195072 82.216488 21.122211
0.214062 81.242825 21.247637
0.902021 80.867676 22.280288
1.195072 82.216488 21.122211
2.118605 83.174374 20.932564
-13.60321 60.049297 25.164031
-13.86099 58.519109 26.081041
-13.331118 61.47538 24.336165
-13.60321 60.049297 25.164031
-12.853594 61.065483 25.477584
-13.11494 62.855053 23.454852
-13.331118 61.47538 24.336165
-12.380807 63.998389 23.596979
-12.914245 64.361875 22.402112
-13.11494 62.855053 23.454852
3.459218 82.240184 23.091228
2.795055 82.748535 21.998261
2.547193 81.332988 23.24783
4.212078 81.914684 24.068733
4.459939 83.33023 22.819164
3.459218 82.240184 23.091228
5.716642 81.311161 25.900641
5.941244 82.688606 24.70727
4.988197 81.627285 24.99004
5.520563 79.872406 27.142013
4.48074 78.791035 27.33495
5.237708 78.413601 28.293553
5.716642 81.311161 25.900641
5.520563 79.872406 27.142013
-6.068932 62.31864 32.442163
-6.667573 62.942881 31.42691
-5.151286 63.313265 32.503495
-6.068932 62.31864 32.442163
-4.295185 64.25634 32.526508
-4.939185 64.911356 31.489253
-5.151286 63.313265 32.503495
-3.356167 65.263088 32.546628
-4.295185 64.25634 32.526508
-2.412644 66.277603 32.536066
-3.139562 66.868946 31.501704
-3.356167 65.263088 32.546628
-1.67351 65.741203 33.526525
-0.977696 65.145471 34.472571
-1.456904 67.347061 32.481601
-2.412644 66.277603 32.536066
-1.67351 65.741203 33.526525
3.850871 68.794792 35.300416
4.022872 70.321419 34.262741
3.062043 69.295533 34.347712
2.566625 66.035294 36.378439
1.831136 66.729027 35.383183
3.620231 67.026573 36.428036
2.566625 66.035294 36.378439
3.850871 68.794792 35.300416
3.620231 67.026573 36.428036
-11.035284 61.357157 27.80798
-11.797926 60.343937 27.635596
-10.278139 62.32338 27.986884
-9.474154 63.251562 28.191704
-10.80583 62.809649 26.886552
-11.035284 61.357157 27.80798
-10.278139 62.32338 27.986884
-9.245907 73.078285 19.443605
-10.039901 72.002137 19.44379
-9.467424 71.647133 20.567262
-8.467021 74.056953 19.455663
-7.808342 73.697541 20.643159
-7.601934 75.031212 19.531744
-9.245907 73.078285 19.443605
-8.467021 74.056953 19.455663
-2.422632 79.671376 20.358241
-2.66836 78.316059 21.541193
-1.731607 79.289597 21.447991
-2.992277 80.067021 19.329161
-2.422632 79.671376 20.358241
-0.782434 80.269463 21.335377
0.214062 81.242825 21.247637
5.353971 84.332775 22.51263
4.459939 83.33023 22.819164
5.353971 84.332775 22.51263
6.122838 84.092197 23.413104
4.441099 73.624565 31.906655
3.486598 72.474434 32.137676
4.188546 71.97229 33.079016
5.446115 74.783157 31.66159
4.744167 75.285301 30.720249
4.441099 73.624565 31.906655
3 0 15 13
3 0 17 15
3 0 19 17
3 2 53 55
3 55 54 20
3 53 54 55
3 2 56 58
3 56 21 57
3 56 57 58
3 1 59 61
3 59 22 60
3 59 60 61
3 3 25 23
3 3 27 25
3 3 28 27
3 63 62 29
3 4 30 12
3 4 31 30
3 5 34 32
3 7 35 14
3 7 36 35
3 7 38 36
3 9 39 16
3 9 40 39
3 9 42 40
3 65 64 18
3 66 43 67
3 68 44 69
3 70 69 43
3 68 69 70
3 71 46 72
3 73 72 44
3 71 72 73
3 10 74 76
3 74 47 75
3 74 75 76
3 10 48 47
3 6 49 33
3 11 50 24
3 11 51 50
3 11 52 51
3 78 77 26
3 8 79 81
3 81 80 37
3 79 80 81
3 84 83 41
3 82 83 84
3 86 85 45
3 87 12 88
3 89 12 90
3 91 4 92
3 93 92 12
3 91 92 93
3 13 14 5
3 15 14 13
3 15 7 14
3 15 16 7
3 17 16 15
3 17 9 16
3 17 18 9
3 19 18 17
3 19 94 96
3 96 95 18
3 94 95 96
3 20 97 98
3 100 99 20
3 21 101 102
3 21 103 104
3 22 105 106
3 22 107 109
3 107 10 108
3 107 108 109
3 23 24 6
3 25 24 23
3 25 11 24
3 25 26 11
3 27 26 25
3 27 110 112
3 112 111 26
3 110 111 112
3 27 113 115
3 113 114 115
3 28 116 118
3 118 117 27
3 116 117 118
3 28 119 120
3 29 121 123
3 123 122 8
3 121 122 123
3 125 124 29
3 12 126 127
3 30 128 130
3 130 129 12
3 128 129 130
3 30 131 132
3 30 133 135
3 133 20 134
3 133 134 135
3 31 20 30
3 31 2 20
3 32 33 1
3 34 33 32
3 34 6 33
3 14 34 5
3 35 34 14
3 35 6 34
3 35 23 6
3 36 23 35
3 36 3 23
3 36 37 3
3 38 37 36
3 38 8 37
3 16 38 7
3 39 38 16
3 39 8 38
3 39 29 8
3 40 29 39
3 40 136 138
3 138 137 29
3 136 137 138
3 40 139 141
3 139 41 140
3 139 140 141
3 42 41 40
3 42 142 144
3 144 143 41
3 142 143 144
3 18 42 9
3 145 42 146
3 147 146 18
3 145 146 147
3 149 148 42
3 150 1 151
3 152 1 153
3 154 32 155
3 156 155 1
3 154 155 156
3 157 32 158
3 159 5 160
3 161 160 32
3 159 160 161
3 43 162 163
3 43 164 166
3 164 5 165
3 164 165 166
3 43 13 5
3 44 13 43
3 44 0 13
3 44 45 0
3 46 45 44
3 46 167 169
3 169 168 45
3 167 168 169
3 170 46 171
3 172 46 173
3 175 174 46
3 176 4 177
3 47 178 179
3 47 180 182
3 180 4 181
3 180 181 182
3 47 31 4
3 48 31 47
3 48 2 31
3 33 22 1
3 49 22 33
3 49 10 22
3 24 49 6
3 50 49 24
3 50 10 49
3 50 48 10
3 51 48 50
3 51 2 48
3 51 21 2
3 52 21 51
3 52 183 185
3 185 184 21
3 183 184 185
3 26 52 11
3 186 52 187
3 188 187 26
3 186 187 188
3 190 189 52
3 37 28 3
3 191 28 192
3 193 192 37
3 191 192 193
3 195 194 28
3 197 196 8
3 41 198 199
3 201 200 41
3 45 19 0
3 202 19 203
3 204 203 45
3 202 203 204
3 207 206 19
3 205 206 207
