ply
format ascii 1.0
element vertex 280
property float x
property float y
property float z
element face 297
property list uchar int vertex_index
end_header
-30.307217 -7.881915 52.732025
-30.449402 -25.322344 62.964272
-29.98098 -22.005087 54.184189
-29.219492 -30.772476 47.589344
-29.226894 -17.935442 45.534904
-29.837954 -3.48199 44.42215
-30.79384 -19.078377 62.207912
-29.560789 -32.412601 51.76609
-30.132004 -15.096819 53.402176
-29.529577 -19.909447 49.850327
-29.680897 -13.134459 48.928272
-29.498962 -10.711266 45.021759
-29.962809 -5.497807 48.470093
-30.148619 -29.921597 59.612709
-29.903419 -28.067541 55.166107
-30.406401 -23.663631 58.73645
-30.603441 -17.024683 57.953533
-30.72257 -9.966674 56.945259
-29.04705 -29.211967 43.262245
-29.450111 -26.418226 50.666203
-29.111029 -24.543421 46.405727
-29.014856 -22.816666 42.330906
-29.219425 -16.035212 41.589844
-29.588991 -8.808709 41.092407
-30.207518 -11.48798 52.935009
-29.899584 -13.926009 51.188213
-30.004793 -10.348992 50.886143
-29.825003 -9.36196 48.770184
-30.101585 -6.707104 50.509731
-30.306301 -27.740734 61.324902
-30.28437 -26.88648 59.197083
-30.479061 -24.697857 60.799358
-30.745142 -18.092314 60.094513
-30.828707 -14.759251 59.60574
-30.652113 -13.635036 57.280323
-30.175705 -28.542032 63.357944
-30.095839 -30.66877 61.746395
-29.101866 -30.103661 45.388626
-29.931562 -25.117548 54.638901
-29.676985 -27.226225 52.877228
-29.69717 -24.079338 52.392994
-29.35771 -18.738781 47.730503
-29.29538 -22.178711 48.188457
-29.155766 -21.258713 46.05772
-29.031221 -23.507164 44.432713
-29.077568 -20.35339 43.838448
-29.087679 -19.566729 41.873882
-29.17963 -16.946796 43.458549
-29.648901 -7.213376 44.526382
-29.48222 -10.023573 42.929214
-29.682396 -6.202343 42.734592
-29.818626 -5.094357 40.828728
-30.631681 -22.456949 62.531239
-29.370855 -31.630707 49.537815
-30.048706 -18.613539 53.778011
-29.754921 -20.887779 52.05928
-29.822653 -17.55603 51.680775
-29.606346 -16.535526 49.486279
-29.430893 -15.425714 47.156769
-29.345087 -14.346271 45.159836
-29.568298 -11.830022 47.000523
-29.707584 -8.272243 46.700123
-29.852213 -4.629406 46.271202
-29.996084 -32.002209 57.734886
-29.892525 -31.133078 55.751354
-30.079815 -29.000597 57.508373
-30.152893 -25.993744 57.003616
-30.222595 -22.795403 56.471497
-30.63562 -21.288551 60.515797
-30.509684 -20.35857 58.328018
-30.293928 -19.415512 55.988068
-30.372757 -16.145521 55.623871
-30.430998 -12.668628 55.076115
-30.518412 -8.976631 54.831429
-29.867197 -33.479427 62.062744
-30.003075 -32.852692 59.922474
-29.069838 -28.397903 41.241211
-29.698479 -30.38282 53.444572
-29.488457 -29.508865 51.233082
-29.292578 -28.565872 49.102184
-29.482155 -23.195496 50.312351
-29.257786 -25.331745 48.521057
-29.129696 -27.678421 46.899349
-29.029934 -26.904034 44.758141
-28.998661 -25.868069 42.866589
-29.049969 -25.440962 40.823196
-29.091419 -21.985281 40.387032
-29.201645 -18.578457 39.96666
-29.364826 -15.078013 39.65427
-29.324358 -13.387861 43.309319
-29.386692 -12.492611 41.344952
-29.562145 -11.333798 39.542507
-29.783581 -7.920458 39.284187
-30.906731 -13.536401 60.470137
-30.872267 -15.176693 60.695816
-30.858781 -12.973997 59.370251
-30.906731 -13.536401 60.470137
-30.312553 -26.932188 63.161108
-30.191757 -27.504367 64.136736
-30.328606 -25.894523 63.939899
-29.217197 -31.868248 46.7621
-29.27753 -32.284574 47.751272
-29.160679 -30.438068 46.488985
-29.158385 -31.53384 45.661741
-29.217197 -31.868248 46.7621
-29.86687 -2.979828 43.473628
-29.789091 -4.340005 42.629849
-29.760175 -4.842167 43.578371
-29.521426 -33.37643 50.881361
-29.608069 -33.880104 51.963195
-29.465822 -32.021654 50.651953
-29.426459 -32.985484 49.767224
-29.521426 -33.37643 50.881361
-29.860501 -32.541768 62.907778
-29.701009 -33.91333 62.996603
-29.694313 -32.975671 63.841636
-29.094083 -30.325004 42.524511
-29.1449 -31.872957 42.810098
-29.097866 -30.75992 43.547832
-29.058444 -28.804935 42.251728
-29.105477 -29.917972 41.513994
-29.094083 -30.325004 42.524511
-30.05821 -2.617826 39.877306
-29.9315 -4.597375 39.95582
-29.945336 -3.114807 40.750214
-29.654792 -32.899145 52.893306
-29.608069 -33.880104 51.963195
-30.830485 -16.843224 60.940202
-30.769491 -18.585345 61.151212
-30.854833 -17.336256 61.996902
-30.786925 -16.425783 59.850127
-30.830485 -16.843224 60.940202
-30.872267 -15.176693 60.695816
-30.770484 -12.41189 58.207543
-30.74041 -14.197143 58.443032
-30.858781 -12.973997 59.370251
-30.805712 -10.577709 58.040011
-30.687342 -11.800855 57.112791
-30.770484 -12.41189 58.207543
-30.011204 -29.000709 64.322454
-30.191757 -27.504367 64.136736
-30.014755 -30.073071 63.555378
-30.011204 -29.000709 64.322454
-30.135772 -29.605401 62.55217
-29.974822 -31.13644 62.749603
-30.014755 -30.073071 63.555378
-29.125274 -31.205767 44.611023
-29.158385 -31.53384 45.661741
-29.074458 -29.657814 44.325435
-29.097866 -30.75992 43.547832
-29.125274 -31.205767 44.611023
-29.857206 -3.786012 41.676917
-29.750511 -5.64835 41.78166
-29.789091 -4.340005 42.629849
-29.945336 -3.114807 40.750214
-29.857206 -3.786012 41.676917
-30.562401 -22.865963 63.59289
-30.540541 -23.889647 62.747755
-30.471261 -24.298661 63.809406
-30.66955 -21.356797 63.345717
-30.562401 -22.865963 63.59289
-30.75063 -19.667511 63.184053
-30.712761 -20.767663 62.369575
-30.66955 -21.356797 63.345717
-30.833479 -17.880114 62.997658
-30.75063 -19.667511 63.184053
-30.854833 -17.336256 61.996902
-30.833479 -17.880114 62.997658
-30.471261 -24.298661 63.809406
-30.328606 -25.894523 63.939899
-29.353212 -32.71369 48.725508
-29.426459 -32.985484 49.767224
-29.295173 -31.201591 48.56358
-29.27753 -32.284574 47.751272
-29.353212 -32.71369 48.725508
-29.944305 -31.567644 56.74312
-29.884412 -32.63241 55.929905
-29.936191 -33.066975 56.921671
-29.73248 -35.003252 62.104236
-29.701009 -33.91333 62.996603
-29.855722 -34.564137 61.143108
-29.73248 -35.003252 62.104236
-29.981518 -32.074098 61.90457
-29.860501 -32.541768 62.907778
-29.974822 -31.13644 62.749603
-29.92366 -34.250769 60.072974
-29.855722 -34.564137 61.143108
-29.935136 -33.16606 60.992609
-29.963008 -33.846953 59.037079
-29.92366 -34.250769 60.072974
-29.959513 -33.421711 57.943285
-29.963008 -33.846953 59.037079
-29.999579 -32.42745 58.82868
-29.936191 -33.066975 56.921671
-29.959513 -33.421711 57.943285
-29.144697 -29.685959 40.543204
-29.105477 -29.917972 41.513994
-29.125573 -28.09762 40.271946
-29.144697 -29.685959 40.543204
-29.82066 -32.259383 54.885938
-29.884412 -32.63241 55.929905
-29.723637 -31.884254 53.732547
-29.82066 -32.259383 54.885938
-29.795502 -30.757949 54.597963
-29.629634 -31.397711 52.605331
-29.654792 -32.899145 52.893306
-29.723637 -31.884254 53.732547
-29.115638 -26.61915 40.062939
-29.125573 -28.09762 40.271946
-29.059904 -26.919432 41.032204
-29.122843 -24.924667 39.843637
-29.188512 -26.102854 39.08338
-29.115638 -26.61915 40.062939
-29.143568 -23.196826 39.625555
-29.122843 -24.924667 39.843637
-29.070694 -23.713121 40.605114
-29.182369 -21.626586 39.417574
-29.143568 -23.196826 39.625555
-29.237482 -19.923174 39.207388
-29.182369 -21.626586 39.417574
-29.146532 -20.281869 40.176846
-29.301324 -18.175989 39.10137
-29.237482 -19.923174 39.207388
-29.382914 -16.425767 38.945175
-29.301324 -18.175989 39.10137
-29.283235 -16.828235 39.810465
-29.48084 -14.652733 38.805233
-29.382914 -16.425767 38.945175
-29.5795 -12.780625 38.749352
-29.48084 -14.652733 38.805233
-29.463486 -13.205906 39.598388
-29.702517 -10.933497 38.604004
-29.5795 -12.780625 38.749352
-29.813236 -9.226827 38.474844
-29.702517 -10.933497 38.604004
-29.672863 -9.627128 39.413347
-29.940425 -7.266433 38.448358
-29.97008 -8.572802 37.639015
-29.813236 -9.226827 38.474844
-29.913978 -6.010426 39.183549
-29.801103 -6.507407 40.056458
-29.9315 -4.597375 39.95582
-29.940425 -7.266433 38.448358
-29.913978 -6.010426 39.183549
-30.820551 -8.66258 57.905006
-30.805712 -10.577709 58.040011
-30.743117 -8.091658 56.823663
-30.820551 -8.66258 57.905006
-30.641038 -7.596637 55.766748
-30.620491 -9.471652 55.888344
-30.743117 -8.091658 56.823663
-30.542331 -7.045319 54.656909
-30.641038 -7.596637 55.766748
-30.436734 -6.497962 53.607207
-30.412815 -8.429273 53.781727
-30.542331 -7.045319 54.656909
-30.34087 -6.045904 52.573155
-30.436734 -6.497962 53.607207
-30.238054 -5.458499 51.462007
-30.204401 -7.29451 51.620878
-30.34087 -6.045904 52.573155
-30.162123 -4.777896 50.433628
-30.238054 -5.458499 51.462007
-30.092734 -4.173248 49.413809
-30.032197 -6.102455 49.489912
-30.162123 -4.777896 50.433628
-30.030029 -3.693582 48.348209
-30.092734 -4.173248 49.413809
-29.974731 -3.259381 47.248764
-29.907511 -5.063607 47.370648
-30.030029 -3.693582 48.348209
-29.941815 -2.707373 46.188675
-29.974731 -3.259381 47.248764
-29.934686 -2.133665 45.264149
-29.845084 -4.055698 45.346676
-29.941815 -2.707373 46.188675
-29.942414 -1.502985 44.286608
-29.934686 -2.133665 45.264149
-29.86687 -2.979828 43.473628
-29.942414 -1.502985 44.286608
3 0 26 24
3 0 28 26
3 1 31 29
3 93 33 94
3 96 95 33
3 1 97 99
3 97 35 98
3 97 98 99
3 1 29 35
3 3 100 101
3 3 102 104
3 102 37 103
3 102 103 104
3 2 40 38
3 4 43 41
3 4 45 43
3 4 47 45
3 5 50 48
3 5 105 107
3 107 106 50
3 105 106 107
3 7 108 109
3 7 110 112
3 110 53 111
3 110 111 112
3 8 56 54
3 10 57 25
3 10 58 57
3 10 60 58
3 12 61 27
3 12 62 61
3 13 65 63
3 15 66 30
3 15 67 66
3 6 68 52
3 16 69 32
3 16 70 69
3 16 71 70
3 17 72 34
3 17 73 72
3 113 74 114
3 113 114 115
3 13 75 36
3 13 63 75
3 18 116 118
3 116 117 118
3 18 119 121
3 119 76 120
3 119 120 121
3 14 77 64
3 19 78 39
3 19 79 78
3 9 80 55
3 20 81 42
3 20 82 81
3 20 83 82
3 21 84 44
3 21 85 84
3 21 86 85
3 22 87 46
3 22 88 87
3 11 89 59
3 23 90 49
3 23 91 90
3 23 92 91
3 124 123 51
3 122 123 124
3 125 7 126
3 24 25 8
3 26 25 24
3 26 10 25
3 26 27 10
3 28 27 26
3 28 12 27
3 29 30 13
3 31 30 29
3 31 15 30
3 127 32 128
3 129 128 6
3 127 128 129
3 33 130 132
3 130 32 131
3 130 131 132
3 33 16 32
3 33 34 16
3 133 34 134
3 135 134 33
3 133 134 135
3 136 17 137
3 138 137 34
3 136 137 138
3 35 139 140
3 35 141 142
3 35 143 145
3 143 36 144
3 143 144 145
3 29 36 35
3 29 13 36
3 37 146 147
3 37 148 150
3 148 18 149
3 148 149 150
3 38 39 14
3 40 39 38
3 40 19 39
3 41 42 9
3 43 42 41
3 43 20 42
3 43 44 20
3 45 44 43
3 45 21 44
3 45 46 21
3 47 46 45
3 47 22 46
3 48 49 11
3 50 49 48
3 50 23 49
3 50 51 23
3 151 51 152
3 153 152 50
3 151 152 153
3 155 154 51
3 156 52 157
3 158 157 1
3 156 157 158
3 159 52 160
3 161 6 162
3 163 162 52
3 161 162 163
3 164 6 165
3 167 166 6
3 168 1 169
3 53 170 171
3 53 172 174
3 172 3 173
3 172 173 174
3 54 55 2
3 56 55 54
3 56 9 55
3 25 56 8
3 57 56 25
3 57 9 56
3 57 41 9
3 58 41 57
3 58 4 41
3 58 59 4
3 60 59 58
3 60 11 59
3 27 60 10
3 61 60 27
3 61 11 60
3 61 48 11
3 62 48 61
3 62 5 48
3 63 175 177
3 175 64 176
3 175 176 177
3 65 64 63
3 65 14 64
3 30 65 13
3 66 65 30
3 66 14 65
3 66 38 14
3 67 38 66
3 67 2 38
3 52 31 1
3 68 31 52
3 68 15 31
3 32 68 6
3 69 68 32
3 69 15 68
3 69 67 15
3 70 67 69
3 70 2 67
3 70 54 2
3 71 54 70
3 71 8 54
3 34 71 16
3 72 71 34
3 72 8 71
3 72 24 8
3 73 24 72
3 73 0 24
3 74 178 179
3 74 180 181
3 36 182 184
3 182 74 183
3 182 183 184
3 75 74 36
3 75 185 187
3 187 186 74
3 185 186 187
3 75 188 189
3 63 190 192
3 192 191 75
3 190 191 192
3 63 193 194
3 76 195 196
3 76 197 198
3 64 199 200
3 77 201 203
3 203 202 64
3 201 202 203
3 77 204 206
3 204 7 205
3 204 205 206
3 39 77 14
3 78 77 39
3 78 7 77
3 78 53 7
3 79 53 78
3 79 3 53
3 55 40 2
3 80 40 55
3 80 19 40
3 42 80 9
3 81 80 42
3 81 19 80
3 81 79 19
3 82 79 81
3 82 3 79
3 82 37 3
3 83 37 82
3 83 18 37
3 44 83 20
3 84 83 44
3 84 18 83
3 84 76 18
3 85 76 84
3 85 207 209
3 209 208 76
3 207 208 209
3 85 210 212
3 210 211 212
3 86 213 215
3 215 214 85
3 213 214 215
3 86 216 217
3 46 86 21
3 87 86 46
3 87 218 220
3 220 219 86
3 218 219 220
3 87 221 222
3 88 223 225
3 225 224 87
3 223 224 225
3 88 226 227
3 59 47 4
3 89 47 59
3 89 22 47
3 49 89 11
3 90 89 49
3 90 22 89
3 90 88 22
3 91 88 90
3 91 228 230
3 230 229 88
3 228 229 230
3 91 231 232
3 92 233 235
3 235 234 91
3 233 234 235
3 92 236 238
3 236 237 238
3 51 92 23
3 239 92 240
3 241 240 51
3 239 240 241
3 243 242 92
3 244 17 245
3 246 17 247
3 248 73 249
3 250 249 17
3 248 249 250
3 251 73 252
3 253 0 254
3 255 254 73
3 253 254 255
3 256 0 257
3 258 28 259
3 260 259 0
3 258 259 260
3 261 28 262
3 263 12 264
3 265 264 28
3 263 264 265
3 266 12 267
3 268 62 269
3 270 269 12
3 268 269 270
3 271 62 272
3 273 5 274
3 275 274 62
3 273 274 275
3 276 5 277
3 279 278 5
