ply
format ascii 1.0
element vertex 196
property float x
property float y
property float z
element face 182
property list uchar int vertex_index
end_header
-19.28055 -4.713273 -67.623161
-27.743507 -2.764247 -66.39164
-31.51689 -2.265918 -64.361755
-22.206392 -11.181579 -65.077896
-18.115826 -12.154461 -64.759903
-15.345226 -6.105977 -66.933212
-26.329346 -10.377151 -64.576042
-23.558575 -3.571368 -67.490562
-32.095146 4.61782 -64.751823
-28.325191 4.519611 -67.584152
-24.343576 3.714571 -69.235764
-20.147524 2.560199 -69.922379
-16.116163 0.972732 -69.633064
-33.252125 -2.127849 -62.975212
-20.850338 -7.740684 -66.453651
-20.129206 -11.440189 -65.091812
-18.814537 -8.283052 -66.303543
-16.879663 -8.884597 -65.9729
-17.268307 -5.378385 -67.369377
-29.036316 -6.227584 -64.856422
-28.316509 -10.170425 -63.959351
-27.0546 -6.429511 -65.622925
-25.020178 -6.687931 -66.159187
-25.641911 -3.136526 -67.074348
-30.433409 8.14599 -66.32444
-30.292589 4.719998 -66.287941
-22.28476 2.998682 -69.646858
-16.474913 4.475962 -70.755508
-30.995699 -6.084503 -63.830608
-29.717655 -2.472282 -65.476662
-16.104992 -12.574626 -64.382065
-14.95495 -9.628344 -65.432465
-13.579924 -6.851366 -66.35582
-24.261589 -10.543338 -65.013672
-22.861313 -7.270419 -66.39859
-21.472439 -4.083535 -67.673813
-31.899225 1.306768 -64.645561
-30.040985 1.259541 -66.023506
-28.079994 0.886048 -67.087692
-26.361372 4.235392 -68.549263
-26.095385 0.441742 -67.862755
-24.065407 -0.088794 -68.386856
-21.853281 -0.516764 -68.753357
-19.836895 -1.124864 -68.825241
-18.137667 1.63257 -69.828629
-17.813162 -1.834502 -68.678841
-15.910514 -2.5868 -68.347954
-14.004537 -3.368125 -67.847572
-34.02789 -2.09884 -62.182862
-33.840469 -3.832655 -62.104175
-34.616234 -3.803647 -61.311825
-29.599934 9.672032 -66.967209
-30.562022 9.600538 -66.111934
-29.501298 8.081862 -67.044567
-29.599934 9.672032 -66.967209
-31.256294 -4.175211 -64.096182
-31.895221 -5.927554 -63.237018
-32.155817 -4.018262 -63.502592
-21.784422 -13.109199 -64.373155
-22.818886 -12.794963 -64.400589
-18.776863 -13.799599 -64.141353
-19.783552 -13.442463 -64.307308
-19.122516 -11.797325 -64.925858
-17.705 -13.931673 -64.010465
-18.776863 -13.799599 -64.141353
-17.110409 -12.364543 -64.570984
-16.699583 -14.141756 -63.821546
-17.705 -13.931673 -64.010465
-26.95708 -12.136281 -63.76541
-27.950662 -12.032918 -63.457064
-27.322927 -10.273788 -64.267696
-25.914296 -12.312522 -63.99427
-26.95708 -12.136281 -63.76541
-25.295468 -10.460244 -64.794857
-24.880417 -12.395615 -64.213085
-25.914296 -12.312522 -63.99427
-32.882251 4.709821 -63.919384
-32.148174 6.285147 -64.682643
-32.845379 2.945365 -63.901712
-32.882251 4.709821 -63.919384
-31.997186 2.962294 -64.698692
-32.747419 1.289839 -63.848581
-32.845379 2.945365 -63.901712
-25.352474 3.974982 -68.892514
-25.532386 5.723688 -69.148266
-24.523488 5.463277 -69.491517
-13.254976 -2.164001 -68.196106
-14.112647 -1.723782 -68.488315
-13.156025 -3.818865 -67.511604
-13.254976 -2.164001 -68.196106
-33.023434 -3.949228 -62.80932
-33.840469 -3.832655 -62.104175
-32.384507 -2.196884 -63.668484
-32.155817 -4.018262 -63.502592
-33.023434 -3.949228 -62.80932
-28.676412 -8.199005 -64.407886
-29.264325 -10.023062 -63.571038
-29.624229 -8.051641 -64.019573
-31.317306 8.049232 -65.468952
-30.562022 9.600538 -66.111934
-31.264277 6.381905 -65.538131
-32.148174 6.285147 -64.682643
-31.317306 8.049232 -65.468952
-29.430888 6.368867 -67.026318
-30.362999 6.432994 -66.30619
-29.501298 8.081862 -67.044567
-28.447189 6.268673 -67.674423
-29.30889 4.619805 -66.936047
-29.430888 6.368867 -67.026318
-23.438291 5.202767 -69.823746
-24.523488 5.463277 -69.491517
-22.408882 4.844823 -70.029293
-23.314168 3.356626 -69.441311
-23.438291 5.202767 -69.823746
-21.380153 4.4364 -70.186768
-22.408882 4.844823 -70.029293
-20.311535 4.217158 -70.324528
-21.216142 2.77944 -69.784618
-21.380153 4.4364 -70.186768
-15.557307 5.573645 -71.057766
-16.438801 6.146769 -71.20892
-15.477763 3.864647 -70.534427
-15.557307 5.573645 -71.057766
-15.298388 2.113032 -69.973206
-16.295538 2.724347 -70.194286
-15.477763 3.864647 -70.534427
-15.16846 0.446646 -69.381062
-15.298388 2.113032 -69.973206
-31.55726 -7.854431 -62.975654
-31.895221 -5.927554 -63.237018
-30.60392 -7.9801 -63.506666
-31.55726 -7.854431 -62.975654
-30.016008 -6.156044 -64.343515
-29.624229 -8.051641 -64.019573
-30.60392 -7.9801 -63.506666
-20.745829 -13.238504 -64.380114
-21.784422 -13.109199 -64.373155
-21.167799 -11.310884 -65.084854
-20.745829 -13.238504 -64.380114
-19.783552 -13.442463 -64.307308
-15.729398 -14.46553 -63.545872
-16.699583 -14.141756 -63.821546
-15.214094 -12.884264 -64.10045
-15.729398 -14.46553 -63.545872
-14.639073 -11.411123 -64.62565
-15.214094 -12.884264 -64.10045
-15.529971 -11.101485 -64.907265
-14.081112 -9.942906 -65.131206
-14.639073 -11.411123 -64.62565
-13.3936 -8.554417 -65.592884
-14.081112 -9.942906 -65.131206
-14.267437 -8.239855 -65.894142
-12.752646 -7.239727 -66.00771
-13.3936 -8.554417 -65.592884
-28.854855 -11.953966 -63.131937
-29.264325 -10.023062 -63.571038
-28.854855 -11.953966 -63.131937
-27.950662 -12.032918 -63.457064
-23.846485 -12.475842 -64.368477
-24.880417 -12.395615 -64.213085
-23.233991 -10.862458 -65.045784
-22.818886 -12.794963 -64.400589
-23.846485 -12.475842 -64.368477
-33.423868 -0.427469 -63.013407
-34.02789 -2.09884 -62.182862
-32.575675 -0.41054 -63.810386
-33.423868 -0.427469 -63.013407
-32.747419 1.289839 -63.848581
-27.446942 6.092233 -68.262664
-28.447189 6.268673 -67.674423
-26.465032 5.950124 -68.74522
-25.532386 5.723688 -69.148266
-27.343281 4.377502 -68.066708
-27.446942 6.092233 -68.262664
-26.465032 5.950124 -68.74522
-19.252079 3.928284 -70.401909
-20.311535 4.217158 -70.324528
-17.415774 4.886165 -70.818474
-16.438801 6.146769 -71.20892
-18.247151 3.464469 -70.355034
-17.415774 4.886165 -70.818474
-17.30629 3.054266 -70.292068
-19.142595 2.096385 -69.875504
-19.252079 3.928284 -70.401909
-18.247151 3.464469 -70.355034
-15.065635 -1.33312 -68.738506
-16.013338 -0.807034 -68.990509
-15.16846 0.446646 -69.381062
-14.957525 -2.977463 -68.097763
-15.065635 -1.33312 -68.738506
-14.112647 -1.723782 -68.488315
-12.943719 -5.560486 -66.765728
-13.79223 -5.109745 -67.101696
-13.156025 -3.818865 -67.511604
-12.752646 -7.239727 -66.00771
-12.943719 -5.560486 -66.765728
3 48 13 49
3 48 49 50
3 0 16 14
3 0 18 16
3 1 21 19
3 1 23 21
3 51 24 52
3 54 53 24
3 2 55 57
3 55 28 56
3 55 56 57
3 2 29 28
3 3 58 59
3 4 60 62
3 62 61 15
3 60 61 62
3 4 63 64
3 4 65 67
3 65 30 66
3 65 66 67
3 5 31 17
3 5 32 31
3 6 68 70
3 70 69 20
3 68 69 70
3 6 71 72
3 6 73 75
3 73 33 74
3 73 74 75
3 7 34 22
3 7 35 34
3 8 76 77
3 8 78 79
3 8 80 82
3 80 36 81
3 80 81 82
3 9 37 25
3 9 38 37
3 10 83 85
3 83 39 84
3 83 84 85
3 10 40 39
3 10 41 40
3 11 42 26
3 11 43 42
3 12 44 27
3 12 45 44
3 12 46 45
3 86 47 87
3 89 88 47
3 13 90 91
3 13 92 94
3 92 2 93
3 92 93 94
3 14 15 3
3 16 15 14
3 16 4 15
3 16 17 4
3 18 17 16
3 18 5 17
3 19 95 97
3 95 20 96
3 95 96 97
3 21 20 19
3 21 6 20
3 21 22 6
3 23 22 21
3 23 7 22
3 24 98 99
3 24 100 102
3 100 8 101
3 100 101 102
3 24 25 8
3 103 25 104
3 105 104 24
3 103 104 105
3 106 9 107
3 108 107 25
3 106 107 108
3 109 10 110
3 111 26 112
3 113 112 10
3 111 112 113
3 114 26 115
3 116 11 117
3 118 117 26
3 116 117 118
3 119 27 120
3 121 27 122
3 123 12 124
3 125 124 27
3 123 124 125
3 127 126 12
3 28 128 129
3 28 130 131
3 28 132 134
3 132 19 133
3 132 133 134
3 29 19 28
3 29 1 19
3 15 135 137
3 137 136 3
3 135 136 137
3 139 138 15
3 30 140 141
3 30 142 143
3 17 30 4
3 31 30 17
3 31 144 146
3 146 145 30
3 144 145 146
3 31 147 148
3 32 149 151
3 151 150 31
3 149 150 151
3 32 152 153
3 20 154 155
3 157 156 20
3 33 158 159
3 33 160 162
3 160 3 161
3 160 161 162
3 22 33 6
3 34 33 22
3 34 3 33
3 34 14 3
3 35 14 34
3 35 0 14
3 163 13 164
3 36 165 167
3 165 13 166
3 165 166 167
3 36 2 13
3 25 36 8
3 37 36 25
3 37 2 36
3 37 29 2
3 38 29 37
3 38 1 29
3 168 9 169
3 39 170 171
3 39 172 174
3 172 9 173
3 172 173 174
3 39 38 9
3 40 38 39
3 40 1 38
3 40 23 1
3 41 23 40
3 41 7 23
3 26 41 10
3 42 41 26
3 42 7 41
3 42 35 7
3 43 35 42
3 43 0 35
3 175 11 176
3 27 177 178
3 44 179 181
3 181 180 27
3 179 180 181
3 44 182 184
3 182 11 183
3 182 183 184
3 44 43 11
3 45 43 44
3 45 0 43
3 45 18 0
3 46 18 45
3 46 5 18
3 185 46 186
3 187 186 12
3 185 186 187
3 47 188 190
3 188 46 189
3 188 189 190
3 47 5 46
3 47 32 5
3 191 32 192
3 193 192 47
3 191 192 193
3 195 194 32
