ply
format ascii 1.0
element vertex 324
property float x
property float y
property float z
element face 299
property list uchar int vertex_index
end_header
-2.205631 46.025127 -52.721394
11.195627 47.344051 -37.70937
10.278909 43.411259 -47.006283
14.753637 37.472233 -41.211712
8.721534 39.164883 -55.98106
5.678085 49.859959 -47.443665
12.51213 43.311134 -34.526249
12.694709 41.893986 -39.316936
14.112998 37.87606 -36.165794
12.59774 39.734653 -49.370541
9.624811 41.331745 -51.713696
1.197873 46.1502 -52.164555
9.456373 50.518021 -40.802959
8.445346 47.990509 -45.073193
10.754557 45.409679 -42.31078
12.710616 40.868866 -44.33905
15.036742 37.395069 -46.593624
7.50898 45.082863 -49.285118
6.41874 51.620022 -45.534763
13.222508 40.48901 -35.315857
13.874243 38.234241 -50.724979
12.310881 39.196274 -51.989182
3.552162 48.393097 -50.027988
1.98478 48.49073 -50.779663
10.410015 48.865124 -39.333252
10.025327 47.871605 -41.544857
11.017369 46.19891 -40.058113
13.597275 39.701786 -40.23275
12.679545 41.495243 -41.716728
13.775928 39.296471 -42.827259
13.857929 38.983917 -45.433525
14.963898 37.403446 -43.979111
-3.848085 45.791393 -52.873352
9.34791 45.623825 -45.851059
7.931114 46.618904 -47.215084
8.950401 44.399063 -48.139172
9.210777 40.273403 -53.904751
8.03511 41.830597 -52.555729
7.583994 40.459362 -54.631912
7.037131 39.107323 -56.521713
4.180923 50.422276 -48.486404
5.107872 47.787689 -49.309052
11.909719 45.354458 -36.201923
11.863657 44.54018 -38.366383
12.605894 42.55164 -36.827606
13.473065 39.925804 -37.71941
14.408243 37.745361 -38.713966
11.314211 41.552402 -48.12801
9.949978 42.393517 -49.420147
11.093491 40.729912 -50.544327
10.784547 39.91531 -52.884331
10.400208 38.988537 -55.246399
-0.499456 46.1339 -52.50248
7.8072 50.463821 -44.219887
8.971174 49.22678 -42.94849
9.695312 46.759819 -43.682739
10.58864 44.338852 -44.620419
11.755322 43.836269 -40.760864
11.690456 43.031929 -43.130093
11.587182 42.231335 -45.594341
12.686348 40.303417 -46.844608
13.911024 38.623821 -48.029079
15.231706 37.125206 -49.344135
15.617129 35.519581 -39.741993
15.9643 35.639397 -42.453217
16.313305 35.678055 -45.214493
9.912557 51.878822 -38.724007
10.723694 50.148697 -37.169743
11.093639 51.336597 -35.036572
11.414926 48.254848 -35.605137
12.010753 46.119595 -33.988762
7.114876 49.111855 -46.24007
6.618838 47.388573 -48.193325
8.464456 43.146034 -50.429066
8.178365 37.905441 -58.015503
6.467839 37.574013 -58.365643
4.75338 36.890324 -58.64267
6.749045 52.419621 -44.643632
6.063328 53.069769 -45.266886
13.748326 38.050506 -52.079517
14.515634 37.60905 -51.368864
3.215172 47.321787 -50.801321
4.038407 47.13176 -50.530977
-3.026858 45.90826 -52.797373
-3.559814 47.257624 -52.483034
-2.738587 47.374491 -52.407055
4.929504 50.141118 -47.965035
4.590994 51.405567 -47.6154
5.339576 51.124409 -47.094031
11.405504 39.218237 -53.687055
11.547714 39.555792 -52.436757
12.168671 38.858719 -53.239481
11.213334 38.754851 -54.868089
10.592377 39.451923 -54.065365
11.405504 39.218237 -53.687055
0.740468 47.344477 -51.771853
1.133922 48.514742 -51.079407
1.591327 47.320465 -51.472109
0.349208 46.14205 -52.333517
-0.108197 47.336327 -51.940815
0.740468 47.344477 -51.771853
0.874534 44.898395 -52.814787
0.02587 44.890245 -52.98375
0.349208 46.14205 -52.333517
9.213773 49.8724 -41.875725
8.654301 50.626182 -42.611635
8.8969 51.271803 -41.53887
15.986625 34.473091 -38.909136
15.403638 35.542662 -38.551687
16.625928 34.844914 -43.057957
16.437869 34.657311 -41.681978
16.80043 34.864243 -44.438595
16.138803 35.658726 -43.833855
16.625928 34.844914 -43.057957
10.133163 52.548243 -37.766718
9.693797 53.443842 -38.592771
10.538731 51.68318 -36.989586
10.318126 51.013759 -37.946875
10.133163 52.548243 -37.766718
11.383571 50.204102 -34.279421
11.303489 51.744537 -34.046976
11.544214 48.663227 -34.563704
11.254282 49.795722 -35.320854
11.383571 50.204102 -34.279421
11.842128 47.595601 -33.755516
11.712839 47.187221 -34.796949
11.544214 48.663227 -34.563704
6.782472 45.340372 -49.744213
6.337401 46.493227 -49.198317
7.063909 46.235718 -48.739221
7.504566 42.694637 -51.969166
7.232337 41.921146 -52.955951
7.947844 37.192349 -58.989952
8.804845 37.362364 -58.814276
7.092581 37.026635 -59.165022
7.323102 37.739727 -58.190573
7.947844 37.192349 -58.989952
4.545135 35.919032 -59.421872
5.412117 36.370016 -59.422581
3.965 36.596165 -58.562609
4.545135 35.919032 -59.421872
5.709903 52.004441 -46.139579
6.063328 53.069769 -45.266886
6.048412 50.739991 -46.489214
5.339576 51.124409 -47.094031
5.709903 52.004441 -46.139579
13.137245 40.698797 -34.187378
12.867319 41.900072 -34.921053
12.782056 42.109859 -33.792574
13.483957 39.385249 -34.53335
13.137245 40.698797 -34.187378
13.929202 38.078773 -34.958319
13.667753 39.182535 -35.740825
13.483957 39.385249 -34.53335
12.966645 38.531523 -52.711619
13.092562 38.715257 -51.35708
13.748326 38.050506 -52.079517
12.168671 38.858719 -53.239481
12.966645 38.531523 -52.711619
2.768471 48.441913 -50.403825
2.266322 49.652925 -50.098259
3.050013 49.604109 -49.722421
2.431481 47.370604 -51.177159
2.768471 48.441913 -50.403825
3.215172 47.321787 -50.801321
2.038028 46.200339 -51.869605
1.591327 47.320465 -51.472109
2.431481 47.370604 -51.177159
1.691736 45.102424 -52.609272
2.038028 46.200339 -51.869605
-4.434257 47.246031 -52.598558
-3.559814 47.257624 -52.483034
-4.678711 45.610426 -52.920047
-4.434257 47.246031 -52.598558
7.006779 41.235529 -53.994043
7.232337 41.921146 -52.955951
7.809552 41.144979 -53.59382
6.745341 40.472566 -54.882351
7.006779 41.235529 -53.994043
6.471909 39.796547 -55.827252
6.745341 40.472566 -54.882351
7.310562 39.783343 -55.576813
6.194353 38.94006 -56.724039
6.471909 39.796547 -55.827252
3.768378 51.772175 -48.178855
4.590994 51.405567 -47.6154
3.364394 50.618698 -48.951629
3.768378 51.772175 -48.178855
3.866542 49.407686 -49.257196
3.050013 49.604109 -49.722421
3.364394 50.618698 -48.951629
4.816262 46.829055 -50.171509
4.038407 47.13176 -50.530977
4.330017 48.090393 -49.66852
-2.436481 44.587263 -53.164766
-1.656972 44.840723 -53.108931
-1.808479 47.413438 -52.223356
-2.738587 47.374491 -52.407055
1.473527 49.761482 -50.468437
2.266322 49.652925 -50.098259
1.473527 49.761482 -50.468437
1.133922 48.514742 -51.079407
-0.955391 47.467825 -52.1139
-0.108197 47.336327 -51.940815
-1.352543 46.079513 -52.611937
-1.808479 47.413438 -52.223356
-0.955391 47.467825 -52.1139
-0.803885 44.89511 -52.999474
-1.656972 44.840723 -53.108931
-1.352543 46.079513 -52.611937
-0.803885 44.89511 -52.999474
0.02587 44.890245 -52.98375
0.874534 44.898395 -52.814787
1.691736 45.102424 -52.609272
8.072314 51.244703 -43.247333
7.443276 51.84152 -43.986194
8.389187 49.845301 -43.584188
8.072314 51.244703 -43.247333
8.654301 50.626182 -42.611635
15.194365 37.054533 -50.678442
14.515634 37.60905 -51.368864
14.552975 37.679723 -50.034557
14.410666 36.744608 -35.428461
13.929202 38.078773 -34.958319
14.651573 36.720901 -36.763588
14.410666 36.744608 -35.428461
14.799195 36.655552 -38.037674
14.26062 37.81071 -37.43988
14.651573 36.720901 -36.763588
15.012686 36.632471 -39.22798
14.799195 36.655552 -38.037674
15.403638 35.542662 -38.551687
16.264284 34.597403 -40.326366
15.986625 34.473091 -38.909136
15.790714 35.579489 -41.097605
16.264284 34.597403 -40.326366
16.437869 34.657311 -41.681978
16.977845 34.997249 -45.831592
16.80043 34.864243 -44.438595
16.354855 35.786564 -46.537031
16.977845 34.997249 -45.831592
15.716573 36.645071 -47.226597
15.675023 36.536562 -45.904058
16.354855 35.786564 -46.537031
15.814055 36.510139 -48.601852
15.134224 37.260137 -47.968879
15.716573 36.645071 -47.226597
15.913447 36.484613 -49.978205
15.814055 36.510139 -48.601852
15.194365 37.054533 -50.678442
15.913447 36.484613 -49.978205
9.181207 51.987505 -40.583196
8.8969 51.271803 -41.53887
9.409299 52.667906 -39.54372
9.693797 53.443842 -38.592771
9.684465 51.198421 -39.763483
9.181207 51.987505 -40.583196
9.409299 52.667906 -39.54372
11.002592 52.855085 -34.892615
11.303489 51.744537 -34.046976
10.723703 52.27713 -35.923001
11.002592 52.855085 -34.892615
10.908666 50.742647 -36.103157
10.538731 51.68318 -36.989586
10.723703 52.27713 -35.923001
12.084532 46.474106 -32.876444
11.842128 47.595601 -33.755516
12.271521 44.898474 -33.143097
12.084532 46.474106 -32.876444
12.52221 43.494243 -33.41184
12.261442 44.715364 -34.257506
12.271521 44.898474 -33.143097
12.782056 42.109859 -33.792574
12.52221 43.494243 -33.41184
-3.257708 44.470396 -53.240746
-3.026858 45.90826 -52.797373
-2.436481 44.587263 -53.164766
-4.026841 44.237173 -53.237276
-3.257708 44.470396 -53.240746
-4.678711 45.610426 -52.920047
-4.026841 44.237173 -53.237276
7.11297 51.041922 -44.877325
6.749045 52.419621 -44.643632
7.443276 51.84152 -43.986194
5.581918 46.692785 -49.75618
5.863355 47.588131 -48.751188
6.337401 46.493227 -49.198317
4.816262 46.829055 -50.171509
5.581918 46.692785 -49.75618
7.719239 43.352356 -50.905834
8.249783 42.488315 -51.492397
7.504566 42.694637 -51.969166
7.241501 44.320771 -50.333861
7.986718 44.114449 -49.857092
7.719239 43.352356 -50.905834
6.782472 45.340372 -49.744213
7.241501 44.320771 -50.333861
11.018043 38.394249 -56.020842
11.213334 38.754851 -54.868089
10.131625 38.487589 -56.371071
11.018043 38.394249 -56.020842
9.292288 38.575762 -56.738401
9.560871 39.07671 -55.613729
10.131625 38.487589 -56.371071
9.020703 37.946041 -57.755623
8.804845 37.362364 -58.814276
8.449949 38.535162 -56.998282
9.292288 38.575762 -56.738401
9.020703 37.946041 -57.755623
5.909707 38.173405 -57.646004
6.194353 38.94006 -56.724039
6.752485 38.340668 -57.443678
6.269347 36.711861 -59.284067
7.092581 37.026635 -59.165022
5.610609 37.232169 -58.504157
6.269347 36.711861 -59.284067
5.412117 36.370016 -59.422581
5.052478 37.83156 -57.784517
5.909707 38.173405 -57.646004
5.610609 37.232169 -58.504157
4.217268 37.628172 -57.838059
5.052478 37.83156 -57.784517
4.217268 37.628172 -57.838059
3.965 36.596165 -58.562609
3 77 18 78
3 80 79 20
3 82 81 22
3 1 26 24
3 3 29 27
3 3 31 29
3 0 83 85
3 83 32 84
3 83 84 85
3 2 35 33
3 4 38 36
3 4 39 38
3 5 86 88
3 86 40 87
3 86 87 88
3 5 41 40
3 6 44 42
3 8 45 19
3 8 46 45
3 9 49 47
3 89 50 90
3 91 90 21
3 89 90 91
3 92 51 93
3 94 93 50
3 92 93 94
3 11 95 97
3 97 96 23
3 95 96 97
3 11 98 100
3 98 52 99
3 98 99 100
3 11 101 103
3 103 102 52
3 101 102 103
3 12 104 106
3 104 54 105
3 104 105 106
3 14 55 25
3 14 56 55
3 7 57 43
3 15 58 28
3 15 59 58
3 15 60 59
3 16 61 30
3 16 62 61
3 107 63 108
3 109 64 110
3 111 65 112
3 113 112 64
3 111 112 113
3 114 66 115
3 116 67 117
3 118 117 66
3 116 117 118
3 119 68 120
3 121 69 122
3 123 122 68
3 121 122 123
3 124 70 125
3 126 125 69
3 124 125 126
3 13 71 53
3 17 72 34
3 17 127 129
3 129 128 72
3 127 128 129
3 10 73 48
3 131 130 37
3 132 74 133
3 134 75 135
3 136 135 74
3 134 135 136
3 137 76 138
3 140 139 76
3 18 141 142
3 18 143 145
3 143 5 144
3 143 144 145
3 146 19 147
3 148 147 6
3 146 147 148
3 149 19 150
3 151 8 152
3 153 152 19
3 151 152 153
3 20 21 9
3 154 21 155
3 156 155 20
3 154 155 156
3 158 157 21
3 22 159 161
3 159 23 160
3 159 160 161
3 162 23 163
3 164 163 22
3 162 163 164
3 165 11 166
3 167 166 23
3 165 166 167
3 169 168 11
3 24 25 12
3 26 25 24
3 26 14 25
3 27 28 7
3 29 28 27
3 29 15 28
3 29 30 15
3 31 30 29
3 31 16 30
3 32 170 171
3 32 172 173
3 33 34 13
3 35 34 33
3 35 17 34
3 36 37 10
3 38 37 36
3 38 174 176
3 176 175 37
3 174 175 176
3 38 177 178
3 39 179 181
3 181 180 38
3 179 180 181
3 39 182 183
3 40 184 185
3 40 186 187
3 40 188 190
3 188 22 189
3 188 189 190
3 41 22 40
3 41 191 193
3 193 192 22
3 191 192 193
3 42 43 1
3 44 43 42
3 44 7 43
3 19 44 6
3 45 44 19
3 45 7 44
3 45 27 7
3 46 27 45
3 46 3 27
3 195 194 0
3 47 48 2
3 49 48 47
3 49 10 48
3 21 49 9
3 50 49 21
3 50 10 49
3 50 36 10
3 51 36 50
3 51 4 36
3 196 0 197
3 23 198 199
3 201 200 23
3 52 202 203
3 52 204 206
3 204 0 205
3 204 205 206
3 52 207 209
3 209 208 0
3 207 208 209
3 211 210 52
3 213 212 11
3 214 53 215
3 54 216 218
3 216 53 217
3 216 217 218
3 54 13 53
3 25 54 12
3 55 54 25
3 55 13 54
3 55 33 13
3 56 33 55
3 56 2 33
3 43 26 1
3 57 26 43
3 57 14 26
3 28 57 7
3 58 57 28
3 58 14 57
3 58 56 14
3 59 56 58
3 59 2 56
3 59 47 2
3 60 47 59
3 60 9 47
3 30 60 15
3 61 60 30
3 61 9 60
3 61 20 9
3 62 20 61
3 62 219 221
3 221 220 20
3 219 220 221
3 222 8 223
3 224 8 225
3 226 46 227
3 228 227 8
3 226 227 228
3 63 229 231
3 229 46 230
3 229 230 231
3 63 3 46
3 232 63 233
3 64 234 236
3 234 63 235
3 234 235 236
3 64 3 63
3 64 31 3
3 65 31 64
3 65 16 31
3 237 65 238
3 239 65 240
3 241 16 242
3 243 242 65
3 241 242 243
3 244 62 245
3 246 245 16
3 244 245 246
3 247 62 248
3 250 249 62
3 251 12 252
3 66 253 254
3 66 255 257
3 255 12 256
3 255 256 257
3 66 24 12
3 67 24 66
3 67 1 24
3 68 258 259
3 68 260 261
3 68 262 264
3 262 67 263
3 262 263 264
3 69 67 68
3 69 1 67
3 69 42 1
3 70 42 69
3 70 6 42
3 265 70 266
3 267 70 268
3 269 6 270
3 271 270 70
3 269 270 271
3 273 272 6
3 274 32 275
3 276 275 0
3 274 275 276
3 277 32 278
3 280 279 32
3 53 281 283
3 281 18 282
3 281 282 283
3 71 18 53
3 71 5 18
3 34 71 13
3 72 71 34
3 72 5 71
3 72 41 5
3 284 41 285
3 286 285 72
3 284 285 286
3 288 287 41
3 48 35 2
3 73 35 48
3 73 17 35
3 37 73 10
3 289 73 290
3 291 290 37
3 289 290 291
3 292 17 293
3 294 293 73
3 292 293 294
3 296 295 17
3 297 51 298
3 299 51 300
3 301 4 302
3 303 302 51
3 301 302 303
3 74 304 305
3 74 306 308
3 306 4 307
3 306 307 308
3 74 39 4
3 75 39 74
3 75 309 311
3 311 310 39
3 309 310 311
3 312 75 313
3 76 314 316
3 314 75 315
3 314 315 316
3 76 317 319
3 319 318 75
3 317 318 319
3 76 320 321
3 323 322 76
