ply
format ascii 1.0
element vertex 252
property float x
property float y
property float z
element face 252
property list uchar int vertex_index
end_header
-35.786701 -43.277035 20.051643
-32.757977 -42.375534 28.029186
-32.090153 -34.016129 31.186029
-36.693016 -35.222507 24.837915
-30.291883 -45.397324 29.220285
-30.707226 -41.432194 30.731134
-33.551647 -46.972687 21.595568
-32.145267 -50.410793 18.576178
-34.610695 -46.72879 16.894213
-34.692616 -34.605007 28.39769
-32.107094 -46.42466 25.912924
-34.482925 -43.067539 24.457907
-30.182961 -37.583218 32.08012
-29.22224 -33.951698 33.104973
-32.690239 -38.19949 29.835768
-34.890442 -38.908554 26.624008
-36.413857 -39.539013 22.797838
-37.494442 -39.451233 18.311321
-29.550619 -40.884499 31.817438
-34.753021 -45.046638 20.928299
-34.173851 -46.818802 19.351665
-35.265038 -45.003941 18.606007
-35.638165 -44.931793 16.085316
-36.244583 -43.209984 17.636999
-31.536337 -43.92926 28.693848
-31.307096 -45.878563 27.65309
-32.557396 -44.376144 26.975971
-33.340916 -44.921761 25.066978
-33.727291 -42.717842 26.29192
-28.332888 -35.853252 33.34985
-27.614107 -34.06012 33.891571
-31.149107 -35.887165 31.659674
-31.494761 -37.887096 31.036245
-32.451077 -36.114876 30.545197
-35.778927 -34.919861 26.710941
-34.840565 -36.803482 27.577749
-35.861469 -37.064003 25.74671
-35.790569 -39.068115 24.778715
-36.652409 -37.400921 23.788774
-29.018129 -46.645287 29.724621
-30.535831 -43.444454 30.03973
-31.688835 -42.029385 29.524349
-32.275539 -48.731438 22.383272
-31.652178 -50.392567 20.923384
-32.923763 -48.687984 20.127474
-33.453213 -48.494339 17.914227
-33.808044 -48.401329 15.350636
-34.964962 -46.495682 14.499435
-33.437035 -34.321434 29.906834
-30.001656 -47.347626 28.213957
-30.792917 -47.973888 26.582865
-31.658291 -48.338352 24.566601
-32.881954 -46.809315 23.819277
-34.057716 -45.097519 23.131559
-35.190575 -43.269474 22.313223
-29.382029 -39.189522 32.319241
-28.8575 -37.564793 32.86956
-29.781456 -35.768562 32.582504
-30.693499 -33.868919 32.232376
-30.194443 -31.893974 32.753441
-31.691046 -31.904329 31.743084
-30.574135 -39.51527 31.416849
-31.763634 -39.974598 30.245968
-32.874542 -40.253483 28.927032
-33.692806 -36.409054 29.199005
-33.852825 -38.48991 28.369801
-33.83519 -40.678631 27.419706
-34.778965 -40.954025 25.613325
-35.520947 -41.271748 23.662544
-36.143528 -41.502403 21.502798
-37.276829 -37.456566 21.859495
-37.020397 -39.547985 20.63674
-36.665131 -41.47554 19.282349
-37.057003 -41.382206 16.926514
-29.108764 -40.658384 32.154595
-29.031411 -41.425238 31.985383
-26.817336 -34.114434 34.22271
-27.185659 -35.049267 33.953882
-30.621529 -42.438324 30.385432
-30.043597 -43.068027 30.62293
-30.129295 -42.061898 30.968632
-35.812584 -44.763279 14.836186
-36.112402 -43.984083 15.617943
-31.488025 -51.247377 19.081081
-31.241481 -51.238264 20.254684
-31.898722 -50.40168 19.749781
-28.176609 -37.569777 33.189695
-28.513702 -38.382855 32.919611
-30.707816 -30.873804 32.516314
-29.929012 -30.906949 33.011816
-31.456117 -30.878982 32.011135
-30.942744 -31.899152 32.248263
-30.707816 -30.873804 32.516314
-32.24713 -30.936411 31.398114
-31.456117 -30.878982 32.011135
-37.621943 -36.4956 21.306435
-37.343417 -36.402247 22.389777
-37.257419 -39.499609 19.47403
-37.390884 -38.554218 20.156029
-37.627907 -38.505842 18.993319
-29.550991 -41.78805 31.511784
-29.031411 -41.425238 31.985383
-30.128923 -41.158347 31.274286
-30.129295 -42.061898 30.968632
-29.550991 -41.78805 31.511784
-36.415611 -43.123178 16.393785
-36.112402 -43.984083 15.617943
-35.941374 -44.070888 16.861157
-31.753708 -51.178368 17.779261
-32.390533 -50.287183 17.363636
-27.545049 -35.945833 33.683022
-27.914303 -36.714006 33.42984
-27.973498 -34.956686 33.620711
-27.545049 -35.945833 33.683022
-27.185659 -35.049267 33.953882
-37.792492 -38.503998 17.893324
-37.627907 -38.505842 18.993319
-37.633038 -39.446379 17.127366
-37.792492 -38.503998 17.893324
-28.474859 -46.229874 30.373905
-28.258097 -47.2654 30.00814
-29.162783 -45.641724 30.136975
-28.474859 -46.229874 30.373905
-29.799661 -45.017742 29.884806
-29.655006 -46.021305 29.472453
-29.162783 -45.641724 30.136975
-29.921635 -44.041308 30.294529
-30.043597 -43.068027 30.62293
-30.413857 -44.420889 29.630007
-29.799661 -45.017742 29.884806
-29.921635 -44.041308 30.294529
-31.963859 -49.562002 21.653328
-31.308554 -50.380022 22.030394
-31.620235 -49.549458 22.760339
-33.044506 -49.328956 17.03266
-32.390533 -50.287183 17.363636
-32.79924 -49.452566 18.245202
-33.221922 -49.282451 15.750865
-33.044506 -49.328956 17.03266
-33.630629 -48.447834 16.632431
-33.455247 -49.074705 14.46192
-33.221922 -49.282451 15.750865
-34.015562 -48.181011 14.102327
-33.455247 -49.074705 14.46192
-34.594021 -47.228188 13.676727
-34.015562 -48.181011 14.102327
-34.386503 -47.448505 14.925035
-35.127138 -46.298065 13.236667
-34.594021 -47.228188 13.676727
-35.475983 -45.545224 14.043246
-35.301564 -45.713738 15.292375
-35.812584 -44.763279 14.836186
-35.127138 -46.298065 13.236667
-35.475983 -45.545224 14.043246
-33.290183 -33.265457 30.203226
-32.763594 -34.168782 30.546432
-32.616742 -33.112804 30.842823
-33.933815 -33.362578 29.525681
-33.290183 -33.265457 30.203226
-34.561605 -33.504364 28.77111
-34.064825 -34.463221 29.152262
-33.933815 -33.362578 29.525681
-35.154303 -33.614339 27.978177
-34.561605 -33.504364 28.77111
-35.697458 -33.771766 27.134802
-35.235771 -34.762434 27.554316
-35.154303 -33.614339 27.978177
-36.178599 -33.992044 26.276112
-35.697458 -33.771766 27.134802
-36.635643 -34.143367 25.339599
-36.235972 -35.071184 25.774428
-36.178599 -33.992044 26.276112
-28.804868 -47.675039 29.259355
-28.258097 -47.2654 30.00814
-29.296632 -48.026209 28.504024
-28.804868 -47.675039 29.259355
-29.509892 -46.996457 28.969289
-29.711165 -48.429195 27.672752
-29.296632 -48.026209 28.504024
-30.106795 -48.742327 26.857205
-29.711165 -48.429195 27.672752
-30.397286 -47.660757 27.398411
-30.544965 -48.96295 25.90856
-30.106795 -48.742327 26.857205
-30.977652 -49.145181 24.900428
-30.544965 -48.96295 25.90856
-31.225604 -48.15612 25.574733
-31.311611 -49.352914 23.852003
-30.977652 -49.145181 24.900428
-31.966915 -48.534895 23.474936
-31.620235 -49.549458 22.760339
-31.311611 -49.352914 23.852003
-30.937481 -51.274783 21.336712
-31.308554 -50.380022 22.030394
-30.937481 -51.274783 21.336712
-31.241481 -51.238264 20.254684
-31.488025 -51.247377 19.081081
-31.753708 -51.178368 17.779261
-28.775966 -39.195219 32.644452
-29.02447 -39.810896 32.405497
-29.119765 -38.377157 32.5944
-28.775966 -39.195219 32.644452
-28.513702 -38.382855 32.919611
-28.595194 -36.709023 33.109705
-28.176609 -37.569777 33.189695
-27.914303 -36.714006 33.42984
-27.339849 -33.102522 34.127718
-26.817336 -34.114434 34.22271
-28.124285 -33.030508 33.757626
-27.339849 -33.102522 34.127718
-28.928352 -32.976297 33.364327
-28.418174 -34.005909 33.498272
-28.124285 -33.030508 33.757626
-29.414454 -31.947435 33.188561
-29.929012 -30.906949 33.011816
-29.708341 -32.922836 32.929207
-28.928352 -32.976297 33.364327
-29.414454 -31.947435 33.188561
-32.417188 -32.056905 31.12135
-32.616742 -33.112804 30.842823
-31.8906 -32.960229 31.464557
-32.417188 -32.056905 31.12135
-32.24713 -30.936411 31.398114
-29.466324 -40.03701 32.06834
-29.108764 -40.658384 32.154595
-29.02447 -39.810896 32.405497
-37.056576 -34.155832 24.397281
-36.635643 -34.143367 25.339599
-36.999203 -33.076693 24.898966
-37.05151 -35.285217 23.878987
-37.056576 -34.155832 24.397281
-37.031206 -36.374424 23.354416
-36.672713 -36.311714 24.313344
-37.05151 -35.285217 23.878987
-36.964619 -37.428743 22.824134
-37.031206 -36.374424 23.354416
-37.343417 -36.402247 22.389777
-37.519101 -37.508509 20.767406
-37.621943 -36.4956 21.306435
-37.148613 -38.502275 21.248117
-37.519101 -37.508509 20.767406
-37.390884 -38.554218 20.156029
-36.821821 -42.209289 16.038542
-36.415611 -43.123178 16.393785
-36.650793 -42.296095 17.281757
-37.414318 -40.411865 16.434963
-37.275723 -40.416719 17.618918
-37.633038 -39.446379 17.127366
-37.204059 -41.261763 15.714963
-37.414318 -40.411865 16.434963
-36.821821 -42.209289 16.038542
-37.204059 -41.261763 15.714963
3 74 18 75
3 0 21 19
3 0 23 21
3 1 26 24
3 1 28 26
3 76 30 77
3 2 33 31
3 3 36 34
3 3 38 36
3 5 78 80
3 78 40 79
3 78 79 80
3 5 41 40
3 6 44 42
3 8 45 20
3 8 46 45
3 8 47 46
3 82 81 22
3 4 49 39
3 10 50 25
3 10 51 50
3 10 52 51
3 11 53 27
3 11 54 53
3 7 83 85
3 85 84 43
3 83 84 85
3 86 56 87
3 13 57 29
3 13 58 57
3 88 59 89
3 90 60 91
3 92 91 59
3 90 91 92
3 94 93 60
3 12 61 55
3 14 62 32
3 14 63 62
3 9 64 48
3 15 65 35
3 15 66 65
3 15 67 66
3 16 68 37
3 16 69 68
3 95 70 96
3 17 97 99
3 97 71 98
3 97 98 99
3 17 72 71
3 17 73 72
3 18 100 101
3 18 102 104
3 102 5 103
3 102 103 104
3 19 20 6
3 21 20 19
3 21 8 20
3 21 22 8
3 23 22 21
3 23 105 107
3 107 106 22
3 105 106 107
3 24 25 4
3 26 25 24
3 26 10 25
3 26 27 10
3 28 27 26
3 28 11 27
3 109 108 7
3 110 29 111
3 30 112 114
3 112 29 113
3 112 113 114
3 30 13 29
3 31 32 12
3 33 32 31
3 33 14 32
3 34 35 9
3 36 35 34
3 36 15 35
3 36 37 15
3 38 37 36
3 38 16 37
3 115 17 116
3 118 117 17
3 119 39 120
3 121 39 122
3 123 4 124
3 125 124 39
3 123 124 125
3 40 126 127
3 40 128 130
3 128 4 129
3 128 129 130
3 40 24 4
3 41 24 40
3 41 1 24
3 42 131 133
3 131 43 132
3 131 132 133
3 44 43 42
3 44 7 43
3 20 44 6
3 45 44 20
3 45 7 44
3 45 134 136
3 136 135 7
3 134 135 136
3 46 137 139
3 139 138 45
3 137 138 139
3 46 140 141
3 46 142 143
3 47 144 146
3 146 145 46
3 144 145 146
3 47 147 148
3 22 47 8
3 149 47 150
3 151 150 22
3 149 150 151
3 153 152 47
3 154 48 155
3 156 155 2
3 154 155 156
3 157 48 158
3 159 9 160
3 161 160 48
3 159 160 161
3 162 9 163
3 164 34 165
3 166 165 9
3 164 165 166
3 167 34 168
3 169 3 170
3 171 170 34
3 169 170 171
3 39 172 173
3 49 174 176
3 176 175 39
3 174 175 176
3 49 177 178
3 25 49 4
3 50 49 25
3 50 179 181
3 181 180 49
3 179 180 181
3 50 182 183
3 51 184 186
3 186 185 50
3 184 185 186
3 51 187 188
3 51 189 191
3 189 42 190
3 189 190 191
3 52 42 51
3 52 6 42
3 27 52 10
3 53 52 27
3 53 6 52
3 53 19 6
3 54 19 53
3 54 0 19
3 43 192 193
3 195 194 43
3 197 196 7
3 198 55 199
3 56 200 202
3 200 55 201
3 200 201 202
3 56 12 55
3 29 203 205
3 203 56 204
3 203 204 205
3 57 56 29
3 57 12 56
3 57 31 12
3 58 31 57
3 58 2 31
3 206 30 207
3 208 30 209
3 210 13 211
3 212 211 30
3 210 211 212
3 59 213 214
3 59 215 217
3 215 13 216
3 215 216 217
3 59 58 13
3 60 58 59
3 60 2 58
3 60 218 220
3 220 219 2
3 218 219 220
3 222 221 60
3 55 223 225
3 223 18 224
3 223 224 225
3 61 18 55
3 61 5 18
3 32 61 12
3 62 61 32
3 62 5 61
3 62 41 5
3 63 41 62
3 63 1 41
3 48 33 2
3 64 33 48
3 64 14 33
3 35 64 9
3 65 64 35
3 65 14 64
3 65 63 14
3 66 63 65
3 66 1 63
3 66 28 1
3 67 28 66
3 67 11 28
3 37 67 15
3 68 67 37
3 68 11 67
3 68 54 11
3 69 54 68
3 69 0 54
3 226 3 227
3 226 227 228
3 229 3 230
3 231 38 232
3 233 232 3
3 231 232 233
3 70 234 236
3 234 38 235
3 234 235 236
3 70 16 38
3 237 70 238
3 71 239 241
3 239 70 240
3 239 240 241
3 71 16 70
3 71 69 16
3 72 69 71
3 72 0 69
3 72 23 0
3 73 23 72
3 73 242 244
3 244 243 23
3 242 243 244
3 245 73 246
3 247 246 17
3 245 246 247
3 248 73 249
3 251 250 73
