ply
format ascii 1.0
element vertex 242
property float x
property float y
property float z
element face 238
property list uchar int vertex_index
end_header
12.817087 -17.343248 49.885548
4.135614 -12.13059 59.07626
6.016594 -18.674139 56.747341
7.704626 -25.194916 52.28648
13.417678 -24.490799 45.472515
5.097715 -15.398157 58.124195
12.167231 -14.02774 51.61377
15.942482 -16.997883 46.597435
16.118858 -20.568651 44.772312
13.12428 -21.019276 47.817677
8.269996 -28.527481 49.513977
7.846816 -11.386353 56.044418
8.684786 -14.698462 54.959774
9.41444 -18.056213 53.402626
10.140843 -21.436495 51.188656
6.881826 -21.822416 54.86808
10.536965 -24.717312 48.843819
12.507751 -15.643501 50.816948
13.783772 -13.714239 49.996635
14.079217 -15.368703 49.201466
15.678853 -15.20767 47.540936
14.390539 -17.094971 48.233528
14.516489 -18.939236 47.286674
13.026464 -19.088751 48.902084
5.957028 -11.809107 57.619179
5.59165 -17.028368 57.469913
6.952125 -14.966324 56.533539
7.369805 -16.710365 55.852295
9.137611 -16.337784 54.179726
7.798002 -18.361347 55.026661
8.078602 -20.017088 54.195469
6.491523 -20.130072 55.87598
14.706029 -22.550602 45.185814
16.195604 -22.433672 43.731701
14.837501 -24.431904 43.987091
13.445151 -26.340841 44.337921
8.848519 -23.202618 51.885086
10.372181 -23.020149 50.062641
9.129229 -24.862999 50.598522
2.665261 -13.984228 60.199608
4.486352 -13.800805 58.756012
11.820767 -12.459173 52.271614
17.465202 -16.7826 45.120213
17.572969 -18.722448 44.205048
16.079395 -18.774784 45.682911
14.639814 -20.624765 46.307877
13.300106 -22.661705 46.690659
6.48509 -27.159231 52.837105
7.941648 -26.893776 50.986008
6.891244 -28.759459 51.346085
6.39167 -13.362322 57.187271
8.259077 -13.003939 55.575012
10.088446 -12.649834 53.923477
10.407265 -14.369671 53.33453
10.904031 -16.00721 52.428459
11.205385 -17.62607 51.583641
11.425893 -19.328333 50.649647
9.880536 -19.641945 52.303875
8.529753 -21.548481 53.068584
7.211898 -23.582157 53.730923
6.110287 -25.424841 54.228432
17.603418 -20.636032 43.299927
11.703352 -21.090332 49.470505
11.755582 -22.890448 48.40868
11.998279 -24.497948 47.136421
9.374726 -26.523771 49.250393
10.772861 -26.452747 47.442978
12.188868 -26.283529 45.792767
5.046321 -11.969848 58.347719
5.770803 -10.980545 57.764406
4.860095 -11.141286 58.492947
2.866038 -14.827983 60.00045
1.863268 -14.975559 60.785818
12.863357 -13.012454 51.107764
12.690126 -12.228171 51.436685
11.993999 -13.243457 51.942692
14.550898 -12.706267 49.425226
14.615427 -13.558052 49.162355
16.635669 -15.929231 46.272222
16.503854 -15.034125 46.743973
15.810668 -16.102777 47.069186
16.703842 -16.890242 45.858824
17.397029 -15.821589 45.533611
16.635669 -15.929231 46.272222
6.188205 -28.842338 52.300938
6.688167 -27.959345 52.091595
5.985128 -28.042224 53.046448
8.59641 -10.438761 55.416112
7.651543 -10.613243 56.217531
8.754637 -11.255865 55.251373
8.59641 -10.438761 55.416112
5.283929 -25.578114 55.184496
5.860248 -24.594767 54.89995
5.587236 -26.318027 54.470999
5.283929 -25.578114 55.184496
16.930492 -22.430568 43.060105
16.255421 -23.405984 43.167476
10.89953 -27.279047 46.755102
10.207353 -27.315744 47.635223
11.607533 -27.194438 45.929997
11.480864 -26.368138 46.617872
10.89953 -27.279047 46.755102
12.238977 -27.196329 45.176279
11.607533 -27.194438 45.929997
14.76315 -14.385284 48.76477
14.615427 -13.558052 49.162355
13.931494 -14.541471 49.599051
14.879035 -15.288187 48.371201
15.562968 -14.304768 47.934506
14.76315 -14.385284 48.76477
6.706649 -10.82462 57.004912
5.770803 -10.980545 57.764406
6.901922 -11.59773 56.831799
7.651543 -10.613243 56.217531
6.706649 -10.82462 57.004912
15.57637 -24.4051 43.295171
16.255421 -23.405984 43.167476
15.516552 -23.432788 43.859396
14.902821 -25.329804 43.425144
15.57637 -24.4051 43.295171
14.206646 -26.284272 43.600559
14.902821 -25.329804 43.425144
14.141326 -25.386373 44.162506
13.524358 -27.19193 43.765924
14.206646 -26.284272 43.600559
8.95592 -28.353111 48.670723
8.395869 -29.294403 48.850634
3.776584 -14.736271 59.278652
3.575807 -13.892516 59.47781
2.866038 -14.827983 60.00045
4.082265 -15.534947 58.962744
4.792034 -14.599481 58.440103
3.776584 -14.736271 59.278652
4.352149 -16.349289 58.660074
4.082265 -15.534947 58.962744
4.599116 -17.164395 58.332933
5.344682 -16.213262 57.797054
4.352149 -16.349289 58.660074
4.913498 -17.920708 57.941083
4.599116 -17.164395 58.332933
5.125971 -18.743594 57.579797
5.804122 -17.851253 57.108627
4.913498 -17.920708 57.941083
5.3782 -19.612639 57.152151
5.125971 -18.743594 57.579797
12.532607 -11.380719 51.711979
11.717999 -11.556266 52.479112
12.532607 -11.380719 51.711979
12.690126 -12.228171 51.436685
13.671628 -12.855704 50.299196
12.863357 -13.012454 51.107764
12.975502 -13.87099 50.805203
13.671628 -12.855704 50.299196
14.550898 -12.706267 49.425226
16.343412 -14.227621 47.14546
15.562968 -14.304768 47.934506
16.343412 -14.227621 47.14546
16.503854 -15.034125 46.743973
18.117156 -15.746864 44.846937
17.397029 -15.821589 45.533611
18.204718 -16.731157 44.427058
18.117156 -15.746864 44.846937
17.519086 -17.752524 44.66263
18.258602 -17.701081 43.969475
18.204718 -16.731157 44.427058
6.34076 -29.703275 51.59994
6.188205 -28.842338 52.300938
7.015909 -29.571762 50.672647
6.34076 -29.703275 51.59994
7.705285 -29.455773 49.756593
7.58062 -28.64347 50.430031
7.015909 -29.571762 50.672647
8.395869 -29.294403 48.850634
7.705285 -29.455773 49.756593
8.960767 -12.064658 55.01667
8.754637 -11.255865 55.251373
8.052946 -12.195146 55.809715
9.875452 -11.887605 54.190902
8.960767 -12.064658 55.01667
9.173761 -12.826887 54.749245
10.851838 -11.651596 53.305044
9.875452 -11.887605 54.190902
10.954607 -12.554503 53.097545
11.717999 -11.556266 52.479112
10.851838 -11.651596 53.305044
5.615664 -20.340605 56.71647
6.254059 -19.402105 56.311661
5.3782 -19.612639 57.152151
5.891608 -21.118201 56.204673
5.615664 -20.340605 56.71647
6.086759 -21.964374 55.700723
6.686675 -20.976244 55.37203
5.891608 -21.118201 56.204673
6.246018 -22.793555 55.219774
6.086759 -21.964374 55.700723
6.411054 -23.673426 54.651196
7.046862 -22.702286 54.299501
6.246018 -22.793555 55.219774
6.661092 -24.503499 53.979677
6.411054 -23.673426 54.651196
5.860248 -24.594767 54.89995
5.774637 -27.185221 53.775335
6.297688 -26.292036 53.532769
5.587236 -26.318027 54.470999
5.985128 -28.042224 53.046448
5.774637 -27.185221 53.775335
3.903955 -11.299864 59.235355
4.860095 -11.141286 58.492947
3.118258 -12.264416 59.85198
3.903955 -11.299864 59.235355
2.383081 -13.191235 60.413654
3.400438 -13.057409 59.637934
3.118258 -12.264416 59.85198
1.642072 -14.132606 60.968851
2.383081 -13.191235 60.413654
1.863268 -14.975559 60.785818
1.642072 -14.132606 60.968851
18.324913 -18.669066 43.533268
18.258602 -17.701081 43.969475
18.340138 -19.625858 43.080708
18.324913 -18.669066 43.533268
17.588194 -19.67924 43.752488
18.370922 -20.548035 42.670038
19.107641 -19.537861 42.450819
18.340138 -19.625858 43.080708
17.634399 -21.531748 42.844217
16.899511 -21.534852 43.515814
16.930492 -22.430568 43.060105
18.370922 -20.548035 42.670038
17.634399 -21.531748 42.844217
9.508285 -27.351256 48.538931
8.822361 -27.525626 49.382185
8.95592 -28.353111 48.670723
10.073794 -26.488259 48.346685
9.508285 -27.351256 48.538931
10.207353 -27.315744 47.635223
12.867119 -27.224985 44.448857
12.817009 -26.312185 45.065344
12.238977 -27.196329 45.176279
12.946325 -28.076074 43.87686
13.524358 -27.19193 43.765924
12.867119 -27.224985 44.448857
3 0 19 17
3 0 21 19
3 0 23 21
3 1 68 70
3 68 24 69
3 68 69 70
3 2 27 25
3 2 29 27
3 2 31 29
3 4 34 32
3 4 35 34
3 3 38 36
3 72 71 39
3 6 73 75
3 75 74 41
3 73 74 75
3 77 76 18
3 7 78 80
3 80 79 20
3 78 79 80
3 7 81 83
3 81 42 82
3 81 82 83
3 7 44 42
3 9 45 22
3 9 46 45
3 84 49 85
3 86 85 47
3 84 85 86
3 11 87 88
3 11 89 90
3 5 50 40
3 12 51 26
3 12 52 51
3 12 53 52
3 13 54 28
3 13 55 54
3 13 57 55
3 15 58 30
3 15 59 58
3 91 60 92
3 94 93 60
3 8 61 43
3 96 95 33
3 14 62 56
3 16 63 37
3 16 64 63
3 10 65 48
3 97 66 98
3 99 67 100
3 101 100 66
3 99 100 101
3 103 102 67
3 17 18 6
3 19 18 17
3 19 104 106
3 106 105 18
3 104 105 106
3 19 107 109
3 107 20 108
3 107 108 109
3 21 20 19
3 21 7 20
3 21 22 7
3 23 22 21
3 23 9 22
3 24 110 111
3 24 112 114
3 112 11 113
3 112 113 114
3 25 26 5
3 27 26 25
3 27 12 26
3 27 28 12
3 29 28 27
3 29 13 28
3 29 30 13
3 31 30 29
3 31 15 30
3 32 33 8
3 34 33 32
3 34 115 117
3 117 116 33
3 115 116 117
3 34 118 119
3 35 120 122
3 122 121 34
3 120 121 122
3 35 123 124
3 36 37 14
3 38 37 36
3 38 16 37
3 126 125 10
3 39 40 1
3 127 40 128
3 129 128 39
3 127 128 129
3 130 5 131
3 132 131 40
3 130 131 132
3 133 5 134
3 135 25 136
3 137 136 5
3 135 136 137
3 138 25 139
3 140 2 141
3 142 141 25
3 140 141 142
3 144 143 2
3 41 145 146
3 148 147 41
3 18 149 151
3 151 150 6
3 149 150 151
3 153 152 18
3 20 154 155
3 157 156 20
3 42 158 159
3 42 160 161
3 42 162 164
3 162 43 163
3 162 163 164
3 44 43 42
3 44 8 43
3 22 44 7
3 45 44 22
3 45 8 44
3 45 32 8
3 46 32 45
3 46 4 32
3 47 48 3
3 49 48 47
3 49 10 48
3 165 49 166
3 167 49 168
3 169 10 170
3 171 170 49
3 169 170 171
3 173 172 10
3 40 24 1
3 50 24 40
3 50 11 24
3 26 50 5
3 51 50 26
3 51 11 50
3 51 174 176
3 176 175 11
3 174 175 176
3 52 177 179
3 179 178 51
3 177 178 179
3 52 180 181
3 52 182 184
3 182 41 183
3 182 183 184
3 53 41 52
3 53 6 41
3 28 53 12
3 54 53 28
3 54 6 53
3 54 17 6
3 55 17 54
3 55 0 17
3 55 56 0
3 57 56 55
3 57 14 56
3 30 57 13
3 58 57 30
3 58 14 57
3 58 36 14
3 59 36 58
3 59 3 36
3 185 31 186
3 187 186 2
3 185 186 187
3 188 31 189
3 190 15 191
3 192 191 31
3 190 191 192
3 193 15 194
3 195 59 196
3 197 196 15
3 195 196 197
3 60 198 200
3 198 59 199
3 198 199 200
3 60 3 59
3 60 47 3
3 201 47 202
3 203 202 60
3 201 202 203
3 205 204 47
3 206 1 207
3 208 1 209
3 210 39 211
3 212 211 1
3 210 211 212
3 213 39 214
3 216 215 39
3 43 217 218
3 61 219 221
3 221 220 43
3 219 220 221
3 61 222 224
3 222 223 224
3 33 61 8
3 225 61 226
3 227 226 33
3 225 226 227
3 229 228 61
3 56 23 0
3 62 23 56
3 62 9 23
3 37 62 14
3 63 62 37
3 63 9 62
3 63 46 9
3 64 46 63
3 64 4 46
3 48 38 3
3 65 38 48
3 65 16 38
3 230 65 231
3 232 231 10
3 230 231 232
3 66 233 235
3 233 65 234
3 233 234 235
3 66 16 65
3 66 64 16
3 67 64 66
3 67 4 64
3 67 35 4
3 236 35 237
3 238 237 67
3 236 237 238
3 241 240 35
3 239 240 241
