ply
format ascii 1.0
element vertex 232
property float x
property float y
property float z
element face 213
property list uchar int vertex_index
end_header
19.460794 -35.967686 -27.964001
9.896015 -36.803749 -38.542763
4.474018 -28.330954 -45.362991
12.920426 -40.419186 -35.197998
2.972758 -30.315971 -47.140476
2.176239 -23.441504 -49.057457
14.369769 -37.285191 -33.409447
11.448619 -34.12759 -36.592968
8.582203 -30.703056 -39.91106
5.929104 -26.74507 -43.39579
7.130352 -33.014774 -41.797718
5.591346 -35.092548 -43.753754
3.605855 -22.09244 -47.097912
2.037019 -30.847561 -48.121201
1.652712 -27.496544 -49.081059
0.734063 -28.094727 -49.976421
11.421333 -38.734562 -36.847416
12.06302 -37.118362 -35.980076
10.57549 -35.518318 -37.635612
9.976767 -32.418808 -38.255642
9.174673 -33.576511 -39.238201
7.774426 -31.62042 -40.932674
8.497135 -34.905781 -40.150379
7.117887 -37.484047 -41.974739
4.901145 -36.340462 -44.513298
5.148866 -27.300068 -44.465477
4.693485 -24.333055 -45.265633
4.01611 -25.224817 -46.199638
9.27484 -38.354111 -39.426334
3.730483 -29.231882 -46.298523
3.280348 -25.801311 -47.207577
2.56385 -26.783707 -48.062122
1.48949 -24.386539 -49.825985
18.357813 -37.887463 -29.013542
16.834236 -36.595184 -30.77832
15.352971 -35.365559 -32.414837
13.81737 -34.095699 -34.068417
13.617902 -38.886517 -34.284988
12.937631 -35.625832 -34.962631
12.239736 -32.67281 -35.768799
10.690056 -31.036295 -37.485748
9.30476 -29.352339 -39.092964
7.985895 -27.706898 -40.711697
6.658536 -25.812624 -42.471973
7.221211 -28.751331 -41.634155
6.416376 -29.724216 -42.685398
5.749111 -30.73403 -43.574879
7.845899 -36.306568 -41.040562
6.371161 -34.150986 -42.792042
5.024193 -31.779104 -44.501469
4.260169 -32.648827 -45.416012
3.424856 -33.767197 -46.281246
5.43125 -23.603191 -44.272083
4.310408 -21.395643 -46.103458
2.936696 -22.747971 -48.047783
19.356305 -34.523783 -28.273987
20.128301 -34.913355 -27.366224
0.901841 -29.922739 -49.456112
1.385541 -29.471144 -49.048811
1.553319 -31.299155 -48.528502
0.210085 -28.504955 -50.385332
0.901841 -29.922739 -49.456112
1.023555 -24.517455 -50.366272
1.571101 -25.941541 -49.453522
1.105166 -26.072457 -49.993809
0.948703 -22.966398 -50.819298
1.023555 -24.517455 -50.366272
17.106945 -38.14689 -30.40525
17.596024 -37.241324 -29.895931
17.868733 -38.79303 -29.522861
14.86137 -36.325375 -32.912142
15.602308 -36.89069 -32.096698
15.110707 -37.850506 -32.594003
13.269164 -39.652851 -34.741493
14.012183 -40.524146 -33.925697
13.663445 -41.29048 -34.382202
8.227415 -38.12668 -40.691033
8.56037 -37.33034 -40.233448
8.941886 -39.150452 -39.883919
3.684321 -35.550596 -45.86296
4.163 -35.05383 -45.397272
4.422465 -36.837229 -44.978986
2.95022 -34.291922 -46.705238
3.684321 -35.550596 -45.86296
3.468216 -20.617088 -47.510919
3.820492 -20.268689 -47.013693
3.958131 -21.744042 -46.600685
0.645841 -26.371549 -50.44149
1.105166 -26.072457 -49.993809
1.193388 -27.795635 -49.52874
0.142918 -26.703285 -50.895427
0.645841 -26.371549 -50.44149
0.142918 -26.703285 -50.895427
0.210085 -28.504955 -50.385332
14.768648 -38.83477 -32.991633
15.110707 -37.850506 -32.594003
7.501901 -39.341694 -41.604696
7.863409 -38.71542 -41.158121
6.748782 -38.182813 -42.409981
7.501901 -39.341694 -41.604696
5.985512 -36.987064 -43.299488
6.354616 -36.288297 -42.864247
6.748782 -38.182813 -42.409981
5.640411 -37.611021 -43.67926
5.246245 -35.716505 -44.133526
5.985512 -36.987064 -43.299488
5.203385 -38.233671 -44.130287
5.640411 -37.611021 -43.67926
4.422465 -36.837229 -44.978986
5.203385 -38.233671 -44.130287
2.054178 -21.875774 -49.502863
1.677064 -22.168602 -49.996361
13.366747 -42.255764 -34.834089
13.663445 -41.29048 -34.382202
12.644692 -41.355629 -35.621094
13.366747 -42.255764 -34.834089
11.895145 -40.513317 -36.445802
12.17088 -39.576874 -36.022707
12.644692 -41.355629 -35.621094
11.107242 -39.524406 -37.301603
11.895145 -40.513317 -36.445802
10.344583 -38.559 -38.149277
10.658674 -37.769155 -37.69509
11.107242 -39.524406 -37.301603
10.033996 -39.334181 -38.591062
9.585427 -37.57893 -38.984549
10.344583 -38.559 -38.149277
9.71587 -40.112891 -39.046369
10.033996 -39.334181 -38.591062
8.941886 -39.150452 -39.883919
9.71587 -40.112891 -39.046369
1.333689 -22.64112 -50.380625
1.677064 -22.168602 -49.996361
1.832864 -23.914021 -49.441721
1.333689 -22.64112 -50.380625
0.948703 -22.966398 -50.819298
18.179765 -36.321632 -29.351979
18.731255 -35.361744 -28.827208
18.909304 -36.927574 -28.488771
17.417977 -35.675493 -30.234368
18.179765 -36.321632 -29.351979
17.596024 -37.241324 -29.895931
16.615187 -35.088516 -31.128247
17.417977 -35.675493 -30.234368
16.342941 -37.505503 -31.27844
17.106945 -38.14689 -30.40525
16.093604 -35.980372 -31.596578
16.342941 -37.505503 -31.27844
15.602308 -36.89069 -32.096698
15.874554 -34.473703 -31.946506
16.615187 -35.088516 -31.128247
16.093604 -35.980372 -31.596578
15.065571 -33.88912 -32.816248
15.874554 -34.473703 -31.946506
14.297771 -33.25419 -33.643038
15.065571 -33.88912 -32.816248
14.585171 -34.730629 -33.241627
13.502549 -32.586619 -34.493095
14.297771 -33.25419 -33.643038
14.392714 -39.635433 -33.429403
14.012183 -40.524146 -33.925697
13.993835 -38.085854 -33.847217
14.768648 -38.83477 -32.991633
14.392714 -39.635433 -33.429403
12.713732 -31.875174 -35.343287
13.502549 -32.586619 -34.493095
13.028553 -33.384254 -34.918608
11.948029 -31.241414 -36.16516
12.713732 -31.875174 -35.343287
11.173189 -30.423157 -37.023634
11.948029 -31.241414 -36.16516
11.464896 -31.854552 -36.627274
10.440863 -29.557439 -37.855372
11.173189 -30.423157 -37.023634
9.748216 -28.715461 -38.65898
10.440863 -29.557439 -37.855372
9.997408 -30.194317 -38.289356
9.048644 -27.971037 -39.482181
9.748216 -28.715461 -38.65898
8.389212 -27.148316 -40.291548
9.048644 -27.971037 -39.482181
8.645328 -28.529618 -39.902331
7.713614 -26.213239 -41.160048
8.389212 -27.148316 -40.291548
7.322216 -26.759761 -41.591835
7.049934 -25.266102 -42.040185
7.713614 -26.213239 -41.160048
7.481893 -36.895308 -41.50765
8.227415 -38.12668 -40.691033
7.863409 -38.71542 -41.158121
2.256301 -32.832104 -47.625215
2.730938 -32.307379 -47.201223
2.95022 -34.291922 -46.705238
1.553319 -31.299155 -48.528502
2.256301 -32.832104 -47.625215
20.166469 -36.402216 -27.08671
20.128301 -34.913355 -27.366224
19.623912 -37.43026 -27.613248
20.166469 -36.402216 -27.08671
19.072422 -38.390148 -28.138019
18.909304 -36.927574 -28.488771
19.623912 -37.43026 -27.613248
18.586886 -39.444794 -28.64758
19.072422 -38.390148 -28.138019
17.868733 -38.79303 -29.522861
18.586886 -39.444794 -28.64758
19.356305 -34.523783 -28.273987
18.731255 -35.361744 -28.827208
6.426831 -24.274496 -42.919485
7.049934 -25.266102 -42.040185
5.813188 -23.169779 -43.81954
6.426831 -24.274496 -42.919485
6.044893 -24.707907 -43.372028
5.246178 -22.114841 -44.710184
5.813188 -23.169779 -43.81954
4.685757 -21.011067 -45.625872
5.246178 -22.114841 -44.710184
4.870829 -22.499417 -45.18777
4.181645 -20.087701 -46.491144
4.685757 -21.011067 -45.625872
4.181645 -20.087701 -46.491144
3.820492 -20.268689 -47.013693
2.434407 -21.529008 -48.998026
2.556468 -23.094738 -48.55262
2.054178 -21.875774 -49.502863
2.79457 -21.230632 -48.483419
2.434407 -21.529008 -48.998026
3.12915 -20.902867 -48.008484
3.271275 -22.420206 -47.572848
2.79457 -21.230632 -48.483419
3.468216 -20.617088 -47.510919
3.12915 -20.902867 -48.008484
3 0 55 56
3 57 15 58
3 59 58 13
3 57 58 59
3 61 60 15
3 1 18 16
3 1 20 18
3 1 22 20
3 2 27 25
3 4 31 29
3 62 32 63
3 64 63 14
3 62 63 64
3 66 65 32
3 67 34 68
3 69 68 33
3 67 68 69
3 6 70 72
3 70 35 71
3 70 71 72
3 6 36 35
3 3 73 75
3 73 37 74
3 73 74 75
3 7 38 17
3 7 39 38
3 7 40 39
3 8 41 19
3 8 42 41
3 8 44 42
3 10 45 21
3 10 46 45
3 76 47 77
3 78 77 28
3 76 77 78
3 11 48 23
3 11 49 48
3 11 50 49
3 79 51 80
3 81 80 24
3 79 80 81
3 83 82 51
3 9 52 43
3 12 53 26
3 12 84 86
3 86 85 53
3 84 85 86
3 5 54 30
3 13 14 4
3 15 14 13
3 15 87 89
3 89 88 14
3 87 88 89
3 15 90 91
3 93 92 15
3 94 6 95
3 16 17 3
3 18 17 16
3 18 7 17
3 18 19 7
3 20 19 18
3 20 8 19
3 20 21 8
3 22 21 20
3 22 10 21
3 96 23 97
3 98 23 99
3 100 11 101
3 102 101 23
3 100 101 102
3 103 24 104
3 105 104 11
3 103 104 105
3 106 24 107
3 109 108 24
3 25 26 9
3 27 26 25
3 27 12 26
3 111 110 5
3 112 3 113
3 114 3 115
3 116 16 117
3 118 117 3
3 116 117 118
3 119 16 120
3 121 1 122
3 123 122 16
3 121 122 123
3 124 28 125
3 126 125 1
3 124 125 126
3 127 28 128
3 130 129 28
3 29 30 2
3 31 30 29
3 31 5 30
3 14 31 4
3 32 31 14
3 32 5 31
3 32 131 133
3 133 132 5
3 131 132 133
3 135 134 32
3 33 136 138
3 138 137 0
3 136 137 138
3 34 139 141
3 141 140 33
3 139 140 141
3 34 142 143
3 144 34 145
3 35 146 148
3 146 34 147
3 146 147 148
3 35 149 151
3 151 150 34
3 149 150 151
3 35 152 153
3 36 154 156
3 156 155 35
3 154 155 156
3 36 157 158
3 37 159 160
3 37 161 163
3 161 6 162
3 161 162 163
3 17 37 3
3 38 37 17
3 38 6 37
3 38 36 6
3 39 36 38
3 39 164 166
3 166 165 36
3 164 165 166
3 39 167 168
3 40 169 171
3 171 170 39
3 169 170 171
3 40 172 173
3 19 40 7
3 41 40 19
3 41 174 176
3 176 175 40
3 174 175 176
3 41 177 178
3 42 179 181
3 181 180 41
3 179 180 181
3 42 182 183
3 42 184 186
3 184 43 185
3 184 185 186
3 44 43 42
3 44 9 43
3 21 44 8
3 45 44 21
3 45 9 44
3 45 25 9
3 46 25 45
3 46 2 25
3 28 22 1
3 47 22 28
3 47 10 22
3 23 187 189
3 187 47 188
3 187 188 189
3 48 47 23
3 48 10 47
3 48 46 10
3 49 46 48
3 49 2 46
3 49 29 2
3 50 29 49
3 50 4 29
3 24 50 11
3 51 50 24
3 51 4 50
3 51 13 4
3 190 13 191
3 192 191 51
3 190 191 192
3 194 193 13
3 195 0 196
3 197 0 198
3 199 33 200
3 201 200 0
3 199 200 201
3 202 33 203
3 205 204 33
3 207 206 0
3 43 208 209
3 52 210 212
3 212 211 43
3 210 211 212
3 52 213 214
3 26 52 9
3 53 52 26
3 53 215 217
3 217 216 52
3 215 216 217
3 53 218 219
3 221 220 53
3 30 27 2
3 54 27 30
3 54 12 27
3 222 54 223
3 224 223 5
3 222 223 224
3 225 54 226
3 227 12 228
3 229 228 54
3 227 228 229
3 231 230 12
