ply
format ascii 1.0
element vertex 262
property float x
property float y
property float z
element face 253
property list uchar int vertex_index
end_header
37.902103 -32.411079 -27.921299
36.822697 -30.017202 -17.420744
38.071762 -25.470959 -25.247976
35.876553 -35.113304 -20.041637
38.27319 -26.724535 -12.04682
35.709129 -33.89146 -15.439358
36.25494 -32.307251 -18.899992
37.984051 -28.551113 -26.680132
37.868092 -25.734804 -19.164539
37.375072 -27.781973 -21.241798
37.036289 -30.51329 -22.662651
36.87178 -33.734352 -23.932892
38.772884 -22.542479 -13.309687
38.424934 -23.9746 -16.601873
37.535172 -28.265974 -15.061727
36.390568 -32.237465 -13.449734
36.593346 -38.031059 -24.812756
35.418777 -34.93618 -16.034906
37.933983 -30.532434 -27.30513
38.465782 -29.497738 -29.425781
37.367466 -27.927017 -18.249331
37.624691 -26.599373 -20.255714
37.09026 -28.874237 -19.35195
36.037521 -33.661015 -19.474178
36.621544 -31.409046 -20.743166
36.46199 -32.839878 -21.309097
36.938889 -32.050423 -23.290968
36.360657 -34.443771 -21.985744
38.155174 -24.218174 -24.248474
38.502285 -22.720503 -26.261049
38.566353 -25.949528 -10.518477
38.765919 -23.907677 -11.171582
38.597328 -24.572464 -12.883604
38.631142 -23.290468 -15.084424
38.321812 -25.481667 -14.314978
38.031174 -26.115572 -15.882854
37.917114 -27.474802 -13.631995
36.074314 -38.174141 -22.78797
36.263973 -32.019909 -16.387096
36.526966 -31.061703 -18.298977
35.978252 -33.031269 -17.140909
35.707726 -34.251732 -17.685534
35.463791 -35.684399 -18.156181
38.002483 -26.91572 -25.905462
38.441395 -25.822847 -27.894987
37.821873 -28.757908 -11.375665
38.099689 -24.274487 -21.295282
37.860794 -25.488867 -22.2701
37.698925 -26.667019 -23.226835
36.836147 -30.063553 -20.116169
37.173988 -29.088446 -21.972216
37.564995 -28.056934 -23.910715
37.532295 -29.371637 -24.722137
37.433105 -31.251705 -25.265486
37.395191 -33.107697 -25.958776
38.152603 -24.816299 -17.992172
37.689419 -27.004026 -17.164463
37.15218 -29.136955 -16.314533
37.394699 -29.52298 -12.895824
36.975624 -30.286966 -14.315654
36.594162 -31.123703 -15.45218
36.026207 -33.028038 -14.495897
35.247875 -37.25861 -18.556471
35.721539 -36.70295 -20.473467
36.185459 -36.318611 -22.300154
36.74234 -35.716465 -24.346094
37.287708 -35.142746 -26.383141
37.182198 -37.264591 -26.899345
37.842197 -34.421215 -28.495615
38.157907 -31.963607 -28.932499
38.439747 -30.506936 -29.68474
38.183943 -30.954408 -28.67354
35.448128 -35.147816 -17.126053
35.563251 -34.593956 -16.86022
35.303653 -35.49004 -16.300739
35.326161 -35.864149 -17.361376
35.585758 -34.968065 -17.920858
35.448128 -35.147816 -17.126053
37.983891 -25.004646 -20.229911
38.199024 -23.882126 -20.673107
38.083225 -24.612285 -19.607736
38.782077 -22.254155 -12.444797
38.778595 -22.936754 -11.375745
38.769402 -23.225078 -12.240635
38.773481 -21.562891 -13.532091
38.782077 -22.254155 -12.444797
38.78214 -21.887393 -14.430417
38.773481 -21.562891 -13.532091
38.57019 -22.823615 -16.927729
38.673294 -22.481549 -16.169005
38.528038 -23.632534 -15.843149
38.477827 -23.276795 -17.637276
38.57019 -22.823615 -16.927729
38.288769 -24.395449 -17.297023
38.341662 -23.697644 -18.332426
38.477827 -23.276795 -17.637276
37.334637 -30.130533 -11.783961
37.608286 -29.140444 -12.135744
37.548223 -29.747996 -11.023881
36.683096 -31.262215 -13.882694
36.902851 -30.849226 -13.272492
36.610323 -31.824475 -12.839532
34.932467 -38.250016 -17.764885
35.069328 -37.419565 -17.659279
35.59934 -37.729624 -20.561422
35.374056 -37.847263 -19.648963
35.8313 -37.537454 -21.474765
35.953499 -36.51078 -21.38681
35.59934 -37.729624 -20.561422
37.440562 -37.017686 -27.943843
37.060709 -38.541505 -27.062323
37.319073 -38.294601 -28.10682
37.770561 -35.595998 -28.741978
37.512197 -35.842903 -27.69748
37.440562 -37.017686 -27.943843
38.080749 -34.147562 -29.512456
37.770561 -35.595998 -28.741978
35.311071 -35.236889 -15.232401
35.563953 -34.41382 -15.737132
35.456247 -34.714529 -14.934628
35.179045 -35.723702 -15.475466
35.311071 -35.236889 -15.232401
35.303653 -35.49004 -16.300739
35.179045 -35.723702 -15.475466
38.190066 -29.06532 -27.968437
38.2151 -28.07466 -27.655938
37.959017 -29.541773 -26.992631
38.455965 -28.547973 -29.028762
38.190066 -29.06532 -27.968437
38.199883 -30.015086 -28.365455
38.701877 -27.958914 -30.08268
38.455965 -28.547973 -29.028762
38.703325 -29.051982 -30.454949
38.701877 -27.958914 -30.08268
38.703325 -29.051982 -30.454949
38.439747 -30.506936 -29.68474
38.367973 -22.864736 -24.724648
38.240132 -23.58012 -23.747245
38.541528 -22.115901 -25.730935
38.367973 -22.864736 -24.724648
38.32873 -23.469338 -25.254762
38.682577 -21.382727 -26.748933
38.541528 -22.115901 -25.730935
38.666136 -24.928603 -10.84503
38.773647 -24.578775 -9.937172
38.673865 -25.5997 -9.61062
36.320352 -32.7519 -12.388696
36.610323 -31.824475 -12.839532
36.108252 -33.148844 -12.941638
36.320352 -32.7519 -12.388696
35.69713 -39.414627 -21.91666
35.775728 -38.46522 -21.718673
35.95151 -39.330782 -22.878556
35.69713 -39.414627 -21.91666
36.211025 -39.259241 -23.890949
36.33383 -38.1026 -23.800363
35.95151 -39.330782 -22.878556
38.231967 -25.551232 -26.534707
38.266607 -24.828851 -26.205964
38.037122 -26.19334 -25.576719
38.451424 -25.004795 -27.529469
38.231967 -25.551232 -26.534707
38.221939 -26.369284 -26.900225
38.643244 -24.389014 -28.475151
38.451424 -25.004795 -27.529469
38.443771 -26.710527 -28.263365
38.212723 -27.18698 -27.28756
38.2151 -28.07466 -27.655938
38.666771 -25.194364 -28.90607
38.443771 -26.710527 -28.263365
38.643244 -24.389014 -28.475151
38.666771 -25.194364 -28.90607
38.554913 -26.591873 -9.364374
38.673865 -25.5997 -9.61062
38.394747 -26.978763 -10.116228
38.554913 -26.591873 -9.364374
38.248165 -27.366267 -10.880399
38.419771 -26.337032 -11.282649
38.394747 -26.978763 -10.116228
38.022507 -28.382953 -10.544821
38.047531 -27.741222 -11.711243
38.248165 -27.366267 -10.880399
37.792687 -29.301248 -10.308504
38.022507 -28.382953 -10.544821
37.548223 -29.747996 -11.023881
37.792687 -29.301248 -10.308504
38.304281 -23.073992 -21.701549
38.403616 -22.681631 -21.079375
38.199024 -23.882126 -20.673107
38.212389 -23.608277 -22.270649
38.416981 -22.407781 -22.676917
38.304281 -23.073992 -21.701549
38.092941 -24.215466 -22.758058
38.212389 -23.608277 -22.270649
37.980241 -24.881677 -21.782691
38.007984 -24.853521 -23.259287
38.240132 -23.58012 -23.747245
38.092941 -24.215466 -22.758058
38.481869 -23.453623 -26.7125
38.287024 -24.095731 -25.754513
38.266607 -24.828851 -26.205964
38.677273 -22.008046 -27.2629
38.481869 -23.453623 -26.7125
38.857565 -20.670269 -27.750784
38.682577 -21.382727 -26.748933
38.677273 -22.008046 -27.2629
38.796127 -23.599753 -10.257722
38.803856 -24.270851 -9.023312
38.773647 -24.578775 -9.937172
38.796127 -23.599753 -10.257722
38.778595 -22.936754 -11.375745
38.71127 -22.261387 -15.317785
38.78214 -21.887393 -14.430417
38.702013 -22.916474 -14.197056
38.71127 -22.261387 -15.317785
38.673294 -22.481549 -16.169005
38.225481 -24.153032 -19.021552
38.341662 -23.697644 -18.332426
38.010347 -25.275551 -18.578356
38.083225 -24.612285 -19.607736
38.225481 -24.153032 -19.021552
37.112389 -30.467233 -12.562577
37.334637 -30.130533 -11.783961
37.185162 -29.904973 -13.605739
37.112389 -30.467233 -12.562577
36.902851 -30.849226 -13.272492
35.926071 -33.544131 -13.464719
36.208388 -32.632751 -13.972815
36.108252 -33.148844 -12.941638
35.75365 -33.900418 -14.030363
35.926071 -33.544131 -13.464719
35.595112 -34.332128 -14.502094
35.867668 -33.459749 -14.967627
35.75365 -33.900418 -14.030363
35.456247 -34.714529 -14.934628
35.595112 -34.332128 -14.502094
35.177286 -36.63246 -17.459134
35.326161 -35.864149 -17.361376
35.355833 -36.471504 -18.356326
35.177286 -36.63246 -17.459134
35.069328 -37.419565 -17.659279
35.137224 -38.125093 -18.690465
34.932467 -38.250016 -17.764885
35.484707 -36.98078 -19.514969
35.137224 -38.125093 -18.690465
35.374056 -37.847263 -19.648963
36.129886 -37.246376 -22.544062
35.8313 -37.537454 -21.474765
35.775728 -38.46522 -21.718673
36.506391 -39.096807 -24.994878
36.211025 -39.259241 -23.890949
36.124071 -40.32499 -24.073071
36.800818 -38.713574 -26.038173
37.060709 -38.541505 -27.062323
36.887772 -37.647825 -25.856051
36.506391 -39.096807 -24.994878
36.800818 -38.713574 -26.038173
38.127955 -32.968674 -29.219657
38.157907 -31.963607 -28.932499
37.87215 -33.416147 -28.208457
38.127955 -32.968674 -29.219657
38.080749 -34.147562 -29.512456
3 0 19 18
3 0 69 71
3 71 70 19
3 69 70 71
3 1 22 20
3 3 25 23
3 3 27 25
3 2 29 28
3 4 32 30
3 4 34 32
3 4 36 34
3 5 40 38
3 72 41 73
3 74 73 17
3 72 73 74
3 75 42 76
3 77 76 41
3 75 76 77
3 7 44 43
3 8 78 80
3 78 46 79
3 78 79 80
3 9 47 21
3 9 48 47
3 6 49 39
3 10 50 24
3 10 51 50
3 10 52 51
3 11 53 26
3 11 54 53
3 12 81 83
3 83 82 31
3 81 82 83
3 12 84 85
3 12 86 87
3 13 88 90
3 90 89 33
3 88 89 90
3 13 91 92
3 13 93 95
3 93 55 94
3 93 94 95
3 14 56 35
3 14 57 56
3 96 58 97
3 98 97 45
3 96 97 98
3 15 99 101
3 99 59 100
3 99 100 101
3 15 60 59
3 15 61 60
3 102 62 103
3 104 63 105
3 106 64 107
3 108 107 63
3 106 107 108
3 16 65 37
3 16 66 65
3 109 67 110
3 109 110 111
3 112 68 113
3 114 113 67
3 112 113 114
3 116 115 68
3 117 17 118
3 119 118 5
3 117 118 119
3 120 17 121
3 123 122 17
3 18 124 126
3 126 125 7
3 124 125 126
3 19 127 129
3 129 128 18
3 127 128 129
3 19 130 131
3 19 132 133
3 135 134 19
3 20 21 8
3 22 21 20
3 22 9 21
3 23 24 6
3 25 24 23
3 25 10 24
3 25 26 10
3 27 26 25
3 27 11 26
3 28 136 137
3 29 138 140
3 140 139 28
3 138 139 140
3 29 141 142
3 30 143 145
3 143 31 144
3 143 144 145
3 32 31 30
3 32 12 31
3 32 33 12
3 34 33 32
3 34 13 33
3 34 35 13
3 36 35 34
3 36 14 35
3 146 15 147
3 149 148 15
3 150 37 151
3 152 37 153
3 154 16 155
3 156 155 37
3 154 155 156
3 38 39 1
3 40 39 38
3 40 6 39
3 17 40 5
3 41 40 17
3 41 6 40
3 41 23 6
3 42 23 41
3 42 3 23
3 43 157 159
3 159 158 2
3 157 158 159
3 44 160 162
3 162 161 43
3 160 161 162
3 44 163 164
3 165 44 166
3 167 166 7
3 165 166 167
3 168 44 169
3 171 170 44
3 172 30 173
3 174 30 175
3 176 4 177
3 178 177 30
3 176 177 178
3 179 45 180
3 181 180 4
3 179 180 181
3 182 45 183
3 185 184 45
3 46 186 188
3 186 187 188
3 46 189 191
3 189 190 191
3 21 46 8
3 47 46 21
3 47 192 194
3 194 193 46
3 192 193 194
3 47 195 197
3 195 28 196
3 195 196 197
3 48 28 47
3 48 2 28
3 39 22 1
3 49 22 39
3 49 9 22
3 24 49 6
3 50 49 24
3 50 9 49
3 50 48 9
3 51 48 50
3 51 2 48
3 51 43 2
3 52 43 51
3 52 7 43
3 26 52 10
3 53 52 26
3 53 7 52
3 53 18 7
3 54 18 53
3 54 0 18
3 198 29 199
3 200 199 2
3 198 199 200
3 201 29 202
3 205 204 29
3 203 204 205
3 31 206 208
3 206 207 208
3 210 209 31
3 33 211 213
3 213 212 12
3 211 212 213
3 215 214 33
3 55 216 217
3 55 218 220
3 218 8 219
3 218 219 220
3 35 55 13
3 56 55 35
3 56 8 55
3 56 20 8
3 57 20 56
3 57 1 20
3 45 36 4
3 58 36 45
3 58 14 36
3 221 58 222
3 59 223 225
3 223 58 224
3 223 224 225
3 59 14 58
3 59 57 14
3 60 57 59
3 60 1 57
3 60 38 1
3 61 38 60
3 61 5 38
3 226 61 227
3 228 227 15
3 226 227 228
3 229 61 230
3 231 5 232
3 233 232 61
3 231 232 233
3 235 234 5
3 236 42 237
3 62 238 240
3 238 42 239
3 238 239 240
3 62 3 42
3 241 62 242
3 63 243 245
3 243 62 244
3 243 244 245
3 63 3 62
3 63 27 3
3 64 27 63
3 64 11 27
3 37 246 248
3 246 64 247
3 246 247 248
3 65 64 37
3 65 11 64
3 65 54 11
3 66 54 65
3 66 0 54
3 249 16 250
3 249 250 251
3 67 252 253
3 67 254 256
3 254 16 255
3 254 255 256
3 67 66 16
3 68 66 67
3 68 0 66
3 68 257 259
3 259 258 0
3 257 258 259
3 261 260 68
