ply
format ascii 1.0
element vertex 237
property float x
property float y
property float z
element face 209
property list uchar int vertex_index
end_header
-1.929541 45.242123 45.438396
-16.513491 31.919823 40.171638
-14.665742 43.935627 36.078884
-20.608797 36.295681 31.915516
-8.669576 44.878292 41.224606
-18.643772 34.369404 36.273705
-13.578707 49.660172 33.608532
-13.242057 35.355911 42.051838
-15.640004 37.768421 38.424778
-12.3351 41.262295 40.054142
-11.300931 47.370781 37.59655
-17.792118 40.157444 34.162186
-5.308304 44.920055 43.523788
-3.531424 46.817989 43.703037
0.069624 47.078587 45.763798
-19.084162 31.636562 37.031822
-17.599657 33.046658 38.353344
-12.777934 38.331814 41.110794
-11.075046 39.948502 41.81665
-8.254289 47.978268 39.866787
-9.906941 46.265175 39.488983
-21.077406 33.479263 32.899811
-21.909054 34.592663 30.632204
-22.663532 35.37912 28.503769
-21.325523 37.388939 29.722715
-15.116285 40.78178 37.411957
-16.709974 39.114819 36.354881
-16.211285 41.833809 35.400024
-9.141292 41.725643 42.467167
-7.235183 43.360115 43.019768
-6.840066 46.412754 41.747162
-20.140375 32.455135 35.044941
-19.656942 35.458336 34.103889
-14.12292 46.784561 34.905136
-15.800562 44.771656 34.057034
-15.263539 47.710091 32.746677
-14.917303 33.47612 41.239449
-16.031225 34.861897 39.404922
-14.454158 36.496365 40.355389
-13.96101 39.452309 39.403286
-13.563077 42.463844 38.189884
-10.466995 43.006302 40.779888
-11.762097 44.254425 38.967781
-13.025334 45.443451 37.01498
-12.459031 48.532131 35.687256
-17.16032 36.054554 37.433578
-18.18766 37.250668 35.341316
-19.157974 38.323917 33.135468
-17.236401 43.014862 33.119633
-18.659649 41.19593 32.019234
-19.985907 39.091743 31.103298
3.377638 47.141907 47.775352
-2.730482 46.030056 44.570717
-3.708026 45.119034 44.414101
-2.907084 44.3311 45.28178
-1.743635 46.853777 44.766462
-2.544577 47.64171 43.898782
-2.730482 46.030056 44.570717
-0.929959 46.160355 45.601097
-0.744053 47.772009 44.929163
-1.743635 46.853777 44.766462
-17.056574 32.483241 39.262491
-17.828665 31.607277 38.706667
-17.285582 31.043859 39.615814
-10.357582 39.252645 42.705394
-11.287321 38.419531 42.35342
-8.932924 48.67351 38.907579
-8.022533 49.475996 39.187443
-6.580793 42.49185 43.863592
-7.506512 41.82844 43.567329
-5.880211 47.392239 41.884991
-6.074185 45.666404 42.635475
-5.11433 46.645889 42.773304
-6.602282 48.020168 41.050459
-5.880211 47.392239 41.884991
-23.059648 35.740692 27.323142
-22.375166 36.77171 27.964419
-16.982486 44.47586 32.470148
-16.518482 43.893259 33.588334
-16.264567 45.354258 32.938848
-19.062691 41.612991 30.94043
-18.386943 42.619253 31.447364
-19.72582 40.560897 30.482462
-19.322778 40.143836 31.561266
-19.062691 41.612991 30.94043
-20.36238 39.596291 29.938311
-19.72582 40.560897 30.482462
4.159043 46.377561 48.63084
3.159763 45.387574 48.457302
4.378878 48.176943 47.918659
4.159043 46.377561 48.63084
-4.596466 44.170066 44.324476
-5.617354 43.27182 44.115603
-4.419864 45.869022 43.613413
-4.596466 44.170066 44.324476
-3.708026 45.119034 44.414101
-4.22589 47.594856 42.862929
-5.11433 46.645889 42.773304
-4.419864 45.869022 43.613413
-3.297291 48.477851 42.998644
-4.22589 47.594856 42.862929
-3.297291 48.477851 42.998644
-2.544577 47.64171 43.898782
0.239054 48.801842 45.015082
-0.744053 47.772009 44.929163
0.984618 47.99152 45.881394
0.239054 48.801842 45.015082
-18.570918 30.902229 38.045906
-19.271716 30.186019 37.434679
-18.341909 32.34161 37.692583
-18.570918 30.902229 38.045906
-17.828665 31.607277 38.706667
-14.064728 50.232985 32.525954
-13.313949 51.260599 32.773461
-12.138765 37.611187 42.000492
-13.009996 36.843863 41.581316
-12.370826 36.123235 42.471014
-11.92649 39.140158 41.463722
-12.138765 37.611187 42.000492
-11.287321 38.419531 42.35342
-9.759249 47.816963 38.718677
-9.080615 47.121721 39.677885
-8.932924 48.67351 38.907579
-10.456245 48.369766 37.772461
-10.603936 46.817978 38.542766
-9.759249 47.816963 38.718677
-11.044037 48.962953 36.85792
-10.456245 48.369766 37.772461
-21.728357 32.655 32.254562
-21.295502 32.136847 33.318722
-22.144181 33.2117 31.120758
-21.728357 32.655 32.254562
-21.49323 34.035963 31.766008
-22.578946 33.623251 30.015977
-22.144181 33.2117 31.120758
-22.286293 34.985892 29.567986
-22.956184 34.01648 28.95176
-22.578946 33.623251 30.015977
-21.706162 37.776619 28.573892
-22.375166 36.77171 27.964419
-21.994528 36.384029 29.113242
-8.459566 41.011204 43.291029
-9.390705 40.141216 43.030653
-8.188237 42.542879 42.743468
-8.459566 41.011204 43.291029
-7.506512 41.82844 43.567329
-6.271743 44.140085 43.271778
-6.580793 42.49185 43.863592
-5.617354 43.27182 44.115603
-7.309394 48.802926 40.110271
-7.547178 47.195511 40.806975
-6.602282 48.020168 41.050459
-8.022533 49.475996 39.187443
-7.309394 48.802926 40.110271
-19.785878 30.719302 36.45417
-19.973433 29.268759 36.857027
-19.271716 30.186019 37.434679
-20.313985 31.128588 35.460729
-19.785878 30.719302 36.45417
-19.612268 32.045848 36.038381
-20.826987 31.624782 34.391287
-20.313985 31.128588 35.460729
-20.608891 32.967199 33.972376
-21.295502 32.136847 33.318722
-20.826987 31.624782 34.391287
-15.996055 46.823475 32.28367
-16.264567 45.354258 32.938848
-15.532051 46.240873 33.401855
-14.907144 49.257945 32.095027
-14.421123 48.685131 33.177605
-14.064728 50.232985 32.525954
-15.697138 48.295479 31.625276
-14.907144 49.257945 32.095027
-15.996055 46.823475 32.28367
-15.697138 48.295479 31.625276
-10.108169 40.837072 42.141908
-10.357582 39.252645 42.705394
-9.390705 40.141216 43.030653
-11.623088 49.543628 35.903272
-11.879981 47.951456 36.641903
-11.044037 48.962953 36.85792
-12.220262 50.077411 34.913134
-11.623088 49.543628 35.903272
-12.7801 50.641432 33.873772
-13.018869 49.096152 34.647894
-12.220262 50.077411 34.913134
-13.313949 51.260599 32.773461
-12.7801 50.641432 33.873772
-16.633793 30.523561 40.602694
-17.285582 31.043859 39.615814
-15.839554 31.326735 41.141212
-16.633793 30.523561 40.602694
-15.04146 32.104883 41.675117
-15.715397 32.697972 40.705544
-15.839554 31.326735 41.141212
-14.220315 32.972676 42.124578
-15.04146 32.104883 41.675117
-13.382691 33.912571 42.530773
-14.07968 34.416016 41.645643
-14.220315 32.972676 42.124578
-12.498268 34.635225 43.005205
-13.382691 33.912571 42.530773
-12.370826 36.123235 42.471014
-12.498268 34.635225 43.005205
-2.156385 43.526365 46.100948
-2.907084 44.3311 45.28178
-1.200446 44.460768 46.238948
-2.156385 43.526365 46.100948
-23.347592 34.474914 27.79262
-22.956184 34.01648 28.95176
-23.347592 34.474914 27.79262
-23.059648 35.740692 27.323142
-17.675319 43.528719 31.997563
-16.982486 44.47586 32.470148
-17.948025 42.105396 32.569434
-17.675319 43.528719 31.997563
-18.386943 42.619253 31.447364
-21.032187 38.744889 29.248019
-20.655715 38.240341 30.413007
-20.36238 39.596291 29.938311
-21.706162 37.776619 28.573892
-21.032187 38.744889 29.248019
-0.200864 45.379 46.40165
-0.929959 46.160355 45.601097
-1.200446 44.460768 46.238948
0.744682 46.09162 46.642441
-0.200864 45.379 46.40165
0.984618 47.99152 45.881394
0.744682 46.09162 46.642441
2.398689 46.12328 47.648218
3.159763 45.387574 48.457302
2.638625 48.02318 46.88717
2.398689 46.12328 47.648218
3.646488 48.870592 47.10436
2.638625 48.02318 46.88717
3.646488 48.870592 47.10436
4.378878 48.176943 47.918659
3 0 52 54
3 52 13 53
3 52 53 54
3 0 55 57
3 57 56 13
3 55 56 57
3 0 58 60
3 58 14 59
3 58 59 60
3 1 61 63
3 61 16 62
3 61 62 63
3 64 18 65
3 67 66 19
3 3 22 21
3 3 24 22
3 2 27 25
3 68 29 69
3 70 30 71
3 72 71 12
3 70 71 72
3 74 73 30
3 5 31 15
3 5 32 31
3 6 35 33
3 7 38 36
3 9 39 17
3 9 40 39
3 4 41 28
3 10 42 20
3 10 43 42
3 10 44 43
3 76 75 23
3 8 45 37
3 11 46 26
3 11 47 46
3 77 48 78
3 79 78 34
3 77 78 79
3 80 49 81
3 82 50 83
3 84 83 49
3 82 83 84
3 86 85 50
3 87 51 88
3 90 89 51
3 91 12 92
3 13 93 95
3 93 12 94
3 93 94 95
3 13 96 98
3 98 97 12
3 96 97 98
3 13 99 100
3 102 101 13
3 14 103 104
3 14 105 106
3 107 15 108
3 16 109 111
3 109 15 110
3 109 110 111
3 16 5 15
3 113 112 6
3 114 17 115
3 116 115 7
3 114 115 116
3 18 117 119
3 117 17 118
3 117 118 119
3 18 9 17
3 19 20 4
3 120 20 121
3 122 121 19
3 120 121 122
3 123 10 124
3 125 124 20
3 123 124 125
3 127 126 10
3 21 128 129
3 22 130 132
3 132 131 21
3 130 131 132
3 22 133 134
3 22 135 137
3 135 23 136
3 135 136 137
3 24 23 22
3 24 138 140
3 140 139 23
3 138 139 140
3 25 26 8
3 27 26 25
3 27 11 26
3 141 28 142
3 29 143 145
3 143 28 144
3 143 144 145
3 29 4 28
3 12 146 148
3 146 29 147
3 146 147 148
3 30 29 12
3 30 4 29
3 30 19 4
3 149 19 150
3 151 150 30
3 149 150 151
3 153 152 19
3 15 154 156
3 154 155 156
3 31 157 159
3 159 158 15
3 157 158 159
3 31 160 161
3 31 162 164
3 162 21 163
3 162 163 164
3 32 21 31
3 32 3 21
3 33 34 2
3 35 34 33
3 35 165 167
3 167 166 34
3 165 166 167
3 168 35 169
3 170 169 6
3 168 169 170
3 171 35 172
3 174 173 35
3 36 37 1
3 38 37 36
3 38 8 37
3 17 38 7
3 39 38 17
3 39 8 38
3 39 25 8
3 40 25 39
3 40 2 25
3 28 175 177
3 175 18 176
3 175 176 177
3 41 18 28
3 41 9 18
3 20 41 4
3 42 41 20
3 42 9 41
3 42 40 9
3 43 40 42
3 43 2 40
3 43 33 2
3 44 33 43
3 44 6 33
3 178 44 179
3 180 179 10
3 178 179 180
3 181 44 182
3 183 6 184
3 185 184 44
3 183 184 185
3 187 186 6
3 188 1 189
3 190 1 191
3 192 36 193
3 194 193 1
3 192 193 194
3 195 36 196
3 197 7 198
3 199 198 36
3 197 198 199
3 200 7 201
3 203 202 7
3 204 0 205
3 207 206 0
3 23 208 209
3 211 210 23
3 37 16 1
3 45 16 37
3 45 5 16
3 26 45 8
3 46 45 26
3 46 5 45
3 46 32 5
3 47 32 46
3 47 3 32
3 34 27 2
3 48 27 34
3 48 11 27
3 212 48 213
3 49 214 216
3 214 48 215
3 214 215 216
3 49 11 48
3 49 47 11
3 50 47 49
3 50 3 47
3 50 24 3
3 217 24 218
3 219 218 50
3 217 218 219
3 221 220 24
3 222 14 223
3 224 223 0
3 222 223 224
3 225 14 226
3 228 227 14
3 51 229 230
3 51 231 232
3 51 233 234
3 236 235 51
