ply
format ascii 1.0
element vertex 235
property float x
property float y
property float z
element face 225
property list uchar int vertex_index
end_header
28.179535 -31.650135 44.656727
28.99247 -41.623077 38.32671
30.024235 -39.170727 29.212198
28.732792 -48.110203 44.358139
28.699644 -42.503819 42.979282
29.047289 -47.425385 39.422401
28.097252 -25.463209 43.260933
28.418884 -30.278038 40.344433
28.305798 -48.627792 49.285706
28.555483 -36.726521 41.650471
28.928911 -35.113022 37.12141
29.340067 -46.703018 34.52507
29.403755 -40.554119 33.732967
29.553211 -33.918148 32.930855
30.454733 -32.463753 28.858503
28.902555 -47.878902 41.814308
28.070095 -29.412012 46.156322
28.040157 -26.074076 45.302891
28.11759 -28.588432 44.046188
28.225679 -27.831861 41.840538
28.276085 -31.095049 42.476536
28.833456 -41.952778 40.636475
28.641617 -39.609077 42.155006
28.778389 -38.881779 39.863182
28.720123 -35.885578 39.26778
28.970884 -38.459545 37.556717
29.840958 -42.367641 29.54076
29.580048 -43.225082 31.779861
29.672405 -39.848591 31.540054
29.478039 -37.107304 33.239643
29.820652 -36.62141 31.093845
29.985197 -33.06953 30.83511
30.199419 -35.701855 29.206976
28.582672 -45.71854 46.125069
28.562073 -42.928059 45.414673
28.745733 -45.367607 43.573475
28.891092 -44.886707 41.109688
29.038988 -44.625591 38.742489
30.390656 -38.571842 27.18346
28.232481 -24.694777 41.078548
28.418005 -27.277382 39.639145
28.657692 -29.644958 38.124798
28.541145 -48.365376 46.850014
28.256226 -34.778309 45.473717
28.508135 -40.033371 44.608753
28.438694 -37.264427 43.833488
28.346588 -34.193577 43.210648
28.478846 -33.530991 40.944912
28.667789 -32.72438 38.732731
28.934444 -32.059151 36.561703
29.195688 -47.352188 36.924728
29.19573 -44.135582 36.387653
29.365328 -43.628437 34.156826
29.176882 -40.870972 36.00174
29.193974 -37.747498 35.393627
29.198923 -34.652519 35.07864
29.263309 -31.221903 34.547543
29.692074 -30.719902 32.460117
30.164976 -29.66045 30.605402
30.72146 -29.090542 28.640221
30.666105 -35.392059 27.020081
30.985546 -31.86331 26.898989
28.076613 -24.172926 43.93638
28.048065 -24.47836 44.95736
28.068705 -25.768642 44.281912
28.112454 -23.75572 42.867907
28.076613 -24.172926 43.93638
28.164867 -25.078993 42.169741
28.180069 -23.371504 41.776714
28.112454 -23.75572 42.867907
28.2394 -47.44879 50.117605
28.146024 -48.730482 50.525745
28.348543 -47.270679 48.975302
28.2394 -47.44879 50.117605
28.423471 -48.496584 48.06786
28.466217 -47.139471 47.757456
28.348543 -47.270679 48.975302
28.295868 -36.285521 45.847876
28.22322 -35.04003 46.630927
29.267878 -47.027603 35.724899
29.245845 -48.577995 35.960743
29.318034 -48.25341 34.760914
30.744913 -36.721193 26.03241
30.528381 -36.98195 27.101771
30.607188 -38.311084 26.1141
31.294093 -31.459589 25.88745
31.082414 -33.212933 25.977612
31.176916 -30.036949 26.782477
31.294093 -31.459589 25.88745
28.888013 -49.27881 42.073841
28.817673 -47.994552 43.086224
28.803132 -49.394461 43.345757
28.970053 -49.213209 40.80772
28.888013 -49.27881 42.073841
29.04242 -48.986451 39.611767
28.974922 -47.652143 40.618354
28.970053 -49.213209 40.80772
28.055126 -27.743044 45.729607
28.037217 -26.486057 46.501278
28.052186 -28.155024 46.927993
28.211062 -49.872124 49.618082
28.146024 -48.730482 50.525745
28.371409 -49.859827 48.310839
28.211062 -49.872124 49.618082
29.37869 -48.036276 33.602181
29.318034 -48.25341 34.760914
29.710503 -42.796362 30.660311
29.63394 -44.488031 30.816652
29.764395 -44.05931 29.697101
28.061011 -29.673143 47.319988
28.052186 -28.155024 46.927993
28.09896 -30.934056 46.565387
28.061011 -29.673143 47.319988
28.15368 -32.053117 45.81559
28.124815 -30.531073 45.406525
28.09896 -30.934056 46.565387
28.572373 -44.323299 45.769871
28.484859 -43.064014 46.677234
28.495158 -44.459255 47.032432
29.873028 -43.794514 28.611493
29.764395 -44.05931 29.697101
29.990403 -42.163612 28.433546
29.873028 -43.794514 28.611493
30.082042 -40.565155 28.269265
29.932597 -40.769184 29.376479
29.990403 -42.163612 28.433546
30.265253 -40.265712 27.254896
30.207445 -38.871285 28.197829
30.082042 -40.565155 28.269265
30.436834 -39.884844 26.246205
30.265253 -40.265712 27.254896
30.607188 -38.311084 26.1141
30.436834 -39.884844 26.246205
28.043561 -24.941863 46.031557
28.037217 -26.486057 46.501278
28.043561 -24.941863 46.031557
28.048065 -24.47836 44.95736
28.258983 -23.007069 40.737966
28.180069 -23.371504 41.776714
28.337666 -24.166138 40.071741
28.258983 -23.007069 40.737966
28.430428 -25.45744 39.35204
28.337666 -24.166138 40.071741
28.325243 -25.986079 40.358846
28.541656 -26.717538 38.66046
28.430428 -25.45744 39.35204
28.661499 -27.901326 37.903286
28.541656 -26.717538 38.66046
28.537849 -28.46117 38.881971
28.801619 -29.163892 37.147348
28.661499 -27.901326 37.903286
28.486981 -45.816053 47.394984
28.495158 -44.459255 47.032432
28.561909 -47.041958 46.487542
28.486981 -45.816053 47.394984
28.466217 -47.139471 47.757456
28.489083 -49.728619 47.092993
28.423471 -48.496584 48.06786
28.371409 -49.859827 48.310839
28.611635 -49.595097 45.832751
28.489083 -49.728619 47.092993
28.707459 -49.467511 44.586813
28.636969 -48.237789 45.604077
28.611635 -49.595097 45.832751
28.803132 -49.394461 43.345757
28.707459 -49.467511 44.586813
28.192025 -33.617204 46.224085
28.22322 -35.04003 46.630927
28.21788 -33.214222 45.065222
28.15368 -32.053117 45.81559
28.192025 -33.617204 46.224085
28.475273 -41.748486 46.241764
28.484859 -43.064014 46.677234
28.448304 -40.301142 45.838804
28.475273 -41.748486 46.241764
28.535104 -41.480715 45.011713
28.421822 -38.913052 45.415394
28.448304 -40.301142 45.838804
28.387102 -37.528579 45.027761
28.421822 -38.913052 45.415394
28.473415 -38.648899 44.22112
28.34746 -36.021368 44.653603
28.295868 -36.285521 45.847876
28.387102 -37.528579 45.027761
28.939994 -30.370989 36.365801
28.801619 -29.163892 37.147348
28.796068 -30.852055 37.34325
29.106063 -48.784136 38.488894
29.04242 -48.986451 39.611767
29.180262 -48.747537 37.240057
29.230419 -49.973344 36.276072
29.245845 -48.577995 35.960743
29.121488 -47.388786 38.173564
29.106063 -48.784136 38.488894
29.180262 -48.747537 37.240057
29.420448 -46.49028 33.332991
29.37869 -48.036276 33.602181
29.540438 -44.751312 31.960386
29.63394 -44.488031 30.816652
29.433078 -44.95299 33.148869
29.540438 -44.751312 31.960386
29.472688 -43.42676 32.968344
29.352698 -45.165728 34.340948
29.420448 -46.49028 33.332991
29.433078 -44.95299 33.148869
29.104427 -29.952365 35.358721
28.939994 -30.370989 36.365801
29.098876 -31.640527 35.554623
29.311729 -29.562133 34.316924
29.104427 -29.952365 35.358721
29.526111 -29.311132 33.27321
29.311729 -29.562133 34.316924
29.477691 -30.970903 33.50383
29.765127 -28.947551 32.317859
29.526111 -29.311132 33.27321
30.001579 -28.417825 31.390502
29.765127 -28.947551 32.317859
29.928525 -30.190176 31.532759
30.284992 -27.946988 30.444505
30.001579 -28.417825 31.390502
30.563234 -27.662034 29.461915
30.284992 -27.946988 30.444505
30.443218 -29.375496 29.622812
30.873818 -27.305792 28.532628
30.563234 -27.662034 29.461915
30.922693 -34.977308 26.038159
30.744913 -36.721193 26.03241
30.825826 -33.627685 26.959535
30.922693 -34.977308 26.038159
31.082414 -33.212933 25.977612
31.044873 -28.650565 27.653094
30.853503 -30.476926 27.769605
31.176916 -30.036949 26.782477
30.873818 -27.305792 28.532628
31.044873 -28.650565 27.653094
3 0 18 16
3 0 20 18
3 1 23 21
3 1 25 23
3 2 28 26
3 2 30 28
3 2 32 30
3 3 35 33
3 5 36 15
3 5 37 36
3 6 62 64
3 64 63 17
3 62 63 64
3 6 65 66
3 6 67 69
3 67 39 68
3 67 68 69
3 7 40 19
3 7 41 40
3 8 70 71
3 8 72 73
3 8 74 76
3 74 42 75
3 74 75 76
3 77 43 78
3 4 44 34
3 9 45 22
3 9 46 45
3 9 47 46
3 10 48 24
3 10 49 48
3 11 79 81
3 79 50 80
3 79 80 81
3 11 51 50
3 12 52 27
3 12 53 52
3 12 54 53
3 13 55 29
3 13 56 55
3 13 57 56
3 14 58 31
3 14 59 58
3 82 60 83
3 84 83 38
3 82 83 84
3 85 61 86
3 88 87 61
3 89 15 90
3 91 90 3
3 89 90 91
3 92 15 93
3 94 5 95
3 96 95 15
3 94 95 96
3 16 97 99
3 97 17 98
3 97 98 99
3 18 17 16
3 18 6 17
3 18 19 6
3 20 19 18
3 20 7 19
3 100 8 101
3 103 102 8
3 21 22 4
3 23 22 21
3 23 9 22
3 23 24 9
3 25 24 23
3 25 10 24
3 104 11 105
3 26 106 108
3 106 27 107
3 106 107 108
3 28 27 26
3 28 12 27
3 28 29 12
3 30 29 28
3 30 13 29
3 30 31 13
3 32 31 30
3 32 14 31
3 109 16 110
3 111 16 112
3 113 0 114
3 115 114 16
3 113 114 115
3 33 116 118
3 116 34 117
3 116 117 118
3 35 34 33
3 35 4 34
3 15 35 3
3 36 35 15
3 36 4 35
3 36 21 4
3 37 21 36
3 37 1 21
3 119 26 120
3 121 26 122
3 123 2 124
3 125 124 26
3 123 124 125
3 126 38 127
3 128 127 2
3 126 127 128
3 129 38 130
3 132 131 38
3 17 133 134
3 136 135 17
3 39 137 138
3 39 139 140
3 19 39 6
3 40 39 19
3 40 141 143
3 143 142 39
3 141 142 143
3 40 144 145
3 41 146 148
3 148 147 40
3 146 147 148
3 41 149 150
3 151 33 152
3 42 153 155
3 153 33 154
3 153 154 155
3 42 3 33
3 156 42 157
3 158 157 8
3 156 157 158
3 159 42 160
3 161 3 162
3 163 162 42
3 161 162 163
3 165 164 3
3 43 166 167
3 43 168 170
3 168 0 169
3 168 169 170
3 34 171 172
3 44 173 175
3 175 174 34
3 173 174 175
3 44 176 177
3 22 44 4
3 45 44 22
3 45 178 180
3 180 179 44
3 178 179 180
3 45 181 183
3 181 43 182
3 181 182 183
3 46 43 45
3 46 0 43
3 46 20 0
3 47 20 46
3 47 7 20
3 24 47 9
3 48 47 24
3 48 7 47
3 48 41 7
3 49 41 48
3 49 184 186
3 186 185 41
3 184 185 186
3 187 5 188
3 50 189 191
3 189 190 191
3 50 192 194
3 192 5 193
3 192 193 194
3 50 37 5
3 51 37 50
3 51 1 37
3 195 11 196
3 27 197 198
3 52 199 201
3 201 200 27
3 199 200 201
3 52 202 204
3 202 11 203
3 202 203 204
3 52 51 11
3 53 51 52
3 53 1 51
3 53 25 1
3 54 25 53
3 54 10 25
3 29 54 12
3 55 54 29
3 55 10 54
3 55 49 10
3 56 49 55
3 56 205 207
3 207 206 49
3 205 206 207
3 56 208 209
3 57 210 212
3 212 211 56
3 210 211 212
3 57 213 214
3 31 57 13
3 58 57 31
3 58 215 217
3 217 216 57
3 215 216 217
3 58 218 219
3 59 220 222
3 222 221 58
3 220 221 222
3 59 223 224
3 38 32 2
3 60 32 38
3 60 14 32
3 225 60 226
3 61 227 229
3 227 60 228
3 227 228 229
3 61 14 60
3 61 59 14
3 230 59 231
3 232 231 61
3 230 231 232
3 234 233 59
