ply
format ascii 1.0
element vertex 305
property float x
property float y
property float z
element face 289
property list uchar int vertex_index
end_header
-23.183678 -35.539219 -21.133478
-28.231169 -42.448837 -7.817873
-19.024477 -36.995758 -26.068794
-29.665609 -45.022064 0.893556
-25.853567 -39.158489 -15.450316
-22.248323 -39.569366 -21.122183
-20.285074 -41.054153 -23.573526
-21.331852 -36.277668 -23.335026
-33.860035 -32.84024 4.315682
-25.644426 -46.731396 -11.254107
-24.646072 -44.633011 -14.858837
-27.139229 -40.754791 -11.920429
-29.122988 -43.636818 -3.538475
-31.976341 -39.533031 4.897191
-31.59189 -38.552734 0.196476
-30.975916 -37.467976 -4.091496
-30.055363 -36.052746 -8.423282
-24.474083 -37.103031 -18.702137
-23.413813 -42.187668 -18.33728
-22.763803 -37.246151 -21.136366
-21.791363 -37.93544 -22.261726
-22.341518 -35.892647 -22.136429
-27.35634 -45.478973 -7.568209
-26.104271 -47.614788 -9.338272
-26.860823 -44.770969 -9.600348
-26.374763 -43.894638 -11.49216
-27.69615 -41.721016 -9.89005
-19.675491 -39.015839 -24.841257
-19.280407 -41.564472 -24.932091
-18.594637 -39.504807 -26.196165
-17.585287 -39.911659 -27.494249
-17.8515 -37.276409 -27.469843
-29.44873 -44.238781 -1.357478
-32.726215 -35.905838 2.144089
-32.541813 -35.309177 -0.122747
-31.306482 -38.012047 -2.036044
-29.486902 -35.314571 -10.415439
-25.19582 -41.88834 -15.2371
-24.022171 -43.482483 -16.673548
-24.591988 -40.839539 -16.872663
-23.989252 -39.659531 -18.41157
-25.21361 -38.065289 -17.103437
-21.789347 -41.923893 -21.09049
-20.827066 -43.087223 -22.293118
-21.246975 -40.327633 -22.359158
-20.759981 -38.443581 -23.519991
-20.251902 -36.640984 -24.613415
-30.015837 -45.184879 3.124067
-24.099234 -47.448914 -14.513776
-25.178089 -45.666363 -13.096697
-25.838125 -42.848392 -13.386092
-26.560301 -39.911167 -13.680256
-28.718391 -43.120125 -5.615512
-24.058655 -34.304733 -20.387127
-31.056915 -42.722347 5.16644
-30.931459 -42.103222 2.890738
-32.89856 -36.275684 4.531454
-31.822947 -39.077507 2.585059
-30.667322 -41.731903 0.648234
-30.379299 -41.177322 -1.630559
-29.996037 -40.676765 -3.879376
-29.627003 -39.930859 -6.029637
-30.522121 -36.805908 -6.374519
-29.112274 -39.308964 -8.171144
-28.590982 -38.465965 -10.208059
-28.015779 -37.714199 -12.046179
-27.232885 -37.052235 -14.035019
-27.9125 -34.161083 -14.386786
-26.532913 -36.180721 -15.782736
-25.766338 -35.429729 -17.416981
-24.973495 -34.67635 -18.950575
-23.792509 -36.152569 -20.075718
-23.509621 -46.331577 -16.359138
-22.960104 -44.861694 -18.075373
-22.36241 -43.467953 -19.659748
-22.8202 -40.856026 -19.82066
-23.351236 -38.407879 -19.887129
-29.092315 -46.181535 -0.096317
-29.260889 -46.443026 1.096134
-29.55717 -44.630423 -0.231961
-28.983875 -45.789894 -1.221834
-29.092315 -46.181535 -0.096317
-33.070444 -33.499018 -0.179364
-33.156021 -33.787422 0.928527
-32.453169 -34.899506 -1.179679
-33.070444 -33.499018 -0.179364
-30.090536 -45.473669 4.198134
-29.558404 -46.774271 3.278397
-25.306816 -48.177479 -11.108619
-25.536738 -48.619175 -10.150702
-25.874348 -47.173092 -10.29619
-25.115187 -47.623775 -11.988418
-25.306816 -48.177479 -11.108619
-25.411257 -46.198879 -12.175402
-24.882019 -47.091259 -12.909713
-25.115187 -47.623775 -11.988418
-20.103387 -42.370281 -23.591236
-20.374383 -43.386816 -22.951032
-20.55607 -42.070688 -22.933322
-19.175065 -42.899242 -24.916207
-18.814661 -41.925329 -25.566651
-17.051907 -40.093275 -28.192493
-17.139111 -38.701683 -28.182005
-28.434245 -44.964796 -4.505422
-28.645955 -45.198813 -3.441594
-28.92069 -43.378472 -4.576994
-28.231946 -44.70645 -5.543941
-28.434245 -44.964796 -4.505422
-24.13427 -33.231275 -20.673536
-24.653716 -33.340643 -19.931258
-31.516628 -41.127689 5.031816
-31.577421 -41.25815 6.08327
-32.037134 -39.663492 5.948646
-33.379298 -34.557962 4.423568
-33.420677 -34.681572 5.579987
-33.901415 -32.96385 5.472101
-30.288742 -36.429327 -7.3989
-30.986565 -35.238384 -6.45464
-30.753186 -34.861803 -7.479021
-28.351365 -36.279305 -12.263442
-28.75134 -36.514385 -11.230809
-29.086927 -35.079491 -11.448072
-27.959918 -35.948323 -13.257862
-27.624332 -37.383217 -13.040599
-28.351365 -36.279305 -12.263442
-27.516539 -33.795192 -15.27072
-28.227886 -32.720404 -14.589215
-26.826745 -34.805011 -15.968695
-27.222707 -35.170902 -15.084761
-27.516539 -33.795192 -15.27072
-26.443458 -34.429516 -16.785818
-26.149625 -35.805225 -16.599858
-26.826745 -34.805011 -15.968695
-25.111136 -33.526452 -19.212982
-25.608116 -33.768198 -18.384936
-24.653716 -33.340643 -19.931258
-24.516075 -34.490541 -19.668851
-25.111136 -33.526452 -19.212982
-26.730306 -46.546881 -8.45324
-26.315398 -48.080869 -8.28339
-26.941432 -47.012962 -7.398359
-18.471776 -40.895497 -26.198689
-18.814661 -41.925329 -25.566651
-18.937522 -40.534639 -25.564128
-18.089962 -39.708233 -26.845207
-17.967101 -41.098923 -26.847731
-18.471776 -40.895497 -26.198689
-17.272218 -37.384058 -28.169802
-17.139111 -38.701683 -28.182005
-17.718394 -38.594034 -27.482046
-28.808826 -45.499794 -2.351096
-28.983875 -45.789894 -1.221834
-29.285859 -43.937799 -2.447977
-28.645955 -45.198813 -3.441594
-28.808826 -45.499794 -2.351096
-32.479957 -38.070717 5.836327
-32.037134 -39.663492 5.948646
-33.248222 -34.085752 2.061945
-33.293125 -34.373039 3.229885
-33.815132 -32.552954 3.147741
-32.634014 -35.607507 1.010671
-33.248222 -34.085752 2.061945
-33.156021 -33.787422 0.928527
-31.835504 -36.25094 -2.136328
-31.924147 -36.660612 -1.079395
-32.453169 -34.899506 -1.179679
-31.67022 -35.978905 -3.164054
-31.141199 -37.740012 -3.06377
-31.835504 -36.25094 -2.136328
-30.499711 -34.462475 -8.548964
-30.753186 -34.861803 -7.479021
-30.21548 -34.093388 -9.545042
-29.771133 -35.683658 -9.41936
-30.499711 -34.462475 -8.548964
-29.88819 -33.751873 -10.589845
-30.21548 -34.093388 -9.545042
-29.086927 -35.079491 -11.448072
-29.88819 -33.751873 -10.589845
-21.308206 -42.505558 -21.691804
-21.120876 -43.848578 -21.613749
-21.602016 -43.266913 -21.012435
-29.436003 -46.524433 2.21139
-29.558404 -46.774271 3.278397
-29.840723 -45.103471 2.008812
-29.260889 -46.443026 1.096134
-29.436003 -46.524433 2.21139
-34.360416 -31.187593 5.372507
-33.901415 -32.96385 5.472101
-34.342537 -31.027353 4.23411
-34.360416 -31.187593 5.372507
-33.815132 -32.552954 3.147741
-34.342537 -31.027353 4.23411
-25.762789 -49.088043 -9.126779
-26.315398 -48.080869 -8.28339
-25.762789 -49.088043 -9.126779
-25.536738 -48.619175 -10.150702
-24.342591 -47.982534 -13.618253
-23.839532 -48.85899 -14.380329
-24.638661 -46.557638 -13.805236
-24.342591 -47.982534 -13.618253
-24.882019 -47.091259 -12.909713
-20.669371 -44.412478 -22.270297
-21.120876 -43.848578 -21.613749
-20.669371 -44.412478 -22.270297
-20.374383 -43.386816 -22.951032
-19.601053 -42.62544 -24.270519
-20.103387 -42.370281 -23.591236
-19.782741 -41.309313 -24.252809
-19.601053 -42.62544 -24.270519
-19.175065 -42.899242 -24.916207
-17.473577 -41.269829 -27.556793
-17.967101 -41.098923 -26.847731
-16.940196 -41.451444 -28.255038
-17.473577 -41.269829 -27.556793
-17.051907 -40.093275 -28.192493
-27.550921 -45.885874 -6.52029
-26.941432 -47.012962 -7.398359
-28.037365 -44.299549 -6.591861
-27.550921 -45.885874 -6.52029
-28.231946 -44.70645 -5.543941
-23.595841 -34.174753 -21.044064
-23.158353 -34.791996 -21.417239
-23.621167 -34.921976 -20.760303
-23.595841 -34.174753 -21.044064
-24.13427 -33.231275 -20.673536
-31.136702 -42.842415 6.22161
-31.577421 -41.25815 6.08327
-30.611075 -44.242403 5.219321
-30.690863 -44.362471 6.27449
-31.136702 -42.842415 6.22161
-30.536376 -43.953613 4.145253
-30.090536 -45.473669 4.198134
-30.611075 -44.242403 5.219321
-32.941067 -36.442043 5.653458
-33.420677 -34.681572 5.579987
-32.437451 -37.904358 4.714322
-32.479957 -38.070717 5.836327
-32.941067 -36.442043 5.653458
-31.452889 -35.804947 -4.262942
-31.67022 -35.978905 -3.164054
-31.225991 -35.473913 -5.404453
-30.986565 -35.238384 -6.45464
-30.749018 -37.136942 -5.233008
-31.452889 -35.804947 -4.262942
-31.225991 -35.473913 -5.404453
-28.647847 -32.99011 -13.650862
-28.227886 -32.720404 -14.589215
-28.299726 -34.502747 -13.433746
-28.647847 -32.99011 -13.650862
-27.572693 -35.606659 -14.210902
-27.959918 -35.948323 -13.257862
-28.299726 -34.502747 -13.433746
-26.004538 -34.144887 -17.618139
-26.443458 -34.429516 -16.785818
-25.369917 -35.053039 -18.183778
-26.004538 -34.144887 -17.618139
-25.608116 -33.768198 -18.384936
-23.577025 -48.367995 -15.262718
-23.317324 -49.77807 -15.129271
-23.839532 -48.85899 -14.380329
-23.282219 -47.809326 -16.185399
-23.577025 -48.367995 -15.262718
-23.804427 -46.890246 -15.436457
-23.053615 -47.01721 -17.019772
-23.282219 -47.809326 -16.185399
-22.778857 -46.282269 -17.877889
-23.053615 -47.01721 -17.019772
-23.234862 -45.596636 -17.217256
-22.492741 -45.559255 -18.705464
-22.778857 -46.282269 -17.877889
-22.193894 -44.862385 -19.497652
-22.492741 -45.559255 -18.705464
-22.661257 -44.164823 -18.86756
-21.888548 -44.038943 -20.297064
-22.193894 -44.862385 -19.497652
-22.075879 -42.695923 -20.375119
-21.602016 -43.266913 -21.012435
-21.888548 -44.038943 -20.297064
-22.737273 -34.96871 -21.918715
-22.762598 -35.715933 -21.634954
-23.158353 -34.791996 -21.417239
-22.22618 -35.033478 -22.545379
-22.737273 -34.96871 -21.918715
-21.721347 -35.225988 -23.144678
-21.836685 -36.085157 -22.735727
-22.22618 -35.033478 -22.545379
-21.145077 -35.371037 -23.811886
-21.721347 -35.225988 -23.144678
-20.605103 -35.552695 -24.45108
-20.791877 -36.459326 -23.974221
-21.145077 -35.371037 -23.811886
-19.987018 -35.638817 -25.169837
-20.605103 -35.552695 -24.45108
-19.373306 -35.816204 -25.897526
-19.63819 -36.818371 -25.341105
-19.987018 -35.638817 -25.169837
-18.73644 -35.8938 -26.62671
-19.373306 -35.816204 -25.897526
-18.149951 -36.034126 -27.327235
-18.437989 -37.136083 -26.769319
-18.73644 -35.8938 -26.62671
-17.53974 -36.082813 -28.022128
-18.149951 -36.034126 -27.327235
-17.272218 -37.384058 -28.169802
-17.53974 -36.082813 -28.022128
3 0 21 19
3 1 24 22
3 1 26 24
3 2 29 27
3 2 31 29
3 3 77 78
3 3 79 81
3 79 32 80
3 79 80 81
3 82 34 83
3 85 84 34
3 4 39 37
3 4 41 39
3 5 44 42
3 7 45 20
3 7 46 45
3 86 47 87
3 9 88 90
3 90 89 23
3 88 89 90
3 9 91 92
3 9 93 95
3 93 49 94
3 93 94 95
3 11 50 25
3 11 51 50
3 6 96 98
3 98 97 43
3 96 97 98
3 100 99 28
3 102 101 30
3 12 103 104
3 12 105 107
3 105 52 106
3 105 106 107
3 109 108 53
3 13 110 112
3 110 54 111
3 110 111 112
3 13 55 54
3 8 113 115
3 113 56 114
3 113 114 115
3 14 57 33
3 14 58 57
3 14 59 58
3 15 60 35
3 15 61 60
3 16 116 118
3 116 62 117
3 116 117 118
3 16 63 62
3 16 64 63
3 119 65 120
3 121 120 36
3 119 120 121
3 122 66 123
3 124 123 65
3 122 123 124
3 125 67 126
3 127 68 128
3 129 128 67
3 127 128 129
3 130 69 131
3 132 131 68
3 130 131 132
3 133 70 134
3 135 53 136
3 137 136 70
3 135 136 137
3 10 72 48
3 18 73 38
3 18 74 73
3 18 75 74
3 17 76 40
3 17 71 76
3 19 20 5
3 21 20 19
3 21 7 20
3 22 138 140
3 138 23 139
3 138 139 140
3 24 23 22
3 24 9 23
3 24 25 9
3 26 25 24
3 26 11 25
3 27 28 6
3 29 28 27
3 29 141 143
3 143 142 28
3 141 142 143
3 29 144 146
3 144 30 145
3 144 145 146
3 31 30 29
3 31 147 149
3 149 148 30
3 147 148 149
3 32 150 151
3 32 152 154
3 152 12 153
3 152 153 154
3 155 13 156
3 157 33 158
3 159 158 8
3 157 158 159
3 34 160 162
3 160 33 161
3 160 161 162
3 34 14 33
3 34 35 14
3 163 35 164
3 165 164 34
3 163 164 165
3 166 15 167
3 168 167 35
3 166 167 168
3 169 16 170
3 171 36 172
3 173 172 16
3 171 172 173
3 174 36 175
3 177 176 36
3 37 38 10
3 39 38 37
3 39 18 38
3 39 40 18
3 41 40 39
3 41 17 40
3 42 178 180
3 178 43 179
3 178 179 180
3 44 43 42
3 44 6 43
3 20 44 5
3 45 44 20
3 45 6 44
3 45 27 6
3 46 27 45
3 46 2 27
3 47 181 182
3 47 183 185
3 183 3 184
3 183 184 185
3 186 8 187
3 188 8 189
3 191 190 8
3 23 192 193
3 195 194 23
3 196 48 197
3 49 198 200
3 198 48 199
3 198 199 200
3 49 10 48
3 25 49 9
3 50 49 25
3 50 10 49
3 50 37 10
3 51 37 50
3 51 4 37
3 43 201 202
3 204 203 43
3 28 205 207
3 207 206 6
3 205 206 207
3 209 208 28
3 30 210 211
3 214 213 30
3 212 213 214
3 215 22 216
3 52 217 219
3 217 22 218
3 217 218 219
3 52 1 22
3 53 220 222
3 222 221 0
3 220 221 222
3 224 223 53
3 54 225 226
3 54 227 229
3 227 228 229
3 54 230 232
3 230 47 231
3 230 231 232
3 55 47 54
3 55 3 47
3 56 233 234
3 56 235 237
3 235 13 236
3 235 236 237
3 33 56 8
3 57 56 33
3 57 13 56
3 57 55 13
3 58 55 57
3 58 3 55
3 58 32 3
3 59 32 58
3 59 12 32
3 35 59 14
3 60 59 35
3 60 12 59
3 60 52 12
3 61 52 60
3 61 1 52
3 238 15 239
3 62 240 241
3 62 242 244
3 242 15 243
3 242 243 244
3 62 61 15
3 63 61 62
3 63 1 61
3 63 26 1
3 64 26 63
3 64 11 26
3 36 64 16
3 65 64 36
3 65 11 64
3 65 51 11
3 66 51 65
3 66 4 51
3 67 245 246
3 67 247 248
3 67 249 251
3 249 66 250
3 249 250 251
3 68 66 67
3 68 4 66
3 68 41 4
3 69 41 68
3 69 17 41
3 252 69 253
3 70 254 256
3 254 69 255
3 254 255 256
3 70 17 69
3 70 71 17
3 53 71 70
3 53 0 71
3 48 257 259
3 257 258 259
3 72 260 262
3 262 261 48
3 260 261 262
3 72 263 264
3 38 72 10
3 73 72 38
3 73 265 267
3 267 266 72
3 265 266 267
3 73 268 269
3 74 270 272
3 272 271 73
3 270 271 272
3 74 273 274
3 74 275 277
3 275 42 276
3 275 276 277
3 75 42 74
3 75 5 42
3 40 75 18
3 76 75 40
3 76 5 75
3 76 19 5
3 71 19 76
3 71 0 19
3 278 21 279
3 280 279 0
3 278 279 280
3 281 21 282
3 283 7 284
3 285 284 21
3 283 284 285
3 286 7 287
3 288 46 289
3 290 289 7
3 288 289 290
3 291 46 292
3 293 2 294
3 295 294 46
3 293 294 295
3 296 2 297
3 298 31 299
3 300 299 2
3 298 299 300
3 301 31 302
3 304 303 31
