ply
format ascii 1.0
element vertex 192
property float x
property float y
property float z
element face 174
property list uchar int vertex_index
end_header
-20.932058 -56.087105 -20.02438
-16.575109 -62.446892 -32.293568
-19.339605 -60.029488 -25.888914
-21.375542 -61.962879 -19.396452
-20.936401 -64.533592 -22.559935
-20.159922 -58.415081 -22.91493
-19.138731 -68.089226 -29.188356
-20.253742 -66.519852 -25.957144
-18.286215 -61.740097 -29.058355
-21.892677 -59.336086 -16.494352
-21.979851 -53.476734 -17.184826
-21.092827 -59.05191 -19.761852
-20.795156 -60.270473 -21.236414
-20.501822 -57.097664 -21.521257
-17.8643 -65.282333 -30.818516
-16.811989 -65.693512 -32.542168
-20.214725 -62.512146 -24.223236
-20.628351 -65.617775 -24.289478
-19.79497 -63.290821 -25.875294
-19.333326 -64.218704 -27.509958
-18.892067 -60.979908 -27.40773
-22.039745 -62.131725 -16.149273
-22.400948 -54.785858 -15.517162
-22.695301 -51.916668 -15.764826
-21.700796 -64.867653 -19.228844
-21.59745 -66.37587 -20.738224
-21.142439 -63.226299 -21.011946
-20.497204 -61.430786 -22.777954
-19.764133 -59.137276 -24.360815
-21.391882 -67.499069 -22.425068
-21.193932 -68.856728 -24.072691
-19.797867 -67.414299 -27.545923
-18.722483 -64.865105 -29.108154
-17.431574 -61.931854 -30.771881
-19.855761 -55.189487 -23.158684
-19.421455 -56.128521 -24.508331
-18.932062 -57.064636 -26.018909
-18.369772 -57.557789 -27.531097
-21.855688 -63.481056 -17.633389
-21.595858 -60.539894 -17.954439
-21.419855 -57.695156 -18.363031
-22.301714 -57.635509 -15.040148
-21.869284 -56.443481 -16.841021
-21.40106 -54.922878 -18.591015
-23.137566 -51.092867 -15.005854
-22.907567 -52.575983 -14.874219
-22.875059 -50.601872 -15.888243
-23.137566 -51.092867 -15.005854
-19.311575 -69.762783 -29.279466
-19.70341 -69.40242 -28.374766
-20.519256 -68.131253 -25.908666
-20.989351 -69.29969 -24.966439
-20.723837 -67.68829 -25.014917
-20.025804 -66.967075 -26.751534
-20.291319 -68.578476 -26.703055
-20.519256 -68.131253 -25.908666
-19.801792 -53.742939 -23.168605
-20.105277 -54.676023 -22.424696
-19.009819 -55.014906 -25.293709
-19.274158 -54.517037 -24.603902
-18.765122 -55.482963 -26.048997
-19.176758 -56.596578 -25.26362
-19.009819 -55.014906 -25.293709
-17.861283 -56.392336 -28.303415
-18.179358 -56.07123 -27.555377
-18.086118 -57.952956 -28.279514
-17.861283 -56.392336 -28.303415
-22.070577 -64.227188 -16.738409
-22.040656 -65.009784 -17.4654
-22.569961 -56.85423 -14.320122
-22.510707 -58.256183 -14.05853
-21.740715 -52.772644 -18.008385
-21.45132 -53.495716 -18.711479
-21.690455 -54.199806 -17.88792
-18.077983 -67.037685 -30.841538
-18.715198 -68.441131 -30.026457
-18.501516 -66.685779 -30.003436
-17.551828 -67.243274 -31.703363
-18.077983 -67.037685 -30.841538
-17.338144 -65.487922 -31.680342
-16.96851 -67.305858 -32.578432
-17.551828 -67.243274 -31.703363
-22.236587 -62.818596 -15.236272
-22.162605 -63.552523 -15.996351
-22.184195 -61.346243 -15.342897
-22.236587 -62.818596 -15.236272
-22.381036 -62.033113 -14.429896
-22.110661 -59.948423 -15.515437
-21.966211 -60.733906 -16.321813
-22.184195 -61.346243 -15.342897
-22.76039 -54.010578 -14.750388
-22.619577 -55.429405 -14.558629
-22.548125 -53.351263 -15.640994
-22.76039 -54.010578 -14.750388
-22.907567 -52.575983 -14.874219
-22.451607 -51.267563 -16.628715
-22.093882 -52.047596 -17.338715
-22.337576 -52.696701 -16.474826
-22.451607 -51.267563 -16.628715
-22.875059 -50.601872 -15.888243
-21.649123 -65.621762 -19.983534
-21.883719 -67.230629 -19.839919
-21.935392 -66.47652 -19.085229
-19.311575 -69.762783 -29.279466
-18.715198 -68.441131 -30.026457
-20.643425 -55.124832 -20.857544
-20.899242 -54.591627 -20.177008
-15.977415 -62.353292 -33.126207
-15.860377 -60.787018 -33.031214
-21.844393 -67.972744 -20.694002
-21.883719 -67.230629 -19.839919
-21.741609 -68.534344 -21.537424
-21.844393 -67.972744 -20.694002
-21.494666 -66.93747 -21.581646
-21.67172 -69.115643 -22.345373
-21.741609 -68.534344 -21.537424
-21.572745 -69.794472 -23.169185
-21.67172 -69.115643 -22.345373
-21.292907 -68.177898 -23.24888
-21.458651 -70.470318 -24.056501
-21.572745 -69.794472 -23.169185
-21.458651 -70.470318 -24.056501
-20.989351 -69.29969 -24.966439
-20.032978 -69.064956 -27.553549
-20.291319 -68.578476 -26.703055
-19.468299 -67.751762 -28.36714
-19.70341 -69.40242 -28.374766
-20.032978 -69.064956 -27.553549
-20.428307 -55.630112 -21.605982
-20.71694 -56.592385 -20.772818
-20.643425 -55.124832 -20.857544
-20.178792 -56.143575 -22.33997
-20.428307 -55.630112 -21.605982
-20.105277 -54.676023 -22.424696
-19.491312 -54.047519 -23.929079
-19.801792 -53.742939 -23.168605
-19.638608 -55.659004 -23.833507
-19.491312 -54.047519 -23.929079
-19.274158 -54.517037 -24.603902
-18.460502 -55.824653 -26.799283
-18.765122 -55.482963 -26.048997
-18.650917 -57.311212 -26.775003
-18.460502 -55.824653 -26.799283
-18.179358 -56.07123 -27.555377
-18.347265 -59.664015 -28.21783
-18.63092 -59.268849 -27.469414
-18.086118 -57.952956 -28.279514
-18.044339 -60.044109 -29.043143
-18.589141 -61.360003 -28.233042
-18.347265 -59.664015 -28.21783
-17.69312 -60.268165 -29.806272
-18.044339 -60.044109 -29.043143
-17.265799 -60.364044 -30.663035
-17.858894 -61.835976 -29.915118
-17.69312 -60.268165 -29.806272
-16.775333 -60.426485 -31.520229
-17.265799 -60.364044 -30.663035
-16.3471 -60.684004 -32.281073
-17.003342 -62.189373 -31.532725
-16.775333 -60.426485 -31.520229
-15.860377 -60.787018 -33.031214
-16.3471 -60.684004 -32.281073
-21.96321 -65.703083 -18.263127
-21.935392 -66.47652 -19.085229
-21.778242 -64.174355 -18.431117
-21.96321 -65.703083 -18.263127
-22.040656 -65.009784 -17.4654
-21.947716 -62.806391 -16.891331
-22.070577 -64.227188 -16.738409
-22.162605 -63.552523 -15.996351
-22.315179 -59.098135 -14.788335
-22.510707 -58.256183 -14.05853
-22.097195 -58.485798 -15.76725
-22.110661 -59.948423 -15.515437
-22.315179 -59.098135 -14.788335
-22.351331 -56.210684 -15.278655
-22.569961 -56.85423 -14.320122
-22.619577 -55.429405 -14.558629
-21.133743 -54.009513 -19.460325
-20.899242 -54.591627 -20.177008
-21.166559 -55.504992 -19.307697
-21.133743 -54.009513 -19.460325
-21.45132 -53.495716 -18.711479
-21.740715 -52.772644 -18.008385
-22.093882 -52.047596 -17.338715
-16.095855 -63.976602 -33.250507
-16.693549 -64.070202 -32.417868
-15.977415 -62.353292 -33.126207
-16.191049 -65.751121 -33.36952
-16.095855 -63.976602 -33.250507
-16.96851 -67.305858 -32.578432
-16.191049 -65.751121 -33.36952
3 0 13 11
3 1 15 14
3 2 18 16
3 2 20 18
3 44 23 45
3 47 46 23
3 3 26 24
3 5 27 12
3 5 28 27
3 6 48 49
3 4 29 25
3 7 30 17
3 7 50 52
3 52 51 30
3 50 51 52
3 7 53 55
3 53 31 54
3 53 54 55
3 8 32 19
3 8 33 32
3 56 34 57
3 58 35 59
3 60 36 61
3 62 61 35
3 60 61 62
3 63 37 64
3 66 65 37
3 67 38 68
3 9 39 21
3 9 40 39
3 69 41 70
3 10 42 22
3 10 43 42
3 10 71 73
3 73 72 43
3 71 72 73
3 11 12 3
3 13 12 11
3 13 5 12
3 14 74 76
3 76 75 6
3 74 75 76
3 15 77 79
3 79 78 14
3 77 78 79
3 15 80 81
3 16 17 4
3 18 17 16
3 18 7 17
3 18 19 7
3 20 19 18
3 20 8 19
3 82 21 83
3 84 21 85
3 84 85 86
3 87 9 88
3 89 88 21
3 87 88 89
3 90 22 91
3 23 92 94
3 92 22 93
3 92 93 94
3 23 10 22
3 23 95 97
3 97 96 10
3 95 96 97
3 99 98 23
3 24 100 102
3 100 25 101
3 100 101 102
3 26 25 24
3 26 4 25
3 12 26 3
3 27 26 12
3 27 4 26
3 27 16 4
3 28 16 27
3 28 2 16
3 104 103 6
3 106 105 0
3 108 107 1
3 25 109 110
3 29 111 113
3 113 112 25
3 111 112 113
3 29 114 115
3 17 29 4
3 30 29 17
3 30 116 118
3 118 117 29
3 116 117 118
3 30 119 120
3 122 121 30
3 31 123 124
3 31 125 127
3 125 6 126
3 125 126 127
3 19 31 7
3 32 31 19
3 32 6 31
3 32 14 6
3 33 14 32
3 33 1 14
3 128 13 129
3 130 129 0
3 128 129 130
3 34 131 133
3 131 13 132
3 131 132 133
3 34 5 13
3 134 34 135
3 35 136 138
3 136 34 137
3 136 137 138
3 35 5 34
3 35 28 5
3 36 28 35
3 36 2 28
3 139 36 140
3 37 141 143
3 141 36 142
3 141 142 143
3 37 2 36
3 37 20 2
3 144 20 145
3 146 145 37
3 144 145 146
3 147 8 148
3 149 148 20
3 147 148 149
3 150 8 151
3 152 33 153
3 154 153 8
3 152 153 154
3 155 33 156
3 157 1 158
3 159 158 33
3 157 158 159
3 161 160 1
3 162 24 163
3 38 164 166
3 164 24 165
3 164 165 166
3 38 3 24
3 21 167 169
3 167 38 168
3 167 168 169
3 39 38 21
3 39 3 38
3 39 11 3
3 40 11 39
3 40 0 11
3 41 170 171
3 41 172 174
3 172 9 173
3 172 173 174
3 22 175 177
3 175 41 176
3 175 176 177
3 42 41 22
3 42 9 41
3 42 40 9
3 43 40 42
3 43 0 40
3 43 178 180
3 180 179 0
3 178 179 180
3 182 181 43
3 184 183 10
3 185 15 186
3 187 186 1
3 185 186 187
3 188 15 189
3 191 190 15
