ply
format ascii 1.0
element vertex 266
property float x
property float y
property float z
element face 273
property list uchar int vertex_index
end_header
-20.254278 0.383875 71.513542
-13.35419 -3.729088 69.529205
-25.451172 6.259385 70.253448
-12.818124 -12.774395 69.919685
-20.539133 -10.894854 72.782089
-23.708481 -3.221554 72.337784
-26.202827 -0.628982 71.379532
-23.09466 2.965858 71.344711
-8.447008 -12.97634 67.537064
-9.356849 -9.193385 67.825562
-16.908451 -2.126976 70.889046
-17.122347 -7.184711 71.491486
-20.595495 -5.634793 72.360458
-23.80022 -9.166245 72.989555
-16.327263 3.528251 69.838654
-9.69792 -5.017983 67.686607
-13.218491 1.24411 68.833885
-13.25549 -8.441541 69.887672
-16.731224 -11.989992 71.661575
-23.469574 -15.024569 73.288933
-26.442072 -13.401715 72.708839
-22.024992 -1.565823 72.067078
-23.454111 -0.169577 71.88398
-21.68059 1.812563 71.497696
-7.175261 -9.317345 66.538322
-7.45012 -7.424711 66.554337
-18.632299 -0.982736 71.311432
-18.857565 -3.74741 71.726082
-20.408094 -2.632603 71.973595
-22.170963 -4.603775 72.478485
-14.796433 2.315839 69.408218
-25.901596 2.626331 70.874596
-10.590002 -13.053078 68.753838
-14.254835 -14.639167 70.693459
-11.55217 -4.448145 68.669044
-11.333258 -6.65709 68.748619
-13.325813 -6.178246 69.746033
-18.881853 -9.128805 72.237694
-17.013784 -9.636195 71.633781
-18.644766 -11.547505 72.314728
-18.281857 -13.952864 72.301613
-20.235605 -13.442461 72.837196
-21.792028 -15.467786 73.183716
-22.085827 -12.826828 73.138145
-25.28739 -8.404092 72.73719
-25.216553 -11.296047 72.973114
-26.678257 -10.533859 72.46125
-25.234512 -5.304565 72.408241
-25.122318 -2.031273 71.967461
-24.75285 1.340199 71.467415
-24.298286 4.658775 70.895866
-6.826108 -11.157506 66.462364
-8.915255 -11.121485 67.699539
-11.029106 -11.038509 68.886948
-15.104275 -2.951667 70.259659
-15.201597 -5.427401 70.557693
-17.004698 -4.591913 71.207878
-18.815989 -6.418759 71.994019
-20.55332 -8.151425 72.588707
-22.278719 -10.153928 73.011139
-22.28425 -7.491275 72.798172
-23.796322 -6.313081 72.717247
-18.294775 1.937708 70.774048
-19.786337 3.4392 70.908363
-17.893208 4.97487 70.124084
-7.664982 -5.39681 66.508835
-9.66907 -2.847745 67.443588
-11.576596 -2.281451 68.448723
-11.529915 0.169319 68.112526
-13.419651 -1.314047 69.281837
-15.022228 -0.33791 69.896439
-16.707941 0.600129 70.444672
-21.178341 4.792308 70.896126
-22.614397 6.395602 70.668137
-9.413119 -7.110298 67.702141
-11.268712 -8.844974 68.879082
-12.973375 -10.556783 69.885361
-15.248575 -7.936823 70.789124
-15.071064 -10.320995 70.871826
-14.74099 -12.421575 70.833366
-16.315214 -14.281453 71.586006
-23.714252 -12.151304 73.187538
-24.997219 -14.150313 73.136108
-6.532877 -6.496072 65.896962
-6.427211 -7.494874 65.923764
-26.197097 5.204942 70.126598
-26.422309 3.388414 70.437172
-25.676384 4.442858 70.564022
-25.949677 7.147562 69.812565
-26.197097 5.204942 70.126598
-12.504984 -13.772854 69.800067
-11.390923 -13.912195 69.217144
-11.704063 -12.913736 69.336761
-13.536479 -13.706781 70.306572
-13.22334 -14.70524 70.186954
-12.504984 -13.772854 69.800067
-26.646071 -9.00101 72.336395
-25.982823 -9.468975 72.59922
-25.950638 -7.936127 72.474365
-27.236827 -9.924834 72.080937
-26.646071 -9.00101 72.336395
-5.921309 -10.270301 65.835926
-5.731586 -11.192166 65.79002
-9.692693 -1.683777 67.315144
-8.806294 -2.024841 66.828774
-10.646456 -1.400629 67.817711
-10.622833 -2.564598 67.946156
-9.692693 -1.683777 67.315144
-12.374203 0.706715 68.473206
-11.495755 1.444882 67.907688
-12.340042 1.982278 68.268367
-26.909295 -1.682278 71.159717
-26.369121 -2.36017 71.593262
-20.278272 5.685747 70.55685
-20.482339 4.115754 70.902244
-19.58227 5.009194 70.562969
-22.289485 8.090941 70.285031
-21.737371 7.136902 70.445408
-23.192718 7.322437 70.430481
-22.289485 8.090941 70.285031
-8.23003 -13.911964 67.456242
-7.416595 -12.990453 66.924725
-18.133091 -15.167769 72.284104
-19.091414 -14.91423 72.563813
-23.252174 -16.334675 73.300793
-22.413401 -16.556283 73.248185
-22.630801 -15.246177 73.236324
-24.069136 -15.997521 73.255939
-23.252174 -16.334675 73.300793
-26.266429 -14.857495 72.792873
-25.544003 -15.231794 73.006507
-25.719645 -13.776014 72.922473
-26.967337 -14.532951 72.439315
-26.266429 -14.857495 72.792873
-6.289782 -8.441192 65.915756
-6.095886 -9.35022 65.873905
-7.312691 -8.371028 66.546329
-6.289782 -8.441192 65.915756
-6.427211 -7.494874 65.923764
-16.161408 4.88882 69.52755
-15.435427 4.261312 69.341969
-13.143876 2.472677 68.605156
-12.340042 1.982278 68.268367
-13.932847 3.008541 68.892323
-14.007462 1.779975 69.121051
-13.143876 2.472677 68.605156
-14.670013 3.655106 69.126751
-13.932847 3.008541 68.892323
-15.435427 4.261312 69.341969
-15.561848 2.922045 69.623436
-14.670013 3.655106 69.126751
-26.593435 1.581271 70.715973
-26.744051 -0.046386 70.968441
-26.052211 0.998674 71.127064
-26.593435 1.581271 70.715973
-26.422309 3.388414 70.437172
-10.388901 -13.994946 68.684624
-9.317404 -13.956577 68.076237
-9.518505 -13.014709 68.145451
-10.388901 -13.994946 68.684624
-11.390923 -13.912195 69.217144
-14.026377 -15.677132 70.616879
-13.22334 -14.70524 70.186954
-15.043212 -15.55882 71.069542
-14.026377 -15.677132 70.616879
-20.068288 -14.659028 72.831604
-19.091414 -14.91423 72.563813
-19.258731 -13.697662 72.569405
-21.013816 -14.455123 73.010456
-20.846499 -15.671691 73.004864
-20.068288 -14.659028 72.831604
-27.205053 -11.581605 72.212959
-27.08696 -13.015533 72.336754
-26.560164 -11.967787 72.585045
-27.205053 -11.581605 72.212959
-27.236827 -9.924834 72.080937
-25.884963 -4.697961 72.107617
-25.924199 -6.386363 72.30989
-25.828866 -3.061316 71.887226
-25.884963 -4.697961 72.107617
-25.178415 -3.667919 72.187851
-25.662572 -1.330128 71.673496
-26.369121 -2.36017 71.593262
-25.828866 -3.061316 71.887226
-6.606146 -12.081036 66.387375
-5.731586 -11.192166 65.79002
-7.636558 -12.066923 66.999714
-7.416595 -12.990453 66.924725
-6.606146 -12.081036 66.387375
-7.000685 -10.237426 66.500343
-5.921309 -10.270301 65.835926
-6.095886 -9.35022 65.873905
-25.924199 -6.386363 72.30989
-25.950638 -7.936127 72.474365
-25.260951 -6.854329 72.572716
-18.635705 5.777029 70.170829
-19.58227 5.009194 70.562969
-18.839773 4.207035 70.516223
-16.944381 5.612129 69.670265
-17.110236 4.251561 69.981369
-16.161408 4.88882 69.52755
-17.630538 6.462924 69.745483
-16.944381 5.612129 69.670265
-18.635705 5.777029 70.170829
-17.630538 6.462924 69.745483
-6.723041 -4.48335 65.82188
-6.640308 -5.482121 65.874211
-5.698367 -4.568661 65.187256
-7.742126 -4.413237 66.455506
-6.723041 -4.48335 65.82188
-8.758596 -4.223823 67.044391
-8.681451 -5.207396 67.097721
-7.742126 -4.413237 66.455506
-8.74417 -3.138704 66.922882
-8.806294 -2.024841 66.828774
-9.683495 -3.932864 67.565098
-8.758596 -4.223823 67.044391
-8.74417 -3.138704 66.922882
-10.612563 1.016686 67.477608
-11.495755 1.444882 67.907688
-10.623116 -0.175245 67.649613
-10.612563 1.016686 67.477608
-11.553256 -1.056066 68.280625
-10.646456 -1.400629 67.817711
-10.623116 -0.175245 67.649613
-26.909295 -1.682278 71.159717
-26.744051 -0.046386 70.968441
-21.019343 6.335256 70.559403
-20.278272 5.685747 70.55685
-21.896369 5.593955 70.782131
-21.019343 6.335256 70.559403
-21.737371 7.136902 70.445408
-24.034662 6.454023 70.544345
-23.456342 5.527189 70.782002
-23.192718 7.322437 70.430481
-24.611105 7.254328 70.223137
-24.874729 5.45908 70.574657
-24.034662 6.454023 70.544345
-25.192495 7.999888 69.926048
-24.611105 7.254328 70.223137
-25.949677 7.147562 69.812565
-25.192495 7.999888 69.926048
-8.23003 -13.911964 67.456242
-9.317404 -13.956577 68.076237
-7.557551 -6.410761 66.531586
-6.532877 -6.496072 65.896962
-6.640308 -5.482121 65.874211
-16.073401 -15.379963 71.515816
-15.043212 -15.55882 71.069542
-15.285025 -14.46031 71.139733
-17.149769 -15.332064 71.9263
-17.298535 -14.117159 71.94381
-18.133091 -15.167769 72.284104
-16.073401 -15.379963 71.515816
-17.149769 -15.332064 71.9263
-21.502773 -16.694091 73.155891
-20.846499 -15.671691 73.004864
-21.502773 -16.694091 73.155891
-22.413401 -16.556283 73.248185
-24.832959 -15.560393 73.179527
-24.069136 -15.997521 73.255939
-24.233397 -14.587441 73.21252
-24.832959 -15.560393 73.179527
-25.544003 -15.231794 73.006507
-26.967337 -14.532951 72.439315
-27.08696 -13.015533 72.336754
3 0 23 21
3 83 25 84
3 0 28 26
3 0 21 28
3 2 85 87
3 87 86 31
3 85 86 87
3 2 88 89
3 3 90 92
3 92 91 32
3 90 91 92
3 3 93 95
3 93 33 94
3 93 94 95
3 1 36 34
3 4 39 37
3 4 41 39
3 4 43 41
3 96 46 97
3 98 97 44
3 96 97 98
3 100 99 46
3 5 48 47
3 7 49 22
3 7 50 49
3 101 51 102
3 9 52 24
3 9 53 52
3 10 56 54
3 12 57 27
3 12 58 57
3 12 60 58
3 5 61 29
3 5 47 61
3 14 64 62
3 103 66 104
3 105 67 106
3 107 106 66
3 105 106 107
3 16 108 110
3 108 68 109
3 108 109 110
3 16 69 68
3 16 70 69
3 14 71 30
3 14 62 71
3 6 111 112
3 113 72 114
3 115 114 63
3 113 114 115
3 116 73 117
3 119 118 73
3 8 120 121
3 15 74 65
3 17 75 35
3 17 76 75
3 11 77 55
3 18 78 38
3 18 79 78
3 18 80 79
3 123 122 40
3 19 124 126
3 126 125 42
3 124 125 126
3 19 127 128
3 13 81 59
3 20 82 45
3 20 129 131
3 131 130 82
3 129 130 131
3 20 132 133
3 21 22 5
3 23 22 21
3 23 7 22
3 134 24 135
3 25 136 138
3 136 24 137
3 136 137 138
3 25 9 24
3 26 27 10
3 28 27 26
3 28 12 27
3 28 29 12
3 21 29 28
3 21 5 29
3 140 139 14
3 141 16 142
3 143 30 144
3 145 144 16
3 143 144 145
3 146 30 147
3 148 14 149
3 150 149 30
3 148 149 150
3 31 151 153
3 153 152 6
3 151 152 153
3 155 154 31
3 32 156 158
3 158 157 8
3 156 157 158
3 160 159 32
3 33 161 162
3 33 163 164
3 34 35 15
3 36 35 34
3 36 17 35
3 37 38 11
3 39 38 37
3 39 18 38
3 39 40 18
3 41 40 39
3 41 165 167
3 167 166 40
3 165 166 167
3 41 168 170
3 168 42 169
3 168 169 170
3 43 42 41
3 43 19 42
3 44 45 13
3 46 45 44
3 46 20 45
3 46 171 173
3 173 172 20
3 171 172 173
3 175 174 46
3 47 176 177
3 48 178 180
3 180 179 47
3 178 179 180
3 48 181 183
3 181 6 182
3 181 182 183
3 22 48 5
3 49 48 22
3 49 6 48
3 49 31 6
3 50 31 49
3 50 2 31
3 51 184 185
3 51 186 188
3 186 8 187
3 186 187 188
3 24 189 191
3 189 51 190
3 189 190 191
3 52 51 24
3 52 8 51
3 52 32 8
3 53 32 52
3 53 3 32
3 54 55 1
3 56 55 54
3 56 11 55
3 27 56 10
3 57 56 27
3 57 11 56
3 57 37 11
3 58 37 57
3 58 4 37
3 58 59 4
3 60 59 58
3 60 13 59
3 29 60 12
3 61 60 29
3 61 13 60
3 61 44 13
3 47 44 61
3 47 192 194
3 194 193 44
3 192 193 194
3 62 63 0
3 64 63 62
3 64 195 197
3 197 196 63
3 195 196 197
3 198 64 199
3 200 199 14
3 198 199 200
3 201 64 202
3 204 203 64
3 205 65 206
3 205 206 207
3 208 65 209
3 210 15 211
3 212 211 65
3 210 211 212
3 66 213 214
3 66 215 217
3 215 15 216
3 215 216 217
3 66 34 15
3 67 34 66
3 67 1 34
3 68 218 219
3 68 220 221
3 68 222 224
3 222 67 223
3 222 223 224
3 69 67 68
3 69 1 67
3 69 54 1
3 70 54 69
3 70 10 54
3 30 70 16
3 71 70 30
3 71 10 70
3 71 26 10
3 62 26 71
3 62 0 26
3 226 225 6
3 63 23 0
3 72 23 63
3 72 7 23
3 227 72 228
3 73 229 231
3 229 72 230
3 229 230 231
3 73 7 72
3 73 50 7
3 232 50 233
3 234 233 73
3 232 233 234
3 235 2 236
3 237 236 50
3 235 236 237
3 238 2 239
3 241 240 2
3 243 242 8
3 65 244 246
3 244 25 245
3 244 245 246
3 74 25 65
3 74 9 25
3 35 74 15
3 75 74 35
3 75 9 74
3 75 53 9
3 76 53 75
3 76 3 53
3 55 36 1
3 77 36 55
3 77 17 36
3 38 77 11
3 78 77 38
3 78 17 77
3 78 76 17
3 79 76 78
3 79 3 76
3 79 33 3
3 80 33 79
3 80 247 249
3 249 248 33
3 247 248 249
3 40 80 18
3 250 80 251
3 252 251 40
3 250 251 252
3 254 253 80
3 42 255 256
3 258 257 42
3 59 43 4
3 81 43 59
3 81 19 43
3 45 81 13
3 82 81 45
3 82 19 81
3 82 259 261
3 261 260 19
3 259 260 261
3 263 262 82
3 265 264 20
