ply
format ascii 1.0
element vertex 289
property float x
property float y
property float z
element face 276
property list uchar int vertex_index
end_header
36.065392 -3.958213 -22.754787
38.660393 -21.086172 -20.764055
31.155298 2.423312 -22.598259
38.699265 -11.912525 -22.589125
30.806204 -4.644537 -14.712835
35.991665 -11.142068 -14.883523
33.933887 -0.501202 -22.882032
38.979164 -16.440439 -21.809299
39.200912 -12.937631 -25.961899
37.741196 -7.587218 -22.998518
38.868446 -8.19951 -26.670033
30.99024 -1.366521 -18.518305
33.666615 -4.397654 -18.617477
28.183262 -7.255598 -7.658573
30.803797 -7.71546 -10.905394
33.587582 -7.826108 -14.707968
35.922901 -7.678783 -18.743267
37.612267 -11.309304 -18.784641
38.600147 -15.393791 -18.451145
35.048824 -2.153079 -22.819033
35.100693 -0.08709 -24.892624
36.156525 -1.968967 -24.820013
38.898949 -18.626755 -21.409594
39.015438 -17.069101 -23.441835
38.803974 -19.61915 -22.797113
31.249643 4.268987 -24.571432
38.283955 -9.759882 -22.708874
38.394009 -7.950801 -24.80813
38.767132 -9.963393 -24.696024
30.805223 -3.023487 -16.528172
32.346436 -2.797054 -18.600826
32.232407 -4.465924 -16.673977
28.414881 -8.335271 -5.990682
29.6283 -8.854866 -7.348307
29.421282 -7.615558 -9.056066
30.975056 -9.175795 -9.036223
33.571262 -9.379892 -12.751411
34.861557 -9.49787 -14.748445
34.797642 -7.803616 -16.625099
35.989265 -9.511005 -16.853666
36.876781 -9.482458 -18.823893
36.888897 -11.299736 -16.780018
32.538971 0.933119 -22.610739
32.722466 2.965865 -24.839523
33.901363 1.535102 -24.833057
38.922375 -14.132987 -22.313416
38.994064 -12.331867 -24.251995
39.07917 -14.664902 -23.881716
29.304518 -4.767179 -12.730738
38.508873 -21.873497 -22.107817
36.998775 -5.747737 -22.90127
37.076973 -3.905299 -24.830223
37.836491 -5.847726 -24.918547
39.113323 -10.54634 -26.389301
31.132612 0.487781 -20.603096
32.485741 -0.986466 -20.625315
33.755901 -2.414797 -20.761011
34.950485 -4.157696 -20.711836
27.064228 -6.834277 -6.236911
29.258173 -6.261288 -10.759839
30.753246 -6.234203 -12.756239
32.307041 -9.35221 -10.833715
32.244331 -7.85813 -12.732289
32.194767 -6.216066 -14.653023
33.528778 -6.137852 -16.554354
34.84148 -6.024108 -18.631809
36.013603 -5.887586 -20.767187
36.952774 -7.651976 -20.919136
37.652149 -9.509863 -20.831108
38.23177 -11.478628 -20.787504
37.664886 -13.156949 -16.769403
38.197777 -13.28347 -18.66684
38.628239 -13.674539 -20.47822
38.853249 -15.77449 -20.255489
38.897976 -18.032892 -19.79837
31.20247 3.34615 -23.584846
30.471342 4.021314 -23.544422
30.424169 3.098477 -22.557835
30.805714 -3.834012 -15.620504
30.08936 -3.112142 -15.597279
30.089851 -3.922667 -14.68961
30.403771 -9.647101 -7.300304
29.776117 -9.388695 -6.569173
31.077148 -9.807565 -8.144261
30.301678 -9.015331 -8.192265
30.403771 -9.647101 -7.300304
35.426611 -10.319969 -14.815984
34.896309 -10.297296 -13.779365
35.461363 -11.119395 -13.846904
35.143952 0.907723 -25.924275
35.686573 0.028834 -25.969572
39.083868 -16.260528 -24.418044
39.00123 -17.482636 -24.147762
28.593443 -4.750521 -11.85068
28.526775 -4.01191 -12.703769
32.719386 4.002446 -25.880606
33.372583 3.254446 -25.905713
38.662431 -7.098705 -26.737923
38.425213 -6.97435 -25.806971
38.631227 -8.075156 -25.739081
38.921351 -7.274218 -27.68817
38.662431 -7.098705 -26.737923
38.614558 -21.08129 -23.180292
38.416981 -22.407781 -22.676917
30.25452 -0.651703 -18.476233
30.164358 -1.445287 -17.516067
31.061426 -0.43937 -19.560701
30.325707 0.275448 -19.518628
30.25452 -0.651703 -18.476233
27.380559 -6.431575 -7.670612
26.821042 -6.220915 -6.959781
27.623745 -7.044937 -6.947742
28.039975 -6.628885 -8.435978
27.380559 -6.431575 -7.670612
33.033334 -10.16388 -10.847056
32.391821 -10.064559 -9.895525
37.654916 -13.91839 -15.728305
37.28407 -13.003131 -15.812293
38.398962 -14.338631 -18.558993
38.201422 -14.157493 -17.61845
38.402607 -15.212654 -17.510602
38.869056 -18.781802 -18.802412
38.853693 -17.792154 -18.932948
38.837656 -19.210634 -19.590774
38.869056 -18.781802 -18.802412
37.118817 -2.833689 -25.935671
37.484331 -3.849234 -25.908015
36.214489 -0.912104 -25.933267
35.686573 0.028834 -25.969572
35.628609 -1.028029 -24.856319
38.895498 -18.757661 -23.825401
39.00123 -17.482636 -24.147762
38.909706 -18.344126 -23.119474
30.517058 4.927799 -24.532131
30.471342 4.021314 -23.544422
31.286544 5.314278 -25.684989
30.553959 5.97309 -25.645688
30.517058 4.927799 -24.532131
39.271116 -12.022358 -27.027282
39.253429 -13.301397 -26.69176
30.071849 -2.27377 -16.521001
30.08936 -3.112142 -15.597279
30.897731 -2.195004 -17.523239
30.164358 -1.445287 -17.516067
30.071849 -2.27377 -16.521001
29.169407 -9.128898 -5.89036
28.651973 -8.864958 -5.213262
29.021591 -8.595069 -6.669494
29.169407 -9.128898 -5.89036
29.776117 -9.388695 -6.569173
34.251161 -10.238307 -12.780848
33.665445 -10.177721 -11.805904
34.216409 -9.438881 -13.749928
34.251161 -10.238307 -12.780848
34.896309 -10.297296 -13.779365
38.594434 -16.162511 -17.459471
38.402607 -15.212654 -17.510602
38.704779 -16.472603 -18.259335
38.594434 -16.162511 -17.459471
33.962032 2.539064 -25.90248
33.372583 3.254446 -25.905713
33.311915 2.250484 -24.83629
34.544286 1.718819 -25.894491
34.501028 0.724006 -24.862841
35.143952 0.907723 -25.924275
33.962032 2.539064 -25.90248
34.544286 1.718819 -25.894491
39.115734 -15.058428 -24.637985
39.047304 -15.867002 -23.661776
39.083868 -16.260528 -24.418044
39.176605 -14.194793 -25.678076
39.140041 -13.801267 -24.921807
39.115734 -15.058428 -24.637985
39.253429 -13.301397 -26.69176
39.176605 -14.194793 -25.678076
29.339008 -3.983988 -13.698562
28.526775 -4.01191 -12.703769
30.055361 -4.705858 -13.721787
30.089851 -3.922667 -14.68961
29.339008 -3.983988 -13.698562
35.997141 -11.936196 -13.830517
35.461363 -11.119395 -13.846904
36.44746 -11.995691 -14.869353
35.997141 -11.936196 -13.830517
38.403616 -22.681631 -21.079375
38.584633 -21.479835 -21.435936
38.479376 -22.287968 -20.407494
38.304281 -23.073992 -21.701549
38.403616 -22.681631 -21.079375
38.416981 -22.407781 -22.676917
38.304281 -23.073992 -21.701549
31.982974 4.654006 -25.746561
31.986054 3.617426 -24.705478
32.719386 4.002446 -25.880606
31.286544 5.314278 -25.684989
31.982974 4.654006 -25.746561
37.86409 -4.820448 -25.952177
37.484331 -3.849234 -25.908015
37.456732 -4.876512 -24.874385
38.146454 -5.922813 -25.86218
38.11525 -6.899263 -24.863338
38.425213 -6.97435 -25.806971
37.86409 -4.820448 -25.952177
38.146454 -5.922813 -25.86218
39.227322 -10.826712 -27.240983
39.157117 -11.741986 -26.1756
39.271116 -12.022358 -27.027282
39.170349 -9.681202 -27.367935
39.227322 -10.826712 -27.240983
39.047911 -8.507786 -27.508301
38.990884 -9.372925 -26.529667
39.170349 -9.681202 -27.367935
38.921351 -7.274218 -27.68817
39.047911 -8.507786 -27.508301
38.762108 -19.954116 -23.52494
38.656424 -20.746324 -22.452465
38.614558 -21.08129 -23.180292
38.895498 -18.757661 -23.825401
38.762108 -19.954116 -23.52494
30.367024 2.137461 -21.495899
30.424169 3.098477 -22.557835
30.355682 1.169695 -20.498317
30.325707 0.275448 -19.518628
31.143955 1.455547 -21.600677
30.367024 2.137461 -21.495899
30.355682 1.169695 -20.498317
27.894605 -8.009536 -5.376677
28.651973 -8.864958 -5.213262
27.219279 -7.259039 -5.499792
27.894605 -8.009536 -5.376677
27.739555 -7.584774 -6.113796
26.538709 -6.419094 -5.709319
27.219279 -7.259039 -5.499792
26.310375 -5.927885 -6.417161
25.784857 -5.512702 -5.889569
26.538709 -6.419094 -5.709319
26.310375 -5.927885 -6.417161
26.821042 -6.220915 -6.959781
28.658985 -6.808865 -9.134725
28.039975 -6.628885 -8.435978
28.802272 -7.435578 -8.357319
28.57743 -6.13173 -9.986611
28.658985 -6.808865 -9.134725
29.339728 -6.938423 -9.907953
28.57027 -5.497576 -10.86523
28.57743 -6.13173 -9.986611
29.281346 -5.514233 -11.745289
28.593443 -4.750521 -11.85068
28.57027 -5.497576 -10.86523
31.725828 -9.976351 -8.996778
31.077148 -9.807565 -8.144261
31.641048 -9.264003 -9.934969
31.725828 -9.976351 -8.996778
32.391821 -10.064559 -9.895525
32.939151 -9.366051 -11.792563
33.033334 -10.16388 -10.847056
33.665445 -10.177721 -11.805904
36.896076 -12.074524 -15.8176
36.440281 -11.220902 -15.83177
36.44746 -11.995691 -14.869353
37.276892 -12.228343 -16.77471
36.896076 -12.074524 -15.8176
37.28407 -13.003131 -15.812293
37.934977 -14.094233 -16.669731
37.654916 -13.91839 -15.728305
37.931331 -13.220209 -17.718122
37.934977 -14.094233 -16.669731
38.201422 -14.157493 -17.61845
38.831329 -16.662953 -19.161507
38.726698 -15.584141 -19.353317
38.704779 -16.472603 -18.259335
38.875613 -16.903691 -20.02693
38.831329 -16.662953 -19.161507
38.853693 -17.792154 -18.932948
38.838143 -19.507565 -20.396386
38.898463 -18.329823 -20.603982
38.837656 -19.210634 -19.590774
38.718864 -20.737274 -20.073617
38.779671 -19.856464 -21.086824
38.838143 -19.507565 -20.396386
38.595557 -21.83258 -19.718367
38.718864 -20.737274 -20.073617
38.479376 -22.287968 -20.407494
38.595557 -21.83258 -19.718367
36.658592 -1.865523 -25.930566
36.616749 -2.937133 -24.825118
37.118817 -2.833689 -25.935671
36.214489 -0.912104 -25.933267
36.658592 -1.865523 -25.930566
3 0 21 19
3 1 24 22
3 2 75 77
3 75 25 76
3 75 76 77
3 3 28 26
3 4 78 80
3 78 29 79
3 78 79 80
3 4 31 29
3 81 33 82
3 83 35 84
3 85 84 33
3 83 84 85
3 5 86 88
3 86 37 87
3 86 87 88
3 5 39 37
3 5 41 39
3 6 44 42
3 90 89 20
3 7 47 45
3 92 91 23
3 93 48 94
3 96 95 43
3 9 52 50
3 10 97 99
3 99 98 27
3 97 98 99
3 10 100 101
3 8 53 46
3 103 102 49
3 11 104 105
3 11 106 108
3 106 54 107
3 106 107 108
3 11 55 54
3 12 56 30
3 12 57 56
3 13 58 32
3 13 109 111
3 111 110 58
3 109 110 111
3 13 112 113
3 14 59 34
3 14 60 59
3 114 61 115
3 15 62 36
3 15 63 62
3 15 64 63
3 16 65 38
3 16 66 65
3 16 67 66
3 17 68 40
3 17 69 68
3 116 70 117
3 18 118 120
3 118 71 119
3 118 119 120
3 18 72 71
3 18 73 72
3 121 74 122
3 124 123 74
3 126 125 51
3 19 20 6
3 21 20 19
3 21 127 129
3 129 128 20
3 127 128 129
3 22 23 7
3 24 23 22
3 24 130 132
3 132 131 23
3 130 131 132
3 25 133 134
3 25 135 137
3 135 136 137
3 26 27 9
3 28 27 26
3 28 10 27
3 139 138 8
3 29 140 141
3 29 142 144
3 142 11 143
3 142 143 144
3 29 30 11
3 31 30 29
3 31 12 30
3 145 32 146
3 33 147 149
3 147 32 148
3 147 148 149
3 33 13 32
3 33 34 13
3 35 34 33
3 35 14 34
3 150 36 151
3 37 152 154
3 152 36 153
3 152 153 154
3 37 15 36
3 37 38 15
3 39 38 37
3 39 16 38
3 39 40 16
3 41 40 39
3 41 17 40
3 155 18 156
3 158 157 18
3 42 43 2
3 44 43 42
3 44 159 161
3 161 160 43
3 159 160 161
3 20 44 6
3 162 44 163
3 164 163 20
3 162 163 164
3 166 165 44
3 45 46 3
3 47 46 45
3 47 8 46
3 23 47 7
3 167 47 168
3 169 168 23
3 167 168 169
3 170 8 171
3 172 171 47
3 170 171 172
3 174 173 8
3 48 175 176
3 48 177 179
3 177 4 178
3 177 178 179
3 180 5 181
3 183 182 5
3 184 49 185
3 186 185 1
3 184 185 186
3 187 49 188
3 190 189 49
3 43 25 2
3 191 25 192
3 193 192 43
3 191 192 193
3 195 194 25
3 50 51 0
3 52 51 50
3 52 196 198
3 198 197 51
3 196 197 198
3 27 52 9
3 199 52 200
3 201 200 27
3 199 200 201
3 203 202 52
3 46 28 3
3 53 28 46
3 53 10 28
3 204 53 205
3 206 205 8
3 204 205 206
3 207 53 208
3 209 10 210
3 211 210 53
3 209 210 211
3 213 212 10
3 49 24 1
3 214 24 215
3 216 215 49
3 214 215 216
3 218 217 24
3 219 2 220
3 54 221 222
3 54 223 225
3 223 2 224
3 223 224 225
3 54 42 2
3 55 42 54
3 55 6 42
3 30 55 11
3 56 55 30
3 56 6 55
3 56 19 6
3 57 19 56
3 57 0 19
3 32 226 227
3 58 228 230
3 230 229 32
3 228 229 230
3 58 231 232
3 58 233 235
3 233 234 235
3 237 236 58
3 34 238 240
3 240 239 13
3 238 239 240
3 59 241 243
3 243 242 34
3 241 242 243
3 59 244 245
3 59 246 248
3 246 48 247
3 246 247 248
3 60 48 59
3 60 4 48
3 249 35 250
3 61 251 253
3 251 35 252
3 251 252 253
3 61 14 35
3 36 254 256
3 254 61 255
3 254 255 256
3 62 61 36
3 62 14 61
3 62 60 14
3 63 60 62
3 63 4 60
3 63 31 4
3 64 31 63
3 64 12 31
3 38 64 15
3 65 64 38
3 65 12 64
3 65 57 12
3 66 57 65
3 66 0 57
3 66 50 0
3 67 50 66
3 67 9 50
3 40 67 16
3 68 67 40
3 68 9 67
3 68 26 9
3 69 26 68
3 69 3 26
3 257 41 258
3 259 258 5
3 257 258 259
3 70 260 262
3 260 41 261
3 260 261 262
3 70 17 41
3 263 70 264
3 71 265 267
3 265 70 266
3 265 266 267
3 71 17 70
3 71 69 17
3 72 69 71
3 72 3 69
3 72 45 3
3 73 45 72
3 73 7 45
3 268 73 269
3 270 269 18
3 268 269 270
3 74 271 273
3 271 73 272
3 271 272 273
3 74 7 73
3 74 22 7
3 274 22 275
3 276 275 74
3 274 275 276
3 277 1 278
3 279 278 22
3 277 278 279
3 280 1 281
3 283 282 1
3 51 21 0
3 284 21 285
3 286 285 51
3 284 285 286
3 288 287 21
