ply
format ascii 1.0
element vertex 267
property float x
property float y
property float z
element face 241
property list uchar int vertex_index
end_header
15.805842 -43.734325 -31.982767
7.138631 -42.793209 -42.071037
20.639816 -48.63665 -25.30826
18.739723 -57.543106 -29.198486
14.648417 -47.624504 -33.821999
11.748159 -43.88327 -36.968464
8.608932 -39.946793 -40.341503
19.476191 -53.069351 -27.375044
3.943786 -37.333996 -45.444675
18.337561 -46.316967 -28.834953
17.258169 -50.660244 -30.653603
16.378572 -54.726231 -32.434322
14.156552 -49.671257 -34.694786
13.262482 -46.099277 -35.378105
12.653308 -47.618698 -36.290611
11.126179 -45.569462 -37.871342
16.547457 -41.739803 -30.999741
15.851645 -38.415821 -31.778559
15.167526 -40.38435 -32.573818
7.885916 -41.199341 -41.234653
6.379678 -38.88158 -42.845222
5.505625 -40.126881 -43.747276
21.517502 -49.343334 -23.64967
22.246763 -47.143532 -22.621958
21.335327 -46.282696 -24.351988
20.332556 -45.358818 -26.004982
19.144764 -44.262833 -27.73498
19.565653 -47.380318 -27.07501
19.145056 -55.430168 -28.188227
18.397444 -51.849964 -29.069744
18.077032 -54.276741 -29.840096
16.916779 -53.01136 -31.425356
17.667986 -56.526627 -30.803358
16.974285 -60.902557 -32.555092
16.530275 -63.120056 -33.477154
15.16262 -45.552044 -32.937275
14.406464 -42.161774 -33.566406
13.813068 -44.092342 -34.470181
12.368957 -42.292072 -36.044189
10.793152 -40.314251 -37.755791
10.1569 -41.87167 -38.666405
9.608177 -43.67445 -39.447334
8.701573 -44.847233 -40.510189
20.90201 -51.796303 -24.649797
19.986969 -50.811054 -26.382225
20.383471 -54.18354 -25.695969
20.024824 -56.528774 -26.60984
17.92997 -42.95763 -29.326683
17.156937 -45.125889 -30.3629
18.906071 -49.640392 -28.1276
17.759203 -48.494991 -29.747595
16.473492 -47.012867 -31.381731
15.991785 -49.131744 -32.238316
15.551397 -51.215469 -33.086987
15.016281 -53.224113 -34.052525
18.563292 -60.185192 -29.968857
17.342272 -58.575344 -31.637726
15.989229 -57.094936 -33.310432
6.214614 -43.944897 -42.961224
4.506823 -41.14513 -44.642262
13.092727 -49.498198 -35.975624
13.40493 -48.644977 -35.492699
13.844349 -50.524477 -35.177712
12.307766 -48.411964 -36.775943
13.092727 -49.498198 -35.975624
16.985505 -64.844689 -33.143709
17.244905 -63.85672 -32.627519
9.984675 -45.454531 -39.161697
10.367178 -44.621956 -38.659338
10.743676 -46.402037 -38.373701
9.531374 -46.040923 -39.693124
9.154875 -44.260841 -39.978761
9.984675 -45.454531 -39.161697
21.01811 -53.344511 -24.333756
21.272153 -52.16465 -23.816969
20.758841 -54.538129 -24.856842
20.642741 -52.989922 -25.172883
21.01811 -53.344511 -24.333756
20.284548 -58.176395 -26.217182
20.39611 -56.967523 -25.80101
19.883637 -57.705936 -27.055425
20.284548 -58.176395 -26.217182
15.602308 -36.89069 -32.096698
15.110707 -37.850506 -32.594003
14.012183 -40.524146 -33.925697
13.663445 -41.29048 -34.382202
8.227415 -38.12668 -40.691033
8.941886 -39.150452 -39.883919
3.684321 -35.550596 -45.86296
4.422465 -36.837229 -44.978986
3.209684 -36.075322 -46.286952
3.684321 -35.550596 -45.86296
22.700093 -45.962294 -22.064662
22.246526 -45.567312 -22.919339
18.407281 -61.293375 -30.444584
18.969468 -61.990225 -29.605218
17.796771 -60.488451 -31.279018
17.952782 -59.380268 -30.803292
18.407281 -61.293375 -30.444584
15.762379 -58.139297 -33.746753
16.481757 -58.998746 -32.932762
16.254906 -60.043108 -33.369084
15.274857 -56.135616 -34.089403
15.762379 -58.139297 -33.746753
5.676645 -44.416441 -43.413502
6.584989 -45.83914 -42.59449
4.822749 -43.016558 -44.254021
5.360718 -42.545013 -43.801743
5.676645 -44.416441 -43.413502
11.544202 -47.387346 -37.566309
11.889743 -46.59408 -37.080976
12.307766 -48.411964 -36.775943
10.743676 -46.402037 -38.373701
11.544202 -47.387346 -37.566309
16.199551 -40.077812 -31.38915
16.615649 -39.057209 -30.905369
16.963555 -40.7192 -30.51596
14.768648 -38.83477 -32.991633
15.110707 -37.850506 -32.594003
15.509586 -39.400086 -32.176189
7.501901 -39.341694 -41.604696
7.863409 -38.71542 -41.158121
8.247424 -40.573067 -40.788078
6.748782 -38.182813 -42.409981
7.501901 -39.341694 -41.604696
7.132797 -40.04046 -42.039938
5.985512 -36.987064 -43.299488
6.748782 -38.182813 -42.409981
5.640411 -37.611021 -43.67926
5.985512 -36.987064 -43.299488
5.203385 -38.233671 -44.130287
5.640411 -37.611021 -43.67926
5.942652 -39.50423 -43.296249
4.724705 -38.730438 -44.595975
4.422465 -36.837229 -44.978986
5.203385 -38.233671 -44.130287
21.882133 -48.243433 -23.135814
22.268365 -48.692629 -22.263346
21.903734 -49.79253 -22.777202
21.790807 -45.136894 -23.784354
22.246526 -45.567312 -22.919339
21.791045 -46.713114 -23.486973
21.249339 -44.725584 -24.674795
21.790807 -45.136894 -23.784354
20.747954 -44.263645 -25.501292
21.249339 -44.725584 -24.674795
20.833942 -45.820757 -25.178485
20.176806 -43.737215 -26.343132
20.747954 -44.263645 -25.501292
19.73866 -44.810825 -26.869981
19.582909 -43.189222 -27.208131
20.176806 -43.737215 -26.343132
17.466909 -62.747971 -32.166488
17.612777 -61.652057 -31.737702
16.75228 -62.011307 -33.016123
17.466909 -62.747971 -32.166488
17.244905 -63.85672 -32.627519
16.032902 -61.151857 -33.830115
16.254906 -60.043108 -33.369084
16.75228 -62.011307 -33.016123
13.366747 -42.255764 -34.834089
13.663445 -41.29048 -34.382202
14.109766 -43.127058 -34.018293
12.644692 -41.355629 -35.621094
13.366747 -42.255764 -34.834089
13.091012 -43.192207 -35.257185
11.895145 -40.513317 -36.445802
12.644692 -41.355629 -35.621094
11.107242 -39.524406 -37.301603
11.895145 -40.513317 -36.445802
11.581055 -41.303162 -36.89999
10.344583 -38.559 -38.149277
11.107242 -39.524406 -37.301603
10.033996 -39.334181 -38.591062
10.344583 -38.559 -38.149277
9.71587 -40.112891 -39.046369
10.033996 -39.334181 -38.591062
10.475026 -41.092961 -38.211098
9.382916 -40.909232 -39.503954
8.941886 -39.150452 -39.883919
9.71587 -40.112891 -39.046369
21.579899 -50.938165 -23.316905
21.903734 -49.79253 -22.777202
21.209756 -50.569818 -24.149733
21.579899 -50.938165 -23.316905
21.272153 -52.16465 -23.816969
20.575434 -55.794906 -25.344075
20.758841 -54.538129 -24.856842
20.204147 -55.356157 -26.152904
20.575434 -55.794906 -25.344075
20.39611 -56.967523 -25.80101
19.443753 -57.156633 -27.844619
19.58494 -55.979471 -27.399034
19.883637 -57.705936 -27.055425
19.241086 -58.213103 -28.349748
18.94239 -56.486637 -28.693357
19.443753 -57.156633 -27.844619
16.342941 -37.505503 -31.27844
16.615649 -39.057209 -30.905369
16.342941 -37.505503 -31.27844
15.602308 -36.89069 -32.096698
14.392714 -39.635433 -33.429403
14.786995 -41.273062 -33.070112
14.012183 -40.524146 -33.925697
14.768648 -38.83477 -32.991633
14.392714 -39.635433 -33.429403
8.227415 -38.12668 -40.691033
7.863409 -38.71542 -41.158121
22.662691 -47.440248 -21.738012
22.268365 -48.692629 -22.263346
22.662691 -47.440248 -21.738012
22.700093 -45.962294 -22.064662
18.980362 -42.632479 -28.008299
19.582909 -43.189222 -27.208131
18.372965 -41.979878 -28.80415
18.980362 -42.632479 -28.008299
18.537367 -43.610231 -28.530831
17.654812 -41.328114 -29.679431
18.372965 -41.979878 -28.80415
17.238714 -42.348717 -30.163212
16.963555 -40.7192 -30.51596
17.654812 -41.328114 -29.679431
14.274214 -52.300905 -34.856581
13.844349 -50.524477 -35.177712
14.586416 -51.447685 -34.373655
19.13113 -59.392456 -28.794377
19.241086 -58.213103 -28.349748
19.042915 -60.713499 -29.179562
18.969468 -61.990225 -29.605218
18.651508 -58.864149 -29.583672
19.13113 -59.392456 -28.794377
19.042915 -60.713499 -29.179562
17.158279 -59.738951 -32.096409
17.796771 -60.488451 -31.279018
17.612777 -61.652057 -31.737702
14.788383 -54.200204 -34.46045
15.502755 -55.159525 -33.681478
15.274857 -56.135616 -34.089403
14.274214 -52.300905 -34.856581
14.788383 -54.200204 -34.46045
16.222177 -64.069702 -33.97438
16.985505 -64.844689 -33.143709
15.739615 -62.138189 -34.305584
16.222177 -64.069702 -33.97438
16.032902 -61.151857 -33.830115
15.739615 -62.138189 -34.305584
9.182589 -46.861168 -40.114179
9.531374 -46.040923 -39.693124
8.357741 -45.69582 -40.885202
9.182589 -46.861168 -40.114179
7.57627 -44.668808 -41.665627
7.920102 -43.820221 -41.290613
8.357741 -45.69582 -40.885202
7.114261 -45.244652 -42.11072
6.584989 -45.83914 -42.59449
6.676623 -43.369053 -42.516131
7.57627 -44.668808 -41.665627
7.114261 -45.244652 -42.11072
3.996347 -41.787077 -45.019684
4.822749 -43.016558 -44.254021
3.710065 -39.867935 -45.460234
3.996347 -41.787077 -45.019684
3.428546 -37.962368 -45.861441
4.225305 -39.239563 -45.043469
3.710065 -39.867935 -45.460234
3.209684 -36.075322 -46.286952
3.428546 -37.962368 -45.861441
3 60 14 61
3 62 61 12
3 60 61 62
3 64 63 14
3 0 18 16
3 1 20 19
3 1 21 20
3 2 24 22
3 2 25 24
3 2 27 25
3 3 30 28
3 3 32 30
3 65 34 66
3 4 37 35
3 5 38 13
3 5 39 38
3 5 40 39
3 67 41 68
3 69 68 15
3 67 68 69
3 70 42 71
3 72 71 41
3 70 71 72
3 73 43 74
3 75 45 76
3 77 76 43
3 75 76 77
3 78 46 79
3 81 80 46
3 83 82 17
3 85 84 36
3 6 86 87
3 8 88 89
3 8 90 91
3 93 92 23
3 9 47 26
3 9 48 47
3 7 49 44
3 10 50 29
3 10 51 50
3 10 52 51
3 11 53 31
3 11 54 53
3 94 55 95
3 96 56 97
3 98 97 55
3 96 97 98
3 99 57 100
3 101 100 33
3 99 100 101
3 103 102 57
3 104 58 105
3 106 59 107
3 108 107 58
3 106 107 108
3 12 13 4
3 14 13 12
3 14 5 13
3 14 15 5
3 109 15 110
3 111 110 14
3 109 110 111
3 113 112 15
3 16 114 116
3 114 17 115
3 114 115 116
3 18 17 16
3 18 117 119
3 119 118 17
3 117 118 119
3 19 120 122
3 122 121 6
3 120 121 122
3 20 123 125
3 125 124 19
3 123 124 125
3 20 126 127
3 20 128 129
3 21 130 132
3 132 131 20
3 130 131 132
3 21 133 135
3 133 8 134
3 133 134 135
3 22 136 138
3 136 23 137
3 136 137 138
3 24 23 22
3 24 139 141
3 141 140 23
3 139 140 141
3 24 142 143
3 25 144 146
3 146 145 24
3 144 145 146
3 25 147 148
3 25 149 151
3 149 26 150
3 149 150 151
3 27 26 25
3 27 9 26
3 28 29 7
3 30 29 28
3 30 10 29
3 30 31 10
3 32 31 30
3 32 11 31
3 152 33 153
3 34 154 156
3 154 33 155
3 154 155 156
3 34 157 159
3 159 158 33
3 157 158 159
3 35 36 0
3 37 36 35
3 37 160 162
3 162 161 36
3 160 161 162
3 13 37 4
3 38 37 13
3 38 163 165
3 165 164 37
3 163 164 165
3 38 166 167
3 39 168 170
3 170 169 38
3 168 169 170
3 39 171 172
3 39 173 174
3 40 175 177
3 177 176 39
3 175 176 177
3 40 178 180
3 178 6 179
3 178 179 180
3 15 40 5
3 41 40 15
3 41 6 40
3 41 19 6
3 42 19 41
3 42 1 19
3 181 22 182
3 43 183 185
3 183 22 184
3 183 184 185
3 43 2 22
3 43 44 2
3 45 44 43
3 45 7 44
3 186 45 187
3 46 188 190
3 188 45 189
3 188 189 190
3 46 7 45
3 46 28 7
3 191 28 192
3 193 192 46
3 191 192 193
3 194 3 195
3 196 195 28
3 194 195 196
3 17 197 198
3 200 199 17
3 36 18 0
3 201 18 202
3 203 202 36
3 201 202 203
3 205 204 18
3 207 206 6
3 23 208 209
3 211 210 23
3 26 212 213
3 47 214 216
3 216 215 26
3 214 215 216
3 47 217 218
3 47 219 221
3 219 16 220
3 219 220 221
3 48 16 47
3 48 0 16
3 44 27 2
3 49 27 44
3 49 9 27
3 29 49 7
3 50 49 29
3 50 9 49
3 50 48 9
3 51 48 50
3 51 0 48
3 51 35 0
3 52 35 51
3 52 4 35
3 31 52 10
3 53 52 31
3 53 4 52
3 53 12 4
3 54 12 53
3 54 222 224
3 224 223 12
3 222 223 224
3 225 3 226
3 55 227 228
3 55 229 231
3 229 3 230
3 229 230 231
3 55 32 3
3 56 32 55
3 56 11 32
3 33 232 234
3 232 56 233
3 232 233 234
3 57 56 33
3 57 11 56
3 57 54 11
3 235 54 236
3 237 236 57
3 235 236 237
3 239 238 54
3 240 34 241
3 242 34 243
3 245 244 34
3 246 42 247
3 248 42 249
3 250 1 251
3 252 251 42
3 250 251 252
3 58 253 254
3 58 255 257
3 255 1 256
3 255 256 257
3 58 21 1
3 59 21 58
3 59 8 21
3 258 59 259
3 260 59 261
3 262 8 263
3 264 263 59
3 262 263 264
3 266 265 8
