ply
format ascii 1.0
element vertex 349
property float x
property float y
property float z
element face 289
property list uchar int vertex_index
end_header
-31.805565 60.913898 21.985905
-31.136248 59.787544 30.12051
-30.152206 71.033386 31.008354
-31.931911 55.944073 24.644115
-30.738489 65.449478 30.619287
-30.297991 64.307915 36.096447
-25.961615 71.790695 41.25528
-27.80814 74.561569 36.433292
-31.44842 60.452198 25.644772
-29.377394 69.702316 36.439724
-20.464155 70.542465 43.878551
-14.050159 66.28183 44.345787
-31.552652 54.45821 28.947731
-31.867407 58.694351 23.155439
-24.743166 73.482681 40.828194
-25.807167 75.35833 38.453491
-4.952628 62.923038 40.511269
-31.289391 60.279984 27.671223
-31.260305 63.14978 25.694815
-31.093527 62.968193 28.020948
-30.488886 68.100166 30.966827
-30.667578 68.76416 28.24222
-29.497246 66.017265 38.948128
-28.815687 68.789177 39.005859
-27.665737 77.875107 33.590511
-28.547823 75.454994 33.878208
-18.993568 68.01503 45.386768
-10.575524 63.119625 44.181252
-12.441387 63.193832 45.348873
-31.198454 56.365646 31.89786
-31.332335 57.188751 29.527542
-31.499418 57.610695 27.252522
-30.99622 59.106564 32.667133
-30.950994 62.375954 30.55508
-30.800608 61.981438 32.961533
-30.561512 64.629318 33.467709
-30.255447 67.681755 33.497597
-27.175282 69.635773 41.538788
-27.965183 71.041565 39.141525
-26.950857 73.247452 38.957947
-26.818163 76.527824 36.270924
-24.847868 69.922089 43.533478
-23.463524 71.57486 42.904747
-8.847326 63.13427 43.010849
-6.901134 62.945305 41.809464
-31.631384 60.744732 23.559401
-31.433456 63.143555 23.689522
-30.901264 65.702324 28.204948
-29.916014 66.905106 36.361675
-29.816671 70.296638 33.90057
-28.646626 72.171593 36.640785
-29.220272 73.108398 33.942715
-29.706722 73.688217 31.114573
-22.105631 69.233093 44.899452
-22.015076 72.912125 42.129246
-15.764565 65.856819 45.556953
-17.20179 68.389 44.491291
-31.735786 55.099113 26.769865
-31.663202 58.231056 25.157494
-31.86231 61.588316 21.100916
-31.932659 60.296698 21.567144
-31.932659 60.296698 21.567144
-31.96358 59.186924 22.151912
-31.836486 59.804125 22.570672
-24.639633 75.139752 39.486615
-24.01962 74.233463 40.526235
-30.282956 71.182648 29.692158
-30.451296 69.716037 29.671395
-30.320546 69.566776 30.98759
-30.098519 72.691646 29.599988
-30.282956 71.182648 29.692158
-28.498581 67.989971 40.350386
-28.891215 66.820713 40.266954
-28.032608 78.332951 32.239318
-27.592018 79.487816 32.062166
-18.304819 66.584984 46.115763
-19.145406 66.266113 46.60017
-11.327516 64.610326 43.722811
-10.43416 64.826044 42.997818
-32.1158 54.826569 24.214242
-31.981874 54.340311 25.363084
-30.827004 60.157088 34.089878
-30.898414 60.544001 32.814333
-30.92481 58.719651 33.942678
-30.429752 64.468616 34.782078
-30.593856 62.925636 34.560753
-30.462096 62.764934 35.875122
-26.209005 77.634807 35.931714
-26.312665 75.943077 37.362207
-25.703508 77.050061 37.022997
-26.715538 78.247608 34.766118
-26.209005 77.634807 35.931714
-30.92481 58.719651 33.942678
-31.024638 57.364487 33.564685
-24.279308 68.887901 44.550564
-24.975337 68.170025 44.716017
-23.587136 69.714287 44.236199
-24.155696 70.748475 43.219113
-24.279308 68.887901 44.550564
-8.128312 61.619929 43.416989
-8.989642 61.52125 44.056105
-6.711743 64.456459 40.725277
-5.926881 62.934171 41.160366
-5.73749 64.445325 40.076179
-7.657022 64.501938 41.337666
-6.711743 64.456459 40.725277
-31.251186 64.518871 24.66426
-31.165303 64.52216 25.732129
-30.76711 68.707234 27.04419
-30.650012 70.195488 26.940425
-29.18343 74.72036 32.45169
-28.884048 74.281696 33.910461
-28.847205 75.893657 32.419437
-29.426654 75.010269 31.037619
-29.463497 73.398307 32.528644
-29.18343 74.72036 32.45169
-29.628624 75.432488 29.597501
-29.426654 75.010269 31.037619
-21.284893 69.887779 44.389001
-21.38249 68.06221 45.701416
-20.561752 68.716896 45.190966
-14.133659 64.550237 45.498075
-13.329273 63.006238 45.999618
-13.245773 64.737831 44.84733
-14.907362 66.069324 44.95137
-14.990862 64.337732 46.103659
-14.133659 64.550237 45.498075
-17.105791 70.163692 43.148559
-16.363721 68.808555 43.802747
-17.948431 69.844628 43.703102
-17.105791 70.163692 43.148559
-31.578581 52.715986 29.804892
-31.469946 54.084425 30.120953
-31.675636 53.144516 28.670461
-31.578581 52.715986 29.804892
-31.644219 54.778661 27.858798
-31.767203 53.464968 27.581527
-31.675636 53.144516 28.670461
-32.032514 57.726843 22.748521
-32.064766 56.351704 23.492859
-31.899659 57.319212 23.899777
-32.032514 57.726843 22.748521
-31.96358 59.186924 22.151912
-30.347176 62.368195 37.192642
-30.462096 62.764934 35.875122
-25.171633 76.077576 38.299263
-25.275166 74.420505 39.640843
-24.639633 75.139752 39.486615
-25.703508 77.050061 37.022997
-25.171633 76.077576 38.299263
-4.102087 62.854352 39.98275
-4.299251 61.429516 40.962958
-4.831433 64.44409 39.459921
-4.102087 62.854352 39.98275
-5.73749 64.445325 40.076179
-4.831433 64.44409 39.459921
-31.081914 64.431366 26.895195
-31.165303 64.52216 25.732129
-31.176916 63.058987 26.857881
-30.540642 70.048034 28.309092
-30.578232 68.432163 29.604523
-30.451296 69.716037 29.671395
-30.650012 70.195488 26.940425
-30.540642 70.048034 28.309092
-29.231994 65.434757 40.238089
-29.542676 64.058775 40.174818
-29.156467 67.403221 38.976993
-29.231994 65.434757 40.238089
-28.891215 66.820713 40.266954
-28.473651 77.122894 32.383167
-28.10678 76.665051 33.734359
-28.032608 78.332951 32.239318
-28.847205 75.893657 32.419437
-28.473651 77.122894 32.383167
-19.826459 67.453179 45.945074
-19.145406 66.266113 46.60017
-19.728862 69.278748 44.63266
-20.561752 68.716896 45.190966
-19.826459 67.453179 45.945074
-11.508456 63.156728 44.765062
-11.71677 61.563896 45.84198
-10.783838 61.526792 45.25817
-12.260447 64.64743 44.306621
-11.508456 63.156728 44.765062
-11.327516 64.610326 43.722811
-13.064833 66.191429 43.805079
-13.245773 64.737831 44.84733
-12.260447 64.64743 44.306621
-31.292847 55.038143 31.596018
-31.217016 54.633895 32.816169
-31.359787 55.449696 30.410859
-31.292847 55.038143 31.596018
-31.265394 56.777198 30.712701
-31.442493 55.823481 29.237637
-31.469946 54.084425 30.120953
-31.359787 55.449696 30.410859
-32.1158 54.826569 24.214242
-32.064766 56.351704 23.492859
-30.713404 61.601696 34.307665
-30.827004 60.157088 34.089878
-30.68106 63.305378 33.214621
-30.713404 61.601696 34.307665
-30.593856 62.925636 34.560753
-27.570232 70.338669 40.340156
-28.073329 69.116165 40.418219
-27.678379 68.413269 41.61685
-27.139325 78.92125 33.425911
-27.24195 77.201465 34.930718
-26.715538 78.247608 34.766118
-27.592018 79.487816 32.062166
-27.139325 78.92125 33.425911
-31.125754 55.994028 33.180049
-31.217016 54.633895 32.816169
-31.097337 57.736105 32.282497
-31.125754 55.994028 33.180049
-31.024638 57.364487 33.564685
-27.236853 67.718269 42.853969
-27.678379 68.413269 41.61685
-26.706572 68.821072 42.698425
-27.236853 67.718269 42.853969
-26.099739 69.898533 42.556672
-26.568448 70.713234 41.397034
-26.706572 68.821072 42.698425
-25.542865 68.96423 43.695771
-24.975337 68.170025 44.716017
-25.404742 70.856392 42.394379
-26.099739 69.898533 42.556672
-25.542865 68.96423 43.695771
-23.379799 73.279552 41.564512
-24.01962 74.233463 40.526235
-24.103345 72.528771 41.866471
-9.853741 61.513928 44.641306
-10.783838 61.526792 45.25817
-9.711425 63.126947 43.596051
-9.853741 61.513928 44.641306
-8.989642 61.52125 44.056105
-9.570061 64.833367 42.412616
-10.43416 64.826044 42.997818
-9.711425 63.126947 43.596051
-5.210778 61.420293 41.569491
-4.299251 61.429516 40.962958
-6.185032 61.431427 42.218588
-5.210778 61.420293 41.569491
-5.926881 62.934171 41.160366
-7.155216 61.525446 42.816296
-6.185032 61.431427 42.218588
-7.87423 63.039788 42.410156
-8.128312 61.619929 43.416989
-7.155216 61.525446 42.816296
-8.630118 64.59642 41.938358
-7.87423 63.039788 42.410156
-7.657022 64.501938 41.337666
-9.570061 64.833367 42.412616
-8.630118 64.59642 41.938358
-31.638049 61.849451 22.675519
-31.72514 61.934034 21.88877
-31.718474 60.829315 22.772653
-31.539085 63.048862 22.740579
-31.638049 61.849451 22.675519
-31.53242 61.944143 23.624462
-31.442901 64.422882 22.586537
-31.539085 63.048862 22.740579
-31.337761 64.515759 23.661614
-31.34688 63.146667 24.692169
-31.251186 64.518871 24.66426
-31.442901 64.422882 22.586537
-31.337761 64.515759 23.661614
-30.985782 65.798431 26.987195
-31.081914 64.431366 26.895195
-30.997396 64.335259 28.112948
-30.883953 67.176316 27.025554
-30.784421 67.233242 28.223584
-30.76711 68.707234 27.04419
-30.985782 65.798431 26.987195
-30.883953 67.176316 27.025554
-30.157708 63.692692 37.445408
-30.347176 62.368195 37.192642
-29.757336 64.547367 38.871249
-29.542676 64.058775 40.174818
-29.96672 64.991287 37.578022
-29.757336 64.547367 38.871249
-29.70663 66.461185 37.654901
-30.107003 65.60651 36.229061
-30.157708 63.692692 37.445408
-29.96672 64.991287 37.578022
-28.390435 69.915371 39.073692
-28.498581 67.989971 40.350386
-28.073329 69.116165 40.418219
-29.875777 74.019062 29.653098
-30.098519 72.691646 29.599988
-29.929464 72.360801 31.061464
-29.875777 74.019062 29.653098
-29.628624 75.432488 29.597501
-22.206345 67.498722 46.096407
-21.38249 68.06221 45.701416
-22.90819 68.543403 45.233551
-22.206345 67.498722 46.096407
-22.784577 70.403976 43.902099
-23.587136 69.714287 44.236199
-22.90819 68.543403 45.233551
-22.655575 73.948185 41.176761
-23.379799 73.279552 41.564512
-22.7393 72.243493 42.516997
-12.591636 61.453599 46.468279
-11.71677 61.563896 45.84198
-12.591636 61.453599 46.468279
-13.329273 63.006238 45.999618
-15.910034 64.155676 46.704864
-14.990862 64.337732 46.103659
-16.690317 65.505878 46.200855
-15.910034 64.155676 46.704864
-13.86676 67.82888 43.16744
-13.064833 66.191429 43.805079
-14.787906 67.75497 43.729996
-13.86676 67.82888 43.16744
-15.645108 67.542465 44.335578
-14.907362 66.069324 44.95137
-14.787906 67.75497 43.729996
-16.483178 67.122909 45.024122
-15.645108 67.542465 44.335578
-16.363721 68.808555 43.802747
-17.40893 66.771969 45.668024
-16.690317 65.505878 46.200855
-16.483178 67.122909 45.024122
-18.097679 68.202015 44.93903
-18.304819 66.584984 46.115763
-17.40893 66.771969 45.668024
-18.84432 69.657643 44.150841
-18.097679 68.202015 44.93903
-17.948431 69.844628 43.703102
-19.579614 70.92136 43.396732
-19.728862 69.278748 44.63266
-18.84432 69.657643 44.150841
-20.375173 72.110592 42.659187
-19.579614 70.92136 43.396732
-21.150633 73.295422 41.784534
-21.239615 71.727295 43.003899
-20.375173 72.110592 42.659187
-21.826439 74.483506 40.854763
-21.150633 73.295422 41.784534
-22.655575 73.948185 41.176761
-21.826439 74.483506 40.854763
-31.883812 53.917831 26.425959
-31.767203 53.464968 27.581527
-31.833849 55.521593 25.70699
-31.981874 54.340311 25.363084
-31.883812 53.917831 26.425959
-31.86231 61.588316 21.100916
-31.72514 61.934034 21.88877
3 0 59 60
3 0 61 63
3 63 62 13
3 61 62 63
3 65 64 14
3 1 19 17
3 2 66 68
3 68 67 20
3 66 67 68
3 2 69 70
3 71 23 72
3 74 73 24
3 75 26 76
3 78 77 27
3 1 30 29
3 1 17 30
3 3 79 80
3 81 34 82
3 83 82 32
3 81 82 83
3 5 84 86
3 84 35 85
3 84 85 86
3 5 36 35
3 6 39 37
3 87 40 88
3 89 88 15
3 87 88 89
3 91 90 40
3 92 32 93
3 94 41 95
3 96 42 97
3 98 97 41
3 96 97 98
3 99 43 100
3 101 44 102
3 103 102 16
3 101 102 103
3 105 104 44
3 8 46 45
3 107 106 18
3 4 47 33
3 109 108 21
3 9 48 22
3 9 49 48
3 7 50 38
3 110 51 111
3 112 111 25
3 110 111 112
3 113 52 114
3 115 114 51
3 113 114 115
3 117 116 52
3 10 118 120
3 118 53 119
3 118 119 120
3 10 54 53
3 11 121 123
3 123 122 28
3 121 122 123
3 11 124 126
3 124 55 125
3 124 125 126
3 127 56 128
3 130 129 56
3 12 131 132
3 12 133 134
3 12 135 137
3 135 57 136
3 135 136 137
3 8 58 31
3 8 45 58
3 13 138 140
3 140 139 3
3 138 139 140
3 142 141 13
3 143 5 144
3 14 15 6
3 145 15 146
3 147 146 14
3 145 146 147
3 149 148 15
3 150 16 151
3 152 16 153
3 155 154 16
3 17 18 8
3 19 18 17
3 19 156 158
3 158 157 18
3 156 157 158
3 20 21 4
3 159 21 160
3 161 160 20
3 159 160 161
3 163 162 21
3 164 22 165
3 23 166 168
3 166 22 167
3 166 167 168
3 23 9 22
3 24 25 7
3 169 25 170
3 171 170 24
3 169 170 171
3 173 172 25
3 26 174 175
3 26 176 178
3 176 10 177
3 176 177 178
3 27 179 181
3 179 28 180
3 179 180 181
3 182 28 183
3 184 183 27
3 182 183 184
3 185 11 186
3 187 186 28
3 185 186 187
3 29 188 189
3 30 190 192
3 192 191 29
3 190 191 192
3 30 193 195
3 193 12 194
3 193 194 195
3 30 31 12
3 17 31 30
3 17 8 31
3 197 196 3
3 32 33 1
3 34 33 32
3 34 4 33
3 198 34 199
3 35 200 202
3 200 34 201
3 200 201 202
3 35 4 34
3 35 20 4
3 36 20 35
3 36 2 20
3 37 203 205
3 203 38 204
3 203 204 205
3 39 38 37
3 39 7 38
3 15 39 6
3 40 39 15
3 40 7 39
3 40 24 7
3 206 24 207
3 208 207 40
3 206 207 208
3 210 209 24
3 211 29 212
3 32 213 215
3 213 29 214
3 213 214 215
3 32 1 29
3 216 37 217
3 218 37 219
3 220 6 221
3 222 221 37
3 220 221 222
3 41 223 224
3 41 225 227
3 225 6 226
3 225 226 227
3 41 14 6
3 42 14 41
3 42 228 230
3 230 229 14
3 228 229 230
3 231 27 232
3 43 233 235
3 233 27 234
3 233 234 235
3 43 236 238
3 238 237 27
3 236 237 238
3 16 239 240
3 44 241 243
3 243 242 16
3 241 242 243
3 44 244 245
3 44 246 248
3 246 43 247
3 246 247 248
3 249 43 250
3 251 250 44
3 249 250 251
3 253 252 43
3 45 254 256
3 256 255 0
3 254 255 256
3 46 257 259
3 259 258 45
3 257 258 259
3 46 260 261
3 18 46 8
3 262 46 263
3 264 263 18
3 262 263 264
3 266 265 46
3 33 19 1
3 47 19 33
3 47 267 269
3 269 268 19
3 267 268 269
3 21 47 4
3 270 47 271
3 272 271 21
3 270 271 272
3 274 273 47
3 275 5 276
3 22 277 278
3 48 279 281
3 281 280 22
3 279 280 281
3 48 282 284
3 282 5 283
3 282 283 284
3 48 36 5
3 49 36 48
3 49 2 36
3 38 285 287
3 285 23 286
3 285 286 287
3 50 23 38
3 50 9 23
3 25 50 7
3 51 50 25
3 51 9 50
3 51 49 9
3 52 49 51
3 52 2 49
3 52 288 290
3 290 289 2
3 288 289 290
3 292 291 52
3 53 293 294
3 53 295 296
3 53 297 299
3 297 42 298
3 297 298 299
3 54 42 53
3 54 300 302
3 302 301 42
3 300 301 302
3 28 303 304
3 306 305 28
3 55 307 308
3 55 309 310
3 311 11 312
3 313 11 314
3 315 55 316
3 317 316 11
3 315 316 317
3 56 318 320
3 318 55 319
3 318 319 320
3 56 321 323
3 323 322 55
3 321 322 323
3 56 324 326
3 324 26 325
3 324 325 326
3 327 26 328
3 329 328 56
3 327 328 329
3 330 10 331
3 332 331 26
3 330 331 332
3 333 10 334
3 335 54 336
3 337 336 10
3 335 336 337
3 338 54 339
3 341 340 54
3 57 342 343
3 57 344 346
3 344 3 345
3 344 345 346
3 31 57 12
3 58 57 31
3 58 3 57
3 58 13 3
3 45 13 58
3 45 0 13
3 348 347 0
