ply
format ascii 1.0
element vertex 166
property float x
property float y
property float z
element face 158
property list uchar int vertex_index
end_header
-22.169987 -68.085388 -18.941614
-23.870268 -72.708977 -10.730302
-24.592297 -74.389427 -6.073152
-23.782494 -68.946075 -7.45398
-23.078833 -67.331856 -11.78156
-23.232056 -74.142517 -18.566143
-23.046818 -77.229408 -22.101564
-25.000511 -78.416756 -9.654777
-24.214176 -76.49144 -14.266642
-23.119125 -70.80928 -15.004985
-22.285465 -64.97332 -15.843429
-23.577492 -66.412888 -7.906157
-22.684166 -71.182388 -18.758066
-22.649403 -72.645981 -20.449459
-22.091337 -69.569618 -20.64978
-24.239746 -73.642303 -8.473173
-24.76532 -76.331856 -7.773578
-24.415907 -75.595238 -10.211693
-24.631433 -77.535522 -12.009802
-24.065586 -74.771439 -12.405001
-23.649986 -73.6716 -14.59889
-23.532423 -71.921684 -12.836292
-22.822708 -64.422173 -12.235765
-22.691534 -66.137459 -13.808308
-22.433428 -63.505466 -14.32327
-24.139326 -71.624504 -6.735959
-23.794262 -70.915451 -9.043651
-23.428505 -70.06797 -11.348263
-23.430239 -68.190453 -9.697712
-23.205666 -65.520027 -10.109234
-23.827375 -77.283424 -18.270624
-23.73399 -78.90789 -20.196341
-23.218193 -75.858429 -20.334932
-22.515635 -74.020004 -22.199894
-25.059214 -76.830276 -5.328341
-25.280678 -78.955391 -7.317334
-24.803654 -79.486656 -14.014885
-24.347689 -78.451736 -16.166685
-23.780981 -75.57399 -16.521687
-23.202305 -72.527519 -16.7246
-22.658278 -69.503654 -17.080233
-23.051373 -68.907555 -13.306332
-22.676756 -67.90094 -15.279881
-22.225624 -66.538513 -17.297411
-22.566293 -62.616369 -13.505554
-22.628068 -63.963819 -13.279518
-22.760933 -63.074723 -12.461801
-22.381036 -62.033113 -14.429896
-22.566293 -62.616369 -13.505554
-23.96091 -70.28529 -7.094969
-24.139104 -70.569611 -5.901413
-23.960688 -69.230396 -6.260423
-23.324937 -64.536075 -9.354726
-23.391579 -65.966457 -9.007696
-23.51085 -64.982506 -8.253188
-23.149101 -64.138082 -10.345629
-23.324937 -64.536075 -9.354726
-22.233597 -72.37611 -22.232786
-22.582519 -73.332993 -21.324677
-22.300481 -71.689099 -21.357568
-22.119502 -73.051956 -23.120103
-22.233597 -72.37611 -22.232786
-24.825755 -75.609851 -5.700747
-24.960712 -75.719219 -4.471969
-24.727253 -74.498795 -4.844374
-25.270898 -79.800232 -9.468456
-25.410981 -80.069549 -8.299735
-25.140594 -78.686074 -8.486055
-25.097569 -79.363575 -10.64699
-25.270898 -79.800232 -9.468456
-22.070577 -64.227188 -16.738409
-22.040656 -65.009784 -17.4654
-22.255544 -65.755916 -16.57042
-23.249927 -78.788032 -22.179466
-23.593514 -79.627274 -21.226855
-23.390404 -78.068649 -21.148953
-23.858795 -67.972611 -6.558281
-23.960688 -69.230396 -6.260423
-23.756293 -66.706017 -6.78437
-23.679993 -67.679481 -7.680068
-23.858795 -67.972611 -6.558281
-23.692213 -65.377319 -7.186371
-23.756293 -66.706017 -6.78437
-23.51085 -64.982506 -8.253188
-23.692213 -65.377319 -7.186371
-22.021448 -70.150917 -21.457729
-22.300481 -71.689099 -21.357568
-22.37037 -71.107799 -20.549619
-22.236587 -62.818596 -15.236272
-22.162605 -63.552523 -15.996351
-22.359446 -64.239393 -15.08335
-22.236587 -62.818596 -15.236272
-22.381036 -62.033113 -14.429896
-22.843515 -77.879452 -23.140801
-22.621184 -76.237865 -23.104878
-21.883719 -67.230629 -19.839919
-21.935392 -66.47652 -19.085229
-24.530521 -73.230915 -5.188678
-24.727253 -74.498795 -4.844374
-24.304036 -71.848454 -5.520082
-24.139104 -70.569611 -5.901413
-24.365811 -73.006966 -6.404556
-24.530521 -73.230915 -5.188678
-24.304036 -71.848454 -5.520082
-22.957622 -63.589156 -11.408894
-23.014187 -64.9711 -11.1725
-23.149101 -64.138082 -10.345629
-22.760933 -63.074723 -12.461801
-22.957622 -63.589156 -11.408894
-23.780682 -78.095657 -19.233483
-24.03197 -79.612785 -19.225001
-24.078663 -78.800552 -18.262142
-22.355593 -74.633163 -23.154043
-22.621184 -76.237865 -23.104878
-22.781226 -75.624706 -22.150729
-22.355593 -74.633163 -23.154043
-22.119502 -73.051956 -23.120103
-21.844393 -67.972744 -20.694002
-22.130662 -68.827503 -19.795697
-21.883719 -67.230629 -19.839919
-21.741609 -68.534344 -21.537424
-21.844393 -67.972744 -20.694002
-22.021448 -70.150917 -21.457729
-21.741609 -68.534344 -21.537424
-25.190799 -77.100758 -4.175308
-24.960712 -75.719219 -4.471969
-25.304257 -78.199303 -5.089244
-25.190799 -77.100758 -4.175308
-25.41499 -79.26186 -6.083741
-25.304257 -78.199303 -5.089244
-25.169946 -77.892833 -6.322838
-25.537206 -80.360302 -7.081542
-25.41499 -79.26186 -6.083741
-25.537206 -80.360302 -7.081542
-25.410981 -80.069549 -8.299735
-24.913031 -78.922958 -11.824502
-25.097569 -79.363575 -10.64699
-24.815972 -77.976139 -10.832289
-24.999141 -79.898525 -12.827043
-24.913031 -78.922958 -11.824502
-24.717544 -78.511089 -13.012344
-25.08372 -80.958992 -13.793646
-24.999141 -79.898525 -12.827043
-24.843971 -80.447002 -14.981456
-25.08372 -80.958992 -13.793646
-24.615988 -79.929542 -16.057356
-24.843971 -80.447002 -14.981456
-24.575671 -78.969196 -15.090785
-24.338819 -79.384708 -17.210172
-24.615988 -79.929542 -16.057356
-24.087532 -77.86758 -17.218654
-24.078663 -78.800552 -18.262142
-24.338819 -79.384708 -17.210172
-21.96321 -65.703083 -18.263127
-21.935392 -66.47652 -19.085229
-22.197806 -67.31195 -18.119512
-21.96321 -65.703083 -18.263127
-22.040656 -65.009784 -17.4654
-22.070577 -64.227188 -16.738409
-22.162605 -63.552523 -15.996351
-23.966123 -80.509155 -20.215594
-24.03197 -79.612785 -19.225001
-23.966123 -80.509155 -20.215594
-23.593514 -79.627274 -21.226855
-23.249927 -78.788032 -22.179466
-22.843515 -77.879452 -23.140801
3 0 14 12
3 1 17 15
3 1 19 17
3 1 21 19
3 44 24 45
3 46 45 22
3 44 45 46
3 48 47 24
3 3 49 51
3 49 25 50
3 49 50 51
3 3 26 25
3 3 28 26
3 52 29 53
3 54 53 11
3 52 53 54
3 56 55 29
3 5 32 30
3 57 33 58
3 59 58 13
3 57 58 59
3 61 60 33
3 2 62 64
3 62 34 63
3 62 63 64
3 7 35 16
3 7 65 67
3 67 66 35
3 65 66 67
3 7 68 69
3 8 36 18
3 8 37 36
3 8 38 37
3 9 39 20
3 9 40 39
3 4 41 27
3 10 42 23
3 10 43 42
3 10 70 72
3 72 71 43
3 70 71 72
3 6 73 75
3 75 74 31
3 73 74 75
3 76 3 77
3 78 11 79
3 80 79 3
3 78 79 80
3 81 11 82
3 84 83 11
3 12 13 5
3 14 13 12
3 14 85 87
3 87 86 13
3 85 86 87
3 15 16 2
3 17 16 15
3 17 7 16
3 17 18 7
3 19 18 17
3 19 8 18
3 19 20 8
3 21 20 19
3 21 9 20
3 22 23 4
3 24 23 22
3 24 10 23
3 24 88 90
3 90 89 10
3 88 89 90
3 92 91 24
3 94 93 6
3 96 95 0
3 97 2 98
3 25 99 100
3 25 101 103
3 101 2 102
3 101 102 103
3 25 15 2
3 26 15 25
3 26 1 15
3 26 27 1
3 28 27 26
3 28 4 27
3 11 28 3
3 29 28 11
3 29 4 28
3 29 22 4
3 104 22 105
3 106 105 29
3 104 105 106
3 108 107 22
3 30 109 111
3 109 31 110
3 109 110 111
3 32 31 30
3 32 6 31
3 13 32 5
3 33 32 13
3 33 6 32
3 33 112 114
3 114 113 6
3 112 113 114
3 116 115 33
3 117 14 118
3 119 118 0
3 117 118 119
3 120 14 121
3 123 122 14
3 34 124 125
3 34 126 127
3 16 34 2
3 35 34 16
3 35 128 130
3 130 129 34
3 128 129 130
3 35 131 132
3 134 133 35
3 18 135 137
3 137 136 7
3 135 136 137
3 36 138 140
3 140 139 18
3 138 139 140
3 36 141 142
3 36 143 144
3 37 145 147
3 147 146 36
3 145 146 147
3 37 148 149
3 37 150 152
3 150 30 151
3 150 151 152
3 38 30 37
3 38 5 30
3 20 38 8
3 39 38 20
3 39 5 38
3 39 12 5
3 40 12 39
3 40 0 12
3 27 21 1
3 41 21 27
3 41 9 21
3 23 41 4
3 42 41 23
3 42 9 41
3 42 40 9
3 43 40 42
3 43 0 40
3 43 153 155
3 155 154 0
3 153 154 155
3 157 156 43
3 159 158 10
3 31 160 161
3 163 162 31
3 165 164 6
