ply
format ascii 1.0
element vertex 180
property float x
property float y
property float z
element face 172
property list uchar int vertex_index
end_header
24.92609 -100.037758 -20.229496
26.487488 -90.444237 -15.990846
26.274145 -95.402832 -17.99958
25.596479 -91.889832 -21.205015
24.640099 -96.555099 -23.492872
22.277687 -103.571602 -22.544117
22.422377 -100.465149 -25.781202
26.707603 -88.163063 -11.018839
26.991951 -93.527588 -12.454642
26.320213 -98.535095 -14.314841
24.42108 -102.791206 -16.447166
25.77878 -97.833405 -19.022995
25.588938 -96.102707 -20.803358
24.935934 -98.263878 -21.820751
26.256819 -87.833664 -15.236049
26.05024 -88.586464 -17.584772
24.819696 -92.006485 -23.725983
25.107235 -89.637054 -22.48848
20.431604 -104.984276 -23.481007
20.734703 -103.627914 -25.213091
18.623301 -104.671608 -26.434956
27.127131 -92.087715 -9.596391
26.797827 -96.099472 -13.346253
23.006205 -104.487144 -17.447533
26.477417 -92.897148 -17.07659
26.111721 -91.18853 -18.731955
25.981268 -93.780464 -19.729366
25.279114 -94.225632 -22.286333
24.331425 -94.36721 -24.793861
25.684935 -89.328575 -20.071075
23.796885 -102.05513 -21.159481
23.879354 -100.399162 -22.955843
22.501827 -102.089134 -24.149933
20.865332 -101.896362 -26.907009
26.337124 -86.743469 -12.783817
26.65601 -89.435318 -13.504561
26.98752 -89.356857 -8.984128
26.954466 -90.819214 -11.504936
26.798281 -92.006508 -14.297077
26.731493 -94.523392 -15.17169
26.386234 -97.052277 -16.242144
25.774025 -99.399857 -17.144178
25.544622 -100.791 -15.200022
24.821405 -101.476311 -18.31216
23.440439 -103.458214 -19.440237
21.866934 -104.903526 -20.552517
23.744007 -98.67025 -24.539373
23.402798 -96.584869 -26.133774
24.552506 -90.827156 -24.316778
24.296537 -92.012375 -24.967358
18.449886 -105.319603 -25.482778
19.527453 -104.827942 -24.957982
19.354038 -105.475937 -24.005803
25.115737 -88.414772 -21.968477
24.780224 -88.466202 -23.183143
19.97926 -102.503971 -27.368373
20.800017 -102.762138 -26.06005
19.913946 -103.369747 -26.521414
19.970134 -101.590965 -28.152931
19.97926 -102.503971 -27.368373
26.522363 -87.453266 -11.901328
26.324762 -86.053375 -11.529574
26.510002 -86.763172 -10.647085
27.075691 -90.029739 -8.019671
26.974947 -88.654113 -7.765263
24.982851 -101.791103 -15.823594
25.363855 -101.276543 -14.259968
24.802084 -102.276646 -14.88354
21.550117 -105.38192 -19.607184
22.43657 -104.695335 -19.000025
22.119752 -105.173729 -18.054692
20.8855 -105.487259 -21.143711
21.550117 -105.38192 -19.607184
22.667985 -96.308521 -27.373518
22.877224 -97.462581 -26.648073
23.228963 -95.364646 -26.734641
22.667985 -96.308521 -27.373518
26.007495 -86.887207 -15.988717
26.074222 -86.49649 -14.79897
25.904205 -87.263607 -17.163079
26.007495 -86.887207 -15.988717
26.153529 -88.210064 -16.410411
25.774536 -87.592709 -18.390237
25.904205 -87.263607 -17.163079
24.696275 -89.642441 -23.698027
24.963465 -90.82177 -23.107231
24.552506 -90.827156 -24.316778
24.780224 -88.466202 -23.183143
24.696275 -89.642441 -23.698027
18.858245 -103.891594 -27.132347
19.913946 -103.369747 -26.521414
19.679002 -104.149761 -25.824023
26.693007 -87.425113 -9.758315
26.510002 -86.763172 -10.647085
27.144785 -92.698982 -8.692754
27.145497 -91.395168 -8.325803
27.087835 -93.436443 -9.989121
27.144785 -92.698982 -8.692754
27.020246 -94.15638 -11.418246
27.059541 -92.807651 -11.025517
27.087835 -93.436443 -9.989121
26.923184 -95.442322 -11.864052
26.894889 -94.81353 -12.900448
27.020246 -94.15638 -11.418246
26.774937 -96.59985 -12.306809
26.923184 -95.442322 -11.864052
26.53613 -97.817661 -12.791103
26.55902 -97.317284 -13.830547
26.774937 -96.59985 -12.306809
24.176166 -103.22607 -15.423227
24.802084 -102.276646 -14.88354
23.468729 -104.074039 -15.92341
23.713642 -103.639175 -16.94735
24.176166 -103.22607 -15.423227
22.719735 -104.830215 -16.479158
23.468729 -104.074039 -15.92341
22.119752 -105.173729 -18.054692
22.719735 -104.830215 -16.479158
22.387014 -99.402721 -26.471787
21.586449 -100.160152 -27.144666
24.052402 -93.192737 -25.501297
24.296537 -92.012375 -24.967358
24.575561 -93.186847 -24.259922
25.591884 -87.963764 -19.633389
25.774536 -87.592709 -18.390237
25.867587 -88.95752 -18.827924
25.404587 -88.260533 -20.759774
25.396085 -89.482815 -21.279778
25.115737 -88.414772 -21.968477
25.591884 -87.963764 -19.633389
25.404587 -88.260533 -20.759774
20.807927 -100.875759 -27.70757
21.586449 -100.160152 -27.144666
21.643854 -101.180756 -26.344105
20.807927 -100.875759 -27.70757
19.970134 -101.590965 -28.152931
17.524209 -105.070256 -26.840739
18.449886 -105.319603 -25.482778
17.721451 -104.303688 -27.711987
17.524209 -105.070256 -26.840739
18.858245 -103.891594 -27.132347
17.721451 -104.303688 -27.711987
26.094839 -85.306415 -12.452069
26.324762 -86.053375 -11.529574
26.114375 -85.951393 -13.572855
26.094839 -85.306415 -12.452069
26.296971 -87.288567 -14.009933
26.074222 -86.49649 -14.79897
26.114375 -85.951393 -13.572855
26.832966 -88.02201 -8.740959
26.974947 -88.654113 -7.765263
26.847561 -88.75996 -10.001483
26.693007 -87.425113 -9.758315
26.832966 -88.02201 -8.740959
27.057325 -90.722286 -9.29026
27.075691 -90.029739 -8.019671
27.145497 -91.395168 -8.325803
26.233268 -99.021217 -13.239791
26.53613 -97.817661 -12.791103
25.845472 -100.149169 -13.682382
25.363855 -101.276543 -14.259968
25.932417 -99.663048 -14.757431
26.233268 -99.021217 -13.239791
25.845472 -100.149169 -13.682382
20.167835 -105.527634 -22.607956
21.149269 -104.943901 -22.016762
20.8855 -105.487259 -21.143711
19.354038 -105.475937 -24.005803
20.167835 -105.527634 -22.607956
23.047829 -98.505272 -25.850873
23.083192 -99.5677 -25.160288
22.387014 -99.402721 -26.471787
23.573403 -97.627559 -25.336574
23.047829 -98.505272 -25.850873
22.877224 -97.462581 -26.648073
23.693276 -94.255817 -26.064684
23.867112 -95.476039 -25.463817
23.228963 -95.364646 -26.734641
24.052402 -93.192737 -25.501297
23.693276 -94.255817 -26.064684
3 0 13 11
3 1 15 14
3 49 48 16
3 50 20 51
3 52 51 18
3 50 51 52
3 2 26 24
3 4 27 12
3 4 28 27
3 3 29 25
3 54 53 17
3 5 32 30
3 55 33 56
3 57 56 19
3 55 56 57
3 59 58 33
3 7 60 62
3 60 34 61
3 60 61 62
3 7 35 34
3 63 36 64
3 8 37 21
3 8 38 37
3 8 39 38
3 9 40 22
3 9 41 40
3 10 65 67
3 65 42 66
3 65 66 67
3 10 43 42
3 10 44 43
3 68 45 69
3 70 69 23
3 68 69 70
3 72 71 45
3 6 46 31
3 73 47 74
3 76 75 47
3 11 12 2
3 13 12 11
3 13 4 12
3 14 77 78
3 15 79 81
3 81 80 14
3 79 80 81
3 15 82 83
3 16 17 3
3 84 17 85
3 86 85 16
3 84 85 86
3 88 87 17
3 18 19 5
3 20 19 18
3 20 89 91
3 91 90 19
3 89 90 91
3 92 7 93
3 94 21 95
3 96 21 97
3 98 8 99
3 100 99 21
3 98 99 100
3 101 22 102
3 103 102 8
3 101 102 103
3 104 22 105
3 106 9 107
3 108 107 22
3 106 107 108
3 109 10 110
3 111 23 112
3 113 112 10
3 111 112 113
3 114 23 115
3 117 116 23
3 119 118 6
3 24 25 1
3 26 25 24
3 26 3 25
3 12 26 2
3 27 26 12
3 27 3 26
3 27 16 3
3 28 16 27
3 28 120 122
3 122 121 16
3 120 121 122
3 25 15 1
3 29 15 25
3 29 123 125
3 125 124 15
3 123 124 125
3 17 29 3
3 126 29 127
3 128 127 17
3 126 127 128
3 130 129 29
3 30 31 0
3 32 31 30
3 32 6 31
3 19 32 5
3 33 32 19
3 33 6 32
3 33 131 133
3 133 132 6
3 131 132 133
3 135 134 33
3 136 20 137
3 138 20 139
3 141 140 20
3 34 142 143
3 34 144 145
3 34 146 148
3 146 14 147
3 146 147 148
3 35 14 34
3 35 1 14
3 36 149 150
3 36 151 153
3 151 7 152
3 151 152 153
3 21 154 156
3 154 36 155
3 154 155 156
3 37 36 21
3 37 7 36
3 37 35 7
3 38 35 37
3 38 1 35
3 38 24 1
3 39 24 38
3 39 2 24
3 22 39 8
3 40 39 22
3 40 2 39
3 40 11 2
3 41 11 40
3 41 0 11
3 157 9 158
3 42 159 160
3 42 161 163
3 161 9 162
3 161 162 163
3 42 41 9
3 43 41 42
3 43 0 41
3 43 30 0
3 44 30 43
3 44 5 30
3 23 44 10
3 45 44 23
3 45 5 44
3 45 18 5
3 164 18 165
3 166 165 45
3 164 165 166
3 168 167 18
3 31 13 0
3 46 13 31
3 46 4 13
3 169 46 170
3 171 170 6
3 169 170 171
3 47 172 174
3 172 46 173
3 172 173 174
3 47 4 46
3 47 28 4
3 175 28 176
3 177 176 47
3 175 176 177
3 179 178 28
