ply
format ascii 1.0
element vertex 193
property float x
property float y
property float z
element face 169
property list uchar int vertex_index
end_header
-10.660212 -48.886456 -38.201885
-10.898592 -61.805645 -38.74511
-7.698593 -41.340847 -41.149689
-7.791169 -47.397781 -41.401192
-4.828001 -39.383305 -44.439568
-7.038153 -59.72694 -41.725544
-13.646776 -55.960278 -35.294994
-14.111869 -62.310497 -35.530373
-10.865894 -55.092682 -38.526669
-7.708489 -53.701511 -41.493649
-17.352793 -55.226883 -29.075733
-15.778894 -55.703659 -32.100464
-6.305643 -40.581055 -42.797871
-12.212186 -52.471405 -36.671833
-12.287104 -55.396145 -36.939537
-10.743895 -51.842186 -38.40757
-6.277355 -46.531689 -42.886848
-7.81196 -50.458946 -41.431019
-16.595594 -55.446129 -30.604361
-12.57311 -62.12352 -37.176888
-9.248404 -48.113167 -39.834526
-7.834178 -44.455067 -41.217522
-6.249998 -43.432846 -42.926018
-8.953876 -60.792675 -40.333176
-10.671221 -64.756172 -38.942528
-8.627194 -63.77634 -40.466354
-15.145644 -59.127144 -33.76886
-15.379721 -62.259693 -33.958847
-13.839079 -58.964676 -35.468739
-12.401284 -58.601009 -37.116325
-10.959164 -58.574551 -38.6105
-9.333726 -51.29047 -39.937172
-9.3461 -54.693581 -40.041553
-9.319484 -57.93121 -40.090019
-7.503763 -56.722126 -41.554264
-17.802464 -58.348122 -29.027931
-17.100025 -58.796234 -30.554188
-16.119091 -58.921116 -32.268578
-14.754063 -55.711182 -33.705235
-13.321709 -52.480186 -35.183395
-6.22604 -48.082971 -42.885627
-5.428256 -46.078825 -43.646942
-11.690528 -63.635371 -38.078705
-12.527787 -63.794308 -37.294594
-11.735851 -61.964582 -37.960999
-7.766386 -42.897957 -41.183605
-8.512431 -44.794962 -40.425829
-8.444639 -43.237852 -40.391913
-4.781092 -41.000982 -44.440416
-5.492091 -43.025753 -43.683642
-5.539 -41.408075 -43.682793
-4.089739 -38.908915 -45.212168
-4.781092 -41.000982 -44.440416
-17.670868 -54.905777 -28.327695
-17.15351 -53.584598 -29.083813
-17.861283 -56.392336 -28.303415
-17.670868 -54.905777 -28.327695
-17.577628 -56.787503 -29.051832
-18.086118 -57.952956 -28.279514
-17.861283 -56.392336 -28.303415
-13.113824 -50.818609 -35.192112
-13.830909 -52.42045 -34.428447
-12.567037 -50.757038 -35.946697
-13.113824 -50.818609 -35.192112
-14.840989 -64.059614 -34.863623
-15.474915 -64.034212 -34.07786
-14.745795 -62.285095 -34.74461
-11.587458 -66.726029 -38.206843
-10.57561 -66.333023 -38.996055
-6.334457 -39.170315 -42.688705
-7.002118 -40.960951 -41.97378
-7.030932 -39.550211 -41.864615
-5.643876 -38.590931 -43.529561
-6.334457 -39.170315 -42.688705
-4.905055 -37.992056 -44.350409
-5.566822 -39.98218 -43.618719
-5.643876 -38.590931 -43.529561
-4.207461 -37.481901 -45.16556
-4.905055 -37.992056 -44.350409
-6.802625 -61.284633 -41.777899
-5.995356 -59.080174 -42.416256
-6.993342 -50.0466 -42.157713
-7.044657 -48.495317 -42.158934
-6.22604 -48.082971 -42.885627
-6.941607 -51.667883 -42.189028
-7.760224 -52.080229 -41.462334
-6.993342 -50.0466 -42.157713
-6.790499 -53.186878 -42.224115
-6.941607 -51.667883 -42.189028
-16.772261 -53.777319 -29.829935
-17.15351 -53.584598 -29.083813
-16.393662 -53.886942 -30.594249
-16.974193 -55.336506 -29.840047
-16.772261 -53.777319 -29.829935
-15.979136 -53.954571 -31.331367
-16.393662 -53.886942 -30.594249
-15.570786 -54.083336 -32.079418
-16.187244 -55.574894 -31.352412
-15.979136 -53.954571 -31.331367
-15.059501 -54.032187 -32.886982
-15.570786 -54.083336 -32.079418
-13.323296 -63.808186 -36.516253
-14.092676 -63.901674 -35.692995
-13.342489 -62.217008 -36.35363
-13.323296 -63.808186 -36.516253
-12.527787 -63.794308 -37.294594
-9.219545 -46.624012 -39.734331
-9.954308 -48.499811 -39.018205
-9.925448 -47.010656 -38.91801
-8.541291 -46.284117 -40.526024
-9.219545 -46.624012 -39.734331
-8.512431 -44.794962 -40.425829
-5.505769 -44.575175 -43.664057
-6.263676 -44.982267 -42.906433
-5.492091 -43.025753 -43.683642
-5.428256 -46.078825 -43.646942
-5.505769 -44.575175 -43.664057
-4.089739 -38.908915 -45.212168
-4.207461 -37.481901 -45.16556
-9.553597 -65.843107 -39.757969
-10.57561 -66.333023 -38.996055
-9.649207 -64.266256 -39.704441
-7.597146 -63.309333 -41.148304
-7.832674 -61.75164 -41.095949
-6.802625 -61.284633 -41.777899
-8.530326 -65.404973 -40.462938
-7.597146 -63.309333 -41.148304
-9.553597 -65.843107 -39.757969
-8.530326 -65.404973 -40.462938
-15.262683 -60.693418 -33.863853
-15.977415 -62.353292 -33.126207
-15.860377 -60.787018 -33.031214
-6.688136 -54.697186 -42.254423
-7.606126 -55.211819 -41.523956
-6.790499 -53.186878 -42.224115
-6.512352 -56.220064 -42.266634
-6.688136 -54.697186 -42.254423
-6.279547 -57.722471 -42.352274
-7.270958 -58.224533 -41.639904
-6.512352 -56.220064 -42.266634
-5.995356 -59.080174 -42.416256
-6.279547 -57.722471 -42.352274
-18.347265 -59.664015 -28.21783
-18.086118 -57.952956 -28.279514
-18.044339 -60.044109 -29.043143
-18.347265 -59.664015 -28.21783
-17.69312 -60.268165 -29.806272
-18.044339 -60.044109 -29.043143
-17.451245 -58.572178 -29.791059
-17.265799 -60.364044 -30.663035
-17.69312 -60.268165 -29.806272
-16.775333 -60.426485 -31.520229
-17.265799 -60.364044 -30.663035
-16.609558 -58.858675 -31.411383
-16.3471 -60.684004 -32.281073
-16.775333 -60.426485 -31.520229
-15.632368 -59.02413 -33.018719
-15.860377 -60.787018 -33.031214
-16.3471 -60.684004 -32.281073
-14.547086 -54.035948 -33.689368
-15.266478 -55.70742 -32.90285
-15.059501 -54.032187 -32.886982
-14.037886 -54.095684 -34.444315
-14.547086 -54.035948 -33.689368
-13.830909 -52.42045 -34.428447
-12.012275 -50.752647 -36.690916
-12.766948 -52.475796 -35.927614
-12.567037 -50.757038 -35.946697
-11.236288 -48.960173 -37.455942
-11.436199 -50.67893 -37.436859
-12.012275 -50.752647 -36.690916
-10.548879 -47.322236 -38.145309
-11.236288 -48.960173 -37.455942
-9.925448 -47.010656 -38.91801
-10.548879 -47.322236 -38.145309
-8.358524 -41.681141 -40.324387
-8.444639 -43.237852 -40.391913
-7.645871 -39.887045 -41.077826
-8.358524 -41.681141 -40.324387
-7.030932 -39.550211 -41.864615
-7.645871 -39.887045 -41.077826
-16.095855 -63.976602 -33.250507
-15.977415 -62.353292 -33.126207
-16.191049 -65.751121 -33.36952
-16.095855 -63.976602 -33.250507
-15.474915 -64.034212 -34.07786
-14.840989 -64.059614 -34.863623
-14.092676 -63.901674 -35.692995
-11.576842 -65.110634 -38.177414
-11.690528 -63.635371 -38.078705
-10.784906 -63.280909 -38.843819
-11.576842 -65.110634 -38.177414
-11.587458 -66.726029 -38.206843
3 0 15 13
3 41 40 16
3 1 42 44
3 44 43 19
3 42 43 44
3 2 45 47
3 45 21 46
3 45 46 47
3 4 22 12
3 4 48 50
3 50 49 22
3 48 49 50
3 4 51 52
3 5 25 23
3 6 28 26
3 8 29 14
3 8 30 29
3 3 31 20
3 9 32 17
3 9 33 32
3 9 34 33
3 10 53 54
3 10 55 56
3 10 57 59
3 57 35 58
3 57 58 59
3 11 36 18
3 11 37 36
3 11 38 37
3 60 39 61
3 63 62 39
3 7 64 66
3 66 65 27
3 64 65 66
3 68 67 24
3 69 12 70
3 71 70 2
3 69 70 71
3 72 12 73
3 74 4 75
3 76 75 12
3 74 75 76
3 78 77 4
3 80 79 5
3 13 14 6
3 15 14 13
3 15 8 14
3 16 17 3
3 81 17 82
3 83 82 16
3 81 82 83
3 84 9 85
3 86 85 17
3 84 85 86
3 88 87 9
3 89 10 90
3 91 18 92
3 93 92 10
3 91 92 93
3 94 18 95
3 96 11 97
3 98 97 18
3 96 97 98
3 100 99 11
3 19 101 103
3 103 102 7
3 101 102 103
3 105 104 19
3 106 20 107
3 108 107 0
3 106 107 108
3 21 109 111
3 109 20 110
3 109 110 111
3 21 3 20
3 12 21 2
3 22 21 12
3 22 3 21
3 22 16 3
3 112 16 113
3 114 113 22
3 112 113 114
3 116 115 16
3 118 117 4
3 23 24 1
3 25 24 23
3 25 119 121
3 121 120 24
3 119 120 121
3 122 25 123
3 124 123 5
3 122 123 124
3 125 25 126
3 128 127 25
3 26 129 131
3 129 27 130
3 129 130 131
3 28 27 26
3 28 7 27
3 14 28 6
3 29 28 14
3 29 7 28
3 29 19 7
3 30 19 29
3 30 1 19
3 20 15 0
3 31 15 20
3 31 8 15
3 17 31 3
3 32 31 17
3 32 8 31
3 32 30 8
3 33 30 32
3 33 1 30
3 33 23 1
3 34 23 33
3 34 5 23
3 132 34 133
3 134 133 9
3 132 133 134
3 135 34 136
3 137 5 138
3 139 138 34
3 137 138 139
3 141 140 5
3 35 142 143
3 35 144 145
3 18 35 10
3 36 35 18
3 36 146 148
3 148 147 35
3 146 147 148
3 36 149 150
3 37 151 153
3 153 152 36
3 151 152 153
3 37 154 155
3 37 156 158
3 156 26 157
3 156 157 158
3 38 26 37
3 38 6 26
3 159 38 160
3 161 160 11
3 159 160 161
3 39 162 164
3 162 38 163
3 162 163 164
3 39 6 38
3 39 13 6
3 165 13 166
3 167 166 39
3 165 166 167
3 168 0 169
3 170 169 13
3 168 169 170
3 171 0 172
3 174 173 0
3 175 2 176
3 177 2 178
3 180 179 2
3 27 181 182
3 185 184 27
3 183 184 185
3 187 186 7
3 24 188 190
3 190 189 1
3 188 189 190
3 192 191 24
