ply
format ascii 1.0
element vertex 202
property float x
property float y
property float z
element face 179
property list uchar int vertex_index
end_header
-10.531129 -87.559296 -37.855034
-0.520756 -91.619301 -39.965099
-5.823657 -93.87664 -36.327194
-5.578633 -90.007874 -39.349476
-5.679011 -84.995712 -41.839607
-10.434052 -91.04084 -34.601368
4.165641 -86.246147 -41.361771
4.762329 -92.296753 -39.678894
-0.823787 -86.014946 -42.043507
-8.035105 -90.909233 -37.192734
-5.645329 -92.091309 -37.915234
-8.224399 -88.639679 -38.786564
-8.191621 -86.659058 -40.068016
-10.70395 -85.386665 -39.319492
-8.159814 -94.03978 -33.86618
-10.36563 -92.441185 -32.885384
3.930389 -83.197395 -41.931606
-0.42621 -94.079094 -38.701927
2.14809 -94.52726 -38.843281
2.033328 -92.031097 -39.963215
1.981451 -89.233543 -40.957081
-0.516142 -88.956726 -41.073612
-5.947546 -82.149307 -42.86507
-3.202791 -95.084595 -36.97179
-3.000137 -93.170525 -38.459755
-2.973127 -90.949799 -39.777489
-3.11145 -88.358376 -40.987804
-5.691044 -87.553223 -40.661739
-8.20812 -84.202438 -41.370625
-5.801837 -95.504166 -34.697468
-8.223894 -92.545181 -35.497025
-10.516444 -89.313278 -36.329231
6.85334 -89.269562 -40.059319
6.591212 -86.123589 -40.696289
6.093514 -82.686996 -41.298622
4.423502 -89.289993 -40.627422
1.706067 -86.387085 -41.772945
-0.999648 -83.000717 -42.846344
-3.290149 -85.550964 -42.063587
-3.43031 -82.726189 -42.953884
-12.448741 -90.859703 -31.505774
-12.602352 -89.52639 -33.268539
-12.629021 -88.121216 -34.996841
-10.336847 -93.05809 -31.940656
-9.317969 -93.832711 -32.461416
-4.513224 -94.480617 -36.649492
-3.289516 -95.906917 -36.17102
-4.599949 -95.30294 -35.848723
-9.468232 -83.708568 -41.012018
-8.19987 -85.430748 -40.71932
-9.459982 -84.936879 -40.360714
-9.484008 -82.403923 -41.685202
-9.468232 -83.708568 -41.012018
-5.854297 -96.149071 -33.82436
-4.631137 -96.83276 -34.185226
4.814234 -81.184162 -41.894968
5.011952 -82.942195 -41.615114
3.732672 -81.439361 -42.21146
5.892238 -80.932602 -41.531401
4.814234 -81.184162 -41.894968
6.095282 -93.689087 -38.955106
4.812483 -93.558701 -39.188316
5.93254 -92.293865 -39.460096
6.095282 -93.689087 -38.955106
4.592916 -90.793373 -40.153158
5.763126 -90.790485 -39.93436
5.93254 -92.293865 -39.460096
-4.717202 -80.991059 -43.364313
-4.688928 -82.437748 -42.909477
-5.97582 -80.702618 -43.319906
-3.562362 -81.068924 -43.384815
-4.717202 -80.991059 -43.364313
-13.460736 -89.461296 -31.6726
-13.296623 -90.176494 -30.735446
-13.537542 -88.79464 -32.553982
-12.525547 -90.193047 -32.387156
-13.460736 -89.461296 -31.6726
-13.787675 -86.483318 -35.180571
-13.705583 -87.298916 -34.303402
-12.742992 -87.139786 -35.869861
-13.787675 -86.483318 -35.180571
-10.716147 -84.300682 -39.986452
-9.459982 -84.936879 -40.360714
-9.447786 -86.022862 -39.693754
-8.215061 -94.632008 -32.951814
-7.033285 -95.416878 -33.408716
-7.088532 -96.009106 -32.49435
-9.262722 -93.240482 -33.375782
-8.215061 -94.632008 -32.951814
-9.317969 -93.832711 -32.461416
2.703399 -83.282413 -42.196894
4.048015 -84.721771 -41.646688
2.821025 -84.806789 -41.911976
2.672484 -81.675804 -42.473034
2.703399 -83.282413 -42.196894
3.732672 -81.439361 -42.21146
2.672484 -81.675804 -42.473034
0.84123 -95.379704 -38.156975
-0.499721 -95.076038 -38.032339
2.12838 -95.603786 -38.227652
0.84123 -95.379704 -38.156975
0.86094 -94.303177 -38.772604
3.499238 -95.851082 -38.183662
2.12838 -95.603786 -38.227652
3.505364 -94.673954 -38.77051
3.499238 -95.851082 -38.183662
3.447983 -93.425872 -39.330477
3.505364 -94.673954 -38.77051
2.090709 -93.279179 -39.403248
3.397829 -92.163925 -39.821055
4.812483 -93.558701 -39.188316
3.447983 -93.425872 -39.330477
-7.11376 -81.842182 -42.699675
-5.813279 -83.572509 -42.352339
-6.979492 -83.265384 -42.186943
-7.216932 -80.372066 -43.224238
-7.11376 -81.842182 -42.699675
-5.97582 -80.702618 -43.319906
-7.216932 -80.372066 -43.224238
-1.984498 -96.404957 -36.454805
-3.289516 -95.906917 -36.17102
-1.888012 -95.578789 -37.167271
-1.984498 -96.404957 -36.454805
-1.786685 -94.621754 -37.911253
-1.888012 -95.578789 -37.167271
-3.101464 -94.12756 -37.715772
-1.713173 -93.624809 -38.580841
-0.499721 -95.076038 -38.032339
-1.786685 -94.621754 -37.911253
-8.244047 -82.868747 -41.952452
-6.979492 -83.265384 -42.186943
-6.943566 -84.599075 -41.605116
-8.244047 -82.868747 -41.952452
-9.484008 -82.403923 -41.685202
-4.589039 -96.116703 -35.03386
-4.631137 -96.83276 -34.185226
-5.812747 -94.690403 -35.512331
-4.599949 -95.30294 -35.848723
-4.589039 -96.116703 -35.03386
-6.980825 -94.771973 -34.281824
-5.854297 -96.149071 -33.82436
-7.033285 -95.416878 -33.408716
8.047592 -89.174667 -39.666719
8.174065 -90.644424 -39.324175
7.916528 -87.601681 -39.985205
8.047592 -89.174667 -39.666719
6.722276 -87.696575 -40.377804
7.654416 -85.856483 -40.325531
8.979732 -87.334575 -39.614446
7.916528 -87.601681 -39.985205
7.405567 -84.138187 -40.626698
7.654416 -85.856483 -40.325531
6.342363 -84.405293 -40.997456
7.202093 -82.523765 -40.858444
7.405567 -84.138187 -40.626698
7.202093 -82.523765 -40.858444
5.892238 -80.932602 -41.531401
6.978045 -90.78027 -39.650309
8.174065 -90.644424 -39.324175
5.638421 -89.279777 -40.343371
6.978045 -90.78027 -39.650309
5.763126 -90.790485 -39.93436
1.591238 -84.877258 -42.117563
2.821025 -84.806789 -41.911976
2.935854 -86.316616 -41.567358
0.23838 -83.184074 -42.654263
1.591238 -84.877258 -42.117563
0.35321 -84.693901 -42.309645
-1.043832 -81.396446 -43.18938
0.23838 -83.184074 -42.654263
-2.347031 -81.206188 -43.331045
-2.214979 -82.863453 -42.900114
-3.562362 -81.068924 -43.384815
-1.043832 -81.396446 -43.18938
-2.347031 -81.206188 -43.331045
-12.278244 -91.546646 -30.58282
-13.296623 -90.176494 -30.735446
-11.378402 -92.267349 -31.250851
-12.278244 -91.546646 -30.58282
-11.407186 -91.650444 -32.195579
-10.336847 -93.05809 -31.940656
-11.378402 -92.267349 -31.250851
-13.692248 -88.001503 -33.43925
-13.537542 -88.79464 -32.553982
-12.615686 -88.823803 -34.13269
-13.692248 -88.001503 -33.43925
-13.705583 -87.298916 -34.303402
-11.686704 -87.735817 -36.536057
-11.572733 -88.717247 -35.663036
-12.742992 -87.139786 -35.869861
-11.694046 -86.858826 -37.298958
-10.523786 -88.436287 -37.092133
-11.686704 -87.735817 -36.536057
-11.773217 -85.805779 -38.123331
-11.694046 -86.858826 -37.298958
-11.859628 -84.719463 -38.85556
-10.617539 -86.472981 -38.587263
-11.773217 -85.805779 -38.123331
-12.000778 -83.592617 -39.54973
-11.859628 -84.719463 -38.85556
-10.716147 -84.300682 -39.986452
-12.000778 -83.592617 -39.54973
3 0 11 9
3 0 13 11
3 43 15 44
3 1 18 17
3 1 19 18
3 1 21 19
3 2 45 47
3 45 23 46
3 45 46 47
3 3 24 10
3 3 25 24
3 3 27 25
3 48 28 49
3 50 49 12
3 48 49 50
3 52 51 28
3 53 29 54
3 5 30 14
3 5 31 30
3 6 33 32
3 55 34 56
3 57 56 16
3 55 56 57
3 59 58 34
3 7 60 61
3 7 62 63
3 7 64 66
3 64 35 65
3 64 65 66
3 8 36 20
3 8 37 36
3 4 38 26
3 67 39 68
3 69 68 22
3 67 68 69
3 71 70 39
3 72 40 73
3 74 41 75
3 76 75 40
3 74 75 76
3 77 42 78
3 80 79 42
3 9 10 2
3 11 10 9
3 11 3 10
3 11 12 3
3 13 12 11
3 13 81 83
3 83 82 12
3 81 82 83
3 84 14 85
3 84 85 86
3 15 87 89
3 87 14 88
3 87 88 89
3 15 5 14
3 90 16 91
3 92 91 6
3 90 91 92
3 93 16 94
3 96 95 16
3 17 97 98
3 18 99 101
3 101 100 17
3 99 100 101
3 18 102 103
3 18 104 105
3 19 106 108
3 108 107 18
3 106 107 108
3 19 109 111
3 109 7 110
3 109 110 111
3 19 20 7
3 21 20 19
3 21 8 20
3 112 22 113
3 114 113 4
3 112 113 114
3 115 22 116
3 118 117 22
3 23 119 120
3 23 121 122
3 10 23 2
3 24 23 10
3 24 123 125
3 125 124 23
3 123 124 125
3 24 126 128
3 126 17 127
3 126 127 128
3 25 17 24
3 25 1 17
3 25 26 1
3 27 26 25
3 27 4 26
3 12 27 3
3 28 27 12
3 28 4 27
3 28 129 131
3 131 130 4
3 129 130 131
3 133 132 28
3 29 134 135
3 29 136 138
3 136 2 137
3 136 137 138
3 14 139 141
3 139 29 140
3 139 140 141
3 30 29 14
3 30 2 29
3 30 9 2
3 31 9 30
3 31 0 9
3 32 142 143
3 33 144 146
3 146 145 32
3 144 145 146
3 33 147 149
3 147 148 149
3 16 33 6
3 34 33 16
3 34 150 152
3 152 151 33
3 150 151 152
3 34 153 154
3 156 155 34
3 157 32 158
3 35 159 161
3 159 32 160
3 159 160 161
3 35 6 32
3 20 35 7
3 36 35 20
3 36 6 35
3 36 162 164
3 164 163 6
3 162 163 164
3 37 165 167
3 167 166 36
3 165 166 167
3 37 168 169
3 26 21 1
3 38 21 26
3 38 8 21
3 22 38 4
3 39 38 22
3 39 8 38
3 39 37 8
3 170 37 171
3 172 171 39
3 170 171 172
3 174 173 37
3 40 175 176
3 40 177 178
3 40 179 181
3 179 15 180
3 179 180 181
3 41 15 40
3 41 5 15
3 182 41 183
3 42 184 186
3 184 41 185
3 184 185 186
3 42 5 41
3 42 31 5
3 187 31 188
3 189 188 42
3 187 188 189
3 190 0 191
3 192 191 31
3 190 191 192
3 193 0 194
3 195 13 196
3 197 196 0
3 195 196 197
3 198 13 199
3 201 200 13
