ply
format ascii 1.0
element vertex 297
property float x
property float y
property float z
element face 293
property list uchar int vertex_index
end_header
-6.165545 -51.718369 41.303448
-0.944098 -54.960773 45.379211
2.110692 -64.498116 39.853569
-3.286701 -61.529068 37.423981
-11.319777 -48.851643 37.986652
1.63749 -49.222057 54.285027
-3.625432 -53.200935 43.278324
-2.084158 -58.167946 41.223392
-4.728964 -56.80302 39.593399
1.742105 -56.81662 47.408707
3.302722 -61.310558 44.841393
0.618425 -59.817719 42.918186
-0.614758 -62.902882 38.594528
-1.921071 -66.432114 34.297108
-8.774441 -50.172424 39.51421
-7.373525 -55.312492 38.261101
3.098417 -54.001369 52.121067
0.125352 -51.937462 49.657303
-2.530595 -50.206627 47.119007
-4.977512 -48.5695 44.791389
-6.068408 -60.361588 36.291599
-4.861064 -52.698792 42.146603
-4.090697 -55.110725 41.373875
-5.489491 -54.239494 40.50069
0.332965 -55.727257 46.466721
1.117296 -58.229454 45.134766
-0.213718 -57.454926 44.106083
-2.765731 -59.795334 39.222961
-1.425658 -60.524986 39.922115
-1.929514 -62.220634 37.988316
-1.283086 -64.598 36.441463
-2.640275 -64.001007 35.918751
-10.058316 -49.36129 38.75687
-9.433372 -52.018085 38.19743
-10.736893 -51.304855 37.550655
3.101084 -50.193905 55.519745
3.814339 -52.649036 54.36977
2.332708 -51.599873 53.243702
1.615778 -52.943901 50.96701
0.787399 -50.561691 51.8871
-1.97675 -48.609913 49.277069
-3.763589 -49.316944 45.985397
2.771521 -63.023186 42.259857
-6.81746 -57.826206 37.312096
-2.279285 -54.169495 44.255051
-1.50993 -56.536327 43.264156
-2.843528 -55.789146 42.267876
-3.402325 -57.54533 40.336868
-4.039645 -59.190372 38.556229
0.164634 -48.171822 52.973343
3.18239 -57.685677 48.557384
3.956151 -59.93346 47.234764
2.47939 -59.019939 46.189068
1.994005 -60.643177 43.838779
1.307463 -62.014061 41.552662
-0.722458 -59.141491 41.924492
-0.057124 -61.35656 40.627605
0.738224 -63.701683 39.190033
0.124632 -65.366852 36.923115
-7.467286 -50.999237 40.348377
-6.775369 -53.57526 39.663754
-8.085009 -52.703808 38.962456
3.876505 -56.354721 50.897739
2.391811 -55.327087 49.8186
1.022139 -54.418518 48.699615
-0.368419 -53.430664 47.570625
-0.587072 -49.443096 50.750362
-1.19268 -50.926388 48.543446
-1.683976 -52.503578 46.462429
-3.001752 -51.821289 45.148075
-4.349702 -50.889572 44.018196
-5.596795 -50.160336 42.907856
-6.92078 -49.26379 41.86216
-8.129706 -48.443729 40.952831
-9.354121 -47.705875 40.052124
-10.655499 -46.878078 39.202908
-11.97762 -46.30529 38.342945
-13.309558 -45.550293 37.64772
-14.639857 -44.846836 37.035221
-6.035155 -56.164131 38.85857
-5.412854 -58.546814 37.897911
-4.638093 -60.928101 36.862614
-3.939171 -63.379372 35.530163
-3.406176 -65.818741 33.895504
2.369287 -49.707981 54.902386
2.735722 -48.953884 56.011347
2.003925 -48.46796 55.393988
2.871455 -64.934433 40.243178
3.20187 -64.196968 41.446321
2.441107 -63.760651 41.056713
-1.231091 -66.71904 34.527372
-0.912098 -65.801983 35.59955
-1.602078 -65.515057 35.369286
-1.572663 -67.667355 33.368969
-1.231091 -66.71904 34.527372
-9.079375 -53.304807 37.908507
-9.76711 -52.940447 37.604754
3.800604 -54.458166 52.652912
4.158564 -53.781999 53.777264
3.456378 -53.325203 53.245418
3.487461 -55.178045 51.509403
4.189647 -55.634842 52.041248
3.800604 -54.458166 52.652912
-0.922874 -48.292969 51.18075
-0.211219 -48.807459 51.861852
-0.547021 -47.657331 52.29224
-7.213171 -48.064957 42.189989
-6.584748 -48.533026 42.714592
-7.817634 -47.654926 41.735325
-7.525243 -48.853759 41.407496
-7.213171 -48.064957 42.189989
-9.677357 -46.500312 40.259119
-9.073705 -46.87648 40.736075
-10.328046 -46.086414 39.834511
-10.00481 -47.291977 39.627516
-9.677357 -46.500312 40.259119
-12.2998 -44.989168 38.533918
-11.633587 -45.444288 38.931255
-12.96577 -44.61167 38.186306
-12.643589 -45.927791 37.995333
-12.2998 -44.989168 38.533918
-14.980532 -43.576639 37.17226
-14.307336 -43.907921 37.497696
-15.34138 -44.511291 36.753529
-14.980532 -43.576639 37.17226
4.040387 -61.82694 45.232513
4.367102 -61.138391 46.429199
3.629437 -60.622009 46.038078
-4.345522 -64.227413 34.636752
-4.680699 -63.069952 35.306753
-4.079025 -65.447098 33.819422
-3.672674 -64.599057 34.712834
-4.345522 -64.227413 34.636752
-10.418871 -52.583832 37.281366
-9.76711 -52.940447 37.604754
-10.085133 -51.66147 37.874043
3.485701 -49.411816 56.631369
2.735722 -48.953884 56.011347
3.870417 -50.666546 56.12688
3.485701 -49.411816 56.631369
3.457712 -51.42147 54.944758
4.227044 -51.894112 55.551893
3.870417 -50.666546 56.12688
-2.313412 -47.455166 49.675785
-1.617713 -47.876377 50.444103
-2.602323 -48.210926 48.618744
-2.313412 -47.455166 49.675785
-2.879245 -49.009283 47.539713
-2.253672 -49.40827 48.198038
-2.602323 -48.210926 48.618744
-3.495742 -48.564442 46.972908
-3.147092 -49.761786 46.552202
-2.879245 -49.009283 47.539713
-4.13389 -48.042877 46.384878
-3.495742 -48.564442 46.972908
-4.740851 -47.669155 45.787874
-4.370551 -48.943222 45.388393
-4.13389 -48.042877 46.384878
3.471794 -63.393532 42.7185
3.737395 -62.537218 44.009268
3.037122 -62.166872 43.550625
3.471794 -63.393532 42.7185
3.20187 -64.196968 41.446321
-7.520931 -57.436916 37.054254
-7.095492 -56.569349 37.786598
-7.798963 -56.180059 37.528757
-7.158399 -58.714005 36.5965
-7.520931 -57.436916 37.054254
-6.783873 -59.981696 36.086252
-6.442934 -59.093897 36.801847
-7.158399 -58.714005 36.5965
-11.68953 -49.718592 37.466795
-11.977783 -48.451887 37.671335
1.27067 -48.04347 54.697096
2.003925 -48.46796 55.393988
0.534242 -47.518352 54.041254
0.901062 -48.696939 53.629185
1.27067 -48.04347 54.697096
-0.192828 -46.909002 53.432625
0.534242 -47.518352 54.041254
-0.547021 -47.657331 52.29224
-0.192828 -46.909002 53.432625
2.556117 -65.688916 39.015887
1.827096 -65.319916 38.66789
3.569271 -58.809568 47.896074
4.313128 -59.307091 48.401174
3.926248 -58.183199 49.062484
1.140862 -64.9217 38.336123
1.827096 -65.319916 38.66789
1.424458 -64.099899 39.521801
0.834067 -65.754284 37.202663
1.140862 -64.9217 38.336123
0.431428 -64.534267 38.056574
0.529747 -66.568077 36.06013
0.834067 -65.754284 37.202663
-0.208239 -66.186409 35.840376
-0.579227 -64.982426 36.682289
-0.912098 -65.801983 35.59955
0.529747 -66.568077 36.06013
-0.208239 -66.186409 35.840376
-8.405193 -53.647669 38.29102
-8.75919 -52.360946 38.579943
-9.079375 -53.304807 37.908507
-8.049451 -54.952011 37.940342
-7.729267 -54.00815 38.611778
-8.405193 -53.647669 38.29102
-7.798963 -56.180059 37.528757
-8.049451 -54.952011 37.940342
-11.398088 -50.945198 37.248796
-11.028335 -50.078249 37.768653
-11.68953 -49.718592 37.466795
-11.138939 -52.268795 36.967346
-11.398088 -50.945198 37.248796
-10.418871 -52.583832 37.281366
-11.138939 -52.268795 36.967346
4.594177 -53.089222 54.985422
4.227044 -51.894112 55.551893
4.594177 -53.089222 54.985422
4.158564 -53.781999 53.777264
4.618206 -56.79701 51.453077
4.189647 -55.634842 52.041248
4.273305 -57.517721 50.232662
4.618206 -56.79701 51.453077
3.529447 -57.020199 49.727562
3.926248 -58.183199 49.062484
4.273305 -57.517721 50.232662
-1.281911 -49.026505 50.013716
-0.922874 -48.292969 51.18075
-1.617713 -47.876377 50.444103
-5.37941 -47.325029 45.073084
-4.740851 -47.669155 45.787874
-5.613115 -48.18588 44.179207
-5.37941 -47.325029 45.073084
-5.922756 -48.981299 43.23744
-5.287154 -49.364918 43.849623
-5.613115 -48.18588 44.179207
-6.258788 -49.712063 42.385008
-5.922756 -48.981299 43.23744
-6.584748 -48.533026 42.714592
-8.461498 -47.245407 41.186428
-7.817634 -47.654926 41.735325
-8.741913 -48.074802 40.502477
-8.461498 -47.245407 41.186428
-9.073705 -46.87648 40.736075
-10.972527 -45.730682 39.361237
-10.328046 -46.086414 39.834511
-11.31656 -46.591684 38.772926
-10.972527 -45.730682 39.361237
-11.633587 -45.444288 38.931255
-12.306705 -47.178711 37.849481
-11.977783 -48.451887 37.671335
-11.648699 -47.578467 38.164799
-12.972673 -46.801213 37.501869
-12.306705 -47.178711 37.849481
-12.643589 -45.927791 37.995333
-13.671308 -46.492775 37.178049
-12.972673 -46.801213 37.501869
-13.642187 -44.25965 37.803945
-12.96577 -44.61167 38.186306
-13.974707 -45.198565 37.34147
-13.642187 -44.25965 37.803945
-14.307336 -43.907921 37.497696
-14.336458 -46.141047 36.8718
-13.671308 -46.492775 37.178049
-13.974707 -45.198565 37.34147
-15.04484 -45.69869 36.619793
-14.336458 -46.141047 36.8718
-15.04484 -45.69869 36.619793
-15.34138 -44.511291 36.753529
4.715291 -60.445385 47.687593
5.072268 -59.819015 48.854004
4.313128 -59.307091 48.401174
4.715291 -60.445385 47.687593
4.367102 -61.138391 46.429199
4.040387 -61.82694 45.232513
3.737395 -62.537218 44.009268
2.871455 -64.934433 40.243178
2.556117 -65.688916 39.015887
-6.439919 -61.239834 35.519819
-6.783873 -59.981696 36.086252
-5.745318 -61.56106 35.687472
-6.439919 -61.239834 35.519819
-5.03016 -61.844316 35.972979
-5.35325 -60.644844 36.577106
-5.745318 -61.56106 35.687472
-4.288632 -62.153736 36.196388
-5.03016 -61.844316 35.972979
-4.680699 -63.069952 35.306753
-3.79087 -66.718254 32.932805
-4.079025 -65.447098 33.819422
-3.022882 -67.01902 33.065037
-3.79087 -66.718254 32.932805
-2.28033 -67.325706 33.265839
-2.663623 -66.125428 34.096306
-3.022882 -67.01902 33.065037
-1.572663 -67.667355 33.368969
-2.28033 -67.325706 33.265839
3 0 23 21
3 1 26 24
3 3 29 27
3 3 31 29
3 4 34 32
3 5 84 86
3 84 35 85
3 84 85 86
3 5 37 35
3 5 39 37
3 2 87 89
3 89 88 42
3 87 88 89
3 6 46 44
3 8 47 22
3 8 48 47
3 9 52 50
3 11 53 25
3 11 54 53
3 7 55 45
3 12 56 28
3 12 57 56
3 12 58 57
3 13 90 92
3 92 91 30
3 90 91 92
3 13 93 94
3 14 61 59
3 96 95 33
3 16 97 99
3 99 98 36
3 97 98 99
3 16 100 102
3 100 62 101
3 100 101 102
3 16 63 62
3 17 64 38
3 17 65 64
3 103 66 104
3 105 104 49
3 103 104 105
3 18 67 40
3 18 68 67
3 18 69 68
3 19 70 41
3 19 71 70
3 106 72 107
3 108 73 109
3 110 109 72
3 108 109 110
3 111 74 112
3 113 75 114
3 115 114 74
3 113 114 115
3 116 76 117
3 118 77 119
3 120 119 76
3 118 119 120
3 121 78 122
3 124 123 78
3 10 125 127
3 127 126 51
3 125 126 127
3 15 79 60
3 20 80 43
3 20 81 80
3 128 82 129
3 130 83 131
3 132 131 82
3 130 131 132
3 21 22 6
3 23 22 21
3 23 8 22
3 24 25 9
3 26 25 24
3 26 11 25
3 27 28 7
3 29 28 27
3 29 12 28
3 29 30 12
3 31 30 29
3 31 13 30
3 32 33 14
3 34 33 32
3 34 133 135
3 135 134 33
3 133 134 135
3 35 136 137
3 35 138 139
3 35 140 142
3 140 36 141
3 140 141 142
3 37 36 35
3 37 16 36
3 37 38 16
3 39 38 37
3 39 17 38
3 143 40 144
3 145 40 146
3 147 18 148
3 149 148 40
3 147 148 149
3 150 41 151
3 152 151 18
3 150 151 152
3 153 41 154
3 155 19 156
3 157 156 41
3 155 156 157
3 42 158 160
3 160 159 10
3 158 159 160
3 162 161 42
3 163 43 164
3 165 164 15
3 163 164 165
3 166 43 167
3 168 20 169
3 170 169 43
3 168 169 170
3 44 45 1
3 46 45 44
3 46 7 45
3 22 46 6
3 47 46 22
3 47 7 46
3 47 27 7
3 48 27 47
3 48 3 27
3 172 171 4
3 173 5 174
3 175 49 176
3 177 176 5
3 175 176 177
3 178 49 179
3 181 180 49
3 183 182 2
3 50 184 186
3 184 51 185
3 184 185 186
3 52 51 50
3 52 10 51
3 25 52 9
3 53 52 25
3 53 10 52
3 53 42 10
3 54 42 53
3 54 2 42
3 45 26 1
3 55 26 45
3 55 11 26
3 28 55 7
3 56 55 28
3 56 11 55
3 56 54 11
3 57 54 56
3 57 2 54
3 57 187 189
3 189 188 2
3 187 188 189
3 58 190 192
3 192 191 57
3 190 191 192
3 58 193 194
3 30 58 12
3 195 58 196
3 197 196 30
3 195 196 197
3 199 198 58
3 59 60 0
3 61 60 59
3 61 15 60
3 33 61 14
3 200 61 201
3 202 201 33
3 200 201 202
3 203 15 204
3 205 204 61
3 203 204 205
3 207 206 15
3 208 34 209
3 210 209 4
3 208 209 210
3 211 34 212
3 214 213 34
3 36 215 216
3 218 217 36
3 62 219 220
3 62 221 222
3 62 223 225
3 223 50 224
3 223 224 225
3 63 50 62
3 63 9 50
3 38 63 16
3 64 63 38
3 64 9 63
3 64 24 9
3 65 24 64
3 65 1 24
3 49 39 5
3 66 39 49
3 66 17 39
3 40 226 228
3 226 66 227
3 226 227 228
3 67 66 40
3 67 17 66
3 67 65 17
3 68 65 67
3 68 1 65
3 68 44 1
3 69 44 68
3 69 6 44
3 41 69 18
3 70 69 41
3 70 6 69
3 70 21 6
3 71 21 70
3 71 0 21
3 229 19 230
3 231 19 232
3 233 71 234
3 235 234 19
3 233 234 235
3 72 236 238
3 236 71 237
3 236 237 238
3 72 0 71
3 72 59 0
3 73 59 72
3 73 14 59
3 239 73 240
3 74 241 243
3 241 73 242
3 241 242 243
3 74 14 73
3 74 32 14
3 75 32 74
3 75 4 32
3 244 75 245
3 76 246 248
3 246 75 247
3 246 247 248
3 76 4 75
3 76 249 251
3 251 250 4
3 249 250 251
3 77 252 254
3 254 253 76
3 252 253 254
3 77 255 256
3 257 77 258
3 78 259 261
3 259 77 260
3 259 260 261
3 78 262 264
3 264 263 77
3 262 263 264
3 78 265 266
3 268 267 78
3 51 269 271
3 269 270 271
3 273 272 51
3 275 274 10
3 277 276 2
3 60 23 0
3 79 23 60
3 79 8 23
3 43 79 15
3 80 79 43
3 80 8 79
3 80 48 8
3 81 48 80
3 81 3 48
3 278 20 279
3 280 20 281
3 282 81 283
3 284 283 20
3 282 283 284
3 82 285 287
3 285 81 286
3 285 286 287
3 82 3 81
3 82 31 3
3 83 31 82
3 83 13 31
3 288 83 289
3 290 83 291
3 292 13 293
3 294 293 83
3 292 293 294
3 296 295 13
