ply
format ascii 1.0
element vertex 171
property float x
property float y
property float z
element face 147
property list uchar int vertex_index
end_header
7.855089 -79.010498 -40.830818
14.103431 -74.049858 -36.925785
19.932846 -69.351608 -29.514053
11.434577 -77.039612 -38.915081
8.71762 -85.589378 -39.954773
12.844696 -84.257057 -37.918404
16.036272 -70.574142 -34.921654
18.794392 -68.139534 -31.178839
8.310672 -82.360535 -40.418266
10.970663 -85.010719 -38.942871
10.376194 -81.530396 -39.447105
12.805209 -75.720886 -37.979942
13.670065 -79.520462 -37.423168
14.787045 -77.714539 -36.527515
16.058691 -76.370216 -35.361721
16.937239 -74.364693 -34.345654
15.206796 -72.57811 -35.888271
19.763641 -71.83403 -30.363121
18.372461 -70.256142 -32.14423
7.065114 -74.978462 -41.381111
9.519958 -77.758293 -40.027882
8.949964 -74.299194 -40.414776
10.490581 -73.084496 -39.506184
11.982602 -71.8498 -38.478333
13.176112 -70.139008 -37.504005
11.229692 -88.307396 -38.50069
13.385438 -87.629906 -37.391388
15.112394 -86.497345 -36.323627
12.087263 -80.644897 -38.478718
14.424596 -83.097122 -36.891537
17.752005 -72.461334 -33.237125
16.935999 -68.805519 -33.74292
14.235209 -68.660728 -36.519436
15.155871 -66.813507 -35.48703
18.376963 -66.366459 -31.478362
18.117563 -67.354427 -31.994552
19.52853 -72.827263 -30.903963
20.159588 -73.498474 -30.035208
18.83294 -72.038319 -31.794517
19.068051 -71.045086 -31.253675
19.52853 -72.827263 -30.903963
7.720992 -72.710594 -41.108673
8.007539 -74.638828 -40.897943
6.778567 -73.050228 -41.591841
10.103345 -71.126511 -39.74922
9.321362 -71.637642 -40.222784
10.849355 -70.509163 -39.235294
11.236591 -72.467148 -38.992258
10.103345 -71.126511 -39.74922
11.542094 -69.76891 -38.753304
10.849355 -70.509163 -39.235294
20.014671 -68.174069 -29.043586
20.410488 -69.816352 -28.615212
9.973656 -86.948387 -39.227732
10.235768 -88.693585 -38.887405
8.979732 -87.334575 -39.614446
15.089079 -82.334442 -36.374667
14.04733 -81.308792 -37.157353
14.711813 -80.546112 -36.640482
15.481942 -84.111103 -36.071888
15.089079 -82.334442 -36.374667
13.280063 -67.495148 -37.286358
13.705661 -69.399868 -37.01172
12.750514 -68.234287 -37.778643
14.628688 -64.802782 -35.854177
14.211305 -65.74522 -36.32602
15.534975 -65.916427 -34.979318
14.628688 -64.802782 -35.854177
18.966262 -67.075913 -30.685014
19.535489 -67.68195 -29.852621
19.363619 -68.745571 -30.346446
18.966262 -67.075913 -30.685014
18.376963 -66.366459 -31.478362
15.270304 -79.643151 -36.192656
14.711813 -80.546112 -36.640482
14.228555 -78.617501 -36.975341
15.820664 -78.818802 -35.680398
15.270304 -79.643151 -36.192656
16.456487 -78.14664 -35.097501
15.820664 -78.818802 -35.680398
15.422868 -77.042378 -35.944618
16.981606 -77.254791 -34.513368
16.456487 -78.14664 -35.097501
16.497965 -75.367455 -34.853688
17.42088 -76.252029 -34.005335
16.981606 -77.254791 -34.513368
20.384961 -71.04153 -29.044902
20.410488 -69.816352 -28.615212
20.300359 -72.282742 -29.469435
20.159588 -73.498474 -30.035208
19.848244 -70.592819 -29.938587
20.384961 -71.04153 -29.044902
20.300359 -72.282742 -29.469435
17.906598 -68.412732 -32.477248
18.117563 -67.354427 -31.994552
18.583427 -69.197838 -31.661535
8.551054 -72.244991 -40.67708
7.720992 -72.710594 -41.108673
9.720273 -73.691845 -39.96048
8.551054 -72.244991 -40.67708
9.321362 -71.637642 -40.222784
12.138849 -68.913513 -38.26614
12.579357 -70.994404 -37.991169
11.542094 -69.76891 -38.753304
12.750514 -68.234287 -37.778643
12.138849 -68.913513 -38.26614
7.654416 -85.856483 -40.325531
8.979732 -87.334575 -39.614446
7.405567 -84.138187 -40.626698
7.654416 -85.856483 -40.325531
7.202093 -82.523765 -40.858444
8.514146 -83.974956 -40.18652
7.405567 -84.138187 -40.626698
7.000818 -80.769371 -41.091223
7.202093 -82.523765 -40.858444
6.773026 -79.094352 -41.297499
8.08288 -80.685517 -40.624542
7.000818 -80.769371 -41.091223
6.546574 -77.317219 -41.506075
6.773026 -79.094352 -41.297499
6.151586 -75.301201 -41.781222
7.460102 -76.99448 -41.105964
6.546574 -77.317219 -41.506075
5.799418 -73.357902 -42.039118
6.151586 -75.301201 -41.781222
6.778567 -73.050228 -41.591841
5.799418 -73.357902 -42.039118
20.014671 -68.174069 -29.043586
19.535489 -67.68195 -29.852621
11.515473 -89.935547 -38.114133
10.235768 -88.693585 -38.887405
12.52148 -89.467343 -37.656324
11.515473 -89.935547 -38.114133
13.599353 -89.128598 -37.101673
12.52148 -89.467343 -37.656324
12.307565 -87.968651 -37.946039
14.539492 -88.615269 -36.551394
13.599353 -89.128598 -37.101673
15.40297 -88.048989 -36.017513
14.539492 -88.615269 -36.551394
14.248916 -87.063626 -36.857507
16.182366 -87.365333 -35.457779
15.40297 -88.048989 -36.017513
15.825841 -85.811215 -35.787933
14.768495 -84.797234 -36.607582
15.481942 -84.111103 -36.071888
16.182366 -87.365333 -35.457779
15.825841 -85.811215 -35.787933
17.790682 -75.15823 -33.471652
17.42088 -76.252029 -34.005335
18.198065 -74.20655 -32.917387
17.790682 -75.15823 -33.471652
17.344622 -73.413014 -33.79139
18.522712 -73.140915 -32.340965
18.198065 -74.20655 -32.917387
18.062233 -71.358738 -32.690677
18.83294 -72.038319 -31.794517
18.522712 -73.140915 -32.340965
17.188367 -67.68742 -33.276592
17.906598 -68.412732 -32.477248
17.65423 -69.530831 -32.943575
13.750974 -66.668831 -36.842222
13.280063 -67.495148 -37.286358
14.69554 -67.737118 -36.003233
13.750974 -66.668831 -36.842222
14.211305 -65.74522 -36.32602
16.425039 -66.912433 -34.107264
16.045935 -67.809513 -34.614975
15.534975 -65.916427 -34.979318
17.188367 -67.68742 -33.276592
16.425039 -66.912433 -34.107264
3 35 34 7
3 0 10 8
3 1 13 11
3 1 14 13
3 1 16 14
3 36 17 37
3 38 18 39
3 40 39 17
3 38 39 40
3 41 21 42
3 43 42 19
3 41 42 43
3 44 22 45
3 46 23 47
3 48 47 22
3 46 47 48
3 50 49 23
3 2 51 52
3 4 53 55
3 53 25 54
3 53 54 55
3 5 26 9
3 5 27 26
3 3 28 20
3 56 29 57
3 58 57 12
3 56 57 58
3 60 59 29
3 6 30 15
3 6 31 30
3 61 32 62
3 63 62 24
3 61 62 63
3 64 33 65
3 67 66 33
3 7 68 70
3 70 69 2
3 68 69 70
3 72 71 7
3 8 9 4
3 10 9 8
3 10 5 9
3 11 12 3
3 13 12 11
3 13 73 75
3 75 74 12
3 73 74 75
3 13 76 77
3 14 78 80
3 80 79 13
3 78 79 80
3 14 81 82
3 14 83 85
3 83 15 84
3 83 84 85
3 16 15 14
3 16 6 15
3 86 2 87
3 17 88 89
3 17 90 92
3 90 2 91
3 90 91 92
3 17 7 2
3 18 7 17
3 18 93 95
3 95 94 7
3 93 94 95
3 19 20 0
3 21 20 19
3 21 3 20
3 96 21 97
3 22 98 100
3 98 21 99
3 98 99 100
3 22 3 21
3 22 11 3
3 23 11 22
3 23 1 11
3 23 24 1
3 101 24 102
3 103 102 23
3 101 102 103
3 105 104 24
3 106 4 107
3 108 4 109
3 110 8 111
3 112 111 4
3 110 111 112
3 113 8 114
3 115 0 116
3 117 116 8
3 115 116 117
3 118 0 119
3 120 19 121
3 122 121 0
3 120 121 122
3 123 19 124
3 126 125 19
3 128 127 2
3 25 129 130
3 25 131 132
3 9 25 4
3 26 25 9
3 26 133 135
3 135 134 25
3 133 134 135
3 26 136 137
3 27 138 140
3 140 139 26
3 138 139 140
3 27 141 142
3 20 10 0
3 28 10 20
3 28 5 10
3 12 28 3
3 29 28 12
3 29 5 28
3 29 27 5
3 143 27 144
3 145 144 29
3 143 144 145
3 147 146 27
3 15 148 149
3 30 150 152
3 152 151 15
3 150 151 152
3 30 153 154
3 30 155 157
3 155 18 156
3 155 156 157
3 31 18 30
3 31 158 160
3 160 159 18
3 158 159 160
3 24 16 1
3 32 16 24
3 32 6 16
3 161 32 162
3 33 163 165
3 163 32 164
3 163 164 165
3 33 6 32
3 33 31 6
3 166 31 167
3 168 167 33
3 166 167 168
3 170 169 31
