ply
format ascii 1.0
element vertex 421
property float x
property float y
property float z
element face 364
property list uchar int vertex_index
end_header
39.06052 -4.407369 -30.761827
39.358784 -14.646382 -28.838461
25.133251 15.203015 -30.633701
34.022701 3.543026 -26.971903
36.272453 0.144758 -27.04652
20.485817 25.994606 -37.014313
38.987022 -17.896172 -24.853689
22.09338 10.308691 -22.046072
22.196037 13.67132 -25.934597
25.190578 11.195137 -26.316114
39.689362 -5.626554 -34.194141
21.553907 21.4835 -33.383591
38.325089 -22.942066 -23.246016
31.323446 6.359568 -26.798546
37.891689 -3.79317 -26.985806
39.473629 -9.246971 -30.162949
39.733501 -11.464527 -32.766491
38.862869 -20.04495 -27.236816
19.41856 16.504137 -25.31613
21.974676 17.406845 -29.618822
24.695646 19.155222 -34.581291
23.542295 8.99267 -22.197321
23.689213 10.612522 -24.189125
25.195612 9.322715 -24.258615
39.889389 -6.72265 -35.639751
19.951641 22.910383 -32.544498
20.363384 20.796787 -30.988771
39.305946 -13.665163 -27.421621
39.34132 -11.107085 -28.092665
39.466919 -11.886971 -29.487829
39.628674 -10.184104 -31.598103
39.55019 -12.954573 -30.792892
38.580772 -21.511299 -25.200821
23.640038 14.344808 -28.217287
22.097754 15.480796 -27.749407
23.489656 16.203379 -30.049482
23.444567 18.113663 -32.052517
24.927778 17.060698 -32.470375
29.877695 9.597982 -28.822672
28.442745 10.880837 -28.912834
38.571499 -4.105939 -28.91596
37.963009 -1.703144 -29.136063
38.605675 -2.010624 -30.950518
35.18721 1.902536 -26.955925
36.269218 2.354233 -29.188488
39.152298 -15.451954 -25.394253
39.168949 -16.248566 -26.807207
20.737499 11.751369 -21.96261
20.848688 13.333374 -23.914371
22.188324 11.844989 -23.914734
23.618986 12.468911 -26.167717
25.122061 13.186759 -28.426937
39.416431 -5.006894 -32.378754
19.605026 25.02919 -34.290104
21.080328 23.621603 -35.096451
22.698002 22.433542 -36.001812
29.80393 7.603901 -26.628431
32.716305 5.039026 -26.92169
38.456417 -5.997899 -26.805813
38.974255 -6.348927 -28.706306
39.227375 -8.816063 -28.346569
39.319401 -6.840602 -30.329134
39.590675 -7.554633 -32.113312
39.769859 -8.52382 -33.60651
39.923439 -9.634252 -35.009007
38.720242 -20.289082 -24.252766
38.937119 -18.775337 -26.243244
39.158726 -17.341446 -28.185211
39.409534 -15.68781 -30.211329
39.639648 -14.311999 -32.155441
22.089954 8.756927 -20.207632
20.789867 15.005111 -25.654247
20.659441 16.802553 -27.355831
20.503557 18.676767 -29.04557
21.793085 19.39608 -31.466534
23.047857 20.258156 -33.946384
24.226883 21.341768 -36.61134
26.734922 11.924504 -28.529984
26.71191 13.946425 -30.733755
37.16066 -1.762079 -27.041119
37.226337 0.374337 -29.223364
25.135867 8.458967 -23.237572
24.368953 9.157692 -23.227968
24.309209 8.293944 -22.206925
39.941061 -5.897946 -36.713262
39.981318 -7.387405 -36.365425
19.76826 20.528742 -29.823763
19.659534 21.524396 -30.615396
19.06441 21.256352 -29.450389
29.873486 10.705941 -30.028186
30.600735 10.056809 -30.019779
35.729832 1.023647 -27.001223
35.143952 0.907723 -25.924275
35.686573 0.028834 -25.969572
20.179618 27.002409 -37.821686
19.723522 26.658819 -36.417406
39.06966 -16.674063 -25.123971
39.083868 -16.260528 -24.418044
39.00123 -17.482636 -24.147762
39.595625 -4.34444 -34.414857
39.459159 -4.03461 -33.507164
39.552897 -5.316724 -33.286448
19.045034 24.795343 -33.009175
18.873266 25.876425 -33.832255
30.563688 6.981734 -26.713489
29.794201 6.595256 -25.560631
30.553959 5.97309 -25.645688
31.338331 7.355487 -27.857654
30.578573 7.977654 -27.772596
30.563688 6.981734 -26.713489
33.369503 4.291026 -26.946797
32.719386 4.002446 -25.880606
33.372583 3.254446 -25.905713
38.662431 -7.098705 -26.737923
38.425213 -6.97435 -25.806971
38.921351 -7.274218 -27.68817
38.715336 -6.173413 -27.756059
38.662431 -7.098705 -26.737923
38.522666 -21.615574 -23.749391
38.614558 -21.08129 -23.180292
38.416981 -22.407781 -22.676917
39.429296 -16.439758 -30.726886
39.285917 -17.142752 -29.762617
39.544353 -15.751853 -31.698942
39.524591 -14.999904 -31.183385
39.429296 -16.439758 -30.726886
22.078899 7.993366 -19.2693
21.403914 8.794165 -19.290684
22.789983 7.252044 -19.252733
22.801038 8.015604 -20.191065
22.078899 7.993366 -19.2693
18.820094 17.239036 -25.103678
18.877578 16.423353 -24.367578
19.356989 17.411062 -26.135343
18.820094 17.239036 -25.103678
27.508598 12.389469 -29.735974
27.588833 11.40267 -28.721409
28.36251 11.867635 -29.927399
27.497092 13.400429 -30.837859
26.723416 12.935465 -29.63187
27.508598 12.389469 -29.735974
37.526174 -2.777624 -27.013462
37.118817 -2.833689 -25.935671
37.484331 -3.849234 -25.908015
37.629385 0.364544 -30.264505
37.594673 -0.664404 -29.179713
37.997721 -0.674196 -30.220855
37.229261 1.3905 -30.230699
37.629385 0.364544 -30.264505
36.214489 -0.912104 -25.933267
35.686573 0.028834 -25.969572
21.004047 26.266858 -38.279608
21.306868 25.236016 -37.362048
38.895498 -18.757661 -23.825401
39.00123 -17.482636 -24.147762
39.830867 -5.261078 -35.998424
39.730854 -4.71303 -35.27562
39.789376 -6.174602 -34.916946
39.830867 -5.261078 -35.998424
39.941061 -5.897946 -36.713262
19.453662 22.581194 -31.39326
19.218342 23.735939 -32.136373
20.157512 21.853585 -31.766634
19.453662 22.581194 -31.39326
19.659534 21.524396 -30.615396
31.286544 5.314278 -25.684989
30.553959 5.97309 -25.645688
34.008442 4.609334 -28.031811
34.630693 3.807416 -28.077638
39.323633 -12.386124 -27.757143
39.271116 -12.022358 -27.027282
39.253429 -13.301397 -26.69176
38.367973 -22.864736 -24.724648
38.452931 -22.226683 -24.223419
38.240132 -23.58012 -23.747245
38.541528 -22.115901 -25.730935
38.367973 -22.864736 -24.724648
38.682577 -21.382727 -26.748933
38.721821 -20.778125 -26.218819
38.541528 -22.115901 -25.730935
19.481804 15.679869 -24.536703
18.877578 16.423353 -24.367578
18.940823 15.599086 -23.58815
29.16022 10.23941 -28.867753
28.386964 9.861928 -27.759906
29.104439 9.2205 -27.714824
29.156011 11.347368 -30.073267
29.16022 10.23941 -28.867753
29.873486 10.705941 -30.028186
28.36251 11.867635 -29.927399
29.156011 11.347368 -30.073267
38.319054 -0.827936 -31.128082
37.997721 -0.674196 -30.220855
38.284342 -1.856884 -30.04329
33.962032 2.539064 -25.90248
33.372583 3.254446 -25.905713
34.544286 1.718819 -25.894491
35.143952 0.907723 -25.924275
34.604956 2.722781 -26.963914
33.962032 2.539064 -25.90248
34.544286 1.718819 -25.894491
35.212948 2.987171 -28.069648
34.630693 3.807416 -28.077638
34.604956 2.722781 -26.963914
35.753952 3.213019 -29.18593
35.212948 2.987171 -28.069648
35.728214 2.128385 -28.072207
36.291853 3.395248 -30.278839
35.753952 3.213019 -29.18593
20.179618 27.002409 -37.821686
21.004047 26.266858 -38.279608
39.115734 -15.058428 -24.637985
39.083868 -16.260528 -24.418044
39.176605 -14.194793 -25.678076
39.115734 -15.058428 -24.637985
39.229122 -14.558559 -26.407937
39.253429 -13.301397 -26.69176
39.176605 -14.194793 -25.678076
20.793093 12.542371 -22.938491
20.192857 13.33621 -22.974441
20.137263 12.545208 -21.99856
39.268381 -3.740992 -32.582068
39.090425 -3.441229 -31.773604
39.238475 -4.707132 -31.57029
39.268381 -3.740992 -32.582068
39.459159 -4.03461 -33.507164
39.595625 -4.34444 -34.414857
39.730854 -4.71303 -35.27562
19.283126 26.176111 -35.055301
18.873266 25.876425 -33.832255
20.045421 25.511898 -35.652209
19.723522 26.658819 -36.417406
19.283126 26.176111 -35.055301
19.778333 23.969786 -33.417301
19.045034 24.795343 -33.009175
19.218342 23.735939 -32.136373
21.604123 24.049514 -36.403116
21.306868 25.236016 -37.362048
20.783073 24.808104 -36.055382
22.41296 23.455483 -36.855797
21.604123 24.049514 -36.403116
21.889165 23.027572 -35.549132
23.225119 22.892013 -37.262439
22.41296 23.455483 -36.855797
38.212389 -23.608277 -22.270649
38.416981 -22.407781 -22.676917
38.092941 -24.215466 -22.758058
38.212389 -23.608277 -22.270649
38.240132 -23.58012 -23.747245
38.092941 -24.215466 -22.758058
29.037354 7.250595 -25.548635
29.794201 6.595256 -25.560631
29.067557 8.22346 -26.617704
29.037354 7.250595 -25.548635
29.840812 8.600941 -27.725552
29.104439 9.2205 -27.714824
29.067557 8.22346 -26.617704
30.615455 8.974694 -28.869717
29.840812 8.600941 -27.725552
30.578573 7.977654 -27.772596
30.600735 10.056809 -30.019779
30.615455 8.974694 -28.869717
31.982974 4.654006 -25.746561
32.719386 4.002446 -25.880606
32.019875 5.699297 -26.860118
31.286544 5.314278 -25.684989
31.982974 4.654006 -25.746561
33.355244 5.357334 -28.006705
33.369503 4.291026 -26.946797
34.008442 4.609334 -28.031811
32.759315 6.096314 -28.06011
33.355244 5.357334 -28.006705
32.062886 6.756585 -27.998538
32.019875 5.699297 -26.860118
32.759315 6.096314 -28.06011
31.338331 7.355487 -27.857654
32.062886 6.756585 -27.998538
37.86409 -4.820448 -25.952177
37.484331 -3.849234 -25.908015
38.146454 -5.922813 -25.86218
38.425213 -6.97435 -25.806971
38.174053 -4.895535 -26.895809
37.86409 -4.820448 -25.952177
38.146454 -5.922813 -25.86218
39.227322 -10.826712 -27.240983
39.271116 -12.022358 -27.027282
39.170349 -9.681202 -27.367935
39.227322 -10.826712 -27.240983
39.284348 -9.961574 -28.219617
39.047911 -8.507786 -27.508301
39.170349 -9.681202 -27.367935
39.100815 -7.582495 -28.526438
38.921351 -7.274218 -27.68817
39.047911 -8.507786 -27.508301
39.998342 -8.843206 -36.050053
39.981318 -7.387405 -36.365425
39.906414 -8.178451 -35.324379
38.762108 -19.954116 -23.52494
38.614558 -21.08129 -23.180292
38.853632 -19.092627 -24.553227
38.895498 -18.757661 -23.825401
38.762108 -19.954116 -23.52494
38.857565 -20.670269 -27.750784
38.682577 -21.382727 -26.748933
39.012585 -19.321322 -28.27536
38.857565 -20.670269 -27.750784
39.160513 -17.96957 -28.749558
39.010798 -18.693198 -27.711013
39.012585 -19.321322 -28.27536
39.28413 -16.514628 -29.19827
39.160513 -17.96957 -28.749558
39.285917 -17.142752 -29.762617
39.688698 -15.040488 -32.72435
39.544353 -15.751853 -31.698942
39.754667 -13.456416 -33.167515
39.688698 -15.040488 -32.72435
39.801593 -12.032681 -33.473039
39.686574 -12.888263 -32.460966
39.754667 -13.456416 -33.167515
39.896563 -11.117543 -34.594297
39.82847 -10.54939 -33.887749
39.801593 -12.032681 -33.473039
39.994578 -10.344374 -35.597563
39.896563 -11.117543 -34.594297
39.998342 -8.843206 -36.050053
39.994578 -10.344374 -35.597563
20.096637 11.851869 -21.101108
20.137263 12.545208 -21.99856
20.729363 11.018605 -21.075141
20.096637 11.851869 -21.101108
21.407304 10.297266 -21.116872
21.415439 11.03003 -22.004341
20.729363 11.018605 -21.075141
21.405591 9.521384 -20.197652
21.403914 8.794165 -19.290684
22.091667 9.532809 -21.126852
21.407304 10.297266 -21.116872
21.405591 9.521384 -20.197652
23.527209 8.133475 -21.18591
22.816125 8.874799 -21.202476
22.801038 8.015604 -20.191065
24.309209 8.293944 -22.206925
23.527209 8.133475 -21.18591
20.196868 14.094488 -23.835823
20.192857 13.33621 -22.974441
20.167458 14.930356 -24.705761
20.196868 14.094488 -23.835823
20.819277 14.169242 -24.784309
20.104214 15.754624 -25.485188
19.481804 15.679869 -24.536703
20.167458 14.930356 -24.705761
19.977429 17.56027 -27.155193
19.356989 17.411062 -26.135343
20.039001 16.653345 -26.33598
19.899487 18.497377 -28.000063
19.977429 17.56027 -27.155193
20.581499 17.73966 -28.2007
19.838347 19.468733 -28.852163
19.899487 18.497377 -28.000063
20.43347 19.736777 -30.01717
19.76826 20.528742 -29.823763
19.838347 19.468733 -28.852163
23.989559 22.346126 -37.567203
23.225119 22.892013 -37.262439
23.462443 21.887655 -36.306576
25.917172 8.754593 -24.313265
25.135867 8.458967 -23.237572
26.041041 9.685917 -25.439133
25.917172 8.754593 -24.313265
26.038525 10.622128 -26.467883
25.193095 10.258926 -25.287364
26.041041 9.685917 -25.439133
27.664608 10.464978 -27.766243
28.386964 9.861928 -27.759906
26.810696 10.986811 -27.574818
27.664608 10.464978 -27.766243
27.588833 11.40267 -28.721409
25.96275 11.559821 -27.423049
26.038525 10.622128 -26.467883
26.810696 10.986811 -27.574818
27.454415 14.409496 -31.933656
27.497092 13.400429 -30.837859
26.636156 14.991081 -31.828257
27.454415 14.409496 -31.933656
25.846826 15.619376 -31.77823
25.922581 14.57472 -30.683728
26.636156 14.991081 -31.828257
25.74409 16.548218 -32.696568
25.030515 16.131856 -31.552038
25.846826 15.619376 -31.77823
25.598022 17.563112 -33.714241
25.74409 16.548218 -32.696568
25.481955 18.610374 -34.769699
24.811712 18.10796 -33.525833
25.598022 17.563112 -33.714241
25.294619 19.65175 -35.814977
25.481955 18.610374 -34.769699
25.060238 20.745023 -36.830002
24.461264 20.248495 -35.596316
25.294619 19.65175 -35.814977
24.834667 21.816985 -37.931334
25.060238 20.745023 -36.830002
23.989559 22.346126 -37.567203
24.834667 21.816985 -37.931334
36.658592 -1.865523 -25.930566
37.118817 -2.833689 -25.935671
36.716556 -0.808661 -27.043819
36.214489 -0.912104 -25.933267
36.658592 -1.865523 -25.930566
36.750702 2.380448 -30.213261
36.747777 1.364285 -29.205926
37.229261 1.3905 -30.230699
36.291853 3.395248 -30.278839
36.750702 2.380448 -30.213261
38.863003 -2.242857 -31.86795
38.833097 -3.208997 -30.856172
39.090425 -3.441229 -31.773604
38.634622 -0.935977 -32.099233
38.863003 -2.242857 -31.86795
38.319054 -0.827936 -31.128082
38.634622 -0.935977 -32.099233
3 81 23 82
3 83 82 21
3 81 82 83
3 85 84 24
3 86 26 87
3 86 87 88
3 1 29 27
3 1 31 29
3 2 35 33
3 2 37 35
3 90 89 38
3 0 42 40
3 4 91 93
3 91 43 92
3 91 92 93
3 4 44 43
3 5 94 95
3 6 96 98
3 96 45 97
3 96 97 98
3 6 46 45
3 7 49 47
3 9 50 22
3 9 51 50
3 10 99 101
3 101 100 52
3 99 100 101
3 102 53 103
3 11 54 25
3 11 55 54
3 13 104 106
3 104 56 105
3 104 105 106
3 13 107 109
3 109 108 56
3 107 108 109
3 3 110 112
3 110 57 111
3 110 111 112
3 113 58 114
3 115 59 116
3 117 116 58
3 115 116 117
3 15 60 28
3 15 61 60
3 15 62 61
3 16 63 30
3 16 64 63
3 12 118 120
3 118 65 119
3 118 119 120
3 17 66 32
3 17 67 66
3 121 68 122
3 123 69 124
3 125 124 68
3 123 124 125
3 126 70 127
3 130 129 70
3 128 129 130
3 18 131 132
3 18 133 134
3 8 71 48
3 19 72 34
3 19 73 72
3 19 74 73
3 20 75 36
3 20 76 75
3 135 77 136
3 137 136 39
3 135 136 137
3 138 78 139
3 140 139 77
3 138 139 140
3 14 141 143
3 141 79 142
3 141 142 143
3 144 80 145
3 146 145 41
3 144 145 146
3 148 147 80
3 149 4 150
3 152 151 5
3 153 6 154
3 21 22 7
3 23 22 21
3 23 9 22
3 24 155 157
3 157 156 10
3 155 156 157
3 159 158 24
3 160 25 161
3 26 162 164
3 162 25 163
3 162 163 164
3 26 11 25
3 165 13 166
3 168 167 3
3 27 169 171
3 169 28 170
3 169 170 171
3 29 28 27
3 29 15 28
3 29 30 15
3 31 30 29
3 31 16 30
3 172 32 173
3 174 173 12
3 172 173 174
3 175 32 176
3 177 17 178
3 179 178 32
3 177 178 179
3 180 18 181
3 180 181 182
3 33 34 8
3 35 34 33
3 35 19 34
3 35 36 19
3 37 36 35
3 37 20 36
3 38 183 185
3 183 39 184
3 183 184 185
3 186 39 187
3 188 187 38
3 186 187 188
3 190 189 39
3 40 41 14
3 42 41 40
3 42 191 193
3 193 192 41
3 191 192 193
3 194 3 195
3 43 196 197
3 43 198 200
3 198 3 199
3 198 199 200
3 43 201 203
3 203 202 3
3 201 202 203
3 44 204 206
3 206 205 43
3 204 205 206
3 44 207 208
3 210 209 5
3 45 211 212
3 45 213 214
3 45 215 217
3 215 27 216
3 215 216 217
3 46 27 45
3 46 1 27
3 47 218 220
3 218 48 219
3 218 219 220
3 49 48 47
3 49 8 48
3 22 49 7
3 50 49 22
3 50 8 49
3 50 33 8
3 51 33 50
3 51 2 33
3 52 221 223
3 223 222 0
3 221 222 223
3 225 224 52
3 227 226 10
3 53 228 229
3 53 230 232
3 230 5 231
3 230 231 232
3 25 233 235
3 233 53 234
3 233 234 235
3 54 53 25
3 54 5 53
3 54 236 238
3 238 237 5
3 236 237 238
3 55 239 241
3 241 240 54
3 239 240 241
3 55 242 243
3 244 12 245
3 246 12 247
3 249 248 12
3 56 250 251
3 56 252 253
3 56 254 256
3 254 38 255
3 254 255 256
3 257 38 258
3 259 258 56
3 257 258 259
3 261 260 38
3 57 262 263
3 57 264 266
3 264 13 265
3 264 265 266
3 267 57 268
3 269 268 3
3 267 268 269
3 270 57 271
3 272 13 273
3 274 273 57
3 272 273 274
3 276 275 13
3 277 14 278
3 58 279 280
3 58 281 283
3 281 14 282
3 281 282 283
3 58 40 14
3 59 40 58
3 59 0 40
3 28 284 285
3 60 286 288
3 288 287 28
3 286 287 288
3 60 289 290
3 60 291 293
3 291 59 292
3 291 292 293
3 61 59 60
3 61 0 59
3 61 52 0
3 62 52 61
3 62 10 52
3 30 62 15
3 63 62 30
3 63 10 62
3 63 24 10
3 64 24 63
3 64 294 296
3 296 295 24
3 294 295 296
3 65 297 298
3 65 299 301
3 299 6 300
3 299 300 301
3 32 65 12
3 66 65 32
3 66 6 65
3 66 46 6
3 67 46 66
3 67 1 46
3 302 17 303
3 304 17 305
3 306 67 307
3 308 307 17
3 306 307 308
3 68 309 311
3 309 67 310
3 309 310 311
3 68 1 67
3 68 31 1
3 69 31 68
3 69 16 31
3 312 69 313
3 314 69 315
3 316 16 317
3 318 317 69
3 316 317 318
3 319 64 320
3 321 320 16
3 319 320 321
3 322 64 323
3 325 324 64
3 326 47 327
3 328 47 329
3 330 7 331
3 332 331 47
3 330 331 332
3 70 333 334
3 70 335 337
3 335 7 336
3 335 336 337
3 70 21 7
3 338 21 339
3 340 339 70
3 338 339 340
3 342 341 21
3 48 343 344
3 71 345 347
3 347 346 48
3 345 346 347
3 71 348 350
3 348 18 349
3 348 349 350
3 34 71 8
3 72 71 34
3 72 18 71
3 72 351 353
3 353 352 18
3 351 352 353
3 73 354 356
3 356 355 72
3 354 355 356
3 73 357 358
3 73 359 361
3 359 26 360
3 359 360 361
3 74 26 73
3 74 11 26
3 36 74 19
3 75 74 36
3 75 11 74
3 75 55 11
3 76 55 75
3 76 362 364
3 364 363 55
3 362 363 364
3 365 23 366
3 367 23 368
3 369 9 370
3 371 370 23
3 369 370 371
3 39 372 373
3 77 374 376
3 376 375 39
3 374 375 376
3 77 377 379
3 377 9 378
3 377 378 379
3 77 51 9
3 78 51 77
3 78 2 51
3 380 78 381
3 382 78 383
3 384 2 385
3 386 385 78
3 384 385 386
3 387 37 388
3 389 388 2
3 387 388 389
3 390 37 391
3 392 20 393
3 394 393 37
3 392 393 394
3 395 20 396
3 397 76 398
3 399 398 20
3 397 398 399
3 400 76 401
3 403 402 76
3 79 404 405
3 79 406 408
3 406 4 407
3 406 407 408
3 41 79 14
3 80 79 41
3 80 4 79
3 80 44 4
3 409 44 410
3 411 410 80
3 409 410 411
3 413 412 44
3 414 42 415
3 416 415 0
3 414 415 416
3 417 42 418
3 420 419 42
