ply
format ascii 1.0
element vertex 202
property float x
property float y
property float z
element face 164
property list uchar int vertex_index
end_header
-24.680716 -94.317986 3.511598
-25.192341 -75.358421 -1.152298
-26.461424 -90.088371 -2.653966
-26.311277 -84.88755 -3.782234
-24.487024 -69.954086 -2.694212
-22.380814 -97.361916 3.798123
-25.893723 -80.360764 0.30563
-26.264339 -90.306763 0.030295
-26.407736 -87.88028 -0.50786
-26.480066 -87.345795 -3.140842
-26.328568 -85.149673 -0.920218
-24.138882 -69.514717 -5.066866
-23.696394 -96.031784 3.512689
-24.452297 -96.329994 0.952235
-25.11735 -73.020309 0.54602
-25.425175 -73.470406 3.221106
-25.450516 -75.598412 1.534515
-25.770113 -78.302391 2.400026
-25.568666 -77.806114 -0.273203
-25.732471 -79.858711 -2.213901
-25.322384 -77.371239 -3.022276
-25.465246 -92.385941 3.151803
-25.296185 -94.518723 0.762825
-25.899761 -92.423988 0.565724
-26.220503 -92.482155 -2.280395
-26.551643 -89.681458 -5.419557
-26.464832 -87.134331 -5.987218
-24.816957 -72.566353 -1.762675
-24.862209 -74.608162 -3.615596
-24.468746 -72.072403 -4.304205
-26.150696 -82.948105 1.268945
-26.099752 -82.632095 -1.588946
-26.346778 -86.734501 0.592739
-26.322533 -87.870942 0.897379
-26.307194 -85.369198 0.38656
-26.368152 -86.514977 -0.714039
-26.346778 -86.734501 0.592739
-25.939369 -91.29552 1.669836
-25.682504 -92.404965 1.858764
-25.722112 -91.276497 2.962875
-26.448117 -91.12754 -3.859095
-26.327656 -92.324433 -3.672309
-26.340964 -91.285263 -2.46718
-26.506533 -89.884915 -4.036761
-26.493226 -90.924084 -5.24189
-26.448117 -91.12754 -3.859095
-26.257197 -84.682556 -5.070491
-26.333975 -85.805947 -6.172983
-26.388055 -86.010941 -4.884726
-24.671923 -70.183975 -1.42358
-24.57251 -69.025181 -1.868156
-24.651991 -71.26022 -2.228444
-24.836889 -71.490109 -0.957812
-24.671923 -70.183975 -1.42358
-24.139104 -70.569611 -5.901413
-23.960688 -69.230396 -6.260423
-22.136932 -98.391228 2.340256
-21.655361 -97.948017 3.682983
-25.149526 -95.620339 -0.549895
-25.533812 -94.542732 -0.623282
-25.557676 -73.590481 4.597419
-25.550404 -74.694657 3.686909
-25.945615 -80.584721 1.665619
-25.88381 -79.555534 2.712817
-25.831918 -79.331578 1.352828
-26.02221 -81.654435 0.787288
-26.074101 -81.878391 2.147277
-25.945615 -80.584721 1.665619
-25.854456 -81.015339 -3.203215
-25.640886 -79.71352 -3.532024
-24.960712 -75.719219 -4.471969
-24.727253 -74.498795 -4.844374
-26.250835 -89.084183 1.166457
-26.121658 -90.236908 1.402121
-26.336037 -89.093522 -0.238782
-26.250835 -89.084183 1.166457
-26.322533 -87.870942 0.897379
-24.391869 -68.721187 -3.019239
-24.57251 -69.025181 -1.868156
-24.477355 -67.792282 -2.193182
-24.217797 -68.501503 -4.205566
-24.312953 -69.734402 -3.880539
-24.391869 -68.721187 -3.019239
-24.036988 -68.256932 -5.364724
-24.217797 -68.501503 -4.205566
-23.858795 -67.972611 -6.558281
-23.960688 -69.230396 -6.260423
-24.036988 -68.256932 -5.364724
-23.486295 -97.02185 2.282726
-22.828505 -97.686916 2.425443
-23.038604 -96.69685 3.655406
-23.864247 -97.170955 1.002499
-23.486295 -97.02185 2.282726
-24.074345 -96.180889 2.232462
-24.231433 -97.395252 -0.354999
-23.864247 -97.170955 1.002499
-25.271262 -73.245357 1.883563
-25.315485 -72.243381 2.797416
-25.161572 -72.018333 1.459874
-25.563075 -75.758659 2.843614
-25.550404 -74.694657 3.686909
-25.437846 -74.534409 2.37781
-25.610315 -76.950401 1.967271
-25.722873 -77.110649 3.276369
-25.563075 -75.758659 2.843614
-25.435842 -78.469784 -3.936212
-25.640886 -79.71352 -3.532024
-25.527428 -78.614975 -2.618088
-25.8356 -93.495365 -0.721833
-25.533812 -94.542732 -0.623282
-25.597973 -93.471355 0.664274
-26.08205 -91.365375 0.298009
-25.939369 -91.29552 1.669836
-26.121658 -90.236908 1.402121
-25.995971 -93.524449 -2.144892
-25.8356 -93.495365 -0.721833
-26.060132 -92.453071 -0.857336
-26.146963 -93.538338 -3.526767
-25.995971 -93.524449 -2.144892
-26.146963 -93.538338 -3.526767
-26.327656 -92.324433 -3.672309
-26.524566 -90.798069 -6.693164
-26.493226 -90.924084 -5.24189
-26.533437 -89.511757 -6.807391
-26.524566 -90.798069 -6.693164
-26.490032 -88.238193 -7.091222
-26.533437 -89.511757 -6.807391
-26.508237 -88.407894 -5.703387
-26.398687 -86.894322 -7.304627
-26.490032 -88.238193 -7.091222
-26.398687 -86.894322 -7.304627
-26.333975 -85.805947 -6.172983
-24.987085 -71.717086 0.196536
-25.161572 -72.018333 1.459874
-24.967153 -72.793331 -0.608328
-24.987085 -71.717086 0.196536
-24.836889 -71.490109 -0.957812
-24.530521 -73.230915 -5.188678
-24.727253 -74.498795 -4.844374
-24.665478 -73.340283 -3.9599
-24.304036 -71.848454 -5.520082
-24.303814 -70.79356 -4.685536
-24.139104 -70.569611 -5.901413
-24.530521 -73.230915 -5.188678
-24.304036 -71.848454 -5.520082
-21.859493 -97.00069 5.058941
-21.655361 -97.948017 3.682983
-22.608038 -96.356625 5.065241
-21.859493 -97.00069 5.058941
-23.265828 -95.691559 4.922524
-23.038604 -96.69685 3.655406
-22.608038 -96.356625 5.065241
-23.826292 -94.998734 4.825126
-23.265828 -95.691559 4.922524
-24.318453 -94.141835 4.82458
-24.188555 -95.174885 3.512144
-23.826292 -94.998734 4.825126
-24.788654 -93.259075 4.66604
-24.318453 -94.141835 4.82458
-25.18092 -92.293053 4.486142
-25.072981 -93.351964 3.331701
-24.788654 -93.259075 4.66604
-25.515703 -91.259408 4.308439
-25.18092 -92.293053 4.486142
-25.722112 -91.276497 2.962875
-25.515703 -91.259408 4.308439
-22.136932 -98.391228 2.340256
-22.828505 -97.686916 2.425443
-24.727582 -96.525974 -0.45519
-24.874241 -95.424358 0.85753
-25.149526 -95.620339 -0.549895
-24.231433 -97.395252 -0.354999
-24.727582 -96.525974 -0.45519
-25.479328 -72.382614 4.145513
-25.315485 -72.243381 2.797416
-25.479328 -72.382614 4.145513
-25.557676 -73.590481 4.597419
-25.829399 -78.397732 3.718465
-25.722873 -77.110649 3.276369
-25.829399 -78.397732 3.718465
-25.88381 -79.555534 2.712817
-26.144515 -83.129944 2.605476
-26.074101 -81.878391 2.147277
-26.218258 -84.268414 1.481142
-26.144515 -83.129944 2.605476
-26.239632 -84.048889 0.174364
-26.307194 -85.369198 0.38656
-26.218258 -84.268414 1.481142
-26.038097 -82.402031 -2.890737
-25.916111 -81.245403 -1.901423
-25.854456 -81.015339 -3.203215
-26.143859 -83.529758 -3.987381
-26.205514 -83.759823 -2.68559
-26.038097 -82.402031 -2.890737
-26.257197 -84.682556 -5.070491
-26.143859 -83.529758 -3.987381
-25.190799 -77.100758 -4.175308
-25.092296 -75.9897 -3.318936
-24.960712 -75.719219 -4.471969
-25.304257 -78.199303 -5.089244
-25.435842 -78.469784 -3.936212
-25.190799 -77.100758 -4.175308
3 32 8 33
3 34 10 35
3 36 35 8
3 34 35 36
3 0 13 12
3 1 16 14
3 1 18 16
3 1 20 18
3 37 23 38
3 39 38 21
3 37 38 39
3 2 24 7
3 2 40 42
3 42 41 24
3 40 41 42
3 2 43 45
3 43 25 44
3 43 44 45
3 3 26 9
3 3 46 48
3 48 47 26
3 46 47 48
3 4 49 50
3 4 51 53
3 51 27 52
3 51 52 53
3 4 29 27
3 55 54 11
3 5 56 57
3 59 58 22
3 61 60 15
3 6 62 64
3 64 63 17
3 62 63 64
3 6 65 67
3 65 30 66
3 65 66 67
3 6 31 30
3 69 68 19
3 71 70 28
3 72 7 73
3 8 74 76
3 74 7 75
3 74 75 76
3 8 2 7
3 8 9 2
3 10 9 8
3 10 3 9
3 77 4 78
3 77 78 79
3 80 11 81
3 82 81 4
3 80 81 82
3 83 11 84
3 87 86 11
3 85 86 87
3 12 88 90
3 90 89 5
3 88 89 90
3 13 91 93
3 93 92 12
3 91 92 93
3 13 94 95
3 14 96 98
3 96 15 97
3 96 97 98
3 16 15 14
3 16 99 101
3 101 100 15
3 99 100 101
3 16 102 104
3 102 17 103
3 102 103 104
3 18 17 16
3 18 6 17
3 18 19 6
3 20 19 18
3 20 105 107
3 107 106 19
3 105 106 107
3 21 22 0
3 23 22 21
3 23 108 110
3 110 109 22
3 108 109 110
3 7 111 113
3 111 23 112
3 111 112 113
3 24 23 7
3 24 114 116
3 116 115 23
3 114 115 116
3 24 117 118
3 120 119 24
3 25 121 122
3 25 123 124
3 9 25 2
3 26 25 9
3 26 125 127
3 127 126 25
3 125 126 127
3 26 128 129
3 131 130 26
3 132 14 133
3 27 134 136
3 134 14 135
3 134 135 136
3 27 1 14
3 27 28 1
3 29 28 27
3 29 137 139
3 139 138 28
3 137 138 139
3 11 29 4
3 140 29 141
3 142 141 11
3 140 141 142
3 144 143 29
3 145 5 146
3 147 5 148
3 149 12 150
3 151 150 5
3 149 150 151
3 152 12 153
3 154 0 155
3 156 155 12
3 154 155 156
3 157 0 158
3 159 21 160
3 161 160 0
3 159 160 161
3 162 21 163
3 165 164 21
3 167 166 5
3 22 13 0
3 168 13 169
3 170 169 22
3 168 169 170
3 172 171 13
3 15 173 174
3 176 175 15
3 17 177 178
3 180 179 17
3 30 181 182
3 30 183 184
3 30 185 187
3 185 10 186
3 185 186 187
3 31 10 30
3 31 3 10
3 19 31 6
3 188 31 189
3 190 189 19
3 188 189 190
3 191 3 192
3 193 192 31
3 191 192 193
3 195 194 3
3 28 20 1
3 196 20 197
3 198 197 28
3 196 197 198
3 201 200 20
3 199 200 201
