ply
format ascii 1.0
element vertex 198
property float x
property float y
property float z
element face 185
property list uchar int vertex_index
end_header
25.885391 12.901059 -70.331955
19.218931 23.310106 -72.269218
17.200987 12.291487 -72.650742
22.542471 18.77574 -71.88781
18.293835 18.186838 -73.109123
21.403652 13.221372 -72.132568
20.324045 7.077155 -71.174805
24.37088 7.073595 -70.170547
15.732861 26.872883 -71.493164
26.940033 18.080448 -69.445061
14.843111 22.177109 -73.008018
29.768728 12.012524 -67.697067
11.846415 27.431023 -70.758453
24.217447 15.891437 -71.25914
22.116257 16.039993 -72.122536
23.643719 13.232411 -71.392044
22.943487 10.353755 -71.266449
25.108635 10.102015 -70.419189
17.401596 25.209332 -72.052246
15.163807 24.641239 -72.421852
16.943966 22.896322 -72.802017
17.706259 15.273244 -73.035255
16.07946 17.664856 -73.290001
16.61862 9.472047 -72.062286
19.712488 4.08278 -70.414299
20.931973 20.99007 -72.235733
18.692289 20.966219 -72.863876
20.370443 18.505741 -72.659012
19.890051 15.681136 -72.733261
19.264727 12.785802 -72.525658
18.859592 9.892452 -72.038788
20.890469 10.090434 -71.75795
22.346956 7.179839 -70.796684
13.894685 28.234507 -70.684509
17.925014 27.342192 -70.909714
19.677979 25.5063 -71.343193
21.445377 23.458736 -71.435089
23.047222 21.228451 -71.287651
24.667879 18.631979 -70.854576
26.321981 15.765289 -70.104721
13.564878 26.313061 -71.6707
13.103064 23.788528 -72.47612
16.593758 20.325466 -73.208191
18.178402 6.866772 -71.338684
28.411558 15.165916 -68.65892
27.933945 12.350042 -69.080772
29.105152 9.121027 -68.089653
27.224487 9.583654 -69.312004
26.492895 6.721782 -69.242821
12.124288 28.450603 -70.171341
11.157593 27.992128 -70.179962
16.369492 13.479643 -72.844765
16.622128 14.970522 -73.037022
17.453623 13.782366 -72.842998
16.17846 11.973615 -72.5811
16.369492 13.479643 -72.844765
16.909804 10.881767 -72.356514
15.887277 10.563894 -72.286873
16.17846 11.973615 -72.5811
24.033785 5.616144 -69.929596
23.021823 5.669266 -70.242664
23.358918 7.126717 -70.483615
18.963636 27.44995 -70.484527
18.078528 28.263218 -70.198109
19.840119 26.532004 -70.701267
18.801496 26.424246 -71.126453
18.963636 27.44995 -70.484527
22.530037 23.334854 -70.90921
21.632829 24.497011 -70.908562
23.330959 22.219712 -70.835491
22.246299 22.343593 -71.36137
22.530037 23.334854 -70.90921
25.803956 18.356214 -70.149818
24.961518 19.729942 -70.464389
26.097595 19.454176 -69.759632
13.799585 21.732619 -72.940678
12.929562 22.538329 -72.674729
13.973088 22.982819 -72.742069
15.222155 18.680794 -73.258431
15.026421 17.208783 -73.215271
18.679108 3.802538 -70.381115
19.357651 2.525411 -69.938511
29.090143 13.58922 -68.177993
29.400386 14.753037 -67.823135
30.078972 13.176341 -67.342208
28.828857 7.625125 -68.074341
29.735234 7.479857 -67.44878
27.888524 7.856439 -68.685517
28.16482 9.352341 -68.700829
28.828857 7.625125 -68.074341
27.522728 6.425503 -68.650925
26.858691 8.152718 -69.277412
27.888524 7.856439 -68.685517
10.849715 26.959115 -70.608177
11.157593 27.992128 -70.179962
11.666835 26.304312 -71.203002
10.849715 26.959115 -70.608177
27.113667 19.262144 -69.020489
26.097595 19.454176 -69.759632
15.808729 16.166328 -73.164395
16.89286 16.46905 -73.162628
16.622128 14.970522 -73.037022
15.026421 17.208783 -73.215271
15.808729 16.166328 -73.164395
15.612927 9.009805 -71.891514
15.887277 10.563894 -72.286873
16.389339 7.79626 -71.600163
15.612927 9.009805 -71.891514
20.700762 4.218228 -70.311813
20.018267 5.579968 -70.794552
21.006541 5.715416 -70.692067
20.348158 2.748377 -69.924667
20.700762 4.218228 -70.311813
19.357651 2.525411 -69.938511
20.348158 2.748377 -69.924667
30.697536 11.513362 -66.842865
30.078972 13.176341 -67.342208
22.017996 5.766758 -70.503006
21.006541 5.715416 -70.692067
21.335501 7.128497 -70.985745
22.017996 5.766758 -70.503006
23.021823 5.669266 -70.242664
14.20689 29.152023 -70.007416
13.148423 28.852345 -70.134369
14.999234 28.516117 -70.477486
14.20689 29.152023 -70.007416
15.918322 27.835304 -70.881813
14.813773 27.553695 -71.088836
14.999234 28.516117 -70.477486
17.014398 28.069959 -70.590088
17.167912 28.990985 -69.878483
18.078528 28.263218 -70.198109
16.828938 27.107537 -71.201439
15.918322 27.835304 -70.881813
17.014398 28.069959 -70.590088
20.74913 25.520793 -70.862614
19.840119 26.532004 -70.701267
20.561678 24.482518 -71.389141
20.74913 25.520793 -70.862614
21.632829 24.497011 -70.908562
24.15119 21.028177 -70.680927
23.330959 22.219712 -70.835491
23.857551 19.930215 -71.071113
24.15119 21.028177 -70.680927
24.961518 19.729942 -70.464389
12.87055 27.832765 -70.721481
12.124288 28.450603 -70.171341
13.148423 28.852345 -70.134369
12.526066 25.745331 -71.659126
11.666835 26.304312 -71.203002
12.705647 26.872042 -71.214576
12.295159 24.483064 -72.061836
12.526066 25.745331 -71.659126
13.333971 25.050795 -72.07341
12.071155 23.285383 -72.322319
12.295159 24.483064 -72.061836
12.071155 23.285383 -72.322319
12.929562 22.538329 -72.674729
15.479304 20.011099 -73.217525
16.336609 18.995161 -73.249096
15.222155 18.680794 -73.258431
14.60398 20.93692 -73.117439
15.718435 21.251288 -73.108104
15.479304 20.011099 -73.217525
13.799585 21.732619 -72.940678
14.60398 20.93692 -73.117439
17.16923 6.493623 -71.238361
16.389339 7.79626 -71.600163
17.398511 8.16941 -71.700485
17.912065 5.194534 -70.843308
18.945445 5.474776 -70.876492
18.679108 3.802538 -70.381115
17.16923 6.493623 -71.238361
17.912065 5.194534 -70.843308
27.951461 17.816762 -68.6391
27.113667 19.262144 -69.020489
28.687224 16.359496 -68.246029
29.400386 14.753037 -67.823135
27.675795 16.623182 -69.05199
27.951461 17.816762 -68.6391
28.687224 16.359496 -68.246029
30.41444 10.218001 -67.097698
30.697536 11.513362 -66.842865
31.343247 9.718839 -66.243496
30.082652 8.772253 -67.293991
29.735234 7.479857 -67.44878
29.43694 10.566776 -67.89336
30.41444 10.218001 -67.097698
30.082652 8.772253 -67.293991
27.05292 4.980406 -68.615857
27.522728 6.425503 -68.650925
26.050621 5.345654 -69.130371
27.05292 4.980406 -68.615857
24.989613 5.52156 -69.594234
25.431888 6.897689 -69.706684
26.050621 5.345654 -69.130371
24.033785 5.616144 -69.929596
24.989613 5.52156 -69.594234
3 49 12 50
3 0 15 13
3 0 17 15
3 1 20 18
3 2 51 53
3 53 52 21
3 51 52 53
3 2 54 55
3 2 56 58
3 56 23 57
3 56 57 58
3 3 27 25
3 5 28 14
3 5 29 28
3 5 31 29
3 7 32 16
3 7 59 61
3 61 60 32
3 59 60 61
3 62 34 63
3 64 35 65
3 66 65 34
3 64 65 66
3 67 36 68
3 69 37 70
3 71 70 36
3 69 70 71
3 9 72 74
3 72 38 73
3 72 73 74
3 9 39 38
3 8 40 33
3 10 41 19
3 10 75 77
3 77 76 41
3 75 76 77
3 4 42 26
3 79 78 22
3 6 43 30
3 81 80 24
3 11 82 84
3 82 44 83
3 82 83 84
3 11 45 44
3 85 46 86
3 87 47 88
3 89 88 46
3 87 88 89
3 90 48 91
3 92 91 47
3 90 91 92
3 12 93 94
3 12 95 96
3 13 14 3
3 15 14 13
3 15 5 14
3 15 16 5
3 17 16 15
3 17 7 16
3 97 9 98
3 18 19 8
3 20 19 18
3 20 10 19
3 21 22 4
3 99 22 100
3 101 100 21
3 99 100 101
3 103 102 22
3 23 104 105
3 23 106 107
3 108 24 109
3 110 109 6
3 108 109 110
3 111 24 112
3 114 113 24
3 115 11 116
3 25 26 1
3 27 26 25
3 27 4 26
3 14 27 3
3 28 27 14
3 28 4 27
3 28 21 4
3 29 21 28
3 29 2 21
3 29 30 2
3 31 30 29
3 31 6 30
3 16 31 5
3 32 31 16
3 32 6 31
3 32 117 119
3 119 118 6
3 117 118 119
3 121 120 32
3 122 33 123
3 124 33 125
3 126 8 127
3 128 127 33
3 126 127 128
3 34 129 131
3 129 130 131
3 34 132 134
3 132 8 133
3 132 133 134
3 34 18 8
3 35 18 34
3 35 1 18
3 135 35 136
3 36 137 139
3 137 35 138
3 137 138 139
3 36 1 35
3 36 25 1
3 37 25 36
3 37 3 25
3 140 37 141
3 38 142 144
3 142 37 143
3 142 143 144
3 38 3 37
3 38 13 3
3 39 13 38
3 39 0 13
3 33 145 147
3 145 12 146
3 145 146 147
3 40 12 33
3 40 148 150
3 150 149 12
3 148 149 150
3 19 40 8
3 41 40 19
3 41 151 153
3 153 152 40
3 151 152 153
3 41 154 155
3 157 156 41
3 26 20 1
3 42 20 26
3 42 10 20
3 22 42 4
3 158 42 159
3 160 159 22
3 158 159 160
3 161 10 162
3 163 162 42
3 161 162 163
3 165 164 10
3 30 23 2
3 43 23 30
3 43 166 168
3 168 167 23
3 166 167 168
3 24 43 6
3 169 43 170
3 171 170 24
3 169 170 171
3 173 172 43
3 174 9 175
3 44 176 177
3 44 178 180
3 178 9 179
3 178 179 180
3 44 39 9
3 45 39 44
3 45 0 39
3 181 11 182
3 181 182 183
3 46 184 185
3 46 186 188
3 186 11 187
3 186 187 188
3 46 45 11
3 47 45 46
3 47 0 45
3 47 17 0
3 48 17 47
3 48 7 17
3 189 48 190
3 191 48 192
3 193 7 194
3 195 194 48
3 193 194 195
3 197 196 7
