ply
format ascii 1.0
element vertex 295
property float x
property float y
property float z
element face 289
property list uchar int vertex_index
end_header
35.251774 74.728706 -29.485252
33.986862 77.297798 -3.607514
34.891945 78.149864 -17.150377
37.730816 56.991535 -31.88072
31.906696 90.640808 -18.394314
36.657757 66.092178 -30.737013
38.014523 60.375942 -26.90686
36.687061 69.010109 -25.347551
34.467392 78.351204 -10.585112
36.09425 71.548927 -13.021619
35.605537 71.166519 -6.558722
36.178795 62.327629 -35.637371
33.677296 82.797043 -27.553072
35.20657 76.87793 -23.473619
33.604973 84.124329 -21.292713
33.304699 84.646027 -14.40182
32.926422 84.017014 -7.198544
36.515285 70.676376 -19.415249
33.461067 75.197563 3.536027
36.937683 52.896965 -36.164242
35.98859 70.364426 -30.241577
36.744541 67.438286 -28.197266
36.032642 71.723618 -27.423742
34.225994 78.022629 -7.15813
34.998035 74.998993 -8.448271
34.777664 74.354836 -5.135904
35.328487 70.546402 -3.172059
34.502705 73.703392 -1.824459
34.508133 77.079956 -31.546761
35.182793 73.091354 -32.31126
35.860332 68.717712 -32.906887
32.858891 86.352684 -26.534008
33.652386 83.651932 -24.466658
32.831413 87.102814 -23.143023
32.642452 87.72699 -16.465326
32.510002 87.56456 -12.73467
33.096695 84.549156 -10.716907
32.307915 87.420204 -9.251736
38.118553 52.598324 -32.232391
35.079475 77.589317 -20.325422
35.910515 73.657623 -21.533669
35.692108 74.595032 -18.485397
36.687927 67.943893 -11.017351
36.950058 67.681404 -14.246972
36.957729 59.846523 -33.8386
36.641998 57.445164 -35.928757
37.414169 55.164314 -34.056297
37.685104 50.711281 -34.404972
37.252731 61.46109 -31.396265
37.963135 58.623947 -29.369631
37.386333 63.090336 -28.881775
37.367191 64.879997 -26.134258
34.65992 78.539909 -13.948483
35.515148 74.864128 -15.097593
35.312035 74.84951 -11.733521
35.847164 71.543709 -9.736718
36.457474 67.646317 -7.7565
35.674328 66.62825 -35.293503
36.500786 64.280174 -33.22192
34.469872 78.879616 -28.709417
35.23978 76.041801 -26.611242
34.461525 79.910599 -25.738579
34.436264 80.480591 -22.52887
34.282665 81.144852 -19.357969
32.763779 87.517197 -19.810713
33.498737 84.420387 -17.987503
34.109486 81.456238 -15.903296
33.866589 81.679634 -12.388849
33.694511 81.315926 -9.07971
33.499916 80.586014 -5.41211
35.945286 73.081223 -24.66501
36.615986 70.045616 -22.4195
36.358719 71.071007 -16.31179
32.704193 83.408348 -3.647305
33.197815 80.081924 -1.806683
32.997044 78.864143 1.745546
33.721203 76.445557 -0.113533
34.171696 72.804245 1.848241
35.780922 59.815563 -37.750633
36.156891 55.028019 -37.821484
36.325054 50.438694 -37.937187
37.171982 48.440914 -36.148109
32.416416 88.40588 -24.207572
32.845152 86.727749 -24.838515
32.430155 88.030815 -25.903064
32.121302 88.919208 -12.018496
32.180724 89.03371 -13.779982
32.020258 88.847031 -10.277029
32.408958 87.492382 -10.993203
32.121302 88.919208 -12.018496
32.430155 88.030815 -25.903064
32.421002 87.574658 -27.5096
38.069013 55.593712 -30.914428
38.262882 53.397106 -31.090263
37.924684 54.794929 -32.056556
37.116861 65.99765 -11.632544
36.998888 65.972274 -10.016646
37.011555 67.508461 -24.326636
37.351619 65.443405 -24.719989
37.027126 66.945053 -25.740904
35.857383 69.341221 -5.474981
36.283352 67.58112 -6.073869
36.031505 69.406418 -7.157611
35.563929 68.754413 -2.194114
35.152153 70.28194 -1.499282
35.36417 68.878113 -35.048525
35.245981 67.904602 -36.125412
32.335237 89.079003 -19.102514
32.400898 88.817532 -20.771383
31.972357 90.379338 -20.063183
33.70805 81.978893 -29.082093
33.276411 83.949883 -28.649512
34.073584 80.83833 -28.131245
34.104338 80.02018 -29.660265
33.70805 81.978893 -29.082093
38.301071 58.009029 -27.211585
38.275378 57.133032 -28.442971
37.988829 59.499944 -28.138246
36.882528 68.779495 -19.935105
36.932879 68.464115 -21.43723
36.565635 70.360996 -20.917375
37.055736 67.463673 -15.908179
37.343939 65.773985 -14.789223
32.598297 82.930664 -1.826937
32.342492 84.644036 -2.800065
32.845108 81.267452 -0.906627
32.951004 81.745136 -2.726994
32.598297 82.930664 -1.826937
33.229056 77.030853 2.640786
32.864951 78.34542 3.471122
33.096962 76.51213 4.366362
35.979858 61.071596 -36.694002
35.551302 62.159475 -37.632631
35.750239 63.415508 -36.576
37.80829 48.483875 -34.400465
38.018337 49.615965 -33.522638
34.739262 71.860435 -0.825482
35.152153 70.28194 -1.499282
34.915596 72.124897 -2.498259
34.436493 76.278649 -32.875755
34.094046 78.284695 -32.448967
34.773823 74.284347 -33.258005
34.436493 76.278649 -32.875755
34.845463 75.085655 -31.92901
35.118403 72.109665 -33.557403
34.773823 74.284347 -33.258005
35.521563 70.904533 -32.609073
35.457172 69.922843 -33.855217
35.118403 72.109665 -33.557403
32.246949 89.114925 -15.64531
32.274574 89.183899 -17.42982
31.879071 90.571834 -16.609804
32.576227 87.645775 -14.599998
32.246949 89.114925 -15.64531
32.180724 89.03371 -13.779982
32.867209 85.727703 -28.13998
32.421002 87.574658 -27.5096
33.268093 84.574863 -27.04354
33.276411 83.949883 -28.649512
32.867209 85.727703 -28.13998
38.415701 51.263416 -31.387738
38.235062 50.559486 -32.436348
38.415701 51.263416 -31.387738
38.262882 53.397106 -31.090263
38.330282 58.71109 -26.012761
38.036776 60.930395 -25.522205
37.247926 65.866405 -13.247355
36.818993 67.812648 -12.632161
37.116861 65.99765 -11.632544
37.343939 65.773985 -14.789223
37.247926 65.866405 -13.247355
33.332348 74.593918 5.161883
33.096962 76.51213 4.366362
33.68383 73.323075 4.399859
33.332348 74.593918 5.161883
38.235062 50.559486 -32.436348
38.018337 49.615965 -33.522638
37.901829 51.654803 -33.318681
31.535791 91.853569 -19.313958
31.972357 90.379338 -20.063183
31.494452 91.974411 -17.496791
31.535791 91.853569 -19.313958
31.879071 90.571834 -16.609804
31.494452 91.974411 -17.496791
37.71311 63.182423 -25.135904
38.036776 60.930395 -25.522205
37.690857 62.62797 -26.520559
37.71311 63.182423 -25.135904
37.351619 65.443405 -24.719989
36.883662 65.823487 -8.386221
36.998888 65.972274 -10.016646
36.5727 67.795105 -9.386926
36.731825 65.809838 -6.822917
36.883662 65.823487 -8.386221
36.731825 65.809838 -6.822917
36.283352 67.58112 -6.073869
35.718858 69.031162 -3.781649
35.857383 69.341221 -5.474981
35.467012 70.85646 -4.865391
35.718858 69.031162 -3.781649
35.563929 68.754413 -2.194114
35.498005 65.565819 -36.404066
35.245981 67.904602 -36.125412
35.926562 64.477939 -35.465437
35.750239 63.415508 -36.576
35.498005 65.565819 -36.404066
35.76733 67.672981 -34.100195
35.36417 68.878113 -35.048525
35.457172 69.922843 -33.855217
32.434715 88.610341 -22.437537
32.416416 88.40588 -24.207572
32.797596 87.310005 -21.476868
32.434715 88.610341 -22.437537
32.400898 88.817532 -20.771383
34.123469 79.12035 -31.078937
34.094046 78.284695 -32.448967
34.489002 77.979786 -30.128089
34.123469 79.12035 -31.078937
34.104338 80.02018 -29.660265
38.185173 56.409918 -29.658883
38.069013 55.593712 -30.914428
37.846975 57.807741 -30.625175
38.185173 56.409918 -29.658883
38.275378 57.133032 -28.442971
38.301071 58.009029 -27.211585
38.330282 58.71109 -26.012761
36.976017 68.026214 -22.86261
37.011555 67.508461 -24.326636
36.651523 69.527862 -23.883525
36.976017 68.026214 -22.86261
36.932879 68.464115 -21.43723
36.760067 69.158474 -16.940588
36.654388 69.376205 -15.279381
37.055736 67.463673 -15.908179
36.83835 68.961159 -18.492318
36.437002 70.873692 -17.863519
36.760067 69.158474 -16.940588
36.882528 68.779495 -19.935105
36.83835 68.961159 -18.492318
31.917972 88.738369 -8.453255
32.020258 88.847031 -10.277029
32.214947 87.161441 -7.449177
31.917972 88.738369 -8.453255
32.524201 85.459846 -6.422581
32.617169 85.718609 -8.22514
32.214947 87.161441 -7.449177
32.413086 85.155514 -4.646962
32.342492 84.644036 -2.800065
32.815308 83.712681 -5.422924
32.524201 85.459846 -6.422581
32.413086 85.155514 -4.646962
32.635809 80.147377 2.597959
32.503715 79.628654 4.323535
32.864951 78.34542 3.471122
32.744723 80.658561 0.869488
32.635809 80.147377 2.597959
33.09743 79.473033 -0.030568
32.845108 81.267452 -0.906627
32.744723 80.658561 0.869488
34.573757 71.410862 1.010868
34.739262 71.860435 -0.825482
34.3372 73.253818 0.011891
34.039144 72.126416 3.555966
33.816381 74.000904 2.692134
33.68383 73.323075 4.399859
34.408644 70.933105 2.677433
34.039144 72.126416 3.555966
34.573757 71.410862 1.010868
34.408644 70.933105 2.677433
35.310791 60.879551 -38.648735
35.551302 62.159475 -37.632631
35.503067 58.512552 -38.666399
35.310791 60.879551 -38.648735
35.691052 56.11878 -38.701825
35.503067 58.512552 -38.666399
35.968907 57.421791 -37.786058
35.810413 53.704929 -38.694411
35.691052 56.11878 -38.701825
35.894495 51.410267 -38.752262
35.810413 53.704929 -38.694411
36.240972 52.733356 -37.879335
35.935068 48.794422 -38.706213
35.894495 51.410267 -38.752262
36.3805 48.044462 -37.872511
35.935068 48.794422 -38.706213
36.803964 47.045572 -36.977972
36.3805 48.044462 -37.872511
36.748518 49.439804 -37.042648
37.21566 46.221249 -36.130281
36.803964 47.045572 -36.977972
37.55173 47.348692 -35.272033
37.428543 49.576098 -35.27654
37.80829 48.483875 -34.400465
37.21566 46.221249 -36.130281
37.55173 47.348692 -35.272033
3 0 22 20
3 1 25 23
3 1 27 25
3 0 29 28
3 0 20 29
3 82 33 83
3 84 83 31
3 82 83 84
3 85 35 86
3 87 37 88
3 89 88 35
3 87 88 89
3 90 31 91
3 3 92 94
3 94 93 38
3 92 93 94
3 2 41 39
3 96 95 42
3 3 46 44
3 3 38 46
3 5 50 48
3 7 51 21
3 7 97 99
3 99 98 51
3 97 98 99
3 8 54 52
3 10 55 24
3 10 56 55
3 10 100 102
3 102 101 56
3 100 101 102
3 104 103 26
3 105 57 106
3 5 58 30
3 5 48 58
3 12 61 59
3 14 62 32
3 14 63 62
3 4 107 109
3 107 64 108
3 107 108 109
3 15 65 34
3 15 66 65
3 15 67 66
3 16 68 36
3 16 69 68
3 12 110 111
3 12 112 114
3 112 59 113
3 112 113 114
3 6 115 117
3 117 116 49
3 115 116 117
3 13 70 60
3 17 71 40
3 17 118 120
3 120 119 71
3 118 119 120
3 9 72 53
3 122 121 43
3 123 73 124
3 125 74 126
3 127 126 73
3 125 126 127
3 18 128 130
3 128 75 129
3 128 129 130
3 18 76 75
3 18 77 76
3 11 131 133
3 131 78 132
3 131 132 133
3 19 79 45
3 19 80 79
3 19 81 80
3 135 134 47
3 20 21 5
3 22 21 20
3 22 7 21
3 23 24 8
3 25 24 23
3 25 10 24
3 25 26 10
3 27 26 25
3 27 136 138
3 138 137 26
3 136 137 138
3 28 139 140
3 29 141 143
3 143 142 28
3 141 142 143
3 29 144 145
3 29 146 148
3 146 30 147
3 146 147 148
3 20 30 29
3 20 5 30
3 31 32 12
3 33 32 31
3 33 14 32
3 149 34 150
3 151 150 4
3 149 150 151
3 35 152 154
3 152 34 153
3 152 153 154
3 35 15 34
3 35 36 15
3 37 36 35
3 37 16 36
3 31 155 156
3 31 157 159
3 157 12 158
3 157 158 159
3 38 160 161
3 163 162 38
3 165 164 6
3 39 40 13
3 41 40 39
3 41 17 40
3 42 43 9
3 166 43 167
3 168 167 42
3 166 167 168
3 170 169 43
3 171 18 172
3 174 173 18
3 44 45 11
3 46 45 44
3 46 19 45
3 46 47 19
3 38 47 46
3 38 175 177
3 177 176 47
3 175 176 177
3 178 4 179
3 180 4 181
3 183 182 4
3 48 49 3
3 50 49 48
3 50 6 49
3 21 50 5
3 51 50 21
3 51 6 50
3 51 184 186
3 186 185 6
3 184 185 186
3 188 187 51
3 52 53 2
3 54 53 52
3 54 9 53
3 24 54 8
3 55 54 24
3 55 9 54
3 55 42 9
3 56 42 55
3 56 189 191
3 191 190 42
3 189 190 191
3 56 192 193
3 195 194 56
3 26 196 198
3 198 197 10
3 196 197 198
3 200 199 26
3 57 201 202
3 57 203 205
3 203 11 204
3 203 204 205
3 30 206 208
3 206 57 207
3 206 207 208
3 58 57 30
3 58 11 57
3 58 44 11
3 48 44 58
3 48 3 44
3 59 60 0
3 61 60 59
3 61 13 60
3 32 61 12
3 62 61 32
3 62 13 61
3 62 39 13
3 63 39 62
3 63 2 39
3 209 33 210
3 64 211 213
3 211 33 212
3 211 212 213
3 64 14 33
3 34 64 4
3 65 64 34
3 65 14 64
3 65 63 14
3 66 63 65
3 66 2 63
3 66 52 2
3 67 52 66
3 67 8 52
3 36 67 15
3 68 67 36
3 68 8 67
3 68 23 8
3 69 23 68
3 69 1 23
3 214 28 215
3 59 216 218
3 216 28 217
3 216 217 218
3 59 0 28
3 49 219 221
3 221 220 3
3 219 220 221
3 223 222 49
3 225 224 6
3 60 22 0
3 70 22 60
3 70 7 22
3 40 70 13
3 71 70 40
3 71 7 70
3 71 226 228
3 228 227 7
3 226 227 228
3 230 229 71
3 53 41 2
3 72 41 53
3 72 17 41
3 43 72 9
3 231 72 232
3 233 232 43
3 231 232 233
3 234 17 235
3 236 235 72
3 234 235 236
3 238 237 17
3 239 37 240
3 241 37 242
3 243 16 244
3 245 244 37
3 243 244 245
3 73 246 247
3 73 248 250
3 248 16 249
3 248 249 250
3 73 69 16
3 74 69 73
3 74 1 69
3 75 251 253
3 251 252 253
3 75 254 255
3 75 256 258
3 256 74 257
3 256 257 258
3 76 74 75
3 76 1 74
3 76 27 1
3 77 27 76
3 77 259 261
3 261 260 27
3 259 260 261
3 262 77 263
3 264 263 18
3 262 263 264
3 265 77 266
3 268 267 77
3 78 269 270
3 78 271 272
3 45 78 11
3 79 78 45
3 79 273 275
3 275 274 78
3 273 274 275
3 79 276 277
3 80 278 280
3 280 279 79
3 278 279 280
3 80 281 282
3 80 283 284
3 81 285 287
3 287 286 80
3 285 286 287
3 81 288 289
3 47 81 19
3 290 81 291
3 292 291 47
3 290 291 292
3 294 293 81
