ply
format ascii 1.0
element vertex 209
property float x
property float y
property float z
element face 209
property list uchar int vertex_index
end_header
0.444677 -7.06246 -56.196083
-2.873408 -8.296381 -60.364635
0.303506 -18.365683 -52.774372
-0.766425 -1.947405 -60.218426
-2.571131 -2.880743 -62.286884
-1.171281 -7.482529 -58.61541
0.55762 -24.648371 -50.906559
-1.489678 -19.40382 -54.623848
-4.647791 -4.043397 -63.830811
-5.003318 -9.456858 -61.766895
1.669844 -11.687292 -52.442436
1.748684 -17.30127 -50.84745
0.256323 -12.588025 -54.572708
-1.361066 -13.222135 -56.654175
-3.288549 -14.150818 -58.33934
0.583619 -4.28968 -57.012108
0.082975 -1.91109 -58.832207
-0.147483 -4.460351 -58.221821
-0.967914 -4.640103 -59.454624
-0.336235 -7.159232 -57.480095
-0.448227 -25.311844 -51.814434
-2.725143 -5.576911 -61.347202
-3.547963 -3.419249 -63.108742
-3.69354 -6.117154 -62.109001
-4.79875 -6.682404 -62.819904
-3.956782 -8.742924 -61.220646
1.177889 -20.8957 -50.935265
1.932117 -20.310045 -49.948269
1.027333 -17.698555 -51.895523
1.019333 -14.790228 -52.668514
0.254368 -15.323114 -53.718365
-0.567769 -12.820652 -55.740295
-0.529652 -15.943672 -54.63063
-2.465732 -19.961924 -55.371304
-2.409589 -16.640142 -56.535023
-3.487518 -17.255354 -57.261753
-4.38977 -14.511329 -59.103313
-1.656259 -2.40526 -61.332668
-1.852878 -5.151157 -60.478836
-1.996595 -7.951622 -59.513226
0.407917 -21.546257 -51.812611
-0.519716 -18.871481 -53.700672
-0.564704 -21.956118 -52.847744
-1.554357 -22.694452 -53.626385
-5.750908 -4.875681 -64.297531
-5.857636 -7.635052 -63.170193
-5.995003 -10.341696 -62.063797
1.023195 -9.522343 -54.289791
3.330577 -19.141735 -47.923927
2.652445 -19.713293 -48.919056
2.46703 -17.009069 -49.716976
1.695849 -14.509713 -51.605099
0.932048 -12.001531 -53.636917
0.289281 -9.714567 -55.497681
-0.463858 -10.016495 -56.598957
-1.281738 -10.206438 -57.697277
-2.08922 -10.792953 -58.469547
-1.437495 -16.255955 -55.648624
-2.284882 -13.682994 -57.541992
-3.104773 -11.131582 -59.41021
-4.158901 -11.654835 -60.140816
-5.194695 -12.20616 -60.696598
-3.555725 -18.867914 -56.694977
-2.976625 -18.608639 -56.316529
-3.044831 -20.221199 -55.749752
-4.082884 -17.442993 -57.635774
-3.555725 -18.867914 -56.694977
-0.65546 -0.721541 -60.517817
-0.23076 -0.703383 -59.824707
-0.341725 -1.929248 -59.525317
-1.109905 -0.79365 -61.17622
-0.65546 -0.721541 -60.517817
-1.211342 -2.176333 -60.775547
-1.554822 -1.022577 -61.733341
-1.109905 -0.79365 -61.17622
1.023555 -24.517455 -50.366272
1.105166 -26.072457 -49.993809
0.482768 -23.097314 -51.359585
0.948703 -22.966398 -50.819298
1.023555 -24.517455 -50.366272
-1.5686 -24.296639 -53.158968
-1.001292 -24.003148 -52.72041
-1.015535 -25.605334 -52.252992
-2.097665 -22.87263 -54.040295
-1.5686 -24.296639 -53.158968
-2.97211 -1.674055 -63.20619
-2.450245 -1.507171 -62.690827
-4.580535 -2.64747 -64.351281
-4.030622 -2.335396 -63.990246
-4.097877 -3.731323 -63.469776
-5.177324 -3.069483 -64.631863
-4.580535 -2.64747 -64.351281
-5.19935 -4.459539 -64.064171
-5.728883 -3.485626 -64.865223
-5.177324 -3.069483 -64.631863
1.699262 -10.405537 -52.807329
2.018064 -11.632302 -51.859375
1.34652 -10.604817 -53.366113
1.375938 -9.323063 -53.731006
1.699262 -10.405537 -52.807329
3.468216 -20.617088 -47.510919
3.820492 -20.268689 -47.013693
-5.363779 -13.562458 -60.213859
-4.792233 -13.358745 -59.899956
-4.961317 -14.715042 -59.417217
-5.71352 -12.342495 -60.971842
-5.363779 -13.562458 -60.213859
0.333297 -3.100385 -57.922157
0.465479 -1.769419 -58.209654
0.715801 -2.958714 -57.299605
0.645841 -26.371549 -50.44149
1.105166 -26.072457 -49.993809
0.142918 -26.703285 -50.895427
0.054697 -24.980108 -51.360496
0.645841 -26.371549 -50.44149
-0.381061 -27.113513 -51.304339
0.142918 -26.703285 -50.895427
-1.015535 -25.605334 -52.252992
-0.381061 -27.113513 -51.304339
2.013838 -12.91836 -51.501772
2.018064 -11.632302 -51.859375
1.555003 -20.602873 -50.441767
2.054178 -21.875774 -49.502863
1.677064 -22.168602 -49.996361
-4.534009 -16.07098 -58.556555
-3.938644 -15.883342 -58.182533
-4.082884 -17.442993 -57.635774
-4.961317 -14.715042 -59.417217
-4.534009 -16.07098 -58.556555
0.192252 -0.592335 -59.155568
0.465479 -1.769419 -58.209654
0.192252 -0.592335 -59.155568
-0.23076 -0.703383 -59.824707
-1.992809 -1.269429 -62.213718
-1.554822 -1.022577 -61.733341
-2.113695 -2.643002 -61.809776
-2.450245 -1.507171 -62.690827
-1.992809 -1.269429 -62.213718
1.333689 -22.64112 -50.380625
1.677064 -22.168602 -49.996361
0.792903 -21.220979 -51.373938
1.333689 -22.64112 -50.380625
0.948703 -22.966398 -50.819298
-2.553352 -21.506366 -54.912755
-2.010045 -21.328188 -54.498845
-2.097665 -22.87263 -54.040295
-3.044831 -20.221199 -55.749752
-2.553352 -21.506366 -54.912755
0.959776 -4.143668 -56.392361
0.715801 -2.958714 -57.299605
0.869101 -5.466492 -56.047835
0.959776 -4.143668 -56.392361
0.799631 -6.852882 -55.639822
0.514148 -5.67607 -56.604095
0.869101 -5.466492 -56.047835
-3.460527 -1.943308 -63.617119
-2.97211 -1.674055 -63.20619
-3.059547 -3.149996 -62.697813
-3.460527 -1.943308 -63.617119
-4.030622 -2.335396 -63.990246
-6.304613 -4.08599 -64.969761
-5.728883 -3.485626 -64.865223
-6.30094 -5.406395 -64.405548
-6.304613 -4.08599 -64.969761
-6.354304 -6.786081 -63.841879
-6.30094 -5.406395 -64.405548
-5.804272 -6.255367 -63.733862
-6.363338 -8.168757 -63.240055
-6.354304 -6.786081 -63.841879
-6.432021 -9.52208 -62.686857
-6.363338 -8.168757 -63.240055
-5.926319 -8.988374 -62.616995
-6.419343 -10.543483 -62.223669
-6.432021 -9.52208 -62.686857
1.08889 -8.082824 -54.686676
1.375938 -9.323063 -53.731006
0.733936 -8.292402 -55.242937
0.799631 -6.852882 -55.639822
1.08889 -8.082824 -54.686676
3.69173 -18.960746 -47.401378
3.820492 -20.268689 -47.013693
3.242812 -17.798803 -48.317217
3.69173 -18.960746 -47.401378
2.434407 -21.529008 -48.998026
2.054178 -21.875774 -49.502863
2.79457 -21.230632 -48.483419
2.434407 -21.529008 -48.998026
2.292281 -20.011669 -49.433662
3.12915 -20.902867 -48.008484
2.79457 -21.230632 -48.483419
2.991511 -19.427514 -48.421492
3.468216 -20.617088 -47.510919
3.12915 -20.902867 -48.008484
2.811038 -16.73247 -49.213741
3.242812 -17.798803 -48.317217
2.898803 -18.075402 -48.820452
2.412431 -15.579249 -50.139042
2.811038 -16.73247 -49.213741
2.026841 -14.329571 -51.083103
2.412431 -15.579249 -50.139042
2.08144 -15.759391 -50.661038
1.682847 -13.098502 -52.023768
2.013838 -12.91836 -51.501772
2.026841 -14.329571 -51.083103
-6.113675 -11.410262 -61.655442
-5.594849 -11.273928 -61.380198
-5.71352 -12.342495 -60.971842
-6.419343 -10.543483 -62.223669
-6.113675 -11.410262 -61.655442
3 0 17 15
3 0 19 17
3 1 23 21
3 1 25 23
3 2 28 26
3 2 30 28
3 2 32 30
3 62 35 63
3 64 63 33
3 62 63 64
3 66 65 35
3 3 67 69
3 69 68 16
3 67 68 69
3 3 70 71
3 3 72 74
3 72 37 73
3 72 73 74
3 5 38 18
3 5 39 38
3 6 75 76
3 6 77 79
3 77 40 78
3 77 78 79
3 6 42 40
3 80 43 81
3 82 81 20
3 80 81 82
3 84 83 43
3 4 85 86
3 8 87 89
3 89 88 22
3 87 88 89
3 8 90 91
3 8 92 94
3 92 44 93
3 92 93 94
3 9 45 24
3 9 46 45
3 10 95 96
3 10 97 99
3 97 47 98
3 97 98 99
3 100 48 101
3 11 49 27
3 11 50 49
3 11 51 50
3 12 52 29
3 12 53 52
3 12 54 53
3 13 55 31
3 13 56 55
3 7 57 41
3 14 58 34
3 14 59 58
3 14 60 59
3 102 61 103
3 104 103 36
3 102 103 104
3 106 105 61
3 15 107 109
3 107 16 108
3 107 108 109
3 17 16 15
3 17 3 16
3 17 18 3
3 19 18 17
3 19 5 18
3 110 6 111
3 112 20 113
3 114 113 6
3 112 113 114
3 115 20 116
3 118 117 20
3 21 22 4
3 23 22 21
3 23 8 22
3 23 24 8
3 25 24 23
3 25 9 24
3 119 10 120
3 26 121 123
3 121 27 122
3 121 122 123
3 28 27 26
3 28 11 27
3 28 29 11
3 30 29 28
3 30 12 29
3 30 31 12
3 32 31 30
3 32 13 31
3 33 34 7
3 35 34 33
3 35 14 34
3 35 36 14
3 124 36 125
3 126 125 35
3 124 125 126
3 128 127 36
3 16 129 130
3 132 131 16
3 37 133 134
3 37 135 137
3 135 4 136
3 135 136 137
3 18 37 3
3 38 37 18
3 38 4 37
3 38 21 4
3 39 21 38
3 39 1 21
3 138 26 139
3 40 140 142
3 140 26 141
3 140 141 142
3 40 2 26
3 40 41 2
3 42 41 40
3 42 7 41
3 20 42 6
3 43 42 20
3 43 7 42
3 43 33 7
3 143 33 144
3 145 144 43
3 143 144 145
3 147 146 33
3 148 15 149
3 150 15 151
3 152 0 153
3 154 153 15
3 152 153 154
3 22 155 157
3 157 156 4
3 155 156 157
3 159 158 22
3 44 160 161
3 44 162 163
3 24 44 8
3 45 44 24
3 45 164 166
3 166 165 44
3 164 165 166
3 45 167 168
3 46 169 171
3 171 170 45
3 169 170 171
3 46 172 173
3 47 174 175
3 47 176 178
3 176 0 177
3 176 177 178
3 48 179 180
3 48 181 182
3 27 183 184
3 49 185 187
3 187 186 27
3 185 186 187
3 49 188 189
3 49 190 192
3 190 48 191
3 190 191 192
3 50 48 49
3 50 193 195
3 195 194 48
3 193 194 195
3 50 196 197
3 51 198 200
3 200 199 50
3 198 199 200
3 51 201 203
3 201 10 202
3 201 202 203
3 29 51 11
3 52 51 29
3 52 10 51
3 52 47 10
3 53 47 52
3 53 0 47
3 53 19 0
3 54 19 53
3 54 5 19
3 31 54 12
3 55 54 31
3 55 5 54
3 55 39 5
3 56 39 55
3 56 1 39
3 41 32 2
3 57 32 41
3 57 13 32
3 34 57 7
3 58 57 34
3 58 13 57
3 58 56 13
3 59 56 58
3 59 1 56
3 59 25 1
3 60 25 59
3 60 9 25
3 36 60 14
3 61 60 36
3 61 9 60
3 61 46 9
3 204 46 205
3 206 205 61
3 204 205 206
3 208 207 46
