ply
format ascii 1.0
element vertex 210
property float x
property float y
property float z
element face 199
property list uchar int vertex_index
end_header
6.100946 -75.283157 -43.880764
-2.884538 -57.549728 -44.318584
0.713821 -67.793343 -44.556896
9.357569 -77.631927 -42.586498
15.070443 -71.774887 -43.054119
12.07366 -69.544136 -44.953602
8.918941 -67.015022 -46.026371
-6.058072 -65.70858 -41.930836
-4.316864 -71.051247 -42.32341
-1.217598 -62.793388 -44.502861
3.956108 -58.907135 -46.86668
3.606487 -82.558197 -41.735592
0.3017 -79.968269 -42.357159
-2.482189 -76.163712 -42.414017
3.291743 -71.915138 -44.489082
6.355738 -63.151051 -46.654583
7.825049 -76.527367 -43.333401
10.56821 -73.654907 -43.818645
9.038397 -72.532494 -44.469589
10.450859 -68.557266 -45.524544
7.514924 -71.139153 -44.974503
-4.952558 -58.433407 -43.106968
-6.567098 -62.842327 -41.830254
-4.338158 -61.447243 -43.186855
-3.738294 -64.447723 -43.215878
-1.985681 -60.041 -44.487419
0.281168 -58.451004 -45.666817
-1.767084 -69.530838 -43.500706
-3.341725 -73.530006 -42.455215
-0.726491 -71.994148 -43.539921
0.462739 -74.060356 -43.546906
1.858765 -69.923691 -44.553291
4.643038 -67.717415 -45.502201
3.480265 -65.586159 -45.637703
12.319004 -74.536743 -42.935032
13.432566 -70.904671 -44.077538
-5.288561 -68.683594 -42.095444
-2.73891 -67.025787 -43.398121
-0.212936 -65.21833 -44.587593
2.329852 -63.322826 -45.686634
1.329421 -60.747746 -45.742386
6.502487 -80.271851 -42.19986
4.861599 -78.962578 -42.846264
1.809579 -81.559692 -42.088547
3.09022 -77.789627 -43.170517
-5.112843 -77.574158 -41.313877
-4.047167 -80.028595 -41.348423
-1.057669 -78.030159 -42.496735
1.907869 -75.723915 -43.51627
4.644066 -73.825943 -44.235687
6.029855 -69.629295 -45.288635
7.349791 -65.45446 -46.315037
5.006652 -61.259529 -46.732525
-1.71401 -56.531532 -45.009727
-1.264582 -57.777168 -45.094145
-2.43511 -58.795364 -44.403002
10.838286 -76.084335 -42.760765
11.698386 -76.375702 -42.331539
10.217669 -77.923294 -42.157272
13.414904 -68.277783 -45.075489
14.094356 -68.95805 -44.637457
12.753113 -70.224403 -44.51557
12.65411 -67.557594 -45.511398
13.414904 -68.277783 -45.075489
10.288767 -65.642933 -46.3468
11.054726 -66.414055 -46.095886
9.6849 -67.786144 -45.775458
9.569435 -64.937461 -46.554552
10.288767 -65.642933 -46.3468
-7.245764 -66.371094 -41.195179
-7.500278 -64.937967 -41.144888
-6.312585 -64.275453 -41.880545
-6.849336 -67.783046 -41.358889
-7.245764 -66.371094 -41.195179
-5.673317 -67.196087 -42.01314
-6.464581 -69.270554 -41.441193
-6.849336 -67.783046 -41.358889
1.597525 -57.45343 -46.309233
1.054504 -56.254091 -46.300732
15.788902 -72.113922 -42.489123
15.229941 -73.911225 -41.866064
14.511481 -73.57219 -42.431061
5.054487 -81.415024 -41.967726
5.773376 -82.082814 -41.600119
4.325375 -83.225987 -41.367985
1.05564 -80.763981 -42.222853
0.256672 -82.620956 -41.656904
-0.497267 -81.825244 -41.791211
-5.140032 -73.058056 -41.776097
-5.591711 -71.87714 -41.662909
7.630122 -62.041012 -47.057225
8.127149 -63.192717 -46.887451
6.852764 -64.302756 -46.48481
-5.759828 -60.637867 -42.468611
-6.802625 -61.284633 -41.777899
-5.995356 -59.080174 -42.416256
-0.131157 -56.98217 -45.683844
-0.852256 -59.246002 -45.077118
-1.264582 -57.777168 -45.094145
1.054504 -56.254091 -46.300732
-0.131157 -56.98217 -45.683844
16.451874 -70.13987 -43.151953
15.673754 -69.840222 -43.67156
2.914265 -84.367275 -41.106373
4.325375 -83.225987 -41.367985
3.633154 -85.035065 -40.738766
-1.178454 -80.837581 -41.89189
-0.497267 -81.825244 -41.791211
5.246568 -57.70879 -47.421478
4.651221 -56.571277 -47.489124
13.135762 -74.953117 -42.371517
11.698386 -76.375702 -42.331539
13.694723 -73.155815 -42.994575
14.511481 -73.57219 -42.431061
13.135762 -74.953117 -42.371517
14.854816 -69.405113 -44.183269
15.673754 -69.840222 -43.67156
14.251504 -71.339779 -43.565828
14.854816 -69.405113 -44.183269
14.094356 -68.95805 -44.637457
11.84271 -67.06416 -45.796869
12.65411 -67.557594 -45.511398
11.262259 -69.050701 -45.239073
11.84271 -67.06416 -45.796869
11.054726 -66.414055 -46.095886
-7.597146 -63.309333 -41.148304
-6.802625 -61.284633 -41.777899
-8.530326 -65.404973 -40.462938
-7.597146 -63.309333 -41.148304
-7.500278 -64.937967 -41.144888
-6.077559 -70.693314 -41.548925
-6.464581 -69.270554 -41.441193
-4.802713 -69.867421 -42.209427
-5.591711 -71.87714 -41.662909
-6.077559 -70.693314 -41.548925
2.121652 -58.601801 -46.347018
0.805295 -59.599375 -45.704602
1.597525 -57.45343 -46.309233
3.434995 -57.681495 -46.909165
2.642765 -59.82744 -46.304533
2.121652 -58.601801 -46.347018
4.651221 -56.571277 -47.489124
3.434995 -57.681495 -46.909165
-5.23675 -57.075705 -43.042986
-5.995356 -59.080174 -42.416256
-6.279547 -57.722471 -42.352274
-4.102678 -56.362908 -43.790273
-5.23675 -57.075705 -43.042986
-3.068668 -55.921068 -44.396082
-3.918548 -57.991568 -43.712776
-4.102678 -56.362908 -43.790273
-2.064786 -55.172809 -45.023178
-3.068668 -55.921068 -44.396082
15.788902 -72.113922 -42.489123
16.451874 -70.13987 -43.151953
8.685433 -79.445877 -41.998966
10.217669 -77.923294 -42.157272
7.257892 -80.765839 -41.805647
5.773376 -82.082814 -41.600119
7.930028 -78.951889 -42.393179
8.685433 -79.445877 -41.998966
7.257892 -80.765839 -41.805647
2.033352 -83.797852 -41.351883
2.914265 -84.367275 -41.106373
1.134898 -83.298599 -41.52836
0.256672 -82.620956 -41.656904
2.708033 -82.058944 -41.91207
2.033352 -83.797852 -41.351883
1.134898 -83.298599 -41.52836
-4.652462 -74.297436 -41.841999
-5.140032 -73.058056 -41.776097
-3.829294 -72.290627 -42.389313
-5.538021 -76.319512 -41.27133
-4.652462 -74.297436 -41.841999
-4.227284 -75.552082 -41.884546
-6.384611 -78.300667 -40.698583
-5.538021 -76.319512 -41.27133
-5.91919 -79.544731 -40.74844
-7.190958 -80.271241 -40.133146
-6.384611 -78.300667 -40.698583
-5.386352 -80.77195 -40.765712
-5.91919 -79.544731 -40.74844
-4.580005 -78.801377 -41.33115
-4.773261 -81.841053 -40.810917
-5.386352 -80.77195 -40.765712
-3.352887 -80.867745 -41.387521
-4.773261 -81.841053 -40.810917
-1.858138 -79.868527 -41.961678
-3.352887 -80.867745 -41.387521
-2.552418 -79.029377 -41.922579
-0.377984 -78.999214 -42.426947
-1.178454 -80.837581 -41.89189
-1.858138 -79.868527 -41.961678
8.78486 -64.15718 -46.698885
9.569435 -64.937461 -46.554552
8.134366 -66.234741 -46.170704
8.78486 -64.15718 -46.698885
8.127149 -63.192717 -46.887451
5.77184 -58.884987 -47.3544
4.48138 -60.083332 -46.799603
5.246568 -57.70879 -47.421478
6.322769 -60.008707 -47.240969
5.77184 -58.884987 -47.3544
6.997312 -60.954468 -47.201998
5.681195 -62.20529 -46.693554
6.322769 -60.008707 -47.240969
7.630122 -62.041012 -47.057225
6.997312 -60.954468 -47.201998
-1.71401 -56.531532 -45.009727
-2.064786 -55.172809 -45.023178
3 0 18 16
3 0 20 18
3 1 23 21
3 1 25 23
3 1 53 55
3 55 54 25
3 53 54 55
3 2 29 27
3 2 31 29
3 2 33 31
3 3 56 58
3 56 34 57
3 56 57 58
3 5 35 17
3 5 59 61
3 61 60 35
3 59 60 61
3 5 62 63
3 6 64 66
3 66 65 19
3 64 65 66
3 6 67 68
3 7 69 71
3 71 70 22
3 69 70 71
3 7 72 73
3 7 74 76
3 74 36 75
3 74 75 76
3 9 37 24
3 9 38 37
3 9 40 38
3 78 77 26
3 4 79 81
3 79 80 81
3 11 82 84
3 82 41 83
3 82 83 84
3 11 42 41
3 12 85 87
3 85 43 86
3 85 86 87
3 12 44 43
3 8 88 89
3 13 45 28
3 13 46 45
3 13 47 46
3 14 48 30
3 14 49 48
3 14 50 49
3 15 51 32
3 15 90 92
3 92 91 51
3 90 91 92
3 10 52 39
3 16 17 3
3 18 17 16
3 18 5 17
3 18 19 5
3 20 19 18
3 20 6 19
3 21 93 95
3 93 22 94
3 93 94 95
3 23 22 21
3 23 7 22
3 23 24 7
3 25 24 23
3 25 9 24
3 25 26 9
3 96 26 97
3 98 97 25
3 96 97 98
3 100 99 26
3 102 101 4
3 103 11 104
3 103 104 105
3 106 12 107
3 27 28 8
3 29 28 27
3 29 13 28
3 29 30 13
3 31 30 29
3 31 14 30
3 31 32 14
3 33 32 31
3 33 15 32
3 109 108 10
3 34 110 111
3 34 112 114
3 112 4 113
3 112 113 114
3 17 34 3
3 35 34 17
3 35 4 34
3 35 115 117
3 117 116 4
3 115 116 117
3 119 118 35
3 19 120 122
3 122 121 5
3 120 121 122
3 124 123 19
3 22 125 126
3 129 128 22
3 127 128 129
3 36 130 131
3 36 132 134
3 132 8 133
3 132 133 134
3 24 36 7
3 37 36 24
3 37 8 36
3 37 27 8
3 38 27 37
3 38 2 27
3 38 39 2
3 40 39 38
3 40 10 39
3 26 40 9
3 135 40 136
3 137 136 26
3 135 136 137
3 138 10 139
3 140 139 40
3 138 139 140
3 142 141 10
3 143 21 144
3 143 144 145
3 146 21 147
3 148 1 149
3 150 149 21
3 148 149 150
3 152 151 1
3 154 153 4
3 155 3 156
3 41 157 158
3 41 159 161
3 159 3 160
3 159 160 161
3 41 16 3
3 42 16 41
3 42 0 16
3 162 11 163
3 43 164 165
3 43 166 168
3 166 11 167
3 166 167 168
3 43 42 11
3 44 42 43
3 44 0 42
3 28 169 171
3 171 170 8
3 169 170 171
3 45 172 174
3 174 173 28
3 172 173 174
3 45 175 176
3 45 177 179
3 177 178 179
3 46 180 182
3 182 181 45
3 180 181 182
3 46 183 184
3 46 185 186
3 47 187 189
3 189 188 46
3 187 188 189
3 47 190 192
3 190 12 191
3 190 191 192
3 30 47 13
3 48 47 30
3 48 12 47
3 48 44 12
3 49 44 48
3 49 0 44
3 49 20 0
3 50 20 49
3 50 6 20
3 32 50 14
3 51 50 32
3 51 6 50
3 51 193 195
3 195 194 6
3 193 194 195
3 197 196 51
3 39 33 2
3 52 33 39
3 52 15 33
3 198 52 199
3 200 199 10
3 198 199 200
3 201 52 202
3 203 15 204
3 205 204 52
3 203 204 205
3 207 206 15
3 209 208 1
