ply
format ascii 1.0
element vertex 279
property float x
property float y
property float z
element face 265
property list uchar int vertex_index
end_header
-6.731928 10.740438 63.335739
-10.875224 17.34691 64.046021
-12.832674 6.197351 67.809792
-18.272432 12.802372 68.54583
-6.357863 2.839046 64.646378
-8.487589 13.484251 63.729103
-7.359223 18.496147 61.576523
-5.431643 14.523905 61.517323
-9.282175 8.751303 65.339279
-11.895277 11.632329 66.137627
-6.578241 7.038543 64.027931
-9.672545 4.165447 66.46286
-19.378202 6.579187 70.217575
-15.570963 9.233311 68.427498
-14.446839 15.284755 66.469627
-6.078414 -1.480106 65.076447
-9.716316 -0.519808 67.186699
-21.964573 9.78628 69.901924
-7.573001 11.77029 63.612553
-6.991998 14.066798 62.646839
-6.161379 12.297488 62.585144
-7.867726 9.952718 64.223663
-8.998107 11.09725 64.637016
-6.651435 9.162059 63.633179
-8.000343 7.80046 64.768661
-5.640039 10.625863 62.648537
-5.269654 8.763385 62.812866
-14.543592 4.994373 68.845284
-15.995553 6.249388 69.216446
-14.274709 7.674283 68.203552
-11.361188 14.46923 65.123535
-13.18828 13.291744 66.385536
-12.700496 16.355785 65.32296
-6.120203 0.700569 64.813156
-7.943519 -1.201937 66.213959
-7.914943 1.114292 65.885323
-11.33742 5.074866 67.239204
-11.461594 2.720446 67.70285
-13.069261 3.701244 68.376427
-4.748544 4.427287 63.324966
-4.584855 2.297548 63.570122
-4.266916 0.305844 63.652199
-26.448183 8.035739 69.371681
-18.873619 9.558505 69.460632
-20.860344 7.878203 70.222679
-20.102203 11.354926 69.319153
-9.578811 15.360744 63.865902
-9.148973 18.017267 62.831501
-7.953031 16.035719 62.690487
-6.335948 16.466167 61.545235
-10.935844 7.469412 66.555473
-12.360149 8.860755 67.020226
-10.568279 10.117528 65.772034
-10.12249 12.658363 64.904755
-6.42817 5.060481 64.313141
-7.94772 3.430344 65.552719
-8.048292 5.588931 65.237656
-9.54677 6.383845 65.984489
-4.948528 6.677112 63.031452
-17.367867 7.950979 69.366882
-16.964397 11.097604 68.531303
-13.698925 10.494053 67.31562
-15.029536 12.230172 67.506378
-5.7811 -3.569889 65.134926
-7.819271 -3.429663 66.402176
-9.695211 1.864053 66.84269
-23.771038 8.249271 70.192825
-21.357559 13.239799 69.039444
-23.230408 11.544149 69.46624
-24.933817 9.740392 69.598648
-25.950855 11.502385 68.742981
-10.563652 18.714973 63.450377
-11.130835 19.648789 63.492571
-11.442407 18.280726 64.088215
-11.442407 18.280726 64.088215
-12.355044 17.785164 64.726685
-11.78786 16.851348 64.68449
-25.949677 7.147562 69.812565
-26.695602 6.093118 69.685714
-5.064305 15.606842 60.96575
-5.516457 16.577973 60.979706
-5.883795 15.495036 61.531279
-4.616319 14.574737 60.961952
-5.064305 15.606842 60.96575
-7.931432 19.571658 61.592484
-8.826307 19.332218 62.219972
-8.254098 18.256707 62.204012
-15.4245 14.678712 67.037899
-15.715848 13.15142 67.556275
-14.738188 13.757464 66.988002
-15.040287 16.23777 66.476642
-15.4245 14.678712 67.037899
-9.692693 -1.683777 67.315144
-8.806294 -2.024841 66.828774
-8.829918 -0.860873 66.700329
-10.646456 -1.400629 67.817711
-9.692693 -1.683777 67.315144
-11.495755 1.444882 67.907688
-12.340042 1.982278 68.268367
-5.093041 -1.611896 64.44825
-4.187292 -0.718921 63.736126
-5.172665 -0.587131 64.364323
-5.929757 -2.524998 65.105686
-4.944384 -2.656788 64.477489
-5.093041 -1.611896 64.44825
-20.278272 5.685747 70.55685
-19.58227 5.009194 70.562969
-22.289485 8.090941 70.285031
-21.737371 7.136902 70.445408
-21.412458 8.832242 70.062301
-22.867806 9.017775 70.047374
-23.192718 7.322437 70.430481
-22.289485 8.090941 70.285031
-21.01752 14.992545 68.557183
-20.395662 14.039064 68.689419
-23.762747 12.498223 69.1469
-22.911623 13.336601 69.034584
-24.614452 11.596345 69.213104
-24.082113 10.642271 69.532444
-23.762747 12.498223 69.1469
-25.122971 12.477341 68.78527
-25.442336 10.621389 69.170815
-24.614452 11.596345 69.213104
-5.454847 9.694624 62.730701
-4.754276 9.640797 62.273424
-4.939469 10.572036 62.19126
-5.441047 12.369445 62.091202
-5.07618 13.482653 61.557291
-5.796511 13.410697 62.051233
-5.180378 11.533632 62.122898
-5.441047 12.369445 62.091202
-5.900709 11.461676 62.61684
-4.939469 10.572036 62.19126
-4.479807 11.479805 61.665621
-5.180378 11.533632 62.122898
-7.016972 19.81337 60.934803
-6.473351 18.689976 60.949365
-15.269572 5.62188 69.030865
-16.161408 4.88882 69.52755
-15.435427 4.261312 69.341969
-13.232093 17.391416 65.301685
-14.105265 16.855901 65.875019
-13.573667 15.82027 65.896293
-13.232093 17.391416 65.301685
-12.355044 17.785164 64.726685
-13.143876 2.472677 68.605156
-12.340042 1.982278 68.268367
-12.265427 3.210845 68.039638
-13.932847 3.008541 68.892323
-13.143876 2.472677 68.605156
-14.670013 3.655106 69.126751
-13.932847 3.008541 68.892323
-13.806427 4.347809 68.610856
-15.435427 4.261312 69.341969
-14.670013 3.655106 69.126751
-3.880746 4.314976 62.758762
-4.021689 5.404676 62.650147
-3.798902 3.250106 62.88134
-3.880746 4.314976 62.758762
-4.6667 3.362417 63.447544
-3.633542 2.260659 62.932052
-3.798902 3.250106 62.88134
-4.425885 1.301696 63.61116
-3.474573 1.264807 62.973091
-3.633542 2.260659 62.932052
-27.122854 6.839912 69.161068
-26.695602 6.093118 69.685714
-26.935032 8.651637 68.854656
-27.122854 6.839912 69.161068
-5.961714 17.674985 60.933722
-6.473351 18.689976 60.949365
-6.847586 17.481157 61.560879
-5.961714 17.674985 60.933722
-5.516457 16.577973 60.979706
-4.495871 8.673952 62.311537
-4.754276 9.640797 62.273424
-4.335309 7.630816 62.420829
-4.495871 8.673952 62.311537
-5.109091 7.720249 62.922159
-4.121681 6.529589 62.503389
-4.335309 7.630816 62.420829
-4.848536 5.5522 63.178209
-4.021689 5.404676 62.650147
-4.121681 6.529589 62.503389
-4.616319 14.574737 60.961952
-5.07618 13.482653 61.557291
-18.853099 13.82035 68.442612
-17.949563 14.454838 68.031903
-9.700526 19.050151 62.843117
-10.563652 18.714973 63.450377
-10.012099 17.682088 63.438761
-9.37786 20.365102 62.231589
-9.700526 19.050151 62.843117
-8.826307 19.332218 62.219972
-7.931432 19.571658 61.592484
-7.016972 19.81337 60.934803
-18.635705 5.777029 70.170829
-19.58227 5.009194 70.562969
-16.944381 5.612129 69.670265
-16.161408 4.88882 69.52755
-17.630538 6.462924 69.745483
-16.944381 5.612129 69.670265
-16.68171 7.100183 69.291664
-18.373035 7.265083 69.792228
-18.635705 5.777029 70.170829
-17.630538 6.462924 69.745483
-16.683279 12.585136 68.068737
-15.996967 11.663888 68.01884
-15.715848 13.15142 67.556275
-17.337297 13.43752 68.076
-17.618415 11.949988 68.538567
-16.683279 12.585136 68.068737
-17.949563 14.454838 68.031903
-17.337297 13.43752 68.076
-15.040287 16.23777 66.476642
-14.105265 16.855901 65.875019
-6.723041 -4.48335 65.82188
-5.698367 -4.568661 65.187256
-7.742126 -4.413237 66.455506
-6.723041 -4.48335 65.82188
-6.800185 -3.499776 65.768551
-8.758596 -4.223823 67.044391
-7.742126 -4.413237 66.455506
-8.74417 -3.138704 66.922882
-7.881395 -2.3158 66.308067
-8.806294 -2.024841 66.828774
-8.758596 -4.223823 67.044391
-8.74417 -3.138704 66.922882
-10.612563 1.016686 67.477608
-10.578402 2.29225 67.27277
-11.495755 1.444882 67.907688
-10.623116 -0.175245 67.649613
-9.705763 0.672122 67.014695
-10.612563 1.016686 67.477608
-10.646456 -1.400629 67.817711
-10.623116 -0.175245 67.649613
-3.381863 0.148252 63.075629
-3.474573 1.264807 62.973091
-3.381863 0.148252 63.075629
-4.187292 -0.718921 63.736126
-4.827637 -3.622839 64.518165
-4.944384 -2.656788 64.477489
-5.698367 -4.568661 65.187256
-4.827637 -3.622839 64.518165
-21.019343 6.335256 70.559403
-20.278272 5.685747 70.55685
-20.119273 7.228695 70.220127
-21.019343 6.335256 70.559403
-21.737371 7.136902 70.445408
-24.034662 6.454023 70.544345
-23.192718 7.322437 70.430481
-24.611105 7.254328 70.223137
-24.034662 6.454023 70.544345
-19.767984 13.096627 68.829273
-19.187317 12.078649 68.932491
-18.853099 13.82035 68.442612
-20.729881 12.297363 69.179299
-19.767984 13.096627 68.829273
-20.395662 14.039064 68.689419
-21.975198 14.184426 68.821186
-21.01752 14.992545 68.557183
-22.293983 12.391974 69.252842
-21.975198 14.184426 68.821186
-22.911623 13.336601 69.034584
-25.192495 7.999888 69.926048
-24.611105 7.254328 70.223137
-24.352428 8.994832 69.895736
-25.691 8.888065 69.485164
-25.949677 7.147562 69.812565
-25.192495 7.999888 69.926048
-26.686368 10.38496 68.540306
-26.935032 8.651637 68.854656
-26.199519 9.769062 69.057331
-25.656052 13.384633 68.371231
-25.122971 12.477341 68.78527
-26.410871 12.412717 68.201496
-25.656052 13.384633 68.371231
-26.686368 10.38496 68.540306
-26.410871 12.412717 68.201496
3 0 20 18
3 0 18 21
3 0 21 23
3 0 23 25
3 0 25 20
3 1 71 73
3 71 72 73
3 2 29 27
3 1 32 30
3 1 74 76
3 76 75 32
3 74 75 76
3 4 35 33
3 2 38 36
3 2 27 38
3 4 40 39
3 4 33 40
3 77 42 78
3 3 45 43
3 5 48 46
3 7 49 19
3 7 79 81
3 81 80 49
3 79 80 81
3 8 52 50
3 5 53 22
3 5 46 53
3 10 56 54
3 8 57 24
3 8 50 57
3 10 58 26
3 10 54 58
3 7 82 83
3 6 84 86
3 86 85 47
3 84 85 86
3 13 59 28
3 13 60 59
3 9 61 51
3 14 62 31
3 14 87 89
3 89 88 62
3 87 88 89
3 14 90 91
3 15 64 63
3 16 92 94
3 94 93 34
3 92 93 94
3 16 95 96
3 11 65 55
3 98 97 37
3 15 99 101
3 101 100 41
3 99 100 101
3 15 102 104
3 102 63 103
3 102 103 104
3 12 105 106
3 17 107 109
3 109 108 44
3 107 108 109
3 17 110 112
3 110 66 111
3 110 111 112
3 113 67 114
3 115 68 116
3 117 69 118
3 119 118 68
3 117 118 119
3 120 70 121
3 122 121 69
3 120 121 122
3 18 19 5
3 20 19 18
3 20 7 19
3 21 22 8
3 18 22 21
3 18 5 22
3 23 24 10
3 21 24 23
3 21 8 24
3 25 123 125
3 123 26 124
3 123 124 125
3 23 26 25
3 23 10 26
3 20 126 128
3 128 127 7
3 126 127 128
3 25 129 131
3 131 130 20
3 129 130 131
3 25 132 134
3 132 133 134
3 136 135 6
3 27 137 139
3 137 28 138
3 137 138 139
3 29 28 27
3 29 13 28
3 30 31 9
3 32 31 30
3 32 14 31
3 32 140 142
3 142 141 14
3 140 141 142
3 144 143 32
3 33 34 15
3 35 34 33
3 35 16 34
3 36 37 11
3 38 37 36
3 38 145 147
3 147 146 37
3 145 146 147
3 38 148 149
3 27 150 152
3 152 151 38
3 150 151 152
3 27 153 154
3 39 155 156
3 40 157 159
3 159 158 39
3 157 158 159
3 40 160 161
3 40 162 164
3 162 41 163
3 162 163 164
3 33 41 40
3 33 15 41
3 42 165 166
3 42 167 168
3 43 44 12
3 45 44 43
3 45 17 44
3 46 47 1
3 48 47 46
3 48 6 47
3 19 48 5
3 49 48 19
3 49 6 48
3 49 169 171
3 171 170 6
3 169 170 171
3 173 172 49
3 50 51 2
3 52 51 50
3 52 9 51
3 22 52 8
3 53 52 22
3 53 9 52
3 53 30 9
3 46 30 53
3 46 1 30
3 54 55 4
3 56 55 54
3 56 11 55
3 24 56 10
3 57 56 24
3 57 11 56
3 57 36 11
3 50 36 57
3 50 2 36
3 26 174 175
3 58 176 178
3 178 177 26
3 176 177 178
3 58 179 180
3 58 181 183
3 181 39 182
3 181 182 183
3 54 39 58
3 54 4 39
3 185 184 7
3 187 186 3
3 47 188 190
3 190 189 1
3 188 189 190
3 193 192 47
3 191 192 193
3 195 194 6
3 196 12 197
3 28 198 199
3 59 200 202
3 202 201 28
3 200 201 202
3 59 203 205
3 203 12 204
3 203 204 205
3 59 43 12
3 60 43 59
3 60 3 43
3 51 29 2
3 61 29 51
3 61 13 29
3 31 61 9
3 62 61 31
3 62 13 61
3 62 60 13
3 206 60 207
3 208 207 62
3 206 207 208
3 209 3 210
3 211 210 60
3 209 210 211
3 213 212 3
3 215 214 14
3 63 216 217
3 64 218 220
3 220 219 63
3 218 219 220
3 64 221 222
3 34 64 15
3 223 64 224
3 225 224 34
3 223 224 225
3 227 226 64
3 55 35 4
3 65 35 55
3 65 16 35
3 37 65 11
3 228 65 229
3 230 229 37
3 228 229 230
3 231 16 232
3 233 232 65
3 231 232 233
3 235 234 16
3 41 236 237
3 239 238 41
3 63 240 241
3 63 242 243
3 44 244 246
3 246 245 12
3 244 245 246
3 248 247 44
3 66 249 250
3 66 251 252
3 253 45 254
3 255 254 3
3 253 254 255
3 67 256 258
3 256 45 257
3 256 257 258
3 67 17 45
3 259 67 260
3 68 261 263
3 261 67 262
3 261 262 263
3 68 17 67
3 68 66 17
3 69 66 68
3 69 264 266
3 266 265 66
3 264 265 266
3 69 267 269
3 267 42 268
3 267 268 269
3 70 42 69
3 70 270 272
3 272 271 42
3 270 271 272
3 273 70 274
3 275 70 276
3 278 277 70
