ply
format ascii 1.0
element vertex 153
property float x
property float y
property float z
element face 132
property list uchar int vertex_index
end_header
-9.450857 -73.842491 -39.524006
-10.809888 -86.135124 -37.689796
-17.125031 -68.918205 -32.614697
-10.48 -67.909874 -39.049583
-14.207091 -68.971558 -35.942856
-13.712633 -75.351883 -36.547565
-12.593347 -81.036415 -37.18689
-7.656379 -79.027176 -40.08329
-18.291666 -68.793037 -30.864559
-14.073483 -65.492851 -35.855618
-12.482464 -65.465096 -37.4123
-9.975579 -70.915695 -39.321178
-12.150687 -71.692177 -37.772743
-11.570338 -74.66349 -38.146584
-13.214932 -78.23436 -36.884254
-11.003132 -77.717873 -38.388958
-10.13306 -80.154655 -38.731964
-8.51925 -76.390923 -39.88578
-17.237831 -72.322845 -32.894176
-8.433457 -67.033607 -40.459522
-7.640601 -69.857513 -40.786942
-6.866558 -72.703033 -41.002407
-15.57011 -65.808731 -34.196873
-15.7354 -69.11348 -34.355015
-15.742469 -72.372185 -34.606426
-12.503695 -68.695885 -37.471157
-14.117677 -72.37484 -36.164967
-15.713305 -75.570984 -34.790451
-11.957954 -83.700714 -37.365536
-9.356012 -82.695488 -38.878082
-5.963199 -75.064865 -41.228783
-11.690528 -63.635371 -38.078705
-12.527787 -63.794308 -37.294594
-10.213826 -87.230396 -37.765514
-11.642648 -87.700581 -36.973838
-9.555521 -85.613381 -38.348557
-10.213826 -87.230396 -37.765514
-17.813707 -70.539608 -31.881276
-18.397025 -70.477024 -31.006208
-17.708348 -68.855621 -31.739628
-17.181431 -70.620525 -32.754436
-17.870107 -72.241928 -32.021016
-17.813707 -70.539608 -31.881276
-7.245764 -66.371094 -41.195179
-7.500278 -64.937967 -41.144888
-6.849336 -67.783046 -41.358889
-8.037029 -68.44556 -40.623232
-7.245764 -66.371094 -41.195179
-6.464581 -69.270554 -41.441193
-6.849336 -67.783046 -41.358889
-14.840989 -64.059614 -34.863623
-15.474915 -64.034212 -34.07786
-11.491848 -68.30288 -38.26037
-11.587458 -66.726029 -38.206843
-10.57561 -66.333023 -38.996055
-14.562881 -77.052105 -35.831629
-15.563217 -77.161655 -34.953072
-14.712969 -75.461433 -35.669008
-13.664207 -81.298699 -36.402969
-13.975 -79.897671 -36.251651
-12.904139 -79.635388 -37.035572
-13.391369 -82.630417 -36.525492
-13.664207 -81.298699 -36.402969
-12.275651 -82.368565 -37.276213
-13.073673 -83.962567 -36.614815
-13.391369 -82.630417 -36.525492
-7.190958 -80.271241 -40.133146
-8.040774 -82.105396 -39.530542
-8.506196 -80.861332 -39.480686
-5.140032 -73.058056 -41.776097
-6.414879 -73.883949 -41.115595
-5.591711 -71.87714 -41.662909
-12.130448 -86.476143 -36.88623
-11.642648 -87.700581 -36.973838
-18.077983 -67.037685 -30.841538
-18.715198 -68.441131 -30.026457
-17.551828 -67.243274 -31.703363
-18.077983 -67.037685 -30.841538
-16.96851 -67.305858 -32.578432
-17.708348 -68.855621 -31.739628
-17.551828 -67.243274 -31.703363
-13.323296 -63.808186 -36.516253
-14.092676 -63.901674 -35.692995
-13.277973 -65.478973 -36.633959
-13.323296 -63.808186 -36.516253
-12.527787 -63.794308 -37.294594
-18.888042 -70.114688 -30.117567
-18.715198 -68.441131 -30.026457
-18.888042 -70.114688 -30.117567
-18.397025 -70.477024 -31.006208
-17.948599 -73.882877 -32.139769
-17.870107 -72.241928 -32.021016
-17.245348 -73.948383 -33.030602
-17.948599 -73.882877 -32.139769
-9.553597 -65.843107 -39.757969
-10.57561 -66.333023 -38.996055
-8.530326 -65.404973 -40.462938
-7.500278 -64.937967 -41.144888
-9.456729 -67.471741 -39.754553
-9.553597 -65.843107 -39.757969
-8.530326 -65.404973 -40.462938
-6.077559 -70.693314 -41.548925
-7.25358 -71.280273 -40.894675
-6.464581 -69.270554 -41.441193
-5.591711 -71.87714 -41.662909
-6.077559 -70.693314 -41.548925
-16.191049 -65.751121 -33.36952
-15.474915 -64.034212 -34.07786
-16.34757 -67.363468 -33.405785
-16.96851 -67.305858 -32.578432
-16.191049 -65.751121 -33.36952
-14.821796 -65.650791 -35.026246
-14.840989 -64.059614 -34.863623
-14.092676 -63.901674 -35.692995
-16.497667 -73.973053 -33.886726
-17.245348 -73.948383 -33.030602
-16.49015 -72.347515 -33.750301
-11.576842 -65.110634 -38.177414
-11.690528 -63.635371 -38.078705
-12.49308 -67.08049 -37.441728
-11.576842 -65.110634 -38.177414
-11.587458 -66.726029 -38.206843
-16.483085 -75.572452 -33.978739
-16.497667 -73.973053 -33.886726
-15.727887 -73.971585 -34.698438
-16.43681 -77.259552 -34.112781
-16.483085 -75.572452 -33.978739
-16.43681 -77.259552 -34.112781
-15.563217 -77.161655 -34.953072
-14.31403 -78.493343 -35.999973
-14.562881 -77.052105 -35.831629
-13.463783 -76.793121 -36.715909
-14.31403 -78.493343 -35.999973
-13.975 -79.897671 -36.251651
-12.704481 -85.258938 -36.7241
-13.073673 -83.962567 -36.614815
-11.383921 -84.917919 -37.527666
-12.130448 -86.476143 -36.88623
-12.704481 -85.258938 -36.7241
-8.828582 -83.893563 -38.9427
-9.555521 -85.613381 -38.348557
-10.08295 -84.415306 -38.283939
-8.828582 -83.893563 -38.9427
-8.040774 -82.105396 -39.530542
-4.652462 -74.297436 -41.841999
-5.140032 -73.058056 -41.776097
-5.538021 -76.319512 -41.27133
-4.652462 -74.297436 -41.841999
-6.384611 -78.300667 -40.698583
-6.809789 -77.04602 -40.656036
-5.538021 -76.319512 -41.27133
-7.190958 -80.271241 -40.133146
-6.384611 -78.300667 -40.698583
3 31 10 32
3 0 13 11
3 0 15 13
3 0 17 15
3 1 33 34
3 1 35 36
3 2 37 39
3 39 38 8
3 37 38 39
3 2 40 42
3 40 18 41
3 40 41 42
3 43 19 44
3 45 20 46
3 47 46 19
3 45 46 47
3 49 48 20
3 50 22 51
3 4 23 9
3 4 24 23
3 3 52 54
3 52 25 53
3 52 53 54
3 5 26 12
3 5 27 26
3 5 55 57
3 57 56 27
3 55 56 57
3 6 58 60
3 60 59 14
3 58 59 60
3 6 61 62
3 6 63 65
3 63 28 64
3 63 64 65
3 7 29 16
3 7 66 68
3 68 67 29
3 66 67 68
3 69 30 70
3 71 70 21
3 69 70 71
3 72 1 73
3 74 8 75
3 76 8 77
3 78 2 79
3 80 79 8
3 78 79 80
3 81 9 82
3 10 83 85
3 83 9 84
3 83 84 85
3 10 4 9
3 11 12 3
3 13 12 11
3 13 5 12
3 13 14 5
3 15 14 13
3 15 6 14
3 15 16 6
3 17 16 15
3 17 7 16
3 8 86 87
3 89 88 8
3 18 90 91
3 18 92 93
3 94 3 95
3 19 96 97
3 19 98 100
3 98 3 99
3 98 99 100
3 19 11 3
3 20 11 19
3 20 0 11
3 20 21 0
3 101 21 102
3 103 102 20
3 101 102 103
3 105 104 21
3 22 106 107
3 22 108 110
3 108 2 109
3 108 109 110
3 9 111 113
3 111 22 112
3 111 112 113
3 23 22 9
3 23 2 22
3 23 18 2
3 24 18 23
3 24 114 116
3 116 115 18
3 114 115 116
3 117 10 118
3 25 119 121
3 119 10 120
3 119 120 121
3 25 4 10
3 12 25 3
3 26 25 12
3 26 4 25
3 26 24 4
3 27 24 26
3 27 122 124
3 124 123 24
3 122 123 124
3 27 125 126
3 128 127 27
3 14 129 131
3 131 130 5
3 129 130 131
3 133 132 14
3 28 134 135
3 28 136 138
3 136 1 137
3 136 137 138
3 16 28 6
3 29 28 16
3 29 1 28
3 29 139 141
3 141 140 1
3 139 140 141
3 143 142 29
3 21 17 0
3 30 17 21
3 30 7 17
3 144 30 145
3 146 30 147
3 148 7 149
3 150 149 30
3 148 149 150
3 152 151 7
