ply
format ascii 1.0
element vertex 234
property float x
property float y
property float z
element face 223
property list uchar int vertex_index
end_header
-29.654617 83.020988 19.348715
-31.053873 71.268654 20.939232
-27.518299 81.100525 30.533821
-31.156681 80.474159 8.738324
-30.522261 77.347656 19.889576
-31.089268 76.246208 15.025334
-30.392595 82.21888 14.008677
-31.452347 65.702209 21.483551
-31.070301 65.894539 25.769442
-30.632446 71.626816 25.63863
-29.930105 77.430077 25.290958
-29.146587 76.332321 30.960665
-28.76594 82.645599 24.937893
-31.59556 70.130257 16.497641
-31.841394 74.121269 10.596179
-32.074619 77.532578 4.520561
-31.919054 62.262733 20.215927
-30.147335 80.105476 19.728046
-30.450527 80.019089 16.851994
-30.018255 82.890335 16.563951
-30.413706 71.331909 28.375963
-30.328094 74.503304 25.553288
-30.044832 74.349907 28.191622
-28.399479 78.790794 30.888126
-28.912161 79.552109 28.270863
-28.163227 82.127731 27.738882
-31.260742 68.520027 21.162115
-31.521183 67.940346 19.043335
-31.297132 71.005714 18.495399
-31.108234 78.494545 12.040297
-31.424343 75.324448 12.808066
-31.505192 77.338593 9.74626
-31.959337 75.844315 7.711316
-31.617996 79.007774 6.462151
-26.371767 83.160797 30.209171
-30.821842 74.29512 20.357199
-31.070539 73.903511 17.932491
-30.779903 77.044281 17.405954
-30.77301 79.265411 14.489414
-30.765234 81.357635 11.455886
-31.644714 62.95417 21.791636
-31.242067 65.887962 23.633705
-31.047613 68.712158 23.503447
-30.866642 68.650307 25.846161
-30.832584 71.605812 23.271048
-30.587435 74.516182 22.811871
-30.253529 77.323967 22.658699
-29.792645 80.25016 22.475266
-29.550526 77.176758 28.080429
-29.407526 80.050323 25.279652
-29.225323 83.141273 21.976236
-31.72871 64.84787 19.709841
-31.829496 67.05928 17.226534
-31.991251 68.846451 14.543989
-31.364199 73.08638 15.760335
-31.710554 72.070175 13.714223
-29.918934 85.23954 13.335111
-30.302616 84.587929 10.722775
-30.696217 83.727119 8.131042
-31.151217 82.449272 5.608305
-31.645729 80.918961 3.300825
-31.86231 61.588316 21.100916
-31.989404 60.971115 20.682156
-30.282956 71.182648 29.692158
-30.451296 69.716037 29.671395
-30.098519 72.691646 29.599988
-30.229269 72.840908 28.283792
-30.282956 71.182648 29.692158
-27.958889 79.94566 30.710974
-28.032608 78.332951 32.239318
-27.592018 79.487816 32.062166
-27.3662 82.722409 28.960889
-27.688665 83.236011 27.56342
-27.840763 81.614128 29.136351
-31.156184 65.89125 24.701574
-31.251186 64.518871 24.66426
-31.165303 64.52216 25.732129
-30.749544 70.138562 25.742396
-30.76711 68.707234 27.04419
-30.650012 70.195488 26.940425
-29.18343 74.72036 32.45169
-28.847205 75.893657 32.419437
-29.426654 75.010269 31.037619
-29.18343 74.72036 32.45169
-29.348557 76.754539 29.520547
-29.628624 75.432488 29.597501
-29.426654 75.010269 31.037619
-28.647541 84.130497 23.324792
-28.877232 84.378334 21.843964
-28.995632 82.893436 23.457065
-26.226716 84.736549 28.568661
-25.716572 84.013653 29.988086
-31.989389 72.506801 11.122407
-31.923969 71.481255 12.681429
-31.775974 73.095722 12.155201
-32.096097 73.250896 9.638725
-31.989389 72.506801 11.122407
-32.276217 75.876274 5.092009
-32.218576 75.032143 6.687386
-32.016978 76.688446 6.115939
-32.352303 76.64013 3.496063
-32.276217 75.876274 5.092009
-29.642447 86.59964 13.066447
-29.715832 85.387104 14.784402
-30.254751 85.686135 9.04544
-30.032758 86.101075 10.392859
-30.451552 85.25573 7.749574
-30.499417 84.157524 9.426908
-30.254751 85.686135 9.04544
-31.171508 83.292301 3.897718
-30.908663 84.056118 5.198267
-31.418764 82.527145 2.743978
-31.398473 81.684116 4.454565
-31.171508 83.292301 3.897718
-32.100686 61.554739 19.593785
-31.989404 60.971115 20.682156
-31.993873 63.129047 19.082369
-32.100686 61.554739 19.593785
-31.081914 64.431366 26.895195
-31.165303 64.52216 25.732129
-30.540642 70.048034 28.309092
-30.451296 69.716037 29.671395
-30.523076 71.479363 27.007296
-30.650012 70.195488 26.940425
-30.540642 70.048034 28.309092
-28.473651 77.122894 32.383167
-28.032608 78.332951 32.239318
-28.773033 77.561557 30.924395
-28.847205 75.893657 32.419437
-28.473651 77.122894 32.383167
-28.064762 83.539234 26.217821
-28.366118 83.798168 24.817327
-28.464583 82.386665 26.338387
-28.064762 83.539234 26.217821
-27.688665 83.236011 27.56342
-27.065606 80.533959 31.897566
-27.592018 79.487816 32.062166
-27.139325 78.92125 33.425911
-26.49234 81.564095 31.735241
-26.945033 82.130661 30.371496
-27.065606 80.533959 31.897566
-25.874645 82.478172 31.502245
-26.49234 81.564095 31.735241
-25.716572 84.013653 29.988086
-25.874645 82.478172 31.502245
-29.583673 84.277828 17.791204
-29.342476 84.406803 19.147928
-31.638049 61.849451 22.675519
-31.72514 61.934034 21.88877
-31.539085 63.048862 22.740579
-31.638049 61.849451 22.675519
-31.442901 64.422882 22.586537
-31.54853 64.328189 21.637594
-31.539085 63.048862 22.740579
-31.337761 64.515759 23.661614
-31.251186 64.518871 24.66426
-31.347207 65.795085 22.558628
-31.442901 64.422882 22.586537
-31.337761 64.515759 23.661614
-30.985782 65.798431 26.987195
-31.081914 64.431366 26.895195
-30.883953 67.176316 27.025554
-30.76711 68.707234 27.04419
-30.968471 67.272423 25.807802
-30.985782 65.798431 26.987195
-30.883953 67.176316 27.025554
-29.875777 74.019062 29.653098
-30.098519 72.691646 29.599988
-29.797679 75.763333 28.136025
-29.875777 74.019062 29.653098
-29.628624 75.432488 29.597501
-29.127829 84.466946 20.461689
-29.342476 84.406803 19.147928
-29.43997 83.081131 20.662475
-29.127829 84.466946 20.461689
-28.877232 84.378334 21.843964
-28.647541 84.130497 23.324792
-28.366118 83.798168 24.817327
-26.792935 83.752544 28.798564
-27.3662 82.722409 28.960889
-26.945033 82.130661 30.371496
-26.792935 83.752544 28.798564
-26.226716 84.736549 28.568661
-31.781884 62.608452 21.003782
-31.86231 61.588316 21.100916
-31.72514 61.934034 21.88877
-31.898701 64.421616 18.829326
-31.993873 63.129047 19.082369
-31.823882 63.555301 19.962884
-31.949094 65.527321 17.587673
-31.898701 64.421616 18.829326
-31.779103 65.953575 18.468187
-32.043906 66.308757 16.381713
-31.949094 65.527321 17.587673
-32.124783 67.202343 15.04044
-32.043906 66.308757 16.381713
-31.910373 67.952866 15.885262
-32.2209 68.086849 13.703032
-32.124783 67.202343 15.04044
-32.064317 69.869393 13.096312
-31.850902 70.458313 14.129106
-31.923969 71.481255 12.681429
-32.2209 68.086849 13.703032
-32.064317 69.869393 13.096312
-32.155068 74.112419 8.196293
-32.096097 73.250896 9.638725
-31.900365 74.982792 9.153747
-32.155068 74.112419 8.196293
-32.218576 75.032143 6.687386
-29.765493 84.212502 16.398823
-29.836436 82.955661 17.956333
-29.583673 84.277828 17.791204
-29.968595 84.064937 14.949531
-29.765493 84.212502 16.398823
-29.715832 85.387104 14.784402
-29.840916 86.42688 11.699027
-29.642447 86.59964 13.066447
-30.110775 84.913735 12.028943
-29.840916 86.42688 11.699027
-30.032758 86.101075 10.392859
-30.681163 84.695042 6.459636
-30.451552 85.25573 7.749574
-30.923717 83.088195 6.869674
-30.681163 84.695042 6.459636
-30.908663 84.056118 5.198267
-31.696655 81.611752 1.612876
-31.418764 82.527145 2.743978
-31.918001 79.99427 2.27681
-31.696655 81.611752 1.612876
-32.132446 78.301079 2.886678
-31.860174 79.225769 3.910693
-31.918001 79.99427 2.27681
-32.352303 76.64013 3.496063
-32.132446 78.301079 2.886678
3 61 16 62
3 0 19 17
3 63 20 64
3 65 22 66
3 67 66 20
3 65 66 67
3 2 68 70
3 68 23 69
3 68 69 70
3 2 25 23
3 2 71 73
3 73 72 25
3 71 72 73
3 1 28 26
3 3 31 29
3 3 33 31
3 4 37 35
3 6 38 18
3 6 39 38
3 8 74 76
3 74 41 75
3 74 75 76
3 8 42 41
3 9 77 79
3 77 43 78
3 77 78 79
3 9 44 43
3 9 45 44
3 10 46 21
3 10 47 46
3 11 80 81
3 11 82 83
3 11 84 86
3 84 48 85
3 84 85 86
3 12 49 24
3 12 50 49
3 12 87 89
3 89 88 50
3 87 88 89
3 91 90 34
3 7 51 40
3 13 52 27
3 13 53 52
3 5 54 36
3 14 55 30
3 14 92 94
3 94 93 55
3 92 93 94
3 14 95 96
3 15 97 99
3 99 98 32
3 97 98 99
3 15 100 101
3 102 56 103
3 104 57 105
3 106 58 107
3 108 107 57
3 106 107 108
3 109 59 110
3 111 60 112
3 113 112 59
3 111 112 113
3 16 114 115
3 16 116 117
3 17 18 4
3 19 18 17
3 19 6 18
3 118 8 119
3 20 120 121
3 20 122 124
3 122 9 123
3 122 123 124
3 20 21 9
3 22 21 20
3 22 10 21
3 23 125 126
3 23 127 129
3 127 11 128
3 127 128 129
3 23 24 11
3 25 24 23
3 25 12 24
3 25 130 132
3 132 131 12
3 130 131 132
3 134 133 25
3 26 27 7
3 28 27 26
3 28 13 27
3 29 30 5
3 31 30 29
3 31 14 30
3 31 32 14
3 33 32 31
3 33 15 32
3 135 2 136
3 135 136 137
3 138 34 139
3 140 139 2
3 138 139 140
3 141 34 142
3 144 143 34
3 35 36 1
3 37 36 35
3 37 5 36
3 18 37 4
3 38 37 18
3 38 5 37
3 38 29 5
3 39 29 38
3 39 3 29
3 146 145 0
3 147 40 148
3 149 40 150
3 151 7 152
3 153 152 40
3 151 152 153
3 41 154 155
3 41 156 158
3 156 7 157
3 156 157 158
3 41 26 7
3 42 26 41
3 42 1 26
3 159 8 160
3 43 161 162
3 43 163 165
3 163 8 164
3 163 164 165
3 43 42 8
3 44 42 43
3 44 1 42
3 44 35 1
3 45 35 44
3 45 4 35
3 21 45 9
3 46 45 21
3 46 4 45
3 46 17 4
3 47 17 46
3 47 0 17
3 166 22 167
3 48 168 170
3 168 22 169
3 168 169 170
3 48 10 22
3 24 48 11
3 49 48 24
3 49 10 48
3 49 47 10
3 50 47 49
3 50 0 47
3 50 171 173
3 173 172 0
3 171 172 173
3 175 174 50
3 177 176 12
3 34 178 180
3 180 179 2
3 178 179 180
3 182 181 34
3 40 183 185
3 183 16 184
3 183 184 185
3 51 16 40
3 51 186 188
3 188 187 16
3 186 187 188
3 27 51 7
3 52 51 27
3 52 189 191
3 191 190 51
3 189 190 191
3 52 192 193
3 53 194 196
3 196 195 52
3 194 195 196
3 53 197 198
3 36 28 1
3 54 28 36
3 54 13 28
3 30 54 5
3 55 54 30
3 55 13 54
3 55 53 13
3 199 53 200
3 201 200 55
3 199 200 201
3 203 202 53
3 32 204 206
3 206 205 14
3 204 205 206
3 208 207 32
3 209 19 210
3 211 210 0
3 209 210 211
3 56 212 214
3 212 19 213
3 212 213 214
3 56 6 19
3 215 56 216
3 57 217 219
3 217 56 218
3 217 218 219
3 57 6 56
3 57 39 6
3 58 39 57
3 58 3 39
3 220 58 221
3 59 222 224
3 222 58 223
3 222 223 224
3 59 3 58
3 59 33 3
3 60 33 59
3 60 15 33
3 225 60 226
3 227 60 228
3 229 15 230
3 231 230 60
3 229 230 231
3 233 232 15
