ply
format ascii 1.0
element vertex 249
property float x
property float y
property float z
element face 242
property list uchar int vertex_index
end_header
-28.742483 12.808147 65.571426
-26.613886 -7.468162 72.21154
-29.994816 -2.343149 67.439377
-30.764687 2.853871 59.988243
-30.557987 7.815621 51.565033
-29.540308 4.772064 66.538063
-30.642206 -0.017987 63.804749
-30.188602 8.044021 63.0742
-30.584015 13.539269 55.180496
-28.67473 -5.118754 70.344856
-28.242741 1.94069 69.407486
-27.421881 9.267535 68.337631
-30.875929 -7.237158 64.52639
-30.970697 -5.093388 60.700603
-30.752354 -2.386096 56.381393
-30.503336 10.697985 59.105877
-30.686689 5.247471 55.804146
-30.442089 -0.193945 52.068695
-29.190456 8.657059 66.069366
-29.910372 6.446761 64.888496
-29.601357 10.292019 64.460266
-28.868404 -8.570821 70.582672
-27.752487 -6.152515 71.369774
-27.285275 0.53621 70.55735
-26.943022 4.150498 69.999748
-27.797525 5.644085 68.950455
-30.158173 -6.062567 67.785973
-30.548565 -4.841237 66.07428
-30.743719 1.332445 61.968422
-30.883808 -2.426617 62.189461
-30.882349 -1.213463 60.217758
-30.881937 -3.691892 58.452522
-30.819487 0.208796 58.244423
-30.61846 10.733158 53.430485
-30.640377 9.344794 55.454479
-30.621729 6.380423 53.735905
-30.605974 2.437792 53.855106
-30.505501 3.769547 51.816792
-30.426872 4.992702 49.737621
-26.535414 -4.091358 71.806992
-29.788908 1.297092 66.984909
-30.374077 -1.210835 65.807343
-30.200937 2.478431 65.261375
-30.416403 3.973809 63.574139
-30.572454 5.230577 61.670193
-30.610811 14.820287 52.98037
-30.601645 11.91503 51.289162
-30.521778 9.198762 49.482883
-30.602978 13.307295 49.202785
-29.584934 -7.217052 69.315224
-29.443842 -3.743835 68.975616
-27.615763 -2.735574 70.939903
-28.529755 -1.545418 69.854729
-29.245134 -0.09015 68.515091
-28.937174 3.635497 68.05587
-28.614594 7.125714 67.561981
-28.148163 11.052539 67.04287
-30.769661 -3.537817 64.262367
-30.973486 -6.216063 62.627464
-29.919748 11.92074 62.672573
-30.399744 9.135552 61.150913
-30.647924 6.543307 59.563667
-30.54879 12.200262 57.242565
-30.659662 7.841657 57.595699
-30.744707 3.945707 57.897327
-30.723347 1.377725 56.087978
-30.603926 -1.22943 54.308372
-27.183186 -6.810339 71.790657
-27.773942 -7.734162 71.535199
-27.204642 -8.391985 71.956081
-26.197097 5.204942 70.126598
-26.422309 3.388414 70.437172
-25.949677 7.147562 69.812565
-26.695602 6.093118 69.685714
-26.197097 5.204942 70.126598
-26.646071 -9.00101 72.336395
-25.950638 -7.936127 72.474365
-27.204642 -8.391985 71.956081
-27.236827 -9.924834 72.080937
-26.646071 -9.00101 72.336395
-30.622902 15.436777 51.972069
-30.597314 16.836136 52.893286
-30.609405 17.452626 51.884985
-30.618319 13.984148 51.126465
-30.606228 13.367659 52.134766
-30.622902 15.436777 51.972069
-30.618986 14.680281 50.083276
-30.602311 12.611162 50.245973
-30.618319 13.984148 51.126465
-26.909295 -1.682278 71.159717
-27.075589 -3.413466 71.373447
-26.369121 -2.36017 71.593262
-30.881943 -9.131985 64.732586
-30.760627 -7.911796 65.446877
-30.941938 -8.528709 63.735017
-30.881943 -9.131985 64.732586
-30.98723 -6.929744 60.757768
-30.988625 -7.491081 61.721199
-30.972092 -5.654725 61.664034
-30.944614 -6.225937 59.782679
-30.98723 -6.929744 60.757768
-30.758009 -4.301369 56.54173
-30.8228 -4.954268 57.577295
-30.817146 -3.038994 57.416958
-30.659302 -3.750052 55.431891
-30.758009 -4.301369 56.54173
-29.771895 13.87908 62.452561
-29.563224 13.293239 63.301019
-30.45154 9.916768 60.128395
-30.280555 11.288553 60.94668
-30.332352 12.069769 59.924162
-30.566403 12.869765 56.21153
-30.487375 14.274822 57.061287
-30.504988 14.944325 56.030253
-30.408306 -2.201919 52.24149
-30.489224 -2.719661 53.361328
-30.523007 -0.711688 53.188533
-30.332375 -1.521317 51.21311
-30.408306 -2.201919 52.24149
-30.455327 7.723211 48.646828
-30.518228 9.836771 48.489624
-28.331901 -8.943314 71.141648
-28.808234 -10.104236 70.778897
-28.310446 -7.361668 70.976223
-28.331901 -8.943314 71.141648
-27.773942 -7.734162 71.535199
-26.593435 1.581271 70.715973
-26.744051 -0.046386 70.968441
-27.114148 2.343354 70.278549
-26.593435 1.581271 70.715973
-26.422309 3.388414 70.437172
-27.122854 6.839912 69.161068
-27.370273 4.897291 69.475101
-26.695602 6.093118 69.685714
-26.935032 8.651637 68.854656
-27.609703 7.45581 68.644043
-27.122854 6.839912 69.161068
-30.401749 -7.324501 67.076668
-30.19863 -7.827825 67.925411
-30.596945 -6.713836 66.220821
-30.401749 -7.324501 67.076668
-30.353369 -5.451902 66.930127
-30.712247 -6.039198 65.300335
-30.760627 -7.911796 65.446877
-30.596945 -6.713836 66.220821
-30.408352 12.840301 58.965544
-30.332352 12.069769 59.924162
-30.411918 2.315587 50.90041
-30.380212 0.33384 51.026362
-30.473795 1.787801 51.942743
-30.372604 2.927164 49.860824
-30.411918 2.315587 50.90041
-30.466186 4.381125 50.777206
-30.335303 3.515138 48.865894
-30.372604 2.927164 49.860824
-25.884963 -4.697961 72.107617
-26.57465 -5.77976 72.009266
-25.924199 -6.386363 72.30989
-25.828866 -3.061316 71.887226
-25.884963 -4.697961 72.107617
-26.369121 -2.36017 71.593262
-25.828866 -3.061316 71.887226
-25.924199 -6.386363 72.30989
-25.950638 -7.936127 72.474365
-30.549772 15.55464 55.003811
-30.504988 14.944325 56.030253
-30.56317 16.195149 53.903748
-30.597314 16.836136 52.893286
-30.597413 14.179778 54.080433
-30.549772 15.55464 55.003811
-30.56317 16.195149 53.903748
-30.558827 11.891037 48.349575
-30.518228 9.836771 48.489624
-30.562378 11.253028 49.342834
-30.635229 15.33167 49.103012
-30.618986 14.680281 50.083276
-30.613598 13.947902 48.202081
-30.635229 15.33167 49.103012
-30.645848 15.972276 48.102308
-30.558827 11.891037 48.349575
-30.613598 13.947902 48.202081
-28.974592 13.736942 64.750446
-28.520884 14.892975 65.248188
-29.254593 -9.611843 70.084301
-28.808234 -10.104236 70.778897
-29.612859 -8.934959 69.450577
-29.254593 -9.611843 70.084301
-29.226669 -7.893937 69.948948
-29.91201 -8.405068 68.690037
-29.612859 -8.934959 69.450577
-29.871554 -6.63981 68.550599
-30.19863 -7.827825 67.925411
-29.91201 -8.405068 68.690037
-27.450519 -1.099682 70.748627
-26.909295 -1.682278 71.159717
-26.744051 -0.046386 70.968441
-26.686368 10.38496 68.540306
-26.935032 8.651637 68.854656
-27.146383 11.295293 67.998821
-26.686368 10.38496 68.540306
-26.410871 12.412717 68.201496
-27.509524 12.187794 67.35144
-27.785022 10.160037 67.69025
-27.146383 11.295293 67.998821
-27.879424 13.185921 66.709869
-27.509524 12.187794 67.35144
-28.176584 14.063726 65.974148
-28.445323 11.930343 66.307148
-27.879424 13.185921 66.709869
-28.520884 14.892975 65.248188
-28.176584 14.063726 65.974148
-30.990717 -8.018162 62.785555
-30.941938 -8.528709 63.735017
-30.924708 -6.72661 63.576927
-30.990717 -8.018162 62.785555
-30.988625 -7.491081 61.721199
-30.900234 -5.525189 58.658638
-30.944614 -6.225937 59.782679
-30.926317 -4.39264 59.576563
-30.900234 -5.525189 58.658638
-30.8228 -4.954268 57.577295
-29.404029 12.478879 64.194866
-29.17192 11.550083 65.015846
-28.974592 13.736942 64.750446
-29.760552 11.106379 63.56642
-29.404029 12.478879 64.194866
-29.563224 13.293239 63.301019
-30.040557 12.681147 61.70751
-29.771895 13.87908 62.452561
-30.159746 10.528146 61.911743
-30.040557 12.681147 61.70751
-30.280555 11.288553 60.94668
-30.431079 13.591439 58.033888
-30.487375 14.274822 57.061287
-30.526063 11.449123 58.174221
-30.408352 12.840301 58.965544
-30.431079 13.591439 58.033888
-30.585088 -3.171719 54.39538
-30.659302 -3.750052 55.431891
-30.67814 -1.807763 55.344882
-30.585088 -3.171719 54.39538
-30.489224 -2.719661 53.361328
-30.332375 -1.521317 51.21311
-30.380212 0.33384 51.026362
-30.407874 5.620182 48.774197
-30.474325 7.095732 49.610252
-30.455327 7.723211 48.646828
-30.335303 3.515138 48.865894
-30.407874 5.620182 48.774197
3 0 20 18
3 1 67 69
3 67 22 68
3 67 68 69
3 70 24 71
3 74 73 24
3 72 73 74
3 1 75 76
3 1 77 79
3 77 78 79
3 2 27 26
3 3 30 28
3 3 32 30
3 4 35 33
3 4 37 35
3 4 38 37
3 5 42 40
3 7 43 19
3 7 44 43
3 80 45 81
3 80 81 82
3 83 46 84
3 85 84 45
3 83 84 85
3 86 48 87
3 88 87 46
3 86 87 88
3 9 49 21
3 9 50 49
3 89 51 90
3 91 90 39
3 89 90 91
3 10 52 23
3 10 53 52
3 10 54 53
3 11 55 25
3 11 56 55
3 12 92 93
3 12 94 95
3 6 57 41
3 13 58 29
3 13 96 98
3 98 97 58
3 96 97 98
3 13 99 100
3 14 101 103
3 103 102 31
3 101 102 103
3 14 104 105
3 106 59 107
3 15 108 110
3 108 60 109
3 108 109 110
3 15 61 60
3 8 111 113
3 111 62 112
3 111 112 113
3 16 63 34
3 16 64 63
3 16 65 64
3 17 66 36
3 17 114 116
3 116 115 66
3 114 115 116
3 17 117 118
3 120 119 47
3 18 19 5
3 20 19 18
3 20 7 19
3 121 21 122
3 22 123 125
3 123 21 124
3 123 124 125
3 22 9 21
3 126 23 127
3 24 128 130
3 128 23 129
3 128 129 130
3 24 10 23
3 24 25 10
3 131 25 132
3 133 132 24
3 131 132 133
3 134 11 135
3 136 135 25
3 134 135 136
3 26 137 138
3 27 139 141
3 141 140 26
3 139 140 141
3 27 142 144
3 142 12 143
3 142 143 144
3 28 29 6
3 30 29 28
3 30 13 29
3 30 31 13
3 32 31 30
3 32 14 31
3 145 15 146
3 33 34 8
3 35 34 33
3 35 16 34
3 35 36 16
3 37 36 35
3 37 17 36
3 37 147 149
3 149 148 17
3 147 148 149
3 38 150 152
3 152 151 37
3 150 151 152
3 38 153 154
3 155 39 156
3 157 156 1
3 155 156 157
3 158 39 159
3 161 160 39
3 162 1 163
3 40 41 2
3 42 41 40
3 42 6 41
3 19 42 5
3 43 42 19
3 43 6 42
3 43 28 6
3 44 28 43
3 44 3 28
3 164 8 165
3 45 166 167
3 45 168 170
3 168 8 169
3 168 169 170
3 45 33 8
3 46 33 45
3 46 4 33
3 46 47 4
3 48 47 46
3 48 171 173
3 173 172 47
3 171 172 173
3 174 48 175
3 176 48 177
3 176 177 178
3 180 179 48
3 182 181 0
3 21 183 184
3 49 185 187
3 187 186 21
3 185 186 187
3 49 188 189
3 49 190 192
3 190 26 191
3 190 191 192
3 50 26 49
3 50 2 26
3 39 22 1
3 51 22 39
3 51 9 22
3 23 193 195
3 193 51 194
3 193 194 195
3 52 51 23
3 52 9 51
3 52 50 9
3 53 50 52
3 53 2 50
3 53 40 2
3 54 40 53
3 54 5 40
3 25 54 10
3 55 54 25
3 55 5 54
3 55 18 5
3 56 18 55
3 56 0 18
3 196 11 197
3 198 11 199
3 198 199 200
3 201 56 202
3 203 202 11
3 201 202 203
3 204 56 205
3 206 0 207
3 208 207 56
3 206 207 208
3 210 209 0
3 41 27 2
3 57 27 41
3 57 12 27
3 29 57 6
3 58 57 29
3 58 12 57
3 58 211 213
3 213 212 12
3 211 212 213
3 215 214 58
3 31 216 218
3 218 217 13
3 216 217 218
3 220 219 31
3 221 20 222
3 223 222 0
3 221 222 223
3 59 224 226
3 224 20 225
3 224 225 226
3 59 7 20
3 227 59 228
3 60 229 231
3 229 59 230
3 229 230 231
3 60 7 59
3 60 44 7
3 61 44 60
3 61 3 44
3 62 232 233
3 62 234 236
3 234 15 235
3 234 235 236
3 34 62 8
3 63 62 34
3 63 15 62
3 63 61 15
3 64 61 63
3 64 3 61
3 64 32 3
3 65 32 64
3 65 14 32
3 36 65 16
3 66 65 36
3 66 14 65
3 66 237 239
3 239 238 14
3 237 238 239
3 241 240 66
3 243 242 17
3 47 38 4
3 244 38 245
3 246 245 47
3 244 245 246
3 248 247 38
