ply
format ascii 1.0
element vertex 292
property float x
property float y
property float z
element face 284
property list uchar int vertex_index
end_header
19.849127 12.642424 41.263847
21.810205 5.548728 40.891373
13.381823 11.506841 48.180542
15.411247 4.006504 47.748859
10.016223 20.403074 49.155628
22.820293 13.175031 37.669136
23.96962 9.666069 37.376129
20.932266 9.068628 40.917347
18.452728 16.502609 41.912357
11.829369 15.802167 48.689526
16.335743 0.84257 47.485794
27.012207 10.042154 33.893505
16.661121 12.050678 44.85001
17.722254 8.388598 44.521973
14.366384 7.548608 48.029163
11.64633 25.596077 46.405369
13.535738 20.801102 45.983444
15.161995 16.227093 45.473431
18.686041 4.940249 44.289268
21.300669 12.911549 39.53017
21.9606 11.132167 39.233715
20.43626 10.756422 41.056717
19.237617 14.501828 41.510559
20.804052 14.882208 39.598244
28.065136 12.034418 31.945797
26.535313 11.868447 33.748734
22.90246 7.553801 39.173584
24.411661 7.936379 37.434975
15.070654 11.775023 46.512337
15.587392 9.754637 46.408546
13.890604 9.507561 48.096378
11.591844 5.123685 51.020962
10.91424 23.14658 47.709503
12.626596 23.148937 46.221062
11.801646 20.60813 47.605995
12.609189 13.524481 48.478184
13.523847 16.053577 47.09808
14.29453 13.810588 46.846004
15.996037 14.121001 45.09412
16.543566 6.086507 46.210934
18.18248 6.602326 44.434826
17.135336 4.547993 45.947712
17.842653 1.11609 45.967667
24.35219 13.409813 35.771637
24.999886 11.692884 35.568928
23.373524 11.453943 37.517715
22.527927 9.403725 39.058983
21.432514 7.317049 40.820351
17.658449 18.848171 42.211292
11.60829 11.253731 49.831478
12.212879 9.286004 49.681377
11.002472 18.104076 48.889153
10.07299 15.494722 50.249027
10.889793 13.253638 50.043564
14.220551 1.932722 49.278587
15.972477 2.488223 47.516602
14.656358 0.412232 49.152447
15.097411 -1.145405 48.996284
29.590677 11.980919 30.242712
25.423588 9.818369 35.716537
18.282232 12.346998 43.067879
18.876719 10.54535 42.82399
17.253719 10.149956 44.63295
16.083881 7.911573 46.288261
14.888692 5.695516 47.903931
12.705714 7.218869 49.630825
13.169128 5.373999 49.566891
13.750614 3.710717 49.365673
14.31939 23.223492 44.593243
15.238256 20.840376 44.297672
12.792191 18.255407 47.282719
14.348926 18.4706 45.763695
16.040092 18.69405 44.000706
16.856541 16.427034 43.678532
17.639158 14.303818 43.32756
19.294487 8.640429 42.803822
19.871277 6.960163 42.579494
20.268991 5.321519 42.559635
17.59123 2.956328 45.833019
19.118042 3.285 44.227787
26.227267 12.733313 33.793859
26.992849 12.790405 32.864196
22.572993 5.758802 40.033398
23.119121 6.761338 39.174504
22.356333 6.551265 40.032478
22.051272 4.718528 40.867752
22.572993 5.758802 40.033398
9.571943 21.694292 49.170835
9.157978 20.42728 49.819826
10.465231 21.774827 48.432565
10.020951 23.066045 48.447773
9.571943 21.694292 49.170835
18.846129 17.68036 41.149345
18.44899 18.853141 41.298812
18.055588 17.67539 42.061825
23.255741 14.173457 36.842064
22.561319 14.109734 37.711534
23.586241 13.292422 36.720387
24.02169 14.290847 35.893315
23.255741 14.173457 36.842064
11.052881 10.172399 50.522228
10.72616 11.144081 50.604564
9.187694 15.486067 50.959095
9.656146 16.656693 50.323679
10.366912 12.144035 50.710608
9.966558 13.197754 50.818087
10.72616 11.144081 50.604564
11.249042 12.253685 49.937521
10.366912 12.144035 50.710608
13.758389 0.130474 50.016891
14.438455 1.172477 49.215517
13.540486 0.890719 50.079961
14.372044 -2.191693 49.803922
14.215976 -1.396147 49.841688
15.179164 -2.016739 49.039753
14.372044 -2.191693 49.803922
29.31956 12.865131 30.161917
30.094676 12.83585 29.262521
27.82009 10.135582 32.976601
28.346555 11.131714 32.002747
27.538671 11.038286 32.919651
27.313843 9.164402 33.902923
27.82009 10.135582 32.976601
25.16429 8.037865 36.597382
24.639855 7.106987 37.460686
11.855251 7.101875 50.40485
12.459297 8.252436 49.656101
11.608833 8.135442 50.430126
12.575633 4.316612 50.300075
12.380486 5.248842 50.293926
11.786991 4.191456 51.027111
12.866376 3.484971 50.199466
13.459871 4.542358 49.466282
12.575633 4.316612 50.300075
13.112503 2.666145 50.137646
12.866376 3.484971 50.199466
11.079809 26.901929 46.482325
10.712777 25.56702 47.183361
11.971803 26.899552 45.717806
11.079809 26.901929 46.482325
12.504918 25.608894 45.62293
11.971803 26.899552 45.717806
19.299384 2.454419 44.234186
18.480348 2.200545 45.097727
18.66169 1.369963 45.104126
19.887086 3.465693 43.403343
19.299384 2.454419 44.234186
19.628571 15.66909 40.760875
19.236127 16.66948 40.961775
18.845173 15.502218 41.711458
20.411789 15.859279 39.804718
19.628571 15.66909 40.760875
20.020834 14.692018 40.554401
21.209384 15.929693 38.815664
20.411789 15.859279 39.804718
21.553199 14.963322 38.676089
21.209384 15.929693 38.815664
21.801507 13.977992 38.642052
21.553199 14.963322 38.676089
21.05236 13.896878 39.564207
22.060481 13.04329 38.599653
22.561319 14.109734 37.711534
21.801507 13.977992 38.642052
27.757761 12.87339 31.962727
28.55679 12.89188 31.013459
27.300224 11.951432 32.847265
27.757761 12.87339 31.962727
26.992849 12.790405 32.864196
23.873721 6.952628 38.305199
23.657061 7.74509 38.304279
23.119121 6.761338 39.174504
24.639855 7.106987 37.460686
23.873721 6.952628 38.305199
10.677117 4.960757 51.829719
11.298316 6.054283 51.099919
10.898115 4.042775 51.815264
10.677117 4.960757 51.829719
11.786991 4.191456 51.027111
10.898115 4.042775 51.815264
10.346732 24.342272 47.835428
10.020951 23.066045 48.447773
11.280285 24.371329 47.057436
10.712777 25.56702 47.183361
10.346732 24.342272 47.835428
17.240732 0.094763 46.735632
17.089198 0.97933 46.726731
16.487277 -0.041997 47.494695
18.034398 0.295585 45.935198
17.240732 0.094763 46.735632
18.66169 1.369963 45.104126
18.034398 0.295585 45.935198
24.676038 12.551348 35.670282
25.459554 12.645532 34.703957
25.135706 13.503996 34.805311
18.085479 19.954106 41.417685
17.261704 19.969225 42.356304
18.085479 19.954106 41.417685
18.44899 18.853141 41.298812
18.846129 17.68036 41.149345
19.236127 16.66948 40.961775
24.827087 14.390733 34.865009
24.02169 14.290847 35.893315
25.135706 13.503996 34.805311
24.827087 14.390733 34.865009
11.355176 9.188536 50.447177
11.910584 10.269868 49.756428
11.052881 10.172399 50.522228
11.608833 8.135442 50.430126
11.355176 9.188536 50.447177
9.627762 19.110869 49.776979
9.157978 20.42728 49.819826
10.120887 17.961371 49.643742
10.509348 19.253575 49.022391
9.627762 19.110869 49.776979
10.537731 16.799399 49.56909
10.120887 17.961371 49.643742
9.656146 16.656693 50.323679
9.558156 14.318296 50.920818
9.187694 15.486067 50.959095
10.481392 14.37418 50.146296
9.558156 14.318296 50.920818
9.966558 13.197754 50.818087
13.995449 -0.617329 49.91977
13.758389 0.130474 50.016891
14.876884 -0.366587 49.074365
13.995449 -0.617329 49.91977
14.215976 -1.396147 49.841688
15.868111 -1.035985 48.249941
16.487277 -0.041997 47.494695
15.716577 -0.151417 48.241039
15.868111 -1.035985 48.249941
15.179164 -2.016739 49.039753
30.344653 11.942153 29.401592
30.094676 12.83585 29.262521
29.917265 11.014509 30.308508
30.344653 11.942153 29.401592
28.827906 12.007669 31.094254
29.31956 12.865131 30.161917
28.55679 12.89188 31.013459
29.109325 11.104965 31.151204
28.827906 12.007669 31.094254
28.346555 11.131714 32.002747
29.917265 11.014509 30.308508
29.109325 11.104965 31.151204
25.767599 11.780665 34.658831
26.227267 12.733313 33.793859
25.459554 12.645532 34.703957
25.670254 8.97886 35.738163
24.917624 8.877374 36.575756
25.16429 8.037865 36.597382
26.464564 9.090753 34.826647
26.217897 9.930262 34.805021
25.670254 8.97886 35.738163
27.313843 9.164402 33.902923
26.464564 9.090753 34.826647
12.148779 6.171277 50.325893
11.855251 7.101875 50.40485
11.298316 6.054283 51.099919
13.347472 1.777147 50.094103
13.985582 2.821719 49.32213
13.112503 2.666145 50.137646
13.540486 0.890719 50.079961
13.347472 1.777147 50.094103
12.99505 24.385324 45.530777
12.504918 25.608894 45.62293
12.136463 24.372507 46.313215
13.841448 24.422602 44.716867
12.99505 24.385324 45.530777
13.472993 23.186214 45.407153
14.651972 24.557357 43.868693
13.841448 24.422602 44.716867
15.164183 23.333776 43.688635
14.651972 24.557357 43.868693
15.623616 22.142218 43.54085
15.164183 23.333776 43.688635
14.778823 22.031934 44.445458
16.051607 20.965328 43.399494
15.623616 22.142218 43.54085
16.452525 19.892164 43.251011
16.051607 20.965328 43.399494
15.639174 19.767213 44.149189
16.849271 18.77111 43.105999
17.261704 19.969225 42.356304
16.452525 19.892164 43.251011
20.462561 4.483953 42.569267
19.693517 4.30326 43.393711
19.887086 3.465693 43.403343
21.233168 4.597557 41.735136
21.039598 5.435123 41.725504
20.462561 4.483953 42.569267
22.051272 4.718528 40.867752
21.233168 4.597557 41.735136
3 0 21 19
3 0 23 22
3 0 19 23
3 80 25 81
3 1 82 84
3 84 83 26
3 82 83 84
3 1 85 86
3 2 30 28
3 4 87 88
3 4 89 91
3 89 32 90
3 89 90 91
3 4 34 32
3 2 37 35
3 2 28 37
3 3 41 39
3 5 45 43
3 7 46 20
3 7 47 46
3 8 92 94
3 94 93 48
3 92 93 94
3 5 95 96
3 5 97 99
3 97 43 98
3 97 98 99
3 101 100 49
3 102 52 103
3 104 53 105
3 106 49 107
3 108 107 53
3 106 107 108
3 109 56 110
3 111 110 54
3 109 110 111
3 112 57 113
3 115 114 57
3 116 58 117
3 11 118 120
3 120 119 24
3 118 119 120
3 11 121 122
3 6 59 44
3 124 123 27
3 12 62 60
3 14 63 29
3 14 64 63
3 125 65 126
3 127 126 50
3 125 126 127
3 128 66 129
3 130 129 31
3 128 129 130
3 131 67 132
3 133 132 66
3 131 132 133
3 135 134 67
3 15 136 137
3 15 138 139
3 15 140 141
3 16 68 33
3 16 69 68
3 9 70 51
3 17 71 36
3 17 72 71
3 17 73 72
3 12 74 38
3 12 60 74
3 13 75 61
3 18 76 40
3 18 77 76
3 10 78 55
3 142 79 143
3 144 143 42
3 142 143 144
3 146 145 79
3 19 20 5
3 21 20 19
3 21 7 20
3 22 147 149
3 149 148 8
3 147 148 149
3 23 150 152
3 152 151 22
3 150 151 152
3 23 153 154
3 23 155 156
3 19 157 159
3 159 158 23
3 157 158 159
3 19 160 162
3 160 5 161
3 160 161 162
3 163 24 164
3 25 165 167
3 165 24 166
3 165 166 167
3 25 11 24
3 26 27 6
3 168 27 169
3 170 169 26
3 168 169 170
3 172 171 27
3 28 29 12
3 30 29 28
3 30 14 29
3 173 31 174
3 175 31 176
3 178 177 31
3 32 179 180
3 32 181 183
3 181 15 182
3 181 182 183
3 32 33 15
3 34 33 32
3 34 16 33
3 35 36 9
3 37 36 35
3 37 17 36
3 37 38 17
3 28 38 37
3 28 12 38
3 39 40 13
3 41 40 39
3 41 18 40
3 184 42 185
3 186 185 10
3 184 185 186
3 187 42 188
3 190 189 42
3 43 191 193
3 191 44 192
3 191 192 193
3 45 44 43
3 45 6 44
3 20 45 5
3 46 45 20
3 46 6 45
3 46 26 6
3 47 26 46
3 47 1 26
3 48 194 195
3 197 196 48
3 199 198 8
3 43 200 201
3 43 202 203
3 49 50 2
3 204 50 205
3 206 205 49
3 204 205 206
3 208 207 50
3 209 4 210
3 211 51 212
3 213 212 4
3 211 212 213
3 52 214 216
3 214 51 215
3 214 215 216
3 52 9 51
3 217 52 218
3 53 219 221
3 219 52 220
3 219 220 221
3 53 9 52
3 53 35 9
3 49 35 53
3 49 2 35
3 54 55 3
3 56 55 54
3 56 10 55
3 222 56 223
3 57 224 226
3 224 56 225
3 224 225 226
3 57 10 56
3 57 227 229
3 229 228 10
3 227 228 229
3 231 230 57
3 58 232 233
3 58 234 235
3 24 236 238
3 236 58 237
3 236 237 238
3 239 58 240
3 241 240 24
3 239 240 241
3 243 242 58
3 44 244 246
3 244 25 245
3 244 245 246
3 59 25 44
3 59 11 25
3 27 59 6
3 247 59 248
3 249 248 27
3 247 248 249
3 250 11 251
3 252 251 59
3 250 251 252
3 254 253 11
3 60 61 0
3 62 61 60
3 62 13 61
3 29 62 12
3 63 62 29
3 63 13 62
3 63 39 13
3 64 39 63
3 64 3 39
3 50 30 2
3 65 30 50
3 65 14 30
3 31 255 257
3 255 65 256
3 255 256 257
3 66 65 31
3 66 14 65
3 66 64 14
3 67 64 66
3 67 3 64
3 67 54 3
3 258 54 259
3 260 259 67
3 258 259 260
3 262 261 54
3 33 263 265
3 265 264 15
3 263 264 265
3 68 266 268
3 268 267 33
3 266 267 268
3 68 269 270
3 68 271 272
3 69 273 275
3 275 274 68
3 273 274 275
3 69 276 277
3 51 34 4
3 70 34 51
3 70 16 34
3 36 70 9
3 71 70 36
3 71 16 70
3 71 69 16
3 72 69 71
3 72 278 280
3 280 279 69
3 278 279 280
3 72 281 283
3 281 48 282
3 281 282 283
3 73 48 72
3 73 8 48
3 38 73 17
3 74 73 38
3 74 8 73
3 74 22 8
3 60 22 74
3 60 0 22
3 61 21 0
3 75 21 61
3 75 7 21
3 40 75 13
3 76 75 40
3 76 7 75
3 76 47 7
3 77 47 76
3 77 1 47
3 55 41 3
3 78 41 55
3 78 18 41
3 42 78 10
3 79 78 42
3 79 18 78
3 79 77 18
3 284 77 285
3 286 285 79
3 284 285 286
3 287 1 288
3 289 288 77
3 287 288 289
3 291 290 1
