ply
format ascii 1.0
element vertex 232
property float x
property float y
property float z
element face 213
property list uchar int vertex_index
end_header
-5.021052 -33.927101 -44.134991
-14.461926 -37.684673 -31.60664
-9.805895 -36.817955 -37.712406
-5.337533 -24.225563 -43.484829
-2.378853 -31.628777 -47.489765
-12.124 -37.494144 -34.596733
-16.692936 -37.491707 -28.869761
-7.408796 -35.598553 -40.959377
-12.419728 -32.357655 -34.255943
-9.778469 -31.729252 -37.428913
-7.402918 -30.551376 -40.555077
-5.095305 -28.862911 -43.810589
-3.150345 -22.178856 -46.874313
-2.741199 -26.643578 -47.294666
-6.363271 -37.759575 -42.57954
-4.982109 -36.600807 -44.26125
-3.586921 -35.580498 -45.891552
-3.727951 -32.854588 -45.798321
-15.399191 -40.21529 -30.382389
-14.267151 -40.308304 -31.905655
-13.271041 -37.643181 -33.109188
-8.691544 -38.927059 -39.553383
-8.608869 -36.270897 -39.339989
-11.090792 -32.299232 -35.805538
-7.478789 -28.212496 -40.424713
-6.295749 -27.279675 -42.038826
-6.297534 -29.814312 -42.087658
-5.201573 -26.502409 -43.607555
-2.90076 -24.261385 -47.154205
-1.544715 -25.140055 -49.096497
-1.040462 -30.320833 -49.117676
-10.946214 -37.21376 -36.165707
-16.518526 -40.274891 -28.890738
-15.593947 -37.627205 -30.208632
-7.593148 -38.433243 -41.005962
-6.199083 -34.804794 -42.581364
-15.925651 -34.923943 -30.059273
-14.655306 -35.192177 -31.49086
-13.32722 -35.126633 -33.051865
-12.131828 -34.964134 -34.501732
-10.962366 -34.786701 -35.972473
-9.77703 -34.288868 -37.512875
-8.68283 -28.859293 -38.867172
-8.517778 -31.086393 -39.054737
-8.602911 -33.759052 -39.087196
-7.353154 -33.072819 -40.792984
-6.247518 -32.245003 -42.315331
-5.051833 -31.228228 -43.973289
-3.434168 -20.203009 -46.609863
-4.228986 -23.34951 -45.141541
-4.074644 -25.454817 -45.30817
-3.875439 -27.66745 -45.605007
-3.864786 -30.350607 -45.628448
-2.595378 -29.043751 -47.385132
-1.291693 -27.587633 -49.169716
-9.878678 -38.160345 -37.78746
-10.444156 -38.354578 -37.009949
-9.207382 -36.544426 -38.526198
-9.280165 -37.886816 -38.601252
-9.878678 -38.160345 -37.78746
-5.816641 -25.752619 -42.761827
-6.401154 -26.278261 -41.937697
-5.922046 -24.751206 -42.660698
-2.251424 -33.024097 -47.506649
-2.855459 -34.999958 -46.707543
-2.982887 -33.604637 -46.690658
-1.709658 -30.974805 -48.30372
-1.582229 -32.370126 -48.320605
-2.251424 -33.024097 -47.506649
-12.129819 -38.767744 -34.712576
-12.674119 -38.889099 -33.964012
-11.535107 -37.353952 -35.38122
-11.540926 -38.627552 -35.497063
-12.129819 -38.767744 -34.712576
-16.605731 -38.883299 -28.880249
-17.051907 -40.093275 -28.192493
-17.139111 -38.701683 -28.182005
-15.451702 -33.790386 -30.732664
-16.194655 -33.742745 -29.937848
-14.816529 -33.924504 -31.448457
-15.290478 -35.05806 -30.775067
-15.451702 -33.790386 -30.732664
-13.06821 -32.558821 -33.51334
-12.635459 -31.191139 -34.149997
-12.873474 -33.742144 -33.653904
-13.521956 -33.94331 -32.911301
-13.06821 -32.558821 -33.51334
-8.208427 -27.492977 -39.543039
-8.896828 -27.861194 -38.695351
-3.292257 -21.190933 -46.742088
-2.944437 -19.622791 -47.444048
-2.802525 -20.610714 -47.576273
-0.802439 -25.62045 -50.05727
-1.418204 -26.363844 -49.133106
-0.92895 -24.396661 -50.02066
-0.634062 -26.90393 -50.043842
-0.802439 -25.62045 -50.05727
-6.334457 -39.170315 -42.688705
-7.030932 -39.550211 -41.864615
-5.643876 -38.590931 -43.529561
-6.334457 -39.170315 -42.688705
-5.67269 -37.180191 -43.420395
-4.905055 -37.992056 -44.350409
-5.643876 -38.590931 -43.529561
-4.284515 -36.090653 -45.076401
-4.207461 -37.481901 -45.16556
-4.905055 -37.992056 -44.350409
-15.384245 -41.562145 -30.44884
-15.856127 -41.551344 -29.762974
-14.818225 -41.608652 -31.210473
-15.384245 -41.562145 -30.44884
-14.833171 -40.261797 -31.144022
-14.382323 -41.809443 -31.867093
-14.818225 -41.608652 -31.210473
-13.745694 -40.296179 -32.618473
-14.382323 -41.809443 -31.867093
-13.24764 -38.963617 -33.22024
-13.745694 -40.296179 -32.618473
-13.769096 -38.975742 -32.507421
-12.69752 -37.568663 -33.852961
-12.674119 -38.889099 -33.964012
-13.24764 -38.963617 -33.22024
-17.272218 -37.384058 -28.169802
-17.139111 -38.701683 -28.182005
-9.321502 -39.214897 -38.707949
-9.424732 -40.714937 -38.780603
-8.650206 -37.598978 -39.446686
-9.321502 -39.214897 -38.707949
-9.280165 -37.886816 -38.601252
-11.940678 -31.130612 -34.904278
-12.635459 -31.191139 -34.149997
-11.27621 -31.101401 -35.679075
-11.75526 -32.328444 -35.030741
-11.940678 -31.130612 -34.904278
-10.58847 -30.867256 -36.476812
-11.27621 -31.101401 -35.679075
-9.932309 -30.582266 -37.2885
-10.434631 -32.014242 -36.617226
-10.58847 -30.867256 -36.476812
-6.992674 -26.744672 -41.13064
-7.606407 -27.169579 -40.32181
-6.887269 -27.746085 -41.231769
-6.992674 -26.744672 -41.13064
-6.401154 -26.278261 -41.937697
-2.645373 -21.548966 -47.729832
-2.802525 -20.610714 -47.576273
-2.520581 -22.590231 -47.869777
-3.025552 -23.220121 -47.014259
-2.645373 -21.548966 -47.729832
-2.342529 -23.509004 -48.064445
-2.520581 -22.590231 -47.869777
-2.262749 -24.700101 -48.134676
-2.820979 -25.452482 -47.224435
-2.342529 -23.509004 -48.064445
-1.664507 -23.948339 -49.035591
-2.142957 -25.891817 -48.195582
-2.262749 -24.700101 -48.134676
-1.116202 -23.227955 -49.942948
-1.664507 -23.948339 -49.035591
-0.92895 -24.396661 -50.02066
-1.116202 -23.227955 -49.942948
-3.469199 -37.007511 -45.93816
-4.207461 -37.481901 -45.16556
-3.469199 -37.007511 -45.93816
-2.855459 -34.999958 -46.707543
-0.804447 -31.605256 -49.163908
-1.582229 -32.370126 -48.320605
-0.327571 -29.585714 -49.961292
-0.804447 -31.605256 -49.163908
-11.014315 -38.552481 -36.236599
-11.540926 -38.627552 -35.497063
-10.376054 -37.015857 -36.939056
-10.444156 -38.354578 -37.009949
-11.014315 -38.552481 -36.236599
-5.520313 -23.254866 -43.334816
-5.922046 -24.751206 -42.660698
-16.940196 -41.451444 -28.255038
-17.051907 -40.093275 -28.192493
-16.415795 -41.581144 -29.017148
-16.940196 -41.451444 -28.255038
-15.958859 -40.245091 -29.636564
-15.856127 -41.551344 -29.762974
-16.415795 -41.581144 -29.017148
-8.854999 -40.474247 -39.526234
-9.424732 -40.714937 -38.780603
-8.305801 -40.227339 -40.252523
-8.854999 -40.474247 -39.526234
-8.142346 -38.680151 -40.279672
-7.645871 -39.887045 -41.077826
-8.305801 -40.227339 -40.252523
-6.97821 -38.096409 -41.792751
-7.030932 -39.550211 -41.864615
-7.645871 -39.887045 -41.077826
-16.960458 -36.190462 -28.722087
-17.272218 -37.384058 -28.169802
-16.576815 -34.90658 -29.316843
-16.194655 -33.742745 -29.937848
-16.309293 -36.207825 -29.464517
-16.960458 -36.190462 -28.722087
-16.576815 -34.90658 -29.316843
-14.185999 -33.976082 -32.130798
-14.816529 -33.924504 -31.448457
-13.991263 -35.159405 -32.271363
-14.185999 -33.976082 -32.130798
-13.521956 -33.94331 -32.911301
-9.38449 -29.147286 -38.007629
-8.896828 -27.861194 -38.695351
-9.230649 -30.294272 -38.148043
-9.932309 -30.582266 -37.2885
-9.38449 -29.147286 -38.007629
-8.080809 -28.535895 -39.645942
-8.208427 -27.492977 -39.543039
-7.606407 -27.169579 -40.32181
-4.912684 -22.781363 -44.211027
-5.520313 -23.254866 -43.334816
-3.084629 -18.552697 -47.374927
-2.944437 -19.622791 -47.444048
-3.6074 -19.275283 -46.481878
-3.084629 -18.552697 -47.374927
-3.961002 -20.770086 -45.773544
-3.6074 -19.275283 -46.481878
-4.35841 -22.343336 -45.039383
-3.961002 -20.770086 -45.773544
-3.831577 -21.77626 -45.875702
-4.783259 -23.787537 -44.313185
-4.912684 -22.781363 -44.211027
-4.35841 -22.343336 -45.039383
-0.508447 -28.27053 -50.017823
-1.166078 -28.954233 -49.143696
-0.634062 -26.90393 -50.043842
-0.327571 -29.585714 -49.961292
-0.508447 -28.27053 -50.017823
3 0 15 14
3 0 17 15
3 1 19 18
3 1 20 19
3 2 55 56
3 2 57 59
3 57 22 58
3 57 58 59
3 3 60 62
3 60 25 61
3 60 61 62
3 3 27 25
3 4 63 65
3 65 64 16
3 63 64 65
3 4 66 68
3 66 30 67
3 66 67 68
3 5 69 70
3 5 71 73
3 71 31 72
3 71 72 73
3 6 74 76
3 74 32 75
3 74 75 76
3 6 33 32
3 7 34 21
3 7 35 34
3 77 36 78
3 79 37 80
3 81 80 36
3 79 80 81
3 8 82 83
3 8 84 86
3 84 38 85
3 84 85 86
3 8 39 38
3 9 40 23
3 9 41 40
3 87 42 88
3 10 43 24
3 10 44 43
3 10 45 44
3 11 46 26
3 11 47 46
3 12 89 91
3 89 48 90
3 89 90 91
3 12 49 48
3 12 50 49
3 13 51 28
3 13 52 51
3 13 53 52
3 92 54 93
3 94 93 29
3 92 93 94
3 96 95 54
3 14 97 98
3 15 99 101
3 101 100 14
3 99 100 101
3 15 102 103
3 15 104 106
3 104 16 105
3 104 105 106
3 17 16 15
3 17 4 16
3 18 107 108
3 19 109 111
3 111 110 18
3 109 110 111
3 19 112 113
3 19 114 115
3 20 116 118
3 118 117 19
3 116 117 118
3 20 119 121
3 119 5 120
3 119 120 121
3 122 6 123
3 124 21 125
3 22 126 128
3 126 21 127
3 126 127 128
3 22 7 21
3 129 8 130
3 131 23 132
3 133 132 8
3 131 132 133
3 134 23 135
3 136 9 137
3 138 137 23
3 136 137 138
3 139 24 140
3 25 141 143
3 141 24 142
3 141 142 143
3 25 10 24
3 25 26 10
3 27 26 25
3 27 11 26
3 144 12 145
3 146 28 147
3 148 147 12
3 146 147 148
3 149 28 150
3 151 13 152
3 153 152 28
3 151 152 153
3 154 29 155
3 156 155 13
3 154 155 156
3 157 29 158
3 160 159 29
3 16 161 162
3 164 163 16
3 30 165 166
3 30 167 168
3 31 169 170
3 31 171 173
3 171 2 172
3 171 172 173
3 174 3 175
3 32 176 177
3 32 178 179
3 32 180 182
3 180 18 181
3 180 181 182
3 33 18 32
3 33 1 18
3 21 183 184
3 34 185 187
3 187 186 21
3 185 186 187
3 34 188 189
3 34 190 192
3 190 14 191
3 190 191 192
3 35 14 34
3 35 0 14
3 193 6 194
3 36 195 196
3 36 197 199
3 197 6 198
3 197 198 199
3 36 33 6
3 37 33 36
3 37 1 33
3 200 37 201
3 38 202 204
3 202 37 203
3 202 203 204
3 38 1 37
3 38 20 1
3 39 20 38
3 39 5 20
3 23 39 8
3 40 39 23
3 40 5 39
3 40 31 5
3 41 31 40
3 41 2 31
3 42 205 206
3 42 207 209
3 207 9 208
3 207 208 209
3 24 210 212
3 210 42 211
3 210 211 212
3 43 42 24
3 43 9 42
3 43 41 9
3 44 41 43
3 44 2 41
3 44 22 2
3 45 22 44
3 45 7 22
3 26 45 10
3 46 45 26
3 46 7 45
3 46 35 7
3 47 35 46
3 47 0 35
3 213 3 214
3 48 215 216
3 48 217 218
3 48 219 220
3 49 221 223
3 223 222 48
3 221 222 223
3 49 224 226
3 224 3 225
3 224 225 226
3 49 27 3
3 50 27 49
3 50 11 27
3 28 50 12
3 51 50 28
3 51 11 50
3 51 47 11
3 52 47 51
3 52 0 47
3 52 17 0
3 53 17 52
3 53 4 17
3 29 53 13
3 54 53 29
3 54 4 53
3 54 30 4
3 227 30 228
3 229 228 54
3 227 228 229
3 231 230 30
