ply
format ascii 1.0
element vertex 169
property float x
property float y
property float z
element face 147
property list uchar int vertex_index
end_header
-21.292746 -73.068146 -25.844028
-17.252865 -75.573921 -33.167027
-19.742313 -74.656525 -29.597338
-21.951559 -70.732216 -22.265678
-21.990774 -79.724236 -26.280697
-19.916735 -81.190826 -30.187141
-16.767408 -81.77935 -33.855625
-13.451009 -86.817162 -36.082664
-22.195551 -75.246323 -24.108192
-22.640213 -78.529495 -24.180038
-21.720446 -76.546204 -26.009121
-18.659367 -75.442909 -31.385361
-19.893919 -78.0215 -29.895489
-18.58736 -78.567101 -31.772825
-18.54052 -81.857162 -31.987946
-17.160315 -78.94812 -33.435112
-23.213634 -84.68856 -24.45204
-20.268089 -70.715614 -27.561176
-20.66787 -73.997719 -27.673836
-19.484419 -71.43634 -29.370575
-18.502384 -72.161011 -31.147856
-21.72337 -72.083908 -24.040312
-20.784771 -69.742653 -25.860188
-22.933664 -81.659401 -24.430567
-22.192379 -82.875366 -26.479107
-20.899126 -77.223534 -28.012869
-21.098984 -80.533249 -28.23456
-21.142494 -83.652725 -28.508629
-19.904095 -84.220032 -30.362686
-18.264381 -84.722946 -32.297852
-16.277 -84.561882 -34.204288
-15.413129 -78.752327 -35.115692
-14.735068 -81.560982 -35.619049
-14.189392 -84.224419 -35.864094
-14.603845 -87.038014 -35.24221
-14.138827 -88.28648 -35.400611
-23.521712 -84.111488 -23.393989
-23.667446 -85.581039 -23.374609
-19.311575 -69.762783 -29.279466
-19.876254 -71.075977 -28.465875
-19.70341 -69.40242 -28.374766
-17.813707 -70.539608 -31.881276
-18.397025 -70.477024 -31.006208
-17.870107 -72.241928 -32.021016
-17.813707 -70.539608 -31.881276
-22.233597 -72.37611 -22.232786
-22.300481 -71.689099 -21.357568
-21.837464 -71.408062 -23.152995
-22.119502 -73.051956 -23.120103
-22.233597 -72.37611 -22.232786
-20.519256 -68.131253 -25.908666
-20.989351 -69.29969 -24.966439
-20.291319 -68.578476 -26.703055
-20.519256 -68.131253 -25.908666
-14.562881 -77.052105 -35.831629
-15.563217 -77.161655 -34.953072
-13.664207 -81.298699 -36.402969
-13.975 -79.897671 -36.251651
-13.391369 -82.630417 -36.525492
-14.46223 -82.8927 -35.741571
-13.664207 -81.298699 -36.402969
-13.073673 -83.962567 -36.614815
-13.391369 -82.630417 -36.525492
-12.963209 -88.041599 -36.170272
-14.138827 -88.28648 -35.400611
-12.130448 -86.476143 -36.88623
-12.963209 -88.041599 -36.170272
-22.021448 -70.150917 -21.457729
-22.300481 -71.689099 -21.357568
-22.417882 -76.887909 -24.144115
-22.843515 -77.879452 -23.140801
-22.621184 -76.237865 -23.104878
-23.278236 -86.216243 -24.510001
-23.667446 -85.581039 -23.374609
-22.772145 -85.284339 -25.514227
-23.278236 -86.216243 -24.510001
-18.888042 -70.114688 -30.117567
-19.311575 -69.762783 -29.279466
-18.715198 -68.441131 -30.026457
-18.993401 -71.798676 -30.259215
-18.888042 -70.114688 -30.117567
-18.397025 -70.477024 -31.006208
-17.948599 -73.882877 -32.139769
-18.580875 -73.80196 -31.266609
-17.870107 -72.241928 -32.021016
-17.245348 -73.948383 -33.030602
-17.956116 -75.508415 -32.276194
-17.948599 -73.882877 -32.139769
-22.355593 -74.633163 -23.154043
-22.621184 -76.237865 -23.104878
-21.95946 -73.665115 -24.074252
-22.355593 -74.633163 -23.154043
-22.119502 -73.051956 -23.120103
-21.67172 -69.115643 -22.345373
-22.021448 -70.150917 -21.457729
-21.741609 -68.534344 -21.537424
-21.572745 -69.794472 -23.169185
-21.67172 -69.115643 -22.345373
-21.458651 -70.470318 -24.056501
-21.837464 -71.408062 -23.152995
-21.572745 -69.794472 -23.169185
-21.25407 -70.91328 -24.95025
-21.458651 -70.470318 -24.056501
-20.989351 -69.29969 -24.966439
-20.032978 -69.064956 -27.553549
-20.52643 -70.229134 -26.710682
-20.291319 -68.578476 -26.703055
-19.70341 -69.40242 -28.374766
-20.032978 -69.064956 -27.553549
-23.046625 -79.438076 -23.218703
-23.249927 -78.788032 -22.179466
-22.843515 -77.879452 -23.140801
-23.193351 -81.003029 -23.343967
-23.046625 -79.438076 -23.218703
-22.786938 -80.094448 -24.305302
-23.381727 -82.596908 -23.383253
-23.193351 -81.003029 -23.343967
-23.073649 -83.17398 -24.441304
-23.521712 -84.111488 -23.393989
-23.381727 -82.596908 -23.383253
-22.261518 -84.377742 -26.52776
-22.772145 -85.284339 -25.514227
-22.703007 -83.781963 -25.465573
-21.736575 -84.766422 -27.542521
-22.261518 -84.377742 -26.52776
-21.667437 -83.264046 -27.493868
-21.154494 -85.171505 -28.556233
-21.736575 -84.766422 -27.542521
-20.535294 -85.455159 -29.483262
-21.154494 -85.171505 -28.556233
-20.523294 -83.936379 -29.435657
-19.804274 -85.761612 -30.467937
-20.535294 -85.455159 -29.483262
-18.984417 -86.013069 -31.43552
-19.804274 -85.761612 -30.467937
-19.084238 -84.471489 -31.330269
-18.046443 -86.04438 -32.446276
-18.984417 -86.013069 -31.43552
-17.052753 -85.963848 -33.399494
-18.046443 -86.04438 -32.446276
-17.270691 -84.642414 -33.25107
-16.016841 -85.910373 -34.303022
-17.052753 -85.963848 -33.399494
-16.497667 -73.973053 -33.886726
-17.245348 -73.948383 -33.030602
-16.483085 -75.572452 -33.978739
-16.497667 -73.973053 -33.886726
-16.43681 -77.259552 -34.112781
-17.20659 -77.261021 -33.301069
-16.483085 -75.572452 -33.978739
-16.286722 -78.850223 -34.275402
-16.43681 -77.259552 -34.112781
-15.563217 -77.161655 -34.953072
-14.31403 -78.493343 -35.999973
-14.562881 -77.052105 -35.831629
-15.074098 -80.156655 -35.36737
-14.31403 -78.493343 -35.999973
-13.975 -79.897671 -36.251651
-14.973036 -85.741642 -35.132925
-16.016841 -85.910373 -34.303022
-15.233196 -84.39315 -35.034191
-13.820201 -85.520791 -35.973379
-14.603845 -87.038014 -35.24221
-14.973036 -85.741642 -35.132925
-12.704481 -85.258938 -36.7241
-13.820201 -85.520791 -35.973379
-13.073673 -83.962567 -36.614815
-12.130448 -86.476143 -36.88623
-12.704481 -85.258938 -36.7241
3 34 7 35
3 0 10 8
3 1 13 11
3 1 15 13
3 36 16 37
3 38 19 39
3 40 39 17
3 38 39 40
3 41 20 42
3 44 43 20
3 3 45 46
3 3 47 49
3 47 21 48
3 47 48 49
3 50 22 51
3 53 52 22
3 4 23 9
3 4 24 23
3 2 25 18
3 5 26 12
3 5 27 26
3 5 28 27
3 6 29 14
3 6 30 29
3 54 31 55
3 56 32 57
3 58 33 59
3 60 59 32
3 58 59 60
3 62 61 33
3 7 63 64
3 7 65 66
3 67 3 68
3 8 69 71
3 69 9 70
3 69 70 71
3 10 9 8
3 10 4 9
3 11 12 2
3 13 12 11
3 13 5 12
3 13 14 5
3 15 14 13
3 15 6 14
3 16 72 73
3 16 74 75
3 17 18 0
3 19 18 17
3 19 2 18
3 76 19 77
3 76 77 78
3 20 79 81
3 79 19 80
3 79 80 81
3 20 2 19
3 20 11 2
3 82 11 83
3 84 83 20
3 82 83 84
3 85 1 86
3 87 86 11
3 85 86 87
3 88 8 89
3 21 90 92
3 90 8 91
3 90 91 92
3 21 0 8
3 93 3 94
3 93 94 95
3 96 3 97
3 98 21 99
3 100 99 3
3 98 99 100
3 22 101 103
3 101 21 102
3 101 102 103
3 22 0 21
3 22 17 0
3 104 17 105
3 106 105 22
3 104 105 106
3 108 107 17
3 9 109 111
3 109 110 111
3 23 112 114
3 114 113 9
3 112 113 114
3 23 115 116
3 23 117 119
3 117 16 118
3 117 118 119
3 24 16 23
3 24 120 122
3 122 121 16
3 120 121 122
3 18 10 0
3 25 10 18
3 25 4 10
3 12 25 2
3 26 25 12
3 26 4 25
3 26 24 4
3 27 24 26
3 27 123 125
3 125 124 24
3 123 124 125
3 27 126 127
3 28 128 130
3 130 129 27
3 128 129 130
3 28 131 132
3 14 28 5
3 29 28 14
3 29 133 135
3 135 134 28
3 133 134 135
3 29 136 137
3 30 138 140
3 140 139 29
3 138 139 140
3 30 141 142
3 143 1 144
3 145 1 146
3 147 15 148
3 149 148 1
3 147 148 149
3 31 150 152
3 150 15 151
3 150 151 152
3 31 6 15
3 153 31 154
3 32 155 157
3 155 31 156
3 155 156 157
3 32 6 31
3 32 30 6
3 33 30 32
3 33 158 160
3 160 159 30
3 158 159 160
3 33 161 163
3 161 7 162
3 161 162 163
3 164 7 165
3 166 165 33
3 164 165 166
3 168 167 7
