ply
format ascii 1.0
element vertex 278
property float x
property float y
property float z
element face 259
property list uchar int vertex_index
end_header
-11.644792 -50.290253 -50.716774
-20.368896 -48.652779 -51.138393
-19.038015 -34.023529 -56.430283
-16.433535 -19.774059 -61.522663
-9.220489 -20.672253 -59.134983
-3.623931 -20.480474 -56.128201
-19.797119 -41.395226 -53.808765
-10.347265 -27.411209 -57.004536
-15.908419 -49.393059 -51.333698
-15.596308 -42.041618 -53.544415
-15.008171 -34.774292 -55.77737
-18.035213 -26.700003 -59.047825
-14.14992 -27.223017 -58.221031
-12.654007 -20.124052 -60.543137
-10.916285 -14.121056 -62.532845
-7.965026 -15.035209 -60.989983
-6.255561 -20.72658 -57.71521
-5.532864 -14.918756 -59.731121
-10.8951 -30.995068 -55.965652
-9.630426 -49.951298 -50.38229
-11.738124 -46.125443 -51.780319
-22.357233 -48.172939 -50.804646
-18.196682 -49.007175 -51.347927
-19.566303 -37.443657 -55.218647
-17.738365 -41.501339 -53.841896
-17.446541 -38.018055 -54.988239
-15.524817 -38.269047 -54.722
-17.038942 -34.176601 -56.257977
-17.333475 -23.007454 -60.383163
-16.086992 -26.858742 -58.740253
-15.351362 -23.562218 -59.850536
-13.380198 -23.822151 -59.296257
-14.506966 -20.124405 -61.016026
-12.573621 -13.600041 -63.237255
-8.282699 -24.007294 -57.426285
-6.681116 -23.853331 -56.726383
-7.767795 -20.665674 -58.50082
-7.186303 -17.832533 -59.39785
-8.60975 -17.556103 -60.175407
-4.678249 -17.630632 -58.009796
-20.173035 -44.924473 -52.51709
-15.353804 -16.356434 -62.709679
-8.661219 -27.641798 -56.262844
-9.90476 -23.840937 -58.158379
-13.831257 -49.823128 -51.120155
-17.983139 -45.441158 -52.535282
-15.914693 -45.547909 -52.492146
-13.752273 -45.930809 -52.181141
-13.604139 -42.133579 -53.239819
-13.447295 -38.471313 -54.301701
-13.110537 -34.467857 -55.482433
-18.547195 -30.458036 -57.693859
-16.494661 -30.525164 -57.469593
-14.590939 -30.857952 -57.025776
-12.691176 -30.773354 -56.596489
-12.194607 -27.286283 -57.670605
-11.64592 -23.797041 -58.792408
-10.89261 -20.702879 -59.752899
-13.522465 -16.667446 -62.186558
-11.803748 -17.151613 -61.511784
-10.193501 -17.575851 -60.797485
-9.39581 -14.555834 -61.80608
-5.161162 -23.751949 -55.936134
-4.852588 -20.710621 -56.893307
-5.879116 -17.862352 -58.678337
-6.677036 -15.049882 -60.344715
-6.232346 -12.478829 -61.247086
-11.048077 -32.84075 -55.421999
-10.10124 -32.899485 -55.079611
-10.637609 -50.120776 -50.549532
-9.551579 -51.932732 -49.937259
-10.558763 -52.102209 -50.104501
-20.352923 -50.495018 -50.457454
-21.347092 -50.255098 -50.290581
-21.363065 -48.412859 -50.971519
-19.373931 -50.618298 -50.635271
-20.352923 -50.495018 -50.457454
-19.282789 -48.829977 -51.24316
-18.287824 -50.795496 -50.740038
-19.373931 -50.618298 -50.635271
-16.883505 -21.390757 -60.952913
-17.850892 -21.098751 -61.184326
-17.400922 -19.482053 -61.754076
-3.555725 -18.867914 -56.694977
-3.044831 -20.221199 -55.749752
-4.15109 -19.055553 -57.068998
-4.082884 -17.442993 -57.635774
-3.555725 -18.867914 -56.694977
-9.504242 -27.526504 -56.63369
-8.852405 -29.488788 -55.716875
-9.695429 -29.373493 -56.087721
-14.949322 -51.4711 -50.732671
-16.041547 -51.225886 -50.785339
-14.869838 -49.608093 -51.226926
-13.910741 -51.686134 -50.6259
-14.949322 -51.4711 -50.732671
-19.00977 -26.481126 -59.181568
-18.617309 -24.824425 -59.808434
-18.291204 -28.57902 -58.370842
-19.265761 -28.360143 -58.504585
-19.00977 -26.481126 -59.181568
-13.92283 -14.930674 -63.002697
-14.438135 -16.51194 -62.448118
-14.8385 -14.775168 -63.264257
-7.646636 -13.755559 -61.415245
-7.002641 -13.762895 -61.092612
-7.321031 -15.042545 -60.667349
-5.363779 -13.562458 -60.213859
-4.961317 -14.715042 -59.417217
-5.882605 -13.698792 -60.489103
-5.71352 -12.342495 -60.971842
-5.363779 -13.562458 -60.213859
-9.969346 -31.165422 -55.568279
-10.10124 -32.899485 -55.079611
-10.621182 -29.203139 -56.485094
-9.695429 -29.373493 -56.087721
-9.969346 -31.165422 -55.568279
-8.546786 -51.897436 -49.703003
-9.551579 -51.932732 -49.937259
-8.653319 -49.942547 -50.117514
-8.546786 -51.897436 -49.703003
-9.64379 -48.013618 -50.835867
-8.653319 -49.942547 -50.117514
-10.697639 -46.100691 -51.534881
-9.64379 -48.013618 -50.835867
-10.684275 -48.03837 -51.081305
-11.695901 -44.194399 -52.287893
-10.697639 -46.100691 -51.534881
-22.416125 -49.856495 -50.089427
-23.467385 -49.516621 -49.845356
-23.408493 -47.833065 -50.560575
-22.416125 -49.856495 -50.089427
-21.347092 -50.255098 -50.290581
-17.185679 -51.032944 -50.792454
-18.287824 -50.795496 -50.740038
-17.05255 -49.200117 -51.340812
-16.041547 -51.225886 -50.785339
-17.185679 -51.032944 -50.792454
-18.266441 -22.97815 -60.476103
-18.783857 -21.069448 -61.277265
-17.850892 -21.098751 -61.184326
-17.684344 -24.853728 -59.715494
-18.617309 -24.824425 -59.808434
-18.266441 -22.97815 -60.476103
-12.890448 -11.928755 -64.033602
-13.448408 -13.396971 -63.528045
-12.008564 -12.232181 -63.67679
-12.890448 -11.928755 -64.033602
-11.179896 -12.492688 -63.324585
-11.744953 -13.860549 -62.88505
-12.008564 -12.232181 -63.67679
-10.39781 -12.761893 -62.959391
-11.179896 -12.492688 -63.324585
-7.481908 -23.930312 -57.076334
-6.866266 -25.605811 -56.18477
-7.667057 -25.682792 -56.534722
-4.534009 -16.07098 -58.556555
-4.082884 -17.442993 -57.635774
-5.105557 -16.274694 -58.870458
-4.961317 -14.715042 -59.417217
-4.534009 -16.07098 -58.556555
-11.660721 -52.133627 -50.279371
-10.558763 -52.102209 -50.104501
-23.320691 -46.147651 -51.319847
-23.408493 -47.833065 -50.560575
-22.296971 -46.338296 -51.542523
-23.320691 -46.147651 -51.319847
-21.302802 -46.578216 -51.709396
-21.363065 -48.412859 -50.971519
-22.296971 -46.338296 -51.542523
-21.204871 -44.714063 -52.398745
-20.270965 -46.788626 -51.827742
-21.302802 -46.578216 -51.709396
-21.100261 -42.829966 -53.141749
-21.204871 -44.714063 -52.398745
-20.912303 -41.065342 -53.787586
-19.985077 -43.159849 -53.162928
-21.100261 -42.829966 -53.141749
-20.6772 -39.375903 -54.456032
-20.912303 -41.065342 -53.787586
-20.561792 -37.400118 -55.160972
-19.681711 -39.419442 -54.513706
-20.6772 -39.375903 -54.456032
-20.374033 -35.5637 -55.859449
-20.561792 -37.400118 -55.160972
-21.369522 -35.520161 -55.801775
-20.109889 -33.853636 -56.465268
-19.302159 -35.733593 -55.824465
-20.374033 -35.5637 -55.859449
-16.863855 -17.741472 -62.391846
-17.400922 -19.482053 -61.754076
-16.323989 -16.03266 -62.985354
-15.893669 -18.065247 -62.116171
-16.863855 -17.741472 -62.391846
-15.729398 -14.46553 -63.545872
-16.323989 -16.03266 -62.985354
-16.699583 -14.141756 -63.821546
-14.8385 -14.775168 -63.264257
-15.729398 -14.46553 -63.545872
-8.01278 -29.334505 -55.414545
-8.852405 -29.488788 -55.716875
-7.856317 -27.500044 -55.953001
-8.01278 -29.334505 -55.414545
-8.471959 -25.824546 -56.844565
-7.667057 -25.682792 -56.534722
-7.856317 -27.500044 -55.953001
-3.132452 -21.765641 -55.291203
-3.044831 -20.221199 -55.749752
-12.753954 -51.900064 -50.481062
-13.910741 -51.686134 -50.6259
-12.738025 -50.056691 -50.918464
-11.660721 -52.133627 -50.279371
-12.753954 -51.900064 -50.481062
-12.628908 -42.198467 -53.017643
-11.695901 -44.194399 -52.287893
-12.671131 -44.129511 -52.510069
-12.550486 -40.367334 -53.548584
-12.628908 -42.198467 -53.017643
-13.525717 -40.302446 -53.77076
-12.429589 -38.526918 -54.036625
-12.550486 -40.367334 -53.548584
-12.26121 -36.52519 -54.626991
-12.429589 -38.526918 -54.036625
-13.278916 -36.469585 -54.892067
-12.155795 -34.577145 -55.180389
-12.26121 -36.52519 -54.626991
-19.834798 -31.970618 -57.179257
-20.109889 -33.853636 -56.465268
-19.589388 -30.187871 -57.811045
-19.265761 -28.360143 -58.504585
-18.792605 -32.240783 -57.062071
-19.834798 -31.970618 -57.179257
-19.589388 -30.187871 -57.811045
-11.946115 -32.729893 -55.737417
-12.155795 -34.577145 -55.180389
-12.900856 -32.620606 -56.039461
-11.793138 -30.884211 -56.28107
-11.048077 -32.84075 -55.421999
-11.946115 -32.729893 -55.737417
-13.048043 -15.133744 -62.711906
-13.92283 -14.930674 -63.002697
-13.448408 -13.396971 -63.528045
-9.637573 -12.979282 -62.596008
-10.156047 -14.338445 -62.169463
-10.39781 -12.761893 -62.959391
-8.962065 -13.310665 -62.18853
-9.637573 -12.979282 -62.596008
-8.246672 -13.550352 -61.780482
-8.680418 -14.795521 -61.398032
-8.962065 -13.310665 -62.18853
-7.646636 -13.755559 -61.415245
-8.246672 -13.550352 -61.780482
-3.730393 -22.020647 -55.64497
-3.132452 -21.765641 -55.291203
-6.077231 -25.565357 -55.798973
-6.866266 -25.605811 -56.18477
-5.317254 -25.514665 -55.403849
-6.077231 -25.565357 -55.798973
-5.921139 -23.80264 -56.331259
-4.598392 -25.260285 -55.069648
-5.317254 -25.514665 -55.403849
-4.499009 -23.656385 -55.548936
-4.598392 -25.260285 -55.069648
-4.344722 -22.13572 -56.027523
-4.499009 -23.656385 -55.548936
-5.006875 -22.231285 -56.414721
-4.238259 -20.595548 -56.510754
-3.730393 -22.020647 -55.64497
-4.344722 -22.13572 -56.027523
-6.780295 -12.477369 -61.543797
-6.454691 -13.764356 -60.795901
-7.002641 -13.762895 -61.092612
-6.538015 -11.612049 -61.815314
-6.780295 -12.477369 -61.543797
-6.113675 -11.410262 -61.655442
-5.71352 -12.342495 -60.971842
-6.538015 -11.612049 -61.815314
-6.113675 -11.410262 -61.655442
3 67 18 68
3 0 69 71
3 69 19 70
3 69 70 71
3 0 20 19
3 1 72 74
3 74 73 21
3 72 73 74
3 1 75 76
3 1 77 79
3 77 22 78
3 77 78 79
3 2 25 23
3 2 27 25
3 3 80 82
3 80 28 81
3 80 81 82
3 3 30 28
3 3 32 30
3 4 36 34
3 4 38 36
3 5 83 84
3 5 85 87
3 85 39 86
3 85 86 87
3 7 88 90
3 88 42 89
3 88 89 90
3 7 43 42
3 8 91 92
3 8 93 95
3 93 44 94
3 93 94 95
3 6 45 40
3 9 46 24
3 9 47 46
3 9 48 47
3 10 49 26
3 10 50 49
3 11 96 97
3 11 98 100
3 98 51 99
3 98 99 100
3 11 52 51
3 12 53 29
3 12 54 53
3 12 55 54
3 13 56 31
3 13 57 56
3 101 58 102
3 103 102 41
3 101 102 103
3 14 59 33
3 14 60 59
3 14 61 60
3 16 62 35
3 16 63 62
3 16 64 63
3 15 65 37
3 15 104 106
3 106 105 65
3 104 105 106
3 17 107 108
3 17 109 111
3 109 66 110
3 109 110 111
3 18 112 113
3 18 114 116
3 114 7 115
3 114 115 116
3 19 117 118
3 19 119 120
3 19 121 122
3 20 123 125
3 125 124 19
3 123 124 125
3 20 126 127
3 21 128 130
3 128 129 130
3 132 131 21
3 22 133 134
3 22 135 137
3 135 8 136
3 135 136 137
3 23 24 6
3 25 24 23
3 25 9 24
3 25 26 9
3 27 26 25
3 27 10 26
3 28 138 140
3 138 139 140
3 28 141 143
3 141 11 142
3 141 142 143
3 28 29 11
3 30 29 28
3 30 12 29
3 30 31 12
3 32 31 30
3 32 13 31
3 144 33 145
3 146 33 147
3 148 14 149
3 150 149 33
3 148 149 150
3 152 151 14
3 34 153 155
3 153 35 154
3 153 154 155
3 36 35 34
3 36 16 35
3 36 37 16
3 38 37 36
3 38 15 37
3 39 156 157
3 39 158 160
3 158 17 159
3 158 159 160
3 161 0 162
3 163 21 164
3 165 21 166
3 167 1 168
3 169 168 21
3 167 168 169
3 170 40 171
3 172 171 1
3 170 171 172
3 173 40 174
3 175 6 176
3 177 176 40
3 175 176 177
3 178 6 179
3 180 23 181
3 182 181 6
3 180 181 182
3 183 23 184
3 183 184 185
3 186 2 187
3 188 187 23
3 186 187 188
3 189 3 190
3 191 41 192
3 193 192 3
3 191 192 193
3 194 41 195
3 194 195 196
3 198 197 41
3 42 199 200
3 42 201 202
3 42 203 205
3 203 34 204
3 203 204 205
3 43 34 42
3 43 4 34
3 206 5 207
3 44 208 209
3 44 210 212
3 210 0 211
3 210 211 212
3 40 22 1
3 45 22 40
3 45 8 22
3 24 45 6
3 46 45 24
3 46 8 45
3 46 44 8
3 47 44 46
3 47 0 44
3 47 20 0
3 48 20 47
3 48 213 215
3 215 214 20
3 213 214 215
3 26 48 9
3 49 48 26
3 49 216 218
3 218 217 48
3 216 217 218
3 49 219 220
3 50 221 223
3 223 222 49
3 221 222 223
3 50 224 225
3 226 2 227
3 51 228 229
3 51 230 232
3 230 2 231
3 230 231 232
3 51 27 2
3 52 27 51
3 52 10 27
3 29 52 11
3 53 52 29
3 53 10 52
3 53 50 10
3 54 50 53
3 54 233 235
3 235 234 50
3 233 234 235
3 54 236 238
3 236 18 237
3 236 237 238
3 55 18 54
3 55 7 18
3 31 55 12
3 56 55 31
3 56 7 55
3 56 43 7
3 57 43 56
3 57 4 43
3 41 32 3
3 58 32 41
3 58 13 32
3 33 239 241
3 239 58 240
3 239 240 241
3 59 58 33
3 59 13 58
3 59 57 13
3 60 57 59
3 60 4 57
3 60 38 4
3 61 38 60
3 61 15 38
3 242 61 243
3 244 243 14
3 242 243 244
3 245 61 246
3 247 15 248
3 249 248 61
3 247 248 249
3 251 250 15
3 252 5 253
3 35 254 255
3 62 256 258
3 258 257 35
3 256 257 258
3 62 259 260
3 62 261 262
3 63 263 265
3 265 264 62
3 263 264 265
3 63 266 268
3 266 5 267
3 266 267 268
3 63 39 5
3 64 39 63
3 64 17 39
3 37 64 16
3 65 64 37
3 65 17 64
3 65 66 17
3 269 66 270
3 271 270 65
3 269 270 271
3 273 272 66
3 66 274 275
3 66 276 277
