ply
format ascii 1.0
element vertex 200
property float x
property float y
property float z
element face 196
property list uchar int vertex_index
end_header
-10.057684 75.500885 -36.069984
-10.481638 85.392593 -33.229332
-3.703894 82.724983 -41.263294
-9.898586 89.508171 -30.724237
-6.402965 89.594193 -35.379047
-13.47189 84.828743 -28.69005
-9.439204 70.031128 -36.483856
-7.347888 73.580124 -39.45919
-12.712161 76.065399 -32.195244
-10.54792 80.51181 -34.97044
-7.383429 79.283424 -38.865128
-7.174828 84.725716 -37.473694
-2.726098 88.356682 -39.56776
-13.309158 80.754715 -30.896868
-7.774937 91.817268 -31.359959
-11.364575 89.269501 -28.195992
-9.761084 72.735992 -36.335934
-8.514183 71.983841 -38.013641
-8.733464 74.69207 -37.790123
-11.407918 75.885155 -34.179047
-12.217752 73.75795 -32.703129
-10.990214 73.304268 -34.569389
-10.55768 70.834579 -34.834972
-10.507637 83.142448 -34.255684
-8.98012 82.595497 -36.327492
-8.749706 85.267235 -35.498844
-4.080266 91.517609 -36.20298
-4.651441 89.119644 -37.483986
-2.302559 91.007637 -38.193501
-12.027311 85.355888 -30.924883
-13.482472 82.954926 -29.825516
-12.11084 83.121323 -32.001137
-11.923061 80.913383 -32.987633
-5.590317 80.994759 -40.208088
-5.787256 78.26725 -40.57375
-10.223072 87.588699 -32.07922
-8.608879 87.626839 -34.254837
-8.076806 89.902832 -33.068192
-5.918275 91.831856 -33.902725
-13.270989 86.703285 -27.27462
-11.82733 87.308884 -29.647316
-9.13873 67.315514 -36.552589
-8.323514 69.127014 -38.069057
-10.239335 68.154869 -34.791508
-10.35761 78.054276 -35.581688
-8.823518 77.389091 -37.54858
-8.942876 80.084793 -37.020748
-7.203148 82.117836 -38.389534
-5.339705 83.958374 -39.515793
-6.780218 87.277794 -36.57077
-5.014595 86.543365 -38.665421
-3.215183 85.468063 -40.632065
-13.028385 78.348747 -31.703077
-11.715031 78.448624 -33.678337
-7.344409 76.471634 -39.279064
-5.887982 75.267906 -40.863308
-1.894051 92.219124 -37.531931
-3.191413 91.262623 -37.19824
-2.782904 92.47411 -36.53667
-1.063214 91.704445 -38.614645
-1.894051 92.219124 -37.531931
-3.792953 81.260166 -41.574549
-4.736164 80.395054 -41.046945
-4.647106 81.859871 -40.735691
-5.665387 92.859448 -32.978878
-6.846606 91.824562 -32.631342
-6.593718 92.852154 -31.707495
-4.690581 92.828358 -34.225656
-5.665387 92.859448 -32.978878
-13.079929 87.535923 -26.522002
-13.916196 86.306434 -26.085583
-13.725136 87.139072 -25.332964
-7.288769 72.266762 -39.540829
-7.871916 71.468621 -38.818054
-7.931036 72.781982 -38.736415
-6.649771 73.062324 -40.235918
-7.288769 72.266762 -39.540829
-13.080342 74.840359 -31.4241
-13.32115 76.011807 -31.206998
-12.5127 72.586685 -31.937479
-11.95472 72.529953 -32.876732
-1.798088 87.703675 -40.557323
-2.042631 86.259365 -41.089475
-2.970641 86.912373 -40.099913
-14.119594 83.622883 -28.176533
-14.08772 84.563534 -27.569716
-13.975441 80.506615 -29.813771
-14.062098 81.60672 -29.278095
-13.395815 81.854821 -30.361192
-13.79465 79.521107 -30.278754
-13.975441 80.506615 -29.813771
-13.168772 79.551731 -31.299973
-13.654264 78.318123 -30.681859
-13.79465 79.521107 -30.278754
-5.083033 76.113502 -41.470585
-5.837619 76.767578 -40.718529
-5.032671 77.613174 -41.325806
-5.107359 74.579502 -41.641824
-5.083033 76.113502 -41.470585
-8.643545 91.586772 -30.133063
-8.836761 90.66272 -31.042098
-9.705369 90.432224 -29.815202
-7.459125 92.742546 -30.464436
-8.643545 91.586772 -30.133063
-8.327732 92.512051 -29.237541
-6.593718 92.852154 -31.707495
-7.459125 92.742546 -30.464436
-11.178428 90.030342 -27.290729
-12.126722 88.819031 -26.982688
-10.438364 90.312889 -28.55108
-11.178428 90.030342 -27.290729
-9.705369 90.432224 -29.815202
-10.631581 89.388836 -29.460114
-10.438364 90.312889 -28.55108
-11.340951 72.303112 -33.809862
-11.95472 72.529953 -32.876732
-11.603983 73.531109 -33.636259
-10.773947 72.069423 -34.70218
-11.124684 71.068268 -33.942653
-11.340951 72.303112 -33.809862
-1.362979 90.442444 -39.26372
-1.574748 89.116967 -39.95085
-2.514328 89.68216 -38.88063
-1.362979 90.442444 -39.26372
-1.063214 91.704445 -38.614645
-4.834633 79.0313 -41.229776
-5.688786 79.631005 -40.390919
-4.736164 80.395054 -41.046945
-5.032671 77.613174 -41.325806
-4.834633 79.0313 -41.229776
-3.771576 92.671234 -35.375784
-4.99927 91.674733 -35.052853
-4.690581 92.828358 -34.225656
-2.782904 92.47411 -36.53667
-3.771576 92.671234 -35.375784
-13.98727 85.500805 -26.862001
-13.916196 86.306434 -26.085583
-13.37144 85.766014 -27.982335
-14.08772 84.563534 -27.569716
-13.98727 85.500805 -26.862001
-12.317782 87.986393 -27.735306
-13.079929 87.535923 -26.522002
-12.126722 88.819031 -26.982688
-8.596388 66.875343 -37.396568
-8.971491 65.950592 -36.637338
-8.188779 67.781093 -38.154802
-8.596388 66.875343 -37.396568
-8.731122 68.221264 -37.310823
-7.736042 68.593418 -38.867937
-8.188779 67.781093 -38.154802
-7.776582 70.040207 -38.845762
-8.418848 70.555428 -38.041349
-7.871916 71.468621 -38.818054
-7.736042 68.593418 -38.867937
-7.776582 70.040207 -38.845762
-2.783523 82.019722 -42.112077
-2.53293 83.48693 -41.825079
-12.833137 73.686634 -31.678042
-13.080342 74.840359 -31.4241
-12.464956 74.911675 -32.449186
-12.833137 73.686634 -31.678042
-12.5127 72.586685 -31.937479
-10.890097 69.783703 -34.004514
-11.124684 71.068268 -33.942653
-10.730925 68.443848 -33.982782
-10.890097 69.783703 -34.004514
-10.398508 69.494724 -34.81324
-10.464089 67.055004 -34.072539
-10.730925 68.443848 -33.982782
-9.974919 66.822056 -34.973562
-10.464089 67.055004 -34.072539
-9.424616 66.402378 -35.854103
-9.974919 66.822056 -34.973562
-9.689032 67.735191 -35.672049
-8.971491 65.950592 -36.637338
-9.424616 66.402378 -35.854103
-2.288575 84.858471 -41.509464
-2.53293 83.48693 -41.825079
-3.459538 84.096523 -40.947679
-2.288575 84.858471 -41.509464
-2.042631 86.259365 -41.089475
-1.798088 87.703675 -40.557323
-1.574748 89.116967 -39.95085
-14.124885 82.685975 -28.744266
-14.119594 83.622883 -28.176533
-13.477181 83.891835 -29.257783
-14.124885 82.685975 -28.744266
-14.062098 81.60672 -29.278095
-13.479262 77.153481 -30.960915
-13.654264 78.318123 -30.681859
-12.870273 77.207073 -31.949161
-13.32115 76.011807 -31.206998
-13.479262 77.153481 -30.960915
-5.919818 73.906216 -40.937977
-6.649771 73.062324 -40.235918
-6.617935 74.424015 -40.161249
-5.919818 73.906216 -40.937977
-5.107359 74.579502 -41.641824
-3.792953 81.260166 -41.574549
-2.783523 82.019722 -42.112077
3 0 18 16
3 0 21 19
3 0 16 21
3 1 25 23
3 56 28 57
3 58 57 26
3 56 57 58
3 60 59 28
3 1 31 29
3 1 23 31
3 2 61 63
3 63 62 33
3 61 62 63
3 3 37 35
3 64 38 65
3 66 65 14
3 64 65 66
3 68 67 38
3 69 39 70
3 69 70 71
3 3 40 15
3 3 35 40
3 6 42 41
3 7 72 74
3 74 73 17
3 72 73 74
3 7 75 76
3 8 77 78
3 80 79 20
3 6 43 22
3 6 41 43
3 9 46 44
3 11 47 24
3 11 48 47
3 4 49 36
3 12 50 27
3 12 51 50
3 12 81 83
3 83 82 51
3 81 82 83
3 5 84 85
3 13 86 88
3 88 87 30
3 86 87 88
3 13 89 90
3 13 91 93
3 91 52 92
3 91 92 93
3 9 53 32
3 9 44 53
3 10 54 45
3 94 55 95
3 96 95 34
3 94 95 96
3 98 97 55
3 99 14 100
3 101 100 3
3 99 100 101
3 102 14 103
3 102 103 104
3 106 105 14
3 107 15 108
3 109 15 110
3 111 3 112
3 113 112 15
3 111 112 113
3 16 17 6
3 18 17 16
3 18 7 17
3 19 20 8
3 21 20 19
3 21 114 116
3 116 115 20
3 114 115 116
3 21 117 119
3 117 22 118
3 117 118 119
3 16 22 21
3 16 6 22
3 23 24 9
3 25 24 23
3 25 11 24
3 26 27 4
3 28 27 26
3 28 12 27
3 28 120 122
3 122 121 12
3 120 121 122
3 124 123 28
3 29 30 5
3 31 30 29
3 31 13 30
3 31 32 13
3 23 32 31
3 23 9 32
3 33 34 10
3 125 34 126
3 127 126 33
3 125 126 127
3 129 128 34
3 35 36 1
3 37 36 35
3 37 4 36
3 14 37 3
3 38 37 14
3 38 4 37
3 38 26 4
3 130 26 131
3 132 131 38
3 130 131 132
3 134 133 26
3 39 135 136
3 39 137 139
3 137 5 138
3 137 138 139
3 15 140 142
3 140 39 141
3 140 141 142
3 40 39 15
3 40 5 39
3 40 29 5
3 35 29 40
3 35 1 29
3 41 143 144
3 42 145 147
3 147 146 41
3 145 146 147
3 42 148 149
3 17 42 6
3 150 42 151
3 152 151 17
3 150 151 152
3 154 153 42
3 156 155 2
3 20 157 159
3 159 158 8
3 157 158 159
3 161 160 20
3 22 162 163
3 43 164 166
3 166 165 22
3 164 165 166
3 43 167 168
3 43 169 170
3 41 171 173
3 173 172 43
3 171 172 173
3 41 174 175
3 44 45 0
3 46 45 44
3 46 10 45
3 24 46 9
3 47 46 24
3 47 10 46
3 47 33 10
3 48 33 47
3 48 2 33
3 36 25 1
3 49 25 36
3 49 11 25
3 27 49 4
3 50 49 27
3 50 11 49
3 50 48 11
3 51 48 50
3 51 2 48
3 51 176 178
3 178 177 2
3 176 177 178
3 180 179 51
3 182 181 12
3 30 183 185
3 185 184 5
3 183 184 185
3 187 186 30
3 52 188 189
3 52 190 192
3 190 8 191
3 190 191 192
3 32 52 13
3 53 52 32
3 53 8 52
3 53 19 8
3 44 19 53
3 44 0 19
3 45 18 0
3 54 18 45
3 54 7 18
3 34 54 10
3 55 54 34
3 55 7 54
3 55 193 195
3 195 194 7
3 193 194 195
3 197 196 55
3 199 198 2
