ply
format ascii 1.0
element vertex 246
property float x
property float y
property float z
element face 243
property list uchar int vertex_index
end_header
23.383583 -61.577183 -10.088602
24.341116 -64.688133 -4.545337
26.188572 -55.039642 -4.454307
23.932398 -58.214592 -10.887802
23.457077 -57.933525 -13.914347
22.974499 -61.984226 -12.706267
25.191818 -66.193169 -0.598374
25.23971 -71.385612 -0.768934
26.425909 -62.500351 3.625637
25.686102 -61.236702 -0.56544
23.713406 -63.121479 -7.709377
23.482004 -67.64077 -8.117467
26.722076 -56.146263 -0.661412
24.999043 -59.96138 -4.416683
24.493254 -58.73534 -7.669718
25.574558 -54.265606 -8.171091
23.603323 -60.080891 -10.428148
23.366957 -60.128235 -11.846946
23.177967 -61.780106 -11.236647
25.594769 -67.038483 1.366195
25.132839 -68.900864 -0.737081
25.587225 -69.71373 1.365887
26.146656 -65.071938 3.50967
25.740622 -64.392258 1.345937
22.956499 -60.135403 -14.866322
23.223579 -57.65554 -15.511898
24.004902 -63.835236 -6.203253
23.511276 -65.367371 -7.931517
23.858671 -66.205612 -6.30085
27.736479 -53.918228 1.552442
27.058954 -56.542385 1.454059
24.979809 -62.885078 -2.601972
25.350544 -60.429611 -2.573598
24.622284 -62.189617 -4.440406
24.296209 -61.570026 -6.147343
26.912741 -52.49329 -4.570746
25.935457 -54.489799 -6.29235
25.025408 -56.524788 -7.787255
25.243828 -57.125488 -6.136866
24.423147 -55.948299 -11.22771
24.121508 -55.730511 -12.917194
23.723703 -57.966259 -12.348875
23.179291 -60.051247 -13.277062
22.800505 -62.255161 -14.134405
24.735079 -65.469055 -2.698227
24.250471 -67.249466 -4.564541
24.701426 -67.904427 -2.619664
26.824003 -59.891079 3.686486
26.496077 -59.210457 1.488867
26.068192 -61.891445 1.553664
25.339413 -63.70892 -0.705453
28.045725 -50.135059 -2.648196
27.241957 -52.818691 -2.565288
23.86274 -55.37154 -14.50018
23.513058 -62.200848 -9.051748
23.142921 -63.137932 -10.427353
23.277359 -64.172218 -9.296519
23.862968 -68.596954 -6.472901
25.699022 -72.224747 1.371239
27.494003 -53.429256 -0.442847
26.490856 -55.464546 -2.560739
26.115044 -58.74572 -0.678356
25.837782 -58.008774 -2.618954
25.50663 -57.603027 -4.480554
24.717676 -59.390434 -6.085328
24.045977 -60.877499 -7.663431
23.808561 -60.367496 -9.106874
24.695171 -56.258755 -9.587012
24.222437 -58.382217 -9.255693
22.905054 -63.702923 -11.866806
25.809146 -68.75188 2.483745
25.590997 -68.376106 1.366041
25.812918 -67.414257 2.4839
26.088862 -66.430984 3.555637
26.346609 -65.457592 4.656778
25.812918 -67.414257 2.4839
25.870712 -66.055211 2.437933
26.088862 -66.430984 3.555637
22.866396 -60.002661 -15.651312
22.797213 -61.225798 -15.324675
27.200606 -56.872915 2.577228
27.521222 -55.496681 2.594629
25.001685 -70.947715 -1.785328
24.94825 -69.705342 -1.769401
25.186274 -70.143238 -0.753008
25.12303 -72.138084 -1.718867
25.001685 -70.947715 -1.785328
26.781962 -61.479723 4.720185
26.586546 -62.880935 4.658734
26.624956 -61.195715 3.656061
26.981009 -60.175087 4.750609
26.781962 -61.479723 4.720185
28.153577 -50.417309 -1.627493
28.597503 -48.983617 -1.621541
27.751693 -51.759124 -1.586039
27.643841 -51.476875 -2.606742
28.153577 -50.417309 -1.627493
23.386539 -56.347871 -15.823616
23.087863 -57.509048 -16.348845
23.334885 -67.05473 -8.816596
23.34952 -65.91803 -8.723621
23.49664 -66.504071 -8.024492
23.365671 -68.222504 -8.957743
23.334885 -67.05473 -8.816596
24.093672 -69.113426 -5.530888
24.056719 -67.92321 -5.518721
24.287424 -68.439682 -4.576709
25.903739 -72.541413 2.485273
25.849738 -71.2994 2.431579
25.940769 -52.968099 -8.271903
26.100043 -53.142998 -7.349396
25.429087 -54.072748 -9.042959
25.940769 -52.968099 -8.271903
25.134864 -55.26218 -8.879051
24.989393 -55.069322 -9.75092
25.429087 -54.072748 -9.042959
22.940849 -64.473379 -11.342011
23.023988 -63.420428 -11.14708
23.059783 -64.190883 -10.622284
26.446919 -64.166729 4.600751
26.346609 -65.457592 4.656778
26.286282 -63.786145 3.567654
26.586546 -62.880935 4.658734
26.446919 -64.166729 4.600751
22.999936 -58.76273 -15.9741
23.090039 -58.895471 -15.18911
22.866396 -60.002661 -15.651312
23.087863 -57.509048 -16.348845
22.999936 -58.76273 -15.9741
27.859984 -54.184602 2.643821
28.241685 -52.731943 2.666598
28.365191 -52.998317 3.757976
27.397717 -55.230306 1.503251
27.859984 -54.184602 2.643821
27.521222 -55.496681 2.594629
26.769134 -52.25684 -5.549224
27.340426 -51.125225 -4.572328
26.280493 -53.255094 -6.410025
26.769134 -52.25684 -5.549224
26.424099 -53.491545 -5.431548
25.755007 -54.377702 -7.23172
26.100043 -53.142998 -7.349396
26.280493 -53.255094 -6.410025
24.272327 -55.839405 -12.072452
24.548281 -54.625275 -12.282596
24.699101 -54.734169 -11.437854
22.719217 -62.285677 -14.958716
22.797213 -61.225798 -15.324675
22.878502 -61.195282 -14.500363
24.512901 -68.767162 -3.60427
24.287424 -68.439682 -4.576709
24.475949 -67.576946 -3.592103
24.732543 -69.207123 -2.710693
24.917133 -68.402646 -1.678373
24.94825 -69.705342 -1.769401
24.512901 -68.767162 -3.60427
24.732543 -69.207123 -2.710693
27.207332 -58.862032 4.749003
26.981009 -60.175087 4.750609
27.08313 -58.547262 3.693442
27.207332 -58.862032 4.749003
26.66004 -59.550768 2.587676
26.919167 -58.206951 2.594632
27.08313 -58.547262 3.693442
28.513383 -48.656284 -2.664745
28.597503 -48.983617 -1.621541
27.906917 -49.946109 -3.611053
28.513383 -48.656284 -2.664745
27.479233 -51.314175 -3.609471
27.340426 -51.125225 -4.572328
27.906917 -49.946109 -3.611053
24.395422 -54.409239 -13.132331
24.548281 -54.625275 -12.282596
24.266038 -54.229754 -13.923825
24.395422 -54.409239 -13.132331
23.992124 -55.551026 -13.708687
24.092228 -54.032341 -14.76397
24.266038 -54.229754 -13.923825
23.70612 -55.205872 -15.317757
23.54316 -56.51354 -15.006039
23.386539 -56.347871 -15.823616
24.092228 -54.032341 -14.76397
23.70612 -55.205872 -15.317757
23.127002 -64.708027 -10.056867
23.059783 -64.190883 -10.622284
23.21014 -63.655075 -9.861936
23.232562 -65.320453 -9.406122
23.394317 -64.769795 -8.614018
23.34952 -65.91803 -8.723621
23.127002 -64.708027 -10.056867
23.232562 -65.320453 -9.406122
23.95164 -69.828228 -6.525343
24.093672 -69.113426 -5.530888
23.732866 -69.232849 -7.364161
23.95164 -69.828228 -6.525343
23.542384 -68.754757 -8.186444
23.672486 -68.118862 -7.295184
23.732866 -69.232849 -7.364161
23.365671 -68.222504 -8.957743
23.542384 -68.754757 -8.186444
25.79384 -70.043892 2.428902
25.809146 -68.75188 2.483745
25.643124 -70.969238 1.368563
25.79384 -70.043892 2.428902
25.849738 -71.2994 2.431579
25.81048 -73.480698 1.437493
25.903739 -72.541413 2.485273
25.589316 -73.110119 0.316456
25.81048 -73.480698 1.437493
25.35966 -72.690551 -0.753631
25.469366 -71.805179 0.301153
25.589316 -73.110119 0.316456
25.12303 -72.138084 -1.718867
25.35966 -72.690551 -0.753631
28.111619 -52.560929 1.54084
28.241685 -52.731943 2.666598
27.990381 -52.316443 0.543196
28.111619 -52.560929 1.54084
27.615241 -53.673742 0.554798
27.877716 -52.064407 -0.524819
27.990381 -52.316443 0.543196
27.36798 -53.123974 -1.504067
27.751693 -51.759124 -1.586039
27.877716 -52.064407 -0.524819
26.777515 -57.876421 1.471463
27.200606 -56.872915 2.577228
26.919167 -58.206951 2.594632
24.853381 -54.914095 -10.571269
24.699101 -54.734169 -11.437854
24.559159 -56.103527 -10.407361
24.853381 -54.914095 -10.571269
24.989393 -55.069322 -9.75092
22.84509 -64.789785 -12.135434
22.940849 -64.473379 -11.342011
22.823002 -63.921332 -12.585457
22.84509 -64.789785 -12.135434
22.857725 -63.061983 -13.005187
22.939777 -62.843575 -12.286537
22.823002 -63.921332 -12.585457
22.770727 -63.197451 -13.719257
22.887502 -62.119693 -13.420336
22.857725 -63.061983 -13.005187
22.704733 -63.363531 -14.519998
22.770727 -63.197451 -13.719257
22.719217 -62.285677 -14.958716
22.704733 -63.363531 -14.519998
3 0 18 16
3 70 21 71
3 72 71 19
3 70 71 72
3 73 22 74
3 75 19 76
3 77 76 22
3 75 76 77
3 79 78 24
3 1 28 26
3 80 30 81
3 1 33 31
3 1 26 33
3 2 36 35
3 2 38 36
3 3 41 39
3 5 42 17
3 5 43 42
3 6 46 44
3 7 82 84
3 84 83 20
3 82 83 84
3 7 85 86
3 8 87 88
3 8 89 91
3 89 47 90
3 89 90 91
3 8 49 47
3 6 50 23
3 6 44 50
3 92 51 93
3 94 52 95
3 96 95 51
3 94 95 96
3 4 53 40
3 98 97 25
3 10 56 54
3 11 99 101
3 101 100 27
3 99 100 101
3 11 102 103
3 104 57 105
3 106 105 45
3 104 105 106
3 107 58 108
3 12 59 29
3 12 60 59
3 9 61 48
3 13 62 32
3 13 63 62
3 13 64 63
3 10 65 34
3 10 54 65
3 15 109 110
3 15 111 112
3 15 113 115
3 113 67 114
3 113 114 115
3 14 68 37
3 14 66 68
3 116 69 117
3 118 117 55
3 116 117 118
3 16 17 3
3 18 17 16
3 18 5 17
3 19 20 6
3 21 20 19
3 21 7 20
3 22 119 120
3 22 121 123
3 121 8 122
3 121 122 123
3 22 23 8
3 19 23 22
3 19 6 23
3 24 25 4
3 124 25 125
3 126 125 24
3 124 125 126
3 128 127 25
3 26 27 10
3 28 27 26
3 28 11 27
3 129 29 130
3 129 130 131
3 30 132 134
3 132 29 133
3 132 133 134
3 30 12 29
3 31 32 9
3 33 32 31
3 33 13 32
3 33 34 13
3 26 34 33
3 26 10 34
3 35 135 136
3 36 137 139
3 139 138 35
3 137 138 139
3 36 140 142
3 140 15 141
3 140 141 142
3 36 37 15
3 38 37 36
3 38 14 37
3 39 143 145
3 143 40 144
3 143 144 145
3 41 40 39
3 41 4 40
3 17 41 3
3 42 41 17
3 42 4 41
3 42 24 4
3 43 24 42
3 43 146 148
3 148 147 24
3 146 147 148
3 44 45 1
3 46 45 44
3 46 149 151
3 151 150 45
3 149 150 151
3 20 46 6
3 152 46 153
3 154 153 20
3 152 153 154
3 156 155 46
3 47 157 158
3 47 159 160
3 47 161 163
3 161 48 162
3 161 162 163
3 49 48 47
3 49 9 48
3 23 49 8
3 50 49 23
3 50 9 49
3 50 31 9
3 44 31 50
3 44 1 31
3 51 164 165
3 51 166 167
3 51 168 170
3 168 35 169
3 168 169 170
3 52 35 51
3 52 2 35
3 40 171 172
3 53 173 175
3 175 174 40
3 173 174 175
3 53 176 177
3 25 53 4
3 178 53 179
3 180 179 25
3 178 179 180
3 182 181 53
3 54 55 0
3 56 55 54
3 56 183 185
3 185 184 55
3 183 184 185
3 27 56 10
3 186 56 187
3 188 187 27
3 186 187 188
3 190 189 56
3 45 28 1
3 57 28 45
3 57 11 28
3 191 57 192
3 193 57 194
3 195 11 196
3 197 196 57
3 195 196 197
3 199 198 11
3 200 21 201
3 58 202 204
3 202 21 203
3 202 203 204
3 58 7 21
3 205 58 206
3 207 58 208
3 209 7 210
3 211 210 58
3 209 210 211
3 213 212 7
3 29 214 215
3 59 216 218
3 218 217 29
3 216 217 218
3 59 219 220
3 59 221 223
3 221 52 222
3 221 222 223
3 60 52 59
3 60 2 52
3 48 224 226
3 224 30 225
3 224 225 226
3 61 30 48
3 61 12 30
3 32 61 9
3 62 61 32
3 62 12 61
3 62 60 12
3 63 60 62
3 63 2 60
3 63 38 2
3 64 38 63
3 64 14 38
3 34 64 13
3 65 64 34
3 65 14 64
3 65 66 14
3 54 66 65
3 54 0 66
3 227 39 228
3 67 229 231
3 229 39 230
3 229 230 231
3 67 3 39
3 37 67 15
3 68 67 37
3 68 3 67
3 68 16 3
3 66 16 68
3 66 0 16
3 55 18 0
3 69 18 55
3 69 5 18
3 232 69 233
3 234 69 235
3 236 5 237
3 238 237 69
3 236 237 238
3 239 43 240
3 241 240 5
3 239 240 241
3 242 43 243
3 245 244 43
