ply
format ascii 1.0
element vertex 182
property float x
property float y
property float z
element face 174
property list uchar int vertex_index
end_header
38.146439 4.984714 -55.381714
36.448921 -5.256531 -58.734932
37.864445 11.328607 -49.129837
33.300034 10.04835 -64.121323
39.415913 2.073571 -50.676449
38.236942 8.657854 -52.50024
36.390953 14.951215 -53.972595
36.463966 12.091782 -57.384892
36.045441 7.987721 -60.01115
39.284439 -2.655113 -52.892521
37.640228 -0.025716 -57.346146
35.164154 2.61628 -61.630436
38.897015 3.386951 -52.988029
38.886814 5.428097 -51.626595
38.188862 7.234334 -54.107666
37.445667 10.39236 -54.982914
37.371181 8.722048 -56.433353
36.336811 10.136719 -58.785507
37.196438 6.522566 -57.732761
38.599258 8.555174 -48.398968
35.376198 16.554075 -56.651966
35.298714 17.552578 -54.625507
37.070042 -2.285953 -58.268261
36.465218 1.515784 -59.598286
35.913494 -1.369007 -60.166157
39.385361 3.733069 -49.147839
38.776932 7.224813 -50.055038
38.043625 10.341326 -51.008358
37.180645 13.248306 -51.606926
37.361481 11.950779 -53.462173
36.502754 13.62056 -55.757469
35.475624 15.001388 -58.216251
35.384357 13.236418 -59.736996
35.0527 11.380279 -61.183815
34.823158 8.801751 -62.072746
39.4002 -0.152708 -51.910366
38.807869 1.131798 -54.119324
37.981022 2.472739 -56.436207
38.55912 -1.265739 -55.146084
38.103447 -3.880084 -56.115311
37.570992 -6.553785 -56.727051
36.196705 15.873116 -51.98444
36.921764 4.051274 -58.723217
35.685165 5.350591 -60.920387
34.295856 6.513942 -62.953407
34.534531 -0.110267 -62.090397
33.721233 3.792339 -63.505493
32.804859 7.304097 -64.745438
38.092184 10.463083 -47.868004
38.459591 9.076367 -47.50257
38.231852 9.94189 -48.764403
37.690747 11.763452 -48.137802
37.918486 10.897929 -46.875969
38.092184 10.463083 -47.868004
37.385989 12.725509 -49.334858
37.690747 11.763452 -48.137802
34.793484 17.870281 -56.839365
34.827599 17.231228 -57.8083
32.680004 11.823846 -64.687588
33.490765 11.292243 -63.680806
32.463189 10.531274 -65.054993
32.680004 11.823846 -64.687588
39.400637 2.90332 -49.912144
39.606661 1.9816 -48.752394
39.621937 1.151851 -49.516699
39.34232 -1.403911 -52.401443
39.605436 -2.03995 -51.283648
39.547556 -3.291152 -51.774725
38.313647 -5.852448 -55.363453
38.524536 -4.379618 -55.040818
38.047419 -7.189298 -55.669323
37.83722 -5.216935 -56.421181
38.313647 -5.852448 -55.363453
35.141775 17.996393 -53.555646
34.681292 18.786049 -54.754337
34.116757 -1.613902 -62.22641
34.839724 -2.042267 -61.377224
32.894543 4.240747 -64.382042
33.354 2.324299 -63.674334
32.436356 5.996626 -65.002015
33.263046 5.548218 -64.125465
32.894543 4.240747 -64.382042
31.932505 7.863788 -65.621883
32.436356 5.996626 -65.002015
39.437826 -4.428581 -52.326935
39.547556 -3.291152 -51.774725
39.115032 -3.767133 -53.429423
39.437826 -4.428581 -52.326935
38.8008 7.617653 -47.200051
38.920507 6.941838 -47.963002
38.661133 8.138846 -46.303652
38.8008 7.617653 -47.200051
38.459591 9.076367 -47.50257
34.754742 18.369532 -55.826135
35.337456 17.053327 -55.638737
34.793484 17.870281 -56.839365
34.681292 18.786049 -54.754337
34.754742 18.369532 -55.826135
39.556602 2.850649 -47.97505
39.606661 1.9816 -48.752394
39.313558 4.530786 -48.337437
39.556602 2.850649 -47.97505
39.009344 6.276658 -48.791037
39.313558 4.530786 -48.337437
39.081147 5.478941 -49.601439
38.688095 7.889993 -49.227003
38.920507 6.941838 -47.963002
39.009344 6.276658 -48.791037
34.877312 16.454884 -58.590442
34.827599 17.231228 -57.8083
35.425911 15.777732 -57.434109
34.847071 15.704611 -59.394823
34.877312 16.454884 -58.590442
34.801437 14.822126 -60.155195
34.847071 15.704611 -59.394823
35.429991 14.118903 -58.976624
34.679455 13.987918 -60.893988
34.801437 14.822126 -60.155195
34.513626 13.059849 -61.617398
34.679455 13.987918 -60.893988
35.218529 12.308349 -60.460406
34.367098 11.958208 -62.212052
34.513626 13.059849 -61.617398
34.252327 10.668944 -62.656517
34.367098 11.958208 -62.212052
34.937929 10.091015 -61.628281
34.061596 9.42505 -63.097035
33.490765 11.292243 -63.680806
34.252327 10.668944 -62.656517
35.796919 -4.615399 -59.699492
36.037602 -6.723781 -58.903126
39.631983 0.204156 -50.178093
39.621937 1.151851 -49.516699
39.624127 -0.908984 -50.795051
39.605436 -2.03995 -51.283648
39.408057 0.960431 -51.293408
39.631983 0.204156 -50.178093
39.624127 -0.908984 -50.795051
38.752372 -3.072446 -54.556204
38.921779 -1.960426 -54.019303
39.115032 -3.767133 -53.429423
38.331283 -2.572912 -55.630697
38.752372 -3.072446 -54.556204
38.524536 -4.379618 -55.040818
37.716207 -8.633159 -55.994062
38.047419 -7.189298 -55.669323
37.206873 -8.01291 -56.957327
37.716207 -8.633159 -55.994062
36.645837 -7.364282 -57.961268
37.009957 -5.905158 -57.730992
37.206873 -8.01291 -56.957327
36.037602 -6.723781 -58.903126
36.645837 -7.364282 -57.961268
37.044089 13.685358 -50.573403
37.385989 12.725509 -49.334858
37.522545 12.288456 -50.368381
36.552119 14.997763 -50.762159
37.044089 13.685358 -50.573403
36.688675 14.560711 -51.795683
35.984244 16.312283 -51.051136
36.552119 14.997763 -50.762159
35.590771 17.156662 -52.235113
35.747709 16.712847 -53.304974
35.141775 17.996393 -53.555646
35.984244 16.312283 -51.051136
35.590771 17.156662 -52.235113
35.529206 -2.671637 -60.415104
36.181207 -3.312769 -59.450544
35.796919 -4.615399 -59.699492
35.224013 -0.739637 -61.128277
35.529206 -2.671637 -60.415104
34.839724 -2.042267 -61.377224
33.760649 0.372997 -62.966786
34.116757 -1.613902 -62.22641
34.127882 1.841036 -62.797945
33.760649 0.372997 -62.966786
33.354 2.324299 -63.674334
32.215601 9.159148 -65.367051
32.463189 10.531274 -65.054993
33.052447 8.676223 -64.43338
32.215601 9.159148 -65.367051
31.932505 7.863788 -65.621883
3 0 14 12
3 0 16 14
3 0 18 16
3 2 48 50
3 50 49 19
3 48 49 50
3 2 51 53
3 51 52 53
3 2 54 55
3 57 56 20
3 3 58 59
3 3 60 61
3 1 24 22
3 4 62 64
3 62 25 63
3 62 63 64
3 5 26 13
3 5 27 26
3 5 29 27
3 7 30 15
3 7 31 30
3 7 32 31
3 8 33 17
3 8 34 33
3 9 65 67
3 65 35 66
3 65 66 67
3 9 36 35
3 9 38 36
3 68 39 69
3 70 40 71
3 72 71 39
3 70 71 72
3 6 41 28
3 74 73 21
3 10 42 37
3 11 43 23
3 11 44 43
3 75 45 76
3 77 46 78
3 79 47 80
3 81 80 46
3 79 80 81
3 83 82 47
3 12 13 4
3 14 13 12
3 14 5 13
3 14 15 5
3 16 15 14
3 16 7 15
3 16 17 7
3 18 17 16
3 18 8 17
3 84 9 85
3 87 86 9
3 19 88 89
3 92 91 19
3 90 91 92
3 20 21 6
3 93 21 94
3 95 94 20
3 93 94 95
3 97 96 21
3 22 23 10
3 24 23 22
3 24 11 23
3 25 98 99
3 25 100 101
3 13 25 4
3 26 25 13
3 26 102 104
3 104 103 25
3 102 103 104
3 26 105 107
3 105 19 106
3 105 106 107
3 27 19 26
3 27 2 19
3 27 28 2
3 29 28 27
3 29 6 28
3 15 29 5
3 30 29 15
3 30 6 29
3 30 20 6
3 31 20 30
3 31 108 110
3 110 109 20
3 108 109 110
3 31 111 112
3 32 113 115
3 115 114 31
3 113 114 115
3 32 116 117
3 17 32 7
3 33 32 17
3 33 118 120
3 120 119 32
3 118 119 120
3 33 121 122
3 34 123 125
3 125 124 33
3 123 124 125
3 34 126 128
3 126 3 127
3 126 127 128
3 130 129 1
3 131 4 132
3 35 133 134
3 35 135 137
3 135 4 136
3 135 136 137
3 35 12 4
3 36 12 35
3 36 0 12
3 36 37 0
3 38 37 36
3 38 10 37
3 138 38 139
3 140 139 9
3 138 139 140
3 39 141 143
3 141 38 142
3 141 142 143
3 39 10 38
3 39 22 10
3 40 22 39
3 40 1 22
3 144 40 145
3 146 40 147
3 148 1 149
3 150 149 40
3 148 149 150
3 152 151 1
3 28 153 155
3 155 154 2
3 153 154 155
3 41 156 158
3 158 157 28
3 156 157 158
3 41 159 160
3 21 41 6
3 161 41 162
3 163 162 21
3 161 162 163
3 165 164 41
3 37 18 0
3 42 18 37
3 42 8 18
3 23 42 10
3 43 42 23
3 43 8 42
3 43 34 8
3 44 34 43
3 44 3 34
3 166 24 167
3 168 167 1
3 166 167 168
3 45 169 171
3 169 24 170
3 169 170 171
3 45 11 24
3 172 45 173
3 46 174 176
3 174 45 175
3 174 175 176
3 46 11 45
3 46 44 11
3 47 44 46
3 47 3 44
3 47 177 179
3 179 178 3
3 177 178 179
3 181 180 47
