ply
format ascii 1.0
element vertex 178
property float x
property float y
property float z
element face 165
property list uchar int vertex_index
end_header
-1.238522 98.245697 -6.819683
8.411523 103.935837 -5.295657
-3.058753 98.472717 -12.488165
1.902848 101.947395 -12.238676
12.884407 105.233406 -3.281443
11.842654 106.533417 -9.919051
3.489361 101.404915 -6.326842
5.32098 100.30748 -0.426163
9.585421 102.109344 1.176534
6.984588 104.742287 -11.446501
10.54855 106.822289 -16.619987
-2.125009 98.48909 -9.705277
-0.712253 100.206894 -12.430669
0.29399 100.197754 -9.470554
15.03947 105.404953 -1.896761
14.575011 106.348656 -5.514352
11.711999 102.75399 2.054606
5.932065 102.777 -5.918616
5.15592 103.178726 -8.888484
7.515206 104.336975 -8.348886
13.414931 107.368561 -12.586471
11.055572 106.749619 -13.203153
12.842025 107.477516 -16.048254
12.287004 107.315025 -19.20952
14.787679 107.818268 -18.524023
10.707986 104.767288 -4.481716
10.091319 105.381149 -7.65489
12.475616 106.062828 -6.726413
14.110758 107.042809 -9.195177
-0.224565 97.895088 -3.886913
1.19871 99.909302 -6.478389
2.015805 99.449287 -3.687173
4.433203 101.009186 -3.502922
6.815951 102.234093 -2.881204
7.440195 101.253609 0.399438
9.09626 103.161514 -2.021607
11.343106 103.901825 -1.145968
13.361618 104.212311 0.10965
2.674007 101.760498 -9.2959
4.535974 103.495995 -11.90514
6.078831 104.741547 -14.575558
9.398023 105.727036 -10.643668
8.68903 105.919647 -14.049932
16.896459 105.85606 -2.471642
15.88471 105.905636 -3.132351
16.051219 105.355377 -1.236052
-2.417419 97.319691 -6.821461
-1.877407 97.23312 -5.48669
-1.681766 98.367394 -8.26248
-2.860663 97.441387 -8.264257
-2.417419 97.319691 -6.821461
13.988185 107.677105 -15.627527
13.128478 107.423038 -14.317362
14.274638 107.622627 -13.896635
14.961012 107.847481 -16.865411
13.814852 107.647892 -17.286138
13.988185 107.677105 -15.627527
15.879868 107.900742 -18.029732
14.961012 107.847481 -16.865411
-2.391797 99.222099 -13.911172
-3.652991 98.256649 -13.891799
1.422521 101.861156 -13.608707
0.114971 100.990906 -13.704703
0.595298 101.077145 -12.334672
2.738113 102.67617 -13.583605
1.422521 101.861156 -13.608707
15.179267 107.108837 -8.596039
14.342885 106.695733 -7.354764
15.411394 106.761761 -6.755627
14.930878 107.360566 -10.429555
15.179267 107.108837 -8.596039
-4.306139 97.447884 -12.424391
-3.82674 97.492939 -11.074808
-3.652991 98.256649 -13.891799
-4.306139 97.447884 -12.424391
1.377399 98.419415 -2.388157
0.89562 98.672188 -3.787043
0.257215 97.642315 -2.488027
4.877091 100.658333 -1.964542
3.772703 100.049515 -2.264895
4.216591 99.698662 -0.726515
8.512808 101.681477 0.787986
7.794695 100.722516 1.960408
8.867309 101.150383 2.348956
13.538208 103.570865 1.774499
12.536808 103.48315 1.082128
12.713399 102.841705 2.746977
14.531188 103.598354 2.445479
14.354598 104.2398 0.780629
13.538208 103.570865 1.774499
0.257215 97.642315 -2.488027
-0.895728 96.82101 -2.646422
9.221903 106.311085 -16.956136
8.292143 105.859764 -15.671109
9.61879 106.370968 -15.33496
10.180308 106.677594 -18.209696
9.221903 106.311085 -16.956136
11.857096 107.05674 -20.771136
13.096017 107.369903 -20.41424
15.65248 106.377488 -4.941147
14.80724 105.876805 -3.705556
15.88471 105.905636 -3.132351
15.411394 106.761761 -6.755627
15.65248 106.377488 -4.941147
-3.359869 97.501126 -9.683364
-2.860663 97.441387 -8.264257
-2.591881 98.480904 -11.096721
-3.82674 97.492939 -11.074808
-3.359869 97.501126 -9.683364
4.536816 99.195324 0.792816
4.216591 99.698662 -0.726515
9.883039 101.495895 2.792385
8.867309 101.150383 2.348956
10.946328 101.818218 3.231421
10.64871 102.431667 1.61557
9.883039 101.495895 2.792385
11.914518 102.006664 3.792474
10.946328 101.818218 3.231421
12.713399 102.841705 2.746977
11.914518 102.006664 3.792474
14.346354 107.621525 -20.071492
13.096017 107.369903 -20.41424
13.537342 107.566647 -18.866771
15.588544 107.75594 -19.846428
14.346354 107.621525 -20.071492
15.588544 107.75594 -19.846428
15.879868 107.900742 -18.029732
-1.218547 100.089188 -13.882424
-2.391797 99.222099 -13.911172
-1.885503 99.339806 -12.459417
-1.218547 100.089188 -13.882424
0.114971 100.990906 -13.704703
14.582964 107.523441 -12.125201
13.762844 107.205685 -10.890824
14.930878 107.360566 -10.429555
14.274638 107.622627 -13.896635
14.582964 107.523441 -12.125201
2.564004 99.269565 -2.35702
1.377399 98.419415 -2.388157
3.224504 100.229236 -3.595047
2.564004 99.269565 -2.35702
3.772703 100.049515 -2.264895
5.645839 99.797268 1.094251
4.536816 99.195324 0.792816
6.705446 100.270332 1.507051
7.794695 100.722516 1.960408
6.380587 100.780544 -0.013362
5.645839 99.797268 1.094251
6.705446 100.270332 1.507051
15.193524 104.83612 -0.222576
14.200544 104.808632 -0.893555
14.354598 104.2398 0.780629
16.205274 104.786544 0.438132
16.051219 105.355377 -1.236052
15.193524 104.83612 -0.222576
-1.370429 97.057816 -4.020306
-0.895728 96.82101 -2.646422
-0.731543 98.070392 -5.353298
-1.877407 97.23312 -5.48669
-1.370429 97.057816 -4.020306
4.054676 103.45047 -13.416837
2.738113 102.67617 -13.583605
3.219411 102.721695 -12.071908
4.826104 104.073246 -14.752046
4.054676 103.45047 -13.416837
5.307403 104.118771 -13.240349
5.679712 104.650406 -16.137352
4.826104 104.073246 -14.752046
6.987043 105.270714 -15.933922
7.38393 105.330597 -14.312745
8.292143 105.859764 -15.671109
5.679712 104.650406 -16.137352
6.987043 105.270714 -15.933922
11.049535 106.923962 -19.504463
10.180308 106.677594 -18.209696
11.417777 107.068657 -17.914753
11.049535 106.923962 -19.504463
11.857096 107.05674 -20.771136
3 0 13 11
3 45 44 14
3 43 44 45
3 0 46 47
3 0 48 50
3 48 11 49
3 48 49 50
3 1 19 17
3 51 22 52
3 53 52 20
3 51 52 53
3 54 24 55
3 56 55 22
3 54 55 56
3 58 57 24
3 2 59 60
3 3 61 63
3 63 62 12
3 61 62 63
3 3 64 65
3 4 27 25
3 66 28 67
3 68 67 15
3 66 67 68
3 70 69 28
3 2 71 72
3 2 73 74
3 75 31 76
3 77 76 29
3 75 76 77
3 7 78 80
3 78 32 79
3 78 79 80
3 7 33 32
3 8 81 83
3 81 34 82
3 81 82 83
3 8 35 34
3 8 36 35
3 84 37 85
3 86 85 16
3 84 85 86
3 89 88 37
3 87 88 89
3 90 29 91
3 6 38 30
3 9 39 18
3 9 40 39
3 5 41 26
3 10 42 21
3 10 92 94
3 94 93 42
3 92 93 94
3 10 95 96
3 98 97 23
3 11 12 2
3 13 12 11
3 13 3 12
3 14 15 4
3 99 15 100
3 101 100 14
3 99 100 101
3 103 102 15
3 11 104 105
3 11 106 108
3 106 2 107
3 106 107 108
3 109 7 110
3 111 8 112
3 113 16 114
3 115 114 8
3 113 114 115
3 116 16 117
3 119 118 16
3 17 18 6
3 19 18 17
3 19 9 18
3 20 21 5
3 22 21 20
3 22 10 21
3 22 23 10
3 24 23 22
3 24 120 122
3 122 121 23
3 120 121 122
3 24 123 124
3 126 125 24
3 12 127 129
3 129 128 2
3 127 128 129
3 131 130 12
3 25 26 1
3 27 26 25
3 27 5 26
3 15 27 4
3 28 27 15
3 28 5 27
3 28 20 5
3 132 20 133
3 134 133 28
3 132 133 134
3 136 135 20
3 29 30 0
3 31 30 29
3 31 6 30
3 137 31 138
3 32 139 141
3 139 31 140
3 139 140 141
3 32 6 31
3 32 17 6
3 33 17 32
3 33 1 17
3 142 7 143
3 34 144 145
3 34 146 148
3 146 7 147
3 146 147 148
3 34 33 7
3 35 33 34
3 35 1 33
3 35 25 1
3 36 25 35
3 36 4 25
3 16 36 8
3 37 36 16
3 37 4 36
3 37 14 4
3 149 14 150
3 151 150 37
3 149 150 151
3 154 153 14
3 152 153 154
3 29 155 156
3 29 157 159
3 157 0 158
3 157 158 159
3 30 13 0
3 38 13 30
3 38 3 13
3 18 38 6
3 39 38 18
3 39 3 38
3 39 160 162
3 162 161 3
3 160 161 162
3 40 163 165
3 165 164 39
3 163 164 165
3 40 166 167
3 26 19 1
3 41 19 26
3 41 9 19
3 21 41 5
3 42 41 21
3 42 9 41
3 42 40 9
3 168 40 169
3 170 169 42
3 168 169 170
3 172 171 40
3 23 173 175
3 175 174 10
3 173 174 175
3 177 176 23
