ply
format ascii 1.0
element vertex 214
property float x
property float y
property float z
element face 197
property list uchar int vertex_index
end_header
19.50194 71.641045 3.019268
14.445807 75.427315 9.96898
22.540522 60.269863 4.676126
15.053135 78.613724 5.340942
12.542088 80.05941 8.303547
22.004171 72.667267 -5.432322
18.781248 68.008705 7.847273
21.126913 65.941177 4.043978
19.914114 75.065247 -1.804685
17.547157 77.07402 1.72811
17.151533 73.536621 6.486701
21.730453 69.415443 -0.605554
11.846977 77.165237 12.562086
17.776312 78.573555 -0.780977
16.464342 79.485222 1.147216
14.783605 77.063133 7.648014
16.081053 76.159126 6.034906
15.777946 74.526688 8.334404
16.719917 71.921242 8.890971
19.78438 73.452812 0.442926
20.887943 72.195625 -1.133323
20.612034 70.552322 1.319461
21.855841 63.160736 4.335423
22.130219 64.867813 2.309407
10.880933 79.491272 11.526097
10.321774 78.124031 13.78713
15.185398 80.307213 2.894299
13.996528 80.979149 4.451349
13.783451 79.510582 6.740267
13.508827 77.908142 9.069861
19.152702 69.861504 5.469797
20.359238 68.779228 3.578084
19.981186 67.04184 5.912124
20.758131 64.206848 6.254777
21.477766 61.522377 6.466255
22.08581 58.759026 6.923631
19.994852 76.69014 -4.305908
18.928394 77.652275 -2.546864
18.78327 76.002487 0.030918
18.623436 74.32959 2.350075
16.26619 77.910866 3.62228
17.337225 75.384155 4.168866
18.312618 72.694412 4.758883
17.939169 70.848732 7.292594
21.004425 73.870972 -3.523258
21.9235 71.047134 -2.971161
22.726398 68.061905 -2.34466
21.465738 67.59285 1.819304
22.449692 66.577461 -0.03487
12.180635 78.736786 10.388757
13.191929 76.185516 11.402054
15.853248 80.687935 0.8148
16.45729 80.356666 -0.117812
14.939778 74.111954 10.298424
15.605848 73.661641 9.481136
15.111877 74.977002 9.151692
22.700485 61.139253 3.598118
22.358144 62.58469 3.427766
22.198182 61.7153 4.505774
23.050708 59.65352 3.722337
22.700485 61.139253 3.598118
22.876926 58.839569 4.816244
23.050708 59.65352 3.722337
9.584583 78.528324 14.339053
9.8419 79.288276 13.165324
13.380292 82.063618 4.126161
14.001804 81.790016 3.283792
13.162769 79.784996 7.521907
13.251533 80.553947 6.405954
12.630851 80.828361 7.187594
22.408526 71.946388 -6.208592
21.951286 73.475479 -6.618571
22.398616 71.19722 -4.991803
22.408526 71.946388 -6.208592
20.515218 63.373362 7.429059
20.16676 64.777985 7.197684
20.875036 62.031126 7.534798
21.117948 62.864612 6.360516
20.515218 63.373362 7.429059
21.239556 60.706766 7.621668
20.875036 62.031126 7.534798
18.30275 79.031917 -2.925769
18.891347 78.514843 -3.798711
17.162703 70.482014 9.209043
16.545527 70.991619 10.044185
22.812844 65.0635 0.163854
22.289955 65.722637 1.137269
22.653108 64.208675 1.335993
22.916745 65.911136 -0.937875
22.812844 65.0635 0.163854
22.482169 57.344328 6.93548
21.92071 57.908989 7.952822
12.068818 81.07917 7.837597
12.630851 80.828361 7.187594
21.534603 74.034489 -5.730662
21.951286 73.475479 -6.618571
19.178319 66.678913 7.993932
18.5642 67.134911 8.998409
17.113276 79.900833 -1.081909
17.726709 79.492558 -2.042826
17.120327 79.029388 0.183119
17.113276 79.900833 -1.081909
16.45729 80.356666 -0.117812
16.076833 72.358918 9.75942
16.248931 73.223965 8.612687
15.605848 73.661641 9.481136
16.545527 70.991619 10.044185
16.076833 72.358918 9.75942
22.495333 63.438228 2.414759
21.99303 64.014274 3.322415
22.358144 62.58469 3.427766
22.653108 64.208675 1.335993
22.495333 63.438228 2.414759
10.12148 79.971897 12.034807
10.443948 80.530682 10.949564
9.684494 81.011307 11.458274
10.601354 78.807651 12.656613
10.12148 79.971897 12.034807
9.8419 79.288276 13.165324
14.596239 81.454048 2.505267
15.213776 81.09893 1.688341
14.590963 80.643181 3.672824
14.596239 81.454048 2.505267
14.001804 81.790016 3.283792
13.358071 81.288231 5.261496
13.380292 82.063618 4.126161
13.889989 80.244866 5.595808
13.358071 81.288231 5.261496
13.251533 80.553947 6.405954
19.778288 66.195481 7.026358
19.381217 67.525272 6.879698
19.178319 66.678913 7.993932
20.369658 65.624344 6.08345
19.778288 66.195481 7.026358
20.16676 64.777985 7.197684
21.543578 59.325091 7.850356
21.781788 60.140701 6.694943
21.239556 60.706766 7.621668
21.92071 57.908989 7.952822
21.543578 59.325091 7.850356
19.424576 78.033775 -4.678233
19.995593 77.398914 -5.514189
19.461623 77.171208 -3.426386
19.424576 78.033775 -4.678233
18.891347 78.514843 -3.798711
18.352353 78.112915 -1.66392
18.30275 79.031917 -2.925769
17.726709 79.492558 -2.042826
15.82487 79.896218 2.020758
15.853248 80.687935 0.8148
15.213776 81.09893 1.688341
17.772329 69.945759 8.409854
17.329543 71.384987 8.091783
17.162703 70.482014 9.209043
18.193368 68.525745 8.687194
18.360208 69.428719 7.569934
17.772329 69.945759 8.409854
18.5642 67.134911 8.998409
18.193368 68.525745 8.687194
20.529944 76.045926 -5.167454
19.995593 77.398914 -5.514189
21.03473 74.636342 -4.776129
20.529944 76.045926 -5.167454
20.499639 75.280556 -3.914583
21.504298 73.269119 -4.47779
21.534603 74.034489 -5.730662
21.03473 74.636342 -4.776129
22.358281 70.387153 -3.761222
22.398616 71.19722 -4.991803
21.963836 71.857201 -4.201741
22.75973 68.894539 -3.447972
22.358281 70.387153 -3.761222
22.324949 69.554519 -2.65791
23.113748 67.481235 -3.207044
22.75973 68.894539 -3.447972
23.055098 66.653358 -2.092771
22.588045 67.319683 -1.189765
22.916745 65.911136 -0.937875
23.113748 67.481235 -3.207044
23.055098 66.653358 -2.092771
22.64957 58.08415 5.939997
22.876926 58.839569 4.816244
22.313166 59.514444 5.799879
22.64957 58.08415 5.939997
22.482169 57.344328 6.93548
11.912446 80.485184 8.811326
12.068818 81.07917 7.837597
11.081869 80.201114 10.422601
10.443948 80.530682 10.949564
11.73172 79.823871 9.853931
11.081869 80.201114 10.422601
11.530784 79.114029 10.957427
12.361362 79.398098 9.346152
11.912446 80.485184 8.811326
11.73172 79.823871 9.853931
10.11448 77.250858 14.966351
9.584583 78.528324 14.339053
10.834363 76.892799 14.300683
10.11448 77.250858 14.966351
11.596964 76.413403 13.688161
11.084376 77.644634 13.174608
10.834363 76.892799 14.300683
12.2951 75.927532 13.07799
11.596964 76.413403 13.688161
12.967576 75.437671 12.497974
12.519453 76.675376 11.98207
12.2951 75.927532 13.07799
13.666153 74.874843 11.847575
12.967576 75.437671 12.497974
14.293092 74.495743 11.131038
13.818868 75.806415 10.685517
13.666153 74.874843 11.847575
14.939778 74.111954 10.298424
14.293092 74.495743 11.131038
3 51 14 52
3 1 17 15
3 1 53 55
3 55 54 17
3 53 54 55
3 0 21 19
3 2 56 58
3 58 57 22
3 56 57 58
3 2 59 60
3 2 61 62
3 63 25 64
3 65 27 66
3 4 67 69
3 67 28 68
3 67 68 69
3 4 29 28
3 5 70 71
3 5 72 73
3 6 32 30
3 74 33 75
3 76 34 77
3 78 77 33
3 76 77 78
3 80 79 34
3 81 37 82
3 9 38 13
3 9 39 38
3 3 40 26
3 10 41 16
3 10 42 41
3 10 43 42
3 84 83 18
3 8 44 36
3 11 45 20
3 11 46 45
3 7 47 31
3 85 48 86
3 87 86 23
3 85 86 87
3 89 88 48
3 91 90 35
3 12 49 24
3 12 50 49
3 92 4 93
3 94 5 95
3 97 96 6
3 98 13 99
3 14 100 102
3 100 13 101
3 100 101 102
3 14 9 13
3 15 16 3
3 17 16 15
3 17 10 16
3 17 18 10
3 103 18 104
3 105 104 17
3 103 104 105
3 107 106 18
3 19 20 8
3 21 20 19
3 21 11 20
3 22 23 7
3 108 23 109
3 110 109 22
3 108 109 110
3 112 111 23
3 113 24 114
3 113 114 115
3 25 116 118
3 116 24 117
3 116 117 118
3 25 12 24
3 119 26 120
3 27 121 123
3 121 26 122
3 121 122 123
3 27 3 26
3 124 27 125
3 28 126 128
3 126 27 127
3 126 127 128
3 28 3 27
3 28 15 3
3 29 15 28
3 29 1 15
3 30 31 0
3 32 31 30
3 32 7 31
3 129 32 130
3 131 130 6
3 129 130 131
3 33 132 134
3 132 32 133
3 132 133 134
3 33 7 32
3 33 22 7
3 34 22 33
3 34 2 22
3 34 35 2
3 135 35 136
3 137 136 34
3 135 136 137
3 139 138 35
3 140 36 141
3 37 142 144
3 142 36 143
3 142 143 144
3 37 8 36
3 13 145 147
3 145 37 146
3 145 146 147
3 38 37 13
3 38 8 37
3 38 19 8
3 39 19 38
3 39 0 19
3 26 148 150
3 148 14 149
3 148 149 150
3 40 14 26
3 40 9 14
3 16 40 3
3 41 40 16
3 41 9 40
3 41 39 9
3 42 39 41
3 42 0 39
3 42 30 0
3 43 30 42
3 43 6 30
3 18 43 10
3 151 43 152
3 153 152 18
3 151 152 153
3 154 6 155
3 156 155 43
3 154 155 156
3 158 157 6
3 36 159 160
3 44 161 163
3 163 162 36
3 161 162 163
3 44 164 166
3 164 5 165
3 164 165 166
3 20 44 8
3 45 44 20
3 45 5 44
3 45 167 169
3 169 168 5
3 167 168 169
3 46 170 172
3 172 171 45
3 170 171 172
3 46 173 174
3 31 21 0
3 47 21 31
3 47 11 21
3 23 47 7
3 48 47 23
3 48 11 47
3 48 46 11
3 175 46 176
3 177 176 48
3 175 176 177
3 179 178 46
3 35 180 182
3 182 181 2
3 180 181 182
3 184 183 35
3 185 4 186
3 24 187 188
3 49 189 191
3 191 190 24
3 189 190 191
3 49 192 194
3 192 4 193
3 192 193 194
3 49 29 4
3 50 29 49
3 50 1 29
3 195 25 196
3 197 25 198
3 199 12 200
3 201 200 25
3 199 200 201
3 202 12 203
3 204 50 205
3 206 205 12
3 204 205 206
3 207 50 208
3 209 1 210
3 211 210 50
3 209 210 211
3 213 212 1
