ply
format ascii 1.0
element vertex 222
property float x
property float y
property float z
element face 206
property list uchar int vertex_index
end_header
-16.699186 -87.438637 -24.742283
-20.49402 -80.815392 -15.950026
-26.16873 -69.683281 -16.480824
-15.43937 -87.889053 -11.663017
-17.260712 -86.223274 -16.134195
-18.692022 -82.819153 -11.386282
-20.419228 -81.585022 -24.612211
-17.735985 -84.950386 -28.597164
-15.479136 -89.400826 -20.750246
-18.990723 -84.002075 -20.336899
-22.270189 -78.361687 -20.566206
-23.466471 -75.225166 -16.048143
-25.286636 -72.691429 -20.801014
-14.472732 -88.062889 -31.839426
-17.197733 -85.249146 -11.439381
-14.667053 -90.351646 -18.66708
-18.95899 -83.458916 -15.939848
-18.098349 -85.250694 -18.31801
-19.756573 -82.496338 -18.181595
-20.609509 -81.291611 -20.531338
-21.376698 -79.673676 -18.294071
-23.860895 -73.76413 -13.959987
-24.808214 -72.492218 -16.137518
-24.398344 -73.952454 -18.342054
-25.74135 -71.234505 -18.450218
-26.673094 -69.918694 -20.954063
-14.88046 -90.0868 -24.597361
-15.464643 -88.898247 -26.535988
-16.11002 -86.623817 -30.317049
-14.782145 -86.476616 -33.609962
-14.658983 -89.571884 -14.212287
-15.626995 -88.68013 -16.372269
-16.498955 -86.902946 -13.826844
-18.090738 -84.436279 -13.826784
-19.556377 -81.894287 -13.496325
-18.572491 -84.563293 -24.67745
-17.390522 -86.03418 -26.690254
-19.258316 -83.137505 -26.677191
-14.292293 -91.062042 -22.634031
-16.106276 -88.497108 -22.745331
-16.39819 -87.891342 -18.571758
-17.226692 -86.814911 -20.653742
-17.901941 -85.776772 -22.669811
-19.640358 -82.988014 -22.549618
-21.429829 -79.961403 -22.591484
-23.077425 -77.052628 -22.796791
-20.214045 -80.117226 -11.305697
-21.099041 -79.178955 -13.748535
-22.572348 -76.335442 -13.744386
-22.028019 -78.00238 -15.958669
-22.917675 -76.821938 -18.282049
-23.770332 -75.579208 -20.510235
-15.801844 -87.85743 -28.402931
-14.144505 -89.493286 -29.965118
-14.253919 -90.737972 -17.633647
-13.761596 -91.523346 -18.699585
-25.488472 -71.08775 -16.309171
-24.974502 -71.762127 -15.089823
-25.65476 -70.357658 -15.261475
-26.639898 -69.083626 -17.743612
-26.426208 -69.859238 -18.728308
-25.95504 -70.458893 -17.465521
-14.545284 -89.07962 -11.723453
-14.978254 -88.182743 -10.506139
-15.049176 -88.730469 -12.937652
-14.155091 -89.921036 -12.998088
-14.545284 -89.07962 -11.723453
-14.885715 -90.231434 -21.692138
-13.99134 -91.446766 -21.653493
-14.584762 -90.616158 -20.711601
-20.895395 -78.812591 -11.277936
-20.439208 -79.292286 -10.057416
-21.337893 -78.343456 -12.499355
-20.656543 -79.64809 -12.527116
-20.895395 -78.812591 -11.277936
-24.952473 -73.460399 -21.900745
-24.194322 -74.904289 -21.755356
-24.528484 -74.135318 -20.655625
-25.7419 -71.950832 -21.958222
-24.952473 -73.460399 -21.900745
-27.191435 -69.052536 -22.128069
-27.394081 -68.437024 -21.137298
-13.460736 -89.461296 -31.6726
-13.296623 -90.176494 -30.735446
-14.308619 -88.778087 -30.902272
-13.537542 -88.79464 -32.553982
-13.460736 -89.461296 -31.6726
-13.705583 -87.298916 -34.303402
-14.864237 -85.661019 -34.487131
-16.694702 -85.68483 -10.314317
-16.318551 -86.569099 -11.551199
-15.81552 -87.004784 -10.426135
-17.487903 -84.440475 -10.223705
-16.694702 -85.68483 -10.314317
-18.235047 -83.225479 -10.197156
-17.944878 -84.034149 -11.412831
-17.487903 -84.440475 -10.223705
-15.81552 -87.004784 -10.426135
-14.978254 -88.182743 -10.506139
-20.701297 -80.960743 -25.687414
-21.24046 -80.187198 -24.75412
-14.178721 -91.091568 -19.670018
-13.761596 -91.523346 -18.699585
-15.073094 -89.876236 -19.708663
-14.584762 -90.616158 -20.711601
-14.178721 -91.091568 -19.670018
-24.500842 -72.398083 -14.001057
-24.036734 -72.944008 -12.776884
-24.334554 -73.128174 -15.048752
-24.500842 -72.398083 -14.001057
-24.974502 -71.762127 -15.089823
-26.89208 -69.201333 -19.980231
-26.207222 -70.5766 -19.70214
-26.426208 -69.859238 -18.728308
-27.394081 -68.437024 -21.137298
-26.89208 -69.201333 -19.980231
-14.184539 -90.867726 -25.455357
-14.020873 -91.248428 -24.57391
-14.476631 -90.273449 -26.424671
-14.184539 -90.867726 -25.455357
-15.172552 -89.492524 -25.566674
-14.692143 -89.725895 -27.311594
-14.476631 -90.273449 -26.424671
-17.140981 -85.074119 -30.402634
-16.923002 -85.787102 -29.457107
-17.953964 -84.237404 -29.542692
-16.303954 -85.859596 -31.228499
-17.140981 -85.074119 -30.402634
-15.485311 -86.579132 -31.989688
-15.291376 -87.343353 -31.078238
-16.303954 -85.859596 -31.228499
-15.640017 -85.785996 -32.874956
-14.627439 -87.269753 -32.724694
-15.485311 -86.579132 -31.989688
-15.799428 -84.950722 -33.788618
-15.640017 -85.785996 -32.874956
-14.864237 -85.661019 -34.487131
-15.799428 -84.950722 -33.788618
-15.142989 -89.126007 -15.292278
-14.73389 -89.902214 -16.486241
-14.249884 -90.348091 -15.406251
-26.307536 -68.958263 -15.428082
-25.65476 -70.357658 -15.261475
-26.833426 -68.29298 -16.718553
-26.307536 -68.958263 -15.428082
-13.769643 -90.728378 -14.348171
-14.155091 -89.921036 -12.998088
-14.249884 -90.348091 -15.406251
-13.769643 -90.728378 -14.348171
-20.120841 -81.736985 -26.719904
-19.838772 -82.361264 -25.644701
-20.701297 -80.960743 -25.687414
-19.481005 -82.511204 -27.682327
-20.120841 -81.736985 -26.719904
-18.719839 -83.417644 -28.642314
-18.497151 -84.043946 -27.637177
-19.481005 -82.511204 -27.682327
-17.953964 -84.237404 -29.542692
-18.719839 -83.417644 -28.642314
-13.428978 -92.187664 -22.670918
-13.99134 -91.446766 -21.653493
-13.72679 -91.73605 -23.592245
-13.428978 -92.187664 -22.670918
-14.586377 -90.574421 -23.615696
-14.020873 -91.248428 -24.57391
-13.72679 -91.73605 -23.592245
-15.147024 -89.515888 -17.519675
-14.253919 -90.737972 -17.633647
-14.73389 -89.902214 -16.486241
-21.74576 -79.375389 -23.743757
-21.24046 -80.187198 -24.75412
-20.924529 -80.773212 -23.601847
-22.569558 -77.921002 -23.84641
-21.74576 -79.375389 -23.743757
-22.253627 -78.507015 -22.694138
-23.439611 -76.391804 -23.867905
-22.569558 -77.921002 -23.84641
-18.990236 -81.941445 -10.175663
-18.235047 -83.225479 -10.197156
-19.751247 -80.590481 -10.135371
-20.439208 -79.292286 -10.057416
-19.453034 -81.468189 -11.345989
-18.990236 -81.941445 -10.175663
-19.751247 -80.590481 -10.135371
-23.376174 -74.333222 -12.696091
-24.036734 -72.944008 -12.776884
-22.731901 -75.618877 -12.58829
-23.376174 -74.333222 -12.696091
-23.216622 -75.049786 -13.852187
-22.074546 -76.9217 -12.497281
-22.731901 -75.618877 -12.58829
-21.835695 -77.757199 -13.746461
-21.337893 -78.343456 -12.499355
-22.074546 -76.9217 -12.497281
-23.847868 -75.640999 -22.898634
-23.423879 -76.315918 -21.653513
-24.194322 -74.904289 -21.755356
-23.439611 -76.391804 -23.867905
-23.847868 -75.640999 -22.898634
-26.435129 -70.564465 -22.034746
-25.7419 -71.950832 -21.958222
-25.979865 -71.305061 -20.877538
-26.435129 -70.564465 -22.034746
-27.191435 -69.052536 -22.128069
-26.639898 -69.083626 -17.743612
-26.833426 -68.29298 -16.718553
-14.860743 -89.205487 -28.245065
-14.692143 -89.725895 -27.311594
-15.633243 -88.377838 -27.469459
-14.032074 -90.023415 -29.026159
-14.860743 -89.205487 -28.245065
-14.973174 -88.675358 -29.184024
-13.126126 -90.863438 -29.812492
-14.032074 -90.023415 -29.026159
-12.278244 -91.546646 -30.58282
-13.126126 -90.863438 -29.812492
-13.296623 -90.176494 -30.735446
-13.692248 -88.001503 -33.43925
-13.537542 -88.79464 -32.553982
-14.627439 -87.269753 -32.724694
-13.692248 -88.001503 -33.43925
-13.705583 -87.298916 -34.303402
3 54 15 55
3 1 18 16
3 1 20 18
3 2 56 58
3 56 22 57
3 56 57 58
3 2 24 22
3 2 59 61
3 61 60 24
3 59 60 61
3 0 27 26
3 3 32 30
3 5 33 14
3 5 34 33
3 3 62 63
3 3 64 66
3 64 30 65
3 64 65 66
3 6 37 35
3 8 67 69
3 67 38 68
3 67 68 69
3 8 39 38
3 4 40 31
3 9 41 17
3 9 42 41
3 9 43 42
3 10 44 19
3 10 45 44
3 70 46 71
3 72 47 73
3 74 73 46
3 72 73 74
3 11 48 21
3 11 49 48
3 11 50 49
3 12 51 23
3 12 75 77
3 77 76 51
3 75 76 77
3 12 78 79
3 81 80 25
3 7 52 36
3 13 53 28
3 13 82 84
3 84 83 53
3 82 83 84
3 13 85 86
3 88 87 29
3 89 14 90
3 91 90 3
3 89 90 91
3 92 14 93
3 94 5 95
3 96 95 14
3 94 95 96
3 97 3 98
3 100 99 6
3 15 101 102
3 15 103 105
3 103 8 104
3 103 104 105
3 16 17 4
3 18 17 16
3 18 9 17
3 18 19 9
3 20 19 18
3 20 10 19
3 106 21 107
3 22 108 110
3 108 21 109
3 108 109 110
3 22 11 21
3 22 23 11
3 24 23 22
3 24 12 23
3 24 25 12
3 111 25 112
3 113 112 24
3 111 112 113
3 115 114 25
3 26 116 117
3 27 118 120
3 120 119 26
3 118 119 120
3 27 121 122
3 123 28 124
3 125 124 7
3 123 124 125
3 126 28 127
3 128 13 129
3 130 129 28
3 128 129 130
3 131 29 132
3 133 132 13
3 131 132 133
3 134 29 135
3 137 136 29
3 30 138 140
3 138 31 139
3 138 139 140
3 32 31 30
3 32 4 31
3 14 32 3
3 33 32 14
3 33 4 32
3 33 16 4
3 34 16 33
3 34 1 16
3 141 2 142
3 144 143 2
3 30 145 146
3 30 147 148
3 35 36 0
3 37 36 35
3 37 7 36
3 149 37 150
3 151 150 6
3 149 150 151
3 152 37 153
3 154 7 155
3 156 155 37
3 154 155 156
3 158 157 7
3 38 159 160
3 38 161 162
3 38 163 165
3 163 26 164
3 163 164 165
3 39 26 38
3 39 0 26
3 31 166 168
3 166 15 167
3 166 167 168
3 40 15 31
3 40 8 15
3 17 40 4
3 41 40 17
3 41 8 40
3 41 39 8
3 42 39 41
3 42 0 39
3 42 35 0
3 43 35 42
3 43 6 35
3 19 43 9
3 44 43 19
3 44 6 43
3 44 169 171
3 171 170 6
3 169 170 171
3 45 172 174
3 174 173 44
3 172 173 174
3 45 175 176
3 177 5 178
3 46 179 180
3 46 181 183
3 181 5 182
3 181 182 183
3 46 34 5
3 47 34 46
3 47 1 34
3 21 184 185
3 48 186 188
3 188 187 21
3 186 187 188
3 48 189 190
3 48 191 193
3 191 47 192
3 191 192 193
3 49 47 48
3 49 1 47
3 49 20 1
3 50 20 49
3 50 10 20
3 23 50 11
3 51 50 23
3 51 10 50
3 51 45 10
3 194 45 195
3 196 195 51
3 194 195 196
3 198 197 45
3 25 199 201
3 201 200 12
3 199 200 201
3 203 202 25
3 205 204 2
3 36 27 0
3 52 27 36
3 52 206 208
3 208 207 27
3 206 207 208
3 28 52 7
3 53 52 28
3 53 209 211
3 211 210 52
3 209 210 211
3 53 212 213
3 216 215 53
3 214 215 216
3 29 217 219
3 219 218 13
3 217 218 219
3 221 220 29
