ply
format ascii 1.0
element vertex 181
property float x
property float y
property float z
element face 165
property list uchar int vertex_index
end_header
18.45204 -103.946091 -3.958584
14.941969 -107.783859 -16.144697
21.167955 -104.700188 -8.145055
19.496836 -106.79863 -14.569916
17.028271 -106.424858 -10.203042
7.036388 -105.585159 -12.707526
14.259993 -104.842834 -5.923816
21.233299 -105.860313 -18.66185
12.322142 -106.703316 -11.825753
9.54961 -107.3647 -17.382526
18.827227 -102.407028 -0.798046
20.254152 -102.991234 -2.767775
19.922195 -104.413567 -5.92662
19.287006 -105.742355 -9.257984
17.887228 -105.275253 -7.047871
3.180239 -103.412788 -10.950101
22.433266 -105.173286 -15.510783
17.310493 -107.468399 -15.398019
18.415262 -107.327644 -17.437475
16.044741 -107.845985 -18.464344
13.42686 -107.992859 -19.013405
11.869246 -104.770767 -6.66754
13.304401 -105.862999 -8.799057
10.853 -105.660316 -9.516443
5.858966 -105.890373 -15.516201
8.3917 -106.643906 -15.077843
21.422829 -105.772491 -13.576972
20.497671 -105.875801 -11.390107
18.386219 -106.750832 -12.320333
16.066742 -107.24939 -13.173309
8.372651 -105.205933 -10.174886
5.748119 -104.38279 -10.520716
4.455441 -104.741379 -13.270732
16.42178 -104.575439 -5.03845
20.569849 -106.426666 -16.545891
19.268938 -106.883797 -19.464859
15.670832 -105.798248 -8.123006
14.698797 -106.734512 -11.087778
13.546637 -107.389473 -13.99631
9.763679 -106.339165 -12.437372
10.937304 -107.192818 -14.754261
12.207331 -107.740791 -16.830616
22.787731 -104.76984 -14.015419
23.182259 -104.41711 -14.955036
10.079429 -105.01015 -8.395633
11.361123 -105.215542 -8.091992
10.587553 -104.565376 -6.971181
5.618114 -106.217998 -17.895082
6.425471 -106.307846 -16.680846
5.051609 -105.800525 -16.730438
22.036088 -103.971142 -7.551011
21.427865 -104.000763 -6.553051
21.726097 -104.671516 -9.209979
22.036088 -103.971142 -7.551011
20.832813 -105.287994 -9.767581
21.390955 -105.259323 -10.832505
21.726097 -104.671516 -9.209979
5.03582 -103.638706 -9.376264
6.319454 -104.104649 -9.234766
3.137486 -104.152767 -13.398309
3.81784 -104.077084 -12.110416
2.499884 -103.488472 -12.237993
3.82199 -104.768265 -14.463684
3.137486 -104.152767 -13.398309
21.550117 -105.38192 -19.607184
22.119752 -105.173729 -18.054692
20.568683 -105.965653 -20.198377
20.8855 -105.487259 -21.143711
21.550117 -105.38192 -19.607184
18.103204 -107.225979 -19.955739
18.8421 -107.105721 -18.451167
17.676367 -107.447902 -18.942047
18.523162 -106.91462 -20.937298
18.103204 -107.225979 -19.955739
10.185433 -107.581718 -18.532692
11.514294 -107.769764 -18.256737
10.87847 -107.552746 -17.106571
19.768619 -101.895832 -0.285413
19.084976 -101.54087 0.752915
20.482081 -102.187935 -1.270277
19.768619 -101.895832 -0.285413
19.540689 -102.699131 -1.78291
21.153512 -102.386078 -2.336587
20.482081 -102.187935 -1.270277
20.970963 -103.146286 -3.864412
21.153512 -102.386078 -2.336587
20.804985 -103.857452 -5.443834
20.970963 -103.146286 -3.864412
20.088173 -103.702401 -4.347198
20.545075 -104.556877 -7.035837
21.427865 -104.000763 -6.553051
20.804985 -103.857452 -5.443834
2.517961 -102.627578 -9.744888
3.75188 -103.153706 -9.590957
1.88959 -102.759983 -10.985489
2.517961 -102.627578 -9.744888
2.499884 -103.488472 -12.237993
1.88959 -102.759983 -10.985489
22.719735 -104.830215 -16.479158
23.182259 -104.41711 -14.955036
21.833282 -105.5168 -17.086317
22.119752 -105.173729 -18.054692
22.719735 -104.830215 -16.479158
16.491106 -107.707073 -19.455481
17.676367 -107.447902 -18.942047
17.230002 -107.586815 -17.95091
15.210465 -107.870674 -19.856583
16.491106 -107.707073 -19.455481
13.901525 -107.944111 -20.131114
15.210465 -107.870674 -19.856583
14.7358 -107.919422 -18.738875
12.665499 -107.920749 -20.507951
13.901525 -107.944111 -20.131114
7.691838 -106.684613 -16.461666
7.125333 -106.267139 -15.297022
6.425471 -106.307846 -16.680846
8.270793 -107.045009 -17.614008
8.970655 -107.004303 -16.230185
7.691838 -106.684613 -16.461666
8.835746 -107.319512 -18.753625
8.270793 -107.045009 -17.614008
21.853534 -105.207668 -11.925937
22.282512 -105.069443 -13.048513
20.96025 -105.824146 -12.483539
21.853534 -105.207668 -11.925937
21.390955 -105.259323 -10.832505
7.63172 -104.516221 -9.061851
8.839255 -104.782959 -8.724854
7.060385 -104.794362 -10.347801
7.63172 -104.516221 -9.061851
6.319454 -104.104649 -9.234766
4.464179 -103.897789 -10.735409
5.03582 -103.638706 -9.376264
3.75188 -103.153706 -9.590957
4.523752 -105.342762 -15.586419
5.157203 -105.315876 -14.393467
3.82199 -104.768265 -14.463684
5.051609 -105.800525 -16.730438
4.523752 -105.342762 -15.586419
18.145952 -101.898014 0.309193
19.084976 -101.54087 0.752915
17.929765 -102.748535 -1.318762
18.145952 -101.898014 0.309193
17.742171 -103.518067 -2.899031
18.639634 -103.176559 -2.378315
17.929765 -102.748535 -1.318762
16.727041 -103.83274 -3.438964
17.43691 -104.260765 -4.498517
17.742171 -103.518067 -2.899031
15.677704 -104.008567 -3.883347
16.727041 -103.83274 -3.438964
14.596811 -104.142265 -4.32603
15.340886 -104.709136 -5.481133
15.677704 -104.008567 -3.883347
13.460209 -104.22821 -4.851521
14.596811 -104.142265 -4.32603
12.264836 -104.192177 -5.223383
13.064619 -104.806801 -6.295678
13.460209 -104.22821 -4.851521
11.096829 -104.095913 -5.606764
12.264836 -104.192177 -5.223383
10.587553 -104.565376 -6.971181
11.096829 -104.095913 -5.606764
21.928047 -105.472889 -14.543878
22.787731 -104.76984 -14.015419
22.282512 -105.069443 -13.048513
19.586502 -106.477395 -20.599882
20.568683 -105.965653 -20.198377
20.251118 -106.372055 -19.063355
19.586502 -106.477395 -20.599882
18.523162 -106.91462 -20.937298
9.612825 -105.433124 -9.845665
10.079429 -105.01015 -8.395633
8.839255 -104.782959 -8.724854
12.124059 -107.895798 -19.348132
12.817096 -107.866825 -17.92201
11.514294 -107.769764 -18.256737
12.665499 -107.920749 -20.507951
12.124059 -107.895798 -19.348132
10.185433 -107.581718 -18.532692
8.835746 -107.319512 -18.753625
3 0 11 10
3 0 12 11
3 0 14 12
3 42 16 43
3 1 19 17
3 1 20 19
3 44 23 45
3 46 45 21
3 44 45 46
3 49 48 24
3 47 48 49
3 2 50 51
3 2 52 53
3 2 54 56
3 54 27 55
3 54 55 56
3 4 28 13
3 4 29 28
3 57 31 58
3 59 32 60
3 61 60 15
3 59 60 61
3 63 62 32
3 7 64 65
3 7 66 68
3 66 67 68
3 3 34 26
3 69 35 70
3 71 70 18
3 69 70 71
3 73 72 35
3 6 36 33
3 8 37 22
3 8 38 37
3 5 39 30
3 9 40 25
3 9 41 40
3 9 74 76
3 76 75 41
3 74 75 76
3 10 77 78
3 11 79 81
3 81 80 10
3 79 80 81
3 11 82 83
3 11 84 85
3 12 86 88
3 88 87 11
3 86 87 88
3 12 89 91
3 89 2 90
3 89 90 91
3 12 13 2
3 14 13 12
3 14 4 13
3 92 15 93
3 94 15 95
3 97 96 15
3 16 98 99
3 16 100 102
3 100 7 101
3 100 101 102
3 17 18 3
3 19 18 17
3 19 103 105
3 105 104 18
3 103 104 105
3 19 106 107
3 20 108 110
3 110 109 19
3 108 109 110
3 20 111 112
3 21 22 6
3 23 22 21
3 23 8 22
3 24 25 5
3 113 25 114
3 115 114 24
3 113 114 115
3 116 9 117
3 118 117 25
3 116 117 118
3 120 119 9
3 121 26 122
3 27 123 125
3 123 26 124
3 123 124 125
3 27 3 26
3 13 27 2
3 28 27 13
3 28 3 27
3 28 17 3
3 29 17 28
3 29 1 17
3 126 30 127
3 31 128 130
3 128 30 129
3 128 129 130
3 31 5 30
3 15 131 133
3 131 31 132
3 131 132 133
3 32 31 15
3 32 5 31
3 32 24 5
3 134 24 135
3 136 135 32
3 134 135 136
3 138 137 24
3 139 10 140
3 141 10 142
3 143 0 144
3 145 144 10
3 143 144 145
3 146 33 147
3 148 147 0
3 146 147 148
3 149 33 150
3 151 6 152
3 153 152 33
3 151 152 153
3 154 6 155
3 156 21 157
3 158 157 6
3 156 157 158
3 159 21 160
3 162 161 21
3 26 163 165
3 163 16 164
3 163 164 165
3 34 16 26
3 34 7 16
3 18 34 3
3 35 34 18
3 35 7 34
3 35 166 168
3 168 167 7
3 166 167 168
3 170 169 35
3 33 14 0
3 36 14 33
3 36 4 14
3 22 36 6
3 37 36 22
3 37 4 36
3 37 29 4
3 38 29 37
3 38 1 29
3 30 171 173
3 171 23 172
3 171 172 173
3 39 23 30
3 39 8 23
3 25 39 5
3 40 39 25
3 40 8 39
3 40 38 8
3 41 38 40
3 41 1 38
3 41 20 1
3 174 20 175
3 176 175 41
3 174 175 176
3 178 177 20
3 180 179 9
