ply
format ascii 1.0
element vertex 148
property float x
property float y
property float z
element face 136
property list uchar int vertex_index
end_header
-23.207834 -101.476479 -17.823416
-25.446321 -91.892769 -17.981405
-20.702953 -104.746986 -17.388226
-19.825632 -103.442924 -22.569304
-24.838165 -97.100708 -17.857126
-22.205433 -99.632301 -22.936457
-23.707245 -94.78701 -22.778194
-25.281885 -98.339928 -12.762202
-26.145264 -93.579086 -13.019058
-21.96063 -103.332985 -17.794542
-20.344931 -104.257027 -20.039188
-21.740046 -102.567055 -20.231028
-25.24539 -94.654396 -17.967482
-24.386406 -96.077057 -20.284225
-24.754404 -93.453377 -20.314045
-25.910517 -96.400795 -9.920916
-25.836975 -96.103638 -12.803288
-26.266056 -94.171951 -10.43273
-20.501587 -100.424187 -25.090054
-18.874922 -105.499969 -19.830399
-18.351736 -104.849388 -22.32411
-17.612696 -103.882027 -24.82375
-24.133324 -99.363113 -17.976439
-22.857725 -100.606766 -20.396229
-23.704838 -98.489029 -20.431623
-23.138802 -97.303093 -22.779274
-22.206108 -103.640999 -14.986362
-23.411814 -101.959618 -15.255113
-24.48173 -100.418381 -12.493823
-24.356287 -100.080582 -15.445896
-25.13685 -97.801888 -15.437806
-25.64443 -95.318062 -15.43365
-25.88608 -92.8312 -15.431875
-21.190586 -101.658089 -22.716059
-19.275381 -102.24601 -24.923588
-17.04343 -102.426788 -27.111557
-26.087149 -95.365032 -8.733934
-25.8465 -96.515126 -8.582092
-26.264919 -94.25061 -8.989841
-26.088286 -95.286373 -10.176823
-26.087149 -95.365032 -8.733934
-19.788938 -105.123478 -18.609313
-18.931618 -105.750972 -18.575787
-19.845633 -105.374481 -17.3547
-23.033643 -95.380443 -23.914176
-22.749421 -96.638485 -23.914716
-23.423023 -96.045051 -22.778734
-22.806503 -102.954231 -13.777572
-22.119681 -103.767865 -13.727237
-23.409356 -102.113541 -13.911948
-22.808961 -102.800308 -15.120738
-22.806503 -102.954231 -13.777572
-24.881808 -99.379154 -12.628013
-24.882678 -99.488228 -11.186012
-25.282756 -98.449002 -11.320201
-18.892823 -101.513077 -26.068748
-19.888484 -101.335099 -25.006821
-19.505926 -100.602166 -26.151981
-17.776848 -101.603466 -27.162732
-18.159405 -102.336399 -26.017572
-18.892823 -101.513077 -26.068748
-25.597072 -97.479435 -9.899559
-25.8465 -96.515126 -8.582092
-25.596201 -97.370362 -11.341559
-25.282756 -98.449002 -11.320201
-25.597072 -97.479435 -9.899559
-20.982435 -99.415054 -25.140181
-21.35351 -100.028244 -24.013255
-21.834357 -99.019112 -24.063383
-20.090091 -99.628846 -26.211877
-20.982435 -99.415054 -25.140181
-19.505926 -100.602166 -26.151981
-20.090091 -99.628846 -26.211877
-25.14002 -91.379036 -19.231212
-25.426479 -90.45599 -17.992369
-17.98848 -106.009418 -19.74812
-18.931618 -105.750972 -18.575787
-17.735529 -105.744239 -20.942401
-17.98848 -106.009418 -19.74812
-17.473936 -105.418949 -22.189256
-17.735529 -105.744239 -20.942401
-18.613329 -105.174678 -21.077255
-17.190792 -104.985908 -23.372327
-17.473936 -105.418949 -22.189256
-16.821272 -104.502228 -24.622147
-17.190792 -104.985908 -23.372327
-17.982216 -104.365707 -23.57393
-16.427759 -103.869434 -25.862865
-16.821272 -104.502228 -24.622147
-22.301042 -97.854508 -23.984791
-21.834357 -99.019112 -24.063383
-22.672117 -98.467697 -22.857866
-22.301042 -97.854508 -23.984791
-22.749421 -96.638485 -23.914716
-24.794061 -92.15934 -20.397533
-25.100363 -92.673073 -19.147725
-25.14002 -91.379036 -19.231212
-24.388513 -92.808094 -21.531767
-24.794061 -92.15934 -20.397533
-23.864933 -93.47491 -22.763841
-24.230825 -94.120193 -21.546119
-24.388513 -92.808094 -21.531767
-23.275014 -94.030792 -23.947902
-23.864933 -93.47491 -22.763841
-23.033643 -95.380443 -23.914176
-23.275014 -94.030792 -23.947902
-20.674415 -104.931942 -16.111404
-19.845633 -105.374481 -17.3547
-21.425992 -104.378949 -14.910472
-22.119681 -103.767865 -13.727237
-21.454531 -104.193993 -16.187294
-20.674415 -104.931942 -16.111404
-21.425992 -104.378949 -14.910472
-24.416398 -100.51403 -11.165949
-24.882678 -99.488228 -11.186012
-23.944313 -101.342923 -12.531303
-24.416398 -100.51403 -11.165949
-23.946772 -101.188999 -13.874468
-23.409356 -102.113541 -13.911948
-23.944313 -101.342923 -12.531303
-26.381773 -93.043316 -9.199751
-26.264919 -94.25061 -8.989841
-26.346373 -92.862518 -10.497512
-26.381773 -93.043316 -9.199751
-26.285978 -92.566085 -11.790677
-26.20566 -93.875518 -11.725894
-26.346373 -92.862518 -10.497512
-26.197221 -92.207065 -12.972024
-26.285978 -92.566085 -11.790677
-26.067629 -91.833123 -14.178433
-26.015672 -93.205143 -14.225466
-26.197221 -92.207065 -12.972024
-25.883351 -91.486881 -15.547276
-26.067629 -91.833123 -14.178433
-25.663472 -91.017666 -16.822041
-25.666201 -92.361985 -16.70664
-25.883351 -91.486881 -15.547276
-25.426479 -90.45599 -17.992369
-25.663472 -91.017666 -16.822041
-16.143126 -103.141815 -27.006769
-16.427759 -103.869434 -25.862865
-17.328063 -103.154407 -25.967654
-16.546897 -101.612125 -28.237075
-17.776848 -101.603466 -27.162732
-15.731846 -102.386898 -28.097183
-16.546897 -101.612125 -28.237075
-16.143126 -103.141815 -27.006769
-15.731846 -102.386898 -28.097183
3 0 11 9
3 1 14 12
3 36 15 37
3 38 17 39
3 40 39 15
3 38 39 40
3 2 41 43
3 41 19 42
3 41 42 43
3 3 20 10
3 3 21 20
3 4 24 22
3 6 25 13
3 6 44 46
3 46 45 25
3 44 45 46
3 47 26 48
3 49 27 50
3 51 50 26
3 49 50 51
3 7 52 54
3 52 28 53
3 52 53 54
3 7 29 28
3 7 30 29
3 8 31 16
3 8 32 31
3 5 33 23
3 55 34 56
3 57 56 18
3 55 56 57
3 58 35 59
3 60 59 34
3 58 59 60
3 9 10 2
3 11 10 9
3 11 3 10
3 12 13 4
3 14 13 12
3 14 6 13
3 15 61 62
3 15 63 65
3 63 7 64
3 63 64 65
3 15 16 7
3 17 16 15
3 17 8 16
3 66 18 67
3 68 67 5
3 66 67 68
3 69 18 70
3 72 71 18
3 74 73 1
3 19 75 76
3 19 77 78
3 10 19 2
3 20 19 10
3 20 79 81
3 81 80 19
3 79 80 81
3 20 82 83
3 21 84 86
3 86 85 20
3 84 85 86
3 21 87 88
3 22 23 0
3 24 23 22
3 24 5 23
3 13 24 4
3 25 24 13
3 25 5 24
3 25 89 91
3 91 90 5
3 89 90 91
3 93 92 25
3 94 14 95
3 96 95 1
3 94 95 96
3 97 14 98
3 99 6 100
3 101 100 14
3 99 100 101
3 102 6 103
3 105 104 6
3 106 2 107
3 26 108 109
3 26 110 112
3 110 2 111
3 110 111 112
3 26 9 2
3 27 9 26
3 27 0 9
3 28 113 114
3 28 115 116
3 28 117 119
3 117 27 118
3 117 118 119
3 29 27 28
3 29 0 27
3 29 22 0
3 30 22 29
3 30 4 22
3 16 30 7
3 31 30 16
3 31 4 30
3 31 12 4
3 32 12 31
3 32 1 12
3 120 17 121
3 122 17 123
3 124 8 125
3 126 125 17
3 124 125 126
3 127 8 128
3 129 32 130
3 131 130 8
3 129 130 131
3 132 32 133
3 134 1 135
3 136 135 32
3 134 135 136
3 138 137 1
3 23 11 0
3 33 11 23
3 33 3 11
3 18 33 5
3 34 33 18
3 34 3 33
3 34 21 3
3 35 21 34
3 35 139 141
3 141 140 21
3 139 140 141
3 142 35 143
3 144 35 145
3 147 146 35
