ply
format ascii 1.0
element vertex 264
property float x
property float y
property float z
element face 249
property list uchar int vertex_index
end_header
13.501556 38.421734 -31.474936
17.589762 29.067917 -34.95266
12.320109 50.849705 -29.577995
13.085152 39.913818 -23.335815
14.6113 46.744373 -19.787746
13.519922 46.53767 -22.840754
13.568707 40.304974 -20.181709
14.157102 33.422016 -28.408224
15.168272 33.333366 -33.039062
16.03688 28.409618 -30.050537
18.485043 24.561495 -31.728247
16.356121 33.426601 -38.076279
11.673503 49.071606 -33.52227
12.545908 44.287266 -30.171745
13.305892 52.13522 -25.936878
12.793027 45.591999 -26.41678
13.097261 39.026192 -27.194925
13.051982 40.908585 -33.058899
13.745407 38.281487 -33.750843
14.000788 43.633606 -19.9786
14.000315 40.540554 -18.764048
15.005258 30.74239 -29.151543
17.591269 24.055183 -29.463293
18.955683 22.252005 -30.242022
16.286312 31.093664 -33.973938
15.719032 33.477089 -35.578976
17.041096 31.268528 -36.581345
11.513338 52.152477 -33.057381
11.971468 49.855591 -31.454344
12.158311 46.828617 -31.764126
12.342095 47.666908 -29.722593
13.191743 43.185295 -23.10483
13.08612 46.094166 -24.625647
12.952221 42.782806 -24.904093
12.842831 42.257931 -26.730568
13.033535 39.306168 -25.194252
13.298717 36.382107 -25.751148
13.174754 36.724144 -23.8939
18.961226 27.323032 -35.820499
18.435442 29.503881 -37.663242
13.996055 49.674023 -22.688522
14.037299 46.763893 -21.237043
13.546597 43.51091 -21.481443
13.284135 40.110252 -21.601994
13.189446 36.950405 -22.125866
13.881401 35.831997 -29.9254
14.265712 35.725758 -32.272511
14.674098 33.170597 -30.636385
15.651365 30.838766 -31.55899
16.838945 28.616817 -32.469662
17.184593 26.491869 -31.005571
18.141506 26.72366 -33.374405
14.708333 35.613155 -34.691128
15.190147 35.565742 -37.361382
17.672783 31.764908 -39.391171
16.911438 33.675224 -40.91074
12.53229 43.677353 -32.297432
12.941226 41.205299 -30.805103
12.774565 51.494774 -27.685867
13.404604 49.231842 -24.400188
12.960763 48.701199 -26.068371
12.605118 48.210068 -27.880659
12.60769 45.030544 -28.322273
12.838402 41.797192 -28.66954
13.247703 38.849426 -29.310736
13.505356 36.31636 -27.752357
13.763568 33.635963 -26.409342
14.287752 40.547872 -18.069028
14.279827 42.088873 -18.673223
14.012377 38.859253 -18.166103
14.287752 40.547872 -18.069028
19.06441 21.256352 -29.450389
18.415106 22.086891 -29.121151
19.659534 21.524396 -30.615396
19.06441 21.256352 -29.450389
12.145789 50.352648 -30.51617
11.955749 51.454361 -31.360335
12.13007 51.951418 -30.42216
19.417322 27.666622 -37.224779
19.723522 26.658819 -36.417406
14.3243 46.754133 -20.512394
14.356248 48.41955 -21.208125
14.643248 48.40979 -20.483477
13.45149 38.664607 -20.341604
13.309203 38.567245 -21.051747
13.426421 40.207613 -20.891852
19.045034 24.795343 -33.009175
18.873266 25.876425 -33.832255
18.313274 25.642578 -32.551326
15.986625 34.473091 -38.909136
15.403638 35.542662 -38.551687
15.773134 34.496172 -37.71883
18.37088 30.958143 -39.838847
18.054112 30.634394 -38.527206
18.752209 29.827629 -38.974882
17.099497 33.862827 -42.286718
17.583548 32.929161 -41.520859
16.437869 34.657311 -41.681978
17.099497 33.862827 -42.286718
11.383571 50.204102 -34.279421
11.303489 51.744537 -34.046976
11.593421 50.612042 -33.289825
11.544214 48.663227 -34.563704
11.383571 50.204102 -34.279421
11.842128 47.595601 -33.755516
11.544214 48.663227 -34.563704
13.214709 53.479902 -26.73682
13.550963 53.74519 -25.898039
13.040229 51.814997 -26.811372
12.949046 53.159679 -27.611314
13.214709 53.479902 -26.73682
13.623343 33.658418 -25.401126
13.531142 35.009035 -26.080245
13.390918 35.031491 -25.072029
13.885148 32.243877 -25.72342
13.623343 33.658418 -25.401126
13.257887 35.395424 -22.367887
13.247765 35.498644 -21.508986
13.137245 40.698797 -34.187378
12.782056 42.109859 -33.792574
13.483957 39.385249 -34.53335
13.137245 40.698797 -34.187378
13.398695 39.595036 -33.404871
13.929202 38.078773 -34.958319
13.483957 39.385249 -34.53335
14.280064 43.635399 -19.280499
14.306044 45.18899 -19.883173
14.58532 45.190782 -19.185072
14.000552 42.08708 -19.371324
14.280064 43.635399 -19.280499
14.279827 42.088873 -18.673223
13.80754 38.888958 -18.885002
13.591736 38.771168 -19.593833
13.784511 40.422764 -19.472879
13.80754 38.888958 -18.885002
14.012377 38.859253 -18.166103
14.738724 30.737808 -28.097336
14.58118 32.082203 -28.779884
14.314646 32.077621 -27.725676
15.196091 29.497593 -28.551527
14.738724 30.737808 -28.097336
15.711903 28.331207 -29.001024
15.521069 29.576004 -29.60104
15.196091 29.497593 -28.551527
17.732899 22.98848 -28.731786
17.144936 23.892039 -28.358018
18.273476 23.153594 -29.852657
17.732899 22.98848 -28.731786
18.415106 22.086891 -29.121151
19.453662 22.581194 -31.39326
19.218342 23.735939 -32.136373
18.720363 23.40675 -30.985135
19.453662 22.581194 -31.39326
19.659534 21.524396 -30.615396
11.726684 52.602804 -32.161853
11.479849 53.778078 -33.018923
11.742403 51.004034 -32.255862
11.726684 52.602804 -32.161853
11.955749 51.454361 -31.360335
13.619749 52.31138 -25.059432
13.550963 53.74519 -25.898039
13.328936 35.202509 -24.143405
13.390918 35.031491 -25.072029
13.236735 36.553126 -24.822524
19.15443 28.757047 -38.14615
18.698334 28.413457 -36.74187
19.417322 27.666622 -37.224779
18.752209 29.827629 -38.974882
19.15443 28.757047 -38.14615
12.399682 52.482052 -29.498324
12.13007 51.951418 -30.42216
14.335625 49.874615 -21.933864
14.316116 51.369015 -22.702364
14.016677 48.218958 -21.962782
14.335625 49.874615 -21.933864
14.356248 48.41955 -21.208125
13.261859 36.987322 -21.313682
13.23679 38.530329 -21.86393
13.309203 38.567245 -21.051747
13.247765 35.498644 -21.508986
13.261859 36.987322 -21.313682
13.45149 38.664607 -20.341604
13.591736 38.771168 -19.593833
16.237453 27.18918 -29.372357
15.711903 28.331207 -29.001024
17.014648 25.011962 -29.078736
17.144936 23.892039 -28.358018
16.81131 26.230306 -29.849874
17.014648 25.011962 -29.078736
17.387931 25.273526 -30.234432
16.610737 27.450744 -30.528054
16.237453 27.18918 -29.372357
16.81131 26.230306 -29.849874
19.283126 26.176111 -35.055301
18.551366 27.023346 -34.597452
18.873266 25.876425 -33.832255
19.723522 26.658819 -36.417406
19.283126 26.176111 -35.055301
19.045034 24.795343 -33.009175
19.218342 23.735939 -32.136373
15.00715 48.485765 -19.798741
14.643248 48.40979 -20.483477
14.969324 46.835325 -19.134079
15.00715 48.485765 -19.798741
14.58532 45.190782 -19.185072
14.969324 46.835325 -19.134079
14.410666 36.744608 -35.428461
13.929202 38.078773 -34.958319
14.22687 36.947321 -34.220985
14.651573 36.720901 -36.763588
14.410666 36.744608 -35.428461
14.94924 35.589449 -36.026255
14.799195 36.655552 -38.037674
14.651573 36.720901 -36.763588
14.799195 36.655552 -38.037674
15.403638 35.542662 -38.551687
17.96422 31.974003 -40.761074
18.37088 30.958143 -39.838847
17.29211 32.720066 -40.150955
17.96422 31.974003 -40.761074
17.583548 32.929161 -41.520859
16.264284 34.597403 -40.326366
15.986625 34.473091 -38.909136
16.63378 33.550912 -39.49351
16.264284 34.597403 -40.326366
16.437869 34.657311 -41.681978
11.212442 53.263025 -33.903019
11.479849 53.778078 -33.018923
11.212442 53.263025 -33.903019
11.303489 51.744537 -34.046976
12.084532 46.474106 -32.876444
11.842128 47.595601 -33.755516
11.915907 47.950112 -32.643198
12.271521 44.898474 -33.143097
12.084532 46.474106 -32.876444
12.345301 45.252985 -32.030779
12.52221 43.494243 -33.41184
12.271521 44.898474 -33.143097
12.792136 42.292969 -32.678165
12.782056 42.109859 -33.792574
12.52221 43.494243 -33.41184
12.62691 52.804586 -28.55226
12.949046 53.159679 -27.611314
12.547337 51.17224 -28.631931
12.399682 52.482052 -29.498324
12.62691 52.804586 -28.55226
13.96483 51.080782 -23.435254
14.316116 51.369015 -22.702364
13.669104 50.859691 -24.291087
13.96483 51.080782 -23.435254
13.70033 49.452933 -23.544355
13.355248 50.683531 -25.168533
13.619749 52.31138 -25.059432
13.669104 50.859691 -24.291087
14.117879 32.184594 -26.726236
14.314646 32.077621 -27.725676
13.960335 33.528989 -27.408783
14.117879 32.184594 -26.726236
13.885148 32.243877 -25.72342
13.250541 35.282294 -23.251904
13.1821 36.837275 -23.009883
13.257887 35.395424 -22.367887
13.328936 35.202509 -24.143405
13.250541 35.282294 -23.251904
3 0 18 17
3 67 20 68
3 70 69 20
3 71 23 72
3 74 73 23
3 1 26 24
3 2 75 77
3 75 28 76
3 75 76 77
3 2 30 28
3 3 33 31
3 3 35 33
3 3 37 35
3 79 78 38
3 4 80 82
3 80 41 81
3 80 81 82
3 6 42 19
3 6 43 42
3 6 83 85
3 85 84 43
3 83 84 85
3 7 47 45
3 9 48 21
3 9 49 48
3 10 50 22
3 10 51 50
3 10 86 88
3 88 87 51
3 86 87 88
3 8 52 46
3 11 53 25
3 11 89 91
3 91 90 53
3 89 90 91
3 92 54 93
3 94 93 39
3 92 93 94
3 95 55 96
3 98 97 55
3 12 99 101
3 101 100 27
3 99 100 101
3 12 102 103
3 12 104 105
3 13 56 29
3 13 57 56
3 14 106 107
3 14 108 110
3 108 58 109
3 108 109 110
3 5 59 40
3 15 60 32
3 15 61 60
3 15 62 61
3 16 63 34
3 16 64 63
3 16 65 64
3 111 66 112
3 113 112 36
3 111 112 113
3 115 114 66
3 117 116 44
3 17 118 119
3 18 120 122
3 122 121 17
3 120 121 122
3 18 123 124
3 125 19 126
3 127 126 4
3 125 126 127
3 20 128 130
3 128 19 129
3 128 129 130
3 20 6 19
3 20 131 133
3 133 132 6
3 131 132 133
3 135 134 20
3 136 21 137
3 138 137 7
3 136 137 138
3 139 21 140
3 141 9 142
3 143 142 21
3 141 142 143
3 144 22 145
3 23 146 148
3 146 22 147
3 146 147 148
3 23 10 22
3 23 149 151
3 151 150 10
3 149 150 151
3 153 152 23
3 24 25 8
3 26 25 24
3 26 11 25
3 154 27 155
3 28 156 158
3 156 27 157
3 156 157 158
3 28 12 27
3 28 29 12
3 30 29 28
3 30 13 29
3 159 14 160
3 31 32 5
3 33 32 31
3 33 15 32
3 33 34 15
3 35 34 33
3 35 16 34
3 35 36 16
3 37 36 35
3 37 161 163
3 163 162 36
3 161 162 163
3 38 39 1
3 164 39 165
3 166 165 38
3 164 165 166
3 168 167 39
3 169 2 170
3 171 40 172
3 41 173 175
3 173 40 174
3 173 174 175
3 41 5 40
3 19 41 4
3 42 41 19
3 42 5 41
3 42 31 5
3 43 31 42
3 43 3 31
3 43 44 3
3 176 44 177
3 178 177 43
3 176 177 178
3 180 179 44
3 182 181 6
3 45 46 0
3 47 46 45
3 47 8 46
3 21 47 7
3 48 47 21
3 48 8 47
3 48 24 8
3 49 24 48
3 49 1 24
3 183 9 184
3 22 185 186
3 50 187 189
3 189 188 22
3 187 188 189
3 50 190 192
3 190 9 191
3 190 191 192
3 50 49 9
3 51 49 50
3 51 1 49
3 51 38 1
3 193 38 194
3 195 194 51
3 193 194 195
3 197 196 38
3 199 198 10
3 200 4 201
3 202 4 203
3 205 204 4
3 46 18 0
3 52 18 46
3 52 206 208
3 208 207 18
3 206 207 208
3 25 52 8
3 53 52 25
3 53 209 211
3 211 210 52
3 209 210 211
3 53 212 213
3 215 214 53
3 39 26 1
3 54 26 39
3 54 11 26
3 216 54 217
3 55 218 220
3 218 54 219
3 218 219 220
3 55 11 54
3 55 221 223
3 223 222 11
3 221 222 223
3 225 224 55
3 27 226 227
3 229 228 27
3 29 230 232
3 232 231 12
3 230 231 232
3 56 233 235
3 235 234 29
3 233 234 235
3 56 236 237
3 56 238 240
3 238 17 239
3 238 239 240
3 57 17 56
3 57 0 17
3 58 241 242
3 58 243 245
3 243 2 244
3 243 244 245
3 40 246 247
3 59 248 250
3 250 249 40
3 248 249 250
3 59 251 253
3 251 14 252
3 251 252 253
3 32 59 5
3 60 59 32
3 60 14 59
3 60 58 14
3 61 58 60
3 61 2 58
3 61 30 2
3 62 30 61
3 62 13 30
3 34 62 15
3 63 62 34
3 63 13 62
3 63 57 13
3 64 57 63
3 64 0 57
3 64 45 0
3 65 45 64
3 65 7 45
3 36 65 16
3 66 65 36
3 66 7 65
3 66 254 256
3 256 255 7
3 254 255 256
3 258 257 66
3 44 37 3
3 259 37 260
3 261 260 44
3 259 260 261
3 263 262 37
