ply
format ascii 1.0
element vertex 369
property float x
property float y
property float z
element face 330
property list uchar int vertex_index
end_header
-29.977304 -16.238115 68.86586
-30.984755 -12.313551 61.334534
-28.348089 -28.200466 69.758018
-30.634657 12.808062 43.459309
-30.483871 -20.748341 66.086426
-30.817989 -14.405429 65.361061
-28.318972 -17.809551 71.426529
-29.345491 -22.568254 69.416832
-29.794418 -27.127285 66.778038
-30.514677 10.474779 47.496365
-29.853804 -31.604109 63.752811
-28.748064 -11.63765 70.975121
-30.239086 -9.593084 68.06485
-30.072046 -1.135258 40.6717
-30.243734 2.037575 47.994167
-30.258711 4.586345 44.094128
-30.584408 6.844875 40.238327
-30.299994 -18.556608 67.572388
-30.686789 -17.704773 65.683151
-30.495081 -15.498885 67.195007
-29.276737 -17.220751 70.222076
-28.947874 -20.173855 70.465843
-29.751282 -19.428024 69.077141
-30.005152 -21.77689 67.907188
-30.915827 -15.594134 61.785892
-30.888855 -11.188744 59.134762
-27.872368 -26.021009 70.874214
-27.246344 -28.800772 70.883942
-27.677036 -30.933332 69.84787
-28.619127 -30.489262 68.57196
-30.207809 -26.466702 64.915527
-29.846704 -29.459387 65.286964
-27.795397 -9.315808 71.700623
-27.731848 -12.629351 71.964668
-29.895786 -2.477667 42.525105
-30.645325 -8.586435 66.367363
-30.318335 0.861626 49.984028
-30.545084 11.627074 45.378468
-30.389311 7.443359 45.813484
-30.455082 8.610208 43.695766
-30.370331 5.658574 42.149143
-30.605324 10.003095 41.822029
-30.826298 10.948667 39.908375
-30.796247 13.972543 41.51749
-30.49312 -23.274977 64.654541
-30.70742 -20.256645 64.160194
-30.873119 -16.68185 63.787403
-30.973764 -13.252916 63.386791
-27.910192 -20.816349 71.590996
-28.445555 -23.197994 70.723747
-28.852663 -25.577847 69.651245
-29.190262 -27.814709 68.316978
-29.630827 -24.858021 68.164406
-30.189201 -24.024054 66.408951
-30.624218 14.588508 47.201378
-29.342772 -30.031147 67.029175
-29.465322 -32.07983 65.58094
-29.499392 -13.795659 69.960129
-30.169333 -13.012815 68.457069
-29.640783 -10.652865 69.58593
-27.492601 -15.664187 72.169792
-28.667587 -14.821326 71.138931
-30.603506 -12.24248 66.85202
-30.887957 -11.026812 64.938782
-31.007948 -9.820261 62.943645
-31.003763 -8.766099 60.814934
-30.918531 -7.358486 58.864754
-30.763664 -6.216643 56.702068
-30.56625 -5.114008 54.482388
-30.374523 -4.209893 52.414284
-30.22266 -2.848689 50.357525
-30.09725 -1.889356 48.226326
-30.031418 -0.78534 46.106148
-30.388876 6.247661 47.810772
-30.218981 3.294098 46.055698
-30.046875 0.47602 44.151066
-30.139494 1.658584 42.369682
-30.331215 2.824472 40.466877
-30.894884 8.135766 38.406925
-30.906731 -13.536401 60.470137
-30.872267 -15.176693 60.695816
-30.950291 -13.953843 61.560213
-30.936805 -11.751148 60.234648
-30.858781 -12.973997 59.370251
-30.906731 -13.536401 60.470137
-30.191757 -27.504367 64.136736
-30.328606 -25.894523 63.939899
-27.773942 -7.734162 71.535199
-27.204642 -8.391985 71.956081
-27.204642 -8.391985 71.956081
-27.236827 -9.924834 72.080937
-29.86687 -2.979828 43.473628
-29.789091 -4.340005 42.629849
-28.114582 -19.31295 71.508763
-27.53384 -19.687838 71.95102
-27.73823 -18.184439 71.868786
-30.668772 16.536562 47.030824
-30.645848 15.972276 48.102308
-30.653053 15.124936 46.10079
-30.668772 16.536562 47.030824
-29.694313 -32.975671 63.841636
-29.500072 -33.213532 64.755701
-29.659563 -31.84197 64.666876
-29.860501 -32.541768 62.907778
-29.694313 -32.975671 63.841636
-26.967337 -14.532951 72.439315
-26.791694 -15.988732 72.523349
-26.266429 -14.857495 72.792873
-30.05821 -2.617826 39.877306
-29.945336 -3.114807 40.750214
-30.207939 -0.61599 39.727158
-30.05821 -2.617826 39.877306
-30.881943 -9.131985 64.732586
-30.766641 -9.806624 65.653073
-30.760627 -7.911796 65.446877
-30.941938 -8.528709 63.735017
-30.947952 -10.423537 63.941214
-30.881943 -9.131985 64.732586
-30.98723 -6.929744 60.757768
-30.988625 -7.491081 61.721199
-30.944614 -6.225937 59.782679
-30.961147 -8.062292 59.839844
-30.98723 -6.929744 60.757768
-30.758009 -4.301369 56.54173
-30.8228 -4.954268 57.577295
-30.659302 -3.750052 55.431891
-30.664957 -5.665325 55.592228
-30.758009 -4.301369 56.54173
-30.408306 -2.201919 52.24149
-30.489224 -2.719661 53.361328
-30.332375 -1.521317 51.21311
-30.298592 -3.529291 51.385905
-30.408306 -2.201919 52.24149
-30.451777 8.36122 47.653568
-30.455327 7.723211 48.646828
-30.518228 9.836771 48.489624
-30.610182 5.429352 39.398138
-30.483586 3.419151 39.512413
-30.457811 4.834674 40.352602
-30.739646 7.490321 39.322626
-30.76542 6.074798 38.482437
-30.610182 5.429352 39.398138
-31.086281 13.621148 38.852868
-30.984406 11.583542 39.000788
-30.928173 12.986273 39.760454
-30.830485 -16.843224 60.940202
-30.854833 -17.336256 61.996902
-30.830485 -16.843224 60.940202
-30.872267 -15.176693 60.695816
-30.770484 -12.41189 58.207543
-30.858781 -12.973997 59.370251
-30.805712 -10.577709 58.040011
-30.770484 -12.41189 58.207543
-27.269434 -26.190162 71.346267
-27.58077 -24.76125 71.339596
-26.956422 -27.580043 71.351132
-27.269434 -26.190162 71.346267
-27.559356 -27.410891 70.879078
-26.561783 -28.855261 71.350964
-26.956422 -27.580043 71.351132
-26.824305 -30.048677 70.915821
-26.139744 -30.103167 71.382844
-26.561783 -28.855261 71.350964
-27.039651 -31.114957 70.397785
-26.824305 -30.048677 70.915821
-27.46169 -29.867052 70.365906
-27.306413 -32.255663 69.834225
-27.039651 -31.114957 70.397785
-27.826337 -32.160584 69.229306
-27.306413 -32.255663 69.834225
-28.297382 -31.938549 68.591351
-27.826337 -32.160584 69.229306
-28.148081 -30.711297 69.209915
-28.72686 -31.580508 67.906258
-28.297382 -31.938549 68.591351
-30.011204 -29.000709 64.322454
-30.027257 -27.963045 65.101246
-30.191757 -27.504367 64.136736
-30.014755 -30.073071 63.555378
-29.850254 -30.531748 64.519887
-30.011204 -29.000709 64.322454
-29.974822 -31.13644 62.749603
-30.014755 -30.073071 63.555378
-28.331901 -8.943314 71.141648
-28.808234 -10.104236 70.778897
-28.271731 -10.476729 71.337872
-28.331901 -8.943314 71.141648
-27.773942 -7.734162 71.535199
-27.205053 -11.581605 72.212959
-27.08696 -13.015533 72.336754
-27.763623 -10.97258 71.832645
-27.205053 -11.581605 72.212959
-27.236827 -9.924834 72.080937
-29.857206 -3.786012 41.676917
-29.789091 -4.340005 42.629849
-29.983916 -1.806462 41.598403
-29.945336 -3.114807 40.750214
-29.857206 -3.786012 41.676917
-30.401749 -7.324501 67.076668
-30.442206 -9.089759 67.216106
-30.19863 -7.827825 67.925411
-30.596945 -6.713836 66.220821
-30.401749 -7.324501 67.076668
-30.760627 -7.911796 65.446877
-30.596945 -6.713836 66.220821
-30.411918 2.315587 50.90041
-30.380212 0.33384 51.026362
-30.372604 2.927164 49.860824
-30.411918 2.315587 50.90041
-30.335303 3.515138 48.865894
-30.281035 1.4496 48.989097
-30.372604 2.927164 49.860824
-30.913148 14.498211 40.565012
-30.928173 12.986273 39.760454
-30.811273 12.460605 40.712933
-30.562401 -22.865963 63.59289
-30.471261 -24.298661 63.809406
-30.66955 -21.356797 63.345717
-30.562401 -22.865963 63.59289
-30.60027 -21.765811 64.407367
-30.75063 -19.667511 63.184053
-30.66955 -21.356797 63.345717
-30.833479 -17.880114 62.997658
-30.75063 -19.667511 63.184053
-30.79027 -18.469248 63.973799
-30.894473 -16.137992 62.786648
-30.854833 -17.336256 61.996902
-30.833479 -17.880114 62.997658
-27.247048 -21.056885 72.030911
-27.53384 -19.687838 71.95102
-27.599681 -22.158921 71.697986
-27.247048 -21.056885 72.030911
-27.867363 -23.349743 71.264362
-27.599681 -22.158921 71.697986
-28.177873 -22.007171 71.157372
-28.158962 -24.609502 70.79898
-27.58077 -24.76125 71.339596
-27.867363 -23.349743 71.264362
-30.471261 -24.298661 63.809406
-30.328606 -25.894523 63.939899
-30.350465 -24.87084 64.785034
-30.558827 11.891037 48.349575
-30.518228 9.836771 48.489624
-30.613598 13.947902 48.202081
-30.645848 15.972276 48.102308
-30.569447 12.531643 47.348872
-30.558827 11.891037 48.349575
-30.613598 13.947902 48.202081
-30.613487 13.644219 45.189335
-30.584651 13.107791 46.289923
-30.653053 15.124936 46.10079
-30.658273 14.234713 44.229755
-30.58987 12.217568 44.418888
-30.613487 13.644219 45.189335
-30.714268 14.764985 43.228777
-30.658273 14.234713 44.229755
-29.088683 -31.35145 67.134865
-28.72686 -31.580508 67.906258
-28.98095 -30.260205 67.800567
-29.149957 -32.375792 66.410747
-29.088683 -31.35145 67.134865
-29.404047 -31.055489 66.305058
-29.246817 -33.478316 65.636414
-29.149957 -32.375792 66.410747
-29.246817 -33.478316 65.636414
-29.500072 -33.213532 64.755701
-29.860501 -32.541768 62.907778
-29.974822 -31.13644 62.749603
-29.254593 -9.611843 70.084301
-29.194423 -11.145257 70.280526
-28.808234 -10.104236 70.778897
-29.612859 -8.934959 69.450577
-29.254593 -9.611843 70.084301
-29.91201 -8.405068 68.690037
-29.939934 -10.122974 68.82539
-29.612859 -8.934959 69.450577
-30.19863 -7.827825 67.925411
-29.91201 -8.405068 68.690037
-27.325045 -17.111757 72.240418
-26.791694 -15.988732 72.523349
-27.905786 -16.736869 71.79816
-27.73823 -18.184439 71.868786
-27.325045 -17.111757 72.240418
-27.612224 -14.146769 72.06723
-26.967337 -14.532951 72.439315
-27.08696 -13.015533 72.336754
-30.990717 -8.018162 62.785555
-30.941938 -8.528709 63.735017
-31.005855 -9.29318 61.879289
-30.990717 -8.018162 62.785555
-30.988625 -7.491081 61.721199
-30.820551 -8.66258 57.905006
-30.805712 -10.577709 58.040011
-30.903693 -9.273615 58.999758
-30.900234 -5.525189 58.658638
-30.944614 -6.225937 59.782679
-30.841098 -6.787565 57.783411
-30.900234 -5.525189 58.658638
-30.8228 -4.954268 57.577295
-30.743117 -8.091658 56.823663
-30.820551 -8.66258 57.905006
-30.841098 -6.787565 57.783411
-30.641038 -7.596637 55.766748
-30.743117 -8.091658 56.823663
-30.542331 -7.045319 54.656909
-30.641038 -7.596637 55.766748
-30.664957 -5.665325 55.592228
-30.436734 -6.497962 53.607207
-30.542331 -7.045319 54.656909
-30.585088 -3.171719 54.39538
-30.659302 -3.750052 55.431891
-30.470387 -4.66195 53.448336
-30.585088 -3.171719 54.39538
-30.489224 -2.719661 53.361328
-30.34087 -6.045904 52.573155
-30.436734 -6.497962 53.607207
-30.470387 -4.66195 53.448336
-30.238054 -5.458499 51.462007
-30.34087 -6.045904 52.573155
-30.162123 -4.777896 50.433628
-30.238054 -5.458499 51.462007
-30.298592 -3.529291 51.385905
-30.092734 -4.173248 49.413809
-30.162123 -4.777896 50.433628
-30.270498 -0.993531 50.170777
-30.332375 -1.521317 51.21311
-30.380212 0.33384 51.026362
-30.030029 -3.693582 48.348209
-30.092734 -4.173248 49.413809
-30.159955 -2.369022 49.291926
-29.974731 -3.259381 47.248764
-30.030029 -3.693582 48.348209
-29.941815 -2.707373 46.188675
-29.974731 -3.259381 47.248764
-30.064334 -1.337348 47.166237
-29.934686 -2.133665 45.264149
-29.941815 -2.707373 46.188675
-30.407874 5.620182 48.774197
-30.455327 7.723211 48.646828
-30.316305 4.142618 47.902469
-30.335303 3.515138 48.865894
-30.407874 5.620182 48.774197
-29.942414 -1.502985 44.286608
-29.934686 -2.133665 45.264149
-30.039147 -0.15466 45.128607
-29.971331 -1.000823 43.338086
-29.86687 -2.979828 43.473628
-29.942414 -1.502985 44.286608
-30.337523 1.363875 39.624747
-30.207939 -0.61599 39.727158
-30.201631 0.844607 40.569288
-30.337523 1.363875 39.624747
-30.483586 3.419151 39.512413
-30.946131 6.595171 37.653727
-30.76542 6.074798 38.482437
-31.074007 8.597071 37.565827
-30.946131 6.595171 37.653727
-31.018698 10.177091 38.250063
-30.860591 9.542217 39.15765
-30.984406 11.583542 39.000788
-31.074007 8.597071 37.565827
-31.018698 10.177091 38.250063
-30.795063 15.347225 42.257868
-30.715452 13.390303 42.488399
-30.714268 14.764985 43.228777
-30.887073 16.04847 41.289543
-30.795063 15.347225 42.257868
-30.913148 14.498211 40.565012
-30.887073 16.04847 41.289543
3 0 19 17
3 0 22 20
3 0 17 22
3 1 79 81
3 81 80 24
3 79 80 81
3 1 82 84
3 82 25 83
3 82 83 84
3 2 27 26
3 2 28 27
3 2 29 28
3 86 85 30
3 88 87 32
3 89 32 90
3 91 34 92
3 3 39 37
3 3 41 39
3 3 43 41
3 4 45 44
3 5 46 18
3 5 47 46
3 6 93 95
3 93 48 94
3 93 94 95
3 7 49 21
3 7 50 49
3 7 52 50
3 4 53 23
3 4 44 53
3 96 54 97
3 99 98 54
3 8 55 51
3 10 56 31
3 10 100 102
3 102 101 56
3 100 101 102
3 10 103 104
3 11 59 57
3 105 60 106
3 105 106 107
3 11 61 33
3 11 57 61
3 13 108 109
3 13 110 111
3 12 62 58
3 112 63 113
3 114 113 35
3 112 113 114
3 115 64 116
3 117 116 63
3 115 116 117
3 118 65 119
3 120 66 121
3 122 121 65
3 120 121 122
3 123 67 124
3 125 68 126
3 127 126 67
3 125 126 127
3 128 69 129
3 130 70 131
3 132 131 69
3 130 131 132
3 14 71 36
3 14 72 71
3 9 133 135
3 133 73 134
3 133 134 135
3 15 74 38
3 15 75 74
3 15 76 75
3 16 77 40
3 16 136 138
3 138 137 77
3 136 137 138
3 16 139 141
3 139 78 140
3 139 140 141
3 144 143 42
3 142 143 144
3 17 18 4
3 19 18 17
3 19 5 18
3 20 21 6
3 22 21 20
3 22 7 21
3 22 23 7
3 17 23 22
3 17 4 23
3 24 145 146
3 148 147 24
3 25 149 150
3 25 151 152
3 26 153 154
3 27 155 157
3 157 156 26
3 155 156 157
3 27 158 159
3 27 160 162
3 160 161 162
3 28 163 165
3 165 164 27
3 163 164 165
3 28 166 167
3 28 168 169
3 29 170 172
3 172 171 28
3 170 171 172
3 29 173 174
3 30 31 8
3 175 31 176
3 177 176 30
3 175 176 177
3 178 10 179
3 180 179 31
3 178 179 180
3 182 181 10
3 32 183 185
3 185 184 11
3 183 184 185
3 187 186 32
3 188 33 189
3 32 190 192
3 190 33 191
3 190 191 192
3 32 11 33
3 34 193 194
3 34 195 197
3 195 13 196
3 195 196 197
3 198 35 199
3 200 199 12
3 198 199 200
3 201 35 202
3 204 203 35
3 205 36 206
3 207 36 208
3 209 14 210
3 211 210 36
3 209 210 211
3 37 38 9
3 39 38 37
3 39 15 38
3 39 40 15
3 41 40 39
3 41 16 40
3 41 42 16
3 43 42 41
3 43 212 214
3 214 213 42
3 212 213 214
3 44 215 216
3 45 217 219
3 219 218 44
3 217 218 219
3 45 220 221
3 18 45 4
3 46 45 18
3 46 222 224
3 224 223 45
3 222 223 224
3 46 225 227
3 225 24 226
3 225 226 227
3 47 24 46
3 47 1 24
3 48 228 229
3 48 230 231
3 21 48 6
3 49 48 21
3 49 232 234
3 234 233 48
3 232 233 234
3 49 235 237
3 235 26 236
3 235 236 237
3 50 26 49
3 50 2 26
3 50 51 2
3 52 51 50
3 52 8 51
3 23 52 7
3 53 52 23
3 53 8 52
3 53 30 8
3 44 30 53
3 44 238 240
3 240 239 30
3 238 239 240
3 241 9 242
3 54 243 244
3 54 245 247
3 245 9 246
3 245 246 247
3 54 37 9
3 248 37 249
3 250 249 54
3 248 249 250
3 251 3 252
3 253 252 37
3 251 252 253
3 255 254 3
3 51 29 2
3 55 29 51
3 55 256 258
3 258 257 29
3 256 257 258
3 31 55 8
3 56 55 31
3 56 259 261
3 261 260 55
3 259 260 261
3 56 262 263
3 265 264 56
3 267 266 10
3 57 58 0
3 59 58 57
3 59 12 58
3 268 59 269
3 270 269 11
3 268 269 270
3 271 59 272
3 273 12 274
3 275 274 59
3 273 274 275
3 277 276 12
3 60 278 279
3 60 280 282
3 280 6 281
3 280 281 282
3 33 283 285
3 283 60 284
3 283 284 285
3 61 60 33
3 61 6 60
3 61 20 6
3 57 20 61
3 57 0 20
3 58 19 0
3 62 19 58
3 62 5 19
3 35 62 12
3 63 62 35
3 63 5 62
3 63 47 5
3 64 47 63
3 64 1 47
3 286 64 287
3 65 288 290
3 288 64 289
3 288 289 290
3 65 1 64
3 65 25 1
3 66 25 65
3 66 291 293
3 293 292 25
3 291 292 293
3 294 66 295
3 67 296 298
3 296 66 297
3 296 297 298
3 67 299 301
3 301 300 66
3 299 300 301
3 67 302 303
3 68 304 306
3 306 305 67
3 304 305 306
3 68 307 308
3 309 68 310
3 69 311 313
3 311 68 312
3 311 312 313
3 69 314 316
3 316 315 68
3 314 315 316
3 69 317 318
3 70 319 321
3 321 320 69
3 319 320 321
3 70 322 323
3 36 324 326
3 324 70 325
3 324 325 326
3 71 70 36
3 71 327 329
3 329 328 70
3 327 328 329
3 71 330 331
3 72 332 334
3 334 333 71
3 332 333 334
3 72 335 336
3 73 337 338
3 73 339 341
3 339 14 340
3 339 340 341
3 38 73 9
3 74 73 38
3 74 14 73
3 74 72 14
3 75 72 74
3 75 342 344
3 344 343 72
3 342 343 344
3 75 345 347
3 345 34 346
3 345 346 347
3 76 34 75
3 76 13 34
3 40 76 15
3 77 76 40
3 77 13 76
3 77 348 350
3 350 349 13
3 348 349 350
3 352 351 77
3 78 353 354
3 78 355 356
3 42 78 16
3 357 78 358
3 359 358 42
3 357 358 359
3 361 360 78
3 362 43 363
3 364 363 3
3 362 363 364
3 365 43 366
3 368 367 43
