ply
format ascii 1.0
element vertex 249
property float x
property float y
property float z
element face 232
property list uchar int vertex_index
end_header
-11.768287 53.419815 50.278751
-18.869564 50.915951 55.215115
-6.436675 41.475033 52.191711
-27.1014 48.4921 54.393776
-24.561554 52.949036 54.198463
-15.249997 52.62014 52.779823
-18.125736 58.136578 51.231003
-14.528745 59.451942 48.798306
-8.236716 54.0354 47.612827
-10.992153 59.93396 46.335087
-7.409298 60.105587 43.823128
-22.14641 48.261322 57.012783
-16.066532 45.636059 56.50304
-12.55084 46.658283 53.985043
-9.857556 40.758076 54.792248
-8.937229 47.310925 51.276867
-5.480139 47.849987 48.742054
-21.428888 55.820866 53.225109
-25.868837 50.959438 54.410301
-24.886946 48.855915 56.05027
-13.552103 52.92437 51.647614
-14.894731 56.20808 50.757542
-13.095005 56.240635 49.687813
-6.451888 53.997833 46.436001
-7.794909 57.109619 45.730103
-6.044431 57.096241 44.564266
-14.355649 46.1912 55.311798
-12.923306 43.272442 55.72934
-8.098793 41.126495 53.445553
-9.362038 44.051788 53.021599
-7.580682 44.430119 51.655064
-7.210299 47.610138 49.9818
-5.837838 44.536915 50.461128
-20.539108 49.708588 56.206921
-21.857044 52.162521 55.126434
-20.109102 53.393208 54.312084
-5.065662 38.688053 52.495148
-4.54774 41.789856 50.841797
-17.067295 51.852139 54.059898
-18.368988 54.672264 53.164406
-16.631323 55.374012 52.080235
-16.37664 58.775345 50.137188
-10.006254 53.573627 49.036484
-11.297684 56.662231 48.321838
-9.562052 56.820423 47.079552
-9.131958 59.90823 45.10136
-5.468929 59.917549 42.627712
-19.043755 47.133724 57.057617
-17.400299 48.172291 55.966549
-15.66796 49.180595 54.661915
-13.864221 49.589928 53.44577
-12.032349 50.076229 52.066349
-11.108847 43.774124 54.322388
-10.8181 47.27425 52.562962
-10.274248 50.410305 50.742561
-8.533491 50.833069 49.369755
-6.7265 50.777786 48.188751
-23.425442 50.634335 55.722607
-23.088711 54.640274 53.765522
-19.757664 57.125217 52.274174
-12.741884 59.713367 47.587685
-25.002356 46.88048 56.888887
-25.509825 47.860449 56.094717
-5.319192 55.541742 44.896457
-6.248159 55.547037 45.500134
-5.52292 53.992538 45.832325
-13.17858 41.558628 56.619659
-13.835515 42.949457 56.420374
-7.267734 41.300764 52.818632
-7.430179 39.637981 53.633417
-6.59912 39.81225 53.006496
-27.006464 50.578083 53.479603
-27.489688 49.495813 53.359449
-25.116394 53.947992 53.354624
-25.770035 52.953193 53.460543
-25.215196 51.954237 54.304382
-24.433838 54.942104 53.19175
-25.116394 53.947992 53.354624
-27.60541 47.535696 54.087786
-27.226185 46.566896 55.106224
-27.489688 49.495813 53.359449
-27.60541 47.535696 54.087786
-4.470135 37.231353 52.723005
-5.30288 37.058188 53.32226
-4.174679 38.703345 51.930428
-4.470135 37.231353 52.723005
-15.292124 60.953238 48.325541
-16.216072 60.614939 48.994982
-15.452692 59.113644 49.467747
-8.128312 61.619929 43.416989
-8.989642 61.52125 44.056105
-8.270628 60.006909 44.462244
-4.557402 59.926771 42.021179
-4.784275 58.456964 42.985596
-19.277984 45.26527 57.955097
-19.948139 46.557722 57.518622
-16.913506 45.049465 57.151774
-16.270157 43.751041 57.426941
-16.733415 46.904175 56.234794
-17.58039 46.317582 56.883528
-16.913506 45.049465 57.151774
-10.116817 39.129433 55.652659
-9.221205 39.43363 54.924444
-10.732069 40.593422 55.446764
-10.116817 39.129433 55.652659
-10.483201 42.2661 54.557318
-11.357715 42.101446 55.211834
-10.732069 40.593422 55.446764
-5.237621 49.348261 47.88533
-5.860801 50.812161 47.608679
-6.103319 49.313886 48.465403
-4.355041 43.279697 50.067285
-3.656753 41.717337 50.321459
-22.785926 49.447828 56.367695
-23.577419 48.748236 56.572035
-22.937903 47.561729 57.217123
-22.126097 57.130351 52.479204
-22.956008 56.540054 52.74941
-22.2588 55.23057 53.495316
-26.000771 48.912211 55.274732
-26.485118 49.725769 54.402039
-26.617052 47.678542 55.26647
-25.377891 49.907677 55.230285
-26.000771 48.912211 55.274732
-25.509825 47.860449 56.094717
-26.617052 47.678542 55.26647
-27.226185 46.566896 55.106224
-15.407128 44.131265 56.807224
-16.270157 43.751041 57.426941
-14.551687 44.408836 56.211603
-15.21109 45.913629 55.907419
-15.407128 44.131265 56.807224
-13.639477 44.731821 55.520569
-14.551687 44.408836 56.211603
-13.835515 42.949457 56.420374
-8.341824 39.61784 54.251097
-7.430179 39.637981 53.633417
-8.978175 40.942285 54.1189
-9.221205 39.43363 54.924444
-8.341824 39.61784 54.251097
-18.81726 59.492823 50.674097
-17.983618 59.866445 50.188321
-11.71677 61.563896 45.84198
-10.783838 61.526792 45.25817
-26.390183 51.811752 53.487865
-27.006464 50.578083 53.479603
-26.485118 49.725769 54.402039
-26.390183 51.811752 53.487865
-25.770035 52.953193 53.460543
-5.913614 38.41876 53.158214
-5.30288 37.058188 53.32226
-5.751169 40.081543 52.343429
-6.59912 39.81225 53.006496
-5.913614 38.41876 53.158214
-3.915718 40.254246 51.103752
-4.806701 40.238954 51.668473
-4.174679 38.703345 51.930428
-3.656753 41.717337 50.321459
-3.915718 40.254246 51.103752
-17.109069 60.185829 49.641413
-17.983618 59.866445 50.188321
-17.251188 58.455962 50.684095
-17.109069 60.185829 49.641413
-16.216072 60.614939 48.994982
-9.853741 61.513928 44.641306
-10.783838 61.526792 45.25817
-10.062055 59.921095 45.718224
-9.853741 61.513928 44.641306
-8.989642 61.52125 44.056105
-5.072026 57.046311 43.953873
-5.319192 55.541742 44.896457
-5.75668 58.506895 43.595989
-5.072026 57.046311 43.953873
-4.784275 58.456964 42.985596
-5.210778 61.420293 41.569491
-4.557402 59.926771 42.021179
-6.185032 61.431427 42.218588
-5.210778 61.420293 41.569491
-7.155216 61.525446 42.816296
-6.439113 60.011568 43.22542
-6.185032 61.431427 42.218588
-8.128312 61.619929 43.416989
-7.155216 61.525446 42.816296
-22.374979 46.357498 57.855767
-22.937903 47.561729 57.217123
-21.499467 47.121521 57.496205
-22.374979 46.357498 57.855767
-20.695816 47.845154 57.093274
-21.342759 48.984955 56.609852
-21.499467 47.121521 57.496205
-19.791432 48.421156 56.632269
-20.695816 47.845154 57.093274
-19.948139 46.557722 57.518622
-18.402118 45.798298 57.429062
-19.277984 45.26527 57.955097
-18.222027 47.653008 56.512083
-18.402118 45.798298 57.429062
-17.58039 46.317582 56.883528
-12.264944 41.850605 55.91531
-13.17858 41.558628 56.619659
-12.016077 43.523283 55.025864
-12.264944 41.850605 55.91531
-11.357715 42.101446 55.211834
-5.723496 52.422184 46.732304
-6.589194 52.38781 47.312376
-5.860801 50.812161 47.608679
-5.52292 53.992538 45.832325
-5.723496 52.422184 46.732304
-5.00009 44.653227 49.876951
-5.192789 43.163386 50.651463
-4.355041 43.279697 50.067285
-4.821241 46.309763 49.017414
-5.658988 46.193451 49.601591
-5.00009 44.653227 49.876951
-4.579904 47.744517 48.220843
-4.821241 46.309763 49.017414
-5.237621 49.348261 47.88533
-4.579904 47.744517 48.220843
-24.308172 47.859026 56.735867
-25.002356 46.88048 56.888887
-24.156194 49.745125 55.886438
-24.308172 47.859026 56.735867
-23.577419 48.748236 56.572035
-23.697416 55.787723 52.975279
-24.433838 54.942104 53.19175
-23.825133 53.794655 53.981992
-23.697416 55.787723 52.975279
-22.956008 56.540054 52.74941
-19.633224 58.987143 51.195683
-18.9417 57.630898 51.752589
-18.81726 59.492823 50.674097
-20.497007 58.408672 51.669646
-19.633224 58.987143 51.195683
-21.332619 57.756496 52.145113
-20.593276 56.473042 52.749642
-20.497007 58.408672 51.669646
-22.126097 57.130351 52.479204
-21.332619 57.756496 52.145113
-12.591636 61.453599 46.468279
-11.867019 59.823663 46.961386
-11.71677 61.563896 45.84198
-13.479522 61.266006 47.119025
-12.591636 61.453599 46.468279
-13.329273 63.006238 45.999618
-14.372952 61.135294 47.724335
-13.635314 59.582655 48.192995
-13.479522 61.266006 47.119025
-15.292124 60.953238 48.325541
-14.372952 61.135294 47.724335
3 61 19 62
3 0 22 20
3 63 25 64
3 65 64 23
3 63 64 65
3 66 27 67
3 2 68 70
3 68 28 69
3 68 69 70
3 2 30 28
3 2 32 30
3 1 35 33
3 3 71 72
3 4 73 75
3 75 74 18
3 73 74 75
3 4 76 77
3 3 78 79
3 3 80 81
3 82 36 83
3 85 84 36
3 5 40 38
3 7 41 21
3 7 86 88
3 88 87 41
3 86 87 88
3 8 44 42
3 10 45 24
3 10 89 91
3 91 90 45
3 89 90 91
3 92 46 93
3 94 47 95
3 12 96 97
3 12 98 100
3 98 48 99
3 98 99 100
3 12 49 48
3 13 50 26
3 13 51 50
3 14 101 102
3 14 103 104
3 14 105 107
3 105 52 106
3 105 106 107
3 15 53 29
3 15 54 53
3 15 55 54
3 16 56 31
3 16 108 110
3 110 109 56
3 108 109 110
3 112 111 37
3 11 113 115
3 113 57 114
3 113 114 115
3 17 58 34
3 17 116 118
3 118 117 58
3 116 117 118
3 6 59 39
3 9 60 43
3 119 18 120
3 121 120 3
3 119 120 121
3 19 122 124
3 122 18 123
3 122 123 124
3 19 4 18
3 125 3 126
3 20 21 5
3 22 21 20
3 22 7 21
3 23 24 8
3 25 24 23
3 25 10 24
3 127 12 128
3 129 26 130
3 131 130 12
3 129 130 131
3 27 132 134
3 132 26 133
3 132 133 134
3 27 13 26
3 28 135 136
3 28 137 139
3 137 14 138
3 137 138 139
3 28 29 14
3 30 29 28
3 30 15 29
3 30 31 15
3 32 31 30
3 32 16 31
3 33 34 11
3 35 34 33
3 35 17 34
3 141 140 6
3 143 142 9
3 18 144 146
3 146 145 3
3 144 145 146
3 148 147 18
3 36 149 150
3 36 151 153
3 151 2 152
3 151 152 153
3 36 37 2
3 154 37 155
3 156 155 36
3 154 155 156
3 158 157 37
3 38 39 1
3 40 39 38
3 40 6 39
3 21 40 5
3 41 40 21
3 41 6 40
3 41 159 161
3 161 160 6
3 159 160 161
3 163 162 41
3 42 43 0
3 44 43 42
3 44 9 43
3 24 44 8
3 45 44 24
3 45 9 44
3 45 164 166
3 166 165 9
3 164 165 166
3 168 167 45
3 169 25 170
3 46 171 173
3 171 25 172
3 171 172 173
3 46 10 25
3 174 46 175
3 176 46 177
3 178 10 179
3 180 179 46
3 178 179 180
3 182 181 10
3 183 11 184
3 185 11 186
3 187 33 188
3 189 188 11
3 187 188 189
3 47 190 192
3 190 33 191
3 190 191 192
3 47 1 33
3 193 47 194
3 48 195 197
3 195 47 196
3 195 196 197
3 48 1 47
3 48 38 1
3 49 38 48
3 49 5 38
3 26 49 12
3 50 49 26
3 50 5 49
3 50 20 5
3 51 20 50
3 51 0 20
3 198 27 199
3 52 200 202
3 200 27 201
3 200 201 202
3 52 13 27
3 29 52 14
3 53 52 29
3 53 13 52
3 53 51 13
3 54 51 53
3 54 0 51
3 54 42 0
3 55 42 54
3 55 8 42
3 31 55 15
3 56 55 31
3 56 8 55
3 56 23 8
3 203 23 204
3 205 204 56
3 203 204 205
3 207 206 23
3 37 32 2
3 208 32 209
3 210 209 37
3 208 209 210
3 211 16 212
3 213 212 32
3 211 212 213
3 214 16 215
3 217 216 16
3 218 19 219
3 57 220 222
3 220 19 221
3 220 221 222
3 57 4 19
3 34 57 11
3 58 57 34
3 58 4 57
3 58 223 225
3 225 224 4
3 223 224 225
3 227 226 58
3 39 35 1
3 59 35 39
3 59 17 35
3 228 59 229
3 230 229 6
3 228 229 230
3 231 59 232
3 233 17 234
3 235 234 59
3 233 234 235
3 237 236 17
3 43 22 0
3 60 22 43
3 60 7 22
3 238 60 239
3 240 239 9
3 238 239 240
3 241 60 242
3 241 242 243
3 244 7 245
3 246 245 60
3 244 245 246
3 248 247 7
