ply
format ascii 1.0
element vertex 224
property float x
property float y
property float z
element face 210
property list uchar int vertex_index
end_header
21.678465 -61.216187 -22.449066
23.400646 -51.765026 -18.603907
22.637928 -62.316193 -15.783028
17.440735 -66.569321 -32.810265
22.236986 -56.401718 -20.641214
22.289967 -50.241726 -21.904734
21.134211 -54.892719 -24.017714
20.544273 -59.824017 -25.824524
22.952147 -57.362556 -17.185793
22.295982 -61.916527 -19.107161
22.536127 -66.991173 -17.153362
22.274584 -67.03492 -20.700199
21.553137 -65.976151 -24.119213
20.265797 -64.835007 -27.601389
18.25127 -62.401558 -30.920311
21.880541 -58.955822 -21.582985
21.759766 -55.810242 -22.289986
21.386349 -58.164059 -23.314629
20.767397 -57.406273 -24.99218
21.196968 -60.445435 -24.081841
22.776293 -59.869919 -16.436302
22.540543 -59.634197 -18.15189
22.483257 -62.184807 -17.453663
22.685596 -69.285141 -17.883476
22.422615 -66.839958 -18.945271
22.610788 -69.46579 -19.546381
22.096279 -69.123871 -23.136951
21.619335 -68.585159 -24.901207
20.947493 -65.359962 -25.954071
20.955416 -67.951385 -26.764933
19.138132 -66.012291 -30.191189
17.959534 -64.593384 -31.777885
22.766785 -54.02755 -19.568815
22.897108 -51.002113 -20.268705
22.250095 -53.418587 -21.287924
21.642296 -52.532997 -22.98414
19.742449 -58.883099 -27.501011
23.88727 -52.299625 -16.80759
23.5495 -55.040203 -16.135334
23.186405 -54.625473 -17.840336
22.643188 -56.737835 -18.936117
22.262434 -59.287651 -19.842857
22.028135 -61.669128 -20.825319
22.502085 -64.47168 -16.554726
22.38938 -64.559486 -18.143795
22.220098 -64.348541 -19.86335
21.963045 -64.051598 -21.558155
22.410927 -69.385307 -21.413363
21.974867 -66.4216 -22.380699
21.573425 -63.47839 -23.282867
21.061031 -62.961296 -24.969612
20.347925 -62.205681 -26.755219
19.522537 -61.241806 -28.390268
20.096495 -66.996529 -28.57312
19.375645 -63.795258 -29.241579
15.914079 -65.019348 -34.471607
22.70711 -61.093056 -16.109665
22.866396 -60.002661 -15.651312
22.797213 -61.225798 -15.324675
23.577675 -50.154194 -18.839475
23.849176 -50.587806 -17.950221
22.82952 -70.573986 -18.20497
22.840179 -70.381222 -17.321624
22.792116 -70.66431 -19.036422
22.648192 -69.375465 -18.714928
22.82952 -70.573986 -18.20497
21.635486 -69.783394 -25.361438
21.93613 -70.205017 -24.439236
21.303526 -69.466507 -26.293301
21.287375 -68.268272 -25.83307
21.635486 -69.783394 -25.361438
17.700135 -65.581353 -32.294075
18.376963 -66.366459 -31.478362
18.117563 -67.354427 -31.994552
16.985505 -64.844689 -33.143709
17.244905 -63.85672 -32.627519
17.700135 -65.581353 -32.294075
21.01811 -53.344511 -24.333756
21.272153 -52.16465 -23.816969
21.388254 -53.712858 -23.500927
20.758841 -54.538129 -24.856842
21.01811 -53.344511 -24.333756
20.284548 -58.176395 -26.217182
20.39611 -56.967523 -25.80101
20.655835 -58.615145 -25.408352
20.143361 -59.353558 -26.662768
19.883637 -57.705936 -27.055425
20.284548 -58.176395 -26.217182
24.104493 -52.496384 -15.917676
24.345643 -51.125743 -16.158347
23.250823 -56.20138 -16.660564
23.386539 -56.347871 -15.823616
23.087863 -57.509048 -16.348845
22.684293 -48.989345 -21.379401
22.987863 -49.369539 -20.561386
22.593538 -50.62192 -21.08672
22.56589 -66.852337 -16.350697
22.642693 -68.121075 -16.654247
22.519106 -65.731426 -16.854044
22.548869 -65.592591 -16.051379
22.56589 -66.852337 -16.350697
22.519102 -70.699036 -21.790287
22.626083 -70.651008 -20.916871
20.014671 -68.174069 -29.043586
20.492313 -68.638813 -28.144746
18.407281 -61.293375 -30.444584
18.969468 -61.990225 -29.605218
18.813457 -63.098408 -30.080945
17.796771 -60.488451 -31.279018
18.407281 -61.293375 -30.444584
15.007792 -63.905702 -35.346466
15.534975 -65.916427 -34.979318
15.431517 -63.087835 -34.80281
15.007792 -63.905702 -35.346466
22.999936 -58.76273 -15.9741
22.866396 -60.002661 -15.651312
22.86422 -58.616237 -16.811048
23.087863 -57.509048 -16.348845
22.999936 -58.76273 -15.9741
22.268365 -48.692629 -22.263346
21.903734 -49.79253 -22.777202
22.717427 -69.268059 -17.019304
22.840179 -70.381222 -17.321624
22.610861 -68.138157 -17.518419
22.642693 -68.121075 -16.654247
22.717427 -69.268059 -17.019304
22.174602 -70.474373 -23.557108
22.361778 -70.568318 -22.652081
21.857807 -68.854515 -24.019079
22.174602 -70.474373 -23.557108
21.93613 -70.205017 -24.439236
18.966262 -67.075913 -30.685014
19.535489 -67.68195 -29.852621
18.548833 -65.302838 -30.984537
18.966262 -67.075913 -30.685014
18.376963 -66.366459 -31.478362
17.466909 -62.747971 -32.166488
17.612777 -61.652057 -31.737702
18.105402 -63.497471 -31.349098
17.466909 -62.747971 -32.166488
17.244905 -63.85672 -32.627519
22.719217 -62.285677 -14.958716
22.797213 -61.225798 -15.324675
21.579899 -50.938165 -23.316905
21.903734 -49.79253 -22.777202
21.966132 -51.387361 -22.444437
21.579899 -50.938165 -23.316905
21.272153 -52.16465 -23.816969
20.575434 -55.794906 -25.344075
20.758841 -54.538129 -24.856842
20.950804 -56.149496 -24.504947
20.575434 -55.794906 -25.344075
20.39611 -56.967523 -25.80101
19.443753 -57.156633 -27.844619
19.883637 -57.705936 -27.055425
19.241086 -58.213103 -28.349748
19.443753 -57.156633 -27.844619
17.906598 -68.412732 -32.477248
18.117563 -67.354427 -31.994552
24.092488 -50.855106 -17.052062
24.345643 -51.125743 -16.158347
23.643958 -52.032325 -17.705748
23.849176 -50.587806 -17.950221
24.092488 -50.855106 -17.052062
23.70612 -55.205872 -15.317757
23.386539 -56.347871 -15.823616
23.935608 -53.866672 -15.581547
23.70612 -55.205872 -15.317757
23.718385 -53.669914 -16.471462
24.104493 -52.496384 -15.917676
23.935608 -53.866672 -15.581547
23.325906 -49.772738 -19.671874
23.577675 -50.154194 -18.839475
23.148877 -51.38357 -19.436306
23.325906 -49.772738 -19.671874
22.987863 -49.369539 -20.561386
22.684293 -48.989345 -21.379401
22.268365 -48.692629 -22.263346
22.623444 -63.394047 -15.34431
22.719217 -62.285677 -14.958716
22.704733 -63.363531 -14.519998
22.555523 -64.47179 -15.730159
22.548869 -65.592591 -16.051379
22.570006 -63.393937 -16.168877
22.623444 -63.394047 -15.34431
22.555523 -64.47179 -15.730159
22.726013 -70.69125 -19.983379
22.792116 -70.66431 -19.036422
22.510858 -69.425548 -20.479872
22.726013 -70.69125 -19.983379
22.626083 -70.651008 -20.916871
22.253603 -69.254589 -22.275157
22.519102 -70.699036 -21.790287
22.361778 -70.568318 -22.652081
19.13113 -59.392456 -28.794377
19.241086 -58.213103 -28.349748
19.632493 -60.062452 -27.945639
20.921773 -69.116241 -27.240652
21.303526 -69.466507 -26.293301
20.525956 -67.473957 -27.669027
20.921773 -69.116241 -27.240652
20.492313 -68.638813 -28.144746
19.617314 -66.50441 -29.382154
20.014671 -68.174069 -29.043586
19.535489 -67.68195 -29.852621
19.042915 -60.713499 -29.179562
19.449091 -62.518532 -28.815924
18.969468 -61.990225 -29.605218
19.13113 -59.392456 -28.794377
19.042915 -60.713499 -29.179562
17.796771 -60.488451 -31.279018
17.612777 -61.652057 -31.737702
17.188367 -67.68742 -33.276592
17.906598 -68.412732 -32.477248
16.425039 -66.912433 -34.107264
15.534975 -65.916427 -34.979318
16.677407 -65.794334 -33.640936
17.188367 -67.68742 -33.276592
16.425039 -66.912433 -34.107264
16.222177 -64.069702 -33.97438
16.985505 -64.844689 -33.143709
16.677407 -65.794334 -33.640936
16.222177 -64.069702 -33.97438
15.431517 -63.087835 -34.80281
3 0 17 15
3 0 19 17
3 2 56 58
3 56 20 57
3 56 57 58
3 2 22 20
3 1 59 60
3 61 23 62
3 63 25 64
3 65 64 23
3 63 64 65
3 66 27 67
3 68 29 69
3 70 69 27
3 68 69 70
3 3 71 73
3 71 31 72
3 71 72 73
3 3 74 76
3 76 75 31
3 74 75 76
3 4 34 32
3 6 35 16
3 6 77 79
3 79 78 35
3 77 78 79
3 6 80 81
3 7 82 84
3 84 83 18
3 82 83 84
3 7 85 87
3 85 36 86
3 85 86 87
3 88 37 89
3 8 90 92
3 90 38 91
3 90 91 92
3 8 39 38
3 8 40 39
3 9 41 21
3 9 42 41
3 5 93 95
3 95 94 33
3 93 94 95
3 10 96 97
3 10 98 100
3 98 43 99
3 98 99 100
3 10 44 43
3 11 45 24
3 11 46 45
3 101 47 102
3 12 48 26
3 12 49 48
3 12 50 49
3 13 51 28
3 13 52 51
3 103 53 104
3 14 54 30
3 14 105 107
3 107 106 54
3 105 106 107
3 14 108 109
3 110 55 111
3 113 112 55
3 15 16 4
3 17 16 15
3 17 6 16
3 17 18 6
3 19 18 17
3 19 7 18
3 20 114 115
3 20 116 118
3 116 8 117
3 116 117 118
3 20 21 8
3 22 21 20
3 22 9 21
3 120 119 5
3 23 121 122
3 23 123 125
3 123 10 124
3 123 124 125
3 23 24 10
3 25 24 23
3 25 11 24
3 126 26 127
3 27 128 130
3 128 26 129
3 128 129 130
3 27 12 26
3 27 28 12
3 29 28 27
3 29 13 28
3 131 30 132
3 31 133 135
3 133 30 134
3 133 134 135
3 31 14 30
3 31 136 138
3 138 137 14
3 136 137 138
3 140 139 31
3 141 2 142
3 32 33 1
3 34 33 32
3 34 5 33
3 16 34 4
3 35 34 16
3 35 5 34
3 35 143 145
3 145 144 5
3 143 144 145
3 147 146 35
3 18 148 150
3 150 149 6
3 148 149 150
3 152 151 18
3 36 153 154
3 36 155 156
3 157 3 158
3 37 159 160
3 37 161 163
3 161 1 162
3 161 162 163
3 38 164 165
3 38 166 167
3 38 168 170
3 168 37 169
3 168 169 170
3 39 37 38
3 39 1 37
3 39 32 1
3 40 32 39
3 40 4 32
3 21 40 8
3 41 40 21
3 41 4 40
3 41 15 4
3 42 15 41
3 42 0 15
3 33 171 173
3 173 172 1
3 171 172 173
3 175 174 33
3 177 176 5
3 178 2 179
3 178 179 180
3 43 181 182
3 43 183 185
3 183 2 184
3 183 184 185
3 43 22 2
3 44 22 43
3 44 9 22
3 24 44 10
3 45 44 24
3 45 9 44
3 45 42 9
3 46 42 45
3 46 0 42
3 186 25 187
3 47 188 190
3 188 25 189
3 188 189 190
3 47 11 25
3 26 191 193
3 191 47 192
3 191 192 193
3 48 47 26
3 48 11 47
3 48 46 11
3 49 46 48
3 49 0 46
3 49 19 0
3 50 19 49
3 50 7 19
3 28 50 12
3 51 50 28
3 51 7 50
3 51 36 7
3 52 36 51
3 52 194 196
3 196 195 36
3 194 195 196
3 197 29 198
3 53 199 201
3 199 29 200
3 199 200 201
3 53 13 29
3 30 202 204
3 202 53 203
3 202 203 204
3 54 53 30
3 54 13 53
3 54 52 13
3 205 52 206
3 207 206 54
3 205 206 207
3 209 208 52
3 211 210 14
3 212 3 213
3 55 214 215
3 55 216 218
3 216 3 217
3 216 217 218
3 55 219 221
3 221 220 3
3 219 220 221
3 223 222 55
