ply
format ascii 1.0
element vertex 262
property float x
property float y
property float z
element face 224
property list uchar int vertex_index
end_header
39.5797 -25.612141 -44.669739
35.058037 -42.929989 -21.266586
37.111107 -41.840858 -29.812515
37.606419 -40.244068 -38.296574
38.677418 -23.707695 -48.72784
35.800137 -47.716244 -30.580038
37.616055 -41.245693 -34.191025
35.92836 -47.055702 -34.905865
36.134693 -42.657005 -25.483181
38.788998 -33.248566 -41.484043
38.031841 -31.474669 -45.590549
40.053471 -22.965076 -43.953007
40.21862 -19.304037 -45.34705
39.832397 -21.720409 -46.074406
39.455429 -20.599991 -48.132099
39.242729 -24.457029 -46.750683
35.920895 -47.460602 -32.799686
34.867279 -50.468887 -33.101627
34.549812 -42.952297 -19.265934
36.210957 -45.016472 -28.075075
35.798466 -45.175678 -25.975214
36.607185 -42.489937 -27.573576
36.93922 -39.81842 -27.2253
37.434498 -39.341778 -29.334248
37.848801 -38.958408 -31.544409
37.67157 -40.824638 -36.234497
38.313168 -38.066277 -35.727001
38.37151 -37.424889 -37.745716
38.936241 -33.967625 -39.420464
38.207458 -37.01524 -39.839569
40.481293 -16.499594 -44.599625
37.969826 -22.592335 -50.717686
35.597969 -47.762669 -28.443401
36.555649 -44.727947 -30.179819
37.436039 -41.553074 -32.043888
36.800751 -44.383057 -32.327553
36.835262 -44.274315 -34.409672
36.815907 -43.716702 -36.627182
34.781052 -45.191364 -21.580708
35.304779 -45.272381 -23.802423
35.648449 -42.693424 -23.475861
36.419437 -40.162556 -25.177
38.166042 -38.452343 -33.748096
39.275185 -29.318251 -43.065926
37.285656 -39.937473 -40.295113
37.939438 -36.257698 -41.918343
38.519993 -32.302982 -43.541977
38.928562 -28.601706 -45.063248
38.473301 -27.510746 -47.085163
37.737972 -26.781799 -49.036591
34.341013 -51.957223 -32.195717
34.902518 -50.464067 -32.00875
35.188992 -41.792551 -21.155968
34.934879 -41.803705 -20.155642
34.803925 -42.941143 -20.26626
35.443371 -41.708706 -22.117863
35.188992 -41.792551 -21.155968
40.425461 -18.337397 -43.950716
40.510699 -17.015664 -43.572422
40.259676 -17.266272 -46.043765
40.09013 -18.542803 -46.431376
38.785069 -21.755313 -49.402744
39.174074 -20.201461 -49.104873
39.066423 -22.153843 -48.429969
38.323622 -23.150015 -49.722763
38.431272 -21.197633 -50.397667
38.785069 -21.755313 -49.402744
35.699053 -47.739457 -29.511719
35.180359 -49.214315 -28.55868
35.281443 -49.191103 -29.626998
34.576563 -46.406637 -21.67472
34.296305 -46.474403 -20.570415
37.060709 -38.541505 -27.062323
37.319073 -38.294601 -28.10682
38.538647 -36.730644 -35.457718
38.622866 -36.355946 -36.532234
39.100229 -31.786891 -41.260519
39.173851 -32.14642 -40.22873
38.86262 -33.608095 -40.452253
39.032091 -31.283409 -42.274985
39.343323 -29.821734 -42.05146
39.100229 -31.786891 -41.260519
37.060663 -39.572187 -41.370738
36.707434 -41.436723 -40.492657
37.387554 -37.7323 -42.182353
37.612547 -38.097585 -41.106728
37.060663 -39.572187 -41.370738
38.275917 -31.888825 -44.566263
38.024546 -33.837774 -43.734533
37.78047 -33.423617 -44.75882
37.125631 -28.322242 -49.188591
37.550199 -28.781473 -48.240929
37.330263 -26.315576 -49.929142
37.125631 -28.322242 -49.188591
40.136046 -21.134557 -44.650029
40.294125 -19.739618 -44.324428
40.21155 -21.570138 -43.627407
39.897018 -19.750989 -46.795054
40.09013 -18.542803 -46.431376
40.025509 -20.512223 -45.710728
39.643913 -21.1602 -47.103252
39.708534 -19.19078 -47.8239
39.897018 -19.750989 -46.795054
35.368946 -49.087746 -30.747956
35.281443 -49.191103 -29.626998
35.429326 -48.959925 -31.85778
35.860516 -47.588423 -31.689862
35.368946 -49.087746 -30.747956
35.394087 -48.964745 -32.950657
35.429326 -48.959925 -31.85778
34.902518 -50.464067 -32.00875
34.655602 -42.012707 -19.137199
34.294928 -43.01034 -18.236267
34.655602 -42.012707 -19.137199
34.934879 -41.803705 -20.155642
36.004711 -45.096075 -27.025144
35.530732 -46.496536 -26.109058
35.736977 -46.416933 -27.158989
37.566711 -38.05628 -29.161294
37.319073 -38.294601 -28.10682
37.186859 -39.580099 -28.279774
37.805157 -37.800465 -30.260946
37.566711 -38.05628 -29.161294
38.012309 -37.608779 -31.366027
37.805157 -37.800465 -30.260946
37.641649 -39.150093 -30.439329
38.171043 -37.476345 -32.342681
38.012309 -37.608779 -31.366027
38.652037 -36.035252 -37.541591
38.622866 -36.355946 -36.532234
38.342339 -37.745583 -36.736359
38.653875 -35.696257 -38.58309
38.934403 -34.30662 -38.378965
38.652037 -36.035252 -37.541591
37.470157 -33.051693 -45.713476
37.78047 -33.423617 -44.75882
37.697134 -31.127908 -46.517908
37.470157 -33.051693 -45.713476
40.538998 -15.230648 -44.173535
40.510699 -17.015664 -43.572422
40.485233 -14.519464 -45.291233
40.538998 -15.230648 -44.173535
40.349957 -17.901815 -44.973337
40.425461 -18.337397 -43.950716
40.294125 -19.739618 -44.324428
40.391013 -15.864051 -45.670052
40.349957 -17.901815 -44.973337
40.259676 -17.266272 -46.043765
40.485233 -14.519464 -45.291233
40.391013 -15.864051 -45.670052
39.471379 -18.657997 -48.917854
39.708534 -19.19078 -47.8239
39.471379 -18.657997 -48.917854
39.174074 -20.201461 -49.104873
38.025782 -20.618199 -51.47552
38.431272 -21.197633 -50.397667
37.517662 -22.271638 -51.577956
38.025782 -20.618199 -51.47552
34.139847 -44.076223 -18.307834
34.294928 -43.01034 -18.236267
34.375794 -44.139383 -19.312188
34.139847 -44.076223 -18.307834
34.629906 -44.128229 -20.312514
34.803925 -42.941143 -20.26626
34.375794 -44.139383 -19.312188
35.112591 -49.070418 -27.535879
35.180359 -49.214315 -28.55868
35.430483 -47.790031 -27.343152
35.112591 -49.070418 -27.535879
35.904463 -46.389571 -28.259238
35.736977 -46.416933 -27.158989
35.430483 -47.790031 -27.343152
40.111891 -23.368085 -42.913208
40.21155 -21.570138 -43.627407
39.922324 -24.751215 -43.27438
40.111891 -23.368085 -42.913208
39.685438 -26.074748 -43.632746
39.816586 -24.288609 -44.311373
39.922324 -24.751215 -43.27438
34.491414 -45.258916 -20.469575
34.296305 -46.474403 -20.570415
34.919545 -44.060676 -21.423647
34.629906 -44.128229 -20.312514
34.491414 -45.258916 -20.469575
35.342923 -46.418699 -25.035307
35.530732 -46.496536 -26.109058
35.096079 -46.46705 -23.948912
35.342923 -46.418699 -25.035307
35.551623 -45.22403 -24.888818
34.838426 -46.447146 -22.785578
35.096079 -46.46705 -23.948912
35.042916 -45.231873 -22.691566
34.576563 -46.406637 -21.67472
34.838426 -46.447146 -22.785578
35.738577 -41.590423 -23.222501
35.443371 -41.708706 -22.117863
35.353243 -42.811706 -22.371223
36.124071 -40.32499 -24.073071
35.738577 -41.590423 -23.222501
36.033943 -41.42799 -24.326431
36.506391 -39.096807 -24.994878
36.124071 -40.32499 -24.073071
36.800818 -38.713574 -26.038173
36.679328 -39.990488 -26.20115
37.060709 -38.541505 -27.062323
36.506391 -39.096807 -24.994878
36.800818 -38.713574 -26.038173
38.329664 -37.223312 -33.444524
38.171043 -37.476345 -32.342681
38.007421 -38.705376 -32.646253
38.465084 -36.923677 -34.468266
38.239605 -38.25931 -34.737549
38.538647 -36.730644 -35.457718
38.329664 -37.223312 -33.444524
38.465084 -36.923677 -34.468266
39.201448 -32.465217 -39.17049
38.934403 -34.30662 -38.378965
39.201448 -32.465217 -39.17049
39.173851 -32.14642 -40.22873
39.533181 -27.927802 -42.830839
39.343323 -29.821734 -42.05146
39.427442 -27.465196 -43.867832
39.685438 -26.074748 -43.632746
39.533181 -27.927802 -42.830839
34.257084 -51.953437 -33.239576
34.341013 -51.957223 -32.195717
34.779841 -50.343694 -34.215479
34.257084 -51.953437 -33.239576
35.310381 -48.637102 -35.117598
35.397819 -48.762294 -34.003746
34.779841 -50.343694 -34.215479
35.783039 -47.011763 -35.958862
35.310381 -48.637102 -35.117598
36.226813 -45.342263 -36.819521
36.372134 -45.386202 -35.766523
35.783039 -47.011763 -35.958862
36.691168 -43.572648 -37.596905
36.226813 -45.342263 -36.819521
37.086424 -41.836331 -38.431601
37.211163 -41.980385 -37.461878
36.691168 -43.572648 -37.596905
36.926043 -41.683033 -39.43087
36.707434 -41.436723 -40.492657
37.446038 -40.09077 -39.295844
37.086424 -41.836331 -38.431601
36.926043 -41.683033 -39.43087
37.734268 -35.815132 -42.922716
37.387554 -37.7323 -42.182353
38.229715 -34.28034 -42.73016
37.734268 -35.815132 -42.922716
38.024546 -33.837774 -43.734533
37.917864 -29.145947 -47.265215
38.252571 -29.492708 -46.337856
37.697134 -31.127908 -46.517908
38.105637 -27.146273 -48.060877
37.917864 -29.145947 -47.265215
37.550199 -28.781473 -48.240929
37.44619 -24.220844 -50.769689
37.853899 -24.687067 -49.877139
37.330263 -26.315576 -49.929142
37.517662 -22.271638 -51.577956
37.44619 -24.220844 -50.769689
3 0 13 11
3 0 15 13
3 50 17 51
3 1 52 54
3 54 53 18
3 52 53 54
3 1 55 56
3 2 21 19
3 2 23 21
3 2 24 23
3 3 27 25
3 3 29 27
3 57 30 58
3 60 59 12
3 4 61 63
3 63 62 14
3 61 62 63
3 4 64 66
3 64 31 65
3 64 65 66
3 5 67 69
3 67 32 68
3 67 68 69
3 5 33 32
3 5 35 33
3 7 36 16
3 7 37 36
3 70 38 71
3 8 39 20
3 8 40 39
3 8 41 40
3 73 72 22
3 6 42 34
3 75 74 26
3 9 76 78
3 78 77 28
3 76 77 78
3 9 79 81
3 79 43 80
3 79 80 81
3 82 44 83
3 84 45 85
3 86 85 44
3 84 85 86
3 10 87 89
3 87 46 88
3 87 88 89
3 10 47 46
3 10 48 47
3 90 49 91
3 93 92 49
3 11 94 96
3 94 12 95
3 94 95 96
3 13 12 11
3 13 97 99
3 99 98 12
3 97 98 99
3 13 100 102
3 100 14 101
3 100 101 102
3 15 14 13
3 15 4 14
3 103 5 104
3 105 16 106
3 107 106 5
3 105 106 107
3 17 108 110
3 108 16 109
3 108 109 110
3 17 7 16
3 18 111 112
3 114 113 18
3 19 115 117
3 115 20 116
3 115 116 117
3 21 20 19
3 21 8 20
3 21 22 8
3 23 22 21
3 23 118 120
3 120 119 22
3 118 119 120
3 23 121 122
3 24 123 125
3 125 124 23
3 123 124 125
3 24 126 127
3 25 26 6
3 27 26 25
3 27 128 130
3 130 129 26
3 128 129 130
3 27 131 133
3 131 28 132
3 131 132 133
3 29 28 27
3 29 9 28
3 134 10 135
3 137 136 10
3 30 138 139
3 30 140 141
3 12 142 144
3 142 30 143
3 142 143 144
3 145 30 146
3 147 146 12
3 145 146 147
3 149 148 30
3 14 150 151
3 153 152 14
3 31 154 155
3 31 156 157
3 158 18 159
3 160 18 161
3 162 1 163
3 164 163 18
3 162 163 164
3 32 165 166
3 32 167 168
3 32 169 171
3 169 19 170
3 169 170 171
3 33 19 32
3 33 2 19
3 33 34 2
3 35 34 33
3 35 6 34
3 16 35 5
3 36 35 16
3 36 6 35
3 36 25 6
3 37 25 36
3 37 3 25
3 172 11 173
3 174 11 175
3 176 0 177
3 178 177 11
3 176 177 178
3 38 179 180
3 38 181 183
3 181 1 182
3 181 182 183
3 20 184 185
3 39 186 188
3 188 187 20
3 186 187 188
3 39 189 190
3 39 191 193
3 191 38 192
3 191 192 193
3 40 38 39
3 40 1 38
3 40 194 196
3 196 195 1
3 194 195 196
3 41 197 199
3 199 198 40
3 197 198 199
3 41 200 201
3 22 41 8
3 202 41 203
3 204 203 22
3 202 203 204
3 206 205 41
3 34 24 2
3 42 24 34
3 42 207 209
3 209 208 24
3 207 208 209
3 26 42 6
3 210 42 211
3 212 211 26
3 210 211 212
3 214 213 42
3 28 215 216
3 218 217 28
3 43 219 220
3 43 221 223
3 221 0 222
3 221 222 223
3 224 17 225
3 226 17 227
3 228 7 229
3 230 229 17
3 228 229 230
3 231 7 232
3 233 37 234
3 235 234 7
3 233 234 235
3 236 37 237
3 238 3 239
3 240 239 37
3 238 239 240
3 44 241 242
3 44 243 245
3 243 3 244
3 243 244 245
3 44 29 3
3 45 29 44
3 45 9 29
3 246 45 247
3 46 248 250
3 248 45 249
3 248 249 250
3 46 9 45
3 46 43 9
3 47 43 46
3 47 0 43
3 47 15 0
3 48 15 47
3 48 4 15
3 251 48 252
3 253 252 10
3 251 252 253
3 49 254 256
3 254 48 255
3 254 255 256
3 49 4 48
3 49 31 4
3 257 31 258
3 259 258 49
3 257 258 259
3 261 260 31
