ply
format ascii 1.0
element vertex 228
property float x
property float y
property float z
element face 224
property list uchar int vertex_index
end_header
-28.602507 -65.920486 36.229939
-29.774479 -57.993149 31.315214
-25.805563 -75.150398 30.607677
-28.03867 -67.500488 26.213343
-27.254704 -70.736298 33.502243
-27.186232 -71.533005 28.54269
-28.358358 -66.904778 31.189766
-29.500776 -58.169167 26.656122
-27.450619 -68.836082 38.652119
-29.602507 -60.966717 38.415878
-29.338963 -62.195393 33.672211
-26.005247 -76.137749 25.402536
-27.011244 -72.024323 23.33754
-29.034275 -62.748367 28.869493
-28.623516 -63.022011 23.921667
-27.952379 -68.373123 35.005302
-27.867884 -68.901192 32.527355
-28.474863 -66.551651 33.750736
-28.709627 -65.111176 38.793655
-28.15036 -66.5504 40.027294
-28.10721 -67.402405 37.564877
-27.380623 -69.78875 36.160297
-29.863108 -59.047108 37.250355
-25.961351 -75.578758 27.928917
-27.670776 -69.536629 27.495474
-27.127031 -71.757034 26.03393
-27.532621 -69.739754 24.867619
-27.839197 -67.747047 23.763311
-29.577793 -60.194817 32.444962
-29.185572 -62.575993 31.25708
-29.431812 -60.464771 30.14222
-29.353325 -58.096703 24.320105
-29.107189 -60.535385 25.339033
-28.889631 -60.596878 22.876955
-26.537905 -68.934959 42.28474
-25.713755 -74.439308 33.170269
-26.534666 -72.959213 32.146915
-26.556456 -73.493111 29.477661
-27.213539 -71.239037 31.006371
-27.80196 -69.164452 29.982622
-28.209944 -67.223579 28.685516
-29.932507 -55.676193 30.264874
-29.652269 -58.015366 28.983232
-29.835043 -55.613552 27.966753
-29.748341 -55.47213 25.809195
-27.416162 -67.920746 41.093758
-26.552547 -70.223785 39.706352
-26.570711 -71.24482 37.243465
-26.553862 -72.147499 34.811256
-29.163788 -63.400738 37.445541
-29.046408 -63.994637 34.975864
-29.50528 -61.517818 36.147663
-29.714577 -59.804523 34.806263
-29.916178 -57.568901 33.64603
-25.547924 -78.269791 23.629385
-26.113455 -76.304993 22.822184
-26.572725 -73.854897 26.939716
-26.562105 -74.144814 24.441723
-28.877802 -64.615341 32.615101
-28.756262 -64.766357 30.11334
-28.547903 -65.205307 27.664165
-29.299442 -60.460529 27.902658
-28.860239 -62.824394 26.460106
-28.362129 -65.268654 25.071623
-25.883457 -75.364578 29.268297
-25.562833 -76.410743 28.371581
-25.484939 -76.196563 29.710961
-29.036512 -59.275931 22.388458
-29.121478 -59.34679 23.59853
-29.268359 -58.025843 23.110033
-28.783223 -60.498013 21.665904
-29.036512 -59.275931 22.388458
-26.013662 -69.35136 42.784304
-26.034196 -70.058921 41.552034
-25.389538 -75.819213 31.034562
-25.343634 -75.463668 32.315858
-25.759659 -74.794853 31.888973
-25.484939 -76.196563 29.710961
-25.389538 -75.819213 31.034562
-29.957321 -54.392421 28.623414
-29.883775 -55.644872 29.115814
-30.006053 -54.423742 29.772475
-29.854279 -54.235372 25.278788
-29.890528 -54.213988 26.438278
-29.673495 -55.564869 24.60922
-29.854279 -54.235372 25.278788
-29.867611 -58.523159 35.389972
-29.788843 -59.425815 36.028309
-29.941876 -58.144452 36.612018
-29.968411 -57.405348 34.809856
-29.815377 -58.686712 34.226146
-29.867611 -58.523159 35.389972
-29.426795 -61.806349 39.163437
-29.644827 -60.563952 39.596708
-29.383147 -62.183728 37.930709
-29.207436 -63.023359 38.678268
-29.426795 -61.806349 39.163437
-25.776585 -77.20377 24.51596
-25.462466 -78.016129 24.959384
-25.691127 -76.950108 25.845959
-26.779609 -73.147541 22.523556
-26.555039 -74.207787 23.075648
-26.786675 -73.084568 23.889632
-26.94305 -72.100941 21.967607
-26.779609 -73.147541 22.523556
-28.386893 -64.128743 23.233762
-28.256199 -65.252064 23.80874
-28.492822 -64.145332 24.496645
-28.429994 -65.830788 39.410474
-28.472639 -65.333413 40.61819
-28.752273 -64.6138 40.001371
-29.90759 -58.716683 38.404623
-29.732807 -60.006912 37.833117
-29.77729 -59.676487 38.987385
-29.992824 -57.789526 37.72327
-29.90759 -58.716683 38.404623
-29.941876 -58.144452 36.612018
-29.992824 -57.789526 37.72327
-29.77729 -59.676487 38.987385
-29.644827 -60.563952 39.596708
-25.669179 -76.670612 27.10915
-25.562833 -76.410743 28.371581
-25.983299 -75.858253 26.665726
-25.691127 -76.950108 25.845959
-25.669179 -76.670612 27.10915
-27.435188 -69.862583 23.538986
-27.1745 -71.004868 22.773946
-27.271932 -70.882038 24.10258
-27.588476 -68.86623 22.986832
-27.435188 -69.862583 23.538986
-27.685909 -68.743401 24.315465
-27.739767 -67.722488 22.510761
-27.588476 -68.86623 22.986832
-28.636952 -61.802976 22.16387
-28.503895 -63.015543 22.686226
-28.756574 -61.809444 23.399311
-28.636952 -61.802976 22.16387
-28.783223 -60.498013 21.665904
-26.490497 -68.208103 43.611641
-26.951803 -67.83076 42.961423
-26.490497 -68.208103 43.611641
-26.013662 -69.35136 42.784304
-25.240271 -75.018528 33.655293
-25.691688 -73.975608 34.430048
-25.240271 -75.018528 33.655293
-25.343634 -75.463668 32.315858
-29.933879 -54.284698 27.517057
-29.957321 -54.392421 28.623414
-29.791692 -55.542841 26.887974
-29.933879 -54.284698 27.517057
-29.890528 -54.213988 26.438278
-29.475987 -56.877156 23.864676
-29.550833 -56.784416 25.06465
-29.673495 -55.564869 24.60922
-29.268359 -58.025843 23.110033
-29.475987 -56.877156 23.864676
-28.153207 -66.044128 41.250227
-28.472639 -65.333413 40.61819
-27.786108 -66.729301 41.783459
-28.153207 -66.044128 41.250227
-27.783261 -67.235573 40.560526
-27.390932 -67.323654 42.365932
-27.786108 -66.729301 41.783459
-26.977033 -68.427853 41.689249
-26.951803 -67.83076 42.961423
-27.390932 -67.323654 42.365932
-26.041517 -70.703335 40.26284
-26.034196 -70.058921 41.552034
-26.545226 -69.579372 40.995546
-26.086486 -71.311256 38.993149
-26.041517 -70.703335 40.26284
-26.095568 -71.821774 37.761705
-26.086486 -71.311256 38.993149
-26.561629 -70.734303 38.474908
-26.120166 -72.378365 36.466646
-25.645023 -72.955318 36.984886
-26.095568 -71.821774 37.761705
-26.111742 -72.829704 35.250541
-26.120166 -72.378365 36.466646
-26.562286 -71.696159 36.027361
-26.133809 -73.293403 33.990763
-25.691688 -73.975608 34.430048
-26.111742 -72.829704 35.250541
-30.033378 -56.318438 34.299408
-29.968411 -57.405348 34.809856
-29.987042 -56.424988 33.120092
-30.033378 -56.318438 34.299408
-29.916192 -56.637112 31.954684
-29.845329 -57.781025 32.480622
-29.987042 -56.424988 33.120092
-29.995206 -55.478634 31.429514
-29.853493 -56.834671 30.790044
-29.916192 -56.637112 31.954684
-30.041927 -54.38404 30.926175
-29.995206 -55.478634 31.429514
-30.006053 -54.423742 29.772475
-30.041927 -54.38404 30.926175
-28.980355 -63.878579 39.352325
-28.752273 -64.6138 40.001371
-28.936708 -64.255957 38.119598
-28.980355 -63.878579 39.352325
-29.207436 -63.023359 38.678268
-25.187113 -79.114624 24.08495
-25.462466 -78.016129 24.959384
-25.308409 -79.361737 22.883109
-24.947598 -80.20657 23.338673
-25.187113 -79.114624 24.08495
-25.627868 -78.382568 22.424733
-25.308409 -79.361737 22.883109
-25.910634 -77.40017 22.021133
-25.627868 -78.382568 22.424733
-25.830689 -77.287392 23.225784
-26.136868 -76.392086 21.548634
-25.910634 -77.40017 22.021133
-26.330714 -75.287876 22.265878
-26.33778 -75.224903 23.631954
-26.555039 -74.207787 23.075648
-26.136868 -76.392086 21.548634
-26.330714 -75.287876 22.265878
-26.94305 -72.100941 21.967607
-27.1745 -71.004868 22.773946
-27.994733 -66.49126 23.154584
-28.100663 -66.50785 24.417467
-28.256199 -65.252064 23.80874
-27.739767 -67.722488 22.510761
-27.994733 -66.49126 23.154584
-28.386893 -64.128743 23.233762
-28.503895 -63.015543 22.686226
3 0 17 15
3 0 20 18
3 0 15 20
3 2 64 66
3 64 23 65
3 64 65 66
3 3 26 24
3 3 27 26
3 1 30 28
3 67 33 68
3 69 68 31
3 67 68 69
3 71 70 33
3 73 72 34
3 2 74 76
3 76 75 35
3 74 75 76
3 2 77 78
3 4 38 36
3 6 39 16
3 6 40 39
3 79 43 80
3 81 80 41
3 79 80 81
3 82 44 83
3 85 84 44
3 8 45 19
3 8 46 45
3 8 47 46
3 4 48 21
3 4 36 48
3 9 51 49
3 86 52 87
3 88 87 22
3 86 87 88
3 89 53 90
3 91 90 52
3 89 90 91
3 9 92 93
3 9 94 96
3 94 49 95
3 94 95 96
3 11 97 99
3 97 54 98
3 97 98 99
3 11 55 54
3 5 56 37
3 12 57 25
3 12 100 102
3 102 101 57
3 100 101 102
3 12 103 104
3 10 58 50
3 13 59 29
3 13 60 59
3 7 61 42
3 14 62 32
3 14 63 62
3 14 105 107
3 107 106 63
3 105 106 107
3 15 16 4
3 17 16 15
3 17 6 16
3 18 108 110
3 108 19 109
3 108 109 110
3 20 19 18
3 20 8 19
3 20 21 8
3 15 21 20
3 15 4 21
3 111 22 112
3 113 112 9
3 111 112 113
3 114 22 115
3 117 116 22
3 118 9 119
3 23 120 121
3 23 122 124
3 122 11 123
3 122 123 124
3 24 25 5
3 26 25 24
3 26 12 25
3 26 125 127
3 127 126 12
3 125 126 127
3 27 128 130
3 130 129 26
3 128 129 130
3 27 131 132
3 28 29 10
3 30 29 28
3 30 13 29
3 31 32 7
3 33 32 31
3 33 14 32
3 33 133 135
3 135 134 14
3 133 134 135
3 137 136 33
3 34 138 139
3 141 140 34
3 35 142 143
3 145 144 35
3 36 37 2
3 38 37 36
3 38 5 37
3 16 38 4
3 39 38 16
3 39 5 38
3 39 24 5
3 40 24 39
3 40 3 24
3 41 42 1
3 43 42 41
3 43 7 42
3 146 43 147
3 44 148 150
3 148 43 149
3 148 149 150
3 44 7 43
3 44 31 7
3 151 31 152
3 153 152 44
3 151 152 153
3 155 154 31
3 19 156 157
3 45 158 160
3 160 159 19
3 158 159 160
3 45 161 162
3 45 163 165
3 163 34 164
3 163 164 165
3 46 34 45
3 46 166 168
3 168 167 34
3 166 167 168
3 46 169 170
3 47 171 173
3 173 172 46
3 171 172 173
3 47 174 176
3 174 175 176
3 21 47 8
3 48 47 21
3 48 177 179
3 179 178 47
3 177 178 179
3 48 180 182
3 180 35 181
3 180 181 182
3 36 35 48
3 36 2 35
3 49 50 0
3 51 50 49
3 51 10 50
3 22 51 9
3 52 51 22
3 52 10 51
3 52 28 10
3 53 28 52
3 53 1 28
3 183 53 184
3 185 53 186
3 187 1 188
3 189 188 53
3 187 188 189
3 190 41 191
3 192 191 1
3 190 191 192
3 193 41 194
3 196 195 41
3 197 18 198
3 49 199 201
3 199 18 200
3 199 200 201
3 49 0 18
3 54 202 203
3 54 204 206
3 204 205 206
3 54 207 208
3 55 209 211
3 211 210 54
3 209 210 211
3 55 212 213
3 37 23 2
3 56 23 37
3 56 11 23
3 25 56 5
3 57 56 25
3 57 11 56
3 57 55 11
3 214 55 215
3 216 215 57
3 214 215 216
3 218 217 55
3 220 219 12
3 50 17 0
3 58 17 50
3 58 6 17
3 29 58 10
3 59 58 29
3 59 6 58
3 59 40 6
3 60 40 59
3 60 3 40
3 42 30 1
3 61 30 42
3 61 13 30
3 32 61 7
3 62 61 32
3 62 13 61
3 62 60 13
3 63 60 62
3 63 3 60
3 63 27 3
3 221 27 222
3 223 222 63
3 221 222 223
3 225 224 27
3 227 226 14
