ply
format ascii 1.0
element vertex 216
property float x
property float y
property float z
element face 217
property list uchar int vertex_index
end_header
-11.201054 -34.686432 -54.878345
1.06962 -31.75075 -48.935802
-3.60207 -49.729492 -48.395729
2.803171 -47.152935 -45.388348
-4.264316 -33.963917 -52.170731
-7.596438 -42.351303 -51.507252
-4.120605 -41.74136 -50.164047
-7.471737 -34.704556 -53.489567
-7.051416 -27.35829 -55.643158
-1.582843 -25.898825 -52.691551
-11.653677 -42.263355 -52.795467
1.780784 -39.488113 -47.077805
-0.235076 -48.601665 -46.975304
-0.895213 -40.709908 -48.668201
-1.398603 -33.27002 -50.595955
-4.035622 -26.768621 -54.203163
-9.501333 -38.589851 -53.173077
-7.715682 -38.388531 -52.560455
-9.30738 -34.803902 -54.193569
-9.043592 -31.335777 -55.170906
-0.313894 -28.915182 -50.794243
-9.657154 -46.075939 -51.289444
4.737559 -50.149864 -43.826588
4.09701 -46.172024 -44.586105
3.485872 -42.429024 -45.397106
2.166007 -43.02977 -46.310101
0.150432 -52.655785 -46.237511
-1.917423 -49.201855 -47.723881
-4.254978 -37.88015 -51.139179
-2.412089 -41.393795 -49.382904
-2.683875 -37.336884 -50.431309
-1.241956 -36.769386 -49.690746
-2.819561 -33.577686 -51.445652
-2.800595 -29.899485 -52.442337
-4.107867 -30.397272 -53.107018
3.339926 -51.178654 -44.645798
-5.726311 -46.193874 -49.924606
-4.021502 -45.531746 -49.334194
-5.877804 -42.027924 -50.890232
-6.000678 -38.075043 -51.915955
-5.822442 -34.385689 -52.840714
-5.688683 -30.941902 -53.796352
-7.36434 -31.027212 -54.566246
-2.640972 -23.050808 -54.454205
-5.622126 -50.166546 -49.115814
-7.689856 -46.148842 -50.66507
-9.616334 -42.317627 -52.212742
-11.411883 -38.582523 -53.771549
2.475583 -34.816647 -47.12923
2.913307 -38.59074 -46.278206
1.326275 -35.482399 -48.061417
1.799828 -52.060284 -45.44521
1.335036 -48.027939 -46.187626
-2.157278 -45.446445 -48.467297
-0.571574 -44.62833 -47.777279
0.942492 -44.173409 -46.95948
0.424161 -40.064941 -47.954445
0.189342 -36.320454 -48.798466
-0.097388 -32.614124 -49.770565
-1.494761 -29.625389 -51.589207
-2.762808 -26.368622 -53.473381
-3.836855 -23.56082 -55.161739
-5.473346 -27.277382 -54.871563
-11.048077 -32.84075 -55.421999
-10.10124 -32.899485 -55.079611
-10.254217 -34.745167 -54.535957
0.901841 -29.922739 -49.456112
1.553319 -31.299155 -48.528502
0.377863 -30.332966 -49.865023
0.210085 -28.504955 -50.385332
0.901841 -29.922739 -49.456112
-2.759746 -49.465674 -48.059805
-1.76764 -51.271977 -47.355537
-2.609963 -51.535795 -47.691462
3.67023 -53.180014 -44.284289
4.410165 -52.717846 -43.862593
4.740469 -54.719206 -43.501084
-8.852405 -29.488788 -55.716875
-9.695429 -29.373493 -56.087721
-1.5686 -24.296639 -53.158968
-1.015535 -25.605334 -52.252992
-2.111908 -24.474816 -53.572878
-2.097665 -22.87263 -54.040295
-1.5686 -24.296639 -53.158968
-6.649169 -50.050171 -49.484275
-5.48756 -52.075607 -48.735781
-7.683034 -48.041319 -50.258904
-6.655991 -48.157694 -49.890442
-6.649169 -50.050171 -49.484275
3.209684 -36.075322 -46.286952
2.95022 -34.291922 -46.705238
3.684321 -35.550596 -45.86296
-9.969346 -31.165422 -55.568279
-9.175486 -33.06984 -54.682237
-10.10124 -32.899485 -55.079611
-9.695429 -29.373493 -56.087721
-9.969346 -31.165422 -55.568279
-0.381061 -27.113513 -51.304339
0.142918 -26.703285 -50.895427
0.210085 -28.504955 -50.385332
-0.948368 -27.407004 -51.742897
-1.015535 -25.605334 -52.252992
-0.381061 -27.113513 -51.304339
-9.64379 -48.013618 -50.835867
-8.666683 -48.004868 -50.57109
-8.653319 -49.942547 -50.117514
-10.697639 -46.100691 -51.534881
-9.64379 -48.013618 -50.835867
-11.695901 -44.194399 -52.287893
-10.655416 -44.169647 -52.042456
-10.697639 -46.100691 -51.534881
5.330445 -49.603323 -43.428348
5.746458 -51.715 -43.038542
5.010171 -47.614403 -43.808107
5.330445 -49.603323 -43.428348
4.417285 -48.160944 -44.206347
4.617843 -45.530005 -44.225943
5.010171 -47.614403 -43.808107
3.791441 -44.300524 -44.991606
4.312273 -43.658504 -44.631443
4.617843 -45.530005 -44.225943
-0.733712 -52.998942 -46.612353
0.383083 -54.670549 -45.902584
-0.883495 -50.92882 -46.980696
-0.733712 -52.998942 -46.612353
-1.76764 -51.271977 -47.355537
-6.866266 -25.605811 -56.18477
-7.667057 -25.682792 -56.534722
5.108981 -52.203451 -43.452988
5.746458 -51.715 -43.038542
4.038742 -50.664259 -44.236193
5.108981 -52.203451 -43.452988
4.410165 -52.717846 -43.862593
-8.01278 -29.334505 -55.414545
-8.203966 -31.181494 -54.868576
-8.852405 -29.488788 -55.716875
-7.856317 -27.500044 -55.953001
-7.207878 -29.192751 -55.104702
-8.01278 -29.334505 -55.414545
-7.667057 -25.682792 -56.534722
-7.856317 -27.500044 -55.953001
-2.553352 -21.506366 -54.912755
-2.097665 -22.87263 -54.040295
-3.132452 -21.765641 -55.291203
-3.044831 -20.221199 -55.749752
-2.553352 -21.506366 -54.912755
-3.555076 -51.677032 -48.069805
-2.609963 -51.535795 -47.691462
-4.565104 -51.895559 -48.429848
-5.48756 -52.075607 -48.735781
-4.612098 -49.948019 -48.755772
-3.555076 -51.677032 -48.069805
-4.565104 -51.895559 -48.429848
-8.673505 -46.112391 -50.977257
-7.683034 -48.041319 -50.258904
-8.666683 -48.004868 -50.57109
2.256301 -32.832104 -47.625215
2.95022 -34.291922 -46.705238
1.772601 -33.283698 -48.032516
1.553319 -31.299155 -48.528502
2.256301 -32.832104 -47.625215
-12.628908 -42.198467 -53.017643
-11.695901 -44.194399 -52.287893
-12.550486 -40.367334 -53.548584
-12.628908 -42.198467 -53.017643
-12.429589 -38.526918 -54.036625
-11.53278 -40.422939 -53.283508
-12.550486 -40.367334 -53.548584
-12.26121 -36.52519 -54.626991
-12.429589 -38.526918 -54.036625
-12.155795 -34.577145 -55.180389
-11.306468 -36.634478 -54.324947
-12.26121 -36.52519 -54.626991
-11.946115 -32.729893 -55.737417
-12.155795 -34.577145 -55.180389
-11.048077 -32.84075 -55.421999
-11.946115 -32.729893 -55.737417
3.996347 -41.787077 -45.019684
4.822749 -43.016558 -44.254021
4.312273 -43.658504 -44.631443
3.710065 -39.867935 -45.460234
3.996347 -41.787077 -45.019684
3.19959 -40.509882 -45.837656
3.428546 -37.962368 -45.861441
3.710065 -39.867935 -45.460234
2.694445 -36.703693 -46.703718
3.209684 -36.075322 -46.286952
3.428546 -37.962368 -45.861441
1.336674 -54.464699 -45.4431
0.383083 -54.670549 -45.902584
2.161372 -54.166949 -45.046949
1.336674 -54.464699 -45.4431
0.97513 -52.358035 -45.841361
2.900181 -53.620829 -44.683994
2.161372 -54.166949 -45.046949
2.569877 -51.619469 -45.045504
3.67023 -53.180014 -44.284289
2.900181 -53.620829 -44.683994
-3.730393 -22.020647 -55.64497
-3.132452 -21.765641 -55.291203
-3.238913 -23.305814 -54.807972
-6.077231 -25.565357 -55.798973
-6.262381 -27.317836 -55.257361
-6.866266 -25.605811 -56.18477
-5.317254 -25.514665 -55.403849
-6.077231 -25.565357 -55.798973
-4.598392 -25.260285 -55.069648
-4.754484 -27.023001 -54.537363
-5.317254 -25.514665 -55.403849
-4.499009 -23.656385 -55.548936
-3.936238 -25.164721 -54.682451
-4.598392 -25.260285 -55.069648
-4.344722 -22.13572 -56.027523
-4.499009 -23.656385 -55.548936
-3.730393 -22.020647 -55.64497
-4.344722 -22.13572 -56.027523
3 0 18 16
3 0 63 65
3 65 64 18
3 63 64 65
3 1 66 67
3 1 68 70
3 68 20 69
3 68 69 70
3 3 23 22
3 3 25 23
3 2 71 73
3 71 27 72
3 71 72 73
3 4 30 28
3 4 32 30
3 4 34 32
3 74 35 75
3 74 75 76
3 5 38 36
3 7 39 17
3 7 40 39
3 7 42 40
3 78 77 19
3 9 79 80
3 9 81 83
3 81 43 82
3 81 82 83
3 84 44 85
3 86 45 87
3 88 87 44
3 86 87 88
3 10 46 21
3 10 47 46
3 89 48 90
3 89 90 91
3 11 49 24
3 11 50 49
3 12 51 26
3 12 52 51
3 6 53 37
3 13 54 29
3 13 55 54
3 13 56 55
3 14 57 31
3 14 58 57
3 14 59 58
3 15 60 33
3 15 61 60
3 8 62 41
3 16 17 5
3 18 17 16
3 18 7 17
3 18 19 7
3 92 19 93
3 94 93 18
3 92 93 94
3 96 95 19
3 20 97 99
3 97 98 99
3 20 100 102
3 100 9 101
3 100 101 102
3 103 21 104
3 103 104 105
3 106 21 107
3 108 10 109
3 110 109 21
3 108 109 110
3 22 111 112
3 23 113 115
3 115 114 22
3 113 114 115
3 23 116 117
3 23 118 120
3 118 24 119
3 118 119 120
3 25 24 23
3 25 11 24
3 121 26 122
3 27 123 125
3 123 26 124
3 123 124 125
3 27 12 26
3 28 29 6
3 30 29 28
3 30 13 29
3 30 31 13
3 32 31 30
3 32 14 31
3 32 33 14
3 34 33 32
3 34 15 33
3 127 126 8
3 128 22 129
3 35 130 132
3 130 22 131
3 130 131 132
3 35 3 22
3 36 37 2
3 38 37 36
3 38 6 37
3 17 38 5
3 39 38 17
3 39 6 38
3 39 28 6
3 40 28 39
3 40 4 28
3 40 41 4
3 42 41 40
3 42 8 41
3 19 42 7
3 133 42 134
3 135 134 19
3 133 134 135
3 136 8 137
3 138 137 42
3 136 137 138
3 140 139 8
3 43 141 142
3 43 143 145
3 143 144 145
3 146 2 147
3 44 148 149
3 44 150 152
3 150 2 151
3 150 151 152
3 44 36 2
3 45 36 44
3 45 5 36
3 21 153 155
3 153 45 154
3 153 154 155
3 46 45 21
3 46 5 45
3 46 16 5
3 47 16 46
3 47 0 16
3 48 156 157
3 48 158 160
3 158 1 159
3 158 159 160
3 161 10 162
3 163 10 164
3 165 47 166
3 167 166 10
3 165 166 167
3 168 47 169
3 170 0 171
3 172 171 47
3 170 171 172
3 173 0 174
3 176 175 0
3 24 177 179
3 177 178 179
3 49 180 182
3 182 181 24
3 180 181 182
3 49 183 184
3 49 185 187
3 185 48 186
3 185 186 187
3 50 48 49
3 50 1 48
3 26 188 189
3 51 190 192
3 192 191 26
3 190 191 192
3 51 193 194
3 51 195 197
3 195 35 196
3 195 196 197
3 52 35 51
3 52 3 35
3 37 27 2
3 53 27 37
3 53 12 27
3 29 53 6
3 54 53 29
3 54 12 53
3 54 52 12
3 55 52 54
3 55 3 52
3 55 25 3
3 56 25 55
3 56 11 25
3 31 56 13
3 57 56 31
3 57 11 56
3 57 50 11
3 58 50 57
3 58 1 50
3 58 20 1
3 59 20 58
3 59 9 20
3 33 59 14
3 60 59 33
3 60 9 59
3 60 43 9
3 61 43 60
3 61 198 200
3 200 199 43
3 198 199 200
3 41 34 4
3 62 34 41
3 62 15 34
3 201 62 202
3 203 202 8
3 201 202 203
3 204 62 205
3 206 15 207
3 208 207 62
3 206 207 208
3 209 61 210
3 211 210 15
3 209 210 211
3 212 61 213
3 215 214 61
