ply
format ascii 1.0
element vertex 289
property float x
property float y
property float z
element face 262
property list uchar int vertex_index
end_header
10.067377 30.895485 59.100849
17.190144 36.660641 60.863956
23.078144 25.951687 65.479103
28.036871 28.241961 61.107948
2.514397 25.194952 56.47451
7.005913 34.673969 55.622032
10.773339 37.818066 56.781925
13.129683 26.534208 62.48241
13.686233 33.484062 60.324448
16.819893 28.965656 63.497456
20.177362 31.329996 63.715485
23.350101 33.619778 62.899651
25.844316 27.122765 64.004707
3.179906 31.598673 54.430809
6.345139 27.960848 57.829613
9.557348 23.719343 61.305977
8.456666 32.664135 57.379272
8.925774 36.306503 56.203167
10.356116 34.121422 58.028389
29.689989 21.599337 58.266823
14.786394 24.250963 64.068481
15.030713 27.674999 63.106503
16.673733 25.301903 64.595306
20.038258 27.543617 64.924324
21.644119 28.576553 64.764389
21.867369 32.323166 63.521313
23.266209 29.805683 64.234482
24.706039 30.404289 63.581169
24.531612 26.529266 64.903107
2.930827 28.227852 55.60004
4.719132 29.736618 56.129658
4.459897 26.520491 57.182194
7.392858 19.35927 61.378273
7.577421 22.414747 60.525356
9.272155 20.573002 62.127491
11.121367 21.632908 62.888435
15.384819 34.985981 60.674305
13.945792 37.178848 59.015976
5.494751 36.468529 53.892765
7.329755 38.149105 54.3727
28.72794 24.871447 60.764362
29.304344 25.37686 58.85363
11.484853 28.464895 60.86935
11.922412 31.941486 59.862724
13.470432 29.976007 61.494442
15.326862 31.288258 62.018532
16.957396 32.893909 62.194046
18.419146 26.366465 64.893539
18.421053 30.335381 63.623581
18.660667 34.156891 62.350437
20.443352 34.982578 62.454514
26.033314 30.902763 62.60022
27.053349 27.65946 62.716633
27.936634 24.574936 62.471638
3.656868 34.921234 53.372196
5.165376 32.955929 55.134693
6.709293 31.268299 56.800236
8.296515 29.118692 58.640232
4.159291 23.251785 58.156475
6.038833 24.480921 58.885025
7.905153 25.763889 59.59906
9.813125 27.12184 60.316002
11.402688 24.978842 62.003124
12.959227 22.824266 63.557644
12.150188 35.751419 58.510559
16.510501 23.544258 65.041359
15.730063 24.776433 64.331894
15.566831 23.018788 64.777946
22.361131 27.26412 65.121746
21.594494 26.685067 65.336292
22.311507 25.372634 65.693649
2.722612 26.711402 56.037275
1.963246 27.645081 55.23414
1.755031 26.128632 55.671375
8.173656 18.244097 62.170866
7.242396 17.83932 61.740216
9.113304 18.850963 62.545475
8.332507 19.966136 61.752882
8.173656 18.244097 62.170866
10.059423 19.429827 62.922001
9.113304 18.850963 62.545475
16.478338 37.755466 60.091492
15.575675 36.918137 59.996666
16.287481 35.823311 60.769131
28.045932 30.226722 60.388903
27.599854 29.966655 61.15139
9.995673 38.880633 55.815422
9.071891 38.124851 55.526043
9.849557 37.062285 56.492546
10.918162 39.684273 56.072738
10.140496 40.74684 55.106235
9.995673 38.880633 55.815422
29.282666 23.537139 59.496952
29.016142 25.124153 59.808996
28.994464 23.284433 60.452318
29.711369 23.587654 57.579172
29.828044 21.812952 57.279518
19.150995 25.073414 65.454224
18.319993 24.556296 65.39296
22.720922 34.919359 62.492748
21.979556 34.271054 62.803579
22.608735 32.971472 63.210482
23.524974 35.483787 62.154039
22.720922 34.919359 62.492748
24.128128 33.894758 62.524895
23.524974 35.483787 62.154039
27.882673 22.675877 63.12151
27.408895 24.29957 63.262633
28.296092 22.791939 62.288172
27.882673 22.675877 63.12151
2.442463 32.522765 53.604189
2.247008 30.80453 54.175894
3.418387 33.259954 53.901503
2.680944 34.184045 53.074883
2.442463 32.522765 53.604189
4.93313 22.298001 58.946125
4.019481 21.697993 58.586848
5.872902 22.912569 59.3104
5.099062 23.866353 58.52075
4.93313 22.298001 58.946125
12.830451 21.146186 63.978735
12.040297 22.228587 63.223039
11.911521 20.550507 63.644131
13.773118 21.663952 64.312101
12.830451 21.146186 63.978735
13.309718 38.405513 58.12105
14.187872 39.194761 58.305527
29.65421 19.832414 58.901544
29.475489 21.648377 59.203548
29.809468 19.969534 57.801901
29.65421 19.832414 58.901544
29.828044 21.812952 57.279518
29.809468 19.969534 57.801901
20.791564 26.168599 65.416259
19.960551 25.66199 65.469616
20.841189 28.060085 64.844357
20.791564 26.168599 65.416259
21.594494 26.685067 65.336292
2.122469 29.11912 54.760509
1.963246 27.645081 55.23414
3.055366 29.913263 55.015425
2.247008 30.80453 54.175894
2.122469 29.11912 54.760509
6.399612 18.837865 60.941685
7.242396 17.83932 61.740216
6.549914 20.351743 60.557024
6.399612 18.837865 60.941685
7.48514 20.887009 60.951814
6.642195 21.879482 60.130566
6.549914 20.351743 60.557024
10.984029 19.95978 63.302473
10.196761 21.102955 62.507963
10.059423 19.429827 62.922001
11.911521 20.550507 63.644131
10.984029 19.95978 63.302473
14.856162 38.01457 59.167502
14.665306 36.082414 59.84514
15.575675 36.918137 59.996666
14.187872 39.194761 58.305527
14.856162 38.01457 59.167502
23.065004 24.010685 66.034401
22.311507 25.372634 65.693649
23.755995 24.459805 65.736176
23.065004 24.010685 66.034401
1.593613 24.539846 56.153046
1.755031 26.128632 55.671375
5.672493 38.245832 53.244304
4.786333 37.462721 53.019369
6.589995 39.08612 53.484272
5.672493 38.245832 53.244304
6.412253 37.308817 54.132733
7.526711 39.889521 53.743767
6.589995 39.08612 53.484272
8.273881 39.046152 54.61081
8.127764 37.227804 55.287934
9.071891 38.124851 55.526043
7.526711 39.889521 53.743767
8.273881 39.046152 54.61081
17.345816 38.536775 60.159596
18.111698 37.261989 60.948225
28.742465 26.897983 60.052854
28.39693 28.58324 60.224648
28.382406 26.556704 60.936155
29.030667 27.150689 59.097488
28.742465 26.897983 60.052854
29.016142 25.124153 59.808996
29.336987 27.217683 58.128121
29.030667 27.150689 59.097488
29.497166 23.488098 58.560226
29.282666 23.537139 59.496952
29.475489 21.648377 59.203548
29.518547 25.476415 57.872575
29.497166 23.488098 58.560226
29.711369 23.587654 57.579172
29.336987 27.217683 58.128121
29.518547 25.476415 57.872575
17.447286 24.024014 65.243843
16.510501 23.544258 65.041359
17.546439 25.834184 64.744422
17.447286 24.024014 65.243843
18.319993 24.556296 65.39296
19.228702 26.955041 64.908931
19.150995 25.073414 65.454224
19.960551 25.66199 65.469616
18.84696 36.010115 61.691465
18.111698 37.261989 60.948225
17.925406 35.408766 61.607197
19.738302 36.422958 61.743504
18.84696 36.010115 61.691465
19.55201 34.569734 62.402476
20.634495 37.029142 61.681046
19.738302 36.422958 61.743504
21.267547 35.600759 62.27018
21.155361 33.652872 62.987914
21.979556 34.271054 62.803579
20.634495 37.029142 61.681046
21.267547 35.600759 62.27018
24.806097 32.287014 62.865654
24.128128 33.894758 62.524895
24.02807 32.012034 63.24041
25.469735 32.536251 62.37518
24.806097 32.287014 62.865654
25.369677 30.653526 63.090694
26.114075 32.935699 61.793713
25.469735 32.536251 62.37518
26.598075 31.297056 61.897526
26.114075 32.935699 61.793713
27.108092 29.675404 61.955732
26.598075 31.297056 61.897526
26.543332 29.281112 62.658427
27.54511 27.95071 61.91229
27.599854 29.966655 61.15139
27.108092 29.675404 61.955732
24.482729 24.748594 65.448177
23.804878 26.240476 65.191105
23.755995 24.459805 65.736176
25.141543 24.977691 65.046528
24.482729 24.748594 65.448177
25.797895 25.274441 64.597328
25.187964 26.826016 64.453907
25.141543 24.977691 65.046528
26.362737 25.573484 64.029167
25.797895 25.274441 64.597328
26.967253 25.841832 63.38513
26.448833 27.391112 63.36067
26.362737 25.573484 64.029167
27.494992 26.117198 62.594136
26.967253 25.841832 63.38513
27.408895 24.29957 63.262633
28.691745 22.940195 61.434534
28.332287 24.723191 61.618
28.296092 22.791939 62.288172
28.994464 23.284433 60.452318
28.691745 22.940195 61.434534
2.898453 35.821951 52.52869
2.680944 34.184045 53.074883
3.867392 36.689073 52.759085
2.898453 35.821951 52.52869
4.57581 35.694881 53.63248
4.786333 37.462721 53.019369
3.867392 36.689073 52.759085
2.373625 23.702101 56.910549
1.593613 24.539846 56.153046
3.196072 22.730517 57.751531
4.019481 21.697993 58.586848
3.336844 24.223368 57.315493
2.373625 23.702101 56.910549
3.196072 22.730517 57.751531
6.808127 23.447834 59.705191
5.872902 22.912569 59.3104
6.642195 21.879482 60.130566
14.686701 22.3773 64.56752
13.87281 23.537615 63.813063
13.773118 21.663952 64.312101
15.566831 23.018788 64.777946
14.686701 22.3773 64.56752
12.411916 37.691799 57.868341
13.04799 36.465134 58.763267
13.309718 38.405513 58.12105
11.723491 38.725122 57.004024
11.461763 36.784743 57.646242
12.411916 37.691799 57.868341
10.918162 39.684273 56.072738
11.723491 38.725122 57.004024
16.478338 37.755466 60.091492
17.345816 38.536775 60.159596
28.405991 30.568001 59.505602
28.045932 30.226722 60.388903
28.39693 28.58324 60.224648
3 0 18 16
3 65 22 66
3 67 66 20
3 65 66 67
3 2 68 70
3 68 24 69
3 68 69 70
3 2 26 24
3 2 28 26
3 4 71 73
3 71 29 72
3 71 72 73
3 4 31 29
3 74 32 75
3 76 34 77
3 78 77 32
3 76 77 78
3 80 79 34
3 1 81 83
3 83 82 36
3 81 82 83
3 3 84 85
3 5 39 38
3 6 86 88
3 88 87 17
3 86 87 88
3 6 89 91
3 89 90 91
3 92 41 93
3 94 93 40
3 92 93 94
3 96 95 19
3 7 44 42
3 9 45 21
3 9 46 45
3 97 47 98
3 10 48 23
3 10 49 48
3 10 50 49
3 11 99 101
3 101 100 25
3 99 100 101
3 11 102 103
3 11 104 105
3 12 51 27
3 12 52 51
3 106 53 107
3 109 108 53
3 13 110 111
3 13 112 114
3 112 54 113
3 112 113 114
3 13 55 54
3 14 56 30
3 14 57 56
3 115 58 116
3 117 59 118
3 119 118 58
3 117 118 119
3 15 60 33
3 15 61 60
3 15 62 61
3 120 63 121
3 122 121 35
3 120 121 122
3 124 123 63
3 8 64 43
3 126 125 37
3 16 17 5
3 18 17 16
3 18 6 17
3 127 19 128
3 129 19 130
3 132 131 19
3 20 21 7
3 22 21 20
3 22 9 21
3 133 23 134
3 24 135 137
3 135 23 136
3 135 136 137
3 24 10 23
3 24 25 10
3 26 25 24
3 26 11 25
3 26 27 11
3 28 27 26
3 28 12 27
3 29 138 139
3 29 140 142
3 140 13 141
3 140 141 142
3 29 30 13
3 31 30 29
3 31 14 30
3 32 143 144
3 32 145 146
3 32 147 149
3 147 33 148
3 147 148 149
3 34 33 32
3 34 15 33
3 34 35 15
3 150 35 151
3 152 151 34
3 150 151 152
3 154 153 35
3 36 37 8
3 155 37 156
3 157 156 36
3 155 156 157
3 159 158 37
3 160 2 161
3 163 162 2
3 164 4 165
3 38 166 167
3 39 168 170
3 170 169 38
3 168 169 170
3 39 171 172
3 17 39 5
3 173 39 174
3 175 174 17
3 173 174 175
3 177 176 39
3 179 178 1
3 40 180 182
3 182 181 3
3 180 181 182
3 41 183 185
3 185 184 40
3 183 184 185
3 41 186 187
3 19 188 190
3 188 41 189
3 188 189 190
3 191 41 192
3 193 192 19
3 191 192 193
3 195 194 41
3 42 43 0
3 44 43 42
3 44 8 43
3 21 44 7
3 45 44 21
3 45 8 44
3 45 36 8
3 46 36 45
3 46 1 36
3 196 22 197
3 47 198 200
3 198 22 199
3 198 199 200
3 47 9 22
3 23 201 203
3 201 47 202
3 201 202 203
3 48 47 23
3 48 9 47
3 48 46 9
3 49 46 48
3 49 1 46
3 49 204 206
3 206 205 1
3 204 205 206
3 50 207 209
3 209 208 49
3 207 208 209
3 50 210 211
3 25 50 10
3 212 50 213
3 214 213 25
3 212 213 214
3 216 215 50
3 27 217 219
3 219 218 11
3 217 218 219
3 51 220 222
3 222 221 27
3 220 221 222
3 51 223 224
3 51 225 226
3 52 227 229
3 229 228 51
3 227 228 229
3 52 230 232
3 230 3 231
3 230 231 232
3 233 28 234
3 235 234 2
3 233 234 235
3 236 28 237
3 238 12 239
3 240 239 28
3 238 239 240
3 241 12 242
3 243 52 244
3 245 244 12
3 243 244 245
3 53 246 248
3 246 52 247
3 246 247 248
3 53 3 52
3 53 40 3
3 249 40 250
3 251 250 53
3 249 250 251
3 253 252 40
3 54 254 255
3 54 256 257
3 54 258 260
3 258 38 259
3 258 259 260
3 55 38 54
3 55 5 38
3 30 55 13
3 56 55 30
3 56 5 55
3 56 16 5
3 57 16 56
3 57 0 16
3 261 4 262
3 58 263 264
3 58 265 267
3 265 4 266
3 265 266 267
3 58 31 4
3 59 31 58
3 59 14 31
3 33 268 270
3 268 59 269
3 268 269 270
3 60 59 33
3 60 14 59
3 60 57 14
3 61 57 60
3 61 0 57
3 61 42 0
3 62 42 61
3 62 7 42
3 35 62 15
3 63 62 35
3 63 7 62
3 63 20 7
3 271 20 272
3 273 272 63
3 271 272 273
3 275 274 20
3 43 18 0
3 64 18 43
3 64 6 18
3 37 64 8
3 276 64 277
3 278 277 37
3 276 277 278
3 279 6 280
3 281 280 64
3 279 280 281
3 283 282 6
3 285 284 1
3 288 287 3
3 286 287 288
