ply
format ascii 1.0
element vertex 142
property float x
property float y
property float z
element face 128
property list uchar int vertex_index
end_header
23.773378 -92.018265 -26.208733
18.892061 -98.976685 -30.916515
17.252338 -88.233322 -34.59193
18.143841 -93.998917 -33.185284
13.813268 -90.627289 -36.811958
24.453213 -87.295349 -23.877806
22.505613 -86.552544 -28.261347
21.933172 -96.032173 -28.613262
20.886423 -90.688004 -30.78466
14.075429 -93.456818 -36.158997
24.285315 -89.647827 -24.907574
23.597586 -87.086685 -26.113365
23.187029 -89.526337 -27.297705
20.750521 -99.855156 -28.508131
22.35165 -98.340294 -27.162373
20.586288 -97.644356 -29.752237
17.760523 -91.137077 -33.945873
19.698177 -92.53231 -31.953432
19.155113 -89.58297 -32.772057
20.358459 -87.921387 -31.480829
18.563049 -86.624626 -33.426643
16.669634 -97.890305 -33.187286
18.52389 -96.644463 -32.170563
16.43347 -95.193832 -34.247803
16.12274 -92.543304 -35.033203
15.693545 -89.600632 -35.711399
23.055128 -94.144424 -27.335508
20.121916 -95.193756 -31.021931
21.447741 -93.571518 -29.784519
22.427111 -91.565109 -28.615395
21.87327 -88.848869 -29.47452
21.110649 -85.871101 -30.406586
24.029347 -90.833046 -25.558153
24.552506 -90.827156 -24.316778
24.296537 -92.012375 -24.967358
15.506588 -95.734139 -34.675041
16.551552 -96.542068 -33.717545
15.624669 -97.082375 -34.144783
24.788726 -87.24392 -22.663139
25.115737 -88.414772 -21.968477
24.780224 -88.466202 -23.183143
24.462344 -86.034202 -23.311445
24.797857 -85.982773 -22.096779
24.788726 -87.24392 -22.663139
24.133716 -86.023079 -24.412209
24.462344 -86.034202 -23.311445
22.718771 -85.443596 -27.659579
23.264758 -85.710667 -26.585589
23.0516 -86.819615 -27.187356
22.137039 -85.075603 -28.707016
22.718771 -85.443596 -27.659579
22.667985 -96.308521 -27.373518
22.877224 -97.462581 -26.648073
22.142411 -97.186234 -27.887817
22.49415 -95.088299 -27.974385
23.228963 -95.364646 -26.734641
22.667985 -96.308521 -27.373518
20.307195 -85.296436 -31.386366
20.734554 -86.896244 -30.943708
19.9311 -86.321579 -31.923488
20.71844 -84.300793 -30.80442
20.307195 -85.296436 -31.386366
13.090739 -93.937649 -36.537796
14.327567 -94.865632 -35.630639
12.938342 -92.510258 -36.943287
13.090739 -93.937649 -36.537796
12.807261 -91.095494 -37.269768
13.944349 -92.042054 -36.485478
12.938342 -92.510258 -36.943287
24.696275 -89.642441 -23.698027
24.552506 -90.827156 -24.316778
24.369264 -88.471588 -24.39269
24.780224 -88.466202 -23.183143
24.696275 -89.642441 -23.698027
21.551085 -99.097725 -27.835252
22.387014 -99.402721 -26.471787
21.586449 -100.160152 -27.144666
19.033395 -85.673199 -32.896394
19.9311 -86.321579 -31.923488
19.460754 -87.273007 -32.453736
24.052402 -93.192737 -25.501297
24.296537 -92.012375 -24.967358
15.254449 -94.325325 -35.2034
15.506588 -95.734139 -34.675041
14.327567 -94.865632 -35.630639
23.705903 -85.918747 -25.529989
24.133716 -86.023079 -24.412209
24.025399 -87.191017 -24.995586
23.705903 -85.918747 -25.529989
23.264758 -85.710667 -26.585589
20.807927 -100.875759 -27.70757
21.586449 -100.160152 -27.144666
19.912729 -100.570362 -28.953492
20.807927 -100.875759 -27.70757
18.983499 -100.131126 -30.157684
19.821291 -99.41592 -29.712323
19.912729 -100.570362 -28.953492
17.951056 -99.620239 -31.355243
18.983499 -100.131126 -30.157684
16.839842 -99.07705 -32.490628
17.780848 -98.433495 -32.051901
17.951056 -99.620239 -31.355243
15.681551 -98.378388 -33.594887
16.839842 -99.07705 -32.490628
15.624669 -97.082375 -34.144783
15.681551 -98.378388 -33.594887
23.047829 -98.505272 -25.850873
22.387014 -99.402721 -26.471787
23.047829 -98.505272 -25.850873
22.877224 -97.462581 -26.648073
23.693276 -94.255817 -26.064684
23.228963 -95.364646 -26.734641
23.414253 -93.081345 -26.77212
24.052402 -93.192737 -25.501297
23.693276 -94.255817 -26.064684
21.439557 -84.734882 -29.779636
22.137039 -85.075603 -28.707016
21.808131 -86.211822 -29.333967
21.439557 -84.734882 -29.779636
20.71844 -84.300793 -30.80442
12.52148 -89.467343 -37.656324
12.807261 -91.095494 -37.269768
13.599353 -89.128598 -37.101673
12.52148 -89.467343 -37.656324
14.539492 -88.615269 -36.551394
14.753407 -90.113961 -36.261679
13.599353 -89.128598 -37.101673
15.40297 -88.048989 -36.017513
14.539492 -88.615269 -36.551394
16.182366 -87.365333 -35.457779
16.472942 -88.916977 -35.151664
15.40297 -88.048989 -36.017513
16.895813 -86.679203 -34.922084
16.182366 -87.365333 -35.457779
15.825841 -85.811215 -35.787933
17.551168 -85.874855 -34.339441
17.907694 -87.428974 -34.009287
16.895813 -86.679203 -34.922084
18.161454 -85.00803 -33.779949
17.551168 -85.874855 -34.339441
19.033395 -85.673199 -32.896394
18.161454 -85.00803 -33.779949
3 0 32 34
3 32 10 33
3 32 33 34
3 0 12 10
3 1 15 13
3 2 18 16
3 2 20 18
3 35 23 36
3 37 36 21
3 35 36 37
3 4 24 9
3 4 25 24
3 5 38 40
3 38 39 40
3 5 41 43
3 41 42 43
3 5 44 45
3 6 46 48
3 48 47 11
3 46 47 48
3 6 49 50
3 7 51 53
3 53 52 14
3 51 52 53
3 7 54 56
3 54 26 55
3 54 55 56
3 3 27 22
3 8 28 17
3 8 29 28
3 8 30 29
3 57 31 58
3 59 58 19
3 57 58 59
3 61 60 31
3 62 9 63
3 64 9 65
3 66 4 67
3 68 67 9
3 66 67 68
3 10 69 70
3 10 71 73
3 71 5 72
3 71 72 73
3 10 11 5
3 12 11 10
3 12 6 11
3 13 74 76
3 74 14 75
3 74 75 76
3 15 14 13
3 15 7 14
3 16 17 3
3 18 17 16
3 18 8 17
3 18 19 8
3 20 19 18
3 20 77 79
3 79 78 19
3 77 78 79
3 80 0 81
3 21 22 1
3 23 22 21
3 23 3 22
3 9 82 84
3 82 23 83
3 82 83 84
3 24 23 9
3 24 3 23
3 24 16 3
3 25 16 24
3 25 2 16
3 11 85 87
3 87 86 5
3 85 86 87
3 89 88 11
3 90 13 91
3 92 13 93
3 94 1 95
3 96 95 13
3 94 95 96
3 97 1 98
3 99 21 100
3 101 100 1
3 99 100 101
3 102 21 103
3 105 104 21
3 14 106 107
3 109 108 14
3 26 110 111
3 26 112 114
3 112 0 113
3 112 113 114
3 22 15 1
3 27 15 22
3 27 7 15
3 17 27 3
3 28 27 17
3 28 7 27
3 28 26 7
3 29 26 28
3 29 0 26
3 29 12 0
3 30 12 29
3 30 6 12
3 19 30 8
3 31 30 19
3 31 6 30
3 31 115 117
3 117 116 6
3 115 116 117
3 119 118 31
3 120 4 121
3 122 4 123
3 124 25 125
3 126 125 4
3 124 125 126
3 127 25 128
3 129 2 130
3 131 130 25
3 129 130 131
3 132 2 133
3 132 133 134
3 135 20 136
3 137 136 2
3 135 136 137
3 138 20 139
3 141 140 20
