ply
format ascii 1.0
element vertex 238
property float x
property float y
property float z
element face 244
property list uchar int vertex_index
end_header
-32.110786 49.336823 27.60648
-30.604511 41.035095 46.523788
-31.144028 29.094894 41.355465
-31.275871 45.42873 37.081123
-30.919729 20.844721 42.795479
-30.868536 26.910898 45.606598
-30.534985 48.803738 43.921673
-30.974688 43.130459 41.740952
-30.930428 51.026707 38.860455
-31.235579 52.902145 33.734478
-32.258957 41.879307 30.228645
-30.64164 32.730015 48.698032
-31.375313 23.199833 38.564407
-31.591516 31.403679 37.03791
-30.940042 35.093159 44.132442
-31.262018 37.241623 39.496414
-31.682726 39.552341 34.888474
-31.651876 47.329689 32.205891
-30.756783 25.594091 47.979691
-30.754038 50.083042 41.319389
-32.212242 45.657539 28.884216
-31.046383 24.848791 42.076183
-31.111485 22.060658 40.704006
-31.250948 26.045889 39.917747
-31.509932 27.340841 37.797642
-31.348755 30.153255 39.154491
-30.624269 36.903191 47.701405
-30.792318 34.024994 46.470711
-30.796213 38.041164 45.445011
-31.124537 44.235855 39.430756
-31.119854 40.030144 40.717213
-31.287228 41.248238 38.328445
-31.461706 38.376995 37.142979
-31.468733 42.625359 35.930481
-31.677975 43.663902 33.586361
-31.453503 46.433842 34.611515
-31.387239 53.71064 31.294176
-32.031837 52.736549 26.082054
-30.897379 23.833021 44.286518
-30.988056 27.832216 43.474571
-30.57863 44.95282 45.267578
-30.801857 41.921921 44.207596
-30.788445 45.931103 42.86644
-30.959391 47.178715 40.372665
-31.119625 48.164509 37.88636
-31.271704 49.226429 35.383808
-31.093502 51.732876 36.368553
-32.261749 38.046082 31.517256
-30.661253 28.469574 49.408218
-30.472527 31.418575 50.808609
-30.402103 35.630348 50.058578
-30.356575 39.549503 49.0131
-30.302254 43.75507 47.755997
-30.236885 47.867188 46.365093
-31.215443 19.151419 39.165947
-31.547438 20.14679 37.111942
-31.700987 24.276085 36.486202
-31.809629 28.477978 35.766239
-31.894363 32.796921 34.808094
-30.784374 29.663124 47.270302
-30.906649 31.066296 45.05658
-31.040424 31.962505 42.87785
-30.957283 39.168102 43.082153
-31.084352 36.185764 41.904167
-31.205654 33.246494 40.603092
-31.399281 34.236263 38.425388
-31.635096 35.365059 36.199364
-31.937729 36.577038 33.814903
-31.94072 40.614891 32.65659
-31.93811 44.413944 31.236496
-31.865152 48.274704 29.925936
-31.431887 50.128475 32.964046
-31.604511 50.973763 30.662052
-31.79862 51.830822 28.39319
-30.706816 25.043991 49.056256
-30.7386 23.527582 48.215986
-32.31156 48.06976 27.117379
-32.362288 46.230117 27.756246
-32.161514 47.497181 28.245348
-32.165763 53.222806 24.933212
-31.981874 54.340311 25.363084
-30.882957 25.371959 44.946558
-30.846965 23.302218 45.332897
-30.832543 24.841157 45.992937
-32.45022 40.467501 29.749683
-32.451616 38.550888 30.393988
-32.260353 39.962694 30.872951
-30.36437 30.681553 51.949494
-30.491154 29.355244 51.224052
-30.214727 37.010345 50.747398
-30.285445 34.889242 51.132946
-30.191963 38.969923 50.224659
-30.379339 37.589925 49.535839
-30.214727 37.010345 50.747398
-30.090302 45.137921 48.280894
-30.125903 43.087704 48.992316
-30.057618 47.193979 47.585442
-30.26957 45.811129 47.060545
-30.090302 45.137921 48.280894
-30.948813 19.484559 41.928538
-30.856804 18.783314 42.896862
-31.578581 52.715986 29.804892
-31.495875 52.342202 30.978114
-31.469946 54.084425 30.120953
-31.675636 53.144516 28.670461
-31.701566 51.402293 29.527621
-31.578581 52.715986 29.804892
-31.767203 53.464968 27.581527
-31.675636 53.144516 28.670461
-30.776667 24.182753 47.179484
-30.7386 23.527582 48.215986
-30.812659 26.252494 46.793144
-30.832543 24.841157 45.992937
-30.776667 24.182753 47.179484
-30.615006 51.491833 41.811169
-30.644512 49.44339 42.620531
-30.505479 50.852181 43.11231
-30.730101 52.097479 40.474468
-30.615006 51.491833 41.811169
-30.818296 52.569311 39.245001
-30.842233 50.554874 40.089922
-30.730101 52.097479 40.474468
-30.916007 52.9257 37.938971
-30.818296 52.569311 39.245001
-32.405974 44.310782 28.428916
-32.429331 42.421666 29.101131
-32.2356 43.768423 29.55643
-32.405974 44.310782 28.428916
-32.362288 46.230117 27.756246
-31.292847 55.038143 31.596018
-31.311409 53.306393 32.514327
-31.217016 54.633895 32.816169
-31.359787 55.449696 30.410859
-31.292847 55.038143 31.596018
-31.469946 54.084425 30.120953
-31.359787 55.449696 30.410859
-32.217876 51.549438 25.673099
-32.257351 49.849576 26.435312
-32.071312 51.036686 26.844267
-32.217876 51.549438 25.673099
-32.165763 53.222806 24.933212
-30.859158 20.329192 43.783026
-30.856804 18.783314 42.896862
-30.847983 21.823341 44.528545
-30.846965 23.302218 45.332897
-30.908554 22.338871 43.540999
-30.859158 20.329192 43.783026
-30.847983 21.823341 44.528545
-30.997543 53.278784 36.69302
-31.011965 51.379791 37.614504
-30.916007 52.9257 37.938971
-31.073279 53.677643 35.415396
-30.997543 53.278784 36.69302
-31.144317 54.262277 34.098358
-31.164541 52.31751 35.051516
-31.073279 53.677643 35.415396
-31.125754 55.994028 33.180049
-31.217016 54.633895 32.816169
-31.144317 54.262277 34.098358
-32.459806 36.521536 30.964327
-32.254559 35.940787 32.076324
-32.459806 36.521536 30.964327
-32.451616 38.550888 30.393988
-32.45022 40.467501 29.749683
-32.429331 42.421666 29.101131
-32.31156 48.06976 27.117379
-32.257351 49.849576 26.435312
-30.585517 27.880743 50.523857
-30.659051 26.481732 49.770519
-30.56689 29.944074 50.108413
-30.585517 27.880743 50.523857
-30.491154 29.355244 51.224052
-30.320657 32.783355 51.507961
-30.36437 30.681553 51.949494
-30.437315 33.524462 50.433594
-30.320657 32.783355 51.507961
-30.285445 34.889242 51.132946
-30.153064 40.984921 49.620867
-30.191963 38.969923 50.224659
-30.329414 41.652287 48.384549
-30.153064 40.984921 49.620867
-30.125903 43.087704 48.992316
-30.014899 49.260987 46.785999
-30.057618 47.193979 47.585442
-29.835632 48.587778 48.006348
-30.202214 49.838995 45.595787
-30.014899 49.260987 46.785999
-30.351264 50.30727 44.374077
-30.385935 48.335463 45.143383
-30.202214 49.838995 45.595787
-30.505479 50.852181 43.11231
-30.351264 50.30727 44.374077
-31.044691 20.092527 40.882801
-30.948813 19.484559 41.928538
-31.015607 21.452689 41.749742
-31.096671 18.637908 40.113771
-31.044691 20.092527 40.882801
-31.163464 20.606039 39.934977
-31.122746 17.087649 39.38924
-31.096671 18.637908 40.113771
-31.274864 17.598149 38.470995
-31.122746 17.087649 39.38924
-31.440862 18.095835 37.443993
-31.274864 17.598149 38.470995
-31.381441 19.649104 38.138945
-31.646977 18.759109 36.453176
-31.440862 18.095835 37.443993
-31.736752 20.827925 36.165722
-31.646977 18.759109 36.453176
-31.813526 22.892572 35.852851
-31.736752 20.827925 36.165722
-31.624212 22.211437 36.799072
-31.897652 24.927883 35.447258
-31.813526 22.892572 35.852851
-31.951974 27.02883 35.087277
-31.897652 24.927883 35.447258
-31.755308 26.377032 36.126221
-31.994727 29.006503 34.719743
-31.951974 27.02883 35.087277
-32.037094 31.165974 34.240671
-31.994727 29.006503 34.719743
-31.851996 30.637449 35.287166
-32.070865 33.316206 33.721742
-32.037094 31.165974 34.240671
-30.709018 27.031833 48.693955
-30.706816 25.043991 49.056256
-30.659051 26.481732 49.770519
-32.092548 35.206265 33.225147
-32.070865 33.316206 33.721742
-31.916046 34.686979 34.311498
-32.099739 37.31156 32.66608
-32.254559 35.940787 32.076324
-32.092548 35.206265 33.225147
-31.883812 53.917831 26.425959
-31.915229 52.283685 27.237622
-31.767203 53.464968 27.581527
-31.981874 54.340311 25.363084
-31.883812 53.917831 26.425959
3 74 18 75
3 0 76 78
3 78 77 20
3 76 77 78
3 2 23 21
3 2 25 23
3 1 28 26
3 3 31 29
3 3 33 31
3 3 35 33
3 80 79 37
3 5 81 83
3 81 38 82
3 81 82 83
3 5 39 38
3 6 42 40
3 8 43 19
3 8 44 43
3 8 46 44
3 10 84 86
3 86 85 47
3 84 85 86
3 87 49 88
3 89 50 90
3 91 51 92
3 93 92 50
3 91 92 93
3 94 52 95
3 96 53 97
3 98 97 52
3 96 97 98
3 4 99 100
3 12 54 22
3 12 55 54
3 12 56 55
3 13 57 24
3 13 58 57
3 11 59 48
3 14 60 27
3 14 61 60
3 7 62 41
3 15 63 30
3 15 64 63
3 15 65 64
3 16 66 32
3 16 67 66
3 16 68 67
3 17 69 34
3 17 70 69
3 9 71 45
3 101 72 102
3 103 102 36
3 101 102 103
3 104 73 105
3 106 105 72
3 104 105 106
3 108 107 73
3 18 109 110
3 18 111 113
3 111 5 112
3 111 112 113
3 114 19 115
3 116 115 6
3 114 115 116
3 117 19 118
3 119 8 120
3 121 120 19
3 119 120 121
3 123 122 8
3 20 124 126
3 126 125 10
3 124 125 126
3 128 127 20
3 21 22 4
3 23 22 21
3 23 12 22
3 23 24 12
3 25 24 23
3 25 13 24
3 26 27 11
3 28 27 26
3 28 14 27
3 29 30 7
3 31 30 29
3 31 15 30
3 31 32 15
3 33 32 31
3 33 16 32
3 33 34 16
3 35 34 33
3 35 17 34
3 129 36 130
3 131 130 9
3 129 130 131
3 132 36 133
3 135 134 36
3 37 136 138
3 138 137 0
3 136 137 138
3 140 139 37
3 141 4 142
3 38 143 144
3 38 145 147
3 145 4 146
3 145 146 147
3 38 21 4
3 39 21 38
3 39 2 21
3 40 41 1
3 42 41 40
3 42 7 41
3 19 42 6
3 43 42 19
3 43 7 42
3 43 29 7
3 44 29 43
3 44 3 29
3 44 45 3
3 46 45 44
3 46 9 45
3 148 46 149
3 150 149 8
3 148 149 150
3 151 46 152
3 153 9 154
3 155 154 46
3 153 154 155
3 158 157 9
3 156 157 158
3 47 159 160
3 162 161 47
3 164 163 10
3 166 165 0
3 167 48 168
3 49 169 171
3 169 48 170
3 169 170 171
3 49 11 48
3 172 49 173
3 50 174 176
3 174 49 175
3 174 175 176
3 50 11 49
3 50 26 11
3 51 26 50
3 51 1 26
3 177 51 178
3 52 179 181
3 179 51 180
3 179 180 181
3 52 1 51
3 52 40 1
3 53 40 52
3 53 6 40
3 182 53 183
3 182 183 184
3 185 53 186
3 187 6 188
3 189 188 53
3 187 188 189
3 191 190 6
3 22 192 194
3 194 193 4
3 192 193 194
3 54 195 197
3 197 196 22
3 195 196 197
3 54 198 199
3 54 200 201
3 55 202 204
3 204 203 54
3 202 203 204
3 55 205 206
3 55 207 208
3 56 209 211
3 211 210 55
3 209 210 211
3 56 212 213
3 24 56 12
3 57 56 24
3 57 214 216
3 216 215 56
3 214 215 216
3 57 217 218
3 58 219 221
3 221 220 57
3 219 220 221
3 58 222 223
3 48 224 226
3 224 18 225
3 224 225 226
3 59 18 48
3 59 5 18
3 27 59 11
3 60 59 27
3 60 5 59
3 60 39 5
3 61 39 60
3 61 2 39
3 41 28 1
3 62 28 41
3 62 14 28
3 30 62 7
3 63 62 30
3 63 14 62
3 63 61 14
3 64 61 63
3 64 2 61
3 64 25 2
3 65 25 64
3 65 13 25
3 32 65 15
3 66 65 32
3 66 13 65
3 66 58 13
3 67 58 66
3 67 227 229
3 229 228 58
3 227 228 229
3 67 230 232
3 230 47 231
3 230 231 232
3 68 47 67
3 68 10 47
3 34 68 16
3 69 68 34
3 69 10 68
3 69 20 10
3 70 20 69
3 70 0 20
3 45 35 3
3 71 35 45
3 71 17 35
3 36 71 9
3 72 71 36
3 72 17 71
3 72 70 17
3 73 70 72
3 73 0 70
3 73 37 0
3 233 37 234
3 235 234 73
3 233 234 235
3 237 236 37
