ply
format ascii 1.0
element vertex 186
property float x
property float y
property float z
element face 173
property list uchar int vertex_index
end_header
-24.928791 99.192078 -35.163021
-27.055216 100.734612 -22.803242
-30.697407 90.228012 -31.624605
-26.190983 100.515488 -29.119143
-28.902172 96.306625 -27.53759
-28.199165 95.342072 -33.6035
-29.904785 89.053482 -37.215813
-26.991142 93.517403 -39.120998
-23.249777 96.923592 -40.110111
-31.039124 90.894226 -25.287542
-23.777267 101.570938 -32.816078
-24.47732 102.228279 -29.776485
-25.623453 100.024551 -32.15765
-27.228264 98.114716 -31.419777
-26.630388 97.501846 -34.455513
-27.635059 94.608315 -36.446823
-25.975426 96.5373 -37.254829
-31.981379 87.611122 -20.553274
-25.628262 102.612305 -23.419018
-28.267782 98.697502 -21.573591
-29.850863 93.454826 -29.419441
-30.048615 93.733665 -26.372389
-30.907759 90.682816 -28.455841
-31.899035 87.508064 -27.225965
-31.665115 87.548599 -30.278858
-31.489246 86.859924 -33.18557
-22.311386 95.365593 -42.255848
-24.555365 93.867325 -41.886459
-23.243948 104.119331 -27.112719
-24.972294 102.677475 -26.673868
-26.589895 100.807762 -26.142269
-28.041761 98.617287 -25.154776
-27.64246 98.558647 -28.34086
-28.647842 95.876663 -30.518625
-29.588701 92.863602 -32.506279
-30.313948 89.881638 -34.451759
-29.112518 92.387794 -35.36607
-28.527514 91.650818 -38.057587
-24.138033 98.190254 -37.751072
-29.216799 96.265114 -24.221106
-30.211882 93.756058 -23.0026
-31.145891 90.801819 -21.978172
-31.933914 87.771843 -24.080988
-25.256083 95.369896 -39.691845
-26.362024 92.229599 -41.334232
-31.608293 89.000732 -19.504641
-32.008151 87.328609 -18.819032
-31.635065 88.71822 -17.770398
-26.579391 101.583485 -21.36113
-25.865913 102.522332 -21.669018
-26.341739 101.673459 -23.11113
-27.216915 100.638157 -21.052613
-26.579391 101.583485 -21.36113
-27.661499 99.716057 -22.188417
-27.823197 99.619602 -20.437787
-27.216915 100.638157 -21.052613
-22.909141 93.834805 -43.094309
-21.822094 94.413952 -43.238381
-22.917081 103.858722 -28.641241
-22.258102 104.623253 -27.46288
-27.512696 91.886314 -39.829416
-28.280882 90.953022 -39.29771
-27.759328 92.584111 -38.589292
-32.31817 85.911869 -26.540463
-32.248662 85.908851 -28.058324
-30.487874 87.742538 -36.630696
-30.692456 88.156616 -35.248669
-30.109367 89.46756 -35.833786
-25.962353 91.435108 -42.414129
-25.458695 93.048462 -41.610346
-25.059024 92.253971 -42.690242
-26.775725 90.614632 -42.093699
-25.962353 91.435108 -42.414129
-24.127294 101.899608 -31.296281
-23.533767 102.913196 -29.973125
-23.18374 102.584526 -31.492921
-32.372591 85.87194 -19.814737
-32.008151 87.328609 -18.819032
-32.363622 86.029133 -21.549307
-32.754834 84.289952 -20.810771
-32.372591 85.87194 -19.814737
-25.058127 103.409054 -22.019956
-24.784217 103.440933 -23.643912
-25.058127 103.409054 -22.019956
-25.865913 102.522332 -21.669018
-28.406489 98.493675 -19.942287
-27.823197 99.619602 -20.437787
-28.850866 97.383732 -21.157719
-28.406489 98.493675 -19.942287
-32.131702 85.929119 -29.584771
-32.248662 85.908851 -28.058324
-31.782075 87.528332 -28.752412
-32.059799 85.668858 -31.078457
-32.131702 85.929119 -29.584771
-31.971865 85.32452 -32.531813
-32.059799 85.668858 -31.078457
-31.577181 87.204262 -31.732214
-31.81131 85.109562 -34.018433
-31.971865 85.32452 -32.531813
-30.301695 87.103852 -38.029165
-29.661485 88.501358 -38.488928
-24.031131 93.08567 -42.909615
-23.433375 94.616459 -42.071154
-22.909141 93.834805 -43.094309
-25.059024 92.253971 -42.690242
-24.031131 93.08567 -42.909615
-22.615779 104.820091 -25.847502
-22.258102 104.623253 -27.46288
-23.59206 104.194446 -25.490763
-22.963891 104.895207 -24.225546
-22.615779 104.820091 -25.847502
-23.860634 103.173805 -28.444602
-22.917081 103.858722 -28.641241
-23.533767 102.913196 -29.973125
-24.456233 103.473518 -25.271338
-23.59206 104.194446 -25.490763
-24.108121 103.398403 -26.893293
-25.300278 102.64489 -25.046443
-24.784217 103.440933 -23.643912
-24.456233 103.473518 -25.271338
-28.97285 89.800026 -38.909815
-29.661485 88.501358 -38.488928
-29.21615 90.35215 -37.6367
-28.97285 89.800026 -38.909815
-28.280882 90.953022 -39.29771
-22.711062 102.226295 -32.951732
-23.18374 102.584526 -31.492921
-23.325637 101.141296 -34.208248
-22.711062 102.226295 -32.951732
-23.9014 99.951866 -35.38172
-24.353029 100.381508 -33.989549
-23.325637 101.141296 -34.208248
-23.50602 99.450954 -36.675745
-24.533412 98.691166 -36.457047
-23.9014 99.951866 -35.38172
-23.060519 98.838386 -37.958158
-23.50602 99.450954 -36.675745
-22.616391 98.205056 -39.137678
-23.693905 97.556923 -38.930592
-23.060519 98.838386 -37.958158
-22.124525 97.517879 -40.233587
-22.616391 98.205056 -39.137678
-21.65533 96.73888 -41.306455
-22.780582 96.144593 -41.18298
-22.124525 97.517879 -40.233587
-21.228603 95.780384 -42.389418
-21.65533 96.73888 -41.306455
-21.822094 94.413952 -43.238381
-21.228603 95.780384 -42.389418
-29.325375 96.167538 -22.481476
-28.850866 97.383732 -21.157719
-28.742291 97.481308 -22.897348
-29.822916 94.91301 -21.872223
-29.325375 96.167538 -22.481476
-29.71434 95.010586 -23.611853
-30.319375 93.494476 -21.249491
-29.930408 94.651429 -20.119114
-29.822916 94.91301 -21.872223
-30.786379 92.017357 -20.737277
-30.319375 93.494476 -21.249491
-30.678886 92.278938 -22.490386
-31.190549 90.596081 -20.21709
-30.786379 92.017357 -20.737277
-31.563635 89.20647 -21.265723
-31.608293 89.000732 -19.504641
-31.190549 90.596081 -20.21709
-32.339889 86.109493 -23.313164
-32.363622 86.029133 -21.549307
-31.957647 87.691483 -22.317131
-32.33561 86.043758 -24.967975
-31.916474 87.639954 -25.653477
-32.31817 85.911869 -26.540463
-32.339889 86.109493 -23.313164
-32.33561 86.043758 -24.967975
-31.280105 86.645759 -34.615574
-30.901597 88.370781 -33.818664
-30.692456 88.156616 -35.248669
-31.81131 85.109562 -34.018433
-31.280105 86.645759 -34.615574
-30.487874 87.742538 -36.630696
-30.301695 87.103852 -38.029165
-27.198137 91.242413 -40.936033
-27.512696 91.886314 -39.829416
-26.676583 92.873501 -40.227615
-27.198137 91.242413 -40.936033
-26.775725 90.614632 -42.093699
3 0 12 10
3 0 14 12
3 0 16 14
3 45 17 46
3 45 46 47
3 1 48 50
3 50 49 18
3 48 49 50
3 1 51 52
3 1 53 55
3 53 19 54
3 53 54 55
3 2 22 20
3 2 24 22
3 2 25 24
3 57 56 26
3 58 28 59
3 3 29 11
3 3 30 29
3 3 32 30
3 5 33 13
3 5 34 33
3 5 36 34
3 7 37 15
3 7 60 62
3 62 61 37
3 60 61 62
3 4 39 31
3 9 40 21
3 9 41 40
3 9 42 41
3 64 63 23
3 6 65 67
3 67 66 35
3 65 66 67
3 8 43 38
3 68 44 69
3 70 69 27
3 68 69 70
3 72 71 44
3 10 73 75
3 73 11 74
3 73 74 75
3 12 11 10
3 12 3 11
3 12 13 3
3 14 13 12
3 14 5 13
3 14 15 5
3 16 15 14
3 16 7 15
3 17 76 77
3 17 78 80
3 78 79 80
3 18 81 82
3 84 83 18
3 19 85 86
3 19 87 88
3 20 21 4
3 22 21 20
3 22 9 21
3 22 23 9
3 24 23 22
3 24 89 91
3 91 90 23
3 89 90 91
3 24 92 93
3 25 94 96
3 96 95 24
3 94 95 96
3 25 97 98
3 100 99 6
3 26 27 8
3 101 27 102
3 103 102 26
3 101 102 103
3 105 104 27
3 28 106 107
3 28 108 110
3 108 109 110
3 11 111 113
3 111 28 112
3 111 112 113
3 29 28 11
3 29 114 116
3 116 115 28
3 114 115 116
3 29 117 119
3 117 18 118
3 117 118 119
3 30 18 29
3 30 1 18
3 30 31 1
3 32 31 30
3 32 4 31
3 13 32 3
3 33 32 13
3 33 4 32
3 33 20 4
3 34 20 33
3 34 2 20
3 34 35 2
3 36 35 34
3 36 6 35
3 15 36 5
3 37 36 15
3 37 6 36
3 37 120 122
3 122 121 6
3 120 121 122
3 124 123 37
3 125 10 126
3 127 10 128
3 129 0 130
3 131 130 10
3 129 130 131
3 132 38 133
3 134 133 0
3 132 133 134
3 135 38 136
3 137 8 138
3 139 138 38
3 137 138 139
3 140 8 141
3 142 26 143
3 144 143 8
3 142 143 144
3 145 26 146
3 148 147 26
3 31 19 1
3 39 19 31
3 39 149 151
3 151 150 19
3 149 150 151
3 21 39 4
3 40 39 21
3 40 152 154
3 154 153 39
3 152 153 154
3 40 155 157
3 155 156 157
3 41 158 160
3 160 159 40
3 158 159 160
3 41 161 162
3 41 163 165
3 163 17 164
3 163 164 165
3 42 17 41
3 42 166 168
3 168 167 17
3 166 167 168
3 23 42 9
3 169 42 170
3 171 170 23
3 169 170 171
3 173 172 42
3 35 25 2
3 174 25 175
3 176 175 35
3 174 175 176
3 178 177 25
3 180 179 6
3 38 16 0
3 43 16 38
3 43 7 16
3 27 43 8
3 44 43 27
3 44 7 43
3 44 181 183
3 183 182 7
3 181 182 183
3 185 184 44
