ply
format ascii 1.0
element vertex 148
property float x
property float y
property float z
element face 130
property list uchar int vertex_index
end_header
-22.689062 -102.222488 -7.022058
-26.263781 -94.329269 -7.546952
-21.205214 -101.265007 -1.768029
-25.771439 -94.566742 -2.009389
-23.406897 -102.267464 -12.568782
-24.010569 -98.46051 -1.662234
-25.044569 -98.726006 -7.184369
-18.421757 -101.107574 0.619922
-19.554323 -102.063538 -1.80112
-20.243376 -100.420372 0.829783
-21.186342 -103.427094 -6.931154
-21.68548 -103.803703 -9.610712
-22.033255 -103.89473 -12.468111
-23.139887 -102.391327 -9.823745
-23.276196 -98.011917 1.052763
-26.073423 -94.594521 -4.773139
-25.471464 -96.840736 -4.737193
-25.782484 -96.629456 -7.243268
-25.283627 -98.558075 -9.878201
-18.676989 -103.572578 -4.404124
-20.44521 -102.925484 -4.472763
-22.00038 -101.789894 -4.157516
-26.434809 -92.16671 -5.064223
-21.893049 -99.42054 0.882389
-22.765472 -99.998917 -1.706917
-23.446198 -100.485535 -4.494142
-25.002867 -96.721954 -1.862615
-24.646084 -98.668343 -4.506105
-24.014097 -100.597565 -7.077854
-24.351067 -100.60968 -9.838076
-19.748536 -99.904873 2.066619
-19.332566 -100.763973 0.724853
-18.837727 -100.248474 1.961688
-18.837727 -100.248474 1.961688
-17.894177 -100.50145 1.826105
-26.087149 -95.365032 -8.733934
-25.8465 -96.515126 -8.582092
-26.023133 -95.479363 -7.39511
-26.264919 -94.25061 -8.989841
-26.087149 -95.365032 -8.733934
-18.101553 -103.112262 -3.210754
-17.613254 -103.825435 -4.577616
-26.448117 -91.12754 -3.859095
-26.327656 -92.324433 -3.672309
-26.493226 -90.924084 -5.24189
-26.448117 -91.12754 -3.859095
-22.806503 -102.954231 -13.777572
-22.119681 -103.767865 -13.727237
-22.720076 -103.081097 -12.518446
-23.409356 -102.113541 -13.911948
-22.806503 -102.954231 -13.777572
-22.136932 -98.391228 2.340256
-21.411479 -98.977329 2.225116
-21.655361 -97.948017 3.682983
-25.387153 -95.644348 -1.936002
-25.149526 -95.620339 -0.549895
-25.533812 -94.542732 -0.623282
-24.882678 -99.488228 -11.186012
-25.282756 -98.449002 -11.320201
-18.98804 -101.585556 -0.590599
-18.54022 -102.357743 -1.909252
-17.973937 -101.879761 -0.698731
-17.442429 -101.265274 0.526207
-16.91485 -100.659149 1.73239
-17.894177 -100.50145 1.826105
-17.973937 -101.879761 -0.698731
-16.994609 -102.037461 -0.792446
-17.442429 -101.265274 0.526207
-20.590169 -104.17838 -8.290593
-20.272621 -103.921937 -6.990574
-20.839738 -104.366684 -9.630373
-20.590169 -104.17838 -8.290593
-21.435911 -103.615398 -8.270933
-21.117903 -104.436222 -10.867665
-20.839738 -104.366684 -9.630373
-21.859367 -103.849216 -11.039411
-21.291791 -104.481735 -12.296365
-21.117903 -104.436222 -10.867665
-23.486295 -97.02185 2.282726
-22.828505 -97.686916 2.425443
-23.864247 -97.170955 1.002499
-23.486295 -97.02185 2.282726
-24.231433 -97.395252 -0.354999
-23.643383 -98.236213 -0.304736
-23.864247 -97.170955 1.002499
-25.597072 -97.479435 -9.899559
-25.533055 -97.593766 -8.560735
-25.8465 -96.515126 -8.582092
-25.282756 -98.449002 -11.320201
-25.597072 -97.479435 -9.899559
-18.097501 -104.286857 -5.80447
-17.613254 -103.825435 -4.577616
-19.017944 -103.994678 -5.727059
-18.097501 -104.286857 -5.80447
-19.115656 -102.818058 -3.102622
-18.101553 -103.112262 -3.210754
-18.54022 -102.357743 -1.909252
-19.902055 -103.671132 -5.761378
-19.017944 -103.994678 -5.727059
-19.561099 -103.249031 -4.438443
-20.815776 -103.176289 -5.701958
-20.272621 -103.921937 -6.990574
-19.902055 -103.671132 -5.761378
-25.8356 -93.495365 -0.721833
-25.533812 -94.542732 -0.623282
-25.995971 -93.524449 -2.144892
-25.8356 -93.495365 -0.721833
-26.146963 -93.538338 -3.526767
-25.922431 -94.580632 -3.391264
-25.995971 -93.524449 -2.144892
-26.254116 -93.380616 -4.918681
-26.146963 -93.538338 -3.526767
-26.327656 -92.324433 -3.672309
-26.46615 -92.040695 -6.515498
-26.380636 -93.121974 -7.756862
-26.349295 -93.247989 -6.305587
-26.524566 -90.798069 -6.693164
-26.46615 -92.040695 -6.515498
-26.493226 -90.924084 -5.24189
-21.339565 -104.505814 -13.651346
-21.291791 -104.481735 -12.296365
-21.425992 -104.378949 -14.910472
-21.339565 -104.505814 -13.651346
-22.119681 -103.767865 -13.727237
-20.586642 -99.477246 2.198813
-19.748536 -99.904873 2.066619
-21.068213 -99.920456 0.856086
-20.586642 -99.477246 2.198813
-21.411479 -98.977329 2.225116
-22.584623 -98.716228 0.967576
-22.136932 -98.391228 2.340256
-22.828505 -97.686916 2.425443
-24.727582 -96.525974 -0.45519
-25.149526 -95.620339 -0.549895
-24.506718 -97.591232 -1.762424
-24.231433 -97.395252 -0.354999
-24.727582 -96.525974 -0.45519
-24.416398 -100.51403 -11.165949
-24.817347 -99.583877 -9.858138
-24.882678 -99.488228 -11.186012
-23.944313 -101.342923 -12.531303
-23.878982 -101.438572 -11.203429
-24.416398 -100.51403 -11.165949
-23.409356 -102.113541 -13.911948
-23.944313 -101.342923 -12.531303
-26.381773 -93.043316 -9.199751
-26.264919 -94.25061 -8.989841
-26.380636 -93.121974 -7.756862
3 30 9 31
3 32 31 7
3 30 31 32
3 33 7 34
3 0 11 10
3 0 13 11
3 1 17 15
3 1 35 37
3 37 36 17
3 35 36 37
3 1 38 39
3 40 19 41
3 2 20 8
3 2 21 20
3 42 22 43
3 45 44 22
3 4 46 48
3 48 47 12
3 46 47 48
3 4 49 50
3 51 23 52
3 51 52 53
3 5 24 14
3 5 25 24
3 3 54 56
3 54 26 55
3 54 55 56
3 6 27 16
3 6 28 27
3 6 29 28
3 58 57 18
3 7 59 61
3 59 8 60
3 59 60 61
3 9 8 7
3 9 2 8
3 7 62 64
3 62 63 64
3 7 65 67
3 65 66 67
3 10 68 69
3 11 70 72
3 72 71 10
3 70 71 72
3 11 73 74
3 11 75 77
3 75 12 76
3 75 76 77
3 13 12 11
3 13 4 12
3 78 14 79
3 80 14 81
3 82 5 83
3 84 83 14
3 82 83 84
3 15 16 3
3 17 16 15
3 17 6 16
3 17 18 6
3 85 18 86
3 87 86 17
3 85 86 87
3 89 88 18
3 19 90 91
3 19 92 93
3 8 94 96
3 94 19 95
3 94 95 96
3 20 19 8
3 20 97 99
3 99 98 19
3 97 98 99
3 20 100 102
3 100 10 101
3 100 101 102
3 21 10 20
3 21 0 10
3 103 3 104
3 105 3 106
3 107 15 108
3 109 108 3
3 107 108 109
3 22 110 112
3 110 15 111
3 110 111 112
3 22 1 15
3 22 113 115
3 115 114 1
3 113 114 115
3 118 117 22
3 116 117 118
3 12 119 120
3 123 122 12
3 121 122 123
3 124 9 125
3 23 126 128
3 126 9 127
3 126 127 128
3 23 2 9
3 14 129 131
3 129 23 130
3 129 130 131
3 24 23 14
3 24 2 23
3 24 21 2
3 25 21 24
3 25 0 21
3 26 132 133
3 26 134 136
3 134 5 135
3 134 135 136
3 16 26 3
3 27 26 16
3 27 5 26
3 27 25 5
3 28 25 27
3 28 0 25
3 28 13 0
3 29 13 28
3 29 4 13
3 18 29 6
3 137 29 138
3 139 138 18
3 137 138 139
3 140 4 141
3 142 141 29
3 140 141 142
3 144 143 4
3 147 146 1
3 145 146 147
