ply
format ascii 1.0
element vertex 291
property float x
property float y
property float z
element face 281
property list uchar int vertex_index
end_header
31.475224 31.034256 -2.273648
29.871418 38.420071 3.787259
17.993128 24.871023 -9.890773
22.841383 22.780428 -7.356618
27.097025 33.681446 -6.503922
28.686516 20.817019 -4.745104
17.843542 32.29187 -11.312805
19.956491 31.024811 -9.837499
20.195299 23.925512 -8.576906
22.465805 29.823826 -8.515133
29.964918 36.789482 -2.400556
29.441832 32.465351 -4.554312
27.885345 27.209789 -5.75702
30.521465 26.198639 -4.016378
32.962555 25.090183 -1.823469
29.191891 40.838833 0.668763
31.180286 35.166187 0.414581
33.170441 29.583319 0.37122
16.006306 33.133785 -13.100468
16.233707 26.167818 -11.553545
25.056267 28.352016 -7.230484
25.649744 21.550053 -6.135771
19.998117 34.848824 -10.518187
21.101271 33.993126 -9.788115
21.158579 30.271452 -9.147262
22.289156 33.329746 -9.106336
30.676645 33.95483 -2.428037
29.832157 34.892223 -3.563532
30.496992 31.662214 -3.477297
29.922716 29.357824 -4.388476
31.162056 28.606112 -3.270078
31.74761 25.602261 -3.006675
32.273247 27.990829 -2.074192
29.535343 39.652267 2.227862
30.185646 37.955517 0.484799
30.603271 36.957443 2.013422
31.69459 34.265141 1.931859
30.967407 35.927238 3.689492
17.892742 28.661987 -10.586285
16.917854 29.112263 -11.398066
17.047232 25.554241 -10.695632
21.493464 23.340128 -7.949327
25.883461 34.538639 -7.352156
24.926086 31.752016 -7.653121
26.183228 31.098637 -6.942495
28.272305 24.051191 -5.301985
26.826921 24.562695 -6.036682
27.151794 21.078035 -5.466533
18.894434 31.728544 -10.534172
18.920471 27.893948 -9.832981
19.040581 24.4172 -9.208545
20.140493 27.474514 -9.154814
21.340458 26.886616 -8.543849
22.615452 26.073952 -7.919016
28.899818 35.463608 -4.74452
28.282009 33.133183 -5.593186
27.585581 30.469646 -6.09158
28.779995 29.75717 -5.275954
29.274269 26.623016 -4.899852
29.714304 23.465197 -4.468679
30.167566 20.243294 -3.912253
31.086224 23.111755 -3.56686
32.475849 22.755232 -2.481858
29.739634 38.807507 -1.024694
30.599052 35.994801 -1.063262
31.432573 33.247475 -1.129291
32.363743 30.345507 -0.980085
32.100056 32.542568 0.270615
32.751022 31.640266 1.77333
16.836117 32.61171 -12.16998
16.025896 29.61937 -12.351117
23.663521 32.660614 -8.366446
23.781929 29.182272 -7.875296
24.020077 25.675276 -7.324283
26.460953 27.921152 -6.540779
25.395061 25.009134 -6.695793
24.165472 22.254913 -6.793735
33.211548 27.579367 -0.81033
21.68076 35.435325 -9.728938
21.088606 35.851867 -10.129837
22.274703 35.103635 -9.388049
21.695214 33.661436 -9.447226
21.68076 35.435325 -9.728938
29.703381 39.036169 3.007561
29.11836 40.392077 3.14178
29.286397 39.775979 3.921479
17.622235 23.518189 -9.976714
17.149287 23.859799 -10.379143
17.52018 25.212632 -10.293202
18.076727 23.18891 -9.597517
17.622235 23.518189 -9.976714
22.272208 21.386215 -7.361147
21.598248 21.666064 -7.657502
22.167423 23.060278 -7.652973
22.916168 21.08422 -7.073909
22.272208 21.386215 -7.361147
26.949812 35.349767 -6.637333
27.496744 35.061208 -6.13305
26.490243 34.110043 -6.928039
26.34303 35.778364 -7.06145
26.949812 35.349767 -6.637333
28.099559 19.373667 -4.799241
27.332198 19.504175 -5.159956
27.919155 20.947527 -5.105818
28.897699 19.10057 -4.40208
28.099559 19.373667 -4.799241
29.57804 37.251955 -3.047168
29.567395 38.304873 -2.425173
33.346495 23.634962 -1.574021
33.103141 22.467486 -1.903215
32.719202 23.922708 -2.152664
28.765311 42.137834 0.694362
28.856783 41.595085 1.505882
29.057867 41.216873 -0.11891
28.765311 42.137834 0.694362
29.465762 39.82317 -0.177965
29.331739 40.20121 -0.965639
29.057867 41.216873 -0.11891
32.439291 32.509687 2.628055
32.222806 32.952703 1.852594
31.911075 33.822125 2.70732
33.052795 31.154502 2.572526
32.439291 32.509687 2.628055
15.642327 33.360338 -13.611123
15.974594 34.798187 -13.550099
15.680982 31.679032 -13.198871
15.642327 33.360338 -13.611123
17.33983 32.45179 -11.741392
17.324338 34.205815 -12.137429
17.82805 34.045895 -11.708842
15.875361 26.349202 -12.019732
15.771456 28.074978 -12.418518
16.129801 27.893594 -11.952331
16.000357 24.64859 -11.676683
15.875361 26.349202 -12.019732
19.696109 22.426831 -8.595136
19.118749 22.672675 -8.910956
19.61794 24.171356 -8.892726
24.199218 33.9457 -8.233085
23.567701 34.398463 -8.636978
25.03594 20.126327 -6.149777
24.293804 20.478758 -6.478759
24.907608 21.902483 -6.464753
30.434832 18.6925 -3.559105
30.913113 20.105074 -3.444227
20.537029 36.279716 -10.494873
19.968257 36.606192 -10.8947
20.549694 34.420975 -10.153151
20.537029 36.279716 -10.494873
21.088606 35.851867 -10.129837
29.028509 41.001802 2.285431
29.11836 40.392077 3.14178
29.363617 40.24555 1.448313
28.856783 41.595085 1.505882
29.028509 41.001802 2.285431
31.547484 34.653173 3.586136
31.911075 33.822125 2.70732
31.330998 35.09619 2.810675
16.419138 34.764727 -13.081571
15.974594 34.798187 -13.550099
16.73087 23.99731 -10.801738
16.324107 24.304098 -11.230695
16.64047 25.86103 -11.124588
16.73087 23.99731 -10.801738
17.149287 23.859799 -10.379143
20.94482 21.88585 -7.958706
20.295738 22.178542 -8.272495
20.844381 23.63282 -8.263116
20.94482 21.88585 -7.958706
21.598248 21.666064 -7.657502
25.789458 36.329622 -7.522178
26.34303 35.778364 -7.06145
25.309188 34.884712 -7.725939
25.789458 36.329622 -7.522178
25.404774 33.145328 -7.502638
24.8305 33.4914 -7.876422
25.309188 34.884712 -7.725939
26.54476 19.613063 -5.490054
25.793735 19.849072 -5.824673
26.400769 21.314044 -5.801152
26.54476 19.613063 -5.490054
27.332198 19.504175 -5.159956
33.656828 28.166489 0.445201
33.503284 29.252928 1.073233
29.357412 39.201338 4.749108
29.286397 39.775979 3.921479
29.962805 37.931027 4.611875
29.357412 39.201338 4.749108
18.345817 33.71499 -11.281147
17.82805 34.045895 -11.708842
19.423105 34.993468 -10.883838
19.968257 36.606192 -10.8947
18.871263 33.433328 -10.891831
19.423105 34.993468 -10.883838
19.446275 33.288684 -10.526179
18.368988 32.010207 -10.923489
18.345817 33.71499 -11.281147
18.871263 33.433328 -10.891831
29.51166 36.303325 -3.628655
29.57804 37.251955 -3.047168
29.898537 35.840852 -2.982044
29.04549 36.589018 -4.21915
29.51166 36.303325 -3.628655
29.365987 35.177915 -4.154026
28.622314 37.173186 -4.795301
29.04549 36.589018 -4.21915
28.398141 35.952289 -5.253349
28.622314 37.173186 -4.795301
28.089236 34.787077 -5.677682
28.398141 35.952289 -5.253349
28.590913 34.298395 -5.168853
27.689517 33.407314 -6.048554
27.496744 35.061208 -6.13305
28.089236 34.787077 -5.677682
31.372442 21.539305 -3.27153
30.913113 20.105074 -3.444227
30.626895 21.677524 -3.739556
32.067254 21.361043 -2.729029
31.372442 21.539305 -3.27153
31.781036 22.933493 -3.024359
32.800216 21.230776 -2.183869
32.067254 21.361043 -2.729029
32.800216 21.230776 -2.183869
33.103141 22.467486 -1.903215
29.454753 39.313885 -1.737242
29.331739 40.20121 -0.965639
29.852276 37.798495 -1.712625
29.567395 38.304873 -2.425173
29.454753 39.313885 -1.737242
33.293575 30.281402 1.774288
33.503284 29.252928 1.073233
32.960731 30.611792 1.072275
33.293575 30.281402 1.774288
33.052795 31.154502 2.572526
30.5108 36.68461 4.562991
30.419412 37.173654 3.738376
29.962805 37.931027 4.611875
31.167782 35.338261 4.440302
30.5108 36.68461 4.562991
31.547484 34.653173 3.586136
31.167782 35.338261 4.440302
16.834043 34.503689 -12.616328
17.324338 34.205815 -12.137429
16.421211 32.872748 -12.635224
16.419138 34.764727 -13.081571
16.834043 34.503689 -12.616328
15.690777 29.921824 -12.824196
15.680982 31.679032 -13.198871
16.016101 31.376578 -12.725793
15.690777 29.921824 -12.824196
15.771456 28.074978 -12.418518
16.000357 24.64859 -11.676683
16.324107 24.304098 -11.230695
18.600454 22.961999 -9.256403
18.076727 23.18891 -9.597517
18.516855 24.644112 -9.549659
18.600454 22.961999 -9.256403
19.118749 22.672675 -8.910956
19.696109 22.426831 -8.595136
20.295738 22.178542 -8.272495
22.880518 34.733029 -9.006923
22.274703 35.103635 -9.388049
22.976338 32.99518 -8.736391
22.880518 34.733029 -9.006923
23.567701 34.398463 -8.636978
24.294804 32.206315 -8.009783
24.199218 33.9457 -8.233085
24.8305 33.4914 -7.876422
23.578212 20.821462 -6.792467
22.916168 21.08422 -7.073909
23.503428 22.517671 -7.075176
23.578212 20.821462 -6.792467
24.293804 20.478758 -6.478759
25.03594 20.126327 -6.149777
25.793735 19.849072 -5.824673
29.638224 18.813707 -3.985654
28.897699 19.10057 -4.40208
29.427041 20.530156 -4.328679
29.638224 18.813707 -3.985654
30.434832 18.6925 -3.559105
33.677381 27.164513 -0.145574
33.190995 28.581343 -0.219555
33.656828 28.166489 0.445201
33.633137 26.123137 -0.668704
33.677381 27.164513 -0.145574
33.50864 24.878546 -1.175274
33.087052 26.334775 -1.316899
33.633137 26.123137 -0.668704
33.89258 23.423324 -0.925825
33.346495 23.634962 -1.574021
33.50864 24.878546 -1.175274
3 78 23 79
3 80 25 81
3 82 81 23
3 80 81 82
3 0 28 26
3 0 30 28
3 0 32 30
3 1 83 85
3 83 33 84
3 83 84 85
3 1 35 33
3 1 37 35
3 2 40 38
3 2 86 88
3 88 87 40
3 86 87 88
3 2 89 90
3 3 91 93
3 93 92 41
3 91 92 93
3 3 94 95
3 4 96 97
3 4 98 100
3 98 42 99
3 98 99 100
3 4 44 42
3 5 47 45
3 5 101 103
3 103 102 47
3 101 102 103
3 5 104 105
3 7 48 22
3 7 49 48
3 7 51 49
3 9 52 24
3 9 53 52
3 10 106 107
3 11 54 27
3 11 55 54
3 11 57 55
3 13 58 29
3 13 59 58
3 13 61 59
3 14 62 31
3 14 108 110
3 110 109 62
3 108 109 110
3 15 111 112
3 15 113 114
3 15 115 117
3 115 63 116
3 115 116 117
3 16 64 34
3 16 65 64
3 16 67 65
3 118 68 119
3 120 119 36
3 118 119 120
3 122 121 68
3 18 123 124
3 18 125 126
3 6 127 129
3 127 69 128
3 127 128 129
3 19 70 39
3 19 130 132
3 132 131 70
3 130 131 132
3 19 133 134
3 8 135 137
3 137 136 50
3 135 136 137
3 138 71 139
3 20 72 43
3 20 73 72
3 12 74 56
3 21 75 46
3 21 76 75
3 21 140 142
3 142 141 76
3 140 141 142
3 144 143 60
3 17 77 66
3 145 22 146
3 23 147 149
3 147 22 148
3 147 148 149
3 23 7 22
3 23 24 7
3 25 24 23
3 25 9 24
3 26 27 10
3 28 27 26
3 28 11 27
3 28 29 11
3 30 29 28
3 30 13 29
3 30 31 13
3 32 31 30
3 32 14 31
3 33 150 151
3 33 152 154
3 152 15 153
3 152 153 154
3 33 34 15
3 35 34 33
3 35 16 34
3 35 36 16
3 37 36 35
3 37 155 157
3 157 156 36
3 155 156 157
3 158 18 159
3 38 39 6
3 40 39 38
3 40 19 39
3 40 160 162
3 162 161 19
3 160 161 162
3 164 163 40
3 41 165 167
3 167 166 8
3 165 166 167
3 169 168 41
3 42 170 171
3 42 172 173
3 42 174 176
3 174 43 175
3 174 175 176
3 44 43 42
3 44 20 43
3 45 46 12
3 47 46 45
3 47 21 46
3 47 177 179
3 179 178 21
3 177 178 179
3 181 180 47
3 183 182 17
3 184 1 185
3 187 186 1
3 188 6 189
3 22 190 191
3 48 192 194
3 194 193 22
3 192 193 194
3 48 195 197
3 195 6 196
3 195 196 197
3 48 38 6
3 49 38 48
3 49 2 38
3 49 50 2
3 51 50 49
3 51 8 50
3 24 51 7
3 52 51 24
3 52 8 51
3 52 41 8
3 53 41 52
3 53 3 41
3 27 198 200
3 200 199 10
3 198 199 200
3 54 201 203
3 203 202 27
3 201 202 203
3 54 204 205
3 54 206 207
3 55 208 210
3 210 209 54
3 208 209 210
3 55 211 213
3 211 4 212
3 211 212 213
3 55 56 4
3 57 56 55
3 57 12 56
3 29 57 11
3 58 57 29
3 58 12 57
3 58 45 12
3 59 45 58
3 59 5 45
3 59 60 5
3 61 60 59
3 61 214 216
3 216 215 60
3 214 215 216
3 31 61 13
3 62 61 31
3 62 217 219
3 219 218 61
3 217 218 219
3 62 220 221
3 223 222 62
3 63 224 225
3 63 226 228
3 226 10 227
3 226 227 228
3 34 63 15
3 64 63 34
3 64 10 63
3 64 26 10
3 65 26 64
3 65 0 26
3 65 66 0
3 67 66 65
3 67 17 66
3 36 67 16
3 68 67 36
3 68 17 67
3 68 229 231
3 231 230 17
3 229 230 231
3 233 232 68
3 234 37 235
3 236 235 1
3 234 235 236
3 237 37 238
3 240 239 37
3 69 241 242
3 69 243 245
3 243 18 244
3 243 244 245
3 39 69 6
3 70 69 39
3 70 18 69
3 70 246 248
3 248 247 18
3 246 247 248
3 250 249 70
3 252 251 19
3 50 253 255
3 255 254 2
3 253 254 255
3 257 256 50
3 259 258 8
3 260 25 261
3 71 262 264
3 262 25 263
3 262 263 264
3 71 9 25
3 43 265 267
3 265 71 266
3 265 266 267
3 72 71 43
3 72 9 71
3 72 53 9
3 73 53 72
3 73 3 53
3 56 44 4
3 74 44 56
3 74 20 44
3 46 74 12
3 75 74 46
3 75 20 74
3 75 73 20
3 76 73 75
3 76 3 73
3 76 268 270
3 270 269 3
3 268 269 270
3 272 271 76
3 274 273 21
3 60 275 277
3 277 276 5
3 275 276 277
3 279 278 60
3 66 32 0
3 77 32 66
3 77 14 32
3 280 77 281
3 282 281 17
3 280 281 282
3 283 77 284
3 285 14 286
3 287 286 77
3 285 286 287
3 290 289 14
3 288 289 290
