ply
format ascii 1.0
element vertex 263
property float x
property float y
property float z
element face 264
property list uchar int vertex_index
end_header
-13.444104 -5.583815 53.716228
-5.975513 -8.720084 60.081825
-13.965147 -18.084496 52.286285
-10.345112 -26.697042 52.281174
-17.074604 -9.923631 50.445908
-10.279991 -13.33072 57.117859
-15.32816 -7.635264 52.20636
-16.645546 -3.842841 50.318901
-9.762907 -7.400892 57.115112
-8.182179 -11.029363 58.768543
-11.818105 -9.552151 55.685341
-13.818842 -11.541497 53.866314
-10.469744 -19.864166 55.663662
-12.107523 -22.344778 52.59251
-4.096773 -12.471462 61.771294
-6.380361 -14.853403 60.241791
-8.608837 -17.311333 58.185379
-12.207928 -15.780277 54.97765
-15.574081 -13.885017 51.661964
-14.325812 -6.734282 53.080093
-16.005411 -5.740169 51.287971
-15.091003 -4.616881 52.005634
-11.630713 -6.550906 55.46246
-10.886035 -8.411018 56.358734
-12.593658 -7.5484 54.783222
-13.536139 -8.693867 54.050419
-12.24739 -18.970848 53.989895
-11.297018 -21.073975 54.234142
-12.923844 -20.294035 52.609669
-3.986542 -9.373013 61.497089
-2.880992 -11.201332 62.43573
-4.990967 -10.626152 60.999325
-9.206841 -12.264906 58.029545
-7.306658 -12.920019 59.532433
-8.319482 -14.156042 58.74173
-7.414637 -16.145144 59.358921
-9.389677 -15.330118 57.757591
-10.492409 -16.529173 56.557407
-11.298416 -14.481406 56.098488
-15.46633 -10.773527 52.182983
-14.723811 -12.738173 52.822937
-16.432583 -11.908026 51.018505
-17.211483 -13.021854 49.894863
-9.571186 -25.428659 54.118462
-15.563124 -17.178427 50.656006
-14.594712 -19.294655 50.958172
-16.229616 -18.452713 49.21793
-16.198978 -8.767027 51.388569
-16.996922 -6.727878 50.384911
-7.871964 -8.063481 58.645023
-7.026975 -9.891636 59.506657
-8.964153 -9.139044 57.982838
-9.976187 -10.288774 57.300949
-11.037487 -11.319578 56.466217
-12.117716 -12.490448 55.484058
-12.820098 -10.621434 54.838493
-14.546019 -9.623602 53.131271
-12.357462 -4.62617 54.486282
-14.064338 -3.649436 52.774223
-10.582122 -5.531173 56.133087
-8.795353 -20.541851 57.200836
-9.58779 -22.024218 55.80006
-10.499523 -23.123049 54.212601
-11.226239 -24.460234 52.51627
-13.630942 -21.482342 51.064339
-12.711273 -23.704336 50.960056
-11.795013 -25.95582 50.727642
-15.615915 -2.798885 51.125626
-6.181719 -11.819803 60.295216
-5.245758 -13.76646 61.060059
-9.562235 -18.559786 57.00861
-11.3589 -17.827854 55.359386
-13.08808 -16.858231 53.74276
-13.032259 -13.651428 54.489845
-13.906028 -14.769119 53.368004
-14.679273 -15.974896 52.166367
-16.379278 -15.103593 50.367199
-17.892323 -9.3943 49.517409
-17.537132 -10.390683 49.875624
-17.537132 -10.390683 49.875624
-17.216121 -11.38288 50.161923
-16.753594 -10.915828 50.732207
-9.523847 -27.173703 53.103541
-9.136883 -26.539511 54.022185
-9.958149 -26.06285 53.199818
-16.675285 -17.354366 49.120461
-15.89637 -17.81557 49.936968
-16.342039 -16.717223 49.839498
-17.138398 -4.27744 49.880093
-16.818331 -5.226104 50.364627
-16.325478 -4.791505 50.803436
-17.424178 -3.310293 49.398067
-17.91703 -3.744892 48.959259
-17.138398 -4.27744 49.880093
-12.714105 -3.648341 53.958536
-11.840616 -4.09894 54.800852
-10.952946 -4.551442 55.624254
-10.103262 -4.941841 56.382563
-11.840616 -4.09894 54.800852
-11.469792 -5.078672 55.309685
-10.952946 -4.551442 55.624254
-14.420122 -21.022479 50.26063
-14.112827 -20.388498 51.011255
-14.902007 -19.928635 50.207546
-13.006788 -24.347917 50.093914
-13.498154 -23.26755 50.140937
-12.548659 -25.473658 49.977707
-12.253143 -24.830078 50.843849
-13.006788 -24.347917 50.093914
-12.80145 -26.115498 49.128287
-12.047805 -26.597659 49.878222
-12.548659 -25.473658 49.977707
-15.184106 -2.252393 51.401331
-14.840127 -3.22416 51.949924
-14.408317 -2.677669 52.225629
-3.046733 -12.780044 62.470511
-2.438843 -12.144979 62.802729
-3.488882 -11.836397 62.103512
-3.61154 -13.392816 62.146033
-3.046733 -12.780044 62.470511
-5.360815 -15.225833 60.97855
-4.793514 -14.682361 61.387684
-5.813059 -14.309932 60.650925
-5.915353 -15.852603 60.547546
-5.360815 -15.225833 60.97855
-7.651953 -17.758992 58.948677
-7.054854 -17.175897 59.535448
-8.011737 -16.728238 58.77215
-8.125208 -18.359419 58.415209
-7.651953 -17.758992 58.948677
-9.085536 -17.93556 57.596994
-8.601907 -18.983646 57.826825
-8.125208 -18.359419 58.415209
-17.631767 -13.590342 49.223526
-17.984511 -12.551193 49.039526
-3.433767 -10.287173 61.966409
-2.413714 -10.579228 62.650242
-2.966489 -9.665069 62.180921
-17.605571 -11.939794 49.600102
-16.822033 -12.46494 50.456684
-17.216121 -11.38288 50.161923
-17.984511 -12.551193 49.039526
-17.605571 -11.939794 49.600102
-8.735301 -25.829626 54.94442
-9.152511 -24.74266 54.991835
-8.735301 -25.829626 54.94442
-9.136883 -26.539511 54.022185
-15.719459 -19.507664 49.337426
-14.902007 -19.928635 50.207546
-15.412164 -18.873684 50.088051
-16.99813 -18.021437 48.40255
-16.675285 -17.354366 49.120461
-16.483567 -19.15566 48.492691
-16.99813 -18.021437 48.40255
-15.719459 -19.507664 49.337426
-16.483567 -19.15566 48.492691
-17.027744 -8.286665 50.462988
-17.465557 -8.864968 49.991658
-16.636791 -9.345329 50.917238
-17.426716 -7.267091 49.961159
-17.027744 -8.286665 50.462988
-16.59795 -7.747452 50.88674
-17.73459 -6.235662 49.527659
-17.426716 -7.267091 49.961159
-17.314086 -5.719958 49.913098
-16.501167 -6.234023 50.836441
-16.818331 -5.226104 50.364627
-17.73459 -6.235662 49.527659
-17.314086 -5.719958 49.913098
-9.859057 -27.782336 52.230598
-10.583362 -27.450717 51.400768
-13.567543 -3.159975 53.102507
-13.2109 -4.137803 53.630252
-12.714105 -3.648341 53.958536
-14.408317 -2.677669 52.225629
-13.567543 -3.159975 53.102507
-3.425292 -8.765052 61.759607
-2.966489 -9.665069 62.180921
-4.4541 -8.520188 61.05596
-3.425292 -8.765052 61.759607
-5.448586 -8.193724 60.348327
-4.981027 -9.046549 60.789457
-4.4541 -8.520188 61.05596
-6.493818 -7.815764 59.571173
-5.448586 -8.193724 60.348327
-7.442043 -7.487462 58.852772
-6.923739 -8.391782 59.363424
-6.493818 -7.815764 59.571173
-8.338933 -7.128902 58.137985
-7.442043 -7.487462 58.852772
-7.909013 -6.552883 58.345733
-9.284405 -6.797607 57.37303
-8.817436 -7.732186 57.880068
-8.338933 -7.128902 58.137985
-9.694012 -5.862748 56.882017
-10.103262 -4.941841 56.382563
-10.172515 -6.466032 56.624099
-9.284405 -6.797607 57.37303
-9.694012 -5.862748 56.882017
-8.335055 -21.577205 57.315416
-7.865889 -20.983238 57.986662
-8.731274 -22.318388 56.615028
-8.335055 -21.577205 57.315416
-9.191572 -21.283034 56.500448
-9.160813 -23.040439 55.832634
-8.731274 -22.318388 56.615028
-9.61668 -23.589855 55.038905
-9.160813 -23.040439 55.832634
-10.043657 -22.573633 55.006331
-10.035355 -24.275854 54.165532
-9.152511 -24.74266 54.991835
-9.61668 -23.589855 55.038905
-13.957988 -22.156554 50.193079
-14.420122 -21.022479 50.26063
-13.171107 -22.593339 51.012197
-13.957988 -22.156554 50.193079
-13.498154 -23.26755 50.140937
-11.308312 -27.080106 50.624003
-10.583362 -27.450717 51.400768
-11.070063 -26.326431 51.504408
-11.308312 -27.080106 50.624003
-12.047805 -26.597659 49.878222
-17.892323 -9.3943 49.517409
-17.465557 -8.864968 49.991658
-15.960758 -1.87702 50.56036
-15.184106 -2.252393 51.401331
-16.44432 -2.311749 50.183716
-15.960758 -1.87702 50.56036
-16.789164 -1.389884 49.61845
-16.959136 -2.833728 49.780353
-16.13073 -3.320863 50.722263
-16.44432 -2.311749 50.183716
-17.424178 -3.310293 49.398067
-16.959136 -2.833728 49.780353
-1.836887 -11.499827 63.111688
-2.413714 -10.579228 62.650242
-1.836887 -11.499827 63.111688
-2.438843 -12.144979 62.802729
-4.186033 -14.040315 61.790415
-3.61154 -13.392816 62.146033
-4.671266 -13.118961 61.415677
-4.186033 -14.040315 61.790415
-4.793514 -14.682361 61.387684
-6.432491 -16.498473 60.106111
-5.915353 -15.852603 60.547546
-6.897499 -15.499273 59.800356
-6.432491 -16.498473 60.106111
-7.054854 -17.175897 59.535448
-8.218466 -19.974678 57.922938
-7.865889 -20.983238 57.986662
-9.178794 -19.550818 57.104723
-8.218466 -19.974678 57.922938
-8.601907 -18.983646 57.826825
-16.750115 -15.679806 49.695095
-16.342039 -16.717223 49.839498
-15.971201 -16.14101 50.511602
-17.215664 -14.631211 49.459694
-16.795381 -14.062724 50.131031
-17.631767 -13.590342 49.223526
-16.750115 -15.679806 49.695095
-17.215664 -14.631211 49.459694
-9.523847 -27.173703 53.103541
-9.859057 -27.782336 52.230598
3 0 21 19
3 0 24 22
3 0 19 24
3 2 28 26
3 4 77 78
3 1 31 29
3 5 34 32
3 5 36 34
3 5 38 36
3 4 41 39
3 4 79 81
3 81 80 41
3 79 80 81
3 3 82 84
3 84 83 43
3 82 83 84
3 85 46 86
3 87 86 44
3 85 86 87
3 6 48 47
3 7 88 90
3 90 89 20
3 88 89 90
3 7 91 93
3 91 92 93
3 8 51 49
3 10 52 23
3 10 53 52
3 10 55 53
3 6 56 25
3 6 47 56
3 95 94 57
3 96 59 97
3 98 57 99
3 100 99 59
3 98 99 100
3 12 61 60
3 13 62 27
3 13 63 62
3 101 64 102
3 103 102 45
3 101 102 103
3 104 65 105
3 106 66 107
3 108 107 65
3 106 107 108
3 111 110 66
3 109 110 111
3 112 67 113
3 114 113 58
3 112 113 114
3 14 115 117
3 117 116 30
3 115 116 117
3 14 118 119
3 9 68 50
3 15 69 33
3 15 120 122
3 122 121 69
3 120 121 122
3 15 123 124
3 16 125 127
3 127 126 35
3 125 126 127
3 16 128 129
3 16 130 132
3 130 70 131
3 130 131 132
3 17 71 37
3 17 72 71
3 11 73 54
3 18 74 40
3 18 75 74
3 18 76 75
3 134 133 42
3 19 20 6
3 21 20 19
3 21 7 20
3 22 23 8
3 24 23 22
3 24 10 23
3 24 25 10
3 19 25 24
3 19 6 25
3 26 27 12
3 28 27 26
3 28 13 27
3 29 135 137
3 135 30 136
3 135 136 137
3 31 30 29
3 31 14 30
3 32 33 9
3 34 33 32
3 34 15 33
3 34 35 15
3 36 35 34
3 36 16 35
3 36 37 16
3 38 37 36
3 38 17 37
3 39 40 11
3 41 40 39
3 41 18 40
3 41 42 18
3 138 42 139
3 140 139 41
3 138 139 140
3 142 141 42
3 43 143 144
3 146 145 43
3 44 45 2
3 46 45 44
3 46 147 149
3 149 148 45
3 147 148 149
3 150 46 151
3 152 46 153
3 155 154 46
3 47 156 158
3 158 157 4
3 156 157 158
3 48 159 161
3 161 160 47
3 159 160 161
3 48 162 163
3 20 48 6
3 164 48 165
3 166 165 20
3 164 165 166
3 168 167 48
3 49 50 1
3 51 50 49
3 51 9 50
3 23 51 8
3 52 51 23
3 52 9 51
3 52 32 9
3 53 32 52
3 53 5 32
3 53 54 5
3 55 54 53
3 55 11 54
3 25 55 10
3 56 55 25
3 56 11 55
3 56 39 11
3 47 39 56
3 47 4 39
3 170 169 3
3 57 58 0
3 171 58 172
3 173 172 57
3 171 172 173
3 175 174 58
3 176 29 177
3 178 29 179
3 180 1 181
3 182 181 29
3 180 181 182
3 183 1 184
3 185 49 186
3 187 186 1
3 185 186 187
3 188 49 189
3 188 189 190
3 191 8 192
3 193 192 49
3 191 192 193
3 59 194 195
3 59 196 198
3 196 8 197
3 196 197 198
3 59 22 8
3 57 22 59
3 57 0 22
3 60 199 200
3 61 201 203
3 203 202 60
3 201 202 203
3 61 204 205
3 27 61 12
3 62 61 27
3 62 206 208
3 208 207 61
3 206 207 208
3 62 209 211
3 209 43 210
3 209 210 211
3 63 43 62
3 63 3 43
3 45 28 2
3 64 28 45
3 64 13 28
3 212 64 213
3 65 214 216
3 214 64 215
3 214 215 216
3 65 13 64
3 65 63 13
3 66 63 65
3 66 3 63
3 66 217 219
3 219 218 3
3 217 218 219
3 221 220 66
3 223 222 4
3 58 21 0
3 67 21 58
3 67 7 21
3 224 67 225
3 226 67 227
3 226 227 228
3 229 7 230
3 231 230 67
3 229 230 231
3 233 232 7
3 30 234 235
3 237 236 30
3 50 31 1
3 68 31 50
3 68 14 31
3 33 68 9
3 69 68 33
3 69 14 68
3 69 238 240
3 240 239 14
3 238 239 240
3 242 241 69
3 35 243 245
3 245 244 15
3 243 244 245
3 247 246 35
3 248 60 249
3 70 250 252
3 250 60 251
3 250 251 252
3 70 12 60
3 37 70 16
3 71 70 37
3 71 12 70
3 71 26 12
3 72 26 71
3 72 2 26
3 54 38 5
3 73 38 54
3 73 17 38
3 40 73 11
3 74 73 40
3 74 17 73
3 74 72 17
3 75 72 74
3 75 2 72
3 75 44 2
3 76 44 75
3 76 253 255
3 255 254 44
3 253 254 255
3 42 76 18
3 256 76 257
3 258 257 42
3 256 257 258
3 260 259 76
3 262 261 3
