ply
format ascii 1.0
element vertex 241
property float x
property float y
property float z
element face 206
property list uchar int vertex_index
end_header
-33.328671 18.055944 -54.324146
-28.242828 21.245871 -64.30249
-36.215275 13.037577 -52.347351
-34.368629 15.029756 -57.674561
-24.44957 25.215597 -65.214546
-24.86203 21.43977 -68.166527
-28.847717 16.65897 -66.45977
-40.36562 0.200357 -43.033047
-39.123188 5.649806 -45.004761
-39.93689 1.782361 -47.414135
-27.601126 24.130507 -60.793674
-31.315235 19.804424 -59.483944
-31.949991 16.096741 -62.474487
-34.85762 15.583912 -53.507957
-35.458633 13.948095 -55.00703
-33.998215 16.588345 -56.015553
-22.740875 23.56275 -68.607918
-37.869534 9.457439 -48.770527
-38.80175 6.758472 -47.526718
-39.592838 3.867786 -46.317577
-26.357977 23.291567 -64.944374
-26.09791 24.82729 -63.032444
-27.88802 22.89959 -62.784714
-29.464836 22.044754 -60.429657
-29.883581 20.593426 -62.003124
-31.691265 18.048475 -61.213924
-30.118694 18.852757 -63.483826
-30.709639 13.811458 -65.313866
-37.398792 10.353299 -51.237289
-20.49354 27.056665 -67.222649
-22.371431 26.940001 -65.427238
-22.725697 25.414749 -67.030914
-24.613796 23.479828 -66.959877
-26.572578 21.423712 -66.431396
-28.553568 19.203978 -65.52993
-26.98864 19.125154 -67.351669
-39.814529 2.962544 -43.997623
-40.234257 0.804351 -45.17667
-40.473228 -1.316062 -46.238697
-24.131124 26.555477 -63.361824
-30.649509 21.293655 -57.88089
-32.482513 18.888277 -56.975891
-32.924576 17.417109 -58.719822
-33.335495 15.475577 -60.120365
-30.362516 16.625256 -64.631783
-34.093145 16.819928 -53.916051
-34.517889 16.199677 -52.628679
-33.753415 17.435693 -53.036773
-38.625518 7.106764 -48.758688
-38.335642 8.107956 -48.148623
-38.15941 8.456247 -49.380593
-39.042301 5.666927 -48.133076
-38.625518 7.106764 -48.758688
-36.510677 12.519846 -51.073923
-35.87994 13.769576 -51.501429
-36.807034 11.695438 -51.79232
-37.102436 11.177707 -50.518892
-36.510677 12.519846 -51.073923
-36.485169 12.092357 -53.111366
-37.076927 10.750218 -52.556335
-36.807034 11.695438 -51.79232
-35.112583 13.554319 -57.038862
-35.657585 13.013489 -55.705097
-34.913631 14.488926 -56.340795
-34.587826 13.960608 -58.237626
-35.112583 13.554319 -57.038862
-21.751562 25.3647 -67.886246
-21.609618 26.235707 -67.126781
-20.635484 26.185657 -67.982113
-40.565953 -1.15719 -42.337786
-40.406599 -0.241443 -41.837908
-40.525902 -0.908167 -43.444264
-40.565953 -1.15719 -42.337786
-38.797491 6.449523 -44.366669
-38.686268 7.002179 -45.607508
-39.223913 5.076085 -43.821737
-38.797491 6.449523 -44.366669
-39.468858 4.306175 -44.501192
-39.569584 3.732455 -43.318168
-39.223913 5.076085 -43.821737
-40.054909 0.5208 -47.935719
-40.323078 -1.028412 -47.348
-40.205059 0.23315 -46.826416
-26.583058 25.093733 -60.972115
-25.83145 25.442124 -62.091499
-26.849518 24.478898 -61.913059
-27.300787 24.654671 -59.851589
-26.583058 25.093733 -60.972115
-28.250371 23.715989 -59.597248
-27.300787 24.654671 -59.851589
-32.759233 14.695807 -61.881513
-33.451985 14.385225 -60.704453
-32.642743 15.786159 -61.297426
-31.45541 13.740336 -64.360629
-31.497828 12.379399 -64.715385
-35.201112 15.042744 -52.081732
-34.517889 16.199677 -52.628679
-35.536447 14.310745 -52.927654
-35.87994 13.769576 -51.501429
-35.201112 15.042744 -52.081732
-21.786181 23.428764 -69.324105
-21.759152 24.4387 -68.674747
-22.865418 22.406298 -69.153515
-21.786181 23.428764 -69.324105
-23.925996 21.344808 -68.932819
-23.801452 22.50126 -68.387223
-22.865418 22.406298 -69.153515
-24.943695 20.30516 -68.607525
-23.925996 21.344808 -68.932819
-40.173109 1.003462 -42.325086
-40.406599 -0.241443 -41.837908
-40.214088 0.561661 -41.129948
-38.059441 8.905995 -47.490391
-37.532017 10.221671 -48.001793
-38.525549 7.556512 -46.868487
-38.059441 8.905995 -47.490391
-38.335642 8.107956 -48.148623
-38.962469 6.204139 -46.26574
-38.686268 7.002179 -45.607508
-38.525549 7.556512 -46.868487
-39.437845 4.221584 -47.528505
-39.197294 5.313129 -46.922148
-39.042301 5.666927 -48.133076
-39.609871 3.178871 -48.076784
-39.764864 2.825074 -46.865856
-39.437845 4.221584 -47.528505
-39.75329 2.021534 -48.646239
-39.609871 3.178871 -48.076784
-29.839085 13.894433 -66.204247
-29.778678 15.235214 -65.886818
-28.908124 15.318189 -66.777198
-30.700136 12.433273 -65.606648
-29.839085 13.894433 -66.204247
-31.497828 12.379399 -64.715385
-30.700136 12.433273 -65.606648
-37.337807 10.729777 -49.285511
-37.532017 10.221671 -48.001793
-37.00029 11.494008 -48.516777
-37.634163 9.905369 -50.003908
-37.337807 10.729777 -49.285511
-37.102436 11.177707 -50.518892
-37.924039 8.904177 -50.613974
-38.15941 8.456247 -49.380593
-37.634163 9.905369 -50.003908
-37.631982 9.312234 -51.925687
-37.924039 8.904177 -50.613974
-37.631982 9.312234 -51.925687
-37.076927 10.750218 -52.556335
-36.106848 12.547616 -54.441205
-36.485169 12.092357 -53.111366
-35.836954 13.492836 -53.677191
-36.106848 12.547616 -54.441205
-35.657585 13.013489 -55.705097
-21.432485 26.998333 -66.324944
-21.383544 27.681523 -65.357692
-20.444599 27.739855 -66.255398
-22.733286 24.48875 -67.819416
-21.751562 25.3647 -67.886246
-21.759152 24.4387 -68.674747
-26.007 19.147852 -68.200096
-25.925335 20.282462 -67.759098
-24.943695 20.30516 -68.607525
-27.000909 17.9074 -67.778743
-26.007 19.147852 -68.200096
-27.930447 16.674308 -67.332794
-27.918178 17.892062 -66.90572
-27.000909 17.9074 -67.778743
-28.908124 15.318189 -66.777198
-27.930447 16.674308 -67.332794
-33.002566 18.51953 -53.386922
-33.753415 17.435693 -53.036773
-19.429384 27.778301 -67.114186
-20.444599 27.739855 -66.255398
-19.530465 27.00747 -67.936272
-19.429384 27.778301 -67.114186
-20.635484 26.185657 -67.982113
-19.530465 27.00747 -67.936272
-39.897564 2.384555 -42.807374
-39.569584 3.732455 -43.318168
-40.090075 1.58145 -43.515335
-40.173109 1.003462 -42.325086
-39.897564 2.384555 -42.807374
-40.46022 -0.60617 -44.516075
-40.525902 -0.908167 -43.444264
-40.299938 0.502354 -44.104859
-40.579706 -1.666376 -45.047089
-40.46022 -0.60617 -44.516075
-40.353742 -0.255856 -45.707684
-40.683098 -2.81541 -45.409163
-40.579706 -1.666376 -45.047089
-40.569002 -2.553079 -46.54101
-40.683098 -2.81541 -45.409163
-40.569002 -2.553079 -46.54101
-40.323078 -1.028412 -47.348
-40.054909 0.5208 -47.935719
-39.75329 2.021534 -48.646239
-32.523519 19.158658 -54.790745
-33.002566 18.51953 -53.386922
-22.20108 27.542666 -64.476648
-21.213194 28.284189 -64.407102
-21.383544 27.681523 -65.357692
-23.080927 27.350404 -63.443941
-22.20108 27.542666 -64.476648
-23.251278 26.747739 -64.394531
-23.885953 27.089022 -62.355337
-23.080927 27.350404 -63.443941
-24.848057 26.306218 -62.256189
-25.114517 25.691384 -63.197134
-25.83145 25.442124 -62.091499
-24.602887 26.839764 -61.249702
-23.885953 27.089022 -62.355337
-24.848057 26.306218 -62.256189
-29.182226 22.673112 -59.415239
-28.250371 23.715989 -59.597248
-28.532981 23.087631 -60.611666
-29.774563 22.297562 -58.140856
-29.182226 22.673112 -59.415239
-30.057173 21.669204 -59.155273
-30.392103 21.733165 -56.800892
-29.774563 22.297562 -58.140856
-31.183938 20.777514 -56.569116
-30.392103 21.733165 -56.800892
-32.10044 19.574824 -56.116617
-31.183938 20.777514 -56.569116
-31.566011 20.090966 -57.42839
-32.905592 18.47211 -55.650019
-32.523519 19.158658 -54.790745
-32.10044 19.574824 -56.116617
-34.071258 14.183519 -59.460527
-34.587826 13.960608 -58.237626
-33.852062 15.252667 -58.897463
-34.071258 14.183519 -59.460527
-33.451985 14.385225 -60.704453
-31.281848 15.147236 -64.019587
-30.536077 15.218357 -64.972825
-31.45541 13.740336 -64.360629
-32.075586 14.882978 -62.940939
-31.156253 16.360999 -63.553135
-31.281848 15.147236 -64.019587
-32.759233 14.695807 -61.881513
-32.075586 14.882978 -62.940939
3 0 45 47
3 45 13 46
3 45 46 47
3 0 15 13
3 48 18 49
3 50 49 17
3 48 49 50
3 52 51 18
3 1 22 20
3 1 24 22
3 1 26 24
3 2 53 54
3 2 55 57
3 55 28 56
3 55 56 57
3 2 58 60
3 60 59 28
3 58 59 60
3 3 61 63
3 63 62 14
3 61 62 63
3 3 64 65
3 66 31 67
3 68 67 29
3 66 67 68
3 5 32 16
3 5 33 32
3 5 35 33
3 7 69 70
3 7 71 72
3 8 73 74
3 8 75 76
3 8 77 79
3 77 36 78
3 77 78 79
3 9 37 19
3 9 38 37
3 9 80 82
3 82 81 38
3 80 81 82
3 4 39 30
3 10 83 85
3 85 84 21
3 83 84 85
3 10 86 87
3 10 88 89
3 11 40 23
3 11 41 40
3 11 42 41
3 12 43 25
3 12 90 92
3 92 91 43
3 90 91 92
3 6 44 34
3 94 93 27
3 13 95 96
3 13 97 99
3 97 2 98
3 97 98 99
3 13 14 2
3 15 14 13
3 15 3 14
3 100 16 101
3 102 16 103
3 104 5 105
3 106 105 16
3 104 105 106
3 108 107 5
3 109 7 110
3 109 110 111
3 17 112 113
3 18 114 116
3 116 115 17
3 114 115 116
3 18 117 119
3 117 8 118
3 117 118 119
3 18 19 8
3 120 19 121
3 122 121 18
3 120 121 122
3 123 9 124
3 125 124 19
3 123 124 125
3 127 126 9
3 20 21 4
3 22 21 20
3 22 10 21
3 22 23 10
3 24 23 22
3 24 11 23
3 24 25 11
3 26 25 24
3 26 12 25
3 128 27 129
3 130 129 6
3 128 129 130
3 131 27 132
3 134 133 27
3 135 17 136
3 135 136 137
3 28 138 140
3 138 17 139
3 138 139 140
3 28 141 143
3 143 142 17
3 141 142 143
3 28 144 145
3 147 146 28
3 14 148 150
3 150 149 2
3 148 149 150
3 152 151 14
3 29 153 155
3 153 30 154
3 153 154 155
3 31 30 29
3 31 4 30
3 16 156 158
3 156 31 157
3 156 157 158
3 32 31 16
3 32 4 31
3 32 20 4
3 33 20 32
3 33 1 20
3 33 34 1
3 35 34 33
3 35 6 34
3 159 35 160
3 161 160 5
3 159 160 161
3 162 35 163
3 164 6 165
3 166 165 35
3 164 165 166
3 168 167 6
3 169 0 170
3 171 29 172
3 173 29 174
3 176 175 29
3 36 177 178
3 36 179 181
3 179 7 180
3 179 180 181
3 19 36 8
3 37 36 19
3 37 7 36
3 37 182 184
3 184 183 7
3 182 183 184
3 38 185 187
3 187 186 37
3 185 186 187
3 38 188 189
3 38 190 191
3 193 192 38
3 195 194 9
3 196 0 197
3 30 198 200
3 198 199 200
3 39 201 203
3 203 202 30
3 201 202 203
3 39 204 205
3 21 39 4
3 206 39 207
3 208 207 21
3 206 207 208
3 211 210 39
3 209 210 211
3 23 212 214
3 214 213 10
3 212 213 214
3 40 215 217
3 217 216 23
3 215 216 217
3 40 218 219
3 40 220 221
3 41 222 224
3 224 223 40
3 222 223 224
3 41 225 227
3 225 0 226
3 225 226 227
3 41 15 0
3 42 15 41
3 42 3 15
3 25 42 11
3 43 42 25
3 43 3 42
3 43 228 230
3 230 229 3
3 228 229 230
3 232 231 43
3 34 26 1
3 44 26 34
3 44 12 26
3 27 44 6
3 233 44 234
3 235 234 27
3 233 234 235
3 236 12 237
3 238 237 44
3 236 237 238
3 240 239 12
