ply
format ascii 1.0
element vertex 297
property float x
property float y
property float z
element face 276
property list uchar int vertex_index
end_header
28.89456 -12.63067 65.377419
27.179058 -0.824224 69.090874
28.238106 -21.957628 50.663063
28.205482 -18.7806 41.847904
29.247784 -11.238466 56.518913
27.50609 6.196564 67.570625
29.327812 -6.156971 63.735912
29.590677 -5.739565 59.543068
29.317705 -12.261396 61.173195
28.962538 6.934903 64.410622
28.715515 0.05369 66.111794
28.350782 -6.81755 67.606606
28.410606 -15.479771 48.857655
28.10449 -20.45023 46.130817
28.708546 -16.821257 53.641556
26.542534 -6.946466 70.432327
27.744286 -12.651102 68.893806
29.128117 -9.319344 64.648232
29.384657 -9.236359 62.428921
29.189291 -12.237556 63.411983
29.13912 -15.206285 61.972683
27.377195 2.521766 68.359169
28.191889 3.063789 66.956108
28.036869 -0.337223 67.726364
28.586016 -3.383439 66.805649
27.889746 -3.810384 68.368645
28.325041 -18.584995 49.756786
28.227608 -17.921047 47.43021
28.144951 -21.273241 48.271656
29.46316 -8.36112 58.042297
29.102806 -10.725699 54.179855
28.826504 -13.601125 52.860889
28.978006 -14.216537 55.086922
25.328949 -7.25319 71.415863
26.132841 -10.09233 71.001572
27.198412 -9.6612 69.813477
26.788277 -12.762494 70.355034
28.217178 -16.370989 43.143578
28.34025 -15.310931 41.190193
26.344486 2.308637 69.490952
28.096039 -24.366922 49.228382
29.460503 -2.825285 62.919521
29.529549 -5.875524 61.693462
29.474335 -8.938545 60.296429
29.327578 -11.828459 58.816914
29.123278 -14.480131 57.450783
29.182106 -14.939495 59.792332
28.314718 6.449021 66.163132
28.840614 3.388529 65.32119
29.234322 0.45608 64.168228
29.108418 -2.935666 64.983864
28.946142 -6.309189 65.747055
28.725403 -9.588573 66.489494
28.335157 -14.598533 46.679832
28.187643 -17.23461 45.338108
28.111877 -19.75231 44.047905
28.046965 -23.80965 46.760223
28.055973 -22.882643 44.611828
28.127657 -22.048231 42.47488
28.661047 -12.935065 50.48502
28.553684 -16.113989 51.268841
28.448294 -19.405619 52.083126
28.873386 -17.243586 56.134007
28.604496 -19.769905 54.464725
25.081947 1.945163 70.388321
26.044743 -0.898916 70.208473
25.742682 -4.048245 70.831879
26.871109 -3.849356 69.803017
27.56139 -6.690241 69.144234
28.066465 -9.647926 68.310364
28.425491 -12.476512 67.252274
28.924804 -13.979823 64.772076
29.07217 -13.783266 63.789358
29.041925 -12.434113 64.394701
29.301108 -9.69088 56.157833
29.408796 -8.252207 56.919525
29.355472 -9.799793 57.280605
29.175295 -10.982083 55.349384
29.228619 -9.434496 54.988304
29.301108 -9.69088 56.157833
25.867116 -11.50666 71.244381
25.508184 -10.11638 71.433845
26.194834 -12.841742 70.921112
26.460559 -11.427412 70.678303
25.867116 -11.50666 71.244381
25.801767 3.835905 69.596527
26.438744 4.061343 69.108604
29.068545 -16.558532 61.302225
29.023742 -16.667126 62.379993
29.192468 7.215974 63.434779
29.007675 8.853745 63.93293
29.15692 5.344442 63.838131
29.192468 7.215974 63.434779
27.910404 6.322793 66.866879
27.97058 8.146061 66.43385
27.566266 8.019832 67.137596
28.372881 -15.039152 47.768743
28.436449 -13.393737 47.459077
28.474173 -13.834356 48.547989
28.040621 -25.353843 47.229944
28.071502 -24.088286 47.994303
28.065158 -25.632479 48.464024
28.076613 -24.172926 43.93638
28.048065 -24.47836 44.95736
28.112454 -23.75572 42.867907
28.091815 -22.465437 43.543354
28.076613 -24.172926 43.93638
28.180069 -23.371504 41.776714
28.112454 -23.75572 42.867907
29.638632 -3.986236 59.107992
29.611173 -4.176359 60.211391
28.797829 -11.660314 51.24547
28.730387 -11.166972 50.111845
28.927186 -17.394008 57.290905
28.998332 -15.861859 56.792395
29.052132 -16.01228 57.949293
28.541754 -21.331162 54.890715
28.660198 -20.081871 55.646936
28.484619 -21.158436 53.790653
28.541754 -21.331162 54.890715
24.907536 0.3803 70.708702
24.299693 1.786443 70.691506
25.388934 -1.04174 70.618778
25.563345 0.523123 70.298397
24.907536 0.3803 70.708702
29.047084 -15.26763 63.069708
29.164206 -13.72192 62.692333
29.07217 -13.783266 63.789358
29.023742 -16.667126 62.379993
29.047084 -15.26763 63.069708
28.704 8.600705 64.794613
29.007675 8.853745 63.93293
29.510444 -6.798057 57.650144
29.574202 -5.48728 58.40053
29.526919 -7.050342 58.792682
29.510444 -6.798057 57.650144
29.408796 -8.252207 56.919525
29.15496 -9.10522 53.790773
29.228619 -9.434496 54.988304
29.018708 -10.55563 53.092888
29.15496 -9.10522 53.790773
28.964655 -12.163412 53.520372
28.880557 -11.993343 52.433405
29.018708 -10.55563 53.092888
25.106238 -8.69681 71.640991
24.659349 -7.216633 71.726208
25.730895 -8.67276 71.208718
25.106238 -8.69681 71.640991
25.508184 -10.11638 71.433845
28.292431 -14.575236 42.87576
28.260842 -15.167794 43.906514
28.353966 -14.045207 41.899067
28.292431 -14.575236 42.87576
28.278714 -15.84096 42.166885
28.426999 -13.537247 40.96827
28.353966 -14.045207 41.899067
27.019808 7.786595 67.806938
27.566266 8.019832 67.137596
27.019545 6.005306 68.148441
27.019808 7.786595 67.806938
26.955098 4.167908 68.542713
27.441643 4.359165 67.964897
27.019545 6.005306 68.148441
26.860841 2.415202 68.925061
26.955098 4.167908 68.542713
26.438744 4.061343 69.108604
28.136633 -24.71225 50.429169
28.167072 -23.162275 49.945723
28.207666 -23.507604 51.146509
28.08221 -25.936794 49.643229
28.136633 -24.71225 50.429169
28.065158 -25.632479 48.464024
28.08221 -25.936794 49.643229
29.546086 -2.719219 61.899618
29.512047 -1.055964 62.482046
29.580609 -4.244339 61.286588
29.546086 -2.719219 61.899618
29.495026 -4.350404 62.306491
29.560113 -5.807545 60.618265
29.611173 -4.176359 60.211391
29.580609 -4.244339 61.286588
29.081546 -16.241962 59.120068
29.052132 -16.01228 57.949293
29.152692 -14.709813 58.621558
29.090038 -16.425137 60.21205
29.160613 -15.07289 60.882508
29.068545 -16.558532 61.302225
29.081546 -16.241962 59.120068
29.090038 -16.425137 60.21205
28.300005 -18.324514 40.842508
28.245483 -20.049981 41.122644
28.38009 8.357764 65.670868
27.97058 8.146061 66.43385
28.638628 6.691962 65.286877
28.704 8.600705 64.794613
28.38009 8.357764 65.670868
29.095959 3.571255 64.293415
29.15692 5.344442 63.838131
28.901576 5.161716 64.865906
29.292813 2.10503 63.716934
29.095959 3.571255 64.293415
29.037468 1.922305 64.744709
29.398956 0.584718 63.106399
29.292813 2.10503 63.716934
29.347412 -1.184603 63.543875
29.512047 -1.055964 62.482046
29.398956 0.584718 63.106399
28.405236 -12.929626 46.403286
28.436449 -13.393737 47.459077
28.319831 -14.281566 45.67464
28.405236 -12.929626 46.403286
28.246074 -15.599604 45.003778
28.319831 -14.281566 45.67464
28.2614 -15.916571 46.00897
28.20241 -16.802799 44.240843
28.260842 -15.167794 43.906514
28.246074 -15.599604 45.003778
28.043561 -24.941863 46.031557
28.040621 -25.353843 47.229944
28.037217 -26.486057 46.501278
28.051469 -23.346147 45.686025
28.043561 -24.941863 46.031557
28.048065 -24.47836 44.95736
28.20657 -21.683796 41.436132
28.245483 -20.049981 41.122644
28.16657 -20.414416 42.161392
28.258983 -23.007069 40.737966
28.20657 -21.683796 41.436132
28.180069 -23.371504 41.776714
29.638632 -3.986236 59.107992
29.574202 -5.48728 58.40053
28.599394 -12.562003 49.361671
28.730387 -11.166972 50.111845
28.535826 -14.207418 49.671337
28.474173 -13.834356 48.547989
28.599394 -12.562003 49.361671
28.743775 -13.268095 51.672955
28.797829 -11.660314 51.24547
28.880557 -11.993343 52.433405
28.794643 -18.818711 56.481577
28.927186 -17.394008 57.290905
28.738941 -18.506746 55.299366
28.794643 -18.818711 56.481577
28.660198 -20.081871 55.646936
28.406518 -20.976293 52.599853
28.526395 -19.587762 53.273926
28.484619 -21.158436 53.790653
28.301424 -22.252297 51.889822
28.3432 -20.681624 51.373095
28.406518 -20.976293 52.599853
28.207666 -23.507604 51.146509
28.301424 -22.252297 51.889822
24.441707 3.367903 70.382977
23.659453 3.209182 70.686161
24.299693 1.786443 70.691506
25.170497 3.654168 70.045212
24.530257 5.076908 70.039867
24.441707 3.367903 70.382977
25.713217 2.1269 69.939637
25.801767 3.835905 69.596527
25.170497 3.654168 70.045212
24.882075 -5.704534 71.480823
24.659349 -7.216633 71.726208
25.088942 -4.102062 71.188831
24.882075 -5.704534 71.480823
25.535815 -5.650717 71.123871
25.237903 -2.616404 70.930481
25.088942 -4.102062 71.188831
25.893712 -2.47358 70.520176
25.388934 -1.04174 70.618778
25.237903 -2.616404 70.930481
26.478663 -14.2001 70.63926
26.194834 -12.841742 70.921112
27.00165 -14.096692 69.989891
26.478663 -14.2001 70.63926
27.479654 -14.040996 69.259277
27.266281 -12.706798 69.62442
27.00165 -14.096692 69.989891
27.871907 -14.129566 68.473884
27.479654 -14.040996 69.259277
28.212509 -14.042271 67.653119
28.084888 -12.563807 68.07304
27.871907 -14.129566 68.473884
28.498122 -14.012004 66.751621
28.212509 -14.042271 67.653119
28.732656 -14.089083 65.814194
28.660025 -12.553591 66.314847
28.498122 -14.012004 66.751621
28.924804 -13.979823 64.772076
28.732656 -14.089083 65.814194
28.367389 -16.589679 40.513652
28.272866 -17.045766 41.519048
28.300005 -18.324514 40.842508
28.447248 -14.758551 40.295365
28.367389 -16.589679 40.513652
28.426999 -13.537247 40.96827
28.447248 -14.758551 40.295365
3 0 19 17
3 0 71 73
3 73 72 19
3 71 72 73
3 1 23 21
3 1 25 23
3 2 28 26
3 4 74 76
3 76 75 29
3 74 75 76
3 4 77 79
3 77 30 78
3 77 78 79
3 4 32 30
3 80 34 81
3 82 36 83
3 84 83 34
3 82 83 84
3 3 38 37
3 85 39 86
3 6 42 41
3 8 43 18
3 8 44 43
3 8 46 44
3 88 87 20
3 9 89 90
3 9 91 92
3 5 93 95
3 93 47 94
3 93 94 95
3 10 48 22
3 10 49 48
3 10 50 49
3 11 51 24
3 11 52 51
3 12 96 98
3 96 53 97
3 96 97 98
3 13 54 27
3 13 55 54
3 99 56 100
3 101 100 40
3 99 100 101
3 102 57 103
3 104 58 105
3 106 105 57
3 104 105 106
3 108 107 58
3 7 109 110
3 111 59 112
3 14 60 31
3 14 61 60
3 113 62 114
3 115 114 45
3 113 114 115
3 116 63 117
3 119 118 63
3 120 64 121
3 122 65 123
3 124 123 64
3 122 123 124
3 15 66 33
3 15 67 66
3 15 68 67
3 16 69 35
3 16 70 69
3 17 18 6
3 19 18 17
3 19 8 18
3 19 20 8
3 125 20 126
3 127 126 19
3 125 126 127
3 129 128 20
3 130 9 131
3 21 22 5
3 23 22 21
3 23 10 22
3 23 24 10
3 25 24 23
3 25 11 24
3 26 27 12
3 28 27 26
3 28 13 27
3 29 132 134
3 134 133 7
3 132 133 134
3 136 135 29
3 30 137 138
3 30 139 140
3 30 141 143
3 141 31 142
3 141 142 143
3 32 31 30
3 32 14 31
3 144 33 145
3 34 146 148
3 146 33 147
3 146 147 148
3 34 15 33
3 34 35 15
3 36 35 34
3 36 16 35
3 37 149 150
3 38 151 153
3 153 152 37
3 151 152 153
3 38 154 155
3 156 5 157
3 158 5 159
3 160 21 161
3 162 161 5
3 160 161 162
3 39 163 165
3 163 21 164
3 163 164 165
3 39 1 21
3 166 40 167
3 168 167 2
3 166 167 168
3 169 40 170
3 172 171 40
3 41 173 174
3 42 175 177
3 177 176 41
3 175 176 177
3 42 178 180
3 178 7 179
3 178 179 180
3 18 42 6
3 43 42 18
3 43 7 42
3 43 29 7
3 44 29 43
3 44 4 29
3 44 45 4
3 46 45 44
3 46 181 183
3 183 182 45
3 181 182 183
3 20 46 8
3 184 46 185
3 186 185 20
3 184 185 186
3 188 187 46
3 190 189 3
3 47 191 192
3 47 193 195
3 193 9 194
3 193 194 195
3 22 47 5
3 48 47 22
3 48 9 47
3 48 196 198
3 198 197 9
3 196 197 198
3 49 199 201
3 201 200 48
3 199 200 201
3 49 202 203
3 49 204 206
3 204 41 205
3 204 205 206
3 50 41 49
3 50 6 41
3 24 50 10
3 51 50 24
3 51 6 50
3 51 17 6
3 52 17 51
3 52 0 17
3 53 207 208
3 53 209 210
3 27 53 12
3 54 53 27
3 54 211 213
3 213 212 53
3 211 212 213
3 54 214 216
3 214 37 215
3 214 215 216
3 55 37 54
3 55 3 37
3 40 28 2
3 56 28 40
3 56 13 28
3 217 56 218
3 217 218 219
3 57 220 222
3 220 56 221
3 220 221 222
3 57 13 56
3 57 55 13
3 58 55 57
3 58 3 55
3 58 223 225
3 225 224 3
3 223 224 225
3 228 227 58
3 226 227 228
3 230 229 7
3 59 231 232
3 59 233 235
3 233 12 234
3 233 234 235
3 31 236 238
3 236 59 237
3 236 237 238
3 60 59 31
3 60 12 59
3 60 26 12
3 61 26 60
3 61 2 26
3 45 32 4
3 62 32 45
3 62 14 32
3 239 62 240
3 63 241 243
3 241 62 242
3 241 242 243
3 63 14 62
3 63 61 14
3 244 61 245
3 246 245 63
3 244 245 246
3 247 2 248
3 249 248 61
3 247 248 249
3 251 250 2
3 64 252 254
3 252 253 254
3 64 255 257
3 255 256 257
3 64 258 260
3 258 39 259
3 258 259 260
3 65 39 64
3 65 1 39
3 33 261 262
3 66 263 265
3 265 264 33
3 263 264 265
3 66 266 267
3 66 268 270
3 268 65 269
3 268 269 270
3 67 65 66
3 67 1 65
3 67 25 1
3 68 25 67
3 68 11 25
3 35 68 15
3 69 68 35
3 69 11 68
3 69 52 11
3 70 52 69
3 70 0 52
3 271 36 272
3 273 36 274
3 275 16 276
3 277 276 36
3 275 276 277
3 278 16 279
3 280 70 281
3 282 281 16
3 280 281 282
3 283 70 284
3 285 0 286
3 287 286 70
3 285 286 287
3 289 288 0
3 290 38 291
3 292 291 3
3 290 291 292
3 293 38 294
3 296 295 38
