ply
format ascii 1.0
element vertex 301
property float x
property float y
property float z
element face 305
property list uchar int vertex_index
end_header
37.48822 45.566994 10.075225
32.710022 32.633732 30.191038
35.042782 40.333519 20.745323
35.919476 62.233814 3.785294
34.214092 56.881264 16.166777
32.560143 48.555038 27.728998
33.841343 36.391468 25.709501
36.675217 63.683426 -2.730758
34.975819 70.017479 0.173495
33.6036 64.767365 13.428356
33.356209 53.039417 22.095692
36.26889 43.148281 15.66022
37.893089 36.895809 12.807305
36.628368 34.670036 17.694038
37.64864 55.829624 0.960853
36.816311 54.011047 7.002299
34.353146 67.700417 6.714783
35.130203 59.750206 10.012327
35.825813 51.419228 12.958061
34.69239 48.346947 18.812731
33.680122 44.811066 24.024483
32.703709 40.775536 29.105204
38.040943 46.516903 7.189978
38.313637 42.364422 8.59798
33.282059 34.660492 27.905951
33.833714 32.442276 26.45751
35.685932 41.517422 18.245043
36.504539 38.990982 16.592344
35.843369 37.308414 19.240726
36.307774 63.065525 0.57737
37.195091 59.749397 -0.921485
36.778316 59.22274 2.262865
37.242393 54.986336 4.085454
36.398186 58.275005 5.239622
33.906593 71.448586 5.263692
33.601963 70.149796 8.529138
33.916985 60.921635 14.81
34.31427 62.520214 11.654436
34.689579 58.310608 13.111275
35.517952 55.588852 11.448936
34.99276 54.349854 14.454491
35.257317 50.041592 15.895709
34.514038 52.482162 17.468895
32.921223 50.957901 25.042547
33.51025 48.905571 23.218172
33.062977 46.979771 25.860565
33.188625 43.059196 26.50919
32.666012 44.4963 28.419321
38.014961 32.519447 13.991349
38.744389 29.073778 12.52471
34.437191 38.247711 23.323044
35.169037 35.891838 21.695677
34.493984 34.154076 24.136148
37.006176 63.973358 -5.889335
36.10923 67.515923 -4.391239
35.79937 66.962425 -1.216169
35.494114 65.947479 2.056111
33.531307 59.018608 17.952675
33.803638 54.910789 19.138382
33.142883 57.202606 20.944916
32.75444 55.101254 24.041624
36.92672 44.210846 12.897325
37.737209 41.124702 11.494084
37.126942 40.030132 14.138056
37.278679 35.694561 15.32766
37.367783 31.48428 16.38744
35.905819 33.238556 20.237305
37.566807 60.098263 -4.136116
38.133797 51.592796 2.593672
37.700272 50.763622 5.567029
37.240593 49.765305 8.388026
34.645592 69.061966 3.506626
35.079632 65.143478 5.31889
33.960979 66.508125 10.029053
34.719131 63.827847 8.499495
35.536598 61.230743 6.772254
35.981651 56.979092 8.358863
36.364017 52.850056 9.860086
36.669754 48.638687 11.408073
36.104115 47.198143 14.300833
35.472759 45.977161 17.09753
34.927681 44.340557 19.664051
34.004265 50.755569 20.384428
34.171375 46.773766 21.424692
34.315571 42.493721 22.450365
33.747654 40.57196 25.039557
33.217918 38.824799 27.403309
32.722134 36.618088 29.716021
32.267792 38.344173 31.508736
32.257374 34.568691 31.899698
32.965052 31.529471 29.415229
33.25107 32.542851 28.272686
32.99604 33.647112 29.048495
33.271949 71.257664 9.400585
33.402796 72.070034 7.658438
38.406786 28.59591 13.801569
38.379675 30.796613 13.258029
38.042072 30.318745 14.534889
34.144965 31.197931 25.742494
33.826878 30.381192 26.753037
35.857383 69.341221 -5.474981
36.283352 67.58112 -6.073869
35.387595 68.489952 -0.521337
35.563929 68.754413 -2.194114
35.152153 70.28194 -1.499282
33.217912 60.105903 18.85204
33.386457 60.981882 17.346829
33.023701 59.197902 20.34816
33.337095 58.110607 19.448795
33.217912 60.105903 18.85204
32.522553 55.918334 24.938637
32.678573 57.071915 23.403266
32.446686 57.888994 24.300279
32.594496 53.892359 25.451784
32.522553 55.918334 24.938637
35.53062 32.422845 21.497625
35.537428 34.565197 20.966491
35.16223 33.749486 22.22681
37.848226 56.027477 -0.607722
37.621452 57.987364 -1.548891
37.421865 57.789511 0.019684
38.084705 54.058525 0.233963
37.848226 56.027477 -0.607722
37.891219 53.71121 1.777262
38.327284 51.940111 1.050373
38.084705 54.058525 0.233963
33.78229 65.637745 11.728704
33.601814 67.537914 11.087426
33.423125 66.667534 12.787078
32.07932 37.218795 32.575273
32.084421 39.145083 32.407394
32.074111 35.331055 32.770754
32.262583 36.456432 31.704217
32.07932 37.218795 32.575273
32.051819 33.477689 32.898049
32.074111 35.331055 32.770754
38.20129 37.445372 11.424332
38.12335 39.559818 10.767721
37.815149 39.010255 12.150695
38.443678 44.842987 6.465689
38.308642 46.777138 5.72567
38.580025 42.766746 7.16969
38.443678 44.842987 6.465689
38.17729 44.440663 7.893979
38.695408 40.581986 7.925853
38.580025 42.766746 7.16969
33.526898 31.433743 27.548465
33.557886 33.551384 27.181731
33.25107 32.542851 28.272686
33.826878 30.381192 26.753037
33.526898 31.433743 27.548465
34.739262 71.860435 -0.825482
35.152153 70.28194 -1.499282
33.555111 72.71943 6.025716
33.68383 73.323075 4.399859
33.332348 74.593918 5.161883
33.754278 70.799191 6.896415
33.555111 72.71943 6.025716
33.402796 72.070034 7.658438
38.338186 33.000397 12.67378
38.27725 35.188578 12.081758
37.954025 34.707628 13.399327
38.7029 31.277562 11.940461
38.338186 33.000397 12.67378
38.379675 30.796613 13.258029
39.05269 29.478424 11.205725
38.7029 31.277562 11.940461
34.824703 32.880605 23.447046
35.16223 33.749486 22.22681
34.831511 35.022957 22.915912
34.475099 32.053832 24.581813
34.163849 33.298176 25.296829
34.144965 31.197931 25.742494
34.824703 32.880605 23.447046
34.475099 32.053832 24.581813
36.731825 65.809838 -6.822917
37.158012 63.987007 -7.452638
36.557703 65.744641 -5.140287
36.731825 65.809838 -6.822917
36.283352 67.58112 -6.073869
35.718858 69.031162 -3.781649
35.857383 69.341221 -5.474981
35.9543 67.239174 -2.803704
35.718858 69.031162 -3.781649
35.563929 68.754413 -2.194114
33.280628 65.787918 14.364025
33.423125 66.667534 12.787078
33.422604 63.85626 15.084669
33.280628 65.787918 14.364025
33.099632 64.876814 16.020338
33.579296 61.933396 15.775491
33.760292 62.8445 14.119178
33.422604 63.85626 15.084669
33.724146 59.970122 16.381338
33.579296 61.933396 15.775491
33.386457 60.981882 17.346829
32.872795 58.122591 21.854912
33.023701 59.197902 20.34816
32.948662 56.15193 22.49327
32.872795 58.122591 21.854912
32.678573 57.071915 23.403266
32.677887 51.820683 25.952246
32.837832 53.029578 24.542085
32.594496 53.892359 25.451784
32.497347 50.619251 27.295471
32.740683 49.75647 26.385773
32.677887 51.820683 25.952246
32.667013 30.583723 30.461897
32.452206 31.6098 31.243339
37.718483 29.801161 15.732935
38.042072 30.318745 14.534889
37.691372 32.001863 15.189395
35.883074 31.142308 20.777302
35.53062 32.422845 21.497625
36.274966 31.799027 19.53291
35.883074 31.142308 20.777302
36.63624 32.514767 18.261277
36.267094 33.954296 18.965671
36.274966 31.799027 19.53291
37.005948 30.921889 17.607978
36.998075 33.077158 17.040739
36.63624 32.514767 18.261277
37.391627 29.239322 16.866188
37.005948 30.921889 17.607978
37.718483 29.801161 15.732935
37.391627 29.239322 16.866188
32.965052 31.529471 29.415229
32.667013 30.583723 30.461897
37.43932 62.142179 -6.577721
37.158012 63.987007 -7.452638
37.719635 60.204632 -5.701111
37.43932 62.142179 -6.577721
37.286491 62.03581 -5.012726
37.979732 58.293265 -4.751582
37.719635 60.204632 -5.701111
37.80731 58.161797 -3.156207
37.380949 59.92383 -2.528801
37.621452 57.987364 -1.548891
37.979732 58.293265 -4.751582
37.80731 58.161797 -3.156207
38.545872 49.776863 1.953523
38.327284 51.940111 1.050373
38.355069 49.315084 3.427517
38.545872 49.776863 1.953523
38.138306 48.900498 4.914195
38.355069 49.315084 3.427517
37.917034 51.178209 4.08035
37.870607 48.640262 6.378503
38.308642 46.777138 5.72567
38.138306 48.900498 4.914195
34.573757 71.410862 1.010868
34.739262 71.860435 -0.825482
34.039144 72.126416 3.555966
33.68383 73.323075 4.399859
34.408644 70.933105 2.677433
34.039144 72.126416 3.555966
34.276093 70.255276 4.385159
34.810705 69.539722 1.84006
34.573757 71.410862 1.010868
34.408644 70.933105 2.677433
33.422306 69.358749 10.337468
33.271949 71.257664 9.400585
33.781471 68.32896 9.279096
33.422306 69.358749 10.337468
33.601814 67.537914 11.087426
32.352993 49.402708 28.598828
32.497347 50.619251 27.295471
32.39065 47.499813 28.970041
32.352993 49.402708 28.598828
32.443585 45.470444 29.315202
32.613078 46.525669 28.07416
32.39065 47.499813 28.970041
32.464342 43.44652 29.660287
32.443585 45.470444 29.315202
32.483191 41.586138 30.003228
32.68486 42.635918 28.762262
32.464342 43.44652 29.660287
32.265232 40.370457 31.204994
32.084421 39.145083 32.407394
32.485751 39.559855 30.30697
32.483191 41.586138 30.003228
32.265232 40.370457 31.204994
32.225881 32.577279 32.097668
32.452206 31.6098 31.243339
32.483698 33.601212 31.045368
32.020327 31.486277 33.096019
32.225881 32.577279 32.097668
32.051819 33.477689 32.898049
38.411564 40.179678 9.319669
38.025423 41.744562 10.046032
38.12335 39.559818 10.767721
38.695408 40.581986 7.925853
38.411564 40.179678 9.319669
38.20129 37.445372 11.424332
38.27725 35.188578 12.081758
38.759743 26.94368 13.003374
38.406786 28.59591 13.801569
39.078124 27.277239 11.73857
38.759743 26.94368 13.003374
39.05269 29.478424 11.205725
39.078124 27.277239 11.73857
3 0 23 22
3 1 90 92
3 92 91 24
3 90 91 92
3 2 28 26
3 3 31 29
3 3 33 31
3 93 35 94
3 4 38 36
3 4 40 38
3 4 42 40
3 5 45 43
3 5 47 45
3 95 49 96
3 97 96 48
3 95 96 97
3 6 52 50
3 99 98 25
3 100 54 101
3 8 102 104
3 102 55 103
3 102 103 104
3 8 56 55
3 105 57 106
3 107 59 108
3 109 108 57
3 107 108 109
3 110 60 111
3 110 111 112
3 114 113 60
3 11 63 61
3 13 64 27
3 13 65 64
3 115 66 116
3 117 116 51
3 115 116 117
3 7 67 53
3 14 118 120
3 120 119 30
3 118 119 120
3 14 121 122
3 14 123 125
3 123 68 124
3 123 124 125
3 15 69 32
3 15 70 69
3 16 71 34
3 16 72 71
3 9 126 128
3 126 73 127
3 126 127 128
3 17 74 37
3 17 75 74
3 17 76 75
3 18 77 39
3 18 78 77
3 18 79 78
3 19 80 41
3 19 81 80
3 10 82 58
3 20 83 44
3 20 84 83
3 20 85 84
3 21 86 46
3 21 87 86
3 129 88 130
3 131 89 132
3 133 132 88
3 131 132 133
3 135 134 89
3 12 136 138
3 138 137 62
3 136 137 138
3 22 139 140
3 23 141 143
3 143 142 22
3 141 142 143
3 23 144 145
3 24 25 6
3 146 25 147
3 148 147 24
3 146 147 148
3 150 149 25
3 151 8 152
3 26 27 11
3 28 27 26
3 28 13 27
3 29 30 7
3 31 30 29
3 31 14 30
3 31 32 14
3 33 32 31
3 33 15 32
3 153 34 154
3 153 154 155
3 35 156 158
3 156 34 157
3 156 157 158
3 35 16 34
3 36 37 9
3 38 37 36
3 38 17 37
3 38 39 17
3 40 39 38
3 40 18 39
3 40 41 18
3 42 41 40
3 42 19 41
3 43 44 10
3 45 44 43
3 45 20 44
3 45 46 20
3 47 46 45
3 47 21 46
3 48 159 161
3 161 160 12
3 159 160 161
3 49 162 164
3 164 163 48
3 162 163 164
3 49 165 166
3 50 51 2
3 52 51 50
3 52 167 169
3 169 168 51
3 167 168 169
3 25 52 6
3 170 52 171
3 172 171 25
3 170 171 172
3 174 173 52
3 175 53 176
3 54 177 179
3 177 53 178
3 177 178 179
3 54 7 53
3 180 54 181
3 55 182 184
3 182 54 183
3 182 183 184
3 55 7 54
3 55 29 7
3 56 29 55
3 56 3 29
3 185 9 186
3 187 9 188
3 187 188 189
3 190 36 191
3 192 191 9
3 190 191 192
3 57 193 195
3 193 36 194
3 193 194 195
3 57 4 36
3 57 58 4
3 59 58 57
3 59 10 58
3 196 59 197
3 60 198 200
3 198 59 199
3 198 199 200
3 60 10 59
3 60 43 10
3 201 43 202
3 203 202 60
3 201 202 203
3 204 5 205
3 206 205 43
3 204 205 206
3 208 207 1
3 61 62 0
3 63 62 61
3 63 12 62
3 27 63 11
3 64 63 27
3 64 12 63
3 64 48 12
3 65 48 64
3 65 209 211
3 211 210 48
3 209 210 211
3 51 28 2
3 66 28 51
3 66 13 28
3 212 66 213
3 214 66 215
3 216 13 217
3 218 217 66
3 216 217 218
3 219 65 220
3 221 220 13
3 219 220 221
3 222 65 223
3 225 224 65
3 227 226 1
3 53 228 229
3 67 230 232
3 232 231 53
3 230 231 232
3 67 233 234
3 30 67 7
3 235 67 236
3 237 236 30
3 235 236 237
3 239 238 67
3 68 240 241
3 68 242 243
3 32 68 14
3 69 68 32
3 69 244 246
3 246 245 68
3 244 245 246
3 69 247 249
3 247 22 248
3 247 248 249
3 70 22 69
3 70 0 22
3 250 8 251
3 34 252 253
3 71 254 256
3 256 255 34
3 254 255 256
3 71 257 259
3 257 8 258
3 257 258 259
3 71 56 8
3 72 56 71
3 72 3 56
3 260 35 261
3 73 262 264
3 262 35 263
3 262 263 264
3 73 16 35
3 37 73 9
3 74 73 37
3 74 16 73
3 74 72 16
3 75 72 74
3 75 3 72
3 75 33 3
3 76 33 75
3 76 15 33
3 39 76 17
3 77 76 39
3 77 15 76
3 77 70 15
3 78 70 77
3 78 0 70
3 78 61 0
3 79 61 78
3 79 11 61
3 41 79 18
3 80 79 41
3 80 11 79
3 80 26 11
3 81 26 80
3 81 2 26
3 58 42 4
3 82 42 58
3 82 19 42
3 44 82 10
3 83 82 44
3 83 19 82
3 83 81 19
3 84 81 83
3 84 2 81
3 84 50 2
3 85 50 84
3 85 6 50
3 46 85 20
3 86 85 46
3 86 6 85
3 86 24 6
3 87 24 86
3 87 1 24
3 265 5 266
3 267 5 268
3 269 47 270
3 271 270 5
3 269 270 271
3 272 47 273
3 274 21 275
3 276 275 47
3 274 275 276
3 88 277 278
3 88 279 281
3 279 21 280
3 279 280 281
3 88 87 21
3 89 87 88
3 89 1 87
3 89 282 284
3 284 283 1
3 282 283 284
3 287 286 89
3 285 286 287
3 62 23 0
3 288 23 289
3 290 289 62
3 288 289 290
3 292 291 23
3 294 293 12
3 295 49 296
3 297 49 298
3 300 299 49
