ply
format ascii 1.0
element vertex 294
property float x
property float y
property float z
element face 264
property list uchar int vertex_index
end_header
-35.71254 5.955745 -33.671429
-39.240383 -2.015003 -32.002193
-34.640598 -1.701307 -25.035797
-23.938404 11.645998 -26.532045
-23.333546 7.994767 -22.308441
-37.71714 2.026229 -32.794827
-39.435688 0.749735 -35.940037
-37.850533 5.252274 -37.116966
-33.269669 9.425369 -34.350468
-37.252541 -1.478537 -28.588411
-35.259209 2.260363 -29.226114
-32.229416 1.740838 -25.488451
-32.811111 5.731169 -29.798031
-30.210796 8.949939 -30.443987
-27.273848 12.163469 -30.886374
-40.433952 -3.765021 -34.538658
-40.461449 -1.583443 -38.477871
-36.80022 4.049635 -33.293846
-37.852345 3.643771 -34.963711
-36.9188 5.703595 -35.494644
-32.006485 11.133998 -34.869263
-35.967464 -1.281719 -26.944824
-36.324051 0.47145 -28.958637
-34.988377 0.29642 -27.120441
-32.57832 3.66153 -27.560131
-31.164164 5.263888 -27.682312
-31.530437 7.321192 -30.081566
-25.358337 9.983651 -26.530239
-27.060852 10.059612 -28.423307
-25.52759 11.859482 -28.626558
-39.881004 -2.57876 -33.388493
-39.443592 2.127249 -38.120739
-40.041492 -0.385984 -37.239525
-40.003685 0.905235 -39.438499
-23.597393 9.863098 -24.371521
-38.528267 -0.05176 -32.306358
-39.32312 -0.430967 -33.991886
-38.638462 1.549098 -34.373512
-38.687191 3.059661 -36.505051
-34.540886 7.783733 -34.096191
-35.895779 7.668418 -36.067261
-38.322792 -1.60382 -30.343061
-37.437901 0.400145 -30.614351
-36.508656 2.345186 -31.014717
-35.481041 4.183924 -31.41391
-32.787525 -3.820689 -21.429222
-33.114117 -1.811834 -23.367729
-33.471966 0.100996 -25.315054
-33.873962 2.072362 -27.459726
-34.056282 4.04563 -29.512568
-34.404045 5.913373 -31.824434
-33.141586 7.507695 -32.011936
-31.806946 9.174334 -32.351921
-30.362282 10.865222 -32.702656
-28.501406 8.493479 -28.281359
-28.673197 10.473407 -30.509802
-28.971001 12.537794 -33.1422
-21.409838 6.408063 -18.332033
-21.724512 8.138635 -20.33255
-21.968918 9.994904 -22.378906
-22.253681 11.829319 -24.514851
-39.988235 -1.46048 -35.287548
-40.489208 -2.762019 -36.488548
-40.83316 -4.230248 -37.573933
-31.989028 12.111617 -36.113092
-31.249365 12.006529 -35.062883
-35.304031 -1.491513 -25.99031
-35.837385 -2.31668 -25.933444
-35.173952 -2.526474 -24.97893
-30.334252 5.101306 -26.747926
-31.007976 4.270199 -26.615443
-30.521237 6.163551 -27.938009
-30.334252 5.101306 -26.747926
-24.013622 12.636768 -27.652457
-24.808215 12.74351 -28.699714
-24.732997 11.75274 -27.579301
-39.560693 -2.296882 -32.695343
-39.859834 -3.333326 -32.498212
-39.539524 -3.051448 -31.805062
-39.689245 2.198749 -39.89592
-39.723638 1.516242 -38.779619
-39.409199 2.809756 -39.23704
-39.992142 1.3559 -40.527812
-39.689245 2.198749 -39.89592
-24.18046 8.018315 -23.303531
-23.928055 7.0866 -22.171609
-23.465469 8.928933 -23.339981
-24.312383 8.95248 -24.335071
-24.18046 8.018315 -23.303531
-38.275904 4.862747 -37.932926
-38.694233 3.76644 -37.626969
-38.268862 4.155968 -36.811008
-33.955435 9.519502 -35.43618
-34.591043 8.698684 -35.309042
-33.905277 8.604551 -34.223329
-37.711475 -2.396323 -28.560119
-37.125258 -2.331049 -27.677708
-37.787667 -1.541179 -29.465736
-38.246601 -2.458964 -29.437444
-37.711475 -2.396323 -28.560119
-32.113365 -3.04525 -21.407715
-31.932945 -3.987352 -20.477338
-32.276661 -2.040823 -22.376969
-32.950821 -2.816261 -22.398475
-32.113365 -3.04525 -21.407715
-31.996253 0.802178 -24.466624
-31.382103 1.550815 -24.533459
-32.850691 0.920917 -25.401753
-32.617528 -0.017743 -24.379925
-31.996253 0.802178 -24.466624
-27.608907 8.380295 -27.281385
-28.328785 7.498355 -27.144207
-27.356719 13.150604 -32.109155
-28.205295 13.337767 -33.237068
-28.122425 12.350631 -32.014287
-20.860148 7.484604 -18.438716
-20.726282 6.76176 -17.562264
-21.017485 8.349889 -19.438975
-21.567175 7.273349 -19.332292
-20.860148 7.484604 -18.438716
-21.312647 11.115004 -22.447427
-21.226741 10.145957 -21.397191
-21.455029 12.032211 -23.5154
-22.1113 10.912111 -23.446879
-21.312647 11.115004 -22.447427
-40.610841 -4.942804 -34.17268
-40.407224 -4.322159 -33.679437
-40.626785 -4.460698 -35.084831
-40.610841 -4.942804 -34.17268
-40.640809 -2.482045 -38.989853
-40.826664 -3.805447 -38.537884
-40.647305 -2.906845 -38.025902
-36.42799 7.53217 -36.994933
-35.853229 8.595231 -37.277195
-23.121944 7.080044 -21.220397
-23.928055 7.0866 -22.171609
-32.704077 11.247058 -35.923181
-33.335669 10.392743 -35.663784
-32.638077 10.279684 -34.609865
-32.704077 11.247058 -35.923181
-31.989028 12.111617 -36.113092
-36.482719 -2.232641 -26.855914
-35.837385 -2.31668 -25.933444
-36.610003 -1.380128 -27.766618
-37.125258 -2.331049 -27.677708
-36.482719 -2.232641 -26.855914
-31.540602 2.508674 -25.518512
-31.382103 1.550815 -24.533459
-31.715054 3.46902 -26.554352
-32.403868 2.701184 -26.524291
-31.540602 2.508674 -25.518512
-31.871242 4.462709 -27.621221
-31.715054 3.46902 -26.554352
-31.007976 4.270199 -26.615443
-30.704374 7.192203 -29.137636
-31.3473 6.29254 -28.881939
-30.521237 6.163551 -27.938009
-30.044553 8.006577 -29.318846
-30.870616 8.135566 -30.262777
-30.704374 7.192203 -29.137636
-26.209595 10.021631 -27.476773
-26.88863 9.163362 -27.352359
-26.037373 9.125381 -26.405825
-25.662764 12.813223 -29.818368
-26.535893 12.965217 -30.948276
-26.400719 12.011475 -29.756466
-25.662764 12.813223 -29.818368
-24.808215 12.74351 -28.699714
-40.13075 -3.729028 -33.104355
-39.859834 -3.333326 -32.498212
-40.157478 -3.17189 -33.963575
-40.407224 -4.322159 -33.679437
-40.13075 -3.729028 -33.104355
-40.225631 0.110996 -40.040634
-40.454514 -1.133344 -39.56032
-40.232567 -0.339104 -38.958185
-40.225631 0.110996 -40.040634
-39.992142 1.3559 -40.527812
-34.466365 -2.677359 -24.06194
-35.173952 -2.526474 -24.97893
-25.192856 9.012757 -25.41443
-26.037373 9.125381 -26.405825
-24.477865 9.923375 -25.45088
-25.192856 9.012757 -25.41443
-24.312383 8.95248 -24.335071
-39.072434 3.300234 -38.434812
-39.065392 2.593455 -37.312895
-38.694233 3.76644 -37.626969
-39.409199 2.809756 -39.23704
-39.072434 3.300234 -38.434812
-35.26849 8.641027 -36.294577
-35.218333 7.726076 -35.081726
-34.591043 8.698684 -35.309042
-35.853229 8.595231 -37.277195
-35.26849 8.641027 -36.294577
-33.955435 9.519502 -35.43618
-33.335669 10.392743 -35.663784
-39.169601 -2.781735 -31.089664
-39.539524 -3.051448 -31.805062
-38.710806 -2.576144 -30.260098
-38.246601 -2.458964 -29.437444
-38.781588 -1.809411 -31.172627
-39.169601 -2.781735 -31.089664
-38.710806 -2.576144 -30.260098
-32.611515 -4.792575 -20.485838
-31.932945 -3.987352 -20.477338
-33.382429 -4.649684 -21.377095
-32.611515 -4.792575 -20.485838
-33.539829 -3.73705 -22.258653
-33.382429 -4.649684 -21.377095
-33.703125 -2.732623 -23.227906
-33.539829 -3.73705 -22.258653
-32.950821 -2.816261 -22.398475
-33.877358 -1.756571 -24.201763
-34.466365 -2.677359 -24.06194
-33.703125 -2.732623 -23.227906
-32.438603 -0.974158 -23.406263
-32.276661 -2.040823 -22.376969
-33.293042 -0.855419 -24.341392
-32.438603 -0.974158 -23.406263
-32.617528 -0.017743 -24.379925
-30.427264 11.872141 -33.97958
-31.249365 12.006529 -35.062883
-31.184383 10.99961 -33.785959
-29.189858 7.778347 -28.237532
-28.328785 7.498355 -27.144207
-29.356101 8.721709 -29.362673
-30.044553 8.006577 -29.318846
-29.189858 7.778347 -28.237532
-27.781129 9.276546 -28.352333
-27.608907 8.380295 -27.281385
-26.88863 9.163362 -27.352359
-29.731623 12.708427 -34.199352
-30.427264 11.872141 -33.97958
-29.666642 11.701508 -32.922428
-28.993346 13.545463 -34.403671
-29.731623 12.708427 -34.199352
-28.993346 13.545463 -34.403671
-28.205295 13.337767 -33.237068
-27.356719 13.150604 -32.109155
-26.535893 12.965217 -30.948276
-21.311908 5.560072 -17.438862
-20.628352 5.913768 -16.669093
-20.726282 6.76176 -17.562264
-22.054831 5.391044 -18.309991
-21.311908 5.560072 -17.438862
-22.160089 6.286691 -19.232193
-22.054831 5.391044 -18.309991
-22.317426 7.151978 -20.232451
-22.160089 6.286691 -19.232193
-21.567175 7.273349 -19.332292
-22.529029 8.066701 -21.320495
-23.121944 7.080044 -21.220397
-22.317426 7.151978 -20.232451
-21.104538 9.217822 -20.374013
-21.017485 8.349889 -19.438975
-21.846715 9.066769 -21.355728
-21.104538 9.217822 -20.374013
-21.226741 10.145957 -21.397191
-21.568514 12.864268 -24.504646
-21.455029 12.032211 -23.5154
-20.769862 13.06716 -23.505195
-22.38066 12.731911 -25.58909
-21.568514 12.864268 -24.504646
-21.695493 13.76686 -25.578886
-23.223022 12.640251 -26.597687
-23.096042 11.737659 -25.523448
-22.38066 12.731911 -25.58909
-24.013622 12.636768 -27.652457
-23.223022 12.640251 -26.597687
-40.654413 -3.959197 -36.059776
-40.626785 -4.460698 -35.084831
-40.46158 -3.26352 -35.513603
-40.826389 -4.693311 -36.602469
-40.654413 -3.959197 -36.059776
-40.661184 -3.496134 -37.03124
-40.955702 -5.487767 -37.086916
-40.826389 -4.693311 -36.602469
-40.962308 -5.146967 -38.050007
-40.955702 -5.487767 -37.086916
-40.962308 -5.146967 -38.050007
-40.826664 -3.805447 -38.537884
-40.640809 -2.482045 -38.989853
-40.454514 -1.133344 -39.56032
-36.9395 6.549759 -36.708624
-36.407289 6.686006 -35.780952
-36.42799 7.53217 -36.994933
-37.405367 6.324098 -37.519785
-37.384666 5.477934 -36.305805
-36.9395 6.549759 -36.708624
-37.888515 5.946674 -38.339905
-37.405367 6.324098 -37.519785
-38.275904 4.862747 -37.932926
-37.888515 5.946674 -38.339905
3 0 19 17
3 65 64 20
3 2 66 68
3 66 21 67
3 66 67 68
3 2 23 21
3 69 25 70
3 72 71 25
3 3 29 27
3 3 73 75
3 75 74 29
3 73 74 75
3 1 76 78
3 76 30 77
3 76 77 78
3 79 33 80
3 81 80 31
3 79 80 81
3 83 82 33
3 4 84 85
3 4 86 88
3 86 34 87
3 86 87 88
3 5 37 35
3 7 38 18
3 7 89 91
3 91 90 38
3 89 90 91
3 8 92 94
3 94 93 39
3 92 93 94
3 9 95 96
3 9 97 99
3 97 41 98
3 97 98 99
3 9 42 41
3 10 43 22
3 10 44 43
3 100 45 101
3 102 46 103
3 104 103 45
3 102 103 104
3 11 105 106
3 11 107 109
3 107 47 108
3 107 108 109
3 11 48 47
3 12 49 24
3 12 50 49
3 12 51 50
3 13 52 26
3 13 53 52
3 110 54 111
3 14 55 28
3 14 56 55
3 14 112 114
3 114 113 56
3 112 113 114
3 115 57 116
3 117 58 118
3 119 118 57
3 117 118 119
3 120 59 121
3 122 60 123
3 124 123 59
3 122 123 124
3 15 125 126
3 15 127 128
3 6 61 36
3 16 62 32
3 16 63 62
3 16 129 131
3 131 130 63
3 129 130 131
3 133 132 40
3 134 4 135
3 17 18 5
3 19 18 17
3 19 7 18
3 20 136 138
3 138 137 8
3 136 137 138
3 140 139 20
3 21 141 142
3 21 143 145
3 143 9 144
3 143 144 145
3 21 22 9
3 23 22 21
3 23 10 22
3 146 11 147
3 148 24 149
3 150 149 11
3 148 149 150
3 25 151 153
3 151 24 152
3 151 152 153
3 25 12 24
3 25 26 12
3 154 26 155
3 156 155 25
3 154 155 156
3 157 13 158
3 159 158 26
3 157 158 159
3 27 160 162
3 160 28 161
3 160 161 162
3 29 28 27
3 29 14 28
3 29 163 165
3 165 164 14
3 163 164 165
3 167 166 29
3 30 168 169
3 30 170 172
3 170 15 171
3 170 171 172
3 31 32 6
3 33 32 31
3 33 16 32
3 33 173 175
3 175 174 16
3 173 174 175
3 177 176 33
3 178 2 179
3 180 27 181
3 34 182 184
3 182 27 183
3 182 183 184
3 34 3 27
3 35 36 1
3 37 36 35
3 37 6 36
3 18 37 5
3 38 37 18
3 38 6 37
3 38 31 6
3 185 31 186
3 187 186 38
3 185 186 187
3 189 188 31
3 39 40 0
3 190 40 191
3 192 191 39
3 190 191 192
3 194 193 40
3 196 195 8
3 197 1 198
3 41 199 200
3 41 201 203
3 201 1 202
3 201 202 203
3 41 35 1
3 42 35 41
3 42 5 35
3 22 42 9
3 43 42 22
3 43 5 42
3 43 17 5
3 44 17 43
3 44 0 17
3 45 204 205
3 45 206 207
3 45 208 209
3 46 210 212
3 212 211 45
3 210 211 212
3 46 213 215
3 213 2 214
3 213 214 215
3 216 46 217
3 47 218 220
3 218 46 219
3 218 219 220
3 47 2 46
3 47 23 2
3 48 23 47
3 48 10 23
3 24 48 11
3 49 48 24
3 49 10 48
3 49 44 10
3 50 44 49
3 50 0 44
3 50 39 0
3 51 39 50
3 51 8 39
3 26 51 12
3 52 51 26
3 52 8 51
3 52 20 8
3 53 20 52
3 53 221 223
3 223 222 20
3 221 222 223
3 54 224 225
3 54 226 228
3 226 13 227
3 226 227 228
3 28 229 231
3 229 54 230
3 229 230 231
3 55 54 28
3 55 13 54
3 55 53 13
3 56 53 55
3 56 232 234
3 234 233 53
3 232 233 234
3 56 235 236
3 238 237 56
3 240 239 14
3 57 241 243
3 241 242 243
3 57 244 245
3 57 246 247
3 58 248 250
3 250 249 57
3 248 249 250
3 58 251 253
3 251 4 252
3 251 252 253
3 254 58 255
3 59 256 258
3 256 58 257
3 256 257 258
3 59 4 58
3 59 34 4
3 60 34 59
3 60 3 34
3 259 60 260
3 259 260 261
3 262 60 263
3 262 263 264
3 265 3 266
3 267 266 60
3 265 266 267
3 269 268 3
3 36 30 1
3 61 30 36
3 61 15 30
3 32 61 6
3 62 61 32
3 62 15 61
3 62 270 272
3 272 271 15
3 270 271 272
3 63 273 275
3 275 274 62
3 273 274 275
3 63 276 277
3 63 278 279
3 281 280 63
3 283 282 16
3 40 19 0
3 284 19 285
3 286 285 40
3 284 285 286
3 287 7 288
3 289 288 19
3 287 288 289
3 290 7 291
3 293 292 7
