ply
format ascii 1.0
element vertex 165
property float x
property float y
property float z
element face 154
property list uchar int vertex_index
end_header
-4.812918 100.537796 -34.648285
5.960558 94.517586 -31.466719
-8.08468 98.08506 -39.607094
-2.397522 96.266075 -38.038204
-7.368177 103.862915 -30.361727
-10.569942 102.141289 -35.742069
-13.638537 99.088394 -40.331062
-1.953897 101.583389 -29.390995
0.901946 97.88591 -33.10598
3.790611 98.149498 -28.013096
-6.565625 99.591782 -37.164726
-5.20122 97.385757 -38.785698
-3.585411 98.538216 -36.441719
-6.073048 102.305885 -32.635136
-8.941618 103.16851 -33.155777
-7.754945 101.548775 -35.194767
-9.124689 100.29982 -37.633614
-12.318698 97.043877 -41.974586
-15.01938 97.131622 -42.300606
-0.388195 101.460205 -26.676207
0.957488 99.945847 -28.814053
2.376076 99.737564 -26.163784
3.556507 96.217896 -32.334934
1.989529 95.768272 -34.76622
4.643645 94.011894 -33.847271
-9.574767 96.497841 -41.634228
-6.616509 95.764893 -40.978249
-3.97139 94.800453 -40.315868
-1.180624 93.662453 -39.393692
-12.096566 100.834015 -38.044739
-10.821947 98.83873 -39.909782
-3.134941 101.092484 -32.098366
-1.876697 99.262398 -33.985088
-0.550598 99.847427 -31.438551
2.370756 98.145378 -30.665726
4.901969 96.481682 -29.808603
6.293938 96.310768 -27.2458
7.395557 94.527428 -28.984001
-4.642682 102.817795 -29.964161
-0.736078 97.288574 -35.605427
0.397974 94.947678 -37.114521
-13.111971 95.94954 -42.955633
-11.744497 95.807389 -42.769763
1.717164 100.399494 -24.997751
0.99394 100.598884 -26.419995
0.335028 101.260815 -25.253963
0.335028 101.260815 -25.253963
-1.049208 102.074199 -25.534229
-8.785585 104.25439 -30.555977
-8.06769 104.532768 -29.083348
-11.148714 102.959007 -34.589556
-10.334552 103.472618 -33.296409
-9.75578 102.654899 -34.448923
-11.933687 102.357399 -35.847139
-11.148714 102.959007 -34.589556
-11.333254 101.487652 -36.893404
-12.696998 101.703762 -36.998474
-11.933687 102.357399 -35.847139
-14.925632 99.081508 -40.427569
-14.170899 100.025436 -39.346008
-16.38526 96.912788 -42.464624
-15.736168 95.871193 -43.296812
7.494459 95.316688 -26.810859
6.983344 96.076042 -25.837325
8.045269 94.425018 -27.679959
6.844748 95.419098 -28.1149
7.494459 95.316688 -26.810859
8.615968 93.425522 -28.53218
8.045269 94.425018 -27.679959
-3.29829 102.200592 -29.677578
-3.969383 102.92014 -28.539748
-2.624991 102.302937 -28.253165
1.777308 94.116264 -36.634278
1.193752 95.357975 -35.940371
2.573085 94.526561 -35.460127
0.918284 93.69529 -37.729709
1.777308 94.116264 -36.634278
-14.462312 95.993412 -43.118643
-13.669039 97.08775 -42.137596
-13.111971 95.94954 -42.955633
-15.736168 95.871193 -43.296812
-14.462312 95.993412 -43.118643
-1.84214 102.241344 -26.895771
-1.049208 102.074199 -25.534229
-1.171046 101.521797 -28.033601
-2.624991 102.302937 -28.253165
-1.84214 102.241344 -26.895771
3.900143 93.648372 -35.000653
2.573085 94.526561 -35.460127
3.316587 94.890083 -34.306745
-8.981593 95.316128 -42.285679
-10.372532 95.53437 -42.599584
-7.502464 94.949654 -41.95769
-8.981593 95.316128 -42.285679
-8.095638 96.131367 -41.306238
-6.11388 94.457818 -41.666912
-7.502464 94.949654 -41.95769
-4.791321 93.975597 -41.335722
-6.11388 94.457818 -41.666912
-5.29395 95.282673 -40.647058
-3.423719 93.474587 -40.913509
-4.791321 93.975597 -41.335722
-2.028336 92.905586 -40.452421
-3.423719 93.474587 -40.913509
-2.576007 94.231453 -39.85478
-0.624826 92.30101 -39.923748
-2.028336 92.905586 -40.452421
-9.572306 103.907188 -31.953002
-8.785585 104.25439 -30.555977
-8.154898 103.515713 -31.758752
-9.572306 103.907188 -31.953002
-10.334552 103.472618 -33.296409
-13.399914 100.898247 -38.202846
-14.000346 101.767994 -37.156582
-12.696998 101.703762 -36.998474
-12.867551 99.961204 -39.1879
-14.170899 100.025436 -39.346008
-13.399914 100.898247 -38.202846
-10.372532 95.53437 -42.599584
-11.744497 95.807389 -42.769763
-10.946732 96.770859 -41.804407
6.484669 93.36158 -32.182014
7.162143 93.526668 -30.99146
-15.616053 98.103122 -41.41234
-14.925632 99.081508 -40.427569
-14.328958 98.110008 -41.315834
-15.616053 98.103122 -41.41234
-16.38526 96.912788 -42.464624
3.065726 99.48405 -24.752326
1.717164 100.399494 -24.997751
3.694642 98.815933 -25.813345
3.065726 99.48405 -24.752326
4.40191 98.0219 -26.738001
3.083343 98.943531 -27.08844
3.694642 98.815933 -25.813345
5.653574 97.102535 -26.354353
6.34298 96.867809 -24.945878
6.983344 96.076042 -25.837325
5.042274 97.230133 -27.629448
4.40191 98.0219 -26.738001
5.653574 97.102535 -26.354353
7.879643 93.531589 -29.750101
7.162143 93.526668 -30.99146
6.678057 94.522507 -30.22536
7.879643 93.531589 -29.750101
8.615968 93.425522 -28.53218
-6.659928 104.044693 -28.889492
-8.06769 104.532768 -29.083348
-5.29718 103.522133 -28.690709
-3.969383 102.92014 -28.539748
-6.005429 103.340355 -30.162944
-6.659928 104.044693 -28.889492
-5.29718 103.522133 -28.690709
0.128985 93.052678 -38.869295
-0.391325 94.305065 -38.254107
0.918284 93.69529 -37.729709
-0.624826 92.30101 -39.923748
0.128985 93.052678 -38.869295
5.826213 93.108734 -33.37229
5.302102 94.26474 -32.656995
6.484669 93.36158 -32.182014
5.104045 92.807975 -34.514729
5.826213 93.108734 -33.37229
3.900143 93.648372 -35.000653
5.104045 92.807975 -34.514729
3 0 12 10
3 0 15 13
3 0 10 15
3 42 41 17
3 43 21 44
3 45 44 19
3 43 44 45
3 46 19 47
3 1 24 22
3 2 26 25
3 3 27 11
3 3 28 27
3 4 48 49
3 5 50 52
3 52 51 14
3 50 51 52
3 5 53 54
3 5 55 57
3 55 29 56
3 55 56 57
3 2 30 16
3 2 25 30
3 6 58 59
3 61 60 18
3 7 33 31
3 9 34 20
3 9 35 34
3 62 36 63
3 64 37 65
3 66 65 36
3 64 65 66
3 68 67 37
3 7 69 71
3 69 38 70
3 69 70 71
3 7 31 38
3 8 39 32
3 72 40 73
3 74 73 23
3 72 73 74
3 76 75 40
3 10 11 2
3 12 11 10
3 12 3 11
3 13 14 4
3 15 14 13
3 15 5 14
3 15 16 5
3 10 16 15
3 10 2 16
3 17 18 6
3 77 18 78
3 79 78 17
3 77 78 79
3 81 80 18
3 19 20 7
3 21 20 19
3 21 9 20
3 19 82 83
3 19 84 86
3 84 7 85
3 84 85 86
3 22 23 8
3 24 23 22
3 24 87 89
3 89 88 23
3 87 88 89
3 25 90 91
3 26 92 94
3 94 93 25
3 92 93 94
3 26 95 96
3 11 26 2
3 27 26 11
3 27 97 99
3 99 98 26
3 97 98 99
3 27 100 101
3 28 102 104
3 104 103 27
3 102 103 104
3 28 105 106
3 14 107 109
3 109 108 4
3 107 108 109
3 111 110 14
3 29 112 114
3 112 113 114
3 29 115 117
3 115 6 116
3 115 116 117
3 16 29 5
3 30 29 16
3 30 6 29
3 30 17 6
3 25 17 30
3 25 118 120
3 120 119 17
3 118 119 120
3 122 121 1
3 18 123 125
3 125 124 6
3 123 124 125
3 127 126 18
3 31 32 0
3 33 32 31
3 33 8 32
3 20 33 7
3 34 33 20
3 34 8 33
3 34 22 8
3 35 22 34
3 35 1 22
3 128 21 129
3 130 21 131
3 132 9 133
3 134 133 21
3 132 133 134
3 36 135 137
3 135 136 137
3 36 138 140
3 138 9 139
3 138 139 140
3 36 35 9
3 37 35 36
3 37 1 35
3 37 141 143
3 143 142 1
3 141 142 143
3 145 144 37
3 146 4 147
3 38 148 149
3 38 150 152
3 150 4 151
3 150 151 152
3 38 13 4
3 31 13 38
3 31 0 13
3 32 12 0
3 39 12 32
3 39 3 12
3 23 39 8
3 40 39 23
3 40 3 39
3 40 28 3
3 153 28 154
3 155 154 40
3 153 154 155
3 157 156 28
3 158 24 159
3 160 159 1
3 158 159 160
3 161 24 162
3 164 163 24
