ply
format ascii 1.0
element vertex 259
property float x
property float y
property float z
element face 255
property list uchar int vertex_index
end_header
-6.936424 -21.424625 58.772488
0.930298 -24.648548 64.645668
-2.355528 -16.310614 63.068176
6.194461 -30.772802 67.259232
4.622661 -14.690897 67.109901
2.100766 -17.52976 65.845985
0.05856 -13.699946 64.465988
-3.107689 -23.138647 61.768482
-1.636421 -27.32695 61.932156
-5.287304 -25.640427 58.962349
-8.733837 -24.05666 55.865208
4.984214 -26.03278 67.187477
3.637497 -21.690853 66.697556
-0.566206 -20.422434 64.097946
-4.608126 -18.862267 61.311089
2.286068 -29.100935 64.79628
-7.174735 -28.511959 55.426567
3.523782 -12.778301 66.359291
2.348571 -14.202653 65.826057
1.336809 -12.335898 65.093689
-5.070773 -22.163057 60.299648
-4.219498 -24.296053 60.473698
-6.026599 -23.511532 58.991081
5.011898 -20.2104 67.518341
-0.055641 -17.077515 64.544807
0.716143 -18.99696 65.007751
-1.310424 -18.294603 63.722385
-2.603709 -19.647612 62.730942
-3.367976 -17.650076 62.337585
2.987437 -25.49345 65.96386
3.705869 -27.607056 66.135704
1.659659 -26.852983 64.794403
-2.792339 -28.65642 60.371159
-0.881011 -29.491747 61.954826
-7.899416 -26.230593 55.770378
-8.702581 -27.650364 53.925907
8.626163 -34.012512 68.142784
6.717171 -33.125309 67.146507
4.72236 -32.134762 65.965744
5.598297 -16.709829 67.747467
4.220347 -18.107895 67.059425
3.302582 -16.104002 66.477386
1.139028 -15.60587 65.219322
-1.035664 -15.101476 63.886333
-1.145104 -23.856407 63.215073
-0.443895 -26.003723 63.318314
-2.321599 -25.227522 61.92123
-3.424433 -26.41268 60.544487
-4.4732 -27.857178 58.931114
-7.874757 -22.612558 57.429996
4.411833 -23.868971 67.033417
2.227671 -23.229713 65.71701
2.889791 -19.544424 66.314796
1.540835 -20.955282 65.447517
0.250177 -22.475195 64.457634
-1.739019 -21.749323 63.11211
-3.771062 -21.0903 61.640579
-5.731765 -20.202387 60.174934
-0.792782 -11.798322 63.787647
-1.996694 -13.088625 63.169727
-3.126308 -14.31417 62.520771
-4.34127 -15.598263 61.715309
-5.450345 -16.851803 60.853302
-6.69507 -18.20665 59.711975
-7.64158 -19.407505 58.645039
5.747869 -28.289658 67.377586
4.204246 -29.79439 66.084068
2.791122 -31.383696 64.644318
0.36775 -28.146624 63.464005
1.07404 -30.515877 63.425255
-7.023277 -24.825504 57.450401
-6.221461 -27.125782 57.310547
1.890551 -11.568475 65.323021
2.430296 -12.557099 65.72649
2.984038 -11.789677 65.955822
2.984038 -11.789677 65.955822
4.054398 -11.926411 66.557995
3.514654 -10.937787 66.154526
5.731352 -19.556757 67.895977
6.157319 -20.593066 68.127544
-2.438469 -29.770843 60.313277
-3.29052 -29.467646 59.505167
-9.523847 -27.173703 53.103541
-9.136883 -26.539511 54.022185
9.322221 -33.154518 68.673031
9.522358 -34.430866 68.537525
6.455816 -31.949056 67.202869
7.405755 -32.363155 67.714371
7.1444 -31.186901 67.770733
5.686348 -14.904701 67.67873
5.206376 -13.936604 67.357288
5.110479 -15.700363 67.428684
6.174167 -15.914167 67.997513
5.686348 -14.904701 67.67873
4.024665 -22.779912 66.865487
5.157875 -23.133908 67.501236
4.770707 -22.044849 67.333305
-1.369609 -10.877724 63.3262
-0.2697 -11.121632 64.019758
-3.046733 -12.780044 62.470511
-2.438843 -12.144979 62.802729
-3.61154 -13.392816 62.146033
-2.561501 -13.701398 62.845249
-3.046733 -12.780044 62.470511
-5.360815 -15.225833 60.97855
-4.793514 -14.682361 61.387684
-5.915353 -15.852603 60.547546
-4.895808 -16.225033 61.284306
-5.360815 -15.225833 60.97855
-7.651953 -17.758992 58.948677
-7.054854 -17.175897 59.535448
-8.125208 -18.359419 58.415209
-7.168325 -18.807077 59.178507
-7.651953 -17.758992 58.948677
-8.601907 -18.983646 57.826825
-8.125208 -18.359419 58.415209
5.366041 -27.161219 67.282532
6.462455 -27.567726 67.886257
6.080628 -26.439287 67.791202
0.391959 -31.17903 62.580953
0.096515 -30.003812 62.69004
-0.585567 -30.666965 61.845739
1.262946 -31.70443 63.239494
0.391959 -31.17903 62.580953
-6.320885 -28.8461 56.310703
-5.844247 -28.153011 57.252693
-6.698098 -27.818871 56.368557
6.904763 -30.005924 67.812767
7.1444 -31.186901 67.770733
4.656937 -12.980306 66.981983
4.054398 -11.926411 66.557995
4.073221 -13.734599 66.734596
5.206376 -13.936604 67.357288
4.656937 -12.980306 66.981983
5.457908 -21.304623 67.743698
6.157319 -20.593066 68.127544
4.324698 -20.950626 67.107949
4.770707 -22.044849 67.333305
5.457908 -21.304623 67.743698
-1.482805 -30.188507 61.10511
-1.836675 -29.074084 61.162993
-2.438469 -29.770843 60.313277
-0.585567 -30.666965 61.845739
-1.482805 -30.188507 61.10511
-8.735301 -25.829626 54.94442
-8.316626 -25.143626 55.817793
-9.152511 -24.74266 54.991835
-8.300999 -26.940478 54.848143
-8.735301 -25.829626 54.94442
-9.136883 -26.539511 54.022185
8.774101 -35.256691 67.949002
9.522358 -34.430866 68.537525
7.830405 -34.796869 67.47049
8.774101 -35.256691 67.949002
8.360251 -32.806756 68.212509
9.322221 -33.154518 68.673031
7.671667 -33.568911 67.644645
8.360251 -32.806756 68.212509
7.405755 -32.363155 67.714371
6.875909 -34.353268 66.972351
7.830405 -34.796869 67.47049
7.671667 -33.568911 67.644645
5.977749 -33.811898 66.466106
6.875909 -34.353268 66.972351
4.980344 -33.316624 65.875725
5.977749 -33.811898 66.466106
5.719765 -32.630036 66.556126
4.006899 -32.87038 65.216057
4.264883 -34.052242 65.126038
4.980344 -33.316624 65.875725
4.909322 -17.408862 67.403446
5.335576 -18.505505 67.666519
6.024551 -17.806472 68.01054
6.664378 -16.943606 68.302101
6.174167 -15.914167 67.997513
6.024551 -17.806472 68.01054
6.664378 -16.943606 68.302101
-4.130951 -29.068025 58.785145
-3.29052 -29.467646 59.505167
-3.63277 -28.256799 59.651136
-8.335055 -21.577205 57.315416
-7.40559 -22.018591 58.101242
-7.865889 -20.983238 57.986662
-8.731274 -22.318388 56.615028
-8.335055 -21.577205 57.315416
-9.160813 -23.040439 55.832634
-8.304297 -23.334609 56.647602
-8.731274 -22.318388 56.615028
-9.61668 -23.589855 55.038905
-9.160813 -23.040439 55.832634
-9.152511 -24.74266 54.991835
-9.61668 -23.589855 55.038905
5.734943 -25.362913 67.684444
6.080628 -26.439287 67.791202
5.448753 -24.281008 67.607415
5.157875 -23.133908 67.501236
4.698023 -24.950875 67.110447
5.734943 -25.362913 67.684444
5.448753 -24.281008 67.607415
4.616123 -19.159147 67.288883
5.731352 -19.556757 67.895977
5.335576 -18.505505 67.666519
0.795095 -11.39042 64.672779
1.890551 -11.568475 65.323021
0.272013 -12.06711 64.440668
0.795095 -11.39042 64.672779
-0.2697 -11.121632 64.019758
-1.836887 -11.499827 63.111688
-1.369609 -10.877724 63.3262
-2.413714 -10.579228 62.650242
-1.394738 -12.443473 63.478687
-1.836887 -11.499827 63.111688
-2.438843 -12.144979 62.802729
-4.186033 -14.040315 61.790415
-3.61154 -13.392816 62.146033
-3.733789 -14.956217 62.11804
-4.186033 -14.040315 61.790415
-4.793514 -14.682361 61.387684
-6.432491 -16.498473 60.106111
-5.915353 -15.852603 60.547546
-6.072707 -17.529227 60.282639
-6.432491 -16.498473 60.106111
-7.054854 -17.175897 59.535448
-8.218466 -19.974678 57.922938
-7.865889 -20.983238 57.986662
-7.289002 -20.416065 58.708764
-8.218466 -19.974678 57.922938
-8.601907 -18.983646 57.826825
6.681466 -28.764352 67.871944
6.462455 -27.567726 67.886257
5.971165 -29.53123 67.318409
6.904763 -30.005924 67.812767
6.681466 -28.764352 67.871944
3.04128 -32.494847 64.555344
4.006899 -32.87038 65.216057
3.756741 -31.759229 65.305031
2.121487 -32.138339 63.849026
1.932581 -30.949787 64.034786
1.262946 -31.70443 63.239494
3.04128 -32.494847 64.555344
2.121487 -32.138339 63.849026
-4.970117 -28.518709 58.062977
-5.34733 -27.49148 58.12083
-5.844247 -28.153011 57.252693
-4.130951 -29.068025 58.785145
-4.970117 -28.518709 58.062977
-9.037792 -28.258997 53.052965
-9.523847 -27.173703 53.103541
-9.859057 -27.782336 52.230598
-8.294393 -28.793737 53.759129
-9.037792 -28.258997 53.052965
-8.629603 -29.40237 52.886187
-7.53047 -29.224535 54.509459
-7.938658 -28.081162 54.676237
-8.294393 -28.793737 53.759129
-6.763755 -29.619894 55.323853
-7.53047 -29.224535 54.509459
-6.320885 -28.8461 56.310703
-6.763755 -29.619894 55.323853
3 72 19 73
3 74 73 17
3 72 73 74
3 75 17 76
3 75 76 77
3 0 22 20
3 78 23 79
3 2 26 24
3 2 28 26
3 1 31 29
3 81 80 32
3 82 35 83
3 84 36 85
3 3 86 88
3 86 37 87
3 86 87 88
3 3 38 37
3 4 41 39
3 6 42 18
3 6 43 42
3 4 89 90
3 4 91 93
3 91 39 92
3 91 92 93
3 7 46 44
3 9 47 21
3 9 48 47
3 12 94 96
3 94 50 95
3 94 95 96
3 12 51 50
3 5 52 40
3 13 53 25
3 13 54 53
3 13 55 54
3 14 56 27
3 14 57 56
3 97 58 98
3 99 59 100
3 101 60 102
3 103 102 59
3 101 102 103
3 104 61 105
3 106 62 107
3 108 107 61
3 106 107 108
3 109 63 110
3 111 64 112
3 113 112 63
3 111 112 113
3 115 114 64
3 11 116 118
3 116 65 117
3 116 117 118
3 15 66 30
3 15 67 66
3 8 68 45
3 119 69 120
3 121 120 33
3 119 120 121
3 123 122 69
3 10 70 49
3 16 71 34
3 16 124 126
3 126 125 71
3 124 125 126
3 127 3 128
3 17 18 4
3 19 18 17
3 19 6 18
3 17 129 130
3 17 131 133
3 131 4 132
3 131 132 133
3 20 21 7
3 22 21 20
3 22 9 21
3 23 134 135
3 23 136 138
3 136 12 137
3 136 137 138
3 24 25 5
3 26 25 24
3 26 13 25
3 26 27 13
3 28 27 26
3 28 14 27
3 29 30 11
3 31 30 29
3 31 15 30
3 32 33 8
3 139 33 140
3 141 140 32
3 139 140 141
3 143 142 33
3 144 34 145
3 146 145 10
3 144 145 146
3 35 147 149
3 147 34 148
3 147 148 149
3 35 16 34
3 36 150 151
3 36 152 153
3 154 36 155
3 37 156 158
3 156 36 157
3 156 157 158
3 37 159 161
3 161 160 36
3 159 160 161
3 37 162 163
3 38 164 166
3 166 165 37
3 164 165 166
3 38 167 169
3 167 168 169
3 39 170 172
3 170 40 171
3 170 171 172
3 41 40 39
3 41 5 40
3 18 41 4
3 42 41 18
3 42 5 41
3 42 24 5
3 43 24 42
3 43 2 24
3 39 173 174
3 39 175 176
3 44 45 1
3 46 45 44
3 46 8 45
3 21 46 7
3 47 46 21
3 47 8 46
3 47 32 8
3 48 32 47
3 48 177 179
3 179 178 32
3 177 178 179
3 180 49 181
3 182 181 0
3 180 181 182
3 183 49 184
3 185 10 186
3 187 186 49
3 185 186 187
3 188 10 189
3 191 190 10
3 192 11 193
3 50 194 195
3 50 196 198
3 196 11 197
3 196 197 198
3 50 29 11
3 51 29 50
3 51 1 29
3 40 199 201
3 199 23 200
3 199 200 201
3 52 23 40
3 52 12 23
3 25 52 5
3 53 52 25
3 53 12 52
3 53 51 12
3 54 51 53
3 54 1 51
3 54 44 1
3 55 44 54
3 55 7 44
3 27 55 13
3 56 55 27
3 56 7 55
3 56 20 7
3 57 20 56
3 57 0 20
3 202 19 203
3 58 204 206
3 204 19 205
3 204 205 206
3 58 6 19
3 207 58 208
3 207 208 209
3 59 210 212
3 210 58 211
3 210 211 212
3 59 6 58
3 59 43 6
3 60 43 59
3 60 2 43
3 213 60 214
3 61 215 217
3 215 60 216
3 215 216 217
3 61 2 60
3 61 28 2
3 62 28 61
3 62 14 28
3 218 62 219
3 63 220 222
3 220 62 221
3 220 221 222
3 63 14 62
3 63 57 14
3 64 57 63
3 64 0 57
3 64 223 225
3 225 224 0
3 223 224 225
3 227 226 64
3 65 228 229
3 65 230 232
3 230 3 231
3 230 231 232
3 30 65 11
3 66 65 30
3 66 3 65
3 66 38 3
3 67 38 66
3 67 233 235
3 235 234 38
3 233 234 235
3 45 31 1
3 68 31 45
3 68 15 31
3 33 68 8
3 69 68 33
3 69 15 68
3 69 67 15
3 236 67 237
3 238 237 69
3 236 237 238
3 240 239 67
3 49 22 0
3 70 22 49
3 70 9 22
3 34 70 10
3 71 70 34
3 71 9 70
3 71 48 9
3 241 48 242
3 243 242 71
3 241 242 243
3 245 244 48
3 246 35 247
3 246 247 248
3 249 35 250
3 249 250 251
3 252 16 253
3 254 253 35
3 252 253 254
3 255 16 256
3 258 257 16
