ply
format ascii 1.0
element vertex 267
property float x
property float y
property float z
element face 240
property list uchar int vertex_index
end_header
16.068132 -40.252865 -53.615582
-4.579156 -45.625961 -44.407036
3.057129 -39.254333 -50.354649
21.987591 -46.646782 -50.853413
-1.714025 -37.096523 -47.613861
7.097048 -35.729259 -53.045143
19.035744 -43.696529 -52.434822
20.670744 -34.879635 -55.424686
-3.911883 -51.66251 -44.358181
0.247922 -48.342819 -47.145363
-0.910508 -42.824429 -47.39175
1.570055 -34.047184 -50.684971
11.473126 -45.518597 -51.529053
4.75309 -44.73962 -49.840061
9.055471 -40.765041 -52.2798
13.364879 -36.351845 -54.576813
17.474382 -42.163548 -53.025089
19.749537 -39.361832 -53.879433
18.372089 -37.687775 -54.528343
19.111776 -33.531048 -55.993645
16.889463 -35.846832 -55.13018
-6.174724 -49.634254 -42.884407
-5.872509 -52.672245 -42.954582
-4.352693 -48.686481 -44.341534
-2.356387 -47.093464 -45.8587
-2.776134 -44.15942 -45.93425
-0.568431 -32.889679 -49.21014
-0.108983 -35.705635 -49.13435
1.626958 -44.079948 -48.608829
2.568639 -46.480339 -48.576138
3.772247 -42.156319 -50.017494
8.071516 -38.321777 -52.650246
10.039312 -36.126534 -53.899845
11.209859 -38.490673 -53.485329
-4.734184 -42.61866 -44.441265
-3.085865 -41.418121 -45.978622
-3.351477 -38.434525 -45.984768
-2.123996 -34.419418 -47.523533
4.105123 -34.789661 -51.997036
4.989758 -37.714027 -51.639008
20.384369 -45.476707 -51.637829
21.284252 -40.844341 -53.166439
21.971169 -36.479103 -54.676167
-1.860472 -49.915653 -45.785557
-0.379221 -45.598507 -47.266052
1.036837 -41.121704 -48.876022
-1.313932 -39.925663 -47.551521
0.330239 -38.432556 -48.95723
2.220126 -36.747993 -50.483742
15.112739 -44.835297 -52.132511
13.798998 -42.640766 -52.68235
5.690564 -47.264706 -49.631397
5.99103 -40.263908 -51.386536
6.947749 -42.643188 -51.129894
8.008877 -45.365128 -50.787418
10.374434 -42.868744 -52.036835
12.544366 -40.742317 -53.073925
14.77583 -38.104649 -54.203793
15.605727 -33.777695 -55.739498
-5.37694 -47.630107 -43.645722
-6.22604 -48.082971 -42.885627
-5.428256 -46.078825 -43.646942
0.201358 -32.091537 -50.022717
-0.091556 -30.870137 -50.007525
10.499558 -33.981732 -54.709297
9.514354 -34.878407 -54.124891
11.094026 -35.161036 -54.470298
10.499558 -33.981732 -54.709297
23.131469 -45.140286 -51.103313
22.617859 -47.418997 -50.349049
-4.781092 -41.000982 -44.440416
-5.492091 -43.025753 -43.683642
-4.089739 -38.908915 -45.212168
-4.04283 -40.526592 -45.213017
-4.781092 -41.000982 -44.440416
-2.251424 -33.024097 -47.506649
-2.855459 -34.999958 -46.707543
-1.582229 -32.370126 -48.320605
-2.251424 -33.024097 -47.506649
5.059342 -33.970844 -52.680445
4.601017 -32.684641 -52.84816
21.729487 -33.45829 -55.834606
22.3797 -34.258024 -55.460346
21.320957 -35.679369 -55.050427
20.940295 -32.782719 -56.190155
21.729487 -33.45829 -55.834606
19.45552 -31.285946 -56.822815
18.444404 -32.411392 -56.388976
-4.716412 -53.690256 -43.668593
-5.696725 -54.195123 -42.966793
-4.892196 -52.167378 -43.656382
-3.58234 -52.977459 -44.41588
-4.716412 -53.690256 -43.668593
-2.886178 -50.789081 -45.071869
-2.556635 -52.104031 -45.129568
-3.58234 -52.977459 -44.41588
2.444646 -33.100268 -51.476342
2.769681 -34.450672 -51.375727
1.895091 -35.397588 -50.584356
14.541442 -47.068323 -51.449469
15.808446 -45.679062 -51.887018
12.055729 -46.510199 -51.342776
10.802087 -47.786118 -50.828943
12.636062 -44.079681 -52.105701
13.218664 -45.071283 -51.919424
12.055729 -46.510199 -51.342776
0.654678 -49.713745 -47.113478
-0.498556 -50.569355 -46.436568
4.059038 -46.991415 -49.108869
2.966812 -47.861774 -48.476908
3.660865 -45.60998 -49.2081
5.221827 -46.002163 -49.735729
4.527774 -48.253958 -49.004537
4.059038 -46.991415 -49.108869
17.333248 -33.569283 -55.957243
18.444404 -32.411392 -56.388976
18.000619 -34.68894 -55.561913
-6.993342 -50.0466 -42.157713
-6.22604 -48.082971 -42.885627
-6.941607 -51.667883 -42.189028
-6.993342 -50.0466 -42.157713
-6.023617 -51.15325 -42.919494
-6.790499 -53.186878 -42.224115
-6.941607 -51.667883 -42.189028
0.431083 -33.499515 -49.984821
-0.338707 -34.297657 -49.172245
0.201358 -32.091537 -50.022717
1.270601 -32.670289 -50.760132
0.730536 -34.87641 -49.909661
0.431083 -33.499515 -49.984821
2.062012 -31.815061 -51.564298
1.270601 -32.670289 -50.760132
10.31081 -46.513537 -51.041574
10.802087 -47.786118 -50.828943
8.530456 -35.976028 -53.500091
7.584282 -37.025518 -52.847695
8.043223 -34.679769 -53.69754
9.055414 -37.224155 -53.275046
8.530456 -35.976028 -53.500091
9.514354 -34.878407 -54.124891
11.679299 -36.343106 -54.263041
10.624586 -37.308604 -53.692587
11.094026 -35.161036 -54.470298
12.756809 -35.273691 -54.808782
12.287369 -37.421259 -54.031071
11.679299 -36.343106 -54.263041
13.837722 -34.113943 -55.401443
12.756809 -35.273691 -54.808782
-5.505769 -44.575175 -43.664057
-5.492091 -43.025753 -43.683642
-4.65667 -44.12231 -44.42415
-5.428256 -46.078825 -43.646942
-5.505769 -44.575175 -43.664057
-3.469199 -37.007511 -45.93816
-4.089739 -38.908915 -45.212168
-4.207461 -37.481901 -45.16556
-2.737737 -36.426972 -46.754151
-3.469199 -37.007511 -45.93816
-2.855459 -34.999958 -46.707543
-0.804447 -31.605256 -49.163908
-1.346213 -33.654549 -48.366837
-1.582229 -32.370126 -48.320605
-0.091556 -30.870137 -50.007525
-0.804447 -31.605256 -49.163908
5.50166 -35.433027 -52.50143
4.547441 -36.251844 -51.818022
5.059342 -33.970844 -52.680445
6.555305 -34.440643 -53.204498
6.043403 -36.721643 -52.342075
5.50166 -35.433027 -52.50143
7.463342 -33.540382 -53.85311
6.555305 -34.440643 -53.204498
8.043223 -34.679769 -53.69754
7.463342 -33.540382 -53.85311
21.55516 -43.868494 -51.992401
22.35677 -44.453531 -51.600193
21.18598 -46.061745 -51.245621
22.005101 -41.552311 -52.756706
21.55516 -43.868494 -51.992401
20.834311 -43.160524 -52.402134
22.435001 -39.387294 -53.489126
22.005101 -41.552311 -52.756706
22.778459 -37.204676 -54.24399
22.435001 -39.387294 -53.489126
21.62771 -38.661722 -53.921303
23.10231 -35.050459 -55.012295
22.778459 -37.204676 -54.24399
23.10231 -35.050459 -55.012295
22.3797 -34.258024 -55.460346
20.160811 -32.108425 -56.474635
20.940295 -32.782719 -56.190155
19.89126 -34.205342 -55.709165
20.160811 -32.108425 -56.474635
19.45552 -31.285946 -56.822815
-6.688136 -54.697186 -42.254423
-6.790499 -53.186878 -42.224115
-6.688136 -54.697186 -42.254423
-5.696725 -54.195123 -42.966793
-1.552753 -51.355772 -45.756664
-2.556635 -52.104031 -45.129568
-0.806275 -49.129236 -46.46546
-0.498556 -50.569355 -46.436568
-1.552753 -51.355772 -45.756664
3.71218 -33.471506 -52.132374
3.162624 -35.768827 -51.240389
2.769681 -34.450672 -51.375727
4.601017 -32.684641 -52.84816
3.71218 -33.471506 -52.132374
2.444646 -33.100268 -51.476342
2.062012 -31.815061 -51.564298
21.388344 -48.894131 -50.15741
22.617859 -47.418997 -50.349049
20.649686 -48.315945 -50.541159
21.388344 -48.894131 -50.15741
19.848075 -47.730907 -50.933367
21.18598 -46.061745 -51.245621
20.649686 -48.315945 -50.541159
19.152319 -46.837514 -51.332947
19.848075 -47.730907 -50.933367
18.478006 -45.947425 -51.731443
19.710057 -44.586618 -52.036326
19.152319 -46.837514 -51.332947
17.769949 -45.109678 -52.038173
18.478006 -45.947425 -51.731443
16.989268 -44.343187 -52.333307
18.255063 -42.930038 -52.729956
17.769949 -45.109678 -52.038173
16.29356 -43.499422 -52.5788
16.989268 -44.343187 -52.333307
15.808446 -45.679062 -51.887018
13.875535 -46.168549 -51.644504
14.541442 -47.068323 -51.449469
14.455868 -43.738031 -52.407431
13.875535 -46.168549 -51.644504
13.218664 -45.071283 -51.919424
1.815036 -48.782505 -47.828865
0.654678 -49.713745 -47.113478
1.408281 -47.411579 -47.860751
1.815036 -48.782505 -47.828865
2.966812 -47.861774 -48.476908
4.989654 -49.623369 -48.918405
4.527774 -48.253958 -49.004537
6.237284 -48.546149 -49.523258
4.989654 -49.623369 -48.918405
7.396441 -47.596359 -50.101269
6.237284 -48.546149 -49.523258
6.849721 -46.314917 -50.209407
8.578685 -46.436802 -50.670757
7.396441 -47.596359 -50.101269
9.761464 -45.18861 -51.295466
8.578685 -46.436802 -50.670757
9.191655 -44.116936 -51.412126
10.92378 -44.19367 -51.782944
10.31081 -46.513537 -51.041574
9.761464 -45.18861 -51.295466
16.69138 -32.534715 -56.261902
17.333248 -33.569283 -55.957243
16.247595 -34.812264 -55.434839
14.958146 -32.826868 -55.982786
14.485303 -35.06477 -55.158155
13.837722 -34.113943 -55.401443
15.939118 -31.623137 -56.538236
14.958146 -32.826868 -55.982786
16.69138 -32.534715 -56.261902
15.939118 -31.623137 -56.538236
23.131469 -45.140286 -51.103313
22.35677 -44.453531 -51.600193
3 0 18 16
3 0 20 18
3 1 59 61
3 59 21 60
3 59 60 61
3 1 23 21
3 1 25 23
3 63 62 26
3 2 30 28
3 64 32 65
3 67 66 32
3 3 68 69
3 70 34 71
3 72 36 73
3 74 73 34
3 72 73 74
3 75 37 76
3 78 77 37
3 80 79 38
3 6 41 40
3 7 42 17
3 7 81 83
3 83 82 42
3 81 82 83
3 7 84 85
3 87 86 19
3 8 88 90
3 90 89 22
3 88 89 90
3 8 91 92
3 8 93 95
3 93 43 94
3 93 94 95
3 10 44 24
3 10 45 44
3 4 46 35
3 11 47 27
3 11 48 47
3 11 96 98
3 98 97 48
3 96 97 98
3 99 49 100
3 12 101 102
3 12 103 105
3 103 50 104
3 103 104 105
3 9 106 107
3 13 108 110
3 110 109 29
3 108 109 110
3 13 111 113
3 111 51 112
3 111 112 113
3 5 52 39
3 14 53 31
3 14 54 53
3 14 55 54
3 15 56 33
3 15 57 56
3 15 58 57
3 16 17 6
3 18 17 16
3 18 7 17
3 18 19 7
3 20 19 18
3 20 114 116
3 116 115 19
3 114 115 116
3 21 117 118
3 21 119 120
3 21 121 123
3 121 22 122
3 121 122 123
3 23 22 21
3 23 8 22
3 23 24 8
3 25 24 23
3 25 10 24
3 26 27 4
3 124 27 125
3 126 125 26
3 124 125 126
3 127 11 128
3 129 128 27
3 127 128 129
3 131 130 11
3 132 12 133
3 28 29 9
3 30 29 28
3 30 13 29
3 134 31 135
3 136 135 5
3 134 135 136
3 32 137 139
3 137 31 138
3 137 138 139
3 32 14 31
3 32 33 14
3 140 33 141
3 142 141 32
3 140 141 142
3 143 15 144
3 145 144 33
3 143 144 145
3 147 146 15
3 34 148 149
3 34 150 152
3 150 1 151
3 150 151 152
3 34 35 1
3 36 35 34
3 36 4 35
3 153 36 154
3 153 154 155
3 37 156 158
3 156 36 157
3 156 157 158
3 37 4 36
3 37 26 4
3 159 26 160
3 161 160 37
3 159 160 161
3 163 162 26
3 38 39 2
3 164 39 165
3 166 165 38
3 164 165 166
3 167 5 168
3 169 168 39
3 167 168 169
3 170 5 171
3 173 172 5
3 40 174 176
3 176 175 3
3 174 175 176
3 41 177 179
3 179 178 40
3 177 178 179
3 41 180 181
3 17 41 6
3 42 41 17
3 42 182 184
3 184 183 41
3 182 183 184
3 42 185 186
3 188 187 42
3 19 189 191
3 191 190 7
3 189 190 191
3 193 192 19
3 22 194 195
3 197 196 22
3 43 198 199
3 43 200 202
3 200 9 201
3 200 201 202
3 24 43 8
3 44 43 24
3 44 9 43
3 44 28 9
3 45 28 44
3 45 2 28
3 35 25 1
3 46 25 35
3 46 10 25
3 27 46 4
3 47 46 27
3 47 10 46
3 47 45 10
3 48 45 47
3 48 2 45
3 48 38 2
3 203 38 204
3 205 204 48
3 203 204 205
3 207 206 38
3 209 208 11
3 210 3 211
3 212 3 213
3 214 40 215
3 216 215 3
3 214 215 216
3 217 40 218
3 219 6 220
3 221 220 40
3 219 220 221
3 222 6 223
3 224 16 225
3 226 225 6
3 224 225 226
3 49 227 229
3 227 16 228
3 227 228 229
3 49 0 16
3 230 49 231
3 50 232 234
3 232 49 233
3 232 233 234
3 50 0 49
3 29 235 237
3 237 236 9
3 235 236 237
3 239 238 29
3 51 240 241
3 51 242 243
3 39 30 2
3 52 30 39
3 52 13 30
3 31 52 5
3 53 52 31
3 53 13 52
3 53 51 13
3 54 51 53
3 54 244 246
3 246 245 51
3 244 245 246
3 54 247 248
3 55 249 251
3 251 250 54
3 249 250 251
3 55 252 254
3 252 12 253
3 252 253 254
3 33 55 14
3 56 55 33
3 56 12 55
3 56 50 12
3 57 50 56
3 57 0 50
3 57 20 0
3 58 20 57
3 58 255 257
3 257 256 20
3 255 256 257
3 258 58 259
3 260 259 15
3 258 259 260
3 261 58 262
3 264 263 58
3 266 265 3
