ply
format ascii 1.0
element vertex 260
property float x
property float y
property float z
element face 237
property list uchar int vertex_index
end_header
11.61523 -10.653358 52.686611
16.950853 -2.571486 47.445637
18.242695 -9.286576 46.274136
18.944235 -16.679714 43.733902
13.646678 -3.237981 50.611561
14.950627 -9.988445 49.49762
15.447083 -13.401865 48.328075
18.605309 -12.844027 45.25375
7.123706 -8.213927 56.601154
10.890697 -7.344146 53.399223
20.350273 -1.620867 44.016579
14.402196 -6.554708 50.175835
17.735773 -5.781455 46.948166
20.982195 -5.099513 43.768402
21.426613 -8.705928 43.251301
5.584577 -10.151983 57.909634
7.45627 -9.840132 56.390644
16.638811 -0.926565 47.503597
18.226143 -0.52492 45.902729
18.663265 -2.049339 45.723667
11.155531 -9.037118 53.188721
12.734161 -6.961051 51.736774
12.96825 -8.621107 51.525822
16.734982 -9.57352 47.75272
16.370804 -7.967737 48.258156
17.984774 -7.521451 46.684151
19.308538 -5.454839 45.405373
19.58527 -7.2228 45.120049
21.115177 -7.048378 43.646324
19.777769 -9.095914 44.784321
18.76911 -14.711129 44.573662
20.169907 -12.686754 43.79409
20.267649 -14.672518 43.185776
19.076857 -18.615683 42.861488
15.260917 -2.888072 49.083221
13.244447 -10.302265 51.152344
13.559484 -11.997168 50.601757
15.318024 -11.698295 48.853817
16.840464 -11.47457 47.334427
18.368309 -11.089802 45.868732
17.007971 -13.247571 46.749985
17.328856 -14.860579 45.94701
10.462182 -5.732622 53.662075
9.06043 -7.812957 54.989262
9.346004 -9.491169 54.787807
9.662457 -11.125377 54.458328
3.672295 -10.469137 59.394451
1.599317 -10.81458 60.928825
2.100901 -12.398242 60.627701
12.221488 -5.373197 52.101547
13.946991 -4.888692 50.50531
15.66044 -4.516881 48.877644
14.735226 -8.217075 49.848652
16.107288 -6.207187 48.541145
17.273109 -4.182552 47.311039
18.978844 -3.624066 45.609512
20.54752 -3.412352 44.064255
19.985865 -10.807499 44.34193
21.587494 -10.588039 42.884071
5.770803 -10.980545 57.764406
4.860095 -11.141286 58.492947
19.725872 -16.630784 43.054001
20.387579 -15.627186 42.779938
19.605942 -15.676116 43.459839
19.010546 -17.647699 43.297695
19.792183 -17.598768 42.617794
19.725872 -16.630784 43.054001
14.372044 -2.191693 49.803922
14.215976 -1.396147 49.841688
13.490609 -2.442435 50.649327
14.453798 -3.063027 49.847391
15.179164 -2.016739 49.039753
14.372044 -2.191693 49.803922
12.863357 -13.012454 51.107764
12.690126 -12.228171 51.436685
15.382554 -12.55008 48.590946
14.550898 -12.706267 49.425226
14.615427 -13.558052 49.162355
16.635669 -15.929231 46.272222
16.503854 -15.034125 46.743973
17.397029 -15.821589 45.533611
16.635669 -15.929231 46.272222
8.092068 -8.013442 55.795208
8.814428 -7.009982 55.135811
7.846065 -7.210468 55.941757
8.59641 -10.438761 55.416112
8.401137 -9.66565 55.589225
7.651543 -10.613243 56.217531
8.754637 -11.255865 55.251373
9.504231 -10.308273 54.623068
8.59641 -10.438761 55.416112
3.408734 -9.678241 59.537468
4.450356 -9.458835 58.746223
0.75798 -11.740492 61.568352
0.583457 -10.875405 61.639856
1.008772 -12.532322 61.417789
1.850109 -11.606411 60.778263
0.75798 -11.740492 61.568352
1.359892 -13.339613 61.182897
1.008772 -12.532322 61.417789
20.914649 -0.622795 43.274916
20.118316 -0.767709 44.089323
21.136298 -1.437043 43.220253
20.914649 -0.622795 43.274916
21.552801 -4.119005 43.141215
21.335463 -3.275424 43.289141
20.764857 -4.255933 43.916329
21.752032 -5.044159 43.029192
21.552801 -4.119005 43.141215
22.096061 -7.719148 42.673941
21.940343 -6.890373 42.871453
21.270895 -7.877153 43.448813
22.232509 -8.666595 42.513514
22.096061 -7.719148 42.673941
21.630961 -11.620638 42.661642
20.878701 -11.637397 43.33908
20.922168 -12.669995 43.116652
22.351578 -10.641737 42.19688
21.630961 -11.620638 42.661642
12.792483 -3.419274 51.393102
13.490609 -2.442435 50.649327
12.636415 -2.623728 51.430868
14.76315 -14.385284 48.76477
14.615427 -13.558052 49.162355
15.562968 -14.304768 47.934506
14.76315 -14.385284 48.76477
6.706649 -10.82462 57.004912
6.520423 -9.996057 57.150139
5.770803 -10.980545 57.764406
7.651543 -10.613243 56.217531
6.706649 -10.82462 57.004912
17.240732 0.094763 46.735632
16.487277 -0.041997 47.494695
18.034398 0.295585 45.935198
17.240732 0.094763 46.735632
17.432477 -0.725742 46.703163
18.853434 0.549458 45.071657
18.66169 1.369963 45.104126
18.034398 0.295585 45.935198
19.056251 -0.219735 45.032398
18.853434 0.549458 45.071657
19.274811 -0.981944 44.942867
19.056251 -0.219735 45.032398
18.444704 -1.287129 45.813198
19.506769 -1.835103 44.870123
20.118316 -0.767709 44.089323
19.274811 -0.981944 44.942867
20.971039 -13.662877 42.812494
20.922168 -12.669995 43.116652
20.218778 -13.679636 43.489933
21.05725 -14.622489 42.512361
20.971039 -13.662877 42.812494
21.05725 -14.622489 42.512361
20.387579 -15.627186 42.779938
19.838306 -18.657575 42.207293
20.553632 -17.64066 41.963599
19.792183 -17.598768 42.617794
19.107641 -19.537861 42.450819
19.838306 -18.657575 42.207293
15.868111 -1.035985 48.249941
16.487277 -0.041997 47.494695
15.949864 -1.907319 48.293409
15.868111 -1.035985 48.249941
15.179164 -2.016739 49.039753
12.532607 -11.380719 51.711979
12.429838 -10.477812 51.919477
11.717999 -11.556266 52.479112
13.401965 -11.149717 50.87705
12.532607 -11.380719 51.711979
12.690126 -12.228171 51.436685
13.671628 -12.855704 50.299196
12.863357 -13.012454 51.107764
14.438754 -11.847732 49.727787
13.671628 -12.855704 50.299196
14.550898 -12.706267 49.425226
16.343412 -14.227621 47.14546
16.227527 -13.324718 47.53903
15.562968 -14.304768 47.934506
17.168413 -14.054075 46.348498
16.343412 -14.227621 47.14546
16.503854 -15.034125 46.743973
18.117156 -15.746864 44.846937
18.048983 -14.785854 45.260336
17.397029 -15.821589 45.533611
18.204718 -16.731157 44.427058
18.856673 -15.695422 44.153782
18.117156 -15.746864 44.846937
18.258602 -17.701081 43.969475
18.204718 -16.731157 44.427058
9.515303 -5.969815 54.472217
10.293399 -4.989736 53.730064
9.761306 -6.77279 54.325668
9.515303 -5.969815 54.472217
8.814428 -7.009982 55.135811
8.960767 -12.064658 55.01667
8.754637 -11.255865 55.251373
9.875452 -11.887605 54.190902
8.960767 -12.064658 55.01667
10.851838 -11.651596 53.305044
10.638844 -10.889368 53.572469
9.875452 -11.887605 54.190902
11.717999 -11.556266 52.479112
10.851838 -11.651596 53.305044
6.958906 -7.386796 56.664463
7.846065 -7.210468 55.941757
6.176062 -8.33123 57.349575
6.958906 -7.386796 56.664463
5.406498 -9.300258 58.003815
6.354142 -9.182955 57.255394
6.176062 -8.33123 57.349575
4.628436 -10.31056 58.652042
5.406498 -9.300258 58.003815
4.450356 -9.458835 58.746223
3.903955 -11.299864 59.235355
4.860095 -11.141286 58.492947
4.628436 -10.31056 58.652042
1.374932 -9.921379 61.019821
0.583457 -10.875405 61.639856
2.372245 -9.850962 60.304655
1.374932 -9.921379 61.019821
2.635806 -10.641858 60.161638
3.408734 -9.678241 59.537468
2.372245 -9.850962 60.304655
3.118258 -12.264416 59.85198
3.903955 -11.299864 59.235355
2.886598 -11.433689 60.011076
2.383081 -13.191235 60.413654
3.118258 -12.264416 59.85198
2.383081 -13.191235 60.413654
1.359892 -13.339613 61.182897
11.200235 -4.666595 52.91836
10.293399 -4.989736 53.730064
12.079888 -4.486882 52.138095
11.200235 -4.666595 52.91836
11.341835 -5.55291 52.881811
12.934083 -4.305589 51.356554
12.792483 -3.419274 51.393102
12.079888 -4.486882 52.138095
21.234921 -2.332785 43.244091
21.136298 -1.437043 43.220253
20.448897 -2.516609 44.040417
21.234921 -2.332785 43.244091
21.335463 -3.275424 43.289141
21.818523 -6.018591 42.968153
21.752032 -5.044159 43.029192
21.048686 -6.073945 43.707363
21.818523 -6.018591 42.968153
21.940343 -6.890373 42.871453
22.31295 -9.607651 42.329898
22.232509 -8.666595 42.513514
21.507053 -9.646984 43.067686
22.31295 -9.607651 42.329898
22.351578 -10.641737 42.19688
18.324913 -18.669066 43.533268
19.010546 -17.647699 43.297695
18.258602 -17.701081 43.969475
18.340138 -19.625858 43.080708
18.324913 -18.669066 43.533268
19.107641 -19.537861 42.450819
18.340138 -19.625858 43.080708
3 60 59 15
3 1 18 17
3 1 19 18
3 0 22 20
3 2 25 23
3 2 27 25
3 2 29 27
3 3 32 30
3 3 61 63
3 63 62 32
3 61 62 63
3 3 64 66
3 64 33 65
3 64 65 66
3 4 67 69
3 67 68 69
3 4 70 72
3 70 34 71
3 70 71 72
3 73 36 74
3 6 75 77
3 75 37 76
3 75 76 77
3 6 38 37
3 6 40 38
3 78 41 79
3 81 80 41
3 8 82 84
3 82 43 83
3 82 83 84
3 85 44 86
3 87 86 16
3 85 86 87
3 88 45 89
3 90 89 44
3 88 89 90
3 91 46 92
3 93 47 94
3 95 48 96
3 97 96 47
3 95 96 97
3 99 98 48
3 10 100 101
3 10 102 103
3 9 49 42
3 11 50 21
3 11 51 50
3 5 52 35
3 12 53 24
3 12 54 53
3 12 55 54
3 13 56 26
3 13 104 106
3 106 105 56
3 104 105 106
3 13 107 108
3 14 109 111
3 111 110 28
3 109 110 111
3 14 112 113
3 7 57 39
3 114 58 115
3 116 115 31
3 114 115 116
3 118 117 58
3 119 4 120
3 119 120 121
3 122 6 123
3 125 124 6
3 15 16 8
3 126 16 127
3 128 127 15
3 126 127 128
3 130 129 16
3 17 131 132
3 18 133 135
3 135 134 17
3 133 134 135
3 18 136 138
3 136 137 138
3 18 139 140
3 19 141 143
3 143 142 18
3 141 142 143
3 19 144 146
3 144 10 145
3 144 145 146
3 20 21 9
3 22 21 20
3 22 11 21
3 23 24 5
3 25 24 23
3 25 12 24
3 25 26 12
3 27 26 25
3 27 13 26
3 27 28 13
3 29 28 27
3 29 14 28
3 30 31 7
3 32 31 30
3 32 147 149
3 149 148 31
3 147 148 149
3 32 150 151
3 153 152 32
3 33 154 156
3 154 155 156
3 33 157 158
3 159 17 160
3 34 161 163
3 161 17 162
3 161 162 163
3 34 1 17
3 164 35 165
3 166 165 0
3 164 165 166
3 36 167 169
3 167 35 168
3 167 168 169
3 36 5 35
3 170 36 171
3 37 172 174
3 172 36 173
3 172 173 174
3 37 5 36
3 37 23 5
3 38 23 37
3 38 2 23
3 38 39 2
3 40 39 38
3 40 7 39
3 175 40 176
3 177 176 6
3 175 176 177
3 41 178 180
3 178 40 179
3 178 179 180
3 41 7 40
3 41 30 7
3 181 30 182
3 183 182 41
3 181 182 183
3 184 3 185
3 186 185 30
3 184 185 186
3 188 187 3
3 189 42 190
3 43 191 193
3 191 42 192
3 191 192 193
3 43 9 42
3 16 43 8
3 44 43 16
3 44 9 43
3 44 20 9
3 45 20 44
3 45 0 20
3 194 45 195
3 196 45 197
3 198 0 199
3 200 199 45
3 198 199 200
3 202 201 0
3 203 8 204
3 205 8 206
3 207 15 208
3 209 208 8
3 207 208 209
3 46 210 212
3 210 15 211
3 210 211 212
3 46 213 215
3 215 214 15
3 213 214 215
3 47 216 217
3 47 218 219
3 47 220 222
3 220 46 221
3 220 221 222
3 48 46 47
3 48 223 225
3 225 224 46
3 223 224 225
3 48 226 227
3 229 228 48
3 42 230 231
3 49 232 234
3 234 233 42
3 232 233 234
3 49 235 237
3 235 4 236
3 235 236 237
3 21 49 9
3 50 49 21
3 50 4 49
3 50 34 4
3 51 34 50
3 51 1 34
3 35 22 0
3 52 22 35
3 52 11 22
3 24 52 5
3 53 52 24
3 53 11 52
3 53 51 11
3 54 51 53
3 54 1 51
3 54 19 1
3 55 19 54
3 55 10 19
3 26 55 12
3 56 55 26
3 56 10 55
3 56 238 240
3 240 239 10
3 238 239 240
3 242 241 56
3 28 243 245
3 245 244 13
3 243 244 245
3 247 246 28
3 39 29 2
3 57 29 39
3 57 14 29
3 31 57 7
3 58 57 31
3 58 14 57
3 58 248 250
3 250 249 14
3 248 249 250
3 252 251 58
3 253 33 254
3 255 254 3
3 253 254 255
3 256 33 257
3 259 258 33
