ply
format ascii 1.0
element vertex 241
property float x
property float y
property float z
element face 236
property list uchar int vertex_index
end_header
-40.892967 -4.314759 -44.579628
-41.312664 -16.522045 -31.491121
-41.5033 -16.346043 -38.409542
-40.938885 -15.782024 -46.216919
-41.320469 -11.756359 -34.176125
-41.366756 -10.273982 -41.831375
-41.407295 -16.073793 -42.180225
-41.099709 -9.827952 -45.705181
-40.303734 -9.312509 -50.098518
-41.228054 -21.500549 -31.502493
-41.430607 -16.313349 -34.823971
-41.400963 -11.167083 -37.714474
-41.075302 -5.427233 -40.516647
-41.022018 -22.40926 -42.357674
-40.299145 -22.53377 -46.101982
-39.831398 -15.828982 -50.347713
-41.171169 -7.216521 -43.218262
-41.263306 -9.788437 -43.785225
-41.002464 -6.785673 -45.467327
-40.743034 -6.432964 -47.569061
-40.664776 -3.790097 -46.843323
-41.294315 -18.936306 -31.471123
-41.356709 -19.011496 -33.149738
-41.376816 -16.582043 -33.172836
-41.231068 -9.21704 -35.415405
-41.359913 -11.29455 -35.95623
-41.264301 -8.744244 -37.253216
-41.280666 -8.330132 -39.068043
-41.091457 -6.063686 -38.526081
-41.449753 -19.090704 -36.617668
-41.463329 -18.902107 -38.638161
-41.228443 -16.110413 -44.169899
-41.272774 -19.125179 -42.396996
-41.027367 -19.186617 -44.343678
-40.730644 -22.36227 -44.268723
-40.672714 -19.165483 -46.235291
-40.143288 -19.080093 -48.27169
-40.472122 -15.701791 -48.329456
-40.447578 -0.683244 -40.642769
-41.348286 -14.32365 -32.912933
-41.476997 -13.180511 -40.05032
-41.48708 -16.059196 -40.299019
-41.42746 -13.134743 -42.031219
-41.303879 -12.966815 -43.979691
-41.067829 -12.640163 -46.069206
-40.6954 -12.627949 -48.128792
-40.762657 -9.305288 -47.98505
-41.408836 -19.08741 -34.84177
-41.479248 -16.275242 -36.613041
-41.397449 -13.9559 -34.592697
-41.442017 -13.644893 -36.289902
-41.480186 -13.575704 -38.153076
-41.409321 -10.72381 -39.675499
-41.266014 -7.929244 -41.077808
-41.018883 -4.859139 -42.483898
-41.404556 -19.191654 -40.472958
-41.228767 -22.176413 -40.46291
-39.697292 -22.633665 -48.022499
-39.451275 -19.414379 -50.077881
-39.058445 -16.023115 -52.157135
-40.115601 -12.561457 -50.335724
-39.429237 -12.543749 -52.248779
-41.15152 -21.627409 -29.722044
-41.221493 -18.997854 -29.815321
-40.820168 -3.380647 -39.501835
-40.766285 -2.514736 -41.642525
-40.686184 -2.01669 -43.85548
-41.171272 -7.744765 -36.926558
-41.247685 -8.980642 -36.334311
-41.154656 -7.981163 -36.007652
-41.08485 -6.404486 -37.56299
-41.177879 -7.403965 -37.889648
-41.171272 -7.744765 -36.926558
-40.546329 -6.224252 -48.651823
-40.534095 -4.888251 -48.322788
-41.257464 -21.536371 -32.352263
-41.158972 -22.841979 -31.472496
-40.988277 -23.770889 -41.354856
-41.091651 -23.654466 -40.407474
-41.125393 -22.292836 -41.410292
-40.851439 -23.988229 -42.254927
-40.988277 -23.770889 -41.354856
-40.30745 -24.172846 -45.030298
-40.523199 -24.087096 -44.113669
-40.514894 -22.44802 -45.185353
-40.037371 -24.218767 -46.03684
-40.30745 -24.172846 -45.030298
-39.998219 -22.583717 -47.062241
-39.736444 -24.268714 -46.997099
-40.037371 -24.218767 -46.03684
-39.167497 -10.824502 -53.168008
-39.551384 -10.918285 -52.20862
-39.006331 -12.67306 -53.127981
-39.167497 -10.824502 -53.168008
-41.116367 -21.496684 -28.894533
-41.060955 -22.763028 -28.883969
-41.151354 -20.181907 -28.941172
-41.186507 -20.312632 -29.768683
-41.116367 -21.496684 -28.894533
-40.640809 -2.482045 -38.989853
-40.826664 -3.805447 -38.537884
-40.565953 -1.15719 -42.337786
-40.606932 -1.59899 -41.142647
-40.406599 -0.241443 -41.837908
-40.525902 -0.908167 -43.444264
-40.726235 -2.265713 -42.749003
-40.565953 -1.15719 -42.337786
-40.494967 -3.566818 -47.959919
-40.534095 -4.888251 -48.322788
-40.703905 -5.11153 -47.206192
-41.406088 -20.381493 -36.682317
-41.386755 -20.468922 -35.722746
-41.412876 -20.287195 -37.692564
-41.406088 -20.381493 -36.682317
-41.456541 -18.996406 -37.627915
-41.395735 -20.469825 -38.585171
-41.412876 -20.287195 -37.692564
-39.988632 -9.302665 -51.133489
-40.065203 -7.598821 -50.962479
-40.225631 0.110996 -40.040634
-40.454514 -1.133344 -39.56032
-40.214088 0.561661 -41.129948
-40.225631 0.110996 -40.040634
-39.992142 1.3559 -40.527812
-40.406599 -0.241443 -41.837908
-40.214088 0.561661 -41.129948
-41.310327 -14.279515 -32.127793
-41.330475 -15.422847 -32.202027
-41.292516 -15.378712 -31.416887
-41.305765 -13.173807 -32.755615
-41.310327 -14.279515 -32.127793
-41.291857 -11.890161 -33.387211
-41.334378 -13.040005 -33.544529
-41.305765 -13.173807 -32.755615
-41.252198 -10.720226 -33.926329
-41.291857 -11.890161 -33.387211
-41.207497 -9.450567 -34.545969
-41.275768 -10.4867 -34.795765
-41.252198 -10.720226 -33.926329
-41.138852 -8.352241 -35.044821
-41.207497 -9.450567 -34.545969
-41.154656 -7.981163 -36.007652
-41.138852 -8.352241 -35.044821
-40.556141 -7.660414 -48.859818
-40.752845 -7.869126 -47.777056
-40.546329 -6.224252 -48.651823
-40.326679 -7.664025 -49.916551
-40.533195 -9.308898 -49.041784
-40.556141 -7.660414 -48.859818
-40.065203 -7.598821 -50.962479
-40.326679 -7.664025 -49.916551
-41.321791 -20.291844 -33.175886
-41.257464 -21.536371 -32.352263
-41.292382 -20.256023 -32.326116
-41.347854 -20.329801 -34.021902
-41.321791 -20.291844 -33.175886
-41.382773 -19.049453 -33.995754
-41.366297 -20.467274 -34.834797
-41.347854 -20.329801 -34.021902
-41.429294 -19.089057 -35.729719
-41.386755 -20.468922 -35.722746
-41.366297 -20.467274 -34.834797
-41.366348 -20.614599 -39.502569
-41.395735 -20.469825 -38.585171
-41.433943 -19.046881 -39.55556
-41.278453 -22.106979 -39.497546
-41.366348 -20.614599 -39.502569
-41.316661 -20.684033 -40.467934
-41.15703 -23.654552 -39.472475
-41.278453 -22.106979 -39.497546
-41.15703 -23.654552 -39.472475
-41.091651 -23.654466 -40.407474
-40.705751 -23.964734 -43.210452
-40.851439 -23.988229 -42.254927
-40.876331 -22.385765 -43.313198
-40.705751 -23.964734 -43.210452
-40.523199 -24.087096 -44.113669
-39.404998 -24.449656 -47.834566
-39.736444 -24.268714 -46.997099
-39.282281 -22.910643 -48.905727
-39.404998 -24.449656 -47.834566
-39.159273 -21.301001 -49.933419
-39.282281 -22.910643 -48.905727
-39.574283 -21.024022 -49.05019
-39.029781 -19.603813 -50.91242
-39.159273 -21.301001 -49.933419
-38.833366 -17.908181 -51.952047
-39.029781 -19.603813 -50.91242
-39.25486 -17.718747 -51.117508
-38.588989 -16.196506 -52.990187
-38.833366 -17.908181 -51.952047
-39.894566 -10.927139 -51.252093
-40.209667 -10.936983 -50.217121
-39.988632 -9.302665 -51.133489
-39.772419 -12.552603 -51.292251
-39.894566 -10.927139 -51.252093
-39.551384 -10.918285 -52.20862
-38.820934 -14.412743 -53.082159
-39.243841 -14.283432 -52.202957
-39.006331 -12.67306 -53.127981
-38.588989 -16.196506 -52.990187
-38.820934 -14.412743 -53.082159
-41.12338 -22.866048 -30.576351
-41.158972 -22.841979 -31.472496
-41.085113 -22.929478 -29.686126
-41.060955 -22.763028 -28.883969
-41.189787 -21.563979 -30.612268
-41.12338 -22.866048 -30.576351
-41.085113 -22.929478 -29.686126
-41.175026 -18.905477 -29.039284
-41.151354 -20.181907 -28.941172
-41.224173 -17.761773 -29.855148
-41.175026 -18.905477 -29.039284
-41.269758 -16.523868 -30.693047
-41.267078 -17.759949 -30.653221
-41.224173 -17.761773 -29.855148
-41.292516 -15.378712 -31.416887
-41.269758 -16.523868 -30.693047
-40.962308 -5.146967 -38.050007
-41.08485 -6.404486 -37.56299
-40.955702 -5.487767 -37.086916
-40.955813 -4.722167 -39.013958
-40.962308 -5.146967 -38.050007
-40.826664 -3.805447 -38.537884
-40.633873 -2.031945 -40.072302
-40.640809 -2.482045 -38.989853
-40.454514 -1.133344 -39.56032
-40.46022 -0.60617 -44.516075
-40.525902 -0.908167 -43.444264
-40.579706 -1.666376 -45.047089
-40.46022 -0.60617 -44.516075
-40.683098 -2.81541 -45.409163
-40.789575 -3.165724 -44.217554
-40.579706 -1.666376 -45.047089
-40.569002 -2.553079 -46.54101
-40.778872 -4.052428 -45.711475
-40.683098 -2.81541 -45.409163
-40.418852 -2.265429 -47.650312
-40.569002 -2.553079 -46.54101
-40.494967 -3.566818 -47.959919
-40.418852 -2.265429 -47.650312
3 0 18 16
3 0 20 18
3 1 23 21
3 67 26 68
3 69 68 24
3 67 68 69
3 70 28 71
3 72 71 26
3 70 71 72
3 2 30 29
3 3 33 31
3 3 35 33
3 3 37 35
3 5 42 40
3 7 43 17
3 7 44 43
3 7 46 44
3 74 73 19
3 9 75 76
3 10 47 22
3 10 48 47
3 4 49 39
3 11 50 25
3 11 51 50
3 11 52 51
3 12 53 27
3 12 54 53
3 6 55 41
3 13 56 32
3 13 77 79
3 79 78 56
3 77 78 79
3 13 80 81
3 14 82 84
3 84 83 34
3 82 83 84
3 14 85 86
3 14 87 89
3 87 57 88
3 87 88 89
3 15 58 36
3 15 59 58
3 8 60 45
3 90 61 91
3 93 92 61
3 94 62 95
3 96 63 97
3 98 97 62
3 96 97 98
3 99 64 100
3 101 65 102
3 103 102 38
3 101 102 103
3 104 66 105
3 106 105 65
3 104 105 106
3 16 17 5
3 18 17 16
3 18 7 17
3 18 19 7
3 20 19 18
3 20 107 109
3 109 108 19
3 107 108 109
3 21 22 9
3 23 22 21
3 23 10 22
3 24 25 4
3 26 25 24
3 26 11 25
3 26 27 11
3 28 27 26
3 28 12 27
3 29 110 111
3 30 112 114
3 114 113 29
3 112 113 114
3 30 115 116
3 31 32 6
3 33 32 31
3 33 13 32
3 33 34 13
3 35 34 33
3 35 14 34
3 35 36 14
3 37 36 35
3 37 15 36
3 118 117 8
3 119 38 120
3 121 38 122
3 121 122 123
3 125 124 38
3 126 39 127
3 128 127 1
3 126 127 128
3 129 39 130
3 131 4 132
3 133 132 39
3 131 132 133
3 134 4 135
3 136 24 137
3 138 137 4
3 136 137 138
3 139 24 140
3 142 141 24
3 40 41 2
3 42 41 40
3 42 6 41
3 17 42 5
3 43 42 17
3 43 6 42
3 43 31 6
3 44 31 43
3 44 3 31
3 44 45 3
3 46 45 44
3 46 8 45
3 19 46 7
3 143 46 144
3 145 144 19
3 143 144 145
3 146 8 147
3 148 147 46
3 146 147 148
3 150 149 8
3 22 151 153
3 153 152 9
3 151 152 153
3 47 154 156
3 156 155 22
3 154 155 156
3 47 157 158
3 47 159 161
3 159 29 160
3 159 160 161
3 48 29 47
3 48 2 29
3 39 23 1
3 49 23 39
3 49 10 23
3 25 49 4
3 50 49 25
3 50 10 49
3 50 48 10
3 51 48 50
3 51 2 48
3 51 40 2
3 52 40 51
3 52 5 40
3 27 52 11
3 53 52 27
3 53 5 52
3 53 16 5
3 54 16 53
3 54 0 16
3 41 30 2
3 55 30 41
3 55 162 164
3 164 163 30
3 162 163 164
3 32 55 6
3 56 55 32
3 56 165 167
3 167 166 55
3 165 166 167
3 56 168 169
3 171 170 56
3 34 172 174
3 174 173 13
3 172 173 174
3 176 175 34
3 57 177 178
3 57 179 180
3 36 57 14
3 58 57 36
3 58 181 183
3 183 182 57
3 181 182 183
3 58 184 185
3 59 186 188
3 188 187 58
3 186 187 188
3 59 189 190
3 45 37 3
3 60 37 45
3 60 15 37
3 191 60 192
3 193 192 8
3 191 192 193
3 61 194 196
3 194 60 195
3 194 195 196
3 61 15 60
3 61 59 15
3 197 59 198
3 199 198 61
3 197 198 199
3 201 200 59
3 202 9 203
3 62 204 205
3 62 206 208
3 206 9 207
3 206 207 208
3 62 21 9
3 63 21 62
3 63 1 21
3 209 63 210
3 211 63 212
3 213 1 214
3 215 214 63
3 213 214 215
3 217 216 1
3 218 28 219
3 218 219 220
3 64 221 223
3 221 28 222
3 221 222 223
3 64 12 28
3 38 224 226
3 224 64 225
3 224 225 226
3 65 64 38
3 65 12 64
3 65 54 12
3 66 54 65
3 66 0 54
3 227 66 228
3 229 66 230
3 231 0 232
3 233 232 66
3 231 232 233
3 234 20 235
3 236 235 0
3 234 235 236
3 237 20 238
3 240 239 20
