ply
format ascii 1.0
element vertex 187
property float x
property float y
property float z
element face 177
property list uchar int vertex_index
end_header
5.583107 97.017273 -12.214788
14.124074 88.363304 -10.148912
11.057216 93.048004 -21.014462
3.64982 99.410561 -17.989058
6.241457 97.362473 -22.545189
8.46483 95.451172 -16.885666
16.614473 86.074013 -13.649548
0.762241 100.637291 -12.829229
10.009239 93.006241 -11.346598
8.694981 94.322609 -26.375917
13.150491 89.86441 -24.330549
12.87429 90.963318 -15.439209
15.25014 88.220139 -19.0187
4.674606 98.309418 -15.122577
5.993382 97.584122 -17.507332
7.044124 96.33815 -14.565714
3.203295 98.869141 -12.464159
2.130537 100.195976 -15.44931
8.662881 95.326889 -21.735262
7.672751 95.841316 -24.42885
10.02915 93.727325 -23.644947
10.963634 92.18306 -25.486574
12.155835 91.574554 -22.807577
12.114954 90.777603 -10.816217
11.431129 92.135765 -13.470309
13.392971 89.909065 -12.775327
15.890975 87.378578 -16.28112
16.148685 86.643433 -20.610697
4.843101 98.598312 -20.452192
7.438644 96.493607 -19.556255
9.819503 94.340294 -18.988575
15.400556 87.336281 -11.998566
17.125265 84.764091 -11.147341
-0.593562 102.015839 -15.770028
6.555377 95.426476 -9.302908
7.926784 94.961082 -11.666227
8.661835 93.535225 -9.004654
10.816807 91.432388 -8.744668
9.836378 92.323616 -28.08036
11.947427 90.3181 -26.836617
9.251848 94.342728 -14.107973
10.812897 93.189552 -16.179844
11.96735 92.162842 -18.216333
14.799804 88.590851 -14.470092
14.078777 89.745872 -17.321611
13.202599 90.739044 -20.097635
14.358573 89.04184 -21.645426
15.10928 87.46077 -23.144848
4.393201 97.943207 -12.339474
3.746708 98.098797 -11.085815
4.936614 97.172863 -10.961129
4.24646 99.004436 -19.220625
3.551666 99.534355 -20.719037
2.955026 99.94048 -19.48747
17.256034 84.110218 -9.812121
16.493863 85.364715 -10.2802
0.079992 100.754372 -11.514552
1.307943 99.891334 -11.354471
-0.529583 101.457191 -12.877876
0.079992 100.754372 -11.514552
0.084339 101.326565 -14.299629
-1.207485 102.146466 -14.348275
-0.529583 101.457191 -12.877876
2.334131 100.330224 -18.166431
1.574489 100.722931 -16.896557
2.890179 99.803269 -16.719184
2.955026 99.94048 -19.48747
2.334131 100.330224 -18.166431
8.040909 93.644165 -7.792333
7.608606 94.480851 -9.153781
6.98768 94.58979 -7.94146
11.163997 90.559452 -7.349966
10.210113 91.602859 -7.620737
11.81662 90.291332 -8.438571
11.163997 90.559452 -7.349966
6.98768 94.58979 -7.94146
5.872429 95.567444 -8.123249
6.304733 94.730759 -6.761801
5.627333 97.628388 -24.004047
4.998416 98.296505 -22.943029
7.494459 95.316688 -26.810859
6.983344 96.076042 -25.837325
8.183866 95.081963 -25.402383
8.045269 94.425018 -27.679959
7.494459 95.316688 -26.810859
9.26568 93.323113 -27.228139
8.615968 93.425522 -28.53218
8.045269 94.425018 -27.679959
13.588573 88.88908 -24.983719
12.98704 89.115925 -26.236753
12.548959 90.091255 -25.583583
15.959238 86.238567 -22.548663
15.628982 87.052101 -21.877772
16.47894 85.829899 -21.281588
15.458313 86.500935 -23.770319
15.959238 86.238567 -22.548663
2.528469 99.00726 -11.171936
3.071883 98.236915 -9.793592
3.746708 98.098797 -11.085815
1.982768 99.753216 -12.646694
1.307943 99.891334 -11.354471
2.528469 99.00726 -11.171936
16.715895 86.142224 -15.889263
16.252724 86.726295 -14.965334
17.077644 85.489941 -14.573477
16.385512 86.639099 -17.215661
16.715895 86.142224 -15.889263
16.065095 87.059879 -18.584451
15.570557 87.799359 -17.64991
16.385512 86.639099 -17.215661
16.514367 86.271526 -19.380449
15.699413 87.431786 -19.814698
16.065095 87.059879 -18.584451
16.974243 85.339542 -20.083822
16.514367 86.271526 -19.380449
16.47894 85.829899 -21.281588
16.974243 85.339542 -20.083822
4.299238 98.914424 -21.89653
3.551666 99.534355 -20.719037
5.542279 97.980392 -21.498691
4.998416 98.296505 -22.943029
4.299238 98.914424 -21.89653
15.631509 86.650811 -10.705813
14.762315 87.849793 -11.073739
14.993268 87.164322 -9.780985
16.262911 86.050186 -11.572954
15.631509 86.650811 -10.705813
16.493863 85.364715 -10.2802
17.82488 83.519042 -10.668406
17.256034 84.110218 -9.812121
17.643529 84.180286 -12.036943
17.82488 83.519042 -10.668406
17.388133 84.835247 -13.288047
16.869869 85.419052 -12.398445
17.643529 84.180286 -12.036943
17.077644 85.489941 -14.573477
17.388133 84.835247 -13.288047
-1.883337 102.785091 -15.922484
-1.207485 102.146466 -14.348275
-1.14931 102.483623 -17.312176
-1.883337 102.785091 -15.922484
0.21244 101.632863 -17.056916
0.768487 101.105908 -15.609669
1.574489 100.722931 -16.896557
-1.14931 102.483623 -17.312176
0.21244 101.632863 -17.056916
9.132627 92.654278 -7.75073
8.040909 93.644165 -7.792333
9.739321 92.483807 -8.874661
9.132627 92.654278 -7.75073
10.210113 91.602859 -7.620737
12.465694 89.96394 -9.474345
11.465881 91.104996 -9.780442
11.81662 90.291332 -8.438571
13.470254 88.75679 -9.140693
13.119514 89.570453 -10.482564
12.465694 89.96394 -9.474345
14.365226 87.584339 -8.766453
13.470254 88.75679 -9.140693
14.993268 87.164322 -9.780985
14.365226 87.584339 -8.766453
5.422749 96.377465 -9.505189
5.872429 95.567444 -8.123249
6.069242 96.221874 -10.758848
4.936614 97.172863 -10.961129
5.422749 96.377465 -9.505189
6.34298 96.867809 -24.945878
5.627333 97.628388 -24.004047
6.957104 96.601895 -23.48702
6.34298 96.867809 -24.945878
6.983344 96.076042 -25.837325
9.100053 92.429684 -29.29828
8.615968 93.425522 -28.53218
10.272638 91.343311 -28.71872
9.100053 92.429684 -29.29828
11.328163 90.340553 -28.096849
10.272638 91.343311 -28.71872
10.891903 91.320858 -27.458489
12.358211 89.2532 -27.473052
11.328163 90.340553 -28.096849
12.358211 89.2532 -27.473052
12.98704 89.115925 -26.236753
14.567967 87.68726 -24.390869
13.588573 88.88908 -24.983719
14.129886 88.66259 -23.737699
14.567967 87.68726 -24.390869
15.458313 86.500935 -23.770319
3 0 15 13
3 0 48 50
3 48 16 49
3 48 49 50
3 0 13 16
3 2 20 18
3 2 22 20
3 1 25 23
3 3 51 53
3 51 28 52
3 51 52 53
3 5 29 14
3 5 30 29
3 54 32 55
3 7 56 57
3 7 58 59
3 7 60 62
3 60 33 61
3 60 61 62
3 3 63 65
3 65 64 17
3 63 64 65
3 3 66 67
3 68 36 69
3 70 69 34
3 68 69 70
3 71 37 72
3 74 73 37
3 75 34 76
3 75 76 77
3 4 78 79
3 9 80 82
3 82 81 19
3 80 81 82
3 9 83 84
3 9 85 87
3 85 38 86
3 85 86 87
3 10 39 21
3 10 88 90
3 90 89 39
3 88 89 90
3 8 40 35
3 11 41 24
3 11 42 41
3 6 43 31
3 12 44 26
3 12 45 44
3 12 46 45
3 91 47 92
3 93 92 27
3 91 92 93
3 95 94 47
3 13 14 3
3 15 14 13
3 15 5 14
3 16 96 98
3 96 97 98
3 16 99 101
3 99 7 100
3 99 100 101
3 16 17 7
3 13 17 16
3 13 3 17
3 18 19 4
3 20 19 18
3 20 9 19
3 20 21 9
3 22 21 20
3 22 10 21
3 23 24 8
3 25 24 23
3 25 11 24
3 102 26 103
3 104 103 6
3 102 103 104
3 105 26 106
3 107 12 108
3 109 108 26
3 107 108 109
3 110 27 111
3 112 111 12
3 110 111 112
3 113 27 114
3 116 115 27
3 28 117 118
3 28 119 121
3 119 4 120
3 119 120 121
3 14 28 3
3 29 28 14
3 29 4 28
3 29 18 4
3 30 18 29
3 30 2 18
3 122 31 123
3 124 123 1
3 122 123 124
3 32 125 127
3 125 31 126
3 125 126 127
3 32 6 31
3 128 32 129
3 130 32 131
3 132 6 133
3 134 133 32
3 132 133 134
3 136 135 6
3 33 137 138
3 33 139 140
3 17 33 7
3 141 33 142
3 143 142 17
3 141 142 143
3 145 144 33
3 34 35 0
3 36 35 34
3 36 8 35
3 146 36 147
3 37 148 150
3 148 36 149
3 148 149 150
3 37 8 36
3 37 23 8
3 151 23 152
3 153 152 37
3 151 152 153
3 154 1 155
3 156 155 23
3 154 155 156
3 157 1 158
3 160 159 1
3 34 161 162
3 34 163 165
3 163 0 164
3 163 164 165
3 19 166 168
3 168 167 4
3 166 167 168
3 170 169 19
3 38 171 172
3 38 173 174
3 21 38 9
3 39 38 21
3 39 175 177
3 177 176 38
3 175 176 177
3 39 178 179
3 181 180 39
3 35 15 0
3 40 15 35
3 40 5 15
3 24 40 8
3 41 40 24
3 41 5 40
3 41 30 5
3 42 30 41
3 42 2 30
3 31 25 1
3 43 25 31
3 43 11 25
3 26 43 6
3 44 43 26
3 44 11 43
3 44 42 11
3 45 42 44
3 45 2 42
3 45 22 2
3 46 22 45
3 46 10 22
3 27 46 12
3 47 46 27
3 47 10 46
3 47 182 184
3 184 183 10
3 182 183 184
3 186 185 47
