ply
format ascii 1.0
element vertex 272
property float x
property float y
property float z
element face 269
property list uchar int vertex_index
end_header
28.037899 -33.74474 54.355572
24.940538 -52.997837 59.136059
27.278999 -44.073769 57.52729
28.407644 -43.19997 47.939796
27.063559 -34.268852 63.492409
28.034277 -26.898037 47.699665
28.092503 -32.801418 49.310463
26.365782 -48.805286 58.547928
27.56798 -48.878056 54.170975
26.675606 -53.468975 55.069038
25.768969 -38.886993 64.759315
23.686153 -38.414261 67.880417
27.797752 -39.085506 56.101936
28.144033 -38.621532 51.016651
28.004032 -43.875046 52.833569
27.776018 -34.278877 59.093758
27.095875 -39.093163 60.675316
26.033133 -43.894741 61.774796
24.456972 -48.18605 62.523941
28.33551 -37.792732 46.222034
28.087137 -31.003412 53.330231
28.068043 -30.49844 51.027451
28.074928 -33.356361 51.771534
25.706936 -50.839294 59.001602
26.529091 -51.052658 56.913658
25.85898 -53.222546 57.293301
24.733261 -36.133259 67.648193
23.60623 -35.646805 68.991928
27.588268 -41.539787 56.797642
27.894182 -41.469139 54.342537
27.689384 -44.020058 55.251198
27.691601 -51.300526 52.415611
27.98625 -48.833172 51.765785
27.508293 -34.212402 61.320164
27.490269 -36.847427 59.774918
27.070208 -36.774841 62.043396
24.938717 -41.156399 65.179604
25.869675 -41.365993 63.360565
25.12878 -43.71851 63.683239
25.337517 -46.099186 62.174339
24.206772 -45.890739 63.994778
28.253233 -40.86224 49.579796
28.238934 -38.074478 48.606323
28.388472 -40.568913 47.068855
28.051928 -29.934273 48.483654
28.127825 -32.4561 46.974453
26.862595 -46.526176 58.146275
27.431614 -46.549454 55.797222
27.058731 -48.77354 56.397602
27.183386 -51.332848 54.635117
26.466431 -34.14962 65.415817
26.490282 -36.749908 64.06797
25.728992 -36.468384 65.963333
24.831472 -38.508743 66.521278
24.008158 -54.960102 59.213253
25.139433 -55.258514 57.361847
27.951077 -36.602882 55.152008
28.067507 -36.150009 52.657093
28.005136 -38.924206 53.557995
28.106815 -41.238316 51.903305
28.236185 -43.563126 50.362915
27.865543 -46.493271 53.336388
28.173002 -46.269787 50.949505
28.391289 -45.913567 48.664898
27.943745 -34.180363 56.756813
27.760424 -36.75037 57.603882
27.499271 -39.373589 58.365368
27.130022 -41.663975 59.265232
26.519604 -39.244465 62.724415
26.593912 -41.523724 61.352585
26.744635 -44.035862 59.687611
26.207603 -46.393402 60.156063
25.512445 -48.51173 60.636776
24.75124 -50.542702 60.851288
23.853519 -52.606361 60.855217
28.130665 -35.696266 50.26387
28.190214 -35.30175 47.788136
23.538118 -34.353809 69.473835
24.136594 -34.571616 68.861103
27.903964 -51.20849 51.183035
27.763025 -52.487057 51.377201
27.29464 -33.015917 63.17269
27.065114 -32.952019 64.196171
27.285926 -34.240627 62.406287
27.517007 -32.987691 62.086567
27.29464 -33.015917 63.17269
24.594423 -43.542044 64.518457
25.033749 -42.437455 64.431421
24.499392 -42.260988 65.26664
24.133419 -44.628158 64.674227
24.667776 -44.804625 63.839008
24.594423 -43.542044 64.518457
27.00793 -53.618105 53.831565
27.26182 -52.550041 53.614605
26.929496 -52.400911 54.852078
26.066619 -34.071722 66.282623
26.462372 -32.821332 66.03682
25.697899 -35.231104 66.556381
26.097712 -35.309002 65.689575
26.066619 -34.071722 66.282623
23.778851 -39.600155 67.293976
24.35151 -39.647396 66.614407
24.258813 -38.461502 67.200847
23.706815 -57.085123 58.057468
24.145543 -56.131532 58.223385
23.569429 -55.913692 59.047337
28.040621 -25.353843 47.229944
28.065158 -25.632479 48.464024
28.2394 -47.44879 50.117605
28.079626 -47.551479 51.357645
28.146024 -48.730482 50.525745
28.348543 -47.270679 48.975302
28.282145 -46.091677 49.807202
28.2394 -47.44879 50.117605
28.466217 -47.139471 47.757456
28.348543 -47.270679 48.975302
25.596636 -55.493809 56.284289
25.202755 -56.445549 56.400377
27.895727 -32.908177 58.638178
27.810788 -32.949156 59.859469
27.859882 -34.22962 57.925286
27.979591 -32.858919 57.469706
27.895727 -32.908177 58.638178
23.186515 -52.415619 61.613018
23.713584 -51.442976 61.671534
22.674296 -53.394989 61.536955
23.3413 -53.585732 60.779154
23.186515 -52.415619 61.613018
28.295868 -36.285521 45.847876
28.22322 -35.04003 46.630927
28.262862 -36.547241 47.005085
28.07759 -30.750926 52.178841
28.099478 -29.224516 51.767561
28.109025 -29.477002 52.918951
24.700109 -34.814842 68.189235
25.200034 -35.063541 67.398811
24.169745 -35.890032 68.320061
24.700109 -34.814842 68.189235
24.136594 -34.571616 68.861103
28.037217 -26.486057 46.501278
28.052186 -28.155024 46.927993
28.051288 -49.974813 50.858122
27.838925 -50.066849 52.090698
27.903964 -51.20849 51.183035
28.211062 -49.872124 49.618082
28.146024 -48.730482 50.525745
28.051288 -49.974813 50.858122
27.676925 -32.915918 60.972672
27.517007 -32.987691 62.086567
27.642156 -34.245639 60.206961
27.810788 -32.949156 59.859469
27.676925 -32.915918 60.972672
28.051329 -27.202351 48.87887
28.065158 -25.632479 48.464024
28.068212 -29.002553 50.542763
28.099478 -29.224516 51.767561
28.060154 -28.72047 49.270865
28.068212 -29.002553 50.542763
28.059985 -30.216356 49.755553
28.043102 -28.416155 48.09166
28.051329 -27.202351 48.87887
28.060154 -28.72047 49.270865
28.061011 -29.673143 47.319988
28.052186 -28.155024 46.927993
28.043102 -28.416155 48.09166
28.09896 -30.934056 46.565387
28.061011 -29.673143 47.319988
28.089877 -31.195186 47.729053
28.15368 -32.053117 45.81559
28.09896 -30.934056 46.565387
27.515928 -52.53388 52.504852
27.437493 -51.316687 53.525364
27.26182 -52.550041 53.614605
27.763025 -52.487057 51.377201
27.515928 -52.53388 52.504852
26.76655 -32.892403 65.157875
26.462372 -32.821332 66.03682
26.764995 -34.209236 64.454113
27.065114 -32.952019 64.196171
26.76655 -32.892403 65.157875
25.231127 -36.300821 66.805763
25.697899 -35.231104 66.556381
25.200034 -35.063541 67.398811
24.405133 -40.971224 65.943569
24.885095 -39.832571 65.850441
24.35151 -39.647396 66.614407
24.499392 -42.260988 65.26664
24.405133 -40.971224 65.943569
28.484859 -43.064014 46.677234
28.495158 -44.459255 47.032432
24.71118 -56.280738 57.297682
24.573796 -55.109308 58.28755
24.145543 -56.131532 58.223385
25.202755 -56.445549 56.400377
24.71118 -56.280738 57.297682
28.040621 -25.353843 47.229944
28.037217 -26.486057 46.501278
28.486981 -45.816053 47.394984
28.495158 -44.459255 47.032432
28.399467 -44.556769 48.302347
28.486981 -45.816053 47.394984
28.466217 -47.139471 47.757456
25.956409 -54.475825 56.250016
25.499206 -54.24053 57.327574
25.596636 -55.493809 56.284289
26.364722 -54.599039 55.137884
26.267293 -53.34576 56.181169
25.956409 -54.475825 56.250016
26.74781 -54.687834 54.036776
26.364722 -54.599039 55.137884
27.00793 -53.618105 53.831565
26.74781 -54.687834 54.036776
28.13393 -29.77559 54.118257
28.109025 -29.477002 52.918951
28.08367 -31.182791 54.539
28.13393 -29.77559 54.118257
28.059051 -32.553455 55.05167
28.062518 -32.374076 53.842901
28.08367 -31.182791 54.539
28.011975 -32.771266 56.252291
27.979591 -32.858919 57.469706
27.990822 -33.962552 55.556193
28.059051 -32.553455 55.05167
28.011975 -32.771266 56.252291
22.916904 -35.374725 69.535267
23.538118 -34.353809 69.473835
23.027639 -36.707184 69.027737
22.916904 -35.374725 69.535267
23.0676 -38.090912 68.471981
23.646192 -37.030533 68.436172
23.027639 -36.707184 69.027737
23.09928 -39.382372 67.963986
23.0676 -38.090912 68.471981
23.778851 -39.600155 67.293976
23.09928 -39.382372 67.963986
23.646993 -45.616079 64.721228
24.133419 -44.628158 64.674227
23.75901 -46.879898 64.006842
23.646993 -45.616079 64.721228
23.88411 -48.027553 63.271423
24.331872 -47.038395 63.25936
23.75901 -46.879898 64.006842
24.015311 -49.232821 62.505896
23.88411 -48.027553 63.271423
24.162445 -50.411147 61.669569
24.604106 -49.364376 61.687614
24.015311 -49.232821 62.505896
24.30238 -51.574531 60.853252
24.162445 -50.411147 61.669569
23.713584 -51.442976 61.671534
23.41862 -54.762602 59.958172
23.930839 -53.783231 60.034235
23.3413 -53.585732 60.779154
23.569429 -55.913692 59.047337
23.41862 -54.762602 59.958172
28.192025 -33.617204 46.224085
28.159019 -33.878925 47.381294
28.22322 -35.04003 46.630927
28.15368 -32.053117 45.81559
28.192025 -33.617204 46.224085
28.475273 -41.748486 46.241764
28.398058 -41.884442 47.504326
28.484859 -43.064014 46.677234
28.448304 -40.301142 45.838804
28.475273 -41.748486 46.241764
28.421822 -38.913052 45.415394
28.361991 -39.180823 46.645444
28.448304 -40.301142 45.838804
28.387102 -37.528579 45.027761
28.421822 -38.913052 45.415394
28.295868 -36.285521 45.847876
28.387102 -37.528579 45.027761
3 0 22 20
3 1 25 23
3 77 27 78
3 2 30 28
3 80 79 31
3 4 81 82
3 4 83 85
3 83 33 84
3 83 84 85
3 4 35 33
3 86 38 87
3 88 87 36
3 86 87 88
3 89 40 90
3 91 90 38
3 89 90 91
3 3 43 41
3 6 44 21
3 6 45 44
3 7 48 46
3 9 49 24
3 9 92 94
3 94 93 49
3 92 93 94
3 95 50 96
3 97 52 98
3 99 98 50
3 97 98 99
3 11 53 26
3 11 100 102
3 102 101 53
3 100 101 102
3 105 104 54
3 103 104 105
3 5 106 107
3 12 58 56
3 14 59 29
3 14 60 59
3 8 61 47
3 108 62 109
3 110 109 32
3 108 109 110
3 111 63 112
3 113 112 62
3 111 112 113
3 115 114 63
3 117 116 55
3 15 118 119
3 15 120 122
3 120 64 121
3 120 121 122
3 15 65 64
3 16 66 34
3 16 67 66
3 10 68 51
3 17 69 37
3 17 70 69
3 17 71 70
3 18 72 39
3 18 73 72
3 123 74 124
3 127 126 74
3 125 126 127
3 13 75 57
3 19 76 42
3 19 128 130
3 130 129 76
3 128 129 130
3 20 131 133
3 131 21 132
3 131 132 133
3 22 21 20
3 22 6 21
3 23 24 7
3 25 24 23
3 25 9 24
3 134 26 135
3 27 136 138
3 136 26 137
3 136 137 138
3 27 11 26
3 140 139 5
3 28 29 12
3 30 29 28
3 30 14 29
3 31 32 8
3 141 32 142
3 143 142 31
3 141 142 143
3 146 145 32
3 144 145 146
3 33 147 148
3 33 149 151
3 149 15 150
3 149 150 151
3 33 34 15
3 35 34 33
3 35 16 34
3 36 37 10
3 38 37 36
3 38 17 37
3 38 39 17
3 40 39 38
3 40 18 39
3 41 42 13
3 43 42 41
3 43 19 42
3 152 5 153
3 21 154 155
3 44 156 158
3 158 157 21
3 156 157 158
3 44 159 161
3 159 5 160
3 159 160 161
3 44 162 164
3 164 163 5
3 162 163 164
3 45 165 167
3 167 166 44
3 165 166 167
3 45 168 169
3 46 47 2
3 48 47 46
3 48 8 47
3 24 48 7
3 49 48 24
3 49 8 48
3 49 31 8
3 170 31 171
3 172 171 49
3 170 171 172
3 174 173 31
3 50 175 176
3 50 177 179
3 177 4 178
3 177 178 179
3 50 51 4
3 52 51 50
3 52 10 51
3 26 180 182
3 180 52 181
3 180 181 182
3 53 52 26
3 53 10 52
3 53 36 10
3 183 36 184
3 185 184 53
3 183 184 185
3 187 186 36
3 189 188 3
3 54 55 1
3 190 55 191
3 192 191 54
3 190 191 192
3 194 193 55
3 196 195 5
3 56 57 0
3 58 57 56
3 58 13 57
3 29 58 12
3 59 58 29
3 59 13 58
3 59 41 13
3 60 41 59
3 60 3 41
3 47 30 2
3 61 30 47
3 61 14 30
3 32 61 8
3 62 61 32
3 62 14 61
3 62 60 14
3 63 60 62
3 63 3 60
3 63 197 199
3 199 198 3
3 197 198 199
3 201 200 63
3 55 25 1
3 202 25 203
3 204 203 55
3 202 203 204
3 205 9 206
3 207 206 25
3 205 206 207
3 208 9 209
3 211 210 9
3 212 20 213
3 214 20 215
3 216 0 217
3 218 217 20
3 216 217 218
3 64 219 220
3 64 221 223
3 221 0 222
3 221 222 223
3 64 56 0
3 65 56 64
3 65 12 56
3 34 65 15
3 66 65 34
3 66 12 65
3 66 28 12
3 67 28 66
3 67 2 28
3 51 35 4
3 68 35 51
3 68 16 35
3 37 68 10
3 69 68 37
3 69 16 68
3 69 67 16
3 70 67 69
3 70 2 67
3 70 46 2
3 71 46 70
3 71 7 46
3 39 71 17
3 72 71 39
3 72 7 71
3 72 23 7
3 73 23 72
3 73 1 23
3 224 27 225
3 226 27 227
3 228 11 229
3 230 229 27
3 228 229 230
3 231 11 232
3 234 233 11
3 235 40 236
3 237 40 238
3 239 18 240
3 241 240 40
3 239 240 241
3 242 18 243
3 244 73 245
3 246 245 18
3 244 245 246
3 74 247 249
3 247 73 248
3 247 248 249
3 74 1 73
3 74 54 1
3 250 54 251
3 252 251 74
3 250 251 252
3 254 253 54
3 57 22 0
3 75 22 57
3 75 6 22
3 42 75 13
3 76 75 42
3 76 6 75
3 76 45 6
3 255 45 256
3 257 256 76
3 255 256 257
3 259 258 45
3 260 43 261
3 262 261 3
3 260 261 262
3 263 43 264
3 265 19 266
3 267 266 43
3 265 266 267
3 268 19 269
3 271 270 19
