ply
format ascii 1.0
element vertex 257
property float x
property float y
property float z
element face 245
property list uchar int vertex_index
end_header
-29.928886 -54.889572 6.584838
-32.633911 -50.569016 -3.970092
-33.102451 -49.748081 13.573205
-27.804794 -59.345737 -0.554578
-27.523331 -58.704865 8.215512
-26.363373 -61.219803 4.762958
-28.778736 -57.003357 2.803868
-32.400726 -50.975357 4.77749
-31.214645 -52.906216 1.115092
-33.5858 -48.834354 -0.366076
-28.839619 -56.289505 11.958484
-30.495937 -53.494175 15.241746
-31.42565 -52.492249 10.147347
-27.224144 -61.765274 -4.371099
-30.166882 -55.013664 -2.323419
-29.549377 -57.050438 -5.947886
-29.250834 -59.189922 -9.70512
-28.75481 -56.730389 7.434288
-28.084639 -57.98156 5.545244
-29.270298 -56.033943 4.64732
-32.951828 -50.003155 2.131161
-27.599237 -58.124233 12.695867
-32.635799 -50.163574 16.151094
-31.36215 -51.945942 16.982344
-31.790623 -51.68499 14.395267
-30.950613 -53.086422 12.6458
-32.282478 -51.131004 11.822105
-27.064957 -60.321053 2.053508
-25.982422 -62.377029 2.786768
-26.651953 -61.633167 0.027815
-26.343327 -62.820045 -1.650876
-27.469418 -60.544846 -2.435566
-31.856071 -51.86573 -1.359267
-30.604237 -54.043766 -0.606759
-31.45109 -52.710964 -3.227919
-30.714506 -54.773899 -6.808947
-30.498817 -55.755482 -8.501895
-29.268639 -58.28627 -7.685504
-30.336708 -56.810436 -10.266831
-26.817041 -60.119099 6.497345
-27.558023 -59.102226 3.788991
-28.213959 -58.211967 1.277575
-31.164848 -52.95285 5.779592
-30.515694 -54.010674 3.892932
-31.756371 -51.995079 2.891877
-32.43903 -50.836559 0.267221
-33.083813 -49.703667 -2.252878
-34.710976 -46.719021 -1.280718
-34.176121 -47.690128 -2.989429
-26.945223 -59.392864 10.839304
-28.128504 -57.54401 10.193412
-29.3421 -55.698845 9.30774
-29.726957 -54.813553 13.559959
-30.097689 -54.461044 10.92654
-30.649267 -53.720127 8.373816
-26.999849 -63.088367 -6.25663
-29.974047 -54.983692 2.001979
-29.380152 -56.168785 0.275497
-28.968538 -57.189857 -1.460869
-30.962704 -53.863853 -4.906942
-29.803232 -56.032501 -4.097448
-28.608139 -58.344563 -3.369593
-28.35718 -59.437767 -5.130463
-28.185335 -60.604271 -7.107281
-28.015427 -61.777596 -8.78892
-29.101971 -60.414169 -11.476011
-33.282887 -49.526245 12.289499
-32.8729 -50.217706 11.413949
-32.692464 -50.439543 12.697655
-30.988844 -55.089748 -9.811573
-31.110948 -54.523762 -8.96718
-30.907789 -55.617226 -10.694042
-30.417763 -56.282959 -9.384363
-30.988844 -55.089748 -9.811573
-30.885333 -56.052412 -11.593602
-30.907789 -55.617226 -10.694042
-27.170186 -59.411982 7.356428
-26.532358 -60.454153 7.832493
-26.885503 -59.747036 8.691576
-35.234135 -45.638975 -1.616227
-34.94636 -46.309244 -0.319032
-34.541647 -46.957701 -4.300226
-34.729199 -46.587902 -3.393845
-34.003509 -48.019911 -4.008219
-34.541647 -46.957701 -4.300226
-26.675942 -59.631861 12.233367
-26.349489 -60.322075 11.310122
-30.280953 -53.568545 16.553937
-30.714059 -52.794428 17.424236
-30.929043 -52.720059 16.112045
-29.851947 -54.355801 15.701727
-30.280953 -53.568545 16.553937
-30.111447 -54.153864 14.400852
-29.467456 -55.01549 14.860834
-29.851947 -54.355801 15.701727
-31.685647 -52.1099 8.811144
-31.297455 -52.723839 7.924378
-31.037458 -53.106188 9.260582
-25.797691 -62.276792 5.108987
-25.994977 -61.699599 6.110734
-25.427206 -63.458873 3.179984
-25.753072 -63.113811 1.868962
-26.668242 -62.925736 -3.983324
-26.227833 -63.453121 -2.623212
-26.783735 -62.292659 -3.010988
-27.111997 -62.42682 -5.313865
-26.556094 -63.587282 -4.926089
-26.668242 -62.925736 -3.983324
-31.412529 -53.197443 -6.243106
-31.585871 -52.706308 -5.391878
-33.306961 -49.430242 3.018077
-32.676277 -50.489256 3.454326
-33.03141 -49.916343 4.341242
-33.541412 -48.959181 1.687461
-33.306961 -49.430242 3.018077
-33.858398 -48.37478 0.438843
-33.268814 -49.418754 0.882543
-33.541412 -48.959181 1.687461
-27.365496 -58.273481 14.055573
-27.002949 -58.997545 13.161649
-27.95665 -57.456694 13.613312
-27.365496 -58.273481 14.055573
-28.576842 -56.53933 13.24462
-28.219428 -57.206869 12.327175
-27.95665 -57.456694 13.613312
-31.998974 -51.054758 16.566719
-31.753708 -51.178368 17.779261
-32.390533 -50.287183 17.363636
-32.477539 -50.860628 10.444714
-32.049125 -51.541251 9.607335
-31.854064 -51.811627 10.984726
-32.477539 -50.860628 10.444714
-32.8729 -50.217706 11.413949
-26.087837 -62.741881 0.489486
-25.753072 -63.113811 1.868962
-26.317187 -62.005098 1.407291
-26.49764 -62.226606 -0.811531
-25.933524 -63.335319 -0.34986
-26.087837 -62.741881 0.489486
-31.218793 -54.032971 -8.120707
-31.28843 -53.652466 -7.194109
-30.606662 -55.264691 -7.655421
-31.218793 -54.032971 -8.120707
-31.110948 -54.523762 -8.96718
-30.315108 -57.285706 -11.187594
-29.772171 -58.475448 -10.906739
-29.793771 -58.000179 -9.985976
-30.315108 -57.285706 -11.187594
-30.885333 -56.052412 -11.593602
-33.044506 -49.328956 17.03266
-32.390533 -50.287183 17.363636
-33.221922 -49.282451 15.750865
-33.044506 -49.328956 17.03266
-33.455247 -49.074705 14.46192
-32.869125 -49.955827 14.86215
-33.221922 -49.282451 15.750865
-34.015562 -48.181011 14.102327
-33.662766 -48.854387 13.213612
-33.455247 -49.074705 14.46192
-26.221811 -61.149247 6.977927
-26.532358 -60.454153 7.832493
-26.590207 -60.669451 5.630152
-25.994977 -61.699599 6.110734
-26.221811 -61.149247 6.977927
-32.421475 -51.058889 -4.923453
-33.002834 -49.944405 -5.255826
-34.420986 -47.317114 -0.018478
-34.94636 -46.309244 -0.319032
-34.148388 -47.776687 -0.823397
-33.858398 -48.37478 0.438843
-34.420986 -47.317114 -0.018478
-34.996626 -46.102348 -2.53949
-35.234135 -45.638975 -1.616227
-34.443549 -47.204574 -2.135073
-34.996626 -46.102348 -2.53949
-34.729199 -46.587902 -3.393845
-33.457355 -49.02668 -3.639943
-33.629967 -48.696898 -2.621154
-34.003509 -48.019911 -4.008219
-33.232405 -49.459355 -4.498551
-32.858862 -50.136342 -3.111485
-33.457355 -49.02668 -3.639943
-33.002834 -49.944405 -5.255826
-33.232405 -49.459355 -4.498551
-26.596449 -60.091036 10.003472
-26.000715 -61.020246 10.47429
-26.349489 -60.322075 11.310122
-27.234277 -59.048865 9.527408
-26.885503 -59.747036 8.691576
-26.596449 -60.091036 10.003472
-27.27223 -58.758549 11.767585
-26.675942 -59.631861 12.233367
-27.002949 -58.997545 13.161649
-31.096467 -52.014952 18.284165
-31.488025 -51.247377 19.081081
-31.753708 -51.178368 17.779261
-31.096467 -52.014952 18.284165
-30.714059 -52.794428 17.424236
-29.020511 -55.801354 14.045357
-29.467456 -55.01549 14.860834
-29.283288 -55.551529 12.759221
-28.576842 -56.53933 13.24462
-29.020511 -55.801354 14.045357
-31.555246 -52.3402 6.627266
-30.907058 -53.336489 7.076704
-31.297455 -52.723839 7.924378
-32.173185 -51.351454 6.126215
-31.782787 -51.964104 5.278541
-31.555246 -52.3402 6.627266
-31.685647 -52.1099 8.811144
-32.049125 -51.541251 9.607335
-32.758648 -50.414633 5.641174
-32.173185 -51.351454 6.126215
-33.03141 -49.916343 4.341242
-32.758648 -50.414633 5.641174
-33.282887 -49.526245 12.289499
-33.662766 -48.854387 13.213612
-25.607215 -62.855406 4.120891
-25.797691 -62.276792 5.108987
-26.172897 -61.798416 3.774863
-25.607215 -62.855406 4.120891
-25.427206 -63.458873 3.179984
-25.80561 -63.96727 -1.367873
-25.933524 -63.335319 -0.34986
-25.80561 -63.96727 -1.367873
-26.227833 -63.453121 -2.623212
-26.47923 -64.22719 -5.961994
-26.556094 -63.587282 -4.926089
-26.955213 -63.69681 -7.314626
-26.47923 -64.22719 -5.961994
-31.830064 -52.129863 -4.552366
-32.042501 -51.63999 -3.599006
-32.421475 -51.058889 -4.923453
-31.206897 -53.287408 -4.067431
-31.830064 -52.129863 -4.552366
-31.585871 -52.706308 -5.391878
-30.838605 -54.318876 -5.857945
-31.412529 -53.197443 -6.243106
-31.28843 -53.652466 -7.194109
-27.463001 -63.041424 -8.58077
-26.955213 -63.69681 -7.314626
-27.507638 -62.432981 -7.522775
-27.986619 -62.348622 -9.799676
-27.463001 -63.041424 -8.58077
-28.529891 -61.666908 -11.143221
-27.986619 -62.348622 -9.799676
-28.558699 -61.095883 -10.132465
-29.069872 -61.0023 -12.465115
-28.529891 -61.666908 -11.143221
-29.697739 -59.087572 -11.792185
-29.176403 -59.802046 -10.590566
-29.772171 -58.475448 -10.906739
-29.636461 -59.69834 -12.699003
-29.697739 -59.087572 -11.792185
-29.604363 -60.286471 -13.688108
-29.069872 -61.0023 -12.465115
-29.636461 -59.69834 -12.699003
3 0 19 17
3 2 24 22
3 2 26 24
3 2 66 68
3 68 67 26
3 66 67 68
3 3 29 27
3 3 31 29
3 1 34 32
3 69 36 70
3 71 38 72
3 73 72 36
3 71 72 73
3 75 74 38
3 4 76 78
3 76 39 77
3 76 77 78
3 6 40 18
3 6 41 40
3 7 44 42
3 9 45 20
3 9 46 45
3 79 47 80
3 81 48 82
3 84 83 48
3 85 49 86
3 10 50 21
3 10 51 50
3 11 87 89
3 89 88 23
3 87 88 89
3 11 90 91
3 11 92 94
3 92 52 93
3 92 93 94
3 12 53 25
3 12 54 53
3 12 95 97
3 97 96 54
3 95 96 97
3 5 98 99
3 101 100 28
3 13 102 104
3 104 103 30
3 102 103 104
3 13 105 107
3 105 55 106
3 105 106 107
3 8 56 43
3 14 57 33
3 14 58 57
3 108 59 109
3 15 60 35
3 15 61 60
3 15 62 61
3 16 63 37
3 16 64 63
3 16 65 64
3 17 18 4
3 19 18 17
3 19 6 18
3 110 20 111
3 112 111 7
3 110 111 112
3 113 20 114
3 115 9 116
3 117 116 20
3 115 116 117
3 118 21 119
3 120 21 121
3 122 10 123
3 124 123 21
3 122 123 124
3 22 125 127
3 125 23 126
3 125 126 127
3 24 23 22
3 24 11 23
3 24 25 11
3 26 25 24
3 26 12 25
3 26 128 130
3 130 129 12
3 128 129 130
3 132 131 26
3 27 28 5
3 29 28 27
3 29 133 135
3 135 134 28
3 133 134 135
3 29 136 138
3 136 30 137
3 136 137 138
3 31 30 29
3 31 13 30
3 32 33 8
3 34 33 32
3 34 14 33
3 139 35 140
3 36 141 143
3 141 35 142
3 141 142 143
3 36 15 35
3 36 37 15
3 38 37 36
3 38 16 37
3 38 144 146
3 146 145 16
3 144 145 146
3 148 147 38
3 149 22 150
3 151 22 152
3 153 2 154
3 155 154 22
3 153 154 155
3 158 157 2
3 156 157 158
3 39 159 160
3 39 161 163
3 161 5 162
3 161 162 163
3 18 39 4
3 40 39 18
3 40 5 39
3 40 27 5
3 41 27 40
3 41 3 27
3 165 164 1
3 42 43 0
3 44 43 42
3 44 8 43
3 20 44 7
3 45 44 20
3 45 8 44
3 45 32 8
3 46 32 45
3 46 1 32
3 47 166 167
3 47 168 170
3 168 9 169
3 168 169 170
3 171 47 172
3 48 173 175
3 173 47 174
3 173 174 175
3 48 9 47
3 48 46 9
3 176 46 177
3 178 177 48
3 176 177 178
3 179 1 180
3 181 180 46
3 179 180 181
3 183 182 1
3 49 184 186
3 184 185 186
3 49 187 189
3 187 4 188
3 187 188 189
3 21 190 192
3 190 49 191
3 190 191 192
3 50 49 21
3 50 4 49
3 50 17 4
3 51 17 50
3 51 0 17
3 23 193 195
3 193 194 195
3 197 196 23
3 52 198 199
3 52 200 202
3 200 10 201
3 200 201 202
3 25 52 11
3 53 52 25
3 53 10 52
3 53 51 10
3 54 51 53
3 54 0 51
3 54 42 0
3 203 42 204
3 205 204 54
3 203 204 205
3 206 7 207
3 208 207 42
3 206 207 208
3 210 209 12
3 211 7 212
3 214 213 7
3 216 215 2
3 28 217 219
3 219 218 5
3 217 218 219
3 221 220 28
3 30 222 223
3 225 224 30
3 55 226 227
3 55 228 229
3 43 19 0
3 56 19 43
3 56 6 19
3 33 56 8
3 57 56 33
3 57 6 56
3 57 41 6
3 58 41 57
3 58 3 41
3 230 34 231
3 232 231 1
3 230 231 232
3 59 233 235
3 233 34 234
3 233 234 235
3 59 14 34
3 35 236 238
3 236 59 237
3 236 237 238
3 60 59 35
3 60 14 59
3 60 58 14
3 61 58 60
3 61 3 58
3 61 31 3
3 62 31 61
3 62 13 31
3 37 62 15
3 63 62 37
3 63 13 62
3 63 55 13
3 64 55 63
3 64 239 241
3 241 240 55
3 239 240 241
3 64 242 243
3 65 244 246
3 246 245 64
3 244 245 246
3 65 247 248
3 249 65 250
3 251 250 16
3 249 250 251
3 252 65 253
3 256 255 65
3 254 255 256
