ply
format ascii 1.0
element vertex 257
property float x
property float y
property float z
element face 246
property list uchar int vertex_index
end_header
-6.289782 11.187957 -70.022224
-5.624463 21.40056 -69.535439
-0.987009 12.81214 -64.922813
-2.159414 2.618351 -63.907612
-0.463821 17.815088 -64.416985
-0.225295 3.019233 -61.22147
-6.547618 5.488169 -68.749542
-5.983762 16.48016 -70.338943
-2.496759 26.193531 -64.757339
-2.671069 21.888338 -66.625435
-3.087924 17.303749 -67.769585
-3.384457 12.300944 -67.818115
0.390806 8.129424 -61.821903
-1.609417 7.86278 -64.809166
-3.849951 7.092825 -67.180244
-4.326312 1.641484 -65.827858
-6.479364 8.455018 -69.549652
-5.83343 18.957813 -70.106903
-1.209497 30.978241 -60.665501
-1.211174 26.769709 -63.08247
-1.18924 24.592184 -64.005333
-2.599216 24.143456 -65.804916
-1.284287 22.210264 -64.881927
-0.799357 15.395554 -64.88855
-1.700467 17.558823 -66.106667
-1.955868 15.301744 -66.439163
-3.24408 14.878356 -67.922302
-2.173439 12.766239 -66.501411
-1.181093 2.916857 -62.677231
-0.846448 5.499922 -63.036606
-1.899208 5.343213 -64.478088
-2.774404 7.61376 -66.20031
-2.948537 4.898462 -65.604721
-4.12534 4.507435 -66.653198
-3.156741 2.371137 -64.972229
-5.583963 23.604103 -68.831749
0.031372 13.174026 -63.44976
0.30153 0.726419 -59.478928
-0.544495 0.504323 -60.817207
-1.453385 0.360106 -62.134014
-2.32936 -0.133599 -63.094769
-6.749812 2.59266 -67.890617
-6.083777 13.911029 -70.266907
-1.160645 28.832415 -61.933243
-2.62936 28.3508 -63.631386
-3.932946 25.998453 -66.306038
-4.082232 23.895779 -67.427719
-4.097815 21.582096 -68.187332
-1.538482 19.825554 -65.681824
-2.867174 19.597662 -67.308289
-4.281282 19.284397 -68.797287
-4.440201 16.881516 -69.11898
-4.61153 14.455147 -69.199745
-4.791679 11.933802 -69.060951
-0.268046 10.53866 -63.4622
0.079628 5.555388 -61.575603
-0.540332 8.111807 -63.317223
-1.367032 10.378379 -65.057365
-2.46372 10.138514 -66.427834
-3.707163 9.821133 -67.704483
-4.981862 9.24739 -68.698387
-5.156879 6.664701 -68.169632
-5.337302 3.764224 -67.390007
-5.567104 0.854044 -66.502876
-3.37309 -0.467366 -64.125496
-4.51328 -1.251544 -64.87175
-5.706857 -2.09557 -65.432915
-7.065751 10.647771 -70.345425
-7.004914 12.056722 -70.56385
-6.384573 9.821487 -69.785938
-7.160542 9.281302 -70.109139
-7.065751 10.647771 -70.345425
-6.472523 21.041407 -70.175365
-6.431664 22.22009 -69.847347
-5.728947 20.179187 -69.821171
-6.577006 19.820033 -70.461097
-6.472523 21.041407 -70.175365
-0.517215 31.385143 -59.910983
-1.285961 32.034866 -60.005791
-0.617572 23.573948 -63.59786
-0.561403 24.77805 -63.178047
-0.665095 22.382988 -64.036158
-1.236763 23.401224 -64.44363
-0.617572 23.573948 -63.59786
-5.558153 24.613958 -68.358219
-6.437753 24.434517 -69.051914
0.557474 13.205246 -62.618652
0.201623 14.365894 -63.303693
0.574757 -0.450664 -58.533015
0.69871 0.738756 -58.780358
-0.65546 -0.721541 -60.517817
-0.23076 -0.703383 -59.824707
-1.109905 -0.79365 -61.17622
-0.99894 0.432214 -61.475611
-0.65546 -0.721541 -60.517817
-1.554822 -1.022577 -61.733341
-1.109905 -0.79365 -61.17622
-7.312411 4.937394 -68.964664
-7.24763 6.393741 -69.384529
-6.648715 4.040414 -68.32008
-7.413508 3.48964 -68.535202
-7.312411 4.937394 -68.964664
-6.784002 16.142117 -70.813449
-6.703462 17.359375 -70.756553
-6.03377 15.195595 -70.302925
-6.83401 14.857551 -70.777432
-6.784002 16.142117 -70.813449
-0.503171 28.073813 -61.645033
-0.468202 29.214398 -61.090931
-3.262734 27.072729 -64.968357
-3.329035 28.151364 -64.40538
-2.56306 27.272165 -64.194362
-3.214853 26.095992 -65.531689
-3.980828 26.97519 -65.742706
-3.262734 27.072729 -64.968357
-1.001151 18.820321 -65.049405
-0.90406 20.009218 -64.812258
-0.366729 19.003985 -64.179839
0.55674 9.426761 -61.866173
0.859527 8.265636 -61.067307
0.06138 9.334042 -62.642052
0.227314 10.631379 -62.686321
0.55674 9.426761 -61.866173
-0.072833 4.287311 -61.398536
0.368712 4.413421 -60.691303
0.216251 3.145344 -60.514236
-2.97211 -1.674055 -63.20619
-2.851225 -0.300482 -63.610132
-2.450245 -1.507171 -62.690827
-4.580535 -2.64747 -64.351281
-4.030622 -2.335396 -63.990246
-5.177324 -3.069483 -64.631863
-5.110069 -1.673557 -65.152332
-4.580535 -2.64747 -64.351281
-5.728883 -3.485626 -64.865223
-5.177324 -3.069483 -64.631863
-7.213503 7.877166 -69.784584
-7.160542 9.281302 -70.109139
-6.513491 6.971594 -69.149597
-7.24763 6.393741 -69.384529
-7.213503 7.877166 -69.784584
-6.628296 18.598202 -70.640534
-6.577006 19.820033 -70.461097
-5.908596 17.718986 -70.222923
-6.703462 17.359375 -70.756553
-6.628296 18.598202 -70.640534
-1.983935 31.685847 -60.692452
-1.285961 32.034866 -60.005791
-1.903576 30.711638 -61.403023
-2.678014 31.419244 -61.429974
-1.983935 31.685847 -60.692452
-0.57237 25.866812 -62.716616
-0.528435 27.04246 -62.219646
-1.200207 25.680946 -63.543901
-0.57237 25.866812 -62.716616
-0.561403 24.77805 -63.178047
0.679464 6.964463 -60.978828
0.859527 8.265636 -61.067307
-6.411414 23.321861 -69.495503
-7.265204 24.152275 -69.715667
-6.437753 24.434517 -69.051914
-5.604213 22.502331 -69.183594
-6.431664 22.22009 -69.847347
-6.411414 23.321861 -69.495503
0.088668 17.95216 -63.610241
-0.366729 19.003985 -64.179839
-0.045974 16.686425 -63.787306
0.088668 17.95216 -63.610241
-0.213742 15.476658 -64.023089
-0.631589 16.605321 -64.652767
-0.045974 16.686425 -63.787306
-0.383993 14.28479 -64.169155
-0.213742 15.476658 -64.023089
0.201623 14.365894 -63.303693
0.479663 1.998936 -59.642966
0.69871 0.738756 -58.780358
0.038118 1.872826 -60.350199
0.216251 3.145344 -60.514236
0.479663 1.998936 -59.642966
0.192252 -0.592335 -59.155568
0.574757 -0.450664 -58.533015
-0.121482 0.615371 -60.148068
0.192252 -0.592335 -59.155568
-0.23076 -0.703383 -59.824707
-1.992809 -1.269429 -62.213718
-1.891372 0.113253 -62.614391
-1.554822 -1.022577 -61.733341
-2.450245 -1.507171 -62.690827
-1.992809 -1.269429 -62.213718
-7.390303 2.032872 -68.007305
-7.413508 3.48964 -68.535202
-6.754966 1.115561 -67.335743
-7.390303 2.032872 -68.007305
-6.901912 13.418258 -70.686192
-6.83401 14.857551 -70.777432
-6.18678 12.549493 -70.144565
-7.004914 12.056722 -70.56385
-6.901912 13.418258 -70.686192
-0.492628 30.287311 -60.45706
-0.517215 31.385143 -59.910983
-1.185071 29.905328 -61.299372
-0.492628 30.287311 -60.45706
-0.468202 29.214398 -61.090931
-1.87915 29.638725 -62.036894
-1.903576 30.711638 -61.403023
-1.185071 29.905328 -61.299372
-1.185909 27.801062 -62.507857
-0.503171 28.073813 -61.645033
-0.528435 27.04246 -62.219646
-2.613507 29.397918 -62.885965
-1.87915 29.638725 -62.036894
-1.895002 28.591608 -62.782314
-3.307164 29.114526 -63.661457
-2.613507 29.397918 -62.885965
-3.307164 29.114526 -63.661457
-3.329035 28.151364 -64.40538
-4.750073 26.780592 -66.509838
-3.980828 26.97519 -65.742706
-4.732645 25.811134 -67.095363
-4.750073 26.780592 -66.509838
-4.807288 24.759797 -67.656204
-4.732645 25.811134 -67.095363
-4.007589 24.947116 -66.866878
-4.833098 23.749941 -68.129734
-5.558153 24.613958 -68.358219
-4.807288 24.759797 -67.656204
-0.776963 21.201573 -64.41231
-0.665095 22.382988 -64.036158
-1.411385 21.017909 -65.281876
-0.776963 21.201573 -64.41231
-0.90406 20.009218 -64.812258
0.377023 11.949061 -62.680101
0.557474 13.205246 -62.618652
-0.118337 11.856343 -63.45598
0.377023 11.949061 -62.680101
0.227314 10.631379 -62.686321
0.523875 5.677445 -60.855678
0.368712 4.413421 -60.691303
0.235217 6.842406 -61.698753
0.679464 6.964463 -60.978828
0.523875 5.677445 -60.855678
-6.163612 0.246253 -66.641873
-6.754966 1.115561 -67.335743
-6.158458 1.723352 -67.196747
-3.460527 -1.943308 -63.617119
-2.97211 -1.674055 -63.20619
-3.943185 -0.859455 -64.498623
-3.460527 -1.943308 -63.617119
-4.030622 -2.335396 -63.990246
-6.233488 -1.228554 -66.106892
-6.163612 0.246253 -66.641873
-5.63698 -0.620763 -65.967895
-6.282587 -2.695934 -65.537453
-6.233488 -1.228554 -66.106892
-6.304613 -4.08599 -64.969761
-6.282587 -2.695934 -65.537453
-5.728883 -3.485626 -64.865223
3 0 67 68
3 0 69 71
3 69 16 70
3 69 70 71
3 1 72 73
3 1 74 76
3 74 17 75
3 74 75 76
3 77 18 78
3 79 20 80
3 81 22 82
3 83 82 20
3 81 82 83
3 2 25 23
3 2 27 25
3 3 30 28
3 3 32 30
3 3 34 32
3 84 35 85
3 86 36 87
3 88 37 89
3 90 38 91
3 92 39 93
3 94 93 38
3 92 93 94
3 96 95 39
3 6 97 98
3 6 99 101
3 99 41 100
3 99 100 101
3 7 102 103
3 7 104 106
3 104 42 105
3 104 105 106
3 107 43 108
3 8 44 19
3 8 109 111
3 111 110 44
3 109 110 111
3 8 112 114
3 112 45 113
3 112 113 114
3 9 46 21
3 9 47 46
3 4 115 117
3 115 48 116
3 115 116 117
3 10 49 24
3 10 50 49
3 10 51 50
3 11 52 26
3 11 53 52
3 12 118 119
3 12 120 122
3 120 54 121
3 120 121 122
3 5 123 125
3 123 55 124
3 123 124 125
3 13 56 29
3 13 57 56
3 13 58 57
3 14 59 31
3 14 60 59
3 14 61 60
3 15 62 33
3 15 63 62
3 126 64 127
3 128 127 40
3 126 127 128
3 129 65 130
3 131 66 132
3 133 132 65
3 131 132 133
3 135 134 66
3 16 136 137
3 16 138 140
3 138 6 139
3 138 139 140
3 17 141 142
3 17 143 145
3 143 7 144
3 143 144 145
3 18 146 147
3 18 148 150
3 148 149 150
3 151 19 152
3 20 153 155
3 153 19 154
3 153 154 155
3 20 8 19
3 20 21 8
3 22 21 20
3 22 9 21
3 23 24 4
3 25 24 23
3 25 10 24
3 25 26 10
3 27 26 25
3 27 11 26
3 156 12 157
3 28 29 5
3 30 29 28
3 30 13 29
3 30 31 13
3 32 31 30
3 32 14 31
3 32 33 14
3 34 33 32
3 34 15 33
3 35 158 160
3 158 159 160
3 35 161 163
3 161 1 162
3 161 162 163
3 164 4 165
3 166 4 167
3 168 23 169
3 170 169 4
3 168 169 170
3 36 171 173
3 171 23 172
3 171 172 173
3 36 2 23
3 37 174 175
3 37 176 178
3 176 5 177
3 176 177 178
3 179 37 180
3 38 181 183
3 181 37 182
3 181 182 183
3 38 5 37
3 38 28 5
3 39 28 38
3 39 3 28
3 39 40 3
3 184 40 185
3 186 185 39
3 184 185 186
3 188 187 40
3 41 189 190
3 41 191 192
3 42 193 194
3 42 195 197
3 195 0 196
3 195 196 197
3 198 18 199
3 43 200 202
3 200 18 201
3 200 201 202
3 43 203 205
3 205 204 18
3 203 204 205
3 19 206 208
3 206 43 207
3 206 207 208
3 44 43 19
3 44 209 211
3 211 210 43
3 209 210 211
3 44 212 213
3 215 214 44
3 45 216 217
3 45 218 219
3 21 45 8
3 46 45 21
3 46 220 222
3 222 221 45
3 220 221 222
3 46 223 225
3 223 35 224
3 223 224 225
3 47 35 46
3 47 1 35
3 226 22 227
3 48 228 230
3 228 22 229
3 228 229 230
3 48 9 22
3 24 48 4
3 49 48 24
3 49 9 48
3 49 47 9
3 50 47 49
3 50 1 47
3 50 17 1
3 51 17 50
3 51 7 17
3 26 51 10
3 52 51 26
3 52 7 51
3 52 42 7
3 53 42 52
3 53 0 42
3 231 36 232
3 54 233 235
3 233 36 234
3 233 234 235
3 54 2 36
3 55 236 237
3 55 238 240
3 238 12 239
3 238 239 240
3 29 55 5
3 56 55 29
3 56 12 55
3 56 54 12
3 57 54 56
3 57 2 54
3 57 27 2
3 58 27 57
3 58 11 27
3 31 58 13
3 59 58 31
3 59 11 58
3 59 53 11
3 60 53 59
3 60 0 53
3 60 16 0
3 61 16 60
3 61 6 16
3 33 61 14
3 62 61 33
3 62 6 61
3 62 41 6
3 63 41 62
3 63 241 243
3 243 242 41
3 241 242 243
3 40 34 3
3 64 34 40
3 64 15 34
3 244 64 245
3 65 246 248
3 246 64 247
3 246 247 248
3 65 15 64
3 65 63 15
3 66 63 65
3 66 249 251
3 251 250 63
3 249 250 251
3 66 252 253
3 256 255 66
3 254 255 256
