ply
format ascii 1.0
element vertex 252
property float x
property float y
property float z
element face 243
property list uchar int vertex_index
end_header
-36.950645 7.442912 22.150604
-31.463057 5.207117 30.751188
-37.022942 15.994127 16.656055
-35.30928 -0.987391 27.601145
-34.360027 6.391604 26.527996
-33.544388 2.37894 29.041145
-36.324959 3.186116 24.871439
-37.792313 -0.420272 23.536222
-28.584064 3.661356 34.775482
-29.40975 7.919651 32.303429
-32.117416 9.519486 28.209078
-34.899437 10.576906 23.834059
-37.21637 11.622112 19.406425
-34.802116 14.974083 21.455824
-30.669878 1.110159 33.004108
-32.384689 -1.839841 31.609257
-36.621658 -4.766959 26.489426
-38.732121 -4.609647 22.535482
-35.741772 6.907486 24.318581
-35.33334 4.860558 25.747387
-36.685547 5.393034 23.476173
-37.475151 3.524188 22.86363
-37.861019 5.579551 21.356747
-27.982792 7.063594 34.368069
-33.507305 10.005276 26.114376
-33.71283 12.192002 24.733578
-35.003468 12.733096 22.495535
-30.012764 4.606352 32.741772
-29.656277 2.487712 33.840786
-31.127628 3.257195 31.819195
-34.453754 0.779248 28.307436
-33.032337 0.256819 30.306257
-33.831886 -1.443014 29.697317
-33.279236 -3.502276 30.823378
-34.691231 -3.071093 28.922657
-35.367416 -4.943828 28.354923
-36.044888 -2.792028 26.971754
-38.298698 -2.491943 23.068542
-37.183651 13.793988 18.015362
-38.072121 14.130337 15.83709
-32.919556 5.864341 28.660963
-32.556183 3.890173 29.830557
-33.992039 4.388854 27.78503
-35.04044 2.822871 26.880163
-35.855896 1.098556 26.244526
-36.642025 -0.636074 25.541149
-37.140583 1.450323 24.134541
-38.232361 1.669638 22.085072
-37.887241 16.205294 14.466961
-27.563742 4.951307 35.59177
-28.940929 5.816559 33.634178
-30.434164 6.643051 31.50738
-30.82773 8.646976 30.242521
-31.917423 7.327981 29.381264
-33.325916 7.919718 27.299414
-34.651749 8.489231 25.214701
-35.981308 9.071789 22.943132
-37.192055 9.434239 20.727543
-36.174667 11.155932 21.51952
-36.095161 13.349141 20.328325
-36.015778 15.415788 19.070599
-32.068516 1.82036 31.088835
-31.468325 -0.388482 32.411896
-35.949776 -6.849401 27.832695
-37.21331 -6.843717 25.875435
-37.221226 -2.566384 25.070557
-37.749012 -4.639386 24.564383
-37.501801 7.565628 21.082825
-37.956987 6.633947 20.685897
-37.405832 6.511232 21.753675
-33.078171 12.95963 25.243447
-33.082577 11.865578 25.784691
-33.70071 13.299305 24.140983
-33.078171 12.95963 25.243447
-38.398367 2.661617 21.403355
-37.853756 2.596913 22.474351
-38.019762 3.588892 21.792634
-38.726667 1.652094 20.988914
-38.398367 2.661617 21.403355
-27.06808 5.589224 35.977146
-26.869814 4.552044 36.549397
-26.374152 5.18996 36.934772
-31.472573 9.083231 29.2258
-30.922149 9.733624 29.665419
-31.566992 10.169878 28.648698
-28.351196 2.672046 35.344729
-27.870073 3.340152 35.729607
-29.882607 0.714029 34.052354
-29.375807 1.402806 34.470693
-30.163077 1.798936 33.422447
-30.334546 0.052117 33.664782
-29.882607 0.714029 34.052354
-31.622566 -2.120256 32.590292
-31.164384 -1.394577 32.991611
-31.926507 -1.114162 32.010576
-32.057386 -2.850528 32.191921
-31.622566 -2.120256 32.590292
-32.880043 -4.46116 31.457452
-33.637776 -4.324354 30.507518
-38.499472 -5.716412 23.221304
-38.007918 -5.731281 24.235755
-38.240566 -4.624517 23.549932
-38.89695 -5.747503 22.280376
-38.499472 -5.716412 23.221304
-37.706121 10.68901 19.003356
-37.693964 9.595073 19.663916
-37.204212 10.528175 20.066984
-38.353087 15.30206 14.032342
-38.225164 16.371654 13.317007
-38.212696 4.616574 21.039192
-38.019762 3.588892 21.792634
-37.668085 4.55187 22.110188
-38.348571 5.71286 20.29347
-38.212696 4.616574 21.039192
-38.348571 5.71286 20.29347
-37.956987 6.633947 20.685897
-27.413403 7.610451 34.874398
-27.277605 6.645367 35.365296
-28.07467 8.110668 33.879221
-27.413403 7.610451 34.874398
-28.788149 8.538697 32.846901
-28.696271 7.491623 33.335749
-28.07467 8.110668 33.879221
-32.28487 10.529321 27.522441
-31.566992 10.169878 28.648698
-31.734446 11.179713 27.962061
-32.979815 10.772215 26.47509
-32.81236 9.762381 27.161727
-32.28487 10.529321 27.522441
-33.610067 11.098639 25.423977
-32.979815 10.772215 26.47509
-33.082577 11.865578 25.784691
-34.34603 13.569852 23.021961
-34.358149 12.462549 23.614556
-33.70071 13.299305 24.140983
-34.245354 14.690346 22.502106
-34.902792 13.85359 21.975679
-34.34603 13.569852 23.021961
-34.343773 -4.108763 29.557158
-33.637776 -4.324354 30.507518
-33.985233 -3.286684 29.873018
-35.029324 -4.00746 28.63879
-34.681866 -5.04513 29.273291
-34.343773 -4.108763 29.557158
-38.566177 -1.448365 22.239582
-38.045506 -1.456107 23.302382
-38.312984 -0.41253 22.473422
-38.765041 -2.54005 21.990218
-38.566177 -1.448365 22.239582
-38.981752 -3.598902 21.723688
-38.51541 -3.550795 22.802012
-38.765041 -2.54005 21.990218
-39.105463 -4.706291 21.529038
-38.981752 -3.598902 21.723688
-37.674914 12.907903 17.612242
-37.691273 11.821965 18.307773
-37.20001 12.70805 18.710893
-38.119149 13.076078 16.523106
-37.674914 12.907903 17.612242
-37.627886 13.962163 16.926226
-38.537949 13.174667 15.399493
-38.119149 13.076078 16.523106
-38.533008 0.632425 21.747847
-38.312984 -0.41253 22.473422
-38.012337 0.624683 22.810647
-38.533008 0.632425 21.747847
-38.726667 1.652094 20.988914
-37.308039 17.165105 14.94886
-37.455092 16.099711 15.561508
-36.875889 17.059521 16.043408
-37.705275 17.307223 13.829462
-37.308039 17.165105 14.94886
-38.225164 16.371654 13.317007
-37.705275 17.307223 13.829462
-27.359912 3.985127 36.13775
-26.869814 4.552044 36.549397
-28.073903 4.306331 35.183626
-27.870073 3.340152 35.729607
-27.359912 3.985127 36.13775
-27.773267 6.007451 34.979919
-27.06808 5.589224 35.977146
-27.277605 6.645367 35.365296
-29.501207 8.922262 31.802247
-28.788149 8.538697 32.846901
-30.210197 9.285925 30.771793
-30.922149 9.733624 29.665419
-30.11874 8.283314 31.272975
-29.501207 8.922262 31.802247
-30.210197 9.285925 30.771793
-34.176572 15.777112 21.949296
-34.245354 14.690346 22.502106
-34.741573 16.04976 20.832071
-34.176572 15.777112 21.949296
-35.348404 16.270612 19.639459
-35.408947 15.194935 20.263212
-34.741573 16.04976 20.832071
-35.893006 16.549758 18.435791
-35.348404 16.270612 19.639459
-36.396587 16.838928 17.228518
-36.51936 15.704957 17.863327
-35.893006 16.549758 18.435791
-36.875889 17.059521 16.043408
-36.396587 16.838928 17.228518
-28.887303 2.085224 34.877381
-28.351196 2.672046 35.344729
-29.120171 3.074534 34.308134
-28.887303 2.085224 34.877381
-29.375807 1.402806 34.470693
-30.73377 -0.697203 33.368675
-30.334546 0.052117 33.664782
-31.069102 0.360838 32.708002
-30.73377 -0.697203 33.368675
-31.164384 -1.394577 32.991611
-32.504659 -3.681745 31.798982
-32.057386 -2.850528 32.191921
-32.831963 -2.671059 31.216318
-32.504659 -3.681745 31.798982
-32.880043 -4.46116 31.457452
-34.98303 -5.921424 29.011373
-34.681866 -5.04513 29.273291
-35.27421 -6.874211 28.750259
-34.98303 -5.921424 29.011373
-35.658596 -5.896615 28.093809
-35.601529 -7.829833 28.435782
-35.27421 -6.874211 28.750259
-36.265045 -7.889531 27.503816
-35.916798 -8.869962 28.106902
-35.601529 -7.829833 28.435782
-36.896812 -7.886689 26.525185
-36.265045 -7.889531 27.503816
-36.581543 -6.846559 26.854065
-37.43186 -7.874846 25.63382
-36.896812 -7.886689 26.525185
-37.740066 -6.833447 24.891281
-37.481161 -5.741551 25.219909
-38.007918 -5.731281 24.235755
-37.43186 -7.874846 25.63382
-37.740066 -6.833447 24.891281
-38.89695 -5.747503 22.280376
-39.105463 -4.706291 21.529038
-37.622506 8.561291 20.371295
-37.501801 7.565628 21.082825
-37.07135 8.438575 21.439073
-37.622506 8.561291 20.371295
-37.693964 9.595073 19.663916
-37.706121 10.68901 19.003356
-37.691273 11.821965 18.307773
-38.445526 14.264582 14.717407
-37.979681 15.167815 15.152026
-38.353087 15.30206 14.032342
-38.537949 13.174667 15.399493
-38.445526 14.264582 14.717407
3 0 20 18
3 0 22 20
3 0 67 69
3 69 68 22
3 67 68 69
3 70 25 71
3 73 72 25
3 1 29 27
3 3 32 30
3 3 34 32
3 3 36 34
3 2 39 38
3 4 42 40
3 6 43 19
3 6 44 43
3 6 46 44
3 74 47 75
3 76 75 21
3 74 75 76
3 78 77 47
3 79 49 80
3 79 80 81
3 9 50 23
3 9 51 50
3 10 82 84
3 82 52 83
3 82 83 84
3 10 53 52
3 10 54 53
3 11 55 24
3 11 56 55
3 11 58 56
3 13 59 26
3 13 60 59
3 8 85 86
3 14 87 89
3 89 88 28
3 87 88 89
3 14 90 91
3 5 61 41
3 15 62 31
3 15 92 94
3 94 93 62
3 92 93 94
3 15 95 96
3 98 97 33
3 16 63 35
3 16 64 63
3 7 65 45
3 17 66 37
3 17 99 101
3 101 100 66
3 99 100 101
3 17 102 103
3 12 104 106
3 106 105 57
3 104 105 106
3 108 107 48
3 18 19 4
3 20 19 18
3 20 6 19
3 20 21 6
3 22 21 20
3 22 109 111
3 111 110 21
3 109 110 111
3 22 112 113
3 115 114 22
3 116 23 117
3 118 23 119
3 120 9 121
3 122 121 23
3 120 121 122
3 123 10 124
3 123 124 125
3 126 24 127
3 128 127 10
3 126 127 128
3 25 129 131
3 129 24 130
3 129 130 131
3 25 11 24
3 25 26 11
3 132 26 133
3 134 133 25
3 132 133 134
3 135 13 136
3 137 136 26
3 135 136 137
3 27 28 8
3 29 28 27
3 29 14 28
3 30 31 5
3 32 31 30
3 32 15 31
3 32 33 15
3 34 33 32
3 34 138 140
3 140 139 33
3 138 139 140
3 34 141 143
3 141 35 142
3 141 142 143
3 36 35 34
3 36 16 35
3 144 37 145
3 146 145 7
3 144 145 146
3 147 37 148
3 149 17 150
3 151 150 37
3 149 150 151
3 153 152 17
3 38 154 156
3 156 155 12
3 154 155 156
3 39 157 159
3 159 158 38
3 157 158 159
3 39 160 161
3 40 41 1
3 42 41 40
3 42 5 41
3 19 42 4
3 43 42 19
3 43 5 42
3 43 30 5
3 44 30 43
3 44 3 30
3 44 45 3
3 46 45 44
3 46 7 45
3 21 46 6
3 47 46 21
3 47 7 46
3 47 162 164
3 164 163 7
3 162 163 164
3 166 165 47
3 167 48 168
3 169 168 2
3 167 168 169
3 170 48 171
3 173 172 48
3 49 174 175
3 49 176 178
3 176 8 177
3 176 177 178
3 23 179 181
3 179 49 180
3 179 180 181
3 50 49 23
3 50 8 49
3 50 27 8
3 51 27 50
3 51 1 27
3 182 9 183
3 52 184 185
3 52 186 188
3 186 9 187
3 186 187 188
3 52 51 9
3 53 51 52
3 53 1 51
3 53 40 1
3 54 40 53
3 54 4 40
3 24 54 10
3 55 54 24
3 55 4 54
3 55 18 4
3 56 18 55
3 56 0 18
3 56 57 0
3 58 57 56
3 58 12 57
3 26 58 11
3 59 58 26
3 59 12 58
3 59 38 12
3 60 38 59
3 60 2 38
3 189 13 190
3 191 13 192
3 193 60 194
3 195 194 13
3 193 194 195
3 196 60 197
3 198 2 199
3 200 199 60
3 198 199 200
3 202 201 2
3 28 203 205
3 205 204 8
3 203 204 205
3 207 206 28
3 41 29 1
3 61 29 41
3 61 14 29
3 31 61 5
3 62 61 31
3 62 14 61
3 62 208 210
3 210 209 14
3 208 209 210
3 212 211 62
3 33 213 215
3 215 214 15
3 213 214 215
3 217 216 33
3 35 218 219
3 63 220 222
3 222 221 35
3 220 221 222
3 63 223 224
3 63 225 227
3 225 226 227
3 64 228 230
3 230 229 63
3 228 229 230
3 64 231 232
3 45 36 3
3 65 36 45
3 65 16 36
3 37 65 7
3 66 65 37
3 66 16 65
3 66 64 16
3 233 64 234
3 235 234 66
3 233 234 235
3 237 236 64
3 239 238 17
3 57 240 242
3 242 241 0
3 240 241 242
3 244 243 57
3 246 245 12
3 48 39 2
3 247 39 248
3 249 248 48
3 247 248 249
3 251 250 39
