ply
format ascii 1.0
element vertex 315
property float x
property float y
property float z
element face 331
property list uchar int vertex_index
end_header
-36.557617 42.758991 13.262677
-33.532192 53.716431 17.899597
-35.186871 58.668724 6.534682
-32.45055 67.327248 12.862076
-34.208519 38.426914 23.43647
-32.471657 57.825024 20.05521
-33.026588 60.67437 15.170556
-32.068691 63.995361 17.948811
-32.734913 51.45232 22.900045
-37.630531 44.434753 7.488549
-34.269394 66.130615 3.451054
-35.851204 60.519714 0.547992
-34.785595 68.031776 -2.786148
-35.353409 41.0303 18.477612
-35.551529 32.37114 21.230562
-36.858196 34.499058 16.277618
-34.938328 48.759846 15.631475
-35.998081 50.823803 9.877137
-34.34026 56.329849 12.579843
-33.668316 63.569801 9.510971
-32.922848 70.542595 6.844294
-33.002907 44.06916 25.624708
-33.934837 46.416031 20.752296
-36.841595 52.719406 3.933721
-32.059753 59.679497 21.148384
-32.282318 60.846745 18.971643
-32.19762 56.759335 22.341602
-37.367821 39.511211 11.985182
-37.90564 40.447441 9.09131
-37.089249 43.666286 10.540902
-33.779652 69.733574 2.130028
-34.483131 67.409515 0.391394
-35.958332 42.015713 15.884727
-36.09848 37.874977 17.419367
-36.722713 38.899921 14.766443
-37.484669 35.673397 13.520698
-34.221359 51.1777 16.801624
-34.710873 52.580669 13.892052
-33.955055 54.86956 15.324269
-32.766502 63.832394 14.006853
-33.363518 61.897423 12.537248
-33.035122 65.381203 11.222381
-33.277695 67.044838 8.309391
-32.671528 68.987038 9.991183
-32.599705 42.964024 27.973616
-32.512333 46.802696 26.628277
-33.140511 52.37257 20.456516
-33.278557 48.913948 21.958454
-33.730389 50.156349 19.382532
-34.428158 47.462101 18.328541
-35.608166 54.83622 8.173018
-36.443279 51.745476 7.013088
-36.016811 55.671703 5.318001
-36.09605 61.465462 -2.650477
-36.67952 57.33353 -0.772066
-33.632324 37.474831 25.791687
-32.94088 56.094173 18.898537
-33.268238 57.308662 16.53821
-32.734447 59.307972 17.640991
-32.503494 62.373699 16.595057
-32.258316 65.558235 15.536892
-32.403915 50.362328 25.264143
-32.29969 53.709064 23.78437
-32.636791 54.691875 21.321169
-34.737549 62.44305 4.921658
-35.518196 59.787434 3.513445
-35.043137 63.467766 1.906961
-35.299477 64.301941 -0.962934
-35.584816 64.990303 -4.337529
-35.751976 65.804565 -7.507118
-34.804298 39.583126 20.976297
-34.839672 35.465405 22.444736
-35.456287 36.677925 20.025362
-36.185326 33.61544 18.830004
-36.886074 30.528727 17.616112
-37.60387 31.363972 14.885789
-38.206436 32.287548 12.224018
-35.747314 45.881504 14.417443
-36.279102 46.773212 11.757179
-35.461063 49.940109 12.799889
-35.156357 53.710651 11.174404
-34.786663 57.3582 9.725929
-33.653137 58.43943 13.957865
-33.999691 59.994453 11.086966
-34.400726 61.121853 8.0884
-33.986855 64.9468 6.433579
-33.538647 68.445084 5.283829
-33.093952 72.117279 3.831921
-32.641483 39.055695 29.270721
-33.073154 40.093494 26.989906
-33.570919 41.297684 24.55513
-32.868919 47.866913 24.327827
-33.451134 45.243771 23.215956
-34.097458 42.479687 22.118971
-34.615002 43.445538 19.831594
-35.166645 44.852615 17.142178
-36.808544 47.618462 8.846822
-37.216919 48.653805 5.957278
-36.307896 56.826107 2.368718
-32.137383 70.892334 11.648635
-32.3508 72.380524 8.681271
-32.477814 74.219971 5.663456
-31.86231 61.588316 21.100916
-31.989404 60.971115 20.682156
-31.932659 60.296698 21.567144
-31.932659 60.296698 21.567144
-31.96358 59.186924 22.151912
-33.886843 70.375321 0.452768
-33.535498 71.607574 1.333775
-32.31156 48.06976 27.117379
-32.362288 46.230117 27.756246
-36.532541 59.687055 -3.354476
-36.239658 61.649689 -4.263941
-34.204985 36.352121 24.163241
-33.916887 35.87608 25.34085
-33.920422 37.950873 24.614078
-32.1158 54.826569 24.214242
-32.165763 53.222806 24.933212
-31.981874 54.340311 25.363084
-38.00065 42.836874 6.840179
-38.138205 40.843218 7.641559
-37.768085 42.441097 8.289929
-37.831396 44.948955 5.957415
-38.00065 42.836874 6.840179
-34.881773 68.456359 -4.344502
-35.281383 66.935623 -5.120193
-35.185205 66.511039 -3.561838
-38.172314 34.230219 11.423347
-37.845552 33.980473 12.872358
-37.81143 35.923144 12.071687
-38.519441 32.535141 10.734894
-38.172314 34.230219 11.423347
-32.45022 40.467501 29.749683
-32.451616 38.550888 30.393988
-37.245911 51.057663 3.324861
-37.433573 49.024862 4.33664
-37.029257 50.686605 4.945499
-36.938603 55.366663 0.078925
-37.104839 55.648323 -1.553306
-35.860882 65.953617 -9.132397
-35.46826 67.659599 -8.412789
-35.194599 31.833014 22.481802
-34.83867 33.380146 23.088889
-35.1956 33.918273 21.837649
-31.989389 72.506801 11.122407
-31.923969 71.481255 12.681429
-32.096097 73.250896 9.638725
-32.244091 71.636429 10.164953
-31.989389 72.506801 11.122407
-32.276217 75.876274 5.092009
-32.218576 75.032143 6.687386
-32.352303 76.64013 3.496063
-32.5539 74.983826 4.067511
-32.276217 75.876274 5.092009
-32.100686 61.554739 19.593785
-32.171036 60.263121 20.060014
-31.989404 60.971115 20.682156
-31.993873 63.129047 19.082369
-32.175505 62.421053 18.460227
-32.100686 61.554739 19.593785
-32.032514 57.726843 22.748521
-32.064766 56.351704 23.492859
-32.128687 58.219416 21.744993
-32.032514 57.726843 22.748521
-31.96358 59.186924 22.151912
-37.63673 39.979326 10.538246
-38.021915 38.310165 9.856993
-37.753006 37.84205 11.303929
-34.238582 69.213291 -0.416549
-34.131391 68.571545 1.260711
-33.886843 70.375321 0.452768
-34.389814 69.524421 -2.00532
-34.634363 67.720645 -1.197377
-34.238582 69.213291 -0.416549
-34.48348 70.04784 -3.61785
-34.389814 69.524421 -2.00532
-37.753006 37.84205 11.303929
-37.81143 35.923144 12.071687
-37.426245 37.592304 12.75294
-32.405974 44.310782 28.428916
-32.429331 42.421666 29.101131
-32.556019 44.88336 27.300947
-32.405974 44.310782 28.428916
-32.362288 46.230117 27.756246
-36.824276 57.621089 -2.41527
-36.387785 59.399496 -1.711272
-36.532541 59.687055 -3.354476
-37.104839 55.648323 -1.553306
-36.824276 57.621089 -2.41527
-33.623848 35.411055 26.457925
-33.368031 36.80162 27.006107
-33.623848 35.411055 26.457925
-33.916887 35.87608 25.34085
-35.855497 28.769775 21.309793
-35.527231 30.311522 21.866207
-35.879795 30.829392 20.674149
-32.217876 51.549438 25.673099
-32.257351 49.849576 26.435312
-32.351802 52.035696 24.524256
-32.217876 51.549438 25.673099
-32.165763 53.222806 24.933212
-32.248655 55.2342 23.062986
-32.1158 54.826569 24.214242
-32.064766 56.351704 23.492859
-38.274008 38.709623 8.442013
-38.021915 38.310165 9.856993
-38.274008 38.709623 8.442013
-38.138205 40.843218 7.641559
-35.984041 63.412109 -5.107467
-36.239658 61.649689 -4.263941
-35.840433 63.227882 -3.494003
-35.668396 65.397434 -5.922324
-36.067621 63.81924 -6.692261
-35.984041 63.412109 -5.107467
-35.364964 67.342754 -6.704987
-35.668396 65.397434 -5.922324
-35.281383 66.935623 -5.120193
-35.46826 67.659599 -8.412789
-35.364964 67.342754 -6.704987
-34.881773 68.456359 -4.344502
-34.48348 70.04784 -3.61785
-36.196694 31.451543 19.473869
-35.879795 30.829392 20.674149
-35.868428 32.99329 20.030283
-36.547067 29.908186 18.866923
-36.196694 31.451543 19.473869
-36.5357 32.072083 18.223058
-36.905112 28.435569 18.140524
-36.547067 29.908186 18.866923
-37.246309 28.878763 16.917233
-36.905112 28.435569 18.140524
-37.605207 29.296386 15.552071
-37.246309 28.878763 16.917233
-37.244972 30.94635 16.250951
-37.955289 29.660462 14.179144
-37.605207 29.296386 15.552071
-38.256572 30.12225 12.848258
-37.955289 29.660462 14.179144
-37.905153 31.82576 13.554903
-38.5373 30.521895 11.548008
-38.256572 30.12225 12.848258
-38.5373 30.521895 11.548008
-38.519441 32.535141 10.734894
-33.192648 72.799427 2.184722
-33.535498 71.607574 1.333775
-33.436802 70.925427 2.980974
-32.649673 37.026342 29.84106
-32.459806 36.521536 30.964327
-32.451616 38.550888 30.393988
-32.87261 37.592053 28.745625
-32.649673 37.026342 29.84106
-32.620594 41.00986 28.622169
-32.45022 40.467501 29.749683
-32.429331 42.421666 29.101131
-33.088446 38.110952 27.605217
-32.87261 37.592053 28.745625
-32.857319 39.574595 28.130313
-33.352739 38.784163 26.390797
-33.368031 36.80162 27.006107
-33.088446 38.110952 27.605217
-32.458124 48.582512 25.94621
-32.31156 48.06976 27.117379
-32.257351 49.849576 26.435312
-37.62459 47.058481 5.19178
-37.831396 44.948955 5.957415
-37.423725 46.544279 6.722913
-37.62459 47.058481 5.19178
-37.433573 49.024862 4.33664
-36.752791 55.112952 1.649317
-36.493708 57.079819 0.798326
-36.938603 55.366663 0.078925
-37.01964 53.059601 2.431818
-36.574745 54.772756 3.151219
-36.752791 55.112952 1.649317
-37.245911 51.057663 3.324861
-37.01964 53.059601 2.431818
-36.169979 64.013063 -8.27531
-36.067621 63.81924 -6.692261
-36.169979 64.013063 -8.27531
-35.860882 65.953617 -9.132397
-34.520561 34.871366 23.667375
-34.204985 36.352121 24.163241
-34.524096 36.946159 22.940603
-34.520561 34.871366 23.667375
-34.83867 33.380146 23.088889
-35.170302 29.773396 23.117447
-35.194599 31.833014 22.481802
-35.527231 30.311522 21.866207
-31.898701 64.421616 18.829326
-31.993873 63.129047 19.082369
-31.949094 65.527321 17.587673
-31.898701 64.421616 18.829326
-32.043906 66.308757 16.381713
-32.163504 64.776798 16.742852
-31.949094 65.527321 17.587673
-32.124783 67.202343 15.04044
-32.043906 66.308757 16.381713
-32.2209 68.086849 13.703032
-32.354433 66.442741 14.199484
-32.124783 67.202343 15.04044
-32.064317 69.869393 13.096312
-31.923969 71.481255 12.681429
-32.293966 69.109791 12.255356
-32.2209 68.086849 13.703032
-32.064317 69.869393 13.096312
-32.155068 74.112419 8.196293
-32.096097 73.250896 9.638725
-32.414307 73.300247 7.172364
-32.155068 74.112419 8.196293
-32.218576 75.032143 6.687386
-32.861969 73.93248 3.151743
-32.785883 73.168625 4.747688
-32.5539 74.983826 4.067511
-33.192648 72.799427 2.184722
-32.861969 73.93248 3.151743
3 104 103 24
3 102 103 104
3 105 24 106
3 0 29 27
3 108 107 30
3 0 34 32
3 0 27 34
3 1 38 36
3 3 41 39
3 3 43 41
3 109 45 110
3 1 48 46
3 1 36 48
3 2 52 50
3 112 111 53
3 4 113 115
3 115 114 55
3 113 114 115
3 5 58 56
3 7 59 25
3 7 60 59
3 116 62 117
3 116 117 118
3 5 63 26
3 5 56 63
3 9 119 121
3 121 120 28
3 119 120 121
3 9 122 123
3 10 66 64
3 12 67 31
3 12 68 67
3 12 124 126
3 126 125 68
3 124 125 126
3 13 72 70
3 15 73 33
3 15 74 73
3 15 75 74
3 127 76 128
3 129 128 35
3 127 128 129
3 131 130 76
3 16 79 77
3 18 80 37
3 18 81 80
3 6 82 57
3 19 83 40
3 19 84 83
3 19 85 84
3 20 86 42
3 20 87 86
3 132 88 133
3 21 89 44
3 21 90 89
3 8 91 61
3 22 92 47
3 22 93 92
3 22 94 93
3 16 95 49
3 16 77 95
3 17 96 78
3 23 97 51
3 23 134 136
3 136 135 97
3 134 135 136
3 11 98 65
3 138 137 54
3 140 139 69
3 14 141 143
3 143 142 71
3 141 142 143
3 144 99 145
3 146 100 147
3 148 147 99
3 146 147 148
3 149 101 150
3 153 152 101
3 151 152 153
3 24 25 5
3 154 25 155
3 156 155 24
3 154 155 156
3 157 7 158
3 159 158 25
3 157 158 159
3 160 26 161
3 24 162 164
3 162 26 163
3 162 163 164
3 24 5 26
3 27 165 167
3 165 28 166
3 165 166 167
3 29 28 27
3 29 9 28
3 30 31 10
3 168 31 169
3 170 169 30
3 168 169 170
3 171 12 172
3 173 172 31
3 171 172 173
3 175 174 12
3 32 33 13
3 34 33 32
3 34 15 33
3 34 35 15
3 27 35 34
3 27 176 178
3 178 177 35
3 176 177 178
3 36 37 16
3 38 37 36
3 38 18 37
3 39 40 6
3 41 40 39
3 41 19 40
3 41 42 19
3 43 42 41
3 43 20 42
3 179 44 180
3 45 181 183
3 181 44 182
3 181 182 183
3 45 21 44
3 46 47 8
3 48 47 46
3 48 22 47
3 48 49 22
3 36 49 48
3 36 16 49
3 50 51 17
3 52 51 50
3 52 23 51
3 53 54 11
3 184 54 185
3 186 185 53
3 184 185 186
3 188 187 54
3 55 189 190
3 192 191 55
3 195 194 14
3 193 194 195
3 56 57 1
3 58 57 56
3 58 6 57
3 25 58 5
3 59 58 25
3 59 6 58
3 59 39 6
3 60 39 59
3 60 3 39
3 196 61 197
3 62 198 200
3 198 61 199
3 198 199 200
3 62 8 61
3 26 201 203
3 201 62 202
3 201 202 203
3 63 62 26
3 63 8 62
3 63 46 8
3 56 46 63
3 56 1 46
3 28 204 205
3 207 206 28
3 64 65 2
3 66 65 64
3 66 11 65
3 31 66 10
3 67 66 31
3 67 11 66
3 67 53 11
3 68 53 67
3 68 208 210
3 210 209 53
3 208 209 210
3 68 211 213
3 211 69 212
3 211 212 213
3 214 69 215
3 216 215 68
3 214 215 216
3 218 217 69
3 220 219 12
3 70 71 4
3 72 71 70
3 72 14 71
3 33 72 13
3 73 72 33
3 73 14 72
3 73 221 223
3 223 222 14
3 221 222 223
3 74 224 226
3 226 225 73
3 224 225 226
3 74 227 228
3 74 229 230
3 75 231 233
3 233 232 74
3 231 232 233
3 75 234 235
3 35 75 15
3 76 75 35
3 76 236 238
3 238 237 75
3 236 237 238
3 76 239 240
3 242 241 76
3 77 78 0
3 79 78 77
3 79 17 78
3 37 79 16
3 80 79 37
3 80 17 79
3 80 50 17
3 81 50 80
3 81 2 50
3 57 38 1
3 82 38 57
3 82 18 38
3 40 82 6
3 83 82 40
3 83 18 82
3 83 81 18
3 84 81 83
3 84 2 81
3 84 64 2
3 85 64 84
3 85 10 64
3 42 85 19
3 86 85 42
3 86 10 85
3 86 30 10
3 87 30 86
3 87 243 245
3 245 244 30
3 243 244 245
3 88 246 248
3 246 247 248
3 88 249 250
3 44 251 253
3 251 88 252
3 251 252 253
3 89 88 44
3 89 254 256
3 256 255 88
3 254 255 256
3 89 257 259
3 257 55 258
3 257 258 259
3 90 55 89
3 90 4 55
3 61 260 262
3 260 45 261
3 260 261 262
3 91 45 61
3 91 21 45
3 47 91 8
3 92 91 47
3 92 21 91
3 92 90 21
3 93 90 92
3 93 4 90
3 93 70 4
3 94 70 93
3 94 13 70
3 49 94 22
3 95 94 49
3 95 13 94
3 95 32 13
3 77 32 95
3 77 0 32
3 78 29 0
3 96 29 78
3 96 9 29
3 51 96 17
3 97 96 51
3 97 9 96
3 97 263 265
3 265 264 9
3 263 264 265
3 267 266 97
3 65 52 2
3 98 52 65
3 98 23 52
3 54 98 11
3 268 98 269
3 270 269 54
3 268 269 270
3 271 23 272
3 273 272 98
3 271 272 273
3 275 274 23
3 69 276 277
3 279 278 69
3 71 280 282
3 282 281 4
3 280 281 282
3 284 283 71
3 287 286 14
3 285 286 287
3 288 7 289
3 290 7 291
3 292 60 293
3 294 293 7
3 292 293 294
3 295 60 296
3 297 3 298
3 299 298 60
3 297 298 299
3 99 300 301
3 99 302 304
3 302 3 303
3 302 303 304
3 99 43 3
3 100 43 99
3 100 20 43
3 305 100 306
3 101 307 309
3 307 100 308
3 307 308 309
3 101 20 100
3 101 87 20
3 310 87 311
3 312 311 101
3 310 311 312
3 314 313 87
