ply
format ascii 1.0
element vertex 253
property float x
property float y
property float z
element face 225
property list uchar int vertex_index
end_header
-11.479445 -64.831635 -47.242298
-20.432407 -62.292732 -45.57317
-7.210773 -57.835186 -48.236122
-11.607743 -57.617226 -48.996864
-20.290768 -68.04528 -42.717564
4.000534 -55.181374 -43.922779
0.615734 -56.685314 -45.567657
-3.047069 -57.825245 -46.971611
-7.676212 -49.933796 -49.852737
-15.622813 -75.745621 -41.756474
-16.037224 -69.874748 -44.38171
-16.001539 -63.777351 -46.796658
-20.528307 -55.74474 -48.374836
-16.064484 -56.799313 -49.111538
-9.180356 -65.132454 -47.167278
-9.184661 -61.739174 -47.874416
-11.580535 -61.177593 -48.155846
-9.472733 -53.914165 -49.492229
-7.463145 -53.843575 -49.023716
-20.45392 -65.017265 -44.231689
-18.276924 -68.963867 -43.602409
-18.264578 -66.098114 -44.965599
-16.089151 -66.884857 -45.59623
-18.385418 -62.720352 -46.366329
-22.475016 -51.540051 -49.374207
-20.33695 -52.337257 -49.776516
-18.278963 -56.257652 -48.874928
-18.378965 -52.583817 -50.132149
-16.174675 -53.058712 -50.23698
-1.617856 -53.342098 -46.987194
-4.761484 -61.883659 -46.963612
-7.070065 -61.655396 -47.549168
-9.481711 -57.739536 -48.713139
-11.67665 -53.977001 -49.841969
-22.326283 -64.477661 -43.189476
-22.552197 -61.458302 -44.69466
-1.16364 -57.328369 -46.30019
-3.508082 -53.624573 -47.743881
-5.180735 -57.659626 -47.708118
-5.352994 -53.984669 -48.355747
-17.968643 -71.898132 -42.258404
-15.807659 -72.784645 -43.167927
-13.564655 -70.854942 -44.958305
-13.637247 -67.76506 -46.036343
-13.858095 -64.278328 -47.124767
-22.596664 -58.327919 -46.249352
-22.653791 -54.869938 -47.838688
-20.533926 -59.068707 -46.975609
-18.277325 -59.673912 -47.617489
-16.049492 -60.083256 -48.06144
-13.781921 -60.974552 -48.12307
-13.899952 -57.245865 -49.145401
-13.990225 -53.549141 -50.131645
2.522916 -56.273613 -44.648689
-10.329901 -64.982045 -47.204788
-9.024276 -67.021012 -46.738014
-10.17382 -66.870602 -46.775524
-9.551579 -51.932732 -49.937259
-10.558763 -52.102209 -50.104501
-20.352923 -50.495018 -50.457454
-21.347092 -50.255098 -50.290581
-19.373931 -50.618298 -50.635271
-19.357958 -52.460537 -49.954332
-20.352923 -50.495018 -50.457454
-18.287824 -50.795496 -50.740038
-19.373931 -50.618298 -50.635271
-1.76764 -51.271977 -47.355537
-2.609963 -51.535795 -47.691462
-6.925662 -63.512978 -47.204705
-5.79753 -63.740857 -46.947619
-23.389585 -62.545578 -43.464895
-23.406259 -63.902591 -42.592417
-23.502542 -61.035899 -44.217487
-22.43924 -62.967982 -43.942068
-23.389585 -62.545578 -43.464895
4.740469 -54.719206 -43.501084
5.040942 -56.713997 -43.210285
3.67023 -53.180014 -44.284289
4.740469 -54.719206 -43.501084
-2.105354 -57.576807 -46.635901
-0.994575 -59.321731 -46.009783
-1.936289 -59.57017 -46.345494
-6.649169 -50.050171 -49.484275
-5.48756 -52.075607 -48.735781
-6.514603 -51.959232 -49.104242
-7.683034 -48.041319 -50.258904
-6.649169 -50.050171 -49.484275
-14.418941 -77.631649 -41.49302
-15.665218 -76.890327 -41.035658
-14.543986 -76.234646 -42.145489
-14.418941 -77.631649 -41.49302
-19.129706 -69.971706 -42.487984
-18.995094 -71.456604 -41.696909
-20.156157 -69.530178 -41.926489
-14.724739 -71.941017 -44.077393
-14.609957 -73.395965 -43.470501
-15.922441 -71.329696 -43.774818
-14.800939 -70.364845 -44.670007
-13.488455 -72.431114 -44.36569
-14.724739 -71.941017 -44.077393
-23.600148 -56.315357 -46.650355
-23.624381 -57.886379 -45.817299
-24.627865 -55.873817 -46.218302
-14.949322 -51.4711 -50.732671
-15.08245 -53.303927 -50.184313
-16.041547 -51.225886 -50.785339
-13.910741 -51.686134 -50.6259
-14.949322 -51.4711 -50.732671
1.569325 -56.479463 -45.108173
2.707281 -58.201128 -44.405115
1.75369 -58.406978 -44.864599
-7.985986 -66.999786 -46.693304
-9.024276 -67.021012 -46.738014
-7.980808 -65.251507 -47.01376
-7.985986 -66.999786 -46.693304
-9.182509 -63.435814 -47.520847
-7.98296 -63.554867 -47.367328
-7.980808 -65.251507 -47.01376
4.305574 -57.284903 -43.610868
5.040942 -56.713997 -43.210285
-2.917556 -59.726273 -46.683082
-1.936289 -59.57017 -46.345494
-8.546786 -51.897436 -49.703003
-8.467939 -53.87887 -49.257973
-9.551579 -51.932732 -49.937259
-8.653319 -49.942547 -50.117514
-7.569679 -51.888686 -49.438226
-8.546786 -51.897436 -49.703003
-8.666683 -48.004868 -50.57109
-8.653319 -49.942547 -50.117514
-16.756954 -75.168026 -41.227734
-15.665218 -76.890327 -41.035658
-22.416125 -49.856495 -50.089427
-23.467385 -49.516621 -49.845356
-21.405983 -51.938654 -49.575361
-22.416125 -49.856495 -50.089427
-21.347092 -50.255098 -50.290581
-17.185679 -51.032944 -50.792454
-17.27682 -52.821264 -50.184565
-18.287824 -50.795496 -50.740038
-16.041547 -51.225886 -50.785339
-17.185679 -51.032944 -50.792454
-0.733712 -52.998942 -46.612353
0.383083 -54.670549 -45.902584
-0.501061 -55.013706 -46.277425
-0.733712 -52.998942 -46.612353
-1.76764 -51.271977 -47.355537
-4.643239 -63.854988 -46.65484
-3.567888 -63.73814 -46.378084
-5.915774 -61.769528 -47.25639
-4.643239 -63.854988 -46.65484
-5.79753 -63.740857 -46.947619
-8.127363 -61.697285 -47.711792
-6.925662 -63.512978 -47.204705
-7.98296 -63.554867 -47.367328
-11.660721 -52.133627 -50.279371
-10.558763 -52.102209 -50.104501
-10.574692 -53.945583 -49.667099
-21.311273 -67.547218 -42.158408
-20.156157 -69.530178 -41.926489
-21.176662 -69.032116 -41.367333
-22.329031 -65.763408 -42.394363
-23.406259 -63.902591 -42.592417
-21.308526 -66.261471 -42.95352
-21.311273 -67.547218 -42.158408
-22.329031 -65.763408 -42.394363
0.901016 -58.864136 -45.235725
1.75369 -58.406978 -44.864599
0.011329 -59.185663 -45.601991
-0.994575 -59.321731 -46.009783
-0.273953 -57.006842 -45.933923
0.901016 -58.864136 -45.235725
0.011329 -59.185663 -45.601991
-3.555076 -51.677032 -48.069805
-2.609963 -51.535795 -47.691462
-2.562969 -53.483335 -47.365538
-3.774764 -61.755479 -46.679083
-3.567888 -63.73814 -46.378084
-3.984389 -59.643463 -47.051336
-3.774764 -61.755479 -46.679083
-4.97111 -59.771642 -47.335865
-4.113902 -57.742435 -47.339865
-2.917556 -59.726273 -46.683082
-3.984389 -59.643463 -47.051336
-4.565104 -51.895559 -48.429848
-4.430538 -53.804621 -48.049814
-5.48756 -52.075607 -48.735781
-3.555076 -51.677032 -48.069805
-4.565104 -51.895559 -48.429848
-7.683034 -48.041319 -50.258904
-8.666683 -48.004868 -50.57109
-11.391654 -66.506917 -46.790486
-10.17382 -66.870602 -46.775524
-17.929868 -73.244281 -41.478699
-18.995094 -71.456604 -41.696909
-16.795728 -73.821877 -42.007439
-16.756954 -75.168026 -41.227734
-17.929868 -73.244281 -41.478699
-14.636409 -74.754158 -42.851215
-14.543986 -76.234646 -42.145489
-15.715236 -74.265133 -42.4622
-14.636409 -74.754158 -42.851215
-14.609957 -73.395965 -43.470501
-12.291575 -72.799785 -44.63245
-13.488455 -72.431114 -44.36569
-12.343849 -71.171279 -45.166
-12.291575 -72.799785 -44.63245
-12.380145 -69.626339 -45.705019
-12.343849 -71.171279 -45.166
-13.600951 -69.310001 -45.497324
-12.470555 -67.973629 -46.187508
-12.380145 -69.626339 -45.705019
-12.580979 -66.230263 -46.73172
-12.470555 -67.973629 -46.187508
-13.747671 -66.021694 -46.580555
-12.66877 -64.554981 -47.183532
-11.391654 -66.506917 -46.790486
-12.580979 -66.230263 -46.73172
-23.602148 -59.451571 -45.039953
-23.502542 -61.035899 -44.217487
-22.57443 -59.893111 -45.472006
-23.602148 -59.451571 -45.039953
-23.624381 -57.886379 -45.817299
-23.51842 -51.218699 -49.047091
-23.467385 -49.516621 -49.845356
-23.607808 -52.883642 -48.279331
-23.51842 -51.218699 -49.047091
-22.564403 -53.204994 -48.606448
-23.628712 -54.586366 -47.445023
-23.607808 -52.883642 -48.279331
-22.625228 -56.598928 -47.04402
-23.600148 -56.315357 -46.650355
-23.628712 -54.586366 -47.445023
-12.753954 -51.900064 -50.481062
-12.833438 -53.763071 -49.986807
-13.910741 -51.686134 -50.6259
-11.660721 -52.133627 -50.279371
-12.753954 -51.900064 -50.481062
3.566765 -57.831023 -43.973823
2.707281 -58.201128 -44.405115
3.261725 -55.727493 -44.285734
4.305574 -57.284903 -43.610868
3.566765 -57.831023 -43.973823
1.336674 -54.464699 -45.4431
1.569325 -56.479463 -45.108173
0.383083 -54.670549 -45.902584
2.161372 -54.166949 -45.046949
1.336674 -54.464699 -45.4431
2.900181 -53.620829 -44.683994
3.261725 -55.727493 -44.285734
2.161372 -54.166949 -45.046949
3.67023 -53.180014 -44.284289
2.900181 -53.620829 -44.683994
3 0 54 56
3 54 14 55
3 54 55 56
3 0 16 14
3 58 57 17
3 1 21 19
3 1 23 21
3 59 25 60
3 61 27 62
3 63 62 25
3 61 62 63
3 65 64 27
3 67 66 29
3 68 31 69
3 3 32 15
3 3 33 32
3 70 34 71
3 72 35 73
3 74 73 34
3 72 73 74
3 5 75 76
3 5 77 78
3 7 79 81
3 79 36 80
3 79 80 81
3 7 37 36
3 2 38 30
3 8 39 18
3 8 82 84
3 84 83 39
3 82 83 84
3 8 85 86
3 9 87 88
3 9 89 90
3 4 91 93
3 91 40 92
3 91 92 93
3 10 41 20
3 10 94 96
3 96 95 41
3 94 95 96
3 10 97 99
3 97 42 98
3 97 98 99
3 11 43 22
3 11 44 43
3 100 45 101
3 100 101 102
3 12 46 24
3 12 47 46
3 12 48 47
3 13 49 26
3 13 50 49
3 13 51 50
3 103 52 104
3 105 104 28
3 103 104 105
3 107 106 52
3 6 108 110
3 108 53 109
3 108 109 110
3 14 111 112
3 14 113 114
3 14 115 117
3 115 15 116
3 115 116 117
3 16 15 14
3 16 3 15
3 118 5 119
3 120 7 121
3 17 18 2
3 122 18 123
3 124 123 17
3 122 123 124
3 125 8 126
3 127 126 18
3 125 126 127
3 129 128 8
3 130 9 131
3 19 20 4
3 21 20 19
3 21 10 20
3 21 22 10
3 23 22 21
3 23 11 22
3 132 24 133
3 25 134 136
3 134 24 135
3 134 135 136
3 25 12 24
3 25 26 12
3 27 26 25
3 27 13 26
3 27 28 13
3 137 28 138
3 139 138 27
3 137 138 139
3 141 140 28
3 29 142 144
3 144 143 6
3 142 143 144
3 146 145 29
3 147 30 148
3 31 149 151
3 149 30 150
3 149 150 151
3 31 2 30
3 15 152 154
3 152 31 153
3 152 153 154
3 32 31 15
3 32 2 31
3 32 17 2
3 33 17 32
3 33 155 157
3 157 156 17
3 155 156 157
3 158 4 159
3 158 159 160
3 34 161 162
3 34 163 165
3 163 4 164
3 163 164 165
3 34 19 4
3 35 19 34
3 35 1 19
3 166 6 167
3 36 168 169
3 36 170 172
3 170 6 171
3 170 171 172
3 36 29 6
3 37 29 36
3 37 173 175
3 175 174 29
3 173 174 175
3 30 176 177
3 38 178 180
3 180 179 30
3 178 179 180
3 38 181 183
3 181 7 182
3 181 182 183
3 18 38 2
3 39 38 18
3 39 7 38
3 39 37 7
3 184 37 185
3 186 185 39
3 184 185 186
3 188 187 37
3 190 189 8
3 191 0 192
3 40 193 194
3 40 195 197
3 195 9 196
3 195 196 197
3 20 40 4
3 41 40 20
3 41 9 40
3 41 198 200
3 200 199 9
3 198 199 200
3 202 201 41
3 42 203 204
3 42 205 206
3 22 42 10
3 43 42 22
3 43 207 209
3 209 208 42
3 207 208 209
3 43 210 211
3 44 212 214
3 214 213 43
3 212 213 214
3 44 215 217
3 215 0 216
3 215 216 217
3 218 35 219
3 45 220 222
3 220 35 221
3 220 221 222
3 45 1 35
3 24 223 224
3 46 225 227
3 227 226 24
3 225 226 227
3 46 228 229
3 46 230 232
3 230 45 231
3 230 231 232
3 47 45 46
3 47 1 45
3 47 23 1
3 48 23 47
3 48 11 23
3 26 48 12
3 49 48 26
3 49 11 48
3 49 44 11
3 50 44 49
3 50 0 44
3 50 16 0
3 51 16 50
3 51 3 16
3 28 51 13
3 52 51 28
3 52 3 51
3 52 33 3
3 233 33 234
3 235 234 52
3 233 234 235
3 237 236 33
3 53 238 239
3 53 240 242
3 240 5 241
3 240 241 242
3 243 53 244
3 245 244 6
3 243 244 245
3 246 53 247
3 248 5 249
3 250 249 53
3 248 249 250
3 252 251 5
