ply
format ascii 1.0
element vertex 219
property float x
property float y
property float z
element face 201
property list uchar int vertex_index
end_header
12.40216 29.470182 -69.584229
14.160055 34.945221 -62.1563
6.652677 33.162342 -63.365078
13.170174 32.682095 -66.374016
10.324112 34.595055 -63.22625
9.363743 31.342848 -66.810081
5.876871 29.188263 -66.081619
8.503469 27.561768 -69.146927
17.311832 32.951874 -64.818291
16.473003 30.520536 -68.696678
7.717324 36.479256 -59.964401
4.33689 34.947739 -60.201073
3.503626 30.835701 -62.701019
2.84094 26.296265 -64.370979
12.819632 31.105801 -68.210014
11.228525 32.109867 -66.763069
10.771897 30.406878 -68.312378
8.933672 29.466097 -68.180473
10.468771 28.553232 -69.601471
9.853015 26.487207 -70.457901
18.905462 31.819551 -65.875343
16.874022 31.852654 -66.924843
18.68676 30.612694 -67.796036
12.612229 35.82621 -60.842857
8.468931 33.829262 -63.63483
8.966242 35.450104 -61.667107
7.280224 34.849251 -61.865929
6.070855 35.849709 -60.202492
5.471135 33.989834 -61.774342
3.887911 32.903316 -61.568604
5.090261 31.990429 -63.27515
2.64557 23.762403 -64.968193
13.635941 33.973907 -64.328018
12.138146 34.898861 -62.840172
11.663157 33.612778 -64.915573
9.751546 33.069759 -65.113197
7.942637 32.1633 -65.198753
6.309108 31.190796 -64.934319
7.536217 30.260632 -66.641418
7.115584 28.384626 -67.659943
8.060308 25.124588 -69.980171
15.705811 33.961227 -63.605129
15.318619 32.929985 -65.763153
14.741143 31.732271 -67.576225
14.519094 30.069538 -69.330322
16.103783 28.797726 -70.270462
10.75631 35.847855 -61.213875
9.431326 36.819286 -59.613049
2.787381 34.07991 -59.875027
2.059709 29.705238 -61.887184
4.640653 29.881056 -64.444366
3.054019 28.526157 -63.589901
12.124288 28.450603 -70.171341
11.157593 27.992128 -70.179962
11.435465 29.011707 -69.59285
19.884138 31.125906 -66.233944
19.987268 31.601821 -65.26374
19.774787 30.522478 -67.19429
18.796111 31.216123 -66.83569
19.884138 31.125906 -66.233944
19.565729 29.847634 -68.173141
19.774787 30.522478 -67.19429
13.386142 35.385716 -61.499578
13.493322 35.796112 -60.327241
14.267235 35.355617 -60.983963
7.655567 26.887434 -68.864128
6.961625 27.298863 -68.120636
7.809527 27.973197 -68.403435
8.281889 26.343178 -69.563549
7.433986 25.668844 -69.28075
7.655567 26.887434 -68.864128
9.71254 25.285796 -70.836796
10.670134 25.832404 -71.052727
17.438783 33.361841 -63.688288
18.288047 32.799932 -64.287273
16.508821 33.45655 -64.21171
16.635773 33.866518 -63.081707
17.438783 33.361841 -63.688288
7.947844 37.192349 -58.989952
8.804845 37.362364 -58.814276
8.574325 36.649271 -59.788725
7.092581 37.026635 -59.165022
7.947844 37.192349 -58.989952
4.545135 35.919032 -59.421872
5.412117 36.370016 -59.422581
5.203873 35.398724 -60.201783
3.756755 35.624872 -59.341811
4.545135 35.919032 -59.421872
3.562136 34.513824 -60.03805
2.982 35.190958 -59.178787
3.756755 35.624872 -59.341811
2.932993 31.357111 -61.833793
3.125135 32.390918 -61.267586
3.695768 31.869508 -62.134811
2.781668 30.27047 -62.294101
2.211034 30.79188 -61.426876
2.932993 31.357111 -61.833793
2.94748 27.411211 -63.98044
3.662009 28.114587 -64.479109
3.55547 26.99964 -64.869648
2.321152 26.769005 -63.541769
2.427691 27.883951 -63.15123
2.94748 27.411211 -63.98044
2.243874 25.471315 -63.88014
2.321152 26.769005 -63.541769
2.070966 22.85633 -64.371947
2.632837 22.533854 -65.216919
10.849715 26.959115 -70.608177
10.160893 27.52022 -70.029686
11.157593 27.992128 -70.179962
10.670134 25.832404 -71.052727
10.849715 26.959115 -70.608177
19.084862 32.233771 -64.815799
19.987268 31.601821 -65.26374
18.108647 32.385712 -65.346817
18.288047 32.799932 -64.287273
19.084862 32.233771 -64.815799
18.459401 29.898469 -68.64127
17.352522 29.85239 -69.091591
17.579881 30.566615 -68.246357
18.459401 29.898469 -68.64127
19.565729 29.847634 -68.173141
12.771882 36.275557 -59.627918
13.493322 35.796112 -60.327241
11.913663 36.35585 -59.977661
12.771882 36.275557 -59.627918
5.073436 28.445639 -65.724968
5.706181 28.131127 -66.544899
3.40421 25.88055 -65.211109
3.55547 26.99964 -64.869648
3.306526 24.613619 -65.509716
2.743255 25.029334 -64.669586
3.40421 25.88055 -65.211109
3.200509 23.434784 -65.765575
3.306526 24.613619 -65.509716
2.632837 22.533854 -65.216919
3.200509 23.434784 -65.765575
6.325537 27.729309 -67.334061
5.706181 28.131127 -66.544899
6.496227 28.786445 -66.870781
6.325537 27.729309 -67.334061
6.961625 27.298863 -68.120636
7.252337 24.429127 -69.589576
7.433986 25.668844 -69.28075
7.933073 23.968693 -70.237881
7.252337 24.429127 -69.589576
8.816187 24.604487 -70.597931
8.956661 25.805898 -70.219036
9.71254 25.285796 -70.836796
7.933073 23.968693 -70.237881
8.816187 24.604487 -70.597931
15.057229 34.87179 -61.66744
14.267235 35.355617 -60.983963
15.830106 34.379793 -62.391855
16.635773 33.866518 -63.081707
14.932933 34.453224 -62.880714
15.057229 34.87179 -61.66744
15.830106 34.379793 -62.391855
14.20689 29.152023 -70.007416
13.148423 28.852345 -70.134369
13.460627 29.76986 -69.457275
14.999234 28.516117 -70.477486
14.20689 29.152023 -70.007416
15.311439 29.433632 -69.800392
15.918322 27.835304 -70.881813
14.999234 28.516117 -70.477486
17.167912 28.990985 -69.878483
16.288393 29.659131 -69.48357
17.352522 29.85239 -69.091591
17.014398 28.069959 -70.590088
17.167912 28.990985 -69.878483
15.918322 27.835304 -70.881813
17.014398 28.069959 -70.590088
10.985703 36.366672 -60.16317
11.913663 36.35585 -59.977661
11.684269 35.837033 -61.028366
10.323211 36.852388 -59.362757
10.985703 36.366672 -60.16317
10.093818 36.333571 -60.413462
9.647184 37.402963 -58.554396
10.323211 36.852388 -59.362757
9.647184 37.402963 -58.554396
8.804845 37.362364 -58.814276
6.269347 36.711861 -59.284067
7.092581 37.026635 -59.165022
6.894089 36.164482 -60.083447
6.269347 36.711861 -59.284067
5.412117 36.370016 -59.422581
2.220959 34.717928 -59.096975
2.982 35.190958 -59.178787
2.042314 33.522869 -59.657347
2.220959 34.717928 -59.096975
2.57487 32.979215 -60.420798
3.337646 33.491613 -60.721816
3.125135 32.390918 -61.267586
2.042314 33.522869 -59.657347
2.57487 32.979215 -60.420798
1.468979 30.178446 -61.05549
2.211034 30.79188 -61.426876
1.425254 28.942323 -61.519621
1.468979 30.178446 -61.05549
4.455326 28.792036 -64.906341
5.258762 29.53466 -65.262992
5.073436 28.445639 -65.724968
3.847336 29.203606 -64.017133
4.455326 28.792036 -64.906341
3.662009 28.114587 -64.479109
1.930536 28.473492 -62.299871
2.556864 29.115698 -62.738542
2.427691 27.883951 -63.15123
1.425254 28.942323 -61.519621
1.930536 28.473492 -62.299871
2.146189 24.204384 -64.178747
2.243874 25.471315 -63.88014
2.743255 25.029334 -64.669586
2.146189 24.204384 -64.178747
2.070966 22.85633 -64.371947
12.124288 28.450603 -70.171341
13.148423 28.852345 -70.134369
3 0 16 14
3 0 18 16
3 0 52 54
3 54 53 18
3 52 53 54
3 55 20 56
3 57 22 58
3 59 58 20
3 57 58 59
3 61 60 22
3 1 62 64
3 62 23 63
3 62 63 64
3 2 26 24
3 2 28 26
3 2 30 28
3 3 34 32
3 5 35 15
3 5 36 35
3 5 38 36
3 7 39 17
3 7 65 67
3 67 66 39
3 65 66 67
3 7 68 70
3 68 40 69
3 68 69 70
3 72 71 19
3 8 73 74
3 8 75 77
3 75 41 76
3 75 76 77
3 8 42 41
3 9 43 21
3 9 44 43
3 9 45 44
3 4 46 33
3 10 47 25
3 10 78 80
3 80 79 47
3 78 79 80
3 10 81 82
3 11 83 85
3 85 84 27
3 83 84 85
3 11 86 87
3 11 88 90
3 88 48 89
3 88 89 90
3 12 91 93
3 93 92 29
3 91 92 93
3 12 94 96
3 94 49 95
3 94 95 96
3 6 50 37
3 13 97 99
3 97 51 98
3 97 98 99
3 13 100 102
3 102 101 51
3 100 101 102
3 13 103 104
3 106 105 31
3 14 15 3
3 16 15 14
3 16 5 15
3 16 17 5
3 18 17 16
3 18 7 17
3 18 19 7
3 107 19 108
3 109 108 18
3 107 108 109
3 111 110 19
3 20 112 113
3 20 114 116
3 114 8 115
3 114 115 116
3 20 21 8
3 22 21 20
3 22 9 21
3 22 117 119
3 119 118 9
3 117 118 119
3 121 120 22
3 23 122 123
3 23 124 125
3 24 25 4
3 26 25 24
3 26 10 25
3 26 27 10
3 28 27 26
3 28 11 27
3 28 29 11
3 30 29 28
3 30 12 29
3 127 126 6
3 128 13 129
3 130 31 131
3 132 131 13
3 130 131 132
3 133 31 134
3 136 135 31
3 32 33 1
3 34 33 32
3 34 4 33
3 15 34 3
3 35 34 15
3 35 4 34
3 35 24 4
3 36 24 35
3 36 2 24
3 36 37 2
3 38 37 36
3 38 6 37
3 17 38 5
3 39 38 17
3 39 6 38
3 39 137 139
3 139 138 6
3 137 138 139
3 141 140 39
3 40 142 143
3 40 144 145
3 19 40 7
3 146 40 147
3 148 147 19
3 146 147 148
3 150 149 40
3 151 1 152
3 41 153 154
3 41 155 157
3 155 1 156
3 155 156 157
3 41 32 1
3 42 32 41
3 42 3 32
3 21 42 8
3 43 42 21
3 43 3 42
3 43 14 3
3 44 14 43
3 44 0 14
3 44 158 160
3 160 159 0
3 158 159 160
3 45 161 163
3 163 162 44
3 161 162 163
3 45 164 165
3 166 45 167
3 168 167 9
3 166 167 168
3 169 45 170
3 172 171 45
3 33 23 1
3 46 23 33
3 46 173 175
3 175 174 23
3 173 174 175
3 25 46 4
3 47 46 25
3 47 176 178
3 178 177 46
3 176 177 178
3 47 179 180
3 182 181 47
3 27 183 185
3 185 184 10
3 183 184 185
3 187 186 27
3 48 188 189
3 48 190 191
3 29 48 11
3 192 48 193
3 194 193 29
3 192 193 194
3 196 195 48
3 49 197 198
3 49 199 200
3 37 30 2
3 50 30 37
3 50 12 30
3 201 50 202
3 203 202 6
3 201 202 203
3 51 204 206
3 204 50 205
3 204 205 206
3 51 12 50
3 51 49 12
3 207 49 208
3 209 208 51
3 207 208 209
3 211 210 49
3 31 212 214
3 214 213 13
3 212 213 214
3 216 215 31
3 218 217 0
