ply
format ascii 1.0
element vertex 281
property float x
property float y
property float z
element face 261
property list uchar int vertex_index
end_header
34.795044 -36.857624 -13.649459
38.127335 -31.381596 -2.521331
33.373386 -42.90332 -13.601711
36.060295 -34.462444 -9.149208
35.18853 -36.0439 -16.566572
38.840374 -27.604895 -3.958109
38.781376 -25.249872 -8.702762
38.142704 -29.332451 -7.420906
37.274574 -30.738085 -10.672098
37.067432 -33.044014 -6.070168
34.040043 -43.068382 -17.2066
34.140701 -39.095764 -10.584177
34.109482 -39.504513 -13.61298
36.895477 -35.157616 -0.931928
35.708157 -36.740723 -4.620338
34.745777 -38.045643 -7.748218
35.257767 -35.756935 -11.700275
34.617058 -39.241421 -16.973299
35.477142 -38.756298 -20.649376
35.203365 -35.537598 -14.429897
34.939312 -36.511223 -14.916026
38.537426 -29.597002 -3.257126
38.533005 -28.482582 -5.750499
38.122395 -30.433121 -4.987778
37.658791 -31.153475 -6.801412
37.609257 -32.251472 -4.298222
36.289398 -35.996784 -2.770847
35.576752 -37.744205 -2.154844
34.408234 -38.549168 -9.239786
36.676838 -32.62624 -9.966542
36.830078 -31.411486 -12.22933
36.250137 -33.266335 -11.327658
35.825935 -34.060223 -12.433542
35.58342 -35.239361 -10.440148
33.726524 -41.185062 -13.572376
34.323765 -39.399567 -15.319323
33.998981 -41.149937 -15.398705
34.761391 -41.073116 -19.008463
35.319946 -40.655113 -21.045349
35.828705 -40.487423 -22.969141
38.79533 -26.514103 -6.418101
38.543472 -27.234217 -8.210271
38.223141 -28.007998 -9.713978
37.7635 -29.844587 -9.241343
37.185005 -31.836205 -8.473094
36.578617 -33.699203 -7.667722
33.661594 -43.051765 -15.408386
38.867817 -28.765045 -1.39517
38.572803 -30.510246 -0.607373
34.514442 -37.803661 -12.320129
34.495388 -37.951038 -13.650172
34.087154 -39.26313 -12.117823
38.088314 -32.346115 -0.037897
37.562366 -33.219868 -1.877612
36.964138 -34.175575 -3.550979
36.419319 -34.951241 -5.137424
35.915268 -35.541737 -6.928796
35.228966 -37.324131 -6.283697
35.391304 -36.291389 -8.468713
34.984364 -36.935394 -9.759226
34.705364 -37.381546 -11.111433
34.970646 -36.355473 -12.860964
35.481094 -34.772797 -13.564829
34.648949 -37.799778 -15.182579
34.890781 -37.580521 -16.762087
34.361252 -41.017754 -17.183666
35.026573 -38.991577 -18.824459
35.471531 -38.312677 -0.818278
35.86076 -37.397543 -1.169434
35.188992 -41.792551 -21.155968
34.934879 -41.803705 -20.155642
35.443371 -41.708706 -22.117863
35.574326 -40.571268 -22.007245
35.188992 -41.792551 -21.155968
35.448128 -35.147816 -17.126053
35.303653 -35.49004 -16.300739
35.326161 -35.864149 -17.361376
35.448128 -35.147816 -17.126053
38.817852 -27.059499 -5.188105
38.869915 -26.158724 -5.517198
38.892437 -26.70412 -4.287202
38.891091 -29.195713 -0.019053
38.979216 -28.323795 -0.452073
39.002489 -28.754463 0.924044
38.743583 -30.068313 0.374845
38.72031 -29.637645 -1.001272
38.891091 -29.195713 -0.019053
38.061804 -32.804453 1.34152
38.312437 -31.91632 0.988495
37.19964 -34.661808 -0.092942
36.841213 -35.620813 0.319383
37.228921 -34.188742 -1.40477
37.533085 -33.692934 -0.565783
37.19964 -34.661808 -0.092942
34.987371 -37.684887 -7.015957
34.885866 -38.210884 -5.928061
34.644272 -38.57164 -6.660322
38.803856 -24.270851 -9.023312
38.830296 -24.896869 -7.84923
37.334637 -30.130533 -11.783961
37.548223 -29.747996 -11.023881
36.902851 -30.849226 -13.272492
36.610323 -31.824475 -12.839532
34.932467 -38.250016 -17.764885
35.069328 -37.419565 -17.659279
34.753919 -38.410971 -16.867693
35.59934 -37.729624 -20.561422
35.374056 -37.847263 -19.648963
35.251857 -38.873937 -19.736918
35.8313 -37.537454 -21.474765
35.59934 -37.729624 -20.561422
35.311071 -35.236889 -15.232401
35.456247 -34.714529 -14.934628
35.179045 -35.723702 -15.475466
35.311071 -35.236889 -15.232401
35.071338 -36.024411 -14.672961
35.063921 -36.277562 -15.741299
35.303653 -35.49004 -16.300739
35.179045 -35.723702 -15.475466
33.878466 -39.940035 -10.440337
33.977682 -39.681039 -9.652896
36.520122 -36.104248 -0.557975
36.841213 -35.620813 0.319383
36.465858 -36.567445 0.693335
36.217083 -36.523832 -1.477435
36.592438 -35.5772 -1.851387
36.520122 -36.104248 -0.557975
35.933075 -36.870494 -2.462846
36.217083 -36.523832 -1.477435
35.86076 -37.397543 -1.169434
34.438167 -38.872673 -7.462445
34.644272 -38.57164 -6.660322
34.269396 -39.124436 -8.208229
34.577005 -38.297405 -8.494002
34.438167 -38.872673 -7.462445
34.111449 -39.407742 -8.980701
34.269396 -39.124436 -8.208229
33.977682 -39.681039 -9.652896
34.274468 -38.822466 -9.911981
34.111449 -39.407742 -8.980701
38.773647 -24.578775 -9.937172
38.673865 -25.5997 -9.61062
36.320352 -32.7519 -12.388696
36.610323 -31.824475 -12.839532
36.540108 -32.33891 -11.778494
36.038036 -33.663279 -11.8806
36.108252 -33.148844 -12.941638
36.320352 -32.7519 -12.388696
34.655602 -42.012707 -19.137199
34.400717 -42.070749 -18.107532
34.294928 -43.01034 -18.236267
35.040669 -40.864114 -20.026906
34.655602 -42.012707 -19.137199
34.934879 -41.803705 -20.155642
35.69713 -39.414627 -21.91666
35.775728 -38.46522 -21.718673
35.398544 -39.705706 -20.847363
35.95151 -39.330782 -22.878556
35.69713 -39.414627 -21.91666
35.574326 -40.571268 -22.007245
36.211025 -39.259241 -23.890949
35.95151 -39.330782 -22.878556
38.837272 -25.528984 -6.7069
38.869915 -26.158724 -5.517198
38.788353 -25.881988 -7.560431
38.830296 -24.896869 -7.84923
38.837272 -25.528984 -6.7069
38.554913 -26.591873 -9.364374
38.673865 -25.5997 -9.61062
38.662424 -26.242044 -8.456516
38.394747 -26.978763 -10.116228
38.554913 -26.591873 -9.364374
38.383307 -27.621108 -8.962124
38.248165 -27.366267 -10.880399
38.394747 -26.978763 -10.116228
38.022507 -28.382953 -10.544821
38.248165 -27.366267 -10.880399
37.792687 -29.301248 -10.308504
38.022507 -28.382953 -10.544821
37.99332 -28.926293 -9.47766
37.519037 -30.291336 -9.95672
37.548223 -29.747996 -11.023881
37.792687 -29.301248 -10.308504
33.303649 -43.981348 -14.398814
33.51749 -42.977542 -14.505049
33.159546 -43.907125 -13.495476
33.471199 -44.066044 -15.339638
33.303649 -43.981348 -14.398814
33.113254 -44.995627 -14.330065
33.660424 -44.074352 -16.238745
33.850819 -43.060074 -16.307493
33.471199 -44.066044 -15.339638
33.884962 -44.134266 -17.278168
33.660424 -44.074352 -16.238745
34.139847 -44.076223 -18.307834
34.294928 -43.01034 -18.236267
33.884962 -44.134266 -17.278168
38.933554 -27.245936 -2.971189
38.892437 -26.70412 -4.287202
38.947275 -27.826011 -1.68972
38.979216 -28.323795 -0.452073
38.854095 -28.18497 -2.676639
38.933554 -27.245936 -2.971189
38.947275 -27.826011 -1.68972
33.851692 -40.023718 -11.20716
34.113928 -39.179447 -11.351
33.878466 -39.940035 -10.440337
33.844282 -40.154754 -11.983169
33.851692 -40.023718 -11.20716
33.855446 -40.275446 -12.730748
34.098318 -39.383821 -12.865402
33.844282 -40.154754 -11.983169
33.663967 -41.115721 -12.710446
33.918003 -40.344788 -13.592678
33.855446 -40.275446 -12.730748
33.431188 -42.038221 -12.625101
33.663967 -41.115721 -12.710446
33.25462 -42.89735 -12.639768
33.549955 -42.044191 -13.587044
33.431188 -42.038221 -12.625101
33.035168 -43.812758 -12.546569
33.25462 -42.89735 -12.639768
33.159546 -43.907125 -13.495476
33.035168 -43.812758 -12.546569
38.554682 -30.998386 0.703758
38.743583 -30.068313 0.374845
38.330558 -31.42818 -0.322635
38.554682 -30.998386 0.703758
38.312437 -31.91632 0.988495
37.796059 -33.256057 0.354074
38.061804 -32.804453 1.34152
37.82534 -32.782991 -0.957755
37.796059 -33.256057 0.354074
37.533085 -33.692934 -0.565783
35.188918 -38.672556 -1.776686
35.471531 -38.312677 -0.818278
35.277532 -38.15188 -3.038554
35.188918 -38.672556 -1.776686
35.343235 -37.650139 -4.271301
35.642454 -37.242464 -3.387591
35.277532 -38.15188 -3.038554
35.103639 -37.941843 -5.102981
34.885866 -38.210884 -5.928061
35.468561 -37.032427 -5.452018
35.343235 -37.650139 -4.271301
35.103639 -37.941843 -5.102981
38.803856 -24.270851 -9.023312
38.773647 -24.578775 -9.937172
37.112389 -30.467233 -12.562577
37.334637 -30.130533 -11.783961
37.052326 -31.074786 -11.450714
37.112389 -30.467233 -12.562577
36.902851 -30.849226 -13.272492
35.926071 -33.544131 -13.464719
36.108252 -33.148844 -12.941638
35.75365 -33.900418 -14.030363
35.926071 -33.544131 -13.464719
35.653514 -34.41651 -12.999185
35.595112 -34.332128 -14.502094
35.75365 -33.900418 -14.030363
35.34223 -35.155197 -13.997363
35.456247 -34.714529 -14.934628
35.595112 -34.332128 -14.502094
35.177286 -36.63246 -17.459134
35.326161 -35.864149 -17.361376
35.039655 -36.81221 -16.66433
35.177286 -36.63246 -17.459134
35.069328 -37.419565 -17.659279
35.137224 -38.125093 -18.690465
34.932467 -38.250016 -17.764885
34.821815 -39.116499 -17.898879
35.137224 -38.125093 -18.690465
35.374056 -37.847263 -19.648963
35.8313 -37.537454 -21.474765
35.775728 -38.46522 -21.718673
35.738577 -41.590423 -23.222501
35.443371 -41.708706 -22.117863
36.124071 -40.32499 -24.073071
35.738577 -41.590423 -23.222501
36.211025 -39.259241 -23.890949
36.124071 -40.32499 -24.073071
3 0 20 19
3 1 23 21
3 1 25 23
3 67 27 68
3 3 31 29
3 3 33 31
3 2 36 34
3 69 38 70
3 71 39 72
3 73 72 38
3 71 72 73
3 4 74 75
3 4 76 77
3 5 78 80
3 78 40 79
3 78 79 80
3 7 41 22
3 7 42 41
3 7 43 42
3 9 44 24
3 9 45 44
3 81 47 82
3 81 82 83
3 84 48 85
3 86 85 47
3 84 85 86
3 11 51 49
3 87 52 88
3 13 89 90
3 13 91 93
3 91 53 92
3 91 92 93
3 13 54 53
3 14 55 26
3 14 56 55
3 15 94 96
3 94 57 95
3 94 95 96
3 15 58 57
3 15 59 58
3 11 60 28
3 11 49 60
3 6 97 98
3 8 99 100
3 102 101 30
3 16 62 32
3 16 61 62
3 12 63 50
3 17 64 35
3 17 103 105
3 105 104 64
3 103 104 105
3 10 65 46
3 18 66 37
3 18 106 108
3 108 107 66
3 106 107 108
3 18 109 110
3 19 111 112
3 20 113 115
3 115 114 19
3 113 114 115
3 20 116 118
3 116 4 117
3 116 117 118
3 21 22 5
3 23 22 21
3 23 7 22
3 23 24 7
3 25 24 23
3 25 9 24
3 120 119 11
3 121 13 122
3 121 122 123
3 124 26 125
3 126 125 13
3 124 125 126
3 27 127 129
3 127 26 128
3 127 128 129
3 27 14 26
3 130 15 131
3 132 28 133
3 134 133 15
3 132 133 134
3 135 28 136
3 137 11 138
3 139 138 28
3 137 138 139
3 141 140 6
3 29 30 8
3 31 30 29
3 31 142 144
3 144 143 30
3 142 143 144
3 31 145 147
3 145 32 146
3 145 146 147
3 33 32 31
3 33 16 32
3 34 35 12
3 36 35 34
3 36 17 35
3 148 37 149
3 150 149 10
3 148 149 150
3 38 151 153
3 151 37 152
3 151 152 153
3 38 18 37
3 38 154 156
3 156 155 18
3 154 155 156
3 39 157 159
3 159 158 38
3 157 158 159
3 39 160 161
3 40 162 163
3 40 164 166
3 164 6 165
3 164 165 166
3 22 40 5
3 41 40 22
3 41 6 40
3 41 167 169
3 169 168 6
3 167 168 169
3 42 170 172
3 172 171 41
3 170 171 172
3 42 173 174
3 42 175 176
3 43 177 179
3 179 178 42
3 177 178 179
3 43 180 182
3 180 8 181
3 180 181 182
3 24 43 7
3 44 43 24
3 44 8 43
3 44 29 8
3 45 29 44
3 45 3 29
3 183 46 184
3 185 184 2
3 183 184 185
3 186 46 187
3 186 187 188
3 189 10 190
3 191 190 46
3 189 190 191
3 192 10 193
3 196 195 10
3 194 195 196
3 197 5 198
3 47 199 200
3 47 201 203
3 201 5 202
3 201 202 203
3 47 21 5
3 48 21 47
3 48 1 21
3 49 50 0
3 51 50 49
3 51 12 50
3 204 51 205
3 206 205 11
3 204 205 206
3 207 51 208
3 209 12 210
3 211 210 51
3 209 210 211
3 212 34 213
3 214 213 12
3 212 213 214
3 215 34 216
3 217 2 218
3 219 218 34
3 217 218 219
3 220 2 221
3 223 222 2
3 224 48 225
3 52 226 228
3 226 48 227
3 226 227 228
3 52 1 48
3 229 52 230
3 53 231 233
3 231 52 232
3 231 232 233
3 53 1 52
3 53 25 1
3 54 25 53
3 54 9 25
3 26 54 13
3 55 54 26
3 55 9 54
3 55 45 9
3 56 45 55
3 56 3 45
3 234 27 235
3 236 27 237
3 238 14 239
3 240 239 27
3 238 239 240
3 57 241 242
3 57 243 245
3 243 14 244
3 243 244 245
3 57 56 14
3 58 56 57
3 58 3 56
3 58 33 3
3 59 33 58
3 59 16 33
3 28 59 15
3 60 59 28
3 60 16 59
3 60 61 16
3 49 61 60
3 49 0 61
3 247 246 6
3 30 248 250
3 250 249 8
3 248 249 250
3 252 251 30
3 32 253 254
3 62 255 257
3 257 256 32
3 255 256 257
3 62 258 259
3 62 260 262
3 260 19 261
3 260 261 262
3 61 19 62
3 61 0 19
3 50 20 0
3 63 20 50
3 63 4 20
3 35 63 12
3 64 63 35
3 64 4 63
3 64 263 265
3 265 264 4
3 263 264 265
3 267 266 64
3 46 36 2
3 65 36 46
3 65 17 36
3 37 65 10
3 66 65 37
3 66 17 65
3 66 268 270
3 270 269 17
3 268 269 270
3 272 271 66
3 274 273 18
3 275 39 276
3 277 39 278
3 280 279 39
