ply
format ascii 1.0
element vertex 234
property float x
property float y
property float z
element face 226
property list uchar int vertex_index
end_header
9.554511 8.075827 -70.306602
10.864136 20.285072 -72.447449
15.264122 -0.494245 -68.806
8.444925 -5.943151 -64.610107
7.805839 22.812798 -70.49559
11.487254 25.177601 -71.647552
8.979717 1.260642 -67.753761
11.687537 -3.086766 -67.057777
12.4468 4.107905 -69.988068
7.315032 17.244371 -70.659836
10.216121 14.571643 -71.984024
13.973381 16.75271 -73.140541
13.206937 10.791758 -72.094757
16.160059 6.120474 -71.138039
10.916636 -10.413039 -63.747574
14.284958 -7.527386 -65.832588
8.0249 6.475955 -69.068947
7.794404 3.257789 -67.860863
9.354028 4.651549 -69.147461
10.673654 2.726273 -68.988991
10.917172 6.120985 -70.228783
9.221377 21.485275 -71.599068
7.569617 20.17709 -70.74926
8.882803 18.921959 -71.63134
8.69834 15.990751 -71.439857
10.420907 17.503395 -72.324684
15.537998 14.6678 -73.038788
13.499143 13.659451 -72.712097
15.155934 11.655742 -72.511459
14.607234 8.547564 -71.720741
7.292809 -4.068388 -64.737686
7.051794 -7.766675 -63.087414
8.208015 -9.972773 -62.825352
9.734975 -8.125635 -64.279411
13.381606 -1.463587 -68.128799
12.980823 -5.151319 -66.547867
14.679812 -3.811411 -67.43058
16.010542 -6.296233 -66.612495
9.572066 24.084385 -71.215691
11.039246 22.782238 -72.168518
7.532007 -0.42677 -66.330643
8.725087 -2.221824 -66.269264
9.991348 -4.330706 -65.966614
10.34918 -0.630186 -67.59919
11.988064 0.549106 -68.581657
13.79915 1.719429 -69.416504
8.190425 9.906129 -70.115952
7.149692 14.395432 -70.317337
8.454092 12.992461 -70.915245
9.820934 11.402649 -71.260742
12.756059 21.28813 -72.873337
14.364849 19.696732 -73.22686
12.357868 18.475513 -72.93972
12.005651 15.68692 -72.69294
11.597817 12.632896 -72.122688
11.283685 9.559198 -71.33812
12.674148 7.654695 -71.167068
14.195891 5.378591 -70.734406
15.61688 2.816735 -70.036163
11.341002 -6.665893 -65.465897
12.573281 -8.974834 -64.839996
15.66815 -9.80503 -65.109627
16.369492 13.479643 -72.844765
16.622128 14.970522 -73.037022
16.17846 11.973615 -72.5811
15.346966 13.161771 -72.775124
16.369492 13.479643 -72.844765
15.887277 10.563894 -72.286873
16.17846 11.973615 -72.5811
15.919647 -1.741991 -68.394363
15.627492 -3.400574 -67.706654
14.971967 -2.152828 -68.11829
10.52966 24.630993 -71.431622
9.71254 25.285796 -70.836796
10.670134 25.832404 -71.052727
7.533893 10.619573 -69.86227
7.434576 9.064329 -69.411678
7.040348 21.978507 -70.057148
7.125103 23.273232 -69.847286
6.690576 17.857655 -70.16647
6.817868 19.324015 -70.211182
7.442324 18.710731 -70.704548
6.601108 16.450072 -70.054611
6.690576 17.857655 -70.16647
7.232362 15.819902 -70.488586
6.518438 15.025602 -69.883362
6.601108 16.450072 -70.054611
13.799585 21.732619 -72.940678
12.929562 22.538329 -72.674729
14.169115 18.224721 -73.183701
15.222155 18.680794 -73.258431
15.026421 17.208783 -73.215271
10.706847 -12.380069 -62.855597
10.152309 -11.254507 -63.114945
11.520578 -11.568438 -63.443554
10.706847 -12.380069 -62.855597
14.103479 -9.340035 -65.031685
13.247641 -10.063759 -64.535389
13.429119 -8.25111 -65.336292
14.976554 -8.666208 -65.471108
14.795075 -10.478858 -64.670205
14.103479 -9.340035 -65.031685
17.522104 -6.823016 -66.535576
16.651689 -7.392539 -66.231887
16.880956 -5.72671 -66.916183
11.666835 26.304312 -71.203002
10.670134 25.832404 -71.052727
10.849715 26.959115 -70.608177
7.909652 4.866872 -68.464905
7.165879 4.196015 -67.766666
7.281128 5.805098 -68.370709
15.808729 16.166328 -73.164395
16.622128 14.970522 -73.037022
14.755689 15.710255 -73.089664
15.026421 17.208783 -73.215271
15.808729 16.166328 -73.164395
15.612927 9.009805 -71.891514
14.881584 10.101653 -72.1161
15.887277 10.563894 -72.286873
16.389339 7.79626 -71.600163
15.383647 7.334019 -71.42939
15.612927 9.009805 -71.891514
6.619497 -4.871412 -63.955568
6.735079 -3.091408 -64.746814
6.49899 -6.720555 -63.130432
6.619497 -4.871412 -63.955568
7.172301 -5.917531 -63.91255
6.400921 -8.482917 -62.360016
6.49899 -6.720555 -63.130432
6.834841 -9.697249 -62.178763
6.183968 -10.413491 -61.451364
6.400921 -8.482917 -62.360016
7.412951 -10.800297 -62.047731
6.834841 -9.697249 -62.178763
7.629905 -8.869724 -62.956383
7.993275 -11.859072 -61.952897
7.412951 -10.800297 -62.047731
8.797998 -11.034374 -62.653834
7.993275 -11.859072 -61.952897
9.561478 -10.110805 -63.380863
8.797998 -11.034374 -62.653834
8.971495 -9.049204 -63.552381
10.325806 -9.269337 -64.013492
10.152309 -11.254507 -63.114945
9.561478 -10.110805 -63.380863
16.292857 -4.642985 -67.297611
15.345177 -5.053822 -67.021537
15.627492 -3.400574 -67.706654
16.880956 -5.72671 -66.916183
16.292857 -4.642985 -67.297611
7.933073 23.968693 -70.237881
7.125103 23.273232 -69.847286
8.816187 24.604487 -70.597931
9.71254 25.285796 -70.836796
8.688952 23.448591 -70.855641
7.933073 23.968693 -70.237881
8.816187 24.604487 -70.597931
7.136433 2.417361 -67.124855
7.165879 4.196015 -67.766666
7.005235 0.575081 -66.359745
7.136433 2.417361 -67.124855
7.663206 1.415509 -67.095753
6.854678 -1.270599 -65.543293
7.005235 0.575081 -66.359745
7.412408 -2.247579 -65.534165
6.735079 -3.091408 -64.746814
6.854678 -1.270599 -65.543293
7.351814 7.349243 -68.888176
7.281128 5.805098 -68.370709
8.107662 8.191042 -69.592449
7.351814 7.349243 -68.888176
7.434576 9.064329 -69.411678
6.922237 20.660654 -70.183983
7.040348 21.978507 -70.057148
7.687728 21.494944 -70.622425
6.922237 20.660654 -70.183983
6.817868 19.324015 -70.211182
6.404156 13.548522 -69.60038
6.518438 15.025602 -69.883362
7.013527 12.864224 -69.962963
6.404156 13.548522 -69.60038
7.665727 12.162738 -70.261917
7.013527 12.864224 -69.962963
7.801892 13.693946 -70.616291
8.322259 11.449295 -70.515598
7.533893 10.619573 -69.86227
7.665727 12.162738 -70.261917
12.526066 25.745331 -71.659126
11.666835 26.304312 -71.203002
12.295159 24.483064 -72.061836
12.526066 25.745331 -71.659126
12.071155 23.285383 -72.322319
11.26325 23.97992 -71.908035
12.295159 24.483064 -72.061836
11.897652 22.035184 -72.520927
12.071155 23.285383 -72.322319
12.929562 22.538329 -72.674729
15.479304 20.011099 -73.217525
15.222155 18.680794 -73.258431
14.60398 20.93692 -73.117439
15.479304 20.011099 -73.217525
13.560454 20.492431 -73.050099
13.799585 21.732619 -72.940678
14.60398 20.93692 -73.117439
17.16923 6.493623 -71.238361
16.389339 7.79626 -71.600163
16.902894 4.821385 -70.742985
17.16923 6.493623 -71.238361
17.912065 5.194534 -70.843308
16.631304 3.169516 -70.192047
15.888469 4.468604 -70.587101
16.902894 4.821385 -70.742985
16.326981 1.538365 -69.629192
16.631304 3.169516 -70.192047
16.150602 -0.117125 -69.014111
15.440501 1.161245 -69.421081
16.326981 1.538365 -69.629192
15.919647 -1.741991 -68.394363
16.150602 -0.117125 -69.014111
12.3489 -10.849335 -63.989765
11.520578 -11.568438 -63.443554
11.744958 -9.693936 -64.293785
12.3489 -10.849335 -63.989765
13.247641 -10.063759 -64.535389
15.445308 -11.519666 -64.351662
14.795075 -10.478858 -64.670205
16.31464 -10.731641 -64.803982
15.445308 -11.519666 -64.351662
16.480494 -9.146938 -65.480454
15.839346 -8.050631 -65.861061
16.651689 -7.392539 -66.231887
17.126984 -10.073549 -65.174809
16.31464 -10.731641 -64.803982
16.480494 -9.146938 -65.480454
3 0 18 16
3 0 20 18
3 1 23 21
3 1 25 23
3 62 26 63
3 64 28 65
3 66 65 26
3 64 65 66
3 68 67 28
3 3 31 30
3 3 32 31
3 3 33 32
3 2 36 34
3 2 69 71
3 71 70 36
3 69 70 71
3 5 72 74
3 72 38 73
3 72 73 74
3 5 39 38
3 6 40 17
3 6 41 40
3 6 43 41
3 8 44 19
3 8 45 44
3 75 46 76
3 4 77 78
3 9 79 81
3 81 80 22
3 79 80 81
3 9 82 83
3 9 84 86
3 84 47 85
3 84 85 86
3 10 48 24
3 10 49 48
3 87 50 88
3 11 89 91
3 89 51 90
3 89 90 91
3 11 52 51
3 11 53 52
3 12 54 27
3 12 55 54
3 12 56 55
3 13 57 29
3 13 58 57
3 14 92 93
3 14 94 95
3 7 59 42
3 15 60 35
3 15 96 98
3 98 97 60
3 96 97 98
3 15 99 101
3 99 61 100
3 99 100 101
3 104 103 37
3 102 103 104
3 105 5 106
3 105 106 107
3 16 108 110
3 108 17 109
3 108 109 110
3 18 17 16
3 18 6 17
3 18 19 6
3 20 19 18
3 20 8 19
3 21 22 4
3 23 22 21
3 23 9 22
3 23 24 9
3 25 24 23
3 25 10 24
3 26 111 112
3 26 113 115
3 113 11 114
3 113 114 115
3 26 27 11
3 28 27 26
3 28 12 27
3 28 29 12
3 116 29 117
3 118 117 28
3 116 117 118
3 119 13 120
3 121 120 29
3 119 120 121
3 30 122 123
3 31 124 126
3 126 125 30
3 124 125 126
3 31 127 128
3 31 129 131
3 129 130 131
3 32 132 134
3 134 133 31
3 132 133 134
3 32 135 136
3 32 137 138
3 33 139 141
3 141 140 32
3 139 140 141
3 33 142 144
3 142 14 143
3 142 143 144
3 34 35 7
3 36 35 34
3 36 15 35
3 36 37 15
3 145 37 146
3 147 146 36
3 145 146 147
3 149 148 37
3 150 4 151
3 38 152 153
3 38 154 156
3 154 4 155
3 154 155 156
3 38 21 4
3 39 21 38
3 39 1 21
3 17 157 158
3 40 159 161
3 161 160 17
3 159 160 161
3 40 162 163
3 40 164 166
3 164 30 165
3 164 165 166
3 41 30 40
3 41 3 30
3 41 42 3
3 43 42 41
3 43 7 42
3 19 43 6
3 44 43 19
3 44 7 43
3 44 34 7
3 45 34 44
3 45 2 34
3 167 16 168
3 46 169 171
3 169 16 170
3 169 170 171
3 46 0 16
3 22 172 174
3 174 173 4
3 172 173 174
3 176 175 22
3 47 177 178
3 47 179 180
3 24 47 9
3 48 47 24
3 48 181 183
3 183 182 47
3 181 182 183
3 48 184 186
3 184 46 185
3 184 185 186
3 49 46 48
3 49 0 46
3 187 5 188
3 189 5 190
3 191 39 192
3 193 192 5
3 191 192 193
3 50 194 196
3 194 39 195
3 194 195 196
3 50 1 39
3 51 197 198
3 51 199 200
3 51 201 203
3 201 50 202
3 201 202 203
3 52 50 51
3 52 1 50
3 52 25 1
3 53 25 52
3 53 10 25
3 27 53 11
3 54 53 27
3 54 10 53
3 54 49 10
3 55 49 54
3 55 0 49
3 55 20 0
3 56 20 55
3 56 8 20
3 29 56 12
3 57 56 29
3 57 8 56
3 57 45 8
3 58 45 57
3 58 2 45
3 204 13 205
3 206 13 207
3 206 207 208
3 209 58 210
3 211 210 13
3 209 210 211
3 212 58 213
3 214 2 215
3 216 215 58
3 214 215 216
3 218 217 2
3 42 33 3
3 59 33 42
3 59 14 33
3 35 59 7
3 60 59 35
3 60 14 59
3 60 219 221
3 221 220 14
3 219 220 221
3 223 222 60
3 61 224 225
3 61 226 227
3 37 61 15
3 228 61 229
3 230 229 37
3 228 229 230
3 233 232 61
3 231 232 233
