ply
format ascii 1.0
element vertex 258
property float x
property float y
property float z
element face 274
property list uchar int vertex_index
end_header
7.416237 -43.930866 43.725716
13.987062 -31.798193 40.980679
9.940302 -38.491489 42.26395
5.534077 -38.742508 48.015987
8.75193 -31.707537 46.848698
9.097611 -45.009335 41.75301
7.435194 -47.048233 43.180077
8.482641 -41.487186 43.028713
10.678542 -42.116093 40.721413
4.541667 -35.765102 51.002163
3.215162 -39.657055 51.285931
6.260242 -32.209545 50.236755
6.994066 -35.30447 47.384754
11.91048 -35.241238 41.434143
12.589693 -39.121738 39.735756
6.59585 -41.530235 45.418362
5.806861 -44.876945 45.588436
4.446854 -42.494755 48.250599
11.026199 -28.105347 46.067226
11.300617 -31.701733 43.635662
9.325235 -35.094143 44.267704
7.770079 -38.428646 44.868626
8.14518 -44.387238 42.820744
8.287594 -46.080273 42.423374
7.415576 -45.313759 43.490562
7.890086 -42.888191 43.383434
8.801885 -43.195335 42.324005
5.790276 -30.647091 51.853794
5.342753 -34.058594 50.624363
10.879642 -36.888367 41.832878
12.158786 -37.188911 40.576298
11.187446 -38.742813 40.991024
11.894889 -42.65567 39.641972
6.017538 -40.242882 46.689587
5.562464 -42.004002 46.757183
4.986874 -40.628265 48.114429
2.59162 -41.650593 51.393009
8.521742 -30.061325 48.18729
9.641844 -28.178741 47.827469
9.892335 -29.859024 46.426373
11.168456 -29.889301 44.803017
9.984491 -31.720987 45.194149
10.303483 -33.390575 43.907551
9.041718 -33.462822 45.45245
6.240627 -36.959934 47.715675
7.351031 -36.920483 46.075893
6.609311 -38.575558 46.450218
7.110023 -40.015366 45.197159
4.809292 -45.609371 46.716171
10.224835 -45.609562 40.639381
9.371638 -46.84391 41.254002
9.176635 -40.104614 42.614304
10.297718 -40.295639 41.426933
9.536134 -41.88908 41.824478
9.920724 -43.664169 41.160271
5.021417 -37.222099 49.511929
4.440931 -39.14299 49.568592
3.84332 -37.700264 51.174206
7.140573 -30.384066 49.99921
7.500475 -31.986782 48.489174
7.819086 -33.591782 47.085983
6.661859 -33.725498 48.746414
5.821226 -35.485813 49.105503
12.817676 -33.525967 41.271992
14.254022 -33.641109 40.047352
13.218335 -35.418442 40.2519
13.472866 -37.387833 39.483521
11.543928 -40.611427 40.25988
7.007197 -42.892204 44.475876
6.728937 -44.359047 44.503403
6.150561 -43.199638 45.553349
5.121879 -43.755192 46.840508
4.061019 -44.322926 48.170506
3.858583 -41.029831 49.704502
3.329 -43.033367 49.717899
12.289086 -28.109129 44.559792
12.449262 -29.894712 43.359856
12.671994 -31.664085 42.227982
11.566424 -33.45573 42.492424
10.632665 -35.040337 42.781651
9.687348 -36.635208 43.180283
8.111146 -35.203182 45.81583
8.480861 -36.774277 44.593193
8.85507 -38.321022 43.530468
8.098502 -40.010303 43.897755
7.522605 -41.531528 44.172234
6.580737 -46.069378 44.344299
14.662986 -31.865122 40.425899
14.58669 -30.885465 40.891345
4.627088 -46.587145 46.652247
4.214719 -45.921053 47.412449
7.925743 -47.510075 42.593967
8.351942 -47.026094 42.215616
7.861394 -46.564253 42.801726
7.446945 -48.022265 42.979881
7.925743 -47.510075 42.593967
13.235562 -39.352428 39.221274
13.677148 -38.485475 39.095156
13.03128 -38.254785 39.609639
12.382505 -41.921307 39.388089
12.592536 -42.976128 39.092013
15.132441 -34.84449 39.033507
14.980365 -33.844976 39.465952
14.406099 -34.640623 39.614907
2.729122 -43.277714 50.499836
2.96031 -42.34198 50.555454
2.360432 -42.586326 51.337391
3.064418 -44.025514 49.709429
2.729122 -43.277714 50.499836
10.89953 -27.279047 46.755102
10.207353 -27.315744 47.635223
10.334022 -28.142044 46.947347
11.607533 -27.194438 45.929997
10.89953 -27.279047 46.755102
11.657642 -28.107238 45.313509
12.238977 -27.196329 45.176279
11.607533 -27.194438 45.929997
3.93937 -36.00551 51.839697
4.284404 -34.985757 51.808183
5.11194 -30.717175 52.813557
5.637721 -29.786154 52.554793
5.351486 -31.528387 52.023646
5.11194 -30.717175 52.813557
5.586469 -32.309614 51.215126
6.025259 -31.428318 51.045275
5.351486 -31.528387 52.023646
5.127724 -33.234139 51.40893
5.801497 -33.134069 50.430559
5.586469 -32.309614 51.215126
4.684947 -34.132503 51.619284
5.127724 -33.234139 51.40893
4.284404 -34.985757 51.808183
4.94221 -34.911848 50.813263
4.684947 -34.132503 51.619284
11.469438 -43.399368 39.882321
11.286715 -42.385881 40.181692
10.861265 -43.129579 40.422041
12.12528 -43.686659 39.341025
11.469438 -43.399368 39.882321
12.592536 -42.976128 39.092013
12.12528 -43.686659 39.341025
2.26846 -40.920564 52.204191
2.903391 -40.653824 51.33947
2.580232 -39.923795 52.150652
1.94581 -41.950102 52.223149
2.26846 -40.920564 52.204191
2.360432 -42.586326 51.337391
1.94581 -41.950102 52.223149
9.081793 -29.120033 48.007379
8.95592 -28.353111 48.670723
8.395869 -29.294403 48.850634
5.198201 -46.195213 46.056021
5.696986 -45.829 45.492153
5.308077 -45.243158 46.152304
5.198201 -46.195213 46.056021
4.627088 -46.587145 46.652247
10.320273 -46.617643 40.434065
10.821974 -45.891048 40.1128
9.893674 -47.234818 40.741375
10.320273 -46.617643 40.434065
9.798237 -46.226736 40.946692
9.425115 -47.883979 41.054461
9.893674 -47.234818 40.741375
8.893964 -47.407913 41.63093
8.829616 -46.462091 41.838688
8.351942 -47.026094 42.215616
9.425115 -47.883979 41.054461
8.893964 -47.407913 41.63093
10.482356 -43.903617 40.64147
10.861265 -43.129579 40.422041
10.299633 -42.890131 40.940842
10.634412 -44.876314 40.381025
10.482356 -43.903617 40.64147
10.072779 -44.636865 40.899826
10.821974 -45.891048 40.1128
10.634412 -44.876314 40.381025
3.590197 -36.973091 51.925719
4.192494 -36.732683 51.088184
3.93937 -36.00551 51.839697
3.219426 -37.954736 52.042398
3.590197 -36.973091 51.925719
2.905347 -38.933132 52.098261
3.529241 -38.678659 51.230069
3.219426 -37.954736 52.042398
2.580232 -39.923795 52.150652
2.905347 -38.933132 52.098261
6.34076 -29.703275 51.59994
5.637721 -29.786154 52.554793
7.015909 -29.571762 50.672647
6.34076 -29.703275 51.59994
6.465425 -30.515579 50.926502
7.705285 -29.455773 49.756593
7.015909 -29.571762 50.672647
7.831157 -30.222696 49.09325
8.395869 -29.294403 48.850634
7.705285 -29.455773 49.756593
13.888255 -35.52929 39.71718
14.406099 -34.640623 39.614907
13.736179 -34.529775 40.149626
14.015521 -36.513985 39.332991
13.888255 -35.52929 39.71718
13.3456 -36.403137 39.867711
14.180213 -37.590204 38.947522
14.015521 -36.513985 39.332991
14.180213 -37.590204 38.947522
13.677148 -38.485475 39.095156
12.207024 -40.899185 39.697043
11.719409 -41.633549 39.950926
12.382505 -41.921307 39.388089
12.729907 -40.154341 39.434981
12.06681 -39.866582 39.997818
12.207024 -40.899185 39.697043
13.235562 -39.352428 39.221274
12.729907 -40.154341 39.434981
14.796467 -32.78658 39.959236
14.662986 -31.865122 40.425899
14.120542 -32.719651 40.514015
14.796467 -32.78658 39.959236
14.980365 -33.844976 39.465952
3.840582 -45.277831 48.139617
4.214719 -45.921053 47.412449
4.435156 -44.966149 47.443339
3.430427 -44.670294 48.935732
3.69501 -43.678146 48.944203
3.064418 -44.025514 49.709429
3.840582 -45.277831 48.139617
3.430427 -44.670294 48.935732
13.910251 -30.820795 41.50107
14.58669 -30.885465 40.891345
9.508285 -27.351256 48.538931
8.95592 -28.353111 48.670723
9.508285 -27.351256 48.538931
10.207353 -27.315744 47.635223
12.867119 -27.224985 44.448857
12.238977 -27.196329 45.176279
12.946325 -28.076074 43.87686
12.867119 -27.224985 44.448857
13.026413 -28.968866 43.276892
12.946325 -28.076074 43.87686
12.369174 -29.00192 43.959824
13.14135 -29.869054 42.690658
13.026413 -28.968866 43.276892
13.252717 -30.753741 42.124721
13.14135 -29.869054 42.690658
12.560628 -30.779398 42.793919
13.329528 -31.731139 41.604331
13.910251 -30.820795 41.50107
13.252717 -30.753741 42.124721
6.083924 -46.425217 44.870085
6.193799 -45.473162 44.966368
5.696986 -45.829 45.492153
6.547959 -47.05072 44.173561
6.083924 -46.425217 44.870085
6.975187 -47.540148 43.59145
7.007966 -46.558806 43.762188
6.547959 -47.05072 44.173561
7.446945 -48.022265 42.979881
6.975187 -47.540148 43.59145
3 0 24 22
3 0 22 25
3 1 87 88
3 2 31 29
3 3 35 33
3 4 39 37
3 4 41 39
3 4 43 41
3 3 46 44
3 3 33 46
3 90 89 48
3 5 50 49
3 6 91 93
3 93 92 23
3 91 92 93
3 6 94 95
3 7 53 51
3 5 54 26
3 5 49 54
3 9 57 55
3 11 58 27
3 11 59 58
3 11 61 59
3 9 62 28
3 9 55 62
3 13 65 63
3 14 66 30
3 14 96 98
3 98 97 66
3 96 97 98
3 8 67 52
3 100 99 32
3 103 102 64
3 101 102 103
3 15 70 68
3 17 71 34
3 17 72 71
3 10 73 56
3 104 74 105
3 106 105 36
3 104 105 106
3 108 107 74
3 18 109 111
3 111 110 38
3 109 110 111
3 18 112 113
3 18 114 116
3 114 75 115
3 114 115 116
3 19 76 40
3 19 77 76
3 19 78 77
3 20 79 42
3 20 80 79
3 12 81 60
3 21 82 45
3 21 83 82
3 21 84 83
3 15 85 47
3 15 68 85
3 16 86 69
3 22 23 5
3 24 23 22
3 24 6 23
3 25 26 7
3 22 26 25
3 22 5 26
3 118 117 9
3 119 27 120
3 121 27 122
3 123 11 124
3 125 124 27
3 123 124 125
3 126 28 127
3 128 127 11
3 126 127 128
3 129 28 130
3 131 9 132
3 133 132 28
3 131 132 133
3 29 30 13
3 31 30 29
3 31 14 30
3 134 32 135
3 136 135 8
3 134 135 136
3 137 32 138
3 140 139 32
3 33 34 15
3 35 34 33
3 35 17 34
3 141 36 142
3 143 142 10
3 141 142 143
3 144 36 145
3 147 146 36
3 37 148 150
3 148 38 149
3 148 149 150
3 39 38 37
3 39 18 38
3 39 40 18
3 41 40 39
3 41 19 40
3 41 42 19
3 43 42 41
3 43 20 42
3 44 45 12
3 46 45 44
3 46 21 45
3 46 47 21
3 33 47 46
3 33 15 47
3 48 151 153
3 153 152 16
3 151 152 153
3 155 154 48
3 49 156 157
3 50 158 160
3 160 159 49
3 158 159 160
3 50 161 162
3 23 50 5
3 163 50 164
3 165 164 23
3 163 164 165
3 167 166 50
3 51 52 2
3 53 52 51
3 53 8 52
3 26 53 7
3 54 53 26
3 54 8 53
3 54 168 170
3 170 169 8
3 168 169 170
3 49 171 173
3 173 172 54
3 171 172 173
3 49 174 175
3 55 56 3
3 57 56 55
3 57 10 56
3 176 57 177
3 178 177 9
3 176 177 178
3 179 57 180
3 181 10 182
3 183 182 57
3 181 182 183
3 185 184 10
3 27 186 187
3 58 188 190
3 190 189 27
3 188 189 190
3 58 191 192
3 58 193 195
3 193 37 194
3 193 194 195
3 59 37 58
3 59 4 37
3 59 60 4
3 61 60 59
3 61 12 60
3 28 61 11
3 62 61 28
3 62 12 61
3 62 44 12
3 55 44 62
3 55 3 44
3 63 64 1
3 65 64 63
3 65 196 198
3 198 197 64
3 196 197 198
3 30 65 13
3 66 65 30
3 66 199 201
3 201 200 65
3 199 200 201
3 66 202 203
3 205 204 66
3 52 31 2
3 67 31 52
3 67 14 31
3 32 67 8
3 206 67 207
3 208 207 32
3 206 207 208
3 209 14 210
3 211 210 67
3 209 210 211
3 213 212 14
3 64 214 216
3 216 215 1
3 214 215 216
3 218 217 64
3 68 69 0
3 70 69 68
3 70 16 69
3 34 70 15
3 71 70 34
3 71 16 70
3 71 48 16
3 72 48 71
3 72 219 221
3 221 220 48
3 219 220 221
3 56 35 3
3 73 35 56
3 73 17 35
3 36 73 10
3 74 73 36
3 74 17 73
3 74 72 17
3 222 72 223
3 224 223 74
3 222 223 224
3 226 225 72
3 227 1 228
3 38 229 230
3 232 231 38
3 75 233 234
3 75 235 236
3 40 75 18
3 76 75 40
3 76 237 239
3 239 238 75
3 237 238 239
3 76 240 241
3 77 242 244
3 244 243 76
3 242 243 244
3 77 245 247
3 245 1 246
3 245 246 247
3 77 63 1
3 78 63 77
3 78 13 63
3 42 78 19
3 79 78 42
3 79 13 78
3 79 29 13
3 80 29 79
3 80 2 29
3 60 43 4
3 81 43 60
3 81 20 43
3 45 81 12
3 82 81 45
3 82 20 81
3 82 80 20
3 83 80 82
3 83 2 80
3 83 51 2
3 84 51 83
3 84 7 51
3 47 84 21
3 85 84 47
3 85 7 84
3 85 25 7
3 68 25 85
3 68 0 25
3 69 24 0
3 86 24 69
3 86 6 24
3 248 86 249
3 250 249 16
3 248 249 250
3 251 86 252
3 253 6 254
3 255 254 86
3 253 254 255
3 257 256 6
