ply
format ascii 1.0
element vertex 214
property float x
property float y
property float z
element face 212
property list uchar int vertex_index
end_header
15.545517 49.600792 29.705029
16.405222 57.49765 21.21616
20.437086 46.882549 21.449648
20.079683 39.249615 29.300928
15.866565 53.824894 25.49358
18.331011 52.021599 21.678217
18.074366 48.392963 25.652281
22.667292 38.101746 24.796415
20.730972 50.227123 17.38242
22.819685 45.32803 16.880299
17.397396 40.208748 33.512035
17.741404 44.423916 29.831848
20.230137 43.173023 25.597252
22.66007 41.914227 20.999083
14.377128 52.338749 29.535007
14.651973 54.405891 27.349312
15.72296 51.636135 27.663019
16.948404 50.991817 25.735163
16.830929 48.95187 27.795416
15.14249 58.24839 23.187777
17.623932 56.614166 19.284441
19.404268 49.486614 21.46723
19.531454 51.296856 19.429926
20.588539 48.612297 19.327236
21.789268 47.80331 16.99942
21.669914 46.01717 19.170876
19.924852 37.143898 31.152813
18.862528 39.684113 31.326647
17.675871 42.362255 31.547384
18.898741 41.967701 29.531708
18.975166 43.989799 27.671665
20.112038 41.31028 27.54147
22.68862 39.974968 22.935505
23.932426 39.516399 20.476406
24.000549 41.1427 18.502024
14.791891 56.509033 25.329725
16.125931 55.577118 23.445669
17.316078 54.764942 21.565342
17.116594 52.772636 23.771135
18.212313 50.214405 23.635725
19.276936 47.618073 23.593773
21.068817 34.634079 30.777164
21.237959 36.729221 28.937635
21.314346 38.843121 27.069035
22.500948 36.378273 26.674791
18.544113 53.824547 19.552589
19.72547 52.919746 17.466169
20.838013 52.100079 15.378165
21.866518 49.571938 15.036122
15.308945 47.526524 31.754154
16.390676 44.97414 31.861778
16.600927 46.984833 29.912432
17.882854 46.48671 27.79553
19.183483 45.675755 25.674051
20.307207 45.041752 23.612707
21.397306 40.660374 25.257153
21.460382 42.527191 23.30278
21.48505 44.399174 21.335657
22.745335 43.555611 19.014759
24.035954 42.777607 16.53027
15.958132 58.820643 21.044113
15.326766 59.196013 22.029922
15.773856 57.87302 22.201968
16.52964 58.466917 20.144429
15.958132 58.820643 21.044113
17.014577 57.055908 20.250301
17.138995 58.025175 19.178569
16.52964 58.466917 20.144429
24.634263 38.247292 20.219136
23.96806 38.552904 21.403409
24.669897 37.283797 21.146139
24.619467 39.101495 19.284838
24.634263 38.247292 20.219136
21.774046 34.416516 29.615874
21.617483 33.427847 30.605579
21.858617 35.464087 28.696109
21.153388 35.68165 29.857399
21.774046 34.416516 29.615874
22.490112 35.288612 27.564687
21.869453 36.553747 27.806213
21.858617 35.464087 28.696109
22.866782 46.144241 15.875352
22.351574 47.381882 15.934913
22.304476 46.56567 16.93986
23.417796 44.92327 15.727784
22.866782 46.144241 15.875352
15.177839 46.491562 32.711556
14.63218 47.826676 32.577824
17.312758 39.03649 34.369852
17.995657 38.93697 33.33769
16.683507 40.371206 34.507216
17.312758 39.03649 34.369852
16.812298 41.498368 33.594723
16.098409 41.660826 34.589903
16.683507 40.371206 34.507216
24.68011 41.581906 16.268874
24.018251 41.960154 17.516147
24.662408 40.764452 17.254751
24.666951 42.370058 15.3328
24.68011 41.581906 16.268874
14.514551 53.37232 28.44216
13.970319 54.84494 28.169325
13.832896 53.811369 29.262172
14.671758 59.683277 22.90006
14.009891 60.146347 23.76399
14.480622 58.71146 24.051707
14.671758 59.683277 22.90006
15.326766 59.196013 22.029922
17.792404 57.46427 18.198197
17.138995 58.025175 19.178569
18.235652 56.115472 18.283918
17.792404 57.46427 18.198197
19.259385 37.404545 32.158079
19.839824 36.050804 32.021744
18.728223 38.674653 32.244996
19.259385 37.404545 32.158079
19.39369 38.414006 31.23973
18.129962 39.946431 32.419341
17.995657 38.93697 33.33769
18.728223 38.674653 32.244996
23.346158 38.782189 22.632959
22.677956 39.038357 23.86596
23.335493 37.845578 23.563413
23.310523 39.745683 21.705956
23.346158 38.782189 22.632959
23.96806 38.552904 21.403409
24.653529 39.914646 18.297646
23.966487 40.329549 19.489215
24.619467 39.101495 19.284838
24.662408 40.764452 17.254751
24.653529 39.914646 18.297646
14.103856 55.793592 27.182292
13.970319 54.84494 28.169325
14.173815 56.845163 26.172498
14.103856 55.793592 27.182292
14.721932 55.457462 26.339519
14.305322 57.841781 25.122681
14.173815 56.845163 26.172498
14.967191 57.378712 24.258751
14.480622 58.71146 24.051707
14.305322 57.841781 25.122681
20.946438 33.489722 31.723736
21.495104 32.28349 31.55215
21.617483 33.427847 30.605579
20.411807 34.795895 31.83392
20.946438 33.489722 31.723736
20.496834 35.888988 30.964988
19.839824 36.050804 32.021744
20.411807 34.795895 31.83392
23.146446 35.165289 26.397124
22.490112 35.288612 27.564687
23.13561 34.075629 27.287021
23.200257 36.066419 25.500588
23.146446 35.165289 26.397124
23.28343 36.928156 24.5614
22.58412 37.240009 25.735603
23.200257 36.066419 25.500588
23.335493 37.845578 23.563413
23.28343 36.928156 24.5614
13.709463 52.690106 30.328771
13.832896 53.811369 29.262172
14.285201 51.280873 30.516329
13.709463 52.690106 30.328771
14.869395 49.911894 30.60134
14.961323 50.96977 29.620018
14.285201 51.280873 30.516329
18.695743 54.720663 18.417991
18.235652 56.115472 18.283918
18.084022 55.219357 19.418515
19.286421 54.268263 17.374782
18.695743 54.720663 18.417991
19.134791 53.372146 18.509379
19.877205 53.792318 16.335584
19.286421 54.268263 17.374782
20.433476 53.382485 15.291583
19.877205 53.792318 16.335584
20.281742 52.509912 16.422167
21.000979 52.905331 14.261758
20.433476 53.382485 15.291583
21.478704 51.539186 14.21201
21.64167 52.344438 13.095603
21.000979 52.905331 14.261758
21.992957 50.275116 14.040989
21.478704 51.539186 14.21201
21.352266 50.836009 15.207144
22.45854 49.029009 13.980398
21.992957 50.275116 14.040989
22.390199 48.266196 14.953264
21.827893 48.687624 16.017771
22.351574 47.381882 15.934913
22.45854 49.029009 13.980398
22.390199 48.266196 14.953264
14.751109 48.87476 31.625902
14.63218 47.826676 32.577824
15.427231 48.563658 30.729591
14.869395 49.911894 30.60134
14.751109 48.87476 31.625902
16.951535 42.575121 32.612397
16.812298 41.498368 33.594723
17.536634 41.285501 32.529709
16.308938 43.881063 32.769594
16.951535 42.575121 32.612397
17.033273 43.668197 31.704581
15.718704 45.21537 32.765367
16.308938 43.881063 32.769594
15.849811 46.250332 31.807966
15.177839 46.491562 32.711556
15.718704 45.21537 32.765367
24.025931 43.648058 15.55277
23.417796 44.92327 15.727784
23.427819 44.052819 16.705285
24.656928 43.240509 14.3553
24.025931 43.648058 15.55277
24.666951 42.370058 15.3328
3 0 16 14
3 0 18 16
3 1 60 62
3 62 61 19
3 60 61 62
3 1 63 64
3 1 65 67
3 65 20 66
3 65 66 67
3 2 23 21
3 2 25 23
3 3 27 26
3 3 29 27
3 3 31 29
3 68 33 69
3 68 69 70
3 72 71 33
3 4 35 15
3 4 36 35
3 4 38 36
3 6 39 17
3 6 40 39
3 73 41 74
3 75 42 76
3 77 76 41
3 75 76 77
3 78 44 79
3 80 79 42
3 78 79 80
3 5 45 37
3 8 46 22
3 8 47 46
3 8 48 47
3 9 81 83
3 83 82 24
3 81 82 83
3 9 84 85
3 86 49 87
3 10 88 89
3 10 90 91
3 10 92 94
3 92 93 94
3 11 50 28
3 11 51 50
3 11 52 51
3 12 53 30
3 12 54 53
3 7 55 43
3 13 56 32
3 13 57 56
3 13 58 57
3 95 59 96
3 97 96 34
3 95 96 97
3 99 98 59
3 14 100 102
3 100 15 101
3 100 101 102
3 16 15 14
3 16 4 15
3 16 17 4
3 18 17 16
3 18 6 17
3 19 103 105
3 103 104 105
3 107 106 19
3 20 108 109
3 20 110 111
3 21 22 5
3 23 22 21
3 23 8 22
3 23 24 8
3 25 24 23
3 25 9 24
3 26 112 113
3 27 114 116
3 116 115 26
3 114 115 116
3 27 117 119
3 117 10 118
3 117 118 119
3 27 28 10
3 29 28 27
3 29 11 28
3 29 30 11
3 31 30 29
3 31 12 30
3 120 32 121
3 122 121 7
3 120 121 122
3 33 123 125
3 123 32 124
3 123 124 125
3 33 13 32
3 33 34 13
3 126 34 127
3 128 127 33
3 126 127 128
3 130 129 34
3 15 131 132
3 35 133 135
3 135 134 15
3 133 134 135
3 35 136 137
3 35 138 140
3 138 19 139
3 138 139 140
3 36 19 35
3 36 1 19
3 36 37 1
3 38 37 36
3 38 5 37
3 17 38 4
3 39 38 17
3 39 5 38
3 39 21 5
3 40 21 39
3 40 2 21
3 41 141 143
3 141 142 143
3 41 144 145
3 41 146 148
3 146 26 147
3 146 147 148
3 42 26 41
3 42 3 26
3 42 43 3
3 44 43 42
3 44 7 43
3 149 44 150
3 149 150 151
3 152 44 153
3 154 7 155
3 156 155 44
3 154 155 156
3 158 157 7
3 159 14 160
3 161 14 162
3 163 0 164
3 165 164 14
3 163 164 165
3 37 20 1
3 45 20 37
3 45 166 168
3 168 167 20
3 166 167 168
3 22 45 5
3 46 45 22
3 46 169 171
3 171 170 45
3 169 170 171
3 46 172 173
3 47 174 176
3 176 175 46
3 174 175 176
3 47 177 178
3 47 179 181
3 179 180 181
3 48 182 184
3 184 183 47
3 182 183 184
3 48 185 186
3 24 48 8
3 187 48 188
3 189 188 24
3 187 188 189
3 191 190 48
3 49 192 193
3 49 194 196
3 194 0 195
3 194 195 196
3 28 197 199
3 199 198 10
3 197 198 199
3 50 200 202
3 202 201 28
3 200 201 202
3 50 203 204
3 50 205 207
3 205 49 206
3 205 206 207
3 51 49 50
3 51 0 49
3 51 18 0
3 52 18 51
3 52 6 18
3 30 52 11
3 53 52 30
3 53 6 52
3 53 40 6
3 54 40 53
3 54 2 40
3 43 31 3
3 55 31 43
3 55 12 31
3 32 55 7
3 56 55 32
3 56 12 55
3 56 54 12
3 57 54 56
3 57 2 54
3 57 25 2
3 58 25 57
3 58 9 25
3 34 58 13
3 59 58 34
3 59 9 58
3 59 208 210
3 210 209 9
3 208 209 210
3 213 212 59
3 211 212 213
