ply
format ascii 1.0
element vertex 237
property float x
property float y
property float z
element face 233
property list uchar int vertex_index
end_header
30.473499 -49.771957 13.076292
28.759089 -54.314346 4.617265
32.313087 -43.818714 20.454342
34.409782 -42.123169 10.690858
29.41334 -50.786205 17.970602
28.592932 -53.67477 13.790315
30.036732 -47.723877 21.518885
31.477835 -46.964848 16.976696
28.278776 -56.313053 0.146767
33.204086 -44.289604 6.746021
31.328461 -48.207134 8.065269
30.450722 -50.07671 3.724384
29.533957 -52.160542 8.983748
27.672958 -56.398506 9.775071
34.40773 -40.078697 19.453417
35.478424 -39.654533 14.501404
33.595901 -43.150291 15.749352
32.485699 -45.825512 11.820914
29.785799 -49.210079 19.845434
32.563919 -45.396576 4.816173
30.919678 -49.050636 10.546816
30.408516 -50.207996 8.381431
29.97526 -51.040546 11.071548
28.087557 -55.12635 11.867941
31.423203 -44.014099 22.689121
32.459229 -42.231483 22.253839
33.323582 -41.997395 20.061596
34.045021 -41.648487 17.744829
33.041878 -43.460995 18.246279
31.066553 -48.256462 15.010644
32.048107 -46.407333 14.484375
31.496387 -47.734596 12.587518
31.891314 -47.061523 9.990712
29.599363 -52.189312 4.312162
29.301073 -53.11821 2.091855
34.937828 -41.000256 12.670247
35.337772 -40.29361 10.044924
30.032433 -50.229916 15.60285
29.55986 -51.634472 13.560315
29.009008 -52.295315 15.891614
31.215492 -45.691616 20.989859
31.966105 -45.377045 18.737167
30.878254 -47.233791 19.393894
30.493095 -48.770229 17.456223
27.876877 -56.566517 4.864453
28.526299 -55.198452 2.386975
27.675882 -57.469704 2.633521
33.82394 -43.210583 8.711473
34.670372 -41.514317 8.058107
34.099991 -42.431694 5.981092
31.65896 -47.36808 5.39098
30.859177 -49.16642 5.7988
29.9849 -51.200169 6.35598
29.117609 -53.254341 6.782555
29.048916 -53.039577 11.453352
28.618608 -54.229828 9.405051
28.243116 -55.357269 7.152933
35.400089 -38.322079 18.726345
34.997124 -39.986233 16.963633
34.547169 -41.387844 15.257518
34.04607 -42.697739 13.174391
32.542068 -45.059948 16.339397
33.068329 -44.535549 13.692926
33.442638 -43.988388 11.158081
32.872761 -45.092854 9.176329
32.21941 -46.317177 7.309988
32.736075 -44.862816 3.508237
32.30012 -45.855261 3.832199
30.164348 -46.839005 22.324792
29.597676 -47.794069 22.561182
30.626112 -46.707746 21.254372
30.753728 -45.822874 22.060279
30.164348 -46.839005 22.324792
27.329213 -58.140501 3.90065
27.77638 -57.01811 3.748987
27.42971 -57.688907 5.016116
27.505899 -56.977609 8.57468
27.790978 -56.456991 7.263611
27.958037 -55.877887 8.464002
34.510637 -39.265777 20.309235
34.071444 -39.404213 21.465636
33.968536 -40.217132 20.609817
34.903909 -39.200388 19.089881
35.006816 -38.387468 19.945699
34.510637 -39.265777 20.309235
30.635896 -49.591692 2.493009
30.840103 -49.132252 3.462124
28.672843 -55.20739 -0.035469
28.796605 -54.650089 1.084635
28.402538 -55.755752 1.266871
35.926431 -38.746779 14.242164
35.693287 -38.948805 15.427021
35.142891 -40.547438 7.709156
34.820251 -41.078522 6.775558
28.904474 -51.749117 18.198578
29.074722 -50.946121 19.138958
29.483981 -48.665293 21.788462
29.597676 -47.794069 22.561182
29.358515 -49.408394 20.951737
29.911265 -48.466978 20.68216
29.483981 -48.665293 21.788462
29.260951 -50.158058 20.076374
29.358515 -49.408394 20.951737
29.074722 -50.946121 19.138958
29.59957 -49.998142 18.908018
29.260951 -50.158058 20.076374
32.991793 -44.475493 4.486689
33.311876 -43.922006 5.451613
32.884002 -44.84309 5.781097
32.991793 -44.475493 4.486689
32.736075 -44.862816 3.508237
27.855313 -55.395001 13.096428
28.340245 -54.40056 12.829128
28.108 -54.669211 14.057615
27.60573 -56.167618 12.117269
27.855313 -55.395001 13.096428
27.373486 -56.436268 13.345757
27.39843 -56.803696 11.070835
27.880257 -55.762428 10.821506
27.60573 -56.167618 12.117269
27.232153 -57.409467 9.915965
27.39843 -56.803696 11.070835
31.487412 -43.04261 23.523657
30.937227 -43.997726 23.709376
32.005425 -42.151302 23.306016
31.487412 -43.04261 23.523657
31.941216 -43.122791 22.47148
32.570169 -41.26946 22.998202
32.116365 -41.189279 24.050379
32.005425 -42.151302 23.306016
32.994286 -41.293526 22.010028
32.570169 -41.26946 22.998202
33.426462 -41.176481 20.913907
32.994286 -41.293526 22.010028
32.891406 -42.114439 21.157718
33.865656 -41.038046 19.757507
33.968536 -40.217132 20.609817
33.426462 -41.176481 20.913907
29.833212 -51.630392 3.060625
30.258891 -50.574091 2.766736
30.025042 -51.133011 4.018273
29.684067 -52.094841 1.950471
29.833212 -51.630392 3.060625
29.450218 -52.653761 3.202008
29.544379 -52.564461 0.901214
29.684067 -52.094841 1.950471
28.617491 -55.631012 -1.119021
28.222142 -56.783554 -1.003127
35.44019 -40.012085 12.313742
35.710487 -39.339224 13.229321
35.208126 -40.327394 13.585826
35.640162 -39.658762 11.001081
35.44019 -40.012085 12.313742
35.1378 -40.646933 11.357585
35.775089 -39.399113 9.752145
35.640162 -39.658762 11.001081
28.702307 -52.503672 17.159084
29.211174 -51.54076 16.931108
28.904474 -51.749117 18.198578
28.519557 -53.259374 16.134871
28.702307 -52.503672 17.159084
28.311519 -53.949102 15.084221
28.80097 -52.985043 14.840965
28.519557 -53.259374 16.134871
28.108 -54.669211 14.057615
28.311519 -53.949102 15.084221
30.857584 -44.984116 22.90991
30.937227 -43.997726 23.709376
31.319347 -44.852857 21.83949
30.857584 -44.984116 22.90991
30.753728 -45.822874 22.060279
27.237368 -58.630745 2.64348
27.329213 -58.140501 3.90065
27.572333 -58.003059 1.511189
27.237368 -58.630745 2.64348
27.133819 -59.164101 1.521149
27.87378 -57.424734 0.267813
27.977329 -56.891379 1.390144
27.572333 -58.003059 1.511189
28.222142 -56.783554 -1.003127
27.87378 -57.424734 0.267813
34.535061 -41.537211 5.737051
34.820251 -41.078522 6.775558
34.385182 -41.973005 7.019599
33.759828 -42.993051 5.069149
33.652039 -43.360649 6.363556
33.311876 -43.922006 5.451613
34.214455 -42.035339 4.817844
33.759828 -42.993051 5.069149
34.535061 -41.537211 5.737051
34.214455 -42.035339 4.817844
31.444223 -47.777937 4.295421
31.84764 -46.841013 4.119603
31.044331 -48.677107 4.499332
31.444223 -47.777937 4.295421
31.259068 -48.26725 5.59489
30.65495 -49.621565 4.761592
30.840103 -49.132252 3.462124
31.044331 -48.677107 4.499332
27.607858 -57.061615 6.119371
28.059997 -55.961893 6.008693
27.790978 -56.456991 7.263611
27.42971 -57.688907 5.016116
27.607858 -57.061615 6.119371
27.505899 -56.977609 8.57468
27.232153 -57.409467 9.915965
35.475544 -37.516728 19.660087
35.006816 -38.387468 19.945699
35.830641 -37.479525 18.421178
35.475544 -37.516728 19.660087
35.65412 -38.282578 17.539491
35.830641 -37.479525 18.421178
35.452637 -39.114655 16.658136
35.65412 -38.282578 17.539491
35.198606 -39.154156 17.844989
35.237774 -39.820383 15.732519
35.693287 -38.948805 15.427021
35.452637 -39.114655 16.658136
31.84764 -46.841013 4.119603
32.30012 -45.855261 3.832199
32.11144 -46.382328 5.103576
30.635896 -49.591692 2.493009
30.258891 -50.574091 2.766736
29.183991 -53.609968 0.937075
28.913686 -54.158331 2.239415
28.796605 -54.650089 1.084635
29.544379 -52.564461 0.901214
29.183991 -53.609968 0.937075
28.672843 -55.20739 -0.035469
28.617491 -55.631012 -1.119021
35.926431 -38.746779 14.242164
35.710487 -39.339224 13.229321
35.476591 -39.937084 8.702565
35.004072 -40.903964 9.051516
35.142891 -40.547438 7.709156
35.775089 -39.399113 9.752145
35.476591 -39.937084 8.702565
3 67 66 19
3 0 22 20
3 2 25 24
3 2 26 25
3 2 28 26
3 0 31 29
3 0 20 31
3 1 34 33
3 3 36 35
3 4 39 37
3 6 68 69
3 6 70 72
3 70 40 71
3 70 71 72
3 6 42 40
3 4 43 18
3 4 37 43
3 73 46 74
3 75 74 44
3 73 74 75
3 9 49 47
3 10 51 50
3 12 52 21
3 12 53 52
3 5 54 38
3 13 55 23
3 13 56 55
3 13 76 78
3 78 77 56
3 76 77 78
3 14 79 81
3 79 80 81
3 14 82 84
3 82 57 83
3 82 83 84
3 14 58 57
3 16 59 27
3 16 60 59
3 7 61 41
3 17 62 30
3 17 63 62
3 17 64 63
3 10 65 32
3 10 50 65
3 11 85 86
3 8 87 89
3 89 88 45
3 87 88 89
3 15 90 91
3 93 92 48
3 95 94 4
3 96 6 97
3 98 18 99
3 100 99 6
3 98 99 100
3 101 18 102
3 103 4 104
3 105 104 18
3 103 104 105
3 19 106 108
3 108 107 9
3 106 107 108
3 110 109 19
3 20 21 10
3 22 21 20
3 22 12 21
3 111 23 112
3 113 112 5
3 111 112 113
3 114 23 115
3 114 115 116
3 117 13 118
3 119 118 23
3 117 118 119
3 121 120 13
3 24 122 123
3 25 124 126
3 126 125 24
3 124 125 126
3 25 127 129
3 127 128 129
3 25 130 131
3 26 132 134
3 134 133 25
3 132 133 134
3 26 135 137
3 135 14 136
3 135 136 137
3 26 27 14
3 28 27 26
3 28 16 27
3 29 30 7
3 31 30 29
3 31 17 30
3 31 32 17
3 20 32 31
3 20 10 32
3 33 138 140
3 140 139 11
3 138 139 140
3 34 141 143
3 143 142 33
3 141 142 143
3 34 144 145
3 147 146 8
3 35 148 150
3 150 149 15
3 148 149 150
3 36 151 153
3 153 152 35
3 151 152 153
3 36 154 155
3 37 38 0
3 39 38 37
3 39 5 38
3 156 39 157
3 158 157 4
3 156 157 158
3 159 39 160
3 161 5 162
3 163 162 39
3 161 162 163
3 165 164 5
3 166 24 167
3 40 168 170
3 168 24 169
3 168 169 170
3 40 2 24
3 40 41 2
3 42 41 40
3 42 7 41
3 18 42 6
3 43 42 18
3 43 7 42
3 43 29 7
3 37 29 43
3 37 0 29
3 44 45 1
3 46 45 44
3 46 8 45
3 171 46 172
3 173 46 174
3 173 174 175
3 176 8 177
3 178 177 46
3 176 177 178
3 180 179 8
3 47 48 3
3 49 48 47
3 49 181 183
3 183 182 48
3 181 182 183
3 184 49 185
3 186 185 9
3 184 185 186
3 187 49 188
3 190 189 49
3 50 191 192
3 51 193 195
3 195 194 50
3 193 194 195
3 51 196 198
3 196 11 197
3 196 197 198
3 21 51 10
3 52 51 21
3 52 11 51
3 52 33 11
3 53 33 52
3 53 1 33
3 38 22 0
3 54 22 38
3 54 12 22
3 23 54 5
3 55 54 23
3 55 12 54
3 55 53 12
3 56 53 55
3 56 1 53
3 56 44 1
3 199 44 200
3 201 200 56
3 199 200 201
3 203 202 44
3 205 204 13
3 57 206 207
3 57 208 209
3 57 210 211
3 58 212 214
3 214 213 57
3 212 213 214
3 58 215 217
3 215 15 216
3 215 216 217
3 27 58 14
3 59 58 27
3 59 15 58
3 59 35 15
3 60 35 59
3 60 3 35
3 41 28 2
3 61 28 41
3 61 16 28
3 30 61 7
3 62 61 30
3 62 16 61
3 62 60 16
3 63 60 62
3 63 3 60
3 63 47 3
3 64 47 63
3 64 9 47
3 32 64 17
3 65 64 32
3 65 9 64
3 65 19 9
3 50 19 65
3 50 218 220
3 220 219 19
3 218 219 220
3 222 221 11
3 45 34 1
3 223 34 224
3 225 224 45
3 223 224 225
3 227 226 34
3 229 228 8
3 231 230 15
3 48 36 3
3 232 36 233
3 234 233 48
3 232 233 234
3 236 235 36
