ply
format ascii 1.0
element vertex 241
property float x
property float y
property float z
element face 235
property list uchar int vertex_index
end_header
-26.910576 -64.305252 -8.372621
-22.269123 -74.375648 -6.571964
-23.434107 -68.189117 2.256902
-25.109913 -62.664818 10.161342
-21.167767 -72.875641 3.310316
-21.908773 -69.651794 7.750471
-24.687418 -69.210152 -7.316487
-24.212572 -72.123886 -11.593782
-26.578667 -66.990463 -12.278324
-29.037773 -61.590431 -13.45422
-19.734228 -79.358368 -6.266637
-20.604429 -75.891136 -1.407728
-22.825748 -71.328384 -2.093705
-25.041176 -66.465782 -3.106242
-21.576744 -77.507957 -11.250175
-24.116106 -65.417435 6.377168
-25.523722 -63.850594 0.951156
-25.824518 -66.69178 -7.78218
-25.572514 -68.256645 -9.837978
-26.767792 -65.634895 -10.377374
-27.874857 -64.123062 -12.791249
-27.957811 -62.919647 -10.810432
-19.360601 -78.345985 -1.518396
-19.648674 -76.840691 1.024181
-22.292559 -70.593559 2.820699
-22.039837 -72.002251 0.664657
-23.096376 -69.747475 0.236805
-23.936007 -68.84201 -2.417841
-24.156891 -67.475502 -0.369687
-21.084185 -76.838303 -6.55312
-20.664371 -78.467346 -8.809135
-22.019423 -75.788574 -8.906476
-25.140789 -71.032036 -14.042127
-23.398926 -66.159477 9.166524
-24.540545 -64.104744 8.316545
-20.033356 -75.11702 3.520921
-20.433777 -73.403183 5.845697
-21.579556 -71.124039 5.596
-22.674105 -68.971252 4.933665
-23.494173 -71.814697 -6.932064
-23.227722 -73.28949 -9.095648
-24.406713 -70.741112 -9.309509
-25.366468 -69.643768 -11.882596
-26.446341 -68.233246 -14.375341
-27.681551 -65.540276 -14.774952
-26.247675 -60.789207 9.16764
-25.626581 -62.179394 7.458509
-18.393295 -81.802353 -6.45655
-18.780102 -80.245781 -3.859435
-20.182991 -77.655495 -3.893081
-21.371941 -75.337364 -4.110065
-20.898453 -74.385269 0.905352
-21.766212 -73.589355 -1.781114
-22.586876 -72.834953 -4.4345
-23.758347 -70.290161 -4.794774
-24.845863 -67.858307 -5.179274
-25.958611 -65.366013 -5.667358
-19.28845 -81.063736 -8.965045
-22.891453 -74.902313 -11.432194
-23.035223 -67.478271 7.139532
-23.761057 -66.742531 4.370765
-25.232008 -63.333782 5.455015
-24.87199 -64.540718 3.5732
-24.435722 -66.085373 1.665049
-25.267893 -65.114494 -1.084869
-26.112339 -64.086197 -3.595548
-19.253622 -77.032464 2.383939
-19.044153 -77.890858 1.143915
-24.974502 -71.762127 -15.089823
-25.65476 -70.357658 -15.261475
-24.825229 -63.384781 9.238943
-24.246319 -64.370491 9.643445
-24.531003 -63.650528 10.565843
-20.05892 -73.603695 7.14267
-19.848691 -74.453659 6.018249
-21.744165 -70.387916 6.673236
-21.161314 -71.497273 6.895408
-21.325923 -70.76115 7.972644
-28.982532 -62.216143 -14.420264
-28.401073 -63.482458 -14.088778
-28.456315 -62.856746 -13.122734
-29.558512 -60.898438 -14.652071
-28.982532 -62.216143 -14.420264
-26.532358 -60.454153 7.832493
-26.885503 -59.747036 8.691576
-18.387567 -80.437031 -2.526943
-18.099328 -81.382355 -3.854405
-20.895395 -78.812591 -11.277936
-20.439208 -79.292286 -10.057416
-21.120558 -77.987651 -10.029655
-21.337893 -78.343456 -12.499355
-20.895395 -78.812591 -11.277936
-25.797691 -62.276792 5.108987
-25.429295 -62.756588 6.456762
-25.994977 -61.699599 6.110734
-25.197856 -64.195656 2.262178
-25.427206 -63.458873 3.179984
-25.753072 -63.113811 1.868962
-26.668242 -62.925736 -3.983324
-26.227833 -63.453121 -2.623212
-26.556094 -63.587282 -4.926089
-26.668242 -62.925736 -3.983324
-21.545479 -69.927543 9.037482
-21.325923 -70.76115 7.972644
-20.962629 -71.0369 9.259655
-18.900116 -78.643505 -0.127373
-18.677817 -79.487133 -1.356424
-19.504638 -77.593338 -0.247108
-18.900116 -78.643505 -0.127373
-19.044153 -77.890858 1.143915
-24.500842 -72.398083 -14.001057
-24.036734 -72.944008 -12.776884
-24.676681 -71.577961 -12.817954
-24.500842 -72.398083 -14.001057
-24.974502 -71.762127 -15.089823
-23.67551 -65.397858 10.068435
-23.065092 -66.441654 10.463762
-23.969735 -65.13211 8.741535
-23.67551 -65.397858 10.068435
-24.246319 -64.370491 9.643445
-26.087837 -62.741881 0.489486
-25.753072 -63.113811 1.868962
-25.933524 -63.335319 -0.34986
-26.087837 -62.741881 0.489486
-19.64848 -75.310577 4.855861
-19.445963 -76.170628 3.632309
-20.233567 -74.260101 4.683309
-19.64848 -75.310577 4.855861
-19.848691 -74.453659 6.018249
-20.588425 -72.636844 7.020257
-20.05892 -73.603695 7.14267
-21.006667 -72.263611 5.720849
-20.588425 -72.636844 7.020257
-21.161314 -71.497273 6.895408
-26.307536 -68.958263 -15.428082
-25.65476 -70.357658 -15.261475
-25.793565 -69.632641 -14.208734
-26.972231 -67.567962 -15.665812
-26.833426 -68.29298 -16.718553
-26.307536 -68.958263 -15.428082
-27.589836 -66.221478 -15.865617
-26.972231 -67.567962 -15.665812
-27.063946 -66.886761 -14.575147
-28.209999 -64.857048 -16.031403
-27.589836 -66.221478 -15.865617
-28.30442 -64.191065 -15.08063
-27.778204 -64.831669 -13.7831
-28.401073 -63.482458 -14.088778
-28.209999 -64.857048 -16.031403
-28.30442 -64.191065 -15.08063
-26.221811 -61.149247 6.977927
-25.937128 -61.484301 8.313075
-26.532358 -60.454153 7.832493
-25.994977 -61.699599 6.110734
-26.221811 -61.149247 6.977927
-17.905924 -82.160641 -5.152963
-17.658485 -83.018982 -6.561792
-18.586698 -81.024067 -5.157992
-17.905924 -82.160641 -5.152963
-18.099328 -81.382355 -3.854405
-19.070352 -79.295883 -2.688916
-18.387567 -80.437031 -2.526943
-18.677817 -79.487133 -1.356424
-19.841015 -75.978856 2.272551
-19.253622 -77.032464 2.383939
-19.445963 -76.170628 3.632309
-24.822734 -62.917711 11.443248
-24.531003 -63.650528 10.565843
-25.431835 -61.958052 10.971141
-24.822734 -62.917711 11.443248
-26.000715 -61.020246 10.47429
-25.678794 -61.727013 9.664491
-25.431835 -61.958052 10.971141
-26.596449 -60.091036 10.003472
-26.000715 -61.020246 10.47429
-26.885503 -59.747036 8.691576
-26.596449 -60.091036 10.003472
-18.085684 -82.717079 -7.73229
-17.658485 -83.018982 -6.561792
-18.533261 -82.34777 -8.986538
-18.085684 -82.717079 -7.73229
-18.840872 -81.433044 -7.710797
-18.990236 -81.941445 -10.175663
-18.235047 -83.225479 -10.197156
-18.533261 -82.34777 -8.986538
-19.751247 -80.590481 -10.135371
-19.976411 -79.765541 -8.88709
-20.439208 -79.292286 -10.057416
-18.990236 -81.941445 -10.175663
-19.751247 -80.590481 -10.135371
-23.376174 -74.333222 -12.696091
-23.552013 -73.5131 -11.512988
-24.036734 -72.944008 -12.776884
-22.731901 -75.618877 -12.58829
-23.376174 -74.333222 -12.696091
-22.074546 -76.9217 -12.497281
-22.234099 -76.205135 -11.341185
-22.731901 -75.618877 -12.58829
-21.337893 -78.343456 -12.499355
-22.074546 -76.9217 -12.497281
-22.096463 -68.921761 8.794301
-21.545479 -69.927543 9.037482
-22.841539 -67.175602 9.502328
-23.065092 -66.441654 10.463762
-22.659688 -67.834999 8.488832
-22.841539 -67.175602 9.502328
-23.217074 -66.818874 8.153028
-22.471998 -68.565033 7.445002
-22.096463 -68.921761 8.794301
-22.659688 -67.834999 8.488832
-25.607215 -62.855406 4.120891
-25.797691 -62.276792 5.108987
-25.051999 -63.93725 4.514107
-25.607215 -62.855406 4.120891
-25.427206 -63.458873 3.179984
-25.80561 -63.96727 -1.367873
-25.395808 -64.482544 -0.066857
-25.933524 -63.335319 -0.34986
-25.690116 -64.600346 -2.340209
-25.80561 -63.96727 -1.367873
-26.227833 -63.453121 -2.623212
-26.47923 -64.22719 -5.961994
-26.035475 -64.726105 -4.631453
-26.556094 -63.587282 -4.926089
-26.955213 -63.69681 -7.314626
-26.434593 -64.835633 -7.01999
-26.47923 -64.22719 -5.961994
-27.463001 -63.041424 -8.58077
-26.955213 -63.69681 -7.314626
-27.986619 -62.348622 -9.799676
-27.434193 -63.612449 -9.591527
-27.463001 -63.041424 -8.58077
-28.529891 -61.666908 -11.143221
-27.986619 -62.348622 -9.799676
-29.069872 -61.0023 -12.465115
-28.497792 -62.255039 -12.132326
-28.529891 -61.666908 -11.143221
-29.604363 -60.286471 -13.688108
-29.069872 -61.0023 -12.465115
-29.558512 -60.898438 -14.652071
-29.604363 -60.286471 -13.688108
3 0 19 17
3 0 21 19
3 66 23 67
3 2 26 24
3 2 28 26
3 1 31 29
3 69 68 32
3 3 70 72
3 70 34 71
3 70 71 72
3 73 36 74
3 5 75 77
3 75 37 76
3 75 76 77
3 5 38 37
3 6 41 39
3 8 42 18
3 8 43 42
3 8 44 43
3 9 78 80
3 80 79 20
3 78 79 80
3 9 81 82
3 84 83 45
3 85 48 86
3 11 49 22
3 11 50 49
3 4 51 35
3 12 52 25
3 12 53 52
3 12 54 53
3 13 55 27
3 13 56 55
3 10 57 47
3 14 87 89
3 89 88 30
3 87 88 89
3 14 90 91
3 7 58 40
3 15 59 33
3 15 60 59
3 92 61 93
3 94 93 46
3 92 93 94
3 16 95 97
3 95 62 96
3 95 96 97
3 16 63 62
3 16 64 63
3 98 65 99
3 101 100 65
3 102 5 103
3 102 103 104
3 17 18 6
3 19 18 17
3 19 8 18
3 19 20 8
3 21 20 19
3 21 9 20
3 105 22 106
3 23 107 109
3 107 22 108
3 107 108 109
3 23 11 22
3 24 25 4
3 26 25 24
3 26 12 25
3 26 27 12
3 28 27 26
3 28 13 27
3 29 30 10
3 31 30 29
3 31 14 30
3 32 110 112
3 112 111 7
3 110 111 112
3 114 113 32
3 115 33 116
3 34 117 119
3 117 33 118
3 117 118 119
3 34 15 33
3 120 16 121
3 123 122 16
3 124 35 125
3 36 126 128
3 126 35 127
3 126 127 128
3 36 4 35
3 129 36 130
3 37 131 133
3 131 36 132
3 131 132 133
3 37 4 36
3 37 24 4
3 38 24 37
3 38 2 24
3 39 40 1
3 41 40 39
3 41 7 40
3 18 41 6
3 42 41 18
3 42 7 41
3 42 32 7
3 43 32 42
3 43 134 136
3 136 135 32
3 134 135 136
3 43 137 139
3 137 138 139
3 44 140 142
3 142 141 43
3 140 141 142
3 44 143 144
3 20 44 8
3 145 44 146
3 147 146 20
3 145 146 147
3 149 148 44
3 45 46 3
3 150 46 151
3 152 151 45
3 150 151 152
3 154 153 46
3 155 47 156
3 48 157 159
3 157 47 158
3 157 158 159
3 48 10 47
3 22 160 162
3 160 48 161
3 160 161 162
3 49 48 22
3 49 10 48
3 49 29 10
3 50 29 49
3 50 1 29
3 35 163 165
3 163 23 164
3 163 164 165
3 51 23 35
3 51 11 23
3 25 51 4
3 52 51 25
3 52 11 51
3 52 50 11
3 53 50 52
3 53 1 50
3 53 39 1
3 54 39 53
3 54 6 39
3 27 54 12
3 55 54 27
3 55 6 54
3 55 17 6
3 56 17 55
3 56 0 17
3 166 3 167
3 168 3 169
3 170 45 171
3 172 171 3
3 170 171 172
3 173 45 174
3 176 175 45
3 47 177 178
3 57 179 181
3 181 180 47
3 179 180 181
3 57 182 184
3 182 183 184
3 30 57 10
3 185 57 186
3 187 186 30
3 185 186 187
3 189 188 57
3 40 31 1
3 58 31 40
3 58 14 31
3 190 58 191
3 192 191 7
3 190 191 192
3 193 58 194
3 195 14 196
3 197 196 58
3 195 196 197
3 199 198 14
3 200 5 201
3 33 202 203
3 59 204 206
3 206 205 33
3 204 205 206
3 59 207 209
3 207 5 208
3 207 208 209
3 59 38 5
3 60 38 59
3 60 2 38
3 46 34 3
3 61 34 46
3 61 15 34
3 210 61 211
3 62 212 214
3 212 61 213
3 212 213 214
3 62 15 61
3 62 60 15
3 63 60 62
3 63 2 60
3 63 28 2
3 64 28 63
3 64 13 28
3 215 64 216
3 217 216 16
3 215 216 217
3 65 218 220
3 218 64 219
3 218 219 220
3 65 13 64
3 65 56 13
3 221 56 222
3 223 222 65
3 221 222 223
3 224 0 225
3 226 225 56
3 224 225 226
3 227 0 228
3 229 21 230
3 231 230 0
3 229 230 231
3 232 21 233
3 234 9 235
3 236 235 21
3 234 235 236
3 237 9 238
3 240 239 9
