ply
format ascii 1.0
element vertex 281
property float x
property float y
property float z
element face 238
property list uchar int vertex_index
end_header
2.772925 53.295296 40.94252
-4.593953 53.987244 45.228649
-2.797316 65.352928 37.504208
14.580656 40.85466 37.192436
-0.995671 53.621956 43.1618
-3.645874 59.935993 41.414646
11.28931 41.332458 40.54697
13.842508 35.881111 40.566532
19.754797 34.95771 32.890675
-1.924144 47.765381 46.568802
1.756518 47.752068 44.39233
5.356935 47.466351 42.240967
8.900389 47.05732 39.706284
16.927521 35.536198 36.942368
0.939901 53.449768 42.046135
-0.363103 56.355904 41.299503
1.328945 56.392353 40.174896
-3.251546 62.785667 39.454231
-0.01707 47.741539 45.446941
6.761874 44.509434 42.714851
7.116526 47.248554 41.067535
8.363266 44.504532 41.498569
12.887854 41.260262 38.961357
11.678641 43.82394 38.848984
16.465105 33.072056 38.75161
17.973392 32.961952 36.775166
18.593918 37.665192 33.163345
-2.771922 54.036572 44.049236
-4.09962 56.99638 43.343479
-2.22358 56.749752 42.273209
-1.826321 59.516697 40.461002
-1.349187 62.263542 38.491196
9.620565 41.62191 41.893131
12.559792 38.753567 40.570126
14.151381 38.459232 38.991692
20.824059 32.345364 32.670307
14.5213 30.627312 42.011719
-4.995103 50.846535 47.028606
-3.289096 50.944664 45.905888
-1.401097 50.728672 44.858109
0.378345 50.818493 43.741356
2.277631 50.476902 42.741653
4.059948 50.45644 41.592628
3.619395 47.627762 43.309082
10.037165 44.112137 40.273758
14.92924 33.312458 40.488174
15.475688 35.763268 38.734589
15.724091 38.184692 37.181252
18.385803 35.337345 34.903198
17.228119 37.864231 35.227669
15.969618 40.533665 35.502396
2.973073 54.598641 40.068531
2.251083 56.147169 39.684719
2.050935 54.843824 40.558708
3.696715 53.1506 40.379831
2.973073 54.598641 40.068531
-5.319192 55.541742 44.896457
-5.52292 53.992538 45.832325
-3.753777 65.659035 37.95639
-3.980892 64.375404 38.931402
-3.024431 64.069298 38.479219
-3.43615 66.963363 36.840168
-4.392611 67.26947 37.29235
-3.753777 65.659035 37.95639
-2.497405 66.663101 36.396137
-3.43615 66.963363 36.840168
8.18819 43.140257 42.298864
7.56257 44.506983 42.10671
7.387493 43.142708 42.907005
13.92724 42.181579 37.2304
13.080839 42.38438 38.11486
13.734255 41.057461 38.076897
14.671959 42.108217 36.324734
13.92724 42.181579 37.2304
18.510125 31.77824 36.579943
17.757579 31.775802 37.617136
-0.891215 59.448057 39.878735
-1.094712 57.936301 40.880252
-0.159606 57.86766 40.297985
-0.652648 60.821479 38.893832
-1.587754 60.890119 39.476099
-0.891215 59.448057 39.878735
-0.382494 62.109628 37.917536
-0.652648 60.821479 38.893832
13.20115 37.317339 40.568329
12.384166 37.436304 41.341841
13.025524 36.000076 41.340044
21.419683 31.180493 32.367746
20.683931 31.310513 33.479197
-4.557402 59.926771 42.021179
-4.784275 58.456964 42.985596
-3.872747 58.466187 42.379063
-5.237621 49.348261 47.88533
-5.860801 50.812161 47.608679
-2.801907 47.702213 47.134216
-2.139876 46.218863 47.397568
-2.60662 49.355023 46.237345
-3.484382 49.291855 46.802759
-2.801907 47.702213 47.134216
5.573338 48.709319 41.438225
4.924844 50.204363 41.114055
4.708442 48.961396 41.916798
8.227502 48.44035 39.515165
7.335571 48.535967 40.195791
8.008458 47.152937 40.38691
9.10322 48.303539 38.814177
8.227502 48.44035 39.515165
11.104286 45.205923 38.649996
11.864232 45.0721 37.928088
15.506571 31.965678 40.375301
14.72527 31.969885 41.249947
15.302601 30.623105 41.137073
19.0703 35.147527 33.896937
18.876806 34.081282 34.834904
19.561303 33.891464 33.828642
17.312758 39.03649 34.369852
17.911018 37.764711 34.195507
17.995657 38.93697 33.33769
16.683507 40.371206 34.507216
16.598869 39.198948 35.365032
17.312758 39.03649 34.369852
16.098409 41.660826 34.589903
16.683507 40.371206 34.507216
0.686418 57.885885 39.735681
-0.159606 57.86766 40.297985
0.482921 56.374128 40.7372
1.571884 57.721224 39.225189
0.686418 57.885885 39.735681
1.571884 57.721224 39.225189
2.251083 56.147169 39.684719
13.590246 34.616171 41.367994
13.025524 36.000076 41.340044
-4.102087 62.854352 39.98275
-4.299251 61.429516 40.962958
-3.44871 61.36083 40.434438
-4.831433 64.44409 39.459921
-4.102087 62.854352 39.98275
-3.980892 64.375404 38.931402
-1.26712 46.282001 46.852642
-2.139876 46.218863 47.397568
-0.313583 46.270081 46.291712
-0.970607 47.75346 46.007872
-1.26712 46.282001 46.852642
0.634007 46.360129 45.700905
-0.313583 46.270081 46.291712
1.5208 46.365393 45.173599
0.869724 47.746803 44.919635
0.634007 46.360129 45.700905
2.474104 46.295547 44.643535
1.5208 46.365393 45.173599
12.476233 43.666219 38.058674
12.283248 42.542101 38.90517
13.080839 42.38438 38.11486
11.864232 45.0721 37.928088
12.476233 43.666219 38.058674
17.003436 31.830855 38.605358
16.274504 31.845477 39.507019
17.219248 33.017004 37.763388
17.003436 31.830855 38.605358
17.757579 31.775802 37.617136
19.259385 37.404545 32.158079
19.174357 36.311451 33.02701
19.839824 36.050804 32.021744
18.728223 38.674653 32.244996
19.259385 37.404545 32.158079
17.995657 38.93697 33.33769
18.728223 38.674653 32.244996
-1.083147 63.553291 37.477625
-1.807212 65.097984 36.984131
-2.073252 63.808235 37.997702
-1.083147 63.553291 37.477625
-0.382494 62.109628 37.917536
9.414547 40.267286 42.687971
8.816839 41.698946 42.496145
10.249367 40.238548 42.003702
9.414547 40.267286 42.687971
11.08374 40.093822 41.330621
10.454937 41.477184 41.22005
10.249367 40.238548 42.003702
11.718981 38.804377 41.342199
12.384166 37.436304 41.341841
11.924551 40.043013 40.558548
11.08374 40.093822 41.330621
11.718981 38.804377 41.342199
20.095934 32.585291 33.718458
20.683931 31.310513 33.479197
20.289428 33.651537 32.780491
19.561303 33.891464 33.828642
20.095934 32.585291 33.718458
21.495104 32.28349 31.55215
21.419683 31.180493 32.367746
20.946438 33.489722 31.723736
21.495104 32.28349 31.55215
20.411807 34.795895 31.83392
20.289428 33.651537 32.780491
20.946438 33.489722 31.723736
19.839824 36.050804 32.021744
20.411807 34.795895 31.83392
-5.072026 57.046311 43.953873
-5.319192 55.541742 44.896457
-4.346787 55.491812 44.286064
-5.072026 57.046311 43.953873
-4.784275 58.456964 42.985596
-5.210778 61.420293 41.569491
-4.557402 59.926771 42.021179
-4.299251 61.429516 40.962958
-2.497405 66.663101 36.396137
-1.807212 65.097984 36.984131
14.185192 29.44576 42.77524
13.698688 30.828876 42.763594
15.078625 29.423614 41.842574
14.185192 29.44576 42.77524
15.302601 30.623105 41.137073
15.078625 29.423614 41.842574
-5.723496 52.422184 46.732304
-5.860801 50.812161 47.608679
-4.794528 52.416889 46.128628
-5.52292 53.992538 45.832325
-5.723496 52.422184 46.732304
-4.337386 49.24279 47.364119
-5.237621 49.348261 47.88533
-4.1421 50.8956 46.467247
-4.337386 49.24279 47.364119
-3.484382 49.291855 46.802759
3.405543 46.233395 44.101911
2.687956 47.689915 43.850706
2.474104 46.295547 44.643535
4.295504 46.146292 43.587091
3.405543 46.233395 44.101911
5.164274 46.065587 43.053034
4.488165 47.547056 42.775025
4.295504 46.146292 43.587091
5.866744 44.587128 43.289976
6.059404 45.987893 42.477909
5.164274 46.065587 43.053034
6.490735 43.168349 43.535608
5.866744 44.587128 43.289976
7.387493 43.142708 42.907005
6.490735 43.168349 43.535608
4.340227 51.731172 40.704885
3.696715 53.1506 40.379831
3.416437 51.875868 41.267574
4.340227 51.731172 40.704885
4.924844 50.204363 41.114055
6.453133 48.60042 40.851509
5.573338 48.709319 41.438225
6.236731 47.357453 41.654251
6.453133 48.60042 40.851509
7.335571 48.535967 40.195791
8.991915 43.063221 41.69585
8.18819 43.140257 42.298864
8.816839 41.698946 42.496145
10.283548 45.350021 39.362383
10.857903 43.968038 39.561371
11.104286 45.205923 38.649996
9.71516 46.822613 39.078646
9.468777 45.584728 39.990021
10.283548 45.350021 39.362383
9.10322 48.303539 38.814177
9.71516 46.822613 39.078646
13.929642 31.989272 42.090587
13.698688 30.828876 42.763594
14.133612 33.331845 41.328815
13.929642 31.989272 42.090587
14.72527 31.969885 41.249947
14.385874 34.596784 40.527353
13.590246 34.616171 41.367994
14.133612 33.331845 41.328815
15.697173 33.192257 39.619892
15.506571 31.965678 40.375301
16.274504 31.845477 39.507019
18.6706 32.893585 35.770888
18.510125 31.77824 36.579943
18.179597 34.149648 35.839182
18.6706 32.893585 35.770888
18.876806 34.081282 34.834904
15.36644 41.947719 35.479714
14.671959 42.108217 36.324734
15.275137 40.694163 36.347416
15.36644 41.947719 35.479714
16.098409 41.660826 34.589903
3 0 16 14
3 0 51 53
3 53 52 16
3 51 52 53
3 0 54 55
3 1 56 57
3 2 58 60
3 60 59 17
3 58 59 60
3 2 61 63
3 61 62 63
3 2 64 65
3 66 21 67
3 68 67 19
3 66 67 68
3 3 69 71
3 71 70 22
3 69 70 71
3 3 72 73
3 74 25 75
3 4 29 27
3 76 30 77
3 78 77 15
3 76 77 78
3 79 31 80
3 81 80 30
3 79 80 81
3 83 82 31
3 7 84 86
3 84 33 85
3 84 85 86
3 7 34 33
3 87 35 88
3 5 89 91
3 91 90 28
3 89 90 91
3 92 37 93
3 9 94 95
3 9 96 98
3 96 38 97
3 96 97 98
3 9 39 38
3 10 40 18
3 10 41 40
3 10 43 41
3 11 99 101
3 101 100 42
3 99 100 101
3 12 102 104
3 104 103 20
3 102 103 104
3 12 105 106
3 6 44 32
3 108 107 23
3 109 45 110
3 111 110 36
3 109 110 111
3 13 46 24
3 13 47 46
3 8 112 114
3 112 48 113
3 112 113 114
3 115 49 116
3 117 116 26
3 115 116 117
3 118 50 119
3 120 119 49
3 118 119 120
3 122 121 50
3 14 15 4
3 16 15 14
3 16 123 125
3 125 124 15
3 123 124 125
3 16 126 127
3 129 128 16
3 130 7 131
3 17 132 134
3 134 133 5
3 132 133 134
3 137 136 17
3 135 136 137
3 138 9 139
3 140 18 141
3 142 141 9
3 140 141 142
3 143 18 144
3 145 10 146
3 147 146 18
3 145 146 147
3 149 148 10
3 19 20 11
3 21 20 19
3 21 12 20
3 22 23 6
3 150 23 151
3 152 151 22
3 150 151 152
3 154 153 23
3 155 24 156
3 25 157 159
3 157 24 158
3 157 158 159
3 25 13 24
3 160 26 161
3 162 161 8
3 160 161 162
3 163 26 164
3 166 165 26
3 27 28 1
3 29 28 27
3 29 5 28
3 15 29 4
3 30 29 15
3 30 5 29
3 30 17 5
3 31 17 30
3 31 2 17
3 31 167 169
3 169 168 2
3 167 168 169
3 171 170 31
3 172 32 173
3 174 32 175
3 176 6 177
3 178 177 32
3 176 177 178
3 33 179 180
3 33 181 183
3 181 6 182
3 181 182 183
3 33 22 6
3 34 22 33
3 34 3 22
3 35 184 185
3 35 186 188
3 186 8 187
3 186 187 188
3 189 35 190
3 191 35 192
3 193 8 194
3 195 194 35
3 193 194 195
3 197 196 8
3 28 198 200
3 200 199 1
3 198 199 200
3 202 201 28
3 205 204 5
3 203 204 205
3 207 206 2
3 208 36 209
3 210 36 211
3 213 212 36
3 37 214 215
3 37 216 218
3 216 1 217
3 216 217 218
3 219 37 220
3 38 221 223
3 221 37 222
3 221 222 223
3 38 1 37
3 38 27 1
3 39 27 38
3 39 4 27
3 18 39 9
3 40 39 18
3 40 4 39
3 40 14 4
3 41 14 40
3 41 0 14
3 41 42 0
3 43 42 41
3 43 11 42
3 224 43 225
3 226 225 10
3 224 225 226
3 227 43 228
3 229 11 230
3 231 230 43
3 229 230 231
3 232 19 233
3 234 233 11
3 232 233 234
3 235 19 236
3 238 237 19
3 42 239 241
3 241 240 0
3 239 240 241
3 243 242 42
3 20 244 246
3 246 245 11
3 244 245 246
3 248 247 20
3 32 249 251
3 249 21 250
3 249 250 251
3 44 21 32
3 44 12 21
3 23 44 6
3 252 44 253
3 254 253 23
3 252 253 254
3 255 12 256
3 257 256 44
3 255 256 257
3 259 258 12
3 36 260 261
3 45 262 264
3 264 263 36
3 262 263 264
3 45 265 267
3 265 7 266
3 265 266 267
3 24 268 270
3 268 45 269
3 268 269 270
3 46 45 24
3 46 7 45
3 46 34 7
3 47 34 46
3 47 3 34
3 271 25 272
3 48 273 275
3 273 25 274
3 273 274 275
3 48 13 25
3 26 48 8
3 49 48 26
3 49 13 48
3 49 47 13
3 50 47 49
3 50 3 47
3 50 276 278
3 278 277 3
3 276 277 278
3 280 279 50
