ply
format ascii 1.0
element vertex 233
property float x
property float y
property float z
element face 221
property list uchar int vertex_index
end_header
26.031067 -67.790031 3.601604
27.412006 -70.543121 13.062035
28.313868 -59.392132 12.52454
27.342257 -57.203445 3.700397
27.743368 -71.547562 17.988255
27.16888 -75.804222 13.032483
27.183891 -76.84726 18.158243
28.166286 -66.154556 17.680223
27.134567 -63.649147 8.03295
27.859364 -58.27747 7.960356
26.828699 -69.162819 8.32395
26.108456 -72.858078 3.599308
26.808336 -74.515984 8.412116
27.72868 -64.945511 12.662663
26.354601 -81.97644 18.018692
27.785528 -71.940094 20.470724
27.493624 -74.128632 18.1068
27.446394 -74.593628 20.561893
28.053967 -69.338737 20.323252
26.546562 -65.843246 5.803885
26.747183 -63.26152 5.691831
27.141903 -69.89386 10.633625
26.762018 -71.943413 8.196752
27.071428 -72.614098 10.744187
27.051617 -78.330414 13.220621
26.993479 -77.969177 10.791114
27.807405 -68.159996 15.377547
27.989412 -65.488487 15.223612
27.575174 -67.670181 13.002362
27.272427 -67.099434 10.530944
27.590662 -57.832985 5.81152
28.344622 -55.617462 7.823912
28.218313 -54.871643 5.83185
27.98349 -54.450977 3.735199
27.634056 -70.922333 15.590124
27.299255 -73.083023 13.181357
27.424364 -73.741058 15.487224
27.239773 -76.254852 15.637203
26.985712 -79.02562 15.653616
27.970797 -68.749069 17.833529
27.733589 -61.51704 10.275555
28.067129 -58.981613 10.159376
27.417326 -60.98748 7.843766
27.138014 -60.459095 5.814732
26.431377 -68.591309 5.857347
26.000454 -70.374054 3.491918
26.409918 -71.060364 5.844449
26.49342 -73.750618 5.976675
26.618401 -76.43026 6.011265
27.029753 -75.278976 10.747089
26.85696 -77.203758 8.456559
28.490421 -59.934696 14.78649
28.384418 -63.342419 17.405649
28.191509 -62.738834 14.842316
27.955404 -62.248291 12.460803
27.431355 -64.311081 10.212433
26.902924 -66.564674 8.035624
27.045923 -77.154572 20.677631
26.81237 -79.472511 18.22459
28.570705 -55.992332 10.138323
27.580614 -73.55048 21.669992
27.615961 -73.266861 20.516309
27.750181 -72.223713 21.624408
27.750181 -72.223713 21.624408
27.914386 -70.95483 21.601136
25.809146 -68.75188 2.483745
25.812918 -67.414257 2.4839
26.088862 -66.430984 3.555637
26.346609 -65.457592 4.656778
26.288815 -66.816638 4.702744
25.812918 -67.414257 2.4839
26.088862 -66.430984 3.555637
26.988883 -79.449883 12.067712
26.953071 -79.716183 13.19627
28.522115 -57.969097 12.496308
28.574787 -58.329617 13.646086
27.200606 -56.872915 2.577228
27.521222 -55.496681 2.594629
27.662873 -55.827211 3.717798
26.781962 -61.479723 4.720185
26.942598 -61.860307 5.753281
26.586546 -62.880935 4.658734
26.981009 -60.175087 4.750609
26.781962 -61.479723 4.720185
26.87773 -78.585041 8.446046
26.92522 -77.586467 9.623836
26.945989 -78.96775 9.613323
26.807257 -78.16391 7.224839
26.87773 -78.585041 8.446046
28.572895 -60.182612 16.008306
28.727984 -58.791802 15.980159
28.810458 -59.039717 17.201975
28.275352 -64.748487 17.542936
28.454147 -63.570782 18.622459
28.345081 -64.97685 18.759746
25.903739 -72.541413 2.485273
25.849738 -71.2994 2.431579
26.054455 -71.616066 3.545613
26.915105 -77.35569 21.807445
27.181006 -76.041985 21.848038
26.583486 -80.724475 18.121641
26.691615 -79.542652 19.424819
26.46273 -80.794616 19.32187
26.50496 -81.812859 16.829701
26.733845 -80.560894 16.93265
26.583486 -80.724475 18.121641
28.745654 -54.369867 9.017798
28.689993 -54.119433 7.946294
28.048605 -69.654151 21.5274
28.189058 -68.332511 21.393464
27.919747 -70.639415 20.396988
28.048605 -69.654151 21.5274
27.914386 -70.95483 21.601136
26.446919 -64.166729 4.600751
26.646873 -64.552383 5.747858
26.346609 -65.457592 4.656778
26.586546 -62.880935 4.658734
26.446919 -64.166729 4.600751
26.959814 -79.269264 10.852958
27.022548 -78.149796 12.005868
26.988883 -79.449883 12.067712
26.945989 -78.96775 9.613323
26.959814 -79.269264 10.852958
26.015197 -73.797364 2.551527
26.209874 -74.216206 3.680072
26.155538 -82.031025 19.191888
26.46273 -80.794616 19.32187
28.626838 -53.746523 6.950263
28.689993 -54.119433 7.946294
28.281467 -55.244552 6.827881
28.567223 -53.444982 5.85925
28.626838 -53.746523 6.950263
28.449812 -53.23465 4.810924
28.567223 -53.444982 5.85925
28.100901 -54.66131 4.783525
28.365191 -52.998317 3.757976
28.449812 -53.23465 4.810924
27.859984 -54.184602 2.643821
28.365191 -52.998317 3.757976
27.859984 -54.184602 2.643821
27.521222 -55.496681 2.594629
26.920119 -80.063786 14.412768
26.953071 -79.716183 13.19627
27.018664 -78.678017 14.437119
28.235739 -66.342151 18.938767
28.345081 -64.97685 18.759746
28.179579 -67.934242 20.260281
28.189058 -68.332511 21.393464
28.137994 -67.639408 19.01542
28.179579 -67.934242 20.260281
28.012382 -69.043903 19.07839
28.068542 -67.451813 17.756876
28.235739 -66.342151 18.938767
28.137994 -67.639408 19.01542
27.207332 -58.862032 4.749003
27.364338 -59.14604 5.813126
26.981009 -60.175087 4.750609
27.08313 -58.547262 3.693442
27.466459 -57.518215 4.755959
27.207332 -58.862032 4.749003
26.919167 -58.206951 2.594632
27.08313 -58.547262 3.693442
26.402355 -74.662475 4.868755
26.209874 -74.216206 3.680072
26.300938 -73.304348 4.787992
26.464846 -76.002296 4.88605
26.402355 -74.662475 4.868755
26.55591 -75.090439 5.99397
26.57007 -77.373112 4.836621
26.464846 -76.002296 4.88605
26.687978 -77.777161 6.002192
26.73768 -76.817009 7.233912
26.807257 -78.16391 7.224839
26.57007 -77.373112 4.836621
26.687978 -77.777161 6.002192
28.663064 -58.600898 14.777061
28.727984 -58.791802 15.980159
28.402144 -59.663414 13.655515
28.574787 -58.329617 13.646086
28.663064 -58.600898 14.777061
28.583497 -62.112957 18.556739
28.454147 -63.570782 18.622459
28.519894 -61.886473 17.317886
28.583497 -62.112957 18.556739
28.423439 -61.58468 16.036219
28.519894 -61.886473 17.317886
28.287964 -63.040627 16.123983
28.340965 -61.336765 14.814403
28.572895 -60.182612 16.008306
28.423439 -61.58468 16.036219
25.79384 -70.043892 2.428902
25.809146 -68.75188 2.483745
26.01576 -69.082043 3.546761
25.79384 -70.043892 2.428902
25.849738 -71.2994 2.431579
25.903739 -72.541413 2.485273
26.015197 -73.797364 2.551527
27.381242 -74.761513 21.790169
27.580614 -73.55048 21.669992
27.246158 -75.8741 20.619762
27.381242 -74.761513 21.790169
27.181006 -76.041985 21.848038
26.808391 -78.383682 20.651339
26.915105 -77.35569 21.807445
26.929147 -78.313541 19.45111
26.808391 -78.383682 20.651339
26.691615 -79.542652 19.424819
26.820515 -80.337448 15.647163
26.899041 -79.249066 16.939103
26.733845 -80.560894 16.93265
26.920119 -80.063786 14.412768
26.820515 -80.337448 15.647163
26.064532 -83.136714 17.86263
26.155538 -82.031025 19.191888
26.291965 -83.05566 16.661588
26.064532 -83.136714 17.86263
26.50496 -81.812859 16.829701
26.291965 -83.05566 16.661588
28.398746 -57.763838 11.313726
28.522115 -57.969097 12.496308
28.190499 -59.186872 11.341958
28.650534 -56.269197 11.303199
28.398746 -57.763838 11.313726
28.318917 -57.486973 10.14885
28.904325 -54.828508 11.329546
28.650534 -56.269197 11.303199
28.858695 -54.557302 10.175003
28.457664 -55.804897 8.981117
28.745654 -54.369867 9.017798
28.904325 -54.828508 11.329546
28.858695 -54.557302 10.175003
27.200606 -56.872915 2.577228
26.919167 -58.206951 2.594632
3 60 17 61
3 62 61 15
3 60 61 62
3 63 15 64
3 0 65 66
3 0 67 69
3 69 68 19
3 67 68 69
3 0 70 71
3 1 23 21
3 73 72 24
3 1 28 26
3 1 21 28
3 2 74 75
3 3 32 30
3 3 33 32
3 3 76 78
3 78 77 33
3 76 77 78
3 4 36 34
3 6 37 16
3 6 38 37
3 4 39 18
3 4 34 39
3 8 42 40
3 79 43 80
3 81 80 20
3 79 80 81
3 83 82 43
3 10 46 44
3 12 47 22
3 12 48 47
3 5 49 35
3 84 50 85
3 86 85 25
3 84 85 86
3 88 87 50
3 89 51 90
3 89 90 91
3 7 92 94
3 92 52 93
3 92 93 94
3 13 53 27
3 13 54 53
3 13 55 54
3 10 56 29
3 10 44 56
3 11 95 97
3 97 96 45
3 95 96 97
3 98 57 99
3 14 100 102
3 100 58 101
3 100 101 102
3 14 103 105
3 105 104 58
3 103 104 105
3 9 59 41
3 107 106 31
3 15 16 4
3 17 16 15
3 17 6 16
3 108 18 109
3 15 110 112
3 110 18 111
3 110 111 112
3 15 4 18
3 19 20 8
3 113 20 114
3 115 114 19
3 113 114 115
3 117 116 20
3 21 22 10
3 23 22 21
3 23 12 22
3 24 25 5
3 118 25 119
3 120 119 24
3 118 119 120
3 122 121 25
3 26 27 7
3 28 27 26
3 28 13 27
3 28 29 13
3 21 29 28
3 21 10 29
3 124 123 11
3 125 14 126
3 30 31 9
3 32 31 30
3 32 127 129
3 129 128 31
3 127 128 129
3 32 130 131
3 33 132 134
3 134 133 32
3 132 133 134
3 33 135 136
3 33 137 138
3 140 139 33
3 34 35 1
3 36 35 34
3 36 5 35
3 16 36 4
3 37 36 16
3 37 5 36
3 37 24 5
3 38 24 37
3 38 141 143
3 143 142 24
3 141 142 143
3 144 7 145
3 18 146 147
3 39 148 150
3 150 149 18
3 148 149 150
3 39 151 153
3 151 7 152
3 151 152 153
3 39 26 7
3 34 26 39
3 34 1 26
3 40 41 2
3 42 41 40
3 42 9 41
3 20 42 8
3 43 42 20
3 43 9 42
3 43 30 9
3 154 30 155
3 156 155 43
3 154 155 156
3 157 3 158
3 159 158 30
3 157 158 159
3 161 160 3
3 44 45 0
3 46 45 44
3 46 11 45
3 22 46 10
3 47 46 22
3 47 11 46
3 47 162 164
3 164 163 11
3 162 163 164
3 48 165 167
3 167 166 47
3 165 166 167
3 48 168 169
3 35 23 1
3 49 23 35
3 49 12 23
3 25 49 5
3 50 49 25
3 50 12 49
3 50 48 12
3 170 48 171
3 172 171 50
3 170 171 172
3 174 173 48
3 51 175 176
3 51 177 179
3 177 2 178
3 177 178 179
3 52 180 181
3 52 182 183
3 27 52 7
3 53 52 27
3 53 184 186
3 186 185 52
3 184 185 186
3 53 187 189
3 187 51 188
3 187 188 189
3 54 51 53
3 54 2 51
3 54 40 2
3 55 40 54
3 55 8 40
3 29 55 13
3 56 55 29
3 56 8 55
3 56 19 8
3 44 19 56
3 44 0 19
3 45 190 192
3 192 191 0
3 190 191 192
3 194 193 45
3 196 195 11
3 197 17 198
3 57 199 201
3 199 17 200
3 199 200 201
3 57 6 17
3 202 57 203
3 58 204 206
3 204 57 205
3 204 205 206
3 58 6 57
3 58 38 6
3 207 38 208
3 209 208 58
3 207 208 209
3 211 210 38
3 212 14 213
3 214 14 215
3 217 216 14
3 41 218 220
3 220 219 2
3 218 219 220
3 59 221 223
3 223 222 41
3 221 222 223
3 59 224 225
3 31 59 9
3 226 59 227
3 228 227 31
3 226 227 228
3 230 229 59
3 232 231 3
