ply
format ascii 1.0
element vertex 190
property float x
property float y
property float z
element face 180
property list uchar int vertex_index
end_header
-0.860119 -88.189552 11.685755
-5.231377 -92.470871 2.063604
-2.512331 -83.379791 16.673834
-4.713886 -86.16597 12.079474
-2.975256 -90.765991 6.865397
-6.977102 -88.232773 7.362405
-11.503941 -89.4888 -2.310582
-10.72578 -85.30603 7.878253
0.869652 -84.819092 16.625425
1.037653 -92.742287 6.815278
-0.877334 -95.174011 1.728468
-9.366228 -89.221115 2.598867
-7.495318 -93.331299 -2.881298
-5.46796 -83.770775 14.733373
-6.579157 -85.109772 12.291476
-5.810007 -87.393089 9.641006
-7.784057 -86.066032 9.971106
-1.769449 -85.707054 14.268
-0.821582 -84.061943 16.670765
-0.006705 -86.547577 14.150608
1.869632 -87.352249 14.181757
0.935863 -88.965958 11.70663
1.971608 -91.258972 9.385991
0.058957 -90.535652 9.194467
-4.177681 -91.708298 4.430247
-2.111796 -92.980072 4.203487
-3.034714 -93.994408 1.721347
-2.002091 -96.095352 -0.957714
-4.229148 -94.595551 -0.676305
-10.113287 -87.196007 5.338229
-11.094454 -87.535011 2.99401
-9.537365 -91.54068 -2.727271
-8.407208 -93.600471 -5.313007
-3.629466 -84.743813 14.498324
-2.751555 -87.216164 11.864134
-1.918549 -89.532265 9.317228
-3.944591 -88.329216 9.645768
-4.951408 -89.536736 7.150014
-6.127394 -90.357445 4.744124
-9.60905 -84.732674 10.231458
-0.97543 -91.817787 6.775949
0.134193 -93.974648 4.415334
-8.916321 -86.812859 7.618987
-8.268197 -88.781715 5.003623
-7.294092 -90.936905 2.330425
-10.340299 -89.623627 -0.00715
-8.426311 -91.33004 -0.159474
-6.306195 -93.081047 -0.462017
-7.546412 -84.491337 12.42486
-6.969322 -83.937241 13.595841
-8.148862 -84.969467 11.264675
-7.181607 -85.587902 11.131291
-7.546412 -84.491337 12.42486
-11.953937 -86.620422 3.148853
-11.513963 -86.465053 4.374645
-9.028821 -93.451874 -6.41107
-9.497903 -92.51152 -5.096991
-10.119515 -92.362922 -6.195054
-8.543861 -94.360275 -7.700783
-7.922249 -94.508872 -6.60272
-9.028821 -93.451874 -6.41107
-2.036466 -82.535839 17.851868
-2.897293 -82.149036 17.913359
0.49602 -83.575279 17.857078
-0.349597 -83.196705 17.879748
0.024035 -84.440517 16.648095
1.343278 -83.979526 17.833267
0.49602 -83.575279 17.857078
1.793006 -85.199489 16.679349
2.266633 -84.359924 17.887191
1.343278 -83.979526 17.833267
2.794297 -87.690185 14.297024
2.355986 -88.549492 12.997006
2.132053 -93.146431 6.950864
2.599031 -92.404774 8.236221
1.50463 -92.00063 8.100634
1.667235 -93.823864 5.685794
2.761635 -94.228008 5.821381
2.132053 -93.146431 6.950864
0.198418 -95.651367 1.83516
0.704181 -95.051685 3.178593
-0.37157 -94.57433 3.071901
-0.249909 -96.216011 0.506072
0.198418 -95.651367 1.83516
-1.361888 -97.087231 -2.161614
-2.550149 -96.367169 -2.132491
-10.92212 -89.556213 -1.158866
-11.238962 -88.642418 0.241032
-11.820783 -88.575005 -0.910685
-6.450826 -94.172505 -3.006537
-5.856264 -94.047379 -1.796896
-6.900756 -93.206173 -1.671658
-6.413723 -83.267742 14.81679
-5.851925 -82.565544 16.014184
-6.023559 -84.440274 13.512424
-6.413723 -83.267742 14.81679
-6.969322 -83.937241 13.595841
1.889101 -89.356347 11.759442
2.355986 -88.549492 12.997006
1.402748 -88.159104 12.944194
1.453736 -90.112465 10.546311
2.406973 -90.502854 10.599123
1.889101 -89.356347 11.759442
-3.663678 -95.617268 -1.991787
-2.550149 -96.367169 -2.132491
-3.11562 -95.345451 -0.817009
-11.023379 -86.295551 5.546755
-10.419534 -86.251019 6.608241
-11.329626 -85.350563 6.816766
-10.60387 -87.365509 4.166119
-11.023379 -86.295551 5.546755
-11.513963 -86.465053 4.374645
-10.062981 -91.481624 -3.804123
-10.520653 -90.51474 -2.518927
-11.046269 -90.455684 -3.595779
-8.972286 -92.570575 -4.020139
-10.062981 -91.481624 -3.804123
-9.497903 -92.51152 -5.096991
-7.370166 -94.503487 -5.449175
-6.914222 -94.3689 -4.23332
-7.951263 -93.465885 -4.097152
-7.370166 -94.503487 -5.449175
-7.922249 -94.508872 -6.60272
-3.443214 -82.89479 16.8111
-2.897293 -82.149036 17.913359
-4.921029 -83.090283 15.84087
-5.851925 -82.565544 16.014184
-4.001781 -83.576802 15.723345
-4.921029 -83.090283 15.84087
-4.548713 -84.257294 14.615849
-3.070899 -84.061802 15.586079
-3.443214 -82.89479 16.8111
-4.001781 -83.576802 15.723345
-12.3796 -88.445591 -2.066866
-11.820783 -88.575005 -0.910685
-12.029187 -89.360637 -3.421653
-12.3796 -88.445591 -2.066866
-11.046269 -90.455684 -3.595779
-12.029187 -89.360637 -3.421653
-9.936418 -83.624234 11.586531
-9.061359 -84.302788 11.394851
-10.501454 -83.948677 10.431137
-9.936418 -83.624234 11.586531
-11.059819 -84.235355 9.254535
-10.167415 -85.019352 9.054856
-10.501454 -83.948677 10.431137
-11.581443 -84.396759 8.187342
-11.059819 -84.235355 9.254535
-11.915482 -83.326084 9.563623
-11.329626 -85.350563 6.816766
-11.581443 -84.396759 8.187342
-1.191091 -82.876915 17.850333
-2.036466 -82.535839 17.851868
-1.666956 -83.720867 16.6723
-1.191091 -82.876915 17.850333
-0.349597 -83.196705 17.879748
2.292997 -86.466068 15.457515
1.793006 -85.199489 16.679349
1.369642 -86.08567 15.403591
2.292997 -86.466068 15.457515
2.794297 -87.690185 14.297024
3.035262 -91.639423 9.525436
2.406973 -90.502854 10.599123
3.035262 -91.639423 9.525436
2.599031 -92.404774 8.236221
1.215505 -94.440044 4.485822
1.667235 -93.823864 5.685794
0.585923 -93.358468 5.615306
1.215505 -94.440044 4.485822
0.704181 -95.051685 3.178593
-0.812288 -96.676682 -0.837018
-0.249909 -96.216011 0.506072
-1.439712 -95.634681 0.385377
-0.812288 -96.676682 -0.837018
-1.361888 -97.087231 -2.161614
-8.696554 -85.399353 10.101282
-8.148862 -84.969467 11.264675
-9.061359 -84.302788 11.394851
-11.61604 -87.59811 1.741611
-11.953937 -86.620422 3.148853
-10.717377 -88.579319 1.49343
-11.61604 -87.59811 1.741611
-11.238962 -88.642418 0.241032
-4.817741 -94.804631 -1.90404
-5.267672 -93.838299 -0.569161
-5.856264 -94.047379 -1.796896
-3.663678 -95.617268 -1.991787
-4.817741 -94.804631 -1.90404
-6.450826 -94.172505 -3.006537
-6.914222 -94.3689 -4.23332
3 48 14 49
3 50 16 51
3 52 51 14
3 50 51 52
3 0 19 17
3 0 21 19
3 0 23 21
3 1 26 24
3 1 28 26
3 53 30 54
3 55 32 56
3 55 56 57
3 60 59 32
3 58 59 60
3 3 33 13
3 3 34 33
3 3 36 34
3 5 37 15
3 5 38 37
3 2 61 62
3 8 63 65
3 65 64 18
3 63 64 65
3 8 66 67
3 8 68 70
3 68 69 70
3 72 71 20
3 9 73 75
3 75 74 22
3 73 74 75
3 9 76 78
3 76 77 78
3 4 40 35
3 10 41 25
3 10 79 81
3 81 80 41
3 79 80 81
3 10 82 83
3 85 84 27
3 7 42 39
3 11 43 29
3 11 44 43
3 6 86 88
3 86 45 87
3 86 87 88
3 12 46 31
3 12 47 46
3 12 89 91
3 91 90 47
3 89 90 91
3 92 13 93
3 14 94 96
3 94 13 95
3 94 95 96
3 14 3 13
3 14 15 3
3 16 15 14
3 16 5 15
3 17 18 2
3 19 18 17
3 19 8 18
3 19 20 8
3 21 20 19
3 21 97 99
3 99 98 20
3 97 98 99
3 21 100 102
3 100 22 101
3 100 101 102
3 23 22 21
3 23 9 22
3 24 25 4
3 26 25 24
3 26 10 25
3 26 27 10
3 28 27 26
3 28 103 105
3 105 104 27
3 103 104 105
3 106 29 107
3 108 107 7
3 106 107 108
3 30 109 111
3 109 29 110
3 109 110 111
3 30 11 29
3 112 31 113
3 114 113 6
3 112 113 114
3 32 115 117
3 115 31 116
3 115 116 117
3 32 12 31
3 32 118 120
3 120 119 12
3 118 119 120
3 122 121 32
3 123 2 124
3 13 125 126
3 33 127 129
3 129 128 13
3 127 128 129
3 33 130 132
3 130 2 131
3 130 131 132
3 33 17 2
3 34 17 33
3 34 0 17
3 34 35 0
3 36 35 34
3 36 4 35
3 15 36 3
3 37 36 15
3 37 4 36
3 37 24 4
3 38 24 37
3 38 1 24
3 133 6 134
3 135 6 136
3 138 137 6
3 139 39 140
3 141 39 142
3 143 7 144
3 145 144 39
3 143 144 145
3 146 7 147
3 146 147 148
3 150 149 7
3 18 151 153
3 153 152 2
3 151 152 153
3 155 154 18
3 20 156 158
3 158 157 8
3 156 157 158
3 160 159 20
3 22 161 162
3 164 163 22
3 35 23 0
3 40 23 35
3 40 9 23
3 25 40 4
3 41 40 25
3 41 9 40
3 41 165 167
3 167 166 9
3 165 166 167
3 169 168 41
3 27 170 172
3 172 171 10
3 170 171 172
3 174 173 27
3 39 175 177
3 175 16 176
3 175 176 177
3 42 16 39
3 42 5 16
3 29 42 7
3 43 42 29
3 43 5 42
3 43 38 5
3 44 38 43
3 44 1 38
3 178 30 179
3 45 180 182
3 180 30 181
3 180 181 182
3 45 11 30
3 31 45 6
3 46 45 31
3 46 11 45
3 46 44 11
3 47 44 46
3 47 1 44
3 47 28 1
3 183 28 184
3 185 184 47
3 183 184 185
3 187 186 28
3 189 188 12
