ply
format ascii 1.0
element vertex 225
property float x
property float y
property float z
element face 199
property list uchar int vertex_index
end_header
0.692506 6.22479 -60.777744
4.192447 1.464197 -64.315552
4.485586 14.074 -67.914154
5.193264 24.683403 -67.696266
2.446621 10.212641 -64.662262
2.406734 15.91398 -65.41259
6.537355 5.13424 -67.67247
2.399963 4.149558 -62.92609
4.38378 7.966296 -66.592293
6.877362 11.333016 -69.608589
2.620105 21.305305 -65.465645
4.844291 19.568981 -68.420563
1.41134 13.951179 -63.712711
1.565351 2.026477 -60.917099
1.537877 5.146084 -61.881367
3.377861 12.09609 -66.312279
3.367403 8.98342 -65.647995
4.455795 10.946624 -67.375572
5.571274 9.674022 -68.190063
5.65862 12.701612 -68.883423
5.53549 27.073992 -67.008179
4.27 27.703016 -65.368317
3.967481 25.464836 -66.051239
3.755447 23.107164 -66.562958
3.65845 20.414907 -66.953957
4.999506 22.270979 -68.183655
3.149287 -0.463107 -62.391533
0.626379 9.057108 -61.456264
1.510337 8.154598 -62.701817
1.445093 11.017087 -63.275806
2.325157 12.973505 -64.991356
3.400791 15.018707 -66.71579
6.807665 26.2131 -68.581329
6.444367 23.733667 -69.198982
5.33193 3.177706 -66.037338
5.157576 -0.082036 -64.69735
6.478463 1.576932 -66.388847
0.013434 -1.643433 -56.97023
2.356532 0.976919 -61.804794
3.266929 2.66871 -63.646534
2.386391 7.18167 -63.8139
3.356908 5.936368 -64.806267
4.261058 4.704139 -65.493065
5.339029 6.420121 -67.097672
6.678727 8.22253 -68.707405
1.801364 27.241745 -62.712559
2.459088 18.73555 -65.502724
3.510202 17.694641 -66.9524
4.708848 16.839224 -68.357475
6.274857 21.144217 -69.618706
6.06612 18.47094 -69.673103
5.887183 15.655773 -69.449387
0.34895 5.33483 -59.90354
0.289694 6.810075 -60.257562
0.739185 4.753251 -60.392351
0.34895 5.33483 -59.90354
1.115191 5.685437 -61.329555
1.161871 4.213898 -60.944162
0.739185 4.753251 -60.392351
4.12329 -0.293576 -63.590526
3.60171 -1.257228 -62.628517
3.670867 0.500545 -63.353543
0.6 10.572191 -61.749916
0.202161 9.623409 -60.876996
1.009356 11.552181 -62.659687
1.035736 10.037097 -62.366035
0.6 10.572191 -61.749916
7.655567 26.887434 -68.864128
6.961625 27.298863 -68.120636
7.433986 25.668844 -69.28075
7.655567 26.887434 -68.864128
0.392829 -0.68687 -57.967165
0.035703 -0.081791 -57.549074
0.380056 -2.211996 -57.419497
0.392829 -0.68687 -57.967165
7.533893 10.619573 -69.86227
7.434576 9.064329 -69.411678
6.778045 9.777773 -69.157997
3.662009 28.114587 -64.479109
3.55547 26.99964 -64.869648
2.321152 26.769005 -63.541769
2.427691 27.883951 -63.15123
1.724086 25.944056 -63.05093
2.321152 26.769005 -63.541769
2.058233 21.627782 -64.620672
2.632837 22.533854 -65.216919
2.030254 20.357132 -64.717848
2.058233 21.627782 -64.620672
2.539597 20.020428 -65.484184
1.949745 19.072254 -64.736388
2.030254 20.357132 -64.717848
7.040348 21.978507 -70.057148
6.359612 22.438942 -69.408844
7.125103 23.273232 -69.847286
6.690576 17.857655 -70.16647
6.817868 19.324015 -70.211182
6.601108 16.450072 -70.054611
5.976652 17.063356 -69.561245
6.690576 17.857655 -70.16647
6.518438 15.025602 -69.883362
6.601108 16.450072 -70.054611
5.085303 -1.934737 -63.921036
5.667463 -1.098232 -64.726647
0.940337 14.442645 -63.009603
0.99248 13.019227 -62.87814
1.417828 15.32815 -63.839872
0.940337 14.442645 -63.009603
1.915525 16.30955 -64.689811
1.909037 14.932579 -64.56265
1.417828 15.32815 -63.839872
7.165879 4.196015 -67.766666
7.281128 5.805098 -68.370709
1.175607 2.654095 -60.462029
1.168788 1.148084 -59.9406
1.551614 3.58628 -61.399233
1.175607 2.654095 -60.462029
1.161871 4.213898 -60.944162
4.902745 27.388504 -66.188248
5.073436 28.445639 -65.724968
5.706181 28.131127 -66.544899
3.40421 25.88055 -65.211109
3.55547 26.99964 -64.869648
4.11874 26.583926 -65.709778
3.306526 24.613619 -65.509716
3.40421 25.88055 -65.211109
3.200509 23.434784 -65.765575
3.306526 24.613619 -65.509716
3.861464 24.286 -66.307098
3.187776 22.206235 -66.014301
2.632837 22.533854 -65.216919
3.200509 23.434784 -65.765575
3.091845 -2.179495 -61.688589
2.682805 -1.379864 -61.415757
3.091845 -2.179495 -61.688589
3.60171 -1.257228 -62.628517
0.256631 8.226235 -60.596823
0.202161 9.623409 -60.876996
0.659442 7.640949 -61.117004
0.289694 6.810075 -60.257562
0.256631 8.226235 -60.596823
1.428216 12.484133 -63.494259
1.009356 11.552181 -62.659687
0.99248 13.019227 -62.87814
6.325537 27.729309 -67.334061
5.706181 28.131127 -66.544899
6.171577 26.643546 -67.794754
6.325537 27.729309 -67.334061
6.961625 27.298863 -68.120636
7.252337 24.429127 -69.589576
6.626016 24.973384 -68.890155
7.433986 25.668844 -69.28075
7.933073 23.968693 -70.237881
7.125103 23.273232 -69.847286
7.252337 24.429127 -69.589576
6.327906 -0.268748 -65.572395
5.667463 -1.098232 -64.726647
5.81802 0.747448 -65.543098
7.136433 2.417361 -67.124855
6.507909 3.355586 -67.030659
7.165879 4.196015 -67.766666
7.005235 0.575081 -66.359745
7.136433 2.417361 -67.124855
6.854678 -1.270599 -65.543293
6.327906 -0.268748 -65.572395
7.005235 0.575081 -66.359745
-0.339691 -0.987804 -56.59293
0.035703 -0.081791 -57.549074
-0.347621 -2.566319 -56.028919
-0.339691 -0.987804 -56.59293
-0.000987 -3.168988 -56.424122
-0.347621 -2.566319 -56.028919
-0.000987 -3.168988 -56.424122
0.380056 -2.211996 -57.419497
1.521256 0.497063 -60.317888
1.168788 1.148084 -59.9406
1.916847 -0.027716 -60.761736
1.521256 0.497063 -60.317888
1.960942 1.501698 -61.360946
2.286427 -0.659851 -61.122387
1.916847 -0.027716 -60.761736
2.75291 0.256906 -62.098163
2.682805 -1.379864 -61.415757
2.286427 -0.659851 -61.122387
7.351814 7.349243 -68.888176
7.281128 5.805098 -68.370709
6.608041 6.678385 -68.189937
7.351814 7.349243 -68.888176
7.434576 9.064329 -69.411678
4.455326 28.792036 -64.906341
5.073436 28.445639 -65.724968
4.455326 28.792036 -64.906341
3.662009 28.114587 -64.479109
1.930536 28.473492 -62.299871
2.427691 27.883951 -63.15123
1.296082 27.710576 -61.932308
1.930536 28.473492 -62.299871
1.197124 26.419632 -62.22665
1.296082 27.710576 -61.932308
1.197124 26.419632 -62.22665
1.724086 25.944056 -63.05093
1.941701 17.720335 -64.734879
1.949745 19.072254 -64.736388
2.432911 17.324765 -65.457657
1.915525 16.30955 -64.689811
1.941701 17.720335 -64.734879
6.922237 20.660654 -70.183983
7.040348 21.978507 -70.057148
6.170488 19.807578 -69.645905
6.922237 20.660654 -70.183983
6.817868 19.324015 -70.211182
6.404156 13.548522 -69.60038
5.772901 14.178693 -69.166405
6.518438 15.025602 -69.883362
7.013527 12.864224 -69.962963
6.267991 12.017314 -69.246006
6.404156 13.548522 -69.60038
7.665727 12.162738 -70.261917
7.013527 12.864224 -69.962963
7.533893 10.619573 -69.86227
7.665727 12.162738 -70.261917
4.605854 -1.066693 -63.781425
4.12329 -0.293576 -63.590526
4.675012 0.69108 -64.506451
4.605854 -1.066693 -63.781425
5.085303 -1.934737 -63.921036
3 0 52 53
3 0 54 55
3 0 56 58
3 56 14 57
3 56 57 58
3 2 17 15
3 2 19 17
3 3 22 20
3 3 23 22
3 3 25 23
3 1 59 61
3 61 60 26
3 59 60 61
3 62 27 63
3 64 29 65
3 66 65 27
3 64 65 66
3 5 30 12
3 5 31 30
3 67 32 68
3 70 69 32
3 6 36 34
3 71 37 72
3 74 73 37
3 7 38 13
3 7 39 38
3 4 40 28
3 8 41 16
3 8 42 41
3 8 43 42
3 9 44 18
3 9 75 77
3 77 76 44
3 75 76 77
3 79 78 21
3 80 45 81
3 83 82 45
3 10 84 85
3 10 86 87
3 10 88 90
3 88 46 89
3 88 89 90
3 11 47 24
3 11 48 47
3 91 49 92
3 93 92 33
3 91 92 93
3 94 50 95
3 96 51 97
3 98 97 50
3 96 97 98
3 100 99 51
3 102 101 35
3 103 12 104
3 105 12 106
3 107 5 108
3 109 108 12
3 107 108 109
3 111 110 6
3 112 13 113
3 14 114 116
3 114 13 115
3 114 115 116
3 14 7 13
3 15 16 4
3 17 16 15
3 17 8 16
3 17 18 8
3 19 18 17
3 19 9 18
3 20 117 119
3 117 21 118
3 117 118 119
3 22 21 20
3 22 120 122
3 122 121 21
3 120 121 122
3 22 123 124
3 23 125 127
3 127 126 22
3 125 126 127
3 23 128 130
3 128 10 129
3 128 129 130
3 23 24 10
3 25 24 23
3 25 11 24
3 26 131 132
3 134 133 26
3 27 135 136
3 27 137 139
3 137 0 138
3 137 138 139
3 27 28 0
3 29 28 27
3 29 4 28
3 12 140 142
3 140 29 141
3 140 141 142
3 30 29 12
3 30 4 29
3 30 15 4
3 31 15 30
3 31 2 15
3 143 20 144
3 32 145 147
3 145 20 146
3 145 146 147
3 32 3 20
3 32 33 3
3 148 33 149
3 150 149 32
3 148 149 150
3 153 152 33
3 151 152 153
3 34 35 1
3 36 35 34
3 36 154 156
3 156 155 35
3 154 155 156
3 157 36 158
3 159 158 6
3 157 158 159
3 160 36 161
3 164 163 36
3 162 163 164
3 37 165 166
3 37 167 168
3 37 169 170
3 172 171 37
3 13 173 174
3 38 175 177
3 177 176 13
3 175 176 177
3 38 178 179
3 38 180 182
3 180 26 181
3 180 181 182
3 39 26 38
3 39 1 26
3 28 14 0
3 40 14 28
3 40 7 14
3 16 40 4
3 41 40 16
3 41 7 40
3 41 39 7
3 42 39 41
3 42 1 39
3 42 34 1
3 43 34 42
3 43 6 34
3 18 43 8
3 44 43 18
3 44 6 43
3 44 183 185
3 185 184 6
3 183 184 185
3 187 186 44
3 21 188 189
3 191 190 21
3 45 192 193
3 45 194 195
3 45 196 197
3 199 198 45
3 46 200 201
3 46 202 204
3 202 5 203
3 202 203 204
3 24 46 10
3 47 46 24
3 47 5 46
3 47 31 5
3 48 31 47
3 48 2 31
3 33 25 3
3 49 25 33
3 49 11 25
3 205 49 206
3 50 207 209
3 207 49 208
3 207 208 209
3 50 11 49
3 50 48 11
3 51 48 50
3 51 2 48
3 51 19 2
3 210 19 211
3 212 211 51
3 210 211 212
3 213 9 214
3 215 214 19
3 213 214 215
3 216 9 217
3 219 218 9
3 35 220 222
3 222 221 1
3 220 221 222
3 224 223 35
