ply
format ascii 1.0
element vertex 257
property float x
property float y
property float z
element face 235
property list uchar int vertex_index
end_header
-34.18716 77.499817 -25.796505
-33.291344 73.481575 0.537523
-36.351521 60.144604 -31.192137
-33.959553 77.062492 -12.891117
-35.574638 70.367165 -22.593025
-35.457634 69.480873 -28.675949
-34.917202 68.163582 -34.550934
-35.184544 69.514633 -9.318459
-33.677223 75.581375 -6.227548
-35.321484 58.492195 -36.699036
-35.508774 70.194176 -16.176226
-34.187653 77.497581 -19.48634
-32.335674 80.21196 -1.995365
-32.538803 82.57341 -9.055329
-32.68074 83.913574 -15.570352
-34.890678 73.986931 -24.34586
-35.543648 70.065887 -25.655914
-34.841473 73.665375 -27.369709
-34.686474 73.313156 -30.445654
-34.133194 77.048347 -28.853537
-33.994034 71.017067 -1.224492
-34.181366 72.063904 -4.449552
-33.460625 74.762535 -2.785229
-36.658207 60.924652 -28.206261
-36.509228 55.601166 -32.375877
-35.966171 54.620663 -34.937447
-35.905712 59.553169 -33.968266
-34.61676 73.200821 -11.259274
-35.393112 69.838142 -12.790357
-34.784767 73.469559 -14.453613
-34.888248 73.727974 -17.778685
-34.135521 77.162216 -16.212961
-32.431824 81.552254 -5.53518
-31.944111 86.792412 -13.786769
-32.034924 87.046097 -17.084789
-32.763802 84.132759 -19.0762
-33.859699 47.287411 -40.324253
-36.236786 66.245102 -23.912889
-36.176731 65.555428 -26.903728
-35.9856 64.801605 -30.033173
-35.643471 64.262085 -32.979923
-35.279716 68.752106 -31.563597
-34.977951 68.880943 -5.902857
-34.41774 72.690659 -7.875782
-33.817291 76.453506 -9.521272
-35.222416 53.224716 -37.526497
-35.25922 63.284641 -35.534424
-35.638351 69.997482 -19.442211
-34.931229 73.866295 -21.120197
-34.250401 77.399956 -22.715309
-32.629986 75.747681 2.471565
-32.190273 79.06958 1.252796
-32.795948 76.941513 -0.644983
-32.966728 78.052826 -4.044972
-33.074097 79.263992 -7.509731
-33.220184 80.033051 -11.078829
-31.925508 85.92318 -10.396338
-32.60186 83.451263 -12.414474
-33.367363 80.396904 -14.372346
-33.413883 80.909744 -17.580669
-33.510769 80.913261 -21.020777
-33.511574 80.956146 -24.280287
-33.642689 72.249321 -0.343484
-33.886843 70.375321 0.452768
-33.535498 71.607574 1.333775
-36.644987 58.295741 -30.374759
-36.79833 58.685765 -28.881821
-36.504864 60.534628 -29.699199
-36.430374 57.872885 -31.784007
-36.723841 56.024022 -30.966629
-36.644987 58.295741 -30.374759
-31.635065 88.71822 -17.770398
-31.648077 88.471046 -16.158224
-32.008151 87.328609 -18.819032
-31.635065 88.71822 -17.770398
-35.905712 68.306134 -23.252957
-36.269649 66.265854 -22.314985
-35.938575 68.326886 -21.655053
-34.597519 72.851474 -31.887715
-34.328707 74.911717 -31.192374
-34.881773 68.456359 -4.344502
-35.281383 66.935623 -5.120193
-34.968564 57.864845 -37.904908
-34.91903 55.231105 -38.318638
-35.27195 55.858456 -37.112766
-35.577166 67.808651 -10.038068
-35.46826 67.659599 -8.412789
-35.825819 68.274372 -15.224106
-35.767988 68.096355 -13.531171
-35.450943 70.016159 -14.483291
-35.891903 68.240002 -16.843734
-35.825819 68.274372 -15.224106
-35.573563 70.095829 -17.809219
-35.956692 68.141655 -18.476726
-35.891903 68.240002 -16.843734
-32.352303 76.64013 3.496063
-32.5539 74.983826 4.067511
-32.262974 79.64077 -0.371285
-31.968926 80.687061 0.588862
-32.041627 81.258252 -1.035219
-31.586343 87.573376 -11.036263
-31.591003 87.035961 -9.222317
-33.128317 82.680203 -21.783059
-33.137286 82.52301 -20.048488
-32.754834 84.289952 -20.810771
-33.12872 82.701645 -23.412814
-33.511172 80.934704 -22.650532
-33.128317 82.680203 -21.783059
-33.420261 44.6931 -40.631525
-33.249926 46.536741 -41.284056
-34.052067 76.779312 -30.396315
-34.328707 74.911717 -31.192374
-34.409834 75.180752 -29.649596
-34.238582 69.213291 -0.416549
-33.886843 70.375321 0.452768
-34.389814 69.524421 -2.00532
-34.238582 69.213291 -0.416549
-34.0877 71.540485 -2.837022
-34.48348 70.04784 -3.61785
-34.389814 69.524421 -2.00532
-36.980463 58.870726 -27.324789
-36.74679 61.284569 -26.715278
-36.980463 58.870726 -27.324789
-36.79833 58.685765 -28.881821
-36.797552 53.51333 -31.514246
-36.723841 56.024022 -30.966629
-36.501938 53.025858 -32.8736
-36.797552 53.51333 -31.514246
-36.2377 55.110914 -33.656662
-36.23041 52.535607 -34.154385
-36.501938 53.025858 -32.8736
-34.717999 67.574601 -35.8566
-34.534264 69.92202 -35.332147
-32.075516 81.941197 -2.731747
-32.041627 81.258252 -1.035219
-32.123592 82.611344 -4.501654
-32.383749 80.882107 -3.765273
-32.075516 81.941197 -2.731747
-32.148375 83.233116 -6.185503
-32.123592 82.611344 -4.501654
-32.201864 83.743695 -7.945578
-32.485314 82.062832 -7.295255
-32.148375 83.233116 -6.185503
-31.602671 88.344204 -14.509214
-31.595644 88.007992 -12.731478
-31.989517 86.919254 -15.435779
-31.602671 88.344204 -14.509214
-31.648077 88.471046 -16.158224
-32.372591 85.87194 -19.814737
-32.399363 85.589428 -18.080495
-32.008151 87.328609 -18.819032
-32.754834 84.289952 -20.810771
-32.372591 85.87194 -19.814737
-34.106491 49.749842 -40.05079
-34.366788 47.709929 -39.269888
-33.609741 49.161617 -41.044985
-34.106491 49.749842 -40.05079
-33.249926 46.536741 -41.284056
-33.609741 49.161617 -41.044985
-36.57826 64.227779 -23.035799
-36.269649 66.265854 -22.314985
-36.536079 63.944794 -24.568592
-36.57826 64.227779 -23.035799
-36.506052 63.599957 -26.064011
-36.536079 63.944794 -24.568592
-36.206758 65.900265 -25.408309
-36.417469 63.24004 -27.554994
-36.74679 61.284569 -26.715278
-36.506052 63.599957 -26.064011
-34.89414 70.570949 -32.446687
-34.983095 71.032631 -31.004626
-34.597519 72.851474 -31.887715
-34.712883 70.276688 -33.940355
-35.098459 68.457844 -33.057265
-34.89414 70.570949 -32.446687
-34.534264 69.92202 -35.332147
-34.712883 70.276688 -33.940355
-35.364964 67.342754 -6.704987
-35.281383 66.935623 -5.120193
-35.081248 69.197788 -7.610658
-35.46826 67.659599 -8.412789
-35.364964 67.342754 -6.704987
-34.579658 70.472423 -5.176204
-34.881773 68.456359 -4.344502
-34.48348 70.04784 -3.61785
-33.192648 72.799427 2.184722
-33.535498 71.607574 1.333775
-35.860363 52.004559 -35.424768
-36.23041 52.535607 -34.154385
-35.488486 51.306585 -36.719293
-35.860363 52.004559 -35.424768
-35.594294 53.92269 -36.231972
-35.048147 50.678581 -37.87101
-35.488486 51.306585 -36.719293
-34.78785 52.718495 -38.651912
-35.048147 50.678581 -37.87101
-34.78785 52.718495 -38.651912
-34.91903 55.231105 -38.318638
-34.889007 65.13513 -36.348345
-35.088211 65.724112 -35.042679
-34.717999 67.574601 -35.8566
-34.977804 62.681093 -36.843788
-34.889007 65.13513 -36.348345
-35.008936 60.28487 -37.426094
-35.290352 60.888418 -36.11673
-34.977804 62.681093 -36.843788
-34.968564 57.864845 -37.904908
-35.008936 60.28487 -37.426094
-35.68145 67.970405 -11.774017
-35.577166 67.808651 -10.038068
-35.288828 69.676388 -11.054408
-35.68145 67.970405 -11.774017
-35.767988 68.096355 -13.531171
-35.970432 68.142044 -20.079646
-35.956692 68.141655 -18.476726
-35.606494 70.182323 -21.017618
-35.938575 68.326886 -21.655053
-35.970432 68.142044 -20.079646
-32.861969 73.93248 3.151743
-32.5539 74.983826 4.067511
-32.960665 74.614628 1.504544
-33.192648 72.799427 2.184722
-32.861969 73.93248 3.151743
-31.918001 79.99427 2.27681
-31.696655 81.611752 1.612876
-31.968926 80.687061 0.588862
-32.132446 78.301079 2.886678
-31.918001 79.99427 2.27681
-32.410129 77.408631 1.862181
-32.352303 76.64013 3.496063
-32.132446 78.301079 2.886678
-31.895217 85.418579 -8.616082
-31.591003 87.035961 -9.222317
-32.232156 84.248295 -9.725834
-32.201864 83.743695 -7.945578
-31.895217 85.418579 -8.616082
-31.93481 86.357796 -12.091553
-31.586343 87.573376 -11.036263
-31.595644 88.007992 -12.731478
-33.12444 82.63591 -25.067624
-33.12872 82.701645 -23.412814
-33.489525 80.852626 -25.865769
-33.12444 82.63591 -25.067624
-33.827318 79.124462 -26.623879
-33.849367 79.227981 -25.038396
-33.489525 80.852626 -25.865769
-33.800335 78.898727 -28.152394
-34.160177 77.274082 -27.325021
-33.827318 79.124462 -26.623879
-33.729833 78.784336 -29.61562
-33.800335 78.898727 -28.152394
-34.052067 76.779312 -30.396315
-33.729833 78.784336 -29.61562
-34.025375 45.25771 -39.651165
-34.366788 47.709929 -39.269888
-34.025375 45.25771 -39.651165
-33.420261 44.6931 -40.631525
3 0 17 15
3 0 19 17
3 1 62 64
3 62 20 63
3 62 63 64
3 1 22 20
3 2 65 67
3 67 66 23
3 65 66 67
3 2 68 70
3 68 24 69
3 68 69 70
3 2 26 24
3 3 29 27
3 3 31 29
3 71 34 72
3 74 73 34
3 4 75 77
3 75 37 76
3 75 76 77
3 5 38 16
3 5 39 38
3 5 41 39
3 79 78 18
3 80 42 81
3 8 43 21
3 8 44 43
3 9 45 25
3 9 82 84
3 84 83 45
3 82 83 84
3 6 46 40
3 7 85 86
3 10 87 89
3 89 88 28
3 87 88 89
3 10 90 91
3 10 92 94
3 92 47 93
3 92 93 94
3 11 48 30
3 11 49 48
3 95 50 96
3 12 97 99
3 97 51 98
3 97 98 99
3 12 52 51
3 12 53 52
3 13 54 32
3 13 55 54
3 100 56 101
3 14 57 33
3 14 58 57
3 14 59 58
3 102 60 103
3 104 103 35
3 102 103 104
3 105 61 106
3 107 106 60
3 105 106 107
3 109 108 36
3 15 16 4
3 17 16 15
3 17 5 16
3 17 18 5
3 19 18 17
3 19 110 112
3 112 111 18
3 110 111 112
3 20 113 114
3 20 115 116
3 20 117 119
3 117 21 118
3 117 118 119
3 22 21 20
3 22 8 21
3 23 120 121
3 123 122 23
3 24 124 125
3 24 126 127
3 24 128 130
3 128 25 129
3 128 129 130
3 26 25 24
3 26 9 25
3 132 131 6
3 27 28 7
3 29 28 27
3 29 10 28
3 29 30 10
3 31 30 29
3 31 11 30
3 133 12 134
3 135 32 136
3 137 136 12
3 135 136 137
3 138 32 139
3 140 13 141
3 142 141 32
3 140 141 142
3 143 33 144
3 34 145 147
3 145 33 146
3 145 146 147
3 34 14 33
3 34 35 14
3 148 35 149
3 150 149 34
3 148 149 150
3 152 151 35
3 153 36 154
3 155 36 156
3 158 157 36
3 37 159 160
3 37 161 162
3 16 37 4
3 38 37 16
3 38 163 165
3 165 164 37
3 163 164 165
3 38 166 168
3 166 23 167
3 166 167 168
3 39 23 38
3 39 2 23
3 39 40 2
3 41 40 39
3 41 6 40
3 18 41 5
3 169 41 170
3 171 170 18
3 169 170 171
3 172 6 173
3 174 173 41
3 172 173 174
3 176 175 6
3 42 177 178
3 42 179 181
3 179 7 180
3 179 180 181
3 21 182 184
3 182 42 183
3 182 183 184
3 43 42 21
3 43 7 42
3 43 27 7
3 44 27 43
3 44 3 27
3 185 1 186
3 25 187 188
3 45 189 191
3 191 190 25
3 189 190 191
3 45 192 193
3 45 194 195
3 197 196 45
3 40 26 2
3 46 26 40
3 46 9 26
3 198 46 199
3 200 199 6
3 198 199 200
3 201 46 202
3 203 9 204
3 205 204 46
3 203 204 205
3 207 206 9
3 28 208 210
3 210 209 7
3 208 209 210
3 212 211 28
3 47 213 214
3 47 215 217
3 215 4 216
3 215 216 217
3 30 47 10
3 48 47 30
3 48 4 47
3 48 15 4
3 49 15 48
3 49 0 15
3 50 218 219
3 50 220 222
3 220 1 221
3 220 221 222
3 51 223 225
3 223 224 225
3 51 226 227
3 51 228 230
3 228 50 229
3 228 229 230
3 52 50 51
3 52 1 50
3 52 22 1
3 53 22 52
3 53 8 22
3 32 53 12
3 54 53 32
3 54 8 53
3 54 44 8
3 55 44 54
3 55 3 44
3 56 231 232
3 56 233 235
3 233 13 234
3 233 234 235
3 33 236 238
3 236 56 237
3 236 237 238
3 57 56 33
3 57 13 56
3 57 55 13
3 58 55 57
3 58 3 55
3 58 31 3
3 59 31 58
3 59 11 31
3 35 59 14
3 60 59 35
3 60 11 59
3 60 49 11
3 61 49 60
3 61 0 49
3 239 61 240
3 241 61 242
3 243 0 244
3 245 244 61
3 243 244 245
3 246 19 247
3 248 247 0
3 246 247 248
3 249 19 250
3 252 251 19
3 36 253 254
3 256 255 36
