ply
format ascii 1.0
element vertex 267
property float x
property float y
property float z
element face 269
property list uchar int vertex_index
end_header
-5.615634 -5.567433 65.239586
10.124616 -4.246849 53.798054
-0.85126 10.39757 59.432438
1.014855 1.89239 59.770714
8.3695 2.706044 54.154182
2.369556 -5.473902 59.869808
-4.238898 10.518209 61.733982
-3.294834 6.382066 61.975327
-5.016511 -9.383096 65.209488
-2.104294 -1.94912 62.497784
1.758745 -1.888355 59.817875
-1.658374 -5.845347 62.678066
-0.96522 -9.326559 62.582115
3.750777 6.151599 57.051296
0.175642 6.075081 59.633076
-2.68223 2.22377 62.293983
9.367294 -0.768292 53.942329
4.618875 2.093827 57.139339
5.51197 -1.499527 57.049797
6.367429 -4.95191 56.877922
3.145173 -8.887344 59.680485
-5.404302 -7.565038 65.29319
-3.874174 -3.67579 63.901405
-1.932951 -3.871426 62.62785
-3.603167 -5.608146 63.940079
-3.275092 -7.603749 63.933304
11.413383 -2.111134 52.440365
11.938288 -3.600567 52.174644
0.825066 10.403061 58.259499
1.457876 8.215829 58.290325
-0.256318 8.218159 59.498985
-3.012949 4.202665 62.192558
10.709494 1.228855 52.499306
8.915031 0.82031 54.048023
2.428572 4.132977 58.38736
4.377028 4.126841 56.966095
2.88646 2.08488 58.406651
2.014986 -3.763595 59.896053
3.636446 -1.664283 58.446594
4.025486 -3.443121 58.419937
5.963316 -3.162093 56.95343
4.416553 -5.213886 58.369045
4.734769 -6.914995 58.328064
2.852693 -7.068313 59.716164
-2.58254 10.435379 60.622036
-2.055151 8.350881 60.719402
-3.722089 8.58452 61.810207
-4.637064 -11.226827 65.117676
7.977189 4.640095 54.11639
-0.522384 -0.100053 61.152451
1.442986 0.059547 59.754055
-0.147586 -1.904294 61.150993
-0.001338 -3.784585 61.301163
0.402819 -5.581734 61.250282
0.78358 -7.409337 61.202068
-1.143618 -7.543667 62.522774
-2.994549 -9.36702 63.919621
3.286236 8.337515 56.953312
1.906838 6.149865 58.388405
0.549561 3.981029 59.753132
-1.555814 6.218708 60.814003
-1.232384 4.102648 60.981361
-0.865054 1.910796 61.085514
-2.49681 -0.009341 62.499058
-4.107669 -1.743687 63.820053
8.568425 -6.207008 55.28236
11.176085 -0.37392 52.3792
9.764546 -2.429164 53.866596
5.608573 6.408314 55.62077
6.115299 4.290843 55.629211
6.55992 2.323413 55.636925
3.198408 0.034002 58.506634
5.066117 0.233964 57.111488
7.051937 0.558679 55.558289
7.398347 -1.140699 55.564396
7.856734 -2.826051 55.450848
8.344755 -4.411748 55.271309
6.794105 -6.559666 56.727772
5.228418 -8.448533 58.097996
1.150546 -9.028178 61.110817
-6.532877 -6.496072 65.896962
-6.427211 -7.494874 65.923764
-5.509968 -6.566236 65.266388
-0.282892 11.520922 58.772472
-1.177626 11.468601 59.405236
-0.013097 10.400315 58.845968
0.555271 11.523667 58.186003
-0.282892 11.520922 58.772472
9.286943 2.833954 53.381874
9.065945 3.751937 53.39633
8.642266 1.763177 54.101102
9.559709 1.891087 53.328795
9.286943 2.833954 53.381874
-3.7101 11.469587 61.147161
-4.479807 11.479805 61.665621
-3.410719 10.476794 61.178009
-2.88192 11.428172 60.591189
-3.7101 11.469587 61.147161
-5.921309 -10.270301 65.835926
-5.731586 -11.192166 65.79002
-4.826788 -10.304962 65.163582
7.697447 5.554728 54.167833
8.612058 5.734882 53.400711
2.909584 9.394196 56.996645
3.80358 9.439194 56.343813
-5.093041 -1.611896 64.44825
-4.187292 -0.718921 63.736126
-4.944384 -2.656788 64.477489
-5.093041 -1.611896 64.44825
8.814428 -7.009982 55.135811
7.846065 -7.210468 55.941757
4.679675 6.279956 56.336033
5.329871 7.428753 55.629159
4.400974 7.300396 56.344421
3.408734 -9.678241 59.537468
4.450356 -9.458835 58.746223
4.186795 -8.667938 58.88924
-4.754276 9.640797 62.273424
-4.939469 10.572036 62.19126
-4.939469 10.572036 62.19126
-4.479807 11.479805 61.665621
-6.289782 -8.441192 65.915756
-6.095886 -9.35022 65.873905
-5.210407 -8.474067 65.251339
-6.289782 -8.441192 65.915756
-6.427211 -7.494874 65.923764
12.373962 -1.879011 51.563728
12.136902 -1.131208 51.66085
12.636415 -2.623728 51.430868
12.373962 -1.879011 51.563728
11.675835 -2.85585 52.307505
12.792483 -3.419274 51.393102
12.636415 -2.623728 51.430868
1.141471 9.309445 58.274912
1.995404 9.333353 57.665152
1.678999 10.426969 57.649738
-3.880746 4.314976 62.758762
-3.153891 5.292365 62.083942
-4.021689 5.404676 62.650147
-3.798902 3.250106 62.88134
-3.880746 4.314976 62.758762
-3.633542 2.260659 62.932052
-2.847589 3.213217 62.24327
-3.798902 3.250106 62.88134
-3.474573 1.264807 62.973091
-3.633542 2.260659 62.932052
1.401482 11.553282 57.587938
0.555271 11.523667 58.186003
1.678999 10.426969 57.649738
1.401482 11.553282 57.587938
10.45694 2.095359 52.554436
11.345816 2.244041 51.766283
9.812262 1.024582 53.273664
10.45694 2.095359 52.554436
9.559709 1.891087 53.328795
-0.698811 -10.131394 62.466501
-1.772834 -10.236341 63.18955
-4.495871 8.673952 62.311537
-3.980493 9.551365 61.772094
-4.754276 9.640797 62.273424
-4.335309 7.630816 62.420829
-4.495871 8.673952 62.311537
-4.121681 6.529589 62.503389
-3.508462 7.483293 61.892767
-4.335309 7.630816 62.420829
-4.021689 5.404676 62.650147
-4.121681 6.529589 62.503389
-2.043266 11.487505 60.000034
-2.88192 11.428172 60.591189
-1.7169 10.416474 60.027237
-1.177626 11.468601 59.405236
-2.043266 11.487505 60.000034
-5.511623 -12.115697 65.715031
-4.445197 -12.194285 65.058308
-5.511623 -12.115697 65.715031
-5.731586 -11.192166 65.79002
-5.921309 -10.270301 65.835926
-6.095886 -9.35022 65.873905
8.869789 4.718962 53.377434
8.612058 5.734882 53.400711
8.173345 3.673069 54.135286
9.065945 3.751937 53.39633
8.869789 4.718962 53.377434
-2.787498 -10.256571 63.858303
-1.772834 -10.236341 63.18955
-1.979885 -9.346789 63.250868
-3.608756 -11.186474 64.457331
-2.787498 -10.256571 63.858303
-3.815806 -10.296924 64.518648
-4.445197 -12.194285 65.058308
-3.608756 -11.186474 64.457331
-6.640308 -5.482121 65.874211
-5.698367 -4.568661 65.187256
4.168703 8.393353 56.295429
3.80358 9.439194 56.343813
3.518506 7.244557 57.002304
4.400974 7.300396 56.344421
4.168703 8.393353 56.295429
2.372056 8.276672 57.621819
2.909584 9.394196 56.996645
1.995404 9.333353 57.665152
-3.381863 0.148252 63.075629
-2.58952 1.107214 62.39652
-3.474573 1.264807 62.973091
-3.302239 -0.876514 63.159555
-3.381863 0.148252 63.075629
-4.187292 -0.718921 63.736126
-4.827637 -3.622839 64.518165
-3.990921 -2.709739 63.860729
-4.944384 -2.656788 64.477489
-5.698367 -4.568661 65.187256
-4.744904 -4.621612 64.570495
-4.827637 -3.622839 64.518165
9.515303 -5.969815 54.472217
10.293399 -4.989736 53.730064
9.346521 -5.226928 54.540207
9.515303 -5.969815 54.472217
8.814428 -7.009982 55.135811
-6.532877 -6.496072 65.896962
-6.640308 -5.482121 65.874211
11.591943 1.425214 51.704462
11.345816 2.244041 51.766283
11.825239 0.623826 51.644409
11.591943 1.425214 51.704462
10.942789 0.427468 52.439253
12.018253 -0.262601 51.630268
11.825239 0.623826 51.644409
11.294734 -1.242527 52.409782
12.136902 -1.131208 51.66085
12.018253 -0.262601 51.630268
6.237051 7.50218 54.929251
5.329871 7.428753 55.629159
6.513139 6.438837 54.920023
6.237051 7.50218 54.929251
6.766502 5.380102 54.924244
6.513139 6.438837 54.920023
5.861936 5.349578 55.62499
7.046244 4.465469 54.8728
7.697447 5.554728 54.167833
6.766502 5.380102 54.924244
6.958906 -7.386796 56.664463
7.846065 -7.210468 55.941757
7.681265 -6.383337 56.005066
6.176062 -8.33123 57.349575
6.958906 -7.386796 56.664463
6.011261 -7.504099 57.412884
5.406498 -9.300258 58.003815
6.176062 -8.33123 57.349575
5.406498 -9.300258 58.003815
4.450356 -9.458835 58.746223
0.359072 -9.982204 61.730852
0.092663 -9.177369 61.846466
-0.698811 -10.131394 62.466501
1.374932 -9.921379 61.019821
0.359072 -9.982204 61.730852
2.372245 -9.850962 60.304655
2.14786 -8.957761 60.395651
1.374932 -9.921379 61.019821
3.408734 -9.678241 59.537468
2.372245 -9.850962 60.304655
11.200235 -4.666595 52.91836
11.031452 -3.923708 52.986349
10.293399 -4.989736 53.730064
12.079888 -4.486882 52.138095
11.200235 -4.666595 52.91836
12.792483 -3.419274 51.393102
12.079888 -4.486882 52.138095
3 0 80 82
3 82 81 21
3 80 81 82
3 0 24 22
3 0 21 24
3 1 27 26
3 2 30 28
3 2 83 84
3 2 85 87
3 85 28 86
3 85 86 87
3 4 88 89
3 4 90 92
3 90 33 91
3 90 91 92
3 3 36 34
3 5 39 37
3 5 41 39
3 5 43 41
3 6 46 44
3 6 93 94
3 6 95 97
3 95 44 96
3 95 96 97
3 8 98 100
3 100 99 47
3 98 99 100
3 101 48 102
3 9 51 49
3 11 52 23
3 11 53 52
3 11 55 53
3 8 56 25
3 8 47 56
3 103 57 104
3 14 58 29
3 14 59 58
3 7 60 45
3 15 61 31
3 15 62 61
3 15 63 62
3 105 64 106
3 108 107 64
3 110 109 65
3 16 66 32
3 16 67 66
3 13 111 113
3 111 68 112
3 111 112 113
3 17 69 35
3 17 70 69
3 10 71 50
3 18 72 38
3 18 73 72
3 18 74 73
3 19 75 40
3 19 76 75
3 19 77 76
3 20 78 42
3 20 114 116
3 116 115 78
3 114 115 116
3 12 79 54
3 118 117 6
3 119 6 120
3 21 121 123
3 123 122 8
3 121 122 123
3 125 124 21
3 22 23 9
3 24 23 22
3 24 11 23
3 24 25 11
3 21 25 24
3 21 8 25
3 26 126 127
3 27 128 130
3 130 129 26
3 128 129 130
3 27 131 132
3 28 133 135
3 133 29 134
3 133 134 135
3 30 29 28
3 30 14 29
3 136 31 137
3 138 137 7
3 136 137 138
3 139 31 140
3 141 15 142
3 143 142 31
3 141 142 143
3 145 144 15
3 28 146 147
3 28 148 149
3 150 32 151
3 33 152 154
3 152 32 153
3 152 153 154
3 33 16 32
3 34 35 13
3 36 35 34
3 36 17 35
3 37 38 10
3 39 38 37
3 39 18 38
3 39 40 18
3 41 40 39
3 41 19 40
3 41 42 19
3 43 42 41
3 43 20 42
3 156 155 12
3 44 45 2
3 46 45 44
3 46 7 45
3 157 46 158
3 159 158 6
3 157 158 159
3 160 46 161
3 162 7 163
3 164 163 46
3 162 163 164
3 166 165 7
3 44 167 168
3 44 169 171
3 169 2 170
3 169 170 171
3 47 172 173
3 175 174 47
3 177 176 8
3 48 178 179
3 48 180 182
3 180 4 181
3 180 181 182
3 49 50 3
3 51 50 49
3 51 10 50
3 23 51 9
3 52 51 23
3 52 10 51
3 52 37 10
3 53 37 52
3 53 5 37
3 53 54 5
3 55 54 53
3 55 12 54
3 25 55 11
3 56 55 25
3 56 12 55
3 56 183 185
3 185 184 12
3 183 184 185
3 47 186 188
3 188 187 56
3 186 187 188
3 47 189 190
3 192 191 0
3 57 193 194
3 57 195 197
3 195 13 196
3 195 196 197
3 29 198 200
3 198 57 199
3 198 199 200
3 58 57 29
3 58 13 57
3 58 34 13
3 59 34 58
3 59 3 34
3 45 30 2
3 60 30 45
3 60 14 30
3 31 60 7
3 61 60 31
3 61 14 60
3 61 59 14
3 62 59 61
3 62 3 59
3 62 49 3
3 63 49 62
3 63 9 49
3 201 63 202
3 203 202 15
3 201 202 203
3 64 204 206
3 204 63 205
3 204 205 206
3 64 9 63
3 64 22 9
3 207 22 208
3 209 208 64
3 207 208 209
3 210 0 211
3 212 211 22
3 210 211 212
3 65 213 215
3 215 214 1
3 213 214 215
3 217 216 65
3 219 218 0
3 32 220 221
3 66 222 224
3 224 223 32
3 222 223 224
3 66 225 226
3 66 227 229
3 227 26 228
3 227 228 229
3 67 26 66
3 67 1 26
3 68 230 231
3 68 232 233
3 35 68 13
3 69 68 35
3 69 234 236
3 236 235 68
3 234 235 236
3 69 237 239
3 237 48 238
3 237 238 239
3 70 48 69
3 70 4 48
3 50 36 3
3 71 36 50
3 71 17 36
3 38 71 10
3 72 71 38
3 72 17 71
3 72 70 17
3 73 70 72
3 73 4 70
3 73 33 4
3 74 33 73
3 74 16 33
3 40 74 18
3 75 74 40
3 75 16 74
3 75 67 16
3 76 67 75
3 76 1 67
3 76 65 1
3 77 65 76
3 77 240 242
3 242 241 65
3 240 241 242
3 42 77 19
3 78 77 42
3 78 243 245
3 245 244 77
3 243 244 245
3 78 246 247
3 249 248 78
3 54 43 5
3 79 43 54
3 79 20 43
3 250 79 251
3 252 251 12
3 250 251 252
3 253 79 254
3 255 20 256
3 257 256 79
3 255 256 257
3 259 258 20
3 260 27 261
3 262 261 1
3 260 261 262
3 263 27 264
3 266 265 27
