ply
format ascii 1.0
element vertex 259
property float x
property float y
property float z
element face 238
property list uchar int vertex_index
end_header
-30.111877 18.899385 58.528404
-23.032637 20.839115 67.010742
-17.002823 19.245121 66.459076
-20.677481 16.745291 68.074921
-19.370565 24.030899 65.798737
-21.650171 28.321718 64.790169
-30.435877 21.599525 54.40723
-13.11451 21.400269 64.068153
-27.818758 20.995192 64.254913
-29.624043 15.83742 62.232548
-28.928707 24.254465 60.99065
-24.295086 13.452297 68.82756
-26.265545 17.426313 66.895538
-25.069794 25.129332 65.169983
-16.269926 22.649172 65.193039
-18.084494 21.628271 66.150627
-17.550297 24.944088 64.986015
-30.583817 18.851984 52.806202
-12.009591 19.214542 64.130409
-13.76369 18.427046 65.280411
-27.329882 24.7106 63.584084
-28.429171 22.588186 62.712048
-27.923254 26.650629 62.090065
-21.936136 18.631063 67.674713
-22.592838 15.129053 68.602928
-23.670839 17.215204 67.946899
-25.361248 15.26688 67.999481
-24.749922 18.934748 67.195312
-25.608438 21.203568 66.14003
-24.065552 23.018185 66.185669
-29.868961 17.674191 60.44244
-30.161367 13.441553 60.742447
-30.313368 14.982617 58.825211
-17.626694 16.107304 67.517975
-19.433765 14.838328 68.339394
-18.893848 18.374331 67.289711
-20.087059 20.322773 67.012733
-21.223396 22.431448 66.562584
-22.320055 24.730728 65.911049
-20.594761 26.062468 65.411865
-30.287695 20.326342 56.51627
-30.425961 16.349382 56.880009
-30.51553 17.570011 54.827126
-14.371784 23.790266 63.973022
-16.402161 14.072668 67.606171
-15.633735 17.190786 66.483658
-15.044274 20.410131 65.319351
-28.299284 16.977804 64.92495
-29.206701 14.665738 63.929466
-28.830334 18.455072 63.406452
-29.237345 20.108215 61.76704
-29.606712 21.738146 59.875584
-29.364872 25.710144 59.160641
-29.914381 23.154305 57.885376
-26.870886 13.32305 67.660011
-27.610685 15.319304 66.376869
-27.11569 19.184544 65.66256
-26.573639 22.858297 64.959122
-26.011032 26.875502 64.056641
-23.356621 26.940796 65.121117
-24.488245 28.946539 64.161858
-16.626631 25.528274 64.42756
-16.910111 23.79663 65.089527
-15.986445 24.380816 64.531072
-17.193026 26.859921 64.234743
-16.626631 25.528274 64.42756
-11.130835 19.648789 63.492571
-11.442407 18.280726 64.088215
-11.442407 18.280726 64.088215
-12.355044 17.785164 64.726685
-27.366227 27.678652 62.420935
-27.626568 25.680614 62.837074
-27.069541 26.708638 63.167944
-30.597314 16.836136 52.893286
-30.609405 17.452626 51.884985
-12.807969 23.071824 63.365558
-13.436606 24.266822 63.317993
-13.743147 22.595267 64.020588
-15.4245 14.678712 67.037899
-15.715848 13.15142 67.556275
-15.040287 16.23777 66.476642
-16.017948 15.631727 67.044915
-15.4245 14.678712 67.037899
-29.51374 26.600419 58.248688
-29.211386 27.832086 58.807787
-29.788495 25.322499 57.611055
-29.639626 24.432225 58.523009
-29.51374 26.600419 58.248688
-30.033201 23.806629 56.883583
-29.788495 25.322499 57.611055
-21.01752 14.992545 68.557183
-20.395662 14.039064 68.689419
-20.055623 15.79181 68.207157
-23.762747 12.498223 69.1469
-22.911623 13.336601 69.034584
-23.443962 14.290675 68.715244
-24.614452 11.596345 69.213104
-23.762747 12.498223 69.1469
-25.122971 12.477341 68.78527
-24.614452 11.596345 69.213104
-24.154737 30.965982 63.57082
-23.674055 29.757556 64.082116
-24.95554 29.936894 63.599655
-24.154737 30.965982 63.57082
-29.771895 13.87908 62.452561
-29.563224 13.293239 63.301019
-29.415372 15.251579 63.081007
-30.280555 11.288553 60.94668
-30.332352 12.069769 59.924162
-30.487375 14.274822 57.061287
-30.504988 14.944325 56.030253
-18.13357 26.233604 64.768101
-19.043704 25.77701 65.174462
-18.460431 24.487493 65.392376
-18.13357 26.233604 64.768101
-17.193026 26.859921 64.234743
-30.56984 20.914753 52.5177
-30.509847 20.225755 53.606716
-30.495871 22.288524 53.318214
-30.618468 19.637719 51.705793
-30.56984 20.914753 52.5177
-30.609405 17.452626 51.884985
-30.618468 19.637719 51.705793
-11.673838 20.701664 63.47938
-12.226297 21.794528 63.448251
-12.56205 20.307406 64.099281
-11.673838 20.701664 63.47938
-11.130835 19.648789 63.492571
-13.232093 17.391416 65.301685
-14.105265 16.855901 65.875019
-12.886641 18.820794 64.70541
-13.232093 17.391416 65.301685
-12.355044 17.785164 64.726685
-22.255018 29.445146 64.396271
-21.375089 30.28106 64.118233
-30.408352 12.840301 58.965544
-30.332352 12.069769 59.924162
-30.237367 14.212085 59.783829
-18.53023 15.472816 67.928685
-18.853099 13.82035 68.442612
-17.949563 14.454838 68.031903
-19.655802 26.792794 64.981026
-19.982663 25.046684 65.605301
-19.043704 25.77701 65.174462
-20.285658 27.956084 64.755852
-19.655802 26.792794 64.981026
-20.813363 29.08571 64.445004
-21.122466 27.192093 65.101017
-20.285658 27.956084 64.755852
-21.375089 30.28106 64.118233
-20.813363 29.08571 64.445004
-30.549772 15.55464 55.003811
-30.504988 14.944325 56.030253
-30.470745 16.959696 55.853567
-30.56317 16.195149 53.903748
-30.549673 18.210998 53.816664
-30.597314 16.836136 52.893286
-30.549772 15.55464 55.003811
-30.56317 16.195149 53.903748
-14.071019 25.471339 63.264076
-15.037374 24.951363 63.921064
-14.071019 25.471339 63.264076
-13.436606 24.266822 63.317993
-12.807969 23.071824 63.365558
-12.226297 21.794528 63.448251
-16.683279 12.585136 68.068737
-15.715848 13.15142 67.556275
-17.337297 13.43752 68.076
-16.683279 12.585136 68.068737
-17.014428 15.089986 67.562073
-17.949563 14.454838 68.031903
-17.337297 13.43752 68.076
-14.698712 17.808916 65.882035
-15.040287 16.23777 66.476642
-14.105265 16.855901 65.875019
-15.037374 24.951363 63.921064
-15.986445 24.380816 64.531072
-15.320855 23.219719 64.583031
-28.752992 15.821771 64.427208
-28.974592 13.736942 64.750446
-28.520884 14.892975 65.248188
-27.747008 28.624237 61.624026
-27.366227 27.678652 62.420935
-28.237646 27.407501 61.232329
-27.747008 28.624237 61.624026
-28.740372 26.209419 60.682621
-28.425981 25.452547 61.540357
-28.237646 27.407501 61.232329
-28.958455 26.937258 59.767617
-29.211386 27.832086 58.807787
-29.146789 24.982304 60.075646
-28.740372 26.209419 60.682621
-28.958455 26.937258 59.767617
-30.219858 22.392648 56.19903
-30.101038 21.740324 57.200823
-30.033201 23.806629 56.883583
-30.293949 23.029239 55.14451
-30.361786 20.962933 55.46175
-30.219858 22.392648 56.19903
-30.387631 23.701344 54.132877
-30.293949 23.029239 55.14451
-30.245703 25.131059 54.870157
-30.495871 22.288524 53.318214
-30.387631 23.701344 54.132877
-19.767984 13.096627 68.829273
-18.853099 13.82035 68.442612
-19.767984 13.096627 68.829273
-20.395662 14.039064 68.689419
-21.975198 14.184426 68.821186
-21.01752 14.992545 68.557183
-21.63516 15.937172 68.338925
-21.975198 14.184426 68.821186
-22.911623 13.336601 69.034584
-25.656052 13.384633 68.371231
-25.122971 12.477341 68.78527
-24.828167 14.359589 68.413521
-26.410871 12.412717 68.201496
-25.656052 13.384633 68.371231
-26.116067 14.294965 67.829746
-27.146383 11.295293 67.998821
-26.410871 12.412717 68.201496
-27.509524 12.187794 67.35144
-27.146383 11.295293 67.998821
-27.879424 13.185921 66.709869
-27.509524 12.187794 67.35144
-27.240786 14.321177 67.01844
-28.176584 14.063726 65.974148
-27.879424 13.185921 66.709869
-27.954985 16.148554 65.650909
-28.520884 14.892975 65.248188
-28.176584 14.063726 65.974148
-26.410116 27.791089 63.404223
-27.069541 26.708638 63.167944
-26.670457 25.793051 63.820363
-23.108243 28.754684 64.561745
-22.503396 27.631257 64.955643
-22.255018 29.445146 64.396271
-23.922433 27.943668 64.641487
-23.108243 28.754684 64.561745
-23.674055 29.757556 64.082116
-25.716934 28.901375 63.547047
-25.249638 27.91102 64.10925
-24.95554 29.936894 63.599655
-26.410116 27.791089 63.404223
-25.716934 28.901375 63.547047
-29.404029 12.478879 64.194866
-28.974592 13.736942 64.750446
-29.404029 12.478879 64.194866
-29.563224 13.293239 63.301019
-30.040557 12.681147 61.70751
-29.771895 13.87908 62.452561
-29.892705 14.639487 61.487498
-30.040557 12.681147 61.70751
-30.280555 11.288553 60.94668
-30.431079 13.591439 58.033888
-30.369664 15.665999 57.85261
-30.487375 14.274822 57.061287
-30.408352 12.840301 58.965544
-30.431079 13.591439 58.033888
3 61 16 62
3 63 62 14
3 61 62 63
3 65 64 16
3 67 66 18
3 68 18 69
3 70 22 71
3 72 71 20
3 70 71 72
3 1 25 23
3 1 27 25
3 1 29 27
3 0 32 30
3 2 35 33
3 4 36 15
3 4 37 36
3 4 39 37
3 6 42 40
3 74 73 17
3 7 75 77
3 77 76 43
3 75 76 77
3 78 44 79
3 80 45 81
3 82 81 44
3 80 81 82
3 7 46 19
3 7 43 46
3 8 49 47
3 10 50 21
3 10 51 50
3 83 52 84
3 85 53 86
3 87 86 52
3 85 86 87
3 89 88 53
3 3 90 92
3 92 91 34
3 90 91 92
3 11 93 95
3 95 94 24
3 93 94 95
3 11 96 97
3 11 98 99
3 12 54 26
3 12 55 54
3 12 56 55
3 13 57 28
3 13 58 57
3 5 59 38
3 100 60 101
3 103 102 60
3 9 104 106
3 106 105 48
3 104 105 106
3 108 107 31
3 110 109 41
3 14 15 2
3 16 15 14
3 16 4 15
3 16 111 113
3 113 112 4
3 111 112 113
3 115 114 16
3 116 17 117
3 118 117 6
3 116 117 118
3 119 17 120
3 122 121 17
3 18 123 125
3 125 124 7
3 123 124 125
3 127 126 18
3 128 19 129
3 18 130 132
3 130 19 131
3 130 131 132
3 18 7 19
3 20 21 8
3 22 21 20
3 22 10 21
3 23 24 3
3 25 24 23
3 25 11 24
3 25 26 11
3 27 26 25
3 27 12 26
3 27 28 12
3 29 28 27
3 29 13 28
3 134 133 5
3 30 31 9
3 32 31 30
3 32 135 137
3 137 136 31
3 135 136 137
3 33 138 140
3 138 34 139
3 138 139 140
3 35 34 33
3 35 3 34
3 15 35 2
3 36 35 15
3 36 3 35
3 36 23 3
3 37 23 36
3 37 1 23
3 37 38 1
3 39 38 37
3 39 5 38
3 141 39 142
3 143 142 4
3 141 142 143
3 144 39 145
3 146 5 147
3 148 147 39
3 146 147 148
3 150 149 5
3 40 41 0
3 42 41 40
3 42 151 153
3 153 152 41
3 151 152 153
3 17 42 6
3 154 42 155
3 156 155 17
3 154 155 156
3 158 157 42
3 43 159 160
3 162 161 43
3 164 163 7
3 44 165 166
3 44 167 168
3 44 169 171
3 169 33 170
3 169 170 171
3 45 33 44
3 45 2 33
3 19 172 174
3 172 45 173
3 172 173 174
3 46 45 19
3 46 2 45
3 46 14 2
3 43 14 46
3 43 175 177
3 177 176 14
3 175 176 177
3 47 178 180
3 178 48 179
3 178 179 180
3 49 48 47
3 49 9 48
3 21 49 8
3 50 49 21
3 50 9 49
3 50 30 9
3 51 30 50
3 51 0 30
3 181 22 182
3 183 22 184
3 185 10 186
3 187 186 22
3 185 186 187
3 52 188 189
3 52 190 192
3 190 10 191
3 190 191 192
3 52 51 10
3 53 51 52
3 53 0 51
3 53 40 0
3 193 40 194
3 195 194 53
3 193 194 195
3 196 6 197
3 198 197 40
3 196 197 198
3 199 6 200
3 199 200 201
3 203 202 6
3 34 204 205
3 207 206 34
3 24 208 210
3 210 209 3
3 208 209 210
3 212 211 24
3 26 213 215
3 215 214 11
3 213 214 215
3 54 216 218
3 218 217 26
3 216 217 218
3 54 219 220
3 54 221 222
3 55 223 225
3 225 224 54
3 223 224 225
3 55 226 227
3 55 228 230
3 228 47 229
3 228 229 230
3 56 47 55
3 56 8 47
3 28 56 12
3 57 56 28
3 57 8 56
3 57 20 8
3 58 20 57
3 58 231 233
3 233 232 20
3 231 232 233
3 38 29 1
3 59 29 38
3 59 13 29
3 234 59 235
3 236 235 5
3 234 235 236
3 60 237 239
3 237 59 238
3 237 238 239
3 60 13 59
3 60 58 13
3 240 58 241
3 242 241 60
3 240 241 242
3 244 243 58
3 48 245 246
3 248 247 48
3 31 249 251
3 251 250 9
3 249 250 251
3 253 252 31
3 41 32 0
3 254 32 255
3 256 255 41
3 254 255 256
3 258 257 32
