ply
format ascii 1.0
element vertex 235
property float x
property float y
property float z
element face 218
property list uchar int vertex_index
end_header
17.241879 88.481178 26.429325
22.603289 81.540802 34.195953
9.629138 80.467567 29.711304
15.572306 75.611443 37.837547
23.233923 87.686874 27.64477
20.07905 85.626686 30.277863
6.66969 82.372482 25.617872
5.749183 76.443893 30.475183
14.295361 90.617554 22.478405
25.474577 82.893356 31.138166
13.534868 84.834038 28.199711
8.756617 74.270538 34.522747
12.811666 78.454735 33.74456
16.443193 82.217316 32.439625
19.291204 79.042831 36.438156
17.544418 91.222351 23.437271
18.922411 89.935532 25.373259
20.385666 88.464729 27.26717
18.677933 87.033226 28.505241
22.980381 84.799828 30.849701
24.508057 85.561295 29.217396
24.086994 82.363457 32.788532
25.240976 79.823853 34.374916
23.79228 79.091759 36.02924
8.127953 81.573311 27.538622
10.084864 83.681168 26.94165
12.05064 85.76355 26.258385
11.552681 82.711281 28.953894
12.21334 75.028351 36.26524
14.208841 77.063965 35.831284
14.63519 80.480385 33.067184
15.956764 79.049141 35.103279
17.9499 80.800789 34.43013
17.443676 77.458427 37.201378
27.526613 79.999382 30.87081
28.441395 79.78038 28.691748
21.763588 86.704292 29.14444
21.328085 83.732597 32.254925
6.277532 79.494972 28.100616
7.6658 78.524033 30.057125
15.673729 89.534676 24.505558
26.707436 82.991058 29.360683
26.497929 80.118752 32.621994
12.456595 88.554054 23.578854
13.924811 87.794334 25.381454
15.484394 86.726219 27.436607
7.12847 75.269112 32.516979
9.212802 77.357475 32.232796
10.767974 76.172661 34.343437
11.300366 79.525215 31.769608
13.2218 81.741074 31.01095
15.071468 83.695343 30.272118
16.950748 85.414459 29.535727
18.323143 84.014435 31.490515
19.740873 82.471771 33.368931
21.021471 80.445648 35.400532
22.092371 78.162033 37.377861
14.890573 76.337704 36.834415
13.916491 75.235805 37.153208
14.598224 74.509545 38.15634
27.910018 78.402778 31.498088
27.432827 78.599591 32.423471
6.013357 77.969433 29.2879
5.237708 78.413601 28.293553
4.973534 76.888061 29.480837
15.177881 91.494568 21.940779
14.332541 91.904217 20.958824
14.984545 90.076115 23.491982
15.867065 90.953129 22.954355
15.177881 91.494568 21.940779
28.83656 79.428737 27.636023
28.746931 78.162586 29.303672
23.953683 88.004188 26.806942
23.339028 89.09856 25.938492
25.648021 84.372151 29.351036
25.164762 85.70612 28.390651
24.991317 84.227326 30.177781
26.091006 82.942207 30.249424
26.264451 84.421001 28.462294
25.648021 84.372151 29.351036
25.701899 78.448262 35.138893
25.013512 78.182229 36.031187
6.851283 83.776073 24.323705
5.941244 82.688606 24.70727
11.449736 87.51839 23.959302
11.645993 88.80981 22.700686
7.942544 74.769825 33.519863
6.948078 73.689084 33.678976
7.762152 73.189796 34.68186
21.929006 76.390346 38.8869
21.300683 77.52824 37.941395
22.709153 77.090656 38.142815
21.929006 76.390346 38.8869
18.407805 92.060063 22.666857
17.643444 92.554917 21.835158
19.096801 91.416653 23.63485
18.407805 92.060063 22.666857
18.233415 90.578941 24.405265
19.788376 90.640469 24.654364
19.096801 91.416653 23.63485
19.654038 89.200131 26.320214
20.520004 89.905068 25.60132
19.788376 90.640469 24.654364
4.744167 75.285301 30.720249
4.973534 76.888061 29.480837
13.445645 90.901947 21.579473
14.332541 91.904217 20.958824
24.289164 77.816181 36.858349
25.013512 78.182229 36.031187
24.516628 79.457806 35.202078
8.309451 82.992379 26.265083
7.580319 83.391964 25.304708
7.398822 81.972897 26.578247
9.287907 84.046307 25.966597
8.309451 82.992379 26.265083
9.106409 82.62724 27.240136
10.26387 85.081947 25.6407
9.287907 84.046307 25.966597
11.067752 84.722359 26.600017
11.246758 86.123138 25.299067
10.26387 85.081947 25.6407
8.47709 72.533218 35.697717
7.762152 73.189796 34.68186
12.918741 74.217998 37.370186
11.916232 73.199467 37.518776
13.211091 76.046158 36.048262
12.918741 74.217998 37.370186
13.916491 75.235805 37.153208
27.984004 79.889881 29.781279
28.084036 81.276241 28.078721
27.626645 81.385742 29.168252
28.367409 78.293277 30.408557
27.984004 79.889881 29.781279
27.910018 78.402778 31.498088
28.746931 78.162586 29.303672
28.367409 78.293277 30.408557
22.602938 88.729885 26.659106
23.339028 89.09856 25.938492
21.178809 89.118813 26.470306
20.520004 89.905068 25.60132
21.86777 88.238594 27.40894
21.178809 89.118813 26.470306
21.074627 87.58451 28.205805
22.498756 87.195583 28.394605
22.602938 88.729885 26.659106
21.86777 88.238594 27.40894
5.716642 81.311161 25.900641
5.941244 82.688606 24.70727
5.520563 79.872406 27.142013
5.237708 78.413601 28.293553
6.473611 80.933727 26.859244
5.716642 81.311161 25.900641
5.520563 79.872406 27.142013
15.303824 73.774532 39.152126
14.598224 74.509545 38.15634
16.222945 74.692268 38.91239
15.303824 73.774532 39.152126
16.802409 91.796966 22.420212
17.643444 92.554917 21.835158
16.609074 90.378513 23.971415
16.802409 91.796966 22.420212
15.867065 90.953129 22.954355
28.523596 81.103283 26.960318
28.084036 81.276241 28.078721
28.523596 81.103283 26.960318
28.83656 79.428737 27.636023
24.59075 86.941399 27.593255
23.953683 88.004188 26.806942
23.87099 86.624085 28.431083
24.59075 86.941399 27.593255
25.164762 85.70612 28.390651
26.812156 84.35913 27.639023
26.264451 84.421001 28.462294
27.217056 82.88158 28.413188
26.812156 84.35913 27.639023
27.117024 81.49522 30.115747
27.626645 81.385742 29.168252
27.217056 82.88158 28.413188
26.918485 78.659276 33.299063
27.432827 78.599591 32.423471
27.012271 80.059067 31.746402
26.330376 78.595711 34.262432
25.869453 79.971303 33.498455
25.701899 78.448262 35.138893
26.750932 77.136235 34.939501
26.918485 78.659276 33.299063
26.330376 78.595711 34.262432
6.851283 83.776073 24.323705
7.580319 83.391964 25.304708
12.526262 89.870197 22.129697
11.645993 88.80981 22.700686
13.375978 89.585804 23.02863
13.445645 90.901947 21.579473
12.526262 89.870197 22.129697
12.253618 87.158802 24.918619
11.449736 87.51839 23.959302
11.246758 86.123138 25.299067
5.446115 74.783157 31.66159
4.744167 75.285301 30.720249
6.135758 74.195767 32.682488
6.948078 73.689084 33.678976
6.438827 75.856503 31.496081
5.446115 74.783157 31.66159
6.135758 74.195767 32.682488
9.478537 73.485591 35.654808
8.47709 72.533218 35.697717
11.206899 73.864498 36.526055
11.916232 73.199467 37.518776
10.484216 74.436653 35.565153
11.206899 73.864498 36.526055
11.490657 75.600506 35.304339
9.762296 75.221599 34.433092
9.478537 73.485591 35.654808
10.484216 74.436653 35.565153
17.158631 75.61576 38.594305
16.507991 76.534935 37.519463
16.222945 74.692268 38.91239
18.095723 76.443203 38.288166
17.158631 75.61576 38.594305
19.019487 77.235405 37.906555
18.36744 78.250629 36.819767
18.095723 76.443203 38.288166
19.900099 77.968639 37.471542
19.019487 77.235405 37.906555
20.765233 78.670048 36.952731
20.156337 79.74424 35.919344
19.900099 77.968639 37.471542
21.556921 79.303841 36.389196
20.765233 78.670048 36.952731
21.300683 77.52824 37.941395
23.559108 77.555519 37.468504
22.942326 78.626896 36.703551
22.709153 77.090656 38.142815
24.289164 77.816181 36.858349
23.559108 77.555519 37.468504
3 0 16 15
3 0 18 16
3 1 21 19
3 1 23 21
3 2 25 24
3 2 27 25
3 3 57 59
3 57 29 58
3 57 58 59
3 3 31 29
3 3 33 31
3 61 60 34
3 5 36 17
3 5 37 36
3 7 62 64
3 62 38 63
3 62 63 64
3 7 39 38
3 8 65 66
3 8 67 69
3 67 40 68
3 67 68 69
3 71 70 35
3 4 72 73
3 9 74 76
3 76 75 20
3 74 75 76
3 9 77 79
3 77 41 78
3 77 78 79
3 9 42 41
3 81 80 22
3 6 82 83
3 84 43 85
3 10 44 26
3 10 45 44
3 11 86 88
3 86 46 87
3 86 87 88
3 11 47 46
3 12 48 28
3 12 49 48
3 12 50 49
3 13 51 30
3 13 52 51
3 13 53 52
3 14 54 32
3 14 55 54
3 89 56 90
3 92 91 56
3 15 93 94
3 16 95 97
3 97 96 15
3 95 96 97
3 16 98 99
3 16 100 102
3 100 17 101
3 100 101 102
3 18 17 16
3 18 5 17
3 103 7 104
3 105 8 106
3 19 20 4
3 21 20 19
3 21 9 20
3 21 22 9
3 23 22 21
3 23 107 109
3 109 108 22
3 107 108 109
3 24 110 112
3 112 111 6
3 110 111 112
3 25 113 115
3 115 114 24
3 113 114 115
3 25 116 117
3 25 118 120
3 118 26 119
3 118 119 120
3 27 26 25
3 27 10 26
3 121 11 122
3 123 28 124
3 29 125 127
3 125 28 126
3 125 126 127
3 29 12 28
3 29 30 12
3 31 30 29
3 31 13 30
3 31 32 13
3 33 32 31
3 33 14 32
3 34 128 130
3 128 35 129
3 128 129 130
3 131 35 132
3 133 132 34
3 131 132 133
3 135 134 35
3 136 4 137
3 17 138 139
3 36 140 142
3 142 141 17
3 140 141 142
3 36 143 145
3 143 4 144
3 143 144 145
3 36 19 4
3 37 19 36
3 37 1 19
3 146 6 147
3 38 148 149
3 38 150 152
3 150 6 151
3 150 151 152
3 38 24 6
3 39 24 38
3 39 2 24
3 153 3 154
3 156 155 3
3 157 15 158
3 40 159 161
3 159 15 160
3 159 160 161
3 40 0 15
3 35 162 163
3 165 164 35
3 20 166 168
3 168 167 4
3 166 167 168
3 170 169 20
3 41 171 172
3 41 173 174
3 41 175 177
3 175 34 176
3 175 176 177
3 42 34 41
3 42 178 180
3 180 179 34
3 178 179 180
3 22 42 9
3 181 42 182
3 183 182 22
3 181 182 183
3 186 185 42
3 184 185 186
3 188 187 6
3 43 189 190
3 43 191 193
3 191 8 192
3 191 192 193
3 26 194 196
3 194 43 195
3 194 195 196
3 44 43 26
3 44 8 43
3 44 40 8
3 45 40 44
3 45 0 40
3 197 7 198
3 46 199 200
3 46 201 203
3 201 7 202
3 201 202 203
3 46 39 7
3 47 39 46
3 47 2 39
3 204 11 205
3 28 206 207
3 48 208 210
3 210 209 28
3 208 209 210
3 48 211 213
3 211 11 212
3 211 212 213
3 48 47 11
3 49 47 48
3 49 2 47
3 49 27 2
3 50 27 49
3 50 10 27
3 30 50 12
3 51 50 30
3 51 10 50
3 51 45 10
3 52 45 51
3 52 0 45
3 52 18 0
3 53 18 52
3 53 5 18
3 32 53 13
3 54 53 32
3 54 5 53
3 54 37 5
3 55 37 54
3 55 1 37
3 214 33 215
3 216 215 3
3 214 215 216
3 217 33 218
3 219 14 220
3 221 220 33
3 219 220 221
3 222 14 223
3 224 55 225
3 226 225 14
3 224 225 226
3 56 227 229
3 227 55 228
3 227 228 229
3 56 1 55
3 56 23 1
3 230 23 231
3 232 231 56
3 230 231 232
3 234 233 23
