ply
format ascii 1.0
element vertex 213
property float x
property float y
property float z
element face 195
property list uchar int vertex_index
end_header
40.073246 -8.05216 -37.091099
40.061512 -1.192198 -46.077862
39.807377 -10.033036 -50.493679
40.489174 -12.539334 -45.982841
39.961639 -17.78157 -47.515701
38.83165 -15.906879 -51.750401
39.241756 5.328503 -47.527035
40.223408 -4.465482 -41.482506
40.513855 -8.388499 -43.983826
40.186665 -5.362729 -48.366028
38.523846 -7.824811 -54.611595
37.040668 -13.404509 -55.751751
39.71801 1.69249 -42.938225
40.498062 -9.59259 -41.80978
40.589794 -11.771838 -42.6842
40.231071 -11.348484 -48.219135
40.373772 -8.876259 -47.334679
40.053898 -7.703946 -49.586262
39.810673 -3.927192 -50.656929
39.591213 -6.20205 -51.761349
38.945625 -4.879153 -53.966324
39.251904 -8.830779 -52.581474
38.081738 -18.644064 -52.233353
38.076599 -14.467805 -53.767605
37.185268 -17.595953 -54.069225
40.19698 -2.854779 -43.77578
40.021442 -1.352817 -42.249008
39.929806 0.289625 -44.534058
39.002342 6.680133 -46.001133
40.596703 -13.961702 -43.747444
40.300732 -15.228508 -46.740479
39.937626 -13.975526 -49.025154
39.416729 -12.860793 -51.182663
39.487328 -16.716003 -49.703609
38.892719 -19.802931 -50.077648
39.827961 0.230132 -48.356949
39.727844 1.96823 -46.802261
40.171494 -6.213918 -39.209961
40.349998 -7.781084 -40.587917
40.385704 -6.229977 -42.73452
40.333748 -4.749454 -44.96048
40.55249 -10.401594 -45.000294
40.408131 -6.702262 -46.120953
40.166454 -3.249129 -47.295124
39.848053 -1.665259 -49.679737
38.759483 -11.710772 -53.205364
37.861423 -10.712534 -55.261074
36.842754 -9.472034 -57.187603
40.036255 -3.06129 -40.075802
39.556938 3.39852 -45.274948
40.032989 -6.562701 -37.438936
39.941061 -5.897946 -36.713262
39.981318 -7.387405 -36.365425
40.584772 -13.551507 -42.143404
40.554857 -12.455389 -41.635551
37.125383 -19.773447 -53.253725
37.633503 -18.120009 -53.151289
37.573618 -20.297503 -52.335789
36.605574 -19.167271 -54.166678
37.125383 -19.773447 -53.253725
40.131186 -16.505039 -47.12809
40.259676 -17.266272 -46.043765
40.09013 -18.542803 -46.431376
38.785069 -21.755313 -49.402744
39.174074 -20.201461 -49.104873
38.431272 -21.197633 -50.397667
38.785069 -21.755313 -49.402744
39.606661 1.9816 -48.752394
39.621937 1.151851 -49.516699
40.37136 -9.442773 -40.058199
40.293242 -8.647695 -39.463895
39.605436 -2.03995 -51.283648
39.547556 -3.291152 -51.774725
38.313647 -5.852448 -55.363453
38.524536 -4.379618 -55.040818
38.734735 -6.351982 -54.28896
38.047419 -7.189298 -55.669323
38.313647 -5.852448 -55.363453
36.497047 -12.801611 -56.632166
36.39809 -10.835373 -57.350092
36.941711 -11.438271 -56.469677
39.757033 0.757078 -41.732019
39.908749 -0.765575 -41.387411
39.869726 0.169837 -42.593617
39.577713 2.24792 -42.091904
39.757033 0.757078 -41.732019
39.138061 5.71133 -44.763567
38.838241 7.169613 -45.072227
39.897018 -19.750989 -46.795054
40.09013 -18.542803 -46.431376
39.708534 -19.19078 -47.8239
39.897018 -19.750989 -46.795054
40.508991 -11.365765 -41.198341
40.445392 -10.348526 -40.669131
40.543928 -10.682214 -42.24699
40.508991 -11.365765 -41.198341
40.554857 -12.455389 -41.635551
39.437826 -4.428581 -52.326935
39.547556 -3.291152 -51.774725
39.700943 -5.064621 -51.209139
39.268419 -5.540601 -52.863837
39.115032 -3.767133 -53.429423
39.437826 -4.428581 -52.326935
36.658178 -16.994692 -54.965953
36.585878 -14.89897 -55.807216
37.112968 -15.500231 -54.910488
36.658178 -16.994692 -54.965953
36.605574 -19.167271 -54.166678
38.8008 7.617653 -47.200051
39.122049 6.004318 -46.764084
38.920507 6.941838 -47.963002
38.661133 8.138846 -46.303652
38.8008 7.617653 -47.200051
38.838241 7.169613 -45.072227
38.661133 8.138846 -46.303652
40.568404 -15.746718 -43.146332
40.588226 -14.646439 -42.675026
40.538998 -15.230648 -44.173535
40.568404 -15.746718 -43.146332
40.485233 -14.519464 -45.291233
40.542938 -13.250518 -44.865143
40.538998 -15.230648 -44.173535
40.391013 -15.864051 -45.670052
40.259676 -17.266272 -46.043765
40.394953 -13.883921 -46.36166
40.485233 -14.519464 -45.291233
40.391013 -15.864051 -45.670052
39.471379 -18.657997 -48.917854
39.724483 -17.248787 -48.609655
39.708534 -19.19078 -47.8239
39.190023 -18.259467 -49.890629
39.471379 -18.657997 -48.917854
39.174074 -20.201461 -49.104873
38.025782 -20.618199 -51.47552
38.487229 -19.223498 -51.155501
38.431272 -21.197633 -50.397667
37.573618 -20.297503 -52.335789
38.025782 -20.618199 -51.47552
39.556602 2.850649 -47.97505
39.777902 1.099181 -47.579605
39.606661 1.9816 -48.752394
39.313558 4.530786 -48.337437
39.4848 3.648367 -47.164648
39.556602 2.850649 -47.97505
39.009344 6.276658 -48.791037
39.313558 4.530786 -48.337437
38.920507 6.941838 -47.963002
39.009344 6.276658 -48.791037
40.20399 -7.864111 -38.774918
40.12237 -7.133039 -38.15053
40.154865 -8.783233 -37.715486
40.260746 -6.997501 -39.898939
40.20399 -7.864111 -38.774918
40.293242 -8.647695 -39.463895
40.42403 -8.686837 -41.198848
40.37136 -9.442773 -40.058199
40.445392 -10.348526 -40.669131
40.593249 -12.86677 -43.215822
40.584772 -13.551507 -42.143404
40.588226 -14.646439 -42.675026
39.631983 0.204156 -50.178093
39.621937 1.151851 -49.516699
39.838007 -0.717564 -49.018343
39.624127 -0.908984 -50.795051
39.829363 -2.796225 -50.168333
39.605436 -2.03995 -51.283648
39.631983 0.204156 -50.178093
39.624127 -0.908984 -50.795051
38.752372 -3.072446 -54.556204
39.115032 -3.767133 -53.429423
38.752372 -3.072446 -54.556204
38.524536 -4.379618 -55.040818
37.716207 -8.633159 -55.994062
38.047419 -7.189298 -55.669323
38.192634 -9.268673 -54.936335
37.206873 -8.01291 -56.957327
37.716207 -8.633159 -55.994062
37.352089 -10.092284 -56.224339
36.645837 -7.364282 -57.961268
37.206873 -8.01291 -56.957327
36.234518 -8.831533 -58.129462
36.645837 -7.364282 -57.961268
36.234518 -8.831533 -58.129462
36.39809 -10.835373 -57.350092
36.497047 -12.801611 -56.632166
36.585878 -14.89897 -55.807216
39.998342 -8.843206 -36.050053
39.981318 -7.387405 -36.365425
40.069481 -9.553328 -36.638609
39.998342 -8.843206 -36.050053
40.154865 -8.783233 -37.715486
40.069481 -9.553328 -36.638609
40.082114 -5.643579 -38.498368
40.032989 -6.562701 -37.438936
40.12237 -7.133039 -38.15053
40.014494 -4.067266 -38.931288
40.082114 -5.643579 -38.498368
40.103875 -4.637604 -39.642882
39.919147 -2.5164 -39.23095
40.014494 -4.067266 -38.931288
39.916155 -1.619812 -40.300808
40.028848 -2.207053 -41.162405
39.908749 -0.765575 -41.387411
39.919147 -2.5164 -39.23095
39.916155 -1.619812 -40.300808
39.41536 4.070524 -44.400475
39.27964 5.039326 -45.638041
39.138061 5.71133 -44.763567
39.495896 3.217509 -43.232113
39.637474 2.545505 -44.106587
39.41536 4.070524 -44.400475
39.577713 2.24792 -42.091904
39.495896 3.217509 -43.232113
3 0 50 52
3 50 51 52
3 53 14 54
3 2 17 15
3 2 19 17
3 2 21 19
3 55 24 56
3 57 56 22
3 55 56 57
3 59 58 24
3 1 27 25
3 4 60 62
3 60 30 61
3 60 61 62
3 4 31 30
3 4 33 31
3 63 34 64
3 66 65 34
3 68 67 35
3 69 38 70
3 8 39 13
3 8 40 39
3 3 41 29
3 9 42 16
3 9 43 42
3 9 44 43
3 72 71 18
3 10 73 75
3 75 74 20
3 73 74 75
3 10 76 77
3 5 45 32
3 11 46 23
3 11 47 46
3 11 78 80
3 80 79 47
3 78 79 80
3 7 48 37
3 12 81 83
3 83 82 26
3 81 82 83
3 12 84 85
3 6 49 36
3 87 86 28
3 88 4 89
3 91 90 4
3 92 13 93
3 14 94 96
3 94 13 95
3 94 95 96
3 14 8 13
3 15 16 3
3 17 16 15
3 17 9 16
3 17 18 9
3 19 18 17
3 19 97 99
3 99 98 18
3 97 98 99
3 19 100 102
3 100 20 101
3 100 101 102
3 21 20 19
3 21 10 20
3 22 23 5
3 24 23 22
3 24 11 23
3 24 103 105
3 105 104 11
3 103 104 105
3 107 106 24
3 25 26 7
3 27 26 25
3 27 12 26
3 108 28 109
3 110 109 6
3 108 109 110
3 111 28 112
3 114 113 28
3 115 29 116
3 117 29 118
3 119 3 120
3 121 120 29
3 119 120 121
3 30 122 123
3 30 124 126
3 124 3 125
3 124 125 126
3 30 15 3
3 31 15 30
3 31 2 15
3 31 32 2
3 33 32 31
3 33 5 32
3 127 33 128
3 129 128 4
3 127 128 129
3 34 130 132
3 130 33 131
3 130 131 132
3 34 5 33
3 34 22 5
3 133 22 134
3 135 134 34
3 133 134 135
3 137 136 22
3 35 36 1
3 138 36 139
3 140 139 35
3 138 139 140
3 141 6 142
3 143 142 36
3 141 142 143
3 144 6 145
3 147 146 6
3 148 37 149
3 150 149 0
3 148 149 150
3 38 151 153
3 151 37 152
3 151 152 153
3 38 7 37
3 13 154 156
3 154 38 155
3 154 155 156
3 39 38 13
3 39 7 38
3 39 25 7
3 40 25 39
3 40 1 25
3 29 157 159
3 157 14 158
3 157 158 159
3 41 14 29
3 41 8 14
3 16 41 3
3 42 41 16
3 42 8 41
3 42 40 8
3 43 40 42
3 43 1 40
3 43 35 1
3 44 35 43
3 44 160 162
3 162 161 35
3 160 161 162
3 18 44 9
3 163 44 164
3 165 164 18
3 163 164 165
3 167 166 44
3 20 168 169
3 171 170 20
3 32 21 2
3 45 21 32
3 45 10 21
3 23 45 5
3 46 45 23
3 46 10 45
3 46 172 174
3 174 173 10
3 172 173 174
3 47 175 177
3 177 176 46
3 175 176 177
3 47 178 179
3 47 180 181
3 183 182 47
3 185 184 11
3 186 0 187
3 188 0 189
3 191 190 0
3 37 192 194
3 194 193 0
3 192 193 194
3 48 195 197
3 197 196 37
3 195 196 197
3 48 198 199
3 26 48 7
3 200 48 201
3 202 201 26
3 200 201 202
3 204 203 48
3 36 27 1
3 49 27 36
3 49 12 27
3 28 49 6
3 205 49 206
3 207 206 28
3 205 206 207
3 208 12 209
3 210 209 49
3 208 209 210
3 212 211 12
