ply
format ascii 1.0
element vertex 353
property float x
property float y
property float z
element face 315
property list uchar int vertex_index
end_header
-33.407303 17.995834 -4.516971
-31.695795 22.519112 21.35211
-26.061005 29.149607 26.539948
-32.443512 13.727259 25.753315
-35.249786 21.847075 -3.890259
-37.180702 21.437956 -1.511858
-29.615925 21.017859 25.903303
-28.803818 25.975107 23.832312
-29.934385 16.585411 27.892733
-32.247177 18.119759 23.528206
-26.274677 35.669662 19.926529
-36.291824 20.258337 14.322376
-37.573227 20.98493 9.755327
-38.245049 21.330654 5.330906
-33.536545 23.87479 16.637783
-30.544224 27.418818 19.195669
-27.658155 30.682455 21.98563
-24.885511 34.216049 24.657089
-34.433891 19.35173 18.95965
-38.120697 21.376661 1.483129
-36.314159 21.512833 -2.822751
-28.473806 20.285997 28.13121
-28.200516 22.737516 27.142439
-29.86351 18.805534 26.818344
-24.947672 37.45219 21.22443
-25.592556 38.118294 18.817381
-35.699425 22.558168 13.199208
-36.996037 20.73284 11.958625
-36.356812 23.015934 10.820831
-32.634159 23.30471 18.969339
-32.063694 25.567303 17.954548
-31.189913 24.969246 20.227827
-27.462757 27.58983 25.071375
-28.266186 28.383053 22.853403
-26.860332 29.990061 24.268051
-26.252117 32.571785 23.194817
-25.493702 31.679733 25.616064
-32.452324 11.539155 26.835804
-33.688591 14.406609 23.548388
-32.068302 20.404274 22.292027
-33.3578 18.71953 21.32015
-33.136375 21.017075 19.974195
-34.036118 21.637335 17.769188
-38.290596 21.379335 3.319871
-34.409248 20.17119 -4.317873
-30.608212 22.001535 23.618513
-30.260336 24.369364 22.45195
-29.297951 23.475182 24.809587
-27.858595 25.182697 26.128887
-26.466944 26.876129 27.446764
-31.191387 15.093775 26.836111
-32.376213 15.825304 24.706522
-31.126913 17.329247 25.727177
-30.978539 19.750612 24.513245
-36.728836 18.124916 15.43076
-37.523308 18.409151 13.191963
-38.10984 18.807249 10.922084
-38.570965 18.997858 8.695462
-38.815605 19.189348 6.516719
-38.051048 21.039953 7.553891
-34.454178 24.247566 14.223005
-32.979866 26.0676 15.494598
-31.454489 27.76638 16.934298
-29.968584 29.594343 18.157419
-29.698555 26.776861 21.472754
-29.109266 28.961029 20.616453
-28.507977 31.266634 19.560728
-27.091114 33.088486 20.81131
-25.553356 35.003441 22.362997
-24.182413 36.89603 23.679859
-33.551029 16.580141 22.442768
-34.68103 17.125437 20.208319
-35.770233 17.683729 17.800982
-35.382935 19.939631 16.625891
-34.899094 22.133488 15.521119
-37.759327 21.321142 -0.112141
-27.856728 21.016848 28.700795
-27.9143 19.828738 29.218199
-27.9143 19.828738 29.218199
-28.569747 19.174243 28.569707
-24.621853 38.652687 20.71768
-24.262842 38.419548 21.913997
-35.735941 23.88323 11.392603
-36.028118 22.787051 12.01002
-35.407247 23.654347 12.581792
-36.04938 24.027951 10.282203
-35.735941 23.88323 11.392603
-32.648097 18.235802 -4.925693
-32.791784 16.846079 -4.561861
-33.592869 16.70904 -4.115732
-34.129254 17.738904 -4.020586
-32.791784 16.846079 -4.561861
-33.592869 16.70904 -4.115732
-32.447918 12.633207 26.294559
-31.822664 12.236704 27.365878
-31.818258 13.330756 26.824634
-33.078171 12.95963 25.243447
-33.082577 11.865578 25.784691
-32.447918 12.633207 26.294559
-33.066052 14.066934 24.650852
-33.70071 13.299305 24.140983
-33.078171 12.95963 25.243447
-34.640964 22.214382 -4.349383
-34.220695 21.37644 -4.56319
-34.829517 21.009132 -4.104066
-36.995865 20.440509 -1.778736
-37.429103 20.379262 -1.086503
-35.452133 20.716333 -3.592667
-35.984319 20.549211 -3.058913
-35.781972 21.679954 -3.356505
-34.829517 21.009132 -4.104066
-35.031864 19.87839 -3.806474
-35.452133 20.716333 -3.592667
-27.369889 24.751404 27.255574
-28.029556 23.960107 26.635663
-27.540849 23.528813 27.76235
-26.674063 25.598119 27.914513
-27.16277 26.029413 26.787826
-27.369889 24.751404 27.255574
-29.951593 15.482957 28.398775
-29.323172 16.219884 28.939614
-30.562886 15.839593 27.364422
-30.580094 14.737139 27.870463
-29.951593 15.482957 28.398775
-26.646281 35.898561 18.734003
-27.043582 34.692749 19.188626
-25.978887 38.233065 17.647318
-25.247097 39.331387 18.280489
-38.555365 20.289361 4.90374
-38.840643 19.218708 5.496647
-38.530327 20.260001 5.923813
-38.409075 20.320043 2.056575
-38.494025 20.321381 2.974946
-38.205647 21.377998 2.4015
-38.216428 20.32844 1.203197
-38.409075 20.320043 2.056575
-37.940012 21.348901 0.685494
-38.035743 20.30068 0.405562
-38.216428 20.32844 1.203197
-35.049453 22.972897 -4.063617
-35.554147 22.717075 -3.60755
-36.47332 22.377772 -2.549701
-36.74743 21.475395 -2.167304
-36.906591 22.340333 -1.894255
-36.086334 22.549954 -3.073796
-36.47332 22.377772 -2.549701
-35.554147 22.717075 -3.60755
-35.781972 21.679954 -3.356505
-36.086334 22.549954 -3.073796
-27.720084 22.242608 28.206409
-28.337161 21.511756 27.636824
-27.856728 21.016848 28.700795
-27.540849 23.528813 27.76235
-27.720084 22.242608 28.206409
-29.300036 17.323951 28.450468
-29.323172 16.219884 28.939614
-29.264599 18.434012 27.913274
-29.898947 17.695473 27.355539
-29.300036 17.323951 28.450468
-29.168658 19.545766 27.474777
-29.264599 18.434012 27.913274
-28.569747 19.174243 28.569707
-24.944295 38.985739 19.514156
-25.270114 37.785242 20.020906
-24.621853 38.652687 20.71768
-25.247097 39.331387 18.280489
-24.944295 38.985739 19.514156
-36.670572 23.078583 9.661297
-37.27878 22.063081 9.128545
-36.965019 22.000432 10.288079
-36.670572 23.078583 9.661297
-36.04938 24.027951 10.282203
-31.734446 11.179713 27.962061
-31.822664 12.236704 27.365878
-32.28487 10.529321 27.522441
-31.734446 11.179713 27.962061
-32.979815 10.772215 26.47509
-32.28487 10.529321 27.522441
-32.979815 10.772215 26.47509
-33.082577 11.865578 25.784691
-34.34603 13.569852 23.021961
-33.70071 13.299305 24.140983
-34.245354 14.690346 22.502106
-34.34603 13.569852 23.021961
-37.960678 22.370843 3.741181
-38.267823 21.354995 4.325388
-37.937905 22.346503 4.746698
-37.959614 22.434426 2.795897
-37.960678 22.370843 3.741181
-37.874665 22.433089 1.877526
-38.205647 21.377998 2.4015
-37.959614 22.434426 2.795897
-37.815596 22.350294 0.99014
-37.874665 22.433089 1.877526
-33.759529 20.443441 -4.728689
-33.258556 19.355762 -4.828238
-33.908276 19.083512 -4.417422
-33.759529 20.443441 -4.728689
-34.220695 21.37644 -4.56319
-34.640964 22.214382 -4.349383
-35.049453 22.972897 -4.063617
-36.562593 20.477947 -2.434183
-36.995865 20.440509 -1.778736
-36.74743 21.475395 -2.167304
-36.562593 20.477947 -2.434183
-35.984319 20.549211 -3.058913
-34.630226 18.826582 -3.921036
-35.031864 19.87839 -3.806474
-33.908276 19.083512 -4.417422
-34.129254 17.738904 -4.020586
-34.630226 18.826582 -3.921036
-31.192196 14.014014 27.366031
-30.580094 14.737139 27.870463
-31.817449 14.410517 26.294713
-31.818258 13.330756 26.824634
-31.192196 14.014014 27.366031
-26.30522 37.122877 18.179429
-26.646281 35.898561 18.734003
-25.933616 36.893978 19.371955
-26.30522 37.122877 18.179429
-25.978887 38.233065 17.647318
-37.308039 17.165105 14.94886
-36.875889 17.059521 16.043408
-37.705275 17.307223 13.829462
-37.308039 17.165105 14.94886
-37.126072 18.267034 14.311362
-38.043198 17.473583 12.679508
-37.705275 17.307223 13.829462
-38.336464 17.672632 11.544569
-38.043198 17.473583 12.679508
-37.816574 18.6082 12.057023
-38.562587 17.800328 10.488412
-38.336464 17.672632 11.544569
-38.79315 17.895632 9.375101
-38.562587 17.800328 10.488412
-38.340402 18.902553 9.808773
-38.922315 18.02471 8.320483
-38.79315 17.895632 9.375101
-38.693285 19.093603 7.60609
-39.044635 18.120455 7.231112
-38.922315 18.02471 8.320483
-37.517691 22.090592 8.027827
-37.812138 21.012442 8.654609
-37.27878 22.063081 9.128545
-37.72242 22.165872 6.930939
-37.517691 22.090592 8.027827
-37.81942 22.311222 5.819446
-38.148049 21.185303 6.442398
-37.72242 22.165872 6.930939
-37.937905 22.346503 4.746698
-37.81942 22.311222 5.819446
-32.648097 18.235802 -4.925693
-33.258556 19.355762 -4.828238
-34.122284 25.339765 13.696549
-34.784624 24.499046 13.09369
-33.385128 26.249783 14.332346
-34.122284 25.339765 13.696549
-33.717022 25.157583 14.858802
-32.652929 27.150304 14.966855
-33.385128 26.249783 14.332346
-31.890241 27.999695 15.686705
-32.652929 27.150304 14.966855
-32.217177 26.91699 16.214448
-31.144855 28.925938 16.29672
-31.890241 27.999695 15.686705
-30.401902 29.839919 16.908281
-31.144855 28.925938 16.29672
-30.711537 28.680362 17.545859
-29.666919 30.69051 17.601731
-30.401902 29.839919 16.908281
-28.936615 31.526656 18.303386
-29.666919 30.69051 17.601731
-29.238281 30.430488 18.859074
-28.160232 32.491235 19.005725
-28.936615 31.526656 18.303386
-27.451801 33.402161 19.631016
-28.160232 32.491235 19.005725
-27.799546 32.17756 20.186019
-26.682896 34.379074 20.368919
-27.043582 34.692749 19.188626
-27.451801 33.402161 19.631016
-23.880212 38.141468 23.141711
-24.262842 38.419548 21.913997
-24.565043 37.17411 22.452145
-34.176572 15.777112 21.949296
-34.245354 14.690346 22.502106
-33.61981 15.493375 22.995578
-34.741573 16.04976 20.832071
-34.176572 15.777112 21.949296
-34.116029 16.852789 21.325544
-35.348404 16.270612 19.639459
-34.741573 16.04976 20.832071
-35.893006 16.549758 18.435791
-35.348404 16.270612 19.639459
-35.225631 17.404583 19.004651
-36.396587 16.838928 17.228518
-35.893006 16.549758 18.435791
-36.249534 17.904322 16.615871
-36.875889 17.059521 16.043408
-36.396587 16.838928 17.228518
-34.784624 24.499046 13.09369
-35.407247 23.654347 12.581792
-35.076802 23.402867 13.711106
-26.001978 26.392367 28.580738
-26.674063 25.598119 27.914513
-25.789939 27.659223 28.140931
-26.001978 26.392367 28.580738
-25.58697 28.795963 27.687523
-26.263975 28.012868 26.993356
-25.789939 27.659223 28.140931
-25.372308 30.062524 27.180981
-25.58697 28.795963 27.687523
-25.088656 31.327587 26.719039
-25.777354 30.41467 26.078006
-25.372308 30.062524 27.180981
-24.762676 32.625221 26.348767
-25.088656 31.327587 26.719039
-24.458581 33.893379 25.869279
-25.189607 32.947891 25.136577
-24.762676 32.625221 26.348767
-24.170637 35.159156 25.399802
-24.458581 33.893379 25.869279
-23.819088 36.499147 24.911187
-24.533962 35.556039 24.168474
-24.170637 35.159156 25.399802
-23.541839 37.838739 24.300038
-23.819088 36.499147 24.911187
-23.880212 38.141468 23.141711
-23.541839 37.838739 24.300038
-39.087044 18.150433 6.159866
-39.044635 18.120455 7.231112
-39.087044 18.150433 6.159866
-38.840643 19.218708 5.496647
-38.578139 20.313702 3.898223
-38.555365 20.289361 4.90374
-38.267823 21.354995 4.325388
-38.578139 20.313702 3.898223
-38.494025 20.321381 2.974946
-37.718416 20.320855 -0.386645
-38.035743 20.30068 0.405562
-37.470014 21.379549 -0.811999
-37.429103 20.379262 -1.086503
-37.718416 20.320855 -0.386645
-37.634911 22.322534 0.192505
-37.940012 21.348901 0.685494
-37.815596 22.350294 0.99014
-37.459301 22.327069 -0.549129
-37.634911 22.322534 0.192505
-37.169989 22.385476 -1.248987
-37.470014 21.379549 -0.811999
-37.459301 22.327069 -0.549129
-36.906591 22.340333 -1.894255
-37.169989 22.385476 -1.248987
3 77 76 21
3 78 21 79
3 81 80 24
3 82 28 83
3 84 83 26
3 82 83 84
3 86 85 28
3 0 87 88
3 0 89 90
3 0 91 92
3 1 31 29
3 2 34 32
3 2 36 34
3 3 93 95
3 93 37 94
3 93 94 95
3 3 96 98
3 98 97 37
3 96 97 98
3 3 99 101
3 99 38 100
3 99 100 101
3 1 41 39
3 1 29 41
3 4 102 104
3 104 103 44
3 102 103 104
3 5 105 106
3 4 107 109
3 109 108 20
3 107 108 109
3 4 110 112
3 110 44 111
3 110 111 112
3 6 47 45
3 113 48 114
3 115 114 22
3 113 114 115
3 116 49 117
3 118 117 48
3 116 117 118
3 8 119 120
3 8 121 123
3 121 50 122
3 121 122 123
3 8 52 50
3 6 53 23
3 6 45 53
3 10 124 125
3 127 126 25
3 11 55 54
3 12 56 27
3 12 57 56
3 12 59 57
3 14 61 60
3 15 62 30
3 15 63 62
3 7 64 46
3 16 65 33
3 16 66 65
3 16 67 66
3 17 68 35
3 17 69 68
3 9 70 51
3 18 71 40
3 18 72 71
3 18 73 72
3 14 74 42
3 14 60 74
3 13 128 130
3 130 129 58
3 128 129 130
3 19 131 133
3 133 132 43
3 131 132 133
3 19 134 135
3 19 136 138
3 136 75 137
3 136 137 138
3 140 139 4
3 141 20 142
3 143 142 5
3 141 142 143
3 144 20 145
3 146 4 147
3 148 147 20
3 146 147 148
3 21 22 6
3 149 22 150
3 151 150 21
3 149 150 151
3 153 152 22
3 154 8 155
3 156 23 157
3 158 157 8
3 156 157 158
3 21 159 161
3 159 23 160
3 159 160 161
3 21 6 23
3 24 25 10
3 162 25 163
3 164 163 24
3 162 163 164
3 166 165 25
3 26 27 11
3 28 27 26
3 28 12 27
3 28 167 169
3 169 168 12
3 167 168 169
3 171 170 28
3 29 30 14
3 31 30 29
3 31 15 30
3 32 33 7
3 34 33 32
3 34 16 33
3 34 35 16
3 36 35 34
3 36 17 35
3 37 172 173
3 37 174 175
3 37 176 177
3 179 178 37
3 38 180 181
3 38 182 183
3 39 40 9
3 41 40 39
3 41 18 40
3 41 42 18
3 29 42 41
3 29 14 42
3 184 43 185
3 186 185 13
3 184 185 186
3 187 43 188
3 189 19 190
3 191 190 43
3 189 190 191
3 193 192 19
3 44 194 196
3 196 195 0
3 194 195 196
3 198 197 44
3 200 199 4
3 20 201 203
3 203 202 5
3 201 202 203
3 205 204 20
3 44 206 207
3 44 208 210
3 208 0 209
3 208 209 210
3 45 46 1
3 47 46 45
3 47 7 46
3 22 47 6
3 48 47 22
3 48 7 47
3 48 32 7
3 49 32 48
3 49 2 32
3 50 211 212
3 50 213 215
3 213 3 214
3 213 214 215
3 50 51 3
3 52 51 50
3 52 9 51
3 23 52 8
3 53 52 23
3 53 9 52
3 53 39 9
3 45 39 53
3 45 1 39
3 25 216 218
3 218 217 10
3 216 217 218
3 220 219 25
3 54 221 222
3 55 223 225
3 225 224 54
3 223 224 225
3 55 226 227
3 27 55 11
3 56 55 27
3 56 228 230
3 230 229 55
3 228 229 230
3 56 231 232
3 57 233 235
3 235 234 56
3 233 234 235
3 57 236 237
3 57 238 240
3 238 58 239
3 238 239 240
3 59 58 57
3 59 13 58
3 241 59 242
3 243 242 12
3 241 242 243
3 244 59 245
3 246 13 247
3 248 247 59
3 246 247 248
3 250 249 13
3 252 251 0
3 60 253 254
3 61 255 257
3 257 256 60
3 255 256 257
3 61 258 259
3 30 61 14
3 62 61 30
3 62 260 262
3 262 261 61
3 260 261 262
3 62 263 264
3 63 265 267
3 267 266 62
3 265 266 267
3 63 268 269
3 46 31 1
3 64 31 46
3 64 15 31
3 33 64 7
3 65 64 33
3 65 15 64
3 65 63 15
3 66 63 65
3 66 270 272
3 272 271 63
3 270 271 272
3 66 273 274
3 67 275 277
3 277 276 66
3 275 276 277
3 67 278 280
3 278 10 279
3 278 279 280
3 35 67 16
3 68 67 35
3 68 10 67
3 68 24 10
3 69 24 68
3 69 281 283
3 283 282 24
3 281 282 283
3 51 38 3
3 70 38 51
3 70 284 286
3 286 285 38
3 284 285 286
3 40 70 9
3 71 70 40
3 71 287 289
3 289 288 70
3 287 288 289
3 71 290 291
3 72 292 294
3 294 293 71
3 292 293 294
3 72 295 296
3 72 297 299
3 297 54 298
3 297 298 299
3 73 54 72
3 73 11 54
3 42 73 18
3 74 73 42
3 74 11 73
3 74 26 11
3 60 26 74
3 60 300 302
3 302 301 26
3 300 301 302
3 303 49 304
3 305 49 306
3 307 2 308
3 309 308 49
3 307 308 309
3 310 2 311
3 312 36 313
3 314 313 2
3 312 313 314
3 315 36 316
3 317 17 318
3 319 318 36
3 317 318 319
3 320 17 321
3 322 69 323
3 324 323 17
3 322 323 324
3 325 69 326
3 328 327 69
3 58 329 330
3 332 331 58
3 43 333 335
3 335 334 13
3 333 334 335
3 337 336 43
3 75 338 339
3 75 340 342
3 340 5 341
3 340 341 342
3 343 75 344
3 345 344 19
3 343 344 345
3 346 75 347
3 348 5 349
3 350 349 75
3 348 349 350
3 352 351 5
