ply
format ascii 1.0
element vertex 260
property float x
property float y
property float z
element face 270
property list uchar int vertex_index
end_header
-5.838037 2.50201 57.6474
-17.198212 10.592589 45.956512
-11.346878 6.223547 52.507805
-9.441671 -1.623627 56.104919
-15.77923 2.084874 49.641827
-21.563957 6.250315 42.286362
-8.266015 4.103002 55.479713
-8.602467 8.073249 54.21146
-7.387609 0.579945 57.044212
-10.53962 2.151714 54.241386
-5.938326 -2.781484 58.900234
-16.575878 6.095417 47.736008
-18.663134 4.163206 46.11187
-19.482025 8.480702 44.017788
-14.153295 8.329476 49.512184
-11.597188 10.474047 51.2416
-11.323769 -3.57171 55.115421
-14.752297 -1.705901 51.677036
-12.669014 0.138696 53.031136
-13.609387 4.104956 51.099285
-7.866665 -5.064725 58.086605
-17.736687 0.138093 48.252892
-20.702673 2.173226 44.46603
-23.677544 4.321242 40.404427
-6.938295 3.075036 56.722225
-7.101721 4.902055 56.125687
-6.586735 1.690947 57.328369
-7.962158 2.296625 56.180046
-5.896595 0.093263 58.210739
-16.857405 8.309629 46.876511
-17.965891 7.316104 45.975857
-18.331093 9.39625 45.046024
-12.744125 7.188514 51.069221
-12.912009 9.390967 50.377159
-11.514824 8.287932 51.850773
-10.405881 -2.540227 55.596947
-12.010093 -1.790518 54.109943
-11.135343 -0.755233 54.55159
-10.95718 4.158526 53.362934
-12.069392 3.037102 52.737122
-12.547916 5.135573 51.764603
-13.920815 6.247594 50.250744
-7.760962 -2.276171 57.507877
-6.930441 -3.948346 58.497837
-8.701756 -3.34232 57.087959
-9.624403 -4.352509 56.632038
-15.28154 0.109823 50.686665
-16.305601 -0.955155 49.995094
-16.738691 1.10573 48.987228
-20.125492 5.117217 44.244694
-19.729143 3.136571 45.263866
-21.175974 4.242414 43.324394
-22.175762 3.159391 42.499813
-22.574165 5.137431 41.448097
-9.733996 5.170419 54.079327
-10.066601 7.165518 53.310478
-8.5078 6.080489 54.786671
-7.150337 6.882707 55.580757
-8.327848 -0.560074 56.658848
-10.002749 0.223299 55.186272
-8.958783 1.333968 55.690868
-9.407681 3.17032 54.857788
-6.718472 -1.162092 57.96088
-16.218414 4.120798 48.631912
-17.212681 3.177841 47.905334
-17.753828 5.286197 46.749241
-19.136374 6.252377 45.0079
-20.511702 7.297572 43.185604
-15.680571 9.516026 47.761711
-15.918391 11.88544 46.950134
-14.418795 10.728676 48.680359
-10.139576 9.268133 52.727638
-13.070747 -2.670513 53.43079
-13.638837 -0.7873 52.441849
-14.305622 1.174721 51.288788
-11.615325 1.140019 53.640759
-13.181273 2.082622 52.040447
-14.749125 3.05037 50.34375
-15.022858 5.089121 49.525837
-15.398251 7.212796 48.610027
-8.805903 -6.194323 57.630947
-18.234335 2.128755 47.161575
-19.265511 1.121618 46.355354
-5.822231 3.15154 57.48954
-6.37236 3.438053 57.026953
-6.388166 2.788523 57.184812
-6.212386 2.096478 57.487884
-5.885167 1.516837 57.856184
-5.510819 1.922368 58.015699
-5.510819 1.922368 58.015699
-5.295338 2.582827 57.995394
-5.295338 2.582827 57.995394
-5.822231 3.15154 57.48954
-17.250292 11.812926 45.601749
-17.891495 11.25197 45.046593
-17.891495 11.25197 45.046593
-18.457935 10.6538 44.591349
-17.764653 9.994419 45.501268
-22.267971 6.807021 41.297506
-22.773075 6.250578 40.878374
-22.069061 5.693873 41.867229
-6.459028 6.284346 56.223183
-7.126029 5.892381 55.853222
-6.43472 5.29402 56.495648
-6.396691 7.236687 56.023251
-6.459028 6.284346 56.223183
-20.167457 8.95703 43.109504
-20.682295 8.365464 42.693412
-19.996863 7.889137 43.601696
-12.325245 11.107386 50.459877
-12.982655 10.565846 50.027656
-12.254599 9.932507 50.809379
-11.658361 11.692682 50.889646
-12.325245 11.107386 50.459877
-12.197258 -3.121112 54.273105
-12.714105 -3.648341 53.958536
-11.840616 -4.09894 54.800852
-5.460314 -3.630049 59.418577
-4.990601 -2.976124 59.575743
-6.896581 -5.437093 58.838604
-6.428469 -4.878904 59.04422
-7.398553 -4.506536 58.292221
-7.439393 -5.988084 58.573562
-6.896581 -5.437093 58.838604
-8.336284 -5.629524 57.858776
-7.909013 -6.552883 58.345733
-7.439393 -5.988084 58.573562
-10.952946 -4.551442 55.624254
-10.103262 -4.941841 56.382563
-10.474086 -3.96211 55.873729
-11.840616 -4.09894 54.800852
-10.952946 -4.551442 55.624254
-15.997837 13.086906 46.574883
-15.232034 12.510533 47.46207
-15.184106 -2.252393 51.401331
-14.408317 -2.677669 52.225629
-17.504706 -0.84326 48.747349
-16.789164 -1.389884 49.61845
-17.021144 -0.408531 49.123993
-18.261137 -0.297405 47.815186
-17.504706 -0.84326 48.747349
-20.470674 1.153678 45.010151
-19.752092 0.627874 45.954813
-19.984092 1.647422 45.410692
-21.207267 1.654805 44.03937
-20.470674 1.153678 45.010151
-23.443431 3.23735 40.999207
-22.69254 2.656424 42.0469
-22.926653 3.740316 41.45212
-24.183473 3.783695 39.973526
-23.443431 3.23735 40.999207
-24.407429 4.793034 39.396842
-24.183473 3.783695 39.973526
-6.454073 4.351563 56.728684
-7.020008 3.988545 56.423956
-6.37236 3.438053 57.026953
-6.43472 5.29402 56.495648
-6.454073 4.351563 56.728684
-5.540097 0.717995 58.297369
-5.086269 -0.07847 58.798589
-6.241665 0.892105 57.769554
-5.540097 0.717995 58.297369
-5.885167 1.516837 57.856184
-19.037994 10.026461 44.097459
-19.613461 9.568687 43.583342
-18.906559 8.938476 44.531906
-19.037994 10.026461 44.097459
-18.457935 10.6538 44.591349
-8.597558 9.185074 53.936665
-7.82602 8.526391 54.667727
-23.277513 5.734066 40.437328
-23.829202 5.325971 39.915493
-23.125855 4.729337 40.926262
-23.277513 5.734066 40.437328
-22.773075 6.250578 40.878374
-7.099955 7.93112 55.352375
-7.82602 8.526391 54.667727
-7.876402 7.477978 54.896108
-7.099955 7.93112 55.352375
-6.396691 7.236687 56.023251
-5.495758 -2.169617 59.047197
-4.990601 -2.976124 59.575743
-5.474892 -0.732243 58.70245
-5.086269 -0.07847 58.798589
-5.885831 -1.359921 58.57752
-5.474892 -0.732243 58.70245
-6.307533 -0.534414 58.085809
-6.328399 -1.971788 58.430557
-5.495758 -2.169617 59.047197
-5.885831 -1.359921 58.57752
-21.208794 7.872955 42.217167
-21.734921 7.349327 41.767546
-21.03783 6.773943 42.735983
-21.379387 8.940848 41.724975
-21.208794 7.872955 42.217167
-20.682295 8.365464 42.693412
-20.167457 8.95703 43.109504
-19.613461 9.568687 43.583342
-14.482236 11.932151 48.327183
-15.232034 12.510533 47.46207
-15.168593 11.307058 47.815247
-13.736048 11.2347 49.179257
-13.665402 10.059821 49.528759
-12.982655 10.565846 50.027656
-14.482236 11.932151 48.327183
-13.736048 11.2347 49.179257
-9.366112 9.782516 53.194754
-9.371022 8.670691 53.469549
-8.597558 9.185074 53.936665
-10.146421 10.497909 52.415582
-9.366112 9.782516 53.194754
-10.875227 11.100866 51.672563
-10.868382 9.87109 51.984619
-10.146421 10.497909 52.415582
-10.9364 12.319501 51.32061
-11.658361 11.692682 50.889646
-10.875227 11.100866 51.672563
-13.567543 -3.159975 53.102507
-12.714105 -3.648341 53.958536
-13.911522 -2.188207 52.553913
-14.408317 -2.677669 52.225629
-13.567543 -3.159975 53.102507
-5.956371 -4.21348 59.217378
-5.460314 -3.630049 59.418577
-6.434384 -3.364915 58.699035
-5.956371 -4.21348 59.217378
-6.428469 -4.878904 59.04422
-8.338933 -7.128902 58.137985
-7.909013 -6.552883 58.345733
-9.284405 -6.797607 57.37303
-8.338933 -7.128902 58.137985
-9.694012 -5.862748 56.882017
-9.215153 -5.273416 57.131493
-10.103262 -4.941841 56.382563
-9.284405 -6.797607 57.37303
-9.694012 -5.862748 56.882017
-16.610381 12.459352 46.09856
-17.250292 11.812926 45.601749
-16.558301 11.239014 46.453323
-16.610381 12.459352 46.09856
-15.997837 13.086906 46.574883
-15.960758 -1.87702 50.56036
-15.184106 -2.252393 51.401331
-15.528949 -1.330528 50.836065
-15.960758 -1.87702 50.56036
-16.789164 -1.389884 49.61845
-19.025549 0.194358 46.866417
-18.261137 -0.297405 47.815186
-18.501099 0.629856 47.304123
-19.025549 0.194358 46.866417
-19.752092 0.627874 45.954813
-21.943811 2.147887 43.056261
-21.207267 1.654805 44.03937
-21.439217 2.666308 43.482922
-21.943811 2.147887 43.056261
-22.69254 2.656424 42.0469
-24.407429 4.793034 39.396842
-23.829202 5.325971 39.915493
-22.267971 6.807021 41.297506
-21.734921 7.349327 41.767546
3 0 83 85
3 85 84 24
3 83 84 85
3 0 24 26
3 0 86 88
3 86 26 87
3 86 87 88
3 0 89 90
3 0 91 92
3 1 93 94
3 1 31 29
3 1 95 97
3 97 96 31
3 95 96 97
3 2 34 32
3 3 37 35
3 2 40 38
3 2 32 40
3 3 44 42
3 3 35 44
3 4 48 46
3 5 51 49
3 5 53 51
3 5 98 100
3 100 99 53
3 98 99 100
3 6 56 54
3 101 57 102
3 103 102 25
3 101 102 103
3 105 104 57
3 8 60 58
3 6 61 27
3 6 54 61
3 8 62 28
3 8 58 62
3 11 65 63
3 13 66 30
3 13 67 66
3 13 106 108
3 108 107 67
3 106 107 108
3 14 70 68
3 15 109 111
3 111 110 33
3 109 110 111
3 15 112 113
3 7 71 55
3 16 114 116
3 114 72 115
3 114 115 116
3 18 73 36
3 18 74 73
3 9 75 59
3 19 76 39
3 19 77 76
3 19 78 77
3 14 79 41
3 14 68 79
3 10 117 118
3 20 119 121
3 121 120 43
3 119 120 121
3 20 122 123
3 20 124 126
3 124 80 125
3 124 125 126
3 16 127 129
3 129 128 45
3 127 128 129
3 16 130 131
3 133 132 69
3 17 134 135
3 21 136 138
3 138 137 47
3 136 137 138
3 21 139 140
3 12 81 64
3 22 82 50
3 22 141 143
3 143 142 82
3 141 142 143
3 22 144 145
3 23 146 148
3 148 147 52
3 146 147 148
3 23 149 150
3 23 151 152
3 24 25 6
3 153 25 154
3 155 154 24
3 153 154 155
3 157 156 25
3 26 27 8
3 24 27 26
3 24 6 27
3 158 28 159
3 26 160 162
3 160 28 161
3 160 161 162
3 26 8 28
3 29 30 11
3 31 30 29
3 31 13 30
3 31 163 165
3 165 164 13
3 163 164 165
3 167 166 31
3 32 33 14
3 34 33 32
3 34 15 33
3 169 168 7
3 35 36 16
3 37 36 35
3 37 18 36
3 38 39 9
3 40 39 38
3 40 19 39
3 40 41 19
3 32 41 40
3 32 14 41
3 42 43 10
3 44 43 42
3 44 20 43
3 44 45 20
3 35 45 44
3 35 16 45
3 46 47 17
3 48 47 46
3 48 21 47
3 49 50 12
3 51 50 49
3 51 22 50
3 51 52 22
3 53 52 51
3 53 23 52
3 53 170 172
3 172 171 23
3 170 171 172
3 174 173 53
3 54 55 2
3 56 55 54
3 56 7 55
3 25 56 6
3 57 56 25
3 57 7 56
3 57 175 177
3 177 176 7
3 175 176 177
3 179 178 57
3 58 59 3
3 60 59 58
3 60 9 59
3 27 60 8
3 61 60 27
3 61 9 60
3 61 38 9
3 54 38 61
3 54 2 38
3 180 10 181
3 28 182 183
3 62 184 186
3 186 185 28
3 184 185 186
3 62 187 189
3 187 10 188
3 187 188 189
3 62 42 10
3 58 42 62
3 58 3 42
3 63 64 4
3 65 64 63
3 65 12 64
3 30 65 11
3 66 65 30
3 66 12 65
3 66 49 12
3 67 49 66
3 67 5 49
3 67 190 192
3 192 191 5
3 190 191 192
3 195 194 67
3 193 194 195
3 197 196 13
3 68 69 1
3 70 69 68
3 70 198 200
3 200 199 69
3 198 199 200
3 33 70 14
3 201 70 202
3 203 202 33
3 201 202 203
3 205 204 70
3 55 34 2
3 71 34 55
3 71 15 34
3 206 71 207
3 208 207 7
3 206 207 208
3 209 71 210
3 211 15 212
3 213 212 71
3 211 212 213
3 216 215 15
3 214 215 216
3 72 217 218
3 72 219 221
3 219 17 220
3 219 220 221
3 36 72 16
3 73 72 36
3 73 17 72
3 73 46 17
3 74 46 73
3 74 4 46
3 59 37 3
3 75 37 59
3 75 18 37
3 39 75 9
3 76 75 39
3 76 18 75
3 76 74 18
3 77 74 76
3 77 4 74
3 77 63 4
3 78 63 77
3 78 11 63
3 41 78 19
3 79 78 41
3 79 11 78
3 79 29 11
3 68 29 79
3 68 1 29
3 43 222 224
3 224 223 10
3 222 223 224
3 226 225 43
3 80 227 228
3 80 229 230
3 45 80 20
3 231 80 232
3 233 232 45
3 231 232 233
3 235 234 80
3 69 236 238
3 238 237 1
3 236 237 238
3 240 239 69
3 47 241 243
3 243 242 17
3 241 242 243
3 245 244 47
3 64 48 4
3 81 48 64
3 81 21 48
3 50 81 12
3 82 81 50
3 82 21 81
3 82 246 248
3 248 247 21
3 246 247 248
3 250 249 82
3 52 251 253
3 253 252 22
3 251 252 253
3 255 254 52
3 257 256 23
3 259 258 5
