ply
format ascii 1.0
element vertex 249
property float x
property float y
property float z
element face 245
property list uchar int vertex_index
end_header
-30.491217 -46.420429 9.835872
-28.126276 -57.573799 12.193204
-25.757992 -66.42749 5.78307
-29.183393 -57.954983 21.899961
-30.635908 -47.285416 18.872149
-29.148973 -52.14209 10.88497
-27.506269 -56.934261 7.429695
-29.960217 -52.998615 24.748381
-29.784655 -52.946308 20.254616
-30.509933 -47.707867 23.257046
-27.495924 -62.643124 14.008441
-26.806616 -62.055412 9.081034
-25.994301 -61.534626 3.997572
-28.710236 -57.900925 17.149403
-29.49917 -52.713528 15.486745
-30.679102 -46.768402 14.420677
-30.799004 -42.204433 26.575027
-31.236755 -42.032249 22.291868
-29.81595 -49.258118 10.487147
-28.942884 -51.813686 8.667343
-29.615316 -48.98634 8.086806
-30.403902 -45.936172 7.601927
-30.230976 -50.356098 26.32477
-30.210363 -50.440346 23.997688
-30.449162 -47.762844 25.501717
-27.796902 -59.985283 13.052801
-27.138342 -62.447247 11.485378
-27.416929 -59.919292 10.536277
-26.681656 -59.375092 5.693918
-28.676815 -60.399147 20.454853
-28.374746 -60.446899 17.898106
-28.961426 -57.953453 19.538214
-30.165369 -50.241531 19.427572
-29.6658 -52.810631 17.867956
-30.09849 -50.175407 17.228275
-30.035139 -49.872124 14.922357
-30.633883 -47.24295 16.592897
-31.04574 -39.33374 26.191507
-31.011803 -42.168171 24.450638
-28.596312 -54.951279 11.621951
-27.824711 -57.347683 9.902024
-28.349817 -54.554131 9.242258
-28.060974 -54.191154 6.848154
-29.598648 -55.657608 23.409246
-29.46841 -55.496616 21.106749
-29.883635 -52.993202 22.540712
-30.201477 -50.31797 21.73934
-30.559633 -47.643017 21.05372
-25.372591 -66.24662 3.247336
-26.917917 -64.911522 12.349843
-26.574505 -64.530136 9.809471
-26.210567 -64.28933 7.36253
-27.072807 -59.590294 8.116837
-26.393017 -61.928436 6.552022
-25.787428 -64.044609 4.652013
-25.42577 -63.644749 2.313702
-27.851858 -62.656292 16.556379
-28.087679 -60.316784 15.503299
-28.429142 -57.756611 14.642009
-29.302137 -55.378773 18.76502
-29.085026 -55.301586 16.332142
-28.827875 -55.227039 13.889509
-29.333282 -52.429737 13.12332
-29.935953 -49.58049 12.663248
-30.588783 -46.69524 12.111073
-30.698893 -45.06546 25.03688
-30.845306 -44.892605 22.889452
-30.991978 -44.696461 20.723072
-31.10754 -44.571426 18.478754
-31.251373 -44.145069 16.241928
-30.308796 -49.107533 27.032006
-30.233355 -50.389574 27.432335
-30.417889 -47.810906 26.620479
-30.340069 -49.059471 25.913244
-30.308796 -49.107533 27.032006
-29.036512 -59.275931 22.388458
-29.268359 -58.025843 23.110033
-28.930104 -59.177065 21.177407
-28.783223 -60.498013 21.665904
-29.036512 -59.275931 22.388458
-31.200926 -37.889373 25.936144
-31.02317 -37.8994 26.946752
-31.199618 -39.25345 25.136479
-31.200926 -37.889373 25.936144
-25.753209 -67.665177 6.20606
-25.93665 -66.609413 7.067033
-28.371749 -52.812528 6.537837
-28.501929 -53.00242 7.757748
-28.812704 -51.623795 7.447431
-27.87107 -54.109834 5.64886
-28.371749 -52.812528 6.537837
-29.854279 -54.235372 25.278788
-29.890528 -54.213988 26.438278
-29.996466 -52.97723 25.907871
-29.779432 -54.328112 24.078813
-29.673495 -55.564869 24.60922
-29.854279 -54.235372 25.278788
-25.206912 -67.272041 2.376482
-25.168934 -66.086712 1.946819
-27.20692 -63.777323 13.179142
-27.10933 -64.982406 13.73274
-27.398333 -63.848208 14.562039
-27.996538 -62.755492 17.820438
-27.730683 -63.922785 17.076454
-30.691631 -42.382193 27.629773
-30.784432 -40.887539 27.367121
-30.681362 -43.710136 26.873978
-30.691631 -42.382193 27.629773
-30.748949 -43.634946 25.805954
-30.631307 -45.14065 26.104905
-30.681362 -43.710136 26.873978
-31.388991 -43.061745 18.275216
-31.297134 -43.096397 19.339677
-31.460908 -42.848566 17.156803
-31.179457 -44.358248 17.360341
-31.388991 -43.061745 18.275216
-29.14892 -50.210121 7.157163
-28.812704 -51.623795 7.447431
-29.2791 -50.400013 8.377074
-29.518621 -48.770747 6.931683
-29.14892 -50.210121 7.157163
-29.912914 -47.245662 6.689243
-29.518621 -48.770747 6.931683
-30.009609 -47.461256 7.844366
-30.284569 -45.849316 6.437064
-29.912914 -47.245662 6.689243
-30.131845 -51.655971 26.696066
-30.233355 -50.389574 27.432335
-30.095596 -51.677357 25.536575
-29.996466 -52.97723 25.907871
-30.131845 -51.655971 26.696066
-26.914006 -58.002949 5.361242
-27.093962 -58.154677 6.561806
-27.326312 -56.782533 6.229131
-26.48849 -59.210789 4.490017
-26.914006 -58.002949 5.361242
-26.144813 -60.290556 3.641844
-26.337978 -60.454859 4.845745
-26.48849 -59.210789 4.490017
-25.791898 -61.35018 2.748992
-26.144813 -60.290556 3.641844
-28.530545 -61.704111 20.952819
-28.636952 -61.802976 22.16387
-28.783223 -60.498013 21.665904
-28.409016 -61.626919 19.769675
-28.530545 -61.704111 20.952819
-28.52578 -60.423023 19.176479
-28.257982 -61.650795 18.491301
-28.409016 -61.626919 19.769675
-30.907799 -39.452192 27.175362
-31.02317 -37.8994 26.946752
-30.922372 -40.769087 26.383267
-30.784432 -40.887539 27.367121
-30.907799 -39.452192 27.175362
-31.18265 -40.670666 24.266044
-31.028771 -40.750956 25.321072
-31.199618 -39.25345 25.136479
-31.295126 -40.602705 23.18666
-31.124279 -42.10021 23.371253
-31.18265 -40.670666 24.266044
-27.603665 -55.41098 5.93836
-27.326312 -56.782533 6.229131
-27.783622 -55.562708 7.138924
-27.603665 -55.41098 5.93836
-27.87107 -54.109834 5.64886
-29.475987 -56.877156 23.864676
-29.673495 -55.564869 24.60922
-29.39102 -56.806296 22.654604
-29.268359 -58.025843 23.110033
-29.475987 -56.877156 23.864676
-25.383713 -67.517749 3.624686
-25.576414 -67.608184 4.892553
-25.565292 -66.337055 4.515203
-25.383713 -67.517749 3.624686
-25.206912 -67.272041 2.376482
-26.852404 -66.111919 12.908759
-27.10933 -64.982406 13.73274
-26.680313 -65.960014 11.557719
-26.852404 -66.111919 12.908759
-26.508607 -65.769321 10.287533
-26.680313 -65.960014 11.557719
-26.746211 -64.720829 11.079657
-26.344906 -65.660736 9.080234
-26.508607 -65.769321 10.287533
-26.162937 -65.540333 7.856763
-26.344906 -65.660736 9.080234
-26.392536 -64.409733 8.586001
-25.984279 -65.35841 6.5728
-25.93665 -66.609413 7.067033
-26.162937 -65.540333 7.856763
-25.195524 -64.785776 1.480003
-25.168934 -66.086712 1.946819
-25.39918 -64.945684 2.780519
-25.507632 -62.405241 1.907057
-25.710036 -62.589687 3.155637
-25.791898 -61.35018 2.748992
-25.230569 -63.536589 1.16649
-25.507632 -62.405241 1.907057
-25.195524 -64.785776 1.480003
-25.230569 -63.536589 1.16649
-27.576301 -63.854792 15.836008
-27.730683 -63.922785 17.076454
-27.673891 -62.649708 15.28241
-27.398333 -63.848208 14.562039
-27.576301 -63.854792 15.836008
-28.113302 -61.551596 17.227242
-27.996538 -62.755492 17.820438
-28.257982 -61.650795 18.491301
-30.506442 -46.489342 26.337324
-30.417889 -47.810906 26.620479
-30.574027 -46.414152 25.269298
-30.506442 -46.489342 26.337324
-30.631307 -45.14065 26.104905
-31.455236 -40.430779 22.174554
-31.295126 -40.602705 23.18666
-31.361741 -41.826808 21.246234
-31.455236 -40.430779 22.174554
-31.239352 -43.158914 20.461836
-31.114366 -43.364355 21.50747
-31.361741 -41.826808 21.246234
-31.049759 -44.633944 19.600913
-31.239352 -43.158914 20.461836
-31.297134 -43.096397 19.339677
-31.562562 -42.664127 16.031466
-31.460908 -42.848566 17.156803
-31.261255 -44.115429 15.101929
-31.562562 -42.664127 16.031466
-30.975119 -45.427096 14.191304
-30.965238 -45.456736 15.331302
-31.261255 -44.115429 15.101929
-30.92996 -45.390514 13.036501
-30.633942 -46.731821 13.265875
-30.975119 -45.427096 14.191304
-30.936229 -45.24758 11.921481
-30.92996 -45.390514 13.036501
-30.887446 -45.110174 10.783881
-30.54 -46.557834 10.973472
-30.936229 -45.24758 11.921481
-30.894475 -44.858266 9.647133
-30.887446 -45.110174 10.783881
-30.850817 -44.616138 8.530161
-30.447559 -46.1783 8.718899
-30.894475 -44.858266 9.647133
-30.810196 -44.449327 7.439353
-30.850817 -44.616138 8.530161
-30.284569 -45.849316 6.437064
-30.810196 -44.449327 7.439353
-25.753209 -67.665177 6.20606
-25.576414 -67.608184 4.892553
3 0 20 18
3 0 21 20
3 70 22 71
3 72 24 73
3 74 73 22
3 72 73 74
3 1 27 25
3 3 75 76
3 3 77 79
3 77 29 78
3 77 78 79
3 3 31 29
3 4 34 32
3 4 36 34
3 80 37 81
3 83 82 37
3 2 84 85
3 5 41 39
3 86 42 87
3 88 87 19
3 86 87 88
3 90 89 42
3 7 91 93
3 91 92 93
3 7 94 96
3 94 43 95
3 94 95 96
3 7 45 43
3 9 46 23
3 9 47 46
3 98 97 48
3 10 99 101
3 99 49 100
3 99 100 101
3 11 50 26
3 11 51 50
3 6 52 40
3 12 53 28
3 12 54 53
3 12 55 54
3 102 56 103
3 13 57 30
3 13 58 57
3 8 59 44
3 14 60 33
3 14 61 60
3 14 62 61
3 15 63 35
3 15 64 63
3 16 104 105
3 16 106 107
3 16 108 110
3 108 65 109
3 108 109 110
3 17 66 38
3 17 67 66
3 111 68 112
3 113 69 114
3 115 114 68
3 113 114 115
3 18 19 5
3 20 19 18
3 20 116 118
3 118 117 19
3 116 117 118
3 20 119 120
3 21 121 123
3 123 122 20
3 121 122 123
3 21 124 125
3 22 126 127
3 22 128 130
3 128 7 129
3 128 129 130
3 22 23 7
3 24 23 22
3 24 9 23
3 25 26 10
3 27 26 25
3 27 11 26
3 131 28 132
3 133 132 6
3 131 132 133
3 134 28 135
3 136 12 137
3 138 137 28
3 136 137 138
3 140 139 12
3 29 141 143
3 141 142 143
3 29 144 145
3 29 146 148
3 146 30 147
3 146 147 148
3 31 30 29
3 31 13 30
3 32 33 8
3 34 33 32
3 34 14 33
3 34 35 14
3 36 35 34
3 36 15 35
3 37 149 150
3 37 151 153
3 151 16 152
3 151 152 153
3 37 38 16
3 154 38 155
3 156 155 37
3 154 155 156
3 157 17 158
3 159 158 38
3 157 158 159
3 39 40 1
3 41 40 39
3 41 6 40
3 19 41 5
3 42 41 19
3 42 6 41
3 42 160 162
3 162 161 6
3 160 161 162
3 164 163 42
3 43 165 166
3 43 167 169
3 167 3 168
3 167 168 169
3 43 44 3
3 45 44 43
3 45 8 44
3 23 45 7
3 46 45 23
3 46 8 45
3 46 32 8
3 47 32 46
3 47 4 32
3 48 170 172
3 172 171 2
3 170 171 172
3 174 173 48
3 49 175 176
3 49 177 178
3 26 49 10
3 50 49 26
3 50 179 181
3 181 180 49
3 179 180 181
3 50 182 183
3 51 184 186
3 186 185 50
3 184 185 186
3 51 187 189
3 187 2 188
3 187 188 189
3 40 27 1
3 52 27 40
3 52 11 27
3 28 52 6
3 53 52 28
3 53 11 52
3 53 51 11
3 54 51 53
3 54 2 51
3 54 48 2
3 55 48 54
3 55 190 192
3 192 191 48
3 190 191 192
3 193 55 194
3 195 194 12
3 193 194 195
3 196 55 197
3 199 198 55
3 56 200 201
3 56 202 204
3 202 10 203
3 202 203 204
3 30 205 207
3 205 56 206
3 205 206 207
3 57 56 30
3 57 10 56
3 57 25 10
3 58 25 57
3 58 1 25
3 44 31 3
3 59 31 44
3 59 13 31
3 33 59 8
3 60 59 33
3 60 13 59
3 60 58 13
3 61 58 60
3 61 1 58
3 61 39 1
3 62 39 61
3 62 5 39
3 35 62 14
3 63 62 35
3 63 5 62
3 63 18 5
3 64 18 63
3 64 0 18
3 208 24 209
3 65 210 212
3 210 24 211
3 210 211 212
3 65 9 24
3 38 65 16
3 66 65 38
3 66 9 65
3 66 47 9
3 67 47 66
3 67 4 47
3 213 17 214
3 215 17 216
3 217 67 218
3 219 218 17
3 217 218 219
3 68 220 222
3 220 67 221
3 220 221 222
3 68 4 67
3 68 36 4
3 69 36 68
3 69 15 36
3 223 69 224
3 225 69 226
3 227 15 228
3 229 228 69
3 227 228 229
3 230 64 231
3 232 231 15
3 230 231 232
3 233 64 234
3 235 0 236
3 237 236 64
3 235 236 237
3 238 0 239
3 240 21 241
3 242 241 0
3 240 241 242
3 243 21 244
3 246 245 21
3 248 247 2
