ply
format ascii 1.0
element vertex 299
property float x
property float y
property float z
element face 270
property list uchar int vertex_index
end_header
20.49147 -68.245033 49.833622
14.339238 -69.500122 46.93486
22.234663 -80.497627 31.315216
18.26668 -66.259018 52.76046
17.45923 -69.539162 48.370213
15.568207 -66.695 51.522911
20.879425 -64.223534 54.285172
24.846321 -77.120102 32.403664
23.304192 -76.120277 36.762051
22.479637 -70.25695 46.032742
21.540104 -74.38279 40.961971
19.529839 -72.156036 44.837795
23.352598 -61.472198 54.973217
23.075033 -65.933945 50.74984
20.451853 -78.329552 35.679592
12.589016 -66.023926 50.214123
17.264593 -65.134422 54.037521
16.93854 -66.6231 52.15398
16.047138 -65.34108 53.452461
18.419367 -64.451363 54.798214
23.840202 -73.913193 39.363663
7.020667 -61.802212 49.184559
21.499338 -69.273994 48.020172
21.068401 -71.452019 45.356308
20.093483 -70.175491 47.450195
15.968526 -69.638184 47.714577
16.92461 -71.166138 45.949745
20.724804 -66.310394 52.079693
21.982157 -65.084045 52.669312
21.855293 -67.177055 50.388916
22.942799 -68.058113 48.398029
23.622629 -78.937874 31.950346
24.382702 -79.352196 29.897579
20.007986 -75.383087 40.143154
21.050337 -76.41555 38.251579
19.411304 -77.254799 37.500988
13.263254 -64.692093 52.444378
11.656575 -64.066681 51.764019
19.390842 -67.320381 51.327785
18.946566 -69.052246 49.145981
18.015371 -67.901855 50.668999
16.508627 -68.136482 50.012142
15.032201 -68.12838 49.296638
19.628933 -65.452568 53.474083
24.102518 -76.695366 34.647915
22.777054 -78.32428 34.038589
10.12611 -63.479935 50.888546
8.551419 -62.700169 50.018517
23.003269 -73.071487 41.651382
22.068514 -72.326141 43.549217
20.639816 -73.387001 42.828854
19.025797 -74.057648 42.17675
18.578142 -70.755157 46.833214
17.944468 -72.61573 44.157188
24.333054 -62.077751 53.175335
22.10701 -62.89838 54.802792
23.212736 -63.726753 52.963909
24.282867 -64.320137 51.003143
25.047709 -79.884171 27.388542
22.469343 -75.261581 38.976089
21.937334 -77.447205 36.16058
21.314936 -79.518303 33.498306
19.790344 -80.33165 32.937149
14.734464 -65.157585 52.960621
14.129432 -66.584511 50.753635
13.439178 -67.919281 48.436275
11.020004 -65.436592 49.43721
16.239771 -64.75816 54.195245
16.655866 -65.237751 53.744991
16.848498 -64.654831 54.487775
16.848498 -64.654831 54.487775
17.294369 -64.344856 54.880046
24.063364 -72.761151 40.69628
24.413141 -73.152199 39.471651
14.794774 -70.363647 46.014715
15.609419 -70.432678 46.404573
15.153882 -69.569153 47.324719
14.026059 -70.282356 45.604917
14.794774 -70.363647 46.014715
22.714022 -80.795475 30.302537
23.408006 -80.015598 30.620102
22.928646 -79.71775 31.632781
22.080075 -81.486007 29.978918
22.714022 -80.795475 30.302537
18.895842 -76.616783 38.439169
19.709645 -76.318943 38.822071
19.194183 -75.680927 39.760252
11.273653 -63.042513 52.557903
12.087477 -63.467741 52.836861
23.703355 -76.407822 35.704983
24.36132 -75.609154 35.861807
23.962156 -75.321609 36.918875
8.154201 -61.635596 50.756749
8.922441 -62.059922 51.178957
7.385948 -62.819518 48.428181
6.674954 -62.489197 47.927172
22.274076 -71.291546 44.790979
22.735489 -71.673054 43.813789
22.94105 -70.638458 45.055552
17.154935 -72.780735 43.684579
17.434539 -71.890934 45.053466
16.645006 -72.055939 44.580858
17.65445 -73.575878 42.71766
17.154935 -72.780735 43.684579
23.83627 -60.542169 55.175316
23.285124 -60.347469 55.998438
23.842826 -61.774974 54.074276
24.326498 -60.844946 54.276375
23.83627 -60.542169 55.175316
21.493218 -63.560957 54.543982
21.480853 -62.541788 55.538502
20.867061 -63.204365 55.279692
23.580776 -66.217548 49.815653
24.184693 -65.410645 49.942305
23.67895 -65.127041 50.876492
23.159675 -69.522819 46.242498
23.391257 -68.423401 47.425142
22.711218 -69.157532 47.215385
22.94105 -70.638458 45.055552
23.159675 -69.522819 46.242498
25.138016 -77.367401 31.176739
25.342053 -76.221157 32.430788
24.52263 -80.774307 27.241226
24.715205 -79.618184 28.643061
24.190126 -80.50832 28.495745
24.897837 -80.953175 26.126093
24.52263 -80.774307 27.241226
19.577799 -81.368313 31.467234
19.005795 -80.716057 32.439491
20.305749 -80.97607 31.800863
19.577799 -81.368313 31.467234
14.367067 -64.260771 53.735765
15.057301 -64.525308 53.870911
10.193782 -65.145607 48.893732
10.573057 -64.458264 50.162878
9.746835 -64.167279 49.6194
17.871755 -64.003327 55.260393
18.416611 -63.493937 55.741085
17.84198 -64.792892 54.417867
17.871755 -64.003327 55.260393
17.294369 -64.344856 54.880046
24.230162 -74.218068 38.219681
24.413141 -73.152199 39.471651
23.572197 -75.016735 38.062857
23.962156 -75.321609 36.918875
24.230162 -74.218068 38.219681
6.634844 -60.693718 49.936688
7.388825 -61.186617 50.33977
6.247549 -61.379761 48.662491
6.634844 -60.693718 49.936688
6.674954 -62.489197 47.927172
6.247549 -61.379761 48.662491
16.08746 -71.196655 45.522157
16.446568 -70.402161 46.832161
15.609419 -70.432678 46.404573
16.645006 -72.055939 44.580858
16.08746 -71.196655 45.522157
22.712373 -61.119816 55.866656
23.285124 -60.347469 55.998438
23.788042 -80.222759 29.593719
24.002665 -79.145035 30.923963
23.408006 -80.015598 30.620102
24.190126 -80.50832 28.495745
23.788042 -80.222759 29.593719
12.890816 -63.780447 53.17704
13.631462 -64.028025 53.477644
12.459915 -64.379387 52.104198
12.890816 -63.780447 53.17704
12.087477 -63.467741 52.836861
20.258327 -63.880932 54.884794
20.867061 -63.204365 55.279692
19.028298 -63.994847 55.141316
18.416611 -63.493937 55.741085
19.63308 -64.495449 54.47925
19.028298 -63.994847 55.141316
19.02415 -64.951966 54.136149
20.254179 -64.838051 53.879627
20.258327 -63.880932 54.884794
19.63308 -64.495449 54.47925
25.064816 -76.042717 33.600088
25.342053 -76.221157 32.430788
24.692915 -75.830349 34.722214
24.36132 -75.609154 35.861807
24.474419 -76.907734 33.52579
25.064816 -76.042717 33.600088
24.692915 -75.830349 34.722214
9.709787 -62.449804 51.613971
10.50842 -62.74914 52.120167
9.338764 -63.090052 50.453531
9.709787 -62.449804 51.613971
8.922441 -62.059922 51.178957
8.959489 -63.777396 49.184386
9.746835 -64.167279 49.6194
9.338764 -63.090052 50.453531
7.786043 -62.25119 49.601538
8.154201 -61.635596 50.756749
7.388825 -61.186617 50.33977
8.151324 -63.268496 48.84516
7.786043 -62.25119 49.601538
7.385948 -62.819518 48.428181
8.959489 -63.777396 49.184386
8.151324 -63.268496 48.84516
23.202866 -72.045727 42.864872
23.644897 -72.340298 41.840139
22.535891 -72.698814 42.600299
23.202866 -72.045727 42.864872
22.735489 -71.673054 43.813789
18.703088 -75.018208 40.77705
19.194183 -75.680927 39.760252
19.516891 -74.720368 41.159952
18.195115 -74.296837 41.727441
18.485132 -73.336689 43.166969
17.65445 -73.575878 42.71766
18.703088 -75.018208 40.77705
18.195115 -74.296837 41.727441
24.811551 -61.081034 53.286207
24.326498 -60.844946 54.276375
24.798196 -62.293363 52.195984
24.811551 -61.081034 53.286207
22.089579 -61.832906 55.781443
21.480853 -62.541788 55.538502
22.729804 -62.185289 54.888004
22.712373 -61.119816 55.866656
22.089579 -61.832906 55.781443
24.773103 -63.414557 51.109888
24.798196 -62.293363 52.195984
24.307961 -63.198944 52.089239
24.70949 -64.657692 49.93062
24.773103 -63.414557 51.109888
24.70949 -64.657692 49.93062
24.184693 -65.410645 49.942305
23.514659 -67.279633 48.639747
23.580776 -66.217548 49.815653
23.008916 -66.996029 49.573935
23.514659 -67.279633 48.639747
23.391257 -68.423401 47.425142
24.906207 -78.483448 29.923696
25.138016 -77.367401 31.176739
24.614511 -78.236149 31.150621
25.23871 -78.749436 28.669178
24.906207 -78.483448 29.923696
24.715205 -79.618184 28.643061
25.503775 -78.829731 27.537106
25.23871 -78.749436 28.669178
25.378668 -79.867821 26.282902
25.503775 -78.829731 27.537106
25.378668 -79.867821 26.282902
24.897837 -80.953175 26.126093
23.421736 -73.49234 40.507523
24.063364 -72.761151 40.69628
23.644897 -72.340298 41.840139
18.517821 -77.512863 37.081974
18.895842 -76.616783 38.439169
19.107866 -78.145626 36.221081
18.517821 -77.512863 37.081974
19.628141 -78.683003 35.310383
19.931579 -77.792176 36.59029
19.107866 -78.145626 36.221081
19.297386 -79.684051 33.939161
19.005795 -80.716057 32.439491
20.121099 -79.330601 34.30837
19.628141 -78.683003 35.310383
19.297386 -79.684051 33.939161
21.068045 -80.569397 32.081441
20.55264 -79.924976 33.217727
20.305749 -80.97607 31.800863
21.527909 -81.059059 30.989897
21.7748 -80.007965 32.406761
21.068045 -80.569397 32.081441
22.080075 -81.486007 29.978918
21.527909 -81.059059 30.989897
15.713639 -64.617056 54.11683
16.239771 -64.75816 54.195245
15.390801 -65.249333 53.206541
15.713639 -64.617056 54.11683
15.057301 -64.525308 53.870911
13.998859 -64.924839 52.7025
14.367067 -64.260771 53.735765
13.631462 -64.028025 53.477644
10.891343 -63.773308 51.326282
11.273653 -63.042513 52.557903
10.50842 -62.74914 52.120167
10.650765 -66.136539 48.130617
10.193782 -65.145607 48.893732
11.441429 -66.379658 48.63005
10.650765 -66.136539 48.130617
12.225935 -66.673325 49.018507
11.80451 -65.730259 49.825666
11.441429 -66.379658 48.63005
12.651016 -67.621002 48.129583
13.014097 -66.971604 49.325199
12.225935 -66.673325 49.018507
13.045941 -68.564544 47.209562
12.651016 -67.621002 48.129583
13.495971 -69.354965 46.458855
13.889208 -68.709701 47.685568
13.045941 -68.564544 47.209562
14.026059 -70.282356 45.604917
13.495971 -69.354965 46.458855
3 67 18 68
3 69 68 16
3 67 68 69
3 70 16 71
3 72 20 73
3 0 24 22
3 1 74 76
3 76 75 25
3 74 75 76
3 1 77 78
3 0 29 27
3 0 22 29
3 2 79 81
3 81 80 31
3 79 80 81
3 2 82 83
3 84 35 85
3 86 85 33
3 84 85 86
3 87 37 88
3 3 40 38
3 5 41 17
3 5 42 41
3 3 43 19
3 3 38 43
3 8 89 91
3 89 44 90
3 89 90 91
3 8 45 44
3 92 47 93
3 95 94 21
3 9 96 98
3 96 49 97
3 96 97 98
3 11 50 23
3 11 51 50
3 4 52 39
3 99 53 100
3 101 100 26
3 99 100 101
3 103 102 53
3 12 104 105
3 12 106 108
3 106 54 107
3 106 107 108
3 6 109 111
3 109 55 110
3 109 110 111
3 13 56 28
3 13 57 56
3 13 112 114
3 114 113 57
3 112 113 114
3 9 115 117
3 117 116 30
3 115 116 117
3 9 118 119
3 7 120 121
3 122 58 123
3 124 123 32
3 122 123 124
3 126 125 58
3 10 59 48
3 14 60 34
3 14 61 60
3 127 62 128
3 130 129 62
3 131 63 132
3 15 64 36
3 15 65 64
3 133 66 134
3 135 134 46
3 133 134 135
3 16 17 3
3 18 17 16
3 18 5 17
3 136 19 137
3 16 138 140
3 138 19 139
3 138 139 140
3 16 3 19
3 20 141 142
3 20 143 145
3 143 8 144
3 143 144 145
3 146 21 147
3 148 21 149
3 151 150 21
3 22 23 9
3 24 23 22
3 24 11 23
3 25 26 4
3 152 26 153
3 154 153 25
3 152 153 154
3 156 155 26
3 157 12 158
3 27 28 6
3 29 28 27
3 29 13 28
3 29 30 13
3 22 30 29
3 22 9 30
3 31 32 7
3 159 32 160
3 161 160 31
3 159 160 161
3 163 162 32
3 33 34 10
3 35 34 33
3 35 14 34
3 164 36 165
3 37 166 168
3 166 36 167
3 166 167 168
3 37 15 36
3 38 39 0
3 40 39 38
3 40 4 39
3 17 40 3
3 41 40 17
3 41 4 40
3 41 25 4
3 42 25 41
3 42 1 25
3 169 6 170
3 19 171 172
3 43 173 175
3 175 174 19
3 173 174 175
3 43 176 178
3 176 6 177
3 176 177 178
3 43 27 6
3 38 27 43
3 38 0 27
3 179 7 180
3 44 181 182
3 44 183 185
3 183 7 184
3 183 184 185
3 44 31 7
3 45 31 44
3 45 2 31
3 186 46 187
3 47 188 190
3 188 46 189
3 188 189 190
3 47 191 193
3 193 192 46
3 191 192 193
3 21 194 196
3 194 47 195
3 194 195 196
3 197 47 198
3 199 198 21
3 197 198 199
3 201 200 47
3 202 48 203
3 49 204 206
3 204 48 205
3 204 205 206
3 49 10 48
3 23 49 9
3 50 49 23
3 50 10 49
3 50 33 10
3 51 33 50
3 51 207 209
3 209 208 33
3 207 208 209
3 39 24 0
3 52 24 39
3 52 11 24
3 26 52 4
3 53 52 26
3 53 11 52
3 53 51 11
3 210 51 211
3 212 211 53
3 210 211 212
3 214 213 51
3 54 215 216
3 54 217 218
3 55 219 220
3 55 221 223
3 221 12 222
3 221 222 223
3 28 55 6
3 56 55 28
3 56 12 55
3 56 54 12
3 57 54 56
3 57 224 226
3 226 225 54
3 224 225 226
3 57 227 228
3 230 229 57
3 30 231 233
3 233 232 13
3 231 232 233
3 235 234 30
3 32 236 238
3 238 237 7
3 236 237 238
3 58 239 241
3 241 240 32
3 239 240 241
3 58 242 243
3 58 244 245
3 247 246 58
3 48 248 250
3 248 20 249
3 248 249 250
3 59 20 48
3 59 8 20
3 34 59 10
3 60 59 34
3 60 8 59
3 60 45 8
3 61 45 60
3 61 2 45
3 251 35 252
3 253 35 254
3 255 14 256
3 257 256 35
3 255 256 257
3 62 258 259
3 62 260 262
3 260 14 261
3 260 261 262
3 62 61 14
3 263 61 264
3 265 264 62
3 263 264 265
3 266 2 267
3 268 267 61
3 266 267 268
3 270 269 2
3 271 18 272
3 63 273 275
3 273 18 274
3 273 274 275
3 63 5 18
3 36 276 278
3 276 63 277
3 276 277 278
3 64 63 36
3 64 5 63
3 64 42 5
3 65 42 64
3 65 1 42
3 46 279 281
3 279 37 280
3 279 280 281
3 66 37 46
3 66 15 37
3 282 66 283
3 284 66 285
3 286 15 287
3 288 287 66
3 286 287 288
3 289 65 290
3 291 290 15
3 289 290 291
3 292 65 293
3 294 1 295
3 296 295 65
3 294 295 296
3 298 297 1
