ply
format ascii 1.0
element vertex 224
property float x
property float y
property float z
element face 224
property list uchar int vertex_index
end_header
-24.186289 -64.952263 -4.181255
-26.737314 -56.42067 2.631751
-25.242714 -54.099174 -6.452899
-22.699158 -61.727272 -12.687838
-23.57983 -50.269066 -14.246882
-28.682524 -51.433903 6.227519
-28.027819 -50.727699 1.476557
-30.165236 -45.762459 5.272201
-23.444208 -63.552124 -8.600219
-26.526525 -48.546951 -7.228508
-24.44108 -52.474934 -10.473188
-25.201193 -60.841812 -0.779384
-24.431467 -59.677475 -5.343877
-26.007074 -55.446148 -1.990409
-27.363962 -49.751171 -2.853372
-23.670292 -57.985943 -9.612365
-22.838207 -56.072952 -13.600096
-29.421925 -48.555153 5.77656
-24.580334 -65.412254 -1.786505
-24.296713 -67.488289 -3.344265
-23.935095 -66.999146 -5.662582
-23.806934 -64.341751 -6.466584
-27.146355 -56.630806 5.028566
-26.295324 -59.046486 3.286115
-25.589495 -61.165733 1.500412
-25.923128 -58.583584 0.892518
-25.52301 -58.221195 -1.415281
-26.407217 -55.862247 0.34034
-28.856169 -47.863987 1.298712
-27.679983 -50.365341 -0.690929
-28.51902 -47.341007 -1.08619
-28.168922 -46.760807 -3.344713
-22.328644 -60.56076 -14.536522
-24.749502 -56.960247 -5.955163
-24.026789 -59.032734 -7.543146
-24.405689 -56.101437 -7.964967
-23.951084 -51.570629 -12.511551
-23.522429 -54.54644 -12.05981
-23.119833 -53.235298 -13.983613
-27.681166 -54.028515 4.449567
-27.368944 -53.489162 2.086105
-28.357233 -51.157097 3.851241
-29.100971 -48.363663 3.432726
-23.092535 -62.756138 -10.582023
-25.885723 -51.207176 -6.822544
-24.841373 -53.442154 -8.449098
-25.421307 -50.561298 -8.915285
-24.969206 -49.623562 -10.963132
-24.585949 -48.516155 -12.722729
-25.035368 -63.428429 0.019277
-24.622513 -62.849072 -2.518426
-24.225042 -62.274002 -4.87895
-24.830635 -60.282894 -3.040659
-25.100449 -57.743019 -3.799956
-25.587679 -54.926922 -4.32749
-26.988255 -53.105354 -0.256154
-26.594152 -52.66378 -2.557842
-26.198383 -52.150509 -4.727746
-26.94754 -49.314831 -4.988434
-27.745502 -46.292774 -5.47237
-23.835375 -61.779442 -7.047138
-23.485958 -60.790829 -9.09926
-23.110704 -60.008041 -11.083742
-23.946665 -55.32275 -10.169738
-23.243053 -57.167393 -11.667758
-22.7197 -58.876858 -13.076913
-29.092315 -46.181535 -0.096317
-28.687595 -47.602497 0.106261
-29.260889 -46.443026 1.096134
-28.983875 -45.789894 -1.221834
-29.092315 -46.181535 -0.096317
-22.566293 -62.616369 -13.505554
-22.760933 -63.074723 -12.461801
-22.513901 -61.144016 -13.61218
-22.381036 -62.033113 -14.429896
-22.566293 -62.616369 -13.505554
-23.137566 -51.092867 -15.005854
-22.907567 -52.575983 -14.874219
-23.349832 -51.752182 -14.115247
-23.317324 -49.77807 -15.129271
-23.137566 -51.092867 -15.005854
-28.371749 -52.812528 6.537837
-28.812704 -51.623795 7.447431
-28.181845 -52.731209 5.338543
-27.87107 -54.109834 5.64886
-28.371749 -52.812528 6.537837
-30.090536 -45.473669 4.198134
-29.558404 -46.774271 3.278397
-29.633104 -47.063061 4.352463
-23.324937 -64.536075 -9.354726
-23.51085 -64.982506 -8.253188
-23.268372 -63.154131 -9.591121
-23.149101 -64.138082 -10.345629
-23.324937 -64.536075 -9.354726
-25.306816 -48.177479 -11.108619
-25.536738 -48.619175 -10.150702
-25.115187 -47.623775 -11.988418
-24.777577 -49.069858 -11.84293
-25.306816 -48.177479 -11.108619
-24.882019 -47.091259 -12.909713
-25.115187 -47.623775 -11.988418
-28.434245 -44.964796 -4.505422
-27.957212 -46.526791 -4.408542
-28.645955 -45.198813 -3.441594
-28.231946 -44.70645 -5.543941
-28.434245 -44.964796 -4.505422
-22.569961 -56.85423 -14.320122
-22.510707 -58.256183 -14.05853
-22.778954 -57.474905 -13.338504
-29.14892 -50.210121 7.157163
-28.812704 -51.623795 7.447431
-29.518621 -48.770747 6.931683
-29.052225 -49.994528 6.00204
-29.14892 -50.210121 7.157163
-29.912914 -47.245662 6.689243
-29.518621 -48.770747 6.931683
-30.284569 -45.849316 6.437064
-29.793581 -47.158806 5.52438
-29.912914 -47.245662 6.689243
-24.619166 -66.754265 -1.414303
-24.772806 -65.669529 -0.570101
-24.477355 -67.792282 -2.193182
-24.619166 -66.754265 -1.414303
-24.438524 -66.450271 -2.565385
-24.391869 -68.721187 -3.019239
-24.477355 -67.792282 -2.193182
-24.217797 -68.501503 -4.205566
-24.391869 -68.721187 -3.019239
-24.036988 -68.256932 -5.364724
-24.217797 -68.501503 -4.205566
-24.115904 -67.243718 -4.503424
-23.858795 -67.972611 -6.558281
-24.036988 -68.256932 -5.364724
-23.756293 -66.706017 -6.78437
-23.858795 -67.972611 -6.558281
-23.692213 -65.377319 -7.186371
-23.756293 -66.706017 -6.78437
-23.871015 -65.670448 -6.064583
-23.625571 -63.946938 -7.533402
-23.51085 -64.982506 -8.253188
-23.692213 -65.377319 -7.186371
-26.315398 -48.080869 -8.28339
-26.941432 -47.012962 -7.398359
-26.914006 -58.002949 5.361242
-27.326312 -56.782533 6.229131
-26.48849 -59.210789 4.490017
-26.914006 -58.002949 5.361242
-26.72084 -57.838646 4.157341
-26.144813 -60.290556 3.641844
-26.48849 -59.210789 4.490017
-25.94241 -60.10611 2.393264
-25.791898 -61.35018 2.748992
-26.144813 -60.290556 3.641844
-28.808826 -45.499794 -2.351096
-28.343971 -47.050907 -2.215451
-28.983875 -45.789894 -1.221834
-28.645955 -45.198813 -3.441594
-28.808826 -45.499794 -2.351096
-22.184195 -61.346243 -15.342897
-22.381036 -62.033113 -14.429896
-22.110661 -59.948423 -15.515437
-22.184195 -61.346243 -15.342897
-22.76039 -54.010578 -14.750388
-22.619577 -55.429405 -14.558629
-22.97902 -54.654125 -13.791854
-22.76039 -54.010578 -14.750388
-22.907567 -52.575983 -14.874219
-27.603665 -55.41098 5.93836
-27.326312 -56.782533 6.229131
-27.413761 -55.329661 4.739066
-27.603665 -55.41098 5.93836
-27.87107 -54.109834 5.64886
-29.436003 -46.524433 2.21139
-28.97857 -48.113825 2.365719
-29.558404 -46.774271 3.278397
-29.260889 -46.443026 1.096134
-29.436003 -46.524433 2.21139
-22.957622 -63.589156 -11.408894
-23.149101 -64.138082 -10.345629
-22.895847 -62.241705 -11.63493
-22.760933 -63.074723 -12.461801
-22.957622 -63.589156 -11.408894
-25.762789 -49.088043 -9.126779
-25.973916 -49.554125 -8.071897
-26.315398 -48.080869 -8.28339
-25.195256 -50.09243 -9.939208
-25.762789 -49.088043 -9.126779
-25.536738 -48.619175 -10.150702
-24.342591 -47.982534 -13.618253
-23.839532 -48.85899 -14.380329
-24.08289 -49.392611 -13.484806
-24.342591 -47.982534 -13.618253
-24.882019 -47.091259 -12.909713
-25.507632 -62.405241 1.907057
-25.791898 -61.35018 2.748992
-25.230569 -63.536589 1.16649
-25.507632 -62.405241 1.907057
-25.312431 -62.297081 0.759845
-25.000322 -64.677616 0.33279
-25.195524 -64.785776 1.480003
-25.230569 -63.536589 1.16649
-24.807851 -64.420342 -0.883614
-24.772806 -65.669529 -0.570101
-25.000322 -64.677616 0.33279
-27.550921 -45.885874 -6.52029
-26.941432 -47.012962 -7.398359
-27.136013 -47.419863 -6.350439
-27.550921 -45.885874 -6.52029
-28.231946 -44.70645 -5.543941
-30.690863 -44.362471 6.27449
-30.284569 -45.849316 6.437064
-30.611075 -44.242403 5.219321
-30.690863 -44.362471 6.27449
-30.090536 -45.473669 4.198134
-30.611075 -44.242403 5.219321
-22.315179 -59.098135 -14.788335
-22.524172 -59.718809 -13.806717
-22.510707 -58.256183 -14.05853
-22.110661 -59.948423 -15.515437
-22.315179 -59.098135 -14.788335
-22.569961 -56.85423 -14.320122
-22.619577 -55.429405 -14.558629
-23.317324 -49.77807 -15.129271
-23.839532 -48.85899 -14.380329
3 0 19 18
3 0 20 19
3 0 21 20
3 1 23 22
3 1 25 23
3 1 27 25
3 66 30 67
3 68 67 28
3 66 67 68
3 70 69 30
3 3 71 72
3 3 73 75
3 73 32 74
3 73 74 75
3 2 35 33
3 4 38 36
3 4 76 78
3 78 77 38
3 76 77 78
3 4 79 80
3 5 81 82
3 5 83 85
3 83 39 84
3 83 84 85
3 5 41 39
3 7 42 17
3 7 86 88
3 88 87 42
3 86 87 88
3 8 89 90
3 8 91 93
3 91 43 92
3 91 92 93
3 9 46 44
3 94 47 95
3 96 48 97
3 98 97 47
3 96 97 98
3 100 99 48
3 11 49 24
3 11 50 49
3 11 52 50
3 13 53 26
3 13 54 53
3 6 55 40
3 14 56 29
3 14 57 56
3 14 58 57
3 101 59 102
3 103 102 31
3 101 102 103
3 105 104 59
3 12 60 51
3 15 61 34
3 15 62 61
3 10 63 45
3 16 64 37
3 16 65 64
3 16 106 108
3 108 107 65
3 106 107 108
3 109 5 110
3 111 17 112
3 113 112 5
3 111 112 113
3 114 17 115
3 116 7 117
3 118 117 17
3 116 117 118
3 18 119 120
3 19 121 123
3 123 122 18
3 121 122 123
3 19 124 125
3 19 126 127
3 20 128 130
3 130 129 19
3 128 129 130
3 20 131 132
3 20 133 134
3 21 135 137
3 137 136 20
3 135 136 137
3 21 138 140
3 138 8 139
3 138 139 140
3 142 141 9
3 22 143 144
3 23 145 147
3 147 146 22
3 145 146 147
3 23 148 149
3 23 150 152
3 150 24 151
3 150 151 152
3 25 24 23
3 25 11 24
3 25 26 11
3 27 26 25
3 27 13 26
3 28 29 6
3 30 29 28
3 30 14 29
3 30 31 14
3 153 31 154
3 155 154 30
3 153 154 155
3 157 156 31
3 32 158 159
3 32 160 161
3 33 34 12
3 35 34 33
3 35 15 34
3 36 37 10
3 38 37 36
3 38 16 37
3 38 162 164
3 164 163 16
3 162 163 164
3 166 165 38
3 167 22 168
3 39 169 171
3 169 22 170
3 169 170 171
3 39 1 22
3 39 40 1
3 41 40 39
3 41 6 40
3 17 41 5
3 42 41 17
3 42 6 41
3 42 28 6
3 172 28 173
3 174 173 42
3 172 173 174
3 176 175 28
3 43 177 178
3 43 179 181
3 179 3 180
3 179 180 181
3 44 45 2
3 46 45 44
3 46 10 45
3 182 46 183
3 184 183 9
3 182 183 184
3 47 185 187
3 185 46 186
3 185 186 187
3 47 10 46
3 47 36 10
3 48 36 47
3 48 4 36
3 48 188 190
3 190 189 4
3 188 189 190
3 192 191 48
3 24 193 194
3 49 195 197
3 197 196 24
3 195 196 197
3 49 198 200
3 198 199 200
3 49 201 203
3 201 18 202
3 201 202 203
3 50 18 49
3 50 0 18
3 50 51 0
3 52 51 50
3 52 12 51
3 26 52 11
3 53 52 26
3 53 12 52
3 53 33 12
3 54 33 53
3 54 2 33
3 40 27 1
3 55 27 40
3 55 13 27
3 29 55 6
3 56 55 29
3 56 13 55
3 56 54 13
3 57 54 56
3 57 2 54
3 57 44 2
3 58 44 57
3 58 9 44
3 31 58 14
3 59 58 31
3 59 9 58
3 59 204 206
3 206 205 9
3 204 205 206
3 208 207 59
3 209 7 210
3 211 7 212
3 214 213 7
3 51 21 0
3 60 21 51
3 60 8 21
3 34 60 12
3 61 60 34
3 61 8 60
3 61 43 8
3 62 43 61
3 62 3 43
3 45 35 2
3 63 35 45
3 63 15 35
3 37 63 10
3 64 63 37
3 64 15 63
3 64 62 15
3 65 62 64
3 65 3 62
3 65 32 3
3 215 32 216
3 217 216 65
3 215 216 217
3 219 218 32
3 221 220 16
3 223 222 4
