ply
format ascii 1.0
element vertex 220
property float x
property float y
property float z
element face 203
property list uchar int vertex_index
end_header
-23.296074 74.984245 40.224277
-8.547819 77.601624 32.101593
-10.292796 66.532463 41.814384
-16.448349 78.157173 36.446053
-25.599848 78.741791 35.592503
-22.789885 81.341934 34.6259
-9.453336 72.04657 37.310276
-13.404117 72.557343 39.447441
-12.570131 78.171402 34.268032
-6.522352 65.967613 39.64109
-5.583081 71.399277 35.140461
-17.009792 71.938385 41.805828
-19.964434 76.982536 38.650585
-24.5361 76.796822 38.145035
-24.29694 80.104942 35.238102
-23.065184 78.126999 37.567848
-9.051949 75.060852 34.632309
-10.916065 75.137802 35.816017
-10.585129 78.058876 33.086212
-10.127557 80.639618 30.387253
-8.094213 80.178925 29.401022
-4.710239 65.965141 38.408573
-6.074071 68.867561 37.349598
-12.079507 66.101028 43.26437
-14.900427 75.470863 37.961525
-15.224311 72.406708 40.589893
-16.702999 75.210152 39.076805
-18.524864 74.630219 40.255806
-18.288635 77.781883 37.52512
-19.751055 80.272392 35.6675
-17.912783 80.627991 34.81078
-26.612913 79.967392 33.261311
-25.377523 81.795547 32.795319
-23.977732 83.224854 32.285099
-9.879162 69.334015 39.606548
-11.883154 69.384666 40.878864
-11.52317 72.375633 38.420044
-12.988625 75.507721 36.823341
-14.557363 78.311493 35.329044
-16.048288 80.891548 33.754333
-14.113903 81.026894 32.578323
-8.412909 66.058571 40.865868
-7.947443 68.956055 38.570827
-7.570186 71.859108 36.167286
-7.049263 74.516426 33.693909
-6.531219 77.131332 31.089067
-13.68336 69.375931 41.989094
-15.525652 69.228111 43.114204
-18.695072 71.300255 42.914913
-20.28619 73.678719 41.439823
-21.637802 76.054886 39.58028
-21.370611 79.309593 36.713875
-21.097889 82.475502 33.692944
-23.916087 75.890534 39.184656
-24.639633 75.139752 39.486615
-24.01962 74.233463 40.526235
-3.753777 65.659035 37.95639
-3.980892 64.375404 38.931402
-4.392611 67.26947 37.29235
-3.753777 65.659035 37.95639
-11.186151 66.316745 42.539377
-11.327516 64.610326 43.722811
-10.43416 64.826044 42.997818
-26.209005 77.634807 35.931714
-25.703508 77.050061 37.022997
-26.106381 79.354591 34.426907
-26.715538 78.247608 34.766118
-26.209005 77.634807 35.931714
-22.581018 82.953552 33.031483
-23.174942 83.895012 31.861082
-23.383809 82.283394 33.4555
-6.711743 64.456459 40.725277
-5.73749 64.445325 40.076179
-7.467631 66.013092 40.253479
-7.657022 64.501938 41.337666
-6.711743 64.456459 40.725277
-5.336534 72.690349 33.944079
-6.069625 74.248924 33.220802
-6.316172 72.957852 34.417185
-17.105791 70.163692 43.148559
-16.363721 68.808555 43.802747
-16.267722 70.583248 42.460016
-17.852432 71.61932 42.360371
-17.948431 69.844628 43.703102
-17.105791 70.163692 43.148559
-20.210844 82.741944 33.315086
-20.424472 81.373947 34.680222
-19.537427 81.640389 34.302364
-20.880393 83.889549 32.229557
-20.210844 82.741944 33.315086
-16.766468 82.209 32.793474
-15.793975 82.245445 32.304951
-6.325774 78.393574 29.773735
-5.590303 76.869216 30.635454
-25.171633 76.077576 38.299263
-24.639633 75.139752 39.486615
-25.067974 77.769306 36.868769
-25.703508 77.050061 37.022997
-25.171633 76.077576 38.299263
-11.317804 79.376316 32.352893
-12.310305 79.432579 32.943803
-11.57763 78.115139 33.677122
-11.089018 80.666687 31.003414
-11.317804 79.376316 32.352893
-10.356343 79.349247 31.736733
-10.936414 82.041966 29.549847
-11.089018 80.666687 31.003414
-9.908263 81.874886 29.013896
-10.936414 82.041966 29.549847
-8.891591 81.644539 28.520781
-9.908263 81.874886 29.013896
-9.110885 80.409272 29.894137
-7.823121 81.366615 28.029055
-8.891591 81.644539 28.520781
-4.831433 64.44409 39.459921
-3.980892 64.375404 38.931402
-5.616295 65.966377 39.024831
-5.73749 64.445325 40.076179
-4.831433 64.44409 39.459921
-5.074528 68.72068 36.762863
-5.392155 67.416351 37.879086
-4.392611 67.26947 37.29235
-4.829033 69.986538 35.658294
-5.828576 70.133419 36.24503
-5.074528 68.72068 36.762863
-4.589239 71.247456 34.557602
-4.829033 69.986538 35.658294
-12.260447 64.64743 44.306621
-11.327516 64.610326 43.722811
-13.064833 66.191429 43.805079
-12.260447 64.64743 44.306621
-18.618291 81.818188 33.874004
-19.537427 81.640389 34.302364
-18.831919 80.450191 35.23914
-27.139325 78.92125 33.425911
-26.715538 78.247608 34.766118
-27.065606 80.533959 31.897566
-27.139325 78.92125 33.425911
-26.49234 81.564095 31.735241
-27.065606 80.533959 31.897566
-25.874645 82.478172 31.502245
-26.49234 81.564095 31.735241
-25.995218 80.88147 33.028315
-25.21945 83.331028 31.28116
-25.874645 82.478172 31.502245
-24.519554 84.045681 31.026049
-25.21945 83.331028 31.28116
-24.677627 82.5102 32.540209
-23.836699 84.763737 30.680672
-24.519554 84.045681 31.026049
-23.836699 84.763737 30.680672
-23.174942 83.895012 31.861082
-14.826783 82.313118 31.716946
-15.793975 82.245445 32.304951
-15.081095 80.959221 33.166328
-13.082191 80.860325 32.098948
-13.342017 79.599148 33.423177
-12.310305 79.432579 32.943803
-13.879759 82.271896 31.218056
-13.082191 80.860325 32.098948
-14.826783 82.313118 31.716946
-13.879759 82.271896 31.218056
-23.379799 73.279552 41.564512
-24.01962 74.233463 40.526235
-9.570061 64.833367 42.412616
-10.43416 64.826044 42.997818
-8.630118 64.59642 41.938358
-7.657022 64.501938 41.337666
-9.352853 66.295517 41.340126
-9.570061 64.833367 42.412616
-8.630118 64.59642 41.938358
-5.810604 75.556377 31.918381
-6.790241 75.823879 32.391488
-6.069625 74.248924 33.220802
-5.590303 76.869216 30.635454
-5.810604 75.556377 31.918381
-5.336534 72.690349 33.944079
-4.589239 71.247456 34.557602
-22.655575 73.948185 41.176761
-23.379799 73.279552 41.564512
-13.86676 67.82888 43.16744
-13.064833 66.191429 43.805079
-12.881433 67.738479 42.626732
-14.787906 67.75497 43.729996
-13.86676 67.82888 43.16744
-14.604506 69.302021 42.551649
-15.645108 67.542465 44.335578
-14.787906 67.75497 43.729996
-15.645108 67.542465 44.335578
-16.363721 68.808555 43.802747
-18.84432 69.657643 44.150841
-17.948431 69.844628 43.703102
-19.579614 70.92136 43.396732
-18.84432 69.657643 44.150841
-20.375173 72.110592 42.659187
-19.579614 70.92136 43.396732
-19.490631 72.489487 42.177368
-21.150633 73.295422 41.784534
-20.375173 72.110592 42.659187
-21.826439 74.483506 40.854763
-21.150633 73.295422 41.784534
-20.961996 74.866803 40.510052
-22.466938 75.519565 39.902279
-22.655575 73.948185 41.176761
-21.826439 74.483506 40.854763
-21.73502 83.520336 32.565005
-22.581018 82.953552 33.031483
-21.943887 81.908718 34.159422
-21.73502 83.520336 32.565005
-20.880393 83.889549 32.229557
-17.698715 82.077221 33.321697
-16.980536 80.75977 34.282556
-16.766468 82.209 32.793474
-18.618291 81.818188 33.874004
-17.698715 82.077221 33.321697
-7.107271 79.91737 28.929713
-7.312716 78.655129 30.245044
-6.325774 78.393574 29.773735
-7.823121 81.366615 28.029055
-7.107271 79.91737 28.929713
3 0 53 55
3 53 13 54
3 53 54 55
3 0 15 13
3 1 18 16
3 1 19 18
3 1 20 19
3 56 21 57
3 59 58 21
3 2 60 62
3 60 23 61
3 60 61 62
3 3 26 24
3 3 28 26
3 3 30 28
3 4 63 64
3 4 65 67
3 65 31 66
3 65 66 67
3 4 32 31
3 5 33 14
3 5 68 70
3 70 69 33
3 68 69 70
3 6 36 34
3 8 37 17
3 8 38 37
3 8 40 38
3 9 71 72
3 9 73 75
3 73 41 74
3 73 74 75
3 9 42 41
3 10 43 22
3 10 44 43
3 10 76 78
3 78 77 44
3 76 77 78
3 7 46 35
3 11 47 25
3 11 79 81
3 81 80 47
3 79 80 81
3 11 82 84
3 82 48 83
3 82 83 84
3 12 49 27
3 12 50 49
3 12 51 50
3 85 52 86
3 87 86 29
3 85 86 87
3 89 88 52
3 91 90 39
3 93 92 45
3 13 94 95
3 13 96 98
3 96 4 97
3 96 97 98
3 13 14 4
3 15 14 13
3 15 5 14
3 16 17 6
3 18 17 16
3 18 8 17
3 18 99 101
3 101 100 8
3 99 100 101
3 19 102 104
3 104 103 18
3 102 103 104
3 19 105 106
3 19 107 108
3 20 109 111
3 111 110 19
3 109 110 111
3 20 112 113
3 21 114 115
3 21 116 118
3 116 9 117
3 116 117 118
3 21 22 9
3 119 22 120
3 121 120 21
3 119 120 121
3 122 10 123
3 124 123 22
3 122 123 124
3 126 125 10
3 23 127 128
3 23 129 130
3 24 25 7
3 26 25 24
3 26 11 25
3 26 27 11
3 28 27 26
3 28 12 27
3 28 29 12
3 30 29 28
3 30 131 133
3 133 132 29
3 131 132 133
3 31 134 135
3 31 136 137
3 31 138 139
3 32 140 142
3 142 141 31
3 140 141 142
3 32 143 144
3 14 32 4
3 33 32 14
3 33 145 147
3 147 146 32
3 145 146 147
3 33 148 149
3 151 150 33
3 34 35 2
3 36 35 34
3 36 7 35
3 17 36 6
3 37 36 17
3 37 7 36
3 37 24 7
3 38 24 37
3 38 3 24
3 38 39 3
3 40 39 38
3 40 152 154
3 154 153 39
3 152 153 154
3 155 40 156
3 157 156 8
3 155 156 157
3 158 40 159
3 161 160 40
3 162 0 163
3 164 2 165
3 41 166 167
3 41 168 170
3 168 2 169
3 168 169 170
3 41 34 2
3 42 34 41
3 42 6 34
3 22 42 9
3 43 42 22
3 43 6 42
3 43 16 6
3 44 16 43
3 44 1 16
3 44 45 1
3 171 45 172
3 173 172 44
3 171 172 173
3 175 174 45
3 177 176 10
3 178 0 179
3 35 23 2
3 46 23 35
3 46 180 182
3 182 181 23
3 180 181 182
3 25 46 7
3 47 46 25
3 47 183 185
3 185 184 46
3 183 184 185
3 47 186 187
3 189 188 47
3 48 190 191
3 48 192 193
3 27 48 11
3 49 48 27
3 49 194 196
3 196 195 48
3 194 195 196
3 49 197 198
3 50 199 201
3 201 200 49
3 199 200 201
3 50 202 204
3 202 0 203
3 202 203 204
3 50 15 0
3 51 15 50
3 51 5 15
3 29 51 12
3 52 51 29
3 52 5 51
3 52 205 207
3 207 206 5
3 205 206 207
3 209 208 52
3 39 30 3
3 210 30 211
3 212 211 39
3 210 211 212
3 214 213 30
3 45 20 1
3 215 20 216
3 217 216 45
3 215 216 217
3 219 218 20
