ply
format ascii 1.0
element vertex 258
property float x
property float y
property float z
element face 249
property list uchar int vertex_index
end_header
-25.656282 2.004882 38.759708
-32.352253 -9.349893 32.579956
-23.304344 -6.056851 43.01664
-19.728189 -1.793596 46.5956
-29.328829 -2.925539 35.483978
-30.541582 -13.621858 34.4394
-35.253281 -8.810264 29.038868
-24.591703 -2.16434 41.001171
-26.350458 -4.527247 39.222931
-27.593018 -0.284941 37.033257
-29.404795 -10.144478 35.805279
-21.572147 -3.962539 44.887562
-22.68766 0.009833 42.780327
-27.827583 -7.241013 37.620865
-31.01263 -5.87365 33.872551
-33.996315 -5.146432 30.191658
-31.562723 -11.458553 33.483688
-32.117081 -13.233665 32.879379
-33.00433 -11.111128 31.921419
-33.878429 -9.049455 30.790718
-25.158028 -0.132185 39.900829
-26.073078 -1.186904 39.040951
-26.61162 0.789429 37.945309
-28.496601 -12.348016 36.606567
-27.823874 -10.783379 37.480274
-20.642876 -2.869097 45.781349
-22.087601 -1.938328 43.926159
-21.233364 -0.735934 44.646893
-27.797604 -3.743091 37.413353
-27.20137 -5.781036 38.307129
-28.685287 -5.101746 36.512836
-29.496031 -6.492712 35.671638
-30.176403 -4.372593 34.68779
-18.20281 -2.777744 48.477234
-29.51733 -15.841782 35.185875
-23.990551 -4.035083 42.011433
-24.735605 -5.293153 41.230644
-25.494242 -3.275497 40.09745
-26.902946 -2.400342 38.275745
-28.397739 -1.689829 36.37101
-28.970533 -14.044399 35.929958
-30.034906 -11.920468 35.058247
-30.881086 -9.731665 34.211803
-26.175886 4.152781 37.507023
-27.156082 3.018948 36.683731
-22.486408 -4.94255 43.92194
-23.111065 -2.897388 42.898781
-23.675613 -1.0293 41.863903
-24.173019 1.025972 40.777699
-17.272726 -1.824614 49.241806
-18.785587 -0.732902 47.37748
-20.238674 0.13413 45.554272
-21.711861 1.136384 43.612709
-23.209318 2.153458 41.593987
-24.689402 3.246147 39.542625
-25.617426 -6.473927 40.217026
-26.385202 -7.906486 39.298328
-27.181 -9.335608 38.31152
-28.656925 -8.542049 36.670902
-30.205196 -7.985024 34.927872
-31.759548 -7.54753 33.145397
-28.118328 1.682735 35.913975
-29.095337 0.317899 35.100601
-29.999214 -1.005925 34.325455
-30.860443 -2.400672 33.571327
-31.730082 -3.861214 32.774586
-32.48085 -5.420044 32.091526
-33.164402 -7.302898 31.485771
-34.598644 -6.89902 29.667824
-27.028434 -11.117801 38.321247
-27.33189 -11.87614 37.866089
-20.185533 -2.331346 46.188474
-19.876318 -3.358774 46.735172
-19.418975 -2.821024 47.142297
-23.716938 -6.690945 42.520773
-22.962555 -7.122968 43.437741
-17.424178 -3.310293 49.398067
-17.91703 -3.744892 48.959259
-30.784223 -14.538774 34.137964
-30.272098 -15.648736 34.511202
-30.029456 -14.73182 34.812638
-32.342228 -14.226907 32.623655
-32.864489 -13.221826 32.087231
-35.511043 -9.848105 28.791137
-34.837376 -9.892016 29.657345
-35.916798 -8.869962 28.106902
-36.17456 -9.907803 27.859171
-35.511043 -9.848105 28.791137
-28.166762 -14.251273 36.687183
-28.481473 -15.095513 36.228872
-26.869814 4.552044 36.549397
-26.374152 5.18996 36.934772
-21.263549 -4.944881 45.363678
-20.77543 -4.436982 45.877972
-22.029277 -4.452545 44.404751
-21.72068 -5.434886 44.880867
-21.263549 -4.944881 45.363678
-17.504706 -0.84326 48.747349
-16.789164 -1.389884 49.61845
-18.261137 -0.297405 47.815186
-18.029156 -1.278758 48.309643
-17.504706 -0.84326 48.747349
-20.470674 1.153678 45.010151
-19.752092 0.627874 45.954813
-21.207267 1.654805 44.03937
-20.975268 0.635257 44.58349
-20.470674 1.153678 45.010151
-23.443431 3.23735 40.999207
-22.69254 2.656424 42.0469
-24.183473 3.783695 39.973526
-23.94936 2.699803 40.568306
-23.443431 3.23735 40.999207
-24.407429 4.793034 39.396842
-24.913358 4.255486 38.965941
-24.183473 3.783695 39.973526
-28.351196 2.672046 35.344729
-27.637205 2.350842 36.298853
-27.870073 3.340152 35.729607
-29.882607 0.714029 34.052354
-29.375807 1.402806 34.470693
-30.334546 0.052117 33.664782
-29.547275 -0.344013 34.713028
-29.882607 0.714029 34.052354
-31.622566 -2.120256 32.590292
-31.164384 -1.394577 32.991611
-32.057386 -2.850528 32.191921
-31.295262 -3.130943 33.172956
-31.622566 -2.120256 32.590292
-33.238582 -5.283238 31.141592
-32.880043 -4.46116 31.457452
-33.637776 -4.324354 30.507518
-33.308114 -12.160557 31.608251
-32.864489 -13.221826 32.087231
-32.560705 -12.172397 32.400399
-33.712901 -11.042448 31.098621
-33.308114 -12.160557 31.608251
-34.14995 -10.011612 30.53327
-33.712901 -11.042448 31.098621
-33.441379 -10.080292 31.356068
-34.565855 -8.929859 29.914793
-34.837376 -9.892016 29.657345
-34.14995 -10.011612 30.53327
-27.668253 -12.658459 37.429236
-27.929796 -13.403082 37.025487
-28.160238 -11.565697 37.04342
-27.668253 -12.658459 37.429236
-27.33189 -11.87614 37.866089
-20.310795 -3.890261 46.324866
-19.876318 -3.358774 46.735172
-21.107512 -3.415818 45.334456
-20.77543 -4.436982 45.877972
-20.310795 -3.890261 46.324866
-34.343773 -4.108763 29.557158
-33.637776 -4.324354 30.507518
-34.681866 -5.04513 29.273291
-34.343773 -4.108763 29.557158
-18.656285 -3.313098 48.083115
-17.91703 -3.744892 48.959259
-18.965499 -2.28567 47.536417
-19.418975 -2.821024 47.142297
-18.656285 -3.313098 48.083115
-29.758242 -16.724774 34.863858
-28.973006 -16.95967 35.488707
-29.758242 -16.724774 34.863858
-30.272098 -15.648736 34.511202
-31.571973 -14.344677 33.357954
-30.784223 -14.538774 34.137964
-31.329331 -13.427761 33.65939
-31.571973 -14.344677 33.357954
-32.342228 -14.226907 32.623655
-28.754872 -15.994204 35.856831
-28.973006 -16.95967 35.488707
-29.243932 -14.943091 35.557917
-28.754872 -15.994204 35.856831
-28.481473 -15.095513 36.228872
-28.733567 -13.196207 36.268262
-28.166762 -14.251273 36.687183
-27.929796 -13.403082 37.025487
-27.359912 3.985127 36.13775
-26.665984 3.585865 37.095377
-26.869814 4.552044 36.549397
-27.870073 3.340152 35.729607
-27.359912 3.985127 36.13775
-22.539766 -6.539394 43.965032
-22.962555 -7.122968 43.437741
-22.130798 -5.982244 44.417682
-21.72068 -5.434886 44.880867
-22.895376 -5.4997 43.46929
-22.539766 -6.539394 43.965032
-22.130798 -5.982244 44.417682
-16.44432 -2.311749 50.183716
-16.789164 -1.389884 49.61845
-16.959136 -2.833728 49.780353
-16.44432 -2.311749 50.183716
-17.737768 -2.301179 48.85952
-17.424178 -3.310293 49.398067
-16.959136 -2.833728 49.780353
-19.025549 0.194358 46.866417
-18.261137 -0.297405 47.815186
-19.51213 -0.299386 46.465876
-19.025549 0.194358 46.866417
-19.752092 0.627874 45.954813
-21.943811 2.147887 43.056261
-21.207267 1.654805 44.03937
-22.460589 1.644921 42.603348
-21.943811 2.147887 43.056261
-22.69254 2.656424 42.0469
-25.6566 4.708804 37.948139
-25.432644 3.699464 38.524824
-24.913358 4.255486 38.965941
-26.374152 5.18996 36.934772
-25.6566 4.708804 37.948139
-24.432569 -6.309096 41.627775
-23.716938 -6.690945 42.520773
-24.019975 -5.675002 42.123642
-24.873479 -6.899483 41.120966
-24.432569 -6.309096 41.627775
-25.176516 -5.88354 40.723835
-25.278361 -7.524835 40.604224
-24.873479 -6.899483 41.120966
-25.66225 -8.241115 40.144875
-25.278361 -7.524835 40.604224
-26.001314 -7.190207 39.757677
-26.002949 -8.952603 39.677637
-25.66225 -8.241115 40.144875
-26.400849 -9.667164 39.184233
-26.002949 -8.952603 39.677637
-26.783101 -8.621047 38.804924
-26.706997 -10.393915 38.73687
-26.400849 -9.667164 39.184233
-27.502437 -10.059494 37.895897
-27.028434 -11.117801 38.321247
-26.706997 -10.393915 38.73687
-28.887303 2.085224 34.877381
-28.351196 2.672046 35.344729
-28.606833 1.000317 35.507288
-28.887303 2.085224 34.877381
-29.375807 1.402806 34.470693
-30.73377 -0.697203 33.368675
-30.334546 0.052117 33.664782
-30.429828 -1.703299 33.948391
-30.73377 -0.697203 33.368675
-31.164384 -1.394577 32.991611
-32.504659 -3.681745 31.798982
-32.057386 -2.850528 32.191921
-32.105466 -4.640629 32.433056
-32.504659 -3.681745 31.798982
-32.880043 -4.46116 31.457452
-34.98303 -5.921424 29.011373
-34.29748 -6.022726 29.929741
-34.681866 -5.04513 29.273291
-35.27421 -6.874211 28.750259
-34.98303 -5.921424 29.011373
-35.601529 -7.829833 28.435782
-34.925962 -7.854642 29.353346
-35.27421 -6.874211 28.750259
-35.916798 -8.869962 28.106902
-35.601529 -7.829833 28.435782
3 1 18 16
3 1 19 18
3 0 22 20
3 69 24 70
3 3 71 73
3 71 25 72
3 71 72 73
3 3 27 25
3 2 74 75
3 4 30 28
3 4 32 30
3 76 33 77
3 5 78 80
3 80 79 34
3 78 79 80
3 82 81 17
3 6 83 84
3 6 85 87
3 85 86 87
3 7 37 35
3 9 38 21
3 9 39 38
3 88 40 89
3 10 41 23
3 10 42 41
3 91 90 43
3 11 92 93
3 11 94 96
3 94 45 95
3 94 95 96
3 11 46 45
3 12 47 26
3 12 48 47
3 97 49 98
3 99 50 100
3 101 100 49
3 99 100 101
3 102 51 103
3 104 52 105
3 106 105 51
3 104 105 106
3 107 53 108
3 109 54 110
3 111 110 53
3 109 110 111
3 114 113 54
3 112 113 114
3 8 55 36
3 13 56 29
3 13 57 56
3 13 58 57
3 14 59 31
3 14 60 59
3 115 61 116
3 117 116 44
3 115 116 117
3 118 62 119
3 120 63 121
3 122 121 62
3 120 121 122
3 123 64 124
3 125 65 126
3 127 126 64
3 125 126 127
3 15 128 130
3 128 66 129
3 128 129 130
3 15 67 66
3 15 68 67
3 16 17 5
3 18 17 16
3 18 131 133
3 133 132 17
3 131 132 133
3 18 134 135
3 19 136 138
3 138 137 18
3 136 137 138
3 19 139 141
3 139 6 140
3 139 140 141
3 20 21 7
3 22 21 20
3 22 9 21
3 142 23 143
3 24 144 146
3 144 23 145
3 144 145 146
3 24 10 23
3 25 147 148
3 25 149 151
3 149 11 150
3 149 150 151
3 25 26 11
3 27 26 25
3 27 12 26
3 28 29 8
3 30 29 28
3 30 13 29
3 30 31 13
3 32 31 30
3 32 14 31
3 152 15 153
3 155 154 15
3 33 156 157
3 33 158 160
3 158 3 159
3 158 159 160
3 34 161 162
3 164 163 34
3 17 165 167
3 167 166 5
3 165 166 167
3 169 168 17
3 35 36 2
3 37 36 35
3 37 8 36
3 21 37 7
3 38 37 21
3 38 8 37
3 38 28 8
3 39 28 38
3 39 4 28
3 170 34 171
3 40 172 174
3 172 34 173
3 172 173 174
3 40 5 34
3 23 175 177
3 175 40 176
3 175 176 177
3 41 40 23
3 41 5 40
3 41 16 5
3 42 16 41
3 42 1 16
3 43 44 0
3 178 44 179
3 180 179 43
3 178 179 180
3 182 181 44
3 183 2 184
3 45 185 186
3 45 187 189
3 187 2 188
3 187 188 189
3 45 35 2
3 46 35 45
3 46 7 35
3 26 46 11
3 47 46 26
3 47 7 46
3 47 20 7
3 48 20 47
3 48 0 20
3 49 190 191
3 49 192 193
3 49 194 196
3 194 33 195
3 194 195 196
3 50 33 49
3 50 3 33
3 197 50 198
3 51 199 201
3 199 50 200
3 199 200 201
3 51 3 50
3 51 27 3
3 52 27 51
3 52 12 27
3 202 52 203
3 53 204 206
3 204 52 205
3 204 205 206
3 53 12 52
3 53 48 12
3 54 48 53
3 54 0 48
3 54 43 0
3 207 43 208
3 209 208 54
3 207 208 209
3 211 210 43
3 36 212 214
3 214 213 2
3 212 213 214
3 55 215 217
3 217 216 36
3 215 216 217
3 55 218 219
3 29 55 8
3 56 55 29
3 56 220 222
3 222 221 55
3 220 221 222
3 56 223 224
3 57 225 227
3 227 226 56
3 225 226 227
3 57 228 229
3 57 230 232
3 230 24 231
3 230 231 232
3 58 24 57
3 58 10 24
3 31 58 13
3 59 58 31
3 59 10 58
3 59 42 10
3 60 42 59
3 60 1 42
3 44 22 0
3 61 22 44
3 61 9 22
3 233 61 234
3 62 235 237
3 235 61 236
3 235 236 237
3 62 9 61
3 62 39 9
3 63 39 62
3 63 4 39
3 238 63 239
3 64 240 242
3 240 63 241
3 240 241 242
3 64 4 63
3 64 32 4
3 65 32 64
3 65 14 32
3 243 65 244
3 66 245 247
3 245 65 246
3 245 246 247
3 66 14 65
3 66 60 14
3 67 60 66
3 67 1 60
3 67 19 1
3 68 19 67
3 68 6 19
3 248 68 249
3 250 249 15
3 248 249 250
3 251 68 252
3 253 6 254
3 255 254 68
3 253 254 255
3 257 256 6
