ply
format ascii 1.0
element vertex 253
property float x
property float y
property float z
element face 248
property list uchar int vertex_index
end_header
-1.79265 -49.455223 53.385555
7.362097 -51.047615 42.381096
3.620145 -46.232735 48.108727
2.334969 -55.050747 45.619778
0.92308 -63.87709 40.094517
1.140327 -47.91217 50.65596
2.95725 -50.641453 47.201324
0.219585 -52.199047 49.472378
-4.842277 -62.830578 45.80241
-1.584526 -61.135429 44.642342
-2.450021 -65.509705 41.037338
-2.982303 -53.839699 51.789841
2.129244 -43.52206 51.281773
5.414934 -48.751781 45.065399
4.942325 -53.166389 44.013992
4.54333 -57.488674 42.202209
-0.618121 -56.726761 47.35984
1.657303 -59.540157 43.228012
-0.234018 -48.558971 52.041805
0.671358 -49.978146 50.19022
-0.808991 -50.870319 51.404549
-3.64112 -64.126526 43.45977
8.48604 -49.979774 41.566994
0.753235 -44.385731 52.846764
5.58711 -46.781055 45.39587
4.444884 -47.564919 46.588322
2.594844 -52.797215 46.583237
3.969611 -51.827183 45.570477
3.683908 -54.187431 44.773617
4.713963 -55.409859 43.192135
3.364355 -56.390553 43.871948
-1.817377 -55.327888 49.546383
-2.204402 -57.590469 48.195568
-0.340647 -62.544109 42.325829
0.009629 -60.285374 44.02211
1.193756 -61.639957 41.910305
2.772054 -60.80946 41.348709
2.419766 -62.920177 39.862778
8.416291 -47.971916 42.007858
7.458697 -48.996296 42.779686
2.419483 -47.180771 49.335079
3.3029 -48.434399 47.699326
2.027622 -49.243725 48.926292
1.533477 -51.296852 48.506935
1.236006 -53.646877 47.542355
-2.685172 -59.787037 46.803921
-3.163903 -61.96822 45.218433
-1.958954 -63.391449 42.819084
-0.773399 -64.702675 40.564842
-3.405618 -50.224274 54.706902
-2.41174 -51.616959 52.71722
2.799835 -45.017662 49.700958
1.549598 -45.756237 51.119637
0.18302 -46.495579 52.590347
-1.252602 -47.182789 54.047043
-2.770168 -48.008171 55.375652
-4.432891 -48.753296 56.744503
6.51518 -48.032063 44.002823
6.377672 -50.051888 43.641178
4.248085 -49.594437 46.133339
5.190829 -50.815708 44.658604
6.14792 -52.161018 43.220589
6.088645 -54.323086 42.450748
-1.347499 -53.13818 50.57568
-0.272574 -54.466019 48.584198
0.812096 -55.843021 46.603157
-1.063422 -58.846138 46.14082
0.466159 -58.134438 45.320099
1.883126 -57.235317 44.676998
3.090118 -58.486454 42.787697
4.239886 -59.785362 40.963497
7.909994 -51.645586 41.713724
8.471965 -51.111666 41.306673
7.924068 -50.513694 41.974045
7.352162 -52.164655 42.050808
7.909994 -51.645586 41.713724
4.032514 -46.898827 47.348524
4.627088 -46.587145 46.652247
4.214719 -45.921053 47.412449
-3.088648 -58.030048 48.651114
-2.802332 -56.910024 49.300747
1.491323 -64.580906 39.007962
2.239666 -64.102449 38.892092
1.671423 -63.398634 39.978648
7.925743 -47.510075 42.593967
8.351942 -47.026094 42.215616
7.446945 -48.022265 42.979881
7.937494 -48.484106 42.393772
7.925743 -47.510075 42.593967
-4.00309 -62.399399 45.510421
-3.779734 -61.324816 46.363958
-4.618921 -61.755995 46.655946
-1.80004 -66.180347 39.822895
-0.961729 -65.776832 39.586647
-1.61171 -65.10619 40.80109
-3.746855 -51.353214 54.29682
-4.248339 -50.669745 55.282871
2.729122 -43.277714 50.499836
2.360432 -42.586326 51.337391
2.464539 -44.269861 50.491366
3.064418 -44.025514 49.709429
2.729122 -43.277714 50.499836
-0.252897 -45.778204 53.522095
0.468127 -45.440655 52.718556
0.032211 -44.72328 53.650303
-0.970708 -46.121809 54.250443
-0.534791 -46.839184 53.318695
-0.252897 -45.778204 53.522095
-3.257956 -47.27232 56.355424
-2.511133 -46.916987 55.690729
-4.089317 -47.644882 57.03985
-3.601529 -48.380733 56.060078
-3.257956 -47.27232 56.355424
5.213316 -57.049986 41.88328
5.298633 -56.010578 42.378242
4.628647 -56.449267 42.697172
5.136118 -58.166025 41.31488
5.213316 -57.049986 41.88328
4.117089 -60.926712 40.195839
3.50597 -60.297411 41.156103
3.383172 -61.438761 40.388445
4.847936 -60.426939 40.048174
4.117089 -60.926712 40.195839
-4.490099 -64.597767 43.667872
-4.241699 -63.478552 44.63109
-5.090677 -63.949793 44.839191
-3.855084 -65.227303 42.457009
-4.490099 -64.597767 43.667872
-3.259535 -65.918892 41.245793
-3.045571 -64.818116 42.248554
-3.855084 -65.227303 42.457009
-2.637952 -66.667339 39.92371
-3.259535 -65.918892 41.245793
9.0515 -50.503202 40.952567
8.982316 -49.451911 41.210957
9.0515 -50.503202 40.952567
8.471965 -51.111666 41.306673
1.714622 -42.885835 52.16753
2.360432 -42.586326 51.337391
1.026617 -43.317671 52.950026
1.44124 -43.953896 52.064268
1.714622 -42.885835 52.16753
0.377783 -43.621719 53.727964
1.026617 -43.317671 52.950026
0.032211 -44.72328 53.650303
0.377783 -43.621719 53.727964
5.198201 -46.195213 46.056021
5.696986 -45.829 45.492153
5.015997 -47.172987 45.992096
5.198201 -46.195213 46.056021
4.627088 -46.587145 46.652247
-2.60882 -55.778734 49.976154
-2.39984 -54.583793 50.668112
-3.191282 -55.034639 51.097884
-2.01089 -56.459179 48.870976
-2.60882 -55.778734 49.976154
-2.802332 -56.910024 49.300747
3.207028 -62.494119 39.64548
3.383172 -61.438761 40.388445
2.59591 -61.864818 40.605744
3.010757 -63.641298 38.798368
3.207028 -62.494119 39.64548
3.010757 -63.641298 38.798368
2.239666 -64.102449 38.892092
8.893964 -47.407913 41.63093
8.351942 -47.026094 42.215616
8.947442 -48.447982 41.431388
8.893964 -47.407913 41.63093
8.451165 -48.975845 41.787426
8.982316 -49.451911 41.210957
8.947442 -48.447982 41.431388
-3.540369 -60.234224 47.156702
-3.329033 -59.128332 47.95529
-2.924538 -60.877629 46.011177
-3.540369 -60.234224 47.156702
-3.779734 -61.324816 46.363958
-0.148567 -65.347183 39.445388
0.699673 -64.934391 39.210226
0.074841 -64.289883 40.329679
-0.148567 -65.347183 39.445388
-0.961729 -65.776832 39.586647
-1.80004 -66.180347 39.822895
-2.637952 -66.667339 39.92371
-3.249916 -52.049557 53.301979
-2.908679 -50.920617 53.712061
-3.746855 -51.353214 54.29682
-3.535198 -53.160927 52.83829
-2.697021 -52.728329 52.25353
-3.249916 -52.049557 53.301979
-3.746138 -54.296519 52.206862
-3.535198 -53.160927 52.83829
-3.191282 -55.034639 51.097884
-3.746138 -54.296519 52.206862
-5.492235 -62.169781 47.016636
-4.618921 -61.755995 46.655946
-5.749083 -63.255864 46.130125
-5.492235 -62.169781 47.016636
-5.090677 -63.949793 44.839191
-5.749083 -63.255864 46.130125
3.840582 -45.277831 48.139617
4.214719 -45.921053 47.412449
3.430427 -44.670294 48.935732
3.064418 -44.025514 49.709429
3.20999 -45.625198 48.904843
3.840582 -45.277831 48.139617
3.430427 -44.670294 48.935732
-1.75235 -46.504295 55.026425
-0.970708 -46.121809 54.250443
-2.011385 -47.59548 54.711348
-1.75235 -46.504295 55.026425
-2.511133 -46.916987 55.690729
-4.761976 -49.934255 56.301672
-4.248339 -50.669745 55.282871
-3.919255 -49.488785 55.725702
-4.951052 -48.001335 57.740358
-4.089317 -47.644882 57.03985
-5.263392 -49.138504 57.332749
-4.951052 -48.001335 57.740358
-4.761976 -49.934255 56.301672
-5.263392 -49.138504 57.332749
6.083924 -46.425217 44.870085
5.696986 -45.829 45.492153
6.547959 -47.05072 44.173561
6.083924 -46.425217 44.870085
6.051145 -47.406559 44.699347
6.975187 -47.540148 43.59145
6.547959 -47.05072 44.173561
6.986938 -48.514179 43.391255
7.446945 -48.022265 42.979881
6.975187 -47.540148 43.59145
6.745074 -52.721357 42.470554
7.352162 -52.164655 42.050808
6.755009 -51.604316 42.800843
6.715436 -53.802391 42.085634
6.745074 -52.721357 42.470554
6.118282 -53.242052 42.835668
6.653954 -54.915863 41.709997
6.715436 -53.802391 42.085634
5.985974 -55.467192 42.007549
5.401304 -54.866473 42.821441
5.298633 -56.010578 42.378242
6.653954 -54.915863 41.709997
5.985974 -55.467192 42.007549
-2.444787 -58.688753 47.499745
-3.088648 -58.030048 48.651114
-3.329033 -59.128332 47.95529
4.984396 -59.314369 40.695524
5.136118 -58.166025 41.31488
4.391608 -58.637018 41.582853
4.984396 -59.314369 40.695524
4.847936 -60.426939 40.048174
1.491323 -64.580906 39.007962
0.699673 -64.934391 39.210226
3 0 20 18
3 1 71 73
3 73 72 22
3 71 72 73
3 1 74 75
3 2 76 78
3 76 25 77
3 76 77 78
3 3 28 26
3 3 30 28
3 79 32 80
3 4 35 33
3 4 37 35
3 4 81 83
3 83 82 37
3 81 82 83
3 84 38 85
3 86 39 87
3 88 87 38
3 86 87 88
3 5 42 40
3 7 43 19
3 7 44 43
3 8 89 91
3 89 46 90
3 89 90 91
3 10 47 21
3 10 48 47
3 10 92 94
3 94 93 48
3 92 93 94
3 96 95 49
3 12 97 98
3 12 99 101
3 99 51 100
3 99 100 101
3 12 52 51
3 102 53 103
3 104 103 23
3 102 103 104
3 105 54 106
3 107 106 53
3 105 106 107
3 108 55 109
3 110 56 111
3 112 111 55
3 110 111 112
3 13 57 24
3 13 58 57
3 6 59 41
3 14 60 27
3 14 61 60
3 14 62 61
3 15 113 115
3 115 114 29
3 113 114 115
3 15 116 117
3 11 63 50
3 16 64 31
3 16 65 64
3 9 66 45
3 17 67 34
3 17 68 67
3 17 69 68
3 118 70 119
3 120 119 36
3 118 119 120
3 122 121 70
3 18 19 5
3 20 19 18
3 20 7 19
3 123 21 124
3 125 124 8
3 123 124 125
3 126 21 127
3 128 10 129
3 130 129 21
3 128 129 130
3 132 131 10
3 22 133 134
3 136 135 22
3 137 12 138
3 139 23 140
3 141 140 12
3 139 140 141
3 142 23 143
3 145 144 23
3 146 24 147
3 25 148 150
3 148 24 149
3 148 149 150
3 25 13 24
3 26 27 6
3 28 27 26
3 28 14 27
3 28 29 14
3 30 29 28
3 30 15 29
3 151 31 152
3 153 152 11
3 151 152 153
3 32 154 156
3 154 31 155
3 154 155 156
3 32 16 31
3 33 34 9
3 35 34 33
3 35 17 34
3 35 36 17
3 37 36 35
3 37 157 159
3 159 158 36
3 157 158 159
3 37 160 161
3 163 162 37
3 38 164 165
3 38 166 167
3 38 168 170
3 168 22 169
3 168 169 170
3 39 22 38
3 39 1 22
3 40 41 2
3 42 41 40
3 42 6 41
3 19 42 5
3 43 42 19
3 43 6 42
3 43 26 6
3 44 26 43
3 44 3 26
3 171 45 172
3 46 173 175
3 173 45 174
3 173 174 175
3 46 9 45
3 21 46 8
3 47 46 21
3 47 9 46
3 47 33 9
3 48 33 47
3 48 4 33
3 48 176 178
3 178 177 4
3 176 177 178
3 180 179 48
3 182 181 10
3 49 50 0
3 183 50 184
3 185 184 49
3 183 184 185
3 186 11 187
3 188 187 50
3 186 187 188
3 189 11 190
3 192 191 11
3 193 8 194
3 195 8 196
3 198 197 8
3 199 2 200
3 51 201 202
3 51 203 205
3 203 2 204
3 203 204 205
3 51 40 2
3 52 40 51
3 52 5 40
3 23 52 12
3 53 52 23
3 53 5 52
3 53 18 5
3 54 18 53
3 54 0 18
3 206 54 207
3 55 208 210
3 208 54 209
3 208 209 210
3 55 0 54
3 55 49 0
3 56 49 55
3 56 211 213
3 213 212 49
3 211 212 213
3 214 56 215
3 216 56 217
3 219 218 56
3 24 220 221
3 57 222 224
3 224 223 24
3 222 223 224
3 57 225 226
3 57 227 229
3 227 39 228
3 227 228 229
3 58 39 57
3 58 1 39
3 41 25 2
3 59 25 41
3 59 13 25
3 27 59 6
3 60 59 27
3 60 13 59
3 60 58 13
3 61 58 60
3 61 1 58
3 61 230 232
3 232 231 1
3 230 231 232
3 62 233 235
3 235 234 61
3 233 234 235
3 62 236 237
3 29 62 14
3 238 62 239
3 240 239 29
3 238 239 240
3 242 241 62
3 50 20 0
3 63 20 50
3 63 7 20
3 31 63 11
3 64 63 31
3 64 7 63
3 64 44 7
3 65 44 64
3 65 3 44
3 45 243 245
3 243 32 244
3 243 244 245
3 66 32 45
3 66 16 32
3 34 66 9
3 67 66 34
3 67 16 66
3 67 65 16
3 68 65 67
3 68 3 65
3 68 30 3
3 69 30 68
3 69 15 30
3 36 69 17
3 70 69 36
3 70 15 69
3 70 246 248
3 248 247 15
3 246 247 248
3 250 249 70
3 252 251 4
