ply
format ascii 1.0
element vertex 275
property float x
property float y
property float z
element face 266
property list uchar int vertex_index
end_header
-17.923731 45.438148 -13.953789
-26.590322 33.875092 -8.250269
-21.764774 39.745575 -10.673367
-29.55978 39.275188 -4.04625
-25.81707 46.227539 -7.309085
-17.490927 38.197914 -12.931623
-15.91251 40.720615 -14.79933
-14.559677 43.410576 -17.164331
-16.285452 48.088737 -16.163521
-21.580307 32.411098 -10.102205
-24.010702 36.718414 -9.429921
-19.298061 35.260773 -11.402924
-19.688702 42.520374 -12.161512
-28.585329 37.027256 -6.569234
-27.637907 42.755775 -5.620966
-26.318758 39.945995 -7.93748
-24.083126 43.37822 -9.401538
-22.149315 46.471802 -10.962933
-20.173452 49.689896 -12.975215
-17.659845 41.897511 -13.459181
-16.683155 39.506409 -13.811818
-16.854191 43.215263 -14.403956
-16.092882 44.685192 -15.49412
-17.084568 46.709709 -14.987539
-24.113163 33.388447 -9.2644
-25.312166 35.391354 -8.816738
-14.684041 47.096119 -17.935284
-21.586914 36.015961 -10.441039
-20.35763 33.745182 -10.726745
-20.503605 37.280502 -11.057575
-19.473169 38.744396 -11.768594
-20.653734 40.965454 -11.389849
-30.556141 37.649563 -3.14258
-30.255711 36.72308 -4.647499
-29.748228 35.514904 -5.883706
-29.168932 38.162266 -5.493463
-26.742472 44.368301 -6.445006
-27.067295 41.475533 -6.927835
-26.042387 43.150867 -7.686616
-25.180475 41.707436 -8.648646
-25.074263 44.887184 -8.455791
-23.149094 48.395073 -10.220917
-21.114014 47.955341 -11.929013
-17.326473 34.137619 -12.40717
-16.535057 35.682106 -13.27213
-15.780096 36.771187 -14.192282
-15.063786 38.049023 -15.301553
-15.213411 41.902962 -15.878244
-15.341282 45.762302 -16.650867
-22.795238 34.661854 -9.840927
-22.879477 38.247314 -10.019423
-29.800026 39.932575 -2.316808
-18.28299 36.457561 -12.13089
-18.509975 40.276424 -12.572555
-18.731424 43.855881 -13.021114
-28.944378 34.189194 -6.896219
-27.699579 35.64563 -7.512733
-28.847145 41.95771 -3.118279
-27.988533 43.794579 -4.000572
-28.605776 41.045723 -4.763103
-28.120365 39.946949 -6.130484
-27.433802 38.57399 -7.242309
-26.52244 36.968224 -8.113524
-25.290123 38.417347 -8.758816
-24.140589 40.154114 -9.402534
-22.969656 41.7262 -10.129949
-24.068827 46.636803 -9.333776
-23.086899 45.057831 -10.164412
-21.899641 43.048851 -10.861853
-20.955971 44.621494 -11.626888
-19.908154 46.009136 -12.544272
-18.996605 47.529789 -13.517964
-18.126448 48.959507 -14.575479
-25.982174 32.927852 -8.49534
-26.682077 32.205984 -8.222342
-25.951244 34.633223 -8.533504
-25.343097 33.685983 -8.778575
-25.982174 32.927852 -8.49534
-14.472042 49.433735 -19.020074
-14.363694 47.677252 -18.635722
-14.79239 48.852602 -18.319636
-26.279771 45.29792 -6.877045
-26.55089 45.7742 -6.209016
-26.088189 46.703819 -6.641056
-15.938574 48.758886 -16.76849
-15.466489 47.595669 -17.012163
-15.813367 46.92552 -16.407194
-29.74854 40.264238 -1.379864
-30.226244 39.107889 -1.885162
-14.242812 42.002607 -17.439681
-14.510261 41.471428 -16.83457
-20.965691 31.236978 -10.199898
-21.560966 30.647409 -9.921411
-19.247607 33.367086 -11.182402
-19.777392 32.60929 -10.844312
-19.827846 34.502978 -11.064834
-18.749285 33.982428 -11.522775
-19.247607 33.367086 -11.182402
-18.790526 35.859167 -11.766907
-18.24175 34.580821 -11.886758
-18.749285 33.982428 -11.522775
-28.454804 43.25486 -2.696197
-28.855087 42.258388 -2.236515
-27.81322 43.275177 -4.810769
-27.591556 44.64058 -4.458813
-27.416244 44.121178 -5.26901
-24.037026 48.276471 -9.294299
-24.492807 47.317841 -8.786489
-18.3054 50.84667 -14.895285
-18.690205 50.052326 -14.329352
-17.7493 49.678838 -15.121549
-18.3054 50.84667 -14.895285
-24.743595 32.684529 -9.002406
-24.092312 31.55027 -9.150959
-24.712665 34.3899 -9.040569
-24.743595 32.684529 -9.002406
-25.343097 33.685983 -8.778575
-14.315995 45.74708 -18.201053
-14.253813 43.904308 -17.815576
-14.621859 45.253348 -17.549808
-13.995648 46.328213 -18.901491
-14.315995 45.74708 -18.201053
-14.363694 47.677252 -18.635722
-30.944046 36.399493 -3.514669
-31.049962 36.797159 -2.757342
-30.793831 35.936251 -4.267129
-30.944046 36.399493 -3.514669
-30.405926 37.186322 -3.89504
-30.548133 35.419037 -4.938697
-30.793831 35.936251 -4.267129
-30.00197 36.118992 -5.265602
-30.294391 34.814949 -5.5568
-30.548133 35.419037 -4.938697
-26.968526 44.927441 -5.68103
-26.55089 45.7742 -6.209016
-27.190189 43.562038 -6.032986
-27.416244 44.121178 -5.26901
-26.968526 44.927441 -5.68103
-23.132462 50.018433 -10.286771
-23.57716 49.155605 -9.737869
-22.680813 49.070574 -10.706644
-23.132462 50.018433 -10.286771
-22.180923 48.108938 -11.077651
-22.649205 47.433437 -10.591925
-22.680813 49.070574 -10.706644
-21.663273 48.850708 -11.560692
-21.631664 47.213572 -11.445973
-22.180923 48.108938 -11.077651
-21.217713 49.779306 -12.097739
-21.663273 48.850708 -11.560692
-20.747432 50.646583 -12.62084
-20.643733 48.822618 -12.452114
-21.217713 49.779306 -12.097739
-16.878743 32.94456 -12.588408
-16.836663 31.027949 -12.343564
-17.284393 32.221008 -12.162325
-16.483035 33.716803 -13.020889
-16.878743 32.94456 -12.588408
-16.930765 34.909863 -12.83965
-16.119919 34.31937 -13.476074
-16.483035 33.716803 -13.020889
-15.742439 34.863911 -13.936151
-16.119919 34.31937 -13.476074
-16.157576 36.226647 -13.732206
-15.417818 35.461849 -14.444167
-15.742439 34.863911 -13.936151
-15.059663 36.100768 -14.998803
-15.417818 35.461849 -14.444167
-15.421941 37.410105 -14.746918
-14.764401 36.753963 -15.583333
-15.059663 36.100768 -14.998803
-14.762315 38.790651 -15.903181
-14.462931 37.495592 -16.184961
-14.764401 36.753963 -15.583333
-14.837128 40.717621 -16.191527
-14.762315 38.790651 -15.903181
-15.138599 39.975993 -15.589899
-14.886544 42.656769 -16.521287
-14.510261 41.471428 -16.83457
-14.837128 40.717621 -16.191527
-15.137868 48.262577 -17.654371
-15.012662 46.42921 -17.293076
-15.466489 47.595669 -17.012163
-14.79239 48.852602 -18.319636
-15.137868 48.262577 -17.654371
-22.21539 31.720002 -9.817801
-21.560966 30.647409 -9.921411
-23.481818 32.208676 -9.398899
-24.092312 31.55027 -9.150959
-22.822856 32.84538 -9.687162
-23.481818 32.208676 -9.398899
-23.4542 34.02515 -9.552664
-22.187773 33.536476 -9.971566
-22.21539 31.720002 -9.817801
-22.822856 32.84538 -9.687162
-30.604301 37.966383 -2.298048
-31.049962 36.797159 -2.757342
-31.098123 37.113979 -1.91281
-30.178083 38.791069 -2.729694
-30.604301 37.966383 -2.298048
-30.226244 39.107889 -1.885162
-25.670918 47.779833 -7.105133
-26.088189 46.703819 -6.641056
-25.366929 47.113208 -7.774144
-25.670918 47.779833 -7.105133
-27.267218 33.170575 -7.958709
-26.682077 32.205984 -8.222342
-14.242812 42.002607 -17.439681
-14.253813 43.904308 -17.815576
-20.354353 31.90402 -10.512168
-20.965691 31.236978 -10.199898
-20.968969 33.07814 -10.414475
-20.354353 31.90402 -10.512168
-19.777392 32.60929 -10.844312
-17.763492 33.420851 -12.024898
-17.284393 32.221008 -12.162325
-17.804732 35.29759 -12.26903
-17.763492 33.420851 -12.024898
-18.24175 34.580821 -11.886758
-29.955317 34.067368 -6.100744
-30.294391 34.814949 -5.5568
-29.553392 33.404512 -6.607
-29.955317 34.067368 -6.100744
-29.346303 34.852049 -6.389963
-29.083286 32.617453 -7.008017
-29.553392 33.404512 -6.607
-28.444246 33.327625 -7.281685
-29.083286 32.617453 -7.008017
-27.821846 34.055843 -7.589942
-28.444246 33.327625 -7.281685
-28.321979 34.917412 -7.204476
-27.144951 34.760361 -7.881501
-27.267218 33.170575 -7.958709
-27.821846 34.055843 -7.589942
-29.331527 41.245821 -1.83578
-29.74854 40.264238 -1.379864
-29.323586 40.945143 -2.717543
-29.331527 41.245821 -1.83578
-28.855087 42.258388 -2.236515
-27.680155 45.044186 -3.654979
-27.591556 44.64058 -4.458813
-28.025498 44.173294 -3.137344
-27.680155 45.044186 -3.654979
-28.417839 42.876144 -3.559425
-28.454804 43.25486 -2.696197
-28.025498 44.173294 -3.137344
-24.995525 46.443031 -8.347497
-25.445667 45.557361 -7.882438
-25.366929 47.113208 -7.774144
-24.571545 45.761994 -8.894783
-24.995525 46.443031 -8.347497
-24.492807 47.317841 -8.786489
-23.608961 47.515938 -9.777347
-24.037026 48.276471 -9.294299
-23.57716 49.155605 -9.737869
-20.287012 51.500483 -13.226814
-20.747432 50.646583 -12.62084
-19.713707 50.41752 -13.529221
-20.287012 51.500483 -13.226814
-19.125284 49.337467 -13.800595
-19.585028 48.609842 -13.246589
-19.713707 50.41752 -13.529221
-18.561526 48.244648 -14.046722
-19.125284 49.337467 -13.800595
-18.690205 50.052326 -14.329352
-17.22836 48.553939 -15.327579
-17.605508 47.834608 -14.781509
-17.7493 49.678838 -15.121549
-16.828802 49.243454 -15.91557
-16.68501 47.399223 -15.57553
-17.22836 48.553939 -15.327579
-16.418342 49.942047 -16.563897
-16.828802 49.243454 -15.91557
-15.938574 48.758886 -16.76849
-16.418342 49.942047 -16.563897
3 0 21 19
3 0 23 21
3 1 73 74
3 1 75 77
3 75 25 76
3 75 76 77
3 80 79 26
3 78 79 80
3 2 29 27
3 2 31 29
3 3 33 32
3 3 35 33
3 4 81 83
3 81 36 82
3 81 82 83
3 4 38 36
3 4 40 38
3 5 44 43
3 6 45 20
3 6 46 45
3 6 47 46
3 8 48 22
3 8 84 86
3 86 85 48
3 84 85 86
3 10 49 24
3 10 50 49
3 87 51 88
3 7 89 90
3 9 91 92
3 11 93 95
3 95 94 28
3 93 94 95
3 11 96 97
3 11 98 100
3 98 52 99
3 98 99 100
3 12 53 30
3 12 54 53
3 13 55 34
3 13 56 55
3 101 57 102
3 14 103 105
3 103 58 104
3 103 104 105
3 14 59 58
3 14 60 59
3 15 61 37
3 15 62 61
3 15 63 62
3 16 64 39
3 16 65 64
3 106 66 107
3 17 67 41
3 17 68 67
3 17 69 68
3 18 70 42
3 18 71 70
3 108 72 109
3 111 110 72
3 19 20 5
3 21 20 19
3 21 6 20
3 21 22 6
3 23 22 21
3 23 8 22
3 112 24 113
3 25 114 116
3 114 24 115
3 114 115 116
3 25 10 24
3 26 117 119
3 119 118 7
3 117 118 119
3 122 121 26
3 120 121 122
3 27 28 9
3 29 28 27
3 29 11 28
3 29 30 11
3 31 30 29
3 31 12 30
3 32 123 124
3 33 125 127
3 127 126 32
3 125 126 127
3 33 128 129
3 33 130 132
3 130 34 131
3 130 131 132
3 35 34 33
3 35 13 34
3 36 133 134
3 36 135 137
3 135 14 136
3 135 136 137
3 36 37 14
3 38 37 36
3 38 15 37
3 38 39 15
3 40 39 38
3 40 16 39
3 138 41 139
3 140 41 141
3 142 17 143
3 144 143 41
3 142 143 144
3 145 42 146
3 147 146 17
3 145 146 147
3 148 42 149
3 150 18 151
3 152 151 42
3 150 151 152
3 43 153 155
3 153 154 155
3 44 156 158
3 158 157 43
3 156 157 158
3 44 159 160
3 20 44 5
3 45 44 20
3 45 161 163
3 163 162 44
3 161 162 163
3 45 164 165
3 46 166 168
3 168 167 45
3 166 167 168
3 46 169 170
3 46 171 173
3 171 172 173
3 47 174 176
3 176 175 46
3 174 175 176
3 47 177 179
3 177 7 178
3 177 178 179
3 22 47 6
3 48 47 22
3 48 7 47
3 48 26 7
3 180 26 181
3 182 181 48
3 180 181 182
3 184 183 26
3 185 9 186
3 24 187 188
3 49 189 191
3 191 190 24
3 189 190 191
3 49 192 194
3 192 9 193
3 192 193 194
3 49 27 9
3 50 27 49
3 50 2 27
3 195 32 196
3 195 196 197
3 51 198 200
3 198 32 199
3 198 199 200
3 51 3 32
3 201 4 202
3 204 203 4
3 205 1 206
3 208 207 7
3 28 209 211
3 211 210 9
3 209 210 211
3 213 212 28
3 214 43 215
3 52 216 218
3 216 43 217
3 216 217 218
3 52 5 43
3 30 52 11
3 53 52 30
3 53 5 52
3 53 19 5
3 54 19 53
3 54 0 19
3 34 219 220
3 55 221 223
3 223 222 34
3 221 222 223
3 55 224 225
3 55 226 227
3 56 228 230
3 230 229 55
3 228 229 230
3 56 231 233
3 231 1 232
3 231 232 233
3 234 51 235
3 57 236 238
3 236 51 237
3 236 237 238
3 57 3 51
3 58 239 240
3 58 241 242
3 58 243 245
3 243 57 244
3 243 244 245
3 59 57 58
3 59 3 57
3 59 35 3
3 60 35 59
3 60 13 35
3 37 60 14
3 61 60 37
3 61 13 60
3 61 56 13
3 62 56 61
3 62 1 56
3 62 25 1
3 63 25 62
3 63 10 25
3 39 63 15
3 64 63 39
3 64 10 63
3 64 50 10
3 65 50 64
3 65 2 50
3 246 40 247
3 248 247 4
3 246 247 248
3 66 249 251
3 249 40 250
3 249 250 251
3 66 16 40
3 41 252 254
3 252 66 253
3 252 253 254
3 67 66 41
3 67 16 66
3 67 65 16
3 68 65 67
3 68 2 65
3 68 31 2
3 69 31 68
3 69 12 31
3 42 69 17
3 70 69 42
3 70 12 69
3 70 54 12
3 71 54 70
3 71 0 54
3 255 18 256
3 257 18 258
3 259 71 260
3 261 260 18
3 259 260 261
3 72 262 264
3 262 71 263
3 262 263 264
3 72 0 71
3 72 23 0
3 265 23 266
3 267 266 72
3 265 266 267
3 268 8 269
3 270 269 23
3 268 269 270
3 271 8 272
3 274 273 8
