ply
format ascii 1.0
element vertex 195
property float x
property float y
property float z
element face 185
property list uchar int vertex_index
end_header
-28.260529 -58.536919 -41.27541
-26.525644 -68.568535 -33.351547
-33.208988 -54.978943 -34.929504
-31.847189 -59.418964 -30.559431
-27.455664 -64.111351 -37.338749
-24.212152 -66.239059 -40.191845
-24.452887 -60.613495 -43.740314
-28.725277 -65.931786 -29.777025
-30.081873 -61.68261 -34.16243
-31.134493 -56.880272 -38.177956
-34.229084 -49.676491 -39.404057
-27.955988 -61.265732 -39.365978
-26.014793 -64.966705 -38.878242
-26.261349 -62.28437 -40.814106
-24.486235 -63.327522 -41.995358
-26.525261 -59.457088 -42.575001
-28.524927 -66.713486 -25.579205
-27.889668 -67.928131 -27.433449
-29.472061 -64.740593 -27.798676
-32.563168 -57.328106 -32.664536
-30.997068 -60.74876 -32.237816
-31.699495 -58.411064 -34.380016
-30.67576 -59.337101 -36.144382
-32.294254 -55.883842 -36.598038
-33.017536 -50.741711 -40.841393
-30.906553 -61.709938 -28.332386
-33.189003 -56.380711 -30.763264
-33.986195 -53.947552 -33.171257
-27.076817 -66.290451 -35.43998
-25.186029 -69.679245 -35.170147
-25.492178 -67.613564 -37.080029
-23.955524 -68.619019 -38.528343
-22.331778 -67.049156 -41.599251
-27.043203 -69.189377 -29.427713
-27.694691 -67.326027 -31.563051
-30.296026 -62.737759 -30.177229
-29.451536 -63.838959 -32.085968
-28.311872 -65.162735 -33.786018
-28.930439 -62.682999 -35.932781
-29.367493 -60.368397 -37.83234
-29.808474 -57.623482 -39.846882
-34.564217 -51.636967 -35.503128
-35.158257 -48.910191 -37.720066
-33.766811 -52.381454 -37.24509
-32.799812 -53.16436 -38.791431
-31.441904 -54.230297 -40.327305
-29.998646 -54.906998 -41.900837
-28.408316 -55.693676 -43.200932
-26.649887 -56.603527 -44.298943
-24.652098 -57.444839 -45.385246
-29.758184 -64.141709 -26.859647
-28.998494 -65.72704 -26.688941
-29.284618 -65.128155 -25.749912
-25.618366 -70.193447 -33.214412
-26.176904 -69.659035 -32.34265
-33.827118 -54.789289 -31.051209
-33.410141 -55.909244 -29.901613
-34.225714 -53.57271 -32.255206
-33.587599 -55.164131 -31.96726
-33.827118 -54.789289 -31.051209
-23.173645 -67.960316 -40.066799
-23.045331 -69.150295 -39.235048
-24.083838 -67.429039 -39.360094
-23.271965 -66.644107 -40.895548
-22.233458 -68.365364 -40.770502
-23.173645 -67.960316 -40.066799
-23.389585 -62.545578 -43.464895
-23.406259 -63.902591 -42.592417
-24.469561 -61.970509 -42.867836
-23.502542 -61.035899 -44.217487
-23.389585 -62.545578 -43.464895
-24.180122 -71.457393 -34.969358
-24.370002 -70.350033 -35.960798
-35.205975 -49.934498 -35.743309
-34.907167 -51.151211 -34.631786
-35.548925 -49.448742 -34.871967
-34.69367 -49.293341 -38.562061
-35.37965 -47.525038 -38.812655
-34.915064 -47.908188 -39.65465
-31.579448 -52.768772 -41.374939
-32.22972 -52.486004 -40.584349
-32.367263 -51.024479 -41.631983
-30.857819 -53.107123 -42.161705
-30.720275 -54.568647 -41.114071
-31.579448 -52.768772 -41.374939
-28.432634 -54.256203 -44.111563
-29.267578 -53.88934 -43.513546
-27.55342 -54.711128 -44.660568
-27.529101 -56.148601 -43.749938
-28.432634 -54.256203 -44.111563
-24.627865 -55.873817 -46.218302
-25.595729 -55.516333 -45.761364
-23.624381 -57.886379 -45.817299
-24.627865 -55.873817 -46.218302
-28.207298 -67.320808 -26.506327
-27.454974 -68.82011 -26.33649
-27.772604 -68.212788 -25.409368
-34.383541 -48.31196 -40.459443
-34.915064 -47.908188 -39.65465
-33.777767 -48.844571 -41.178111
-33.62331 -50.209101 -40.122725
-34.383541 -48.31196 -40.459443
-33.169035 -49.282465 -41.852598
-33.777767 -48.844571 -41.178111
-32.367263 -51.024479 -41.631983
-33.169035 -49.282465 -41.852598
-31.197302 -61.044782 -27.323317
-30.475431 -62.626381 -27.126502
-31.594791 -60.184584 -28.427729
-31.197302 -61.044782 -27.323317
-32.065109 -59.039096 -29.541251
-31.376871 -60.564451 -29.445909
-31.594791 -60.184584 -28.427729
-32.736016 -57.51997 -29.643168
-33.410141 -55.909244 -29.901613
-32.518096 -57.899838 -30.661347
-32.065109 -59.039096 -29.541251
-32.736016 -57.51997 -29.643168
-24.523076 -69.317193 -36.91574
-24.370002 -70.350033 -35.960798
-25.339104 -68.646404 -36.125088
-23.754749 -69.81992 -37.639896
-24.523076 -69.317193 -36.91574
-24.723851 -68.116291 -37.804186
-22.913819 -70.379288 -38.379952
-23.754749 -69.81992 -37.639896
-22.913819 -70.379288 -38.379952
-23.045331 -69.150295 -39.235048
-21.176662 -69.032116 -41.367333
-22.233458 -68.365364 -40.770502
-21.311273 -67.547218 -42.158408
-21.176662 -69.032116 -41.367333
-22.329031 -65.763408 -42.394363
-23.409007 -65.188339 -41.797305
-23.406259 -63.902591 -42.592417
-21.311273 -67.547218 -42.158408
-22.329031 -65.763408 -42.394363
-27.073322 -69.483265 -27.369593
-27.454974 -68.82011 -26.33649
-26.65009 -70.113888 -28.366725
-27.073322 -69.483265 -27.369593
-27.466435 -68.558754 -28.430581
-26.142736 -70.828644 -29.367173
-26.65009 -70.113888 -28.366725
-26.435684 -69.969456 -30.380733
-26.142736 -70.828644 -29.367173
-26.761428 -69.037781 -31.448402
-26.435684 -69.969456 -30.380733
-27.368947 -68.257702 -30.495382
-27.110167 -67.947281 -32.457299
-26.176904 -69.659035 -32.34265
-26.761428 -69.037781 -31.448402
-30.189307 -63.225266 -28.065531
-29.758184 -64.141709 -26.859647
-30.475431 -62.626381 -27.126502
-28.117352 -67.449932 -24.44064
-27.772604 -68.212788 -25.409368
-28.797274 -66.032555 -24.554202
-28.117352 -67.449932 -24.44064
-28.389698 -66.769001 -23.415636
-29.284618 -65.128155 -25.749912
-28.797274 -66.032555 -24.554202
-24.948559 -70.748802 -34.123712
-25.618366 -70.193447 -33.214412
-25.855837 -69.12389 -34.260847
-24.948559 -70.748802 -34.123712
-24.180122 -71.457393 -34.969358
-34.618156 -52.306504 -33.465851
-34.225714 -53.57271 -32.255206
-34.275206 -52.79226 -34.337193
-34.618156 -52.306504 -33.465851
-34.907167 -51.151211 -34.631786
-35.803156 -47.116896 -37.978628
-35.37965 -47.525038 -38.812655
-35.502995 -48.57111 -36.851778
-36.147894 -46.777815 -37.11034
-35.803156 -47.116896 -37.978628
-34.861237 -50.273579 -36.611597
-35.205975 -49.934498 -35.743309
-35.502995 -48.57111 -36.851778
-30.062742 -53.496001 -42.863499
-30.857819 -53.107123 -42.161705
-29.203481 -55.300337 -42.550885
-30.062742 -53.496001 -42.863499
-29.267578 -53.88934 -43.513546
-26.594623 -55.095676 -45.218212
-27.55342 -54.711128 -44.660568
-25.650993 -57.024183 -44.842095
-26.594623 -55.095676 -45.218212
-25.595729 -55.516333 -45.761364
-23.602148 -59.451571 -45.039953
-23.502542 -61.035899 -44.217487
-24.552492 -59.029167 -44.56278
-23.602148 -59.451571 -45.039953
-23.624381 -57.886379 -45.817299
3 0 13 11
3 0 15 13
3 50 18 51
3 52 51 16
3 50 51 52
3 2 21 19
3 2 23 21
3 1 53 54
3 55 26 56
3 57 27 58
3 59 58 26
3 57 58 59
3 4 30 28
3 5 31 12
3 5 60 62
3 62 61 31
3 60 61 62
3 5 63 65
3 63 32 64
3 63 64 65
3 6 66 68
3 68 67 14
3 66 67 68
3 6 69 70
3 7 33 17
3 7 34 33
3 3 35 25
3 8 36 20
3 8 37 36
3 8 38 37
3 9 39 22
3 9 40 39
3 72 71 29
3 73 41 74
3 73 74 75
3 10 76 78
3 76 42 77
3 76 77 78
3 10 43 42
3 10 44 43
3 79 45 80
3 81 80 24
3 79 80 81
3 82 46 83
3 84 83 45
3 82 83 84
3 85 47 86
3 87 48 88
3 89 88 47
3 87 88 89
3 90 49 91
3 93 92 49
3 11 12 4
3 13 12 11
3 13 5 12
3 13 14 5
3 15 14 13
3 15 6 14
3 16 94 96
3 94 17 95
3 94 95 96
3 18 17 16
3 18 7 17
3 19 20 3
3 21 20 19
3 21 8 20
3 21 22 8
3 23 22 21
3 23 9 22
3 97 10 98
3 99 24 100
3 101 100 10
3 99 100 101
3 102 24 103
3 105 104 24
3 106 25 107
3 108 25 109
3 110 3 111
3 112 111 25
3 110 111 112
3 26 113 114
3 26 115 117
3 115 3 116
3 115 116 117
3 26 19 3
3 27 19 26
3 27 2 19
3 28 29 1
3 30 29 28
3 30 118 120
3 120 119 29
3 118 119 120
3 12 30 4
3 31 30 12
3 31 121 123
3 123 122 30
3 121 122 123
3 31 124 125
3 127 126 31
3 32 128 129
3 32 130 131
3 14 32 5
3 132 32 133
3 134 133 14
3 132 133 134
3 136 135 32
3 17 137 138
3 33 139 141
3 141 140 17
3 139 140 141
3 33 142 143
3 33 144 145
3 34 146 148
3 148 147 33
3 146 147 148
3 34 149 151
3 149 1 150
3 149 150 151
3 25 152 154
3 152 18 153
3 152 153 154
3 35 18 25
3 35 7 18
3 20 35 3
3 36 35 20
3 36 7 35
3 36 34 7
3 37 34 36
3 37 1 34
3 37 28 1
3 38 28 37
3 38 4 28
3 22 38 8
3 39 38 22
3 39 4 38
3 39 11 4
3 40 11 39
3 40 0 11
3 155 16 156
3 157 16 158
3 157 158 159
3 161 160 16
3 29 162 164
3 164 163 1
3 162 163 164
3 166 165 29
3 167 27 168
3 41 169 171
3 169 27 170
3 169 170 171
3 41 2 27
3 42 172 173
3 42 174 176
3 174 175 176
3 42 177 179
3 177 41 178
3 177 178 179
3 43 41 42
3 43 2 41
3 43 23 2
3 44 23 43
3 44 9 23
3 24 44 10
3 45 44 24
3 45 9 44
3 45 40 9
3 46 40 45
3 46 0 40
3 180 46 181
3 47 182 184
3 182 46 183
3 182 183 184
3 47 0 46
3 47 15 0
3 48 15 47
3 48 6 15
3 185 48 186
3 49 187 189
3 187 48 188
3 187 188 189
3 49 6 48
3 49 190 192
3 192 191 6
3 190 191 192
3 194 193 49
