ply
format ascii 1.0
element vertex 247
property float x
property float y
property float z
element face 222
property list uchar int vertex_index
end_header
26.639883 70.671349 40.601261
31.849077 64.573425 23.87517
29.994617 69.269089 32.433414
27.339041 77.199799 33.976131
29.052467 76.544792 29.915596
28.689432 70.431641 36.670193
29.615101 63.474812 38.719845
28.132362 64.028877 42.967911
32.904518 61.193199 19.751404
30.274109 74.944382 25.670599
30.952482 67.331841 28.164421
30.606441 61.991219 34.378498
26.002436 63.920647 46.21191
28.041399 73.807358 35.527981
27.787405 70.754005 38.647259
28.377851 67.412186 39.921215
27.466974 67.584808 41.695854
31.6078 68.452057 22.537807
32.093548 66.768097 20.578653
32.643833 65.211922 18.36676
32.353054 62.863583 21.804214
32.602707 59.042576 22.764908
32.082947 60.540768 25.012024
29.555267 72.983734 31.264612
29.726202 75.820549 27.739059
30.129038 72.190956 29.137686
30.649975 71.162643 26.925875
30.488699 68.516289 30.248528
30.779179 64.676605 31.378698
30.311342 65.649094 33.590752
29.424122 60.238209 41.789108
24.589478 63.218376 47.760178
26.85129 60.610199 47.427322
28.293423 76.806175 32.125366
28.881763 73.558182 33.355122
29.378805 70.193306 34.469402
29.808989 66.592789 35.513626
29.19121 67.056984 37.716175
28.958305 63.924114 40.858414
28.71302 60.670959 43.860603
33.241608 62.945156 16.740982
31.135826 69.808472 24.772621
31.408892 66.19046 25.782341
31.632082 62.177799 27.046124
31.215698 63.800949 28.945726
31.033939 61.022903 32.072838
30.184278 62.665504 36.47633
25.350368 70.505447 42.103954
20.170942 63.636208 48.239063
21.835659 64.999123 47.429062
23.468096 65.928871 46.475498
25.000813 66.817024 45.058453
26.327169 67.399254 43.437016
27.113947 64.194191 44.683292
27.869452 60.754978 45.732193
27.213644 70.712677 39.62426
27.415793 72.356827 38.004639
26.842032 72.315499 38.98164
29.634436 58.452913 42.05068
29.336244 58.666582 43.15941
27.816232 77.002987 33.050748
27.910018 78.402778 31.498088
27.432827 78.599591 32.423471
33.217912 60.105903 18.85204
33.386457 60.981882 17.346829
33.073063 62.069177 18.246193
33.023701 59.197902 20.34816
33.217912 60.105903 18.85204
32.678573 57.071915 23.403266
32.446686 57.888994 24.300279
29.142097 77.810944 28.247947
28.746931 78.162586 29.303672
30.086185 76.627674 24.962265
29.812231 77.065757 25.996495
30.000155 75.382465 26.704829
30.379383 75.989498 23.937638
30.086185 76.627674 24.962265
30.555385 74.229202 24.569696
30.379383 75.989498 23.937638
30.734226 60.018576 34.735676
30.947975 59.534418 33.582846
30.82019 61.507061 33.225668
24.650519 70.137135 42.83185
24.86764 71.891754 41.375223
19.921152 61.716441 49.369678
19.346128 62.93813 48.485617
22.411677 63.662523 48.202877
21.616979 63.07374 48.655182
23.227896 64.127398 47.726095
22.651877 65.463997 46.95228
22.411677 63.662523 48.202877
27.761836 58.962013 47.060953
27.360371 60.682589 46.579757
27.252755 58.889623 47.908518
28.177402 59.02903 46.179974
27.761836 58.962013 47.060953
31.726635 60.286661 27.505516
31.53228 60.897419 28.533718
27.542789 73.883503 36.445
27.69022 75.503579 34.752056
27.191611 75.579724 35.669075
27.914402 72.280682 37.08762
27.542789 73.883503 36.445
27.415793 72.356827 38.004639
31.696908 69.610672 20.926017
31.465098 70.245701 21.984367
31.939781 68.768692 19.94644
31.696908 69.610672 20.926017
31.850674 67.610077 21.55823
32.215015 67.861344 18.908862
31.939781 68.768692 19.94644
32.36869 65.990009 19.472707
32.490158 67.083256 17.802915
32.215015 67.861344 18.908862
32.186806 58.638091 25.423837
32.446686 57.888994 24.300279
32.342827 59.791672 23.888466
29.71546 60.056134 40.574829
29.810949 61.674435 39.040198
29.519611 61.85651 40.254476
29.71546 60.056134 40.574829
29.634436 58.452913 42.05068
24.372057 61.418596 49.008145
23.788587 62.77215 48.368435
25.099974 61.663824 48.400126
24.372057 61.418596 49.008145
25.806453 62.01496 47.625991
25.295957 63.569512 46.986044
25.099974 61.663824 48.400126
26.23088 60.359735 48.233697
26.426863 62.265423 46.819616
25.806453 62.01496 47.625991
26.693974 58.821293 48.727233
26.23088 60.359735 48.233697
27.252755 58.889623 47.908518
26.693974 58.821293 48.727233
28.367409 78.293277 30.408557
27.910018 78.402778 31.498088
28.672945 76.675483 31.020481
28.746931 78.162586 29.303672
28.367409 78.293277 30.408557
28.980694 58.882957 44.195158
29.336244 58.666582 43.15941
29.068571 60.454584 42.824855
32.800745 66.010197 16.833227
32.490158 67.083256 17.802915
33.099632 64.876814 16.020338
32.800745 66.010197 16.833227
32.942721 64.078539 17.553871
33.422604 63.85626 15.084669
33.099632 64.876814 16.020338
33.579296 61.933396 15.775491
33.422604 63.85626 15.084669
33.579296 61.933396 15.775491
33.386457 60.981882 17.346829
32.872795 58.122591 21.854912
33.023701 59.197902 20.34816
32.753613 60.117887 21.258156
32.872795 58.122591 21.854912
32.678573 57.071915 23.403266
29.478964 77.448822 27.159678
29.142097 77.810944 28.247947
29.389335 76.182671 28.827328
29.478964 77.448822 27.159678
29.812231 77.065757 25.996495
30.743319 72.338333 25.197335
30.555385 74.229202 24.569696
30.462042 73.053513 26.298237
30.986244 71.661248 24.120708
30.743319 72.338333 25.197335
30.892901 70.485557 25.849248
31.229112 70.923908 23.101774
30.986244 71.661248 24.120708
31.371813 69.130264 23.655214
31.465098 70.245701 21.984367
31.229112 70.923908 23.101774
31.324088 61.708994 29.483519
31.53228 60.897419 28.533718
31.42389 62.989374 27.995925
31.233208 60.319971 31.047075
31.324088 61.708994 29.483519
31.124818 62.411926 30.509282
31.137462 59.08797 32.428818
31.233208 60.319971 31.047075
31.137462 59.08797 32.428818
30.947975 59.534418 33.582846
30.095538 61.269781 37.91844
29.89969 63.070158 37.598087
29.810949 61.674435 39.040198
30.321849 60.805934 36.896459
30.095538 61.269781 37.91844
30.53293 60.468792 35.847544
30.395359 62.328361 35.427414
30.321849 60.805934 36.896459
30.734226 60.018576 34.735676
30.53293 60.468792 35.847544
26.918485 78.659276 33.299063
27.432827 78.599591 32.423471
26.750932 77.136235 34.939501
26.918485 78.659276 33.299063
27.191611 75.579724 35.669075
26.750932 77.136235 34.939501
26.21255 72.285374 39.816873
26.842032 72.315499 38.98164
25.567792 72.202423 40.56822
24.86764 71.891754 41.375223
25.995126 70.588398 41.352608
26.21255 72.285374 39.816873
25.567792 72.202423 40.56822
19.611947 64.903885 47.291429
19.346128 62.93813 48.485617
20.463517 65.602177 46.963448
19.611947 64.903885 47.291429
20.78462 62.392283 49.060182
19.921152 61.716441 49.369678
21.003301 64.317666 47.834063
20.78462 62.392283 49.060182
21.616979 63.07374 48.655182
21.295876 66.283635 46.558447
20.463517 65.602177 46.963448
21.003301 64.317666 47.834063
22.143892 66.842255 46.124147
21.295876 66.283635 46.558447
22.960111 67.307129 45.647365
22.143892 66.842255 46.124147
22.651877 65.463997 46.95228
23.709383 67.848847 45.017622
22.960111 67.307129 45.647365
24.028787 64.573623 47.117838
23.227896 64.127398 47.726095
23.788587 62.77215 48.368435
24.475741 68.292923 44.3091
23.709383 67.848847 45.017622
24.234454 66.372948 45.766976
25.17559 68.661236 43.581204
24.650519 70.137135 42.83185
24.475741 68.292923 44.3091
28.599186 58.98702 45.244179
28.291236 60.712969 44.796398
28.177402 59.02903 46.179974
28.980694 58.882957 44.195158
28.599186 58.98702 45.244179
31.952067 59.468145 26.488466
31.857515 61.359284 26.029074
31.726635 60.286661 27.505516
32.186806 58.638091 25.423837
31.952067 59.468145 26.488466
3 0 55 57
3 55 14 56
3 55 56 57
3 0 16 14
3 1 18 17
3 1 20 18
3 1 22 20
3 2 25 23
3 2 27 25
3 2 29 27
3 59 58 30
3 3 60 62
3 60 33 61
3 60 61 62
3 5 34 13
3 5 35 34
3 5 37 35
3 7 38 15
3 7 39 38
3 8 40 19
3 8 63 65
3 65 64 40
3 63 64 65
3 8 66 67
3 69 68 21
3 4 70 71
3 9 72 74
3 74 73 24
3 72 73 74
3 9 75 76
3 9 77 78
3 10 41 26
3 10 42 41
3 10 44 42
3 11 45 28
3 11 79 81
3 81 80 45
3 79 80 81
3 6 46 36
3 82 47 83
3 84 48 85
3 86 49 87
3 88 50 89
3 90 89 49
3 88 89 90
3 12 51 31
3 12 52 51
3 12 53 52
3 91 54 92
3 93 92 32
3 91 92 93
3 95 94 54
3 97 96 43
3 98 13 99
3 100 99 3
3 98 99 100
3 14 101 103
3 101 13 102
3 101 102 103
3 14 5 13
3 14 15 5
3 16 15 14
3 16 7 15
3 17 104 105
3 18 106 108
3 108 107 17
3 106 107 108
3 18 109 110
3 18 111 113
3 111 19 112
3 111 112 113
3 20 19 18
3 20 8 19
3 20 21 8
3 22 21 20
3 22 114 116
3 116 115 21
3 114 115 116
3 23 24 4
3 25 24 23
3 25 9 24
3 25 26 9
3 27 26 25
3 27 10 26
3 27 28 10
3 29 28 27
3 29 11 28
3 30 117 119
3 119 118 6
3 117 118 119
3 121 120 30
3 122 31 123
3 124 31 125
3 126 12 127
3 128 127 31
3 126 127 128
3 129 32 130
3 131 130 12
3 129 130 131
3 132 32 133
3 135 134 32
3 33 136 137
3 33 138 140
3 138 4 139
3 138 139 140
3 13 33 3
3 34 33 13
3 34 4 33
3 34 23 4
3 35 23 34
3 35 2 23
3 35 36 2
3 37 36 35
3 37 6 36
3 15 37 5
3 38 37 15
3 38 6 37
3 38 30 6
3 39 30 38
3 39 141 143
3 143 142 30
3 141 142 143
3 19 144 145
3 40 146 148
3 148 147 19
3 146 147 148
3 40 149 150
3 40 151 152
3 154 153 40
3 21 155 157
3 157 156 8
3 155 156 157
3 159 158 21
3 24 160 162
3 162 161 4
3 160 161 162
3 164 163 24
3 26 165 167
3 167 166 9
3 165 166 167
3 41 168 170
3 170 169 26
3 168 169 170
3 41 171 172
3 41 173 175
3 173 17 174
3 173 174 175
3 42 17 41
3 42 1 17
3 42 43 1
3 44 43 42
3 44 176 178
3 178 177 43
3 176 177 178
3 28 44 10
3 45 44 28
3 45 179 181
3 181 180 44
3 179 180 181
3 45 182 183
3 185 184 45
3 36 29 2
3 46 29 36
3 46 11 29
3 186 46 187
3 188 187 6
3 186 187 188
3 189 46 190
3 191 11 192
3 193 192 46
3 191 192 193
3 195 194 11
3 196 3 197
3 198 3 199
3 201 200 3
3 202 0 203
3 47 204 205
3 47 206 208
3 206 0 207
3 206 207 208
3 48 209 210
3 48 211 212
3 213 48 214
3 49 215 217
3 215 48 216
3 215 216 217
3 49 218 220
3 220 219 48
3 218 219 220
3 49 221 222
3 50 223 225
3 225 224 49
3 223 224 225
3 50 226 227
3 31 228 230
3 228 50 229
3 228 229 230
3 51 50 31
3 51 231 233
3 233 232 50
3 231 232 233
3 51 234 236
3 234 47 235
3 234 235 236
3 52 47 51
3 52 0 47
3 52 16 0
3 53 16 52
3 53 7 16
3 32 53 12
3 54 53 32
3 54 7 53
3 54 39 7
3 237 39 238
3 239 238 54
3 237 238 239
3 241 240 39
3 43 22 1
3 242 22 243
3 244 243 43
3 242 243 244
3 246 245 22
