ply
format ascii 1.0
element vertex 248
property float x
property float y
property float z
element face 237
property list uchar int vertex_index
end_header
30.994955 54.374344 -45.654152
35.545082 47.15015 -39.475239
24.82262 60.057564 -49.763691
24.343889 40.110817 -48.778278
28.110184 57.738396 -48.044163
24.915897 49.992142 -49.442528
28.023546 47.360214 -47.536873
33.503757 51.229603 -42.696972
30.814995 44.391586 -45.072807
33.287678 41.019852 -42.080727
21.533321 52.553974 -50.746738
21.145306 42.764221 -50.338455
23.860268 69.095352 -49.643829
27.460667 66.965721 -48.12368
30.610626 64.266983 -45.756851
33.12397 60.763588 -42.924797
35.225212 57.209541 -39.582165
29.563812 56.010357 -46.95565
28.142725 52.577671 -47.85471
29.599045 51.182896 -46.717831
34.594498 49.269203 -41.078224
33.502506 46.117702 -42.404476
34.49271 44.131592 -40.908718
23.058401 60.620899 -50.366348
21.421886 57.076668 -50.831066
23.225677 55.969437 -50.322517
24.681082 45.261635 -49.176758
23.117804 46.637821 -49.943901
22.737225 41.496101 -49.638958
30.462154 39.244732 -44.667431
29.076736 40.882362 -46.034321
21.873627 69.796425 -50.129803
29.128727 65.877716 -46.993347
33.890446 63.688347 -41.172451
34.221581 59.052189 -41.300606
34.84066 61.943539 -39.546837
36.435947 45.65023 -37.807835
35.487514 42.451775 -39.256317
26.467558 58.791035 -49.01778
25.02733 55.202999 -49.635536
26.644598 53.911701 -48.810814
26.53229 48.700047 -48.551121
26.196281 43.808392 -48.264935
17.697323 40.734245 -51.220325
32.315887 52.643478 -44.210903
30.956474 49.24614 -45.416641
32.318535 47.643089 -43.920433
32.072376 42.59103 -43.636356
23.296026 51.555119 -50.169823
21.546947 47.821487 -50.549229
19.23246 39.245964 -50.668373
29.402214 45.70153 -46.392567
27.528822 41.895893 -47.244884
22.653254 65.412933 -50.29285
24.478035 64.582169 -49.761036
25.786932 68.408546 -48.925125
26.193184 63.576321 -49.061352
27.853582 62.367455 -48.153023
29.4877 60.898407 -46.995319
30.873806 59.22863 -45.782345
31.900808 62.687412 -44.42625
32.1292 57.796497 -44.444763
33.352173 56.28949 -42.890327
34.42284 54.363033 -41.322582
35.463936 52.38184 -39.567337
23.270634 38.32465 -49.036512
22.467301 39.017292 -49.466852
23.540557 40.803459 -49.208618
29.521318 37.316807 -45.087416
30.207357 36.619535 -44.408609
34.144512 65.248577 -40.188835
33.599899 66.138638 -41.14353
34.619619 64.376173 -39.376028
34.365553 62.815943 -40.359644
34.144512 65.248577 -40.188835
36.430343 43.313192 -37.674574
36.847642 44.825907 -36.960144
16.773349 39.082971 -51.385864
17.500104 38.321228 -51.112232
32.509202 39.202269 -42.625603
31.901551 39.987858 -43.403418
32.680027 41.805441 -42.858542
34.923288 40.844532 -39.858418
35.449693 40.213864 -39.011975
20.679625 53.028126 -50.951629
20.623907 55.289473 -50.993793
21.477604 54.815321 -50.788902
20.680777 50.63479 -50.899206
20.679625 53.028126 -50.951629
20.415031 43.433111 -50.607023
20.615851 45.961744 -50.71241
21.346127 45.292854 -50.443842
20.188883 41.005093 -50.503414
19.458607 41.673983 -50.771982
20.415031 43.433111 -50.607023
27.395375 39.478342 -46.977758
28.302779 41.389128 -46.639602
28.169331 38.971576 -46.372476
26.643462 40.196078 -47.538887
27.395375 39.478342 -46.977758
26.6238 67.687134 -48.524403
26.378999 70.004093 -48.405271
27.215867 69.28268 -48.004549
32.512389 61.7255 -43.675523
32.302386 64.185564 -43.656075
32.913967 63.223652 -42.905348
22.240144 58.848783 -50.598707
21.317991 59.333036 -50.815508
22.136249 61.105152 -50.583149
21.734797 39.748638 -49.841566
20.938837 40.382698 -50.191315
21.941266 42.130161 -49.988707
21.734797 39.748638 -49.841566
22.467301 39.017292 -49.466852
28.828609 38.135622 -45.770861
29.769445 40.063547 -45.350876
29.521318 37.316807 -45.087416
28.169331 38.971576 -46.372476
28.828609 38.135622 -45.770861
21.540592 71.835296 -49.944533
20.828691 70.045051 -50.287714
22.49656 71.65316 -49.733799
21.540592 71.835296 -49.944533
23.48988 71.302624 -49.490812
22.866948 69.445888 -49.886816
22.49656 71.65316 -49.733799
28.030183 68.636616 -47.512667
27.215867 69.28268 -48.004549
28.864213 68.092613 -46.9475
28.294697 66.421718 -47.558514
28.030183 68.636616 -47.512667
29.622735 67.608235 -46.313021
28.864213 68.092613 -46.9475
30.363684 66.802868 -45.694772
29.869677 65.07235 -46.375099
29.622735 67.608235 -46.313021
33.297205 64.686031 -42.029175
33.599899 66.138638 -41.14353
33.507208 62.225967 -42.048624
32.913967 63.223652 -42.905348
33.297205 64.686031 -42.029175
35.956127 41.713965 -38.398815
35.961731 44.051002 -38.532076
36.430343 43.313192 -37.674574
35.449693 40.213864 -39.011975
35.956127 41.713965 -38.398815
16.894721 41.214037 -51.441011
17.832562 42.963899 -51.285129
16.894721 41.214037 -51.441011
16.773349 39.082971 -51.385864
31.09644 38.314709 -43.918955
31.267265 40.917881 -44.151893
31.901551 39.987858 -43.403418
30.207357 36.619535 -44.408609
31.09644 38.314709 -43.918955
34.425886 41.68444 -40.684618
34.990112 43.291683 -40.082518
34.923288 40.844532 -39.858418
33.82337 40.12857 -41.270623
33.890194 42.575722 -41.494723
34.425886 41.68444 -40.684618
33.088875 38.589067 -41.896215
33.82337 40.12857 -41.270623
32.509202 39.202269 -42.625603
33.088875 38.589067 -41.896215
20.520573 57.472538 -51.005257
21.317991 59.333036 -50.815508
20.520573 57.472538 -51.005257
20.623907 55.289473 -50.993793
20.68759 48.268547 -50.800451
20.680777 50.63479 -50.899206
21.540134 50.187731 -50.647983
20.68759 48.268547 -50.800451
20.615851 45.961744 -50.71241
18.691039 42.418123 -51.047958
17.832562 42.963899 -51.285129
18.464892 39.990105 -50.944349
18.691039 42.418123 -51.047958
19.458607 41.673983 -50.771982
18.267672 37.577088 -50.836256
17.500104 38.321228 -51.112232
18.464892 39.990105 -50.944349
19.982414 38.62357 -50.356274
20.188883 41.005093 -50.503414
20.938837 40.382698 -50.191315
18.985225 36.925221 -50.531145
19.982414 38.62357 -50.356274
18.267672 37.577088 -50.836256
18.985225 36.925221 -50.531145
25.977191 41.152327 -48.048913
26.862552 42.852142 -47.754909
26.643462 40.196078 -47.538887
25.050995 39.303539 -48.305584
25.270085 41.959604 -48.521607
25.977191 41.152327 -48.048913
23.995545 37.565922 -48.599243
25.050995 39.303539 -48.305584
23.270634 38.32465 -49.036512
23.995545 37.565922 -48.599243
21.248507 67.889614 -50.411364
20.828691 70.045051 -50.287714
21.638321 65.697868 -50.492887
21.248507 67.889614 -50.411364
22.263441 67.604679 -50.211326
21.933675 63.501169 -50.5464
21.638321 65.697868 -50.492887
22.855828 63.016916 -50.329599
22.136249 61.105152 -50.583149
21.933675 63.501169 -50.5464
24.496226 70.903396 -49.173206
23.48988 71.302624 -49.490812
25.459558 70.559993 -48.813854
26.378999 70.004093 -48.405271
24.8236 68.751949 -49.284477
24.496226 70.903396 -49.173206
25.459558 70.559993 -48.813854
31.01114 65.861156 -45.093269
30.363684 66.802868 -45.694772
31.656231 65.071371 -44.427969
32.302386 64.185564 -43.656075
31.255717 63.477198 -45.09155
31.01114 65.861156 -45.093269
31.656231 65.071371 -44.427969
35.081171 63.223463 -38.530733
34.619619 64.376173 -39.376028
35.310791 60.879551 -38.648735
35.081171 63.223463 -38.530733
35.551302 62.159475 -37.632631
35.503067 58.512552 -38.666399
35.032936 59.57654 -39.564501
35.310791 60.879551 -38.648735
35.691052 56.11878 -38.701825
35.503067 58.512552 -38.666399
35.810413 53.704929 -38.694411
35.344574 54.79569 -39.574751
35.691052 56.11878 -38.701825
35.894495 51.410267 -38.752262
35.810413 53.704929 -38.694411
35.935068 48.794422 -38.706213
35.504509 49.765995 -39.521288
35.894495 51.410267 -38.752262
36.3805 48.044462 -37.872511
35.990515 46.40019 -38.641537
35.935068 48.794422 -38.706213
36.803964 47.045572 -36.977972
36.3805 48.044462 -37.872511
36.847642 44.825907 -36.960144
36.803964 47.045572 -36.977972
3 0 19 17
3 1 22 20
3 2 25 23
3 3 28 26
3 3 65 67
3 67 66 28
3 65 66 67
3 69 68 29
3 70 33 71
3 72 35 73
3 74 73 33
3 72 73 74
3 76 75 36
3 4 40 38
3 6 41 18
3 6 42 41
3 78 77 43
3 7 46 44
3 9 47 21
3 9 79 81
3 81 80 47
3 79 80 81
3 83 82 37
3 10 84 86
3 86 85 24
3 84 85 86
3 10 87 88
3 5 48 39
3 11 49 27
3 11 89 91
3 91 90 49
3 89 90 91
3 11 92 94
3 92 50 93
3 92 93 94
3 8 51 45
3 95 52 96
3 97 96 30
3 95 96 97
3 99 98 52
3 12 53 31
3 12 54 53
3 13 100 102
3 100 55 101
3 100 101 102
3 13 56 55
3 13 57 56
3 14 58 32
3 14 59 58
3 15 103 105
3 103 60 104
3 103 104 105
3 15 61 60
3 15 62 61
3 16 63 34
3 16 64 63
3 17 18 4
3 19 18 17
3 19 6 18
3 20 21 7
3 22 21 20
3 22 9 21
3 23 106 108
3 106 24 107
3 106 107 108
3 25 24 23
3 25 10 24
3 26 27 5
3 28 27 26
3 28 11 27
3 28 109 111
3 111 110 11
3 109 110 111
3 113 112 28
3 29 30 8
3 114 30 115
3 116 115 29
3 114 115 116
3 118 117 30
3 119 31 120
3 121 31 122
3 123 12 124
3 125 124 31
3 123 124 125
3 126 13 127
3 128 32 129
3 130 129 13
3 128 129 130
3 131 32 132
3 133 14 134
3 135 134 32
3 133 134 135
3 33 136 137
3 33 138 140
3 138 15 139
3 138 139 140
3 33 34 15
3 35 34 33
3 35 16 34
3 36 37 1
3 141 37 142
3 143 142 36
3 141 142 143
3 145 144 37
3 38 39 2
3 40 39 38
3 40 5 39
3 18 40 4
3 41 40 18
3 41 5 40
3 41 26 5
3 42 26 41
3 42 3 26
3 43 146 147
3 149 148 43
3 44 45 0
3 46 45 44
3 46 8 45
3 21 46 7
3 47 46 21
3 47 8 46
3 47 29 8
3 150 29 151
3 152 151 47
3 150 151 152
3 154 153 29
3 37 22 1
3 155 22 156
3 157 156 37
3 155 156 157
3 158 9 159
3 160 159 22
3 158 159 160
3 161 9 162
3 164 163 9
3 24 165 166
3 168 167 24
3 39 25 2
3 48 25 39
3 48 10 25
3 27 48 5
3 49 48 27
3 49 10 48
3 49 169 171
3 171 170 10
3 169 170 171
3 173 172 49
3 174 43 175
3 50 176 178
3 176 43 177
3 176 177 178
3 50 179 181
3 181 180 43
3 179 180 181
3 182 50 183
3 184 183 11
3 182 183 184
3 185 50 186
3 188 187 50
3 45 19 0
3 51 19 45
3 51 6 19
3 30 51 8
3 52 51 30
3 52 6 51
3 52 42 6
3 189 42 190
3 191 190 52
3 189 190 191
3 192 3 193
3 194 193 42
3 192 193 194
3 195 3 196
3 198 197 3
3 31 199 200
3 53 201 203
3 203 202 31
3 201 202 203
3 53 204 205
3 53 206 208
3 206 23 207
3 206 207 208
3 54 23 53
3 54 2 23
3 209 12 210
3 55 211 212
3 55 213 215
3 213 12 214
3 213 214 215
3 55 54 12
3 56 54 55
3 56 2 54
3 56 38 2
3 57 38 56
3 57 4 38
3 32 57 13
3 58 57 32
3 58 4 57
3 58 17 4
3 59 17 58
3 59 0 17
3 216 14 217
3 60 218 219
3 60 220 222
3 220 14 221
3 220 221 222
3 60 59 14
3 61 59 60
3 61 0 59
3 61 44 0
3 62 44 61
3 62 7 44
3 34 62 15
3 63 62 34
3 63 7 62
3 63 20 7
3 64 20 63
3 64 1 20
3 223 35 224
3 225 35 226
3 225 226 227
3 228 16 229
3 230 229 35
3 228 229 230
3 231 16 232
3 233 64 234
3 235 234 16
3 233 234 235
3 236 64 237
3 238 1 239
3 240 239 64
3 238 239 240
3 241 36 242
3 243 242 1
3 241 242 243
3 244 36 245
3 247 246 36
