ply
format ascii 1.0
element vertex 269
property float x
property float y
property float z
element face 273
property list uchar int vertex_index
end_header
-30.386616 -47.858967 27.739241
-29.181307 -27.797338 39.302681
-30.276159 -47.993801 36.287872
-29.609426 -39.194122 41.523518
-30.132353 -37.680279 33.467941
-30.319075 -52.294109 38.163376
-30.079599 -53.171291 29.280075
-29.314665 -33.885502 40.290981
-29.766075 -38.396061 37.520943
-29.611273 -32.627914 36.429089
-31.064917 -30.862476 28.859095
-30.020645 -57.241795 35.973682
-30.223713 -52.850487 33.920994
-30.302925 -48.042149 32.147114
-30.0249 -43.461861 38.873859
-30.167894 -43.077381 34.789783
-30.411425 -42.904785 30.736109
-30.237602 -31.53974 32.532894
-30.674793 -36.872692 29.562943
-30.235735 -50.42305 28.5399
-30.032715 -52.955845 27.067362
-29.219557 -30.974016 39.845196
-29.421467 -33.23727 38.381706
-29.379889 -30.247162 37.831554
-30.12254 -56.531944 38.196186
-30.314716 -50.212364 37.236263
-30.280941 -52.483871 36.034592
-30.293415 -50.321072 35.040688
-30.262503 -50.666271 32.835613
-30.285158 -47.957752 34.184811
-29.797785 -41.680805 42.015568
-29.991016 -43.690304 40.715023
-29.820967 -41.305984 40.167805
-29.923029 -38.02906 35.498386
-29.995195 -40.760483 36.157059
-30.135374 -40.402721 34.07312
-30.272791 -42.730141 32.779762
-30.314287 -40.23259 32.025707
-29.938995 -29.128216 34.099121
-30.358683 -28.479147 32.176743
-31.282045 -33.626175 27.166016
-30.847628 -33.749233 29.242624
-31.000599 -36.465061 27.701996
-30.769859 -39.570644 28.159216
-30.329823 -50.065395 39.161098
-30.275316 -48.068306 38.295181
-29.451815 -36.653717 40.828156
-29.664007 -38.818283 39.543297
-29.524313 -36.100918 38.916233
-29.665274 -35.538692 36.943779
-29.883945 -35.287708 34.9655
-30.834949 -27.863527 30.327185
-31.338087 -27.67362 28.505127
-31.559782 -30.409834 26.971987
-30.226477 -54.57914 37.030453
-30.150579 -55.067974 34.952785
-30.057905 -55.281075 32.594154
-30.151346 -53.091888 31.587477
-30.239628 -50.648235 30.756084
-30.334015 -48.013992 29.931549
-29.816442 -42.147861 43.815514
-29.613148 -39.70005 43.401485
-29.421541 -37.089523 42.888443
-29.266308 -34.365482 42.19775
-29.141117 -31.438042 41.786777
-30.165064 -45.818546 39.348103
-30.182003 -45.60516 37.489235
-29.88401 -40.981415 38.230385
-30.078224 -43.18602 36.90226
-30.22035 -45.60955 35.570644
-30.274158 -45.449593 33.487556
-30.346823 -45.449844 31.409485
-30.441898 -45.438625 29.255987
-29.617123 -29.3908 35.942303
-29.8722 -32.14727 34.566132
-30.141809 -34.53545 33.084301
-30.627699 -31.088079 30.71287
-30.470179 -34.114651 31.162432
-30.370674 -37.202377 31.58396
-30.514158 -39.822083 30.176548
-30.584259 -42.559952 28.684519
-30.563721 -45.215839 27.17293
-30.308796 -49.107533 27.032006
-30.233355 -50.389574 27.432335
-30.311175 -49.141008 28.13957
-30.417889 -47.810906 26.620479
-30.308796 -49.107533 27.032006
-30.152864 -56.22732 39.358255
-30.037306 -57.459101 38.877538
-30.436222 -26.749374 32.06553
-30.21027 -27.178077 32.930844
-31.178356 -36.455034 26.691388
-31.141322 -35.045618 27.434006
-31.319078 -35.035591 26.423398
-31.02317 -37.8994 26.946752
-31.178356 -36.455034 26.691388
-30.298476 -48.949864 39.633228
-30.33287 -49.846855 40.091801
-30.271222 -47.951319 39.20027
-30.30257 -49.066851 38.728139
-30.298476 -48.949864 39.633228
-29.957321 -54.392421 28.623414
-30.006053 -54.423742 29.772475
-29.890528 -54.213988 26.438278
-29.996466 -52.97723 25.907871
-31.483288 -25.924487 28.407677
-31.205968 -26.088155 29.279096
-31.828446 -30.097598 26.038444
-31.730678 -28.644799 26.857199
-31.644071 -31.735835 26.146582
-31.828446 -30.097598 26.038444
-29.867611 -58.523159 35.389972
-29.941876 -58.144452 36.612018
-29.968411 -57.405348 34.809856
-29.867611 -58.523159 35.389972
-30.272776 -53.436625 37.596914
-30.253509 -54.337852 38.115313
-30.299809 -53.195337 38.681774
-29.745344 -41.28239 44.525137
-29.845647 -42.479232 44.706566
-29.643697 -40.058485 44.318123
-29.714795 -40.923955 43.6085
-29.745344 -41.28239 44.525137
-29.35342 -36.076763 43.606964
-29.443517 -37.435154 43.854591
-29.275803 -34.714742 43.261617
-29.343924 -35.727502 42.543097
-29.35342 -36.076763 43.606964
-29.094083 -30.325004 42.524511
-29.1449 -31.872957 42.810098
-29.105477 -29.917972 41.513994
-29.094083 -30.325004 42.524511
-29.640628 -27.8137 35.773083
-29.492168 -28.285148 36.729645
-30.691631 -42.382193 27.629773
-30.677059 -41.065298 28.421868
-30.784432 -40.887539 27.367121
-30.681362 -43.710136 26.873978
-30.57399 -43.887895 27.928725
-30.691631 -42.382193 27.629773
-30.631307 -45.14065 26.104905
-30.681362 -43.710136 26.873978
-30.131845 -51.655971 26.696066
-30.134225 -51.689447 27.803631
-30.233355 -50.389574 27.432335
-29.996466 -52.97723 25.907871
-30.131845 -51.655971 26.696066
-29.992824 -57.789526 37.72327
-30.037306 -57.459101 38.877538
-30.071593 -56.88687 37.084934
-29.941876 -58.144452 36.612018
-29.992824 -57.789526 37.72327
-29.8944 -42.685554 41.365296
-29.985346 -43.814865 41.647824
-29.888731 -42.810115 42.298096
-30.000426 -27.502612 33.892032
-29.801564 -27.682409 34.851492
-30.148839 -28.803681 33.137932
-30.000426 -27.502612 33.892032
-30.21027 -27.178077 32.930844
-30.907799 -39.452192 27.175362
-30.885229 -38.017853 27.930606
-31.02317 -37.8994 26.946752
-30.784432 -40.887539 27.367121
-30.907799 -39.452192 27.175362
-30.33348 -52.049368 39.173094
-30.299809 -53.195337 38.681774
-30.338854 -50.935011 39.671955
-30.33287 -49.846855 40.091801
-30.324449 -51.179752 38.662237
-30.33348 -52.049368 39.173094
-30.338854 -50.935011 39.671955
-29.933879 -54.284698 27.517057
-29.957321 -54.392421 28.623414
-30.056157 -53.063568 28.173718
-29.933879 -54.284698 27.517057
-29.890528 -54.213988 26.438278
-30.954399 -26.183109 30.190124
-30.674356 -26.441564 31.140751
-31.086518 -27.768574 29.416156
-30.954399 -26.183109 30.190124
-31.205968 -26.088155 29.279096
-31.619831 -27.276692 27.623769
-31.483288 -25.924487 28.407677
-31.448935 -29.041727 27.738557
-31.619831 -27.276692 27.623769
-31.730678 -28.644799 26.857199
-31.505203 -33.344006 26.243596
-31.420913 -32.018005 27.069001
-31.644071 -31.735835 26.146582
-31.319078 -35.035591 26.423398
-31.505203 -33.344006 26.243596
-30.201541 -55.314255 38.698179
-30.152864 -56.22732 39.358255
-30.174509 -55.555542 37.61332
-30.201541 -55.314255 38.698179
-30.253509 -54.337852 38.115313
-30.033378 -56.318438 34.299408
-29.968411 -57.405348 34.809856
-30.085612 -56.154885 35.463234
-29.987042 -56.424988 33.120092
-30.033378 -56.318438 34.299408
-30.104242 -55.174525 33.77347
-29.916192 -56.637112 31.954684
-29.987042 -56.424988 33.120092
-29.995206 -55.478634 31.429514
-29.916192 -56.637112 31.954684
-30.041927 -54.38404 30.926175
-29.995206 -55.478634 31.429514
-30.104626 -54.186481 32.090816
-30.115473 -53.131589 30.433776
-30.006053 -54.423742 29.772475
-30.041927 -54.38404 30.926175
-29.274261 -27.488416 38.409834
-29.188512 -26.102854 39.08338
-29.913252 -43.30061 44.037863
-29.845647 -42.479232 44.706566
-29.898059 -43.043644 43.198069
-29.913252 -43.30061 44.037863
-29.807113 -41.914333 42.915541
-29.888731 -42.810115 42.298096
-29.898059 -43.043644 43.198069
-29.53932 -38.740417 44.111113
-29.643697 -40.058485 44.318123
-29.517345 -38.394786 43.144964
-29.53932 -38.740417 44.111113
-29.443517 -37.435154 43.854591
-29.207495 -33.336678 43.015585
-29.275803 -34.714742 43.261617
-29.203713 -32.901762 41.992263
-29.207495 -33.336678 43.015585
-29.1449 -31.872957 42.810098
-29.144697 -29.685959 40.543204
-29.180337 -31.206029 40.815987
-29.105477 -29.917972 41.513994
-29.125573 -28.09762 40.271946
-29.200432 -29.385677 39.573938
-29.144697 -29.685959 40.543204
-29.115638 -26.61915 40.062939
-29.125573 -28.09762 40.271946
-29.188512 -26.102854 39.08338
-29.115638 -26.61915 40.062939
-30.068216 -44.76878 40.97637
-29.985346 -43.814865 41.647824
-30.15524 -45.832901 40.29291
-30.068216 -44.76878 40.97637
-30.07804 -44.754425 40.031563
-30.216096 -46.826439 39.726731
-30.15524 -45.832901 40.29291
-30.22019 -46.943426 38.821642
-30.271222 -47.951319 39.20027
-30.216096 -46.826439 39.726731
-29.373551 -28.713328 37.67427
-29.280598 -29.02225 38.567117
-29.274261 -27.488416 38.409834
-29.498506 -29.818981 36.886928
-29.373551 -28.713328 37.67427
-29.492168 -28.285148 36.729645
-29.778059 -29.259508 35.020712
-29.640628 -27.8137 35.773083
-29.801564 -27.682409 34.851492
-30.596816 -28.171337 31.251964
-30.436222 -26.749374 32.06553
-30.674356 -26.441564 31.140751
-30.506442 -46.489342 26.337324
-30.417889 -47.810906 26.620479
-30.475169 -46.537403 27.456086
-30.506442 -46.489342 26.337324
-30.631307 -45.14065 26.104905
3 0 82 84
3 84 83 19
3 82 83 84
3 0 85 86
3 1 23 21
3 87 24 88
3 2 27 25
3 2 29 27
3 3 32 30
3 4 35 33
3 4 37 35
3 89 39 90
3 91 42 92
3 93 92 40
3 91 92 93
3 95 94 42
3 96 44 97
3 98 45 99
3 100 99 44
3 98 99 100
3 6 101 102
3 104 103 20
3 7 48 46
3 9 49 22
3 9 50 49
3 105 52 106
3 107 53 108
3 110 109 53
3 11 111 112
3 11 113 114
3 5 115 117
3 115 54 116
3 115 116 117
3 12 55 26
3 12 56 55
3 12 57 56
3 13 58 28
3 13 59 58
3 118 60 119
3 120 61 121
3 122 121 60
3 120 121 122
3 123 62 124
3 125 63 126
3 127 126 62
3 125 126 127
3 128 64 129
3 131 130 64
3 14 65 31
3 14 66 65
3 8 67 47
3 15 68 34
3 15 69 68
3 15 70 69
3 16 71 36
3 16 72 71
3 132 73 133
3 17 74 38
3 17 75 74
3 10 76 51
3 18 77 41
3 18 78 77
3 18 79 78
3 134 80 135
3 136 135 43
3 134 135 136
3 137 81 138
3 139 138 80
3 137 138 139
3 141 140 81
3 19 20 6
3 142 20 143
3 144 143 19
3 142 143 144
3 146 145 20
3 21 22 7
3 23 22 21
3 23 9 22
3 24 147 148
3 24 149 151
3 149 11 150
3 149 150 151
3 25 26 5
3 27 26 25
3 27 12 26
3 27 28 12
3 29 28 27
3 29 13 28
3 30 152 154
3 152 31 153
3 152 153 154
3 32 31 30
3 32 14 31
3 33 34 8
3 35 34 33
3 35 15 34
3 35 36 15
3 37 36 35
3 37 16 36
3 155 38 156
3 39 157 159
3 157 38 158
3 157 158 159
3 39 17 38
3 40 41 10
3 42 41 40
3 42 18 41
3 42 43 18
3 160 43 161
3 162 161 42
3 160 161 162
3 164 163 43
3 165 5 166
3 44 167 168
3 44 169 171
3 169 5 170
3 169 170 171
3 44 25 5
3 45 25 44
3 45 2 25
3 20 172 174
3 174 173 6
3 172 173 174
3 176 175 20
3 46 47 3
3 48 47 46
3 48 8 47
3 22 48 7
3 49 48 22
3 49 8 48
3 49 33 8
3 50 33 49
3 50 4 33
3 177 51 178
3 52 179 181
3 179 51 180
3 179 180 181
3 52 10 51
3 182 52 183
3 53 184 186
3 184 52 185
3 184 185 186
3 53 10 52
3 53 40 10
3 187 40 188
3 189 188 53
3 187 188 189
3 191 190 40
3 192 24 193
3 54 194 196
3 194 24 195
3 194 195 196
3 54 11 24
3 26 54 5
3 55 54 26
3 55 11 54
3 55 197 199
3 199 198 11
3 197 198 199
3 56 200 202
3 202 201 55
3 200 201 202
3 56 203 204
3 56 205 206
3 57 207 209
3 209 208 56
3 207 208 209
3 57 210 212
3 210 6 211
3 210 211 212
3 28 57 12
3 58 57 28
3 58 6 57
3 58 19 6
3 59 19 58
3 59 0 19
3 214 213 1
3 60 215 216
3 60 217 218
3 60 219 221
3 219 30 220
3 219 220 221
3 61 30 60
3 61 3 30
3 222 61 223
3 62 224 226
3 224 61 225
3 224 225 226
3 62 3 61
3 62 46 3
3 63 46 62
3 63 7 46
3 227 63 228
3 64 229 231
3 229 63 230
3 229 230 231
3 64 7 63
3 64 21 7
3 232 21 233
3 234 233 64
3 232 233 234
3 235 1 236
3 237 236 21
3 235 236 237
3 238 1 239
3 241 240 1
3 31 242 243
3 65 244 246
3 246 245 31
3 244 245 246
3 65 247 248
3 65 249 251
3 249 45 250
3 249 250 251
3 66 45 65
3 66 2 45
3 47 32 3
3 67 32 47
3 67 14 32
3 34 67 8
3 68 67 34
3 68 14 67
3 68 66 14
3 69 66 68
3 69 2 66
3 69 29 2
3 70 29 69
3 70 13 29
3 36 70 15
3 71 70 36
3 71 13 70
3 71 59 13
3 72 59 71
3 72 0 59
3 252 23 253
3 254 253 1
3 252 253 254
3 73 255 257
3 255 23 256
3 255 256 257
3 73 9 23
3 38 258 260
3 258 73 259
3 258 259 260
3 74 73 38
3 74 9 73
3 74 50 9
3 75 50 74
3 75 4 50
3 51 261 263
3 261 39 262
3 261 262 263
3 76 39 51
3 76 17 39
3 41 76 10
3 77 76 41
3 77 17 76
3 77 75 17
3 78 75 77
3 78 4 75
3 78 37 4
3 79 37 78
3 79 16 37
3 43 79 18
3 80 79 43
3 80 16 79
3 80 72 16
3 81 72 80
3 81 0 72
3 81 264 266
3 266 265 0
3 264 265 266
3 268 267 81
