ply
format ascii 1.0
element vertex 259
property float x
property float y
property float z
element face 232
property list uchar int vertex_index
end_header
4.764969 88.263931 8.058882
-6.305811 86.78952 21.062933
1.826442 82.94294 18.219578
8.847392 78.932617 14.890977
2.998762 97.405975 -7.049831
-10.559891 88.034248 22.910446
5.526759 81.022331 16.526861
2.676294 92.911423 3.20684
4.842122 93.831238 -1.818658
-2.212769 85.006035 19.639391
-0.868327 88.412331 14.104456
3.28132 85.930092 13.025321
6.779299 83.847816 11.695386
4.290121 97.328453 -9.70747
2.812233 89.783691 8.143847
3.753846 90.633141 5.652465
5.857683 91.675751 0.86914
6.161147 93.852974 -4.227333
-8.43644 87.476044 21.963139
-5.7109 88.724495 18.225868
1.185716 81.208328 20.802431
-0.906036 82.196053 21.642979
-0.089078 83.929642 18.93688
-1.541867 86.746109 16.915091
0.568092 85.716293 16.140884
1.19695 87.316444 13.436546
2.423549 84.701073 15.502277
7.292968 79.932961 15.719049
6.202913 82.426689 14.128376
7.859835 81.453804 13.300328
8.467397 82.725288 11.003293
9.362027 80.452522 12.543518
6.636407 87.004822 7.544157
5.626786 89.166649 5.558418
1.631386 97.475784 -4.653481
-8.996323 85.16021 24.988531
-6.962847 84.820869 23.810541
3.126667 80.353386 19.824308
3.708586 82.054733 17.312267
4.911148 79.415123 18.97781
6.64254 78.380112 18.158232
8.270149 77.310715 17.329321
4.818071 91.204506 3.264663
3.812587 93.374107 0.737813
2.736655 95.539291 -2.028476
3.865214 95.765678 -4.47852
5.189482 95.708412 -6.94359
-4.916452 83.935883 23.143642
-2.933303 83.07666 22.434431
-4.263173 85.97094 20.308167
-3.640879 87.88858 17.438261
1.95076 88.599976 10.860655
3.883756 87.339317 10.444316
4.316193 83.61731 14.811766
5.075334 84.939316 12.300048
5.847999 86.037994 9.919147
7.506027 84.886627 9.425334
3.746708 98.098797 -11.085815
4.936614 97.172863 -10.961129
-7.148444 88.206703 20.039825
-8.213758 88.549965 20.489928
-7.371125 87.132782 21.513036
-6.008356 87.757008 19.6444
-6.850988 89.174191 18.621292
-7.148444 88.206703 20.039825
9.584583 78.528324 14.339053
9.8419 79.288276 13.165324
9.104709 79.692569 13.717247
7.060168 87.354874 6.435259
7.447896 86.335411 7.443033
1.798265 98.286171 -7.148162
1.114577 98.321076 -5.949986
2.315074 97.440879 -5.851656
-8.274176 83.857258 25.82281
-9.342646 84.135182 26.314535
-7.257438 83.687588 25.233815
-7.979585 84.99054 24.399536
-8.274176 83.857258 25.82281
3.75022 78.989841 20.625633
2.798221 79.465878 21.096058
4.64246 78.52071 20.202384
4.018908 79.884254 19.401059
3.75022 78.989841 20.625633
7.187965 77.022583 18.905175
6.386806 77.533879 19.321172
8.001769 76.487885 18.49072
7.456345 77.845414 17.743777
7.187965 77.022583 18.905175
8.833828 76.03656 17.876622
8.001769 76.487885 18.49072
1.580321 93.570053 3.475719
2.201758 92.473011 4.563417
2.121363 93.977372 1.986163
1.580321 93.570053 3.475719
5.775049 90.441113 3.208969
5.222428 90.185577 4.411541
6.179407 89.422184 4.355846
6.304733 94.730759 -6.761801
5.675314 94.780693 -5.585462
6.790565 93.80304 -5.403672
5.872429 95.567444 -8.123249
6.304733 94.730759 -6.761801
-11.393369 89.427841 21.829796
-11.641012 88.348835 23.298124
-4.228872 82.482941 24.117348
-5.241331 82.882733 24.510786
-1.94828 88.969788 14.420601
-2.285051 88.136677 15.825918
-1.205097 87.57922 15.509774
-1.507846 89.656014 13.034204
-1.94828 88.969788 14.420601
-0.480377 89.115036 12.732851
-1.507846 89.656014 13.034204
8.78653 83.209358 9.96766
9.237179 82.14769 10.688162
3.071883 98.236915 -9.793592
2.426203 98.275677 -8.464772
3.644442 97.367214 -8.378651
3.071883 98.236915 -9.793592
3.746708 98.098797 -11.085815
2.269728 90.909145 7.031921
1.82594 90.409409 8.34188
2.740534 91.33387 5.78623
2.269728 90.909145 7.031921
3.28304 90.208416 6.898156
3.21507 91.772282 4.429653
2.201758 92.473011 4.563417
2.740534 91.33387 5.78623
6.819589 90.903515 0.780296
6.294855 90.676735 2.011207
6.362292 91.882969 -0.378802
6.819589 90.903515 0.780296
5.854512 92.960712 -1.722701
5.349902 92.753495 -0.474759
6.362292 91.882969 -0.378802
6.514024 92.971581 -2.927038
5.501634 93.842106 -3.022995
5.854512 92.960712 -1.722701
7.202946 92.912792 -4.103864
6.514024 92.971581 -2.927038
6.790565 93.80304 -5.403672
7.202946 92.912792 -4.103864
-9.236724 88.786404 21.004525
-10.298449 89.065506 21.478178
-9.498165 87.755146 22.436793
-9.236724 88.786404 21.004525
-8.213758 88.549965 20.489928
-6.450579 90.036984 17.16588
-6.850988 89.174191 18.621292
-5.361262 89.601342 16.776481
-6.450579 90.036984 17.16588
0.13984 81.702191 21.222705
-0.174214 80.840538 22.432034
0.871662 80.346676 22.01176
9.684494 81.011307 11.458274
9.237179 82.14769 10.688162
8.914712 81.588905 11.773405
10.12148 79.971897 12.034807
9.684494 81.011307 11.458274
10.12148 79.971897 12.034807
9.8419 79.288276 13.165324
6.555357 88.435788 5.442389
6.131597 88.085735 6.551287
7.060168 87.354874 6.435259
6.179407 89.422184 4.355846
6.555357 88.435788 5.442389
0.4452 98.265739 -4.605042
1.092519 97.28109 -3.318933
0.4452 98.265739 -4.605042
1.114577 98.321076 -5.949986
1.798265 98.286171 -7.148162
2.426203 98.275677 -8.464772
-10.854523 86.981628 24.302272
-11.641012 88.348835 23.298124
-10.07274 85.544609 25.341314
-9.342646 84.135182 26.314535
-9.778107 86.597229 23.949489
-10.854523 86.981628 24.302272
-10.07274 85.544609 25.341314
1.827745 79.893349 21.585119
0.871662 80.346676 22.01176
2.156191 80.780857 20.31337
1.827745 79.893349 21.585119
2.798221 79.465878 21.096058
5.521109 78.051384 19.730961
4.64246 78.52071 20.202384
5.776844 78.897617 18.568021
5.521109 78.051384 19.730961
6.386806 77.533879 19.321172
9.088668 76.8442 16.737447
9.377289 77.655151 15.518275
8.55877 78.121666 16.110149
9.088668 76.8442 16.737447
8.833828 76.03656 17.876622
5.337877 91.440129 2.066902
5.775049 90.441113 3.208969
6.294855 90.676735 2.011207
2.689509 94.208713 0.75165
2.121363 93.977372 1.986163
3.244441 93.142765 1.972327
2.151543 95.291305 -0.631494
2.689509 94.208713 0.75165
3.274621 94.456699 -0.645331
1.645153 96.312843 -2.006431
2.151543 95.291305 -0.631494
2.18402 96.507538 -3.340979
1.092519 97.28109 -3.318933
1.645153 96.312843 -2.006431
5.422749 96.377465 -9.505189
4.739802 96.518432 -8.32553
5.872429 95.567444 -8.123249
4.936614 97.172863 -10.961129
5.422749 96.377465 -9.505189
-11.393369 89.427841 21.829796
-10.298449 89.065506 21.478178
-6.264528 83.325226 24.844235
-7.257438 83.687588 25.233815
-5.939649 84.378376 23.477092
-6.264528 83.325226 24.844235
-5.241331 82.882733 24.510786
-1.184236 81.200276 22.937461
-0.174214 80.840538 22.432034
-2.197869 81.640579 23.333187
-1.184236 81.200276 22.937461
-1.919669 82.636357 22.038705
-3.237297 82.05333 23.762743
-2.197869 81.640579 23.333187
-3.924878 83.506271 22.789037
-4.228872 82.482941 24.117348
-3.237297 82.05333 23.762743
-4.326251 89.183384 16.382677
-5.361262 89.601342 16.776481
-4.67589 88.306538 17.832065
-3.334556 88.707912 16.087503
-2.591373 87.317345 17.176676
-2.285051 88.136677 15.825918
-4.326251 89.183384 16.382677
-3.334556 88.707912 16.087503
0.552261 88.567093 12.398896
-0.480377 89.115036 12.732851
0.164311 87.864387 13.770501
0.929167 89.208858 11.11095
0.552261 88.567093 12.398896
1.573855 87.95821 12.148601
1.395204 89.817551 9.700284
0.929167 89.208858 11.11095
2.381496 89.191834 9.502251
1.82594 90.409409 8.34188
1.395204 89.817551 9.700284
7.882706 85.276314 8.383621
7.447896 86.335411 7.443033
7.071217 85.945725 8.484745
8.305845 84.290028 9.17868
7.986712 83.805958 10.214313
8.78653 83.209358 9.96766
7.882706 85.276314 8.383621
8.305845 84.290028 9.17868
9.584583 78.528324 14.339053
9.377289 77.655151 15.518275
3 58 57 13
3 0 15 14
3 1 59 61
3 61 60 18
3 59 60 61
3 1 62 64
3 62 19 63
3 62 63 64
3 2 22 20
3 2 24 22
3 2 26 24
3 3 29 27
3 3 31 29
3 3 65 67
3 67 66 31
3 65 66 67
3 69 68 32
3 4 70 72
3 72 71 34
3 70 71 72
3 73 35 74
3 75 36 76
3 77 76 35
3 75 76 77
3 78 37 79
3 80 39 81
3 82 81 37
3 80 81 82
3 83 40 84
3 85 41 86
3 87 86 40
3 85 86 87
3 89 88 41
3 7 90 91
3 7 92 93
3 94 42 95
3 96 95 33
3 94 95 96
3 8 43 16
3 8 44 43
3 8 45 44
3 97 46 98
3 99 98 17
3 97 98 99
3 101 100 46
3 5 102 103
3 104 47 105
3 9 48 21
3 9 49 48
3 9 50 49
3 10 106 108
3 108 107 23
3 106 107 108
3 10 109 110
3 10 111 112
3 11 51 25
3 11 52 51
3 6 53 38
3 12 54 28
3 12 55 54
3 12 56 55
3 114 113 30
3 13 115 117
3 117 116 4
3 115 116 117
3 119 118 13
3 14 120 121
3 15 122 124
3 124 123 14
3 122 123 124
3 15 125 127
3 125 7 126
3 125 126 127
3 128 16 129
3 130 16 131
3 132 8 133
3 134 133 16
3 132 133 134
3 135 17 136
3 137 136 8
3 135 136 137
3 138 17 139
3 141 140 17
3 18 142 144
3 144 143 5
3 142 143 144
3 146 145 18
3 19 147 148
3 19 149 150
3 20 151 153
3 151 21 152
3 151 152 153
3 22 21 20
3 22 9 21
3 22 23 9
3 24 23 22
3 24 10 23
3 24 25 10
3 26 25 24
3 26 11 25
3 27 28 6
3 29 28 27
3 29 12 28
3 29 30 12
3 31 30 29
3 31 154 156
3 156 155 30
3 154 155 156
3 31 157 158
3 160 159 31
3 32 33 0
3 161 33 162
3 163 162 32
3 161 162 163
3 165 164 33
3 34 166 167
3 169 168 34
3 171 170 4
3 172 5 173
3 35 174 175
3 35 176 178
3 176 5 177
3 176 177 178
3 35 18 5
3 36 18 35
3 36 1 18
3 179 20 180
3 37 181 183
3 181 20 182
3 181 182 183
3 37 2 20
3 37 38 2
3 39 38 37
3 39 6 38
3 184 39 185
3 40 186 188
3 186 39 187
3 186 187 188
3 40 6 39
3 40 27 6
3 41 27 40
3 41 3 27
3 41 189 191
3 191 190 3
3 189 190 191
3 193 192 41
3 33 15 0
3 42 15 33
3 42 7 15
3 16 194 196
3 194 42 195
3 194 195 196
3 43 42 16
3 43 7 42
3 43 197 199
3 199 198 7
3 197 198 199
3 44 200 202
3 202 201 43
3 200 201 202
3 44 203 204
3 44 205 207
3 205 34 206
3 205 206 207
3 45 34 44
3 45 4 34
3 17 45 8
3 46 45 17
3 46 4 45
3 46 13 4
3 208 13 209
3 210 209 46
3 208 209 210
3 212 211 13
3 214 213 5
3 215 36 216
3 47 217 219
3 217 36 218
3 217 218 219
3 47 1 36
3 21 220 221
3 48 222 224
3 224 223 21
3 222 223 224
3 48 225 226
3 48 227 229
3 227 47 228
3 227 228 229
3 49 47 48
3 49 1 47
3 49 19 1
3 50 19 49
3 50 230 232
3 232 231 19
3 230 231 232
3 23 50 9
3 233 50 234
3 235 234 23
3 233 234 235
3 237 236 50
3 25 238 240
3 240 239 10
3 238 239 240
3 51 241 243
3 243 242 25
3 241 242 243
3 51 244 245
3 51 246 248
3 246 14 247
3 246 247 248
3 52 14 51
3 52 0 14
3 38 26 2
3 53 26 38
3 53 11 26
3 28 53 6
3 54 53 28
3 54 11 53
3 54 52 11
3 55 52 54
3 55 0 52
3 55 32 0
3 56 32 55
3 56 249 251
3 251 250 32
3 249 250 251
3 30 56 12
3 252 56 253
3 254 253 30
3 252 253 254
3 256 255 56
3 258 257 3
