ply
format ascii 1.0
element vertex 239
property float x
property float y
property float z
element face 222
property list uchar int vertex_index
end_header
14.57519 40.555191 -17.374008
22.26025 36.877525 -9.669761
17.85008 39.389153 -12.964732
19.938396 38.36356 -11.271214
28.344809 38.882763 -4.846082
16.216801 47.156544 -17.219398
16.022404 40.050598 -14.947287
17.969681 46.319054 -14.927681
20.058363 45.267227 -12.837152
22.270069 43.819027 -10.88036
24.454746 42.271545 -9.008092
26.468983 40.559093 -7.078228
24.734915 35.230785 -8.099723
21.075941 37.710609 -10.471559
14.55934 43.637192 -18.582399
17.163034 50.274097 -17.262556
17.076397 46.846458 -16.039871
18.148699 49.876629 -15.999745
20.123447 48.835987 -13.790211
21.206051 48.044014 -12.649862
21.207581 44.649414 -11.825382
22.258392 47.512661 -11.642811
16.208885 50.32951 -18.556698
16.893179 39.708092 -13.898707
15.942882 36.462589 -13.99973
16.83197 36.395668 -13.062675
24.288727 45.724792 -9.540741
25.20896 44.752117 -8.517473
27.896463 36.440971 -5.762179
27.419052 39.749889 -6.020877
26.802599 37.018089 -6.770744
25.695454 38.120605 -7.692201
18.88308 39.078072 -12.118745
17.812559 35.799919 -12.104878
18.848093 35.138111 -11.249489
29.191162 37.714428 -3.693779
15.297237 43.942677 -17.320148
15.247519 40.469807 -16.144688
16.062157 43.697437 -16.119675
16.900276 43.126747 -14.943327
17.849234 42.844849 -13.937879
19.125355 49.364151 -14.855288
18.941742 45.75832 -13.874448
18.902458 42.333397 -12.931304
20.046642 41.930634 -12.006659
21.078001 41.173645 -11.157403
22.225979 40.227104 -10.253781
15.327348 46.926277 -18.480412
23.297346 46.77972 -10.604115
23.365755 43.119675 -9.959093
23.448404 39.736423 -9.408023
27.841303 41.950832 -4.943255
27.026741 42.897949 -6.214925
26.161036 43.87616 -7.373199
25.472124 41.543915 -8.075027
24.567543 38.737659 -8.550353
23.47188 36.136311 -8.90751
14.566479 38.785927 -16.812998
14.299815 38.866571 -17.471083
21.68076 35.435325 -9.728938
21.088606 35.851867 -10.129837
21.668095 37.294067 -10.07066
22.274703 35.103635 -9.388049
21.68076 35.435325 -9.728938
14.287752 40.547872 -18.069028
14.279827 42.088873 -18.673223
14.567265 42.096192 -17.978203
14.299815 38.866571 -17.471083
14.012377 38.859253 -18.166103
14.287752 40.547872 -18.069028
18.172629 51.578671 -16.631778
17.655867 50.075363 -16.631151
17.679797 51.777405 -17.263184
21.693238 49.399287 -12.553757
21.205461 49.765249 -13.119962
22.219409 49.13361 -12.050231
21.732222 47.778337 -12.146337
21.693238 49.399287 -12.553757
17.679797 51.777405 -17.263184
17.198605 51.906709 -17.904664
25.532308 45.921686 -8.123592
25.12156 46.407795 -8.718768
26.949812 35.349767 -6.637333
27.349531 36.72953 -6.266462
27.496744 35.061208 -6.13305
26.34303 35.778364 -7.06145
26.949812 35.349767 -6.637333
29.57804 37.251955 -3.047168
29.180517 38.767345 -3.071785
29.567395 38.304873 -2.425173
19.673497 50.842661 -14.823864
19.160466 50.98249 -15.386841
19.708608 52.461 -15.355418
15.613758 38.556606 -15.043856
15.226315 38.76621 -15.642556
15.634962 40.260203 -15.545987
15.642327 33.360338 -13.611123
15.610615 35.02474 -14.060754
15.974594 34.798187 -13.550099
17.324338 34.205815 -12.137429
17.82805 34.045895 -11.708842
23.713227 47.898825 -10.361626
23.249395 48.499 -10.961669
28.093056 40.416798 -4.894668
28.209199 41.384472 -4.292818
28.460952 39.850437 -4.244231
24.199218 33.9457 -8.233085
23.567701 34.398463 -8.636978
24.103397 35.683548 -8.503616
20.537029 36.279716 -10.494873
19.968257 36.606192 -10.8947
20.507168 38.037084 -10.871386
20.537029 36.279716 -10.494873
21.088606 35.851867 -10.129837
14.280064 43.635399 -19.280499
14.58532 45.190782 -19.185072
14.280064 43.635399 -19.280499
14.279827 42.088873 -18.673223
20.664158 50.161236 -13.690137
20.172543 50.578579 -14.291326
20.664749 48.44 -13.220036
20.664158 50.161236 -13.690137
21.205461 49.765249 -13.119962
16.72153 51.934416 -18.551735
16.260927 51.916314 -19.19573
16.685959 50.301803 -17.909627
16.72153 51.934416 -18.551735
17.198605 51.906709 -17.904664
16.419138 34.764727 -13.081571
15.974594 34.798187 -13.550099
16.387426 36.429129 -13.531202
24.661443 46.894132 -9.230402
24.208917 47.371361 -9.82994
24.748843 45.238455 -9.029107
24.661443 46.894132 -9.230402
25.12156 46.407795 -8.718768
25.789458 36.329622 -7.522178
26.249026 37.569347 -7.231472
26.34303 35.778364 -7.06145
25.309188 34.884712 -7.725939
25.215184 36.675695 -7.895962
25.789458 36.329622 -7.522178
24.8305 33.4914 -7.876422
25.309188 34.884712 -7.725939
18.345817 33.71499 -11.281147
17.82805 34.045895 -11.708842
18.330326 35.469015 -11.677183
19.423105 34.993468 -10.883838
19.393245 36.750836 -11.260352
19.968257 36.606192 -10.8947
18.871263 33.433328 -10.891831
19.423105 34.993468 -10.883838
18.345817 33.71499 -11.281147
18.871263 33.433328 -10.891831
28.884128 39.266269 -3.66808
29.180517 38.767345 -3.071785
28.767986 38.298595 -4.269931
28.460952 39.850437 -4.244231
28.884128 39.266269 -3.66808
29.51166 36.303325 -3.628655
29.57804 37.251955 -3.047168
29.04549 36.589018 -4.21915
29.51166 36.303325 -3.628655
28.622314 37.173186 -4.795301
28.767986 38.298595 -4.269931
29.04549 36.589018 -4.21915
28.398141 35.952289 -5.253349
28.120636 37.661867 -5.30413
28.622314 37.173186 -4.795301
28.089236 34.787077 -5.677682
28.398141 35.952289 -5.253349
27.496744 35.061208 -6.13305
28.089236 34.787077 -5.677682
18.672137 51.23873 -15.95907
18.172629 51.578671 -16.631778
18.637027 49.62039 -15.427516
18.672137 51.23873 -15.95907
19.160466 50.98249 -15.386841
19.624401 49.100069 -14.32275
19.673497 50.842661 -14.823864
20.172543 50.578579 -14.291326
15.805943 50.278334 -19.183217
16.260927 51.916314 -19.19573
15.365175 48.576718 -19.145074
15.805943 50.278334 -19.183217
15.768116 48.627893 -18.518555
14.969324 46.835325 -19.134079
15.00715 48.485765 -19.798741
15.365175 48.576718 -19.145074
14.943344 45.281734 -18.531405
14.58532 45.190782 -19.185072
14.969324 46.835325 -19.134079
14.902644 38.743235 -16.198338
14.566479 38.785927 -16.812998
14.911354 40.512499 -16.759348
14.902644 38.743235 -16.198338
15.226315 38.76621 -15.642556
15.573996 36.762602 -14.570078
15.613758 38.556606 -15.043856
15.982643 38.256594 -14.473508
15.573996 36.762602 -14.570078
15.610615 35.02474 -14.060754
16.834043 34.503689 -12.616328
17.322264 36.097794 -12.583776
17.324338 34.205815 -12.137429
16.419138 34.764727 -13.081571
16.834043 34.503689 -12.616328
22.729917 48.865471 -11.481017
22.219409 49.13361 -12.050231
22.777869 47.146191 -11.123463
22.729917 48.865471 -11.481017
23.249395 48.499 -10.961669
23.793036 46.252256 -10.072428
23.713227 47.898825 -10.361626
24.208917 47.371361 -9.82994
27.881291 42.947502 -4.345398
28.209199 41.384472 -4.292818
27.585612 43.484911 -5.016977
27.881291 42.947502 -4.345398
27.178331 43.958469 -5.652812
27.585612 43.484911 -5.016977
27.434022 42.424391 -5.57909
26.840114 44.570802 -6.293544
27.178331 43.958469 -5.652812
26.407261 45.059908 -6.872681
26.840114 44.570802 -6.293544
26.593888 43.387054 -6.794062
26.008346 45.483707 -7.551455
26.407261 45.059908 -6.872681
25.684998 44.314138 -7.945336
25.532308 45.921686 -8.123592
26.008346 45.483707 -7.551455
22.880518 34.733029 -9.006923
22.274703 35.103635 -9.388049
22.866065 36.506918 -9.288635
22.880518 34.733029 -9.006923
23.567701 34.398463 -8.636978
24.199218 33.9457 -8.233085
24.8305 33.4914 -7.876422
3 0 57 58
3 1 59 61
3 61 60 13
3 59 60 61
3 1 62 63
3 0 64 66
3 66 65 14
3 64 65 66
3 0 67 69
3 67 68 69
3 70 17 71
3 72 71 15
3 70 71 72
3 73 19 74
3 75 21 76
3 77 76 19
3 75 76 77
3 78 15 79
3 2 25 23
3 80 27 81
3 82 30 83
3 84 83 28
3 82 83 84
3 86 85 30
3 3 34 32
3 87 35 88
3 87 88 89
3 5 38 36
3 7 39 16
3 7 40 39
3 90 41 91
3 90 91 92
3 8 42 18
3 8 43 42
3 8 44 43
3 9 45 20
3 9 46 45
3 5 47 22
3 5 36 47
3 6 93 95
3 95 94 37
3 93 94 95
3 98 97 24
3 96 97 98
3 100 99 33
3 101 48 102
3 10 49 26
3 10 50 49
3 4 103 105
3 103 51 104
3 103 104 105
3 11 52 29
3 11 53 52
3 11 54 53
3 12 55 31
3 12 56 55
3 12 106 108
3 108 107 56
3 106 107 108
3 13 109 111
3 111 110 3
3 109 110 111
3 113 112 13
3 14 114 115
3 117 116 14
3 15 16 5
3 17 16 15
3 17 7 16
3 118 18 119
3 19 120 122
3 120 18 121
3 120 121 122
3 19 8 18
3 19 20 8
3 21 20 19
3 21 9 20
3 123 22 124
3 15 125 127
3 125 22 126
3 125 126 127
3 15 5 22
3 23 24 6
3 25 24 23
3 25 128 130
3 130 129 24
3 128 129 130
3 131 26 132
3 27 133 135
3 133 26 134
3 133 134 135
3 27 10 26
3 28 29 4
3 30 29 28
3 30 11 29
3 30 31 11
3 136 31 137
3 138 137 30
3 136 137 138
3 139 12 140
3 141 140 31
3 139 140 141
3 143 142 12
3 32 33 2
3 34 33 32
3 34 144 146
3 146 145 33
3 144 145 146
3 147 34 148
3 149 148 3
3 147 148 149
3 150 34 151
3 153 152 34
3 35 154 155
3 35 156 158
3 156 4 157
3 156 157 158
3 159 35 160
3 161 35 162
3 163 4 164
3 165 164 35
3 163 164 165
3 166 28 167
3 168 167 4
3 166 167 168
3 169 28 170
3 172 171 28
3 36 37 0
3 38 37 36
3 38 6 37
3 16 38 5
3 39 38 16
3 39 6 38
3 39 23 6
3 40 23 39
3 40 2 23
3 173 17 174
3 41 175 177
3 175 17 176
3 175 176 177
3 41 7 17
3 18 178 180
3 178 41 179
3 178 179 180
3 42 41 18
3 42 7 41
3 42 40 7
3 43 40 42
3 43 2 40
3 43 32 2
3 44 32 43
3 44 3 32
3 20 44 8
3 45 44 20
3 45 3 44
3 45 13 3
3 46 13 45
3 46 1 13
3 22 181 182
3 47 183 185
3 185 184 22
3 183 184 185
3 47 186 188
3 186 187 188
3 47 189 191
3 189 14 190
3 189 190 191
3 36 14 47
3 36 0 14
3 37 192 194
3 194 193 0
3 192 193 194
3 196 195 37
3 24 197 199
3 199 198 6
3 197 198 199
3 201 200 24
3 33 25 2
3 202 25 203
3 204 203 33
3 202 203 204
3 206 205 25
3 207 21 208
3 48 209 211
3 209 21 210
3 209 210 211
3 48 9 21
3 26 212 214
3 212 48 213
3 212 213 214
3 49 48 26
3 49 9 48
3 49 46 9
3 50 46 49
3 50 1 46
3 51 215 216
3 51 217 218
3 29 51 4
3 52 51 29
3 52 219 221
3 221 220 51
3 219 220 221
3 52 222 223
3 53 224 226
3 226 225 52
3 224 225 226
3 53 227 228
3 53 229 231
3 229 27 230
3 229 230 231
3 54 27 53
3 54 10 27
3 31 54 11
3 55 54 31
3 55 10 54
3 55 50 10
3 56 50 55
3 56 1 50
3 56 232 234
3 234 233 1
3 232 233 234
3 236 235 56
3 238 237 12
