ply
format ascii 1.0
element vertex 283
property float x
property float y
property float z
element face 277
property list uchar int vertex_index
end_header
36.380753 -16.852034 -6.507609
38.870361 -24.007097 -4.993856
31.179241 -10.439335 -7.2523
38.590031 -18.491417 -14.244009
34.601757 -15.723945 -3.056746
31.869938 -12.611794 -3.758626
34.039494 -13.558611 -7.037203
33.759628 -10.97555 -10.860397
36.059704 -14.158927 -10.740893
37.644947 -14.679832 -14.687207
37.809105 -17.789799 -10.319066
36.887379 -19.003666 -2.309286
38.041851 -20.273306 -5.96818
38.408882 -22.379908 -1.361261
39.100502 -26.059738 -0.022843
28.889065 -9.394645 -4.435842
38.840137 -19.530712 -17.806454
38.701488 -21.524841 -9.684702
35.517715 -16.313976 -4.778018
34.207371 -14.636628 -5.00782
35.28548 -15.271496 -6.610488
35.118542 -13.979519 -8.746316
36.130333 -15.481776 -8.609755
36.991531 -15.927976 -10.468889
37.113861 -17.211685 -8.466282
36.21851 -18.290365 -0.689253
37.765392 -20.725082 -1.786217
38.029102 -21.631163 0.61812
39.090614 -27.882545 0.491024
31.508467 -11.596935 -5.538148
30.4086 -11.010021 -4.191706
29.923933 -9.922524 -5.790039
34.931061 -11.096721 -12.810285
38.222229 -16.536608 -14.573031
38.205067 -15.031516 -16.570059
38.588722 -16.931231 -16.467796
38.80941 -17.551416 -18.067526
38.781326 -19.13043 -15.930923
38.553699 -22.049608 -5.499816
38.456425 -20.946489 -7.781563
38.769421 -22.776157 -7.240995
33.676079 -15.017994 -1.527719
32.385506 -13.5397 -2.06269
33.315483 -14.221663 -3.342432
32.974293 -13.207182 -5.24352
32.648708 -12.046646 -7.03265
32.476601 -10.776908 -8.957334
33.82056 -12.356906 -8.801375
34.950165 -12.63171 -10.629207
36.002617 -12.730323 -12.777512
36.903255 -12.849313 -14.855183
36.952183 -14.516895 -12.631934
37.701874 -16.275755 -12.48885
38.247204 -18.078711 -12.216242
38.9445 -25.803345 -4.616295
38.879215 -24.543865 -6.995698
38.298359 -23.489765 -20.050932
35.019402 -16.654537 -1.026852
35.773666 -17.280024 -2.687052
36.611908 -18.003956 -4.394805
37.300152 -18.482481 -6.367082
37.541229 -19.718456 -4.087935
38.21508 -21.376331 -3.752578
38.705925 -23.161985 -3.271034
38.658672 -23.387068 1.045421
38.878185 -24.229221 -0.833295
38.979553 -25.071718 -2.636971
39.026733 -26.886978 -1.98427
38.777336 -20.388376 -19.383179
37.897369 -19.031822 -8.195492
38.365135 -19.676401 -9.966309
38.621288 -19.999729 -11.913419
38.826336 -23.29183 -9.343863
38.791271 -21.965832 -11.579908
38.774078 -20.583303 -13.754495
38.791397 -21.232306 -15.551147
38.715446 -21.67263 -17.253586
38.53072 -22.578989 -18.67268
37.774569 -21.141618 1.406528
37.632942 -20.801102 0.25015
30.403771 -9.647101 -7.300304
29.776117 -9.388695 -6.569173
30.551587 -10.180929 -6.52117
31.077148 -9.807565 -8.144261
30.403771 -9.647101 -7.300304
34.896309 -10.297296 -13.779365
35.461363 -11.119395 -13.846904
38.869915 -26.158724 -5.517198
38.892437 -26.70412 -4.287202
38.199024 -23.882126 -20.673107
38.083225 -24.612285 -19.607736
35.281903 -17.0858 -0.043986
34.634647 -16.256532 -0.380349
38.762277 -23.789512 2.288555
38.480167 -22.887523 1.957923
38.583772 -23.289967 3.201056
38.989344 -25.144479 -0.428069
38.953458 -24.647394 0.446895
39.064617 -25.562652 0.852121
38.979216 -28.323795 -0.452073
39.002489 -28.754463 0.924044
31.387286 -12.267422 -3.114257
31.64507 -12.731375 -2.26629
32.127722 -13.075747 -2.910658
29.137555 -9.814287 -3.686909
29.897322 -10.621975 -3.564841
29.648832 -10.202333 -4.313774
28.420882 -8.978673 -3.933309
29.137555 -9.814287 -3.686909
28.131697 -8.539223 -4.599258
28.420882 -8.978673 -3.933309
33.033334 -10.16388 -10.847056
32.391821 -10.064559 -9.895525
33.118115 -10.876229 -9.908866
37.654916 -13.91839 -15.728305
37.28407 -13.003131 -15.812293
37.274101 -13.764572 -14.771195
38.201422 -14.157493 -17.61845
38.402607 -15.212654 -17.510602
38.869056 -18.781802 -18.802412
38.853693 -17.792154 -18.932948
38.824773 -18.541064 -17.93699
38.808736 -19.959544 -18.594817
38.837656 -19.210634 -19.590774
38.869056 -18.781802 -18.802412
38.803856 -24.270851 -9.023312
38.852775 -23.917848 -8.16978
38.830296 -24.896869 -7.84923
38.782077 -22.254155 -12.444797
38.778595 -22.936754 -11.375745
38.773481 -21.562891 -13.532091
38.782674 -21.274567 -12.667202
38.782077 -22.254155 -12.444797
38.78214 -21.887393 -14.430417
38.782738 -20.907805 -14.652821
38.773481 -21.562891 -13.532091
38.57019 -22.823615 -16.927729
38.673294 -22.481549 -16.169005
38.477827 -23.276795 -17.637276
38.623083 -22.12581 -17.963133
38.57019 -22.823615 -16.927729
38.341662 -23.697644 -18.332426
38.477827 -23.276795 -17.637276
36.420821 -18.687642 0.362161
35.881456 -17.903714 0.124814
36.727646 -19.130703 -0.403537
36.420821 -18.687642 0.362161
37.062081 -19.487353 -1.213553
36.552945 -18.647016 -1.49927
36.727646 -19.130703 -0.403537
37.501087 -20.348062 -0.952018
37.326386 -19.864374 -2.047751
37.062081 -19.487353 -1.213553
37.897247 -21.178123 -0.584048
37.501087 -20.348062 -0.952018
37.632942 -20.801102 0.25015
39.145979 -26.500206 1.170278
39.064617 -25.562652 0.852121
39.141035 -27.41161 1.427211
39.095558 -26.971142 0.234091
39.145979 -26.500206 1.170278
39.117338 -28.294848 1.880127
39.141035 -27.41161 1.427211
39.002489 -28.754463 0.924044
39.117338 -28.294848 1.880127
29.169407 -9.128898 -5.89036
28.651973 -8.864958 -5.213262
29.406499 -9.658584 -5.112941
29.169407 -9.128898 -5.89036
29.776117 -9.388695 -6.569173
34.251161 -10.238307 -12.780848
33.665445 -10.177721 -11.805904
34.345344 -11.036136 -11.835341
34.251161 -10.238307 -12.780848
34.896309 -10.297296 -13.779365
38.594434 -16.162511 -17.459471
38.402607 -15.212654 -17.510602
38.396895 -15.981374 -16.518928
38.699066 -17.241324 -17.267661
38.704779 -16.472603 -18.259335
38.594434 -16.162511 -17.459471
33.030793 -14.278847 -1.795205
32.629181 -13.892364 -1.130351
33.274468 -14.631511 -0.862866
35.997141 -11.936196 -13.830517
35.461363 -11.119395 -13.846904
35.466839 -11.913522 -12.793899
36.452936 -12.789818 -13.816347
36.44746 -11.995691 -14.869353
35.997141 -11.936196 -13.830517
38.837272 -25.528984 -6.7069
38.911857 -25.173605 -5.805997
38.869915 -26.158724 -5.517198
38.830296 -24.896869 -7.84923
38.837272 -25.528984 -6.7069
38.403616 -22.681631 -21.079375
38.479376 -22.287968 -20.407494
38.403616 -22.681631 -21.079375
38.199024 -23.882126 -20.673107
33.962986 -15.438261 -0.630782
33.274468 -14.631511 -0.862866
34.347741 -15.836265 -1.277286
33.962986 -15.438261 -0.630782
34.634647 -16.256532 -0.380349
35.618956 -17.472451 -0.858053
35.281903 -17.0858 -0.043986
35.881456 -17.903714 0.124814
38.165382 -22.009571 1.744272
37.774569 -21.141618 1.406528
38.343887 -22.509116 0.83177
38.165382 -22.009571 1.744272
38.480167 -22.887523 1.957923
38.843702 -24.226318 1.386254
38.762277 -23.789512 2.288555
38.768428 -23.808144 0.106063
38.843702 -24.226318 1.386254
38.953458 -24.647394 0.446895
38.933554 -27.245936 -2.971189
38.892437 -26.70412 -4.287202
38.985616 -26.345161 -3.300282
38.947275 -27.826011 -1.68972
39.058673 -27.384761 -0.746623
38.979216 -28.323795 -0.452073
38.933554 -27.245936 -2.971189
38.947275 -27.826011 -1.68972
31.974762 -13.148238 -1.445329
32.218437 -13.500902 -0.512991
32.629181 -13.892364 -1.130351
31.974762 -13.148238 -1.445329
31.64507 -12.731375 -2.26629
30.656617 -11.466535 -3.330798
31.387286 -12.267422 -3.114257
31.139269 -11.810907 -3.975166
30.656617 -11.466535 -3.330798
29.897322 -10.621975 -3.564841
27.894605 -8.009536 -5.376677
28.131697 -8.539223 -4.599258
28.651973 -8.864958 -5.213262
31.725828 -9.976351 -8.996778
31.077148 -9.807565 -8.144261
31.827921 -10.608121 -8.104817
31.725828 -9.976351 -8.996778
32.391821 -10.064559 -9.895525
33.033334 -10.16388 -10.847056
33.665445 -10.177721 -11.805904
36.896076 -12.074524 -15.8176
36.44746 -11.995691 -14.869353
36.896076 -12.074524 -15.8176
37.28407 -13.003131 -15.812293
37.934977 -14.094233 -16.669731
37.654916 -13.91839 -15.728305
37.925007 -14.855674 -15.628633
37.934977 -14.094233 -16.669731
38.201422 -14.157493 -17.61845
38.831329 -16.662953 -19.161507
38.704779 -16.472603 -18.259335
38.831329 -16.662953 -19.161507
38.853693 -17.792154 -18.932948
38.838143 -19.507565 -20.396386
38.837656 -19.210634 -19.590774
38.718864 -20.737274 -20.073617
38.838143 -19.507565 -20.396386
38.796127 -23.599753 -10.257722
38.803856 -24.270851 -9.023312
38.808803 -22.628831 -10.461886
38.796127 -23.599753 -10.257722
38.778595 -22.936754 -11.375745
38.71127 -22.261387 -15.317785
38.78214 -21.887393 -14.430417
38.753422 -21.452468 -16.402366
38.71127 -22.261387 -15.317785
38.673294 -22.481549 -16.169005
38.595557 -21.83258 -19.718367
38.718864 -20.737274 -20.073617
38.654028 -21.483683 -19.027929
38.41454 -23.034377 -19.361806
38.479376 -22.287968 -20.407494
38.595557 -21.83258 -19.718367
38.225481 -24.153032 -19.021552
38.41454 -23.034377 -19.361806
38.341662 -23.697644 -18.332426
38.083225 -24.612285 -19.607736
38.225481 -24.153032 -19.021552
3 0 20 18
3 0 22 20
3 0 24 22
3 78 27 79
3 2 31 29
3 2 80 82
3 82 81 31
3 80 81 82
3 2 83 84
3 86 85 32
3 3 35 33
3 3 37 35
3 1 40 38
3 4 43 41
3 6 44 19
3 6 45 44
3 6 47 45
3 8 48 21
3 8 49 48
3 8 51 49
3 10 52 23
3 10 53 52
3 88 87 54
3 90 89 56
3 91 57 92
3 11 58 25
3 11 59 58
3 11 61 59
3 13 62 26
3 13 63 62
3 93 64 94
3 93 94 95
3 14 96 98
3 96 65 97
3 96 97 98
3 14 66 65
3 14 67 66
3 100 99 28
3 5 101 103
3 103 102 42
3 101 102 103
3 15 104 106
3 106 105 30
3 104 105 106
3 15 107 108
3 15 109 110
3 7 111 113
3 113 112 46
3 111 112 113
3 9 114 116
3 116 115 50
3 114 115 116
3 118 117 34
3 16 119 121
3 121 120 36
3 119 120 121
3 16 122 124
3 122 68 123
3 122 123 124
3 12 69 60
3 17 70 39
3 17 71 70
3 125 72 126
3 127 126 55
3 125 126 127
3 128 73 129
3 130 74 131
3 132 131 73
3 130 131 132
3 133 75 134
3 135 134 74
3 133 134 135
3 136 76 137
3 138 77 139
3 140 139 76
3 138 139 140
3 142 141 77
3 18 19 4
3 20 19 18
3 20 6 19
3 20 21 6
3 22 21 20
3 22 8 21
3 22 23 8
3 24 23 22
3 24 10 23
3 143 25 144
3 145 25 146
3 147 11 148
3 149 148 25
3 147 148 149
3 150 26 151
3 152 151 11
3 150 151 152
3 27 153 155
3 153 26 154
3 153 154 155
3 27 13 26
3 156 14 157
3 158 28 159
3 160 159 14
3 158 159 160
3 161 28 162
3 164 163 28
3 29 30 5
3 31 30 29
3 31 15 30
3 31 165 167
3 167 166 15
3 165 166 167
3 169 168 31
3 32 170 172
3 172 171 7
3 170 171 172
3 174 173 32
3 33 34 9
3 35 34 33
3 35 175 177
3 177 176 34
3 175 176 177
3 35 178 180
3 178 36 179
3 178 179 180
3 37 36 35
3 37 16 36
3 38 39 12
3 40 39 38
3 40 17 39
3 41 181 183
3 181 42 182
3 181 182 183
3 43 42 41
3 43 5 42
3 19 43 4
3 44 43 19
3 44 5 43
3 44 29 5
3 45 29 44
3 45 2 29
3 45 46 2
3 47 46 45
3 47 7 46
3 21 47 6
3 48 47 21
3 48 7 47
3 48 32 7
3 49 32 48
3 49 184 186
3 186 185 32
3 184 185 186
3 49 187 189
3 187 50 188
3 187 188 189
3 51 50 49
3 51 9 50
3 23 51 8
3 52 51 23
3 52 9 51
3 52 33 9
3 53 33 52
3 53 3 33
3 54 55 1
3 190 55 191
3 192 191 54
3 190 191 192
3 194 193 55
3 56 195 196
3 198 197 56
3 199 41 200
3 57 201 203
3 201 41 202
3 201 202 203
3 57 4 41
3 25 204 206
3 204 57 205
3 204 205 206
3 58 57 25
3 58 4 57
3 58 18 4
3 59 18 58
3 59 0 18
3 59 60 0
3 61 60 59
3 61 12 60
3 26 61 11
3 62 61 26
3 62 12 61
3 62 38 12
3 63 38 62
3 63 1 38
3 207 27 208
3 64 209 211
3 209 27 210
3 209 210 211
3 64 13 27
3 212 64 213
3 65 214 216
3 214 64 215
3 214 215 216
3 65 13 64
3 65 63 13
3 66 63 65
3 66 1 63
3 66 54 1
3 67 54 66
3 67 217 219
3 219 218 54
3 217 218 219
3 28 67 14
3 220 67 221
3 222 221 28
3 220 221 222
3 224 223 67
3 42 225 227
3 225 226 227
3 229 228 42
3 30 230 232
3 232 231 5
3 230 231 232
3 234 233 30
3 237 236 15
3 235 236 237
3 46 238 240
3 240 239 2
3 238 239 240
3 242 241 46
3 244 243 7
3 50 245 246
3 248 247 50
3 34 249 251
3 251 250 9
3 249 250 251
3 253 252 34
3 36 254 255
3 257 256 36
3 68 258 259
3 68 260 261
3 60 24 0
3 69 24 60
3 69 10 24
3 39 69 12
3 70 69 39
3 70 10 69
3 70 53 10
3 71 53 70
3 71 3 53
3 55 40 1
3 72 40 55
3 72 17 40
3 262 72 263
3 73 264 266
3 264 72 265
3 264 265 266
3 73 17 72
3 73 71 17
3 74 71 73
3 74 3 71
3 74 37 3
3 75 37 74
3 75 16 37
3 267 75 268
3 76 269 271
3 269 75 270
3 269 270 271
3 76 16 75
3 76 68 16
3 77 68 76
3 77 272 274
3 274 273 68
3 272 273 274
3 77 275 277
3 275 56 276
3 275 276 277
3 278 56 279
3 280 279 77
3 278 279 280
3 282 281 56
