ply
format ascii 1.0
element vertex 257
property float x
property float y
property float z
element face 237
property list uchar int vertex_index
end_header
19.607821 -9.392749 -65.605782
32.113571 -17.100584 -59.008057
37.065498 -21.950941 -52.438225
25.727671 -12.853556 -63.383682
21.786877 -26.258224 -58.631618
34.668114 -11.356591 -59.116707
28.830105 -14.950172 -61.546738
34.857605 -19.433697 -55.986134
19.495026 -15.325809 -63.141148
36.51329 -29.862684 -49.340591
34.382202 -27.779234 -52.791004
31.740557 -25.922327 -55.593208
28.707493 -23.474199 -58.148159
25.632677 -20.553526 -60.325909
22.468559 -18.006666 -61.901386
22.292202 -10.866738 -64.822174
33.450893 -14.005194 -59.239178
31.909554 -12.976199 -60.70089
30.321888 -11.895532 -62.00779
30.490187 -16.137774 -60.317783
36.131088 -16.393431 -55.862682
36.025879 -20.738588 -54.26413
37.362427 -30.781147 -47.445267
33.123787 -27.048977 -54.16663
28.379372 -27.481709 -56.598316
26.784445 -26.289219 -57.654633
27.158607 -21.931217 -59.342041
25.405973 -24.779827 -58.650532
20.240353 -24.694677 -59.335796
22.19533 -21.965256 -60.320168
20.625593 -20.488239 -61.016075
20.941641 -16.703972 -62.554642
19.223537 -18.788105 -61.705647
23.929554 -11.928989 -64.143974
23.328238 -27.984489 -57.757011
27.280945 -13.743756 -62.584877
35.953426 -12.198713 -57.512581
34.84108 -15.382644 -57.556198
33.515812 -18.572008 -57.452484
17.292837 -8.488846 -65.85128
18.449503 -10.364349 -65.169319
18.130806 -13.523439 -63.827457
19.587528 -11.849392 -64.591675
36.922554 -25.849354 -50.821693
35.518314 -28.922586 -51.078964
35.832661 -24.903648 -52.648933
34.667114 -23.722582 -54.364014
33.352913 -22.880184 -55.808857
31.946968 -21.492786 -57.343552
29.870333 -28.858303 -55.350533
30.336588 -24.515476 -56.97345
30.498053 -20.357914 -58.623478
28.895578 -19.244892 -59.8134
27.292568 -17.769354 -60.991299
25.783278 -16.625029 -61.874847
23.7742 -23.605106 -59.45351
24.096712 -19.255665 -61.16785
24.212074 -15.46303 -62.67749
22.513399 -14.430454 -63.355141
20.988541 -13.112321 -64.03154
20.825848 -9.853436 -65.370132
37.125383 -19.773447 -53.253725
37.573618 -20.297503 -52.335789
36.545688 -21.344765 -53.351178
36.605574 -19.167271 -54.166678
37.125383 -19.773447 -53.253725
25.812373 -27.704894 -57.332304
26.579697 -28.407996 -56.841248
25.123137 -26.950198 -57.830253
26.095209 -25.534523 -58.152582
25.812373 -27.704894 -57.332304
19.763846 -21.641015 -60.548338
20.432973 -22.591458 -60.175936
19.571227 -23.744234 -59.708199
19.062818 -20.790948 -60.893124
19.924565 -19.638172 -61.360861
19.763846 -21.641015 -60.548338
25.517081 -10.985034 -64.158237
26.422049 -11.370937 -63.744125
24.828612 -12.391272 -63.763828
24.618023 -10.522751 -64.538384
25.517081 -10.985034 -64.158237
34.487296 -9.233903 -59.934627
35.147198 -9.773812 -59.094014
28.749688 -13.013348 -62.312534
29.495579 -11.486028 -62.54306
29.575997 -13.422852 -61.777264
28.055525 -14.346964 -62.065807
27.975108 -12.410141 -62.831604
28.749688 -13.013348 -62.312534
36.497047 -12.801611 -56.632166
36.39809 -10.835373 -57.350092
17.522104 -6.823016 -66.535576
16.651689 -7.392539 -66.231887
18.069615 -8.042959 -66.078434
17.522104 -6.823016 -66.535576
17.545968 -12.590846 -64.162897
17.312553 -14.312084 -63.413862
17.705317 -11.011301 -64.833828
18.290154 -11.943894 -64.498388
17.545968 -12.590846 -64.162897
37.125631 -28.322242 -49.188591
37.550199 -28.781473 -48.240929
36.937858 -30.321916 -48.392929
36.717922 -27.856019 -50.081142
37.330263 -26.315576 -49.929142
37.125631 -28.322242 -49.188591
34.950258 -28.35091 -51.934984
34.74681 -30.528782 -51.071321
34.178754 -29.957107 -51.927341
28.934915 -30.315534 -55.143157
29.665465 -31.049343 -54.498291
22.094421 -9.219307 -65.490868
22.908071 -9.521655 -65.25151
21.559025 -10.360087 -65.096153
21.361244 -8.712656 -65.764847
22.094421 -9.219307 -65.490868
33.295174 -12.096585 -60.024473
33.903784 -10.772284 -59.963238
34.059504 -12.680892 -59.177943
32.524504 -11.582088 -60.75533
33.295174 -12.096585 -60.024473
32.680223 -13.490696 -59.970034
31.780442 -10.882207 -61.512331
32.524504 -11.582088 -60.75533
31.115721 -12.435865 -61.35434
30.98661 -10.341874 -62.165781
31.780442 -10.882207 -61.512331
36.658178 -16.994692 -54.965953
36.585878 -14.89897 -55.807216
36.078484 -18.566009 -55.063406
36.658178 -16.994692 -54.965953
36.605574 -19.167271 -54.166678
37.13545 -32.704932 -46.640835
37.697134 -31.127908 -46.517908
36.67743 -32.395054 -47.594826
37.13545 -32.704932 -46.640835
36.252861 -31.935823 -48.542488
36.937858 -30.321916 -48.392929
36.67743 -32.395054 -47.594826
33.580467 -29.405127 -52.693569
34.178754 -29.957107 -51.927341
32.951259 -29.039998 -53.381382
33.752994 -27.414105 -53.478817
33.580467 -29.405127 -52.693569
32.228363 -28.470548 -54.130993
32.951259 -29.039998 -53.381382
31.536748 -27.907222 -54.844282
32.432172 -26.485652 -54.879919
32.228363 -28.470548 -54.130993
27.377161 -29.004241 -56.31309
28.189435 -29.627237 -55.767048
27.581909 -26.885464 -57.126475
27.377161 -29.004241 -56.31309
26.579697 -28.407996 -56.841248
23.726746 -10.05278 -64.91241
24.618023 -10.522751 -64.538384
23.110878 -11.397863 -64.483074
22.908071 -9.521655 -65.25151
23.726746 -10.05278 -64.91241
37.517662 -22.271638 -51.577956
37.573618 -20.297503 -52.335789
38.025782 -20.618199 -51.47552
23.058234 -30.010717 -57.000768
24.084269 -28.552529 -57.383493
22.269042 -29.335145 -57.356318
23.058234 -30.010717 -57.000768
21.498362 -28.472013 -57.793621
22.557558 -27.121356 -58.194315
22.269042 -29.335145 -57.356318
20.793071 -27.649534 -58.141801
21.498362 -28.472013 -57.793621
20.019809 -26.86776 -58.493891
21.013615 -25.47645 -58.983707
20.793071 -27.649534 -58.141801
19.270164 -25.842831 -58.875845
20.019809 -26.86776 -58.493891
19.571227 -23.744234 -59.708199
19.270164 -25.842831 -58.875845
34.487296 -9.233903 -59.934627
33.903784 -10.772284 -59.963238
30.118002 -9.916945 -62.807335
30.98661 -10.341874 -62.165781
30.118002 -9.916945 -62.807335
29.495579 -11.486028 -62.54306
27.198687 -11.816037 -63.344723
27.975108 -12.410141 -62.831604
26.504308 -13.298656 -62.984279
26.422049 -11.370937 -63.744125
27.198687 -11.816037 -63.344723
35.789854 -10.194872 -58.29195
36.39809 -10.835373 -57.350092
35.31077 -11.777652 -58.314644
35.147198 -9.773812 -59.094014
35.789854 -10.194872 -58.29195
36.042257 -14.296072 -56.687631
36.497047 -12.801611 -56.632166
36.585878 -14.89897 -55.807216
19.996836 -8.402012 -65.98127
19.227107 -8.49491 -65.955685
16.480494 -9.146938 -65.480454
16.651689 -7.392539 -66.231887
17.126984 -10.073549 -65.174809
16.480494 -9.146938 -65.480454
17.87117 -9.426597 -65.5103
17.705317 -11.011301 -64.833828
17.126984 -10.073549 -65.174809
18.647948 -8.980711 -65.737454
17.87117 -9.426597 -65.5103
18.069615 -8.042959 -66.078434
19.227107 -8.49491 -65.955685
19.028662 -9.878549 -65.387551
18.647948 -8.980711 -65.737454
18.317642 -20.032249 -61.145821
19.062818 -20.790948 -60.893124
18.497248 -17.994264 -61.98802
18.317642 -20.032249 -61.145821
18.632993 -16.263115 -62.70577
19.359282 -17.056957 -62.423398
18.497248 -17.994264 -61.98802
17.950883 -15.36193 -63.048925
17.312553 -14.312084 -63.413862
18.812916 -14.424624 -63.484302
18.632993 -16.263115 -62.70577
17.950883 -15.36193 -63.048925
37.917864 -29.145947 -47.265215
37.697134 -31.127908 -46.517908
37.917864 -29.145947 -47.265215
37.550199 -28.781473 -48.240929
37.44619 -24.220844 -50.769689
37.330263 -26.315576 -49.929142
36.994026 -23.900148 -51.629959
37.517662 -22.271638 -51.577956
37.44619 -24.220844 -50.769689
35.788368 -31.45043 -49.407541
36.252861 -31.935823 -48.542488
35.29088 -30.980382 -50.276727
34.74681 -30.528782 -51.071321
36.015802 -29.392635 -50.209778
35.788368 -31.45043 -49.407541
35.29088 -30.980382 -50.276727
30.601636 -29.375211 -54.722944
29.665465 -31.049343 -54.498291
30.805445 -27.390315 -55.47187
31.536748 -27.907222 -54.844282
30.601636 -29.375211 -54.722944
29.124852 -28.170006 -55.974424
28.934915 -30.315534 -55.143157
28.189435 -29.627237 -55.767048
24.367106 -26.382158 -58.203772
25.123137 -26.950198 -57.830253
24.084269 -28.552529 -57.383493
20.605849 -8.632355 -65.863445
21.361244 -8.712656 -65.764847
20.216835 -9.623093 -65.487957
19.996836 -8.402012 -65.98127
20.605849 -8.632355 -65.863445
3 1 17 16
3 1 19 17
3 2 61 62
3 2 63 65
3 63 21 64
3 63 64 65
3 66 25 67
3 68 27 69
3 70 69 25
3 68 69 70
3 71 30 72
3 73 72 28
3 71 72 73
3 74 32 75
3 76 75 30
3 74 75 76
3 3 77 78
3 3 79 81
3 79 33 80
3 79 80 81
3 5 82 83
3 6 84 86
3 86 85 18
3 84 85 86
3 6 87 89
3 87 35 88
3 87 88 89
3 90 36 91
3 7 37 20
3 7 38 37
3 92 39 93
3 95 94 39
3 96 41 97
3 98 40 99
3 100 99 41
3 98 99 100
3 9 101 103
3 103 102 22
3 101 102 103
3 9 104 106
3 104 43 105
3 104 105 106
3 10 107 109
3 107 44 108
3 107 108 109
3 10 45 44
3 10 46 45
3 11 47 23
3 11 48 47
3 110 49 111
3 12 50 24
3 12 51 50
3 12 52 51
3 13 53 26
3 13 54 53
3 4 55 34
3 14 56 29
3 14 57 56
3 14 58 57
3 8 59 31
3 8 42 59
3 15 112 113
3 15 114 116
3 114 60 115
3 114 115 116
3 16 117 119
3 119 118 5
3 117 118 119
3 17 120 122
3 122 121 16
3 120 121 122
3 17 123 124
3 17 125 127
3 125 18 126
3 125 126 127
3 19 18 17
3 19 6 18
3 128 20 129
3 21 130 132
3 130 20 131
3 130 131 132
3 21 7 20
3 133 22 134
3 135 22 136
3 137 9 138
3 139 138 22
3 137 138 139
3 140 10 141
3 142 23 143
3 144 143 10
3 142 143 144
3 145 23 146
3 147 11 148
3 149 148 23
3 147 148 149
3 150 24 151
3 25 152 154
3 152 24 153
3 152 153 154
3 25 12 24
3 25 26 12
3 27 26 25
3 27 13 26
3 28 29 4
3 30 29 28
3 30 14 29
3 30 31 14
3 32 31 30
3 32 8 31
3 33 155 156
3 33 157 159
3 157 15 158
3 157 158 159
3 160 2 161
3 160 161 162
3 163 34 164
3 165 34 166
3 167 4 168
3 169 168 34
3 167 168 169
3 170 4 171
3 172 28 173
3 174 173 4
3 172 173 174
3 175 28 176
3 178 177 28
3 180 179 5
3 18 181 182
3 184 183 18
3 35 185 186
3 35 187 189
3 187 3 188
3 187 188 189
3 36 190 191
3 36 192 194
3 192 5 193
3 192 193 194
3 20 195 197
3 195 36 196
3 195 196 197
3 37 36 20
3 37 5 36
3 37 16 5
3 38 16 37
3 38 1 16
3 198 0 199
3 39 200 201
3 39 202 203
3 39 204 206
3 204 40 205
3 204 205 206
3 207 40 208
3 209 208 39
3 207 208 209
3 210 0 211
3 212 211 40
3 210 211 212
3 213 32 214
3 215 32 216
3 217 8 218
3 219 218 32
3 217 218 219
3 41 220 221
3 41 222 224
3 222 8 223
3 222 223 224
3 41 42 8
3 40 42 41
3 40 0 42
3 22 225 226
3 228 227 22
3 43 229 230
3 43 231 233
3 231 2 232
3 231 232 233
3 234 9 235
3 44 236 237
3 44 238 240
3 238 9 239
3 238 239 240
3 44 43 9
3 45 43 44
3 45 2 43
3 45 21 2
3 46 21 45
3 46 7 21
3 23 46 10
3 47 46 23
3 47 7 46
3 47 38 7
3 48 38 47
3 48 1 38
3 49 241 242
3 49 243 245
3 243 11 244
3 243 244 245
3 24 246 248
3 246 49 247
3 246 247 248
3 50 49 24
3 50 11 49
3 50 48 11
3 51 48 50
3 51 1 48
3 51 19 1
3 52 19 51
3 52 6 19
3 26 52 12
3 53 52 26
3 53 6 52
3 53 35 6
3 54 35 53
3 54 3 35
3 34 249 251
3 249 27 250
3 249 250 251
3 55 27 34
3 55 13 27
3 29 55 4
3 56 55 29
3 56 13 55
3 56 54 13
3 57 54 56
3 57 3 54
3 57 33 3
3 58 33 57
3 58 15 33
3 31 58 14
3 59 58 31
3 59 15 58
3 59 60 15
3 42 60 59
3 42 0 60
3 60 252 253
3 60 254 256
3 254 0 255
3 254 255 256
