ply
format ascii 1.0
element vertex 326
property float x
property float y
property float z
element face 282
property list uchar int vertex_index
end_header
-28.936014 41.314075 3.626086
-24.155535 50.482342 8.094124
-26.425591 49.674435 -0.658565
-14.900738 50.609085 -18.703987
-29.697054 40.595901 -0.44292
-26.612892 48.291359 -4.367642
-24.005226 49.916138 -9.254821
-26.452698 45.914391 5.859587
-27.631802 45.342228 1.517394
-25.50458 50.243484 3.611285
-27.73843 41.407642 8.072361
-25.11393 45.642551 10.668223
-28.062462 44.55201 -2.274116
-18.484352 52.733833 -15.215091
-16.901487 55.529472 -17.816648
-30.199381 39.050781 2.443402
-30.44828 38.906101 0.384937
-29.352171 41.14138 1.548129
-25.26631 48.150692 7.095661
-25.937151 48.067276 4.798837
-24.843994 50.448486 5.832579
-26.427624 43.458801 9.355641
-25.659437 43.465202 11.763641
-26.998974 47.550243 0.350378
-27.903643 45.115089 -0.379935
-27.282681 47.016796 -1.520557
-26.359308 47.180099 -5.973026
-27.19458 45.48658 -4.917053
-23.115829 51.641792 -10.352625
-22.212532 49.746075 -11.19237
-21.321411 51.603271 -12.266465
-17.665735 54.014778 -16.437744
-23.093098 52.645287 9.22637
-23.814709 52.795536 6.779675
-22.816294 55.18512 7.641168
-15.591695 49.429035 -17.373459
-30.652462 38.283203 -1.453516
-25.901779 51.775833 -1.86593
-26.647421 49.029785 -2.607349
-26.026447 51.026672 -3.817936
-25.909678 50.141186 -5.466919
-25.524765 49.332127 -6.901182
-24.916788 47.998878 -8.239202
-24.736029 51.109875 -7.977771
-27.660791 43.598831 4.819582
-28.26549 43.284397 2.64076
-27.130276 45.592297 3.660641
-26.568998 47.805862 2.498044
-26.07976 49.911335 1.412946
-24.521191 52.764248 4.369358
-25.160248 52.407192 2.220769
-25.614714 52.116344 0.219674
-29.676773 39.284874 4.628934
-28.322136 41.54987 5.774459
-27.046551 43.659672 7.012438
-25.829002 45.789551 8.185566
-24.618593 48.048027 9.341578
-23.851524 48.015896 11.781384
-23.420366 50.282192 10.628726
-28.644497 43.034641 0.534596
-28.863029 42.559067 -1.354752
-27.371778 46.293793 -3.309386
-19.253963 51.145145 -14.083226
-17.372152 50.39817 -15.667619
-16.551231 51.795357 -16.964273
-15.870951 53.159771 -18.248013
-14.472042 49.433735 -19.020074
-14.79239 48.852602 -18.319636
-14.576831 51.146387 -19.405713
-14.472042 49.433735 -19.020074
-26.027969 42.248201 12.287812
-26.33486 42.415622 11.115911
-26.55089 45.7742 -6.209016
-26.088189 46.703819 -6.641056
-22.266653 51.506796 -11.302499
-22.664181 50.693933 -10.772498
-22.718302 52.454655 -10.882627
-21.821092 52.435394 -11.839547
-21.766972 50.674673 -11.729418
-22.266653 51.506796 -11.302499
-22.43078 55.130777 8.854302
-22.954696 53.915204 8.433769
-22.569183 53.860861 9.646903
-15.938574 48.758886 -16.76849
-15.466489 47.595669 -17.012163
-29.74854 40.264238 -1.379864
-30.226244 39.107889 -1.885162
-30.174758 39.439552 -0.948218
-25.73995 52.336759 -3.479629
-25.964113 51.401252 -2.841933
-25.677616 52.71134 -2.503627
-25.534938 51.248081 -6.024045
-25.67379 51.594179 -5.177013
-25.342481 50.843552 -6.741177
-25.717222 49.736656 -6.18405
-25.534938 51.248081 -6.024045
-24.948113 51.732426 -7.279471
-25.130397 50.221001 -7.439476
-25.342481 50.843552 -6.741177
-24.008854 54.018191 4.864165
-24.16795 52.779892 5.574516
-23.655613 54.033834 6.069323
-24.956518 53.594318 1.586007
-24.688503 53.721071 2.60948
-25.183751 53.448894 0.585459
-25.387481 52.261768 1.220222
-24.956518 53.594318 1.586007
-25.391035 53.277315 -0.482741
-25.183751 53.448894 0.585459
-30.062983 38.309467 5.073092
-30.352041 38.189911 3.976488
-28.41253 40.365213 7.474009
-28.063771 40.321922 8.709681
-28.030283 41.478756 6.92341
-28.704383 40.436327 6.325058
-28.41253 40.365213 7.474009
-23.24908 49.157944 12.380747
-23.508874 47.880902 12.987281
-23.033501 50.291092 11.804418
-23.635945 49.149044 11.205055
-23.24908 49.157944 12.380747
-22.853144 51.494387 11.123806
-23.033501 50.291092 11.804418
-28.454804 43.25486 -2.696197
-28.855087 42.258388 -2.236515
-28.462746 43.555538 -1.814434
-27.591556 44.64058 -4.458813
-27.416244 44.121178 -5.26901
-24.037026 48.276471 -9.294299
-24.492807 47.317841 -8.786489
-24.461007 48.957508 -8.747011
-18.869158 51.939489 -14.649158
-19.398604 52.890152 -14.370791
-19.013799 53.684496 -14.936724
-18.3054 50.84667 -14.895285
-18.690205 50.052326 -14.329352
-18.869158 51.939489 -14.649158
-17.928252 51.566001 -15.441355
-17.7493 49.678838 -15.121549
-18.3054 50.84667 -14.895285
-30.32383 38.978441 1.414169
-30.890778 37.94252 0.821852
-30.766329 38.01486 1.851084
-27.374357 41.386843 9.270271
-28.063771 40.321922 8.709681
-26.718954 42.412422 9.911911
-27.083027 42.433222 8.714001
-27.374357 41.386843 9.270271
-26.043531 43.462001 10.559641
-26.718954 42.412422 9.911911
-26.33486 42.415622 11.115911
-26.968526 44.927441 -5.68103
-26.776944 46.333339 -5.44504
-26.55089 45.7742 -6.209016
-27.416244 44.121178 -5.26901
-26.968526 44.927441 -5.68103
-23.132462 50.018433 -10.286771
-23.57716 49.155605 -9.737869
-23.560527 50.778965 -9.803723
-22.680813 49.070574 -10.706644
-23.132462 50.018433 -10.286771
-22.664181 50.693933 -10.772498
-22.180923 48.108938 -11.077651
-22.680813 49.070574 -10.706644
-21.663273 48.850708 -11.560692
-22.180923 48.108938 -11.077651
-21.217713 49.779306 -12.097739
-21.663273 48.850708 -11.560692
-21.766972 50.674673 -11.729418
-20.747432 50.646583 -12.62084
-21.217713 49.779306 -12.097739
-18.643521 54.536722 -15.571368
-19.013799 53.684496 -14.936724
-18.234213 55.177194 -16.182695
-18.075043 53.374305 -15.826417
-18.643521 54.536722 -15.571368
-17.821743 55.74749 -16.837395
-18.234213 55.177194 -16.182695
-17.439619 56.504837 -17.526848
-17.283611 54.772125 -17.127196
-17.821743 55.74749 -16.837395
-23.156405 55.228626 6.50007
-23.655613 54.033834 6.069323
-23.315501 53.990328 7.210422
-22.287155 56.432566 8.074889
-22.43078 55.130777 8.854302
-22.661811 56.501385 6.885193
-22.287155 56.432566 8.074889
-23.156405 55.228626 6.50007
-22.661811 56.501385 6.885193
-15.137868 48.262577 -17.654371
-15.466489 47.595669 -17.012163
-15.246216 50.01906 -18.038723
-14.79239 48.852602 -18.319636
-15.137868 48.262577 -17.654371
-30.974469 37.777706 -0.097885
-30.890778 37.94252 0.821852
-31.07656 37.466257 -1.017111
-30.974469 37.777706 -0.097885
-30.550371 38.594652 -0.53429
-31.098123 37.113979 -1.91281
-31.07656 37.466257 -1.017111
-30.604301 37.966383 -2.298048
-31.098123 37.113979 -1.91281
-30.604301 37.966383 -2.298048
-30.226244 39.107889 -1.885162
-25.732174 52.036923 -4.352521
-25.73995 52.336759 -3.479629
-25.968063 50.583929 -4.642428
-25.732174 52.036923 -4.352521
-25.67379 51.594179 -5.177013
-25.670918 47.779833 -7.105133
-26.088189 46.703819 -6.641056
-25.942037 48.256113 -6.437104
-25.220776 48.665503 -7.570192
-25.366929 47.113208 -7.774144
-25.670918 47.779833 -7.105133
-24.596753 52.633673 -7.919792
-24.948113 51.732426 -7.279471
-24.320208 51.990972 -8.590581
-24.596753 52.633673 -7.919792
-23.954807 51.394104 -9.229107
-24.370627 50.513007 -8.616296
-24.320208 51.990972 -8.590581
-23.510109 52.256931 -9.778008
-23.560527 50.778965 -9.803723
-23.954807 51.394104 -9.229107
-23.1289 53.245954 -10.364111
-23.510109 52.256931 -9.778008
-22.718302 52.454655 -10.882627
-23.1289 53.245954 -10.364111
-24.368975 53.899599 3.683775
-24.008854 54.018191 4.864165
-24.840719 52.58572 3.295064
-24.368975 53.899599 3.683775
-24.688503 53.721071 2.60948
-25.534568 53.107059 -1.525543
-25.758246 51.946089 -0.823128
-25.391035 53.277315 -0.482741
-25.677616 52.71134 -2.503627
-25.534568 53.107059 -1.525543
-30.613345 38.072865 2.883722
-30.766329 38.01486 1.851084
-31.180293 37.036943 2.291404
-29.938077 39.167828 3.536168
-30.613345 38.072865 2.883722
-30.352041 38.189911 3.976488
-29.381701 39.303829 5.752296
-30.062983 38.309467 5.073092
-28.999454 40.417372 5.201697
-29.381701 39.303829 5.752296
-28.704383 40.436327 6.325058
-25.319225 43.308445 13.001901
-26.027969 42.248201 12.287812
-25.012034 44.543408 12.391064
-25.319225 43.308445 13.001901
-24.73928 45.632082 11.843355
-25.386684 44.553877 11.215932
-25.012034 44.543408 12.391064
-24.108077 46.818754 12.399936
-23.508874 47.880902 12.987281
-24.482727 46.829223 11.224804
-24.73928 45.632082 11.843355
-24.108077 46.818754 12.399936
-22.689511 52.675934 10.422628
-23.256732 51.46374 9.927548
-22.853144 51.494387 11.123806
-22.569183 53.860861 9.646903
-22.689511 52.675934 10.422628
-29.331527 41.245821 -1.83578
-29.74854 40.264238 -1.379864
-29.280042 41.577484 -0.898836
-29.331527 41.245821 -1.83578
-28.855087 42.258388 -2.236515
-27.680155 45.044186 -3.654979
-27.283179 45.890186 -4.113219
-27.591556 44.64058 -4.458813
-28.025498 44.173294 -3.137344
-27.71712 45.422902 -2.791751
-27.680155 45.044186 -3.654979
-28.454804 43.25486 -2.696197
-28.025498 44.173294 -3.137344
-24.995525 46.443031 -8.347497
-25.366929 47.113208 -7.774144
-24.995525 46.443031 -8.347497
-24.492807 47.317841 -8.786489
-24.037026 48.276471 -9.294299
-23.57716 49.155605 -9.737869
-21.395086 53.355936 -12.464378
-21.821092 52.435394 -11.839547
-20.860992 52.45717 -12.872439
-21.395086 53.355936 -12.464378
-20.747432 50.646583 -12.62084
-20.860992 52.45717 -12.872439
-19.827267 52.228107 -13.780819
-19.398604 52.890152 -14.370791
-19.713707 50.41752 -13.529221
-19.827267 52.228107 -13.780819
-19.125284 49.337467 -13.800595
-19.713707 50.41752 -13.529221
-19.125284 49.337467 -13.800595
-18.690205 50.052326 -14.329352
-17.22836 48.553939 -15.327579
-17.7493 49.678838 -15.121549
-16.828802 49.243454 -15.91557
-17.22836 48.553939 -15.327579
-16.418342 49.942047 -16.563897
-16.828802 49.243454 -15.91557
-16.961692 51.096764 -16.315946
-16.071463 50.612196 -17.168866
-15.938574 48.758886 -16.76849
-16.418342 49.942047 -16.563897
-17.066958 57.266829 -18.263766
-17.439619 56.504837 -17.526848
-16.531422 56.093628 -18.497239
-17.066958 57.266829 -18.263766
-16.016154 54.908777 -18.712922
-16.386219 54.344622 -18.032331
-16.531422 56.093628 -18.497239
-15.511856 53.664831 -18.929326
-16.016154 54.908777 -18.712922
-15.02675 52.389488 -19.157313
-15.385845 51.884428 -18.476
-15.511856 53.664831 -18.929326
-14.576831 51.146387 -19.405713
-15.02675 52.389488 -19.157313
3 0 17 15
3 1 20 18
3 3 66 67
3 3 68 69
3 70 22 71
3 2 25 23
3 73 72 26
3 74 29 75
3 76 75 28
3 74 75 76
3 77 30 78
3 79 78 29
3 77 78 79
3 80 34 81
3 82 81 32
3 80 81 82
3 83 35 84
3 4 36 16
3 4 85 87
3 87 86 36
3 85 86 87
3 88 39 89
3 90 89 37
3 88 89 90
3 91 40 92
3 93 41 94
3 95 94 40
3 93 94 95
3 96 43 97
3 98 97 41
3 96 97 98
3 7 46 44
3 9 47 19
3 9 48 47
3 99 49 100
3 101 100 33
3 99 100 101
3 102 50 103
3 104 51 105
3 106 105 50
3 104 105 106
3 108 107 51
3 109 52 110
3 10 111 112
3 10 113 115
3 113 53 114
3 113 114 115
3 10 54 53
3 11 55 21
3 11 56 55
3 116 57 117
3 118 58 119
3 120 119 57
3 118 119 120
3 122 121 58
3 8 59 45
3 12 60 24
3 12 123 125
3 125 124 60
3 123 124 125
3 5 61 38
3 127 126 27
3 6 128 130
3 130 129 42
3 128 129 130
3 13 131 133
3 131 62 132
3 131 132 133
3 13 134 136
3 136 135 62
3 134 135 136
3 13 137 139
3 137 63 138
3 137 138 139
3 14 64 31
3 14 65 64
3 15 140 142
3 140 16 141
3 140 141 142
3 17 16 15
3 17 4 16
3 18 19 7
3 20 19 18
3 20 9 19
3 143 10 144
3 145 21 146
3 147 146 10
3 145 146 147
3 22 148 150
3 148 21 149
3 148 149 150
3 22 11 21
3 23 24 8
3 25 24 23
3 25 12 24
3 26 27 5
3 151 27 152
3 153 152 26
3 151 152 153
3 155 154 27
3 28 156 158
3 158 157 6
3 156 157 158
3 29 159 161
3 161 160 28
3 159 160 161
3 29 162 163
3 29 164 165
3 30 166 168
3 168 167 29
3 166 167 168
3 30 169 170
3 171 13 172
3 173 31 174
3 175 174 13
3 173 174 175
3 176 31 177
3 178 14 179
3 180 179 31
3 178 179 180
3 32 33 1
3 34 33 32
3 34 181 183
3 183 182 33
3 181 182 183
3 184 34 185
3 186 34 187
3 189 188 34
3 35 190 191
3 35 192 194
3 192 3 193
3 192 193 194
3 16 195 196
3 36 197 199
3 199 198 16
3 197 198 199
3 36 200 201
3 36 202 203
3 205 204 36
3 37 38 2
3 39 38 37
3 39 5 38
3 206 39 207
3 40 208 210
3 208 39 209
3 208 209 210
3 40 5 39
3 40 26 5
3 41 26 40
3 41 211 213
3 213 212 26
3 211 212 213
3 41 214 216
3 214 42 215
3 214 215 216
3 43 42 41
3 43 6 42
3 217 43 218
3 219 43 220
3 221 6 222
3 223 222 43
3 221 222 223
3 224 28 225
3 226 225 6
3 224 225 226
3 227 28 228
3 230 229 28
3 44 45 0
3 46 45 44
3 46 8 45
3 19 46 7
3 47 46 19
3 47 8 46
3 47 23 8
3 48 23 47
3 48 2 23
3 33 20 1
3 49 20 33
3 49 9 20
3 231 49 232
3 50 233 235
3 233 49 234
3 233 234 235
3 50 9 49
3 50 48 9
3 51 48 50
3 51 2 48
3 51 37 2
3 236 37 237
3 238 237 51
3 236 237 238
3 240 239 37
3 241 15 242
3 241 242 243
3 52 244 246
3 244 15 245
3 244 245 246
3 52 0 15
3 247 52 248
3 53 249 251
3 249 52 250
3 249 250 251
3 53 0 52
3 53 44 0
3 54 44 53
3 54 7 44
3 21 54 10
3 55 54 21
3 55 7 54
3 55 18 7
3 56 18 55
3 56 1 18
3 252 22 253
3 254 22 255
3 256 11 257
3 258 257 22
3 256 257 258
3 57 259 260
3 57 261 263
3 261 11 262
3 261 262 263
3 57 56 11
3 58 56 57
3 58 1 56
3 58 32 1
3 264 32 265
3 266 265 58
3 264 265 266
3 268 267 32
3 45 17 0
3 59 17 45
3 59 4 17
3 24 59 8
3 60 59 24
3 60 4 59
3 60 269 271
3 271 270 4
3 269 270 271
3 273 272 60
3 38 25 2
3 61 25 38
3 61 12 25
3 27 61 5
3 274 61 275
3 276 275 27
3 274 275 276
3 277 12 278
3 279 278 61
3 277 278 279
3 281 280 12
3 42 282 283
3 285 284 42
3 287 286 6
3 288 30 289
3 290 30 291
3 293 292 30
3 62 294 295
3 62 296 297
3 62 298 299
3 301 300 62
3 63 302 303
3 63 304 305
3 31 63 13
3 64 63 31
3 64 306 308
3 308 307 63
3 306 307 308
3 64 309 311
3 309 35 310
3 309 310 311
3 65 35 64
3 65 3 35
3 312 14 313
3 314 14 315
3 316 65 317
3 318 317 14
3 316 317 318
3 319 65 320
3 321 3 322
3 323 322 65
3 321 322 323
3 325 324 3
