ply
format ascii 1.0
element vertex 231
property float x
property float y
property float z
element face 210
property list uchar int vertex_index
end_header
27.726677 82.772102 27.465693
30.568661 79.642288 18.666004
32.941936 72.365532 10.272032
20.654341 91.345406 23.935469
31.322397 72.039345 21.430927
31.673914 76.602852 14.312936
32.336483 68.95459 17.239071
28.0429 87.978294 20.164181
29.601048 86.273933 15.777377
29.357176 81.699738 23.057699
25.985991 88.520096 24.172861
30.870945 83.606308 11.19802
32.09594 79.942139 7.022026
31.786015 70.769287 19.314226
27.907249 85.544609 23.742525
28.780554 84.945908 21.526844
28.605797 82.426186 25.228889
26.179287 91.117432 20.430824
24.913403 90.888199 22.560463
30.147425 83.055138 17.064205
30.227188 85.339157 13.247881
30.741886 81.673805 14.883754
32.260311 74.632767 12.354632
31.890514 78.426666 10.583602
32.544037 76.073418 8.778028
32.732857 77.826698 5.196697
33.203629 73.990273 6.787739
22.304773 92.597343 22.115948
23.444134 90.510246 24.232214
21.971952 89.772896 25.673441
31.005356 75.903992 19.869202
31.142365 77.974968 16.600548
31.518454 74.304588 17.861752
32.052788 72.600029 15.810389
32.632568 70.848091 13.696326
33.242649 68.567703 12.145799
32.957657 66.808472 15.299694
28.876999 87.34729 17.861406
29.530214 83.981392 19.369381
30.009823 80.643303 20.959986
29.231726 79.077095 26.580297
29.89826 78.310966 24.253931
30.484657 77.034615 22.204678
30.836662 73.514023 23.468794
27.27747 90.804192 18.418861
27.08707 88.373764 22.274601
26.916876 85.727203 25.917362
24.673443 88.321503 25.969114
25.821466 85.850945 27.563906
30.962044 85.484322 7.485457
31.295498 80.136314 12.838277
31.474987 81.909981 9.015697
31.636959 83.475601 5.331906
24.339786 92.015396 21.585175
25.013621 92.19273 20.639094
33.271949 71.257664 9.400585
33.402796 72.070034 7.658438
33.072783 73.177903 8.529885
20.8003 92.717064 22.185099
19.962766 92.12159 22.915956
21.479557 91.971374 23.025709
21.625516 93.343032 21.275339
20.8003 92.717064 22.185099
28.45995 87.662792 19.012794
28.528311 88.845867 17.036545
28.111261 89.161369 18.187933
29.142097 77.810944 28.247947
28.83656 79.428737 27.636023
28.746931 78.162586 29.303672
30.086185 76.627674 24.962265
29.812231 77.065757 25.996495
30.379383 75.989498 23.937638
30.191458 77.67279 23.229305
30.086185 76.627674 24.962265
30.555385 74.229202 24.569696
30.66066 75.274319 22.836736
30.379383 75.989498 23.937638
26.757939 92.217343 17.502692
27.266011 92.020401 16.534972
23.953683 88.004188 26.806942
24.058788 89.415875 25.100664
23.339028 89.09856 25.938492
25.648021 84.372151 29.351036
25.164762 85.70612 28.390651
26.264451 84.421001 28.462294
25.648021 84.372151 29.351036
29.627748 87.387592 13.83641
29.289085 87.955421 14.810916
30.607295 85.352184 10.367147
30.285417 86.218609 11.392077
30.549067 84.472733 12.22295
30.916494 84.545315 9.341738
30.652845 86.291191 8.510865
30.607295 85.352184 10.367147
32.185257 80.686375 5.236199
31.955767 82.453106 4.391139
31.86645 81.70887 6.176966
32.864951 78.34542 3.471122
33.096962 76.51213 4.366362
33.601814 67.537914 11.087426
33.423125 66.667534 12.787078
19.788376 90.640469 24.654364
19.962766 92.12159 22.915956
20.520004 89.905068 25.60132
19.788376 90.640469 24.654364
31.696908 69.610672 20.926017
31.554206 71.404316 20.372577
31.465098 70.245701 21.984367
31.939781 68.768692 19.94644
31.696908 69.610672 20.926017
32.215015 67.861344 18.908862
32.061249 69.861939 18.276649
31.939781 68.768692 19.94644
32.490158 67.083256 17.802915
32.215015 67.861344 18.908862
25.646563 92.307346 19.574275
26.208848 92.373963 18.508674
25.546345 91.002815 21.495643
25.646563 92.307346 19.574275
25.013621 92.19273 20.639094
33.332348 74.593918 5.161883
33.096962 76.51213 4.366362
32.968243 75.908485 5.992218
33.555111 72.71943 6.025716
33.332348 74.593918 5.161883
33.555111 72.71943 6.025716
33.402796 72.070034 7.658438
28.084036 81.276241 28.078721
27.626645 81.385742 29.168252
22.386082 93.834812 20.398244
21.625516 93.343032 21.275339
23.035471 92.869968 21.362917
22.386082 93.834812 20.398244
22.874454 91.553794 23.174081
23.605151 91.82642 22.42105
23.035471 92.869968 21.362917
22.602938 88.729885 26.659106
23.339028 89.09856 25.938492
22.708043 90.141571 24.952827
21.178809 89.118813 26.470306
21.313147 90.559151 24.804455
20.520004 89.905068 25.60132
21.86777 88.238594 27.40894
21.178809 89.118813 26.470306
22.602938 88.729885 26.659106
21.86777 88.238594 27.40894
33.280628 65.787918 14.364025
33.423125 66.667534 12.787078
33.100153 67.688087 13.722746
32.800745 66.010197 16.833227
32.64707 67.881531 16.269382
32.490158 67.083256 17.802915
33.099632 64.876814 16.020338
32.800745 66.010197 16.833227
33.280628 65.787918 14.364025
33.099632 64.876814 16.020338
28.92706 88.492099 15.85293
28.528311 88.845867 17.036545
29.239024 86.810611 16.819391
29.289085 87.955421 14.810916
28.92706 88.492099 15.85293
28.523596 81.103283 26.960318
28.166237 82.599144 26.347291
28.084036 81.276241 28.078721
28.918761 80.751641 25.904593
28.523596 81.103283 26.960318
28.83656 79.428737 27.636023
29.478964 77.448822 27.159678
29.142097 77.810944 28.247947
29.564993 78.69403 25.417114
29.478964 77.448822 27.159678
29.812231 77.065757 25.996495
30.743319 72.338333 25.197335
30.555385 74.229202 24.569696
30.986244 71.661248 24.120708
30.743319 72.338333 25.197335
31.229112 70.923908 23.101774
31.079529 72.776684 22.44986
30.986244 71.661248 24.120708
31.465098 70.245701 21.984367
31.229112 70.923908 23.101774
27.728547 90.574318 17.315273
27.266011 92.020401 16.534972
27.660185 89.391243 19.291521
28.111261 89.161369 18.187933
27.728547 90.574318 17.315273
26.728378 90.960812 19.424843
26.757939 92.217343 17.502692
26.208848 92.373963 18.508674
24.178768 90.699222 23.396338
24.339786 92.015396 21.585175
23.605151 91.82642 22.42105
24.59075 86.941399 27.593255
23.953683 88.004188 26.806942
25.247454 87.086224 26.76651
24.59075 86.941399 27.593255
25.164762 85.70612 28.390651
26.812156 84.35913 27.639023
26.369171 85.789074 26.740634
26.264451 84.421001 28.462294
27.217056 82.88158 28.413188
27.321776 84.249652 26.691527
26.812156 84.35913 27.639023
27.626645 81.385742 29.168252
27.217056 82.88158 28.413188
29.940818 86.920204 12.571662
29.627748 87.387592 13.83641
29.914118 85.806545 14.512629
29.940818 86.920204 12.571662
30.285417 86.218609 11.392077
30.715835 87.092422 6.576108
30.652845 86.291191 8.510865
31.05781 86.149579 5.520919
30.715835 87.092422 6.576108
31.395268 85.145218 4.444144
31.05781 86.149579 5.520919
31.299501 84.479962 6.408682
31.73431 84.108207 3.447058
31.395268 85.145218 4.444144
31.73431 84.108207 3.447058
31.955767 82.453106 4.391139
32.503715 79.628654 4.323535
32.185257 80.686375 5.236199
32.414399 78.884418 6.109362
32.503715 79.628654 4.323535
32.864951 78.34542 3.471122
33.422306 69.358749 10.337468
33.271949 71.257664 9.400585
33.092292 70.466617 11.208915
33.422306 69.358749 10.337468
33.601814 67.537914 11.087426
3 0 16 14
3 53 18 54
3 1 21 19
3 2 24 22
3 2 26 24
3 2 55 57
3 57 56 26
3 55 56 57
3 3 58 59
3 3 60 62
3 60 27 61
3 60 61 62
3 3 29 27
3 4 32 30
3 6 33 13
3 6 34 33
3 6 36 34
3 7 63 65
3 63 37 64
3 63 64 65
3 9 38 15
3 9 39 38
3 66 40 67
3 66 67 68
3 69 41 70
3 71 42 72
3 73 72 41
3 71 72 73
3 74 43 75
3 76 75 42
3 74 75 76
3 77 44 78
3 10 45 17
3 10 46 45
3 79 47 80
3 81 80 28
3 79 80 81
3 82 48 83
3 85 84 48
3 8 86 87
3 11 88 90
3 90 89 20
3 88 89 90
3 11 91 93
3 91 49 92
3 91 92 93
3 5 50 31
3 12 51 23
3 12 52 51
3 12 94 96
3 96 95 52
3 94 95 96
3 98 97 25
3 100 99 35
3 101 3 102
3 104 103 3
3 105 13 106
3 107 106 4
3 105 106 107
3 108 13 109
3 110 6 111
3 112 111 13
3 110 111 112
3 114 113 6
3 14 15 7
3 16 15 14
3 16 9 15
3 115 17 116
3 18 117 119
3 117 17 118
3 117 118 119
3 18 10 17
3 19 20 8
3 21 20 19
3 21 11 20
3 22 23 5
3 24 23 22
3 24 12 23
3 24 25 12
3 26 25 24
3 26 120 122
3 122 121 25
3 120 121 122
3 26 123 124
3 126 125 26
3 128 127 0
3 27 129 130
3 27 131 132
3 27 133 135
3 133 28 134
3 133 134 135
3 29 28 27
3 29 136 138
3 138 137 28
3 136 137 138
3 139 29 140
3 141 140 3
3 139 140 141
3 142 29 143
3 145 144 29
3 30 31 1
3 32 31 30
3 32 5 31
3 13 32 4
3 33 32 13
3 33 5 32
3 33 22 5
3 34 22 33
3 34 2 22
3 34 35 2
3 36 35 34
3 36 146 148
3 148 147 35
3 146 147 148
3 149 36 150
3 151 150 6
3 149 150 151
3 152 36 153
3 155 154 36
3 37 156 157
3 37 158 160
3 158 8 159
3 158 159 160
3 15 37 7
3 38 37 15
3 38 8 37
3 38 19 8
3 39 19 38
3 39 1 19
3 161 16 162
3 163 162 0
3 161 162 163
3 40 164 166
3 164 16 165
3 164 165 166
3 40 9 16
3 167 40 168
3 41 169 171
3 169 40 170
3 169 170 171
3 41 9 40
3 41 39 9
3 42 39 41
3 42 1 39
3 42 30 1
3 43 30 42
3 43 4 30
3 172 43 173
3 174 43 175
3 176 4 177
3 178 177 43
3 176 177 178
3 180 179 4
3 44 181 182
3 44 183 185
3 183 7 184
3 183 184 185
3 17 186 188
3 186 44 187
3 186 187 188
3 45 44 17
3 45 7 44
3 45 14 7
3 46 14 45
3 46 0 14
3 28 189 191
3 189 18 190
3 189 190 191
3 47 18 28
3 47 10 18
3 192 47 193
3 48 194 196
3 194 47 195
3 194 195 196
3 48 10 47
3 48 46 10
3 197 46 198
3 199 198 48
3 197 198 199
3 200 0 201
3 202 201 46
3 200 201 202
3 204 203 0
3 20 205 207
3 207 206 8
3 205 206 207
3 209 208 20
3 49 210 211
3 49 212 213
3 31 21 1
3 50 21 31
3 50 11 21
3 23 50 5
3 51 50 23
3 51 11 50
3 51 49 11
3 52 49 51
3 52 214 216
3 216 215 49
3 214 215 216
3 52 217 218
3 220 219 52
3 25 221 223
3 223 222 12
3 221 222 223
3 225 224 25
3 35 226 228
3 228 227 2
3 226 227 228
3 230 229 35
