ply
format ascii 1.0
element vertex 177
property float x
property float y
property float z
element face 164
property list uchar int vertex_index
end_header
-8.736671 93.161316 -27.075119
-14.229426 88.202614 -16.397032
-10.268914 90.251869 -6.762197
-11.625905 91.296135 -21.892733
-15.447488 86.149582 -20.582376
-12.888869 88.368561 -25.769384
-7.972806 94.286812 -12.374844
-7.272789 95.689697 -22.750813
-12.149324 85.521606 -1.226156
-12.406383 89.59362 -11.75801
-10.015993 93.122688 -17.214546
-9.512152 91.356277 -28.906168
-10.221039 92.374077 -24.534462
-12.314219 89.958305 -23.974653
-10.992281 90.791183 -26.385466
-15.059965 86.722534 -13.672577
-15.899633 85.7901 -15.988153
-9.292903 90.098412 -4.08612
-11.291151 87.947632 -4.019037
-13.192331 85.623749 -3.823788
-12.376511 87.809937 -6.44909
-13.346812 87.592995 -8.863025
-11.366384 89.959152 -9.116126
-6.742817 95.921799 -15.074112
-9.080788 93.735703 -14.842319
-7.642972 95.438034 -17.782761
-8.752362 94.484741 -20.031054
-13.005133 89.847382 -19.110861
-14.8115 87.427322 -18.72315
-13.62375 88.808495 -21.337885
-14.156043 87.475716 -23.24012
-8.184419 92.319946 -6.741756
-9.305774 92.222504 -9.509598
-7.085246 94.338135 -9.583746
-16.46632 84.826553 -17.974806
-7.845289 94.711861 -25.117792
-14.229665 87.305679 -11.434115
-13.271132 89.146286 -14.324279
-10.285757 91.943306 -11.97864
-11.221808 91.511009 -14.537437
-12.174157 90.764694 -16.807575
-10.907909 92.284859 -19.553406
-9.512635 93.565521 -22.413719
-7.939992 93.41457 -28.322016
-8.327732 92.512051 -29.237541
-9.124412 92.258797 -27.990644
-6.404718 96.507809 -17.860782
-7.192894 95.679916 -16.428437
-5.954641 96.749691 -16.506457
-6.929845 96.105148 -19.121032
-6.404718 96.507809 -17.860782
-13.725136 87.139072 -25.332964
-14.358722 86.69265 -24.068333
-13.522456 87.922139 -24.504752
-13.079929 87.535923 -26.522002
-13.725136 87.139072 -25.332964
-7.037088 93.404469 -6.832276
-7.642311 92.31736 -5.515336
-6.49498 93.401882 -5.605856
-6.487502 94.413563 -8.253272
-7.634832 93.32904 -8.162751
-7.037088 93.404469 -6.832276
-6.435815 96.180542 -24.099545
-6.722065 95.691624 -25.283035
-7.559039 95.200779 -23.934303
-11.533798 85.51022 0.031531
-11.18685 86.653877 -1.309427
-12.463964 84.37698 0.050956
-11.533798 85.51022 0.031531
-13.014284 84.38826 -1.152003
-12.463964 84.37698 0.050956
-14.063188 84.377647 -3.639893
-13.727716 85.485523 -4.977168
-8.643545 91.586772 -30.133063
-9.705369 90.432224 -29.815202
-8.643545 91.586772 -30.133063
-8.327732 92.512051 -29.237541
-11.178428 90.030342 -27.290729
-12.126722 88.819031 -26.982688
-11.940575 89.579872 -26.077425
-10.438364 90.312889 -28.55108
-11.178428 90.030342 -27.290729
-10.252216 91.07373 -27.645817
-9.705369 90.432224 -29.815202
-10.438364 90.312889 -28.55108
-15.90877 85.41793 -13.491988
-15.551399 85.712066 -12.368502
-16.328605 84.951713 -14.649776
-15.90877 85.41793 -13.491988
-15.479799 86.256317 -14.830365
-16.688613 84.432724 -15.721522
-16.328605 84.951713 -14.649776
-16.163361 84.893246 -20.219698
-15.613888 85.50779 -21.493636
-5.950395 96.787846 -22.964446
-6.744753 96.23098 -21.605058
-9.75864 88.94228 -2.739409
-8.692471 90.129387 -2.918651
-10.757763 87.86689 -2.705868
-9.75864 88.94228 -2.739409
-10.292027 89.023022 -4.052579
-11.720237 86.734619 -2.622597
-11.18685 86.653877 -1.309427
-10.757763 87.86689 -2.705868
-13.319806 86.578618 -6.289819
-13.727716 85.485523 -4.977168
-12.784421 86.716843 -5.136439
-12.861662 87.701466 -7.656058
-13.804956 86.470146 -7.496787
-13.319806 86.578618 -6.289819
-7.48454 95.628502 -20.245179
-8.197667 94.961388 -18.906908
-6.929845 96.105148 -19.121032
-6.744753 96.23098 -21.605058
-8.012576 95.087219 -21.390934
-7.48454 95.628502 -20.245179
-14.968166 86.170856 -22.822508
-15.613888 85.50779 -21.493636
-14.801766 86.812649 -21.911248
-14.968166 86.170856 -22.822508
-14.358722 86.69265 -24.068333
-13.079929 87.535923 -26.522002
-12.126722 88.819031 -26.982688
-8.196553 91.206593 -4.187518
-8.692471 90.129387 -2.918651
-8.738661 91.209179 -5.413938
-8.196553 91.206593 -4.187518
-7.642311 92.31736 -5.515336
-5.839987 95.425648 -9.622598
-6.487502 94.413563 -8.253272
-6.319385 95.380593 -10.972181
-5.839987 95.425648 -9.622598
-6.763165 95.354931 -12.36773
-7.529026 94.312473 -10.979295
-6.319385 95.380593 -10.972181
-6.14817 96.172425 -13.717364
-7.357812 95.104305 -13.724478
-6.763165 95.354931 -12.36773
-5.495023 96.98119 -15.184772
-6.14817 96.172425 -13.717364
-4.900377 97.231816 -13.828024
-5.954641 96.749691 -16.506457
-5.495023 96.98119 -15.184772
-16.971956 83.950951 -16.714848
-16.688613 84.432724 -15.721522
-16.182976 85.308326 -16.981479
-16.672777 84.231731 -18.915914
-15.956904 85.488067 -19.278591
-16.163361 84.893246 -20.219698
-17.147816 83.512638 -17.703418
-16.672777 84.231731 -18.915914
-16.971956 83.950951 -16.714848
-17.147816 83.512638 -17.703418
-7.054015 95.05616 -26.390121
-7.499706 94.280888 -27.368784
-8.29098 93.936588 -26.096456
-7.054015 95.05616 -26.390121
-6.722065 95.691624 -25.283035
-6.435815 96.180542 -24.099545
-5.950395 96.787846 -22.964446
-13.535788 84.439331 -2.450819
-13.014284 84.38826 -1.152003
-12.670827 85.572677 -2.524972
-13.535788 84.439331 -2.450819
-14.063188 84.377647 -3.639893
-14.282559 86.351269 -8.787727
-13.804956 86.470146 -7.496787
-14.723986 86.207611 -10.073272
-14.282559 86.351269 -8.787727
-13.788239 87.449337 -10.14857
-15.136249 86.003639 -11.24927
-14.723986 86.207611 -10.073272
-14.644815 87.014106 -12.553346
-15.551399 85.712066 -12.368502
-15.136249 86.003639 -11.24927
-7.939992 93.41457 -28.322016
-7.499706 94.280888 -27.368784
3 0 43 45
3 45 44 11
3 43 44 45
3 0 14 12
3 0 11 14
3 1 16 15
3 2 18 17
3 2 20 18
3 2 22 20
3 46 25 47
3 48 47 23
3 46 47 48
3 50 49 25
3 3 29 27
3 5 30 13
3 5 51 53
3 53 52 30
3 51 52 53
3 5 54 55
3 56 31 57
3 56 57 58
3 59 33 60
3 61 60 31
3 59 60 61
3 4 34 28
3 7 62 64
3 64 63 35
3 62 63 64
3 8 65 66
3 8 67 68
3 8 69 70
3 72 71 19
3 9 36 21
3 9 37 36
3 6 38 32
3 10 39 24
3 10 40 39
3 10 41 40
3 7 42 26
3 7 35 42
3 11 73 74
3 76 75 11
3 12 13 3
3 14 13 12
3 14 5 13
3 14 77 79
3 79 78 5
3 77 78 79
3 11 80 82
3 82 81 14
3 80 81 82
3 11 83 84
3 15 85 86
3 16 87 89
3 89 88 15
3 87 88 89
3 16 90 91
3 93 92 4
3 95 94 7
3 17 96 97
3 18 98 100
3 100 99 17
3 98 99 100
3 18 101 103
3 101 8 102
3 101 102 103
3 18 19 8
3 20 19 18
3 20 104 106
3 106 105 19
3 104 105 106
3 20 107 109
3 107 21 108
3 107 108 109
3 22 21 20
3 22 9 21
3 23 24 6
3 25 24 23
3 25 10 24
3 25 26 10
3 110 26 111
3 112 111 25
3 110 111 112
3 113 7 114
3 115 114 26
3 113 114 115
3 27 28 1
3 29 28 27
3 29 4 28
3 13 29 3
3 30 29 13
3 30 4 29
3 30 116 118
3 118 117 4
3 116 117 118
3 120 119 30
3 122 121 5
3 123 17 124
3 31 125 127
3 125 17 126
3 125 126 127
3 31 2 17
3 31 32 2
3 33 32 31
3 33 6 32
3 128 33 129
3 130 33 131
3 132 6 133
3 134 133 33
3 132 133 134
3 135 23 136
3 137 136 6
3 135 136 137
3 138 23 139
3 138 139 140
3 142 141 23
3 28 16 1
3 34 16 28
3 34 143 145
3 145 144 16
3 143 144 145
3 146 34 147
3 148 147 4
3 146 147 148
3 149 34 150
3 152 151 34
3 35 153 155
3 155 154 0
3 153 154 155
3 157 156 35
3 159 158 7
3 19 160 162
3 162 161 8
3 160 161 162
3 164 163 19
3 21 165 166
3 36 167 169
3 169 168 21
3 167 168 169
3 36 170 171
3 36 172 174
3 172 15 173
3 172 173 174
3 37 15 36
3 37 1 15
3 32 22 2
3 38 22 32
3 38 9 22
3 24 38 6
3 39 38 24
3 39 9 38
3 39 37 9
3 40 37 39
3 40 1 37
3 40 27 1
3 41 27 40
3 41 3 27
3 26 41 10
3 42 41 26
3 42 3 41
3 42 12 3
3 35 12 42
3 35 0 12
3 176 175 0
