ply
format ascii 1.0
element vertex 252
property float x
property float y
property float z
element face 238
property list uchar int vertex_index
end_header
27.88249 -51.488163 22.418795
27.991325 -43.630466 28.398256
23.212395 -51.254776 29.970528
23.197321 -59.401428 24.048048
18.126045 -58.624001 31.275383
27.288977 -54.820549 18.849569
28.139803 -47.829815 25.601604
30.451252 -43.981354 24.729631
20.770905 -54.844223 30.765022
17.80966 -53.871979 33.632565
25.806728 -51.576477 26.547266
25.587397 -55.478523 23.300623
23.345854 -55.58173 27.326441
20.845013 -59.351677 27.882378
25.533951 -47.577583 29.195492
25.053951 -59.045673 19.555435
28.736103 -51.106037 20.307314
28.395607 -52.712029 18.426554
27.6353 -53.113667 20.742941
28.022287 -49.738937 24.110643
29.158621 -47.864262 23.603479
28.931231 -49.606709 22.058039
27.623068 -55.663651 14.324915
28.867073 -39.716473 29.249926
29.095768 -41.897575 28.013504
31.55162 -42.071121 24.358192
24.573675 -51.517998 28.306849
24.586147 -53.523724 26.998264
23.334412 -53.486816 28.70915
19.478399 -56.761757 31.048695
20.814457 -57.08815 29.509375
19.56311 -58.977528 29.657728
15.185054 -54.721371 35.259453
24.328186 -49.4198 29.633873
25.716864 -49.590343 27.96027
24.383457 -57.546837 23.648479
25.388813 -57.158466 21.572193
24.202528 -59.302673 21.81023
28.030106 -54.223434 16.378128
26.928076 -56.419529 16.792324
28.112953 -45.715042 27.106838
29.325998 -43.837234 26.620304
29.335163 -45.865108 25.133512
30.291964 -45.954132 23.130699
22.017981 -53.131981 30.335102
20.610395 -52.647427 31.828341
19.28747 -54.408382 32.279411
18.039581 -56.272331 32.534748
30.485895 -41.918144 26.211342
26.951611 -51.568302 24.5194
26.768702 -53.356003 22.963686
25.787264 -53.541862 24.936985
24.583097 -55.511524 25.365265
23.385437 -57.470081 25.689859
22.114717 -55.373871 29.057556
22.119587 -57.541473 27.585403
22.063883 -59.532684 25.971697
16.616579 -55.550232 33.935825
16.687353 -57.902451 32.86277
26.724962 -45.623184 28.830517
26.981249 -47.681412 27.432142
26.90333 -49.831223 26.103701
26.508072 -55.135277 21.217255
26.155546 -56.940891 19.312677
27.373486 -56.436268 13.345757
27.090233 -56.779243 14.508995
28.543546 -42.764021 28.20588
28.38637 -41.762402 28.80722
27.834149 -42.628847 28.999595
18.211741 -59.647856 30.529147
18.930273 -59.824619 29.720319
18.844577 -58.800764 30.466555
23.770291 -50.337288 29.802201
23.579887 -49.238497 30.407919
23.021991 -50.155985 30.576247
30.164348 -46.839005 22.324792
29.725293 -46.909197 23.367089
29.597676 -47.794069 22.561182
30.753728 -45.822874 22.060279
30.164348 -46.839005 22.324792
20.459994 -51.526606 32.306849
21.191093 -51.76084 31.645955
18.548565 -54.14018 32.955988
19.199815 -53.260332 32.739996
18.46091 -52.992131 33.416573
29.482115 -38.850407 29.013679
29.563766 -39.889709 28.421818
31.585115 -41.080549 25.053727
32.116365 -41.189279 24.050379
20.853214 -60.356335 26.980829
21.462649 -60.446838 26.025488
21.454448 -59.442181 26.927037
15.96155 -56.261807 34.135038
15.900817 -55.135801 34.597639
15.245787 -55.847376 34.796852
15.996937 -57.437916 33.598511
16.651966 -56.726342 33.399298
15.96155 -56.261807 34.135038
25.450831 -46.430088 29.748421
24.824659 -47.35972 29.964284
26.129456 -46.600383 29.013005
26.046337 -45.452889 29.565933
25.450831 -46.430088 29.748421
25.442209 -58.81335 18.378388
25.993006 -57.760959 18.25701
25.604748 -57.993282 19.434056
28.565855 -51.909033 19.366934
28.904474 -51.749117 18.198578
29.074722 -50.946121 19.138958
29.483981 -48.665293 21.788462
29.597676 -47.794069 22.561182
29.044926 -48.735485 22.830759
29.358515 -49.408394 20.951737
29.483981 -48.665293 21.788462
29.260951 -50.158058 20.076374
29.358515 -49.408394 20.951737
28.833667 -50.356373 21.182676
29.074722 -50.946121 19.138958
29.260951 -50.158058 20.076374
17.672967 -52.669381 34.069555
18.46091 -52.992131 33.416573
27.855313 -55.395001 13.096428
28.108 -54.669211 14.057615
27.855313 -55.395001 13.096428
27.373486 -56.436268 13.345757
28.272023 -40.671851 29.42543
28.109534 -39.538149 29.977566
28.98142 -40.807024 28.631715
28.272023 -40.671851 29.42543
28.38637 -41.762402 28.80722
29.678114 -40.98026 27.803607
29.563766 -39.889709 28.421818
28.98142 -40.807024 28.631715
31.487412 -43.04261 23.523657
31.001436 -43.026238 24.543912
30.937227 -43.997726 23.709376
32.005425 -42.151302 23.306016
31.487412 -43.04261 23.523657
32.116365 -41.189279 24.050379
32.005425 -42.151302 23.306016
19.55564 -60.113165 28.804978
20.196592 -60.30024 27.917303
20.204062 -59.164603 28.770053
18.922803 -60.960256 28.86757
19.55564 -60.113165 28.804978
18.930273 -59.824619 29.720319
14.444795 -54.361294 35.889938
15.012659 -53.552894 35.702427
14.526142 -55.499775 35.453871
14.444795 -54.361294 35.889938
15.245787 -55.847376 34.796852
14.526142 -55.499775 35.453871
24.221777 -48.280828 30.183475
23.579887 -49.238497 30.407919
24.931068 -48.498691 29.414683
24.824659 -47.35972 29.964284
24.221777 -48.280828 30.183475
28.702307 -52.503672 17.159084
28.904474 -51.749117 18.198578
28.519557 -53.259374 16.134871
28.702307 -52.503672 17.159084
28.212857 -53.467731 17.402341
28.311519 -53.949102 15.084221
28.519557 -53.259374 16.134871
27.826587 -54.943542 15.351522
28.108 -54.669211 14.057615
28.311519 -53.949102 15.084221
26.742737 -57.157182 15.7427
27.090233 -56.779243 14.508995
27.275572 -56.04159 15.55862
30.857584 -44.984116 22.90991
30.937227 -43.997726 23.709376
30.371608 -44.967743 23.930165
30.857584 -44.984116 22.90991
30.753728 -45.822874 22.060279
21.894886 -52.003117 30.899335
22.615188 -52.193379 30.152815
22.492093 -51.064514 30.717048
21.314188 -52.889704 31.081722
21.894886 -52.003117 30.899335
21.191093 -51.76084 31.645955
19.861277 -52.379855 32.514461
20.459994 -51.526606 32.306849
19.948932 -53.527905 32.053876
19.861277 -52.379855 32.514461
19.199815 -53.260332 32.739996
22.492093 -51.064514 30.717048
23.021991 -50.155985 30.576247
23.135808 -60.352343 22.973853
22.631236 -60.350464 24.077008
28.745382 -38.669889 29.767197
28.109534 -39.538149 29.977566
28.745382 -38.669889 29.767197
29.482115 -38.850407 29.013679
30.373177 -40.990545 26.902526
29.678114 -40.98026 27.803607
29.790831 -41.90786 27.112423
31.052253 -41.00406 25.980302
31.018757 -41.994632 25.284767
31.585115 -41.080549 25.053727
30.373177 -40.990545 26.902526
31.052253 -41.00406 25.980302
22.064517 -60.416092 25.038832
22.631236 -60.350464 24.077008
22.630602 -59.467056 25.009873
22.064517 -60.416092 25.038832
21.462649 -60.446838 26.025488
20.853214 -60.356335 26.980829
20.196592 -60.30024 27.917303
17.058681 -53.484394 34.289866
17.672967 -52.669381 34.069555
15.746378 -53.90909 35.10331
15.012659 -53.552894 35.702427
16.46214 -54.323521 34.441496
15.746378 -53.90909 35.10331
15.900817 -55.135801 34.597639
17.21312 -54.711106 33.784195
17.058681 -53.484394 34.289866
16.46214 -54.323521 34.441496
15.99742 -58.617216 33.027107
15.996937 -57.437916 33.598511
16.742722 -59.058887 32.167625
15.99742 -58.617216 33.027107
17.462069 -59.419663 31.373931
17.406699 -58.263226 32.069077
16.742722 -59.058887 32.167625
18.211741 -59.647856 30.529147
17.462069 -59.419663 31.373931
27.260291 -43.553154 29.164451
27.834149 -42.628847 28.999595
26.62711 -44.549513 29.380581
26.046337 -45.452889 29.565933
27.358144 -44.626825 28.614387
27.260291 -43.553154 29.164451
26.62711 -44.549513 29.380581
26.379272 -57.500279 16.996833
26.541811 -56.68021 18.052501
25.993006 -57.760959 18.25701
26.742737 -57.157182 15.7427
26.379272 -57.500279 16.996833
23.638412 -60.302965 21.854944
23.699925 -59.352051 22.929139
23.135808 -60.352343 22.973853
24.072522 -60.204104 20.767983
23.638412 -60.302965 21.854944
24.498234 -60.075603 19.640585
24.628239 -59.174173 20.682832
24.072522 -60.204104 20.767983
24.910389 -59.875477 18.438607
24.498234 -60.075603 19.640585
25.442209 -58.81335 18.378388
24.910389 -59.875477 18.438607
3 0 18 16
3 0 21 19
3 0 16 21
3 65 64 22
3 1 66 68
3 66 24 67
3 66 67 68
3 2 28 26
3 4 31 29
3 4 69 71
3 71 70 31
3 69 70 71
3 2 72 74
3 72 33 73
3 72 73 74
3 2 26 33
3 3 37 35
3 5 38 17
3 5 39 38
3 6 42 40
3 75 43 76
3 77 76 20
3 75 76 77
3 79 78 43
3 80 45 81
3 9 82 84
3 82 46 83
3 82 83 84
3 9 47 46
3 86 85 23
3 7 48 41
3 88 87 25
3 10 51 49
3 12 52 27
3 12 53 52
3 8 54 44
3 13 55 30
3 13 56 55
3 13 89 91
3 91 90 56
3 89 90 91
3 92 57 93
3 94 93 32
3 92 93 94
3 95 58 96
3 97 96 57
3 95 96 97
3 14 98 99
3 14 100 102
3 100 59 101
3 100 101 102
3 14 60 59
3 10 61 34
3 10 49 61
3 11 62 50
3 15 63 36
3 15 103 105
3 105 104 63
3 103 104 105
3 16 106 108
3 106 17 107
3 106 107 108
3 18 17 16
3 18 5 17
3 19 20 6
3 21 20 19
3 21 109 111
3 111 110 20
3 109 110 111
3 21 112 113
3 16 114 116
3 116 115 21
3 114 115 116
3 16 117 118
3 119 9 120
3 22 121 122
3 124 123 22
3 125 23 126
3 24 127 129
3 127 23 128
3 127 128 129
3 24 130 132
3 132 131 23
3 130 131 132
3 133 25 134
3 135 134 7
3 133 134 135
3 136 25 137
3 139 138 25
3 26 27 10
3 28 27 26
3 28 12 27
3 29 30 8
3 31 30 29
3 31 13 30
3 31 140 142
3 142 141 13
3 140 141 142
3 145 144 31
3 143 144 145
3 146 32 147
3 148 32 149
3 151 150 32
3 33 152 153
3 33 154 156
3 154 14 155
3 154 155 156
3 33 34 14
3 26 34 33
3 26 10 34
3 35 36 11
3 37 36 35
3 37 15 36
3 17 157 158
3 38 159 161
3 161 160 17
3 159 160 161
3 38 162 163
3 38 164 166
3 164 22 165
3 164 165 166
3 39 22 38
3 39 167 169
3 169 168 22
3 167 168 169
3 40 41 1
3 42 41 40
3 42 7 41
3 20 42 6
3 43 42 20
3 43 7 42
3 43 170 172
3 172 171 7
3 170 171 172
3 174 173 43
3 175 44 176
3 177 176 2
3 175 176 177
3 45 178 180
3 178 44 179
3 178 179 180
3 45 8 44
3 181 45 182
3 46 183 185
3 183 45 184
3 183 184 185
3 46 8 45
3 46 29 8
3 47 29 46
3 47 4 29
3 186 2 187
3 189 188 3
3 23 190 191
3 193 192 23
3 41 24 1
3 48 24 41
3 48 194 196
3 196 195 24
3 194 195 196
3 25 48 7
3 197 48 198
3 199 198 25
3 197 198 199
3 201 200 48
3 49 50 0
3 51 50 49
3 51 11 50
3 27 51 10
3 52 51 27
3 52 11 51
3 52 35 11
3 53 35 52
3 53 3 35
3 44 28 2
3 54 28 44
3 54 12 28
3 30 54 8
3 55 54 30
3 55 12 54
3 55 53 12
3 56 53 55
3 56 3 53
3 56 202 204
3 204 203 3
3 202 203 204
3 206 205 56
3 208 207 13
3 209 9 210
3 32 211 212
3 57 213 215
3 215 214 32
3 213 214 215
3 57 216 218
3 216 9 217
3 216 217 218
3 57 47 9
3 58 47 57
3 58 4 47
3 219 58 220
3 221 58 222
3 223 4 224
3 225 224 58
3 223 224 225
3 227 226 4
3 228 1 229
3 59 230 231
3 59 232 234
3 232 1 233
3 232 233 234
3 59 40 1
3 60 40 59
3 60 6 40
3 34 60 14
3 61 60 34
3 61 6 60
3 61 19 6
3 49 19 61
3 49 0 19
3 50 18 0
3 62 18 50
3 62 5 18
3 36 62 11
3 63 62 36
3 63 5 62
3 63 39 5
3 235 39 236
3 237 236 63
3 235 236 237
3 239 238 39
3 240 37 241
3 242 241 3
3 240 241 242
3 243 37 244
3 245 15 246
3 247 246 37
3 245 246 247
3 248 15 249
3 251 250 15
