ply
format ascii 1.0
element vertex 333
property float x
property float y
property float z
element face 303
property list uchar int vertex_index
end_header
6.13366 10.670652 54.367931
-3.988358 19.262455 59.16106
3.04009 20.13328 54.270176
-2.160407 14.761455 59.258282
9.84403 11.034431 51.377651
11.004788 6.98488 51.178875
7.417706 6.46936 54.219276
4.721301 15.21207 54.383179
6.448107 20.350037 51.871113
8.302398 15.477412 51.669163
12.860421 -0.151283 50.881336
-2.58442 24.635038 56.45322
2.532931 10.450878 57.039978
1.047362 25.134327 54.009514
-0.489683 19.630272 56.744293
1.237124 15.013751 56.864571
11.982138 3.259226 51.03326
4.555984 25.392708 51.715321
8.021297 25.562544 49.286308
-4.720716 12.441401 61.59726
8.054029 10.842321 52.859711
8.620498 8.774754 52.822678
6.865528 8.596045 54.237732
5.513698 12.827404 54.359257
6.50794 15.195205 53.090836
7.306422 12.974748 52.987164
9.043322 13.14187 51.592609
13.334541 -1.646889 50.687092
-5.587479 18.883804 60.322208
-6.67472 21.130592 60.293083
-4.884426 21.622459 58.97282
-4.281374 24.515156 57.579773
-3.184853 21.839407 57.799046
-1.431888 22.153894 56.563175
-2.242031 19.677607 57.884296
-1.503992 12.539631 59.378033
-0.464276 14.847416 58.075809
0.285477 12.644273 58.112507
1.977898 12.703503 56.916378
9.762389 4.79783 52.638477
10.204387 2.961864 52.609566
2.065128 22.661921 54.162971
2.807128 25.189001 52.895023
3.854556 22.610937 53.01836
8.299732 20.451485 50.484024
7.260913 22.968525 50.582298
9.127663 22.98551 49.186043
9.779223 25.537964 47.961353
-4.696967 16.689779 60.414177
-2.974003 17.148968 59.136131
-3.800994 14.625568 60.406582
-3.181301 12.420965 60.560341
10.497473 9.091067 51.212978
9.246928 6.829669 52.685032
3.878817 17.450211 54.422558
4.777459 20.087601 53.110611
5.77906 17.715494 53.020485
7.456973 17.829502 51.765972
9.239302 17.818665 50.398331
-8.50364 20.647169 61.608444
-1.841409 27.432341 54.973907
4.320924 10.540874 55.734314
5.05117 8.449192 55.637547
-0.149673 27.532938 53.904953
-0.785509 24.855049 55.244301
0.240474 22.496778 55.379841
1.270827 20.009336 55.473175
-1.310059 17.244328 57.992607
0.381594 17.298538 56.83852
2.105186 17.485886 55.624798
2.907349 15.022202 55.70673
3.771334 12.723847 55.642471
12.474393 1.621573 50.909618
5.51517 22.891148 51.826546
6.269057 25.389326 50.576469
10.513288 28.207781 46.55928
-0.282892 11.520922 58.772472
-0.609258 12.591952 58.74527
-1.177626 11.468601 59.405236
0.555271 11.523667 58.186003
-0.282892 11.520922 58.772472
9.286943 2.833954 53.381874
9.983388 3.879847 52.624021
9.065945 3.751937 53.39633
9.559709 1.891087 53.328795
9.286943 2.833954 53.381874
9.571943 21.694292 49.170835
8.713698 21.718498 49.835033
9.157978 20.42728 49.819826
10.020951 23.066045 48.447773
9.571943 21.694292 49.170835
-5.064305 15.606842 60.96575
-5.516457 16.577973 60.979706
-4.616319 14.574737 60.961952
-4.248981 15.657674 60.41038
-5.064305 15.606842 60.96575
-3.7101 11.469587 61.147161
-3.951009 12.431183 61.0788
-4.479807 11.479805 61.665621
-2.88192 11.428172 60.591189
-3.7101 11.469587 61.147161
10.170751 10.062749 51.295315
11.052881 10.172399 50.522228
10.72616 11.144081 50.604564
7.697447 5.554728 54.167833
8.612058 5.734882 53.400711
8.332317 6.649515 53.452154
9.187694 15.486067 50.959095
9.656146 16.656693 50.323679
8.77085 16.648038 51.033747
10.366912 12.144035 50.710608
9.966558 13.197754 50.818087
9.443676 12.088151 51.48513
10.72616 11.144081 50.604564
10.366912 12.144035 50.710608
13.758389 0.130474 50.016891
13.540486 0.890719 50.079961
14.215976 -1.396147 49.841688
13.490609 -2.442435 50.649327
-7.931432 19.571658 61.592484
-8.826307 19.332218 62.219972
-7.231825 22.375526 60.226535
-6.340638 22.565182 59.585781
-3.110955 26.02749 56.276641
-3.959431 25.967548 56.839918
-3.432897 24.575097 57.016497
-2.212915 26.03369 55.713563
-2.739449 27.426141 55.536985
-3.110955 26.02749 56.276641
2.909584 9.394196 56.996645
3.80358 9.439194 56.343813
3.426927 10.495876 56.387146
11.855251 7.101875 50.40485
11.608833 8.135442 50.430126
12.575633 4.316612 50.300075
11.786991 4.191456 51.027111
12.866376 3.484971 50.199466
12.575633 4.316612 50.300075
12.228265 2.440399 50.971439
13.112503 2.666145 50.137646
12.866376 3.484971 50.199466
5.329871 7.428753 55.629159
4.400974 7.300396 56.344421
1.327597 26.51014 53.365368
0.729079 27.709445 53.313087
0.448844 26.333633 53.957234
3.938778 26.66563 51.688772
3.06435 26.563777 52.278624
3.681556 25.290855 52.305172
4.855795 26.798915 51.068495
3.938778 26.66563 51.688772
7.49256 26.842415 49.265282
6.61644 26.755806 49.910362
7.145177 25.475935 49.931388
8.384189 26.868133 48.616251
7.49256 26.842415 49.265282
11.079809 26.901929 46.482325
10.146255 26.872872 47.260317
10.712777 25.56702 47.183361
11.405282 28.205404 45.794761
11.079809 26.901929 46.482325
-5.441047 12.369445 62.091202
-5.07618 13.482653 61.557291
-5.180378 11.533632 62.122898
-5.441047 12.369445 62.091202
-4.479807 11.479805 61.665621
-5.180378 11.533632 62.122898
12.373962 -1.879011 51.563728
13.097481 -0.899086 50.784214
12.136902 -1.131208 51.66085
12.636415 -2.623728 51.430868
12.373962 -1.879011 51.563728
13.490609 -2.442435 50.649327
12.636415 -2.623728 51.430868
-6.131099 20.007198 60.307646
-7.016972 19.81337 60.934803
-6.473351 18.689976 60.949365
-5.445492 22.811116 58.925649
-6.340638 22.565182 59.585781
-5.779573 21.376525 59.632952
-4.5829 23.068807 58.276297
-5.143966 24.257465 58.229126
-5.445492 22.811116 58.925649
1.995404 9.333353 57.665152
1.678999 10.426969 57.649738
1.401482 11.553282 57.587938
1.131687 12.673888 57.514443
0.555271 11.523667 58.186003
1.678999 10.426969 57.649738
2.255415 11.577191 56.978178
1.401482 11.553282 57.587938
10.677117 4.960757 51.829719
11.298316 6.054283 51.099919
10.383589 5.891355 51.908676
10.898115 4.042775 51.815264
10.677117 4.960757 51.829719
9.983388 3.879847 52.624021
11.093263 3.110545 51.821413
11.786991 4.191456 51.027111
10.898115 4.042775 51.815264
10.45694 2.095359 52.554436
11.345816 2.244041 51.766283
11.093263 3.110545 51.821413
10.45694 2.095359 52.554436
9.559709 1.891087 53.328795
10.346732 24.342272 47.835428
9.453443 24.261737 48.573698
10.020951 23.066045 48.447773
10.712777 25.56702 47.183361
10.346732 24.342272 47.835428
-5.961714 17.674985 60.933722
-6.473351 18.689976 60.949365
-5.142223 17.786791 60.368193
-5.961714 17.674985 60.933722
-5.516457 16.577973 60.979706
-4.260855 13.533485 61.001921
-4.616319 14.574737 60.961952
-5.07618 13.482653 61.557291
-2.043266 11.487505 60.000034
-2.342646 12.480298 59.969187
-2.88192 11.428172 60.591189
-1.177626 11.468601 59.405236
-2.043266 11.487505 60.000034
11.355176 9.188536 50.447177
11.052881 10.172399 50.522228
10.75113 8.037973 51.195926
11.608833 8.135442 50.430126
11.355176 9.188536 50.447177
8.869789 4.718962 53.377434
9.504659 5.81375 52.661755
8.612058 5.734882 53.400711
9.065945 3.751937 53.39633
8.869789 4.718962 53.377434
9.627762 19.110869 49.776979
9.157978 20.42728 49.819826
8.769517 19.135075 50.441177
10.120887 17.961371 49.643742
9.627762 19.110869 49.776979
10.120887 17.961371 49.643742
9.656146 16.656693 50.323679
9.558156 14.318296 50.920818
9.187694 15.486067 50.959095
8.67286 14.309641 51.630886
9.558156 14.318296 50.920818
9.966558 13.197754 50.818087
13.995449 -0.617329 49.91977
13.758389 0.130474 50.016891
13.097481 -0.899086 50.784214
13.995449 -0.617329 49.91977
14.215976 -1.396147 49.841688
-9.37786 20.365102 62.231589
-8.826307 19.332218 62.219972
-9.050658 21.758879 61.582016
-9.37786 20.365102 62.231589
-7.58918 20.88888 60.950764
-7.931432 19.571658 61.592484
-7.016972 19.81337 60.934803
-8.146285 22.133815 60.884216
-7.58918 20.88888 60.950764
-7.231825 22.375526 60.226535
-9.050658 21.758879 61.582016
-8.146285 22.133815 60.884216
-4.823978 25.725322 57.484257
-5.143966 24.257465 58.229126
-4.823978 25.725322 57.484257
-3.959431 25.967548 56.839918
-2.46377 28.773224 54.847488
-2.739449 27.426141 55.536985
-1.564966 28.846245 54.272085
-2.46377 28.773224 54.847488
4.168703 8.393353 56.295429
4.686047 9.495033 55.68593
3.80358 9.439194 56.343813
4.400974 7.300396 56.344421
4.168703 8.393353 56.295429
2.909584 9.394196 56.996645
1.995404 9.333353 57.665152
-0.995541 27.48264 54.43943
-0.719098 28.896543 53.737608
-1.564966 28.846245 54.272085
11.855251 7.101875 50.40485
11.298316 6.054283 51.099919
13.347472 1.777147 50.094103
13.112503 2.666145 50.137646
12.667407 0.735145 50.895477
13.540486 0.890719 50.079961
13.347472 1.777147 50.094103
11.591943 1.425214 51.704462
12.228265 2.440399 50.971439
11.345816 2.244041 51.766283
11.825239 0.623826 51.644409
11.591943 1.425214 51.704462
12.018253 -0.262601 51.630268
12.667407 0.735145 50.895477
11.825239 0.623826 51.644409
12.136902 -1.131208 51.66085
12.018253 -0.262601 51.630268
6.237051 7.50218 54.929251
5.958349 8.522619 54.93764
5.329871 7.428753 55.629159
6.513139 6.438837 54.920023
7.141617 7.532703 54.228504
6.237051 7.50218 54.929251
6.766502 5.380102 54.924244
6.513139 6.438837 54.920023
7.697447 5.554728 54.167833
6.766502 5.380102 54.924244
0.158558 28.941324 53.201317
-0.719098 28.896543 53.737608
0.158558 28.941324 53.201317
0.729079 27.709445 53.313087
2.20748 26.537477 52.808122
1.327597 26.51014 53.365368
1.927245 25.161664 53.452269
2.20748 26.537477 52.808122
3.06435 26.563777 52.278624
5.712331 26.797224 50.499069
4.855795 26.798915 51.068495
5.41252 25.391017 51.145895
5.712331 26.797224 50.499069
6.61644 26.755806 49.910362
9.263152 26.855843 47.953773
8.384189 26.868133 48.616251
8.90026 25.550254 48.62383
9.630184 28.190751 47.252737
9.263152 26.855843 47.953773
10.146255 26.872872 47.260317
9.961211 29.609025 46.527166
9.630184 28.190751 47.252737
10.860024 29.477319 45.842602
9.961211 29.609025 46.527166
10.860024 29.477319 45.842602
11.405282 28.205404 45.794761
3 0 22 20
3 0 25 23
3 0 20 25
3 1 30 28
3 1 32 30
3 1 34 32
3 76 37 77
3 78 77 35
3 76 77 78
3 80 79 37
3 81 40 82
3 83 82 39
3 81 82 83
3 85 84 40
3 2 43 41
3 86 46 87
3 88 87 44
3 86 87 88
3 90 89 46
3 91 48 92
3 93 50 94
3 95 94 48
3 93 94 95
3 96 51 97
3 98 97 19
3 96 97 98
3 100 99 51
3 4 101 103
3 101 52 102
3 101 102 103
3 6 53 21
3 6 104 106
3 106 105 53
3 104 105 106
3 7 56 54
3 9 57 24
3 9 58 57
3 9 107 109
3 109 108 58
3 107 108 109
3 4 110 112
3 112 111 26
3 110 111 112
3 4 113 114
3 10 115 116
3 118 117 27
3 119 59 120
3 122 121 29
3 11 123 125
3 125 124 31
3 123 124 125
3 11 126 128
3 126 60 127
3 126 127 128
3 12 129 131
3 131 130 61
3 129 130 131
3 11 64 60
3 14 65 33
3 14 66 65
3 3 67 49
3 15 68 36
3 15 69 68
3 15 70 69
3 12 71 38
3 12 61 71
3 5 132 133
3 16 134 135
3 16 136 137
3 16 138 140
3 138 72 139
3 138 139 140
3 142 141 62
3 13 143 145
3 145 144 63
3 143 144 145
3 17 146 148
3 148 147 42
3 146 147 148
3 17 149 150
3 8 73 55
3 18 74 45
3 18 151 153
3 153 152 74
3 151 152 153
3 18 154 155
3 156 75 157
3 158 157 47
3 156 157 158
3 160 159 75
3 161 19 162
3 163 19 164
3 166 165 19
3 20 21 4
3 22 21 20
3 22 6 21
3 23 24 7
3 25 24 23
3 25 9 24
3 25 26 9
3 20 26 25
3 20 4 26
3 167 27 168
3 169 168 10
3 167 168 169
3 170 27 171
3 173 172 27
3 28 174 176
3 174 29 175
3 174 175 176
3 30 29 28
3 30 177 179
3 179 178 29
3 177 178 179
3 30 180 182
3 180 31 181
3 180 181 182
3 32 31 30
3 32 11 31
3 184 183 12
3 32 33 11
3 34 33 32
3 34 14 33
3 35 36 3
3 37 36 35
3 37 15 36
3 37 38 15
3 185 38 186
3 187 186 37
3 185 186 187
3 188 12 189
3 190 189 38
3 188 189 190
3 39 191 193
3 193 192 5
3 191 192 193
3 40 194 196
3 196 195 39
3 194 195 196
3 40 197 199
3 197 16 198
3 197 198 199
3 40 200 202
3 202 201 16
3 200 201 202
3 204 203 40
3 41 42 13
3 43 42 41
3 43 17 42
3 44 45 8
3 46 45 44
3 46 18 45
3 46 47 18
3 205 47 206
3 207 206 46
3 205 206 207
3 209 208 47
3 210 28 211
3 48 212 214
3 212 28 213
3 212 213 214
3 48 1 28
3 48 49 1
3 50 49 48
3 50 3 49
3 19 215 217
3 215 50 216
3 215 216 217
3 51 50 19
3 51 3 50
3 51 35 3
3 218 35 219
3 220 219 51
3 218 219 220
3 222 221 35
3 52 223 224
3 52 225 227
3 225 5 226
3 225 226 227
3 21 52 4
3 53 52 21
3 53 5 52
3 53 39 5
3 228 39 229
3 230 229 53
3 228 229 230
3 232 231 39
3 54 55 2
3 56 55 54
3 56 8 55
3 24 56 7
3 57 56 24
3 57 8 56
3 57 44 8
3 58 44 57
3 58 233 235
3 235 234 44
3 233 234 235
3 58 236 237
3 239 238 58
3 26 240 242
3 242 241 9
3 240 241 242
3 244 243 26
3 27 245 247
3 247 246 10
3 245 246 247
3 249 248 27
3 59 250 251
3 59 252 253
3 29 254 256
3 254 59 255
3 254 255 256
3 257 59 258
3 259 258 29
3 257 258 259
3 261 260 59
3 31 262 263
3 265 264 31
3 60 266 267
3 60 268 269
3 61 62 0
3 270 62 271
3 272 271 61
3 270 271 272
3 274 273 62
3 276 275 12
3 60 277 279
3 277 63 278
3 277 278 279
3 64 63 60
3 64 13 63
3 33 64 11
3 65 64 33
3 65 13 64
3 65 41 13
3 66 41 65
3 66 2 41
3 49 34 1
3 67 34 49
3 67 14 34
3 36 67 3
3 68 67 36
3 68 14 67
3 68 66 14
3 69 66 68
3 69 2 66
3 69 54 2
3 70 54 69
3 70 7 54
3 38 70 15
3 71 70 38
3 71 7 70
3 71 23 7
3 61 23 71
3 61 0 23
3 281 280 5
3 72 282 283
3 72 284 286
3 284 10 285
3 284 285 286
3 287 72 288
3 289 288 16
3 287 288 289
3 290 72 291
3 292 10 293
3 294 293 72
3 292 293 294
3 296 295 10
3 62 22 0
3 297 22 298
3 299 298 62
3 297 298 299
3 300 6 301
3 302 301 22
3 300 301 302
3 303 6 304
3 306 305 6
3 63 307 308
3 310 309 63
3 42 311 313
3 313 312 13
3 311 312 313
3 315 314 42
3 55 43 2
3 73 43 55
3 73 17 43
3 45 73 8
3 74 73 45
3 74 17 73
3 74 316 318
3 318 317 17
3 316 317 318
3 320 319 74
3 47 321 323
3 323 322 18
3 321 322 323
3 75 324 326
3 326 325 47
3 324 325 326
3 75 327 328
3 75 329 330
3 332 331 75
