ply
format ascii 1.0
element vertex 246
property float x
property float y
property float z
element face 248
property list uchar int vertex_index
end_header
-33.306313 -9.364587 -17.582508
-33.58823 -22.330196 -3.590874
-28.060505 -15.014726 -5.002098
-32.72282 -16.633415 -10.516335
-25.355312 -11.220985 -5.651246
-27.160284 -12.492417 -7.710477
-32.194401 -20.815424 -1.008101
-35.459194 -23.48773 -6.696714
-32.805031 -13.106665 -13.954384
-35.318722 -16.671288 -14.001791
-35.707573 -12.916404 -17.619143
-30.158056 -9.834822 -13.978119
-30.812309 -18.581591 -4.287061
-32.872047 -19.579983 -7.132265
-30.063107 -16.036192 -7.439783
-29.922323 -13.096654 -10.700305
-35.201199 -20.23472 -10.35909
-24.883627 -10.114203 -6.858728
-34.80254 -9.082504 -19.455158
-33.61327 -7.367009 -19.472324
-32.767895 -21.5753 -2.219809
-33.434166 -22.597359 -0.550148
-34.132977 -23.577951 -1.74174
-34.850517 -24.275349 -3.217216
-34.489079 -22.908453 -5.162865
-33.092033 -11.312638 -15.78287
-34.350739 -12.987918 -15.854262
-34.573784 -11.072628 -17.649786
-27.294889 -14.181767 -3.994235
-28.605587 -15.990408 -3.578274
-30.027065 -17.896887 -3.043045
-29.474602 -16.872272 -4.60043
-30.424276 -17.465658 -5.795598
-28.979826 -15.657684 -6.055332
-27.077518 -11.224742 -9.183144
-28.440969 -12.884582 -9.098914
-28.410307 -11.416012 -10.639634
-29.944756 -11.505733 -12.265027
-32.794415 -18.246538 -8.792809
-34.138119 -20.119362 -8.661911
-33.9958 -18.431499 -10.394508
-36.49958 -16.58993 -15.819702
-36.426765 -18.496611 -14.087229
-26.675222 -13.142764 -5.32043
-27.541313 -13.801698 -6.346776
-26.205534 -12.018412 -6.589809
-25.781744 -10.664065 -7.907405
-32.804501 -14.993234 -12.24991
-34.097847 -16.71431 -12.276604
-34.128178 -14.860917 -14.007213
-35.400234 -14.73401 -15.758708
-36.698257 -14.759229 -17.581413
-31.672213 -9.634058 -15.678158
-32.055058 -7.690702 -17.637512
-30.763941 -18.851509 -1.605537
-31.410206 -19.715874 -2.653603
-32.21941 -20.420969 -3.945745
-33.17865 -20.97859 -5.449702
-31.782515 -19.164618 -5.607641
-31.500349 -17.857418 -7.213361
-31.395626 -16.406349 -8.955166
-28.619158 -14.259866 -7.617728
-29.920029 -14.549645 -9.12968
-31.348402 -14.77298 -10.691243
-31.403131 -13.151731 -12.335534
-31.501995 -11.396059 -14.014988
-32.435505 -5.764461 -19.542454
-34.216236 -21.525171 -6.877334
-35.223919 -21.813181 -8.525756
-36.247345 -22.13755 -10.18881
-35.294289 -18.549601 -12.235342
-36.305725 -20.33189 -12.181386
-27.687667 -10.501169 -10.711542
-27.743913 -11.320377 -9.911389
-27.021273 -10.405534 -9.983297
-28.493706 -10.635583 -11.480593
-27.687667 -10.501169 -10.711542
-37.007418 -17.647602 -15.8161
-37.04281 -16.633445 -16.678283
-25.668326 -11.730419 -5.024735
-25.346909 -11.200563 -4.611817
-25.033895 -10.691128 -5.238328
-26.015267 -12.181874 -5.485838
-26.32828 -12.691309 -4.859327
-25.668326 -11.730419 -5.024735
-25.172837 -9.748465 -8.069733
-25.332686 -10.389134 -7.383066
-24.723779 -9.473534 -7.545395
-25.761992 -10.056289 -8.637967
-25.172837 -9.748465 -8.069733
-32.550524 -21.175798 -0.200297
-32.23539 -20.583071 0.228439
-31.879267 -20.222698 -0.579364
-34.406416 -23.981664 0.659002
-33.827648 -23.078973 0.373081
-34.012934 -23.50005 -0.264227
-35.943579 -24.451964 -6.522293
-35.555666 -24.204193 -5.724184
-35.870645 -23.614715 -7.521612
-35.943579 -24.451964 -6.522293
-36.318741 -12.872492 -18.506583
-36.814083 -13.793905 -18.487718
-36.202915 -13.837816 -17.600278
-30.267095 -8.850271 -14.914985
-31.024174 -8.749889 -15.765004
-30.915135 -9.73444 -14.828138
-30.063244 -17.890662 -1.887933
-30.499326 -18.288353 -1.183423
-31.560936 -5.884612 -18.603806
-32.245282 -6.727581 -18.589983
-31.370713 -6.847732 -17.651336
-36.81712 -20.417696 -13.060334
-36.366245 -19.414251 -13.134308
-36.87764 -19.500056 -14.013256
-36.758549 -21.288756 -12.138431
-36.81712 -20.417696 -13.060334
-24.745603 -10.240224 -5.808061
-25.033895 -10.691128 -5.238328
-24.50976 -9.686833 -6.411802
-25.11947 -10.667594 -6.254987
-24.745603 -10.240224 -5.808061
-24.278274 -9.145776 -7.000737
-24.50976 -9.686833 -6.411802
-23.904407 -8.718406 -6.55381
-24.723779 -9.473534 -7.545395
-24.278274 -9.145776 -7.000737
-34.928168 -8.107338 -20.34321
-35.520197 -9.000128 -20.396507
-34.333533 -7.249591 -20.351793
-34.928168 -8.107338 -20.34321
-34.207905 -8.224756 -19.463741
-33.795302 -6.422844 -20.398646
-34.333533 -7.249591 -20.351793
-34.362339 -23.990346 -0.860023
-34.012934 -23.50005 -0.264227
-33.783571 -23.087655 -1.145944
-34.696806 -24.501008 -1.519101
-34.362339 -23.990346 -0.860023
-35.055576 -24.849707 -2.256839
-34.696806 -24.501008 -1.519101
-34.491747 -23.92665 -2.479478
-35.394182 -25.24812 -3.020069
-35.055576 -24.849707 -2.256839
-35.251328 -24.598002 -3.984436
-35.394182 -25.24812 -3.020069
-35.070608 -23.914555 -4.95726
-35.251328 -24.598002 -3.984436
-34.669798 -23.591901 -4.190041
-34.974137 -23.198092 -5.92979
-35.555666 -24.204193 -5.724184
-35.070608 -23.914555 -4.95726
-35.271675 -11.006143 -18.562093
-35.838569 -11.928031 -18.546771
-35.140678 -11.994516 -17.634464
-35.386053 -10.011081 -19.464779
-35.271675 -11.006143 -18.562093
-34.688162 -10.077566 -18.552472
-35.520197 -9.000128 -20.396507
-35.386053 -10.011081 -19.464779
-29.487128 -8.968271 -14.048426
-29.36758 -9.844988 -13.149835
-27.676839 -14.628419 -3.318073
-27.034085 -13.663089 -3.573359
-28.332187 -15.532739 -3.110092
-27.676839 -14.628419 -3.318073
-27.950238 -15.086088 -3.786255
-28.984067 -16.460112 -2.874302
-28.332187 -15.532739 -3.110092
-29.316326 -16.943648 -3.310659
-29.694806 -17.413351 -2.606687
-28.984067 -16.460112 -2.874302
-29.260931 -10.680443 -12.293289
-29.177532 -11.460873 -11.45233
-28.493706 -10.635583 -11.480593
-29.36758 -9.844988 -13.149835
-30.051406 -10.670278 -13.121573
-29.260931 -10.680443 -12.293289
-36.97101 -18.600942 -14.949863
-36.463172 -17.54327 -14.953466
-37.007418 -17.647602 -15.8161
-36.87764 -19.500056 -14.013256
-36.97101 -18.600942 -14.949863
-26.638114 -13.210811 -4.19623
-27.034085 -13.663089 -3.573359
-26.985056 -13.662266 -4.657332
-26.638114 -13.210811 -4.19623
-26.32828 -12.691309 -4.859327
-26.409879 -10.336628 -9.275837
-26.429631 -10.944403 -8.545274
-25.761992 -10.056289 -8.637967
-27.021273 -10.405534 -9.983297
-26.409879 -10.336628 -9.275837
-33.170406 -22.066765 0.028679
-32.550524 -21.175798 -0.200297
-32.814284 -21.706392 -0.779124
-33.170406 -22.066765 0.028679
-33.827648 -23.078973 0.373081
-37.142148 -15.718094 -17.559138
-37.04281 -16.633445 -16.678283
-36.598918 -15.67458 -16.700558
-37.250725 -14.716219 -18.499797
-37.142148 -15.718094 -17.559138
-37.366551 -13.750895 -19.406102
-37.250725 -14.716219 -18.499797
-36.814083 -13.793905 -18.487718
-36.318741 -12.872492 -18.506583
-35.838569 -11.928031 -18.546771
-31.215597 -7.778211 -16.744681
-31.863636 -8.66238 -16.657835
-31.024174 -8.749889 -15.765004
-31.370713 -6.847732 -17.651336
-31.215597 -7.778211 -16.744681
-30.267095 -8.850271 -14.914985
-29.487128 -8.968271 -14.048426
-31.164037 -19.24074 -0.878082
-30.499326 -18.288353 -1.183423
-31.479171 -19.833467 -1.306819
-31.879267 -20.222698 -0.579364
-31.164037 -19.24074 -0.878082
-30.395503 -18.374198 -2.324291
-30.063244 -17.890662 -1.887933
-29.694806 -17.413351 -2.606687
-33.206419 -5.62157 -20.433711
-33.795302 -6.422844 -20.398646
-33.024388 -6.565735 -19.507389
-31.756935 -4.959238 -19.533954
-31.560936 -5.884612 -18.603806
-32.611515 -4.792575 -20.485838
-31.756935 -4.959238 -19.533954
-31.932945 -3.987352 -20.477338
-33.382429 -4.649684 -21.377095
-33.206419 -5.62157 -20.433711
-32.611515 -4.792575 -20.485838
-35.753008 -22.777441 -8.436134
-35.870645 -23.614715 -7.521612
-35.341556 -22.650455 -7.611235
-36.264721 -22.939625 -9.26766
-35.753008 -22.777441 -8.436134
-35.735632 -21.975366 -9.357283
-36.706381 -23.105332 -10.14623
-36.264721 -22.939625 -9.26766
-36.729359 -22.191586 -11.142143
-36.276535 -21.23472 -11.185098
-36.758549 -21.288756 -12.138431
-36.706381 -23.105332 -10.14623
-36.729359 -22.191586 -11.142143
3 0 19 18
3 1 22 20
3 1 23 22
3 1 24 23
3 0 27 25
3 0 18 27
3 2 29 28
3 2 31 29
3 2 33 31
3 72 36 73
3 74 73 34
3 72 73 74
3 76 75 36
3 3 40 38
3 78 77 41
3 4 79 81
3 79 80 81
3 4 82 84
3 82 43 83
3 82 83 84
3 4 45 43
3 85 46 86
3 87 86 17
3 85 86 87
3 89 88 46
3 6 90 92
3 90 91 92
3 95 94 21
3 93 94 95
3 7 96 97
3 7 98 99
3 8 49 47
3 10 50 26
3 10 51 50
3 10 100 102
3 102 101 51
3 100 101 102
3 11 103 105
3 105 104 52
3 103 104 105
3 106 54 107
3 12 55 30
3 12 56 55
3 12 58 56
3 14 59 32
3 14 60 59
3 5 61 44
3 15 62 35
3 15 63 62
3 15 64 63
3 11 65 37
3 11 52 65
3 108 66 109
3 110 109 53
3 108 109 110
3 13 67 57
3 16 68 39
3 16 69 68
3 9 70 48
3 111 71 112
3 113 112 42
3 111 112 113
3 115 114 71
3 116 4 117
3 118 17 119
3 120 119 4
3 118 119 120
3 121 17 122
3 121 122 123
3 125 124 17
3 18 126 127
3 19 128 130
3 130 129 18
3 128 129 130
3 19 131 132
3 20 21 6
3 22 21 20
3 22 133 135
3 135 134 21
3 133 134 135
3 22 136 137
3 23 138 140
3 140 139 22
3 138 139 140
3 23 141 142
3 23 143 144
3 24 145 147
3 147 146 23
3 145 146 147
3 24 148 150
3 148 7 149
3 148 149 150
3 25 26 8
3 27 26 25
3 27 10 26
3 27 151 153
3 153 152 10
3 151 152 153
3 18 154 156
3 156 155 27
3 154 155 156
3 18 157 158
3 160 159 11
3 28 161 162
3 29 163 165
3 165 164 28
3 163 164 165
3 29 166 167
3 29 168 170
3 168 30 169
3 168 169 170
3 31 30 29
3 31 12 30
3 31 32 12
3 33 32 31
3 33 14 32
3 34 35 5
3 36 35 34
3 36 15 35
3 36 37 15
3 171 37 172
3 173 172 36
3 171 172 173
3 174 11 175
3 176 175 37
3 174 175 176
3 38 39 13
3 40 39 38
3 40 16 39
3 41 42 9
3 177 42 178
3 179 178 41
3 177 178 179
3 181 180 42
3 182 28 183
3 43 184 186
3 184 28 185
3 184 185 186
3 43 2 28
3 43 44 2
3 45 44 43
3 45 5 44
3 17 45 4
3 46 45 17
3 46 5 45
3 46 34 5
3 187 34 188
3 189 188 46
3 187 188 189
3 191 190 34
3 21 192 194
3 194 193 6
3 192 193 194
3 196 195 21
3 47 48 3
3 49 48 47
3 49 9 48
3 26 49 8
3 50 49 26
3 50 9 49
3 50 41 9
3 51 41 50
3 51 197 199
3 199 198 41
3 197 198 199
3 51 200 201
3 204 203 51
3 202 203 204
3 206 205 10
3 52 53 0
3 207 53 208
3 209 208 52
3 207 208 209
3 211 210 53
3 213 212 11
3 54 214 215
3 54 216 218
3 216 6 217
3 216 217 218
3 30 219 221
3 219 54 220
3 219 220 221
3 55 54 30
3 55 6 54
3 55 20 6
3 56 20 55
3 56 1 20
3 56 57 1
3 58 57 56
3 58 13 57
3 32 58 12
3 59 58 32
3 59 13 58
3 59 38 13
3 60 38 59
3 60 3 38
3 44 33 2
3 61 33 44
3 61 14 33
3 35 61 5
3 62 61 35
3 62 14 61
3 62 60 14
3 63 60 62
3 63 3 60
3 63 47 3
3 64 47 63
3 64 8 47
3 37 64 15
3 65 64 37
3 65 8 64
3 65 25 8
3 52 25 65
3 52 0 25
3 53 19 0
3 66 19 53
3 66 222 224
3 224 223 19
3 222 223 224
3 225 66 226
3 227 66 228
3 227 228 229
3 232 231 66
3 230 231 232
3 57 24 1
3 67 24 57
3 67 7 24
3 39 67 13
3 68 67 39
3 68 7 67
3 68 233 235
3 235 234 7
3 233 234 235
3 69 236 238
3 238 237 68
3 236 237 238
3 69 239 240
3 48 40 3
3 70 40 48
3 70 16 40
3 42 70 9
3 71 70 42
3 71 16 70
3 71 69 16
3 241 69 242
3 243 242 71
3 241 242 243
3 245 244 69
