ply
format ascii 1.0
element vertex 259
property float x
property float y
property float z
element face 266
property list uchar int vertex_index
end_header
19.292721 -12.605178 72.749481
21.644323 -1.933055 71.769615
13.982953 -2.896601 70.126259
11.039583 -11.911294 70.043503
25.601391 -12.920989 71.48719
8.66221 -7.739705 68.445587
6.779056 -11.593415 67.961555
20.649199 -7.584202 72.4786
23.989748 -7.180076 72.036552
22.699854 -12.544783 72.713852
17.345022 -16.932823 72.562141
21.078878 -17.430391 72.953262
17.997944 -2.46346 71.380989
16.879362 -7.535251 71.792435
9.924055 -3.521494 68.40757
12.733931 -7.7398 70.332153
15.335628 -12.29125 71.765808
13.204536 -16.29668 71.239189
24.733124 -1.184563 71.029083
24.254061 -18.000568 72.156342
5.569568 -9.497456 67.087578
4.585014 -11.074521 66.756699
5.790091 -13.18231 67.604675
19.867859 -10.009491 72.6408
21.801165 -10.000766 72.684227
21.033497 -12.381139 72.85743
14.607818 -0.347624 69.919891
16.621016 0.056258 70.566963
16.029633 -2.686808 70.844856
17.484495 -5.072274 71.643311
15.558297 -5.334354 71.093712
9.859939 -9.862311 69.293701
10.668325 -7.681362 69.407204
11.976232 -9.830252 70.249451
14.064541 -9.886056 71.104706
13.228187 -12.080179 70.981064
14.276166 -14.31411 71.536514
12.237405 -13.94528 70.720543
21.951944 1.056237 71.289299
23.517439 1.627723 70.99469
23.305161 -1.462186 71.525894
24.883528 -10.14043 71.866119
21.690453 -20.069305 72.819778
22.806263 -17.77911 72.701088
23.315916 -20.401039 72.395508
12.583067 -0.577007 69.111008
7.343419 -5.646967 67.455864
6.557571 -7.613643 67.348808
7.632972 -9.61123 68.172386
8.90892 -11.649939 69.02771
10.092 -13.81781 69.77079
8.051865 -13.535487 68.778725
21.251268 -4.818614 72.174545
22.95018 -4.437128 71.998787
22.40135 -7.293698 72.396965
23.46328 -9.89025 72.40773
24.180847 -12.698327 72.285309
18.285881 -14.746471 72.691429
20.180859 -14.867573 72.928116
19.303663 -17.233482 72.894867
20.237543 0.663752 71.281036
18.372118 0.337176 71.005463
19.866243 -2.072937 71.678642
19.376467 -4.864902 72.012825
18.811094 -7.432539 72.236404
18.125608 -9.930059 72.350517
12.051579 -3.288756 69.370598
9.326697 -5.74034 68.48381
11.356806 -5.638577 69.436996
13.497211 -5.431718 70.334038
14.748004 -7.616358 71.109283
16.101231 -9.920837 71.812164
17.35972 -12.198913 72.349869
16.444334 -14.551216 72.247086
15.347382 -16.483055 72.003456
24.435202 -4.155879 71.545784
21.903086 -15.133343 72.890579
23.476479 -15.211223 72.562271
24.946852 -15.442904 71.888962
24.765293 -20.693413 71.625076
25.596386 -18.287954 71.245384
3.514654 -10.937787 66.154526
3.991934 -10.108131 66.310471
2.921574 -9.971396 65.708298
4.054398 -11.926411 66.557995
3.514654 -10.937787 66.154526
25.867116 -11.50666 71.244381
25.508184 -10.11638 71.433845
25.242459 -11.53071 71.676654
26.194834 -12.841742 70.921112
25.867116 -11.50666 71.244381
22.825711 -21.542645 72.450615
22.503185 -20.235172 72.607643
22.01298 -21.376777 72.66275
11.830979 0.444389 68.553543
12.809283 0.742768 68.950954
5.504716 -7.588561 66.778942
5.905527 -6.697897 66.853336
6.270064 -14.150407 67.926117
5.206376 -13.936604 67.357288
19.485248 1.978268 70.919303
20.400894 2.240058 71.020069
10.256087 -2.289404 68.338024
9.299111 -2.430964 67.882183
10.987817 -3.405125 68.889084
11.319849 -2.173034 68.819538
10.256087 -2.289404 68.338024
13.712499 -17.407115 71.464386
14.783922 -17.500303 71.846519
14.275959 -16.389868 71.621322
10.584357 -14.82284 70.056076
9.494757 -14.69811 69.55183
24.907536 0.3803 70.708702
24.299693 1.786443 70.691506
24.125281 0.22158 71.011887
25.388934 -1.04174 70.618778
24.907536 0.3803 70.708702
24.914884 -22.067692 71.314262
24.250902 -21.865962 71.786636
26.137377 -18.312091 70.662094
25.775413 -19.688623 70.893673
25.882718 -16.962829 71.084435
26.137377 -18.312091 70.662094
4.484211 -9.319598 66.47591
5.010715 -8.530468 66.648327
5.077291 -10.285989 66.922138
4.484211 -9.319598 66.47591
3.991934 -10.108131 66.310471
4.656937 -12.980306 66.981983
5.187553 -12.128415 67.180687
4.054398 -11.926411 66.557995
5.206376 -13.936604 67.357288
4.656937 -12.980306 66.981983
17.724525 -18.14212 72.646835
16.769412 -17.922409 72.434455
15.614417 -0.145683 70.243427
15.824595 1.225278 70.064476
14.817996 1.023337 69.74094
8.942111 -3.534833 67.90992
9.299111 -2.430964 67.882183
22.734692 1.34198 71.141995
22.862536 3.05871 70.837025
22.079789 2.772967 70.984329
25.106238 -8.69681 71.640991
24.659349 -7.216633 71.726208
24.436638 -8.660253 71.951335
25.106238 -8.69681 71.640991
25.508184 -10.11638 71.433845
13.821659 0.857459 69.355396
14.817996 1.023337 69.74094
13.595443 -0.462315 69.51545
13.821659 0.857459 69.355396
12.809283 0.742768 68.950954
6.29845 -5.714559 66.906864
6.653325 -4.72041 66.92194
6.950495 -6.630305 67.402336
6.29845 -5.714559 66.906864
5.905527 -6.697897 66.853336
6.063569 -8.555549 67.218193
5.504716 -7.588561 66.778942
5.010715 -8.530468 66.648327
8.474689 -14.556949 69.055797
9.494757 -14.69811 69.55183
9.071932 -13.676648 69.274757
7.40095 -14.326995 68.513142
6.920978 -13.358898 68.1917
6.270064 -14.150407 67.926117
8.474689 -14.556949 69.055797
7.40095 -14.326995 68.513142
18.703846 -18.29245 72.813198
18.324343 -17.083152 72.728504
17.724525 -18.14212 72.646835
19.642846 -18.514229 72.904758
18.703846 -18.29245 72.813198
20.530454 -18.612684 72.933956
20.191271 -17.331936 72.924065
19.642846 -18.514229 72.904758
20.836241 -19.932141 72.867214
21.384666 -18.749848 72.88652
20.530454 -18.612684 72.933956
21.117047 -21.191864 72.808643
20.836241 -19.932141 72.867214
22.01298 -21.376777 72.66275
21.117047 -21.191864 72.808643
21.258094 2.436301 71.024201
22.079789 2.772967 70.984329
21.094743 0.859994 71.285168
21.258094 2.436301 71.024201
20.400894 2.240058 71.020069
16.775538 1.424071 70.363762
15.824595 1.225278 70.064476
17.651089 1.564529 70.583012
16.775538 1.424071 70.363762
17.496567 0.196717 70.786213
18.552536 1.81498 70.781517
17.651089 1.564529 70.583012
19.304831 0.500464 71.143249
19.485248 1.978268 70.919303
18.552536 1.81498 70.781517
11.585593 -0.81716 68.689743
11.830979 0.444389 68.553543
12.317323 -1.932881 69.240803
11.585593 -0.81716 68.689743
11.319849 -2.173034 68.819538
7.651792 -4.597569 67.434067
6.653325 -4.72041 66.92194
8.643432 -4.644255 67.94804
7.651792 -4.597569 67.434067
8.335058 -5.693653 67.969837
9.625376 -4.630917 68.44569
8.942111 -3.534833 67.90992
8.643432 -4.644255 67.94804
15.770592 -17.697525 72.155113
16.769412 -17.922409 72.434455
16.346202 -16.707939 72.282798
15.770592 -17.697525 72.155113
14.783922 -17.500303 71.846519
11.65706 -14.886575 70.530953
11.164703 -13.881545 70.245666
10.584357 -14.82284 70.056076
12.140625 -16.062275 70.790276
12.72097 -15.12098 70.979866
11.65706 -14.886575 70.530953
12.643003 -17.224331 71.054485
12.140625 -16.062275 70.790276
13.712499 -17.407115 71.464386
12.643003 -17.224331 71.054485
23.659453 3.209182 70.686161
22.862536 3.05871 70.837025
23.659453 3.209182 70.686161
24.299693 1.786443 70.691506
24.882075 -5.704534 71.480823
24.212475 -5.667977 71.791168
24.659349 -7.216633 71.726208
25.088942 -4.102062 71.188831
24.882075 -5.704534 71.480823
25.237903 -2.616404 70.930481
24.584163 -2.670221 71.287433
25.088942 -4.102062 71.188831
25.388934 -1.04174 70.618778
25.237903 -2.616404 70.930481
23.526214 -21.719775 72.171852
22.825711 -21.542645 72.450615
24.040605 -20.547226 72.010292
23.526214 -21.719775 72.171852
24.250902 -21.865962 71.786636
25.359867 -20.891353 71.083519
24.914884 -22.067692 71.314262
25.180839 -19.490683 71.43523
25.359867 -20.891353 71.083519
25.775413 -19.688623 70.893673
25.557951 -15.540305 71.406224
25.271619 -16.865429 71.567173
25.882718 -16.962829 71.084435
25.88522 -14.279347 71.205337
25.274121 -14.181947 71.688076
25.557951 -15.540305 71.406224
26.194834 -12.841742 70.921112
25.88522 -14.279347 71.205337
3 81 21 82
3 81 82 83
3 85 84 21
3 0 25 23
3 2 28 26
3 2 30 28
3 3 33 31
3 3 35 33
3 3 37 35
3 1 40 38
3 4 86 88
3 88 87 41
3 86 87 88
3 4 89 90
3 91 44 92
3 93 92 42
3 91 92 93
3 94 45 95
3 96 47 97
3 6 48 20
3 6 49 48
3 6 51 49
3 99 98 22
3 7 54 52
3 9 55 24
3 9 56 55
3 10 59 57
3 100 60 101
3 12 61 27
3 12 62 61
3 12 63 62
3 13 64 29
3 13 65 64
3 14 102 103
3 14 104 106
3 104 66 105
3 104 105 106
3 5 67 46
3 15 68 32
3 15 69 68
3 15 70 69
3 16 71 34
3 16 72 71
3 16 73 72
3 17 74 36
3 17 107 109
3 109 108 74
3 107 108 109
3 111 110 50
3 18 112 114
3 114 113 39
3 112 113 114
3 18 115 116
3 8 75 53
3 11 76 58
3 19 77 43
3 19 78 77
3 117 79 118
3 119 80 120
3 122 121 80
3 123 20 124
3 21 125 127
3 125 20 126
3 125 126 127
3 21 6 20
3 21 22 6
3 128 22 129
3 130 129 21
3 128 129 130
3 132 131 22
3 23 24 7
3 25 24 23
3 25 9 24
3 134 133 10
3 26 135 137
3 135 27 136
3 135 136 137
3 28 27 26
3 28 12 27
3 28 29 12
3 30 29 28
3 30 13 29
3 138 14 139
3 31 32 5
3 33 32 31
3 33 15 32
3 33 34 15
3 35 34 33
3 35 16 34
3 35 36 16
3 37 36 35
3 37 17 36
3 38 140 142
3 140 39 141
3 140 141 142
3 40 39 38
3 40 18 39
3 41 143 145
3 145 144 8
3 143 144 145
3 147 146 41
3 42 43 11
3 44 43 42
3 44 19 43
3 148 26 149
3 45 150 152
3 150 26 151
3 150 151 152
3 45 2 26
3 153 46 154
3 47 155 157
3 155 46 156
3 155 156 157
3 47 5 46
3 20 158 160
3 158 47 159
3 158 159 160
3 48 47 20
3 48 5 47
3 48 31 5
3 49 31 48
3 49 3 31
3 49 50 3
3 51 50 49
3 51 161 163
3 163 162 50
3 161 162 163
3 22 51 6
3 164 51 165
3 166 165 22
3 164 165 166
3 168 167 51
3 52 53 1
3 54 53 52
3 54 8 53
3 24 54 7
3 55 54 24
3 55 8 54
3 55 41 8
3 56 41 55
3 56 4 41
3 57 58 0
3 59 58 57
3 59 11 58
3 169 59 170
3 171 170 10
3 169 170 171
3 172 59 173
3 174 11 175
3 176 175 59
3 174 175 176
3 177 42 178
3 179 178 11
3 177 178 179
3 180 42 181
3 183 182 42
3 184 38 185
3 60 186 188
3 186 38 187
3 186 187 188
3 60 1 38
3 27 189 190
3 61 191 193
3 193 192 27
3 191 192 193
3 61 194 195
3 61 196 198
3 196 60 197
3 196 197 198
3 62 60 61
3 62 1 60
3 62 52 1
3 63 52 62
3 63 7 52
3 29 63 12
3 64 63 29
3 64 7 63
3 64 23 7
3 65 23 64
3 65 0 23
3 199 45 200
3 66 201 203
3 201 45 202
3 201 202 203
3 66 2 45
3 46 204 205
3 67 206 208
3 208 207 46
3 206 207 208
3 67 209 211
3 209 14 210
3 209 210 211
3 32 67 5
3 68 67 32
3 68 14 67
3 68 66 14
3 69 66 68
3 69 2 66
3 69 30 2
3 70 30 69
3 70 13 30
3 34 70 15
3 71 70 34
3 71 13 70
3 71 65 13
3 72 65 71
3 72 0 65
3 72 57 0
3 73 57 72
3 73 10 57
3 36 73 16
3 74 73 36
3 74 10 73
3 74 212 214
3 214 213 10
3 212 213 214
3 216 215 74
3 50 37 3
3 217 37 218
3 219 218 50
3 217 218 219
3 220 17 221
3 222 221 37
3 220 221 222
3 223 17 224
3 226 225 17
3 39 227 228
3 230 229 39
3 53 40 1
3 75 40 53
3 75 18 40
3 231 75 232
3 233 232 8
3 231 232 233
3 234 75 235
3 236 18 237
3 238 237 75
3 236 237 238
3 240 239 18
3 58 25 0
3 76 25 58
3 76 9 25
3 43 76 11
3 77 76 43
3 77 9 76
3 77 56 9
3 78 56 77
3 78 4 56
3 241 44 242
3 79 243 245
3 243 44 244
3 243 244 245
3 79 19 44
3 246 79 247
3 80 248 250
3 248 79 249
3 248 249 250
3 80 19 79
3 80 78 19
3 251 78 252
3 253 252 80
3 251 252 253
3 254 4 255
3 256 255 78
3 254 255 256
3 258 257 4
