ply
format ascii 1.0
element vertex 196
property float x
property float y
property float z
element face 180
property list uchar int vertex_index
end_header
-0.580238 -100.491051 -8.514034
12.459198 -98.9534 4.453597
9.305859 -104.359985 -7.274822
3.561652 -97.12175 2.063452
8.10548 -98.537498 2.821009
4.32352 -102.894623 -8.231812
15.446519 -101.934677 0.28699
11.157336 -102.05397 -1.446036
6.372864 -101.067184 -2.611961
1.492603 -99.223015 -3.295669
-3.098207 -96.638985 -3.307269
-5.188231 -97.323906 -8.227094
1.855682 -101.842369 -8.539674
15.853587 -100.280121 3.297647
13.798676 -100.61824 2.208992
13.249037 -102.133629 -0.679531
11.732999 -100.469986 1.623659
5.824014 -97.820618 2.511833
7.359897 -99.912979 0.113867
5.049132 -99.246834 -0.347741
3.927185 -100.312149 -3.14881
2.685828 -98.318146 -0.579802
-6.333125 -95.406502 -5.585343
-7.437289 -95.417274 -7.892432
10.27626 -98.883331 3.504695
4.500126 -95.767937 4.75315
6.890789 -103.826508 -7.948816
17.464678 -101.389 1.416432
17.032303 -103.090042 -1.839478
14.933629 -103.441696 -2.728243
12.660426 -103.613586 -3.779226
10.324411 -103.421059 -4.545989
9.558949 -100.350586 0.704423
8.831062 -101.762283 -2.215405
7.964358 -102.869278 -4.962388
5.553742 -102.197601 -5.49214
2.953958 -101.187462 -5.809784
0.473253 -99.960007 -5.892497
2.296817 -94.905441 4.55631
1.274169 -96.128723 1.941853
0.377515 -97.258011 -0.716323
-0.721685 -98.079109 -3.365513
-1.878417 -98.642159 -5.980685
-5.406333 -95.01371 -3.131775
-4.093763 -97.124725 -5.794477
-3.015213 -98.983055 -8.552188
0.009351 -101.299115 -9.767456
1.227311 -101.974773 -9.780276
0.637722 -101.16671 -8.526854
-1.207998 -100.585388 -9.802429
0.009351 -101.299115 -9.767456
13.413747 -98.872063 4.940418
12.621524 -98.018619 5.985368
13.128937 -99.78582 3.331295
14.083486 -99.704483 3.818115
13.413747 -98.872063 4.940418
-8.543861 -94.360275 -7.700783
-7.922249 -94.508872 -6.60272
-8.063813 -95.257389 -9.018692
-8.543861 -94.360275 -7.700783
10.079429 -105.01015 -8.395633
10.587553 -104.565376 -6.971181
4.952725 -95.039524 6.073891
5.627823 -96.12003 4.949353
5.03582 -103.638706 -9.376264
6.319454 -104.104649 -9.234766
5.607155 -103.360566 -8.090314
1.667235 -93.823864 5.685794
2.761635 -94.228008 5.821381
0.198418 -95.651367 1.83516
0.704181 -95.051685 3.178593
-0.249909 -96.216011 0.506072
0.825842 -96.693367 0.612765
0.198418 -95.651367 1.83516
-1.909946 -97.359047 -3.336391
-1.361888 -97.087231 -2.161614
-2.550149 -96.367169 -2.132491
-6.450826 -94.172505 -3.006537
-5.856264 -94.047379 -1.796896
-4.646869 -98.197605 -9.555529
-3.56036 -99.027179 -9.718076
-4.101722 -98.153481 -8.389641
2.517961 -102.627578 -9.744888
3.75188 -103.153706 -9.590957
3.089601 -102.368496 -8.385743
1.88959 -102.759983 -10.985489
2.517961 -102.627578 -9.744888
1.227311 -101.974773 -9.780276
15.110941 -99.535424 4.362443
16.108901 -99.3377 4.897454
14.826131 -100.44918 2.753319
15.110941 -99.535424 4.362443
14.083486 -99.704483 3.818115
-3.663678 -95.617268 -1.991787
-2.550149 -96.367169 -2.132491
-7.370166 -94.503487 -5.449175
-6.914222 -94.3689 -4.23332
-6.885207 -95.411888 -6.738888
-7.370166 -94.503487 -5.449175
-7.922249 -94.508872 -6.60272
-6.937703 -96.275188 -9.158688
-5.813174 -97.228504 -9.326019
-6.31276 -96.37059 -8.059763
-6.937703 -96.275188 -9.158688
-8.063813 -95.257389 -9.018692
11.660969 -98.054158 5.471983
12.621524 -98.018619 5.985368
10.5695 -98.019123 4.997532
11.367729 -98.918365 3.979146
11.660969 -98.054158 5.471983
9.528532 -97.915695 4.578637
10.5695 -98.019123 4.997532
8.443142 -97.742779 4.236794
9.19087 -98.710414 3.162852
9.528532 -97.915695 4.578637
7.4305 -97.50481 3.983283
8.443142 -97.742779 4.236794
6.289767 -97.14637 3.828695
6.964747 -98.179058 2.666421
7.4305 -97.50481 3.983283
5.16207 -96.794277 3.632491
6.289767 -97.14637 3.828695
5.627823 -96.12003 4.949353
7.63172 -104.516221 -9.061851
8.839255 -104.782959 -8.724854
8.098324 -104.093246 -7.611819
7.63172 -104.516221 -9.061851
6.319454 -104.104649 -9.234766
5.03582 -103.638706 -9.376264
3.75188 -103.153706 -9.590957
16.833937 -99.986344 3.834231
16.108901 -99.3377 4.897454
17.639482 -100.540783 2.893624
16.833937 -99.986344 3.834231
16.659132 -100.83456 2.357039
18.403702 -101.031857 1.860154
17.639482 -100.540783 2.893624
18.145952 -101.898014 0.309193
19.084976 -101.54087 0.752915
18.403702 -101.031857 1.860154
17.929765 -102.748535 -1.318762
18.145952 -101.898014 0.309193
17.24849 -102.239521 -0.211523
17.742171 -103.518067 -2.899031
17.929765 -102.748535 -1.318762
16.727041 -103.83274 -3.438964
17.742171 -103.518067 -2.899031
15.677704 -104.008567 -3.883347
16.727041 -103.83274 -3.438964
15.982966 -103.265869 -2.28386
14.596811 -104.142265 -4.32603
15.677704 -104.008567 -3.883347
13.460209 -104.22821 -4.851521
14.596811 -104.142265 -4.32603
13.797027 -103.527641 -3.253735
12.264836 -104.192177 -5.223383
13.460209 -104.22821 -4.851521
11.096829 -104.095913 -5.606764
12.264836 -104.192177 -5.223383
11.492418 -103.517323 -4.162608
9.815135 -103.890522 -5.910405
10.587553 -104.565376 -6.971181
11.096829 -104.095913 -5.606764
3.863289 -94.659256 5.919801
4.952725 -95.039524 6.073891
4.315888 -93.930843 7.240541
3.398471 -95.336689 4.65473
3.863289 -94.659256 5.919801
2.761635 -94.228008 5.821381
1.215505 -94.440044 4.485822
1.667235 -93.823864 5.685794
1.785493 -95.517082 3.249081
1.215505 -94.440044 4.485822
0.704181 -95.051685 3.178593
-0.812288 -96.676682 -0.837018
-0.249909 -96.216011 0.506072
-0.172085 -97.66856 -2.040918
-0.812288 -96.676682 -0.837018
-1.361888 -97.087231 -2.161614
-4.817741 -94.804631 -1.90404
-5.856264 -94.047379 -1.796896
-4.25227 -95.826347 -3.219522
-3.663678 -95.617268 -1.991787
-4.817741 -94.804631 -1.90404
-5.869729 -95.210106 -4.358559
-6.450826 -94.172505 -3.006537
-6.914222 -94.3689 -4.23332
-2.425486 -99.83139 -9.821506
-1.207998 -100.585388 -9.802429
-1.797726 -99.737053 -8.533111
-2.425486 -99.83139 -9.821506
-3.56036 -99.027179 -9.718076
-4.646869 -98.197605 -9.555529
-5.813174 -97.228504 -9.326019
10.079429 -105.01015 -8.395633
8.839255 -104.782959 -8.724854
3 0 46 48
3 48 47 12
3 46 47 48
3 0 49 50
3 1 51 52
3 1 53 55
3 53 14 54
3 53 54 55
3 1 16 14
3 3 19 17
3 3 21 19
3 56 23 57
3 59 58 23
3 2 60 61
3 62 25 63
3 5 64 66
3 66 65 26
3 64 65 66
3 6 27 13
3 6 28 27
3 6 29 28
3 7 30 15
3 7 31 30
3 4 32 24
3 8 33 18
3 8 34 33
3 8 35 34
3 9 36 20
3 9 37 36
3 67 38 68
3 69 39 70
3 71 40 72
3 73 72 39
3 71 72 73
3 10 74 76
3 74 41 75
3 74 75 76
3 10 42 41
3 77 43 78
3 11 44 22
3 11 45 44
3 11 79 81
3 81 80 45
3 79 80 81
3 12 82 84
3 84 83 5
3 82 83 84
3 87 86 12
3 85 86 87
3 88 13 89
3 14 90 92
3 90 13 91
3 90 91 92
3 14 6 13
3 14 15 6
3 16 15 14
3 16 7 15
3 17 18 4
3 19 18 17
3 19 8 18
3 19 20 8
3 21 20 19
3 21 9 20
3 93 10 94
3 95 22 96
3 23 97 99
3 97 22 98
3 97 98 99
3 23 11 22
3 23 100 102
3 102 101 11
3 100 101 102
3 104 103 23
3 105 1 106
3 107 24 108
3 109 108 1
3 107 108 109
3 110 24 111
3 112 4 113
3 114 113 24
3 112 113 114
3 115 4 116
3 117 17 118
3 119 118 4
3 117 118 119
3 25 120 122
3 120 17 121
3 120 121 122
3 25 3 17
3 26 123 125
3 125 124 2
3 123 124 125
3 127 126 26
3 129 128 5
3 13 130 131
3 27 132 134
3 134 133 13
3 132 133 134
3 27 135 136
3 27 137 139
3 137 138 139
3 28 140 142
3 142 141 27
3 140 141 142
3 28 143 144
3 28 145 146
3 29 147 149
3 149 148 28
3 147 148 149
3 29 150 151
3 15 29 6
3 30 29 15
3 30 152 154
3 154 153 29
3 152 153 154
3 30 155 156
3 31 157 159
3 159 158 30
3 157 158 159
3 31 160 162
3 160 2 161
3 160 161 162
3 24 16 1
3 32 16 24
3 32 7 16
3 18 32 4
3 33 32 18
3 33 7 32
3 33 31 7
3 34 31 33
3 34 2 31
3 34 26 2
3 35 26 34
3 35 5 26
3 20 35 8
3 36 35 20
3 36 5 35
3 36 12 5
3 37 12 36
3 37 0 12
3 163 25 164
3 163 164 165
3 38 166 168
3 166 25 167
3 166 167 168
3 38 3 25
3 169 38 170
3 39 171 173
3 171 38 172
3 171 172 173
3 39 3 38
3 39 21 3
3 40 21 39
3 40 9 21
3 174 40 175
3 41 176 178
3 176 40 177
3 176 177 178
3 41 9 40
3 41 37 9
3 42 37 41
3 42 0 37
3 43 179 180
3 43 181 183
3 181 10 182
3 181 182 183
3 22 184 186
3 184 43 185
3 184 185 186
3 44 43 22
3 44 10 43
3 44 42 10
3 45 42 44
3 45 0 42
3 45 187 189
3 189 188 0
3 187 188 189
3 191 190 45
3 193 192 11
3 195 194 2
