ply
format ascii 1.0
element vertex 191
property float x
property float y
property float z
element face 183
property list uchar int vertex_index
end_header
10.774954 83.594551 6.69945
15.242155 81.890648 0.482383
8.907242 90.159058 -1.360725
12.764057 83.148087 3.800973
10.078156 86.597771 3.15851
12.335803 86.393028 -0.782051
8.259385 85.666 7.341908
6.732028 89.677719 3.153274
17.386803 83.456345 -8.476902
17.677105 80.41156 -3.304675
7.419984 93.753105 -6.580012
11.511187 89.686516 -5.955264
14.872993 85.304581 -4.703724
10.006962 81.570091 10.373031
11.66708 83.432129 5.424038
12.719615 81.597313 6.071642
11.595548 82.09893 7.371646
10.472222 84.971916 5.134821
11.485166 84.947578 3.410675
9.708656 84.534256 6.950962
9.100993 86.337059 5.135484
18.779652 80.781525 -7.515907
18.524494 82.273994 -10.189472
16.450239 81.228111 -1.382841
8.244745 91.97261 -3.980394
9.603419 91.773331 -6.496806
10.079292 90.134987 -3.670692
13.80195 84.293747 -0.177402
13.663912 85.767113 -2.57143
15.147151 83.55069 -2.024206
16.382196 82.944954 -4.158832
7.781494 90.131279 0.691451
6.866902 92.090187 -1.626743
14.00708 82.600883 2.116235
9.603834 88.326874 0.925572
10.752177 88.251823 -1.107297
11.190515 86.568924 1.202226
12.709728 84.629532 1.568487
7.483928 87.704926 5.326361
8.512897 88.229614 2.929996
15.862462 85.96534 -9.413059
18.8543 79.377411 -5.050557
12.816434 89.150276 -8.132473
11.950336 88.029213 -3.223473
13.23511 87.538971 -5.267873
14.606377 86.805374 -7.383995
16.25338 84.375313 -6.726715
17.613081 81.936333 -5.864286
9.105663 83.693428 8.932027
10.38411 82.79409 8.336391
11.282804 80.910957 9.319105
19.316863 80.182343 -8.451773
19.387993 79.444607 -7.119189
15.853248 80.687935 0.8148
16.45729 80.356666 -0.117812
15.846197 81.55938 -0.450229
13.380292 82.063618 4.126161
14.001804 81.790016 3.283792
13.385568 82.874485 2.958604
13.251533 80.553947 6.405954
12.630851 80.828361 7.187594
7.871657 86.685463 6.334135
7.060168 87.354874 6.435259
7.447896 86.335411 7.443033
17.256034 84.110218 -9.812121
16.493863 85.364715 -10.2802
16.624633 84.710842 -8.94498
18.343144 82.935237 -11.558008
19.019317 81.638741 -11.070369
18.30275 79.031917 -2.925769
18.891347 78.514843 -3.798711
18.265702 79.894486 -4.177616
8.040909 93.644165 -7.792333
6.98768 94.58979 -7.94146
11.163997 90.559452 -7.349966
10.210113 91.602859 -7.620737
10.557303 90.729923 -6.226035
12.163811 89.418396 -7.043868
11.81662 90.291332 -8.438571
11.163997 90.559452 -7.349966
5.775049 90.441113 3.208969
6.179407 89.422184 4.355846
6.304733 94.730759 -6.761801
6.790565 93.80304 -5.403672
6.98768 94.58979 -7.94146
6.304733 94.730759 -6.761801
9.556313 82.63176 9.652529
8.78653 83.209358 9.96766
9.237179 82.14769 10.688162
12.068818 81.07917 7.837597
12.630851 80.828361 7.187594
12.157581 81.848121 6.721644
19.189284 80.928577 -9.788556
18.652073 81.52776 -8.85269
19.316863 80.182343 -8.451773
19.019317 81.638741 -11.070369
19.189284 80.928577 -9.788556
17.113276 79.900833 -1.081909
17.726709 79.492558 -2.042826
17.063672 80.819835 -2.343758
17.113276 79.900833 -1.081909
16.45729 80.356666 -0.117812
6.819589 90.903515 0.780296
6.294855 90.676735 2.011207
7.256761 89.904499 1.922363
6.362292 91.882969 -0.378802
6.819589 90.903515 0.780296
7.324198 91.110733 -0.467646
5.854512 92.960712 -1.722701
6.362292 91.882969 -0.378802
6.514024 92.971581 -2.927038
5.854512 92.960712 -1.722701
7.202946 92.912792 -4.103864
6.514024 92.971581 -2.927038
7.555823 92.031398 -2.803568
7.832365 92.862858 -5.280203
6.790565 93.80304 -5.403672
7.202946 92.912792 -4.103864
9.684494 81.011307 11.458274
9.237179 82.14769 10.688162
10.443948 80.530682 10.949564
9.684494 81.011307 11.458274
14.596239 81.454048 2.505267
15.213776 81.09893 1.688341
14.624617 82.245766 1.299309
14.596239 81.454048 2.505267
14.001804 81.790016 3.283792
13.358071 81.288231 5.261496
13.380292 82.063618 4.126161
12.741836 82.3727 4.936307
13.358071 81.288231 5.261496
13.251533 80.553947 6.405954
6.555357 88.435788 5.442389
7.060168 87.354874 6.435259
7.107978 88.691322 4.239818
6.179407 89.422184 4.355846
6.555357 88.435788 5.442389
15.631509 86.650811 -10.705813
14.993268 87.164322 -9.780985
15.631509 86.650811 -10.705813
16.493863 85.364715 -10.2802
17.82488 83.519042 -10.668406
17.256034 84.110218 -9.812121
17.955649 82.86517 -9.333187
17.82488 83.519042 -10.668406
18.343144 82.935237 -11.558008
19.424576 78.033775 -4.678233
19.425317 78.74255 -5.886514
19.424576 78.033775 -4.678233
18.891347 78.514843 -3.798711
18.30275 79.031917 -2.925769
17.726709 79.492558 -2.042826
15.853248 80.687935 0.8148
15.213776 81.09893 1.688341
9.132627 92.654278 -7.75073
8.040909 93.644165 -7.792333
8.511702 92.763218 -6.538409
9.132627 92.654278 -7.75073
10.210113 91.602859 -7.620737
12.465694 89.96394 -9.474345
11.81662 90.291332 -8.438571
13.470254 88.75679 -9.140693
12.465694 89.96394 -9.474345
14.365226 87.584339 -8.766453
13.470254 88.75679 -9.140693
13.711405 87.977825 -7.758234
15.23442 86.385357 -8.398527
14.993268 87.164322 -9.780985
14.365226 87.584339 -8.766453
19.425317 78.74255 -5.886514
19.387993 79.444607 -7.119189
18.816976 80.079468 -6.283232
5.775049 90.441113 3.208969
6.294855 90.676735 2.011207
7.882706 85.276314 8.383621
7.447896 86.335411 7.443033
8.305845 84.290028 9.17868
8.78653 83.209358 9.96766
8.682524 84.679714 8.136968
7.882706 85.276314 8.383621
8.305845 84.290028 9.17868
11.912446 80.485184 8.811326
12.068818 81.07917 7.837597
11.439176 81.504943 8.345375
11.081869 80.201114 10.422601
10.644883 81.240524 9.846068
10.443948 80.530682 10.949564
11.73172 79.823871 9.853931
11.081869 80.201114 10.422601
11.912446 80.485184 8.811326
11.73172 79.823871 9.853931
3 0 16 14
3 0 14 17
3 0 17 19
3 52 51 21
3 1 53 55
3 55 54 23
3 53 54 55
3 2 26 24
3 1 29 27
3 1 23 29
3 2 32 31
3 2 24 32
3 3 56 58
3 58 57 33
3 56 57 58
3 60 59 15
3 4 36 34
3 3 37 18
3 3 33 37
3 6 61 63
3 61 38 62
3 61 62 63
3 4 39 20
3 4 34 39
3 8 64 66
3 66 65 40
3 64 65 66
3 68 67 22
3 9 69 71
3 71 70 41
3 69 70 71
3 10 72 73
3 11 74 76
3 76 75 25
3 74 75 76
3 11 77 79
3 77 42 78
3 77 78 79
3 5 43 35
3 12 44 28
3 12 45 44
3 12 46 45
3 9 47 30
3 9 41 47
3 7 80 81
3 10 82 83
3 10 84 85
3 13 86 88
3 86 48 87
3 86 87 88
3 13 49 48
3 13 50 49
3 14 15 3
3 16 15 14
3 16 89 91
3 91 90 15
3 89 90 91
3 17 18 4
3 14 18 17
3 14 3 18
3 19 20 6
3 17 20 19
3 17 4 20
3 21 22 8
3 92 22 93
3 94 93 21
3 92 93 94
3 96 95 22
3 23 97 99
3 99 98 9
3 97 98 99
3 101 100 23
3 24 25 10
3 26 25 24
3 26 11 25
3 27 28 5
3 29 28 27
3 29 12 28
3 29 30 12
3 23 30 29
3 23 9 30
3 31 102 104
3 104 103 7
3 102 103 104
3 32 105 107
3 107 106 31
3 105 106 107
3 32 108 109
3 32 110 111
3 24 112 114
3 114 113 32
3 112 113 114
3 24 115 117
3 115 10 116
3 115 116 117
3 118 13 119
3 121 120 13
3 33 122 124
3 124 123 1
3 122 123 124
3 126 125 33
3 15 127 129
3 129 128 3
3 127 128 129
3 131 130 15
3 34 35 2
3 36 35 34
3 36 5 35
3 18 36 4
3 37 36 18
3 37 5 36
3 37 27 5
3 33 27 37
3 33 1 27
3 38 132 133
3 38 134 136
3 134 7 135
3 134 135 136
3 20 38 6
3 39 38 20
3 39 7 38
3 39 31 7
3 34 31 39
3 34 2 31
3 40 137 138
3 140 139 40
3 22 141 143
3 143 142 8
3 141 142 143
3 145 144 22
3 41 146 147
3 149 148 41
3 151 150 9
3 153 152 1
3 25 154 156
3 156 155 10
3 154 155 156
3 158 157 25
3 42 159 160
3 42 161 162
3 35 26 2
3 43 26 35
3 43 11 26
3 28 43 5
3 44 43 28
3 44 11 43
3 44 42 11
3 45 42 44
3 45 163 165
3 165 164 42
3 163 164 165
3 45 166 168
3 166 40 167
3 166 167 168
3 46 40 45
3 46 8 40
3 30 46 12
3 47 46 30
3 47 8 46
3 47 21 8
3 41 21 47
3 41 169 171
3 171 170 21
3 169 170 171
3 173 172 7
3 174 6 175
3 48 176 177
3 48 178 180
3 178 6 179
3 178 179 180
3 48 19 6
3 49 19 48
3 49 0 19
3 49 16 0
3 50 16 49
3 50 181 183
3 183 182 16
3 181 182 183
3 184 50 185
3 186 185 13
3 184 185 186
3 187 50 188
3 190 189 50
