ply
format ascii 1.0
element vertex 242
property float x
property float y
property float z
element face 243
property list uchar int vertex_index
end_header
-36.140617 24.743269 -2.762159
-35.11507 24.750526 11.964375
-29.365253 31.786678 17.046043
-36.884892 25.444469 3.244007
-32.090881 33.221424 7.582677
-26.3965 41.0312 12.811983
-36.317749 25.182802 7.45475
-34.734608 29.40637 5.168791
-33.587845 29.172998 9.82352
-27.739038 36.557186 15.110717
-32.325993 28.233009 14.439112
-36.86116 25.122297 -0.281719
-35.311867 29.162107 1.219398
-33.081791 33.203114 3.183797
-30.449192 37.334061 5.51725
-30.733528 32.828381 12.298356
-29.261091 37.030102 10.125546
-35.858509 23.587074 -3.324842
-35.38884 25.480682 -3.522968
-36.632481 23.24271 -2.276652
-35.741947 25.039967 9.743575
-35.078304 27.118294 8.510171
-34.46312 26.866724 10.803795
-36.984333 23.141232 8.501763
-36.939674 25.376001 1.29336
-36.187599 27.147417 0.370522
-36.112991 27.374401 2.220273
-33.49585 31.226406 6.381044
-33.847496 31.436037 4.247594
-32.668793 33.210686 5.364064
-31.807413 35.228062 4.348314
-31.253508 35.310627 6.534569
-30.83522 30.085495 15.659143
-31.549429 30.576517 13.315189
-29.985176 32.51125 14.663674
-27.043924 38.788425 14.008268
-28.520218 36.768711 12.677235
-27.788425 39.002575 11.542744
-28.389111 39.236202 9.347001
-27.010284 41.366043 10.468181
-37.63076 23.362352 4.162491
-37.628632 23.489517 2.271924
-37.510494 23.323927 0.497151
-36.674309 25.360483 5.322797
-35.949509 27.306625 4.225369
-35.560482 27.330395 6.249264
-34.324924 29.139473 7.46236
-32.92255 31.17012 8.5424
-27.812487 33.715836 18.450722
-28.493093 34.254356 16.146729
-27.017885 36.12746 17.541477
-26.365219 38.347836 16.477255
-25.637564 40.782318 15.364763
-37.393791 23.29179 6.307987
-33.79039 26.431965 13.170094
-36.543167 24.931116 -1.757406
-35.810387 26.319923 -2.500782
-36.091797 26.80546 -1.155714
-35.346527 28.870981 -0.436004
-34.425079 30.933638 0.395592
-35.104435 29.319714 3.168843
-34.279182 31.132429 2.214201
-31.027308 37.094948 3.324041
-33.077984 28.619501 12.073294
-32.238815 30.913389 11.013028
-31.469955 32.977577 9.998768
-29.194538 34.657612 13.815763
-29.909897 34.975117 11.400312
-30.684624 35.090366 8.894938
-29.803003 37.366459 7.838513
-29.08663 39.322784 6.875657
-37.159275 23.332996 -0.986117
-35.735941 23.88323 11.392603
-35.407247 23.654347 12.581792
-35.428509 24.895246 10.853975
-36.04938 24.027951 10.282203
-35.735941 23.88323 11.392603
-26.027969 42.248201 12.287812
-26.33486 42.415622 11.115911
-26.703392 41.198622 11.640082
-26.646281 35.898561 18.734003
-27.415186 34.921648 17.996099
-27.043582 34.692749 19.188626
-25.633429 39.446157 17.110426
-25.978887 38.233065 17.647318
-25.269601 40.663398 16.55418
-26.001392 39.565077 15.921009
-25.633429 39.446157 17.110426
-24.961191 41.804071 16.028261
-25.269601 40.663398 16.55418
-33.223873 33.100565 2.242119
-33.822569 32.065222 1.757321
-33.680487 32.167772 2.698999
-32.657166 34.129908 2.672747
-33.223873 33.100565 2.242119
-30.062983 38.309467 5.073092
-30.352041 38.189911 3.976488
-30.73825 37.214505 4.420646
-28.41253 40.365213 7.474009
-28.73787 39.279493 8.111329
-28.063771 40.321922 8.709681
-28.704383 40.436327 6.325058
-28.41253 40.365213 7.474009
-35.369358 26.89339 -2.900138
-35.498167 27.367644 -2.253108
-35.353815 23.842897 -3.780908
-35.554147 22.717075 -3.60755
-35.11898 24.789701 -3.879971
-35.353815 23.842897 -3.780908
-35.623674 24.533878 -3.423905
-34.867472 25.989033 -3.924994
-35.11898 24.789701 -3.879971
-36.47332 22.377772 -2.549701
-36.906591 22.340333 -1.894255
-36.086334 22.549954 -3.073796
-36.47332 22.377772 -2.549701
-36.245495 23.414892 -2.800747
-35.554147 22.717075 -3.60755
-36.086334 22.549954 -3.073796
-36.670572 23.078583 9.661297
-37.27878 22.063081 9.128545
-36.36314 24.090599 9.122669
-36.670572 23.078583 9.661297
-36.04938 24.027951 10.282203
-27.374357 41.386843 9.270271
-28.063771 40.321922 8.709681
-27.699697 40.301122 9.907591
-26.718954 42.412422 9.911911
-27.374357 41.386843 9.270271
-26.718954 42.412422 9.911911
-26.33486 42.415622 11.115911
-37.960678 22.370843 3.741181
-37.937905 22.346503 4.746698
-37.959614 22.434426 2.795897
-37.960678 22.370843 3.741181
-37.629696 23.425935 3.217207
-37.874665 22.433089 1.877526
-37.959614 22.434426 2.795897
-37.569563 23.406722 1.384537
-37.815596 22.350294 0.99014
-37.874665 22.433089 1.877526
-26.30522 37.122877 18.179429
-26.646281 35.898561 18.734003
-26.691552 37.237648 17.009366
-26.30522 37.122877 18.179429
-25.978887 38.233065 17.647318
-25.308288 41.967003 14.802463
-25.687756 42.091444 13.526072
-26.017032 40.906759 14.088373
-25.308288 41.967003 14.802463
-24.961191 41.804071 16.028261
-37.517691 22.090592 8.027827
-37.27878 22.063081 9.128545
-37.72242 22.165872 6.930939
-37.517691 22.090592 8.027827
-37.189062 23.216511 7.404875
-37.81942 22.311222 5.819446
-37.72242 22.165872 6.930939
-37.512276 23.327071 5.235239
-37.937905 22.346503 4.746698
-37.81942 22.311222 5.819446
-34.122284 25.339765 13.696549
-34.45273 25.591245 12.567235
-34.784624 24.499046 13.09369
-33.385128 26.249783 14.332346
-34.122284 25.339765 13.696549
-32.652929 27.150304 14.966855
-33.058191 27.332487 13.804603
-33.385128 26.249783 14.332346
-31.890241 27.999695 15.686705
-32.652929 27.150304 14.966855
-31.144855 28.925938 16.29672
-31.580606 29.159252 15.049128
-31.890241 27.999695 15.686705
-30.401902 29.839919 16.908281
-31.144855 28.925938 16.29672
-29.666919 30.69051 17.601731
-30.100237 30.936087 16.352593
-30.401902 29.839919 16.908281
-28.936615 31.526656 18.303386
-29.666919 30.69051 17.601731
-28.160232 32.491235 19.005725
-28.58887 32.751257 17.748382
-28.936615 31.526656 18.303386
-27.451801 33.402161 19.631016
-28.160232 32.491235 19.005725
-27.043582 34.692749 19.188626
-27.451801 33.402161 19.631016
-34.784624 24.499046 13.09369
-35.407247 23.654347 12.581792
-35.638872 27.610413 -1.580574
-35.498167 27.367644 -2.253108
-35.951092 26.562691 -1.828248
-35.266237 28.643173 -1.220719
-35.638872 27.610413 -1.580574
-35.719162 27.83822 -0.795859
-34.875395 29.698432 -0.896593
-35.266237 28.643173 -1.220719
-34.414671 30.72976 -0.480795
-34.875395 29.698432 -0.896593
-34.885803 29.90231 -0.020206
-33.981831 31.743249 -0.073063
-34.414671 30.72976 -0.480795
-33.895517 31.965827 0.848016
-34.352131 31.033033 1.304897
-33.822569 32.065222 1.757321
-33.981831 31.743249 -0.073063
-33.895517 31.965827 0.848016
-32.019976 35.142382 3.255005
-32.657166 34.129908 2.672747
-32.444602 34.215588 3.766056
-31.629924 36.075825 2.742869
-32.019976 35.142382 3.255005
-31.417361 36.161505 3.836177
-31.180293 37.036943 2.291404
-31.629924 36.075825 2.742869
-30.613345 38.072865 2.883722
-31.180293 37.036943 2.291404
-30.613345 38.072865 2.883722
-30.352041 38.189911 3.976488
-29.381701 39.303829 5.752296
-30.062983 38.309467 5.073092
-29.767911 38.328423 6.196454
-29.381701 39.303829 5.752296
-28.704383 40.436327 6.325058
-26.027969 42.248201 12.287812
-25.687756 42.091444 13.526072
-37.634911 22.322534 0.192505
-37.815596 22.350294 0.99014
-37.459301 22.327069 -0.549129
-37.634911 22.322534 0.192505
-37.334885 23.328462 -0.244483
-37.169989 22.385476 -1.248987
-37.459301 22.327069 -0.549129
-36.895878 23.287853 -1.631385
-36.906591 22.340333 -1.894255
-37.169989 22.385476 -1.248987
-35.158585 26.47377 -3.411231
-35.599614 25.900303 -3.011875
-35.369358 26.89339 -2.900138
-34.867472 25.989033 -3.924994
-35.158585 26.47377 -3.411231
3 0 18 17
3 0 17 19
3 1 22 20
3 1 72 73
3 1 74 76
3 74 20 75
3 74 75 76
3 3 26 24
3 4 29 27
3 4 31 29
3 2 34 32
3 5 37 35
3 5 39 37
3 5 77 79
3 79 78 39
3 77 78 79
3 3 41 40
3 3 24 41
3 6 45 43
3 8 46 21
3 8 47 46
3 80 50 81
3 82 81 48
3 80 81 82
3 83 51 84
3 85 52 86
3 87 86 51
3 85 86 87
3 89 88 52
3 6 53 23
3 6 43 53
3 11 57 55
3 12 58 25
3 12 59 58
3 7 60 44
3 13 61 28
3 13 90 92
3 92 91 61
3 90 91 92
3 13 93 94
3 14 62 30
3 14 95 97
3 97 96 62
3 95 96 97
3 10 63 54
3 15 64 33
3 15 65 64
3 9 66 49
3 16 67 36
3 16 68 67
3 16 69 68
3 98 70 99
3 100 99 38
3 98 99 100
3 102 101 70
3 11 71 42
3 11 55 71
3 104 103 56
3 17 105 106
3 18 107 109
3 109 108 17
3 107 108 109
3 18 110 111
3 19 112 113
3 17 114 116
3 116 115 19
3 114 115 116
3 17 117 118
3 20 21 6
3 22 21 20
3 22 8 21
3 119 23 120
3 20 121 123
3 121 23 122
3 121 122 123
3 20 6 23
3 24 25 11
3 26 25 24
3 26 12 25
3 27 28 7
3 29 28 27
3 29 13 28
3 29 30 13
3 31 30 29
3 31 14 30
3 32 33 10
3 34 33 32
3 34 15 33
3 35 36 9
3 37 36 35
3 37 16 36
3 37 38 16
3 39 38 37
3 39 124 126
3 126 125 38
3 124 125 126
3 39 127 128
3 130 129 39
3 40 131 132
3 41 133 135
3 135 134 40
3 133 134 135
3 41 136 137
3 41 138 140
3 138 42 139
3 138 139 140
3 24 42 41
3 24 11 42
3 43 44 3
3 45 44 43
3 45 7 44
3 21 45 6
3 46 45 21
3 46 7 45
3 46 27 7
3 47 27 46
3 47 4 27
3 48 49 2
3 50 49 48
3 50 9 49
3 141 50 142
3 51 143 145
3 143 50 144
3 143 144 145
3 51 9 50
3 51 35 9
3 52 35 51
3 52 5 35
3 52 146 148
3 148 147 5
3 146 147 148
3 150 149 52
3 23 151 152
3 53 153 155
3 155 154 23
3 153 154 155
3 53 156 157
3 53 158 160
3 158 40 159
3 158 159 160
3 43 40 53
3 43 3 40
3 161 54 162
3 163 162 1
3 161 162 163
3 164 54 165
3 166 10 167
3 168 167 54
3 166 167 168
3 169 10 170
3 171 32 172
3 173 172 10
3 171 172 173
3 174 32 175
3 176 2 177
3 178 177 32
3 176 177 178
3 179 2 180
3 181 48 182
3 183 182 2
3 181 182 183
3 184 48 185
3 187 186 48
3 188 1 189
3 55 56 0
3 57 56 55
3 57 190 192
3 192 191 56
3 190 191 192
3 25 57 11
3 58 57 25
3 58 193 195
3 195 194 57
3 193 194 195
3 58 196 197
3 59 198 200
3 200 199 58
3 198 199 200
3 59 201 202
3 44 26 3
3 60 26 44
3 60 12 26
3 28 60 7
3 61 60 28
3 61 12 60
3 61 59 12
3 203 59 204
3 205 204 61
3 203 204 205
3 207 206 59
3 30 208 210
3 210 209 13
3 208 209 210
3 62 211 213
3 213 212 30
3 211 212 213
3 62 214 215
3 62 216 217
3 219 218 62
3 54 22 1
3 63 22 54
3 63 8 22
3 33 63 10
3 64 63 33
3 64 8 63
3 64 47 8
3 65 47 64
3 65 4 47
3 49 34 2
3 66 34 49
3 66 15 34
3 36 66 9
3 67 66 36
3 67 15 66
3 67 65 15
3 68 65 67
3 68 4 65
3 68 31 4
3 69 31 68
3 69 14 31
3 38 69 16
3 70 69 38
3 70 14 69
3 70 220 222
3 222 221 14
3 220 221 222
3 224 223 70
3 226 225 5
3 42 227 228
3 71 229 231
3 231 230 42
3 229 230 231
3 71 232 233
3 71 234 236
3 234 19 235
3 234 235 236
3 55 19 71
3 55 0 19
3 56 18 0
3 237 18 238
3 239 238 56
3 237 238 239
3 241 240 18
