ply
format ascii 1.0
element vertex 236
property float x
property float y
property float z
element face 235
property list uchar int vertex_index
end_header
-39.779053 -25.106714 -17.441034
-39.099323 -34.481323 -16.320889
-38.937374 -36.599796 -22.968935
-40.655594 -25.933966 -24.456884
-40.085308 -32.84095 -30.470539
-39.779675 -29.787827 -17.048817
-39.980728 -30.398254 -20.523865
-40.396767 -25.486475 -21.122086
-40.201416 -20.77276 -21.400639
-39.029964 -33.680386 -12.625997
-39.279537 -28.988869 -13.305013
-38.935661 -37.631031 -26.384974
-40.041504 -32.103149 -27.180084
-39.037483 -35.415951 -19.683119
-40.044807 -31.139103 -23.938705
-40.770954 -26.527296 -27.83823
-41.081215 -21.365959 -28.067022
-39.876022 -27.361605 -17.312048
-40.119289 -27.571556 -19.183876
-40.146278 -25.346004 -19.325855
-40.369179 -23.270765 -21.196177
-40.006676 -23.033178 -19.443058
-38.948002 -33.141628 -10.880483
-39.277145 -31.243759 -13.130168
-39.030315 -30.861397 -11.183345
-38.247631 -39.262615 -22.457726
-38.228558 -39.873413 -24.12993
-38.919601 -37.183895 -24.735695
-39.536625 -34.845051 -26.775591
-39.518406 -34.411671 -24.995193
-38.490231 -37.031258 -15.819268
-38.386166 -37.639942 -17.496233
-39.054104 -35.009518 -17.925163
-40.354725 -28.22187 -22.657505
-39.99921 -30.928967 -22.254335
-40.411339 -28.515963 -24.288286
-40.461281 -28.759459 -26.014383
-40.727318 -26.183292 -26.185152
-40.97039 -23.898647 -28.045895
-40.886749 -23.861727 -26.321857
-39.568634 -35.675228 -30.206739
-38.239151 -38.813126 -20.709389
-39.52507 -32.032898 -16.673525
-39.543465 -32.590382 -18.405993
-39.910553 -30.05533 -18.836763
-40.271141 -27.850731 -20.950897
-40.550198 -25.701841 -22.750759
-40.783512 -23.534643 -24.587158
-40.627037 -23.288458 -22.973886
-40.565262 -21.026518 -23.064417
-38.562504 -36.531918 -14.122203
-39.071243 -34.177593 -14.524824
-39.393406 -31.923349 -14.781062
-39.582939 -29.441599 -15.240396
-39.52401 -27.177286 -15.315208
-38.158897 -40.657578 -25.682926
-38.8979 -38.280758 -27.959051
-39.560959 -35.232571 -28.421741
-40.089993 -32.327011 -28.829378
-40.512341 -29.488916 -29.293306
-38.343235 -38.079079 -19.145021
-38.946274 -36.135803 -21.254572
-39.583752 -32.870499 -20.252985
-39.569202 -33.356373 -21.870478
-39.54174 -33.871662 -23.398979
-40.057575 -31.522877 -25.54306
-40.456909 -29.321037 -27.540022
-38.860468 -32.982452 -9.924408
-38.773255 -34.066105 -9.683682
-38.685721 -33.90693 -8.727607
-38.901624 -31.842337 -10.075839
-38.989159 -32.001512 -11.031914
-38.860468 -32.982452 -9.924408
-40.087393 -33.025865 -31.399046
-39.829056 -34.443005 -31.267146
-39.826971 -34.258089 -30.338639
-37.891453 -39.766491 -19.664459
-37.83567 -40.15804 -20.451275
-40.281206 -19.769747 -22.25224
-40.463129 -19.896625 -23.084128
-40.383339 -20.899639 -22.232528
-38.2831 -37.471247 -12.918637
-38.210489 -37.778995 -13.850455
-38.826961 -34.832495 -12.466365
-38.830633 -34.595309 -11.530237
-39.050604 -33.92899 -13.575411
-38.847601 -35.081098 -13.415779
-38.826961 -34.832495 -12.466365
-40.787813 -26.700468 -28.666345
-40.630791 -28.097338 -28.51724
-40.613932 -27.924166 -27.689126
-40.89483 -25.379421 -28.744219
-40.787813 -26.700468 -28.666345
-41.116367 -21.496684 -28.894533
-41.060955 -22.763028 -28.883969
-41.025802 -22.632303 -28.056459
-41.151354 -20.181907 -28.941172
-41.116367 -21.496684 -28.894533
-40.897011 -21.205115 -25.624948
-40.882176 -22.400098 -25.543146
-40.798348 -22.339659 -24.668959
-40.311966 -31.562831 -31.558926
-40.305664 -31.383541 -30.695114
-38.789652 -34.32593 -10.65748
-38.773255 -34.066105 -9.683682
-38.988983 -33.411007 -11.75324
-38.830633 -34.595309 -11.530237
-38.789652 -34.32593 -10.65748
-38.238095 -39.568014 -23.293828
-37.820927 -41.000593 -23.031008
-37.830464 -40.695194 -22.194906
-38.438198 -37.3356 -16.65775
-38.059372 -38.604782 -16.343452
-38.111404 -38.30044 -15.504969
-39.525398 -36.029318 -31.043366
-39.213446 -37.289451 -29.973745
-39.525398 -36.029318 -31.043366
-39.829056 -34.443005 -31.267146
-40.087393 -33.025865 -31.399046
-40.311966 -31.562831 -31.558926
-37.839911 -40.382784 -21.325443
-37.830464 -40.695194 -22.194906
-38.243391 -39.03787 -21.583558
-37.839911 -40.382784 -21.325443
-37.83567 -40.15804 -20.451275
-40.72011 -22.216567 -23.862324
-40.798348 -22.339659 -24.668959
-40.705275 -23.41155 -23.780522
-40.689222 -21.085597 -23.907589
-40.72011 -22.216567 -23.862324
-40.596149 -22.157488 -23.019151
-40.650734 -19.935585 -23.9851
-40.774695 -19.994664 -24.828272
-40.689222 -21.085597 -23.907589
-40.548601 -18.805692 -24.004812
-40.650734 -19.935585 -23.9851
-40.463129 -19.896625 -23.084128
-38.174353 -38.028666 -14.698987
-38.111404 -38.30044 -15.504969
-38.526367 -36.781588 -14.970735
-38.174353 -38.028666 -14.698987
-38.210489 -37.778995 -13.850455
-38.593232 -36.258261 -13.214468
-38.2831 -37.471247 -12.918637
-38.816873 -35.354755 -14.323514
-38.593232 -36.258261 -13.214468
-38.847601 -35.081098 -13.415779
-38.869133 -30.692961 -10.231302
-38.901624 -31.842337 -10.075839
-38.96467 -29.777189 -11.318811
-38.869133 -30.692961 -10.231302
-39.089281 -28.840924 -12.379646
-39.154926 -29.925133 -12.244179
-38.96467 -29.777189 -11.318811
-39.195023 -27.909208 -13.445309
-39.089281 -28.840924 -12.379646
-39.317259 -27.003416 -14.450406
-39.401773 -28.083078 -14.310111
-39.195023 -27.909208 -13.445309
-39.408893 -25.992863 -15.462069
-39.317259 -27.003416 -14.450406
-39.536415 -24.957577 -16.524981
-39.651531 -26.142 -16.378121
-39.408893 -25.992863 -15.462069
-39.642235 -23.952723 -17.532135
-39.536415 -24.957577 -16.524981
-39.756046 -22.915954 -18.533147
-39.892865 -24.069946 -18.442046
-39.642235 -23.952723 -17.532135
-39.843386 -21.849604 -19.486251
-39.756046 -22.915954 -18.533147
-39.940756 -20.719394 -20.465042
-40.104046 -21.902969 -20.421849
-39.843386 -21.849604 -19.486251
-40.023111 -19.73337 -21.328194
-39.940756 -20.719394 -20.465042
-40.281206 -19.769747 -22.25224
-40.023111 -19.73337 -21.328194
-37.8219 -41.28078 -23.823854
-37.820927 -41.000593 -23.031008
-37.787069 -41.672863 -24.600352
-37.8219 -41.28078 -23.823854
-38.193728 -40.265496 -24.906428
-37.754086 -42.093564 -25.470656
-37.382258 -43.108849 -24.388082
-37.787069 -41.672863 -24.600352
-38.163916 -40.931555 -26.6343
-37.754086 -42.093564 -25.470656
-38.533417 -39.743145 -27.772362
-38.163916 -40.931555 -26.6343
-38.528399 -39.469168 -26.820988
-38.878079 -38.592216 -28.849901
-38.533417 -39.743145 -27.772362
-39.233267 -36.977993 -29.082895
-39.213446 -37.289451 -29.973745
-38.878079 -38.592216 -28.849901
-40.308007 -31.126571 -29.874533
-40.305664 -31.383541 -30.695114
-40.08765 -32.58398 -29.649958
-40.519181 -29.707524 -30.106498
-40.308007 -31.126571 -29.874533
-40.301167 -30.907964 -29.061342
-40.683249 -28.270004 -30.241331
-40.519181 -29.707524 -30.106498
-37.996836 -38.920791 -17.241155
-38.059372 -38.604782 -16.343452
-37.97537 -39.14036 -18.065549
-37.996836 -38.920791 -17.241155
-38.3647 -37.85951 -18.320627
-37.943495 -39.399468 -18.882275
-37.97537 -39.14036 -18.065549
-38.291193 -38.446102 -19.927205
-37.891453 -39.766491 -19.664459
-37.943495 -39.399468 -18.882275
-40.658507 -28.181278 -29.393883
-40.484625 -29.404977 -28.416664
-40.630791 -28.097338 -28.51724
-40.683249 -28.270004 -30.241331
-40.658507 -28.181278 -29.393883
-40.994549 -24.065097 -28.848052
-40.89483 -25.379421 -28.744219
-40.870672 -25.212972 -27.942062
-41.085113 -22.929478 -29.686126
-40.994549 -24.065097 -28.848052
-41.060955 -22.763028 -28.883969
-40.933794 -22.56364 -26.410496
-40.835131 -23.698185 -25.454507
-40.882176 -22.400098 -25.543146
-41.031027 -21.315756 -27.283078
-40.983982 -22.613843 -27.19444
-40.933794 -22.56364 -26.410496
-41.104887 -20.08953 -28.165135
-41.031027 -21.315756 -27.283078
-41.175026 -18.905477 -29.039284
-41.151354 -20.181907 -28.941172
-41.104887 -20.08953 -28.165135
3 0 19 17
3 0 21 19
3 67 22 68
3 67 68 69
3 70 24 71
3 72 71 22
3 70 71 72
3 2 27 25
3 2 29 27
3 1 32 30
3 3 35 33
3 3 37 35
3 3 39 37
3 4 73 75
3 75 74 40
3 73 74 75
3 76 41 77
3 5 44 42
3 7 45 18
3 7 46 45
3 7 48 46
3 8 49 20
3 8 78 80
3 80 79 49
3 78 79 80
3 81 50 82
3 9 83 84
3 9 85 87
3 85 51 86
3 85 86 87
3 9 52 51
3 10 53 23
3 10 54 53
3 11 55 26
3 11 56 55
3 11 57 56
3 12 58 28
3 12 59 58
3 13 60 31
3 13 61 60
3 6 62 43
3 14 63 34
3 14 64 63
3 14 65 64
3 15 66 36
3 15 88 90
3 90 89 66
3 88 89 90
3 15 91 92
3 16 93 95
3 95 94 38
3 93 94 95
3 16 96 97
3 100 99 47
3 98 99 100
3 102 101 4
3 17 18 5
3 19 18 17
3 19 7 18
3 19 20 7
3 21 20 19
3 21 8 20
3 22 103 104
3 22 105 107
3 105 9 106
3 105 106 107
3 22 23 9
3 24 23 22
3 24 10 23
3 25 108 110
3 108 26 109
3 108 109 110
3 27 26 25
3 27 11 26
3 27 28 11
3 29 28 27
3 29 12 28
3 30 111 113
3 111 31 112
3 111 112 113
3 32 31 30
3 32 13 31
3 33 34 6
3 35 34 33
3 35 14 34
3 35 36 14
3 37 36 35
3 37 15 36
3 37 38 15
3 39 38 37
3 39 16 38
3 40 114 115
3 117 116 40
3 119 118 4
3 120 25 121
3 41 122 124
3 122 25 123
3 122 123 124
3 41 2 25
3 42 43 1
3 44 43 42
3 44 6 43
3 18 44 5
3 45 44 18
3 45 6 44
3 45 33 6
3 46 33 45
3 46 3 33
3 46 47 3
3 48 47 46
3 48 125 127
3 127 126 47
3 125 126 127
3 20 48 7
3 49 48 20
3 49 128 130
3 130 129 48
3 128 129 130
3 49 131 133
3 131 132 133
3 136 135 49
3 134 135 136
3 137 30 138
3 50 139 141
3 139 30 140
3 139 140 141
3 50 1 30
3 142 50 143
3 51 144 146
3 144 50 145
3 144 145 146
3 51 1 50
3 51 42 1
3 52 42 51
3 52 5 42
3 23 52 9
3 53 52 23
3 53 5 52
3 53 17 5
3 54 17 53
3 54 0 17
3 147 24 148
3 149 24 150
3 151 10 152
3 153 152 24
3 151 152 153
3 154 10 155
3 156 54 157
3 158 157 10
3 156 157 158
3 159 54 160
3 161 0 162
3 163 162 54
3 161 162 163
3 164 0 165
3 166 21 167
3 168 167 0
3 166 167 168
3 169 21 170
3 171 8 172
3 173 172 21
3 171 172 173
3 174 8 175
3 177 176 8
3 26 178 179
3 55 180 182
3 182 181 26
3 180 181 182
3 55 183 185
3 183 184 185
3 55 186 187
3 56 188 190
3 190 189 55
3 188 189 190
3 56 191 192
3 56 193 195
3 193 40 194
3 193 194 195
3 57 40 56
3 57 4 40
3 28 57 11
3 58 57 28
3 58 4 57
3 58 196 198
3 198 197 4
3 196 197 198
3 59 199 201
3 201 200 58
3 199 200 201
3 59 202 203
3 31 204 205
3 60 206 208
3 208 207 31
3 206 207 208
3 60 209 210
3 60 211 213
3 211 41 212
3 211 212 213
3 61 41 60
3 61 2 41
3 43 32 1
3 62 32 43
3 62 13 32
3 34 62 6
3 63 62 34
3 63 13 62
3 63 61 13
3 64 61 63
3 64 2 61
3 64 29 2
3 65 29 64
3 65 12 29
3 36 65 14
3 66 65 36
3 66 12 65
3 66 59 12
3 214 59 215
3 216 215 66
3 214 215 216
3 218 217 59
3 38 219 221
3 221 220 15
3 219 220 221
3 224 223 38
3 222 223 224
3 47 39 3
3 225 39 226
3 227 226 47
3 225 226 227
3 228 16 229
3 230 229 39
3 228 229 230
3 231 16 232
3 235 234 16
3 233 234 235
