ply
format ascii 1.0
element vertex 242
property float x
property float y
property float z
element face 239
property list uchar int vertex_index
end_header
12.478655 -47.428043 65.574913
10.853793 -37.379246 68.559677
18.231579 -40.954174 69.235191
24.060066 -43.365578 65.353676
19.510447 -50.830311 64.663269
7.034648 -35.581226 66.798195
15.37199 -44.299522 67.829086
18.834322 -46.071259 67.136925
16.174751 -49.428185 65.606544
11.60846 -42.551586 67.283546
8.823862 -45.507172 64.422073
7.830026 -40.434162 65.875008
20.951933 -37.31424 69.914566
14.540233 -39.155506 69.433479
21.347628 -42.243301 67.961082
22.03373 -47.293816 65.329704
22.51951 -52.224876 62.370819
13.014209 -49.771549 64.578651
11.154855 -48.973431 64.101776
13.88667 -45.809517 66.843369
15.626675 -46.889503 66.764778
14.352724 -48.390678 65.768257
14.818931 -50.962635 64.52636
11.137199 -39.919727 67.969154
9.690183 -41.486115 66.679596
9.25404 -38.974094 67.265373
5.238328 -34.498486 65.785706
5.663373 -37.05777 65.39817
12.797435 -38.319321 69.131393
13.061337 -40.877033 68.45385
7.033007 -44.498394 63.545383
19.568209 -38.964138 69.741058
21.157667 -39.718491 69.01757
19.830875 -41.520363 68.786888
19.174068 -48.402393 65.984871
20.481045 -46.572083 66.467361
20.855101 -49.06245 65.106163
22.29538 -49.783604 63.889153
21.043781 -51.630276 63.653141
8.922039 -36.50087 67.755219
23.871548 -40.786049 66.707535
16.710608 -42.736744 68.593399
18.447296 -43.522812 68.257782
17.119181 -45.280342 67.600494
17.394876 -47.732807 66.505257
17.860758 -50.235184 65.240959
18.283594 -52.65094 63.87455
16.677618 -51.822243 64.363167
12.067972 -44.955959 66.53109
10.685493 -46.332832 65.208481
10.184985 -44.042004 65.961716
8.358665 -42.969143 65.252151
6.556659 -41.971012 64.319305
7.503707 -38.003773 66.453568
6.11147 -39.445011 64.954758
22.227577 -35.102646 70.078606
19.322493 -36.400261 70.556793
17.792866 -38.323841 70.099922
16.419531 -40.045631 69.49633
15.039695 -41.631454 68.756134
13.603518 -43.427547 67.729187
22.449047 -37.767563 69.063545
22.512407 -40.350483 68.047554
22.800034 -42.753662 66.84333
20.116426 -44.051941 67.702774
21.663071 -44.847187 66.688225
23.087214 -45.341419 65.447678
23.311247 -47.869057 64.018906
23.57365 -50.279591 62.48785
4.563318 -35.286669 65.016266
4.264883 -34.052242 65.126038
11.825614 -37.849283 68.845535
12.570848 -37.065953 69.354221
11.599027 -36.595915 69.068363
6.485254 -45.276762 62.637615
6.216859 -44.021927 63.062122
24.594423 -43.542044 64.518457
24.499392 -42.260988 65.26664
24.133419 -44.628158 64.674227
24.594423 -43.542044 64.518457
19.708945 -52.0988 63.889273
20.475613 -52.498783 63.384208
20.277114 -51.230294 64.158205
23.778851 -39.600155 67.293976
24.35151 -39.647396 66.614407
15.108687 -52.113964 63.920891
14.194104 -51.608234 63.942694
5.245859 -38.976446 64.400207
5.887422 -38.25139 65.176464
5.02181 -37.782826 64.621914
5.451749 -40.211839 64.087338
5.245859 -38.976446 64.400207
18.462602 -36.016417 70.691085
19.147627 -35.168412 70.88742
17.697789 -36.978206 70.46265
18.557679 -37.362051 70.328358
18.462602 -36.016417 70.691085
15.295094 -38.269762 69.829712
14.396576 -37.816288 69.749264
15.479882 -39.600569 69.464905
16.234743 -38.714824 69.861137
15.295094 -38.269762 69.829712
9.12144 -46.756834 63.976055
10.052255 -47.169664 64.369259
9.754677 -45.920002 64.815277
23.186515 -52.415619 61.613018
23.713584 -51.442976 61.671534
23.04658 -51.252234 62.429334
22.674296 -53.394989 61.536955
23.186515 -52.415619 61.613018
18.463459 -53.809444 63.151015
17.682906 -53.410183 63.436664
12.447664 -50.629948 63.799533
13.291743 -51.012692 63.96884
11.517986 -50.230888 63.561096
12.447664 -50.629948 63.799533
12.084532 -49.37249 64.340214
10.635177 -49.745406 63.312939
11.517986 -50.230888 63.561096
13.291743 -51.012692 63.96884
14.194104 -51.608234 63.942694
13.91657 -50.367092 64.552505
4.775841 -36.566311 64.822498
5.45085 -35.778128 65.591938
4.563318 -35.286669 65.016266
5.02181 -37.782826 64.621914
4.775841 -36.566311 64.822498
13.525177 -37.398195 69.59822
12.570848 -37.065953 69.354221
13.668834 -38.737414 69.282436
14.396576 -37.816288 69.749264
13.525177 -37.398195 69.59822
7.317896 -45.730683 63.128469
8.213324 -46.235072 63.566814
7.928434 -45.002783 63.983728
7.317896 -45.730683 63.128469
6.485254 -45.276762 62.637615
21.248165 -52.805746 62.856521
21.98603 -53.103046 62.215361
21.781645 -51.927576 63.01198
21.248165 -52.805746 62.856521
20.475613 -52.498783 63.384208
9.670296 -35.675045 68.343742
9.887916 -36.940058 68.157448
10.636173 -36.114233 68.745971
8.774101 -35.256691 67.949002
9.670296 -35.675045 68.343742
7.830405 -34.796869 67.47049
7.978343 -36.041048 67.276707
8.774101 -35.256691 67.949002
6.875909 -34.353268 66.972351
7.830405 -34.796869 67.47049
5.977749 -33.811898 66.466106
6.136488 -35.039856 66.291951
6.875909 -34.353268 66.972351
4.980344 -33.316624 65.875725
5.977749 -33.811898 66.466106
4.264883 -34.052242 65.126038
4.980344 -33.316624 65.875725
10.636173 -36.114233 68.745971
11.599027 -36.595915 69.068363
24.405133 -40.971224 65.943569
24.35151 -39.647396 66.614407
23.965807 -42.075813 66.030605
24.499392 -42.260988 65.26664
24.405133 -40.971224 65.943569
16.879918 -52.995835 63.680973
17.682906 -53.410183 63.436664
17.480606 -52.236592 64.118859
16.03803 -52.543768 63.839295
15.748274 -51.392439 64.444763
15.108687 -52.113964 63.920891
16.879918 -52.995835 63.680973
16.03803 -52.543768 63.839295
5.978685 -42.758236 63.449083
6.216859 -44.021927 63.062122
6.794833 -43.234703 63.932344
5.674343 -41.47484 63.769611
6.334065 -40.708011 64.637032
5.451749 -40.211839 64.087338
5.978685 -42.758236 63.449083
5.674343 -41.47484 63.769611
22.15383 -33.821375 70.47511
22.848792 -34.08173 70.017174
21.498306 -34.849089 70.425229
22.15383 -33.821375 70.47511
20.860484 -35.954886 70.343209
21.589755 -36.208443 69.996586
21.498306 -34.849089 70.425229
20.045764 -35.497896 70.664322
19.147627 -35.168412 70.88742
20.137213 -36.85725 70.23568
20.860484 -35.954886 70.343209
20.045764 -35.497896 70.664322
16.921411 -37.853929 70.162934
17.697789 -36.978206 70.46265
17.106198 -39.184736 69.798126
16.921411 -37.853929 70.162934
16.234743 -38.714824 69.861137
10.286936 -48.489964 63.815906
10.920174 -47.653132 64.655129
10.052255 -47.169664 64.369259
9.767258 -49.261938 63.027069
10.635177 -49.745406 63.312939
10.286936 -48.489964 63.815906
9.12144 -46.756834 63.976055
8.213324 -46.235072 63.566814
22.916904 -35.374725 69.535267
22.848792 -34.08173 70.017174
23.027639 -36.707184 69.027737
22.916904 -35.374725 69.535267
22.338312 -36.435105 69.571076
23.0676 -38.090912 68.471981
23.027639 -36.707184 69.027737
23.09928 -39.382372 67.963986
23.0676 -38.090912 68.471981
22.480727 -39.059023 68.55555
23.191978 -40.568266 67.377544
23.778851 -39.600155 67.293976
23.09928 -39.382372 67.963986
23.646993 -45.616079 64.721228
24.133419 -44.628158 64.674227
23.57364 -44.353499 65.400677
23.75901 -46.879898 64.006842
23.646993 -45.616079 64.721228
23.19923 -46.605238 64.733292
23.88411 -48.027553 63.271423
23.75901 -46.879898 64.006842
24.015311 -49.232821 62.505896
23.88411 -48.027553 63.271423
23.442449 -49.074324 63.253378
24.162445 -50.411147 61.669569
24.015311 -49.232821 62.505896
24.162445 -50.411147 61.669569
23.713584 -51.442976 61.671534
22.674296 -53.394989 61.536955
21.98603 -53.103046 62.215361
19.095519 -53.009115 63.494913
19.708945 -52.0988 63.889273
18.89702 -51.740626 64.26891
19.095519 -53.009115 63.494913
18.463459 -53.809444 63.151015
3 0 18 17
3 0 21 19
3 0 17 21
3 1 25 23
3 70 69 26
3 1 71 73
3 71 28 72
3 71 72 73
3 1 23 28
3 75 74 30
3 3 76 77
3 3 78 79
3 2 33 31
3 4 36 34
3 4 38 36
3 4 80 82
3 82 81 38
3 80 81 82
3 83 40 84
3 6 43 41
3 8 44 20
3 8 45 44
3 8 47 45
3 86 85 22
3 9 50 48
3 11 51 24
3 11 52 51
3 5 53 39
3 87 54 88
3 89 88 27
3 87 88 89
3 91 90 54
3 92 56 93
3 94 57 95
3 96 95 56
3 94 95 96
3 13 97 98
3 13 99 101
3 99 58 100
3 99 100 101
3 13 59 58
3 9 60 29
3 9 48 60
3 10 102 104
3 104 103 49
3 102 103 104
3 12 61 55
3 14 62 32
3 14 63 62
3 7 64 42
3 15 65 35
3 15 66 65
3 15 67 66
3 16 68 37
3 16 105 107
3 107 106 68
3 105 106 107
3 16 108 109
3 111 110 46
3 17 112 113
3 18 114 116
3 116 115 17
3 114 115 116
3 18 117 118
3 19 20 6
3 21 20 19
3 21 8 20
3 21 22 8
3 17 22 21
3 17 119 121
3 121 120 22
3 119 120 121
3 23 24 9
3 25 24 23
3 25 11 24
3 26 27 5
3 122 27 123
3 124 123 26
3 122 123 124
3 126 125 27
3 28 127 128
3 28 129 131
3 129 13 130
3 129 130 131
3 28 29 13
3 23 29 28
3 23 9 29
3 30 132 134
3 134 133 10
3 132 133 134
3 136 135 30
3 31 32 12
3 33 32 31
3 33 14 32
3 34 35 7
3 36 35 34
3 36 15 35
3 36 37 15
3 38 37 36
3 38 16 37
3 38 137 139
3 139 138 16
3 137 138 139
3 141 140 38
3 142 39 143
3 144 143 1
3 142 143 144
3 145 39 146
3 147 5 148
3 149 148 39
3 147 148 149
3 150 5 151
3 152 26 153
3 154 153 5
3 152 153 154
3 155 26 156
3 158 157 26
3 159 1 160
3 40 161 162
3 40 163 165
3 163 3 164
3 163 164 165
3 41 42 2
3 43 42 41
3 43 7 42
3 20 43 6
3 44 43 20
3 44 7 43
3 44 34 7
3 45 34 44
3 45 4 34
3 45 46 4
3 47 46 45
3 47 166 168
3 168 167 46
3 166 167 168
3 22 47 8
3 169 47 170
3 171 170 22
3 169 170 171
3 173 172 47
3 48 49 0
3 50 49 48
3 50 10 49
3 24 50 9
3 51 50 24
3 51 10 50
3 51 30 10
3 52 30 51
3 52 174 176
3 176 175 30
3 174 175 176
3 39 25 1
3 53 25 39
3 53 11 25
3 27 53 5
3 54 53 27
3 54 11 53
3 54 52 11
3 177 52 178
3 179 178 54
3 177 178 179
3 181 180 52
3 182 55 183
3 184 55 185
3 186 12 187
3 188 187 55
3 186 187 188
3 56 189 190
3 56 191 193
3 191 12 192
3 191 192 193
3 56 31 12
3 57 31 56
3 57 2 31
3 194 57 195
3 58 196 198
3 196 57 197
3 196 197 198
3 58 2 57
3 58 41 2
3 59 41 58
3 59 6 41
3 29 59 13
3 60 59 29
3 60 6 59
3 60 19 6
3 48 19 60
3 48 0 19
3 49 18 0
3 199 18 200
3 201 200 49
3 199 200 201
3 204 203 18
3 202 203 204
3 206 205 10
3 55 207 208
3 61 209 211
3 211 210 55
3 209 210 211
3 61 212 213
3 32 61 12
3 62 61 32
3 62 214 216
3 216 215 61
3 214 215 216
3 62 217 219
3 217 40 218
3 217 218 219
3 63 40 62
3 63 3 40
3 42 33 2
3 64 33 42
3 64 14 33
3 35 64 7
3 65 64 35
3 65 14 64
3 65 63 14
3 66 63 65
3 66 3 63
3 66 220 222
3 222 221 3
3 220 221 222
3 67 223 225
3 225 224 66
3 223 224 225
3 67 226 227
3 37 67 15
3 68 67 37
3 68 228 230
3 230 229 67
3 228 229 230
3 68 231 232
3 234 233 68
3 236 235 16
3 46 237 239
3 239 238 4
3 237 238 239
3 241 240 46
