ply
format ascii 1.0
element vertex 236
property float x
property float y
property float z
element face 227
property list uchar int vertex_index
end_header
6.923867 -60.138287 38.706406
12.452764 -55.42197 36.964554
12.398397 -64.601761 31.713089
9.691193 -58.002476 37.906235
12.566628 -59.963329 34.841625
9.627206 -62.503784 35.228645
9.194833 -67.049522 31.670744
6.61338 -64.649757 35.491127
7.219264 -55.50864 40.969246
14.716892 -70.278709 23.753273
18.073109 -62.834614 28.273588
15.306521 -56.973381 34.334251
15.458179 -61.620457 31.6537
15.133111 -66.137115 28.118155
3.994291 -62.068062 39.428181
3.40382 -66.640945 35.686722
8.351529 -58.974449 38.37505
9.66398 -60.277466 36.683323
8.254362 -61.313698 36.990131
8.062086 -63.667274 35.372524
6.800669 -62.417236 37.187912
8.603035 -54.568741 40.191971
7.342227 -53.281696 41.72052
18.297436 -60.671711 29.782911
13.867231 -56.278179 35.648289
12.46465 -62.313614 33.4226
13.975164 -60.882526 33.279274
13.926895 -63.215778 31.692713
15.398598 -63.840836 29.999628
13.766388 -65.480072 29.915852
13.542972 -67.692696 27.917631
12.24445 -66.743912 29.891018
3.601749 -64.362419 37.733959
2.059565 -65.284721 37.921406
11.072743 -56.795357 37.441956
12.413598 -57.762642 36.064178
11.083167 -59.046288 36.383568
11.16174 -61.243397 35.047844
11.004545 -63.567787 33.512375
10.745085 -65.829659 31.793299
9.420347 -64.670502 33.674252
7.831411 -65.994194 33.523048
6.244715 -67.019264 33.532906
11.084978 -54.435795 38.288635
9.788231 -55.753483 38.814461
8.395761 -56.789509 39.455986
7.091506 -57.773033 39.983097
16.257782 -68.668236 24.060764
17.957607 -64.915245 26.383902
13.912619 -58.456554 34.672138
15.307487 -59.331982 33.191444
16.798092 -60.215324 31.472479
16.835888 -62.311337 29.955875
16.651669 -64.506119 28.240284
16.501259 -66.59507 26.256781
14.894826 -68.225288 26.097801
10.641683 -67.950714 29.826059
5.883303 -56.611298 41.56435
5.728906 -58.843376 40.427551
5.455985 -61.068516 39.132851
5.2382 -63.379551 37.478928
5.006135 -65.593483 35.672436
1.719597 -67.432678 35.975853
7.352162 -52.164655 42.050808
7.900059 -52.762626 41.383436
18.211741 -59.647856 30.529147
18.930273 -59.824619 29.720319
13.159997 -55.850075 36.306421
13.785883 -55.139698 36.084356
13.07865 -54.711593 36.742489
1.491323 -64.580906 39.007962
2.239666 -64.102449 38.892092
10.433889 -53.886333 38.958305
10.975728 -53.219318 38.69733
9.785515 -54.545178 39.221218
10.436604 -55.094639 38.551548
10.433889 -53.886333 38.958305
15.400149 -70.460865 22.667145
16.170593 -69.655629 22.82089
15.487337 -69.473472 23.907018
18.748874 -63.00478 27.291905
18.81064 -62.041708 28.112908
18.015358 -63.87493 27.328745
18.691123 -64.045096 26.347061
18.748874 -63.00478 27.291905
15.96155 -56.261807 34.135038
15.245787 -55.847376 34.796852
15.996937 -57.437916 33.598511
15.96155 -56.261807 34.135038
13.486605 -68.730301 26.793101
12.742411 -68.338028 27.85748
5.213316 -57.049986 41.88328
5.298633 -56.010578 42.378242
5.136118 -58.166025 41.31488
5.806105 -57.727337 40.99595
5.213316 -57.049986 41.88328
4.117089 -60.926712 40.195839
3.383172 -61.438761 40.388445
4.725138 -61.568289 39.280516
4.847936 -60.426939 40.048174
4.117089 -60.926712 40.195839
4.001747 -67.292701 34.647993
4.802904 -66.76897 34.64085
4.204978 -66.117214 35.679579
0.90312 -67.893089 36.035488
1.097931 -66.712185 37.150894
8.530463 -53.406149 40.619162
9.192917 -53.952807 39.909973
7.972631 -53.925218 40.956246
8.530463 -53.406149 40.619162
7.900059 -52.762626 41.383436
14.602372 -71.277184 22.499526
13.87784 -71.05112 23.592448
18.922803 -60.960256 28.86757
18.930273 -59.824619 29.720319
18.185272 -61.753163 29.02825
18.81064 -62.041708 28.112908
18.922803 -60.960256 28.86757
14.526142 -55.499775 35.453871
13.785883 -55.139698 36.084356
14.586876 -56.62578 34.99127
15.245787 -55.847376 34.796852
14.526142 -55.499775 35.453871
12.093151 -67.863636 28.844174
12.742411 -68.338028 27.85748
12.893711 -67.218304 28.904325
9.08931 -68.195751 30.56409
8.433388 -67.63599 31.564208
3.207028 -62.494119 39.64548
3.383172 -61.438761 40.388445
3.010757 -63.641298 38.798368
3.79802 -63.215241 38.58107
3.207028 -62.494119 39.64548
2.830657 -64.82357 37.827682
3.010757 -63.641298 38.798368
2.239666 -64.102449 38.892092
7.751677 -67.108326 32.49036
8.433388 -67.63599 31.564208
8.513122 -66.521858 32.596896
6.958329 -67.620861 32.495289
7.751677 -67.108326 32.49036
7.038063 -66.506729 33.527977
6.12474 -68.114563 32.482239
6.958329 -67.620861 32.495289
12.370071 -54.216019 37.382093
13.07865 -54.711593 36.742489
11.686179 -53.722931 38.044134
10.975728 -53.219318 38.69733
11.768871 -54.928883 37.626594
12.370071 -54.216019 37.382093
11.686179 -53.722931 38.044134
9.195633 -55.161112 39.503216
9.785515 -54.545178 39.221218
9.192917 -53.952807 39.909973
16.947956 -68.744991 23.012702
17.04409 -67.77171 24.176992
16.947956 -68.744991 23.012702
16.170593 -69.655629 22.82089
15.400149 -70.460865 22.667145
14.602372 -71.277184 22.499526
18.616006 -65.040256 25.343942
18.691123 -64.045096 26.347061
17.894003 -65.895214 25.338561
18.616006 -65.040256 25.343942
15.99742 -58.617216 33.027107
15.996937 -57.437916 33.598511
15.307004 -58.152681 33.762847
16.742722 -59.058887 32.167625
15.99742 -58.617216 33.027107
16.052789 -59.773653 32.331961
17.462069 -59.419663 31.373931
16.742722 -59.058887 32.167625
17.547764 -60.443517 30.627695
18.211741 -59.647856 30.529147
17.462069 -59.419663 31.373931
17.165829 -66.735127 25.275001
17.894003 -65.895214 25.338561
17.229433 -65.755157 26.320341
16.37952 -67.631653 25.158772
17.04409 -67.77171 24.176992
17.165829 -66.735127 25.275001
14.162533 -68.996597 25.883186
14.218899 -67.958992 27.007716
13.486605 -68.730301 26.793101
14.073566 -70.023308 24.710922
14.805859 -69.251999 24.925537
14.162533 -68.996597 25.883186
13.87784 -71.05112 23.592448
14.073566 -70.023308 24.710922
11.291767 -68.467037 28.811694
12.093151 -67.863636 28.844174
11.443067 -67.347313 29.858539
9.812736 -68.646347 29.641748
9.918258 -67.500118 30.748401
9.08931 -68.195751 30.56409
10.491919 -69.088825 28.69721
9.812736 -68.646347 29.641748
11.291767 -68.467037 28.811694
10.491919 -69.088825 28.69721
6.745074 -52.721357 42.470554
7.352162 -52.164655 42.050808
6.715436 -53.802391 42.085634
6.745074 -52.721357 42.470554
6.653954 -54.915863 41.709997
7.280746 -54.395168 41.344883
6.715436 -53.802391 42.085634
5.985974 -55.467192 42.007549
5.298633 -56.010578 42.378242
6.551284 -56.059969 41.266798
6.653954 -54.915863 41.709997
5.985974 -55.467192 42.007549
4.984396 -59.314369 40.695524
5.136118 -58.166025 41.31488
5.592446 -59.955946 39.780201
4.984396 -59.314369 40.695524
4.847936 -60.426939 40.048174
5.422194 -67.481861 33.571085
5.625425 -66.306374 34.602671
4.802904 -66.76897 34.64085
6.12474 -68.114563 32.482239
5.422194 -67.481861 33.571085
1.267915 -65.638206 38.123671
1.491323 -64.580906 39.007962
0.699673 -64.934391 39.210226
1.889581 -66.3587 36.948629
1.267915 -65.638206 38.123671
1.097931 -66.712185 37.150894
1.559634 -68.569149 34.850943
0.90312 -67.893089 36.035488
2.35093 -68.143638 34.81415
1.559634 -68.569149 34.850943
3.193042 -67.747772 34.669584
2.561708 -67.036811 35.831288
2.35093 -68.143638 34.81415
4.001747 -67.292701 34.647993
3.193042 -67.747772 34.669584
3 0 18 16
3 0 20 18
3 63 22 64
3 65 23 66
3 1 67 69
3 67 24 68
3 67 68 69
3 2 27 25
3 2 29 27
3 2 31 29
3 70 33 71
3 3 36 34
3 5 37 17
3 5 38 37
3 5 40 38
3 7 41 19
3 7 42 41
3 72 43 73
3 74 44 75
3 76 75 43
3 74 75 76
3 8 45 21
3 8 46 45
3 9 77 79
3 79 78 47
3 77 78 79
3 10 80 81
3 10 82 84
3 82 48 83
3 82 83 84
3 11 85 86
3 11 87 88
3 4 49 35
3 12 50 26
3 12 51 50
3 12 52 51
3 13 53 28
3 13 54 53
3 13 55 54
3 90 89 30
3 6 56 39
3 91 57 92
3 93 58 94
3 95 94 57
3 93 94 95
3 14 96 97
3 14 98 100
3 98 59 99
3 98 99 100
3 14 60 59
3 15 61 32
3 15 101 103
3 103 102 61
3 101 102 103
3 104 62 105
3 16 17 3
3 18 17 16
3 18 5 17
3 18 19 5
3 20 19 18
3 20 7 19
3 106 21 107
3 22 108 110
3 108 21 109
3 108 109 110
3 22 8 21
3 112 111 9
3 23 113 114
3 23 115 117
3 115 10 116
3 115 116 117
3 24 118 119
3 24 120 122
3 120 11 121
3 120 121 122
3 25 26 4
3 27 26 25
3 27 12 26
3 27 28 12
3 29 28 27
3 29 13 28
3 29 30 13
3 31 30 29
3 31 123 125
3 125 124 30
3 123 124 125
3 127 126 6
3 128 14 129
3 130 32 131
3 132 131 14
3 130 131 132
3 33 133 135
3 133 32 134
3 133 134 135
3 33 15 32
3 34 35 1
3 36 35 34
3 36 4 35
3 17 36 3
3 37 36 17
3 37 4 36
3 37 25 4
3 38 25 37
3 38 2 25
3 38 39 2
3 40 39 38
3 40 6 39
3 19 40 5
3 41 40 19
3 41 6 40
3 41 136 138
3 138 137 6
3 136 137 138
3 42 139 141
3 141 140 41
3 139 140 141
3 42 142 143
3 144 1 145
3 43 146 147
3 43 148 150
3 148 1 149
3 148 149 150
3 43 34 1
3 44 34 43
3 44 3 34
3 21 151 153
3 151 44 152
3 151 152 153
3 45 44 21
3 45 3 44
3 45 16 3
3 46 16 45
3 46 0 16
3 47 154 155
3 157 156 47
3 159 158 9
3 48 160 161
3 48 162 163
3 35 24 1
3 49 24 35
3 49 11 24
3 26 49 4
3 50 49 26
3 50 11 49
3 50 164 166
3 166 165 11
3 164 165 166
3 51 167 169
3 169 168 50
3 167 168 169
3 51 170 171
3 51 172 174
3 172 23 173
3 172 173 174
3 52 23 51
3 52 10 23
3 28 52 12
3 53 52 28
3 53 10 52
3 53 48 10
3 54 48 53
3 54 175 177
3 177 176 48
3 175 176 177
3 54 178 180
3 178 47 179
3 178 179 180
3 55 47 54
3 55 9 47
3 30 55 13
3 181 55 182
3 183 182 30
3 181 182 183
3 184 9 185
3 186 185 55
3 184 185 186
3 188 187 9
3 39 31 2
3 56 31 39
3 56 189 191
3 191 190 31
3 189 190 191
3 192 56 193
3 194 193 6
3 192 193 194
3 195 56 196
3 198 197 56
3 199 22 200
3 201 22 202
3 203 8 204
3 205 204 22
3 203 204 205
3 57 206 207
3 57 208 210
3 208 8 209
3 208 209 210
3 57 46 8
3 58 46 57
3 58 0 46
3 211 58 212
3 59 213 215
3 213 58 214
3 213 214 215
3 59 0 58
3 59 20 0
3 60 20 59
3 60 7 20
3 32 60 14
3 61 60 32
3 61 7 60
3 61 42 7
3 216 42 217
3 218 217 61
3 216 217 218
3 220 219 42
3 221 33 222
3 221 222 223
3 62 224 226
3 224 33 225
3 224 225 226
3 62 15 33
3 227 62 228
3 229 62 230
3 231 15 232
3 233 232 62
3 231 232 233
3 235 234 15
