ply
format ascii 1.0
element vertex 222
property float x
property float y
property float z
element face 220
property list uchar int vertex_index
end_header
-10.171536 -36.561504 67.170715
-25.187193 -38.723969 69.342018
-18.25012 -38.324852 70.266357
-21.006168 -47.824757 66.428345
-26.997787 -47.709526 63.193691
-11.871738 -41.317928 66.752586
-23.984638 -34.037586 71.387917
-20.525028 -33.956154 71.699799
-21.929878 -38.600021 70.43013
-19.682014 -42.951805 68.822365
-23.275126 -43.380688 68.259689
-24.320131 -48.017303 65.397461
-26.067099 -43.412228 66.610977
-8.53687 -31.923498 67.012871
-12.601657 -32.701527 69.352112
-16.716722 -33.618279 70.956581
-14.243626 -37.508942 69.158791
-15.740176 -42.184998 68.241501
-17.258671 -47.109512 66.410759
-10.986697 -38.977688 67.02388
-24.677746 -36.459999 70.416985
-23.066412 -36.271362 70.98864
-23.621059 -38.637447 70.080643
-22.569187 -40.99855 69.463722
-24.286749 -41.012413 68.905762
-24.800385 -43.420578 67.558525
-25.707458 -40.965652 68.065895
-13.74955 -30.886076 70.177635
-19.339815 -36.2314 71.031792
-18.634686 -33.866791 71.433617
-17.453327 -35.988533 70.68763
-15.454394 -35.646347 70.102264
-16.277473 -37.988033 69.823349
-15.021575 -39.912823 68.788086
-17.051096 -40.262211 69.363945
-20.315727 -45.363796 67.743736
-18.406254 -45.106903 67.683861
-19.191784 -47.599174 66.508263
-25.743481 -47.946697 64.438538
-12.508286 -43.611069 66.166199
-22.263813 -33.976601 71.706818
-21.240946 -36.341579 71.147095
-20.159307 -38.59037 70.458115
-18.989344 -40.6101 69.656876
-20.847473 -41.011639 69.640373
-21.489357 -43.336365 68.642433
-22.087355 -45.715355 67.423775
-22.809546 -48.069817 65.9842
-23.81028 -45.716957 66.910698
-25.263262 -45.715752 66.091682
-26.549551 -45.488312 65.030594
-9.379332 -34.211117 67.169006
-10.585602 -32.388054 68.26844
-11.378515 -34.780609 68.306641
-15.92987 -31.176094 71.064156
-14.765533 -33.191704 70.296471
-13.356182 -35.061356 69.307556
-12.18511 -37.125698 68.237701
-12.969068 -39.287949 68.048828
-13.811984 -41.700356 67.629257
-14.521351 -44.109776 66.939377
-17.731583 -42.687443 68.62616
-16.496666 -44.613308 67.44886
-15.366005 -46.621693 66.050079
-9.602124 -37.493818 66.525264
-9.187397 -36.308901 66.545929
-10.579116 -37.769596 67.097297
-10.009704 -38.70191 66.451847
-9.602124 -37.493818 66.525264
-14.307484 -29.973947 70.526352
-13.303442 -29.723134 70.082043
-20.448406 -48.935955 65.77449
-19.541214 -48.823163 65.814449
-20.098976 -47.711965 66.468304
-21.353853 -49.003653 65.691433
-20.448406 -48.935955 65.77449
-26.583813 -48.954813 62.909851
-25.95666 -49.073398 63.532274
-26.370634 -47.828111 63.816114
-27.153922 -48.774841 62.296366
-26.583813 -48.954813 62.909851
-11.230658 -42.235527 65.977203
-10.87253 -41.057652 66.214115
-12.190012 -42.464499 66.459393
-11.548932 -43.382098 65.68401
-11.230658 -42.235527 65.977203
-23.124226 -34.007093 71.547368
-22.793596 -32.839956 71.896073
-23.654008 -32.870448 71.736622
-7.990459 -32.814349 66.446415
-7.509117 -31.766225 66.279805
-8.958101 -33.067307 67.090938
-8.41169 -33.958158 66.524483
-7.990459 -32.814349 66.446415
-11.593629 -32.54479 68.810276
-11.137561 -31.41183 68.724517
-12.145588 -31.568566 69.266354
-20.14698 -32.826237 71.867943
-21.065054 -32.719724 71.969871
-17.281014 -32.53545 71.30328
-18.239996 -32.659706 71.541798
-17.675704 -33.742535 71.195099
-16.323296 -32.397187 71.010368
-16.887588 -31.314357 71.357067
-17.281014 -32.53545 71.30328
-16.673161 -48.138187 65.641705
-15.726827 -47.894278 65.461365
-16.312338 -46.865603 66.230419
-23.836892 -49.222801 64.882332
-23.0816 -49.249058 65.175702
-23.564839 -48.04356 65.690831
-10.430009 -39.887532 66.349762
-10.009704 -38.70191 66.451847
-11.429218 -40.147808 66.888233
-10.87253 -41.057652 66.214115
-10.430009 -39.887532 66.349762
-8.012434 -30.917226 66.799442
-7.509117 -31.766225 66.279805
-12.719535 -30.660841 69.679115
-13.303442 -29.723134 70.082043
-13.175603 -31.793802 69.764873
-12.145588 -31.568566 69.266354
-12.719535 -30.660841 69.679115
-18.533868 -48.580217 65.828365
-17.567312 -48.335386 65.779613
-18.225227 -47.354343 66.459511
-18.533868 -48.580217 65.828365
-19.541214 -48.823163 65.814449
-25.284614 -49.177261 64.032192
-24.572939 -49.212564 64.511654
-25.031806 -47.982 64.918
-25.284614 -49.177261 64.032192
-25.95666 -49.073398 63.532274
-11.964567 -44.582306 65.376809
-11.548932 -43.382098 65.68401
-12.970378 -44.801638 65.836651
-11.964567 -44.582306 65.376809
-21.934446 -32.729948 71.973381
-22.793596 -32.839956 71.896073
-21.39442 -33.966378 71.703308
-21.065054 -32.719724 71.969871
-21.934446 -32.729948 71.973381
-8.791296 -35.133707 66.545074
-8.41169 -33.958158 66.524483
-9.775434 -35.386311 67.16986
-9.187397 -36.308901 66.545929
-8.791296 -35.133707 66.545074
-24.472592 -32.742609 71.542778
-23.654008 -32.870448 71.736622
-24.775718 -33.903881 71.09214
-24.472592 -32.742609 71.542778
-25.122273 -35.115088 70.606674
-24.331192 -35.248793 70.902451
-24.775718 -33.903881 71.09214
-25.361833 -36.347412 70.049958
-25.122273 -35.115088 70.606674
-25.616557 -37.479397 69.512474
-24.932469 -37.591984 69.879502
-25.361833 -36.347412 70.049958
-25.855299 -38.630522 68.863659
-25.616557 -37.479397 69.512474
-9.081058 -31.076064 67.498555
-8.012434 -30.917226 66.799442
-10.105424 -31.308342 68.126339
-11.137561 -31.41183 68.724517
-9.561236 -32.155776 67.640656
-9.081058 -31.076064 67.498555
-10.105424 -31.308342 68.126339
-19.201809 -32.781556 71.734852
-20.14698 -32.826237 71.867943
-19.579857 -33.911473 71.566708
-19.201809 -32.781556 71.734852
-18.239996 -32.659706 71.541798
-16.428481 -30.08166 71.363907
-16.887588 -31.314357 71.357067
-15.397644 -30.118955 70.969612
-16.428481 -30.08166 71.363907
-14.83971 -31.031085 70.620895
-14.307484 -29.973947 70.526352
-15.397644 -30.118955 70.969612
-13.976911 -45.050991 66.22324
-12.970378 -44.801638 65.836651
-13.514819 -43.860422 66.552788
-14.399238 -46.30695 65.778591
-13.976911 -45.050991 66.22324
-14.943678 -45.365735 66.494728
-14.744571 -47.504569 65.283577
-14.399238 -46.30695 65.778591
-14.744571 -47.504569 65.283577
-15.726827 -47.894278 65.461365
-16.981801 -49.364061 65.010559
-16.673161 -48.138187 65.641705
-17.567312 -48.335386 65.779613
-22.255542 -49.126183 65.46936
-21.353853 -49.003653 65.691433
-21.907857 -47.947287 66.206272
-22.255542 -49.126183 65.46936
-23.0816 -49.249058 65.175702
-23.836892 -49.222801 64.882332
-24.572939 -49.212564 64.511654
-26.115431 -39.751363 68.225597
-25.447325 -39.84481 68.703957
-25.855299 -38.630522 68.863659
-26.281672 -40.924709 67.528854
-26.115431 -39.751363 68.225597
-26.461492 -42.147997 66.801396
-25.887279 -42.18894 67.338436
-26.281672 -40.924709 67.528854
-26.678772 -43.139946 66.028904
-26.461492 -42.147997 66.801396
-26.919998 -44.177988 65.238712
-26.308325 -44.45027 65.820785
-26.678772 -43.139946 66.028904
-27.084176 -45.303109 64.38187
-26.919998 -44.177988 65.238712
-27.308294 -46.413715 63.463419
-26.773669 -46.598919 64.112143
-27.084176 -45.303109 64.38187
-27.485685 -47.45739 62.52981
-27.308294 -46.413715 63.463419
-27.153922 -48.774841 62.296366
-27.485685 -47.45739 62.52981
3 0 64 65
3 0 66 68
3 66 19 67
3 66 67 68
3 1 22 20
3 1 24 22
3 1 26 24
3 69 27 70
3 2 30 28
3 2 32 30
3 2 34 32
3 3 37 35
3 3 71 73
3 73 72 37
3 71 72 73
3 3 74 75
3 4 76 78
3 78 77 38
3 76 77 78
3 4 79 80
3 5 81 82
3 5 83 85
3 83 39 84
3 83 84 85
3 6 86 88
3 86 40 87
3 86 87 88
3 8 41 21
3 8 42 41
3 8 44 42
3 10 45 23
3 10 46 45
3 10 48 46
3 12 49 25
3 12 50 49
3 13 89 90
3 13 91 93
3 91 51 92
3 91 92 93
3 14 94 96
3 94 52 95
3 94 95 96
3 14 53 52
3 7 97 98
3 15 99 101
3 101 100 29
3 99 100 101
3 15 102 104
3 102 54 103
3 102 103 104
3 15 55 54
3 16 56 31
3 16 57 56
3 16 58 57
3 17 59 33
3 17 60 59
3 9 61 43
3 18 62 36
3 18 63 62
3 18 105 107
3 107 106 63
3 105 106 107
3 11 108 110
3 110 109 47
3 108 109 110
3 19 111 112
3 19 113 115
3 113 5 114
3 113 114 115
3 20 21 6
3 22 21 20
3 22 8 21
3 22 23 8
3 24 23 22
3 24 10 23
3 24 25 10
3 26 25 24
3 26 12 25
3 116 13 117
3 27 118 119
3 27 120 122
3 120 14 121
3 120 121 122
3 28 29 7
3 30 29 28
3 30 15 29
3 30 31 15
3 32 31 30
3 32 16 31
3 32 33 16
3 34 33 32
3 34 17 33
3 35 36 9
3 37 36 35
3 37 18 36
3 37 123 125
3 125 124 18
3 123 124 125
3 127 126 37
3 38 128 130
3 130 129 11
3 128 129 130
3 132 131 38
3 39 133 134
3 39 135 136
3 40 137 138
3 40 139 141
3 139 7 140
3 139 140 141
3 21 40 6
3 41 40 21
3 41 7 40
3 41 28 7
3 42 28 41
3 42 2 28
3 42 43 2
3 44 43 42
3 44 9 43
3 23 44 8
3 45 44 23
3 45 9 44
3 45 35 9
3 46 35 45
3 46 3 35
3 46 47 3
3 48 47 46
3 48 11 47
3 25 48 10
3 49 48 25
3 49 11 48
3 49 38 11
3 50 38 49
3 50 4 38
3 51 142 143
3 51 144 146
3 144 0 145
3 144 145 146
3 147 6 148
3 149 6 150
3 151 20 152
3 153 152 6
3 151 152 153
3 154 20 155
3 156 1 157
3 158 157 20
3 156 157 158
3 160 159 1
3 161 13 162
3 52 163 164
3 52 165 167
3 165 13 166
3 165 166 167
3 52 51 13
3 53 51 52
3 53 0 51
3 29 168 170
3 170 169 7
3 168 169 170
3 172 171 29
3 54 173 174
3 54 175 176
3 54 177 179
3 177 27 178
3 177 178 179
3 55 27 54
3 55 14 27
3 31 55 15
3 56 55 31
3 56 14 55
3 56 53 14
3 57 53 56
3 57 0 53
3 57 19 0
3 58 19 57
3 58 5 19
3 33 58 16
3 59 58 33
3 59 5 58
3 59 39 5
3 60 39 59
3 60 180 182
3 182 181 39
3 180 181 182
3 43 34 2
3 61 34 43
3 61 17 34
3 36 61 9
3 62 61 36
3 62 17 61
3 62 60 17
3 63 60 62
3 63 183 185
3 185 184 60
3 183 184 185
3 63 186 187
3 189 188 63
3 192 191 18
3 190 191 192
3 47 193 195
3 195 194 3
3 193 194 195
3 197 196 47
3 199 198 11
3 200 26 201
3 202 201 1
3 200 201 202
3 203 26 204
3 205 12 206
3 207 206 26
3 205 206 207
3 208 12 209
3 210 50 211
3 212 211 12
3 210 211 212
3 213 50 214
3 215 4 216
3 217 216 50
3 215 216 217
3 218 4 219
3 221 220 4
