ply
format ascii 1.0
element vertex 187
property float x
property float y
property float z
element face 176
property list uchar int vertex_index
end_header
20.862814 30.432262 -66.592545
27.592367 22.52809 -67.409126
34.278999 17.908381 -58.964634
24.309872 26.913759 -67.612785
28.169298 25.463573 -64.078575
33.974552 14.739419 -62.05098
20.002258 27.557709 -70.059341
23.614697 23.210972 -70.383331
34.063869 20.01952 -54.883167
31.532309 23.085693 -59.599281
31.221857 20.666122 -63.584019
30.748594 16.637402 -66.169365
26.612595 27.476673 -63.82317
28.368721 26.414793 -61.979412
18.232042 29.184244 -69.486504
20.444698 29.082575 -68.550247
26.055609 24.890894 -67.530785
23.965036 25.253073 -69.149048
25.630735 23.021351 -69.017525
25.255157 20.827904 -70.074203
27.287302 20.44384 -68.595917
34.21077 19.186487 -57.026764
32.836929 21.714661 -57.268963
32.935894 20.669828 -59.417801
31.485939 21.974819 -61.701477
32.871983 19.360552 -61.306713
33.681496 12.536137 -63.240288
32.385315 15.853809 -64.266541
32.059975 13.599341 -65.253853
30.389215 14.340158 -66.98735
31.626343 11.014199 -65.988663
22.898943 29.957058 -65.220886
22.481474 28.788553 -67.371223
24.589342 28.294838 -65.711327
26.314247 26.347883 -65.898613
28.029886 24.004044 -65.861229
34.218517 16.407833 -60.573395
22.206472 27.277985 -69.023392
21.82028 25.535286 -70.382034
29.937199 25.286951 -59.772915
29.993853 24.360083 -61.82251
29.803097 23.275856 -63.741028
29.585808 21.555431 -65.528748
32.737717 17.741945 -62.833057
31.150503 18.72913 -64.895729
29.29332 19.730604 -66.832802
28.962889 17.553076 -67.833138
28.31568 26.809137 -60.891594
27.479852 27.398259 -61.837389
27.426811 27.792603 -60.749571
19.884138 31.125906 -66.233944
19.987268 31.601821 -65.26374
20.965944 30.908177 -65.622342
19.774787 30.522478 -67.19429
19.884138 31.125906 -66.233944
20.653756 29.757418 -67.571396
19.565729 29.847634 -68.173141
19.774787 30.522478 -67.19429
34.244884 18.547434 -57.995699
34.793484 17.870281 -56.839365
34.827599 17.231228 -57.8083
32.680004 11.823846 -64.687588
32.870736 13.067739 -64.247071
33.490765 11.292243 -63.680806
32.463189 10.531274 -65.054993
31.843159 12.30677 -65.621258
32.680004 11.823846 -64.687588
23.870102 29.595744 -64.426265
22.993893 30.365806 -64.111599
24.715301 28.764634 -64.671486
23.744142 29.125948 -65.466106
23.870102 29.595744 -64.426265
18.963636 27.44995 -70.484527
18.078528 28.263218 -70.198109
19.11715 28.370976 -69.772922
19.840119 26.532004 -70.701267
18.963636 27.44995 -70.484527
22.530037 23.334854 -70.90921
21.632829 24.497011 -70.908562
22.717489 24.373129 -70.382683
23.330959 22.219712 -70.835491
22.530037 23.334854 -70.90921
24.961518 19.729942 -70.464389
26.097595 19.454176 -69.759632
34.524353 19.229864 -53.684477
35.141775 17.996393 -53.555646
34.681292 18.786049 -54.754337
33.88695 20.331713 -53.779325
34.524353 19.229864 -53.684477
33.324837 21.208633 -55.012121
33.88695 20.331713 -53.779325
31.38436 23.576229 -58.592048
32.03667 22.890713 -57.42689
32.184619 22.400177 -58.434122
30.734754 24.186322 -59.686098
30.586806 24.676858 -58.678866
31.38436 23.576229 -58.592048
29.400386 14.753037 -67.823135
30.078972 13.176341 -67.342208
26.601788 27.929199 -62.759268
25.726928 28.355552 -63.727407
27.490658 26.945733 -62.901291
26.601788 27.929199 -62.759268
27.479852 27.398259 -61.837389
18.459401 29.898469 -68.64127
17.352522 29.85239 -69.091591
19.33837 29.133409 -69.018375
18.459401 29.898469 -68.64127
19.565729 29.847634 -68.173141
27.113667 19.262144 -69.020489
26.097595 19.454176 -69.759632
26.27123 20.635872 -69.33506
34.754742 18.369532 -55.826135
34.793484 17.870281 -56.839365
34.137319 19.603003 -55.954966
34.681292 18.786049 -54.754337
34.754742 18.369532 -55.826135
30.697536 11.513362 -66.842865
30.078972 13.176341 -67.342208
31.007779 12.677179 -66.488007
21.984009 30.670575 -64.936512
22.993893 30.365806 -64.111599
21.880879 30.19466 -65.906715
20.965944 30.908177 -65.622342
21.984009 30.670575 -64.936512
25.600969 27.885756 -64.767248
24.715301 28.764634 -64.671486
25.726928 28.355552 -63.727407
34.877312 16.454884 -58.590442
34.827599 17.231228 -57.8083
34.847071 15.704611 -59.394823
34.248758 17.158107 -59.769014
34.877312 16.454884 -58.590442
34.801437 14.822126 -60.155195
34.847071 15.704611 -59.394823
34.679455 13.987918 -60.893988
34.096535 15.573626 -61.312188
34.801437 14.822126 -60.155195
34.513626 13.059849 -61.617398
34.679455 13.987918 -60.893988
34.367098 11.958208 -62.212052
33.828024 13.637778 -62.645634
34.513626 13.059849 -61.617398
34.252327 10.668944 -62.656517
34.367098 11.958208 -62.212052
33.490765 11.292243 -63.680806
34.252327 10.668944 -62.656517
17.167912 28.990985 -69.878483
17.352522 29.85239 -69.091591
17.167912 28.990985 -69.878483
18.078528 28.263218 -70.198109
20.74913 25.520793 -70.862614
19.840119 26.532004 -70.701267
20.911269 26.546498 -70.220687
20.74913 25.520793 -70.862614
21.632829 24.497011 -70.908562
24.15119 21.028177 -70.680927
23.330959 22.219712 -70.835491
24.434927 22.019438 -70.228767
24.15119 21.028177 -70.680927
24.961518 19.729942 -70.464389
32.711366 22.056203 -56.205019
33.324837 21.208633 -55.012121
33.450399 20.86709 -56.076065
32.711366 22.056203 -56.205019
32.03667 22.890713 -57.42689
29.828401 25.612372 -58.662348
30.586806 24.676858 -58.678866
29.099919 26.245216 -59.788345
29.828401 25.612372 -58.662348
29.15296 25.850872 -60.876164
28.31568 26.809137 -60.891594
29.099919 26.245216 -59.788345
27.951461 17.816762 -68.6391
27.113667 19.262144 -69.020489
28.125096 18.998458 -68.214528
28.687224 16.359496 -68.246029
29.676052 15.946617 -67.410244
29.400386 14.753037 -67.823135
27.951461 17.816762 -68.6391
28.687224 16.359496 -68.246029
32.215601 9.159148 -65.367051
32.463189 10.531274 -65.054993
31.343247 9.718839 -66.243496
32.215601 9.159148 -65.367051
30.697536 11.513362 -66.842865
31.343247 9.718839 -66.243496
3 47 13 48
3 47 48 49
3 0 50 52
3 50 51 52
3 0 53 54
3 0 55 57
3 55 15 56
3 55 56 57
3 1 18 16
3 1 20 18
3 2 58 60
3 58 21 59
3 58 59 60
3 2 23 21
3 2 25 23
3 61 28 62
3 63 62 26
3 61 62 63
3 64 30 65
3 66 65 28
3 64 65 66
3 67 31 68
3 69 33 70
3 71 70 31
3 69 70 71
3 4 34 12
3 4 35 34
3 6 72 74
3 74 73 14
3 72 73 74
3 6 75 76
3 3 37 32
3 7 38 17
3 7 77 79
3 79 78 38
3 77 78 79
3 7 80 81
3 83 82 19
3 8 84 86
3 84 85 86
3 8 87 88
3 8 89 90
3 9 91 93
3 93 92 22
3 91 92 93
3 9 94 96
3 94 39 95
3 94 95 96
3 9 40 39
3 10 41 24
3 10 42 41
3 5 43 36
3 11 44 27
3 11 45 44
3 11 46 45
3 98 97 29
3 99 12 100
3 13 101 103
3 101 12 102
3 101 102 103
3 13 4 12
3 104 14 105
3 15 106 108
3 106 14 107
3 106 107 108
3 15 6 14
3 16 17 3
3 18 17 16
3 18 7 17
3 18 19 7
3 20 19 18
3 20 109 111
3 111 110 19
3 109 110 111
3 21 112 113
3 21 114 116
3 114 8 115
3 114 115 116
3 21 22 8
3 23 22 21
3 23 9 22
3 23 24 9
3 25 24 23
3 25 10 24
3 26 27 5
3 28 27 26
3 28 11 27
3 28 29 11
3 30 29 28
3 30 117 119
3 119 118 29
3 117 118 119
3 31 120 121
3 31 122 124
3 122 0 123
3 122 123 124
3 31 32 0
3 33 32 31
3 33 3 32
3 12 125 127
3 125 33 126
3 125 126 127
3 34 33 12
3 34 3 33
3 34 16 3
3 35 16 34
3 35 1 16
3 128 2 129
3 130 36 131
3 132 131 2
3 130 131 132
3 133 36 134
3 135 5 136
3 137 136 36
3 135 136 137
3 138 5 139
3 140 26 141
3 142 141 5
3 140 141 142
3 143 26 144
3 146 145 26
3 14 147 148
3 150 149 14
3 32 15 0
3 37 15 32
3 37 6 15
3 17 37 3
3 38 37 17
3 38 6 37
3 38 151 153
3 153 152 6
3 151 152 153
3 155 154 38
3 19 156 158
3 158 157 7
3 156 157 158
3 160 159 19
3 22 161 163
3 163 162 8
3 161 162 163
3 165 164 22
3 39 166 167
3 39 168 169
3 39 170 172
3 170 13 171
3 170 171 172
3 40 13 39
3 40 4 13
3 24 40 9
3 41 40 24
3 41 4 40
3 41 35 4
3 42 35 41
3 42 1 35
3 36 25 2
3 43 25 36
3 43 10 25
3 27 43 5
3 44 43 27
3 44 10 43
3 44 42 10
3 45 42 44
3 45 1 42
3 45 20 1
3 46 20 45
3 46 173 175
3 175 174 20
3 173 174 175
3 29 46 11
3 176 46 177
3 178 177 29
3 176 177 178
3 180 179 46
3 181 30 182
3 183 30 184
3 186 185 30
