ply
format ascii 1.0
element vertex 315
property float x
property float y
property float z
element face 306
property list uchar int vertex_index
end_header
7.079351 53.219219 -43.752502
-6.765751 57.933113 -51.214153
-15.656381 44.229809 -52.352444
0.875525 56.505856 -48.405788
-14.560674 57.515198 -52.515133
-8.926097 44.747826 -52.946301
-19.109072 44.969933 -51.817654
-18.617989 50.932861 -52.412769
4.265379 55.067822 -46.316799
2.547865 50.815121 -49.416855
-10.802977 58.12912 -52.037537
-11.826715 51.072067 -52.550327
-8.055686 51.529736 -52.235268
-2.77343 57.507832 -49.964939
-4.419386 51.644806 -51.651707
-0.663879 51.397968 -50.684605
-18.054266 57.040169 -52.658085
-15.302791 51.102924 -52.604153
-12.358906 44.517128 -52.71669
-5.509336 45.429459 -52.966743
-21.11426 54.738537 -52.313644
-20.133144 51.60804 -52.252316
-19.71702 54.120792 -52.486156
5.707916 54.519516 -44.999008
5.001066 52.388859 -46.744396
-8.854052 57.915665 -51.70216
-9.372482 54.745644 -52.085327
-7.464293 54.656776 -51.781967
-17.329863 44.579933 -52.124805
-17.542717 41.377914 -51.783585
-14.018003 40.713737 -52.422291
-0.850833 56.864525 -49.247398
-1.838057 54.337364 -50.298935
-0.002713 53.951817 -49.62112
-16.463722 57.499294 -52.629559
-16.736147 54.21265 -52.63261
-15.060726 54.326794 -52.605286
-10.317771 48.069504 -52.6726
-12.079716 47.917114 -52.669704
-10.663384 44.708912 -52.842239
-10.856547 41.36956 -52.930569
-9.254285 41.639378 -53.140289
-3.271542 48.723854 -52.092716
-5.020429 48.700668 -52.323765
-18.854639 48.045109 -52.165565
-17.155005 47.761784 -52.373627
2.617516 55.982441 -47.386379
1.7049 53.487949 -48.858639
3.355834 53.122074 -47.871307
-12.703854 58.076931 -52.308228
-13.120691 54.46204 -52.497578
-11.283476 54.665516 -52.32531
-9.949242 51.505085 -52.413765
-8.644605 48.232346 -52.62648
-4.744949 57.6731 -50.659588
-5.581295 54.71954 -51.36887
-3.641996 54.516178 -50.873699
-2.55652 51.512772 -51.238144
-1.411326 48.80175 -51.725319
0.962275 51.032234 -50.157211
0.283063 48.538754 -51.37915
8.337428 52.025585 -42.27478
-19.528019 56.859062 -52.608227
-14.092633 61.208294 -52.322781
-12.106563 61.350842 -52.031597
-10.08689 61.230938 -51.656273
-7.971127 61.218315 -51.144226
-5.831938 60.820461 -50.5476
-3.739344 60.518024 -49.819103
-1.803137 60.214417 -48.999966
0.073874 59.767139 -48.069016
1.821054 58.957714 -47.12318
3.532964 58.239052 -45.946468
5.017063 57.427269 -44.725395
6.521947 56.192669 -43.293571
-18.354422 54.032494 -52.586632
-17.035984 51.080112 -52.544601
-15.586492 47.777466 -52.5168
-13.599918 51.173706 -52.600082
-13.879304 47.696445 -52.615723
-14.069263 44.323055 -52.549976
-12.453017 41.038631 -52.69096
-6.137774 51.605961 -51.96748
-6.773894 48.332733 -52.530323
-7.271711 45.035702 -52.990875
-20.157029 55.34594 -52.497438
-20.41564 54.429665 -52.3999
-20.855649 55.654812 -52.411182
6.749045 52.419621 -44.643632
6.063328 53.069769 -45.266886
6.393633 53.869368 -44.375755
-15.727449 42.590411 -52.230804
-16.56419 42.765473 -52.116985
-16.493122 44.404871 -52.238625
-14.837192 42.471773 -52.387367
-14.90826 40.832375 -52.265728
-15.727449 42.590411 -52.230804
-3.559814 47.257624 -52.483034
-2.738587 47.374491 -52.407055
4.590994 51.405567 -47.6154
5.339576 51.124409 -47.094031
-19.157091 43.304062 -51.607473
-19.905852 45.14041 -51.633253
-17.537843 39.654485 -51.586058
-16.710021 39.565259 -51.794052
0.740468 47.344477 -51.771853
1.133922 48.514742 -51.079407
-0.108197 47.336327 -51.940815
0.740468 47.344477 -51.771853
8.654301 50.626182 -42.611635
8.8969 51.271803 -41.53887
-13.754903 62.96369 -52.16799
-14.800446 62.701525 -52.3254
-12.761868 63.034964 -52.022398
-13.099598 61.279568 -52.177189
-13.754903 62.96369 -52.16799
-9.668228 62.858808 -51.397106
-10.660199 62.796507 -51.642023
-8.610347 62.852497 -51.141083
-9.029008 61.224626 -51.40025
-9.668228 62.858808 -51.397106
-5.334831 62.27592 -50.156456
-6.416568 62.586507 -50.511879
-4.288534 62.124702 -49.792208
-4.785641 60.669242 -50.183352
-5.334831 62.27592 -50.156456
-1.349743 61.580671 -48.498606
-2.353027 61.865416 -48.975861
-0.411238 61.357033 -48.033131
-0.864631 59.990778 -48.534491
-1.349743 61.580671 -48.498606
2.325992 60.132006 -46.447884
1.423067 60.690638 -47.008358
3.181947 59.772675 -45.859527
2.677009 58.598383 -46.534824
2.325992 60.132006 -46.447884
5.48979 58.400272 -43.895458
4.747901 58.963183 -44.586729
6.242232 57.782972 -43.179546
5.769505 56.809969 -44.009483
5.48979 58.400272 -43.895458
-10.919113 39.667581 -52.928526
-10.132857 39.851938 -53.100205
-20.623702 53.173288 -52.28298
-20.85517 51.856321 -52.11806
-21.345728 53.42157 -52.148724
5.709903 52.004441 -46.139579
5.354491 53.454188 -45.871702
6.063328 53.069769 -45.266886
5.339576 51.124409 -47.094031
5.709903 52.004441 -46.139579
-16.670617 41.164463 -51.946375
-17.43629 42.978923 -51.954195
-16.56419 42.765473 -52.116985
-16.710021 39.565259 -51.794052
-16.670617 41.164463 -51.946375
-14.105915 39.104492 -52.305287
-14.90826 40.832375 -52.265728
-13.231177 39.11216 -52.506726
-14.105915 39.104492 -52.305287
2.266322 49.652925 -50.098259
3.050013 49.604109 -49.722421
-9.331726 39.986847 -53.205065
-10.132857 39.851938 -53.100205
-10.055416 41.504469 -53.035429
-4.434257 47.246031 -52.598558
-4.145986 48.712261 -52.208241
-3.559814 47.257624 -52.483034
-4.678711 45.610426 -52.920047
-5.264883 47.065064 -52.645254
-4.434257 47.246031 -52.598558
-19.76174 46.814196 -51.867722
-19.905852 45.14041 -51.633253
-20.273776 50.13325 -52.085053
-20.85517 51.856321 -52.11806
-19.634524 48.351784 -52.041677
-20.273776 50.13325 -52.085053
-19.493892 49.826574 -52.20894
-18.981856 46.507521 -51.991609
-19.76174 46.814196 -51.867722
-19.634524 48.351784 -52.041677
3.768378 51.772175 -48.178855
4.17845 52.755466 -47.307851
4.590994 51.405567 -47.6154
3.364394 50.618698 -48.951629
2.951849 51.968598 -48.644081
3.768378 51.772175 -48.178855
3.050013 49.604109 -49.722421
3.364394 50.618698 -48.951629
-18.373913 41.508052 -51.590439
-19.157091 43.304062 -51.607473
-18.325895 43.173924 -51.800619
-18.373913 41.508052 -51.590439
-17.537843 39.654485 -51.586058
-1.808479 47.413438 -52.223356
-2.738587 47.374491 -52.407055
-2.341434 48.762802 -51.909018
1.473527 49.761482 -50.468437
1.75507 50.923677 -49.787033
2.266322 49.652925 -50.098259
0.622669 49.785494 -50.76818
1.473527 49.761482 -50.468437
1.133922 48.514742 -51.079407
-0.955391 47.467825 -52.1139
-0.564132 48.670252 -51.552234
-0.108197 47.336327 -51.940815
-1.808479 47.413438 -52.223356
-0.955391 47.467825 -52.1139
8.072314 51.244703 -43.247333
7.443276 51.84152 -43.986194
7.708389 52.622402 -43.013641
8.072314 51.244703 -43.247333
8.654301 50.626182 -42.611635
-20.110894 58.058229 -52.577116
-20.062528 56.715075 -52.558473
-19.457952 58.428505 -52.619639
-20.110894 58.058229 -52.577116
-18.721075 58.519058 -52.644568
-18.791142 56.949616 -52.633156
-19.457952 58.428505 -52.619639
-17.920482 58.732124 -52.642885
-18.721075 58.519058 -52.644568
-17.125211 58.961687 -52.628622
-17.258994 57.269731 -52.643822
-17.920482 58.732124 -52.642885
-16.197981 59.135464 -52.576076
-17.125211 58.961687 -52.628622
-15.246457 59.143416 -52.518863
-15.512198 57.507246 -52.572346
-16.197981 59.135464 -52.576076
-15.012436 60.989964 -52.422687
-14.800446 62.701525 -52.3254
-14.326653 59.361746 -52.418957
-15.246457 59.143416 -52.518863
-15.012436 60.989964 -52.422687
-11.670036 62.856459 -51.829685
-12.761868 63.034964 -52.022398
-11.096726 61.29089 -51.843935
-11.670036 62.856459 -51.829685
-10.660199 62.796507 -51.642023
-7.486162 62.785434 -50.810192
-8.610347 62.852497 -51.141083
-6.901533 61.019388 -50.845913
-7.486162 62.785434 -50.810192
-6.416568 62.586507 -50.511879
-3.32113 62.017219 -49.38543
-4.288534 62.124702 -49.792208
-3.870321 63.623897 -49.358534
-2.771241 60.36622 -49.409534
-3.32113 62.017219 -49.38543
-2.353027 61.865416 -48.975861
0.549477 61.09535 -47.481276
-0.411238 61.357033 -48.033131
0.947464 59.362426 -47.596098
0.549477 61.09535 -47.481276
1.423067 60.690638 -47.008358
4.005852 59.369074 -45.197266
3.181947 59.772675 -45.859527
4.275014 57.833161 -45.335932
4.005852 59.369074 -45.197266
4.747901 58.963183 -44.586729
6.89941 57.200283 -42.434261
6.242232 57.782972 -43.179546
7.150459 55.611711 -42.555779
6.89941 57.200283 -42.434261
7.429161 54.124987 -42.785244
6.800649 54.705944 -43.523037
7.150459 55.611711 -42.555779
8.0582 53.52817 -42.046383
7.708389 52.622402 -43.013641
7.429161 54.124987 -42.785244
8.621734 52.741287 -41.319107
8.0582 53.52817 -42.046383
9.181207 51.987505 -40.583196
8.8969 51.271803 -41.53887
8.621734 52.741287 -41.319107
-21.79854 55.315476 -52.184951
-21.345728 53.42157 -52.148724
-21.424979 56.344012 -52.33535
-21.79854 55.315476 -52.184951
-22.109259 56.92095 -52.206657
-20.855649 55.654812 -52.411182
-21.424979 56.344012 -52.33535
-19.62252 55.489927 -52.547191
-20.157029 55.34594 -52.497438
-20.062528 56.715075 -52.558473
-12.448683 39.274607 -52.64106
-13.231177 39.11216 -52.506726
-13.23551 40.876184 -52.556625
-11.717347 39.502117 -52.808721
-11.654782 41.204096 -52.810764
-10.919113 39.667581 -52.928526
-12.448683 39.274607 -52.64106
-11.717347 39.502117 -52.808721
-4.857466 44.056206 -53.283971
-4.678711 45.610426 -52.920047
-5.66653 43.846178 -53.236408
-4.857466 44.056206 -53.283971
-6.547717 43.649299 -53.248474
-6.390524 45.23258 -52.978809
-5.66653 43.846178 -53.236408
-7.407058 43.430756 -53.170771
-6.547717 43.649299 -53.248474
-8.234251 43.286817 -53.148483
-8.098904 44.891764 -52.968588
-7.407058 43.430756 -53.170771
-8.398345 41.732594 -53.245477
-9.090191 43.193602 -53.043295
-8.234251 43.286817 -53.148483
-8.522996 40.212229 -53.371837
-8.398345 41.732594 -53.245477
-9.331726 39.986847 -53.205065
-8.522996 40.212229 -53.371837
6.749045 52.419621 -44.643632
7.443276 51.84152 -43.986194
3 85 22 86
3 87 86 20
3 85 86 87
3 0 88 90
3 90 89 23
3 88 89 90
3 1 27 25
3 2 91 93
3 93 92 28
3 91 92 93
3 2 94 96
3 94 30 95
3 94 95 96
3 3 33 31
3 4 36 34
3 5 39 37
3 5 41 39
3 98 97 42
3 7 44 21
3 7 45 44
3 8 48 46
3 100 99 24
3 10 51 49
3 12 52 26
3 12 53 52
3 6 101 102
3 104 103 29
3 13 56 54
3 15 57 32
3 15 58 57
3 9 59 47
3 105 60 106
3 108 107 60
3 110 109 61
3 111 63 112
3 113 64 114
3 115 114 63
3 113 114 115
3 116 65 117
3 118 66 119
3 120 119 65
3 118 119 120
3 121 67 122
3 123 68 124
3 125 124 67
3 123 124 125
3 126 69 127
3 128 70 129
3 130 129 69
3 128 129 130
3 131 71 132
3 133 72 134
3 135 134 71
3 133 134 135
3 136 73 137
3 138 74 139
3 140 139 73
3 138 139 140
3 16 75 62
3 17 76 35
3 17 77 76
3 11 78 50
3 18 79 38
3 18 80 79
3 18 81 80
3 142 141 40
3 14 82 55
3 19 83 43
3 19 84 83
3 20 143 145
3 143 21 144
3 143 144 145
3 22 21 20
3 22 7 21
3 23 24 8
3 146 24 147
3 148 147 23
3 146 147 148
3 150 149 24
3 25 26 10
3 27 26 25
3 27 12 26
3 28 29 6
3 151 29 152
3 153 152 28
3 151 152 153
3 155 154 29
3 30 156 157
3 30 158 159
3 31 32 13
3 33 32 31
3 33 15 32
3 161 160 9
3 34 35 16
3 36 35 34
3 36 17 35
3 37 38 11
3 39 38 37
3 39 18 38
3 39 40 18
3 41 40 39
3 41 162 164
3 164 163 40
3 162 163 164
3 42 43 14
3 165 43 166
3 167 166 42
3 165 166 167
3 168 19 169
3 170 169 43
3 168 169 170
3 171 6 172
3 21 173 174
3 44 175 177
3 177 176 21
3 175 176 177
3 44 178 180
3 178 6 179
3 178 179 180
3 44 28 6
3 45 28 44
3 45 2 28
3 46 47 3
3 48 47 46
3 48 9 47
3 24 48 8
3 181 48 182
3 183 182 24
3 181 182 183
3 184 9 185
3 186 185 48
3 184 185 186
3 188 187 9
3 49 50 4
3 51 50 49
3 51 11 50
3 26 51 10
3 52 51 26
3 52 11 51
3 52 37 11
3 53 37 52
3 53 5 37
3 29 189 191
3 191 190 6
3 189 190 191
3 193 192 29
3 54 55 1
3 56 55 54
3 56 14 55
3 32 56 13
3 57 56 32
3 57 14 56
3 57 42 14
3 58 42 57
3 58 194 196
3 196 195 42
3 194 195 196
3 47 33 3
3 59 33 47
3 59 15 33
3 197 59 198
3 199 198 9
3 197 198 199
3 60 200 202
3 200 59 201
3 200 201 202
3 60 15 59
3 60 58 15
3 203 58 204
3 205 204 60
3 203 204 205
3 207 206 58
3 61 208 210
3 210 209 0
3 208 209 210
3 212 211 61
3 213 62 214
3 215 62 216
3 217 16 218
3 219 218 62
3 217 218 219
3 220 16 221
3 222 34 223
3 224 223 16
3 222 223 224
3 225 34 226
3 227 4 228
3 229 228 34
3 227 228 229
3 63 230 231
3 63 232 234
3 232 4 233
3 232 233 234
3 63 49 4
3 64 49 63
3 64 10 49
3 235 64 236
3 65 237 239
3 237 64 238
3 237 238 239
3 65 10 64
3 65 25 10
3 66 25 65
3 66 1 25
3 240 66 241
3 67 242 244
3 242 66 243
3 242 243 244
3 67 1 66
3 67 54 1
3 68 54 67
3 68 13 54
3 245 68 246
3 245 246 247
3 69 248 250
3 248 68 249
3 248 249 250
3 69 13 68
3 69 31 13
3 70 31 69
3 70 3 31
3 251 70 252
3 71 253 255
3 253 70 254
3 253 254 255
3 71 3 70
3 71 46 3
3 72 46 71
3 72 8 46
3 256 72 257
3 73 258 260
3 258 72 259
3 258 259 260
3 73 8 72
3 73 23 8
3 74 23 73
3 74 0 23
3 261 74 262
3 263 74 264
3 265 0 266
3 267 266 74
3 265 266 267
3 268 61 269
3 270 269 0
3 268 269 270
3 271 61 272
3 275 274 61
3 273 274 275
3 276 20 277
3 278 20 279
3 278 279 280
3 282 281 20
3 62 283 285
3 283 22 284
3 283 284 285
3 75 22 62
3 75 7 22
3 35 75 16
3 76 75 35
3 76 7 75
3 76 45 7
3 77 45 76
3 77 2 45
3 50 36 4
3 78 36 50
3 78 17 36
3 38 78 11
3 79 78 38
3 79 17 78
3 79 77 17
3 80 77 79
3 80 2 77
3 80 30 2
3 81 30 80
3 81 286 288
3 288 287 30
3 286 287 288
3 40 81 18
3 289 81 290
3 291 290 40
3 289 290 291
3 293 292 81
3 55 27 1
3 82 27 55
3 82 12 27
3 43 82 14
3 83 82 43
3 83 12 82
3 83 53 12
3 84 53 83
3 84 5 53
3 294 19 295
3 296 19 297
3 298 84 299
3 300 299 19
3 298 299 300
3 301 84 302
3 303 5 304
3 305 304 84
3 303 304 305
3 306 41 307
3 308 307 5
3 306 307 308
3 309 41 310
3 312 311 41
3 314 313 0
