ply
format ascii 1.0
element vertex 252
property float x
property float y
property float z
element face 239
property list uchar int vertex_index
end_header
11.678028 -75.885155 35.820042
18.380379 -75.978767 39.37735
8.055037 -67.669212 43.143166
14.918705 -76.318474 37.641666
17.161051 -79.616432 33.89843
9.367559 -64.854622 48.350254
6.32924 -63.176182 46.669785
0.934862 -67.769302 35.197144
3.744562 -69.108902 36.384705
16.365402 -72.94574 43.211971
13.018601 -72.568825 41.593388
11.08876 -68.795135 45.039532
9.842236 -71.69191 39.76606
5.085143 -66.146446 41.46019
6.773019 -70.696617 37.716133
8.52766 -75.002335 34.021393
13.341187 -76.092697 36.894279
14.317424 -78.078178 34.784927
5.474431 -60.95731 48.140423
0.23215 -69.493523 32.850807
1.685925 -70.070389 33.378048
15.250311 -71.227173 45.09457
14.740462 -72.998413 42.264549
13.71288 -71.06459 44.274975
8.645674 -66.158691 45.828033
10.281526 -66.836487 46.824024
9.557757 -68.330299 44.011551
10.402909 -70.244057 42.33353
8.865372 -69.725021 41.353081
4.172067 -63.763878 43.177143
3.632219 -65.37075 40.632786
4.599687 -71.522408 34.388474
5.207861 -69.812035 37.094978
6.054552 -72.096024 35.174061
7.600712 -72.810463 35.902248
16.623911 -76.289703 38.514732
17.624338 -77.770927 36.66296
15.998035 -78.027756 35.760777
7.75123 -63.836823 47.671803
7.156419 -65.432716 44.935837
1.543501 -66.141716 37.482212
3.001542 -66.879715 38.178204
2.354689 -68.448639 35.755836
3.136237 -70.863419 33.763569
17.364433 -74.536026 41.278133
15.643588 -74.705345 40.351604
13.927128 -74.4627 39.624069
12.353611 -74.160782 38.796143
-0.54111 -67.005966 34.757637
-1.224255 -68.902596 32.44083
18.804428 -79.036453 34.941174
11.862854 -67.322723 47.822891
12.652705 -69.209808 45.982849
12.085433 -70.710449 43.371273
11.368999 -72.230507 40.577988
10.763442 -73.831932 37.784592
4.778052 -62.343323 45.623634
5.631723 -64.57196 44.077896
6.485581 -66.804276 42.358986
4.461299 -67.553093 39.012798
5.88597 -68.384827 39.638493
7.309548 -68.989166 40.53371
8.262441 -71.149246 38.782673
9.144264 -73.275574 36.910271
10.078845 -75.419998 34.984585
12.199334 -76.890011 34.870604
13.030914 -76.993782 35.407722
12.509607 -75.988926 36.35716
11.392632 -76.782894 34.35646
12.199334 -76.890011 34.870604
5.072268 -59.819015 48.854004
5.861726 -60.271267 49.41462
0.617684 -70.663841 31.907324
-0.099925 -70.389496 31.714205
14.794774 -70.363647 46.014715
15.609419 -70.432678 46.404573
14.026059 -70.282356 45.604917
14.481596 -71.145882 44.684772
14.794774 -70.363647 46.014715
18.895842 -76.616783 38.439169
19.194183 -75.680927 39.760252
2.871455 -64.934433 40.243178
3.20187 -64.196968 41.446321
5.770688 -72.997017 33.789142
5.32712 -71.809216 34.781267
5.043256 -72.710209 33.396349
6.503349 -73.226566 34.222773
5.770688 -72.997017 33.789142
14.920821 -78.967437 33.870069
14.052216 -78.986537 33.353366
7.040235 -63.506502 47.170794
7.385948 -62.819518 48.428181
6.674954 -62.489197 47.927172
2.779184 -71.661152 32.562834
2.411081 -70.466904 33.570808
2.054028 -71.264637 32.370074
3.528391 -72.015575 32.794534
2.779184 -71.661152 32.562834
17.154935 -72.780735 43.684579
16.645006 -72.055939 44.580858
16.864917 -73.740883 42.245052
17.65445 -73.575878 42.71766
17.154935 -72.780735 43.684579
-1.231091 -66.71904 34.527372
-0.912098 -65.801983 35.59955
-1.572663 -67.667355 33.368969
-0.882683 -67.954281 33.599233
-1.231091 -66.71904 34.527372
10.193782 -65.145607 48.893732
9.746835 -64.167279 49.6194
4.040387 -61.82694 45.232513
4.367102 -61.138391 46.429199
8.994567 -76.113942 33.02195
9.77016 -76.322773 33.503546
9.303252 -75.211167 34.502989
13.519032 -77.986523 34.353046
13.829306 -77.085437 35.839603
13.030914 -76.993782 35.407722
14.052216 -78.986537 33.353366
13.519032 -77.986523 34.353046
6.247549 -61.379761 48.662491
5.861726 -60.271267 49.41462
5.901836 -62.066746 47.405104
6.674954 -62.489197 47.927172
6.247549 -61.379761 48.662491
1.344571 -70.952275 32.170944
0.959037 -69.781956 33.114428
0.617684 -70.663841 31.907324
2.054028 -71.264637 32.370074
1.344571 -70.952275 32.170944
16.08746 -71.196655 45.522157
15.609419 -70.432678 46.404573
15.807856 -72.086456 44.15327
16.645006 -72.055939 44.580858
16.08746 -71.196655 45.522157
17.691148 -80.358448 32.920131
16.831923 -80.579773 32.433612
3.471794 -63.393532 42.7185
3.737395 -62.537218 44.009268
3.902143 -64.567314 41.904965
3.471794 -63.393532 42.7185
3.20187 -64.196968 41.446321
7.276429 -73.583786 34.586866
6.827632 -72.453243 35.538155
6.503349 -73.226566 34.222773
7.739903 -74.679722 33.646439
8.064186 -73.906399 34.961821
7.276429 -73.583786 34.586866
8.158092 -75.853211 32.573801
7.739903 -74.679722 33.646439
15.761126 -78.942227 34.357995
15.15773 -78.052967 35.272852
14.920821 -78.967437 33.870069
16.342634 -79.736565 33.426821
16.579543 -78.822094 34.829603
15.761126 -78.942227 34.357995
16.831923 -80.579773 32.433612
16.342634 -79.736565 33.426821
8.959489 -63.777396 49.184386
9.746835 -64.167279 49.6194
8.151324 -63.268496 48.84516
7.385948 -62.819518 48.428181
8.559394 -64.345723 48.011028
8.959489 -63.777396 49.184386
8.151324 -63.268496 48.84516
2.272521 -66.510716 37.830208
2.556117 -65.688916 39.015887
1.827096 -65.319916 38.66789
4.260116 -72.34507 33.106987
3.867962 -71.192914 34.076021
3.528391 -72.015575 32.794534
5.043256 -72.710209 33.396349
4.260116 -72.34507 33.106987
18.703088 -75.018208 40.77705
19.194183 -75.680927 39.760252
18.195115 -74.296837 41.727441
17.65445 -73.575878 42.71766
17.872406 -75.257396 40.327742
18.703088 -75.018208 40.77705
18.195115 -74.296837 41.727441
1.140862 -64.9217 38.336123
1.827096 -65.319916 38.66789
0.834067 -65.754284 37.202663
1.140862 -64.9217 38.336123
0.529747 -66.568077 36.06013
1.239181 -66.955509 36.339678
0.834067 -65.754284 37.202663
-0.208239 -66.186409 35.840376
-0.912098 -65.801983 35.59955
0.196876 -67.387634 34.97739
0.529747 -66.568077 36.06013
-0.208239 -66.186409 35.840376
-0.828127 -70.094032 31.509216
-0.099925 -70.389496 31.714205
-0.496053 -69.198059 32.645819
18.517821 -77.512863 37.081974
18.895842 -76.616783 38.439169
18.002358 -76.874847 38.020155
19.107866 -78.145626 36.221081
18.517821 -77.512863 37.081974
18.214383 -78.40369 35.802067
19.628141 -78.683003 35.310383
19.107866 -78.145626 36.221081
18.512836 -80.068458 33.441503
17.98274 -79.326442 34.419802
17.691148 -80.358448 32.920131
19.297386 -79.684051 33.939161
18.512836 -80.068458 33.441503
19.628141 -78.683003 35.310383
19.297386 -79.684051 33.939161
10.650765 -66.136539 48.130617
10.193782 -65.145607 48.893732
9.824542 -65.845555 47.587139
11.441429 -66.379658 48.63005
10.650765 -66.136539 48.130617
11.07219 -67.079605 47.323458
12.225935 -66.673325 49.018507
11.441429 -66.379658 48.63005
12.651016 -67.621002 48.129583
12.225935 -66.673325 49.018507
13.045941 -68.564544 47.209562
12.651016 -67.621002 48.129583
12.257779 -68.266266 46.90287
13.495971 -69.354965 46.458855
13.045941 -68.564544 47.209562
13.182792 -70.137199 45.128912
14.026059 -70.282356 45.604917
13.495971 -69.354965 46.458855
4.715291 -60.445385 47.687593
5.072268 -59.819015 48.854004
5.126241 -61.650317 46.882029
4.715291 -60.445385 47.687593
4.367102 -61.138391 46.429199
4.47506 -63.053601 44.400389
4.040387 -61.82694 45.232513
3.737395 -62.537218 44.009268
3.31688 -66.125233 39.405495
2.871455 -64.934433 40.243178
2.556117 -65.688916 39.015887
10.593041 -76.550316 33.938732
11.392632 -76.782894 34.35646
10.878436 -75.652577 35.402314
10.593041 -76.550316 33.938732
9.77016 -76.322773 33.503546
8.994567 -76.113942 33.02195
8.158092 -75.853211 32.573801
-1.931922 -68.560947 32.3377
-1.572663 -67.667355 33.368969
-1.53767 -69.862144 31.330622
-1.931922 -68.560947 32.3377
-0.828127 -70.094032 31.509216
-1.53767 -69.862144 31.330622
3 0 65 67
3 67 66 16
3 65 66 67
3 0 68 69
3 70 18 71
3 73 72 19
3 74 21 75
3 76 23 77
3 78 77 21
3 76 77 78
3 1 79 80
3 2 26 24
3 2 28 26
3 81 30 82
3 83 33 84
3 85 84 31
3 83 84 85
3 87 86 33
3 3 37 35
3 89 88 17
3 6 90 92
3 90 38 91
3 90 91 92
3 6 39 38
3 7 42 40
3 93 43 94
3 95 94 20
3 93 94 95
3 97 96 43
3 9 98 99
3 9 100 102
3 100 44 101
3 100 101 102
3 9 45 44
3 10 46 22
3 10 47 46
3 103 48 104
3 105 49 106
3 107 106 48
3 105 106 107
3 4 50 36
3 5 108 109
3 11 51 25
3 11 52 51
3 11 53 52
3 12 54 27
3 12 55 54
3 110 56 111
3 13 57 29
3 13 58 57
3 8 59 41
3 14 60 32
3 14 61 60
3 14 62 61
3 15 63 34
3 15 64 63
3 15 112 114
3 114 113 64
3 112 113 114
3 16 17 3
3 115 17 116
3 117 116 16
3 115 116 117
3 119 118 17
3 18 120 121
3 18 122 124
3 122 6 123
3 122 123 124
3 19 20 7
3 125 20 126
3 127 126 19
3 125 126 127
3 129 128 20
3 21 130 131
3 21 132 134
3 132 9 133
3 132 133 134
3 21 22 9
3 23 22 21
3 23 10 22
3 136 135 4
3 24 25 5
3 26 25 24
3 26 11 25
3 26 27 11
3 28 27 26
3 28 12 27
3 137 29 138
3 30 139 141
3 139 29 140
3 139 140 141
3 30 13 29
3 31 32 8
3 33 32 31
3 33 14 32
3 33 34 14
3 142 34 143
3 144 143 33
3 142 143 144
3 145 15 146
3 147 146 34
3 145 146 147
3 149 148 15
3 35 36 1
3 37 36 35
3 37 4 36
3 17 37 3
3 150 37 151
3 152 151 17
3 150 151 152
3 153 4 154
3 155 154 37
3 153 154 155
3 157 156 4
3 158 5 159
3 38 160 161
3 38 162 164
3 162 5 163
3 162 163 164
3 38 24 5
3 39 24 38
3 39 2 24
3 40 165 167
3 165 41 166
3 165 166 167
3 42 41 40
3 42 8 41
3 20 42 7
3 43 42 20
3 43 8 42
3 43 31 8
3 168 31 169
3 170 169 43
3 168 169 170
3 172 171 31
3 173 1 174
3 44 175 176
3 44 177 179
3 177 1 178
3 177 178 179
3 44 35 1
3 45 35 44
3 45 3 35
3 22 45 9
3 46 45 22
3 46 3 45
3 46 16 3
3 47 16 46
3 47 0 16
3 180 40 181
3 182 40 183
3 184 7 185
3 186 185 40
3 184 185 186
3 48 187 188
3 48 189 191
3 189 7 190
3 189 190 191
3 48 19 7
3 49 19 48
3 49 192 194
3 194 193 19
3 192 193 194
3 36 195 197
3 197 196 1
3 195 196 197
3 50 198 200
3 200 199 36
3 198 199 200
3 50 201 202
3 203 50 204
3 205 204 4
3 203 204 205
3 206 50 207
3 209 208 50
3 25 210 212
3 212 211 5
3 210 211 212
3 51 213 215
3 215 214 25
3 213 214 215
3 51 216 217
3 51 218 219
3 52 220 222
3 222 221 51
3 220 221 222
3 52 223 224
3 52 225 227
3 225 23 226
3 225 226 227
3 53 23 52
3 53 10 23
3 27 53 11
3 54 53 27
3 54 10 53
3 54 47 10
3 55 47 54
3 55 0 47
3 228 18 229
3 56 230 232
3 230 18 231
3 230 231 232
3 56 6 18
3 29 233 235
3 233 56 234
3 233 234 235
3 57 56 29
3 57 6 56
3 57 39 6
3 58 39 57
3 58 2 39
3 41 236 238
3 236 30 237
3 236 237 238
3 59 30 41
3 59 13 30
3 32 59 8
3 60 59 32
3 60 13 59
3 60 58 13
3 61 58 60
3 61 2 58
3 61 28 2
3 62 28 61
3 62 12 28
3 34 62 14
3 63 62 34
3 63 12 62
3 63 55 12
3 64 55 63
3 64 0 55
3 64 239 241
3 241 240 0
3 239 240 241
3 243 242 64
3 245 244 15
3 246 49 247
3 248 49 249
3 251 250 49
