ply
format ascii 1.0
element vertex 212
property float x
property float y
property float z
element face 210
property list uchar int vertex_index
end_header
23.715256 -72.367905 -15.474648
24.297163 -67.919022 -4.944333
19.044851 -78.307976 -6.666881
26.428782 -66.695969 -14.689404
26.649162 -60.759274 0.300434
26.374979 -62.98727 -4.653075
24.662785 -65.631401 0.201448
19.874063 -75.303246 -1.072033
26.314438 -64.999603 -9.599839
23.986267 -70.274147 -10.204516
22.40696 -70.498367 -0.337894
21.837481 -73.062729 -5.538847
21.261639 -75.69706 -11.045291
25.118294 -69.510941 -14.986058
26.361528 -67.674324 -17.223398
25.858818 -62.158142 2.717435
25.639484 -63.287445 0.378612
24.841087 -64.551201 2.850424
25.409473 -65.406517 -4.883193
26.341249 -63.922256 -6.998149
25.26054 -66.537827 -7.203038
25.197897 -67.621689 -9.871778
24.231867 -68.898323 -7.550781
22.696543 -69.189064 2.528476
21.562107 -71.407028 2.258693
19.409288 -76.884033 -3.807233
20.849422 -74.229485 -3.268512
20.471882 -75.726028 -6.122604
21.600725 -74.320671 -8.326447
20.175508 -76.991539 -8.780652
19.745361 -78.415703 -11.43501
18.726351 -79.548973 -9.32486
27.59812 -63.993546 -14.462627
27.584227 -64.969154 -16.877981
27.468784 -58.536415 0.388858
27.318892 -59.640644 -2.074916
27.315126 -60.511124 -4.632484
26.436592 -61.991863 -2.075879
25.494534 -64.399117 -2.320018
24.428825 -66.871887 -2.407298
18.020544 -79.243896 -4.245612
17.474966 -80.917999 -7.157985
22.145823 -75.288582 -15.709308
27.326298 -61.372906 -6.927444
27.316889 -62.388599 -9.248597
27.436592 -63.248268 -11.855387
26.393763 -65.804207 -12.106509
25.204535 -68.525826 -12.498131
23.880695 -71.270729 -12.723876
23.834297 -66.788391 2.822332
23.563042 -68.031914 0.163398
23.33033 -69.306404 -2.736254
21.134085 -72.937271 -0.519289
22.098629 -71.802597 -2.900734
23.128531 -70.454185 -5.245671
22.969828 -71.560829 -7.829396
22.646027 -72.97731 -10.445544
22.515951 -74.00415 -13.229556
20.881016 -77.025154 -13.659873
17.074009 -82.233978 -9.813203
24.36768 -71.391468 -16.497545
25.069199 -69.962986 -16.25325
24.416775 -70.939423 -15.230353
25.5204 -62.67839 3.96905
25.989337 -61.554863 3.975072
25.650919 -62.075111 5.226686
25.011535 -63.87492 4.035544
25.349953 -63.354672 2.78393
25.5204 -62.67839 3.96905
21.068388 -71.959934 3.414312
21.704366 -70.790279 3.615493
26.873444 -67.222756 -19.453244
26.973551 -66.705216 -18.239437
26.261421 -68.191864 -18.437205
27.058973 -59.647844 0.344646
27.133819 -59.164101 1.521149
26.724007 -60.27553 1.476937
17.478224 -79.685875 -3.071938
18.272283 -78.409172 -2.781042
17.239263 -80.484409 -4.529559
17.478224 -79.685875 -3.071938
21.996195 -75.809784 -17.068017
21.386488 -76.670536 -16.092012
23.456915 -67.292896 3.938939
23.995278 -66.136966 4.079235
20.504074 -74.120259 -0.795661
20.715139 -73.358757 0.61143
20.085127 -74.541744 0.335058
19.539008 -79.073101 -12.813417
18.937099 -79.796688 -11.754454
16.457445 -82.828327 -8.728148
17.274487 -81.575988 -8.485594
16.657924 -82.170337 -7.400539
25.690817 -69.044678 -17.37192
25.739911 -68.592633 -16.104728
25.069199 -69.962986 -16.25325
26.261421 -68.191864 -18.437205
25.690817 -69.044678 -17.37192
26.328836 -60.974964 2.685437
25.989337 -61.554863 3.975072
26.25399 -61.458708 1.508935
26.724007 -60.27553 1.476937
26.328836 -60.974964 2.685437
22.271583 -69.681297 3.750385
22.888038 -68.493233 3.792011
22.129325 -70.298046 2.393585
22.271583 -69.681297 3.750385
21.704366 -70.790279 3.615493
18.427594 -80.363323 -10.699378
18.937099 -79.796688 -11.754454
19.235856 -78.982338 -10.379935
28.179252 -63.077324 -15.542661
28.065574 -62.748967 -14.229381
28.172306 -63.565128 -16.750338
28.179252 -63.077324 -15.542661
27.591174 -64.48135 -15.670304
28.187283 -63.989843 -17.899386
28.172306 -63.565128 -16.750338
27.584901 -65.352631 -18.066728
26.972877 -66.321739 -17.050689
26.973551 -66.705216 -18.239437
28.187283 -63.989843 -17.899386
27.584901 -65.352631 -18.066728
27.572333 -58.003059 1.511189
27.133819 -59.164101 1.521149
27.87378 -57.424734 0.267813
27.572333 -58.003059 1.511189
27.817146 -57.895235 -0.882081
27.87378 -57.424734 0.267813
27.7422 -58.44735 -2.113968
27.817146 -57.895235 -0.882081
27.393838 -59.088529 -0.843029
27.710721 -58.936077 -3.28047
27.7422 -58.44735 -2.113968
27.317009 -60.075884 -3.3537
27.708838 -59.371317 -4.559254
27.710721 -58.936077 -3.28047
19.412416 -75.673684 0.217776
20.085127 -74.541744 0.335058
19.199042 -76.438847 -1.194253
19.412416 -75.673684 0.217776
18.966655 -77.229241 -2.561853
19.641675 -76.093639 -2.439633
19.199042 -76.438847 -1.194253
18.714916 -78.063964 -4.026423
18.966655 -77.229241 -2.561853
18.272283 -78.409172 -2.781042
16.966473 -81.321461 -5.985746
17.747755 -80.080948 -5.701799
17.239263 -80.484409 -4.529559
16.657924 -82.170337 -7.400539
16.966473 -81.321461 -5.985746
22.78958 -74.372658 -16.802929
23.574296 -72.912319 -16.685599
22.93054 -73.828243 -15.591978
22.78958 -74.372658 -16.802929
21.996195 -75.809784 -17.068017
27.752986 -59.739317 -5.780177
27.708838 -59.371317 -4.559254
27.758572 -60.170208 -6.927657
27.752986 -59.739317 -5.780177
27.320712 -60.942015 -5.779964
27.794566 -60.627684 -8.120188
27.758572 -60.170208 -6.927657
27.789861 -61.135531 -9.280765
27.794566 -60.627684 -8.120188
27.321593 -61.880752 -8.088021
27.845806 -61.567005 -10.450567
27.789861 -61.135531 -9.280765
27.905658 -61.99684 -11.753961
27.845806 -61.567005 -10.450567
27.376741 -62.818433 -10.551992
27.98481 -62.376328 -12.925761
27.905658 -61.99684 -11.753961
27.517356 -63.620907 -13.159007
28.065574 -62.748967 -14.229381
27.98481 -62.376328 -12.925761
24.498674 -65.018372 4.093281
25.011535 -63.87492 4.035544
24.337692 -65.669796 2.836378
24.498674 -65.018372 4.093281
23.995278 -66.136966 4.079235
23.26542 -67.988728 2.675404
23.456915 -67.292896 3.938939
22.888038 -68.493233 3.792011
20.92915 -72.593636 2.000421
21.068388 -71.959934 3.414312
21.348096 -72.172149 0.869702
20.92915 -72.593636 2.000421
20.715139 -73.358757 0.61143
20.754084 -77.538822 -15.067294
21.386488 -76.670536 -16.092012
21.513419 -76.156868 -14.68459
20.106835 -78.377826 -13.925849
20.313188 -77.720428 -12.547441
19.539008 -79.073101 -12.813417
19.979904 -78.891494 -15.33327
20.754084 -77.538822 -15.067294
20.106835 -78.377826 -13.925849
17.601423 -81.705826 -10.94355
18.427594 -80.363323 -10.699378
17.90018 -80.891475 -9.569031
16.168972 -83.575065 -10.010289
16.457445 -82.828327 -8.728148
15.552409 -84.169414 -8.925235
16.740372 -83.036579 -11.097036
16.168972 -83.575065 -10.010289
15.835335 -84.377667 -11.294123
17.601423 -81.705826 -10.94355
16.740372 -83.036579 -11.097036
24.36768 -71.391468 -16.497545
23.574296 -72.912319 -16.685599
3 0 60 62
3 62 61 13
3 60 61 62
3 63 15 64
3 63 64 65
3 66 17 67
3 68 67 15
3 66 67 68
3 1 20 18
3 1 22 20
3 69 24 70
3 2 27 25
3 2 29 27
3 2 31 29
3 3 33 32
3 73 72 14
3 71 72 73
3 4 74 76
3 74 34 75
3 74 75 76
3 4 35 34
3 4 37 35
3 6 38 16
3 6 39 38
3 77 40 78
3 80 79 40
3 82 81 42
3 5 43 36
3 8 44 19
3 8 45 44
3 8 46 45
3 9 47 21
3 9 48 47
3 83 49 84
3 10 50 23
3 10 51 50
3 7 85 87
3 85 52 86
3 85 86 87
3 11 53 26
3 11 54 53
3 11 55 54
3 12 56 28
3 12 57 56
3 12 58 57
3 89 88 30
3 90 59 91
3 92 91 41
3 90 91 92
3 13 14 3
3 93 14 94
3 95 94 13
3 93 94 95
3 97 96 14
3 15 98 99
3 15 100 102
3 100 4 101
3 100 101 102
3 15 16 4
3 17 16 15
3 17 6 16
3 18 19 5
3 20 19 18
3 20 8 19
3 20 21 8
3 22 21 20
3 22 9 21
3 103 23 104
3 24 105 107
3 105 23 106
3 105 106 107
3 24 10 23
3 25 26 7
3 27 26 25
3 27 11 26
3 27 28 11
3 29 28 27
3 29 12 28
3 29 30 12
3 31 30 29
3 31 108 110
3 110 109 30
3 108 109 110
3 32 111 112
3 33 113 115
3 115 114 32
3 113 114 115
3 33 116 117
3 14 33 3
3 118 33 119
3 120 119 14
3 118 119 120
3 122 121 33
3 34 123 124
3 34 125 126
3 34 127 128
3 35 129 131
3 131 130 34
3 129 130 131
3 35 132 133
3 35 134 136
3 134 36 135
3 134 135 136
3 37 36 35
3 37 5 36
3 16 37 4
3 38 37 16
3 38 5 37
3 38 18 5
3 39 18 38
3 39 1 18
3 137 7 138
3 139 7 140
3 141 25 142
3 143 142 7
3 141 142 143
3 40 144 146
3 144 25 145
3 144 145 146
3 40 2 25
3 40 41 2
3 147 41 148
3 149 148 40
3 147 148 149
3 151 150 41
3 42 152 154
3 154 153 0
3 152 153 154
3 156 155 42
3 36 157 158
3 43 159 161
3 161 160 36
3 159 160 161
3 43 162 163
3 19 43 5
3 44 43 19
3 44 164 166
3 166 165 43
3 164 165 166
3 44 167 168
3 45 169 171
3 171 170 44
3 169 170 171
3 45 172 173
3 45 174 176
3 174 32 175
3 174 175 176
3 46 32 45
3 46 3 32
3 21 46 8
3 47 46 21
3 47 3 46
3 47 13 3
3 48 13 47
3 48 0 13
3 177 17 178
3 49 179 181
3 179 17 180
3 179 180 181
3 49 6 17
3 23 182 184
3 182 49 183
3 182 183 184
3 50 49 23
3 50 6 49
3 50 39 6
3 51 39 50
3 51 1 39
3 185 24 186
3 52 187 189
3 187 24 188
3 187 188 189
3 52 10 24
3 26 52 7
3 53 52 26
3 53 10 52
3 53 51 10
3 54 51 53
3 54 1 51
3 54 22 1
3 55 22 54
3 55 9 22
3 28 55 11
3 56 55 28
3 56 9 55
3 56 48 9
3 57 48 56
3 57 0 48
3 57 42 0
3 58 42 57
3 58 190 192
3 192 191 42
3 190 191 192
3 30 58 12
3 193 58 194
3 195 194 30
3 193 194 195
3 198 197 58
3 196 197 198
3 41 31 2
3 59 31 41
3 59 199 201
3 201 200 31
3 199 200 201
3 202 59 203
3 202 203 204
3 205 59 206
3 205 206 207
3 209 208 59
3 211 210 0
