ply
format ascii 1.0
element vertex 192
property float x
property float y
property float z
element face 173
property list uchar int vertex_index
end_header
-1.485542 93.430611 -36.870361
-5.166464 97.577583 -17.938803
1.44423 100.907555 -28.542181
5.280593 104.559265 -17.699146
-5.412499 93.887039 -32.055031
-0.068096 101.372604 -17.994732
-3.750025 97.448509 -27.959652
-1.883642 99.942245 -23.337965
3.362089 103.244049 -23.393318
8.792567 105.853737 -22.905666
13.905029 107.424782 -21.618961
-0.051842 97.705978 -33.101227
-7.143313 93.667824 -29.568913
-6.216718 96.772263 -20.459303
-4.628001 97.885994 -23.178078
-3.622553 98.856285 -20.787525
2.521458 103.016357 -17.794071
1.767259 102.569687 -20.613472
4.430274 104.092789 -20.553782
6.050222 104.63369 -23.321138
6.996816 105.365433 -20.364178
-1.110627 99.300171 -28.346409
-2.042501 97.695381 -30.528759
0.726873 99.462341 -30.915972
-3.462886 93.82486 -34.548588
-4.247229 98.040581 -15.295433
-2.57043 99.612152 -18.156494
-1.724841 99.971481 -15.334179
0.942195 101.774918 -14.978737
3.573378 103.404945 -14.928534
-6.262741 95.400459 -27.662449
-5.598841 96.671387 -25.448278
-2.837345 98.796211 -25.805704
-0.290463 100.570267 -25.917879
-0.999856 100.756645 -20.881685
0.710434 101.670441 -23.426765
2.437822 102.215584 -26.092787
7.895255 105.799881 -17.292286
9.812066 106.532898 -19.799406
11.427188 106.798454 -22.332752
-4.658158 95.781204 -30.064217
-2.850095 95.878166 -32.57732
-0.983322 95.650551 -34.965904
-7.939992 93.41457 -28.322016
-8.327732 92.512051 -29.237541
-1.894051 92.219124 -37.531931
-2.782904 92.47411 -36.53667
-0.654705 92.915932 -37.953075
-1.894051 92.219124 -37.531931
-6.404718 96.507809 -17.860782
-5.954641 96.749691 -16.506457
-5.691591 97.174923 -19.199053
-6.929845 96.105148 -19.121032
-6.404718 96.507809 -17.860782
-5.665387 92.859448 -32.978878
-6.593718 92.852154 -31.707495
-4.437693 93.85595 -33.30181
-4.690581 92.828358 -34.225656
-5.665387 92.859448 -32.978878
-2.391797 99.222099 -13.911172
-2.986035 99.006031 -15.314806
-3.652991 98.256649 -13.891799
1.422521 101.861156 -13.608707
0.114971 100.990906 -13.704703
2.738113 102.67617 -13.583605
2.257786 102.589932 -14.953636
1.422521 101.861156 -13.608707
-3.652991 98.256649 -13.891799
-4.900377 97.231816 -13.828024
-4.306139 97.447884 -12.424391
-6.435815 96.180542 -24.099545
-6.722065 95.691624 -25.283035
4.341781 103.479317 -24.804972
3.879647 102.965084 -26.154707
2.899955 102.729816 -24.743053
8.341033 105.406887 -24.331739
6.969861 104.796864 -24.539475
7.421394 105.243713 -23.113402
9.733995 105.934841 -24.149166
8.341033 105.406887 -24.331739
9.221903 106.311085 -16.956136
8.292143 105.859764 -15.671109
10.180308 106.677594 -18.209696
8.853661 106.16639 -18.545846
9.221903 106.311085 -16.956136
12.666108 107.111618 -21.975856
11.857096 107.05674 -20.771136
13.096017 107.369903 -20.41424
13.566316 107.088787 -23.210342
12.327395 106.775623 -23.567237
12.666108 107.111618 -21.975856
14.837639 107.293201 -22.902878
13.566316 107.088787 -23.210342
-7.459125 92.742546 -30.464436
-8.327732 92.512051 -29.237541
-6.277906 93.777432 -30.811972
-6.593718 92.852154 -31.707495
-7.459125 92.742546 -30.464436
-5.42236 97.329128 -21.81869
-5.950395 96.787846 -22.964446
-6.744753 96.23098 -21.605058
14.346354 107.621525 -20.071492
13.096017 107.369903 -20.41424
15.588544 107.75594 -19.846428
15.147219 107.559196 -21.393897
14.346354 107.621525 -20.071492
-7.48454 95.628502 -20.245179
-6.929845 96.105148 -19.121032
-6.744753 96.23098 -21.605058
-7.48454 95.628502 -20.245179
-3.771576 92.671234 -35.375784
-4.690581 92.828358 -34.225656
-2.474214 93.627736 -35.709474
-2.782904 92.47411 -36.53667
-3.771576 92.671234 -35.375784
-1.218547 100.089188 -13.882424
-2.391797 99.222099 -13.911172
-0.391323 100.873199 -15.156458
-1.218547 100.089188 -13.882424
0.114971 100.990906 -13.704703
-5.495023 96.98119 -15.184772
-4.900377 97.231816 -13.828024
-4.706847 97.809082 -16.617118
-5.954641 96.749691 -16.506457
-5.495023 96.98119 -15.184772
2.420735 100.927826 -29.85644
2.826434 101.660763 -28.620728
-7.054015 95.05616 -26.390121
-7.499706 94.280888 -27.368784
-5.930791 96.035923 -26.555363
-7.054015 95.05616 -26.390121
-6.722065 95.691624 -25.283035
-5.113421 97.27869 -24.313178
-6.435815 96.180542 -24.099545
-5.950395 96.787846 -22.964446
3.32323 102.314778 -27.396031
2.826434 101.660763 -28.620728
1.941026 101.56157 -27.317484
3.32323 102.314778 -27.396031
3.879647 102.965084 -26.154707
5.685847 104.174137 -24.768883
4.341781 103.479317 -24.804972
4.706155 103.93887 -23.357228
5.685847 104.174137 -24.768883
6.969861 104.796864 -24.539475
4.054676 103.45047 -13.416837
2.738113 102.67617 -13.583605
4.826104 104.073246 -14.752046
4.054676 103.45047 -13.416837
5.679712 104.650406 -16.137352
4.426985 103.982105 -16.31384
4.826104 104.073246 -14.752046
6.987043 105.270714 -15.933922
8.292143 105.859764 -15.671109
6.587924 105.179573 -17.495716
5.679712 104.650406 -16.137352
6.987043 105.270714 -15.933922
11.049535 106.923962 -19.504463
10.180308 106.677594 -18.209696
10.619627 106.665676 -21.066079
11.049535 106.923962 -19.504463
11.857096 107.05674 -20.771136
11.051306 106.4072 -23.862709
9.733995 105.934841 -24.149166
10.109877 106.326096 -22.619209
11.051306 106.4072 -23.862709
12.327395 106.775623 -23.567237
14.837639 107.293201 -22.902878
15.147219 107.559196 -21.393897
-6.703027 94.534142 -28.615681
-7.939992 93.41457 -28.322016
-7.499706 94.280888 -27.368784
2.062056 100.205219 -31.043336
1.085552 100.184948 -29.729076
2.420735 100.927826 -29.85644
1.662671 99.341271 -32.188485
2.062056 100.205219 -31.043336
1.273313 98.463089 -33.281113
0.337515 98.584159 -32.0086
1.662671 99.341271 -32.188485
0.852584 97.451786 -34.321362
1.273313 98.463089 -33.281113
0.386844 96.424072 -35.2537
-0.517582 96.678264 -34.033566
0.852584 97.451786 -34.321362
0.010189 95.340824 -36.156601
0.386844 96.424072 -35.2537
-0.240921 94.230854 -37.108829
-1.234432 94.540581 -35.918132
0.010189 95.340824 -36.156601
-0.654705 92.915932 -37.953075
-0.240921 94.230854 -37.108829
3 43 12 44
3 0 45 46
3 0 47 48
3 1 15 13
3 3 18 16
3 3 20 18
3 1 49 50
3 1 51 53
3 51 13 52
3 51 52 53
3 2 23 21
3 4 54 55
3 4 56 58
3 56 24 57
3 56 57 58
3 59 27 60
3 61 60 25
3 59 60 61
3 62 28 63
3 64 29 65
3 66 65 28
3 64 65 66
3 67 25 68
3 67 68 69
3 70 31 71
3 7 32 14
3 7 33 32
3 5 34 26
3 8 35 17
3 8 36 35
3 8 72 74
3 74 73 36
3 72 73 74
3 9 75 77
3 77 76 19
3 75 76 77
3 9 78 79
3 80 37 81
3 82 38 83
3 84 83 37
3 82 83 84
3 10 85 87
3 85 39 86
3 85 86 87
3 10 88 90
3 90 89 39
3 88 89 90
3 10 91 92
3 6 40 30
3 11 41 22
3 11 42 41
3 12 93 94
3 12 95 97
3 95 4 96
3 95 96 97
3 13 98 100
3 98 14 99
3 98 99 100
3 15 14 13
3 15 7 14
3 16 17 5
3 18 17 16
3 18 8 17
3 18 19 8
3 20 19 18
3 20 9 19
3 101 10 102
3 105 104 10
3 103 104 105
3 13 106 107
3 13 108 109
3 21 22 6
3 23 22 21
3 23 11 22
3 24 110 111
3 24 112 114
3 112 0 113
3 112 113 114
3 25 26 1
3 27 26 25
3 27 5 26
3 115 27 116
3 28 117 119
3 117 27 118
3 117 118 119
3 28 5 27
3 28 16 5
3 29 16 28
3 29 3 16
3 25 120 121
3 25 122 124
3 122 1 123
3 122 123 124
3 126 125 2
3 127 30 128
3 31 129 131
3 129 30 130
3 129 130 131
3 31 6 30
3 14 132 134
3 132 31 133
3 132 133 134
3 32 31 14
3 32 6 31
3 32 21 6
3 33 21 32
3 33 2 21
3 26 15 1
3 34 15 26
3 34 7 15
3 17 34 5
3 35 34 17
3 35 7 34
3 35 33 7
3 36 33 35
3 36 2 33
3 36 135 137
3 137 136 2
3 135 136 137
3 139 138 36
3 19 140 142
3 142 141 8
3 140 141 142
3 144 143 19
3 145 29 146
3 147 29 148
3 149 3 150
3 151 150 29
3 149 150 151
3 37 152 153
3 37 154 156
3 154 3 155
3 154 155 156
3 37 20 3
3 38 20 37
3 38 9 20
3 157 38 158
3 39 159 161
3 159 38 160
3 159 160 161
3 39 9 38
3 39 162 164
3 164 163 9
3 162 163 164
3 166 165 39
3 168 167 10
3 30 169 171
3 169 12 170
3 169 170 171
3 40 12 30
3 40 4 12
3 22 40 6
3 41 40 22
3 41 4 40
3 41 24 4
3 42 24 41
3 42 0 24
3 172 23 173
3 174 173 2
3 172 173 174
3 175 23 176
3 177 11 178
3 179 178 23
3 177 178 179
3 180 11 181
3 182 42 183
3 184 183 11
3 182 183 184
3 185 42 186
3 187 0 188
3 189 188 42
3 187 188 189
3 191 190 0
