ply
format ascii 1.0
element vertex 276
property float x
property float y
property float z
element face 277
property list uchar int vertex_index
end_header
-20.135435 -14.550175 45.74337
-22.202553 -20.127756 40.789192
-26.232994 -11.452222 39.16222
-16.290815 -23.332975 46.117466
-21.321077 -17.174797 43.16819
-24.277246 -15.778561 40.29792
-23.183386 -12.931174 42.41951
-17.120953 -16.25602 49.022991
-15.209303 -20.562616 49.456921
-18.237984 -19.014357 46.207684
-19.122652 -21.825588 43.383888
-18.472258 -5.743446 48.670406
-25.24976 -18.900373 38.315159
-27.362991 -14.458148 37.444408
-13.302304 -24.991497 49.227772
-16.988697 -26.189781 43.176521
-19.790184 -24.844219 40.849327
-18.75754 -12.080532 48.184189
-21.93428 -10.285766 44.512207
-20.184536 -8.030369 46.84584
-24.939297 -8.575743 40.991421
-20.723177 -15.876521 44.47974
-22.292967 -15.084857 42.830448
-21.639502 -13.81601 44.072639
-18.649834 -15.493184 47.327736
-17.766644 -17.59016 47.58717
-19.289145 -16.729658 45.971844
-19.716906 -18.143435 44.723309
-22.516296 -21.820456 39.7085
-24.061357 -21.191814 38.580063
-23.717253 -19.61318 39.485771
-25.307858 -13.50093 39.803886
-25.816967 -15.099557 38.868618
-26.839905 -12.968901 38.251904
-15.750808 -22.055126 47.762581
-14.285034 -22.830765 49.321819
-14.812931 -24.281017 47.541996
-13.744876 -26.444229 47.478714
-15.254588 -25.566687 45.948128
-16.638344 -24.778467 44.612743
-20.612961 -21.104475 42.03624
-19.459927 -23.368879 42.053814
-21.006809 -22.503839 40.86142
-21.352348 -24.015118 39.776573
-17.99966 -10.857734 49.30534
-19.608368 -10.109841 47.434814
-18.710043 -8.86497 48.588909
-19.10976 -3.848452 47.688995
-19.978714 -4.911425 46.868382
-22.620766 -8.189086 43.858841
-23.415688 -9.500823 42.768276
-24.129532 -7.325039 42.024906
-21.667383 -18.790911 42.005905
-23.247459 -18.086048 40.570915
-22.74757 -16.66605 41.688366
-23.79237 -14.274823 41.31324
-24.733992 -12.086556 40.767204
-16.737518 -19.858608 47.767452
-17.200535 -21.286844 46.246162
-17.718899 -22.635286 44.655876
-18.708984 -20.397583 44.777847
-20.263969 -19.511007 43.309635
-17.85651 -7.806304 49.537407
-17.63125 -4.712039 49.441284
-26.843302 -18.407606 37.058517
-24.792809 -17.236115 39.286476
-26.35195 -16.64094 37.944447
-27.992413 -16.146627 36.527786
-18.037336 -24.068346 43.298107
-18.412785 -25.419588 41.988811
-19.551849 -13.194049 46.9161
-21.074545 -12.422565 45.176945
-20.415407 -11.163968 46.277882
-21.111113 -9.067391 45.674351
-21.775188 -7.021937 44.913425
-19.44536 -6.798332 47.673561
-20.954952 -5.927223 45.839794
-18.05205 -14.15883 48.552189
-22.486895 -11.735385 43.560268
-24.071335 -10.825632 41.78598
-25.620697 -9.99872 40.056946
-27.028434 -11.117801 38.321247
-27.33189 -11.87614 37.866089
-26.53645 -12.210562 38.707062
-17.892323 -9.3943 49.517409
-18.354851 -9.861352 48.947125
-17.537132 -10.390683 49.875624
-19.876318 -3.358774 46.735172
-19.418975 -2.821024 47.142297
-17.537132 -10.390683 49.875624
-17.216121 -11.38288 50.161923
-23.716938 -6.690945 42.520773
-23.375149 -7.757062 42.941873
-22.962555 -7.122968 43.437741
-16.675285 -17.354366 49.120461
-16.342039 -16.717223 49.839498
-17.138398 -4.27744 49.880093
-16.818331 -5.226104 50.364627
-17.91703 -3.744892 48.959259
-17.138398 -4.27744 49.880093
-25.444288 -19.766857 37.887333
-24.850086 -20.912578 38.019785
-24.655558 -20.046093 38.447611
-26.046531 -18.65399 37.686838
-26.241059 -19.520474 37.259012
-25.444288 -19.766857 37.887333
-28.166762 -14.251273 36.687183
-28.481473 -15.095513 36.228872
-27.677702 -15.302387 36.986097
-14.420122 -21.022479 50.26063
-14.902007 -19.928635 50.207546
-13.006788 -24.347917 50.093914
-13.498154 -23.26755 50.140937
-13.793669 -23.911131 49.274795
-12.548659 -25.473658 49.977707
-13.006788 -24.347917 50.093914
-12.80145 -26.115498 49.128287
-12.548659 -25.473658 49.977707
-13.271421 -27.534115 47.334369
-13.994121 -27.127819 46.581306
-16.492837 -27.359336 42.98864
-16.2797 -26.669571 43.75338
-17.180754 -26.930698 42.462385
-16.492837 -27.359336 42.98864
-19.276618 -25.927072 40.764597
-18.587919 -26.214756 41.334339
-19.101484 -25.131903 41.419069
-20.019575 -25.516342 40.284485
-19.276618 -25.927072 40.764597
-21.562255 -24.837276 39.240498
-22.120805 -23.721496 39.243487
-21.263549 -4.944881 45.363678
-20.466833 -5.419324 46.354088
-20.77543 -4.436982 45.877972
-21.72068 -5.434886 44.880867
-21.263549 -4.944881 45.363678
-18.404795 -13.119681 48.368189
-17.631767 -13.590342 49.223526
-17.984511 -12.551193 49.039526
-23.288826 -21.506135 39.144282
-23.47531 -22.309844 38.645232
-22.702779 -22.624165 39.20945
-27.668253 -12.658459 37.429236
-27.929796 -13.403082 37.025487
-27.101448 -13.713525 37.848156
-27.668253 -12.658459 37.429236
-27.33189 -11.87614 37.866089
-14.748977 -26.689048 45.816013
-13.994121 -27.127819 46.581306
-14.499732 -26.005458 46.713421
-15.412646 -26.358024 45.139183
-14.748977 -26.689048 45.816013
-16.104524 -25.963914 44.471491
-15.412646 -26.358024 45.139183
-15.946466 -25.172577 45.280435
-16.81352 -25.484124 43.894632
-16.2797 -26.669571 43.75338
-16.104524 -25.963914 44.471491
-22.702779 -22.624165 39.20945
-22.120805 -23.721496 39.243487
-21.934322 -22.917787 39.742536
-20.310795 -3.890261 46.324866
-19.544237 -4.379938 47.278689
-19.876318 -3.358774 46.735172
-20.77543 -4.436982 45.877972
-20.310795 -3.890261 46.324866
-17.605571 -11.939794 49.600102
-17.216121 -11.38288 50.161923
-18.3786 -11.469133 48.744765
-17.984511 -12.551193 49.039526
-17.605571 -11.939794 49.600102
-15.719459 -19.507664 49.337426
-14.902007 -19.928635 50.207546
-16.99813 -18.021437 48.40255
-16.675285 -17.354366 49.120461
-17.443798 -16.92309 48.305081
-16.483567 -19.15566 48.492691
-16.99813 -18.021437 48.40255
-17.252081 -18.724384 47.677311
-15.97341 -20.210612 48.612186
-15.719459 -19.507664 49.337426
-16.483567 -19.15566 48.492691
-17.027744 -8.286665 50.462988
-17.465557 -8.864968 49.991658
-17.426716 -7.267091 49.961159
-17.027744 -8.286665 50.462988
-17.73459 -6.235662 49.527659
-18.164384 -6.774875 49.103907
-17.426716 -7.267091 49.961159
-17.314086 -5.719958 49.913098
-16.818331 -5.226104 50.364627
-18.051754 -5.227742 49.055845
-17.73459 -6.235662 49.527659
-17.314086 -5.719958 49.913098
-18.656285 -3.313098 48.083115
-18.370505 -4.280245 48.56514
-17.91703 -3.744892 48.959259
-19.418975 -2.821024 47.142297
-18.656285 -3.313098 48.083115
-24.252364 -21.998801 38.150311
-23.666317 -23.116831 38.215479
-23.47531 -22.309844 38.645232
-24.252364 -21.998801 38.150311
-24.850086 -20.912578 38.019785
-27.077836 -19.306447 36.659078
-26.241059 -19.520474 37.259012
-27.635992 -18.242582 36.425027
-27.077836 -19.306447 36.659078
-28.210547 -17.112092 36.159662
-27.635992 -18.242582 36.425027
-27.417858 -17.277116 36.793152
-28.754872 -15.994204 35.856831
-28.973006 -16.95967 35.488707
-28.210547 -17.112092 36.159662
-28.754872 -15.994204 35.856831
-28.481473 -15.095513 36.228872
-28.166762 -14.251273 36.687183
-27.929796 -13.403082 37.025487
-13.957988 -22.156554 50.193079
-14.420122 -21.022479 50.26063
-14.747169 -21.69669 49.38937
-13.957988 -22.156554 50.193079
-13.498154 -23.26755 50.140937
-13.022737 -26.841864 48.253757
-12.80145 -26.115498 49.128287
-13.52359 -25.717863 48.353243
-13.022737 -26.841864 48.253757
-13.271421 -27.534115 47.334369
-17.892798 -26.545602 41.86853
-17.180754 -26.930698 42.462385
-17.700741 -25.804685 42.582666
-18.067932 -27.34077 41.214058
-17.892798 -26.545602 41.86853
-18.587919 -26.214756 41.334339
-20.800657 -25.101792 39.748108
-20.019575 -25.516342 40.284485
-20.571266 -24.429668 40.31295
-20.800657 -25.101792 39.748108
-21.562255 -24.837276 39.240498
-22.539766 -6.539394 43.965032
-22.962555 -7.122968 43.437741
-22.197977 -7.605512 44.386133
-18.283276 -8.335637 49.063158
-17.892323 -9.3943 49.517409
-17.465557 -8.864968 49.991658
-22.130798 -5.982244 44.417682
-21.36507 -6.47458 45.37661
-21.72068 -5.434886 44.880867
-22.539766 -6.539394 43.965032
-22.130798 -5.982244 44.417682
-16.750115 -15.679806 49.695095
-16.342039 -16.717223 49.839498
-17.215664 -14.631211 49.459694
-17.631767 -13.590342 49.223526
-17.586502 -15.207425 48.78759
-16.750115 -15.679806 49.695095
-17.215664 -14.631211 49.459694
-24.432569 -6.309096 41.627775
-23.716938 -6.690945 42.520773
-24.873479 -6.899483 41.120966
-24.432569 -6.309096 41.627775
-25.278361 -7.524835 40.604224
-24.534415 -7.950391 41.508164
-24.873479 -6.899483 41.120966
-25.66225 -8.241115 40.144875
-25.278361 -7.524835 40.604224
-26.002949 -8.952603 39.677637
-25.279997 -9.287232 40.524184
-25.66225 -8.241115 40.144875
-26.400849 -9.667164 39.184233
-26.002949 -8.952603 39.677637
-26.706997 -10.393915 38.73687
-25.926845 -10.725471 39.609583
-26.400849 -9.667164 39.184233
-27.028434 -11.117801 38.321247
-26.706997 -10.393915 38.73687
3 0 23 21
3 0 26 24
3 0 21 26
3 1 30 28
3 2 33 31
3 2 81 83
3 83 82 33
3 81 82 83
3 3 36 34
3 3 38 36
3 3 39 38
3 1 42 40
3 1 28 42
3 84 46 85
3 86 85 44
3 84 85 86
3 88 87 47
3 89 44 90
3 91 51 92
3 93 92 49
3 91 92 93
3 4 54 52
3 6 55 22
3 6 56 55
3 7 94 95
3 9 57 25
3 9 58 57
3 9 60 58
3 4 61 27
3 4 52 61
3 96 63 97
3 99 98 63
3 12 100 102
3 102 101 29
3 100 101 102
3 12 103 105
3 103 64 104
3 103 104 105
3 5 65 53
3 13 66 32
3 13 67 66
3 13 106 108
3 108 107 67
3 106 107 108
3 8 109 110
3 14 111 113
3 113 112 35
3 111 112 113
3 14 114 115
3 14 116 117
3 119 118 37
3 15 120 121
3 15 122 123
3 10 68 59
3 16 69 41
3 16 124 126
3 126 125 69
3 124 125 126
3 16 127 128
3 130 129 43
3 17 72 70
3 19 73 45
3 19 74 73
3 11 75 62
3 131 76 132
3 133 132 48
3 131 132 133
3 135 134 76
3 17 136 138
3 136 77 137
3 136 137 138
3 17 70 77
3 18 78 71
3 20 79 50
3 20 80 79
3 21 22 4
3 23 22 21
3 23 6 22
3 24 25 7
3 26 25 24
3 26 9 25
3 26 27 9
3 21 27 26
3 21 4 27
3 28 139 141
3 139 29 140
3 139 140 141
3 30 29 28
3 30 12 29
3 31 32 5
3 33 32 31
3 33 13 32
3 33 142 144
3 144 143 13
3 142 143 144
3 146 145 33
3 34 35 8
3 36 35 34
3 36 14 35
3 36 37 14
3 38 37 36
3 38 147 149
3 149 148 37
3 147 148 149
3 38 150 151
3 39 152 154
3 154 153 38
3 152 153 154
3 39 155 157
3 155 15 156
3 155 156 157
3 40 41 10
3 42 41 40
3 42 16 41
3 42 43 16
3 28 43 42
3 28 158 160
3 160 159 43
3 158 159 160
3 44 45 17
3 46 45 44
3 46 19 45
3 47 48 11
3 161 48 162
3 163 162 47
3 161 162 163
3 165 164 48
3 44 166 167
3 44 168 170
3 168 17 169
3 168 169 170
3 49 50 18
3 51 50 49
3 51 20 50
3 52 53 1
3 54 53 52
3 54 5 53
3 22 54 4
3 55 54 22
3 55 5 54
3 55 31 5
3 56 31 55
3 56 2 31
3 171 8 172
3 25 173 175
3 175 174 7
3 173 174 175
3 57 176 178
3 178 177 25
3 176 177 178
3 57 179 181
3 179 8 180
3 179 180 181
3 57 34 8
3 58 34 57
3 58 3 34
3 58 59 3
3 60 59 58
3 60 10 59
3 27 60 9
3 61 60 27
3 61 10 60
3 61 40 10
3 52 40 61
3 52 1 40
3 182 62 183
3 184 62 185
3 186 11 187
3 188 187 62
3 186 187 188
3 63 189 190
3 63 191 193
3 191 11 192
3 191 192 193
3 63 47 11
3 194 47 195
3 196 195 63
3 194 195 196
3 198 197 47
3 29 199 201
3 199 200 201
3 203 202 29
3 64 204 205
3 64 206 207
3 53 30 1
3 65 30 53
3 65 12 30
3 32 65 5
3 66 65 32
3 66 12 65
3 66 64 12
3 67 64 66
3 67 208 210
3 210 209 64
3 208 209 210
3 67 211 213
3 211 212 213
3 215 214 67
3 217 216 13
3 35 218 220
3 220 219 8
3 218 219 220
3 222 221 35
3 37 223 225
3 225 224 14
3 223 224 225
3 227 226 37
3 59 39 3
3 68 39 59
3 68 15 39
3 41 68 10
3 69 68 41
3 69 15 68
3 69 228 230
3 230 229 15
3 228 229 230
3 233 232 69
3 231 232 233
3 43 234 236
3 236 235 16
3 234 235 236
3 238 237 43
3 70 71 0
3 72 71 70
3 72 18 71
3 45 72 17
3 73 72 45
3 73 18 72
3 73 49 18
3 74 49 73
3 74 239 241
3 241 240 49
3 239 240 241
3 62 242 244
3 242 46 243
3 242 243 244
3 75 46 62
3 75 19 46
3 48 75 11
3 76 75 48
3 76 19 75
3 76 74 19
3 245 74 246
3 247 246 76
3 245 246 247
3 249 248 74
3 250 7 251
3 77 252 253
3 77 254 256
3 254 7 255
3 254 255 256
3 77 24 7
3 70 24 77
3 70 0 24
3 71 23 0
3 78 23 71
3 78 6 23
3 50 78 18
3 79 78 50
3 79 6 78
3 79 56 6
3 80 56 79
3 80 2 56
3 257 51 258
3 259 51 260
3 261 20 262
3 263 262 51
3 261 262 263
3 264 20 265
3 266 80 267
3 268 267 20
3 266 267 268
3 269 80 270
3 271 2 272
3 273 272 80
3 271 272 273
3 275 274 2
