ply
format ascii 1.0
element vertex 255
property float x
property float y
property float z
element face 251
property list uchar int vertex_index
end_header
-39.887543 -9.875766 17.442411
-39.089279 -19.2829 15.5522
-37.724838 -11.030354 9.859914
-37.65041 -8.905974 25.392206
-35.84803 -19.806217 7.61036
-39.469349 -13.722162 20.557068
-39.403805 -18.560732 19.41765
-39.522457 -14.608348 16.496391
-36.566586 -15.621774 8.857738
-40.068359 -5.603367 14.570599
-39.317024 -10.597344 13.572127
-38.966648 -6.366356 10.667436
-38.327488 -13.280492 24.375765
-39.296646 -9.174217 21.479223
-39.967442 -5.024754 18.447161
-38.503643 -15.289291 12.627016
-37.837139 -19.796106 11.522815
-33.564194 -19.393545 4.071786
-39.718502 -11.837421 19.031565
-39.637115 -14.215826 18.606501
-39.730106 -12.209197 16.986084
-39.35944 -19.052141 17.500528
-38.856182 -21.53237 14.804499
-40.055904 -3.556097 12.898801
-39.651741 -6.033584 12.552891
-39.571888 -3.849008 11.093891
-37.062805 -10.979344 26.626848
-37.384838 -13.214697 26.240795
-38.02216 -11.087657 24.898745
-38.85907 -11.292706 22.937923
-38.567795 -9.088853 23.520342
-39.478806 -4.802936 20.522594
-40.214806 -2.920077 16.849894
-38.641602 -10.721183 11.644296
-38.882057 -13.008667 13.056209
-38.102535 -13.186568 11.181181
-36.153458 -17.845276 8.291886
-37.217979 -17.757687 10.149066
-36.908157 -19.880304 9.522492
-37.534077 -21.865908 10.667974
-39.141983 -15.910425 21.919804
-39.180862 -18.140242 21.420494
-39.463734 -16.183969 19.972607
-39.514156 -16.617331 18.027859
-39.313419 -17.033855 16.140057
-36.580315 -8.929661 27.174936
-37.090702 -13.385955 9.361156
-35.325741 -15.840899 7.049081
-34.9263 -17.827847 6.441706
-39.998508 -7.728629 15.984201
-39.747852 -10.168484 15.470473
-39.732769 -8.010128 14.031563
-39.156513 -8.434867 12.098418
-38.313 -8.690154 10.186785
-38.5467 -15.458604 23.86264
-39.01186 -13.617016 22.522699
-39.411591 -11.579511 21.058716
-39.745064 -9.537573 19.430042
-38.266823 -6.823177 23.907127
-39.061779 -6.885359 22.02527
-39.665997 -7.10958 19.97345
-39.98822 -7.414794 17.851547
-40.16692 -5.226734 16.38063
-40.289539 -3.10611 14.838898
-39.441463 -12.649778 15.002096
-39.124599 -15.109071 14.545974
-38.833981 -17.368103 14.075858
-37.648308 -15.616595 10.76101
-38.122288 -17.571466 12.066286
-38.562859 -19.613943 13.510547
-38.26804 -21.847353 12.656407
-34.727791 -19.613762 5.824079
-39.149349 -20.240697 16.219921
-39.28443 -20.125318 17.194085
-39.224359 -19.167521 16.526364
-38.97273 -20.407635 15.178349
-39.0328 -21.365432 15.84607
-39.149349 -20.240697 16.219921
-39.80576 -2.574673 11.242233
-39.813896 -3.702552 11.996346
-40.047767 -2.428217 12.144689
-36.251663 -20.823841 8.154866
-36.781727 -20.860884 9.110932
-36.378094 -19.84326 8.566426
-35.916798 -8.869962 28.106902
-36.17456 -9.907803 27.859171
-34.718719 -15.806155 6.263659
-34.931602 -14.7796 6.476522
-34.518999 -16.799629 5.959971
-35.12602 -16.834373 6.745394
-34.718719 -15.806155 6.263659
-39.29562 -19.563573 20.113333
-39.184148 -19.353328 21.114756
-39.292333 -18.350487 20.419072
-38.016836 -14.306882 25.053635
-37.545511 -14.273984 25.986151
-37.856163 -13.247594 25.30828
-38.437094 -14.369548 24.119203
-38.126442 -15.395938 24.797073
-38.016836 -14.306882 25.053635
-38.499472 -5.716412 23.221304
-38.007918 -5.731281 24.235755
-38.89695 -5.747503 22.280376
-38.664301 -6.854268 22.966198
-38.499472 -5.716412 23.221304
-40.339441 -1.942711 15.099854
-40.252173 -3.013094 15.844396
-40.302075 -1.849695 16.105351
-40.328062 -2.092168 14.146142
-40.339441 -1.942711 15.099854
-37.821658 -22.850445 11.30042
-37.466662 -22.778199 10.303513
-33.626182 -18.510199 4.415234
-32.98753 -18.405155 3.589081
-34.145993 -19.503653 4.947933
-34.207981 -18.620308 5.291381
-33.626182 -18.510199 4.415234
-39.334333 -20.036342 18.22017
-39.356516 -19.790638 19.178731
-39.381622 -18.806437 18.459089
-39.334333 -20.036342 18.22017
-39.28443 -20.125318 17.194085
-38.952261 -22.548695 15.448211
-39.0328 -21.365432 15.84607
-38.76234 -22.572063 14.400354
-38.858419 -23.588387 15.044066
-38.952261 -22.548695 15.448211
-37.223821 -12.09702 26.433822
-36.814081 -13.033679 27.130026
-36.653064 -11.916002 27.323052
-39.355095 -3.695546 20.717244
-39.105463 -4.706291 21.529038
-39.670452 -3.690721 19.682664
-39.355095 -3.695546 20.717244
-39.914771 -3.80163 18.644947
-39.723124 -4.913845 19.484878
-39.670452 -3.690721 19.682664
-40.038453 -2.749291 17.846314
-40.091124 -3.972415 17.648528
-39.914771 -3.80163 18.644947
-40.171104 -1.72502 17.102091
-40.038453 -2.749291 17.846314
-40.302075 -1.849695 16.105351
-40.171104 -1.72502 17.102091
-37.094687 -21.853687 9.683673
-37.221117 -20.873106 10.095233
-36.781727 -20.860884 9.110932
-37.466662 -22.778199 10.303513
-37.094687 -21.853687 9.683673
-32.9879 -19.168806 3.258362
-32.98753 -18.405155 3.589081
-39.161423 -17.025334 21.670149
-38.933975 -18.033088 22.396579
-38.914535 -16.91818 22.646234
-36.415805 -10.932645 27.585127
-36.653064 -11.916002 27.323052
-36.82156 -9.954503 26.900892
-36.415805 -10.932645 27.585127
-36.17456 -9.907803 27.859171
-36.820994 -12.372409 8.71924
-37.40777 -12.208154 9.610535
-37.138061 -11.194609 8.968619
-36.452118 -13.546422 8.438138
-36.820994 -12.372409 8.71924
-36.19006 -14.664332 8.186429
-36.828644 -14.503864 9.109447
-36.452118 -13.546422 8.438138
-35.569637 -14.773895 7.282101
-34.931602 -14.7796 6.476522
-35.946163 -15.731337 7.953409
-36.19006 -14.664332 8.186429
-35.569637 -14.773895 7.282101
-38.989311 -19.215753 22.085046
-38.933975 -18.033088 22.396579
-38.989311 -19.215753 22.085046
-39.184148 -19.353328 21.114756
-39.29562 -19.563573 20.113333
-39.356516 -19.790638 19.178731
-39.491043 -2.755402 10.293944
-39.80576 -2.574673 11.242233
-39.165945 -4.009387 10.146871
-39.491043 -2.755402 10.293944
-38.863325 -5.268061 9.933644
-39.269268 -5.107682 10.880664
-39.165945 -4.009387 10.146871
-38.494084 -6.415268 9.72429
-38.863325 -5.268061 9.933644
-38.16726 -7.577167 9.483964
-38.639824 -7.528255 10.427111
-38.494084 -6.415268 9.72429
-37.813845 -8.827391 9.356758
-38.16726 -7.577167 9.483964
-37.519764 -9.997491 9.193322
-38.018919 -9.860254 10.02335
-37.813845 -8.827391 9.356758
-37.138061 -11.194609 8.968619
-37.519764 -9.997491 9.193322
-37.018249 -14.147271 26.878673
-36.814081 -13.033679 27.130026
-37.018249 -14.147271 26.878673
-37.545511 -14.273984 25.986151
-38.27496 -16.550206 24.488898
-38.126442 -15.395938 24.797073
-38.616894 -16.692269 23.617652
-38.27496 -16.550206 24.488898
-38.844341 -15.684514 22.891222
-38.914535 -16.91818 22.646234
-38.616894 -16.692269 23.617652
-36.265045 -7.889531 27.503816
-35.916798 -8.869962 28.106902
-36.896812 -7.886689 26.525185
-36.265045 -7.889531 27.503816
-37.43186 -7.874846 25.63382
-37.115363 -8.917817 26.283571
-36.896812 -7.886689 26.525185
-37.740066 -6.833447 24.891281
-38.007918 -5.731281 24.235755
-37.958617 -7.864576 24.649667
-37.43186 -7.874846 25.63382
-37.740066 -6.833447 24.891281
-39.270292 -5.844148 21.273932
-38.89695 -5.747503 22.280376
-39.105463 -4.706291 21.529038
-40.211244 -2.317162 13.176094
-40.172721 -3.331104 13.868849
-40.328062 -2.092168 14.146142
-40.047767 -2.428217 12.144689
-40.211244 -2.317162 13.176094
-38.468269 -22.729554 13.326308
-38.76234 -22.572063 14.400354
-38.562111 -21.689861 13.730453
-38.188639 -22.841167 12.294636
-37.901059 -21.856631 11.66219
-37.821658 -22.850445 11.30042
-38.468269 -22.729554 13.326308
-38.188639 -22.841167 12.294636
-34.307235 -17.727351 5.600194
-34.518999 -16.799629 5.959971
-34.827045 -18.720804 6.132893
-34.307235 -17.727351 5.600194
-34.207981 -18.620308 5.291381
-33.557875 -20.128976 3.645314
-32.9879 -19.168806 3.258362
-34.118742 -20.346933 4.579157
-33.557875 -20.128976 3.645314
-34.700541 -20.457042 5.455304
-34.145993 -19.503653 4.947933
-34.118742 -20.346933 4.579157
-35.231053 -20.651081 6.368151
-34.700541 -20.457042 5.455304
-35.791172 -20.747309 7.261292
-35.287911 -19.709989 6.71722
-35.231053 -20.651081 6.368151
-36.251663 -20.823841 8.154866
-35.791172 -20.747309 7.261292
3 0 20 18
3 1 72 74
3 74 73 21
3 72 73 74
3 1 75 77
3 75 22 76
3 75 76 77
3 78 25 79
3 80 79 23
3 78 79 80
3 3 28 26
3 3 30 28
3 2 35 33
3 4 38 36
3 4 81 83
3 83 82 38
3 81 82 83
3 5 42 40
3 7 43 19
3 7 44 43
3 84 45 85
3 86 47 87
3 88 48 89
3 90 89 47
3 88 89 90
3 6 91 93
3 93 92 41
3 91 92 93
3 9 51 49
3 11 52 24
3 11 53 52
3 12 94 96
3 96 95 27
3 94 95 96
3 12 97 99
3 97 54 98
3 97 98 99
3 12 55 54
3 13 56 29
3 13 57 56
3 100 58 101
3 102 59 103
3 104 103 58
3 102 103 104
3 14 60 31
3 14 61 60
3 14 62 61
3 105 63 106
3 107 106 32
3 105 106 107
3 109 108 63
3 10 64 50
3 15 65 34
3 15 66 65
3 8 67 46
3 16 68 37
3 16 69 68
3 16 70 69
3 111 110 39
3 17 112 113
3 17 114 116
3 114 71 115
3 114 115 116
3 18 19 5
3 20 19 18
3 20 7 19
3 21 117 119
3 119 118 6
3 117 118 119
3 121 120 21
3 22 122 123
3 22 124 126
3 124 125 126
3 23 24 9
3 25 24 23
3 25 11 24
3 26 127 129
3 127 27 128
3 127 128 129
3 28 27 26
3 28 12 27
3 28 29 12
3 30 29 28
3 30 13 29
3 130 31 131
3 132 31 133
3 134 14 135
3 136 135 31
3 134 135 136
3 137 32 138
3 139 138 14
3 137 138 139
3 140 32 141
3 143 142 32
3 33 34 10
3 35 34 33
3 35 15 34
3 36 37 8
3 38 37 36
3 38 16 37
3 38 39 16
3 144 39 145
3 146 145 38
3 144 145 146
3 148 147 39
3 149 17 150
3 40 151 153
3 151 41 152
3 151 152 153
3 42 41 40
3 42 6 41
3 19 42 5
3 43 42 19
3 43 6 42
3 43 21 6
3 44 21 43
3 44 1 21
3 154 26 155
3 45 156 158
3 156 26 157
3 156 157 158
3 45 3 26
3 159 46 160
3 161 160 2
3 159 160 161
3 162 46 163
3 164 8 165
3 166 165 46
3 164 165 166
3 47 167 168
3 47 169 171
3 169 8 170
3 169 170 171
3 47 36 8
3 48 36 47
3 48 4 36
3 41 172 173
3 175 174 41
3 177 176 6
3 49 50 0
3 51 50 49
3 51 10 50
3 24 51 9
3 52 51 24
3 52 10 51
3 52 33 10
3 53 33 52
3 53 2 33
3 178 25 179
3 180 25 181
3 182 11 183
3 184 183 25
3 182 183 184
3 185 11 186
3 187 53 188
3 189 188 11
3 187 188 189
3 190 53 191
3 192 2 193
3 194 193 53
3 192 193 194
3 196 195 2
3 27 197 198
3 200 199 27
3 54 201 202
3 54 203 204
3 54 205 207
3 205 40 206
3 205 206 207
3 55 40 54
3 55 5 40
3 29 55 12
3 56 55 29
3 56 5 55
3 56 18 5
3 57 18 56
3 57 0 18
3 208 45 209
3 210 45 211
3 212 3 213
3 214 213 45
3 212 213 214
3 58 215 216
3 58 217 219
3 217 3 218
3 217 218 219
3 58 30 3
3 59 30 58
3 59 13 30
3 31 220 222
3 220 59 221
3 220 221 222
3 60 59 31
3 60 13 59
3 60 57 13
3 61 57 60
3 61 0 57
3 61 49 0
3 62 49 61
3 62 9 49
3 32 62 14
3 63 62 32
3 63 9 62
3 63 23 9
3 223 23 224
3 225 224 63
3 223 224 225
3 227 226 23
3 50 20 0
3 64 20 50
3 64 7 20
3 34 64 10
3 65 64 34
3 65 7 64
3 65 44 7
3 66 44 65
3 66 1 44
3 46 35 2
3 67 35 46
3 67 15 35
3 37 67 8
3 68 67 37
3 68 15 67
3 68 66 15
3 69 66 68
3 69 1 66
3 69 22 1
3 70 22 69
3 70 228 230
3 230 229 22
3 228 229 230
3 39 70 16
3 231 70 232
3 233 232 39
3 231 232 233
3 235 234 70
3 236 48 237
3 71 238 240
3 238 48 239
3 238 239 240
3 71 4 48
3 241 17 242
3 243 17 244
3 245 71 246
3 247 246 17
3 245 246 247
3 248 71 249
3 250 4 251
3 252 251 71
3 250 251 252
3 254 253 4
