ply
format ascii 1.0
element vertex 282
property float x
property float y
property float z
element face 255
property list uchar int vertex_index
end_header
26.576248 -34.845402 32.674641
32.606537 -36.465221 26.59214
31.713572 -27.685732 31.301487
29.25705 -31.139803 32.079056
34.734112 -36.652012 22.770775
34.684761 -32.892376 25.578566
14.558175 -35.640137 39.182461
29.790962 -35.795162 29.976257
30.26046 -40.062946 27.59371
32.68111 -40.307438 23.742565
23.296684 -33.980328 34.77351
17.570978 -36.502602 37.111382
20.816473 -37.463379 35.190189
31.343056 -23.173695 32.949837
34.166634 -24.04501 30.001387
32.212666 -32.172337 29.148346
34.364117 -28.661879 28.123806
26.381815 -32.54707 33.489372
27.674465 -30.73171 33.26828
27.986074 -33.145348 32.297108
32.514622 -19.030685 32.878071
33.529343 -40.355568 21.766218
16.029854 -36.084202 38.105038
30.315571 -27.07534 32.622311
31.684958 -25.321306 32.065338
32.866901 -23.606684 31.489525
33.042255 -25.956345 30.618311
31.265676 -36.179523 28.371592
30.995792 -34.00779 29.595716
32.335846 -34.36319 28.03129
35.688225 -31.01285 24.90947
34.540821 -30.874353 26.878134
35.506172 -28.986784 26.295168
35.455025 -26.813988 27.337948
29.099552 -28.89398 32.919868
30.555868 -29.496696 31.656706
33.764671 -36.670921 24.66964
33.654827 -34.673237 26.138134
34.711239 -34.877838 24.247679
35.660717 -33.089561 23.629541
27.03953 -37.135147 31.66231
28.212925 -35.439899 31.375671
28.62369 -37.623306 30.284468
30.097157 -37.984341 28.777433
31.362745 -38.179073 27.255095
31.61861 -40.089977 25.749262
32.687759 -38.40012 25.240002
33.712559 -38.502972 23.285553
24.913034 -34.373871 33.795067
19.060722 -36.940807 36.214645
20.36759 -35.251957 35.941578
21.991611 -35.785641 34.979374
23.620903 -36.25211 34.001213
25.384773 -36.611649 32.891964
32.642799 -21.340223 32.279995
33.986542 -21.831013 30.805513
29.450565 -33.50502 31.11664
30.714132 -31.858543 30.687845
32.008156 -29.9659 30.229122
33.522472 -32.600262 27.430901
33.31144 -30.379469 28.701681
33.166656 -28.051571 29.774673
34.319271 -26.365843 29.064978
31.859104 -18.742479 33.495582
32.444813 -17.83011 33.129261
36.028776 -29.152372 25.218768
35.597199 -29.999817 25.602319
36.119803 -30.165405 24.525919
35.963997 -28.150707 25.871471
36.028776 -29.152372 25.218768
36.116993 -33.085176 22.527186
35.682997 -33.979709 22.862184
36.116329 -32.210924 23.223118
36.116993 -33.085176 22.527186
27.987842 -38.491566 30.494837
27.83161 -37.379227 30.973389
27.195762 -38.247486 31.183758
30.178808 -39.023643 28.185572
29.482115 -38.850407 29.013679
29.563766 -39.889709 28.421818
32.14986 -40.198707 24.745914
31.585115 -41.080549 25.053727
32.116365 -41.189279 24.050379
34.071444 -39.404213 21.465636
33.968536 -40.217132 20.609817
24.028072 -32.995718 34.665911
23.166588 -32.79466 35.174309
24.104859 -34.177099 34.284289
24.836247 -33.19249 34.176689
24.028072 -32.995718 34.665911
15.132441 -34.84449 39.033507
14.406099 -34.640623 39.614907
17.409121 -35.427774 37.479391
16.638559 -35.218575 37.976219
16.800416 -36.293402 37.60821
18.183369 -35.660513 36.988226
17.409121 -35.427774 37.479391
19.938598 -37.202093 35.702417
19.29445 -38.111099 35.849887
20.172326 -38.372385 35.33766
23.875434 -37.339756 33.582184
23.046961 -37.171271 34.089014
24.757369 -37.519526 33.02756
24.502838 -36.43188 33.446589
23.875434 -37.339756 33.582184
25.567648 -37.777787 32.447931
24.757369 -37.519526 33.02756
30.653552 -22.93423 33.537941
30.762194 -24.057344 33.153113
31.293443 -21.992082 33.279808
30.653552 -22.93423 33.537941
31.992928 -22.256959 32.614916
31.943314 -21.075346 32.944887
31.293443 -21.992082 33.279808
34.673172 -23.243744 29.600406
34.583126 -22.136745 30.002469
34.076588 -22.938012 30.40345
35.346853 -25.729982 27.895375
35.877148 -25.964013 26.974694
27.02814 -31.63939 33.378826
26.848931 -30.453164 33.840759
26.202606 -31.360844 33.951306
35.628137 -35.790617 21.344328
35.219694 -35.760935 22.4328
35.142556 -36.681694 21.682302
33.101014 -18.109366 32.448873
32.444813 -17.83011 33.129261
33.163809 -19.269082 32.19255
33.7502 -18.347763 31.763352
33.101014 -18.109366 32.448873
29.678114 -40.98026 27.803607
29.563766 -39.889709 28.421818
32.570169 -41.26946 22.998202
32.116365 -41.189279 24.050379
32.994286 -41.293526 22.010028
33.105227 -40.331503 22.754391
32.570169 -41.26946 22.998202
33.426462 -41.176481 20.913907
32.994286 -41.293526 22.010028
33.968536 -40.217132 20.609817
33.426462 -41.176481 20.913907
22.498203 -33.692244 35.260355
23.166588 -32.79466 35.174309
15.458707 -36.938389 38.25828
15.294014 -35.86217 38.643749
14.722867 -36.716357 38.796992
16.225653 -37.166191 37.74176
15.458707 -36.938389 38.25828
16.996215 -37.375391 37.244933
16.800416 -36.293402 37.60821
16.225653 -37.166191 37.74176
21.027426 -38.637842 34.830545
20.172326 -38.372385 35.33766
21.644746 -37.776905 34.683502
21.027426 -38.637842 34.830545
30.248452 -26.008166 32.98935
29.546344 -26.861168 33.223954
30.933145 -25.131149 32.710863
30.248452 -26.008166 32.98935
31.000265 -26.198323 32.343824
31.514007 -24.247501 32.507587
30.762194 -24.057344 33.153113
30.933145 -25.131149 32.710863
35.938423 -27.06431 26.392862
35.480598 -27.900386 26.816558
35.963997 -28.150707 25.871471
35.877148 -25.964013 26.974694
35.938423 -27.06431 26.392862
27.568482 -29.593788 33.685192
26.848931 -30.453164 33.840759
28.281025 -28.674923 33.510986
27.568482 -29.593788 33.685192
28.387009 -29.812845 33.094074
28.938334 -27.770488 33.372732
28.281025 -28.674923 33.510986
29.707561 -27.98466 32.77109
29.546344 -26.861168 33.223954
28.938334 -27.770488 33.372732
35.208258 -34.873848 23.171253
34.722676 -35.764925 23.509227
35.219694 -35.760935 22.4328
35.185978 -33.9837 23.93861
35.208258 -34.873848 23.171253
35.682997 -33.979709 22.862184
36.130083 -31.172569 23.863083
35.674471 -32.051206 24.269506
36.116329 -32.210924 23.223118
36.119803 -30.165405 24.525919
36.130083 -31.172569 23.863083
13.888255 -35.52929 39.71718
14.406099 -34.640623 39.614907
14.015521 -36.513985 39.332991
13.888255 -35.52929 39.71718
14.722867 -36.716357 38.796992
14.015521 -36.513985 39.332991
28.745382 -38.669889 29.767197
27.987842 -38.491566 30.494837
29.360423 -37.803824 29.53095
28.745382 -38.669889 29.767197
29.482115 -38.850407 29.013679
30.373177 -40.990545 26.902526
29.678114 -40.98026 27.803607
31.052253 -41.00406 25.980302
31.585115 -41.080549 25.053727
30.939535 -40.076461 26.671486
30.373177 -40.990545 26.902526
31.052253 -41.00406 25.980302
34.163051 -38.477915 22.225304
33.620951 -39.42927 22.525886
34.071444 -39.404213 21.465636
34.673828 -37.552435 21.967914
34.223336 -37.577492 23.028164
34.163051 -38.477915 22.225304
35.142556 -36.681694 21.682302
34.673828 -37.552435 21.967914
25.570638 -32.279089 34.023842
26.202606 -31.360844 33.951306
25.647424 -33.46047 33.64222
25.570638 -32.279089 34.023842
24.836247 -33.19249 34.176689
15.868281 -35.066522 38.494795
15.132441 -34.84449 39.033507
15.294014 -35.86217 38.643749
15.868281 -35.066522 38.494795
16.638559 -35.218575 37.976219
17.772858 -37.577712 36.771599
16.996215 -37.375391 37.244933
18.51773 -37.796814 36.32323
19.29445 -38.111099 35.849887
18.31585 -36.721705 36.663013
17.772858 -37.577712 36.771599
18.51773 -37.796814 36.32323
18.928241 -35.879615 36.539857
18.183369 -35.660513 36.988226
18.31585 -36.721705 36.663013
19.581674 -35.03519 36.403324
18.928241 -35.879615 36.539857
19.714156 -36.096382 36.078111
20.208823 -34.109373 36.326624
19.581674 -35.03519 36.403324
21.033656 -34.328058 35.844389
20.208823 -34.109373 36.326624
21.845667 -34.5949 35.363287
21.033656 -34.328058 35.844389
21.1796 -35.518799 35.460476
22.644147 -34.882984 34.876442
22.498203 -33.692244 35.260355
21.845667 -34.5949 35.363287
22.232315 -36.938036 34.578094
21.404042 -36.62451 35.084781
21.644746 -37.776905 34.683502
22.806257 -36.018876 34.490293
22.232315 -36.938036 34.578094
23.046961 -37.171271 34.089014
26.395027 -38.039535 31.833104
26.212151 -36.873398 32.277137
25.567648 -37.777787 32.447931
27.195762 -38.247486 31.183758
26.395027 -38.039535 31.833104
31.879226 -19.920577 33.243925
31.859104 -18.742479 33.495582
32.57871 -20.185454 32.579033
31.879226 -19.920577 33.243925
31.943314 -21.075346 32.944887
33.227897 -20.423851 31.893512
33.163809 -19.269082 32.19255
32.57871 -20.185454 32.579033
33.899769 -20.669246 31.156271
33.227897 -20.423851 31.893512
33.31467 -21.585618 31.542754
34.504396 -21.027459 30.372727
33.899769 -20.669246 31.156271
34.504396 -21.027459 30.372727
34.583126 -22.136745 30.002469
34.778976 -25.50591 28.75889
34.887148 -26.589916 28.201463
35.346853 -25.729982 27.895375
34.702658 -24.345493 29.227094
34.242953 -25.205427 29.533183
34.778976 -25.50591 28.75889
34.673172 -23.243744 29.600406
34.702658 -24.345493 29.227094
3 0 19 17
3 63 20 64
3 2 24 23
3 2 26 24
3 1 29 27
3 65 32 66
3 67 66 30
3 65 66 67
3 69 68 32
3 3 34 18
3 3 35 34
3 4 38 36
3 70 39 71
3 73 72 39
3 74 42 75
3 76 75 40
3 74 75 76
3 8 77 79
3 77 43 78
3 77 78 79
3 8 44 43
3 9 80 82
3 80 45 81
3 80 81 82
3 9 46 45
3 9 47 46
3 84 83 21
3 10 85 86
3 10 87 89
3 87 48 88
3 87 88 89
3 6 90 91
3 11 92 94
3 94 93 22
3 92 93 94
3 11 95 96
3 12 97 99
3 97 49 98
3 97 98 99
3 12 50 49
3 12 51 50
3 100 52 101
3 102 53 103
3 104 103 52
3 102 103 104
3 106 105 53
3 13 107 108
3 13 109 110
3 13 111 113
3 111 54 112
3 111 112 113
3 14 55 25
3 14 114 116
3 116 115 55
3 114 115 116
3 7 56 41
3 15 57 28
3 15 58 57
3 5 59 37
3 16 60 31
3 16 61 60
3 16 62 61
3 118 117 33
3 17 119 121
3 119 18 120
3 119 120 121
3 19 18 17
3 19 3 18
3 124 123 4
3 122 123 124
3 20 125 126
3 20 127 129
3 127 128 129
3 130 8 131
3 132 9 133
3 134 21 135
3 136 135 9
3 134 135 136
3 137 21 138
3 140 139 21
3 141 10 142
3 143 22 144
3 145 144 6
3 143 144 145
3 146 22 147
3 148 11 149
3 150 149 22
3 148 149 150
3 151 12 152
3 154 153 12
3 23 155 156
3 24 157 159
3 159 158 23
3 157 158 159
3 24 160 162
3 160 13 161
3 160 161 162
3 24 25 13
3 26 25 24
3 26 14 25
3 27 28 7
3 29 28 27
3 29 15 28
3 30 31 5
3 32 31 30
3 32 16 31
3 32 33 16
3 163 33 164
3 165 164 32
3 163 164 165
3 167 166 33
3 18 168 169
3 34 170 172
3 172 171 18
3 170 171 172
3 34 173 174
3 34 175 177
3 175 23 176
3 175 176 177
3 35 23 34
3 35 2 23
3 36 37 1
3 38 37 36
3 38 5 37
3 178 38 179
3 180 179 4
3 178 179 180
3 39 181 183
3 181 38 182
3 181 182 183
3 39 5 38
3 39 30 5
3 184 30 185
3 186 185 39
3 184 185 186
3 188 187 30
3 189 6 190
3 191 6 192
3 194 193 6
3 40 41 0
3 42 41 40
3 42 7 41
3 195 42 196
3 43 197 199
3 197 42 198
3 197 198 199
3 43 7 42
3 43 27 7
3 44 27 43
3 44 1 27
3 200 8 201
3 45 202 203
3 45 204 206
3 204 8 205
3 204 205 206
3 45 44 8
3 46 44 45
3 46 1 44
3 46 36 1
3 47 36 46
3 47 4 36
3 21 47 9
3 207 47 208
3 209 208 21
3 207 208 209
3 210 4 211
3 212 211 47
3 210 211 212
3 214 213 4
3 215 17 216
3 48 217 219
3 217 17 218
3 217 218 219
3 48 0 17
3 22 220 222
3 222 221 6
3 220 221 222
3 224 223 22
3 225 11 226
3 49 227 228
3 49 229 231
3 229 11 230
3 229 230 231
3 49 232 234
3 234 233 11
3 232 233 234
3 50 235 237
3 237 236 49
3 235 236 237
3 50 238 239
3 50 240 241
3 51 242 244
3 244 243 50
3 242 243 244
3 51 245 247
3 245 10 246
3 245 246 247
3 248 51 249
3 250 249 12
3 248 249 250
3 52 251 253
3 251 51 252
3 251 252 253
3 52 10 51
3 52 48 10
3 53 48 52
3 53 0 48
3 53 40 0
3 254 40 255
3 256 255 53
3 254 255 256
3 258 257 40
3 259 20 260
3 54 261 263
3 261 20 262
3 261 262 263
3 54 264 266
3 266 265 20
3 264 265 266
3 25 54 13
3 55 54 25
3 55 267 269
3 269 268 54
3 267 268 269
3 55 270 271
3 273 272 55
3 41 19 0
3 56 19 41
3 56 3 19
3 28 56 7
3 57 56 28
3 57 3 56
3 57 35 3
3 58 35 57
3 58 2 35
3 37 29 1
3 59 29 37
3 59 15 29
3 31 59 5
3 60 59 31
3 60 15 59
3 60 58 15
3 61 58 60
3 61 2 58
3 61 26 2
3 62 26 61
3 62 14 26
3 33 62 16
3 274 62 275
3 276 275 33
3 274 275 276
3 277 14 278
3 279 278 62
3 277 278 279
3 281 280 14
