ply
format ascii 1.0
element vertex 218
property float x
property float y
property float z
element face 198
property list uchar int vertex_index
end_header
-29.845926 20.081015 -45.774113
-22.979025 26.330202 -46.457176
-26.437347 25.807159 -56.593014
-27.221373 19.790758 -40.895985
-34.718033 15.661375 -48.927128
-32.952892 16.664684 -45.039085
-31.885509 19.619295 -50.279228
-23.959885 23.05402 -41.311092
-20.802202 26.273697 -41.237179
-26.389599 23.446167 -46.585667
-28.542383 23.231081 -51.411133
-30.134697 22.172674 -55.720894
-34.178158 16.815443 -51.749401
-35.544605 14.501575 -50.655506
-30.181252 18.418833 -43.061447
-31.727417 16.736208 -42.641525
-31.474077 18.379986 -45.410995
-32.485943 18.194319 -47.61813
-30.929216 19.993189 -48.09679
-23.622566 24.673241 -43.893658
-25.286346 23.243479 -44.04443
-24.671541 24.942541 -46.663124
-25.653883 26.275723 -54.36116
-26.700317 24.914463 -51.749317
-27.479725 24.688931 -54.027073
-29.257669 22.992296 -53.672691
-28.275146 24.120434 -56.292229
-28.606438 20.044893 -43.481243
-35.240433 14.158099 -46.117165
-36.070374 13.296434 -48.050255
-36.80608 12.002115 -49.800495
-23.992796 26.434523 -49.266933
-33.898998 16.290949 -46.987915
-33.368156 17.680769 -49.638908
-32.67646 18.983116 -52.449699
-22.331062 24.571241 -41.106846
-21.901876 26.235067 -43.722687
-19.164497 28.100416 -41.052757
-25.647238 21.422688 -41.238075
-26.92244 21.648134 -43.735085
-28.065968 21.849871 -46.215202
-25.762539 24.970205 -49.233505
-27.560192 23.405191 -49.079578
-29.276018 21.705935 -48.534332
-30.231335 21.523579 -50.92799
-31.021225 21.050186 -52.990505
-31.718367 20.261372 -55.257343
-25.564991 26.056959 -61.150555
-27.000448 25.178835 -58.909504
-28.899616 23.30147 -58.400822
-34.517889 16.199677 -52.628679
-33.753415 17.435693 -53.036773
-28.039295 19.009961 -40.806336
-27.308729 18.920814 -39.667189
-27.913905 19.917825 -42.188614
-28.731827 19.137028 -42.098965
-28.039295 19.009961 -40.806336
-36.510677 12.519846 -51.073923
-36.175342 13.251845 -50.228001
-35.87994 13.769576 -51.501429
-37.102436 11.177707 -50.518892
-36.510677 12.519846 -51.073923
-33.083068 15.860439 -43.703642
-32.470331 15.896201 -42.504862
-32.340154 16.700446 -43.840305
-33.641687 15.674816 -44.650776
-33.083068 15.860439 -43.703642
-33.425945 16.477817 -46.0135
-34.11474 15.487948 -45.625191
-33.641687 15.674816 -44.650776
-21.566632 25.422469 -41.172012
-21.66153 24.648271 -39.85116
-20.897101 25.499499 -39.916326
-18.405441 29.014043 -40.893879
-18.59776 28.277235 -39.683249
-24.803562 22.238354 -41.274584
-24.919561 21.368476 -39.988741
-24.075884 22.184142 -40.02525
-25.332163 25.691145 -50.546244
-24.877668 25.702364 -49.250219
-24.447291 26.423305 -50.562957
-26.583058 25.093733 -60.972115
-25.83145 25.442124 -62.091499
-27.300787 24.654671 -59.851589
-26.282719 25.617897 -60.030029
-26.583058 25.093733 -60.972115
-28.250371 23.715989 -59.597248
-27.950032 24.240153 -58.655163
-27.300787 24.654671 -59.851589
-26.527182 19.686208 -39.720332
-27.308729 18.920814 -39.667189
-35.201112 15.042744 -52.081732
-34.861382 15.658509 -51.202454
-34.517889 16.199677 -52.628679
-35.87994 13.769576 -51.501429
-35.201112 15.042744 -52.081732
-30.954335 17.57752 -42.851486
-31.098176 16.64639 -41.49851
-30.325094 17.487702 -41.708471
-20.151965 26.451927 -39.973009
-20.897101 25.499499 -39.916326
-26.1771 25.595093 -53.055239
-25.801052 25.663274 -51.804149
-25.277835 26.343905 -53.110071
-29.519234 18.323999 -41.889066
-30.325094 17.487702 -41.708471
-29.393845 19.231863 -43.271345
-29.519234 18.323999 -41.889066
-28.731827 19.137028 -42.098965
-35.885804 13.00585 -45.767367
-35.432057 13.368194 -44.803111
-36.300774 12.575017 -46.733912
-35.885804 13.00585 -45.767367
-35.655404 13.727266 -47.08371
-36.632437 12.141168 -47.641657
-36.300774 12.575017 -46.733912
-37.00029 11.494008 -48.516777
-36.632437 12.141168 -47.641657
-36.438227 12.649275 -48.925375
-37.337807 10.729777 -49.285511
-37.00029 11.494008 -48.516777
-37.337807 10.729777 -49.285511
-37.102436 11.177707 -50.518892
-23.113996 27.106392 -49.084333
-23.48591 26.382362 -47.862054
-22.60711 27.054232 -47.679454
-23.574158 27.085107 -50.445114
-23.113996 27.106392 -49.084333
-24.447291 26.423305 -50.562957
-23.574158 27.085107 -50.445114
-24.705612 27.008373 -54.282304
-25.277835 26.343905 -53.110071
-25.065307 26.841987 -55.492212
-24.705612 27.008373 -54.282304
-25.45704 26.607705 -56.608139
-26.045615 26.041441 -55.477087
-25.065307 26.841987 -55.492212
-31.865988 15.813204 -41.327816
-31.098176 16.64639 -41.49851
-31.865988 15.813204 -41.327816
-32.470331 15.896201 -42.504862
-34.785458 14.421523 -45.189816
-35.432057 13.368194 -44.803111
-34.569716 15.224524 -46.55254
-34.785458 14.421523 -45.189816
-34.11474 15.487948 -45.625191
-33.002566 18.51953 -53.386922
-33.753415 17.435693 -53.036773
-33.427309 17.899279 -52.09955
-23.295108 23.003574 -40.029854
-24.075884 22.184142 -40.02525
-22.480697 23.762185 -39.92773
-21.66153 24.648271 -39.85116
-23.145474 23.812631 -41.208969
-23.295108 23.003574 -40.029854
-22.480697 23.762185 -39.92773
-19.333112 27.365286 -39.880798
-18.766376 27.542105 -38.51129
-18.59776 28.277235 -39.683249
-19.98335 27.187056 -41.144968
-20.151965 26.451927 -39.973009
-19.333112 27.365286 -39.880798
-18.911777 28.840659 -42.286738
-18.405441 29.014043 -40.893879
-19.669375 28.007808 -42.286329
-18.911777 28.840659 -42.286738
-20.488228 27.094449 -42.37854
-19.98335 27.187056 -41.144968
-19.669375 28.007808 -42.286329
-21.038065 27.075134 -43.621294
-21.352039 26.254382 -42.479933
-20.488228 27.094449 -42.37854
-21.571379 27.013947 -44.933495
-21.038065 27.075134 -43.621294
-22.109954 27.061514 -46.300739
-22.440451 26.282635 -45.089931
-21.571379 27.013947 -44.933495
-22.60711 27.054232 -47.679454
-22.109954 27.061514 -46.300739
-25.740115 20.502173 -39.891376
-24.919561 21.368476 -39.988741
-26.434306 20.606723 -41.06703
-26.527182 19.686208 -39.720332
-25.740115 20.502173 -39.891376
-26.231428 24.942334 -50.491411
-25.332163 25.691145 -50.546244
-25.801052 25.663274 -51.804149
-32.523519 19.158658 -54.790745
-33.002566 18.51953 -53.386922
-32.197413 19.622244 -53.853521
-25.837238 26.275661 -57.746084
-25.45704 26.607705 -56.608139
-24.848057 26.306218 -62.256189
-25.83145 25.442124 -62.091499
-24.602887 26.839764 -61.249702
-24.848057 26.306218 -62.256189
-25.40106 26.40056 -60.024855
-24.602887 26.839764 -61.249702
-26.118789 25.961498 -58.90433
-25.40106 26.40056 -60.024855
-26.282719 25.617897 -60.030029
-26.718897 25.492997 -57.751259
-25.837238 26.275661 -57.746084
-26.118789 25.961498 -58.90433
-29.182226 22.673112 -59.415239
-28.250371 23.715989 -59.597248
-29.774563 22.297562 -58.140856
-29.182226 22.673112 -59.415239
-30.392103 21.733165 -56.800892
-29.517156 22.737072 -57.060858
-29.774563 22.297562 -58.140856
-31.183938 20.777514 -56.569116
-30.926532 21.217023 -55.489119
-30.392103 21.733165 -56.800892
-32.10044 19.574824 -56.116617
-31.183938 20.777514 -56.569116
-32.523519 19.158658 -54.790745
-32.10044 19.574824 -56.116617
3 51 50 12
3 0 16 14
3 0 18 16
3 1 21 19
3 2 24 22
3 2 26 24
3 3 52 53
3 3 54 56
3 54 27 55
3 54 55 56
3 4 29 28
3 57 30 58
3 59 58 13
3 57 58 59
3 61 60 30
3 5 62 64
3 64 63 15
3 62 63 64
3 5 65 66
3 5 67 69
3 67 32 68
3 67 68 69
3 6 33 17
3 6 34 33
3 8 70 72
3 70 35 71
3 70 71 72
3 8 36 35
3 73 37 74
3 7 75 77
3 75 38 76
3 75 76 77
3 9 39 20
3 9 40 39
3 78 41 79
3 80 79 31
3 78 79 80
3 10 42 23
3 10 43 42
3 10 44 43
3 11 45 25
3 11 46 45
3 81 47 82
3 83 48 84
3 85 84 47
3 83 84 85
3 86 49 87
3 88 87 48
3 86 87 88
3 89 3 90
3 12 13 4
3 91 13 92
3 93 92 12
3 91 92 93
3 95 94 13
3 14 96 98
3 96 15 97
3 96 97 98
3 16 15 14
3 16 5 15
3 16 17 5
3 18 17 16
3 18 6 17
3 99 8 100
3 19 20 7
3 21 20 19
3 21 9 20
3 22 101 103
3 101 23 102
3 101 102 103
3 24 23 22
3 24 10 23
3 24 25 10
3 26 25 24
3 26 11 25
3 104 14 105
3 27 106 108
3 106 14 107
3 106 107 108
3 27 0 14
3 28 109 110
3 29 111 113
3 113 112 28
3 111 112 113
3 29 114 115
3 13 29 4
3 30 29 13
3 30 116 118
3 118 117 29
3 116 117 118
3 30 119 120
3 122 121 30
3 123 31 124
3 125 124 1
3 123 124 125
3 126 31 127
3 129 128 31
3 130 22 131
3 132 22 133
3 134 2 135
3 136 135 22
3 134 135 136
3 15 137 138
3 140 139 15
3 141 28 142
3 32 143 145
3 143 28 144
3 143 144 145
3 32 4 28
3 17 32 5
3 33 32 17
3 33 4 32
3 33 12 4
3 34 12 33
3 34 146 148
3 148 147 12
3 146 147 148
3 149 7 150
3 35 151 152
3 35 153 155
3 153 7 154
3 153 154 155
3 35 19 7
3 36 19 35
3 36 1 19
3 37 156 158
3 156 157 158
3 37 159 161
3 159 8 160
3 159 160 161
3 162 37 163
3 164 37 165
3 166 8 167
3 168 167 37
3 166 167 168
3 169 36 170
3 171 170 8
3 169 170 171
3 172 36 173
3 174 1 175
3 176 175 36
3 174 175 176
3 178 177 1
3 38 179 180
3 38 181 183
3 181 3 182
3 181 182 183
3 20 38 7
3 39 38 20
3 39 3 38
3 39 27 3
3 40 27 39
3 40 0 27
3 31 21 1
3 41 21 31
3 41 9 21
3 23 184 186
3 184 41 185
3 184 185 186
3 42 41 23
3 42 9 41
3 42 40 9
3 43 40 42
3 43 0 40
3 43 18 0
3 44 18 43
3 44 6 18
3 25 44 10
3 45 44 25
3 45 6 44
3 45 34 6
3 46 34 45
3 46 187 189
3 189 188 34
3 187 188 189
3 190 2 191
3 47 192 193
3 47 194 195
3 47 196 197
3 48 198 200
3 200 199 47
3 198 199 200
3 48 201 203
3 201 2 202
3 201 202 203
3 48 26 2
3 49 26 48
3 49 11 26
3 204 49 205
3 206 49 207
3 208 11 209
3 210 209 49
3 208 209 210
3 211 46 212
3 213 212 11
3 211 212 213
3 214 46 215
3 217 216 46
