ply
format ascii 1.0
element vertex 259
property float x
property float y
property float z
element face 224
property list uchar int vertex_index
end_header
19.996334 78.107689 -6.722471
22.767174 72.122856 -12.965534
23.501099 66.900566 -4.069428
21.144222 69.751343 -18.868103
21.816061 75.393173 -10.253403
23.462406 69.560326 -8.521947
14.57956 70.055809 -29.649315
22.793184 68.1567 -15.019608
23.931454 66.326996 -11.21015
24.578157 63.837189 -7.104511
21.599535 66.680138 -17.512644
20.690273 67.344292 -19.248234
20.95826 76.964317 -8.646031
21.898401 74.283691 -7.804821
21.065035 75.401711 -6.029001
19.854074 79.58316 -9.387639
20.790897 78.144547 -11.067376
14.164993 66.81144 -29.455788
13.066776 66.201965 -31.202488
18.599554 68.173264 -22.812336
17.493259 67.87059 -24.411831
16.360886 67.88929 -26.195862
22.897411 70.22448 -14.117613
23.431639 67.295532 -13.10251
23.405365 69.321976 -12.02045
23.500755 68.439308 -6.245171
24.067451 66.672348 -7.703443
24.133745 65.414291 -5.550584
24.706625 62.312469 -5.007114
24.121096 63.888676 -3.470352
21.960911 74.993492 -13.96917
22.197481 73.247131 -15.193591
22.255438 71.197891 -16.089308
20.25951 70.234413 -20.601553
19.679983 67.94249 -21.056145
22.395309 73.851212 -11.662332
23.129881 71.150581 -10.704344
22.681805 72.537659 -9.158208
22.812881 71.22551 -6.984861
22.793062 69.727173 -4.551284
21.498108 76.600899 -12.574204
15.292986 67.633896 -27.826452
22.408735 65.903801 -15.823695
23.14957 65.354378 -14.131769
23.832544 64.105309 -12.270168
24.377455 63.223869 -10.375321
23.816147 68.023674 -9.889353
24.358086 64.941948 -9.179673
24.786156 61.96793 -8.530132
21.473686 71.918747 -18.142233
22.012341 68.92379 -16.965525
21.27321 65.484982 -17.740752
21.706637 65.183571 -16.976669
19.925204 78.845425 -8.055055
19.316863 80.182343 -8.451773
19.387993 79.444607 -7.119189
13.341774 64.961546 -30.340692
13.615884 66.506703 -30.329138
13.890883 65.266284 -29.467343
12.856498 64.671467 -31.219962
13.341774 64.961546 -30.340692
17.670902 66.620979 -23.670807
18.046406 68.021927 -23.612083
18.224049 66.772316 -22.87106
17.137336 66.587723 -24.48111
17.670902 66.620979 -23.670807
20.701866 69.992878 -19.734828
20.405659 71.476502 -20.408551
20.848015 71.234967 -19.541826
19.821305 66.397877 -20.340332
20.185128 67.643391 -20.152189
20.32645 66.098778 -19.436377
19.295827 66.551465 -21.164595
19.821305 66.397877 -20.340332
22.408526 71.946388 -6.208592
22.355641 72.754601 -7.394841
21.951286 73.475479 -6.618571
22.398616 71.19722 -4.991803
22.802971 70.476341 -5.768073
22.408526 71.946388 -6.208592
14.206834 71.214576 -30.43259
14.812805 71.542336 -29.579993
15.518363 66.247268 -26.945894
15.826936 67.761593 -27.011157
16.052313 66.374966 -26.130599
14.981269 66.104466 -27.823889
15.518363 66.247268 -26.945894
24.823567 62.254095 -6.867194
24.927566 61.319465 -7.580004
24.682156 62.90256 -7.817322
24.96199 60.814004 -4.815457
24.712346 61.557665 -4.019777
21.492732 73.066002 -17.735925
21.118614 73.339821 -18.759659
20.818579 65.817059 -18.608546
21.144904 67.012215 -18.380439
21.27321 65.484982 -17.740752
20.32645 66.098778 -19.436377
20.818579 65.817059 -18.608546
21.534603 74.034489 -5.730662
21.951286 73.475479 -6.618571
21.481718 74.842701 -6.916911
19.189284 80.928577 -9.788556
19.316863 80.182343 -8.451773
19.684107 80.293324 -10.669453
19.189284 80.928577 -9.788556
20.322485 78.863854 -10.227507
20.152519 79.574017 -11.509321
19.684107 80.293324 -10.669453
13.791513 68.053895 -30.383598
13.998797 69.676079 -30.480362
14.372277 68.433625 -29.552551
13.242404 67.749157 -31.256949
13.791513 68.053895 -30.383598
13.615884 66.506703 -30.329138
12.651769 67.247581 -32.11352
13.242404 67.749157 -31.256949
12.540097 65.767906 -32.055166
12.651769 67.247581 -32.11352
12.540097 65.767906 -32.055166
12.856498 64.671467 -31.219962
18.327435 69.505596 -23.614049
18.89067 69.464901 -22.688799
17.774288 69.35426 -24.413797
18.327435 69.505596 -23.614049
18.046406 68.021927 -23.612083
17.233816 69.292797 -25.247336
17.774288 69.35426 -24.413797
16.927073 67.87994 -25.303846
16.66763 69.302147 -26.139352
17.233816 69.292797 -25.247336
16.57115 66.597072 -25.373126
16.927073 67.87994 -25.303846
17.137336 66.587723 -24.48111
16.052313 66.374966 -26.130599
16.57115 66.597072 -25.373126
24.419581 62.345768 -3.251396
24.712346 61.557665 -4.019777
24.41386 63.100572 -4.238733
21.657142 75.543216 -15.120657
21.488675 76.375389 -14.405957
21.775427 74.670036 -15.732868
21.657142 75.543216 -15.120657
22.079196 74.120311 -14.58138
21.85463 73.730194 -16.261604
21.775427 74.670036 -15.732868
22.22646 72.222511 -15.64145
21.883608 72.705574 -16.709463
21.85463 73.730194 -16.261604
19.933612 71.681259 -21.352499
20.405659 71.476502 -20.408551
19.720648 70.495475 -21.583407
19.933612 71.681259 -21.352499
19.430885 69.349514 -21.810704
19.720648 70.495475 -21.583407
19.969746 69.088452 -20.828849
19.139769 68.057877 -21.934241
18.89067 69.464901 -22.688799
19.430885 69.349514 -21.810704
18.755612 66.666852 -22.04269
19.139769 68.057877 -21.934241
19.295827 66.551465 -21.164595
18.224049 66.772316 -22.87106
18.755612 66.666852 -22.04269
20.57471 78.814472 -12.254872
20.152519 79.574017 -11.509321
20.928315 78.042648 -13.008287
20.57471 78.814472 -12.254872
21.144503 77.372723 -11.82079
21.257273 77.179092 -13.708474
20.928315 78.042648 -13.008287
21.729509 75.797196 -13.271687
21.488675 76.375389 -14.405957
21.257273 77.179092 -13.708474
14.206834 71.214576 -30.43259
13.998797 69.676079 -30.480362
19.424576 78.033775 -4.678233
19.995593 77.398914 -5.514189
19.425317 78.74255 -5.886514
19.425317 78.74255 -5.886514
19.387993 79.444607 -7.119189
15.187146 70.299907 -28.763686
14.812805 71.542336 -29.579993
16.077809 69.216648 -27.036959
16.66763 69.302147 -26.139352
15.543859 69.088951 -27.852254
16.077809 69.216648 -27.036959
15.826936 67.761593 -27.011157
14.936273 68.844853 -28.737884
15.187146 70.299907 -28.763686
15.543859 69.088951 -27.852254
14.417272 65.693238 -28.638556
14.72899 67.222668 -28.64112
14.981269 66.104466 -27.823889
13.890883 65.266284 -29.467343
14.417272 65.693238 -28.638556
22.540366 64.468801 -15.324057
22.111237 64.795402 -16.132195
22.910784 64.19409 -14.478093
22.540366 64.468801 -15.324057
22.779153 65.629089 -14.977732
23.297185 63.716694 -13.652017
22.910784 64.19409 -14.478093
23.638672 63.09216 -12.721216
23.297185 63.716694 -13.652017
23.491057 64.729844 -13.200969
24.001587 62.563315 -11.82093
23.638672 63.09216 -12.721216
24.274043 62.122595 -10.873507
24.001587 62.563315 -11.82093
24.104999 63.664589 -11.322744
24.560611 61.560623 -10.005179
24.274043 62.122595 -10.873507
24.764961 60.932654 -9.082584
24.560611 61.560623 -10.005179
24.581806 62.5959 -9.452727
24.978502 60.443439 -8.22392
24.764961 60.932654 -9.082584
24.978502 60.443439 -8.22392
24.927566 61.319465 -7.580004
24.887801 61.491735 -5.818495
24.823567 62.254095 -6.867194
24.642391 63.074829 -6.055813
24.887801 61.491735 -5.818495
24.96199 60.814004 -4.815457
20.529944 76.045926 -5.167454
20.530684 76.7547 -6.375736
19.995593 77.398914 -5.514189
21.03473 74.636342 -4.776129
20.529944 76.045926 -5.167454
21.534603 74.034489 -5.730662
21.03473 74.636342 -4.776129
22.358281 70.387153 -3.761222
22.398616 71.19722 -4.991803
22.75973 68.894539 -3.447972
22.358281 70.387153 -3.761222
23.113748 67.481235 -3.207044
23.147081 68.313869 -4.310356
22.75973 68.894539 -3.447972
23.442448 66.072689 -2.955154
23.113748 67.481235 -3.207044
23.752447 64.566744 -2.655616
23.811098 65.394621 -3.76989
23.442448 66.072689 -2.955154
24.070122 63.12164 -2.476516
23.752447 64.566744 -2.655616
24.419581 62.345768 -3.251396
24.070122 63.12164 -2.476516
21.012747 72.318669 -19.178891
21.118614 73.339821 -18.759659
21.308954 70.835045 -18.505168
20.848015 71.234967 -19.541826
21.012747 72.318669 -19.178891
21.864562 71.558319 -17.11577
21.492732 73.066002 -17.735925
21.883608 72.705574 -16.709463
22.111237 64.795402 -16.132195
21.706637 65.183571 -16.976669
22.004135 66.291969 -16.66817
3 52 51 10
3 0 14 12
3 0 53 55
3 53 15 54
3 53 54 55
3 0 12 15
3 56 18 57
3 58 57 17
3 56 57 58
3 60 59 18
3 61 20 62
3 63 62 19
3 61 62 63
3 65 64 20
3 1 24 22
3 2 27 25
3 2 29 27
3 1 31 30
3 1 22 31
3 3 66 68
3 66 33 67
3 66 67 68
3 69 34 70
3 71 70 11
3 69 70 71
3 73 72 34
3 4 37 35
3 74 38 75
3 76 75 13
3 74 75 76
3 77 39 78
3 79 78 38
3 77 78 79
3 4 40 16
3 4 35 40
3 6 80 81
3 82 41 83
3 84 83 21
3 82 83 84
3 86 85 41
3 7 43 42
3 8 44 23
3 8 45 44
3 5 46 36
3 9 47 26
3 9 48 47
3 9 87 89
3 89 88 48
3 87 88 89
3 91 90 28
3 92 49 93
3 7 50 32
3 7 42 50
3 10 11 3
3 94 11 95
3 96 95 10
3 94 95 96
3 98 97 11
3 12 13 4
3 14 13 12
3 14 99 101
3 101 100 13
3 99 100 101
3 15 102 103
3 15 104 105
3 15 106 108
3 106 16 107
3 106 107 108
3 12 16 15
3 12 4 16
3 17 109 111
3 111 110 6
3 109 110 111
3 18 112 114
3 114 113 17
3 112 113 114
3 18 115 116
3 18 117 118
3 120 119 18
3 19 121 122
3 20 123 125
3 125 124 19
3 123 124 125
3 20 126 127
3 20 128 130
3 128 21 129
3 128 129 130
3 131 21 132
3 133 132 20
3 131 132 133
3 135 134 21
3 22 23 7
3 24 23 22
3 24 8 23
3 25 26 5
3 27 26 25
3 27 9 26
3 27 28 9
3 29 28 27
3 29 136 138
3 138 137 28
3 136 137 138
3 30 139 140
3 31 141 143
3 143 142 30
3 141 142 143
3 31 144 145
3 31 146 148
3 146 32 147
3 146 147 148
3 22 32 31
3 22 7 32
3 33 149 150
3 33 151 152
3 11 33 3
3 34 33 11
3 34 153 155
3 155 154 33
3 153 154 155
3 34 156 158
3 156 19 157
3 156 157 158
3 159 19 160
3 161 160 34
3 159 160 161
3 163 162 19
3 35 36 1
3 37 36 35
3 37 5 36
3 13 37 4
3 38 37 13
3 38 5 37
3 38 25 5
3 39 25 38
3 39 2 25
3 16 164 165
3 40 166 168
3 168 167 16
3 166 167 168
3 40 169 170
3 40 171 173
3 171 30 172
3 171 172 173
3 35 30 40
3 35 1 30
3 175 174 6
3 178 177 0
3 176 177 178
3 179 0 180
3 181 6 182
3 21 183 184
3 41 185 187
3 187 186 21
3 185 186 187
3 41 188 190
3 188 6 189
3 188 189 190
3 41 17 6
3 191 17 192
3 193 192 41
3 191 192 193
3 195 194 17
3 42 196 197
3 43 198 200
3 200 199 42
3 198 199 200
3 43 201 202
3 23 43 7
3 44 43 23
3 44 203 205
3 205 204 43
3 203 204 205
3 44 206 207
3 45 208 210
3 210 209 44
3 208 209 210
3 45 211 212
3 36 24 1
3 46 24 36
3 46 8 24
3 26 46 5
3 47 46 26
3 47 8 46
3 47 45 8
3 48 45 47
3 48 213 215
3 215 214 45
3 213 214 215
3 48 216 217
3 219 218 48
3 28 220 222
3 222 221 9
3 220 221 222
3 224 223 28
3 225 14 226
3 227 226 0
3 225 226 227
3 228 14 229
3 231 230 14
3 232 39 233
3 234 39 235
3 236 2 237
3 238 237 39
3 236 237 238
3 239 2 240
3 241 29 242
3 243 242 2
3 241 242 243
3 244 29 245
3 247 246 29
3 49 248 249
3 49 250 252
3 250 3 251
3 250 251 252
3 32 253 255
3 253 49 254
3 253 254 255
3 50 49 32
3 50 3 49
3 50 10 3
3 42 10 50
3 42 256 258
3 258 257 10
3 256 257 258
