ply
format ascii 1.0
element vertex 203
property float x
property float y
property float z
element face 196
property list uchar int vertex_index
end_header
17.895477 64.619911 12.352779
21.163944 53.710583 13.145351
12.715467 68.488533 19.161516
20.272306 62.539875 8.603341
21.75561 57.058952 8.982013
19.483099 59.180523 12.902103
7.73339 75.665054 19.652119
10.884827 73.916153 17.168015
16.371136 70.061996 11.197398
13.65187 72.085953 14.476553
15.388117 66.703796 15.835566
14.640801 62.874943 20.349319
17.030182 61.089516 16.930931
18.847372 55.616779 17.283394
18.347153 66.261116 10.149544
19.57539 65.349121 8.140592
19.048513 63.597431 10.608687
19.851826 60.799343 10.831869
18.662889 61.807434 12.78803
15.43375 72.796593 10.627869
21.464985 55.419216 10.970531
11.809834 71.334511 18.1448
12.247072 73.091507 15.875098
13.202243 70.38752 16.723618
14.568734 69.374229 15.192149
14.044523 67.697006 17.528881
14.201027 61.118164 22.612343
15.511042 60.143635 20.872066
15.845042 62.066593 18.630064
16.654057 59.436184 19.072697
17.960876 58.314373 17.111954
21.001347 59.891155 8.77708
20.665169 58.013386 10.960145
20.264006 56.498508 13.118517
9.907187 76.377686 16.145573
9.397507 74.762405 18.423923
10.43482 72.136993 19.465961
11.334292 69.536621 20.459448
17.605488 69.042786 9.527115
17.063116 67.4188 11.946223
11.346951 75.661568 14.814235
12.743223 74.689827 13.593894
14.140377 73.564171 12.293097
15.070229 70.964607 12.928622
15.865228 68.421341 13.538893
16.697044 65.572571 14.126828
12.305777 66.623505 21.403866
13.277419 63.751167 22.126251
13.72681 65.593605 19.827503
15.017192 64.788162 18.085503
16.246204 63.865547 16.379568
17.491898 62.754623 14.634254
18.279747 60.105305 14.956531
19.165285 57.413158 15.049315
20.02894 54.66489 15.205
14.939778 74.111954 10.298424
15.605848 73.661641 9.481136
21.729971 53.208416 12.101018
21.880491 54.062732 11.013607
21.314464 54.564899 12.057941
21.64167 52.344438 13.095603
21.729971 53.208416 12.101018
15.958132 58.820643 21.044113
15.326766 59.196013 22.029922
16.52964 58.466917 20.144429
16.082549 59.78991 19.972382
15.958132 58.820643 21.044113
17.138995 58.025175 19.178569
16.52964 58.466917 20.144429
20.515218 63.373362 7.429059
20.16676 64.777985 7.197684
19.923848 63.944498 8.371966
20.875036 62.031126 7.534798
20.515218 63.373362 7.429059
20.636826 61.215515 8.69021
21.239556 60.706766 7.621668
20.875036 62.031126 7.534798
7.187965 77.022583 18.905175
6.932231 76.17635 20.068115
8.001769 76.487885 18.49072
7.187965 77.022583 18.905175
8.565448 75.213729 19.038021
8.833828 76.03656 17.876622
8.001769 76.487885 18.49072
10.171278 71.269665 20.617615
9.625495 72.647457 20.08944
10.621014 69.969479 21.114359
10.884556 70.836807 19.962705
10.171278 71.269665 20.617615
16.988312 69.552391 10.362257
17.162703 70.482014 9.209043
16.545527 70.991619 10.044185
22.317068 56.494291 7.964671
21.92071 57.908989 7.952822
12.103877 65.738068 22.460104
11.565983 67.159416 22.103915
18.961271 65.805118 9.145068
19.178319 66.678913 7.993932
18.5642 67.134911 8.998409
7.453772 74.741088 20.876343
6.932231 76.17635 20.068115
8.274781 74.411487 20.182519
7.453772 74.741088 20.876343
16.076833 72.358918 9.75942
15.605848 73.661641 9.481136
15.902443 71.429294 10.912634
16.545527 70.991619 10.044185
16.076833 72.358918 9.75942
22.058689 54.858949 9.887117
22.204002 55.678817 8.892858
21.610298 56.239084 9.976272
22.058689 54.858949 9.887117
21.880491 54.062732 11.013607
14.671758 59.683277 22.90006
14.009891 60.146347 23.76399
14.856034 60.630899 21.742204
14.671758 59.683277 22.90006
15.326766 59.196013 22.029922
17.792404 57.46427 18.198197
17.307467 58.875279 18.092326
17.138995 58.025175 19.178569
18.235652 56.115472 18.283918
18.404124 56.965576 17.197674
17.792404 57.46427 18.198197
19.778288 66.195481 7.026358
19.178319 66.678913 7.993932
19.778288 66.195481 7.026358
20.16676 64.777985 7.197684
21.543578 59.325091 7.850356
21.239556 60.706766 7.621668
21.378478 58.475054 8.879547
21.92071 57.908989 7.952822
21.543578 59.325091 7.850356
9.088668 76.8442 16.737447
9.377289 77.655151 15.518275
9.652347 75.570045 17.284748
9.088668 76.8442 16.737447
8.833828 76.03656 17.876622
9.106839 73.960163 19.568421
8.565448 75.213729 19.038021
8.274781 74.411487 20.182519
9.916163 73.449699 18.944942
9.106839 73.960163 19.568421
9.625495 72.647457 20.08944
17.772329 69.945759 8.409854
17.162703 70.482014 9.209043
18.193368 68.525745 8.687194
17.772329 69.945759 8.409854
17.97632 67.651951 9.83833
18.5642 67.134911 8.998409
18.193368 68.525745 8.687194
22.317068 56.494291 7.964671
22.204002 55.678817 8.892858
10.11448 77.250858 14.966351
9.584583 78.528324 14.339053
9.377289 77.655151 15.518275
10.834363 76.892799 14.300683
10.11448 77.250858 14.966351
10.627069 76.019627 15.479904
11.596964 76.413403 13.688161
10.834363 76.892799 14.300683
12.2951 75.927532 13.07799
11.596964 76.413403 13.688161
12.045087 75.175697 14.204065
12.967576 75.437671 12.497974
12.2951 75.927532 13.07799
13.666153 74.874843 11.847575
12.967576 75.437671 12.497974
13.4418 74.126999 12.943496
14.293092 74.495743 11.131038
13.666153 74.874843 11.847575
14.787064 73.180382 11.460483
14.939778 74.111954 10.298424
14.293092 74.495743 11.131038
11.08024 68.615974 21.631706
10.621014 69.969479 21.114359
11.820035 68.080063 20.931657
11.08024 68.615974 21.631706
11.565983 67.159416 22.103915
13.526017 61.496634 23.499541
14.009891 60.146347 23.76399
13.064213 62.813135 23.256495
13.526017 61.496634 23.499541
13.739223 62.434666 22.369297
12.589699 64.301899 22.821297
13.064213 62.813135 23.256495
12.791598 65.187336 21.765059
12.103877 65.738068 22.460104
12.589699 64.301899 22.821297
18.695743 54.720663 18.417991
18.235652 56.115472 18.283918
19.286421 54.268263 17.374782
18.695743 54.720663 18.417991
19.877205 53.792318 16.335584
19.438156 55.140834 16.244197
19.286421 54.268263 17.374782
20.433476 53.382485 15.291583
19.877205 53.792318 16.335584
21.000979 52.905331 14.261758
20.596442 54.187736 14.175175
20.433476 53.382485 15.291583
21.64167 52.344438 13.095603
21.000979 52.905331 14.261758
3 0 16 14
3 0 18 16
3 55 19 56
3 1 57 59
3 59 58 20
3 57 58 59
3 1 60 61
3 2 23 21
3 2 25 23
3 62 27 63
3 64 29 65
3 66 65 27
3 64 65 66
3 68 67 29
3 3 69 71
3 71 70 15
3 69 70 71
3 3 72 73
3 3 74 76
3 74 31 75
3 74 75 76
3 5 32 17
3 5 33 32
3 6 77 78
3 6 79 80
3 6 81 83
3 81 35 82
3 81 82 83
3 84 36 85
3 86 37 87
3 88 87 36
3 86 87 88
3 8 89 91
3 89 38 90
3 89 90 91
3 8 39 38
3 4 92 93
3 7 40 34
3 9 41 22
3 9 42 41
3 9 43 42
3 10 44 24
3 10 45 44
3 94 46 95
3 11 47 26
3 11 48 47
3 11 49 48
3 12 50 28
3 12 51 50
3 12 52 51
3 13 53 30
3 13 54 53
3 14 96 98
3 96 15 97
3 96 97 98
3 16 15 14
3 16 3 15
3 16 17 3
3 18 17 16
3 18 5 17
3 99 6 100
3 102 101 6
3 19 103 104
3 19 105 107
3 105 8 106
3 105 106 107
3 20 108 110
3 110 109 4
3 108 109 110
3 112 111 20
3 21 22 7
3 23 22 21
3 23 9 22
3 23 24 9
3 25 24 23
3 25 10 24
3 113 26 114
3 27 115 117
3 115 26 116
3 115 116 117
3 27 11 26
3 27 28 11
3 29 28 27
3 29 12 28
3 29 30 12
3 118 30 119
3 120 119 29
3 118 119 120
3 121 13 122
3 123 122 30
3 121 122 123
3 15 124 125
3 127 126 15
3 31 128 129
3 31 130 132
3 130 4 131
3 130 131 132
3 17 31 3
3 32 31 17
3 32 4 31
3 32 20 4
3 33 20 32
3 33 1 20
3 133 34 134
3 35 135 137
3 135 34 136
3 135 136 137
3 35 7 34
3 138 35 139
3 140 139 6
3 138 139 140
3 36 141 143
3 141 35 142
3 141 142 143
3 36 7 35
3 36 21 7
3 37 21 36
3 37 2 21
3 38 144 145
3 38 146 147
3 38 148 150
3 148 14 149
3 148 149 150
3 39 14 38
3 39 0 14
3 152 151 4
3 34 153 155
3 153 154 155
3 40 156 158
3 158 157 34
3 156 157 158
3 40 159 160
3 22 40 7
3 41 40 22
3 41 161 163
3 163 162 40
3 161 162 163
3 41 164 165
3 42 166 168
3 168 167 41
3 166 167 168
3 42 169 170
3 42 171 173
3 171 19 172
3 171 172 173
3 43 19 42
3 43 8 19
3 24 43 9
3 44 43 24
3 44 8 43
3 44 39 8
3 45 39 44
3 45 0 39
3 174 37 175
3 46 176 178
3 176 37 177
3 176 177 178
3 46 2 37
3 26 179 180
3 47 181 183
3 183 182 26
3 181 182 183
3 47 184 185
3 47 186 188
3 186 46 187
3 186 187 188
3 48 46 47
3 48 2 46
3 48 25 2
3 49 25 48
3 49 10 25
3 28 49 11
3 50 49 28
3 50 10 49
3 50 45 10
3 51 45 50
3 51 0 45
3 51 18 0
3 52 18 51
3 52 5 18
3 30 52 12
3 53 52 30
3 53 5 52
3 53 33 5
3 54 33 53
3 54 1 33
3 189 13 190
3 191 13 192
3 193 54 194
3 195 194 13
3 193 194 195
3 196 54 197
3 198 1 199
3 200 199 54
3 198 199 200
3 202 201 1
