ply
format ascii 1.0
element vertex 226
property float x
property float y
property float z
element face 201
property list uchar int vertex_index
end_header
5.768942 52.786938 46.534042
11.58322 45.422916 53.960278
18.800379 52.153141 54.454544
25.302156 56.435669 51.494339
7.723667 41.629936 53.114834
22.245171 54.575745 53.630432
8.595276 49.129765 50.233746
12.349298 52.986034 50.809872
15.156991 48.975937 54.454567
16.067297 56.692272 50.973591
19.671362 59.796673 50.500294
22.987696 62.325924 48.976692
27.654219 57.169048 48.389713
7.695685 54.807209 46.759365
9.560267 43.580814 53.464615
8.144618 45.291553 51.737812
10.029976 47.163666 52.12928
10.424411 51.005096 50.545856
11.872036 49.322258 52.319
17.120462 50.693062 54.571632
15.714282 53.00235 52.756325
17.443081 54.737278 52.638809
17.881754 58.588825 50.685654
19.152771 55.989571 52.533936
23.866753 55.706459 52.665394
22.619844 58.374756 51.449707
24.154636 59.618816 50.256111
25.61047 60.109272 49.040073
26.536659 57.032387 50.027145
5.850236 40.023136 52.595844
9.218007 39.943199 54.848919
20.121695 49.630043 56.043522
20.50411 53.651192 54.063251
21.768339 50.978947 55.537575
23.437906 51.84103 54.886623
6.266258 43.499073 51.316196
6.809772 47.236534 49.94318
7.224986 51.076218 48.364807
9.114509 52.94619 48.689621
11.068623 54.992661 48.921001
12.888312 56.773376 49.128761
13.309015 47.102287 54.275158
13.754645 50.993275 52.680649
14.163237 54.826912 50.960136
14.713467 58.655216 49.15329
16.609615 60.702393 48.921551
18.521315 62.240051 48.73217
20.933617 57.300678 52.116966
21.398298 61.148357 49.881302
6.013774 54.467535 45.801097
5.056424 53.573479 45.651697
6.732314 53.797073 46.646704
6.977146 55.477671 45.913759
6.013774 54.467535 45.801097
17.96042 51.423102 54.513088
17.744402 49.454107 55.416409
18.584361 50.184147 55.357864
9.995673 38.880633 55.815422
9.071891 38.124851 55.526043
10.140496 40.74684 55.106235
9.995673 38.880633 55.815422
20.813582 48.273987 56.78018
19.921516 47.664051 56.939602
21.636904 48.948439 56.527206
20.945017 50.304495 55.790548
20.813582 48.273987 56.78018
24.020665 50.354925 55.426706
23.262486 50.018864 55.841082
24.187559 52.267868 54.351579
24.020665 50.354925 55.426706
14.993596 47.023611 55.277552
15.881654 47.942543 55.308033
14.233003 48.039112 54.364863
14.069609 46.086786 55.187847
14.993596 47.023611 55.277552
19.921152 61.716441 49.369678
19.346128 62.93813 48.485617
19.096339 61.018362 49.616232
22.411677 63.662523 48.202877
21.616979 63.07374 48.655182
22.192997 61.73714 49.428997
23.227896 64.127398 47.726095
22.411677 63.662523 48.202877
27.761836 58.962013 47.060953
27.252755 58.889623 47.908518
28.069786 57.236065 47.508734
27.761836 58.962013 47.060953
7.874116 56.590616 45.892937
6.977146 55.477671 45.913759
8.598982 55.75468 46.851673
7.874116 56.590616 45.892937
16.86339 48.801105 55.366566
17.744402 49.454107 55.416409
16.138727 49.834499 54.513099
15.881654 47.942543 55.308033
16.86339 48.801105 55.366566
24.372057 61.418596 49.008145
23.788587 62.77215 48.368435
23.571166 60.97237 49.616401
25.099974 61.663824 48.400126
24.372057 61.418596 49.008145
24.882553 59.864044 49.648092
25.806453 62.01496 47.625991
25.099974 61.663824 48.400126
26.23088 60.359735 48.233697
25.806453 62.01496 47.625991
26.693974 58.821293 48.727233
26.23088 60.359735 48.233697
26.073564 58.57083 49.533609
27.095439 57.100718 49.208429
27.252755 58.889623 47.908518
26.693974 58.821293 48.727233
4.84214 51.693107 46.483705
5.056424 53.573479 45.651697
5.672493 38.245832 53.244304
4.964075 39.240025 52.370908
6.589995 39.08612 53.484272
5.672493 38.245832 53.244304
7.526711 39.889521 53.743767
6.786951 40.826536 52.855339
6.589995 39.08612 53.484272
8.273881 39.046152 54.61081
9.071891 38.124851 55.526043
8.470837 40.786568 53.981876
7.526711 39.889521 53.743767
8.273881 39.046152 54.61081
10.311625 42.565647 54.414084
9.389137 41.762006 54.156767
10.140496 40.74684 55.106235
11.323102 43.486698 54.661915
10.571744 44.501865 53.712446
10.311625 42.565647 54.414084
19.245019 48.922598 56.152354
19.921516 47.664051 56.939602
19.461037 50.891592 55.249033
18.584361 50.184147 55.357864
19.245019 48.922598 56.152354
22.427702 49.587822 56.166557
21.636904 48.948439 56.527206
22.603123 51.409988 55.212099
22.427702 49.587822 56.166557
23.262486 50.018864 55.841082
24.401982 54.200582 53.240965
23.65233 53.773745 53.776009
24.187559 52.267868 54.351579
25.119684 54.565187 52.655437
24.584454 56.071064 52.079866
24.401982 54.200582 53.240965
25.767782 54.795677 52.028458
25.119684 54.565187 52.655437
5.57453 50.999459 47.298004
4.84214 51.693107 46.483705
5.117528 40.984102 51.70173
4.964075 39.240025 52.370908
5.325539 42.722071 51.061906
5.117528 40.984102 51.70173
6.058247 41.761105 51.95602
5.603353 44.556145 50.401262
5.325539 42.722071 51.061906
5.87511 46.424875 49.714754
5.603353 44.556145 50.401262
6.538015 45.367804 50.629688
6.094945 48.224256 49.002573
5.87511 46.424875 49.714754
6.302553 50.144098 48.213386
6.094945 48.224256 49.002573
7.017379 49.156376 49.153993
6.496964 51.931578 47.449424
5.57453 50.999459 47.298004
6.302553 50.144098 48.213386
9.308394 54.824171 47.816801
8.598982 55.75468 46.851673
8.405097 53.8767 47.724493
10.28545 55.847406 47.932491
9.308394 54.824171 47.816801
10.091566 53.969425 48.805311
11.314134 56.842083 48.054857
10.28545 55.847406 47.932491
12.223979 57.73244 48.158737
11.314134 56.842083 48.054857
11.978468 55.883018 49.024881
13.176222 58.728956 48.176632
12.223979 57.73244 48.158737
12.267364 44.371513 54.871987
11.323102 43.486698 54.661915
13.130262 45.211198 55.029426
14.069609 46.086786 55.187847
12.446117 46.262602 54.117718
12.267364 44.371513 54.871987
13.130262 45.211198 55.029426
14.0888 59.669876 48.188896
13.176222 58.728956 48.176632
13.80089 57.714296 49.141025
15.033562 60.631992 48.142044
14.0888 59.669876 48.188896
15.981636 61.65558 48.026174
15.033562 60.631992 48.142044
15.661541 59.678804 49.03742
16.92895 62.674366 47.827841
15.981636 61.65558 48.026174
17.8848 63.443195 47.733151
16.92895 62.674366 47.827841
17.565465 61.471222 48.826861
18.787134 64.205806 47.537983
17.8848 63.443195 47.733151
18.787134 64.205806 47.537983
19.346128 62.93813 48.485617
20.78462 62.392283 49.060182
19.921152 61.716441 49.369678
20.53483 60.472515 50.190798
20.78462 62.392283 49.060182
21.616979 63.07374 48.655182
23.227896 64.127398 47.726095
23.788587 62.77215 48.368435
26.385033 55.094036 51.29486
25.919407 56.734028 50.760742
25.767782 54.795677 52.028458
26.941529 55.376416 50.460662
26.385033 55.094036 51.29486
27.500309 55.444746 49.641947
27.095439 57.100718 49.208429
26.941529 55.376416 50.460662
27.984496 55.396806 48.797432
27.500309 55.444746 49.641947
28.069786 57.236065 47.508734
27.984496 55.396806 48.797432
3 0 49 50
3 0 51 53
3 51 13 52
3 51 52 53
3 1 16 14
3 1 18 16
3 2 54 56
3 54 19 55
3 54 55 56
3 2 21 19
3 2 23 21
3 3 26 24
3 3 27 26
3 3 28 27
3 57 30 58
3 60 59 30
3 61 31 62
3 63 33 64
3 65 64 31
3 63 64 65
3 66 34 67
3 69 68 34
3 4 35 29
3 6 36 15
3 6 37 36
3 6 38 37
3 7 39 17
3 7 40 39
3 8 70 71
3 8 72 74
3 72 41 73
3 72 73 74
3 8 42 41
3 9 43 20
3 9 44 43
3 9 45 44
3 10 46 22
3 10 75 77
3 77 76 46
3 75 76 77
3 5 47 32
3 11 48 25
3 11 78 80
3 80 79 48
3 78 79 80
3 11 81 82
3 12 83 84
3 12 85 86
3 13 87 88
3 13 89 90
3 14 15 4
3 16 15 14
3 16 6 15
3 16 17 6
3 18 17 16
3 18 7 17
3 19 91 92
3 19 93 95
3 93 8 94
3 93 94 95
3 19 20 8
3 21 20 19
3 21 9 20
3 21 22 9
3 23 22 21
3 23 10 22
3 24 25 5
3 26 25 24
3 26 11 25
3 26 96 98
3 98 97 11
3 96 97 98
3 27 99 101
3 101 100 26
3 99 100 101
3 27 102 103
3 27 104 105
3 28 106 108
3 108 107 27
3 106 107 108
3 28 109 111
3 109 12 110
3 109 110 111
3 112 0 113
3 114 29 115
3 116 29 117
3 118 4 119
3 120 119 29
3 118 119 120
3 30 121 122
3 30 123 125
3 123 4 124
3 123 124 125
3 30 14 4
3 126 14 127
3 128 127 30
3 126 127 128
3 129 1 130
3 131 130 14
3 129 130 131
3 31 132 133
3 31 134 136
3 134 2 135
3 134 135 136
3 31 32 2
3 33 32 31
3 33 5 32
3 137 33 138
3 34 139 141
3 139 33 140
3 139 140 141
3 34 5 33
3 34 24 5
3 142 24 143
3 144 143 34
3 142 143 144
3 145 3 146
3 147 146 24
3 145 146 147
3 149 148 3
3 150 0 151
3 29 152 153
3 35 154 156
3 156 155 29
3 154 155 156
3 35 157 158
3 15 35 4
3 36 35 15
3 36 159 161
3 161 160 35
3 159 160 161
3 36 162 163
3 37 164 166
3 166 165 36
3 164 165 166
3 37 167 169
3 167 0 168
3 167 168 169
3 37 13 0
3 38 13 37
3 38 170 172
3 172 171 13
3 170 171 172
3 17 38 6
3 39 38 17
3 39 173 175
3 175 174 38
3 173 174 175
3 39 176 177
3 40 178 180
3 180 179 39
3 178 179 180
3 40 181 182
3 183 1 184
3 41 185 186
3 41 187 189
3 187 1 188
3 187 188 189
3 41 18 1
3 42 18 41
3 42 7 18
3 20 42 8
3 43 42 20
3 43 7 42
3 43 40 7
3 44 40 43
3 44 190 192
3 192 191 40
3 190 191 192
3 44 193 194
3 45 195 197
3 197 196 44
3 195 196 197
3 45 198 199
3 22 45 9
3 46 45 22
3 46 200 202
3 202 201 45
3 200 201 202
3 46 203 204
3 206 205 46
3 32 23 2
3 47 23 32
3 47 10 23
3 25 47 5
3 48 47 25
3 48 10 47
3 48 207 209
3 209 208 10
3 207 208 209
3 211 210 48
3 213 212 11
3 214 28 215
3 216 215 3
3 214 215 216
3 217 28 218
3 219 12 220
3 221 220 28
3 219 220 221
3 222 12 223
3 225 224 12
