ply
format ascii 1.0
element vertex 231
property float x
property float y
property float z
element face 232
property list uchar int vertex_index
end_header
40.655075 8.710883 15.501492
40.303638 8.885671 9.317939
37.620655 11.782402 20.172951
39.374695 15.777584 12.507691
40.869465 8.787722 12.716676
40.571171 4.811531 12.371601
40.733307 5.508382 15.518954
36.537464 15.778339 19.132441
39.259712 16.97678 8.620244
38.94191 8.641575 6.243279
39.485149 4.28959 9.097581
39.632809 10.24356 17.425463
38.845718 14.024404 16.234385
40.319271 11.869226 14.004839
39.574043 13.127286 6.955619
40.371372 12.674108 10.559235
40.837219 8.653033 14.321334
40.881977 7.023566 13.986848
40.761684 7.359546 15.415837
35.76506 5.882321 3.172767
39.711094 8.702167 7.750458
39.197086 6.28582 7.552872
39.986229 6.613249 9.182186
38.77549 11.018592 18.668819
39.101471 9.199796 19.108885
38.082069 9.857946 20.553003
37.13953 13.710794 19.669008
37.762783 14.876745 17.71513
38.319092 12.916172 18.211321
39.315796 11.998301 16.892113
38.892254 13.270468 5.3536
39.41391 16.452065 10.516756
39.898827 14.757511 9.587754
40.001225 14.322165 11.442293
40.442619 12.292892 12.330823
39.926449 13.71503 13.287246
40.694817 8.785225 11.024148
40.504761 6.718512 10.826216
40.801186 6.835083 12.458958
40.76054 5.072699 13.980565
36.370213 12.395561 21.692293
35.891891 14.353545 21.139109
38.639324 18.756636 9.777163
38.715355 17.829386 11.794136
37.871464 8.641675 4.622924
37.114998 6.075465 4.559154
38.285854 6.147512 6.084343
38.565735 3.827164 7.547598
40.15118 4.580669 10.731474
40.27116 9.438008 16.339273
40.419041 7.793043 16.702471
39.875675 8.435189 17.871088
38.461407 17.163076 13.797648
37.111107 16.872108 17.223616
38.205379 16.06027 15.730075
39.144371 15.118092 14.315808
39.685421 12.9955 15.069182
40.070057 11.091269 15.710295
40.570179 10.050116 14.829625
38.454811 11.08395 4.837113
39.344952 10.975943 6.457502
40.019257 10.993119 8.131495
39.545502 15.242943 7.710538
40.084522 12.970192 8.74171
40.449383 10.888995 9.773938
40.689064 10.667967 11.473401
40.728523 10.377865 13.230712
40.486679 5.995924 16.912321
36.203037 7.200389 3.179009
35.485054 7.14688 2.494806
40.662296 4.458605 15.577383
40.675913 4.240763 14.808188
40.746924 5.290541 14.749759
36.006239 11.637386 22.62978
35.691002 12.642869 22.479938
35.451841 13.621861 22.203347
35.178082 14.632788 21.960207
34.738032 13.901104 23.024445
35.691002 12.642869 22.479938
36.131052 13.374553 21.415701
35.451841 13.621861 22.203347
38.238882 19.411307 10.551253
38.17918 19.9159 9.542979
38.276898 18.947682 11.55974
38.67734 18.293011 10.785649
38.238882 19.411307 10.551253
39.160697 2.996707 9.130837
38.700991 2.765494 8.355845
39.025442 4.058377 8.322589
36.684386 4.813386 4.56389
37.306547 4.86521 5.292616
39.191438 8.219363 19.393473
38.749234 8.513824 20.07886
37.970068 17.61285 14.53959
38.106537 18.149941 13.511809
36.824286 16.325223 18.178028
36.43565 17.312548 18.038334
36.148829 16.765663 18.992747
38.228174 12.285905 4.316453
37.939722 11.106734 4.110558
39.402607 16.109862 8.165391
39.186716 16.488478 7.272468
39.043821 17.355397 7.727321
40.230608 6.272349 17.643966
40.45286 6.894483 16.807396
40.196789 7.170908 17.539041
35.025986 5.883446 2.50899
35.485054 7.14688 2.494806
35.258829 4.640778 3.151555
35.025986 5.883446 2.50899
40.366656 2.830213 13.20643
40.392542 3.731954 12.378861
40.545285 3.909789 13.19917
38.239532 8.842899 20.800919
38.749234 8.513824 20.07886
38.59177 9.528871 19.830944
38.596702 14.470584 4.842512
38.446895 13.379164 4.574696
38.953671 14.384683 5.656178
38.596702 14.470584 4.842512
39.294565 14.313092 6.457187
39.233148 13.198877 6.15461
38.953671 14.384683 5.656178
40.639969 4.040374 14.003652
40.545285 3.909789 13.19917
40.665855 4.942115 13.176083
40.639969 4.040374 14.003652
40.675913 4.240763 14.808188
36.631176 11.416486 21.882108
37.256397 11.109906 21.122436
36.995434 12.088981 20.932622
36.631176 11.416486 21.882108
36.006239 11.637386 22.62978
35.846665 16.06296 19.994391
36.148829 16.765663 18.992747
35.523878 15.350563 20.997725
35.178082 14.632788 21.960207
36.214678 15.065942 20.135775
35.846665 16.06296 19.994391
35.523878 15.350563 20.997725
38.853825 18.186974 8.318937
39.043821 17.355397 7.727321
38.543631 19.076901 8.897396
38.17918 19.9159 9.542979
38.949518 17.866708 9.198704
38.853825 18.186974 8.318937
38.543631 19.076901 8.897396
37.493231 7.35857 4.591039
36.878006 7.296962 3.872203
37.256239 8.580067 3.904088
37.891975 4.901233 6.05521
37.306547 4.86521 5.292616
37.700426 6.111489 5.321748
38.031915 3.741059 6.786837
37.891975 4.901233 6.05521
38.425794 4.987338 6.81597
38.194226 2.635246 7.541952
38.031915 3.741059 6.786837
38.329481 1.573576 8.350199
38.194226 2.635246 7.541952
38.700991 2.765494 8.355845
40.182547 3.616524 11.558798
40.361176 4.6961 11.551538
40.392542 3.731954 12.378861
39.913148 3.424808 10.759405
40.182547 3.616524 11.558798
39.580133 3.279268 9.942459
39.818164 4.43513 9.914528
39.913148 3.424808 10.759405
39.160697 2.996707 9.130837
39.580133 3.279268 9.942459
36.440029 5.978893 3.86596
36.203037 7.200389 3.179009
36.878006 7.296962 3.872203
36.009417 4.716814 3.870697
36.440029 5.978893 3.86596
36.684386 4.813386 4.56389
35.258829 4.640778 3.151555
36.009417 4.716814 3.870697
39.925106 7.491981 18.12335
40.196789 7.170908 17.539041
40.147358 8.114116 17.28678
39.578541 7.837059 18.774574
39.488573 8.817493 18.489987
39.191438 8.219363 19.393473
39.925106 7.491981 18.12335
39.578541 7.837059 18.774574
37.487104 10.147678 21.312463
37.851362 10.820174 20.362977
37.256397 11.109906 21.122436
37.691883 9.188015 21.510038
37.487104 10.147678 21.312463
38.239532 8.842899 20.800919
37.691883 9.188015 21.510038
38.233511 18.483096 12.510053
38.276898 18.947682 11.55974
38.588381 17.496231 12.795892
38.233511 18.483096 12.510053
38.106537 18.149941 13.511809
36.667425 17.943494 17.069409
36.43565 17.312548 18.038334
37.294918 17.467366 16.252574
36.667425 17.943494 17.069409
37.842054 17.061447 15.505803
37.294918 17.467366 16.252574
37.658243 16.466189 16.476845
38.333393 16.611673 14.763862
37.970068 17.61285 14.53959
37.842054 17.061447 15.505803
37.648049 9.885596 4.003464
37.256239 8.580067 3.904088
38.163138 9.862813 4.730018
37.648049 9.885596 4.003464
37.939722 11.106734 4.110558
38.673533 12.177209 5.095357
38.228174 12.285905 4.316453
38.446895 13.379164 4.574696
39.280294 15.370921 6.834647
39.186716 16.488478 7.272468
39.559773 14.185115 7.333079
39.294565 14.313092 6.457187
39.280294 15.370921 6.834647
40.265592 5.339211 17.779033
40.230608 6.272349 17.643966
40.460215 4.958464 17.04861
40.265592 5.339211 17.779033
40.583528 4.714694 16.351927
40.609993 5.752153 16.215637
40.460215 4.958464 17.04861
40.662296 4.458605 15.577383
40.583528 4.714694 16.351927
3 0 18 16
3 68 19 69
3 1 22 20
3 2 25 23
3 2 28 26
3 2 23 28
3 3 33 31
3 3 35 33
3 4 38 36
3 6 39 17
3 6 70 72
3 72 71 39
3 70 71 72
3 74 73 40
3 75 41 76
3 75 76 77
3 78 40 79
3 80 79 41
3 78 79 80
3 81 42 82
3 83 43 84
3 85 84 42
3 83 84 85
3 9 46 44
3 10 47 21
3 10 86 88
3 88 87 47
3 86 87 88
3 5 48 37
3 90 89 45
3 11 51 49
3 92 91 24
3 93 52 94
3 7 95 97
3 95 53 96
3 95 96 97
3 12 54 27
3 12 55 54
3 12 56 55
3 11 57 29
3 11 49 57
3 98 59 99
3 14 60 30
3 14 61 60
3 8 100 102
3 100 62 101
3 100 101 102
3 15 63 32
3 15 64 63
3 15 65 64
3 13 66 34
3 13 58 66
3 103 67 104
3 105 104 50
3 103 104 105
3 16 17 4
3 18 17 16
3 18 6 17
3 19 106 107
3 19 108 109
3 20 21 9
3 22 21 20
3 22 10 21
3 112 111 5
3 110 111 112
3 23 24 11
3 25 24 23
3 25 113 115
3 115 114 24
3 113 114 115
3 26 27 7
3 28 27 26
3 28 12 27
3 28 29 12
3 23 29 28
3 23 11 29
3 116 30 117
3 118 30 119
3 120 14 121
3 122 121 30
3 120 121 122
3 31 32 8
3 33 32 31
3 33 15 32
3 33 34 15
3 35 34 33
3 35 13 34
3 36 37 1
3 38 37 36
3 38 5 37
3 17 38 4
3 39 38 17
3 39 5 38
3 39 123 125
3 125 124 5
3 123 124 125
3 127 126 39
3 40 128 130
3 130 129 2
3 128 129 130
3 132 131 40
3 133 7 134
3 41 135 136
3 41 137 139
3 137 7 138
3 137 138 139
3 41 26 7
3 40 26 41
3 40 2 26
3 140 8 141
3 42 142 143
3 42 144 146
3 144 8 145
3 144 145 146
3 42 31 8
3 43 31 42
3 43 3 31
3 44 147 149
3 147 45 148
3 147 148 149
3 46 45 44
3 46 150 152
3 152 151 45
3 150 151 152
3 21 46 9
3 47 46 21
3 47 153 155
3 155 154 46
3 153 154 155
3 47 156 157
3 160 159 47
3 158 159 160
3 37 22 1
3 48 22 37
3 48 10 22
3 161 48 162
3 163 162 5
3 161 162 163
3 164 48 165
3 166 10 167
3 168 167 48
3 166 167 168
3 170 169 10
3 45 171 173
3 171 19 172
3 171 172 173
3 174 19 175
3 176 175 45
3 174 175 176
3 178 177 19
3 49 50 0
3 51 50 49
3 51 179 181
3 181 180 50
3 179 180 181
3 24 51 11
3 182 51 183
3 184 183 24
3 182 183 184
3 186 185 51
3 187 25 188
3 189 188 2
3 187 188 189
3 190 25 191
3 193 192 25
3 194 43 195
3 52 196 198
3 196 43 197
3 196 197 198
3 52 3 43
3 53 199 200
3 53 201 202
3 27 53 7
3 54 53 27
3 54 203 205
3 205 204 53
3 203 204 205
3 54 206 208
3 206 52 207
3 206 207 208
3 55 52 54
3 55 3 52
3 55 35 3
3 56 35 55
3 56 13 35
3 29 56 12
3 57 56 29
3 57 13 56
3 57 58 13
3 49 58 57
3 49 0 58
3 209 44 210
3 59 211 213
3 211 44 212
3 211 212 213
3 59 9 44
3 30 214 216
3 214 59 215
3 214 215 216
3 60 59 30
3 60 9 59
3 60 20 9
3 61 20 60
3 61 1 20
3 62 217 218
3 62 219 221
3 219 14 220
3 219 220 221
3 32 62 8
3 63 62 32
3 63 14 62
3 63 61 14
3 64 61 63
3 64 1 61
3 64 36 1
3 65 36 64
3 65 4 36
3 34 65 15
3 66 65 34
3 66 4 65
3 66 16 4
3 58 16 66
3 58 0 16
3 50 18 0
3 67 18 50
3 67 6 18
3 222 67 223
3 224 67 225
3 226 6 227
3 228 227 67
3 226 227 228
3 230 229 6
