ply
format ascii 1.0
element vertex 255
property float x
property float y
property float z
element face 244
property list uchar int vertex_index
end_header
-6.843683 -10.74527 -62.383541
-12.750035 17.574854 -72.861137
-6.76012 -0.361538 -66.780869
-12.801277 5.704574 -70.912178
-11.925368 -7.628088 -65.659599
-9.186964 14.850807 -71.942596
-12.944426 11.835321 -72.415161
-9.500757 9.080718 -71.096199
-9.549664 2.792621 -69.19696
-14.323195 -13.193902 -63.818836
-12.681582 22.662584 -72.072296
-9.006163 19.921186 -71.754951
-6.850972 -5.937109 -64.513565
-12.505415 -0.959878 -68.54464
-9.40145 -3.326544 -66.758804
-8.864308 -9.341716 -63.934467
-7.720047 12.925487 -71.105476
-9.328588 11.915546 -71.626671
-7.84172 10.107585 -70.668625
-7.947641 7.299314 -70.019516
-7.238864 23.039619 -70.159256
-9.054275 22.265598 -71.293602
-7.320583 20.682253 -70.815292
-7.423162 18.23859 -71.174164
-14.757195 18.781399 -72.869324
-14.760119 15.918777 -72.938942
-12.932677 8.744529 -71.765381
-14.753386 10.001472 -72.177872
-14.639701 6.671329 -71.360023
-14.480613 3.253332 -70.313347
-14.220756 -0.07944 -69.129059
-12.628029 2.313453 -69.775253
-8.030794 1.473084 -68.123993
-9.461782 -0.169651 -68.05896
-8.077904 -1.498571 -66.986488
-8.072165 -4.611405 -65.690643
-6.858318 -3.296299 -65.641991
-13.207275 -10.257468 -64.829948
-11.443507 -10.864321 -64.116325
-9.879335 -11.402729 -63.385937
-10.312817 -8.479524 -64.827156
-10.96317 16.166597 -72.554253
-12.776244 14.85146 -72.782883
-10.964426 13.311333 -72.31134
-11.168496 10.484849 -71.871552
-11.118714 7.582562 -71.153954
-11.081817 4.42388 -70.18895
-9.447683 6.055997 -70.244644
-8.077204 4.386619 -69.179787
-12.8408 20.125566 -72.656624
-10.803935 23.755224 -71.386749
-10.85291 21.289162 -72.113335
-10.904679 18.936874 -72.469185
-9.256043 17.528887 -72.042122
-7.584242 15.804073 -71.287956
-6.86904 -8.702463 -63.309917
-14.736757 12.949386 -72.68779
-12.307514 -4.269605 -67.175636
-10.994002 1.043265 -68.978058
-10.907389 -2.14277 -67.711525
-10.639251 -5.376387 -66.281097
-9.194623 -6.529078 -65.30925
-7.931568 -7.52239 -64.358017
-7.703669 -10.111396 -63.095947
-8.528319 -12.065496 -62.57098
-7.328245 -12.475909 -61.840508
-7.065751 10.647771 -70.345425
-7.780883 11.516536 -70.887051
-7.004914 12.056722 -70.56385
-7.160542 9.281302 -70.109139
-7.065751 10.647771 -70.345425
-6.472523 21.041407 -70.175365
-7.279724 21.860936 -70.487274
-6.431664 22.22009 -69.847347
-6.577006 19.820033 -70.461097
-6.472523 21.041407 -70.175365
-7.312411 4.937394 -68.964664
-8.012422 5.842966 -69.599651
-7.24763 6.393741 -69.384529
-7.413508 3.48964 -68.535202
-7.312411 4.937394 -68.964664
-13.677868 21.998278 -72.273087
-13.725992 23.136279 -71.921444
-12.761191 21.394075 -72.36446
-13.757477 20.729768 -72.56525
-13.677868 21.998278 -72.273087
-9.846946 24.101932 -70.926567
-10.813339 24.797681 -70.906181
-6.784002 16.142117 -70.813449
-7.503702 17.021331 -71.23106
-6.703462 17.359375 -70.756553
-6.83401 14.857551 -70.777432
-6.784002 16.142117 -70.813449
-15.674576 10.538742 -72.254013
-15.578038 8.909524 -71.920101
-13.254976 -2.164001 -68.196106
-14.112647 -1.723782 -68.488315
-13.363086 -0.519659 -68.836849
-12.406464 -2.614742 -67.860138
-13.156025 -3.818865 -67.511604
-13.254976 -2.164001 -68.196106
-13.92283 -14.930674 -63.002697
-14.8385 -14.775168 -63.264257
-7.646636 -13.755559 -61.415245
-7.002641 -13.762895 -61.092612
-7.213503 7.877166 -69.784584
-7.89468 8.703449 -70.344071
-7.160542 9.281302 -70.109139
-7.24763 6.393741 -69.384529
-7.213503 7.877166 -69.784584
-12.722161 23.775807 -71.647426
-13.725992 23.136279 -71.921444
-13.766571 24.249502 -71.496574
-8.14657 22.652608 -70.726429
-8.972116 23.357119 -70.879994
-8.06441 23.74413 -70.312821
-6.628296 18.598202 -70.640534
-7.371873 19.460421 -70.994728
-6.577006 19.820033 -70.461097
-6.703462 17.359375 -70.756553
-6.628296 18.598202 -70.640534
-15.764791 17.859251 -72.831917
-15.768876 19.307147 -72.704258
-15.766253 16.42794 -72.866726
-15.764791 17.859251 -72.831917
-14.758657 17.350088 -72.904133
-15.711621 14.992959 -72.826645
-15.766253 16.42794 -72.866726
-15.521195 7.244453 -71.511177
-15.578038 8.909524 -71.920101
-14.696544 8.3364 -71.768947
-15.557307 5.573645 -71.057766
-16.438801 6.146769 -71.20892
-15.521195 7.244453 -71.511177
-15.477763 3.864647 -70.534427
-15.557307 5.573645 -71.057766
-14.560157 4.962331 -70.836685
-15.298388 2.113032 -69.973206
-15.477763 3.864647 -70.534427
-14.350684 1.586946 -69.721203
-15.16846 0.446646 -69.381062
-15.298388 2.113032 -69.973206
-12.890448 -11.928755 -64.033602
-13.448408 -13.396971 -63.528045
-13.765235 -11.725685 -64.324392
-12.008564 -12.232181 -63.67679
-12.890448 -11.928755 -64.033602
-12.325391 -10.560894 -64.473137
-11.179896 -12.492688 -63.324585
-12.008564 -12.232181 -63.67679
-10.661421 -11.133525 -63.751131
-10.39781 -12.761893 -62.959391
-11.179896 -12.492688 -63.324585
-7.265204 24.152275 -69.715667
-8.06441 23.74413 -70.312821
-6.411414 23.321861 -69.495503
-7.265204 24.152275 -69.715667
-6.431664 22.22009 -69.847347
-6.411414 23.321861 -69.495503
-7.390303 2.032872 -68.007305
-8.053999 2.929851 -68.65189
-7.413508 3.48964 -68.535202
-6.754966 1.115561 -67.335743
-7.395457 0.555773 -67.452431
-7.390303 2.032872 -68.007305
-15.214094 -12.884264 -64.10045
-14.8385 -14.775168 -63.264257
-15.729398 -14.46553 -63.545872
-14.639073 -11.411123 -64.62565
-15.214094 -12.884264 -64.10045
-14.081112 -9.942906 -65.131206
-13.765235 -11.725685 -64.324392
-14.639073 -11.411123 -64.62565
-13.3936 -8.554417 -65.592884
-14.081112 -9.942906 -65.131206
-12.752646 -7.239727 -66.00771
-12.566322 -8.942778 -65.244774
-13.3936 -8.554417 -65.592884
-14.715674 20.057685 -72.671601
-15.768876 19.307147 -72.704258
-13.798997 19.453482 -72.762974
-14.715674 20.057685 -72.671601
-13.757477 20.729768 -72.56525
-11.783337 24.322127 -71.304653
-10.813339 24.797681 -70.906181
-11.742759 23.208904 -71.729523
-12.722161 23.775807 -71.647426
-11.783337 24.322127 -71.304653
-9.929105 23.010411 -71.340176
-9.846946 24.101932 -70.926567
-8.972116 23.357119 -70.879994
-6.901912 13.418258 -70.686192
-7.652145 14.36478 -71.196716
-6.83401 14.857551 -70.777432
-7.004914 12.056722 -70.56385
-6.901912 13.418258 -70.686192
-6.163612 0.246253 -66.641873
-6.754966 1.115561 -67.335743
-6.233488 -1.228554 -66.106892
-6.163612 0.246253 -66.641873
-6.282587 -2.695934 -65.537453
-6.809219 -1.828918 -66.21143
-6.233488 -1.228554 -66.106892
-6.304613 -4.08599 -64.969761
-6.282587 -2.695934 -65.537453
-6.30094 -5.406395 -64.405548
-6.854645 -4.616704 -65.077778
-6.304613 -4.08599 -64.969761
-6.354304 -6.786081 -63.841879
-6.30094 -5.406395 -64.405548
-6.363338 -8.168757 -63.240055
-6.860006 -7.319786 -63.911741
-6.354304 -6.786081 -63.841879
-6.432021 -9.52208 -62.686857
-6.363338 -8.168757 -63.240055
-6.419343 -10.543483 -62.223669
-6.856362 -9.723866 -62.846729
-6.432021 -9.52208 -62.686857
-15.699941 13.508263 -72.701069
-15.711621 14.992959 -72.826645
-14.748438 14.434082 -72.813366
-15.666262 12.012698 -72.508972
-14.745072 11.475429 -72.432831
-15.674576 10.538742 -72.254013
-15.699941 13.508263 -72.701069
-15.666262 12.012698 -72.508972
-15.065635 -1.33312 -68.738506
-15.16846 0.446646 -69.381062
-15.065635 -1.33312 -68.738506
-14.112647 -1.723782 -68.488315
-12.943719 -5.560486 -66.765728
-13.156025 -3.818865 -67.511604
-12.116441 -5.948847 -66.417618
-12.752646 -7.239727 -66.00771
-12.943719 -5.560486 -66.765728
-13.92283 -14.930674 -63.002697
-13.448408 -13.396971 -63.528045
-9.637573 -12.979282 -62.596008
-10.39781 -12.761893 -62.959391
-8.962065 -13.310665 -62.18853
-9.637573 -12.979282 -62.596008
-9.203827 -11.734113 -62.978459
-8.246672 -13.550352 -61.780482
-8.962065 -13.310665 -62.18853
-7.928282 -12.270702 -62.205744
-7.646636 -13.755559 -61.415245
-8.246672 -13.550352 -61.780482
-6.780295 -12.477369 -61.543797
-7.002641 -13.762895 -61.092612
-7.085964 -11.610589 -62.112025
-6.538015 -11.612049 -61.815314
-6.780295 -12.477369 -61.543797
-6.538015 -11.612049 -61.815314
-6.419343 -10.543483 -62.223669
-6.113675 -11.410262 -61.655442
3 66 18 67
3 68 67 16
3 66 67 68
3 70 69 18
3 71 22 72
3 73 72 20
3 71 72 73
3 75 74 22
3 1 25 24
3 3 28 26
3 3 29 28
3 3 31 29
3 2 34 32
3 2 36 34
3 4 38 37
3 4 40 38
3 5 43 41
3 7 44 17
3 7 45 44
3 7 47 45
3 76 48 77
3 78 77 19
3 76 77 78
3 80 79 48
3 10 81 82
3 10 83 85
3 83 49 84
3 83 84 85
3 86 50 87
3 11 51 21
3 11 52 51
3 11 53 52
3 88 54 89
3 90 89 23
3 88 89 90
3 92 91 54
3 6 56 42
3 94 93 27
3 13 95 97
3 97 96 30
3 95 96 97
3 13 98 100
3 98 57 99
3 98 99 100
3 8 58 46
3 14 59 33
3 14 60 59
3 14 61 60
3 12 62 35
3 12 55 62
3 9 101 102
3 15 64 39
3 15 63 64
3 103 65 104
3 16 17 5
3 18 17 16
3 18 7 17
3 18 19 7
3 105 19 106
3 107 106 18
3 105 106 107
3 109 108 19
3 110 10 111
3 110 111 112
3 20 113 115
3 113 21 114
3 113 114 115
3 22 21 20
3 22 11 21
3 22 23 11
3 116 23 117
3 118 117 22
3 116 117 118
3 120 119 23
3 24 121 122
3 25 123 125
3 125 124 24
3 123 124 125
3 25 126 127
3 26 27 6
3 28 27 26
3 28 128 130
3 130 129 27
3 128 129 130
3 28 131 133
3 131 132 133
3 29 134 136
3 136 135 28
3 134 135 136
3 29 137 138
3 29 139 141
3 139 30 140
3 139 140 141
3 31 30 29
3 31 13 30
3 32 33 8
3 34 33 32
3 34 14 33
3 34 35 14
3 36 35 34
3 36 12 35
3 37 142 144
3 144 143 9
3 142 143 144
3 38 145 147
3 147 146 37
3 145 146 147
3 38 148 149
3 38 150 152
3 150 39 151
3 150 151 152
3 40 39 38
3 40 15 39
3 153 20 154
3 155 20 156
3 158 157 20
3 41 42 1
3 43 42 41
3 43 6 42
3 17 43 5
3 44 43 17
3 44 6 43
3 44 26 6
3 45 26 44
3 45 3 26
3 45 46 3
3 47 46 45
3 47 8 46
3 19 47 7
3 48 47 19
3 48 8 47
3 48 32 8
3 159 32 160
3 161 160 48
3 159 160 161
3 162 2 163
3 164 163 32
3 162 163 164
3 165 9 166
3 165 166 167
3 168 9 169
3 170 37 171
3 172 171 9
3 170 171 172
3 173 37 174
3 175 4 176
3 177 176 37
3 175 176 177
3 178 24 179
3 49 180 182
3 180 24 181
3 180 181 182
3 49 1 24
3 50 183 184
3 50 185 187
3 185 10 186
3 185 186 187
3 21 188 190
3 188 50 189
3 188 189 190
3 51 50 21
3 51 10 50
3 51 49 10
3 52 49 51
3 52 1 49
3 52 41 1
3 53 41 52
3 53 5 41
3 23 53 11
3 54 53 23
3 54 5 53
3 54 16 5
3 191 16 192
3 193 192 54
3 191 192 193
3 195 194 16
3 196 2 197
3 198 2 199
3 200 36 201
3 202 201 2
3 200 201 202
3 203 36 204
3 205 12 206
3 207 206 36
3 205 206 207
3 208 12 209
3 210 55 211
3 212 211 12
3 210 211 212
3 213 55 214
3 215 0 216
3 217 216 55
3 215 216 217
3 42 25 1
3 56 25 42
3 56 218 220
3 220 219 25
3 218 219 220
3 27 56 6
3 221 56 222
3 223 222 27
3 221 222 223
3 225 224 56
3 30 226 227
3 229 228 30
3 57 230 231
3 57 232 234
3 232 4 233
3 232 233 234
3 46 31 3
3 58 31 46
3 58 13 31
3 33 58 8
3 59 58 33
3 59 13 58
3 59 57 13
3 60 57 59
3 60 4 57
3 60 40 4
3 61 40 60
3 61 15 40
3 35 61 14
3 62 61 35
3 62 15 61
3 62 63 15
3 55 63 62
3 55 0 63
3 236 235 9
3 39 237 238
3 64 239 241
3 241 240 39
3 239 240 241
3 64 242 243
3 64 244 246
3 244 65 245
3 244 245 246
3 63 65 64
3 63 0 65
3 65 247 248
3 65 249 251
3 249 0 250
3 249 250 251
3 252 0 253
3 252 253 254
