ply
format ascii 1.0
element vertex 326
property float x
property float y
property float z
element face 295
property list uchar int vertex_index
end_header
32.180099 13.522241 26.477575
24.74509 29.723717 27.637377
29.044535 21.139059 26.407442
34.859829 19.846241 18.602417
25.195086 33.401226 23.831646
27.546375 29.142345 23.115299
30.736271 17.376837 26.219358
32.030979 20.748652 22.330256
33.593971 16.795958 22.775997
37.525612 21.748247 7.494498
37.83844 20.065977 11.325344
27.007992 25.292892 26.887321
29.841433 24.90353 22.649263
32.844326 23.885817 18.435104
35.616108 22.363123 14.530934
37.478729 18.062624 15.281532
23.791945 33.952305 26.119457
24.990744 31.538469 25.816002
26.395304 31.212152 23.451984
26.140554 29.302877 25.496548
31.33634 15.379067 26.533663
32.18721 16.988773 24.547197
32.953354 15.119183 24.642256
34.464272 14.912031 22.781305
37.719036 21.075163 9.308796
36.827374 22.333782 10.996354
24.003695 37.589409 22.330412
28.041208 23.218369 26.620659
28.433296 25.078291 24.782841
29.455662 23.080395 24.578438
33.487041 20.27401 20.473635
32.392159 22.434404 20.484482
33.889709 21.725994 18.594809
34.307655 23.049641 16.531269
35.343327 21.10425 16.538914
36.615669 20.233486 14.799624
36.223743 19.014879 16.915203
37.528019 20.49111 4.512877
36.748119 21.125988 2.839202
23.899567 35.754566 24.326385
27.757915 30.790161 21.229279
29.060081 28.648096 20.795425
29.915092 19.18767 26.305815
30.499741 21.116968 24.328094
31.425591 19.088272 24.301588
32.884773 18.779787 22.455362
34.403698 18.218773 20.62895
35.760193 17.752987 18.853052
35.155865 16.347582 20.85634
33.730434 22.179741 -1.324572
37.166775 22.388481 5.790702
38.096012 19.9062 6.221335
38.447937 19.397167 8.01763
30.598675 13.69078 28.28233
25.860256 27.393917 27.355734
26.5354 23.231735 28.855194
27.476776 21.207249 28.593082
28.378426 19.357443 28.298918
29.131672 17.328875 28.313931
29.841173 15.502716 28.312883
27.363726 27.242218 24.951536
28.776726 26.928774 22.803534
30.272945 26.397703 20.673859
30.947502 22.775278 22.507015
31.348289 24.436226 20.53615
31.640278 26.027943 18.553425
33.135429 25.289465 16.432346
34.44437 24.472116 14.584446
35.744198 23.462873 12.667699
36.811012 21.264696 12.920585
37.751667 19.136806 13.225969
34.859695 21.643021 -0.098147
35.943939 21.364697 1.39703
32.45115 12.614448 26.622463
32.913088 13.38862 25.648092
24.139093 30.828698 27.911221
24.074787 29.73601 28.776625
24.867917 30.631093 26.726689
24.26192 31.736073 27.000534
24.139093 30.828698 27.911221
32.913088 13.38862 25.648092
33.299715 14.187091 24.730432
32.566727 14.320712 25.559916
36.271248 23.481155 10.842807
36.761292 22.85162 9.992691
23.96806 38.552904 21.403409
24.669897 37.283797 21.146139
37.56942 19.461298 4.037604
37.94079 19.173588 4.82454
25.235295 34.320442 22.872681
24.587536 35.497112 23.12005
24.547327 34.577896 24.079015
25.861556 33.17313 22.70617
25.235295 34.320442 22.872681
35.178082 14.632788 21.960207
34.738032 13.901104 23.024445
33.346495 23.634962 -1.574021
33.103141 22.467486 -1.903215
37.346193 22.068364 6.6426
36.80934 23.299756 6.452699
36.988758 22.979639 7.304597
38.238882 19.411307 10.551253
38.17918 19.9159 9.542979
37.778738 20.57057 10.31707
38.276898 18.947682 11.55974
38.238882 19.411307 10.551253
29.31956 12.865131 30.161917
30.094676 12.83585 29.262521
29.823559 13.720061 29.181725
26.221066 22.263792 29.807223
25.791458 23.326706 29.900821
26.691754 21.251549 29.676167
27.006088 22.219492 28.724138
26.221066 22.263792 29.807223
27.972611 18.412268 29.28219
27.55675 19.3723 29.403139
28.349233 17.397984 29.289697
28.755049 18.343159 28.306424
27.972611 18.412268 29.28219
29.444808 14.626029 29.197002
29.082101 15.484737 29.252663
29.823559 13.720061 29.181725
30.219924 14.596748 28.297607
29.444808 14.626029 29.197002
37.970068 17.61285 14.53959
38.106537 18.149941 13.511809
37.615198 18.599715 14.25375
36.43565 17.312548 18.038334
36.148829 16.765663 18.992747
34.97081 22.789 0.379725
34.457211 23.154964 -0.312613
36.315016 19.998179 1.682793
36.346029 21.245342 2.118116
36.717106 19.878824 2.403879
35.767326 20.190531 0.962962
36.315016 19.998179 1.682793
23.66252 32.942992 27.152262
23.13561 34.075629 27.287021
24.391344 32.745387 25.96773
23.66252 32.942992 27.152262
24.26192 31.736073 27.000534
34.055174 14.083514 23.799957
33.708813 15.015607 23.71178
33.299715 14.187091 24.730432
34.738032 13.901104 23.024445
34.055174 14.083514 23.799957
37.110411 22.558853 8.241764
36.988758 22.979639 7.304597
37.207123 22.222311 9.148912
37.622324 21.411705 8.401647
37.110411 22.558853 8.241764
37.273205 21.704473 10.152575
37.207123 22.222311 9.148912
36.761292 22.85162 9.992691
23.346158 38.782189 22.632959
23.335493 37.845578 23.563413
23.346158 38.782189 22.632959
23.96806 38.552904 21.403409
37.138069 20.808549 3.676039
36.678011 22.07246 3.421978
37.067961 21.755021 4.258816
37.17947 19.778737 3.200766
37.138069 20.808549 3.676039
37.56942 19.461298 4.037604
36.717106 19.878824 2.403879
37.17947 19.778737 3.200766
23.146446 35.165289 26.397124
23.13561 34.075629 27.287021
23.200257 36.066419 25.500588
23.146446 35.165289 26.397124
23.845756 34.853436 25.222921
23.28343 36.928156 24.5614
23.200257 36.066419 25.500588
23.951631 36.671988 23.328398
23.335493 37.845578 23.563413
23.28343 36.928156 24.5614
24.6396 36.414534 22.122063
23.951631 36.671988 23.328398
24.587536 35.497112 23.12005
24.669897 37.283797 21.146139
24.6396 36.414534 22.122063
26.461666 32.078593 22.516339
25.861556 33.17313 22.70617
25.795195 32.306689 23.641815
27.142971 31.867598 21.404986
26.461666 32.078593 22.516339
27.076609 31.001157 22.340632
27.811236 31.58721 20.31668
27.142971 31.867598 21.404986
28.485671 30.497299 20.091378
27.811236 31.58721 20.31668
29.136754 29.426266 19.874451
28.485671 30.497299 20.091378
28.408998 29.719129 21.012352
29.794235 28.335237 19.717948
29.136754 29.426266 19.874451
35.846665 16.06296 19.994391
36.148829 16.765663 18.992747
35.458029 17.050285 19.854696
35.523878 15.350563 20.997725
34.810068 15.629807 21.818822
35.178082 14.632788 21.960207
35.846665 16.06296 19.994391
35.523878 15.350563 20.997725
33.427509 20.94303 -1.605226
33.103141 22.467486 -1.903215
34.089317 20.700247 -1.013057
33.427509 20.94303 -1.605226
36.648111 23.605272 5.561379
36.80934 23.299756 6.452699
36.887339 22.703706 4.897728
36.648111 23.605272 5.561379
37.347397 21.439795 5.151789
37.067961 21.755021 4.258816
36.887339 22.703706 4.897728
38.224787 18.881133 5.678769
37.94079 19.173588 4.82454
37.812016 20.198655 5.367106
38.461971 18.820107 6.527867
38.224787 18.881133 5.678769
38.637934 18.56559 7.426014
38.461971 18.820107 6.527867
38.271974 19.651683 7.119483
38.853825 18.186974 8.318937
38.637934 18.56559 7.426014
38.543631 19.076901 8.897396
38.083487 20.236165 8.663213
38.17918 19.9159 9.542979
38.853825 18.186974 8.318937
38.543631 19.076901 8.897396
30.848652 12.797084 28.421401
31.639364 12.712815 27.519023
31.389387 13.60651 27.379953
30.848652 12.797084 28.421401
30.094676 12.83585 29.262521
24.615293 28.681734 28.54624
24.074787 29.73601 28.776625
25.172877 27.516834 28.405419
25.302673 28.558817 27.496555
24.615293 28.681734 28.54624
25.699604 26.393546 28.243623
25.172877 27.516834 28.405419
26.273472 25.343033 28.009417
26.434124 26.343404 27.121527
25.699604 26.393546 28.243623
26.037176 24.312455 28.993353
25.791458 23.326706 29.900821
26.771696 24.262313 27.871257
26.273472 25.343033 28.009417
26.037176 24.312455 28.993353
27.105925 20.297203 29.550221
26.691754 21.251549 29.676167
27.927601 20.282346 28.446
27.105925 20.297203 29.550221
27.55675 19.3723 29.403139
28.727351 16.397816 29.253187
28.349233 17.397984 29.289697
29.486422 16.415796 28.313407
28.727351 16.397816 29.253187
29.082101 15.484737 29.252663
32.45115 12.614448 26.622463
31.639364 12.712815 27.519023
30.400667 27.210041 19.657165
29.794235 28.335237 19.717948
29.666513 27.5229 20.734642
31.084333 27.025161 18.596948
30.400667 27.210041 19.657165
30.956612 26.212823 19.613642
31.798523 26.703103 17.521048
31.084333 27.025161 18.596948
32.546098 26.333864 16.460508
31.798523 26.703103 17.521048
32.387853 25.658704 17.492885
33.165054 26.034878 15.46459
32.546098 26.333864 16.460508
33.819524 25.626203 14.540641
33.165054 26.034878 15.46459
33.7899 24.88079 15.508396
34.506698 25.064374 13.588075
33.819524 25.626203 14.540641
35.156612 24.559752 12.629701
34.506698 25.064374 13.588075
35.094284 23.967495 13.626072
35.72966 24.045701 11.678479
35.156612 24.559752 12.629701
36.285786 22.898328 11.832027
36.271248 23.481155 10.842807
35.72966 24.045701 11.678479
38.233511 18.483096 12.510053
38.276898 18.947682 11.55974
37.795053 19.601391 12.275657
38.233511 18.483096 12.510053
38.106537 18.149941 13.511809
36.667425 17.943494 17.069409
35.991968 18.383933 17.884128
36.43565 17.312548 18.038334
37.294918 17.467366 16.252574
36.851236 18.538752 16.098368
36.667425 17.943494 17.069409
37.842054 17.061447 15.505803
37.294918 17.467366 16.252574
37.970068 17.61285 14.53959
37.842054 17.061447 15.505803
33.89258 23.423324 -0.925825
33.346495 23.634962 -1.574021
34.295065 21.911381 -0.71136
33.89258 23.423324 -0.925825
34.457211 23.154964 -0.312613
34.653948 20.431887 -0.399844
34.089317 20.700247 -1.013057
34.295065 21.911381 -0.71136
36.327953 22.34781 2.614046
36.678011 22.07246 3.421978
35.925863 22.467164 1.892961
36.327953 22.34781 2.614046
36.346029 21.245342 2.118116
35.512932 22.649838 1.127313
35.925863 22.467164 1.892961
35.401817 21.503859 0.649442
34.97081 22.789 0.379725
35.512932 22.649838 1.127313
35.225205 20.329693 0.215373
35.401817 21.503859 0.649442
35.767326 20.190531 0.962962
34.653948 20.431887 -0.399844
35.225205 20.329693 0.215373
3 0 73 74
3 1 75 76
3 1 77 79
3 77 17 78
3 77 78 79
3 1 19 17
3 0 22 20
3 0 80 82
3 82 81 22
3 80 81 82
3 83 25 84
3 86 85 26
3 2 29 27
3 3 32 30
3 3 34 32
3 3 36 34
3 88 87 37
3 4 39 16
3 4 89 91
3 91 90 39
3 89 90 91
3 4 92 93
3 5 40 18
3 5 41 40
3 6 44 42
3 8 45 21
3 8 46 45
3 8 48 46
3 95 94 23
3 96 49 97
3 9 98 100
3 98 50 99
3 98 99 100
3 9 51 50
3 9 52 51
3 10 101 103
3 103 102 24
3 101 102 103
3 10 104 105
3 108 107 53
3 106 107 108
3 109 55 110
3 111 56 112
3 113 112 55
3 111 112 113
3 114 57 115
3 116 58 117
3 118 117 57
3 116 117 118
3 119 59 120
3 121 53 122
3 123 122 59
3 121 122 123
3 11 60 54
3 12 61 28
3 12 62 61
3 7 63 43
3 13 64 31
3 13 65 64
3 13 66 65
3 14 67 33
3 14 68 67
3 14 69 68
3 15 70 35
3 15 124 126
3 126 125 70
3 124 125 126
3 128 127 47
3 129 71 130
3 131 72 132
3 133 132 38
3 131 132 133
3 135 134 72
3 136 16 137
3 17 138 140
3 138 16 139
3 138 139 140
3 17 4 16
3 17 18 4
3 19 18 17
3 19 5 18
3 20 21 6
3 22 21 20
3 22 8 21
3 22 23 8
3 141 23 142
3 143 142 22
3 141 142 143
3 145 144 23
3 146 9 147
3 148 24 149
3 150 149 9
3 148 149 150
3 25 151 153
3 151 24 152
3 151 152 153
3 25 10 24
3 26 154 155
3 157 156 26
3 27 28 11
3 29 28 27
3 29 12 28
3 30 31 7
3 32 31 30
3 32 13 31
3 32 33 13
3 34 33 32
3 34 14 33
3 34 35 14
3 36 35 34
3 36 15 35
3 37 158 160
3 158 38 159
3 158 159 160
3 161 38 162
3 163 162 37
3 161 162 163
3 165 164 38
3 16 166 167
3 39 168 170
3 170 169 16
3 168 169 170
3 39 171 172
3 39 173 175
3 173 26 174
3 173 174 175
3 176 26 177
3 178 177 39
3 176 177 178
3 180 179 26
3 18 181 183
3 183 182 4
3 181 182 183
3 40 184 186
3 186 185 18
3 184 185 186
3 40 187 188
3 40 189 190
3 41 191 193
3 193 192 40
3 191 192 193
3 41 194 195
3 42 43 2
3 44 43 42
3 44 7 43
3 21 44 6
3 45 44 21
3 45 7 44
3 45 30 7
3 46 30 45
3 46 3 30
3 46 47 3
3 48 47 46
3 48 196 198
3 198 197 47
3 196 197 198
3 23 48 8
3 199 48 200
3 201 200 23
3 199 200 201
3 203 202 48
3 49 204 205
3 49 206 207
3 50 208 209
3 50 210 211
3 50 212 214
3 212 37 213
3 212 213 214
3 51 37 50
3 51 215 217
3 217 216 37
3 215 216 217
3 51 218 219
3 52 220 222
3 222 221 51
3 220 221 222
3 52 223 224
3 24 52 9
3 225 52 226
3 227 226 24
3 225 226 227
3 229 228 52
3 53 230 232
3 232 231 0
3 230 231 232
3 234 233 53
3 235 1 236
3 237 54 238
3 239 238 1
3 237 238 239
3 240 54 241
3 242 11 243
3 244 243 54
3 242 243 244
3 55 245 246
3 55 247 249
3 247 11 248
3 247 248 249
3 55 27 11
3 56 27 55
3 56 2 27
3 250 56 251
3 57 252 254
3 252 56 253
3 252 253 254
3 57 2 56
3 57 42 2
3 58 42 57
3 58 6 42
3 255 58 256
3 59 257 259
3 257 58 258
3 257 258 259
3 59 6 58
3 59 20 6
3 53 20 59
3 53 0 20
3 261 260 0
3 54 19 1
3 60 19 54
3 60 5 19
3 28 60 11
3 61 60 28
3 61 5 60
3 61 41 5
3 62 41 61
3 62 262 264
3 264 263 41
3 262 263 264
3 43 29 2
3 63 29 43
3 63 12 29
3 31 63 7
3 64 63 31
3 64 12 63
3 64 62 12
3 65 62 64
3 65 265 267
3 267 266 62
3 265 266 267
3 65 268 269
3 66 270 272
3 272 271 65
3 270 271 272
3 66 273 274
3 33 66 13
3 67 66 33
3 67 275 277
3 277 276 66
3 275 276 277
3 67 278 279
3 68 280 282
3 282 281 67
3 280 281 282
3 68 283 284
3 68 285 287
3 285 25 286
3 285 286 287
3 69 25 68
3 69 10 25
3 35 69 14
3 70 69 35
3 70 10 69
3 70 288 290
3 290 289 10
3 288 289 290
3 292 291 70
3 47 36 3
3 293 36 294
3 295 294 47
3 293 294 295
3 296 15 297
3 298 297 36
3 296 297 298
3 299 15 300
3 302 301 15
3 303 49 304
3 71 305 307
3 305 49 306
3 305 306 307
3 71 308 310
3 310 309 49
3 308 309 310
3 38 311 312
3 72 313 315
3 315 314 38
3 313 314 315
3 72 316 317
3 72 318 320
3 318 71 319
3 318 319 320
3 321 71 322
3 323 322 72
3 321 322 323
3 325 324 71
