ply
format ascii 1.0
element vertex 180
property float x
property float y
property float z
element face 165
property list uchar int vertex_index
end_header
-8.816068 78.96788 13.594213
-5.845136 89.410683 3.454483
0.439478 91.46373 8.83088
-14.350509 75.378815 8.80468
-11.219787 79.803566 8.980708
-8.092038 90.160362 -1.751182
-5.136065 83.063683 13.382799
-7.492592 84.265625 8.705955
-3.648046 88.138855 8.493389
-1.742771 92.876678 3.718219
-9.794367 85.288223 3.641474
-11.771672 77.12442 11.354138
-10.037725 79.383888 11.344782
-4.426321 85.598259 11.003052
-2.486033 87.403915 10.982794
-0.594569 92.165184 6.446232
-6.75682 86.838791 6.096199
-8.727987 84.715866 6.234512
-7.93691 87.244423 3.651928
-10.224376 87.786148 -1.392698
-0.591574 88.973686 11.127234
1.375891 90.628204 11.160867
-12.779871 77.798431 8.84324
-12.3066 80.43084 6.300754
-4.945193 91.700172 0.922323
-7.095622 89.640976 1.027769
-5.968351 92.065132 -1.545491
-7.100202 92.314774 -4.288916
-6.924756 81.056648 13.606935
-8.217258 81.646675 11.14152
-6.303894 83.655212 11.145347
-5.670479 86.013107 8.814453
-4.801167 88.712227 6.087492
-1.537338 89.840431 8.742799
-2.656881 90.571968 6.186952
-3.810238 91.255196 3.461417
-2.805229 93.472557 1.078287
-9.450929 82.142036 8.704691
-10.582528 82.582207 6.307483
-11.649879 83.06958 3.745895
-9.048421 87.701782 1.001194
-10.918272 85.498833 1.289219
-7.632069 78.2118 16.042938
-9.426896 79.175884 12.469497
-10.290695 78.069599 12.516689
-9.679867 77.861595 13.641404
-1.92118 86.951096 12.246783
-2.890697 86.151203 12.138815
1.874026 90.210018 12.281743
0.982034 89.494468 12.234367
-4.843942 93.027374 -1.491758
-5.456772 91.882652 -0.311584
-4.332363 92.844894 -0.257851
-6.49498 93.401882 -5.605856
-5.979708 93.290497 -4.221689
-7.642311 92.31736 -5.515336
-6.49498 93.401882 -5.605856
-15.07077 74.169353 8.711937
-14.546269 74.025978 9.921971
-11.533798 85.51022 0.031531
-10.571324 86.642491 -0.05174
-11.18685 86.653877 -1.309427
-11.848438 84.365593 1.308643
-11.533798 85.51022 0.031531
-7.041676 77.857307 17.169571
-7.946341 76.801212 17.193593
-6.749784 79.228775 15.966821
-7.041676 77.857307 17.169571
-11.157669 76.939865 12.521366
-11.97759 75.846001 12.460207
-10.904699 78.254154 11.34946
-11.157669 76.939865 12.521366
-10.290695 78.069599 12.516689
-3.860841 85.248375 12.148944
-4.781193 84.330971 12.192926
-4.215713 83.981087 13.338818
-3.456177 86.501087 10.992923
-3.860841 85.248375 12.148944
-2.890697 86.151203 12.138815
0.414299 92.997273 6.433756
-0.077546 91.814457 7.638556
0.931323 92.646546 7.626081
-0.129015 93.294522 5.217076
0.414299 92.997273 6.433756
-0.703116 93.650268 3.85307
-1.16867 92.520931 5.082225
-0.129015 93.294522 5.217076
-1.119553 94.052444 2.524542
-0.703116 93.650268 3.85307
-14.907283 75.45913 7.588344
-14.155356 76.628655 7.679021
-9.75864 88.94228 -2.739409
-9.158207 88.973255 -1.57194
-8.692471 90.129387 -2.918651
-10.757763 87.86689 -2.705868
-9.75864 88.94228 -2.739409
-11.18685 86.653877 -1.309427
-10.757763 87.86689 -2.705868
-0.001698 88.667209 12.21755
-0.973951 87.735981 12.319003
0.392158 89.800945 11.14405
-0.001698 88.667209 12.21755
0.982034 89.494468 12.234367
2.272755 91.338256 11.19423
1.874026 90.210018 12.281743
1.866866 91.834388 9.990315
2.272755 91.338256 11.19423
1.398659 92.252151 8.825322
0.907685 91.045967 9.995874
1.866866 91.834388 9.990315
0.931323 92.646546 7.626081
1.398659 92.252151 8.825322
-13.830839 75.163105 10.01388
-14.546269 74.025978 9.921971
-12.541421 76.035908 11.288609
-11.97759 75.846001 12.460207
-13.045521 76.372913 10.03316
-12.541421 76.035908 11.288609
-12.275772 77.461425 10.098689
-13.56519 76.588623 8.82396
-13.830839 75.163105 10.01388
-13.045521 76.372913 10.03316
-13.370037 77.838462 7.698301
-14.155356 76.628655 7.679021
-13.56519 76.588623 8.82396
-13.133401 79.154667 6.427058
-13.370037 77.838462 7.698301
-12.543235 79.114635 7.571997
-12.892796 80.499764 5.103772
-13.133401 79.154667 6.427058
-5.413782 93.165676 -2.849976
-4.843942 93.027374 -1.491758
-6.534277 92.189953 -2.917204
-5.413782 93.165676 -2.849976
-5.979708 93.290497 -4.221689
-8.196553 91.206593 -4.187518
-8.692471 90.129387 -2.918651
-7.59612 91.237568 -3.020049
-8.196553 91.206593 -4.187518
-7.642311 92.31736 -5.515336
-1.538803 88.1888 11.055014
-1.92118 86.951096 12.246783
-0.973951 87.735981 12.319003
-3.262381 93.731087 -0.179869
-4.332363 92.844894 -0.257851
-3.875211 92.586365 1.000305
-1.650782 94.350383 1.204576
-2.274 93.174617 2.398253
-1.119553 94.052444 2.524542
-2.18606 94.609745 -0.163822
-1.650782 94.350383 1.204576
-3.262381 93.731087 -0.179869
-2.18606 94.609745 -0.163822
-15.07077 74.169353 8.711937
-14.907283 75.45913 7.588344
-12.564436 81.819133 3.826342
-12.892796 80.499764 5.103772
-11.97824 81.75021 5.023325
-12.214241 83.150967 2.536981
-11.284076 84.284207 2.517557
-11.848438 84.365593 1.308643
-12.564436 81.819133 3.826342
-12.214241 83.150967 2.536981
-9.081187 77.594303 14.797343
-9.679867 77.861595 13.641404
-8.489187 77.216263 16.021705
-7.946341 76.801212 17.193593
-8.224068 78.58984 14.818575
-9.081187 77.594303 14.797343
-8.489187 77.216263 16.021705
-6.396128 80.651199 14.748819
-7.278412 79.634224 14.824936
-6.749784 79.228775 15.966821
-5.501782 81.654717 14.636751
-6.030411 82.060165 13.494867
-6.396128 80.651199 14.748819
-4.571015 82.62473 14.590235
-5.501782 81.654717 14.636751
-4.215713 83.981087 13.338818
-4.571015 82.62473 14.590235
3 0 43 45
3 43 12 44
3 43 44 45
3 46 14 47
3 1 18 16
3 48 21 49
3 4 22 11
3 4 23 22
3 50 26 51
3 52 51 24
3 50 51 52
3 53 27 54
3 56 55 27
3 6 30 28
3 8 31 13
3 8 32 31
3 2 33 20
3 9 34 15
3 9 35 34
3 9 36 35
3 3 57 58
3 7 37 29
3 10 38 17
3 10 39 38
3 5 40 25
3 59 41 60
3 61 60 19
3 59 60 61
3 63 62 41
3 64 42 65
3 67 66 42
3 68 11 69
3 12 70 72
3 70 11 71
3 70 71 72
3 12 4 11
3 73 13 74
3 75 74 6
3 73 74 75
3 14 76 78
3 76 13 77
3 76 77 78
3 14 8 13
3 79 15 80
3 81 80 2
3 79 80 81
3 82 15 83
3 84 9 85
3 86 85 15
3 84 85 86
3 88 87 9
3 90 89 3
3 16 17 7
3 18 17 16
3 18 10 17
3 91 19 92
3 93 92 5
3 91 92 93
3 94 19 95
3 97 96 19
3 98 20 99
3 21 100 102
3 100 20 101
3 100 101 102
3 21 2 20
3 103 21 104
3 105 21 106
3 107 2 108
3 109 108 21
3 107 108 109
3 111 110 2
3 112 3 113
3 11 114 115
3 22 116 118
3 118 117 11
3 116 117 118
3 22 119 121
3 119 3 120
3 119 120 121
3 22 122 124
3 124 123 3
3 122 123 124
3 23 125 127
3 127 126 22
3 125 126 127
3 23 128 129
3 24 25 1
3 26 25 24
3 26 5 25
3 130 26 131
3 27 132 134
3 132 26 133
3 132 133 134
3 27 5 26
3 27 135 137
3 137 136 5
3 135 136 137
3 139 138 27
3 28 29 0
3 30 29 28
3 30 7 29
3 13 30 6
3 31 30 13
3 31 7 30
3 31 16 7
3 32 16 31
3 32 1 16
3 20 140 142
3 140 14 141
3 140 141 142
3 33 14 20
3 33 8 14
3 15 33 2
3 34 33 15
3 34 8 33
3 34 32 8
3 35 32 34
3 35 1 32
3 35 24 1
3 36 24 35
3 36 143 145
3 145 144 24
3 143 144 145
3 146 36 147
3 148 147 9
3 146 147 148
3 149 36 150
3 152 151 36
3 154 153 3
3 29 12 0
3 37 12 29
3 37 4 12
3 17 37 7
3 38 37 17
3 38 4 37
3 38 23 4
3 39 23 38
3 39 155 157
3 157 156 23
3 155 156 157
3 25 18 1
3 40 18 25
3 40 10 18
3 19 40 5
3 41 40 19
3 41 10 40
3 41 39 10
3 158 39 159
3 160 159 41
3 158 159 160
3 162 161 39
3 163 0 164
3 42 165 166
3 42 167 169
3 167 0 168
3 167 168 169
3 42 28 0
3 170 28 171
3 172 171 42
3 170 171 172
3 173 6 174
3 175 174 28
3 173 174 175
3 176 6 177
3 179 178 6
