ply
format ascii 1.0
element vertex 177
property float x
property float y
property float z
element face 164
property list uchar int vertex_index
end_header
19.866184 75.464775 -21.408499
18.394268 83.40435 -17.151745
19.181787 70.756538 -22.565262
19.514141 81.003487 -11.951266
21.016438 77.757286 -14.842744
17.757425 80.725716 -24.139791
17.68951 76.154121 -25.568964
16.974373 70.715004 -26.082842
16.809195 85.016365 -21.952478
19.576817 79.729866 -19.680582
21.511778 74.213257 -17.329617
18.953854 77.947845 -22.767788
17.859184 78.347237 -24.930269
18.811132 75.711929 -23.561499
18.055317 70.837929 -24.415762
17.540815 84.905869 -15.497406
16.880049 85.89962 -18.150202
17.799801 84.035652 -19.556948
18.28647 82.355881 -20.995173
19.145468 81.550278 -18.429893
21.353374 76.092941 -16.272144
20.551809 72.71859 -20.215549
19.607714 73.128105 -22.103445
18.161793 83.596481 -12.926545
19.04764 82.251282 -14.56973
19.816008 80.613472 -15.984898
20.358522 79.484398 -13.442369
15.04605 73.028862 -29.51067
16.326876 83.333038 -25.507378
16.640347 80.905182 -26.352268
16.664976 78.542076 -27.035723
16.57415 75.973747 -27.417395
18.521557 73.429497 -24.080204
17.441647 73.490364 -25.884125
16.178301 73.261719 -27.834562
15.794732 70.544006 -27.878056
15.807346 85.5411 -24.39579
17.391016 82.957039 -23.186785
18.744974 80.217552 -21.98521
19.806021 77.70739 -20.722746
20.365807 78.875801 -17.189846
20.617676 77.024498 -18.556898
20.763542 74.760895 -19.377085
20.405659 71.476502 -20.408551
20.848015 71.234967 -19.541826
18.837967 82.299984 -12.438906
18.343144 82.935237 -11.558008
19.019317 81.638741 -11.070369
14.440079 72.701103 -30.363268
14.812805 71.542336 -29.579993
15.959238 86.238567 -22.548663
16.47894 85.829899 -21.281588
16.30827 85.278732 -23.174134
15.458313 86.500935 -23.770319
15.959238 86.238567 -22.548663
21.492732 73.066002 -17.735925
21.118614 73.339821 -18.759659
21.13766 74.487076 -18.353351
19.684107 80.293324 -10.669453
19.019317 81.638741 -11.070369
19.189284 80.928577 -9.788556
20.152519 79.574017 -11.509321
19.684107 80.293324 -10.669453
18.327435 69.505596 -23.614049
18.618552 70.797234 -23.490512
18.89067 69.464901 -22.688799
17.774288 69.35426 -24.413797
18.327435 69.505596 -23.614049
17.233816 69.292797 -25.247336
17.514845 70.776466 -25.249302
17.774288 69.35426 -24.413797
16.66763 69.302147 -26.139352
17.233816 69.292797 -25.247336
16.715895 86.142224 -15.889263
17.077644 85.489941 -14.573477
16.385512 86.639099 -17.215661
16.715895 86.142224 -15.889263
17.210432 85.402744 -16.823804
16.065095 87.059879 -18.584451
16.385512 86.639099 -17.215661
16.514367 86.271526 -19.380449
16.065095 87.059879 -18.584451
16.974243 85.339542 -20.083822
16.514367 86.271526 -19.380449
17.339925 84.967636 -18.853575
17.304498 84.526008 -20.754713
16.47894 85.829899 -21.281588
16.974243 85.339542 -20.083822
21.657142 75.543216 -15.120657
21.184906 76.925113 -15.557444
21.488675 76.375389 -14.405957
21.775427 74.670036 -15.732868
21.657142 75.543216 -15.120657
21.85463 73.730194 -16.261604
21.432576 75.153099 -16.80088
21.775427 74.670036 -15.732868
21.883608 72.705574 -16.709463
21.85463 73.730194 -16.261604
19.933612 71.681259 -21.352499
20.079762 72.923348 -21.159497
20.405659 71.476502 -20.408551
19.720648 70.495475 -21.583407
19.394751 71.942322 -22.334353
19.933612 71.681259 -21.352499
19.430885 69.349514 -21.810704
19.720648 70.495475 -21.583407
18.89067 69.464901 -22.688799
19.430885 69.349514 -21.810704
17.643529 84.180286 -12.036943
17.82488 83.519042 -10.668406
18.343144 82.935237 -11.558008
17.388133 84.835247 -13.288047
17.643529 84.180286 -12.036943
17.851304 84.251175 -14.211976
17.077644 85.489941 -14.573477
17.388133 84.835247 -13.288047
20.57471 78.814472 -12.254872
19.936332 80.243943 -12.696817
20.152519 79.574017 -11.509321
20.928315 78.042648 -13.008287
20.57471 78.814472 -12.254872
21.257273 77.179092 -13.708474
20.68748 78.620842 -14.142556
20.928315 78.042648 -13.008287
21.488675 76.375389 -14.405957
21.257273 77.179092 -13.708474
14.573183 74.079472 -30.302096
15.203616 74.433964 -29.398781
14.573183 74.079472 -30.302096
14.440079 72.701103 -30.363268
15.762505 83.338009 -26.623755
15.525953 84.549221 -26.12415
15.919241 82.12408 -27.0462
15.762505 83.338009 -26.623755
16.483611 82.11911 -25.929823
16.037 80.907356 -27.40661
15.919241 82.12408 -27.0462
16.049315 79.725803 -27.748337
16.037 80.907356 -27.40661
16.652662 79.723629 -26.693995
16.04907 78.567199 -28.020499
16.049315 79.725803 -27.748337
16.003657 77.283035 -28.211334
16.04907 78.567199 -28.020499
16.619563 77.257912 -27.226559
15.967666 75.906407 -28.352144
16.003657 77.283035 -28.211334
15.769742 74.550393 -28.560727
15.967666 75.906407 -28.352144
16.376226 74.617733 -27.625978
15.612175 73.145291 -28.672616
15.203616 74.433964 -29.398781
15.769742 74.550393 -28.560727
15.187146 70.299907 -28.763686
14.812805 71.542336 -29.579993
15.420391 71.786434 -28.694363
16.077809 69.216648 -27.036959
16.384552 70.629505 -26.980449
16.66763 69.302147 -26.139352
15.543859 69.088951 -27.852254
16.077809 69.216648 -27.036959
15.187146 70.299907 -28.763686
15.543859 69.088951 -27.852254
14.917 86.727425 -25.01634
15.458313 86.500935 -23.770319
15.266189 85.653252 -25.568356
14.917 86.727425 -25.01634
16.067111 84.437069 -24.951584
15.525953 84.549221 -26.12415
15.266189 85.653252 -25.568356
21.012747 72.318669 -19.178891
20.657675 73.739743 -19.796317
21.118614 73.339821 -18.759659
20.848015 71.234967 -19.541826
21.012747 72.318669 -19.178891
21.492732 73.066002 -17.735925
21.883608 72.705574 -16.709463
3 0 13 11
3 1 16 15
3 1 17 16
3 1 19 17
3 44 43 21
3 3 45 47
3 45 23 46
3 45 46 47
3 3 24 23
3 3 26 24
3 49 48 27
3 5 29 28
3 6 30 12
3 6 31 30
3 2 32 22
3 7 33 14
3 7 34 33
3 7 35 34
3 8 50 51
3 8 52 54
3 52 36 53
3 52 53 54
3 8 37 36
3 9 38 18
3 9 39 38
3 4 40 25
3 10 41 20
3 10 42 41
3 10 55 57
3 57 56 42
3 55 56 57
3 58 3 59
3 58 59 60
3 62 61 3
3 11 12 5
3 13 12 11
3 13 6 12
3 63 14 64
3 65 64 2
3 63 64 65
3 66 14 67
3 68 7 69
3 70 69 14
3 68 69 70
3 72 71 7
3 15 73 74
3 16 75 77
3 77 76 15
3 75 76 77
3 16 78 79
3 16 80 81
3 17 82 84
3 84 83 16
3 82 83 84
3 17 85 87
3 85 8 86
3 85 86 87
3 17 18 8
3 19 18 17
3 19 9 18
3 88 20 89
3 90 89 4
3 88 89 90
3 91 20 92
3 93 10 94
3 95 94 20
3 93 94 95
3 97 96 10
3 21 22 0
3 98 22 99
3 100 99 21
3 98 99 100
3 101 2 102
3 103 102 22
3 101 102 103
3 104 2 105
3 107 106 2
3 23 108 110
3 108 109 110
3 23 111 112
3 23 113 115
3 113 15 114
3 113 114 115
3 24 15 23
3 24 1 15
3 24 25 1
3 26 25 24
3 26 4 25
3 116 26 117
3 118 117 3
3 116 117 118
3 119 26 120
3 121 4 122
3 123 122 26
3 121 122 123
3 125 124 4
3 27 126 127
3 129 128 27
3 28 130 131
3 29 132 134
3 134 133 28
3 132 133 134
3 29 135 136
3 12 29 5
3 30 29 12
3 30 137 139
3 139 138 29
3 137 138 139
3 30 140 141
3 31 142 144
3 144 143 30
3 142 143 144
3 31 145 146
3 22 13 0
3 32 13 22
3 32 6 13
3 14 32 2
3 33 32 14
3 33 6 32
3 33 31 6
3 34 31 33
3 34 147 149
3 149 148 31
3 147 148 149
3 34 150 152
3 150 27 151
3 150 151 152
3 35 27 34
3 35 153 155
3 155 154 27
3 153 154 155
3 156 35 157
3 158 157 7
3 156 157 158
3 159 35 160
3 162 161 35
3 36 163 164
3 36 165 166
3 36 167 169
3 167 28 168
3 167 168 169
3 37 28 36
3 37 5 28
3 18 37 8
3 38 37 18
3 38 5 37
3 38 11 5
3 39 11 38
3 39 0 11
3 25 19 1
3 40 19 25
3 40 9 19
3 20 40 4
3 41 40 20
3 41 9 40
3 41 39 9
3 42 39 41
3 42 0 39
3 42 21 0
3 170 21 171
3 172 171 42
3 170 171 172
3 174 173 21
3 176 175 10
