ply
format ascii 1.0
element vertex 220
property float x
property float y
property float z
element face 214
property list uchar int vertex_index
end_header
6.620765 72.068352 24.347418
-0.616333 75.333694 28.217207
4.639659 63.473644 33.201981
-7.552029 82.554306 26.657089
3.064672 73.832497 26.388384
0.557608 79.485023 23.221088
4.373772 77.626297 21.426958
9.907735 70.402336 21.76927
-4.649387 76.607101 30.181841
-1.681242 70.492157 33.056473
1.943679 69.417961 31.088472
5.615512 68.122589 28.789047
8.972822 66.391785 26.423014
-3.541291 81.029999 25.091055
11.901978 64.852631 23.516342
4.916491 72.769989 25.533154
3.683187 75.801208 23.946602
5.414763 74.938408 22.991135
6.131071 76.687645 20.484112
7.174154 73.817123 22.100567
8.816171 73.157921 20.712919
8.319313 71.170967 23.1637
-4.074984 68.573799 36.176128
-3.595396 71.095634 33.974743
-2.197493 67.973274 35.288067
2.813831 64.114365 34.260818
1.532218 67.017975 33.221889
3.256516 66.541252 32.177532
3.79015 68.804443 29.983435
5.047449 65.884651 31.082947
6.808168 65.169563 29.882969
6.423561 62.848652 32.007828
-2.545314 75.93869 29.189056
-4.12505 78.844208 27.718306
-2.033124 78.178596 26.713396
9.984353 63.749069 27.213377
10.465732 65.714195 24.971588
11.448722 62.919182 25.77997
1.183114 74.64106 27.347393
-0.082894 77.570435 25.693584
1.773126 76.689972 24.912241
2.469775 78.578369 22.367807
-5.089988 73.981422 32.747696
-3.162588 73.528503 31.724024
-1.2533 73.014755 30.720366
-0.338419 67.566696 34.238331
0.168724 69.937057 32.093739
0.66948 72.349106 29.762285
2.545964 71.634216 28.779043
4.365752 70.956322 27.675219
6.149832 70.0569 26.629183
7.798764 69.170364 25.543804
7.42448 67.164009 27.641493
8.536771 64.179085 28.712107
-6.12033 79.655815 28.458403
-5.566209 81.829582 25.87793
-1.462436 80.204498 24.231943
9.329759 68.565308 24.153357
10.826189 67.695328 22.803965
12.851006 61.875103 24.38674
-3.43615 66.963363 36.840168
-4.392611 67.26947 37.29235
-2.497405 66.663101 36.396137
-3.136239 68.273537 35.732097
-3.43615 66.963363 36.840168
11.293641 61.856645 26.854102
10.716538 63.334125 26.496673
10.561457 62.271589 27.570805
-8.274176 83.857258 25.82281
-9.342646 84.135182 26.314535
-8.620499 82.832229 27.148814
-7.257438 83.687588 25.233815
-8.274176 83.857258 25.82281
3.75022 78.989841 20.625633
2.798221 79.465878 21.096058
3.421773 78.102333 21.897382
4.64246 78.52071 20.202384
3.75022 78.989841 20.625633
7.187965 77.022583 18.905175
6.386806 77.533879 19.321172
6.932231 76.17635 20.068115
10.171278 71.269665 20.617615
9.625495 72.647457 20.08944
9.361953 71.780129 21.241094
10.621014 69.969479 21.114359
10.171278 71.269665 20.617615
-5.336534 72.690349 33.944079
-6.069625 74.248924 33.220802
0.319691 66.102703 34.770808
-0.577763 66.204868 35.351192
8.253277 63.205717 29.779749
7.67247 64.674324 29.297538
7.388975 63.700956 30.36518
9.064311 62.841048 29.090958
8.253277 63.205717 29.779749
-5.384858 78.131458 29.320122
-6.325774 78.393574 29.773735
-5.590303 76.869216 30.635454
-4.228872 82.482941 24.117348
-5.241331 82.882733 24.510786
-4.55375 81.42979 25.484493
12.103877 65.738068 22.460104
11.565983 67.159416 22.103915
11.364083 66.273979 23.160153
13.33488 60.524817 24.651189
12.673662 60.890636 25.476684
-7.823121 81.366615 28.029055
-8.620499 82.832229 27.148814
-8.891591 81.644539 28.520781
7.453772 74.741088 20.876343
6.932231 76.17635 20.068115
6.652613 75.252384 21.29234
7.995163 73.487522 21.406743
8.274781 74.411487 20.182519
7.453772 74.741088 20.876343
-5.074528 68.72068 36.762863
-4.392611 67.26947 37.29235
-4.829033 69.986538 35.658294
-5.074528 68.72068 36.762863
-3.83519 69.834716 35.075435
-4.589239 71.247456 34.557602
-4.829033 69.986538 35.658294
2.173024 65.56617 33.741354
1.25501 65.828343 34.262586
1.895817 64.376538 34.782051
7.196672 62.540501 31.42761
7.388975 63.700956 30.36518
6.615865 64.009107 30.945399
-0.174214 80.840538 22.432034
0.871662 80.346676 22.01176
2.60929 62.822037 35.278566
1.895817 64.376538 34.782051
3.451249 62.600555 34.774795
2.60929 62.822037 35.278566
4.364162 62.280195 34.245377
3.726745 63.794004 33.7314
3.451249 62.600555 34.774795
5.251853 62.053673 33.647051
4.364162 62.280195 34.245377
1.827745 79.893349 21.585119
0.871662 80.346676 22.01176
1.513691 79.031696 22.794448
1.827745 79.893349 21.585119
2.798221 79.465878 21.096058
5.521109 78.051384 19.730961
4.64246 78.52071 20.202384
5.252422 77.156971 20.955535
5.521109 78.051384 19.730961
6.386806 77.533879 19.321172
9.106839 73.960163 19.568421
8.274781 74.411487 20.182519
9.106839 73.960163 19.568421
9.625495 72.647457 20.08944
-5.810604 75.556377 31.918381
-6.069625 74.248924 33.220802
-4.869687 75.294262 31.464768
-5.590303 76.869216 30.635454
-5.810604 75.556377 31.918381
-4.342692 72.538528 33.361219
-5.336534 72.690349 33.944079
-4.589239 71.247456 34.557602
-1.5073 66.408157 35.87606
-2.497405 66.663101 36.396137
-1.267956 67.769985 34.763199
-1.5073 66.408157 35.87606
-0.577763 66.204868 35.351192
0.5969 67.292336 33.73011
0.319691 66.102703 34.770808
1.25501 65.828343 34.262586
9.788101 62.62604 28.341593
9.260562 63.964077 27.962742
9.064311 62.841048 29.090958
10.561457 62.271589 27.570805
9.788101 62.62604 28.341593
6.143804 61.741177 33.049975
5.53161 63.161148 32.604905
5.251853 62.053673 33.647051
6.990905 61.338284 32.517128
6.143804 61.741177 33.049975
7.196672 62.540501 31.42761
6.990905 61.338284 32.517128
-7.107271 79.91737 28.929713
-6.325774 78.393574 29.773735
-6.83618 81.105061 27.557746
-7.823121 81.366615 28.029055
-7.107271 79.91737 28.929713
-6.264528 83.325226 24.844235
-7.257438 83.687588 25.233815
-6.559119 82.191944 26.267509
-6.264528 83.325226 24.844235
-5.241331 82.882733 24.510786
-1.184236 81.200276 22.937461
-0.452414 79.844761 23.726516
-0.174214 80.840538 22.432034
-2.197869 81.640579 23.333187
-1.184236 81.200276 22.937461
-3.237297 82.05333 23.762743
-2.501864 80.617249 24.661499
-2.197869 81.640579 23.333187
-4.228872 82.482941 24.117348
-3.237297 82.05333 23.762743
11.08024 68.615974 21.631706
10.621014 69.969479 21.114359
10.366962 69.048832 22.286617
11.08024 68.615974 21.631706
11.565983 67.159416 22.103915
11.97252 61.412676 26.173299
11.293641 61.856645 26.854102
12.149864 62.397143 25.083355
11.97252 61.412676 26.173299
12.673662 60.890636 25.476684
13.526017 61.496634 23.499541
13.33488 60.524817 24.651189
13.064213 62.813135 23.256495
13.526017 61.496634 23.499541
12.589699 64.301899 22.821297
12.376492 63.363867 23.951541
13.064213 62.813135 23.256495
12.103877 65.738068 22.460104
12.589699 64.301899 22.821297
3 0 17 15
3 0 19 17
3 0 21 19
3 60 22 61
3 62 24 63
3 64 63 22
3 62 63 64
3 2 27 25
3 2 29 27
3 2 31 29
3 1 34 32
3 65 37 66
3 67 66 35
3 65 66 67
3 3 68 70
3 68 69 70
3 3 71 72
3 4 40 38
3 6 41 16
3 6 73 75
3 75 74 41
3 73 74 75
3 6 76 77
3 80 79 18
3 78 79 80
3 7 81 83
3 83 82 20
3 81 82 83
3 7 84 85
3 86 42 87
3 9 43 23
3 9 44 43
3 88 45 89
3 10 46 26
3 10 47 46
3 10 48 47
3 11 49 28
3 11 50 49
3 11 52 50
3 90 53 91
3 92 91 30
3 90 91 92
3 94 93 53
3 8 95 97
3 95 54 96
3 95 96 97
3 13 55 33
3 13 98 100
3 100 99 55
3 98 99 100
3 5 56 39
3 12 57 51
3 14 58 36
3 14 101 103
3 103 102 58
3 101 102 103
3 104 59 105
3 106 3 107
3 106 107 108
3 15 16 4
3 17 16 15
3 17 6 16
3 17 18 6
3 19 18 17
3 19 109 111
3 111 110 18
3 109 110 111
3 19 112 114
3 112 20 113
3 112 113 114
3 21 20 19
3 21 7 20
3 22 115 116
3 22 117 118
3 22 119 121
3 119 23 120
3 119 120 121
3 24 23 22
3 24 9 23
3 25 122 124
3 122 26 123
3 122 123 124
3 27 26 25
3 27 10 26
3 27 28 10
3 29 28 27
3 29 11 28
3 29 30 11
3 31 30 29
3 31 125 127
3 127 126 30
3 125 126 127
3 32 33 8
3 34 33 32
3 34 13 33
3 129 128 5
3 35 36 12
3 37 36 35
3 37 14 36
3 130 25 131
3 132 25 133
3 134 2 135
3 136 135 25
3 134 135 136
3 138 137 2
3 38 39 1
3 40 39 38
3 40 5 39
3 16 40 4
3 41 40 16
3 41 5 40
3 41 139 141
3 141 140 5
3 139 140 141
3 143 142 41
3 18 144 146
3 146 145 6
3 144 145 146
3 148 147 18
3 20 149 150
3 152 151 20
3 42 153 154
3 42 155 157
3 155 8 156
3 155 156 157
3 23 158 160
3 158 42 159
3 158 159 160
3 43 42 23
3 43 8 42
3 43 32 8
3 44 32 43
3 44 1 32
3 161 24 162
3 45 163 165
3 163 24 164
3 163 164 165
3 45 9 24
3 26 166 168
3 166 45 167
3 166 167 168
3 46 45 26
3 46 9 45
3 46 44 9
3 47 44 46
3 47 1 44
3 47 38 1
3 48 38 47
3 48 4 38
3 28 48 10
3 49 48 28
3 49 4 48
3 49 15 4
3 50 15 49
3 50 0 15
3 50 51 0
3 52 51 50
3 52 12 51
3 30 52 11
3 53 52 30
3 53 12 52
3 53 35 12
3 169 35 170
3 171 170 53
3 169 170 171
3 173 172 35
3 174 31 175
3 176 175 2
3 174 175 176
3 177 31 178
3 180 179 31
3 54 181 182
3 54 183 185
3 183 3 184
3 183 184 185
3 33 54 8
3 55 54 33
3 55 3 54
3 55 186 188
3 188 187 3
3 186 187 188
3 190 189 55
3 39 34 1
3 56 34 39
3 56 13 34
3 191 56 192
3 193 192 5
3 191 192 193
3 194 56 195
3 196 13 197
3 198 197 56
3 196 197 198
3 200 199 13
3 51 21 0
3 57 21 51
3 57 7 21
3 36 57 12
3 58 57 36
3 58 7 57
3 58 201 203
3 203 202 7
3 201 202 203
3 205 204 58
3 206 37 207
3 59 208 210
3 208 37 209
3 208 209 210
3 59 14 37
3 211 59 212
3 213 59 214
3 215 14 216
3 217 216 59
3 215 216 217
3 219 218 14
