ply
format ascii 1.0
element vertex 222
property float x
property float y
property float z
element face 199
property list uchar int vertex_index
end_header
-22.015411 87.391258 28.381477
-14.729835 88.71244 24.878431
-25.061377 84.866508 29.767
-15.539662 83.599342 30.855568
-11.745271 83.444313 28.71244
-28.290628 88.385963 18.324577
-29.365961 87.95974 12.797784
-26.954054 87.103912 24.362591
-24.36664 90.693718 23.159586
-21.170006 92.776619 21.707718
-19.323799 83.008385 32.937229
-18.506203 88.657944 26.643013
-12.050479 80.693756 31.619574
-9.688969 83.110153 27.640539
-27.366564 90.585281 18.04302
-27.966297 84.950737 24.69676
-27.214102 84.344292 27.387957
-23.695665 86.30262 29.076244
-24.800077 87.903244 26.410519
-23.294846 89.113266 25.921328
-22.889809 91.870911 22.494766
-21.692793 90.246597 24.990175
-15.097003 86.22863 27.871681
-17.027351 86.192513 28.869354
-16.675968 88.847237 25.730331
-18.124521 91.31414 23.282986
-16.125046 91.195518 22.622313
-14.199644 91.252739 21.496441
-22.372152 84.56517 31.437065
-13.645615 83.516899 29.85779
-13.099634 86.123627 26.784496
-12.722132 88.663422 23.685801
-11.149156 85.929008 25.694098
-29.030336 85.792618 18.947142
-29.51273 85.534668 16.233694
-28.875717 88.21048 15.654643
-28.529142 85.615395 21.711691
-27.695444 87.869141 21.342249
-26.673208 89.971275 20.86282
-26.081665 86.312302 26.92815
-25.763727 89.162468 23.664051
-25.414967 91.644897 20.590456
-23.997705 93.188118 19.877331
-20.662897 85.303596 30.766171
-17.484648 83.526451 31.832615
-18.880552 85.982002 29.746181
-20.351974 88.243042 27.470425
-19.80904 90.905495 24.178394
-19.411938 93.466484 20.711336
-27.222307 91.807426 16.31587
-26.840867 91.592926 17.73346
-27.3662 82.722409 28.960889
-27.688665 83.236011 27.56342
-22.581018 82.953552 33.031483
-23.174942 83.895012 31.861082
-9.342646 84.135182 26.314535
-8.620499 82.832229 27.148814
-28.647541 84.130497 23.324792
-28.877232 84.378334 21.843964
-25.571521 85.589405 28.347575
-26.226716 84.736549 28.568661
-25.716572 84.013653 29.988086
-21.822337 93.521633 20.460263
-22.682239 93.068779 20.853787
-22.029908 92.323765 22.101242
-21.012458 93.931118 20.045996
-21.822337 93.521633 20.460263
-20.210844 82.741944 33.315086
-19.537427 81.640389 34.302364
-19.993348 84.155991 31.8517
-20.880393 83.889549 32.229557
-20.210844 82.741944 33.315086
-16.512155 83.562896 31.344092
-16.766468 82.209 32.793474
-15.793975 82.245445 32.304951
-18.449492 93.560879 20.334601
-18.76823 92.390312 21.997161
-17.805783 92.484706 21.620426
-19.18687 94.556847 19.087714
-18.449492 93.560879 20.334601
-12.47449 89.742428 22.217474
-11.641012 88.348835 23.298124
-29.642447 86.59964 13.066447
-29.715832 85.387104 14.784402
-29.439346 86.747204 14.515739
-11.317804 79.376316 32.352893
-12.310305 79.432579 32.943803
-11.089018 80.666687 31.003414
-11.317804 79.376316 32.352893
-10.936414 82.041966 29.549847
-11.897875 82.069034 30.166007
-11.089018 80.666687 31.003414
-9.908263 81.874886 29.013896
-10.71712 83.277233 28.17649
-10.936414 82.041966 29.549847
-8.891591 81.644539 28.520781
-9.908263 81.874886 29.013896
-8.620499 82.832229 27.148814
-8.891591 81.644539 28.520781
-27.700479 90.702667 16.583984
-28.162511 89.603008 16.724763
-27.828596 89.485622 18.183799
-27.700479 90.702667 16.583984
-27.222307 91.807426 16.31587
-28.064762 83.539234 26.217821
-28.366118 83.798168 24.817327
-27.5902 84.647514 26.042358
-28.064762 83.539234 26.217821
-27.688665 83.236011 27.56342
-18.618291 81.818188 33.874004
-19.537427 81.640389 34.302364
-16.806045 92.425396 21.290089
-17.805783 92.484706 21.620426
-17.124783 91.254829 22.952649
-15.859834 92.386963 20.929416
-16.806045 92.425396 21.290089
-14.897133 92.415573 20.36648
-15.859834 92.386963 20.929416
-15.162345 91.224129 22.059377
-13.937409 92.331054 19.924305
-14.897133 92.415573 20.36648
-29.56443 87.78698 11.430364
-29.279033 89.141865 10.974074
-25.21945 83.331028 31.28116
-25.716572 84.013653 29.988086
-25.874645 82.478172 31.502245
-24.519554 84.045681 31.026049
-25.21945 83.331028 31.28116
-23.836699 84.763737 30.680672
-24.378521 85.584564 29.421622
-24.519554 84.045681 31.026049
-23.033909 85.433895 30.256654
-23.836699 84.763737 30.680672
-23.174942 83.895012 31.861082
-14.826783 82.313118 31.716946
-15.793975 82.245445 32.304951
-13.082191 80.860325 32.098948
-12.310305 79.432579 32.943803
-13.879759 82.271896 31.218056
-13.082191 80.860325 32.098948
-12.848047 82.105327 30.738682
-14.592638 83.558121 30.356679
-14.826783 82.313118 31.716946
-13.879759 82.271896 31.218056
-10.854523 86.981628 24.302272
-11.641012 88.348835 23.298124
-11.935644 87.296215 24.68995
-10.07274 85.544609 25.341314
-10.419062 84.51958 26.667319
-9.342646 84.135182 26.314535
-10.854523 86.981628 24.302272
-10.07274 85.544609 25.341314
-29.271533 85.663643 17.590418
-29.583673 84.277828 17.791204
-29.342476 84.406803 19.147928
-28.455055 89.515266 15.389796
-28.583173 88.298222 16.98961
-28.162511 89.603008 16.724763
-28.769986 89.436611 13.901718
-28.455055 89.515266 15.389796
-29.015108 89.311241 12.473288
-29.120839 88.08511 14.226214
-28.769986 89.436611 13.901718
-29.279033 89.141865 10.974074
-29.015108 89.311241 12.473288
-29.127829 84.466946 20.461689
-29.342476 84.406803 19.147928
-28.779739 85.704007 20.329417
-29.127829 84.466946 20.461689
-28.877232 84.378334 21.843964
-28.24772 85.283066 23.204225
-28.647541 84.130497 23.324792
-28.366118 83.798168 24.817327
-26.494189 91.285923 19.143361
-26.840867 91.592926 17.73346
-27.019886 90.278278 19.45292
-26.792935 83.752544 28.798564
-27.3662 82.722409 28.960889
-26.647883 85.328297 27.158054
-26.792935 83.752544 28.798564
-26.226716 84.736549 28.568661
-25.865068 92.122734 19.007179
-26.494189 91.285923 19.143361
-26.044087 90.808086 20.726638
-25.25074 92.865688 18.878111
-25.865068 92.122734 19.007179
-24.542108 93.637298 18.521549
-25.25074 92.865688 18.878111
-24.706336 92.416507 20.233894
-23.83284 94.347389 18.152579
-24.542108 93.637298 18.521549
-23.236187 93.727383 19.54507
-23.443757 92.529515 21.186048
-22.682239 93.068779 20.853787
-23.83284 94.347389 18.152579
-23.236187 93.727383 19.54507
-21.73502 83.520336 32.565005
-22.581018 82.953552 33.031483
-21.517525 84.934383 31.101618
-21.73502 83.520336 32.565005
-20.880393 83.889549 32.229557
-17.698715 82.077221 33.321697
-16.766468 82.209 32.793474
-18.404224 83.267418 32.384922
-18.618291 81.818188 33.874004
-17.698715 82.077221 33.321697
-20.133424 94.27605 19.547805
-21.012458 93.931118 20.045996
-20.290972 93.121551 21.209527
-20.133424 94.27605 19.547805
-19.18687 94.556847 19.087714
-13.213245 91.037087 21.122794
-13.460888 89.95808 22.591121
-12.47449 89.742428 22.217474
-13.937409 92.331054 19.924305
-13.213245 91.037087 21.122794
-29.765493 84.212502 16.398823
-29.583673 84.277828 17.791204
-29.765493 84.212502 16.398823
-29.715832 85.387104 14.784402
-29.642447 86.59964 13.066447
-29.56443 87.78698 11.430364
3 50 49 14
3 51 16 52
3 0 19 17
3 0 21 19
3 1 24 22
3 1 26 24
3 1 27 26
3 53 28 54
3 4 29 12
3 4 30 29
3 4 32 30
3 56 55 13
3 5 35 33
3 57 36 58
3 7 37 15
3 7 38 37
3 2 59 61
3 59 39 60
3 59 60 61
3 8 40 18
3 8 41 40
3 8 42 41
3 9 62 64
3 64 63 20
3 62 63 64
3 9 65 66
3 10 67 68
3 10 69 71
3 69 43 70
3 69 70 71
3 3 72 74
3 72 44 73
3 72 73 74
3 11 45 23
3 11 46 45
3 11 47 46
3 75 48 76
3 77 76 25
3 75 76 77
3 79 78 48
3 81 80 31
3 6 82 84
3 84 83 34
3 82 83 84
3 85 12 86
3 87 12 88
3 89 4 90
3 91 90 12
3 89 90 91
3 92 13 93
3 94 93 4
3 92 93 94
3 95 13 96
3 98 97 13
3 14 99 101
3 101 100 5
3 99 100 101
3 103 102 14
3 104 15 105
3 16 106 108
3 106 15 107
3 106 107 108
3 16 7 15
3 17 18 2
3 19 18 17
3 19 8 18
3 19 20 8
3 21 20 19
3 21 9 20
3 109 10 110
3 22 23 3
3 24 23 22
3 24 11 23
3 24 25 11
3 26 25 24
3 26 111 113
3 113 112 25
3 111 112 113
3 26 114 115
3 27 116 118
3 118 117 26
3 116 117 118
3 27 119 120
3 122 121 6
3 123 2 124
3 123 124 125
3 126 2 127
3 128 17 129
3 130 129 2
3 128 129 130
3 28 131 133
3 131 17 132
3 131 132 133
3 28 0 17
3 134 3 135
3 12 136 137
3 29 138 140
3 140 139 12
3 138 139 140
3 29 141 143
3 141 3 142
3 141 142 143
3 29 22 3
3 30 22 29
3 30 1 22
3 30 31 1
3 32 31 30
3 32 144 146
3 146 145 31
3 144 145 146
3 13 32 4
3 147 32 148
3 149 148 13
3 147 148 149
3 151 150 32
3 33 152 154
3 152 34 153
3 152 153 154
3 35 34 33
3 35 6 34
3 155 35 156
3 157 156 5
3 155 156 157
3 158 35 159
3 160 6 161
3 162 161 35
3 160 161 162
3 164 163 6
3 165 33 166
3 36 167 169
3 167 33 168
3 167 168 169
3 36 5 33
3 15 170 172
3 170 36 171
3 170 171 172
3 37 36 15
3 37 5 36
3 37 14 5
3 38 14 37
3 38 173 175
3 175 174 14
3 173 174 175
3 176 16 177
3 39 178 180
3 178 16 179
3 178 179 180
3 39 7 16
3 18 39 2
3 40 39 18
3 40 7 39
3 40 38 7
3 41 38 40
3 41 181 183
3 183 182 38
3 181 182 183
3 41 184 185
3 42 186 188
3 188 187 41
3 186 187 188
3 42 189 190
3 20 42 8
3 191 42 192
3 193 192 20
3 191 192 193
3 195 194 42
3 196 28 197
3 43 198 200
3 198 28 199
3 198 199 200
3 43 0 28
3 44 201 202
3 44 203 205
3 203 10 204
3 203 204 205
3 23 44 3
3 45 44 23
3 45 10 44
3 45 43 10
3 46 43 45
3 46 0 43
3 46 21 0
3 47 21 46
3 47 9 21
3 25 47 11
3 48 47 25
3 48 9 47
3 48 206 208
3 208 207 9
3 206 207 208
3 210 209 48
3 31 27 1
3 211 27 212
3 213 212 31
3 211 212 213
3 215 214 27
3 34 216 217
3 219 218 34
3 221 220 6
