ply
format ascii 1.0
element vertex 250
property float x
property float y
property float z
element face 253
property list uchar int vertex_index
end_header
33.974335 -22.29842 20.886658
36.584541 -19.749786 12.602581
33.552994 -34.407307 12.772553
31.740616 -36.802692 21.136841
35.382965 -21.024178 16.931101
35.064598 -27.582048 12.72595
34.119644 -28.335255 16.925949
30.823721 -38.050327 25.044739
30.77067 -43.54174 21.153297
31.392347 -42.443401 16.873192
37.812187 -12.193052 12.140688
37.306957 -18.964251 7.964729
35.783794 -26.365383 8.231239
34.03297 -33.631683 8.427565
32.309242 -40.169319 8.41226
31.60264 -31.055868 24.87591
32.850925 -29.76342 20.983223
32.687004 -35.680317 17.051748
31.914778 -41.406208 12.596824
30.581156 -46.507332 8.186147
34.692825 -21.749527 18.908791
34.73103 -24.898167 16.96513
34.103897 -25.384352 18.983583
36.668915 -16.519329 14.627357
37.237011 -16.156733 12.232774
37.669376 -15.635006 9.992383
36.977856 -19.569475 10.24658
36.553646 -22.781061 8.198047
36.255363 -23.172352 10.584237
34.280399 -31.208855 12.734976
34.679066 -30.474985 10.570134
33.800491 -34.192635 10.489032
33.128117 -37.121815 8.262529
32.987156 -37.430534 10.656374
31.254753 -37.393257 23.187166
31.179281 -34.562557 25.056236
31.714636 -34.118538 22.991096
32.232925 -30.473278 22.853346
32.275597 -33.529713 20.963116
32.842556 -32.652042 19.113817
32.211723 -36.336933 19.069344
31.010258 -45.047199 14.696083
31.678877 -41.923466 14.661827
31.161106 -44.619183 12.464441
31.305691 -44.040005 10.368873
30.49976 -47.250607 10.294646
36.026768 -20.309496 14.842434
35.84901 -23.669178 12.725397
35.340073 -24.210604 14.869024
34.640163 -27.89234 14.850358
33.878143 -31.536198 14.973412
30.838423 -40.844505 23.204653
31.265781 -40.064766 21.098257
31.644657 -39.612106 19.0714
31.090235 -42.913628 19.085094
30.811588 -45.50053 17.003685
38.283871 -11.437221 9.902328
35.932827 -26.006802 5.873126
35.076248 -29.608335 5.951861
35.454254 -27.067793 10.472225
34.896698 -30.17745 8.222679
34.147388 -33.241547 6.058037
33.252544 -36.559887 6.121084
33.239925 -23.08238 22.716713
32.057606 -27.457605 24.686195
32.74107 -26.874805 22.750132
33.444683 -26.202557 20.78684
33.480991 -29.148462 18.969831
33.378864 -32.166977 16.990089
33.107018 -35.242306 14.893708
32.031998 -39.138458 16.896536
32.398544 -38.532246 14.856899
32.729095 -37.932598 12.786251
32.151215 -40.734661 10.512744
31.402889 -43.477345 8.262374
34.33358 -22.023974 19.897725
34.615446 -20.048839 19.83983
34.256201 -20.323285 20.828764
30.82629 -46.085745 12.472852
31.085682 -44.833191 13.580262
30.750866 -46.299753 13.588673
30.495617 -47.401457 11.387954
30.830433 -45.934895 11.379544
30.82629 -46.085745 12.472852
35.698744 -19.025726 16.869562
35.644373 -17.418352 17.827034
35.328594 -19.416804 17.888573
35.704866 -20.666837 15.886768
36.020646 -18.668385 15.825228
35.698744 -19.025726 16.869562
30.804547 -42.193123 22.178975
30.649312 -42.433208 23.284267
30.615436 -43.781826 22.258589
30.528213 -47.134672 16.905003
30.701733 -45.79367 17.981659
30.601959 -46.792259 15.836209
30.528213 -47.134672 16.905003
37.809394 -10.319035 13.131203
37.539494 -12.413733 13.24491
38.100689 -10.079518 11.940112
37.809394 -10.319035 13.131203
38.048029 -11.815136 11.021508
38.336531 -9.701602 10.820932
38.100689 -10.079518 11.940112
37.664152 -16.898808 7.867982
37.845361 -15.234186 8.881809
37.488166 -17.299629 8.978556
37.394035 -18.750109 6.820818
37.664152 -16.898808 7.867982
37.009063 -20.701402 6.890165
37.394035 -18.750109 6.820818
32.301178 -40.065334 7.210863
32.710616 -38.541582 7.135998
32.71868 -38.645567 8.337395
31.880268 -41.541311 7.247794
32.301178 -40.065334 7.210863
32.867018 -23.398105 23.665822
33.096807 -21.516329 23.592653
30.744913 -36.721193 26.03241
30.607188 -38.311084 26.1141
31.294093 -31.459589 25.88745
31.082414 -33.212933 25.977612
31.39096 -32.809213 24.966073
31.485463 -29.633228 25.770938
31.176916 -30.036949 26.782477
31.294093 -31.459589 25.88745
31.830123 -29.256737 24.781053
31.712946 -27.834096 25.676081
31.485463 -29.633228 25.770938
30.554386 -46.292223 7.028443
30.965253 -44.77723 7.066557
30.992022 -44.992339 8.22426
34.983524 -19.779478 18.877418
34.615446 -20.048839 19.83983
35.037895 -21.386852 17.919946
35.328594 -19.416804 17.888573
34.983524 -19.779478 18.877418
30.556392 -45.17724 21.120829
30.615436 -43.781826 22.258589
30.681275 -44.814275 20.056465
30.556392 -45.17724 21.120829
36.967858 -14.576871 14.488245
36.630754 -14.7853 15.622905
37.251906 -14.395573 13.290954
36.967858 -14.576871 14.488245
36.952963 -16.338031 13.430065
37.524599 -14.174892 12.186731
37.539494 -12.413733 13.24491
37.251906 -14.395573 13.290954
36.341719 -16.773302 15.71769
36.630754 -14.7853 15.622905
36.347842 -18.414412 14.734896
36.341719 -16.773302 15.71769
36.020646 -18.668385 15.825228
30.653367 -39.624086 25.176845
30.607188 -38.311084 26.1141
30.436834 -39.884844 26.246205
30.660718 -41.021175 24.256802
30.649312 -42.433208 23.284267
30.831072 -39.447416 24.124696
30.653367 -39.624086 25.176845
30.660718 -41.021175 24.256802
30.841057 -44.50022 19.022364
30.930453 -43.227684 20.119196
30.681275 -44.814275 20.056465
30.950912 -44.207079 18.04439
30.841057 -44.50022 19.022364
30.701733 -45.79367 17.981659
30.701294 -46.565593 14.682408
30.910923 -45.273865 15.849884
30.601959 -46.792259 15.836209
30.750866 -46.299753 13.588673
30.701294 -46.565593 14.682408
38.564094 -9.325411 9.706533
38.336531 -9.701602 10.820932
38.44528 -11.210804 8.674499
38.564094 -9.325411 9.706533
38.152609 -13.135293 8.836782
37.976624 -13.536113 9.947356
37.845361 -15.234186 8.881809
38.44528 -11.210804 8.674499
38.152609 -13.135293 8.836782
36.632408 -22.609807 7.006824
37.009063 -20.701402 6.890165
36.930301 -20.872656 8.081388
36.321999 -24.222677 5.844363
36.632408 -22.609807 7.006824
36.243237 -24.393932 7.035587
35.956238 -25.79498 4.742071
36.321999 -24.222677 5.844363
35.543501 -27.536572 4.835829
35.956238 -25.79498 4.742071
35.115212 -29.337338 4.875196
35.543501 -27.536572 4.835829
35.504537 -27.807569 5.912494
34.631738 -31.201369 4.907849
35.115212 -29.337338 4.875196
34.167309 -33.017975 4.960936
34.631738 -31.201369 4.907849
34.611818 -31.424941 6.004949
33.693611 -34.711533 4.896572
34.167309 -33.017975 4.960936
33.246189 -36.370703 4.928096
33.693611 -34.711533 4.896572
33.699966 -34.900717 6.08956
32.796867 -37.928568 4.963487
33.246189 -36.370703 4.928096
32.772829 -38.260618 6.065275
33.190331 -36.840851 7.191807
32.710616 -38.541582 7.135998
32.796867 -37.928568 4.963487
32.772829 -38.260618 6.065275
33.864762 -20.690849 21.76195
34.256201 -20.323285 20.828764
33.497557 -21.082828 22.676977
33.096807 -21.516329 23.592653
33.60713 -22.6904 21.801685
33.864762 -20.690849 21.76195
33.497557 -21.082828 22.676977
30.922693 -34.977308 26.038159
30.744913 -36.721193 26.03241
31.001501 -36.306442 25.050487
30.922693 -34.977308 26.038159
31.082414 -33.212933 25.977612
31.89671 -26.082282 25.592556
31.712946 -27.834096 25.676081
32.275858 -25.585717 24.650563
31.89671 -26.082282 25.592556
32.61759 -25.294317 23.682531
32.275858 -25.585717 24.650563
32.399338 -27.166205 23.718164
32.990498 -24.978592 22.733422
32.867018 -23.398105 23.665822
32.61759 -25.294317 23.682531
31.427091 -43.195324 7.172851
31.880268 -41.541311 7.247794
31.856065 -41.823332 8.337317
31.427091 -43.195324 7.172851
30.965253 -44.77723 7.066557
30.148951 -48.714022 10.269859
30.495617 -47.401457 11.387954
30.121657 -48.448576 9.105182
30.148951 -48.714022 10.269859
30.162354 -48.076938 8.050932
30.540458 -46.878969 9.240396
30.121657 -48.448576 9.105182
30.145164 -47.756431 7.031543
30.162354 -48.076938 8.050932
30.554386 -46.292223 7.028443
30.145164 -47.756431 7.031543
3 0 75 77
3 75 20 76
3 75 76 77
3 0 22 20
3 1 24 23
3 1 26 24
3 1 28 26
3 2 31 29
3 2 33 31
3 3 36 34
3 3 38 36
3 3 40 38
3 78 43 79
3 80 79 41
3 78 79 80
3 81 45 82
3 83 82 43
3 81 82 83
3 4 84 86
3 84 85 86
3 4 87 89
3 87 46 88
3 87 88 89
3 4 48 46
3 6 49 21
3 6 50 49
3 8 90 92
3 90 51 91
3 90 91 92
3 8 52 51
3 8 54 52
3 93 55 94
3 96 95 55
3 10 97 98
3 10 99 100
3 10 101 103
3 101 56 102
3 101 102 103
3 11 104 106
3 106 105 25
3 104 105 106
3 11 107 108
3 11 109 110
3 12 57 27
3 12 58 57
3 5 59 47
3 13 60 30
3 13 61 60
3 13 62 61
3 14 111 113
3 113 112 32
3 111 112 113
3 14 114 115
3 116 63 117
3 7 118 119
3 15 120 122
3 122 121 35
3 120 121 122
3 15 123 125
3 123 124 125
3 15 126 128
3 126 64 127
3 126 127 128
3 16 65 37
3 16 66 65
3 16 67 66
3 17 68 39
3 17 69 68
3 9 70 53
3 18 71 42
3 18 72 71
3 18 73 72
3 19 74 44
3 19 129 131
3 131 130 74
3 129 130 131
3 20 132 133
3 20 134 136
3 134 4 135
3 134 135 136
3 20 21 4
3 22 21 20
3 22 6 21
3 137 8 138
3 140 139 8
3 23 141 142
3 24 143 145
3 145 144 23
3 143 144 145
3 24 146 148
3 146 10 147
3 146 147 148
3 24 25 10
3 26 25 24
3 26 11 25
3 26 27 11
3 28 27 26
3 28 12 27
3 29 30 5
3 31 30 29
3 31 13 30
3 31 32 13
3 33 32 31
3 33 14 32
3 34 35 7
3 36 35 34
3 36 15 35
3 36 37 15
3 38 37 36
3 38 16 37
3 38 39 16
3 40 39 38
3 40 17 39
3 41 42 9
3 43 42 41
3 43 18 42
3 43 44 18
3 45 44 43
3 45 19 44
3 149 23 150
3 46 151 153
3 151 23 152
3 151 152 153
3 46 1 23
3 46 47 1
3 48 47 46
3 48 5 47
3 21 48 4
3 49 48 21
3 49 5 48
3 49 29 5
3 50 29 49
3 50 2 29
3 154 7 155
3 154 155 156
3 51 157 158
3 51 159 161
3 159 7 160
3 159 160 161
3 51 34 7
3 52 34 51
3 52 3 34
3 52 53 3
3 54 53 52
3 54 9 53
3 162 54 163
3 164 163 8
3 162 163 164
3 55 165 167
3 165 54 166
3 165 166 167
3 55 9 54
3 55 41 9
3 168 41 169
3 170 169 55
3 168 169 170
3 172 171 41
3 56 173 174
3 56 175 176
3 25 56 10
3 177 56 178
3 179 178 25
3 177 178 179
3 181 180 56
3 27 182 184
3 184 183 11
3 182 183 184
3 57 185 187
3 187 186 27
3 185 186 187
3 57 188 189
3 57 190 191
3 58 192 194
3 194 193 57
3 192 193 194
3 58 195 196
3 47 28 1
3 59 28 47
3 59 12 28
3 30 59 5
3 60 59 30
3 60 12 59
3 60 58 12
3 61 58 60
3 61 197 199
3 199 198 58
3 197 198 199
3 61 200 201
3 62 202 204
3 204 203 61
3 202 203 204
3 62 205 206
3 32 62 13
3 207 62 208
3 209 208 32
3 207 208 209
3 211 210 62
3 212 0 213
3 63 214 215
3 63 216 218
3 216 0 217
3 216 217 218
3 35 219 221
3 221 220 7
3 219 220 221
3 223 222 35
3 64 224 225
3 64 226 227
3 37 64 15
3 65 64 37
3 65 228 230
3 230 229 64
3 228 229 230
3 65 231 233
3 231 63 232
3 231 232 233
3 66 63 65
3 66 0 63
3 66 22 0
3 67 22 66
3 67 6 22
3 39 67 16
3 68 67 39
3 68 6 67
3 68 50 6
3 69 50 68
3 69 2 50
3 53 40 3
3 70 40 53
3 70 17 40
3 42 70 9
3 71 70 42
3 71 17 70
3 71 69 17
3 72 69 71
3 72 2 69
3 72 33 2
3 73 33 72
3 73 14 33
3 44 73 18
3 74 73 44
3 74 14 73
3 74 234 236
3 236 235 14
3 234 235 236
3 238 237 74
3 239 45 240
3 241 45 242
3 243 19 244
3 245 244 45
3 243 244 245
3 246 19 247
3 249 248 19
