ply
format ascii 1.0
element vertex 215
property float x
property float y
property float z
element face 192
property list uchar int vertex_index
end_header
-20.235434 97.243408 14.974918
-26.31517 92.600571 17.423901
-28.983591 92.385872 5.847461
-17.570679 103.996239 0.985038
-23.667976 95.50666 16.427826
-25.563309 97.100342 10.454553
-22.587797 99.792709 9.159239
-27.787085 93.076195 11.759596
-16.418911 97.611443 13.603462
-18.975212 101.100204 7.838598
-17.487045 93.655273 19.957865
-30.206886 86.78434 7.368105
-22.037773 96.605072 15.634501
-23.160952 97.727402 12.869823
-21.508839 98.753998 11.987952
-28.034393 90.820053 15.124949
-27.078051 93.029572 14.588721
-25.172318 99.071533 6.727467
-26.478279 97.246078 7.410267
-29.192106 90.32399 9.150364
-29.762899 87.61422 10.062943
-29.676168 89.560593 6.567805
-18.367243 102.693863 4.326438
-20.299438 102.287285 4.939687
-19.559341 103.755791 1.43191
-25.086512 94.086479 17.165766
-25.978609 94.895706 14.034029
-24.700102 96.467995 13.438677
-24.16227 98.619514 9.813209
-23.822733 100.360962 6.251238
-28.664255 90.662743 12.148792
-28.441793 92.782196 8.863921
-26.807407 95.279335 10.893865
-27.568054 95.111412 8.155455
-28.192101 94.776459 5.390884
-18.373484 97.788116 13.92769
-19.706621 99.275574 11.402131
-17.652416 99.6082 10.559989
-17.030973 101.31292 7.094512
-16.418213 102.716278 3.870809
-22.474669 94.266647 19.212809
-20.85491 95.085617 18.384274
-18.961802 95.647209 17.464092
-17.056431 95.749474 16.779432
-30.666109 85.662964 4.788229
-20.869001 100.709381 8.295305
-22.178196 101.534439 5.500395
-26.69661 92.815072 16.006311
-27.222307 91.807426 16.31587
-26.840867 91.592926 17.73346
-25.621265 99.044472 5.407458
-24.9584 99.910148 4.968046
-27.390024 96.104622 6.393949
-27.023167 96.178745 7.782861
-26.845137 97.171955 6.021355
-27.702047 95.937145 5.011663
-27.880077 94.943936 6.773169
-27.390024 96.104622 6.393949
-28.061138 95.705902 3.4826
-27.702047 95.937145 5.011663
-15.983068 101.192657 6.882779
-16.368016 100.416493 8.547491
-15.676688 101.894337 5.270927
-16.724593 102.014599 5.48266
-15.983068 101.192657 6.882779
-21.822337 93.521633 20.460263
-22.682239 93.068779 20.853787
-21.012458 93.931118 20.045996
-21.664789 94.676132 18.798541
-21.822337 93.521633 20.460263
-18.449492 93.560879 20.334601
-17.805783 92.484706 21.620426
-18.224424 94.651241 18.710979
-19.18687 94.556847 19.087714
-18.449492 93.560879 20.334601
-30.254751 85.686135 9.04544
-30.032758 86.101075 10.392859
-29.984893 87.19928 8.715524
-30.451552 85.25573 7.749574
-30.254751 85.686135 9.04544
-30.928954 84.899147 3.487681
-30.661244 86.451569 3.139597
-30.908663 84.056118 5.198267
-30.928954 84.899147 3.487681
-21.838325 102.344845 3.668562
-21.238817 101.910862 5.220041
-20.898947 102.721268 3.388208
-22.698463 101.818463 4.03369
-21.838325 102.344845 3.668562
-27.700479 90.702667 16.583984
-28.162511 89.603008 16.724763
-27.556222 91.924813 14.856835
-27.700479 90.702667 16.583984
-27.222307 91.807426 16.31587
-26.274245 98.131744 5.748858
-25.825299 98.158805 7.068867
-25.621265 99.044472 5.407458
-26.845137 97.171955 6.021355
-26.274245 98.131744 5.748858
-16.061985 98.565754 11.801966
-15.370594 97.563374 13.135373
-16.806045 92.425396 21.290089
-17.805783 92.484706 21.620426
-16.540833 93.61684 19.597192
-16.806045 92.425396 21.290089
-29.477502 88.969105 9.606654
-29.56443 87.78698 11.430364
-29.279033 89.141865 10.974074
-20.528898 103.455521 1.634319
-20.898947 102.721268 3.388208
-19.929389 103.021538 3.185799
-24.283608 100.554863 4.729932
-24.9584 99.910148 4.968046
-24.497526 99.716248 6.489352
-29.266325 91.905937 4.462917
-28.890907 93.288391 4.073675
-18.21198 104.505093 -0.570609
-17.24688 104.59322 -0.80896
-28.455055 89.515266 15.389796
-28.162511 89.603008 16.724763
-28.769986 89.436611 13.901718
-28.455055 89.515266 15.389796
-28.349324 90.741398 13.636871
-29.015108 89.311241 12.473288
-28.769986 89.436611 13.901718
-28.92818 90.493367 10.649578
-29.279033 89.141865 10.974074
-29.015108 89.311241 12.473288
-28.495162 94.483685 3.845386
-28.890907 93.288391 4.073675
-28.587846 93.581165 5.619172
-28.495162 94.483685 3.845386
-28.061138 95.705902 3.4826
-16.678738 99.564132 10.280229
-17.035663 98.609821 12.081726
-16.061985 98.565754 11.801966
-17.341694 100.46056 8.82725
-16.678738 99.564132 10.280229
-16.368016 100.416493 8.547491
-15.3536 102.606487 3.593307
-15.676688 101.894337 5.270927
-15.94098 103.333282 2.165008
-15.3536 102.606487 3.593307
-16.517213 103.973263 0.722123
-16.994446 103.356258 2.427923
-15.94098 103.333282 2.165008
-17.24688 104.59322 -0.80896
-16.517213 103.973263 0.722123
-26.494189 91.285923 19.143361
-26.840867 91.592926 17.73346
-25.865068 92.122734 19.007179
-26.494189 91.285923 19.143361
-25.25074 92.865688 18.878111
-25.700841 93.343525 17.294834
-25.865068 92.122734 19.007179
-24.542108 93.637298 18.521549
-25.25074 92.865688 18.878111
-23.83284 94.347389 18.152579
-24.377244 94.79657 16.796796
-24.542108 93.637298 18.521549
-23.236187 93.727383 19.54507
-22.682239 93.068779 20.853787
-23.071323 94.886653 17.820318
-23.83284 94.347389 18.152579
-23.236187 93.727383 19.54507
-20.133424 94.27605 19.547805
-21.012458 93.931118 20.045996
-19.908356 95.366413 17.924183
-20.133424 94.27605 19.547805
-19.18687 94.556847 19.087714
-16.325526 94.66394 18.007976
-17.271738 94.702373 18.368648
-16.540833 93.61684 19.597192
-16.010973 95.725884 16.32326
-16.325526 94.66394 18.007976
-15.692214 96.656868 14.735276
-16.737671 96.680459 15.191447
-16.010973 95.725884 16.32326
-15.370594 97.563374 13.135373
-15.692214 96.656868 14.735276
-29.840916 86.42688 11.699027
-29.642447 86.59964 13.066447
-29.56443 87.78698 11.430364
-29.840916 86.42688 11.699027
-30.032758 86.101075 10.392859
-29.612614 90.493298 4.823088
-29.32988 90.973232 6.207633
-29.266325 91.905937 4.462917
-29.922662 89.024662 5.28528
-29.612614 90.493298 4.823088
-30.188021 87.636536 5.68543
-29.941527 88.172466 6.967955
-29.922662 89.024662 5.28528
-30.417632 87.075848 4.395492
-30.661244 86.451569 3.139597
-30.436498 86.223652 6.078167
-30.188021 87.636536 5.68543
-30.417632 87.075848 4.395492
-30.681163 84.695042 6.459636
-30.451552 85.25573 7.749574
-30.436498 86.223652 6.078167
-30.681163 84.695042 6.459636
-30.908663 84.056118 5.198267
-23.520732 101.231724 4.409111
-23.000464 100.9477 5.875816
-22.698463 101.818463 4.03369
-24.283608 100.554863 4.729932
-23.520732 101.231724 4.409111
-19.206311 104.384869 -0.347173
-18.56501 103.876015 1.208474
-18.21198 104.505093 -0.570609
-20.230469 104.109307 -0.117106
-19.206311 104.384869 -0.347173
-20.528898 103.455521 1.634319
-20.230469 104.109307 -0.117106
3 0 14 12
3 1 47 49
3 47 16 48
3 47 48 49
3 51 50 17
3 2 21 19
3 3 24 22
3 4 27 25
3 6 28 13
3 6 29 28
3 7 30 15
3 7 31 30
3 5 32 26
3 52 33 53
3 54 53 18
3 52 53 54
3 55 34 56
3 57 56 33
3 55 56 57
3 59 58 34
3 8 37 35
3 60 38 61
3 62 39 63
3 64 63 38
3 62 63 64
3 65 40 66
3 67 41 68
3 69 68 40
3 67 68 69
3 10 70 71
3 10 72 74
3 72 42 73
3 72 73 74
3 10 43 42
3 11 75 77
3 77 76 20
3 75 76 77
3 11 78 79
3 80 44 81
3 83 82 44
3 9 45 36
3 84 46 85
3 86 85 23
3 84 85 86
3 88 87 46
3 12 13 4
3 14 13 12
3 14 6 13
3 89 15 90
3 16 91 93
3 91 15 92
3 91 92 93
3 16 7 15
3 17 18 5
3 94 18 95
3 96 95 17
3 94 95 96
3 98 97 18
3 100 99 8
3 101 10 102
3 104 103 10
3 19 105 107
3 105 20 106
3 105 106 107
3 21 20 19
3 21 11 20
3 22 23 9
3 24 23 22
3 24 108 110
3 110 109 23
3 108 109 110
3 25 26 1
3 27 26 25
3 27 5 26
3 13 27 4
3 28 27 13
3 28 5 27
3 28 17 5
3 29 17 28
3 29 111 113
3 113 112 17
3 111 112 113
3 115 114 2
3 117 116 3
3 15 118 119
3 30 120 122
3 122 121 15
3 120 121 122
3 30 123 124
3 30 125 127
3 125 19 126
3 125 126 127
3 31 19 30
3 31 2 19
3 26 16 1
3 32 16 26
3 32 7 16
3 18 32 5
3 33 32 18
3 33 7 32
3 33 31 7
3 34 31 33
3 34 2 31
3 34 128 130
3 130 129 2
3 128 129 130
3 132 131 34
3 35 36 0
3 37 36 35
3 37 9 36
3 133 37 134
3 135 134 8
3 133 134 135
3 38 136 138
3 136 37 137
3 136 137 138
3 38 9 37
3 38 22 9
3 39 22 38
3 39 3 22
3 139 39 140
3 141 39 142
3 143 3 144
3 145 144 39
3 143 144 145
3 147 146 3
3 148 1 149
3 150 1 151
3 152 25 153
3 154 153 1
3 152 153 154
3 155 25 156
3 157 4 158
3 159 158 25
3 157 158 159
3 40 160 161
3 40 162 164
3 162 4 163
3 162 163 164
3 40 12 4
3 41 12 40
3 41 0 12
3 165 41 166
3 42 167 169
3 167 41 168
3 167 168 169
3 42 0 41
3 42 35 0
3 43 35 42
3 43 8 35
3 170 43 171
3 172 171 10
3 170 171 172
3 173 43 174
3 175 8 176
3 177 176 43
3 175 176 177
3 179 178 8
3 20 180 182
3 180 181 182
3 184 183 20
3 185 21 186
3 187 186 2
3 185 186 187
3 188 21 189
3 190 11 191
3 192 191 21
3 190 191 192
3 44 193 194
3 44 195 197
3 195 11 196
3 195 196 197
3 44 198 200
3 200 199 11
3 198 199 200
3 202 201 44
3 36 14 0
3 45 14 36
3 45 6 14
3 23 45 9
3 46 45 23
3 46 6 45
3 46 29 6
3 203 29 204
3 205 204 46
3 203 204 205
3 207 206 29
3 208 24 209
3 210 209 3
3 208 209 210
3 211 24 212
3 214 213 24
