ply
format ascii 1.0
element vertex 172
property float x
property float y
property float z
element face 159
property list uchar int vertex_index
end_header
-14.250804 107.228745 -12.825541
-8.896947 102.263573 -0.979315
-4.306807 103.732971 -13.232364
-1.788754 100.818565 -7.56439
-16.114195 106.123756 -6.081548
-13.343428 103.618004 0.006995
-11.49277 105.328522 -6.764976
-4.045904 99.911873 -1.638051
-6.788849 103.487556 -7.16234
-9.507905 106.035065 -13.050268
1.853644 99.145378 -9.879713
-15.295194 106.829514 -9.582942
-16.491907 107.391235 -12.767406
-9.815529 101.195312 2.428046
-12.07534 102.044968 2.697087
-11.144073 103.065781 -0.52765
-12.507321 104.629211 -3.458325
-10.177107 103.942085 -3.887727
-3.145847 102.407333 -10.181986
-4.344572 102.232368 -7.27825
-5.602423 103.766838 -10.294111
-8.078795 104.918137 -10.231667
-6.967606 105.026344 -13.177876
-7.459674 100.318283 1.737917
-0.740985 99.055695 -4.556604
0.597768 99.166367 -7.246492
-0.602256 100.871452 -10.199875
-1.821407 102.277092 -12.926523
-3.173112 103.554344 -16.07494
-14.288987 102.496696 3.315806
-15.463747 103.950287 0.459207
-14.780407 105.031548 -2.94998
-13.90711 105.866531 -6.344568
-12.937025 106.465446 -9.790439
-6.406403 101.156212 -1.393279
-3.010367 100.507744 -4.596641
-5.324234 101.723465 -4.269065
-7.752947 102.951042 -4.164104
-9.120686 104.508347 -7.003357
-10.510173 105.786362 -9.888243
-11.892569 106.761131 -12.921429
-5.003856 104.28719 -14.626114
-6.334256 104.933876 -14.598869
-5.637206 104.379658 -13.20512
-6.832085 99.198456 3.235328
-7.893918 99.74046 3.349813
1.798265 98.286171 -7.148162
1.114577 98.321076 -5.949986
0.079992 100.754372 -11.514552
0.625694 100.008415 -10.039794
1.307943 99.891334 -11.354471
-0.529583 101.457191 -12.877876
-1.211831 101.574272 -11.563199
0.079992 100.754372 -11.514552
-1.207485 102.146466 -14.348275
-0.529583 101.457191 -12.877876
-17.234845 106.081631 -5.899949
-17.639288 105.614853 -4.160654
-16.518639 105.656979 -4.342252
-4.617159 99.530098 -0.076299
-3.469358 98.889988 -0.215575
-5.226154 100.534042 -1.515665
-5.797408 100.152267 0.046087
-4.617159 99.530098 -0.076299
-10.203512 106.444996 -14.661456
-11.395844 106.808029 -14.597036
-10.700237 106.398098 -12.985848
-3.813119 103.997013 -17.509045
-2.439085 103.252876 -17.464632
3.071883 98.236915 -9.793592
2.426203 98.275677 -8.464772
2.528469 99.00726 -11.171936
3.071883 98.236915 -9.793592
1.307943 99.891334 -11.354471
2.528469 99.00726 -11.171936
-16.378966 106.825749 -9.356018
-16.788466 106.47287 -7.605321
-15.704694 106.476635 -7.832245
-16.977322 107.106609 -10.94825
-16.378966 106.825749 -9.356018
-15.89355 107.110375 -11.175174
-17.622542 107.258728 -12.429925
-16.977322 107.106609 -10.94825
-10.945435 101.62014 2.562566
-11.354561 101.053844 4.082199
-10.224655 100.629017 3.947678
-2.933985 99.233398 -1.671193
-3.469358 98.889988 -0.215575
-7.625115 105.493595 -14.644151
-8.895265 105.997956 -14.580347
-8.237755 105.530704 -13.114072
-7.625115 105.493595 -14.644151
-6.334256 104.933876 -14.598869
-9.071846 100.178974 3.694878
-10.224655 100.629017 3.947678
-8.637601 100.756798 2.082981
-9.071846 100.178974 3.694878
-7.893918 99.74046 3.349813
0.4452 98.265739 -4.605042
-0.093666 98.071045 -3.270495
1.092519 97.28109 -3.318933
-0.071609 99.111031 -5.901548
0.4452 98.265739 -4.605042
1.114577 98.321076 -5.949986
1.225706 99.155872 -8.563102
1.798265 98.286171 -7.148162
2.426203 98.275677 -8.464772
-1.883337 102.785091 -15.922484
-2.49726 102.915718 -14.500732
-1.207485 102.146466 -14.348275
-2.439085 103.252876 -17.464632
-1.883337 102.785091 -15.922484
-17.234845 106.081631 -5.899949
-16.788466 106.47287 -7.605321
-14.899493 107.435265 -14.407664
-13.795809 107.315827 -14.448362
-12.47248 101.411873 4.308255
-11.354561 101.053844 4.082199
-13.579303 101.637737 4.617615
-12.47248 101.411873 4.308255
-13.182164 102.270832 3.006447
-14.612075 101.784546 4.993426
-13.579303 101.637737 4.617615
-15.3536 102.606487 3.593307
-15.676688 101.894337 5.270927
-14.612075 101.784546 4.993426
-15.94098 103.333282 2.165008
-15.3536 102.606487 3.593307
-14.876367 103.223491 1.887506
-16.517213 103.973263 0.722123
-15.94098 103.333282 2.165008
-16.193414 104.570244 -1.071875
-17.24688 104.59322 -0.80896
-16.517213 103.973263 0.722123
-15.851745 105.110874 -2.776469
-16.193414 104.570244 -1.071875
-15.122077 104.490917 -1.245386
-15.447301 105.577652 -4.515764
-16.518639 105.656979 -4.342252
-15.851745 105.110874 -2.776469
-6.324044 99.733303 1.611685
-6.832085 99.198456 3.235328
-6.933039 100.737247 0.172319
-6.324044 99.733303 1.611685
-5.797408 100.152267 0.046087
-1.281525 98.805309 -3.130469
-0.093666 98.071045 -3.270495
-2.416216 99.531334 -3.150488
-1.281525 98.805309 -3.130469
-1.875676 99.78172 -4.576623
-3.528136 100.209809 -3.117346
-2.933985 99.233398 -1.671193
-2.416216 99.531334 -3.150488
-12.616691 107.08202 -14.496306
-13.795809 107.315827 -14.448362
-13.071687 106.994938 -12.873485
-12.616691 107.08202 -14.496306
-11.395844 106.808029 -14.597036
-10.203512 106.444996 -14.661456
-8.895265 105.997956 -14.580347
-4.437009 104.197876 -16.047401
-5.003856 104.28719 -14.626114
-3.73996 103.643658 -14.653652
-4.437009 104.197876 -16.047401
-3.813119 103.997013 -17.509045
-16.020045 107.51651 -14.378597
-15.371355 107.30999 -12.796473
-14.899493 107.435265 -14.407664
-17.205525 107.461822 -14.183469
-16.020045 107.51651 -14.378597
-17.622542 107.258728 -12.429925
-17.205525 107.461822 -14.183469
3 0 12 11
3 1 15 13
3 1 17 15
3 2 20 18
3 2 22 20
3 2 41 43
3 43 42 22
3 41 42 43
3 44 23 45
3 46 25 47
3 48 26 49
3 50 49 10
3 48 49 50
3 51 27 52
3 53 52 26
3 51 52 53
3 55 54 27
3 4 56 58
3 56 57 58
3 5 29 14
3 5 30 29
3 5 31 30
3 6 32 16
3 6 33 32
3 7 59 60
3 7 61 63
3 61 34 62
3 61 62 63
3 3 35 24
3 8 36 19
3 8 37 36
3 8 38 37
3 9 39 21
3 9 40 39
3 9 64 66
3 66 65 40
3 64 65 66
3 68 67 28
3 69 10 70
3 71 10 72
3 74 73 10
3 11 75 77
3 77 76 4
3 75 76 77
3 12 78 80
3 80 79 11
3 78 79 80
3 12 81 82
3 13 83 85
3 83 14 84
3 83 84 85
3 15 14 13
3 15 5 14
3 15 16 5
3 17 16 15
3 17 6 16
3 86 7 87
3 18 19 3
3 20 19 18
3 20 8 19
3 20 21 8
3 22 21 20
3 22 9 21
3 22 88 90
3 90 89 9
3 88 89 90
3 92 91 22
3 93 13 94
3 23 95 97
3 95 13 96
3 95 96 97
3 23 1 13
3 98 24 99
3 98 99 100
3 25 101 103
3 101 24 102
3 101 102 103
3 25 3 24
3 10 104 106
3 104 25 105
3 104 105 106
3 26 25 10
3 26 3 25
3 26 18 3
3 27 18 26
3 27 2 18
3 27 28 2
3 107 28 108
3 109 108 27
3 107 108 109
3 111 110 28
3 113 112 4
3 115 114 0
3 14 116 117
3 29 118 120
3 120 119 14
3 118 119 120
3 29 121 122
3 29 123 125
3 123 124 125
3 30 126 128
3 128 127 29
3 126 127 128
3 30 129 130
3 30 131 133
3 131 132 133
3 31 134 136
3 136 135 30
3 134 135 136
3 31 137 139
3 137 4 138
3 137 138 139
3 16 31 5
3 32 31 16
3 32 4 31
3 32 11 4
3 33 11 32
3 33 0 11
3 140 23 141
3 34 142 144
3 142 23 143
3 142 143 144
3 34 1 23
3 24 145 146
3 35 147 149
3 149 148 24
3 147 148 149
3 35 150 152
3 150 7 151
3 150 151 152
3 19 35 3
3 36 35 19
3 36 7 35
3 36 34 7
3 37 34 36
3 37 1 34
3 37 17 1
3 38 17 37
3 38 6 17
3 21 38 8
3 39 38 21
3 39 6 38
3 39 33 6
3 40 33 39
3 40 0 33
3 40 153 155
3 155 154 0
3 153 154 155
3 157 156 40
3 159 158 9
3 28 160 162
3 162 161 2
3 160 161 162
3 164 163 28
3 165 12 166
3 167 166 0
3 165 166 167
3 168 12 169
3 171 170 12
