ply
format ascii 1.0
element vertex 216
property float x
property float y
property float z
element face 217
property list uchar int vertex_index
end_header
-38.808308 -51.995644 -33.808342
-29.23613 -49.417393 -26.074108
-31.975267 -68.749191 -26.407295
-27.735226 -65.971985 -21.750072
-33.298153 -52.288334 -29.894562
-35.33242 -60.499786 -30.279285
-32.60841 -60.476326 -28.025295
-35.541592 -52.555443 -32.039616
-35.80761 -44.795197 -33.880188
-31.219561 -43.45713 -30.338249
-39.132774 -59.580032 -32.019409
-28.994566 -57.504955 -23.576439
-29.585985 -67.878853 -23.967854
-30.779259 -59.416798 -25.634109
-31.476929 -51.181538 -27.748413
-33.568478 -44.456329 -32.024487
-37.044262 -56.253963 -32.103672
-35.405304 -56.521881 -31.148338
-37.040043 -52.366821 -32.9842
-37.082932 -48.500145 -33.867153
-30.287498 -46.479366 -28.186333
-37.263779 -64.001968 -30.378166
-25.834839 -69.015579 -20.127132
-26.750977 -64.727478 -20.832256
-27.443953 -60.48019 -21.721313
-28.471516 -61.71014 -22.579571
-28.932865 -72.123535 -23.293667
-30.666424 -68.461472 -25.183609
-32.968971 -56.356628 -28.930557
-31.626623 -60.068386 -26.818398
-32.064487 -55.914333 -27.76112
-31.222336 -55.254005 -26.632294
-32.393677 -51.831467 -28.790314
-32.54155 -47.856796 -29.913258
-33.523186 -48.308437 -30.922356
-26.841208 -70.261642 -21.075207
-33.659161 -64.68309 -28.360817
-32.269176 -64.615685 -27.181255
-33.826305 -60.620663 -29.196156
-34.055344 -56.561008 -30.077408
-34.313087 -52.532291 -30.996403
-34.538403 -48.570377 -31.953106
-35.698082 -48.63253 -32.948689
-32.08633 -40.375763 -32.460194
-33.556412 -68.727821 -27.584175
-35.335758 -64.467407 -29.443424
-37.120129 -60.136654 -31.231541
-38.941479 -55.795216 -32.917664
-28.00927 -52.257355 -24.06995
-27.86998 -56.308788 -22.803307
-29.257133 -53.393211 -24.744797
-27.841333 -71.312576 -22.1404
-28.6457 -67.035187 -22.808613
-31.145773 -64.260193 -25.958565
-30.214369 -63.635048 -24.74762
-29.363037 -62.772846 -23.603561
-29.940435 -58.551483 -24.534248
-30.317642 -54.403286 -25.608822
-30.442282 -50.365929 -26.829315
-31.48571 -47.23708 -28.985535
-32.448341 -44.027489 -31.136524
-33.376755 -40.768913 -33.211941
-34.654388 -44.717007 -32.956154
-38.766102 -50.096035 -34.247631
-37.881969 -50.281624 -33.83556
-37.924175 -52.181233 -33.396271
-29.090951 -47.519174 -26.804903
-28.557184 -48.895983 -25.782839
-29.761814 -47.94838 -27.130221
-29.616635 -46.050161 -27.861016
-29.090951 -47.519174 -26.804903
-31.320845 -68.605332 -25.795452
-30.436496 -70.55526 -24.842022
-31.090917 -70.699119 -25.453865
-26.340711 -72.40953 -20.807676
-25.795166 -71.790481 -20.331086
-25.294669 -73.93837 -20.063555
-37.102182 -46.596375 -34.310766
-37.868073 -46.46451 -34.711208
-30.955172 -41.664451 -31.063336
-30.542569 -43.119026 -29.996861
-31.652945 -41.916446 -31.399222
-31.388557 -40.123768 -32.124308
-30.955172 -41.664451 -31.063336
-34.478201 -68.56966 -28.118919
-33.525982 -70.733975 -27.231631
-35.367874 -66.439453 -29.048544
-34.446085 -66.597614 -28.513799
-34.478201 -68.56966 -28.118919
-27.285427 -53.625994 -23.15015
-27.313358 -51.645773 -23.824326
-26.589515 -53.014412 -22.904525
-37.903414 -48.348286 -34.277037
-37.061487 -50.433483 -33.425677
-37.881969 -50.281624 -33.83556
-37.868073 -46.46451 -34.711208
-37.903414 -48.348286 -34.277037
-30.076538 -44.630144 -28.920903
-29.405675 -44.200939 -28.595585
-29.616635 -46.050161 -27.861016
-30.753529 -44.968248 -29.262291
-30.542569 -43.119026 -29.996861
-30.076538 -44.630144 -28.920903
-37.356054 -65.923466 -29.966015
-36.331885 -66.206734 -29.515915
-36.42416 -68.128231 -29.103764
-38.315758 -63.67447 -30.74971
-37.356054 -65.923466 -29.966015
-39.250255 -61.463503 -31.570332
-38.198276 -61.791 -31.198788
-38.315758 -63.67447 -30.74971
-25.288923 -68.311996 -19.724716
-24.735726 -70.463448 -19.437297
-25.746992 -66.167946 -20.077278
-25.288923 -68.311996 -19.724716
-26.292908 -66.871529 -20.479694
-26.18741 -64.029103 -20.459716
-25.746992 -66.167946 -20.077278
-27.097465 -62.603834 -21.276784
-26.533898 -61.905459 -20.904245
-26.18741 -64.029103 -20.459716
-29.569716 -72.386291 -23.897051
-28.60226 -74.235813 -23.010919
-29.799644 -70.292504 -24.238638
-29.569716 -72.386291 -23.897051
-30.436496 -70.55526 -24.842022
-35.800921 -42.94405 -34.363388
-36.447187 -42.895588 -34.767935
-25.291981 -71.16745 -19.857048
-24.735726 -70.463448 -19.437297
-26.338023 -69.63861 -20.601169
-25.291981 -71.16745 -19.857048
-25.795166 -71.790481 -20.331086
-36.409757 -46.662567 -33.851534
-36.390507 -48.566338 -33.407921
-37.102182 -46.596375 -34.310766
-36.464522 -44.743901 -34.317284
-35.752846 -46.713864 -33.414439
-36.409757 -46.662567 -33.851534
-36.447187 -42.895588 -34.767935
-36.464522 -44.743901 -34.317284
-31.778794 -38.649261 -33.166613
-31.388557 -40.123768 -32.124308
-32.506813 -38.824529 -33.475138
-32.199277 -37.098028 -34.181557
-31.778794 -38.649261 -33.166613
-31.848994 -70.803032 -26.061332
-31.090917 -70.699119 -25.453865
-32.639567 -70.792347 -26.649772
-33.525982 -70.733975 -27.231631
-32.765839 -68.738506 -26.995735
-31.848994 -70.803032 -26.061332
-32.639567 -70.792347 -26.649772
-36.299768 -64.234688 -29.910795
-35.367874 -66.439453 -29.048544
-36.331885 -66.206734 -29.515915
-27.943753 -50.315964 -24.78076
-27.313358 -51.645773 -23.824326
-28.6227 -50.837374 -25.072029
-28.557184 -48.895983 -25.782839
-27.943753 -50.315964 -24.78076
-40.209023 -59.239889 -32.320048
-39.250255 -61.463503 -31.570332
-40.079599 -57.392393 -32.798094
-40.209023 -59.239889 -32.320048
-39.983952 -55.499985 -33.247221
-39.037126 -57.687624 -32.468536
-40.079599 -57.392393 -32.798094
-39.869854 -53.643048 -33.711567
-39.983952 -55.499985 -33.247221
-39.803269 -51.743262 -34.156906
-38.874893 -53.89543 -33.363003
-39.869854 -53.643048 -33.711567
-39.704577 -49.879047 -34.606724
-39.803269 -51.743262 -34.156906
-38.766102 -50.096035 -34.247631
-39.704577 -49.879047 -34.606724
-26.840065 -59.795683 -21.389427
-25.930011 -61.220951 -20.572359
-26.533898 -61.905459 -20.904245
-27.053079 -57.709982 -21.930424
-26.840065 -59.795683 -21.389427
-27.656967 -58.394489 -22.26231
-27.215782 -55.651711 -22.516829
-27.053079 -57.709982 -21.930424
-27.939625 -54.283071 -23.436628
-27.285427 -53.625994 -23.15015
-27.215782 -55.651711 -22.516829
-27.959871 -73.853771 -22.44323
-28.60226 -74.235813 -23.010919
-27.414105 -73.448292 -21.866596
-27.959871 -73.853771 -22.44323
-28.387099 -71.718056 -22.717033
-26.840773 -72.934998 -21.340273
-27.414105 -73.448292 -21.866596
-27.341271 -70.787109 -21.607803
-26.340711 -72.40953 -20.807676
-26.840773 -72.934998 -21.340273
-33.152026 -39.021104 -33.851011
-32.506813 -38.824529 -33.475138
-32.731543 -40.572338 -32.836067
-35.22431 -42.904955 -33.901371
-35.230999 -44.756102 -33.418171
-35.800921 -42.94405 -34.363388
-34.621147 -42.866358 -33.48794
-35.22431 -42.904955 -33.901371
-34.078192 -42.736019 -33.022106
-34.111433 -44.586668 -32.49032
-34.621147 -42.866358 -33.48794
-33.982331 -40.892311 -33.615834
-33.472617 -42.612621 -32.618214
-34.078192 -42.736019 -33.022106
-33.833964 -39.136757 -34.184833
-33.982331 -40.892311 -33.615834
-33.152026 -39.021104 -33.851011
-33.833964 -39.136757 -34.184833
3 0 18 16
3 0 63 65
3 65 64 18
3 63 64 65
3 1 66 67
3 1 68 70
3 68 20 69
3 68 69 70
3 3 23 22
3 3 25 23
3 2 71 73
3 71 27 72
3 71 72 73
3 4 30 28
3 4 32 30
3 4 34 32
3 74 35 75
3 74 75 76
3 5 38 36
3 7 39 17
3 7 40 39
3 7 42 40
3 78 77 19
3 9 79 80
3 9 81 83
3 81 43 82
3 81 82 83
3 84 44 85
3 86 45 87
3 88 87 44
3 86 87 88
3 10 46 21
3 10 47 46
3 89 48 90
3 89 90 91
3 11 49 24
3 11 50 49
3 12 51 26
3 12 52 51
3 6 53 37
3 13 54 29
3 13 55 54
3 13 56 55
3 14 57 31
3 14 58 57
3 14 59 58
3 15 60 33
3 15 61 60
3 8 62 41
3 16 17 5
3 18 17 16
3 18 7 17
3 18 19 7
3 92 19 93
3 94 93 18
3 92 93 94
3 96 95 19
3 20 97 99
3 97 98 99
3 20 100 102
3 100 9 101
3 100 101 102
3 103 21 104
3 103 104 105
3 106 21 107
3 108 10 109
3 110 109 21
3 108 109 110
3 22 111 112
3 23 113 115
3 115 114 22
3 113 114 115
3 23 116 117
3 23 118 120
3 118 24 119
3 118 119 120
3 25 24 23
3 25 11 24
3 121 26 122
3 27 123 125
3 123 26 124
3 123 124 125
3 27 12 26
3 28 29 6
3 30 29 28
3 30 13 29
3 30 31 13
3 32 31 30
3 32 14 31
3 32 33 14
3 34 33 32
3 34 15 33
3 127 126 8
3 128 22 129
3 35 130 132
3 130 22 131
3 130 131 132
3 35 3 22
3 36 37 2
3 38 37 36
3 38 6 37
3 17 38 5
3 39 38 17
3 39 6 38
3 39 28 6
3 40 28 39
3 40 4 28
3 40 41 4
3 42 41 40
3 42 8 41
3 19 42 7
3 133 42 134
3 135 134 19
3 133 134 135
3 136 8 137
3 138 137 42
3 136 137 138
3 140 139 8
3 43 141 142
3 43 143 145
3 143 144 145
3 146 2 147
3 44 148 149
3 44 150 152
3 150 2 151
3 150 151 152
3 44 36 2
3 45 36 44
3 45 5 36
3 21 153 155
3 153 45 154
3 153 154 155
3 46 45 21
3 46 5 45
3 46 16 5
3 47 16 46
3 47 0 16
3 48 156 157
3 48 158 160
3 158 1 159
3 158 159 160
3 161 10 162
3 163 10 164
3 165 47 166
3 167 166 10
3 165 166 167
3 168 47 169
3 170 0 171
3 172 171 47
3 170 171 172
3 173 0 174
3 176 175 0
3 24 177 179
3 177 178 179
3 49 180 182
3 182 181 24
3 180 181 182
3 49 183 184
3 49 185 187
3 185 48 186
3 185 186 187
3 50 48 49
3 50 1 48
3 26 188 189
3 51 190 192
3 192 191 26
3 190 191 192
3 51 193 194
3 51 195 197
3 195 35 196
3 195 196 197
3 52 35 51
3 52 3 35
3 37 27 2
3 53 27 37
3 53 12 27
3 29 53 6
3 54 53 29
3 54 12 53
3 54 52 12
3 55 52 54
3 55 3 52
3 55 25 3
3 56 25 55
3 56 11 25
3 31 56 13
3 57 56 31
3 57 11 56
3 57 50 11
3 58 50 57
3 58 1 50
3 58 20 1
3 59 20 58
3 59 9 20
3 33 59 14
3 60 59 33
3 60 9 59
3 60 43 9
3 61 43 60
3 61 198 200
3 200 199 43
3 198 199 200
3 41 34 4
3 62 34 41
3 62 15 34
3 201 62 202
3 203 202 8
3 201 202 203
3 204 62 205
3 206 15 207
3 208 207 62
3 206 207 208
3 209 61 210
3 211 210 15
3 209 210 211
3 212 61 213
3 215 214 61
