ply
format ascii 1.0
element vertex 239
property float x
property float y
property float z
element face 222
property list uchar int vertex_index
end_header
38.113705 22.738529 5.855444
51.511284 17.427155 7.569449
43.972466 20.809525 8.364885
47.73888 19.175411 8.167545
58.433861 18.089466 8.864546
40.529278 29.737328 5.437211
40.636677 22.113564 7.698039
44.021858 28.385693 6.568343
47.904968 26.536652 6.902242
51.693432 24.513195 6.878565
54.897209 22.433052 6.948667
57.151421 20.281399 7.512169
54.875549 15.630539 7.116493
49.651768 18.308979 7.885608
37.94025 26.563145 4.650766
42.315304 32.70253 4.823069
42.197281 29.149708 6.126059
44.153069 31.950272 5.440697
48.051796 30.059696 6.170893
49.985218 29.015495 6.39004
49.842209 25.53447 6.906108
51.821152 27.946323 6.583191
40.634415 33.252743 3.978616
42.225594 21.522961 8.163486
40.77042 18.095119 8.609745
42.300621 17.533833 9.02692
54.94352 25.76659 7.075564
56.121235 24.64724 7.45155
58.272865 16.063976 7.781489
57.898689 19.183128 8.077644
57.349445 17.055611 7.271176
56.222366 18.055904 6.997033
45.827618 20.015995 8.347946
43.991768 16.874969 9.179853
45.798904 16.153137 9.111584
58.813427 17.025078 9.880653
39.114792 26.409325 5.809049
39.252293 22.53389 6.934885
40.542702 26.009583 6.659462
42.178757 25.409229 7.21805
43.97142 24.659275 7.517926
46.086327 31.051891 5.872793
45.944412 27.498875 6.809005
45.866295 23.808922 7.605517
47.807259 22.898998 7.536097
49.73629 21.957848 7.370046
51.5942 21.000549 7.170314
39.072872 30.096317 4.471662
53.494179 26.863705 6.797951
53.39682 23.480061 6.875297
53.323997 20.031551 7.000626
57.913864 21.11702 9.451595
57.587223 22.318089 8.616827
57.001312 23.497925 7.956746
56.154526 21.367271 7.146785
54.877365 19.049984 6.923466
53.266235 16.533577 7.289663
38.232695 20.748087 6.362222
37.820239 20.758278 5.68934
50.53846 16.018549 8.05154
49.608702 16.459461 8.209619
50.581526 17.868067 7.727529
51.467854 15.619148 7.863198
50.53846 16.018549 8.05154
37.683295 22.714918 5.157029
37.596567 24.627226 4.55469
38.026978 24.650837 5.253105
37.820239 20.758278 5.68934
37.389828 20.734667 4.990925
37.683295 22.714918 5.157029
44.270283 33.633722 4.755721
43.234186 32.326401 5.131883
43.3514 34.009851 4.446907
50.981943 30.147616 6.27727
50.078272 30.69603 6.052912
51.89991 29.613029 6.373845
50.903185 28.480909 6.486616
50.981943 30.147616 6.27727
43.3514 34.009851 4.446907
42.437672 34.366051 4.040889
56.509077 25.67 7.957273
56.119093 26.264727 7.608944
57.464388 15.441824 7.303252
57.811155 16.559793 7.526332
57.926097 14.946006 7.558408
56.832056 15.889929 7.192779
57.464388 15.441824 7.303252
58.957826 16.521275 10.500483
58.429516 17.881155 10.784249
58.573915 17.377351 11.404078
47.17263 32.245641 5.561395
46.197588 32.743572 5.295781
47.283892 33.937323 4.984383
40.039423 20.315472 7.797342
39.347231 20.525635 7.415765
39.944485 22.323727 7.316462
40.273395 14.204265 9.09158
40.206473 16.251581 8.674391
40.837343 16.047804 9.026934
43.179406 15.179626 9.520091
43.993599 14.883895 9.597504
54.252544 27.949787 6.980549
53.553778 28.514643 6.717302
58.173862 19.603243 9.158071
57.977691 20.515707 9.962685
58.23769 19.00193 9.669161
54.04033 14.316056 7.468537
53.235674 14.767575 7.555122
54.070892 16.082058 7.203078
48.662751 16.851067 8.380469
47.706306 17.284282 8.521437
48.695324 18.742195 8.026577
48.662751 16.851067 8.380469
49.608702 16.459461 8.209619
37.496652 26.500822 3.919385
37.9076 28.373251 3.9343
37.496652 26.500822 3.919385
37.596567 24.627226 4.55469
49.111561 31.21813 5.943339
48.155365 31.749544 5.710445
49.018507 29.537596 6.280467
49.111561 31.21813 5.943339
50.078272 30.69603 6.052912
41.597228 34.641158 3.618663
40.761345 34.884346 3.112881
41.474859 32.977637 4.400843
41.597228 34.641158 3.618663
42.437672 34.366051 4.040889
41.602443 15.767161 9.235522
40.837343 16.047804 9.026934
41.535521 17.814476 8.818333
55.530236 26.824402 7.420951
54.977215 27.40123 7.119356
55.532377 25.206915 7.263557
55.530236 26.824402 7.420951
56.119093 26.264727 7.608944
56.268517 16.390076 7.055708
56.785905 17.555757 7.134104
56.832056 15.889929 7.192779
55.595108 15.177393 7.115438
55.548958 16.843222 7.056763
56.268517 16.390076 7.055708
54.874555 13.909289 7.35783
55.595108 15.177393 7.115438
44.897167 14.522979 9.563369
43.993599 14.883895 9.597504
44.895336 16.514053 9.145719
46.736318 15.773146 8.993457
46.768892 17.664274 8.639565
47.706306 17.284282 8.521437
45.773969 14.202465 9.529543
46.736318 15.773146 8.993457
44.897167 14.522979 9.563369
45.773969 14.202465 9.529543
58.427473 18.469736 10.177215
58.429516 17.881155 10.784249
58.623644 17.557272 9.372599
58.23769 19.00193 9.669161
58.427473 18.469736 10.177215
59.239258 15.612417 9.721711
58.957826 16.521275 10.500483
58.921039 16.064255 9.213071
59.239258 15.612417 9.721711
58.731257 16.596449 8.705018
58.623644 17.557272 9.372599
58.921039 16.064255 9.213071
58.650759 15.583704 8.163489
58.353363 17.076721 8.323018
58.731257 16.596449 8.705018
58.478924 14.513146 7.797339
58.650759 15.583704 8.163489
57.926097 14.946006 7.558408
58.478924 14.513146 7.797339
45.230959 33.192763 5.079733
44.270283 33.633722 4.755721
45.119698 31.501081 5.656745
45.230959 33.192763 5.079733
46.197588 32.743572 5.295781
47.069062 30.555794 6.021843
47.17263 32.245641 5.561395
48.155365 31.749544 5.710445
39.900458 33.401024 3.430446
40.761345 34.884346 3.112881
39.119686 31.822811 3.676969
39.900458 33.401024 3.430446
39.853643 31.67453 4.225139
38.473911 30.139837 3.844748
38.520725 31.866331 3.050055
39.119686 31.822811 3.676969
38.506561 28.329731 4.561214
37.9076 28.373251 3.9343
38.473911 30.139837 3.844748
38.801989 20.645767 6.901943
38.232695 20.748087 6.362222
38.682999 22.636209 6.395164
38.801989 20.645767 6.901943
39.347231 20.525635 7.415765
40.106295 18.306249 8.253195
40.039423 20.315472 7.797342
40.703548 20.104342 8.153892
40.106295 18.306249 8.253195
40.206473 16.251581 8.674391
42.333832 15.509058 9.443624
43.146195 17.204401 9.103386
43.179406 15.179626 9.520091
41.602443 15.767161 9.235522
42.333832 15.509058 9.443624
52.717264 29.055952 6.609922
51.89991 29.613029 6.373845
52.657666 27.405014 6.690571
52.717264 29.055952 6.609922
53.553778 28.514643 6.717302
54.21885 26.315148 6.936758
54.252544 27.949787 6.980549
54.977215 27.40123 7.119356
57.649681 21.995696 10.350713
57.977691 20.515707 9.962685
57.700859 22.649727 9.821822
57.649681 21.995696 10.350713
57.537538 23.250262 9.404439
57.700859 22.649727 9.821822
57.750543 21.717554 9.034211
57.465879 23.888647 8.942048
57.537538 23.250262 9.404439
57.172924 24.478565 8.612007
57.465879 23.888647 8.942048
57.294268 22.908007 8.286786
56.949115 25.095343 8.209872
57.172924 24.478565 8.612007
56.561273 24.072582 7.704148
56.509077 25.67 7.957273
56.949115 25.095343 8.209872
52.345329 15.17236 7.723306
51.467854 15.619148 7.863198
52.38876 16.980366 7.429556
52.345329 15.17236 7.723306
53.235674 14.767575 7.555122
54.04033 14.316056 7.468537
54.874555 13.909289 7.35783
3 0 57 58
3 1 59 61
3 61 60 13
3 59 60 61
3 1 62 63
3 0 64 66
3 66 65 14
3 64 65 66
3 0 67 69
3 67 68 69
3 70 17 71
3 72 71 15
3 70 71 72
3 73 19 74
3 75 21 76
3 77 76 19
3 75 76 77
3 78 15 79
3 2 25 23
3 80 27 81
3 82 30 83
3 84 83 28
3 82 83 84
3 86 85 30
3 3 34 32
3 87 35 88
3 87 88 89
3 5 38 36
3 7 39 16
3 7 40 39
3 90 41 91
3 90 91 92
3 8 42 18
3 8 43 42
3 8 44 43
3 9 45 20
3 9 46 45
3 5 47 22
3 5 36 47
3 6 93 95
3 95 94 37
3 93 94 95
3 98 97 24
3 96 97 98
3 100 99 33
3 101 48 102
3 10 49 26
3 10 50 49
3 4 103 105
3 103 51 104
3 103 104 105
3 11 52 29
3 11 53 52
3 11 54 53
3 12 55 31
3 12 56 55
3 12 106 108
3 108 107 56
3 106 107 108
3 13 109 111
3 111 110 3
3 109 110 111
3 113 112 13
3 14 114 115
3 117 116 14
3 15 16 5
3 17 16 15
3 17 7 16
3 118 18 119
3 19 120 122
3 120 18 121
3 120 121 122
3 19 8 18
3 19 20 8
3 21 20 19
3 21 9 20
3 123 22 124
3 15 125 127
3 125 22 126
3 125 126 127
3 15 5 22
3 23 24 6
3 25 24 23
3 25 128 130
3 130 129 24
3 128 129 130
3 131 26 132
3 27 133 135
3 133 26 134
3 133 134 135
3 27 10 26
3 28 29 4
3 30 29 28
3 30 11 29
3 30 31 11
3 136 31 137
3 138 137 30
3 136 137 138
3 139 12 140
3 141 140 31
3 139 140 141
3 143 142 12
3 32 33 2
3 34 33 32
3 34 144 146
3 146 145 33
3 144 145 146
3 147 34 148
3 149 148 3
3 147 148 149
3 150 34 151
3 153 152 34
3 35 154 155
3 35 156 158
3 156 4 157
3 156 157 158
3 159 35 160
3 161 35 162
3 163 4 164
3 165 164 35
3 163 164 165
3 166 28 167
3 168 167 4
3 166 167 168
3 169 28 170
3 172 171 28
3 36 37 0
3 38 37 36
3 38 6 37
3 16 38 5
3 39 38 16
3 39 6 38
3 39 23 6
3 40 23 39
3 40 2 23
3 173 17 174
3 41 175 177
3 175 17 176
3 175 176 177
3 41 7 17
3 18 178 180
3 178 41 179
3 178 179 180
3 42 41 18
3 42 7 41
3 42 40 7
3 43 40 42
3 43 2 40
3 43 32 2
3 44 32 43
3 44 3 32
3 20 44 8
3 45 44 20
3 45 3 44
3 45 13 3
3 46 13 45
3 46 1 13
3 22 181 182
3 47 183 185
3 185 184 22
3 183 184 185
3 47 186 188
3 186 187 188
3 47 189 191
3 189 14 190
3 189 190 191
3 36 14 47
3 36 0 14
3 37 192 194
3 194 193 0
3 192 193 194
3 196 195 37
3 24 197 199
3 199 198 6
3 197 198 199
3 201 200 24
3 33 25 2
3 202 25 203
3 204 203 33
3 202 203 204
3 206 205 25
3 207 21 208
3 48 209 211
3 209 21 210
3 209 210 211
3 48 9 21
3 26 212 214
3 212 48 213
3 212 213 214
3 49 48 26
3 49 9 48
3 49 46 9
3 50 46 49
3 50 1 46
3 51 215 216
3 51 217 218
3 29 51 4
3 52 51 29
3 52 219 221
3 221 220 51
3 219 220 221
3 52 222 223
3 53 224 226
3 226 225 52
3 224 225 226
3 53 227 228
3 53 229 231
3 229 27 230
3 229 230 231
3 54 27 53
3 54 10 27
3 31 54 11
3 55 54 31
3 55 10 54
3 55 50 10
3 56 50 55
3 56 1 50
3 56 232 234
3 234 233 1
3 232 233 234
3 236 235 56
3 238 237 12
