ply
format ascii 1.0
element vertex 267
property float x
property float y
property float z
element face 269
property list uchar int vertex_index
end_header
21.809494 -25.920544 77.703697
37.243225 -24.777103 66.05764
29.370289 -11.074526 74.989655
31.128767 -18.358324 75.43779
36.762657 -17.477049 68.136894
29.922634 -25.976713 71.371696
25.543148 -11.206358 76.913864
27.072344 -14.725813 78.554253
21.515581 -29.518311 76.319527
26.728201 -22.292784 76.623283
30.400969 -22.241596 73.209053
25.944431 -26.069271 74.425255
26.060244 -29.505713 73.664604
34.461487 -14.10248 73.448997
30.963402 -14.61558 76.239906
27.405277 -18.440571 78.485245
36.391045 -21.40415 66.242027
34.282776 -17.989424 71.975052
33.607895 -21.950439 69.720276
33.667934 -25.593773 68.581589
30.592945 -29.277893 71.428734
21.528648 -27.773939 76.813354
24.287825 -24.139515 77.124985
26.278667 -24.207764 75.442513
23.887537 -26.028301 76.041389
23.690083 -27.835394 75.257385
38.17387 -22.696136 64.443199
39.017708 -24.181576 64.883698
31.322508 -10.833401 73.977875
32.244202 -12.59058 74.696312
30.342169 -12.829842 75.842339
27.396011 -16.558195 78.78112
37.61174 -19.166479 65.146973
36.474201 -19.486027 67.05883
32.944874 -16.265442 74.570473
34.510033 -16.015888 72.918915
32.79023 -18.198721 73.756584
30.057627 -24.148506 72.119736
32.066177 -22.124741 71.469337
31.815758 -24.027348 70.497749
33.485046 -23.83465 68.911827
31.823824 -25.830147 69.942795
32.162319 -27.50206 69.925568
30.091436 -27.692707 71.126503
27.421778 -11.199527 75.969597
28.387278 -12.955164 76.90284
26.440247 -12.94502 77.875275
21.818264 -31.135448 76.315659
37.08989 -15.439809 69.230728
29.036715 -20.368149 76.095001
30.810778 -20.297579 74.40139
28.615795 -22.30048 74.930168
28.208483 -24.208113 73.770531
27.960827 -26.052505 72.866814
27.984627 -27.799648 72.412979
25.847191 -27.843636 73.789429
23.783106 -29.533615 74.936302
34.04147 -12.265952 73.448921
32.784863 -14.393986 74.907928
31.212713 -16.457958 76.096573
29.041487 -14.735909 77.455772
29.34803 -16.565315 77.501038
29.32176 -18.447315 77.01593
27.149038 -20.359837 77.714188
24.765026 -22.202255 78.274956
36.202892 -26.771032 67.747589
37.706028 -21.018171 64.542137
36.632248 -23.178368 65.878204
35.962883 -13.772625 71.848923
35.890503 -15.734175 71.138321
35.601364 -17.745731 70.098167
32.444679 -20.165968 72.641846
33.925884 -19.98457 70.823875
35.260345 -19.758011 68.957817
35.039471 -21.712959 67.973221
35.081257 -23.555988 67.369568
35.467754 -25.247389 67.287697
34.197739 -27.202244 68.802971
32.829716 -29.030914 70.44104
28.333731 -29.426964 72.498772
20.595043 -26.784332 78.074303
20.45462 -27.711029 77.629131
21.669071 -26.847241 77.258526
29.723708 -10.074552 73.939896
28.743656 -10.187966 74.42028
30.346398 -10.953964 74.483765
30.699818 -9.95399 73.434006
29.723708 -10.074552 73.939896
37.283756 -17.332504 67.123317
37.448605 -16.311502 67.672054
36.618429 -18.481538 67.597862
37.139528 -18.336993 66.584285
37.283756 -17.332504 67.123317
25.878768 -10.315931 75.882981
24.985037 -10.341527 76.404606
26.482463 -11.202942 76.441731
26.818083 -10.312516 75.410847
25.878768 -10.315931 75.882981
20.493075 -30.323842 76.971428
20.644417 -31.132411 76.969494
21.666922 -30.32688 76.317593
37.184061 -14.436349 69.664272
37.754389 -14.272761 68.712681
33.631863 -11.379981 73.181995
34.532097 -11.1763 72.608444
23.761158 -22.104597 79.069282
24.973751 -21.225918 78.759842
23.512876 -23.094751 78.537606
23.761158 -22.104597 79.069282
36.707295 -27.454452 68.192932
35.620306 -27.714324 68.632972
35.212185 -13.937552 72.64896
35.828325 -12.831318 71.96222
35.077627 -12.996245 72.762257
30.98845 -30.005195 71.809922
32.106836 -29.881706 71.316074
31.71133 -29.154404 70.934887
25.056924 -11.992956 77.821216
24.68372 -11.158375 77.348984
24.68372 -11.158375 77.348984
24.985037 -10.341527 76.404606
20.400742 -28.614748 77.312939
20.394209 -29.486934 77.066025
21.522115 -28.646125 76.56644
20.400742 -28.614748 77.312939
20.45462 -27.711029 77.629131
38.959 -22.405594 63.755108
38.604311 -21.625799 63.666081
39.380918 -23.148314 63.975358
38.959 -22.405594 63.755108
38.595789 -23.438856 64.663449
39.915425 -23.828568 64.318481
39.380918 -23.148314 63.975358
31.783355 -11.71199 74.337094
32.733229 -11.542295 73.805691
32.272382 -10.663706 73.446472
26.401306 -16.482176 79.351326
27.234178 -15.642004 78.667687
26.239472 -15.565985 79.237893
26.408943 -17.434164 79.306339
26.401306 -16.482176 79.351326
26.413576 -18.375352 79.158401
27.400644 -17.499383 78.633183
26.408943 -17.434164 79.306339
26.293877 -19.345076 78.864987
26.413576 -18.375352 79.158401
31.681781 -9.788706 72.963082
30.699818 -9.95399 73.434006
32.272382 -10.663706 73.446472
31.681781 -9.788706 72.963082
37.708298 -18.177219 65.628357
38.197561 -18.023314 64.594746
37.04297 -19.326253 66.102902
37.708298 -18.177219 65.628357
37.139528 -18.336993 66.584285
26.326619 -30.275149 73.861515
25.128635 -30.307032 74.397476
25.505474 -12.862286 78.301922
25.991698 -12.075689 77.39457
25.056924 -11.992956 77.821216
25.777018 -13.750481 78.695015
25.505474 -12.862286 78.301922
26.093066 -14.640877 79.034504
26.756296 -13.835417 78.214764
25.777018 -13.750481 78.695015
26.239472 -15.565985 79.237893
26.093066 -14.640877 79.034504
27.7694 -10.250467 74.910251
26.818083 -10.312516 75.410847
28.396034 -11.137027 75.479626
28.743656 -10.187966 74.42028
27.7694 -10.250467 74.910251
20.899446 -31.89973 77.104294
22.121201 -31.879961 76.543613
20.899446 -31.89973 77.104294
20.644417 -31.132411 76.969494
20.493075 -30.323842 76.971428
20.394209 -29.486934 77.066025
37.612221 -15.292883 68.218971
37.754389 -14.272761 68.712681
36.926273 -16.458429 68.683811
37.448605 -16.311502 67.672054
37.612221 -15.292883 68.218971
23.990066 -30.320983 75.033325
25.128635 -30.307032 74.397476
24.921675 -29.519664 74.300453
23.007644 -31.121899 75.723004
23.990066 -30.320983 75.033325
22.800685 -30.334532 75.62598
22.121201 -31.879961 76.543613
23.007644 -31.121899 75.723004
20.770591 -25.824803 78.547066
22.035111 -24.953896 78.251976
34.867619 -12.077981 72.762218
34.532097 -11.1763 72.608444
34.251478 -13.184216 73.448959
35.077627 -12.996245 72.762257
34.867619 -12.077981 72.762218
33.142836 -12.428266 74.072617
33.631863 -11.379981 73.181995
32.733229 -11.542295 73.805691
26.165757 -20.304709 78.479458
27.277158 -19.400204 78.099716
26.293877 -19.345076 78.864987
25.957032 -21.281046 77.994572
26.165757 -20.304709 78.479458
24.973751 -21.225918 78.759842
23.274276 -24.063381 77.96262
24.526426 -23.170885 77.699971
23.512876 -23.094751 78.537606
22.035111 -24.953896 78.251976
23.048659 -25.030029 77.414341
23.274276 -24.063381 77.96262
37.194374 -26.484411 67.245403
37.71454 -25.487447 66.400429
36.723059 -25.774068 66.902614
37.194374 -26.484411 67.245403
36.707295 -27.454452 68.192932
20.595043 -26.784332 78.074303
20.770591 -25.824803 78.547066
38.17067 -18.982512 64.19648
38.197561 -18.023314 64.594746
38.217814 -19.908358 63.894062
38.17067 -18.982512 64.19648
37.658884 -20.092325 64.844555
38.37039 -20.786817 63.715549
38.217814 -19.908358 63.894062
37.939949 -21.857153 64.492668
38.604311 -21.625799 63.666081
38.37039 -20.786817 63.715549
36.569687 -12.635191 71.200291
35.828325 -12.831318 71.96222
36.620558 -13.602756 70.973369
36.569687 -12.635191 71.200291
36.584368 -14.583531 70.618068
36.620558 -13.602756 70.973369
35.926693 -14.7534 71.493622
36.490196 -15.586992 70.184525
37.184061 -14.436349 69.664272
36.584368 -14.583531 70.618068
34.617729 -27.92993 69.160663
35.620306 -27.714324 68.632972
35.200316 -26.986638 68.27528
33.933718 -28.844265 69.979698
34.617729 -27.92993 69.160663
33.513728 -28.116579 69.622006
33.290819 -29.72849 70.897697
33.933718 -28.844265 69.979698
33.290819 -29.72849 70.897697
32.106836 -29.881706 71.316074
27.463362 -30.235775 73.278599
27.196987 -29.466338 73.081688
26.326619 -30.275149 73.861515
28.66337 -30.177568 72.791866
27.463362 -30.235775 73.278599
29.792977 -30.103033 72.256848
29.463338 -29.352429 71.963753
28.66337 -30.177568 72.791866
30.98845 -30.005195 71.809922
29.792977 -30.103033 72.256848
38.601782 -25.189683 65.813457
38.130466 -24.47934 65.470669
37.71454 -25.487447 66.400429
39.586436 -24.835472 65.326042
38.601782 -25.189683 65.813457
39.915425 -23.828568 64.318481
39.586436 -24.835472 65.326042
3 0 80 82
3 82 81 21
3 80 81 82
3 0 24 22
3 0 21 24
3 1 27 26
3 2 30 28
3 2 83 84
3 2 85 87
3 85 28 86
3 85 86 87
3 4 88 89
3 4 90 92
3 90 33 91
3 90 91 92
3 3 36 34
3 5 39 37
3 5 41 39
3 5 43 41
3 6 46 44
3 6 93 94
3 6 95 97
3 95 44 96
3 95 96 97
3 8 98 100
3 100 99 47
3 98 99 100
3 101 48 102
3 9 51 49
3 11 52 23
3 11 53 52
3 11 55 53
3 8 56 25
3 8 47 56
3 103 57 104
3 14 58 29
3 14 59 58
3 7 60 45
3 15 61 31
3 15 62 61
3 15 63 62
3 105 64 106
3 108 107 64
3 110 109 65
3 16 66 32
3 16 67 66
3 13 111 113
3 111 68 112
3 111 112 113
3 17 69 35
3 17 70 69
3 10 71 50
3 18 72 38
3 18 73 72
3 18 74 73
3 19 75 40
3 19 76 75
3 19 77 76
3 20 78 42
3 20 114 116
3 116 115 78
3 114 115 116
3 12 79 54
3 118 117 6
3 119 6 120
3 21 121 123
3 123 122 8
3 121 122 123
3 125 124 21
3 22 23 9
3 24 23 22
3 24 11 23
3 24 25 11
3 21 25 24
3 21 8 25
3 26 126 127
3 27 128 130
3 130 129 26
3 128 129 130
3 27 131 132
3 28 133 135
3 133 29 134
3 133 134 135
3 30 29 28
3 30 14 29
3 136 31 137
3 138 137 7
3 136 137 138
3 139 31 140
3 141 15 142
3 143 142 31
3 141 142 143
3 145 144 15
3 28 146 147
3 28 148 149
3 150 32 151
3 33 152 154
3 152 32 153
3 152 153 154
3 33 16 32
3 34 35 13
3 36 35 34
3 36 17 35
3 37 38 10
3 39 38 37
3 39 18 38
3 39 40 18
3 41 40 39
3 41 19 40
3 41 42 19
3 43 42 41
3 43 20 42
3 156 155 12
3 44 45 2
3 46 45 44
3 46 7 45
3 157 46 158
3 159 158 6
3 157 158 159
3 160 46 161
3 162 7 163
3 164 163 46
3 162 163 164
3 166 165 7
3 44 167 168
3 44 169 171
3 169 2 170
3 169 170 171
3 47 172 173
3 175 174 47
3 177 176 8
3 48 178 179
3 48 180 182
3 180 4 181
3 180 181 182
3 49 50 3
3 51 50 49
3 51 10 50
3 23 51 9
3 52 51 23
3 52 10 51
3 52 37 10
3 53 37 52
3 53 5 37
3 53 54 5
3 55 54 53
3 55 12 54
3 25 55 11
3 56 55 25
3 56 12 55
3 56 183 185
3 185 184 12
3 183 184 185
3 47 186 188
3 188 187 56
3 186 187 188
3 47 189 190
3 192 191 0
3 57 193 194
3 57 195 197
3 195 13 196
3 195 196 197
3 29 198 200
3 198 57 199
3 198 199 200
3 58 57 29
3 58 13 57
3 58 34 13
3 59 34 58
3 59 3 34
3 45 30 2
3 60 30 45
3 60 14 30
3 31 60 7
3 61 60 31
3 61 14 60
3 61 59 14
3 62 59 61
3 62 3 59
3 62 49 3
3 63 49 62
3 63 9 49
3 201 63 202
3 203 202 15
3 201 202 203
3 64 204 206
3 204 63 205
3 204 205 206
3 64 9 63
3 64 22 9
3 207 22 208
3 209 208 64
3 207 208 209
3 210 0 211
3 212 211 22
3 210 211 212
3 65 213 215
3 215 214 1
3 213 214 215
3 217 216 65
3 219 218 0
3 32 220 221
3 66 222 224
3 224 223 32
3 222 223 224
3 66 225 226
3 66 227 229
3 227 26 228
3 227 228 229
3 67 26 66
3 67 1 26
3 68 230 231
3 68 232 233
3 35 68 13
3 69 68 35
3 69 234 236
3 236 235 68
3 234 235 236
3 69 237 239
3 237 48 238
3 237 238 239
3 70 48 69
3 70 4 48
3 50 36 3
3 71 36 50
3 71 17 36
3 38 71 10
3 72 71 38
3 72 17 71
3 72 70 17
3 73 70 72
3 73 4 70
3 73 33 4
3 74 33 73
3 74 16 33
3 40 74 18
3 75 74 40
3 75 16 74
3 75 67 16
3 76 67 75
3 76 1 67
3 76 65 1
3 77 65 76
3 77 240 242
3 242 241 65
3 240 241 242
3 42 77 19
3 78 77 42
3 78 243 245
3 245 244 77
3 243 244 245
3 78 246 247
3 249 248 78
3 54 43 5
3 79 43 54
3 79 20 43
3 250 79 251
3 252 251 12
3 250 251 252
3 253 79 254
3 255 20 256
3 257 256 79
3 255 256 257
3 259 258 20
3 260 27 261
3 262 261 1
3 260 261 262
3 263 27 264
3 266 265 27
