ply
format ascii 1.0
element vertex 224
property float x
property float y
property float z
element face 210
property list uchar int vertex_index
end_header
-9.238657 -79.194824 -4.195185
-10.192057 -68.211891 -1.730318
-12.717447 -80.313629 1.102376
-7.773224 -85.735275 -12.029026
-10.937693 -73.606667 -3.327477
-10.161718 -66.695679 -4.656778
-9.676271 -71.988258 -6.017265
-7.67094 -77.496826 -6.786545
-11.805273 -74.602173 -0.507802
-11.360451 -80.205429 -1.616863
-11.184721 -85.894073 0.401966
-8.634447 -85.854462 -2.186581
-6.265274 -84.812012 -4.788145
-5.538982 -83.069984 -7.575583
-7.211342 -80.691277 -10.464201
-10.343712 -76.389252 -3.834414
-10.287394 -72.867233 -4.681444
-9.478024 -75.627609 -5.138252
-8.782232 -74.724205 -6.444357
-8.298828 -78.416031 -5.478315
-12.375004 -77.582596 0.249649
-11.931114 -77.382721 -1.153193
-12.198822 -80.377754 -0.278955
-9.655745 -88.681824 0.193423
-9.982601 -86.019516 -0.903833
-8.274466 -88.815475 -1.126863
-5.653818 -88.232971 -3.803995
-4.810621 -87.606384 -5.210869
-5.625217 -84.01683 -6.155489
-4.500536 -86.800018 -6.677965
-5.780022 -84.654037 -9.702944
-7.341202 -83.276169 -11.166941
-10.898516 -70.871796 -2.630997
-10.237005 -67.508362 -3.214449
-10.569216 -70.153831 -4.049448
-10.178032 -69.306732 -5.435066
-7.487898 -76.454964 -8.127377
-9.958176 -68.808228 -0.200268
-10.969183 -71.90097 0.334237
-11.056395 -71.453049 -1.170298
-11.48317 -74.188019 -1.939278
-11.21357 -76.981949 -2.512024
-10.319681 -79.80262 -2.916212
-12.257557 -83.094368 0.685246
-11.355379 -83.201004 -0.646494
-10.201727 -83.036636 -1.938755
-8.956104 -82.625443 -3.208572
-6.873495 -88.650742 -2.450186
-7.328424 -85.436951 -3.471916
-7.808277 -82.005859 -4.482141
-6.947771 -81.217026 -5.785442
-6.532743 -80.286407 -7.133081
-6.666355 -79.222504 -8.519711
-4.817133 -85.820511 -8.188753
-6.070066 -81.968201 -9.025955
-10.154194 -83.969421 -13.346045
-12.546226 -78.948113 0.676013
-12.426821 -77.588524 0.969804
-12.598043 -78.954041 1.396168
-9.741159 -66.580558 -1.952811
-9.533701 -66.930496 -1.180297
-8.761954 -90.063202 0.08635
-9.434643 -89.823326 0.776706
-8.071314 -90.130028 -0.573793
-8.965105 -88.748649 -0.46672
-8.761954 -90.063202 0.08635
-4.207234 -88.993256 -5.522238
-4.467668 -89.309555 -4.755477
-4.052191 -88.590072 -6.255786
-4.655579 -87.203201 -5.944417
-4.207234 -88.993256 -5.522238
-7.557213 -84.505722 -11.597983
-6.584525 -85.26033 -10.86881
-6.800536 -86.489883 -11.299853
-8.587593 -83.700271 -12.27949
-8.371582 -82.470719 -11.848448
-7.557213 -84.505722 -11.597983
-9.76393 -70.166156 -6.409391
-10.01481 -68.825393 -6.118291
-9.927152 -70.647495 -5.726166
-9.462939 -71.489006 -6.68418
-9.76393 -70.166156 -6.409391
-8.037513 -75.598854 -7.276951
-8.593159 -74.212543 -7.105857
-8.226586 -76.110515 -6.615451
-7.579419 -76.975895 -7.456961
-7.945991 -75.077923 -7.947367
-8.037513 -75.598854 -7.276951
-9.731447 -69.058403 0.586841
-9.128964 -67.541489 0.382394
-11.387228 -73.251571 -0.086782
-11.400096 -73.378464 0.649707
-11.818141 -74.729065 0.228688
-9.867776 -65.431686 -4.164364
-9.905419 -65.838028 -3.4432
-10.199362 -67.102021 -3.935614
-11.638818 -85.677612 1.074242
-11.013548 -87.056838 0.968256
-11.721139 -84.494221 0.543606
-12.175237 -84.27776 1.215882
-11.638818 -85.677612 1.074242
-6.001962 -90.03891 -2.63917
-6.659016 -90.118462 -1.929431
-4.628669 -87.164215 -8.601422
-4.254411 -87.683601 -7.802898
-7.298433 -79.353039 -10.191257
-6.727794 -79.991501 -9.472134
-6.640704 -81.329739 -9.745078
-7.937176 -78.665897 -10.876029
-7.298433 -79.353039 -10.191257
-11.490711 -82.961372 -13.928403
-10.635434 -85.043457 -13.798848
-10.993208 -81.891289 -13.554201
-11.490711 -82.961372 -13.928403
-12.103006 -76.219277 0.607414
-12.426821 -77.588524 0.969804
-12.090139 -76.092384 -0.129076
-11.818141 -74.729065 0.228688
-12.103006 -76.219277 0.607414
-9.973402 -64.999096 -4.891855
-10.111829 -66.237358 -5.361846
-10.24906 -88.450714 0.863984
-9.434643 -89.823326 0.776706
-10.420233 -87.287948 0.297694
-11.013548 -87.056838 0.968256
-10.24906 -88.450714 0.863984
-4.889266 -89.622849 -4.05204
-5.392124 -89.830025 -3.316075
-5.23222 -87.919678 -4.507432
-4.889266 -89.622849 -4.05204
-4.467668 -89.309555 -4.755477
-5.803935 -85.949264 -10.136812
-5.110113 -86.580978 -9.358518
-6.560612 -83.965103 -10.434943
-5.803935 -85.949264 -10.136812
-6.584525 -85.26033 -10.86881
-8.118703 -81.244774 -11.503961
-8.053773 -79.952328 -11.152591
-7.276272 -81.983723 -10.815571
-8.118703 -81.244774 -11.503961
-8.371582 -82.470719 -11.848448
-12.788828 -80.173801 1.808693
-12.598043 -78.954041 1.396168
-10.119986 -67.542884 -5.75099
-10.111829 -66.237358 -5.361846
-10.169875 -68.001205 -5.045922
-10.119986 -67.542884 -5.75099
-10.01481 -68.825393 -6.118291
-9.015919 -72.856979 -6.897726
-9.462939 -71.489006 -6.68418
-9.229252 -73.356232 -6.230811
-9.015919 -72.856979 -6.897726
-8.593159 -74.212543 -7.105857
-7.969418 -74.511197 -8.617828
-7.945991 -75.077923 -7.947367
-7.657333 -75.873051 -8.808385
-7.969418 -74.511197 -8.617828
-6.990295 -87.723488 -11.818984
-6.800536 -86.489883 -11.299853
-9.41676 -67.228665 -0.415272
-9.128964 -67.541489 0.382394
-10.075117 -68.510059 -0.965293
-9.533701 -66.930496 -1.180297
-9.41676 -67.228665 -0.415272
-10.789919 -72.067001 1.10553
-11.400096 -73.378464 0.649707
-10.23695 -70.604774 0.854093
-10.789919 -72.067001 1.10553
-10.463679 -70.354599 0.066985
-9.731447 -69.058403 0.586841
-10.23695 -70.604774 0.854093
-9.763632 -66.228794 -2.694877
-9.741159 -66.580558 -1.952811
-10.214531 -67.860127 -2.472384
-9.763632 -66.228794 -2.694877
-9.905419 -65.838028 -3.4432
-9.867776 -65.431686 -4.164364
-9.973402 -64.999096 -4.891855
-12.759211 -81.515548 1.580575
-12.788828 -80.173801 1.808693
-12.830592 -81.375721 2.286892
-12.529267 -82.905918 1.372011
-12.175237 -84.27776 1.215882
-12.487502 -81.703999 0.893811
-12.759211 -81.515548 1.580575
-12.529267 -82.905918 1.372011
-7.359501 -90.200829 -1.267769
-8.071314 -90.130028 -0.573793
-7.573981 -88.733109 -1.788524
-7.359501 -90.200829 -1.267769
-6.659016 -90.118462 -1.929431
-6.263656 -88.441857 -3.12709
-6.001962 -90.03891 -2.63917
-5.392124 -89.830025 -3.316075
-7.246561 -77.256821 -9.004552
-7.657333 -75.873051 -8.808385
-7.077127 -77.838734 -8.323544
-4.096113 -88.173355 -7.047504
-4.052191 -88.590072 -6.255786
-4.658835 -86.310264 -7.433359
-4.096113 -88.173355 -7.047504
-4.254411 -87.683601 -7.802898
-5.298578 -85.237274 -8.945849
-4.628669 -87.164215 -8.601422
-5.110113 -86.580978 -9.358518
-7.025939 -78.618652 -9.219012
-6.36821 -80.595352 -8.772833
-6.727794 -79.991501 -9.472134
-7.246561 -77.256821 -9.004552
-7.025939 -78.618652 -9.219012
-7.937176 -78.665897 -10.876029
-8.053773 -79.952328 -11.152591
-8.127388 -86.892029 -12.523183
-6.990295 -87.723488 -11.818984
-9.317873 -86.009101 -13.181693
-10.635434 -85.043457 -13.798848
-8.963709 -84.852348 -12.687535
-8.127388 -86.892029 -12.523183
-9.317873 -86.009101 -13.181693
-9.778078 -82.817344 -12.938
-8.587593 -83.700271 -12.27949
-8.963709 -84.852348 -12.687535
-9.778078 -82.817344 -12.938
-10.993208 -81.891289 -13.554201
3 0 17 15
3 0 19 17
3 2 56 58
3 56 20 57
3 56 57 58
3 2 22 20
3 1 59 60
3 61 23 62
3 63 25 64
3 65 64 23
3 63 64 65
3 66 27 67
3 68 29 69
3 70 69 27
3 68 69 70
3 3 71 73
3 71 31 72
3 71 72 73
3 3 74 76
3 76 75 31
3 74 75 76
3 4 34 32
3 6 35 16
3 6 77 79
3 79 78 35
3 77 78 79
3 6 80 81
3 7 82 84
3 84 83 18
3 82 83 84
3 7 85 87
3 85 36 86
3 85 86 87
3 88 37 89
3 8 90 92
3 90 38 91
3 90 91 92
3 8 39 38
3 8 40 39
3 9 41 21
3 9 42 41
3 5 93 95
3 95 94 33
3 93 94 95
3 10 96 97
3 10 98 100
3 98 43 99
3 98 99 100
3 10 44 43
3 11 45 24
3 11 46 45
3 101 47 102
3 12 48 26
3 12 49 48
3 12 50 49
3 13 51 28
3 13 52 51
3 103 53 104
3 14 54 30
3 14 105 107
3 107 106 54
3 105 106 107
3 14 108 109
3 110 55 111
3 113 112 55
3 15 16 4
3 17 16 15
3 17 6 16
3 17 18 6
3 19 18 17
3 19 7 18
3 20 114 115
3 20 116 118
3 116 8 117
3 116 117 118
3 20 21 8
3 22 21 20
3 22 9 21
3 120 119 5
3 23 121 122
3 23 123 125
3 123 10 124
3 123 124 125
3 23 24 10
3 25 24 23
3 25 11 24
3 126 26 127
3 27 128 130
3 128 26 129
3 128 129 130
3 27 12 26
3 27 28 12
3 29 28 27
3 29 13 28
3 131 30 132
3 31 133 135
3 133 30 134
3 133 134 135
3 31 14 30
3 31 136 138
3 138 137 14
3 136 137 138
3 140 139 31
3 141 2 142
3 32 33 1
3 34 33 32
3 34 5 33
3 16 34 4
3 35 34 16
3 35 5 34
3 35 143 145
3 145 144 5
3 143 144 145
3 147 146 35
3 18 148 150
3 150 149 6
3 148 149 150
3 152 151 18
3 36 153 154
3 36 155 156
3 157 3 158
3 37 159 160
3 37 161 163
3 161 1 162
3 161 162 163
3 38 164 165
3 38 166 167
3 38 168 170
3 168 37 169
3 168 169 170
3 39 37 38
3 39 1 37
3 39 32 1
3 40 32 39
3 40 4 32
3 21 40 8
3 41 40 21
3 41 4 40
3 41 15 4
3 42 15 41
3 42 0 15
3 33 171 173
3 173 172 1
3 171 172 173
3 175 174 33
3 177 176 5
3 178 2 179
3 178 179 180
3 43 181 182
3 43 183 185
3 183 2 184
3 183 184 185
3 43 22 2
3 44 22 43
3 44 9 22
3 24 44 10
3 45 44 24
3 45 9 44
3 45 42 9
3 46 42 45
3 46 0 42
3 186 25 187
3 47 188 190
3 188 25 189
3 188 189 190
3 47 11 25
3 26 191 193
3 191 47 192
3 191 192 193
3 48 47 26
3 48 11 47
3 48 46 11
3 49 46 48
3 49 0 46
3 49 19 0
3 50 19 49
3 50 7 19
3 28 50 12
3 51 50 28
3 51 7 50
3 51 36 7
3 52 36 51
3 52 194 196
3 196 195 36
3 194 195 196
3 197 29 198
3 53 199 201
3 199 29 200
3 199 200 201
3 53 13 29
3 30 202 204
3 202 53 203
3 202 203 204
3 54 53 30
3 54 13 53
3 54 52 13
3 205 52 206
3 207 206 54
3 205 206 207
3 209 208 52
3 211 210 14
3 212 3 213
3 55 214 215
3 55 216 218
3 216 3 217
3 216 217 218
3 55 219 221
3 221 220 3
3 219 220 221
3 223 222 55
