ply
format ascii 1.0
element vertex 272
property float x
property float y
property float z
element face 269
property list uchar int vertex_index
end_header
55.842518 -62.785625 20.594648
56.566299 -58.423592 11.357579
56.2603 -66.742538 12.187141
53.593819 -74.139938 12.166582
60.274921 -55.048592 17.892046
56.087021 -60.734921 15.848844
56.373589 -62.657223 11.944241
55.316513 -64.813309 16.51963
57.615032 -58.867374 19.442169
57.599243 -56.642025 14.747515
57.485092 -60.067684 7.705623
58.205032 -64.307419 7.845389
58.074192 -68.332703 7.783916
54.661835 -68.711929 16.852802
55.424728 -70.526665 12.208998
56.546593 -72.065514 7.610638
53.976295 -75.784882 7.454169
55.91806 -61.790737 18.19483
55.643333 -62.787544 16.233408
55.376823 -63.796719 18.598675
57.692261 -59.887787 21.864681
56.622826 -60.819843 20.070368
56.641144 -59.779938 17.686172
56.799316 -57.184235 9.244229
57.142559 -57.964615 7.534975
56.798798 -59.292294 9.561369
56.363731 -64.732758 12.101545
57.140629 -63.538498 9.908978
57.22892 -65.604065 9.974154
58.299774 -66.359756 7.835892
57.104836 -67.593338 9.98295
54.563908 -67.723343 19.131395
53.515709 -73.289291 14.577348
54.350494 -71.479904 14.561199
54.620384 -72.333427 12.186087
55.964722 -71.334885 9.893976
54.95575 -73.140739 9.834854
55.337814 -73.897591 7.524544
53.747963 -74.972801 9.787196
60.327347 -56.145931 20.314945
61.918327 -54.326027 19.431036
61.89362 -53.195118 16.997913
56.836075 -57.522449 13.087651
57.614594 -55.459415 12.485532
56.952187 -56.32515 10.893545
56.316582 -59.612148 13.565594
56.403809 -60.543434 11.701454
56.001419 -61.707371 13.930637
55.807076 -63.780903 14.19582
55.633968 -65.805962 14.374484
58.907825 -58.001106 21.132084
58.835808 -56.940773 18.712828
58.785618 -55.815033 16.3424
57.591061 -57.78307 17.06835
56.722237 -58.679268 15.355884
60.476952 -63.269161 3.782195
55.2341 -64.750061 21.017828
57.917248 -58.595699 5.756165
58.535545 -60.696548 5.797466
56.9538 -61.422466 9.775856
57.888435 -62.197403 7.804318
59.101112 -62.824078 5.802101
59.455414 -64.927071 5.770986
59.473381 -66.970123 5.703701
59.084721 -68.937759 5.605398
54.951447 -65.778954 18.906399
55.018532 -66.791718 16.720428
55.382648 -67.763657 14.481806
54.174511 -70.578156 16.938126
54.971115 -69.649857 14.536643
55.967339 -68.67215 12.216534
56.69175 -69.498566 9.949953
57.483932 -70.226364 7.702845
57.135117 -72.704742 5.370707
55.747185 -74.591072 5.264881
54.263489 -76.56192 5.175166
58.736961 -54.638386 14.022362
56.232672 -61.802734 20.332508
56.655079 -61.309536 21.286437
56.264925 -62.292427 21.548577
60.243502 -54.466845 16.704581
61.052851 -53.540108 16.257515
61.084271 -54.121855 17.44498
61.192372 -63.389101 2.767848
60.630325 -64.318693 3.739886
54.845353 -66.239277 20.127251
55.092773 -65.264508 19.962114
54.986679 -65.72483 21.182966
53.844412 -71.495407 16.968971
53.888373 -71.037396 18.175116
57.415859 -71.451878 6.549727
57.884529 -70.532303 6.59583
57.015263 -71.145939 7.656741
56.840855 -72.385128 6.490673
57.710121 -71.771492 5.429761
57.415859 -71.451878 6.549727
58.142603 -54.446981 12.120336
57.616062 -54.861217 11.388369
57.189796 -60.843508 22.183594
57.762276 -60.363882 23.098396
57.157544 -60.353815 20.967524
57.189796 -60.843508 22.183594
56.655079 -61.309536 21.286437
56.970937 -57.574425 8.389602
57.068308 -56.946909 7.397178
56.896687 -56.556719 8.251805
54.426104 -68.174679 20.365481
54.651583 -67.211472 20.239749
54.349907 -68.674607 19.211871
54.426104 -68.174679 20.365481
54.398871 -69.1689 18.072575
54.612871 -68.217636 17.992099
54.349907 -68.674607 19.211871
53.933101 -72.384598 14.569274
53.932403 -71.946281 15.780507
53.515011 -72.850975 15.788582
61.122845 -55.758922 21.1145
60.356467 -56.654719 21.550778
61.918335 -54.848971 20.672545
61.122845 -55.758922 21.1145
61.122837 -55.235979 19.872991
62.740951 -53.970056 20.217862
61.918335 -54.848971 20.672545
62.769699 -53.434484 18.968398
62.740951 -53.970056 20.217862
62.757345 -52.86903 17.751836
62.769699 -53.434484 18.968398
61.905974 -53.760573 18.214475
62.759623 -52.288285 16.527449
62.757345 -52.86903 17.751836
61.860438 -52.596063 15.804534
62.759623 -52.288285 16.527449
61.860438 -52.596063 15.804534
61.052851 -53.540108 16.257515
57.284859 -55.294085 10.592375
57.616062 -54.861217 11.388369
57.28339 -55.892283 11.689538
57.001419 -55.722624 9.843096
57.284859 -55.294085 10.592375
56.924984 -56.152166 9.018439
57.001419 -55.722624 9.843096
56.875751 -56.754693 10.068887
56.896687 -56.556719 8.251805
56.924984 -56.152166 9.018439
53.097099 -73.77195 15.817716
53.515011 -72.850975 15.788582
53.096401 -73.333634 17.028949
53.011822 -74.209267 14.588935
53.097099 -73.77195 15.817716
53.050877 -74.63459 13.383552
53.554764 -73.714615 13.371965
53.011822 -74.209267 14.588935
53.011343 -75.073017 12.163309
53.050877 -74.63459 13.383552
58.353878 -59.437472 22.731479
57.762276 -60.363882 23.098396
58.96166 -58.494131 22.36518
58.353878 -59.437472 22.731479
58.300043 -58.944446 21.498382
59.646706 -57.582306 21.959347
59.700541 -58.075331 23.192443
58.96166 -58.494131 22.36518
59.617586 -57.073518 20.723515
60.356467 -56.654719 21.550778
59.646706 -57.582306 21.959347
60.881456 -62.325422 2.823632
60.158485 -62.205648 3.814388
60.881456 -62.325422 2.823632
61.192372 -63.389101 2.767848
55.55547 -64.238121 22.0298
55.538309 -63.767843 20.806238
55.859679 -63.255903 21.81821
55.229553 -65.204323 22.251149
55.55547 -64.238121 22.0298
54.986679 -65.72483 21.182966
55.229553 -65.204323 22.251149
55.859679 -63.255903 21.81821
56.264925 -62.292427 21.548577
57.27635 -57.274653 6.599693
57.068308 -56.946909 7.397178
57.663695 -57.590195 5.710288
57.27635 -57.274653 6.599693
57.529904 -58.280157 6.64557
58.069971 -57.803524 4.857744
57.663695 -57.590195 5.710288
58.472582 -58.814943 4.829172
58.069971 -57.803524 4.857744
58.78173 -59.865368 4.849823
58.472582 -58.814943 4.829172
58.226396 -59.646124 5.776815
59.187782 -60.919342 4.822023
58.78173 -59.865368 4.849823
59.470565 -61.983107 4.82434
59.187782 -60.919342 4.822023
58.818328 -61.760313 5.799784
59.789032 -63.046619 4.792148
60.158485 -62.205648 3.814388
59.470565 -61.983107 4.82434
60.119557 -65.147648 4.734281
60.630325 -64.318693 3.739886
59.966183 -64.098116 4.776591
60.12854 -66.169174 4.700639
60.119557 -65.147648 4.734281
59.464398 -65.948597 5.737343
60.065799 -67.190254 4.645359
60.12854 -66.169174 4.700639
59.87147 -68.174072 4.596208
60.065799 -67.190254 4.645359
59.279051 -67.953941 5.654549
59.575789 -69.162651 4.530003
59.87147 -68.174072 4.596208
54.757677 -66.751148 19.018897
54.845353 -66.239277 20.127251
54.651583 -67.211472 20.239749
54.155209 -70.102013 18.115237
53.888373 -71.037396 18.175116
54.418173 -69.645043 16.895464
54.398871 -69.1689 18.072575
54.155209 -70.102013 18.115237
54.262502 -71.02903 15.749662
53.844412 -71.495407 16.968971
53.932403 -71.946281 15.780507
58.684923 -69.888001 5.547106
58.284327 -69.582062 6.654122
57.884529 -70.532303 6.59583
59.575789 -69.162651 4.530003
58.684923 -69.888001 5.547106
58.091097 -72.01033 4.341877
57.710121 -71.771492 5.429761
57.416127 -72.970035 4.274036
58.091097 -72.01033 4.341877
56.722161 -73.9132 4.221122
57.416127 -72.970035 4.274036
56.441151 -73.647907 5.317794
55.951546 -74.897293 4.160868
56.722161 -73.9132 4.221122
55.209698 -75.882717 4.116011
55.951546 -74.897293 4.160868
55.005337 -75.576496 5.220023
54.419849 -76.923374 4.062007
55.209698 -75.882717 4.116011
53.088415 -75.489449 10.973616
53.670891 -74.55637 10.976889
53.011343 -75.073017 12.163309
53.103392 -75.934024 9.770675
53.088415 -75.489449 10.973616
53.217557 -76.340065 8.604162
53.862129 -75.378841 8.620683
53.103392 -75.934024 9.770675
53.28793 -76.788353 7.425117
53.217557 -76.340065 8.604162
53.431527 -77.176872 6.285616
54.119892 -76.173401 6.314668
53.28793 -76.788353 7.425117
53.545486 -77.620339 5.133304
53.431527 -77.176872 6.285616
53.701847 -77.981793 4.020145
54.419849 -76.923374 4.062007
53.545486 -77.620339 5.133304
59.49885 -54.850065 15.929759
60.243502 -54.466845 16.704581
59.53027 -55.431812 17.117223
59.474522 -54.261742 14.76974
59.49885 -54.850065 15.929759
58.76129 -55.226709 15.182381
59.428696 -53.657229 13.605526
59.474522 -54.261742 14.76974
58.703786 -54.036467 12.888751
58.175777 -55.048901 13.253947
58.142603 -54.446981 12.120336
59.428696 -53.657229 13.605526
58.703786 -54.036467 12.888751
3 0 19 17
3 0 77 79
3 77 21 78
3 77 78 79
3 0 17 21
3 1 25 23
3 2 28 26
3 2 30 28
3 3 34 32
3 3 36 34
3 3 38 36
3 4 40 39
3 4 41 40
3 4 80 82
3 82 81 41
3 80 81 82
3 1 44 42
3 1 23 44
3 5 47 45
3 7 48 18
3 7 49 48
3 8 50 20
3 8 51 50
3 8 53 51
3 5 54 22
3 5 45 54
3 84 83 55
3 10 57 24
3 10 58 57
3 6 59 46
3 11 60 27
3 11 61 60
3 11 62 61
3 12 63 29
3 12 64 63
3 85 65 86
3 87 86 56
3 85 86 87
3 13 66 31
3 13 67 66
3 88 68 89
3 14 69 33
3 14 70 69
3 14 71 70
3 15 72 35
3 15 90 92
3 92 91 72
3 90 91 92
3 15 93 95
3 93 73 94
3 93 94 95
3 16 74 37
3 16 75 74
3 9 76 52
3 97 96 43
3 17 18 5
3 19 18 17
3 19 7 18
3 98 20 99
3 21 100 102
3 100 20 101
3 100 101 102
3 21 8 20
3 21 22 8
3 17 22 21
3 17 5 22
3 23 103 105
3 103 24 104
3 103 104 105
3 25 24 23
3 25 10 24
3 26 27 6
3 28 27 26
3 28 11 27
3 28 29 11
3 30 29 28
3 30 12 29
3 106 31 107
3 108 31 109
3 110 13 111
3 112 111 31
3 110 111 112
3 32 113 115
3 113 33 114
3 113 114 115
3 34 33 32
3 34 14 33
3 34 35 14
3 36 35 34
3 36 15 35
3 36 37 15
3 38 37 36
3 38 16 37
3 39 116 117
3 40 118 120
3 120 119 39
3 118 119 120
3 40 121 122
3 40 123 124
3 41 125 127
3 127 126 40
3 125 126 127
3 41 128 129
3 41 130 131
3 133 132 41
3 42 43 9
3 44 43 42
3 44 134 136
3 136 135 43
3 134 135 136
3 44 137 138
3 23 139 141
3 141 140 44
3 139 140 141
3 23 142 143
3 45 46 1
3 47 46 45
3 47 6 46
3 18 47 5
3 48 47 18
3 48 6 47
3 48 26 6
3 49 26 48
3 49 2 26
3 144 32 145
3 144 145 146
3 147 32 148
3 149 3 150
3 151 150 32
3 149 150 151
3 153 152 3
3 20 154 155
3 50 156 158
3 158 157 20
3 156 157 158
3 50 159 161
3 159 160 161
3 50 162 164
3 162 39 163
3 162 163 164
3 51 39 50
3 51 4 39
3 51 52 4
3 53 52 51
3 53 9 52
3 22 53 8
3 54 53 22
3 54 9 53
3 54 42 9
3 45 42 54
3 45 1 42
3 55 165 166
3 168 167 55
3 169 56 170
3 171 170 0
3 169 170 171
3 172 56 173
3 175 174 56
3 176 0 177
3 24 178 179
3 57 180 182
3 182 181 24
3 180 181 182
3 57 183 184
3 57 185 186
3 58 187 189
3 189 188 57
3 187 188 189
3 58 190 191
3 46 25 1
3 59 25 46
3 59 10 25
3 27 59 6
3 60 59 27
3 60 10 59
3 60 58 10
3 61 58 60
3 61 192 194
3 194 193 58
3 192 193 194
3 61 195 197
3 195 55 196
3 195 196 197
3 62 55 61
3 62 198 200
3 200 199 55
3 198 199 200
3 29 62 11
3 63 62 29
3 63 201 203
3 203 202 62
3 201 202 203
3 63 204 205
3 64 206 208
3 208 207 63
3 206 207 208
3 64 209 210
3 56 19 0
3 65 19 56
3 65 7 19
3 31 211 213
3 211 65 212
3 211 212 213
3 66 65 31
3 66 7 65
3 66 49 7
3 67 49 66
3 67 2 49
3 68 214 215
3 68 216 218
3 216 13 217
3 216 217 218
3 33 219 221
3 219 68 220
3 219 220 221
3 69 68 33
3 69 13 68
3 69 67 13
3 70 67 69
3 70 2 67
3 70 30 2
3 71 30 70
3 71 12 30
3 35 71 14
3 72 71 35
3 72 12 71
3 72 64 12
3 222 64 223
3 224 223 72
3 222 223 224
3 226 225 64
3 73 227 228
3 73 229 230
3 37 73 15
3 74 73 37
3 74 231 233
3 233 232 73
3 231 232 233
3 74 234 235
3 75 236 238
3 238 237 74
3 236 237 238
3 75 239 240
3 241 38 242
3 243 242 3
3 241 242 243
3 244 38 245
3 246 16 247
3 248 247 38
3 246 247 248
3 249 16 250
3 251 75 252
3 253 252 16
3 251 252 253
3 254 75 255
3 258 257 75
3 256 257 258
3 52 259 261
3 261 260 4
3 259 260 261
3 76 262 264
3 264 263 52
3 262 263 264
3 76 265 266
3 43 76 9
3 267 76 268
3 269 268 43
3 267 268 269
3 271 270 76
