ply
format ascii 1.0
element vertex 228
property float x
property float y
property float z
element face 214
property list uchar int vertex_index
end_header
-0.39283 -103.353973 21.09186
-5.421814 -92.310623 20.632877
-4.6152 -96.307098 30.761295
-8.081692 -89.805389 12.202354
-9.615503 -85.089508 12.309174
-2.775496 -97.619965 20.883301
-3.610941 -95.929871 16.180063
-0.678278 -101.591949 16.15798
0.438597 -106.217926 11.139754
1.142765 -107.666489 15.703194
-4.7651 -94.285706 25.549335
-2.749964 -99.668945 26.049568
-6.548208 -90.780945 16.169851
-1.219172 -105.234726 26.316374
-1.474777 -100.442917 21.023912
-1.654079 -99.509872 18.539019
-0.401772 -102.428024 18.563091
0.420715 -104.59549 16.013857
0.535929 -105.430603 18.462894
-4.624491 -95.318176 28.132982
-3.769922 -96.938477 25.791348
-3.834888 -97.974045 28.427231
-9.0842 -87.415573 12.259197
-9.901754 -87.007721 10.45429
-6.447115 -89.830444 20.579815
-6.993227 -89.033401 18.338438
-5.928801 -91.472702 18.339657
-2.681099 -98.029099 14.009546
-4.295322 -95.310394 14.055351
1.066576 -109.285004 10.538335
-2.416157 -103.383102 28.893291
-8.903231 -85.536621 14.227452
-8.316349 -87.848053 14.176484
-4.145756 -94.906586 20.7384
-4.577662 -94.026993 18.382238
-3.097246 -96.705597 18.459837
-2.064713 -98.696625 16.193884
-1.194145 -100.879425 13.90885
0.035469 -103.850082 13.704202
0.914215 -106.909241 13.346781
1.387564 -110.004578 12.797621
-5.032478 -93.264511 23.041372
-3.874643 -95.895447 23.216656
-2.657841 -98.628067 23.425648
-1.540434 -101.444382 23.612253
-7.616819 -88.374466 16.203342
-7.271097 -90.236542 14.125078
-5.161077 -93.294403 16.163227
-5.88039 -92.717972 14.086064
-4.069624 -98.94191 31.081944
-3.052441 -100.675766 28.707878
-1.855446 -102.448288 26.254719
-0.664846 -104.312927 23.696301
-0.14098 -107.186523 23.590523
0.352377 -106.314728 21.007833
1.074818 -108.468597 18.17173
-4.619846 -95.812637 29.447139
-4.847817 -94.518379 29.291432
-4.843171 -95.01284 30.605588
-8.518225 -89.61203 11.299583
-9.019479 -88.417122 11.328005
-8.582946 -88.610481 12.230776
-7.851086 -90.846458 11.268802
-8.518225 -89.61203 11.299583
-3.072496 -97.763787 13.000543
-2.292797 -99.160447 12.920286
0.993324 -110.445343 9.05757
1.177055 -110.815537 10.139329
-8.574908 -85.797676 15.23751
-8.637853 -84.677139 15.251565
-8.281468 -86.953392 15.212026
-8.60979 -86.692337 14.201968
-8.574908 -85.797676 15.23751
-5.177094 -93.006974 25.454423
-5.024583 -93.511223 26.712265
-4.898789 -93.775109 24.295353
-5.310783 -92.496376 24.200442
-5.177094 -93.006974 25.454423
-9.99232 -84.870728 11.406918
-9.624254 -83.95559 12.321576
-10.318319 -86.770729 9.611168
-9.877791 -87.994629 9.57956
-5.499255 -93.773308 13.085272
-5.087856 -94.014183 14.070708
-4.706721 -95.069519 13.069915
-6.295888 -92.494248 13.116373
-5.499255 -93.773308 13.085272
0.112292 -105.899781 10.121516
-0.392725 -104.393723 10.33187
-0.06642 -104.711869 11.350109
-3.814538 -100.26239 31.214882
-4.268681 -99.364593 32.395915
-3.305947 -101.129318 30.027849
-3.561033 -99.808838 29.894911
-3.814538 -100.26239 31.214882
0.271319 -108.227654 22.14501
-0.089057 -108.59449 23.40571
0.517997 -107.791756 20.853665
0.105699 -106.750625 22.299178
0.271319 -108.227654 22.14501
0.879217 -108.86869 19.435614
0.713597 -107.391662 19.589782
0.517997 -107.791756 20.853665
-4.954278 -94.027458 28.004089
-4.847817 -94.518379 29.291432
-4.694795 -94.801941 26.841158
-5.024583 -93.511223 26.712265
-4.954278 -94.027458 28.004089
-9.428256 -88.213196 10.425551
-9.492977 -87.211647 11.356744
-9.019479 -88.417122 11.328005
-9.877791 -87.994629 9.57956
-9.428256 -88.213196 10.425551
-6.720171 -89.431922 19.459126
-7.044166 -88.245689 19.451685
-6.771109 -88.64421 20.572373
-3.879607 -96.404434 13.023446
-3.488211 -96.669747 14.032449
-3.072496 -97.763787 13.000543
-4.706721 -95.069519 13.069915
-3.879607 -96.404434 13.023446
0.80691 -108.936409 9.486251
0.492921 -107.40287 9.78696
0.752587 -107.751465 10.839044
0.733659 -110.096748 8.005485
0.80691 -108.936409 9.486251
0.993324 -110.445343 9.05757
-2.812692 -103.780654 30.180321
-2.987805 -102.482986 30.120556
-2.23115 -104.7136 28.88957
-2.812692 -103.780654 30.180321
-1.632657 -105.639412 27.601112
-1.817665 -104.308914 27.604833
-2.23115 -104.7136 28.88957
-4.786575 -95.468605 31.909467
-4.843171 -95.01284 30.605588
-9.296181 -84.189529 13.28231
-9.624254 -83.95559 12.321576
-8.940044 -84.413086 14.241449
-8.637853 -84.677139 15.251565
-9.259367 -85.313064 13.268313
-9.296181 -84.189529 13.28231
-8.940044 -84.413086 14.241449
-1.54932 -100.58561 12.869938
-2.292797 -99.160447 12.920286
-1.937622 -99.454262 13.959198
-0.882791 -102.042618 12.734656
-1.54932 -100.58561 12.869938
-0.267984 -103.527946 12.632333
-0.882791 -102.042618 12.734656
-0.579338 -102.364754 13.806526
0.237033 -105.034004 12.421978
-0.06642 -104.711869 11.350109
-0.267984 -103.527946 12.632333
1.337549 -111.175323 11.268973
1.177055 -110.815537 10.139329
1.22707 -109.644791 11.667978
-6.517377 -89.079735 21.716691
-6.771109 -88.64421 20.572373
-6.212794 -90.286575 21.751425
-6.517377 -89.079735 21.716691
-5.700143 -91.526665 21.777956
-5.934465 -91.070534 20.606346
-6.212794 -90.286575 21.751425
-5.505475 -92.003608 22.982203
-5.310783 -92.496376 24.200442
-5.227146 -92.787567 21.837125
-5.700143 -91.526665 21.777956
-5.505475 -92.003608 22.982203
-10.135445 -85.829834 10.479477
-9.99232 -84.870728 11.406918
-9.758629 -86.048614 11.381732
-10.55201 -85.592842 9.636355
-10.135445 -85.829834 10.479477
-10.318319 -86.770729 9.611168
-7.319586 -87.864578 18.350076
-7.370525 -87.076866 19.463323
-7.044166 -88.245689 19.451685
-7.631382 -87.535111 17.282528
-7.319586 -87.864578 18.350076
-7.305023 -88.703934 17.27089
-7.931703 -87.216599 16.225455
-7.631382 -87.535111 17.282528
-7.966584 -88.111259 15.189913
-8.281468 -86.953392 15.212026
-7.931703 -87.216599 16.225455
-6.991242 -91.253533 13.13588
-6.575743 -91.477257 14.105571
-6.295888 -92.494248 13.116373
-7.396539 -91.037956 12.174518
-7.676395 -90.020966 13.163716
-6.991242 -91.253533 13.13588
-7.851086 -90.846458 11.268802
-7.396539 -91.037956 12.174518
0.112292 -105.899781 10.121516
0.492921 -107.40287 9.78696
-4.67691 -96.75531 32.079696
-4.786575 -95.468605 31.909467
-4.848285 -95.916817 33.227869
-4.404122 -98.072716 32.240021
-4.268681 -99.364593 32.395915
-4.342412 -97.624504 30.921619
-4.67691 -96.75531 32.079696
-4.404122 -98.072716 32.240021
-2.734299 -102.029434 28.800584
-3.305947 -101.129318 30.027849
-2.987805 -102.482986 30.120556
-1.079779 -106.603791 26.229634
-1.632657 -105.639412 27.601112
-0.540683 -107.579689 24.866709
-0.089057 -108.59449 23.40571
-0.680076 -106.210624 24.953449
-1.079779 -106.603791 26.229634
-0.540683 -107.579689 24.866709
1.123461 -109.971764 17.906101
0.879217 -108.86869 19.435614
1.256735 -109.606567 16.67603
1.123461 -109.971764 17.906101
1.290709 -109.205513 15.441762
1.108792 -108.067543 16.937462
1.256735 -109.606567 16.67603
1.413108 -110.374557 13.988975
1.265165 -108.835533 14.250407
1.290709 -109.205513 15.441762
1.41172 -111.535736 12.416549
1.413108 -110.374557 13.988975
1.337549 -111.175323 11.268973
1.41172 -111.535736 12.416549
3 0 16 14
3 0 18 16
3 2 56 58
3 56 19 57
3 56 57 58
3 2 21 19
3 3 59 61
3 61 60 22
3 59 60 61
3 3 62 63
3 1 26 24
3 65 64 27
3 67 66 29
3 68 31 69
3 70 32 71
3 72 71 31
3 70 71 72
3 5 35 33
3 7 36 15
3 7 37 36
3 7 38 37
3 9 39 17
3 9 40 39
3 10 73 74
3 10 75 77
3 75 41 76
3 75 76 77
3 10 42 41
3 11 43 20
3 11 44 43
3 4 78 79
3 81 80 23
3 12 45 25
3 12 46 45
3 6 47 34
3 82 48 83
3 84 83 28
3 82 83 84
3 86 85 48
3 8 87 89
3 87 88 89
3 90 49 91
3 92 50 93
3 94 93 49
3 92 93 94
3 13 51 30
3 13 52 51
3 95 53 96
3 97 54 98
3 99 98 53
3 97 98 99
3 100 55 101
3 102 101 54
3 100 101 102
3 14 15 5
3 16 15 14
3 16 7 15
3 16 17 7
3 18 17 16
3 18 9 17
3 19 103 104
3 19 105 107
3 105 10 106
3 105 106 107
3 19 20 10
3 21 20 19
3 21 11 20
3 22 23 4
3 108 23 109
3 110 109 22
3 108 109 110
3 112 111 23
3 24 113 115
3 113 25 114
3 113 114 115
3 26 25 24
3 26 12 25
3 27 28 6
3 116 28 117
3 118 117 27
3 116 117 118
3 120 119 28
3 29 121 123
3 123 122 8
3 121 122 123
3 126 125 29
3 124 125 126
3 127 30 128
3 129 30 130
3 131 13 132
3 133 132 30
3 131 132 133
3 134 2 135
3 136 4 137
3 31 138 139
3 31 140 142
3 140 4 141
3 140 141 142
3 31 22 4
3 32 22 31
3 32 3 22
3 33 34 1
3 35 34 33
3 35 6 34
3 15 35 5
3 36 35 15
3 36 6 35
3 36 27 6
3 37 27 36
3 37 143 145
3 145 144 27
3 143 144 145
3 37 146 147
3 38 148 150
3 150 149 37
3 148 149 150
3 38 151 153
3 151 8 152
3 151 152 153
3 17 38 7
3 39 38 17
3 39 8 38
3 39 29 8
3 40 29 39
3 40 154 156
3 156 155 29
3 154 155 156
3 157 24 158
3 159 24 160
3 161 1 162
3 163 162 24
3 161 162 163
3 41 164 165
3 41 166 168
3 166 1 167
3 166 167 168
3 41 33 1
3 42 33 41
3 42 5 33
3 20 42 10
3 43 42 20
3 43 5 42
3 43 14 5
3 44 14 43
3 44 0 14
3 23 169 171
3 171 170 4
3 169 170 171
3 174 173 23
3 172 173 174
3 25 175 177
3 175 176 177
3 45 178 180
3 180 179 25
3 178 179 180
3 45 181 182
3 45 183 185
3 183 32 184
3 183 184 185
3 46 32 45
3 46 3 32
3 34 26 1
3 47 26 34
3 47 12 26
3 28 47 6
3 48 47 28
3 48 12 47
3 48 46 12
3 186 46 187
3 188 187 48
3 186 187 188
3 189 3 190
3 191 190 46
3 189 190 191
3 193 192 3
3 195 194 8
3 196 2 197
3 196 197 198
3 49 199 200
3 49 201 203
3 201 2 202
3 201 202 203
3 49 21 2
3 50 21 49
3 50 11 21
3 30 204 206
3 204 50 205
3 204 205 206
3 51 50 30
3 51 11 50
3 51 44 11
3 52 44 51
3 52 0 44
3 207 13 208
3 53 209 210
3 53 211 213
3 211 13 212
3 211 212 213
3 53 52 13
3 54 52 53
3 54 0 52
3 54 18 0
3 55 18 54
3 55 9 18
3 214 55 215
3 216 55 217
3 218 9 219
3 220 219 55
3 218 219 220
3 221 40 222
3 223 222 9
3 221 222 223
3 224 40 225
3 227 226 40
