ply
format ascii 1.0
element vertex 211
property float x
property float y
property float z
element face 208
property list uchar int vertex_index
end_header
-45.80938 15.642223 38.344353
-42.506912 26.667946 33.507336
-42.705303 26.018341 43.736404
-46.306297 16.36227 33.39801
-44.041252 21.385822 31.13028
-43.366798 20.822346 35.900383
-42.642513 25.308468 49.149857
-42.222 31.452305 46.164562
-42.60865 32.113388 40.830444
-43.528549 27.045326 28.988926
-45.876213 15.14904 43.508587
-43.828434 20.087105 46.356758
-43.487549 20.452229 41.017708
-42.456795 26.347042 38.4487
-42.655754 32.466141 35.731232
-45.963043 15.970592 35.839409
-44.569653 18.420578 34.637428
-44.403778 18.129902 37.11277
-40.935223 33.116386 49.713032
-41.788723 30.869267 48.830517
-41.659027 33.896961 47.130516
-42.209023 34.449898 44.496407
-43.009186 23.913776 32.329765
-43.571995 24.166885 30.055792
-42.861206 26.854801 31.195305
-43.070202 29.833397 30.036579
-42.625893 29.697117 32.286942
-42.742851 25.744274 46.449287
-43.196487 22.716137 47.784409
-43.122982 23.009895 45.081306
-43.667656 20.294842 43.674423
-42.966537 23.197048 42.388062
-42.796932 23.343662 39.74498
-42.586319 26.199898 41.058758
-42.817841 35.110741 39.264626
-42.640793 32.308594 38.239441
-42.945824 35.316662 36.731476
-45.615448 19.156197 29.915371
-44.961792 18.768959 32.240192
-43.573528 21.081505 33.470032
-42.737278 23.687149 34.703903
-42.352024 28.392323 47.720692
-42.51955 28.802265 45.013863
-42.549988 29.068642 42.320366
-42.485737 31.845783 43.482742
-42.588127 34.835632 41.861771
-44.80685 21.715889 28.873226
-47.437584 13.03849 42.135895
-45.799194 15.376507 40.906685
-44.686279 17.528641 44.919975
-44.528351 17.714497 42.273582
-44.411263 17.900677 39.662632
-43.362015 20.616367 38.419674
-42.692841 23.49844 37.178299
-42.400375 26.497818 35.927216
-42.496456 29.254459 39.679001
-42.431122 29.407047 37.115845
-42.44239 29.552551 34.648178
-42.746162 32.600296 33.320358
-45.886212 15.806407 37.091881
-46.815933 14.854321 36.452495
-46.739102 14.690136 37.704967
-41.197457 34.99452 47.493778
-41.297125 33.506673 48.421774
-40.835555 34.604232 48.785036
-41.622509 35.361591 46.22183
-41.197457 34.99452 47.493778
-43.025925 36.673975 37.176828
-42.881833 35.213701 37.998051
-42.961934 36.571015 38.443404
-43.137321 36.78162 35.939791
-43.025925 36.673975 37.176828
-47.403208 15.514263 32.786163
-48.247203 14.422489 33.385582
-47.150293 15.270496 33.997429
-46.588546 16.581091 32.20726
-47.403208 15.514263 32.786163
-45.634045 17.565614 32.819101
-45.916294 17.784435 31.628351
-46.588546 16.581091 32.20726
-42.426834 36.096883 42.296925
-42.398575 34.642765 43.179089
-42.237282 35.904016 43.614243
-42.677578 36.290031 41.009703
-42.426834 36.096883 42.296925
-43.99496 25.736704 28.430094
-44.016683 24.297483 28.963527
-43.550272 25.606105 29.522359
-44.034424 27.134779 27.93145
-43.99496 25.736704 28.430094
-43.684126 28.497245 28.440554
-44.19 28.586699 27.383077
-44.034424 27.134779 27.93145
-43.306607 31.308695 29.428168
-43.041052 31.271387 30.526205
-46.656898 14.093765 42.822241
-47.439768 12.892294 43.420372
-46.659082 13.94757 44.106718
-42.884918 23.776224 49.795036
-42.501446 24.976408 50.461748
-43.864704 19.922741 47.686159
-43.54873 21.237257 48.399985
-43.512461 21.401621 47.070583
-44.321854 18.683836 46.958883
-43.864704 19.922741 47.686159
-44.257357 18.807873 45.638367
-44.750776 17.404604 46.240492
-44.321854 18.683836 46.958883
-46.978666 15.074657 35.218129
-46.815933 14.854321 36.452495
-46.13467 16.166431 34.61871
-47.150293 15.270496 33.997429
-46.978666 15.074657 35.218129
-41.361973 31.992826 49.271774
-41.480276 30.452908 50.125483
-41.053526 31.576467 50.56674
-41.897507 35.638059 44.904776
-41.934025 34.173429 45.813462
-41.622509 35.361591 46.22183
-42.237282 35.904016 43.614243
-41.897507 35.638059 44.904776
-42.818897 31.203247 31.651387
-43.041052 31.271387 30.526205
-42.848047 29.765257 31.16176
-45.926929 15.030435 44.813261
-46.659082 13.94757 44.106718
-42.996555 35.395781 35.505916
-42.85152 33.97052 35.005795
-42.800789 33.891402 36.231354
-42.996555 35.395781 35.505916
-43.137321 36.78162 35.939791
-46.243122 17.978054 30.465941
-46.642475 18.206575 29.298792
-45.28862 18.962578 31.077782
-46.243122 17.978054 30.465941
-45.916294 17.784435 31.628351
-42.32675 26.540129 49.768099
-42.501446 24.976408 50.461748
-41.899855 29.320529 49.608429
-41.480276 30.452908 50.125483
-42.181505 28.082057 49.053517
-41.899855 29.320529 49.608429
-42.070374 29.630795 48.275605
-42.497269 26.850396 48.435274
-42.32675 26.540129 49.768099
-42.181505 28.082057 49.053517
-42.792435 36.427586 39.71113
-42.702984 34.973186 40.563198
-42.677578 36.290031 41.009703
-42.961934 36.571015 38.443404
-42.792435 36.427586 39.71113
-46.652948 14.500883 38.963074
-46.739102 14.690136 37.704967
-40.48923 32.587764 50.947209
-41.053526 31.576467 50.56674
-40.334639 34.109405 50.011467
-40.48923 32.587764 50.947209
-40.835555 34.604232 48.785036
-40.334639 34.109405 50.011467
-46.078693 19.356644 28.781284
-47.105721 18.407023 28.164704
-46.642475 18.206575 29.298792
-45.674394 20.63649 28.260211
-46.078693 19.356644 28.781284
-45.211149 20.436043 29.394298
-45.341815 21.882527 27.776245
-45.674394 20.63649 28.260211
-44.634111 23.071986 28.372244
-44.189422 22.941387 29.464509
-44.016683 24.297483 28.963527
-45.341815 21.882527 27.776245
-44.634111 23.071986 28.372244
-43.454953 29.891281 28.96438
-43.684126 28.497245 28.440554
-43.299375 28.439362 29.512752
-43.454953 29.891281 28.96438
-43.306607 31.308695 29.428168
-48.316168 11.944795 42.726807
-48.318352 11.798599 44.011284
-47.439768 12.892294 43.420372
-48.386022 12.143756 41.464842
-49.264606 11.050061 42.055754
-48.316168 11.944795 42.726807
-47.46705 13.199016 40.858845
-48.386022 12.143756 41.464842
-46.647855 14.368025 40.24424
-47.46705 13.199016 40.858845
-46.618389 14.207498 41.52129
-45.804287 15.509365 39.625519
-46.652948 14.500883 38.963074
-46.647855 14.368025 40.24424
-43.161905 22.480058 49.112313
-42.884918 23.776224 49.795036
-42.9195 24.012303 48.467133
-43.161905 22.480058 49.112313
-43.54873 21.237257 48.399985
-45.331963 16.220236 45.518955
-44.750776 17.404604 46.240492
-45.281246 16.33884 44.214281
-45.926929 15.030435 44.813261
-45.331963 16.220236 45.518955
-42.879032 32.654837 32.168094
-42.818897 31.203247 31.651387
-42.686027 31.148706 32.80365
-42.896724 34.037598 33.800358
-42.700958 32.533219 34.525795
-42.85152 33.97052 35.005795
-42.982215 34.094743 32.621859
-42.896724 34.037598 33.800358
-42.879032 32.654837 32.168094
-42.982215 34.094743 32.621859
3 0 59 61
3 59 15 60
3 59 60 61
3 0 17 15
3 62 20 63
3 64 63 18
3 62 63 64
3 66 65 20
3 1 24 22
3 1 26 24
3 2 29 27
3 2 31 29
3 2 33 31
3 67 36 68
3 69 68 34
3 67 68 69
3 71 70 36
3 3 72 74
3 72 73 74
3 3 75 76
3 3 77 79
3 77 38 78
3 77 78 79
3 5 39 16
3 5 40 39
3 7 41 19
3 7 42 41
3 7 44 42
3 80 45 81
3 82 81 21
3 80 81 82
3 84 83 45
3 4 46 37
3 9 85 87
3 87 86 23
3 85 86 87
3 9 88 89
3 9 90 92
3 90 91 92
3 94 93 25
3 10 95 97
3 95 47 96
3 95 96 97
3 10 48 47
3 6 98 99
3 11 100 102
3 102 101 28
3 100 101 102
3 11 103 104
3 11 105 107
3 105 49 106
3 105 106 107
3 12 50 30
3 12 51 50
3 12 52 51
3 13 53 32
3 13 54 53
3 8 55 43
3 14 56 35
3 14 57 56
3 14 58 57
3 15 108 109
3 15 110 112
3 110 3 111
3 110 111 112
3 15 16 3
3 17 16 15
3 17 5 16
3 18 113 115
3 113 19 114
3 113 114 115
3 20 19 18
3 20 7 19
3 20 21 7
3 116 21 117
3 118 117 20
3 116 117 118
3 120 119 21
3 22 23 4
3 24 23 22
3 24 9 23
3 24 25 9
3 26 25 24
3 26 121 123
3 123 122 25
3 121 122 123
3 124 10 125
3 27 28 6
3 29 28 27
3 29 11 28
3 29 30 11
3 31 30 29
3 31 12 30
3 31 32 12
3 33 32 31
3 33 13 32
3 34 35 8
3 36 35 34
3 36 14 35
3 36 126 128
3 128 127 14
3 126 127 128
3 130 129 36
3 131 37 132
3 38 133 135
3 133 37 134
3 133 134 135
3 38 4 37
3 16 38 3
3 39 38 16
3 39 4 38
3 39 22 4
3 40 22 39
3 40 1 22
3 136 6 137
3 19 138 139
3 41 140 142
3 142 141 19
3 140 141 142
3 41 143 145
3 143 6 144
3 143 144 145
3 41 27 6
3 42 27 41
3 42 2 27
3 42 43 2
3 44 43 42
3 44 8 43
3 21 44 7
3 45 44 21
3 45 8 44
3 45 34 8
3 146 34 147
3 148 147 45
3 146 147 148
3 150 149 34
3 151 0 152
3 153 18 154
3 155 18 156
3 158 157 18
3 37 159 161
3 159 160 161
3 46 162 164
3 164 163 37
3 162 163 164
3 46 165 166
3 23 46 4
3 167 46 168
3 169 168 23
3 167 168 169
3 171 170 46
3 25 172 174
3 174 173 9
3 172 173 174
3 176 175 25
3 47 177 179
3 177 178 179
3 47 180 182
3 180 181 182
3 47 183 184
3 48 185 187
3 187 186 47
3 185 186 187
3 48 188 190
3 188 0 189
3 188 189 190
3 28 191 193
3 193 192 6
3 191 192 193
3 195 194 28
3 49 196 197
3 49 198 200
3 198 10 199
3 198 199 200
3 30 49 11
3 50 49 30
3 50 10 49
3 50 48 10
3 51 48 50
3 51 0 48
3 51 17 0
3 52 17 51
3 52 5 17
3 32 52 12
3 53 52 32
3 53 5 52
3 53 40 5
3 54 40 53
3 54 1 40
3 43 33 2
3 55 33 43
3 55 13 33
3 35 55 8
3 56 55 35
3 56 13 55
3 56 54 13
3 57 54 56
3 57 1 54
3 57 26 1
3 58 26 57
3 58 201 203
3 203 202 26
3 201 202 203
3 204 58 205
3 206 205 14
3 204 205 206
3 207 58 208
3 210 209 58
