ply
format ascii 1.0
element vertex 257
property float x
property float y
property float z
element face 246
property list uchar int vertex_index
end_header
-30.56118 -4.485447 -52.852089
-29.00728 5.151871 -54.442215
-26.76263 -5.598968 -47.673157
-26.834 -14.707661 -45.376041
-27.301029 -1.538025 -47.074688
-26.379051 -15.631702 -42.871262
-32.033951 -9.864916 -50.117393
-29.481354 0.562963 -54.424255
-28.657169 7.135633 -47.76437
-27.80097 3.901894 -50.332184
-27.433275 -0.02247 -51.383156
-27.605375 -4.486532 -50.919342
-27.015734 -11.288547 -43.628368
-26.524958 -9.998066 -47.006126
-28.33201 -9.354585 -49.227516
-29.599415 -14.558723 -46.689434
-31.26162 -7.135673 -51.598984
-29.1544 2.930588 -54.643547
-29.410162 9.101324 -41.142296
-28.592781 6.231283 -44.903111
-28.164932 4.682693 -46.504719
-28.175949 5.610525 -49.223091
-27.768871 3.013121 -47.814533
-27.009157 -3.523916 -47.547676
-27.161047 -0.722788 -49.36792
-26.981916 -2.777861 -49.583549
-27.450937 -2.197237 -51.327133
-26.906708 -4.942378 -49.44735
-26.291742 -15.099251 -44.262024
-26.33606 -12.820488 -44.961838
-26.597473 -12.314793 -46.293045
-27.13809 -9.557921 -48.275146
-27.476364 -11.994846 -47.326321
-28.90274 -11.917515 -48.040443
-27.974522 -14.512302 -46.189766
-29.065975 7.180407 -53.811241
-27.087296 -6.350342 -45.630344
-26.620432 -18.398113 -40.742607
-26.212324 -17.869963 -42.185314
-26.416798 -17.445776 -43.374496
-27.250198 -17.177774 -44.284927
-32.846111 -12.672255 -48.477467
-29.959309 -1.916124 -53.812462
-29.020571 7.688334 -43.085972
-29.211161 8.487459 -46.01429
-28.858702 8.109322 -50.415977
-28.434656 6.499628 -51.682663
-28.183363 4.663523 -52.559296
-27.428381 1.210726 -48.778114
-27.550816 2.017929 -51.055794
-28.109594 2.631313 -53.024437
-28.205223 0.437967 -53.079124
-28.45656 -1.885111 -52.745232
-28.849682 -4.314667 -52.061165
-26.777761 -8.447954 -45.68206
-26.664787 -13.440847 -43.361515
-26.512529 -10.604302 -45.446762
-26.590534 -7.758487 -47.479622
-26.952923 -7.205226 -48.996635
-27.898613 -6.875527 -50.203316
-29.37196 -6.836364 -51.076019
-30.009853 -9.442724 -49.844398
-30.744875 -12.129257 -48.423588
-31.549685 -14.889148 -46.873138
-28.62752 -17.106941 -44.902119
-30.39859 -17.26963 -45.222782
-32.386112 -17.706635 -45.256191
-31.593292 -4.760472 -53.066349
-31.215469 -3.41071 -53.682125
-30.9114 -5.81056 -52.225537
-31.943512 -6.085585 -52.439796
-31.593292 -4.760472 -53.066349
-29.650222 5.204051 -55.193283
-29.56885 6.331917 -55.00095
-29.08084 4.04123 -54.542881
-29.723782 4.093409 -55.293949
-29.650222 5.204051 -55.193283
-29.118024 9.034461 -39.745854
-29.566612 9.81642 -40.152279
-28.046232 3.422581 -45.792088
-28.194534 4.2884 -45.064434
-27.848202 2.587795 -46.446995
-27.966901 3.847907 -47.159626
-28.046232 3.422581 -45.792088
-29.205308 8.072979 -53.286774
-29.637661 8.357731 -54.274059
-27.393449 -6.713137 -44.495267
-27.24375 -5.330463 -45.445312
-26.811295 -19.746411 -39.66587
-27.064354 -18.680046 -39.910911
-26.212321 -19.019317 -41.753915
-26.267737 -19.231971 -41.127956
-26.314558 -18.807223 -42.348506
-26.314561 -17.657869 -42.779905
-26.212321 -19.019317 -41.753915
-26.576398 -18.657098 -42.846882
-26.314558 -18.807223 -42.348506
-33.146521 -10.261007 -50.085369
-32.734213 -8.836037 -50.942913
-32.440031 -11.268586 -49.29743
-33.5526 -11.664677 -49.265406
-33.146521 -10.261007 -50.085369
-30.34245 0.427111 -54.910797
-30.07291 1.697752 -55.154949
-29.720332 -0.676581 -54.118358
-30.581428 -0.812433 -54.6049
-30.34245 0.427111 -54.910797
-28.753032 6.632967 -42.520308
-28.856415 7.470377 -41.624842
-29.04409 8.306508 -48.283034
-29.321086 8.982421 -47.407994
-28.934165 7.811546 -46.88933
-28.757936 7.622478 -49.090173
-29.144857 8.793353 -49.608837
-29.04409 8.306508 -48.283034
-27.364705 -0.16365 -47.926401
-27.521117 0.783494 -47.511921
-27.457441 -0.590881 -46.660208
-27.196554 -10.228603 -43.633389
-27.430313 -11.61909 -42.60839
-26.896748 -9.86825 -44.655214
-27.077567 -8.808306 -44.660235
-27.196554 -10.228603 -43.633389
-26.521919 -14.536275 -43.116388
-26.840098 -14.837989 -42.297959
-26.69723 -15.933417 -42.052832
-28.237305 -18.417449 -43.974188
-27.938859 -17.142357 -44.593523
-27.548644 -18.452866 -43.665592
-30.831171 -18.652138 -44.457998
-29.906859 -18.521887 -44.361963
-31.824932 -18.87064 -44.474702
-31.392351 -17.488132 -45.239486
-30.831171 -18.652138 -44.457998
-32.796495 -19.127672 -44.448747
-31.824932 -18.87064 -44.474702
-32.348047 -7.471415 -51.683709
-31.943512 -6.085585 -52.439796
-31.647786 -8.500294 -50.858188
-32.734213 -8.836037 -50.942913
-32.348047 -7.471415 -51.683709
-29.909433 2.881565 -55.264595
-29.723782 4.093409 -55.293949
-29.317877 1.746776 -54.533901
-30.07291 1.697752 -55.154949
-29.909433 2.881565 -55.264595
-29.872451 9.96609 -41.544339
-29.566612 9.81642 -40.152279
-29.599875 9.400613 -42.594893
-30.062165 10.265379 -42.996935
-29.872451 9.96609 -41.544339
-28.408459 5.062696 -44.26363
-28.539137 5.904442 -43.428877
-28.378856 5.456988 -45.703915
-28.408459 5.062696 -44.26363
-28.194534 4.2884 -45.064434
-27.230074 -12.688944 -42.577041
-27.430313 -11.61909 -42.60839
-29.598198 7.346185 -54.685463
-30.169884 8.523509 -55.148281
-29.637661 8.357731 -54.274059
-29.036628 6.166139 -54.126728
-29.56885 6.331917 -55.00095
-29.598198 7.346185 -54.685463
-27.491954 -1.931974 -45.815748
-27.457441 -0.590881 -46.660208
-27.350617 -2.924304 -46.167485
-27.491954 -1.931974 -45.815748
-27.20468 -3.91725 -46.403979
-27.155093 -2.530971 -47.311182
-27.350617 -2.924304 -46.167485
-27.048226 -4.937129 -46.58901
-27.20468 -3.91725 -46.403979
-27.24375 -5.330463 -45.445312
-26.81792 -17.316623 -40.988505
-27.064354 -18.680046 -39.910911
-26.499741 -17.014907 -41.806934
-26.69723 -15.933417 -42.052832
-26.81792 -17.316623 -40.988505
-26.471792 -19.496046 -40.406603
-26.811295 -19.746411 -39.66587
-26.416378 -18.134038 -41.46396
-26.471792 -19.496046 -40.406603
-26.267737 -19.231971 -41.127956
-26.993098 -18.523097 -43.302097
-26.833498 -17.311775 -43.829712
-26.576398 -18.657098 -42.846882
-27.548644 -18.452866 -43.665592
-26.993098 -18.523097 -43.302097
-33.951079 -13.130513 -48.349114
-33.5526 -11.664677 -49.265406
-33.251903 -14.110938 -47.615524
-33.951079 -13.130513 -48.349114
-30.914534 -2.126049 -54.162312
-30.581428 -0.812433 -54.6049
-30.260244 -3.200785 -53.332275
-31.215469 -3.41071 -53.682125
-30.914534 -2.126049 -54.162312
-29.05121 8.176872 -40.653004
-29.118024 9.034461 -39.745854
-29.215367 8.394829 -42.114134
-29.05121 8.176872 -40.653004
-28.856415 7.470377 -41.624842
-29.40508 8.694118 -43.56673
-29.599875 9.400613 -42.594893
-29.215367 8.394829 -42.114134
-28.806676 6.959809 -43.994541
-28.753032 6.632967 -42.520308
-28.539137 5.904442 -43.428877
-29.500375 9.09368 -45.03089
-29.40508 8.694118 -43.56673
-29.115866 8.087896 -44.550131
-29.657763 9.550535 -46.456755
-29.500375 9.09368 -45.03089
-29.657763 9.550535 -46.456755
-29.321086 8.982421 -47.407994
-29.347216 9.286853 -50.871132
-29.144857 8.793353 -49.608837
-29.101672 8.537437 -51.589141
-29.347216 9.286853 -50.871132
-28.889648 7.732589 -52.222485
-29.101672 8.537437 -51.589141
-28.646679 7.304475 -51.04932
-28.750315 6.840018 -52.746952
-29.205308 8.072979 -53.286774
-28.889648 7.732589 -52.222485
-27.691362 1.684692 -47.03013
-27.848202 2.587795 -46.446995
-27.598626 2.111924 -48.296323
-27.691362 1.684692 -47.03013
-27.521117 0.783494 -47.511921
-27.232335 -7.7595 -44.634377
-27.393449 -6.713137 -44.495267
-26.932529 -7.399148 -45.656202
-27.232335 -7.7595 -44.634377
-27.077567 -8.808306 -44.660235
-27.0546 -13.765094 -42.443615
-26.840098 -14.837989 -42.297959
-26.84026 -12.364697 -43.494941
-27.230074 -12.688944 -42.577041
-27.0546 -13.765094 -42.443615
-32.60369 -15.219385 -46.81336
-33.251903 -14.110938 -47.615524
-32.197898 -13.780701 -47.675303
-29.021324 -18.440542 -44.201631
-28.237305 -18.417449 -43.974188
-29.513055 -17.188285 -45.06245
-29.021324 -18.440542 -44.201631
-29.906859 -18.521887 -44.361963
-33.021904 -16.628128 -46.004886
-32.60369 -15.219385 -46.81336
-31.967898 -16.297891 -46.064664
-33.402853 -18.089268 -45.139603
-33.021904 -16.628128 -46.004886
-33.813237 -19.510306 -44.332159
-33.402853 -18.089268 -45.139603
-32.796495 -19.127672 -44.448747
3 0 67 68
3 0 69 71
3 69 16 70
3 69 70 71
3 1 72 73
3 1 74 76
3 74 17 75
3 74 75 76
3 77 18 78
3 79 20 80
3 81 22 82
3 83 82 20
3 81 82 83
3 2 25 23
3 2 27 25
3 3 30 28
3 3 32 30
3 3 34 32
3 84 35 85
3 86 36 87
3 88 37 89
3 90 38 91
3 92 39 93
3 94 93 38
3 92 93 94
3 96 95 39
3 6 97 98
3 6 99 101
3 99 41 100
3 99 100 101
3 7 102 103
3 7 104 106
3 104 42 105
3 104 105 106
3 107 43 108
3 8 44 19
3 8 109 111
3 111 110 44
3 109 110 111
3 8 112 114
3 112 45 113
3 112 113 114
3 9 46 21
3 9 47 46
3 4 115 117
3 115 48 116
3 115 116 117
3 10 49 24
3 10 50 49
3 10 51 50
3 11 52 26
3 11 53 52
3 12 118 119
3 12 120 122
3 120 54 121
3 120 121 122
3 5 123 125
3 123 55 124
3 123 124 125
3 13 56 29
3 13 57 56
3 13 58 57
3 14 59 31
3 14 60 59
3 14 61 60
3 15 62 33
3 15 63 62
3 126 64 127
3 128 127 40
3 126 127 128
3 129 65 130
3 131 66 132
3 133 132 65
3 131 132 133
3 135 134 66
3 16 136 137
3 16 138 140
3 138 6 139
3 138 139 140
3 17 141 142
3 17 143 145
3 143 7 144
3 143 144 145
3 18 146 147
3 18 148 150
3 148 149 150
3 151 19 152
3 20 153 155
3 153 19 154
3 153 154 155
3 20 8 19
3 20 21 8
3 22 21 20
3 22 9 21
3 23 24 4
3 25 24 23
3 25 10 24
3 25 26 10
3 27 26 25
3 27 11 26
3 156 12 157
3 28 29 5
3 30 29 28
3 30 13 29
3 30 31 13
3 32 31 30
3 32 14 31
3 32 33 14
3 34 33 32
3 34 15 33
3 35 158 160
3 158 159 160
3 35 161 163
3 161 1 162
3 161 162 163
3 164 4 165
3 166 4 167
3 168 23 169
3 170 169 4
3 168 169 170
3 36 171 173
3 171 23 172
3 171 172 173
3 36 2 23
3 37 174 175
3 37 176 178
3 176 5 177
3 176 177 178
3 179 37 180
3 38 181 183
3 181 37 182
3 181 182 183
3 38 5 37
3 38 28 5
3 39 28 38
3 39 3 28
3 39 40 3
3 184 40 185
3 186 185 39
3 184 185 186
3 188 187 40
3 41 189 190
3 41 191 192
3 42 193 194
3 42 195 197
3 195 0 196
3 195 196 197
3 198 18 199
3 43 200 202
3 200 18 201
3 200 201 202
3 43 203 205
3 205 204 18
3 203 204 205
3 19 206 208
3 206 43 207
3 206 207 208
3 44 43 19
3 44 209 211
3 211 210 43
3 209 210 211
3 44 212 213
3 215 214 44
3 45 216 217
3 45 218 219
3 21 45 8
3 46 45 21
3 46 220 222
3 222 221 45
3 220 221 222
3 46 223 225
3 223 35 224
3 223 224 225
3 47 35 46
3 47 1 35
3 226 22 227
3 48 228 230
3 228 22 229
3 228 229 230
3 48 9 22
3 24 48 4
3 49 48 24
3 49 9 48
3 49 47 9
3 50 47 49
3 50 1 47
3 50 17 1
3 51 17 50
3 51 7 17
3 26 51 10
3 52 51 26
3 52 7 51
3 52 42 7
3 53 42 52
3 53 0 42
3 231 36 232
3 54 233 235
3 233 36 234
3 233 234 235
3 54 2 36
3 55 236 237
3 55 238 240
3 238 12 239
3 238 239 240
3 29 55 5
3 56 55 29
3 56 12 55
3 56 54 12
3 57 54 56
3 57 2 54
3 57 27 2
3 58 27 57
3 58 11 27
3 31 58 13
3 59 58 31
3 59 11 58
3 59 53 11
3 60 53 59
3 60 0 53
3 60 16 0
3 61 16 60
3 61 6 16
3 33 61 14
3 62 61 33
3 62 6 61
3 62 41 6
3 63 41 62
3 63 241 243
3 243 242 41
3 241 242 243
3 40 34 3
3 64 34 40
3 64 15 34
3 244 64 245
3 65 246 248
3 246 64 247
3 246 247 248
3 65 15 64
3 65 63 15
3 66 63 65
3 66 249 251
3 251 250 63
3 249 250 251
3 66 252 253
3 256 255 66
3 254 255 256
