ply
format ascii 1.0
element vertex 231
property float x
property float y
property float z
element face 230
property list uchar int vertex_index
end_header
-29.790443 -56.576725 71.632278
-23.78581 -60.448612 76.954498
-23.696899 -49.973637 77.784416
-31.041092 -46.806572 73.096527
-33.832932 -52.702679 64.800323
-27.004532 -58.502384 74.521362
-26.650095 -63.460209 74.378769
-29.409565 -61.42944 71.496384
-31.496712 -59.38398 68.002129
-35.102314 -48.028481 65.951828
-23.68005 -55.193207 77.166016
-26.969761 -53.358971 74.646027
-23.289494 -65.469757 76.561493
-27.385025 -48.340286 75.418732
-30.060335 -51.597496 71.977028
-32.802746 -49.848263 69.11734
-32.064121 -54.65144 68.367722
-28.457687 -57.537983 73.12896
-28.368305 -60.025875 73.115982
-29.667713 -59.033539 71.589615
-30.535887 -60.40826 69.81604
-30.815405 -58.038891 69.937988
-23.624929 -52.555191 77.400681
-25.341785 -54.264362 75.926613
-25.352222 -51.666725 76.167114
-21.849884 -63.983391 77.747162
-23.646093 -62.998119 76.820641
-27.62793 -64.786942 72.759621
-26.135031 -65.819138 74.070259
-29.231466 -47.567879 74.263008
-28.774323 -49.976295 73.690018
-30.425205 -49.156769 72.432404
-34.365891 -50.357746 65.300537
-34.007923 -48.952522 67.578697
-33.41753 -51.308437 67.016296
-32.358074 -52.242214 68.658051
-33.005543 -53.681339 66.617386
-32.671074 -56.039902 66.330193
-33.410885 -55.036373 64.413742
-25.442818 -59.47229 75.799179
-25.343601 -62.008255 75.738892
-26.92304 -61.017197 74.502441
-28.112642 -62.446808 73.022171
-28.943586 -63.749397 71.26033
-30.07597 -62.707966 69.584274
-31.031578 -61.664574 67.752029
-23.767675 -57.837708 77.041428
-25.408258 -56.880539 75.830002
-26.983097 -55.93819 74.535461
-28.479351 -55.007927 73.166489
-19.976681 -64.958046 78.518532
-21.437054 -66.457764 77.389755
-25.035568 -64.468796 75.558815
-24.481735 -66.843521 75.188469
-25.531973 -49.138481 76.588577
-27.075123 -50.809586 74.930733
-28.548935 -52.472233 73.329941
-29.882614 -54.085526 71.729752
-32.782276 -46.038403 71.885452
-34.847179 -46.643654 68.316917
-33.480335 -47.505634 69.771942
-32.001518 -48.338184 71.135513
-31.4839 -50.726227 70.57798
-31.178925 -53.16568 70.227676
-30.993841 -55.615585 70.042068
-31.812956 -57.041019 68.178543
-32.308022 -58.358715 66.080658
-23.660914 -51.264414 77.592548
-22.760637 -51.70451 78.202511
-22.796622 -50.413732 78.394378
-23.715952 -61.723365 76.887569
-22.84685 -62.214066 77.401452
-22.916708 -60.939312 77.46838
-27.261676 -65.913593 72.51474
-27.934561 -65.387108 71.788246
-30.136279 -47.187225 73.679767
-29.589723 -46.428314 74.630779
-30.494535 -46.047661 74.047539
-31.663289 -60.003391 66.897213
-31.430722 -61.143688 66.772163
-31.264145 -60.524277 67.877079
-22.837353 -55.670738 77.759842
-22.792799 -54.336645 77.894581
-23.723863 -56.515457 77.103722
-22.881166 -56.992989 77.697548
-22.837353 -55.670738 77.759842
-20.109918 -63.685173 78.698341
-19.182623 -64.17316 79.07647
-22.991279 -66.662567 76.338963
-22.065059 -67.156571 76.753094
-22.363274 -65.963761 76.975624
-24.925674 -67.465984 74.357029
-25.308383 -66.331329 74.629364
-25.752322 -66.953793 73.797924
-24.082883 -67.985641 74.885959
-24.925674 -67.465984 74.357029
-26.660919 -47.535797 76.294037
-27.663441 -47.169533 75.746803
-26.458499 -48.739384 76.003655
-25.734393 -47.934894 76.87896
-26.660919 -47.535797 76.294037
-33.604754 -45.641016 71.239906
-33.302742 -44.945326 72.319099
-34.974746 -47.336067 67.134373
-35.473587 -46.191166 67.536632
-35.601154 -46.883579 66.354088
-32.652386 -57.847364 65.081253
-32.489548 -57.199309 66.205425
-32.833912 -56.687958 65.20602
-32.40519 -58.973416 64.910816
-32.652386 -57.847364 65.081253
-22.765239 -53.017637 78.011914
-22.760637 -51.70451 78.202511
-23.65249 -53.874199 77.283349
-22.792799 -54.336645 77.894581
-22.765239 -53.017637 78.011914
-21.948746 -62.706701 77.864712
-21.04652 -63.197845 78.312657
-22.747988 -63.490755 77.283901
-21.948746 -62.706701 77.864712
-22.84685 -62.214066 77.401452
-26.515227 -66.429691 73.170059
-26.881481 -65.30304 73.41494
-27.261676 -65.913593 72.51474
-26.132518 -67.564346 72.897724
-25.752322 -66.953793 73.797924
-26.515227 -66.429691 73.170059
-28.586662 -46.783329 75.168942
-29.589723 -46.428314 74.630779
-28.308245 -47.954082 74.84087
-27.663441 -47.169533 75.746803
-28.586662 -46.783329 75.168942
-33.203817 -56.186194 64.247795
-32.833912 -56.687958 65.20602
-33.040979 -55.538137 65.371967
-22.868719 -49.148798 78.63697
-22.796622 -50.413732 78.394378
-28.592389 -64.868336 71.038601
-27.934561 -65.387108 71.788246
-28.285758 -64.268169 72.009975
-29.171094 -64.34077 70.217506
-28.592389 -64.868336 71.038601
-29.737286 -63.820055 69.379479
-29.171094 -64.34077 70.217506
-29.509778 -63.228682 70.422302
-30.22478 -63.29278 68.472473
-29.886095 -64.404869 68.267677
-29.737286 -63.820055 69.379479
-30.702583 -62.771084 67.55635
-30.22478 -63.29278 68.472473
-30.553774 -62.18627 68.668151
-31.109279 -62.246289 66.577186
-30.702583 -62.771084 67.55635
-31.109279 -62.246289 66.577186
-31.430722 -61.143688 66.772163
-31.4807 -45.693783 73.500717
-30.494535 -46.047661 74.047539
-35.602446 -47.548363 65.095425
-35.601154 -46.883579 66.354088
-35.16349 -48.706654 64.734518
-35.602446 -47.548363 65.095425
-34.795279 -49.871286 64.408873
-34.734102 -49.193113 65.626182
-35.16349 -48.706654 64.734518
-34.469412 -51.035629 64.115724
-34.795279 -49.871286 64.408873
-34.202933 -52.208095 63.865617
-34.099412 -51.530213 65.05043
-34.469412 -51.035629 64.115724
-33.948611 -53.367311 63.62698
-34.202933 -52.208095 63.865617
-22.928939 -59.629505 77.557609
-22.916708 -60.939312 77.46838
-22.919871 -58.324053 77.601074
-22.881166 -56.992989 77.697548
-23.776743 -59.14316 76.997963
-22.928939 -59.629505 77.557609
-22.919871 -58.324053 77.601074
-19.013255 -65.435932 78.824604
-19.182623 -64.17316 79.07647
-19.741468 -66.191677 78.282257
-19.013255 -65.435932 78.824604
-20.913283 -64.470719 78.132847
-20.109918 -63.685173 78.698341
-21.04652 -63.197845 78.312657
-20.471655 -66.941536 77.717868
-19.741468 -66.191677 78.282257
-20.706868 -65.707905 77.954143
-21.11817 -67.65266 77.124206
-20.471655 -66.941536 77.717868
-21.11817 -67.65266 77.124206
-22.065059 -67.156571 76.753094
-23.5874 -67.349449 75.652451
-22.991279 -66.662567 76.338963
-23.885615 -66.156639 75.874981
-23.5874 -67.349449 75.652451
-24.082883 -67.985641 74.885959
-23.829704 -48.738005 78.044735
-22.868719 -49.148798 78.63697
-24.747241 -48.320427 77.446815
-25.734393 -47.934894 76.87896
-24.614436 -49.556059 77.186497
-23.829704 -48.738005 78.044735
-24.747241 -48.320427 77.446815
-32.351292 -45.309698 72.895179
-33.302742 -44.945326 72.319099
-31.911684 -46.422488 72.490989
-31.4807 -45.693783 73.500717
-32.351292 -45.309698 72.895179
-35.402163 -45.523499 68.756023
-35.473587 -46.191166 67.536632
-34.637205 -45.943641 69.455638
-35.402163 -45.523499 68.756023
-33.953783 -46.374631 70.183151
-34.637205 -45.943641 69.455638
-34.163757 -47.074644 69.04443
-33.131305 -46.772019 70.828697
-33.604754 -45.641016 71.239906
-33.953783 -46.374631 70.183151
-32.068944 -59.490759 65.936477
-31.663289 -60.003391 66.897213
-31.902367 -58.871347 67.041393
-32.068944 -59.490759 65.936477
-32.40519 -58.973416 64.910816
-33.737587 -54.534159 63.433689
-33.621909 -53.869526 64.607033
-33.948611 -53.367311 63.62698
-33.505388 -55.678381 63.226917
-33.737587 -54.534159 63.433689
-33.203817 -56.186194 64.247795
-33.505388 -55.678381 63.226917
3 0 19 17
3 0 21 19
3 2 67 69
3 67 22 68
3 67 68 69
3 2 24 22
3 1 70 72
3 70 26 71
3 70 71 72
3 74 73 27
3 3 75 77
3 75 29 76
3 75 76 77
3 3 31 29
3 4 34 32
3 4 36 34
3 4 38 36
3 5 41 39
3 7 42 18
3 7 43 42
3 7 44 43
3 8 45 20
3 8 78 80
3 80 79 45
3 78 79 80
3 10 81 82
3 10 83 85
3 83 46 84
3 83 84 85
3 10 47 46
3 11 48 23
3 11 49 48
3 86 50 87
3 12 51 25
3 12 88 90
3 90 89 51
3 88 89 90
3 6 52 40
3 91 53 92
3 93 92 28
3 91 92 93
3 95 94 53
3 13 96 97
3 13 98 100
3 98 54 99
3 98 99 100
3 13 55 54
3 14 56 30
3 14 57 56
3 101 58 102
3 9 103 105
3 103 59 104
3 103 104 105
3 15 60 33
3 15 61 60
3 15 62 61
3 16 63 35
3 16 64 63
3 16 65 64
3 106 66 107
3 108 107 37
3 106 107 108
3 110 109 66
3 17 18 5
3 19 18 17
3 19 7 18
3 19 20 7
3 21 20 19
3 21 8 20
3 22 111 112
3 22 113 115
3 113 10 114
3 113 114 115
3 22 23 10
3 24 23 22
3 24 11 23
3 116 25 117
3 26 118 120
3 118 25 119
3 118 119 120
3 26 12 25
3 27 28 6
3 121 28 122
3 123 122 27
3 121 122 123
3 126 125 28
3 124 125 126
3 29 127 128
3 29 129 131
3 129 13 130
3 129 130 131
3 29 30 13
3 31 30 29
3 31 14 30
3 32 33 9
3 34 33 32
3 34 15 33
3 34 35 15
3 36 35 34
3 36 16 35
3 36 37 16
3 38 37 36
3 38 132 134
3 134 133 37
3 132 133 134
3 135 2 136
3 39 40 1
3 41 40 39
3 41 6 40
3 18 41 5
3 42 41 18
3 42 6 41
3 42 27 6
3 43 27 42
3 43 137 139
3 139 138 27
3 137 138 139
3 43 140 141
3 44 142 144
3 144 143 43
3 142 143 144
3 44 145 147
3 145 146 147
3 20 44 7
3 45 44 20
3 45 148 150
3 150 149 44
3 148 149 150
3 45 151 152
3 154 153 45
3 155 3 156
3 157 9 158
3 159 9 160
3 161 32 162
3 163 162 9
3 161 162 163
3 164 32 165
3 166 4 167
3 168 167 32
3 166 167 168
3 170 169 4
3 171 1 172
3 46 173 174
3 46 175 177
3 175 1 176
3 175 176 177
3 46 39 1
3 47 39 46
3 47 5 39
3 23 47 10
3 48 47 23
3 48 5 47
3 48 17 5
3 49 17 48
3 49 0 17
3 50 178 179
3 50 180 181
3 25 182 184
3 182 50 183
3 182 183 184
3 51 50 25
3 51 185 187
3 187 186 50
3 185 186 187
3 51 188 189
3 191 190 51
3 40 26 1
3 52 26 40
3 52 12 26
3 28 52 6
3 53 52 28
3 53 12 52
3 53 192 194
3 194 193 12
3 192 193 194
3 196 195 53
3 197 2 198
3 54 199 200
3 54 201 203
3 201 2 202
3 201 202 203
3 54 24 2
3 55 24 54
3 55 11 24
3 30 55 13
3 56 55 30
3 56 11 55
3 56 49 11
3 57 49 56
3 57 0 49
3 58 204 205
3 58 206 208
3 206 3 207
3 206 207 208
3 59 209 210
3 59 211 212
3 33 59 9
3 60 59 33
3 60 213 215
3 215 214 59
3 213 214 215
3 60 216 218
3 216 58 217
3 216 217 218
3 61 58 60
3 61 3 58
3 61 31 3
3 62 31 61
3 62 14 31
3 35 62 15
3 63 62 35
3 63 14 62
3 63 57 14
3 64 57 63
3 64 0 57
3 64 21 0
3 65 21 64
3 65 8 21
3 37 65 16
3 66 65 37
3 66 8 65
3 66 219 221
3 221 220 8
3 219 220 221
3 223 222 66
3 224 38 225
3 226 225 4
3 224 225 226
3 227 38 228
3 230 229 38
