ply
format ascii 1.0
element vertex 324
property float x
property float y
property float z
element face 299
property list uchar int vertex_index
end_header
25.967995 23.560497 -31.09078
36.338005 26.27586 -16.636595
37.453133 20.17812 -26.648458
41.969318 12.922829 -23.068964
37.130058 17.392445 -37.274467
32.364414 28.050583 -26.178377
37.497818 21.601715 -13.961498
38.730389 18.764355 -19.298952
40.162521 13.852268 -17.241148
40.684177 16.533558 -30.790632
37.650379 18.448471 -31.99423
29.01964 23.844486 -30.493513
34.954346 29.883949 -19.646624
34.755039 25.974072 -23.818705
36.902012 22.862011 -21.484079
39.928513 16.957188 -24.938326
43.409164 13.680161 -29.03557
34.717876 22.398308 -28.197157
32.759056 30.275845 -24.492353
38.725544 17.552979 -15.470947
42.317413 15.81398 -32.985313
40.744293 16.765545 -33.741508
30.701048 26.278469 -28.698309
29.261549 26.540627 -29.447439
35.675732 28.214886 -18.105574
35.748608 26.33704 -20.331713
36.606377 24.50753 -19.01792
40.274681 15.528538 -21.112715
39.355312 17.696499 -22.084044
41.009575 15.026962 -24.025354
41.640625 14.9258 -26.985643
42.771095 13.089836 -26.039557
24.34763 23.341438 -31.245607
35.992023 22.896984 -25.013117
34.729645 24.129402 -25.990412
36.104836 21.420593 -27.445864
37.495712 17.872845 -34.660568
36.102364 19.007729 -32.378838
35.902889 18.015392 -34.818871
35.535969 17.091476 -37.1996
31.068354 28.720619 -27.289843
32.084194 25.807491 -27.857447
36.945232 24.067028 -15.254307
37.392174 22.422005 -17.770819
38.099628 20.095356 -16.590807
39.497177 16.394974 -18.258852
41.078278 13.190399 -20.133238
39.043949 18.008541 -28.623514
37.62133 19.199303 -29.312231
39.190147 17.620029 -31.464197
39.123466 17.45636 -34.302109
38.809868 17.421196 -37.100304
27.523375 23.746414 -30.840425
33.830807 29.215092 -23.099581
34.823841 27.905285 -21.700537
35.861774 24.547276 -22.636404
37.197224 21.404064 -24.031839
37.862602 20.928448 -20.371679
38.324894 19.66375 -23.055311
38.736382 18.683258 -25.811987
40.392593 16.575352 -27.847406
42.098766 15.210903 -29.978624
43.809437 14.625031 -32.046295
42.807724 10.676079 -22.064917
43.777946 11.097954 -25.010881
44.601692 11.971275 -27.970449
35.154549 31.864033 -17.658812
35.657249 30.120125 -15.955477
35.703884 31.989605 -13.87261
36.116825 28.092197 -14.335466
36.546768 25.776745 -12.817923
33.589661 27.139927 -25.009642
33.425209 25.097317 -26.94639
36.156815 20.129257 -29.910769
36.551556 16.911022 -39.797813
35.001987 16.163242 -39.490479
33.623028 15.200073 -38.934555
33.017712 31.367607 -23.654809
32.513279 31.839214 -24.42427
42.28149 16.215908 -34.483395
43.114582 15.808084 -34.021488
30.586497 25.039926 -29.373995
31.299719 24.92396 -29.105393
25.157812 23.450968 -31.168194
24.40472 24.932092 -31.145924
25.214903 25.041622 -31.06851
31.716384 28.385601 -26.73411
31.328829 29.911632 -26.562979
31.976859 29.576614 -26.007246
39.827129 17.309442 -35.484905
39.93388 17.110952 -34.021809
40.637542 16.964035 -35.204605
39.67033 17.29186 -36.884003
38.966667 17.438778 -35.701206
39.827129 17.309442 -35.484905
28.384073 25.239748 -30.29229
28.505028 26.587819 -29.769253
29.140594 25.192557 -29.970476
28.271507 23.79545 -30.666969
27.635941 25.190712 -30.465746
28.384073 25.239748 -30.29229
28.978052 22.480477 -30.979129
28.22992 22.431441 -31.152586
28.271507 23.79545 -30.666969
34.889094 28.894617 -20.67358
34.49286 29.599247 -21.465798
34.558113 30.588579 -20.438841
43.170091 9.496796 -21.537266
42.289055 10.695776 -20.601027
44.725349 10.605264 -25.902073
44.221055 10.038435 -24.456472
45.137222 11.041925 -27.381856
44.189819 11.534614 -26.490665
44.725349 10.605264 -25.902073
35.290688 32.830494 -16.695038
35.12426 33.595022 -17.650288
35.542037 31.95854 -15.84337
35.405899 30.992079 -16.807144
35.290688 32.830494 -16.695038
35.832659 30.935149 -12.989215
35.766772 32.87595 -12.859499
36.039129 28.986444 -13.220643
35.910354 30.040901 -14.104038
35.832659 30.935149 -12.989215
36.2541 27.828719 -12.461872
36.331796 26.934471 -13.576695
36.039129 28.986444 -13.220643
34.015239 22.754373 -28.543917
33.368906 24.103878 -27.918533
34.071542 23.747813 -27.571773
35.391924 19.899574 -31.397165
35.34128 19.154276 -32.499711
36.169308 16.620148 -40.995018
36.998747 17.084194 -41.10474
35.394523 16.246257 -40.841351
35.776771 16.537132 -39.644146
36.169308 16.620148 -40.995018
33.354339 14.498674 -39.902519
33.974542 15.17795 -40.297817
33.022507 14.639893 -38.558365
33.354339 14.498674 -39.902519
32.17418 30.689245 -25.164234
32.513279 31.839214 -24.42427
32.561735 29.163214 -25.335365
31.976859 29.576614 -26.007246
32.17418 30.689245 -25.164234
38.36111 18.230118 -14.112033
38.111681 19.577347 -14.716223
37.747248 20.254486 -13.357309
38.998939 16.191468 -14.935837
38.36111 18.230118 -14.112033
39.717428 14.341112 -15.820937
39.444032 15.702624 -16.356047
38.998939 16.191468 -14.935837
41.49493 16.69169 -34.861492
41.530853 16.289763 -33.363411
42.28149 16.215908 -34.483395
40.637542 16.964035 -35.204605
41.49493 16.69169 -34.861492
29.981299 26.409548 -29.072874
29.4726 27.857382 -28.879633
30.192349 27.726303 -28.505068
29.866747 25.171005 -29.74856
29.981299 26.409548 -29.072874
30.586497 25.039926 -29.373995
29.745793 23.822935 -30.271597
29.140594 25.192557 -29.970476
29.866747 25.171005 -29.74856
29.687963 22.579588 -30.918835
29.745793 23.822935 -30.271597
23.523384 24.883152 -31.302214
24.40472 24.932092 -31.145924
23.508001 23.241043 -31.274646
23.523384 24.883152 -31.302214
35.241543 18.658107 -33.719727
35.34128 19.154276 -32.499711
36.002627 18.511561 -33.598855
35.141451 17.958016 -34.803986
35.241543 18.658107 -33.719727
34.957991 17.496057 -35.99435
35.141451 17.958016 -34.803986
35.719429 17.553434 -36.009236
34.79853 16.820909 -37.049938
34.957991 17.496057 -35.99435
30.682825 30.218552 -27.190018
31.328829 29.911632 -26.562979
30.376002 28.947378 -27.800835
30.682825 30.218552 -27.190018
30.884701 27.499544 -27.994076
30.192349 27.726303 -28.505068
30.376002 28.947378 -27.800835
31.991292 24.688471 -28.684962
31.299719 24.92396 -29.105393
31.392621 26.04298 -28.277878
25.993094 22.009456 -31.274166
26.732533 22.18676 -31.295698
26.058578 25.085733 -30.857343
25.214903 25.041622 -31.06851
28.726539 27.992781 -29.334524
29.4726 27.857382 -28.879633
28.726539 27.992781 -29.334524
28.505028 26.587819 -29.769253
26.836269 25.178692 -30.732166
27.635941 25.190712 -30.465746
26.745685 23.653455 -30.965602
26.058578 25.085733 -30.857343
26.836269 25.178692 -30.732166
27.510224 22.279719 -31.170521
26.732533 22.18676 -31.295698
26.745685 23.653455 -30.965602
27.510224 22.279719 -31.170521
28.22992 22.431441 -31.152586
28.978052 22.480477 -30.979129
29.687963 22.579588 -30.918835
33.996343 30.254151 -22.16532
33.553587 30.837231 -22.958424
34.327324 28.560188 -22.400059
33.996343 30.254151 -22.16532
34.49286 29.599247 -21.465798
43.860594 15.21361 -33.551979
43.114582 15.808084 -34.021488
43.063425 15.219506 -32.515804
40.447872 12.512877 -16.738064
39.717428 14.341112 -15.820937
40.966454 12.28387 -18.189142
40.447872 12.512877 -16.738064
41.424332 11.952936 -19.635187
40.620399 13.521334 -18.687193
40.966454 12.28387 -18.189142
41.943001 11.933239 -21.099077
41.424332 11.952936 -19.635187
42.289055 10.695776 -20.601027
43.735945 9.827497 -22.98349
43.170091 9.496796 -21.537266
43.292835 10.887016 -23.537899
43.735945 9.827497 -22.98349
44.221055 10.038435 -24.456472
45.535921 11.809703 -28.82937
45.137222 11.041925 -27.381856
44.899676 12.599098 -29.455791
45.535921 11.809703 -28.82937
44.303411 13.453541 -29.988352
44.005428 12.825718 -28.503009
44.899676 12.599098 -29.455791
44.503548 13.925976 -31.493714
43.609301 14.152596 -30.540933
44.303411 13.453541 -29.988352
44.652969 14.682323 -32.982998
44.503548 13.925976 -31.493714
43.860594 15.21361 -33.551979
44.652969 14.682323 -32.982998
34.769587 31.61269 -19.529222
34.558113 30.588579 -20.438841
34.869688 32.602732 -18.535317
35.12426 33.595022 -17.650288
35.054448 30.873991 -18.652718
34.769587 31.61269 -19.529222
34.869688 32.602732 -18.535317
35.739119 33.811985 -13.863104
35.766772 32.87595 -12.859499
35.565355 32.89328 -14.801937
35.739119 33.811985 -13.863104
35.680566 31.054865 -14.914044
35.542037 31.95854 -15.84337
35.565355 32.89328 -14.801937
36.384395 26.621111 -11.636962
36.2541 27.828719 -12.461872
36.75027 24.48216 -12.113796
36.384395 26.621111 -11.636962
37.225796 22.394645 -12.685584
37.022293 23.68923 -13.38971
36.75027 24.48216 -12.113796
37.747248 20.254486 -13.357309
37.225796 22.394645 -12.685584
25.182912 21.899927 -31.351579
25.157812 23.450968 -31.168194
25.993094 22.009456 -31.274166
24.417595 21.722814 -31.291716
25.182912 21.899927 -31.351579
23.508001 23.241043 -31.274646
24.417595 21.722814 -31.291716
33.294932 29.745469 -23.795967
33.017712 31.367607 -23.654809
33.553587 30.837231 -22.958424
32.698398 24.458965 -28.374061
32.754701 25.452404 -27.401919
33.368906 24.103878 -27.918533
31.991292 24.688471 -28.684962
32.698398 24.458965 -28.374061
35.41915 20.460338 -30.16313
36.12959 19.568493 -31.144804
35.391924 19.899574 -31.397165
34.69968 21.594864 -29.306324
35.437345 21.263782 -29.053963
35.41915 20.460338 -30.16313
34.015239 22.754373 -28.543917
34.69968 21.594864 -29.306324
39.41959 17.504234 -38.315556
39.67033 17.29186 -36.884003
38.526133 17.408691 -38.459114
39.41959 17.504234 -38.315556
37.686228 17.394316 -38.546195
37.969963 17.40682 -37.187386
38.526133 17.408691 -38.459114
37.396976 17.153605 -39.807868
36.998747 17.084194 -41.10474
36.840807 17.151733 -38.53614
37.686228 17.394316 -38.546195
37.396976 17.153605 -39.807868
34.53154 16.356793 -38.195377
34.79853 16.820909 -37.049938
35.268978 16.627359 -38.345039
34.664022 15.659534 -40.575779
35.394523 16.246257 -40.841351
34.312507 15.681658 -39.212517
34.664022 15.659534 -40.575779
33.974542 15.17795 -40.297817
33.84206 15.875208 -37.917416
34.53154 16.356793 -38.195377
34.312507 15.681658 -39.212517
33.171902 15.507641 -37.674294
33.84206 15.875208 -37.917416
33.171902 15.507641 -37.674294
33.022507 14.639893 -38.558365
3 77 18 78
3 80 79 20
3 82 81 22
3 1 26 24
3 3 29 27
3 3 31 29
3 0 83 85
3 83 32 84
3 83 84 85
3 2 35 33
3 4 38 36
3 4 39 38
3 5 86 88
3 86 40 87
3 86 87 88
3 5 41 40
3 6 44 42
3 8 45 19
3 8 46 45
3 9 49 47
3 89 50 90
3 91 90 21
3 89 90 91
3 92 51 93
3 94 93 50
3 92 93 94
3 11 95 97
3 97 96 23
3 95 96 97
3 11 98 100
3 98 52 99
3 98 99 100
3 11 101 103
3 103 102 52
3 101 102 103
3 12 104 106
3 104 54 105
3 104 105 106
3 14 55 25
3 14 56 55
3 7 57 43
3 15 58 28
3 15 59 58
3 15 60 59
3 16 61 30
3 16 62 61
3 107 63 108
3 109 64 110
3 111 65 112
3 113 112 64
3 111 112 113
3 114 66 115
3 116 67 117
3 118 117 66
3 116 117 118
3 119 68 120
3 121 69 122
3 123 122 68
3 121 122 123
3 124 70 125
3 126 125 69
3 124 125 126
3 13 71 53
3 17 72 34
3 17 127 129
3 129 128 72
3 127 128 129
3 10 73 48
3 131 130 37
3 132 74 133
3 134 75 135
3 136 135 74
3 134 135 136
3 137 76 138
3 140 139 76
3 18 141 142
3 18 143 145
3 143 5 144
3 143 144 145
3 146 19 147
3 148 147 6
3 146 147 148
3 149 19 150
3 151 8 152
3 153 152 19
3 151 152 153
3 20 21 9
3 154 21 155
3 156 155 20
3 154 155 156
3 158 157 21
3 22 159 161
3 159 23 160
3 159 160 161
3 162 23 163
3 164 163 22
3 162 163 164
3 165 11 166
3 167 166 23
3 165 166 167
3 169 168 11
3 24 25 12
3 26 25 24
3 26 14 25
3 27 28 7
3 29 28 27
3 29 15 28
3 29 30 15
3 31 30 29
3 31 16 30
3 32 170 171
3 32 172 173
3 33 34 13
3 35 34 33
3 35 17 34
3 36 37 10
3 38 37 36
3 38 174 176
3 176 175 37
3 174 175 176
3 38 177 178
3 39 179 181
3 181 180 38
3 179 180 181
3 39 182 183
3 40 184 185
3 40 186 187
3 40 188 190
3 188 22 189
3 188 189 190
3 41 22 40
3 41 191 193
3 193 192 22
3 191 192 193
3 42 43 1
3 44 43 42
3 44 7 43
3 19 44 6
3 45 44 19
3 45 7 44
3 45 27 7
3 46 27 45
3 46 3 27
3 195 194 0
3 47 48 2
3 49 48 47
3 49 10 48
3 21 49 9
3 50 49 21
3 50 10 49
3 50 36 10
3 51 36 50
3 51 4 36
3 196 0 197
3 23 198 199
3 201 200 23
3 52 202 203
3 52 204 206
3 204 0 205
3 204 205 206
3 52 207 209
3 209 208 0
3 207 208 209
3 211 210 52
3 213 212 11
3 214 53 215
3 54 216 218
3 216 53 217
3 216 217 218
3 54 13 53
3 25 54 12
3 55 54 25
3 55 13 54
3 55 33 13
3 56 33 55
3 56 2 33
3 43 26 1
3 57 26 43
3 57 14 26
3 28 57 7
3 58 57 28
3 58 14 57
3 58 56 14
3 59 56 58
3 59 2 56
3 59 47 2
3 60 47 59
3 60 9 47
3 30 60 15
3 61 60 30
3 61 9 60
3 61 20 9
3 62 20 61
3 62 219 221
3 221 220 20
3 219 220 221
3 222 8 223
3 224 8 225
3 226 46 227
3 228 227 8
3 226 227 228
3 63 229 231
3 229 46 230
3 229 230 231
3 63 3 46
3 232 63 233
3 64 234 236
3 234 63 235
3 234 235 236
3 64 3 63
3 64 31 3
3 65 31 64
3 65 16 31
3 237 65 238
3 239 65 240
3 241 16 242
3 243 242 65
3 241 242 243
3 244 62 245
3 246 245 16
3 244 245 246
3 247 62 248
3 250 249 62
3 251 12 252
3 66 253 254
3 66 255 257
3 255 12 256
3 255 256 257
3 66 24 12
3 67 24 66
3 67 1 24
3 68 258 259
3 68 260 261
3 68 262 264
3 262 67 263
3 262 263 264
3 69 67 68
3 69 1 67
3 69 42 1
3 70 42 69
3 70 6 42
3 265 70 266
3 267 70 268
3 269 6 270
3 271 270 70
3 269 270 271
3 273 272 6
3 274 32 275
3 276 275 0
3 274 275 276
3 277 32 278
3 280 279 32
3 53 281 283
3 281 18 282
3 281 282 283
3 71 18 53
3 71 5 18
3 34 71 13
3 72 71 34
3 72 5 71
3 72 41 5
3 284 41 285
3 286 285 72
3 284 285 286
3 288 287 41
3 48 35 2
3 73 35 48
3 73 17 35
3 37 73 10
3 289 73 290
3 291 290 37
3 289 290 291
3 292 17 293
3 294 293 73
3 292 293 294
3 296 295 17
3 297 51 298
3 299 51 300
3 301 4 302
3 303 302 51
3 301 302 303
3 74 304 305
3 74 306 308
3 306 4 307
3 306 307 308
3 74 39 4
3 75 39 74
3 75 309 311
3 311 310 39
3 309 310 311
3 312 75 313
3 76 314 316
3 314 75 315
3 314 315 316
3 76 317 319
3 319 318 75
3 317 318 319
3 76 320 321
3 323 322 76
