ply
format ascii 1.0
element vertex 231
property float x
property float y
property float z
element face 210
property list uchar int vertex_index
end_header
-0.107111 64.158707 44.861046
-0.841522 59.09737 34.456722
-0.780308 52.059643 25.521458
-5.623676 72.875931 41.42654
-1.142218 51.175541 36.977783
-1.321043 55.638798 29.641382
-1.199747 47.994343 32.503166
-0.271091 69.474213 36.961067
-0.601698 66.801682 31.706646
-0.133617 62.141613 39.700516
-1.015438 70.526993 41.805161
-1.234608 63.22488 26.629101
-1.235807 59.328579 22.129601
-1.302853 49.592693 34.653896
-0.149803 66.919693 40.971992
-0.137121 65.915192 38.385651
0.013361 63.322193 42.332413
-0.998003 73.226669 37.835369
-1.768984 73.166214 40.042324
-0.700806 63.000851 33.110077
-0.940485 65.082474 29.115574
-1.056078 61.268665 30.563475
-1.208155 53.863049 27.485775
-1.318268 57.593975 25.898251
-1.043083 55.712376 23.835779
-0.794136 57.334377 20.165419
-0.445686 53.792248 21.972271
-4.061623 74.391281 39.938644
-2.880291 72.548264 41.97316
-4.292053 71.386841 43.578793
-0.996347 55.141407 35.746914
-1.168486 57.391674 31.973608
-1.256418 53.489468 33.339748
-1.291349 51.813213 31.096909
-1.031555 50.117016 29.03673
-0.453808 48.37788 27.168121
-0.787977 46.366817 30.537983
-0.34164 68.297119 34.345184
-0.35478 64.578369 35.738972
-0.455973 60.70483 37.051048
0.041145 59.51836 43.566498
-0.229372 58.220997 40.915676
-0.614372 56.737247 38.287701
-0.803341 52.729877 39.451927
-0.570412 72.751709 35.416946
-0.476921 70.242126 39.474991
-0.469023 67.507111 43.411903
-1.908613 70.282166 43.875423
-1.139751 67.611572 45.62011
-1.356712 64.943848 22.677303
-1.297894 59.451359 28.148096
-1.36479 61.2943 24.2904
-1.355967 62.89822 20.423088
-2.258426 74.276688 39.089309
-1.755172 74.49353 38.04883
-0.408975 51.127991 24.63784
-0.241664 51.994293 22.863247
-0.612997 52.925945 23.746865
-5.536789 74.342865 39.618539
-6.375538 73.425293 40.319651
-4.84265 73.633606 40.682592
-4.755763 75.10054 38.874591
-5.536789 74.342865 39.618539
-0.306366 68.885666 35.653126
-0.397328 70.046913 33.602764
-0.362054 70.63546 34.910705
0.097975 58.12751 45.441847
0.067315 60.031796 44.862812
0.124145 58.640946 46.738161
-0.313047 56.219173 41.477507
-0.134841 56.899506 42.800589
-0.505548 55.477299 40.163519
-0.421872 57.479122 39.601688
-0.313047 56.219173 41.477507
-0.600032 53.473613 40.745632
-0.708857 54.733562 38.869814
-0.505548 55.477299 40.163519
-0.820846 74.218666 34.582157
-0.650134 73.882004 33.345703
-2.524985 69.887841 44.749201
-2.394452 71.415215 42.924291
-3.010824 71.02089 43.798069
-1.259375 66.059326 47.435858
-1.655806 67.403137 46.570944
-0.849974 66.092254 46.407916
-1.259375 66.059326 47.435858
-0.726126 67.794899 29.668906
-0.59017 68.622567 30.973924
-1.192913 65.076002 25.860985
-1.045851 66.004799 27.104222
-1.087546 64.153677 27.872338
-1.29566 64.084364 24.653202
-1.253965 65.935486 23.885086
-1.192913 65.076002 25.860985
-1.15328 60.074211 20.243315
-1.21336 61.859032 19.390059
-1.295887 61.113399 21.276345
-0.632068 58.020038 18.330303
-0.415459 56.311131 19.286069
-0.018438 47.463585 26.330192
-0.262172 46.524887 27.965369
-6.491224 71.892258 42.003653
-6.375538 73.425293 40.319651
-5.780444 71.302262 43.128803
-6.491224 71.892258 42.003653
-1.280179 48.413051 36.39982
-1.222535 50.384117 35.81584
-1.199861 49.204476 37.561763
-1.29756 47.658279 35.281675
-1.280179 48.413051 36.39982
-1.246007 46.859105 34.20631
-1.2513 48.793518 33.578531
-1.29756 47.658279 35.281675
-1.119142 46.094766 33.177736
-1.246007 46.859105 34.20631
-1.369681 74.523758 36.945352
-1.034641 74.456146 35.791369
-1.383493 73.196441 38.938846
-1.369681 74.523758 36.945352
-1.755172 74.49353 38.04883
-0.241235 54.540066 20.189495
-0.415459 56.311131 19.286069
-0.619911 55.563313 21.068845
0.002507 52.792469 21.141438
-0.241235 54.540066 20.189495
0.002507 52.792469 21.141438
-0.241664 51.994293 22.863247
-0.006813 62.351969 45.510086
-0.13062 62.688502 46.731459
-4.010934 75.779945 38.0261
-4.755763 75.10054 38.874591
-3.404745 74.889221 39.03747
-4.010934 75.779945 38.0261
-3.470957 73.469773 40.955902
-2.81408 73.967713 40.054727
-3.404745 74.889221 39.03747
-3.716705 70.440178 44.600886
-3.010824 71.02089 43.798069
-3.586172 71.967553 42.775976
-5.114632 70.557716 44.204929
-4.957864 72.131386 42.502667
-5.780444 71.302262 43.128803
-4.477232 69.784081 45.292677
-5.114632 70.557716 44.204929
-3.716705 70.440178 44.600886
-4.477232 69.784081 45.292677
-0.429257 45.519356 29.6503
-0.262172 46.524887 27.965369
-0.620893 47.372349 28.853052
-0.913258 45.281003 32.195144
-0.993862 47.18058 31.520575
-1.119142 46.094766 33.177736
-0.632883 44.492481 31.259909
-0.913258 45.281003 32.195144
-0.429257 45.519356 29.6503
-0.632883 44.492481 31.259909
-0.460141 69.370285 32.293194
-0.397328 70.046913 33.602764
-0.471669 67.5494 33.025915
-0.59017 68.622567 30.973924
-0.460141 69.370285 32.293194
0.053423 61.933712 44.24577
-0.046875 63.74045 43.59673
-0.006813 62.351969 45.510086
0.027253 61.420276 42.949455
0.053423 61.933712 44.24577
0.067315 60.031796 44.862812
0.000418 57.548187 44.126
0.097975 58.12751 45.441847
-0.094113 58.869678 42.241087
0.000418 57.548187 44.126
-0.134841 56.899506 42.800589
-0.706372 51.458691 41.26473
-0.600032 53.473613 40.745632
-0.900496 50.729073 39.998285
-0.706372 51.458691 41.26473
-1.069934 49.951904 38.761213
-0.972779 51.952709 38.214855
-0.900496 50.729073 39.998285
-1.199861 49.204476 37.561763
-1.069934 49.951904 38.761213
-0.511714 72.274208 34.138645
-0.650134 73.882004 33.345703
-0.420752 71.112961 36.189007
-0.362054 70.63546 34.910705
-0.511714 72.274208 34.138645
-0.784207 72.989189 36.626158
-0.820846 74.218666 34.582157
-1.034641 74.456146 35.791369
-2.324638 72.857239 41.007742
-2.258426 74.276688 39.089309
-2.81408 73.967713 40.054727
-2.040236 68.738434 45.6986
-2.524985 69.887841 44.749201
-1.524182 68.946869 44.747766
-2.040236 68.738434 45.6986
-1.655806 67.403137 46.570944
-0.51461 66.040024 45.303812
-0.804387 67.559341 44.516007
-0.849974 66.092254 46.407916
-0.333654 64.365822 46.028384
-0.288067 65.832909 44.136475
-0.51461 66.040024 45.303812
-0.13062 62.688502 46.731459
-0.333654 64.365822 46.028384
-0.89552 66.935295 28.373369
-0.726126 67.794899 29.668906
-0.771092 65.942078 30.41111
-0.89552 66.935295 28.373369
-1.045851 66.004799 27.104222
-1.334916 66.730355 21.872686
-1.253965 65.935486 23.885086
-1.383021 65.67585 20.70502
-1.334916 66.730355 21.872686
-1.382648 64.653036 19.577913
-1.383021 65.67585 20.70502
-1.356339 63.921034 21.550196
-1.312162 63.5716 18.496398
-1.382648 64.653036 19.577913
-1.312162 63.5716 18.496398
-1.21336 61.859032 19.390059
-0.932445 59.07711 19.261224
-1.15328 60.074211 20.243315
-1.014972 58.331478 21.14751
-0.932445 59.07711 19.261224
-0.632068 58.020038 18.330303
-0.245725 49.287109 25.461172
-0.408975 51.127991 24.63784
-0.617058 50.218761 26.344789
-0.245725 49.287109 25.461172
-0.018438 47.463585 26.330192
3 0 16 14
3 53 18 54
3 1 21 19
3 2 24 22
3 2 26 24
3 2 55 57
3 57 56 26
3 55 56 57
3 3 58 59
3 3 60 62
3 60 27 61
3 60 61 62
3 3 29 27
3 4 32 30
3 6 33 13
3 6 34 33
3 6 36 34
3 7 63 65
3 63 37 64
3 63 64 65
3 9 38 15
3 9 39 38
3 66 40 67
3 66 67 68
3 69 41 70
3 71 42 72
3 73 72 41
3 71 72 73
3 74 43 75
3 76 75 42
3 74 75 76
3 77 44 78
3 10 45 17
3 10 46 45
3 79 47 80
3 81 80 28
3 79 80 81
3 82 48 83
3 85 84 48
3 8 86 87
3 11 88 90
3 90 89 20
3 88 89 90
3 11 91 93
3 91 49 92
3 91 92 93
3 5 50 31
3 12 51 23
3 12 52 51
3 12 94 96
3 96 95 52
3 94 95 96
3 98 97 25
3 100 99 35
3 101 3 102
3 104 103 3
3 105 13 106
3 107 106 4
3 105 106 107
3 108 13 109
3 110 6 111
3 112 111 13
3 110 111 112
3 114 113 6
3 14 15 7
3 16 15 14
3 16 9 15
3 115 17 116
3 18 117 119
3 117 17 118
3 117 118 119
3 18 10 17
3 19 20 8
3 21 20 19
3 21 11 20
3 22 23 5
3 24 23 22
3 24 12 23
3 24 25 12
3 26 25 24
3 26 120 122
3 122 121 25
3 120 121 122
3 26 123 124
3 126 125 26
3 128 127 0
3 27 129 130
3 27 131 132
3 27 133 135
3 133 28 134
3 133 134 135
3 29 28 27
3 29 136 138
3 138 137 28
3 136 137 138
3 139 29 140
3 141 140 3
3 139 140 141
3 142 29 143
3 145 144 29
3 30 31 1
3 32 31 30
3 32 5 31
3 13 32 4
3 33 32 13
3 33 5 32
3 33 22 5
3 34 22 33
3 34 2 22
3 34 35 2
3 36 35 34
3 36 146 148
3 148 147 35
3 146 147 148
3 149 36 150
3 151 150 6
3 149 150 151
3 152 36 153
3 155 154 36
3 37 156 157
3 37 158 160
3 158 8 159
3 158 159 160
3 15 37 7
3 38 37 15
3 38 8 37
3 38 19 8
3 39 19 38
3 39 1 19
3 161 16 162
3 163 162 0
3 161 162 163
3 40 164 166
3 164 16 165
3 164 165 166
3 40 9 16
3 167 40 168
3 41 169 171
3 169 40 170
3 169 170 171
3 41 9 40
3 41 39 9
3 42 39 41
3 42 1 39
3 42 30 1
3 43 30 42
3 43 4 30
3 172 43 173
3 174 43 175
3 176 4 177
3 178 177 43
3 176 177 178
3 180 179 4
3 44 181 182
3 44 183 185
3 183 7 184
3 183 184 185
3 17 186 188
3 186 44 187
3 186 187 188
3 45 44 17
3 45 7 44
3 45 14 7
3 46 14 45
3 46 0 14
3 28 189 191
3 189 18 190
3 189 190 191
3 47 18 28
3 47 10 18
3 192 47 193
3 48 194 196
3 194 47 195
3 194 195 196
3 48 10 47
3 48 46 10
3 197 46 198
3 199 198 48
3 197 198 199
3 200 0 201
3 202 201 46
3 200 201 202
3 204 203 0
3 20 205 207
3 207 206 8
3 205 206 207
3 209 208 20
3 49 210 211
3 49 212 213
3 31 21 1
3 50 21 31
3 50 11 21
3 23 50 5
3 51 50 23
3 51 11 50
3 51 49 11
3 52 49 51
3 52 214 216
3 216 215 49
3 214 215 216
3 52 217 218
3 220 219 52
3 25 221 223
3 223 222 12
3 221 222 223
3 225 224 25
3 35 226 228
3 228 227 2
3 226 227 228
3 230 229 35
