ply
format ascii 1.0
element vertex 290
property float x
property float y
property float z
element face 272
property list uchar int vertex_index
end_header
-5.234095 -8.913503 86.413483
0.997042 -6.024637 75.093018
-0.880171 -6.559622 83.195709
-11.335747 0.28924 81.109413
-17.073544 -5.428226 75.861572
-2.800684 -7.429359 85.592766
-2.247421 -14.270407 87.031746
-8.387661 -4.113801 84.390198
-8.66024 3.16618 82.957695
-5.683649 -1.897072 85.004021
-3.161278 -0.296206 84.056458
0.773708 -5.810991 70.394394
0.342068 1.111197 77.921944
0.419939 -6.185523 79.527596
-1.059973 0.650566 81.586273
-8.095049 -10.853888 85.789513
-14.011209 -2.723215 78.476654
-11.239496 -6.651168 82.634766
-3.959959 -8.09773 86.204071
-2.527287 -10.879588 86.329895
-3.692904 -11.515074 86.90567
-6.816225 -6.453111 85.569412
-7.021244 -2.941393 84.877045
-5.475531 -5.455757 85.717674
-4.206556 -4.599544 85.480415
0.986399 -5.936182 72.748535
0.824451 -9.404246 71.038254
1.03492 -9.529491 73.427689
0.754768 -2.465189 76.608429
0.939571 -2.377747 74.342682
0.907507 -2.292021 72.009109
-0.146133 -6.326545 81.490707
0.539515 -9.710632 80.30043
0.020958 -9.829652 82.277603
-7.257893 4.428093 83.381409
-1.95343 -3.37641 83.79995
-2.039494 0.251753 82.995132
-1.016741 -2.997625 82.403847
-0.23917 -2.742306 80.700226
-15.470058 -4.138949 77.120422
-12.774101 -7.902446 81.556717
-9.70425 -8.705027 84.354759
-1.769445 -6.919297 84.580009
-0.665094 -10.045419 83.981194
-1.515808 -10.389552 85.347748
-1.230335 -13.804432 86.092583
-9.904367 -1.873108 82.894936
-10.016659 1.772041 82.178505
-8.548197 -0.537775 83.691811
-7.182919 0.687534 84.161209
-5.813229 1.765034 84.249718
-4.465733 2.672709 83.934738
-4.387875 -1.011105 84.732697
-3.025015 -3.905602 84.837395
-15.789714 -7.23925 78.238266
-0.112179 -8.921412 66.413849
0.431934 -9.204879 68.687294
0.805183 -6.097419 77.373138
1.054239 -9.600748 75.80751
0.88632 -9.648351 78.120255
-3.183174 3.404594 83.220734
-2.015659 3.968563 82.131157
-0.25692 0.926945 79.877556
0.357462 -2.576496 78.747948
-6.613586 -9.847099 86.254196
-5.003613 -12.276426 87.085228
-12.650866 -1.228537 79.840782
-14.170252 -6.005366 79.426041
-12.676769 -4.66463 80.661224
-11.269005 -3.267949 81.851746
-9.787153 -5.368866 83.612427
-8.223606 -7.55323 85.088661
-11.368986 2.145218 80.738045
-12.003107 1.33854 80.091271
-7.236708 6.348994 82.934845
-6.543481 4.977991 83.397477
-17.692432 -4.525364 74.644268
-17.962929 -5.992286 75.314003
-16.888077 -3.858598 75.287468
-17.692432 -4.525364 74.644268
-16.271801 -4.783588 76.490997
-16.086334 -3.213959 75.916893
-16.888077 -3.858598 75.287468
-1.600066 -15.72495 86.908394
-1.091523 -15.491962 86.438813
-1.738878 -14.03742 86.562164
0.602821 -7.507935 69.540844
0.404255 -7.42206 68.382435
0.575143 -5.725116 69.235985
0.625954 -11.074662 70.140747
0.830349 -11.173064 71.345161
0.347999 2.983588 77.455006
0.064663 2.890648 78.446309
0.721057 -4.003899 70.027985
0.787956 -2.244414 70.835342
0.840607 -4.051506 71.201752
0.575143 -5.725116 69.235985
0.721057 -4.003899 70.027985
0.772974 -11.414521 79.587959
0.626451 -11.436028 80.690418
-0.209371 -11.656337 83.522969
-0.532408 -11.759262 84.368675
-9.37108 4.357708 82.18528
-10.04929 3.660638 81.795685
-9.338449 2.469111 82.5681
-1.035973 2.516555 81.143482
-1.513816 4.175554 81.415924
-1.537816 2.309565 81.858715
-0.658447 0.788755 80.731915
-0.634447 2.654745 80.289124
-1.035973 2.516555 81.143482
-7.272644 -11.990591 86.350441
-6.531912 -11.487196 86.582782
-7.354317 -10.350493 86.021854
-13.973607 -0.979419 78.053078
-14.635641 -1.76769 77.309513
-13.331038 -1.975876 79.158718
-13.293436 -0.232079 78.735141
-13.973607 -0.979419 78.053078
-14.296043 -7.53733 79.948696
-14.979983 -6.622308 78.832154
-15.105774 -8.154272 79.354809
-0.45395 -10.466691 65.548023
-0.122312 -10.68015 66.661663
1.062618 -11.32481 74.951713
1.090454 -11.347962 76.165806
-4.22517 -13.569078 87.322365
-4.91078 -13.914003 87.389793
0.935583 -11.235686 72.539879
0.830349 -11.173064 71.345161
0.929686 -9.466869 72.232971
0.736452 -0.616583 76.192009
0.530102 1.17161 76.848766
0.548418 -0.676996 77.265186
0.828854 -0.572862 75.059135
0.736452 -0.616583 76.192009
0.84717 -2.421468 75.475555
0.901434 -0.532827 73.919594
0.790717 1.272058 74.636047
0.828854 -0.572862 75.059135
0.923539 -2.334884 73.175895
0.885402 -0.489965 72.752807
0.901434 -0.532827 73.919594
0.367173 -11.495538 81.679004
0.626451 -11.436028 80.690418
0.280236 -9.770142 81.289017
-7.971076 5.706162 82.758702
-8.672249 5.075206 82.546844
-7.959067 3.797136 83.169552
-7.971076 5.706162 82.758702
-7.236708 6.348994 82.934845
-8.060246 -12.436998 86.120903
-8.888167 -11.367233 85.446033
-15.365066 -2.475557 76.631397
-16.086334 -3.213959 75.916893
-14.740633 -3.431082 77.798538
-14.635641 -1.76769 77.309513
-15.365066 -2.475557 76.631397
-12.862637 -9.420493 82.02821
-13.597967 -8.485869 81.014035
-12.02391 -8.877052 82.508884
-12.862637 -9.420493 82.02821
-11.256608 -8.251413 83.047909
-12.006799 -7.276807 82.095742
-12.02391 -8.877052 82.508884
-10.488985 -9.278342 83.907905
-10.471873 -7.678097 83.494763
-11.256608 -8.251413 83.047909
-9.692768 -10.292802 84.728656
-10.488985 -9.278342 83.907905
-8.888167 -11.367233 85.446033
-8.899649 -9.779457 85.072136
-9.692768 -10.292802 84.728656
-0.957766 -11.931328 85.051952
-0.532408 -11.759262 84.368675
-1.090451 -10.217486 84.664471
-0.815029 -13.638768 85.42437
-0.957766 -11.931328 85.051952
-1.373072 -12.096992 85.720166
-0.674958 -15.333335 85.795193
-0.815029 -13.638768 85.42437
-0.674958 -15.333335 85.795193
-1.091523 -15.491962 86.438813
-5.821149 3.646462 83.831631
-6.543481 4.977991 83.397477
-6.535561 3.096563 83.815563
-5.139481 2.218871 84.092228
-5.147401 4.100299 83.674141
-5.821149 3.646462 83.831631
-17.318954 -6.878007 76.515175
-17.962929 -5.992286 75.314003
-16.677039 -7.783519 77.703521
-16.431629 -6.333738 77.049919
-17.318954 -6.878007 76.515175
-15.998326 -8.674475 78.845688
-16.677039 -7.783519 77.703521
-15.105774 -8.154272 79.354809
-15.998326 -8.674475 78.845688
0.132199 -7.280327 67.245712
-0.138229 -7.171653 66.125957
0.159878 -9.063146 67.550571
0.132199 -7.280327 67.245712
0.404255 -7.42206 68.382435
0.149745 -10.821884 67.798385
-0.122312 -10.68015 66.661663
0.159878 -9.063146 67.550571
0.429695 -10.974978 68.965267
0.628193 -9.304562 69.862774
0.625954 -11.074662 70.140747
0.149745 -10.821884 67.798385
0.429695 -10.974978 68.965267
0.347999 2.983588 77.455006
0.530102 1.17161 76.848766
0.845406 -0.463587 71.575958
0.885402 -0.489965 72.752807
0.845406 -0.463587 71.575958
0.787956 -2.244414 70.835342
1.006495 -11.371763 77.322178
1.090454 -11.347962 76.165806
0.970279 -9.62455 76.963882
0.946376 -11.383381 78.497872
0.712917 -9.679492 79.210342
0.772974 -11.414521 79.587959
1.006495 -11.371763 77.322178
0.946376 -11.383381 78.497872
0.133654 -11.548453 82.671173
-0.322068 -9.937535 83.129399
-0.209371 -11.656337 83.522969
0.367173 -11.495538 81.679004
0.133654 -11.548453 82.671173
-10.709442 2.886618 81.272591
-11.368986 2.145218 80.738045
-10.676203 1.030641 81.643959
-10.709442 2.886618 81.272591
-10.04929 3.660638 81.795685
-9.37108 4.357708 82.18528
-8.672249 5.075206 82.546844
-4.441731 4.561521 83.489814
-5.147401 4.100299 83.674141
-3.800451 4.927463 83.132812
-4.441731 4.561521 83.489814
-3.824454 3.038651 83.577736
-3.133185 5.299011 82.753197
-3.800451 4.927463 83.132812
-2.549427 5.580996 82.208408
-3.133185 5.299011 82.753197
-2.599417 3.686578 82.675945
-1.952164 5.867044 81.644261
-2.549427 5.580996 82.208408
-1.952164 5.867044 81.644261
-1.513816 4.175554 81.415924
-0.234831 2.798522 79.424115
-0.634447 2.654745 80.289124
0.042574 1.019071 78.89975
0.064663 2.890648 78.446309
-0.234831 2.798522 79.424115
-5.726926 -12.70186 86.998299
-5.808599 -11.061763 86.669712
-6.531912 -11.487196 86.582782
-4.91078 -13.914003 87.389793
-5.726926 -12.70186 86.998299
-7.272644 -11.990591 86.350441
-8.060246 -12.436998 86.120903
-12.660667 0.579652 79.456955
-13.293436 -0.232079 78.735141
-11.993306 -0.469649 80.475098
-12.003107 1.33854 80.091271
-12.660667 0.579652 79.456955
-13.472176 -6.953906 80.491379
-14.296043 -7.53733 79.948696
-13.597967 -8.485869 81.014035
-0.431959 -8.736542 65.33226
-0.138229 -7.171653 66.125957
-0.431959 -8.736542 65.33226
-0.45395 -10.466691 65.548023
1.052958 -11.289181 73.761803
1.044579 -9.565119 74.617599
1.062618 -11.32481 74.951713
0.935583 -11.235686 72.539879
1.052958 -11.289181 73.761803
-3.569816 -13.188402 87.232586
-4.348259 -11.89575 86.995449
-4.22517 -13.569078 87.322365
-2.847074 -14.566068 87.295624
-2.970162 -12.892741 86.968708
-3.569816 -13.188402 87.232586
-2.123404 -15.941381 87.346215
-2.847074 -14.566068 87.295624
-1.600066 -15.72495 86.908394
-2.123404 -15.941381 87.346215
3 0 20 18
3 0 23 21
3 0 18 23
3 1 27 25
3 1 29 28
3 1 25 29
3 2 33 31
3 3 72 73
3 75 74 34
3 2 37 35
3 2 31 37
3 4 76 77
3 4 78 79
3 4 80 82
3 80 39 81
3 80 81 82
3 5 44 42
3 6 45 19
3 6 83 85
3 85 84 45
3 83 84 85
3 7 48 46
3 9 49 22
3 9 50 49
3 9 52 50
3 5 53 24
3 5 42 53
3 11 86 88
3 86 56 87
3 86 87 88
3 90 89 26
3 12 91 92
3 11 93 95
3 95 94 30
3 93 94 95
3 11 96 97
3 13 59 57
3 99 98 32
3 101 100 43
3 8 102 104
3 104 103 47
3 102 103 104
3 10 60 51
3 14 61 36
3 14 105 107
3 107 106 61
3 105 106 107
3 14 108 110
3 108 62 109
3 108 109 110
3 13 63 38
3 13 57 63
3 15 111 113
3 113 112 64
3 111 112 113
3 16 114 115
3 16 116 118
3 116 66 117
3 116 117 118
3 119 67 120
3 121 120 54
3 119 120 121
3 17 68 40
3 17 69 68
3 17 70 69
3 15 71 41
3 15 64 71
3 123 122 55
3 125 124 58
3 127 126 65
3 18 19 5
3 20 19 18
3 20 6 19
3 21 22 7
3 23 22 21
3 23 9 22
3 23 24 9
3 18 24 23
3 18 5 24
3 25 26 11
3 27 26 25
3 27 128 130
3 130 129 26
3 128 129 130
3 28 131 133
3 133 132 12
3 131 132 133
3 29 134 136
3 136 135 28
3 134 135 136
3 29 137 139
3 137 138 139
3 29 140 142
3 140 30 141
3 140 141 142
3 25 30 29
3 25 11 30
3 31 32 13
3 33 32 31
3 33 143 145
3 145 144 32
3 143 144 145
3 34 146 148
3 148 147 8
3 146 147 148
3 150 149 34
3 35 36 10
3 37 36 35
3 37 14 36
3 37 38 14
3 31 38 37
3 31 13 38
3 152 151 15
3 39 153 154
3 39 155 157
3 155 16 156
3 155 156 157
3 158 40 159
3 160 40 161
3 162 17 163
3 164 163 40
3 162 163 164
3 165 41 166
3 167 166 17
3 165 166 167
3 168 41 169
3 170 15 171
3 172 171 41
3 170 171 172
3 42 43 2
3 44 43 42
3 44 173 175
3 175 174 43
3 173 174 175
3 19 44 5
3 45 44 19
3 45 176 178
3 178 177 44
3 176 177 178
3 45 179 180
3 182 181 45
3 46 47 3
3 48 47 46
3 48 8 47
3 22 48 7
3 49 48 22
3 49 8 48
3 49 34 8
3 50 34 49
3 50 183 185
3 185 184 34
3 183 184 185
3 50 186 188
3 186 51 187
3 186 187 188
3 52 51 50
3 52 10 51
3 24 52 9
3 53 52 24
3 53 10 52
3 53 35 10
3 42 35 53
3 42 2 35
3 189 4 190
3 191 54 192
3 193 192 4
3 191 192 193
3 194 54 195
3 197 196 54
3 198 55 199
3 56 200 202
3 200 55 201
3 200 201 202
3 56 203 205
3 205 204 55
3 203 204 205
3 26 56 11
3 206 56 207
3 208 207 26
3 206 207 208
3 210 209 56
3 212 211 12
3 30 213 214
3 216 215 30
3 57 58 1
3 59 58 57
3 59 217 219
3 219 218 58
3 217 218 219
3 32 59 13
3 220 59 221
3 222 221 32
3 220 221 222
3 224 223 59
3 43 33 2
3 225 33 226
3 227 226 43
3 225 226 227
3 229 228 33
3 47 230 232
3 232 231 3
3 230 231 232
3 234 233 47
3 236 235 8
3 51 237 238
3 60 239 241
3 241 240 51
3 239 240 241
3 60 242 243
3 36 60 10
3 61 60 36
3 61 244 246
3 246 245 60
3 244 245 246
3 61 247 248
3 250 249 61
3 62 251 252
3 62 253 255
3 253 12 254
3 253 254 255
3 38 62 14
3 63 62 38
3 63 12 62
3 63 28 12
3 57 28 63
3 57 1 28
3 64 65 0
3 256 65 257
3 258 257 64
3 256 257 258
3 260 259 65
3 262 261 15
3 66 263 264
3 66 265 267
3 265 3 266
3 265 266 267
3 54 39 4
3 67 39 54
3 67 16 39
3 40 268 270
3 268 67 269
3 268 269 270
3 68 67 40
3 68 16 67
3 68 66 16
3 69 66 68
3 69 3 66
3 69 46 3
3 70 46 69
3 70 7 46
3 41 70 17
3 71 70 41
3 71 7 70
3 71 21 7
3 64 21 71
3 64 0 21
3 55 271 272
3 274 273 55
3 58 27 1
3 275 27 276
3 277 276 58
3 275 276 277
3 279 278 27
3 65 20 0
3 280 20 281
3 282 281 65
3 280 281 282
3 283 6 284
3 285 284 20
3 283 284 285
3 286 6 287
3 289 288 6
