ply
format ascii 1.0
element vertex 216
property float x
property float y
property float z
element face 200
property list uchar int vertex_index
end_header
39.96909 39.689045 46.100708
38.768085 31.851524 55.085793
28.694269 37.593384 54.605713
29.512821 42.715096 51.05159
32.754425 37.741081 54.353607
36.406982 37.379368 53.223007
35.681694 32.4333 57.042152
40.957127 34.181957 47.082581
41.788704 37.522495 42.5112
37.123756 41.360439 48.836754
39.231331 36.173855 50.730858
40.732979 30.352982 51.681137
40.682606 25.82151 55.858452
42.12991 24.169994 51.770729
30.748058 37.697689 54.529388
32.3288 35.101204 56.07618
34.273289 35.147263 55.805901
33.821449 32.418476 57.460297
37.658669 34.692589 54.28566
37.945461 36.887592 52.146446
38.992409 34.12635 52.971382
40.038765 33.334549 51.322838
39.90052 31.211594 53.540878
41.62273 22.743225 55.859398
41.531826 25.085781 53.938805
42.43409 22.003372 53.818817
27.459707 42.816418 51.228195
29.113129 40.250542 52.891663
31.155365 40.246456 52.747688
33.140316 40.155323 52.46228
35.01931 39.915573 51.926071
34.65913 37.653378 53.947205
36.069267 35.026245 55.228752
37.348965 32.255886 56.260132
40.550594 37.01421 46.69677
41.015007 38.646816 44.38953
41.282738 35.891857 44.774445
38.6618 40.605385 47.598495
36.74292 39.48526 51.0765
38.263878 38.848354 49.900452
39.542171 38.014503 48.424126
40.236893 35.258743 49.022377
40.790264 32.347305 49.401634
41.283306 29.313786 49.578438
35.202763 29.628716 58.611748
36.96545 29.592651 58.008316
38.499153 29.350628 57.007095
39.550079 26.344578 57.454491
39.75787 28.878872 55.608864
40.719944 28.178947 53.857407
41.394997 27.275967 51.821358
43.045822 21.112816 51.566811
32.079771 33.684429 56.837601
31.312328 35.027039 56.113541
32.826096 32.343065 57.529659
33.075125 33.75984 56.768238
32.079771 33.684429 56.837601
40.250989 40.471119 44.948853
39.569964 40.949066 45.691456
42.144258 21.228934 55.75795
41.616024 21.501678 56.689197
42.549938 20.859007 54.73766
42.02841 22.373298 54.839107
42.144258 21.228934 55.75795
27.668989 37.547007 54.671643
28.463359 36.184544 55.392635
27.877056 38.915676 53.820648
27.668989 37.547007 54.671643
28.903699 38.921963 53.748688
28.086486 40.244255 52.963623
27.877056 38.915676 53.820648
28.687599 43.962601 50.187652
27.661042 44.013262 50.275955
28.486264 42.765757 51.139893
37.355045 42.202501 47.691086
36.474423 42.547882 48.195473
37.892778 40.982912 48.217624
38.124067 41.824974 47.071956
37.355045 42.202501 47.691086
41.712007 38.867082 42.319334
41.325159 39.429243 43.258499
41.401855 38.084655 43.450365
34.903689 28.142115 59.253117
34.23695 29.56692 58.741539
37.550432 28.118889 58.33815
36.717464 28.164669 58.740814
38.317284 27.997877 57.837539
37.732301 29.47164 57.507706
37.550432 28.118889 58.33815
40.116343 26.083044 56.656471
40.055591 24.818585 57.533565
40.621855 24.557051 56.735546
41.978159 25.192473 50.67411
41.610703 26.745459 50.699425
41.762453 25.72298 51.796043
43.635637 19.647091 51.409508
43.281603 20.059507 52.555229
29.495062 36.273128 55.378308
28.463359 36.184544 55.392635
30.521957 36.325281 55.340145
29.721163 37.645536 54.56755
29.495062 36.273128 55.378308
31.538429 36.399446 55.302784
30.521957 36.325281 55.340145
31.312328 35.027039 56.113541
41.186501 33.58839 46.028082
41.113373 32.696877 47.179871
29.714647 43.841704 50.075046
30.529867 42.644505 50.939583
36.259716 41.647523 49.309735
36.474423 42.547882 48.195473
42.125267 38.322744 41.409394
42.048847 36.941606 41.508187
41.091917 23.017908 56.736019
41.616024 21.501678 56.689197
41.152668 24.282367 55.858925
40.621855 24.557051 56.735546
41.091917 23.017908 56.736019
27.259775 41.527193 52.131889
26.442055 42.879179 51.362927
28.286418 41.53348 52.059929
27.259775 41.527193 52.131889
28.086486 40.244255 52.963623
31.351139 41.410185 51.787632
30.529867 42.644505 50.939583
30.334093 41.480776 51.899639
32.343615 41.364619 51.644928
31.351139 41.410185 51.787632
32.147841 40.20089 52.604984
33.331146 41.242708 51.447723
32.343615 41.364619 51.644928
34.079813 40.035448 52.194176
34.270643 41.122833 51.179619
33.331146 41.242708 51.447723
41.349306 34.44334 44.874014
41.119933 35.036907 45.928513
41.186501 33.58839 46.028082
41.521639 35.294787 43.741551
41.349306 34.44334 44.874014
41.774622 36.110106 42.609928
41.535721 36.707176 43.642823
41.521639 35.294787 43.741551
42.048847 36.941606 41.508187
41.774622 36.110106 42.609928
26.639263 44.136156 50.409649
25.621611 44.198917 50.544381
26.442055 42.879179 51.362927
26.639263 44.136156 50.409649
27.661042 44.013262 50.275955
28.687599 43.962601 50.187652
29.714647 43.841704 50.075046
38.916319 41.407236 46.440349
38.124067 41.824974 47.071956
39.315445 40.147215 46.849601
39.569964 40.949066 45.691456
38.916319 41.407236 46.440349
35.207493 40.92509 50.854393
34.270643 41.122833 51.179619
36.069298 40.709934 50.429608
35.207493 40.92509 50.854393
35.881115 39.700417 51.501286
36.933338 40.422849 49.956627
36.259716 41.647523 49.309735
36.069298 40.709934 50.429608
41.029941 31.77955 48.339398
41.113373 32.696877 47.179871
40.873695 33.264631 48.242108
41.276463 30.262791 48.427799
41.029941 31.77955 48.339398
41.036785 30.830545 49.490036
41.44301 28.730549 48.442006
41.276463 30.262791 48.427799
40.773947 39.950005 44.093263
40.250989 40.471119 44.948853
40.492048 39.16793 45.245119
40.773947 39.950005 44.093263
41.325159 39.429243 43.258499
42.04857 39.667332 41.217528
41.712007 38.867082 42.319334
42.125267 38.322744 41.409394
33.546293 30.961799 58.165813
32.826096 32.343065 57.529659
34.512106 31.023596 58.036023
33.546293 30.961799 58.165813
34.23695 29.56692 58.741539
35.836121 28.182702 59.04253
34.903689 28.142115 59.253117
36.084106 29.610684 58.310032
35.836121 28.182702 59.04253
36.717464 28.164669 58.740814
39.390373 24.989176 58.233005
40.055591 24.818585 57.533565
38.842746 26.494852 58.061237
39.390373 24.989176 58.233005
39.024616 27.847603 57.230793
38.317284 27.997877 57.837539
38.842746 26.494852 58.061237
41.554857 27.764368 49.577965
41.339151 28.294877 50.699898
41.610703 26.745459 50.699425
41.44301 28.730549 48.442006
41.554857 27.764368 49.577965
42.975737 20.504785 53.681233
42.549938 20.859007 54.73766
42.739956 21.558094 52.692814
42.975737 20.504785 53.681233
43.281603 20.059507 52.555229
43.290486 20.621092 50.371521
43.635637 19.647091 51.409508
42.793633 22.119287 50.498951
43.290486 20.621092 50.371521
42.335677 23.647876 50.60091
42.587866 22.641405 51.66877
42.793633 22.119287 50.498951
41.978159 25.192473 50.67411
42.335677 23.647876 50.60091
3 52 15 53
3 54 17 55
3 56 55 15
3 54 55 56
3 1 20 18
3 1 22 20
3 0 57 58
3 59 23 60
3 61 25 62
3 63 62 23
3 61 62 63
3 2 64 65
3 2 66 67
3 2 68 70
3 68 27 69
3 68 69 70
3 4 28 14
3 4 29 28
3 4 31 29
3 6 32 16
3 6 33 32
3 7 36 34
3 3 71 73
3 73 72 26
3 71 72 73
3 9 74 75
3 9 76 78
3 76 37 77
3 76 77 78
3 5 38 30
3 10 39 19
3 10 40 39
3 10 41 40
3 11 42 21
3 11 43 42
3 8 79 81
3 81 80 35
3 79 80 81
3 82 44 83
3 84 45 85
3 86 46 87
3 88 87 45
3 86 87 88
3 12 89 91
3 89 47 90
3 89 90 91
3 12 48 47
3 12 49 48
3 13 50 24
3 13 92 94
3 94 93 50
3 92 93 94
3 95 51 96
3 97 2 98
3 99 14 100
3 101 100 2
3 99 100 101
3 15 102 104
3 102 14 103
3 102 103 104
3 15 4 14
3 15 16 4
3 17 16 15
3 17 6 16
3 106 105 7
3 108 107 3
3 109 9 110
3 18 19 5
3 20 19 18
3 20 10 19
3 20 21 10
3 22 21 20
3 22 11 21
3 112 111 8
3 23 113 114
3 23 115 117
3 115 12 116
3 115 116 117
3 23 24 12
3 25 24 23
3 25 13 24
3 118 26 119
3 27 120 122
3 120 26 121
3 120 121 122
3 27 3 26
3 14 27 2
3 28 27 14
3 28 3 27
3 28 123 125
3 125 124 3
3 123 124 125
3 29 126 128
3 128 127 28
3 126 127 128
3 29 129 130
3 29 131 133
3 131 30 132
3 131 132 133
3 31 30 29
3 31 5 30
3 16 31 4
3 32 31 16
3 32 5 31
3 32 18 5
3 33 18 32
3 33 1 18
3 34 35 0
3 36 35 34
3 36 8 35
3 134 36 135
3 136 135 7
3 134 135 136
3 137 36 138
3 139 8 140
3 141 140 36
3 139 140 141
3 143 142 8
3 26 144 146
3 144 145 146
3 148 147 26
3 150 149 3
3 37 151 152
3 37 153 155
3 153 0 154
3 153 154 155
3 30 156 157
3 38 158 160
3 160 159 30
3 158 159 160
3 38 161 163
3 161 9 162
3 161 162 163
3 19 38 5
3 39 38 19
3 39 9 38
3 39 37 9
3 40 37 39
3 40 0 37
3 40 34 0
3 41 34 40
3 41 7 34
3 21 41 10
3 42 41 21
3 42 7 41
3 42 164 166
3 166 165 7
3 164 165 166
3 43 167 169
3 169 168 42
3 167 168 169
3 43 170 171
3 35 172 174
3 174 173 0
3 172 173 174
3 176 175 35
3 179 178 8
3 177 178 179
3 180 17 181
3 44 182 184
3 182 17 183
3 182 183 184
3 44 6 17
3 185 44 186
3 45 187 189
3 187 44 188
3 187 188 189
3 45 6 44
3 45 33 6
3 46 33 45
3 46 1 33
3 47 190 191
3 47 192 193
3 47 194 196
3 194 46 195
3 194 195 196
3 48 46 47
3 48 1 46
3 48 22 1
3 49 22 48
3 49 11 22
3 24 49 12
3 50 49 24
3 50 11 49
3 50 43 11
3 197 43 198
3 199 198 50
3 197 198 199
3 201 200 43
3 202 25 203
3 51 204 206
3 204 25 205
3 204 205 206
3 51 13 25
3 207 51 208
3 209 51 210
3 211 13 212
3 213 212 51
3 211 212 213
3 215 214 13
