ply
format ascii 1.0
element vertex 171
property float x
property float y
property float z
element face 147
property list uchar int vertex_index
end_header
-19.21566 -99.265472 -19.868938
-11.945801 -94.064972 -16.163206
-4.440205 -88.507919 -9.014091
-15.198649 -97.188705 -18.042255
-17.373596 -106.372803 -20.4151
-12.791567 -104.769394 -18.486515
-9.431906 -90.209839 -14.074911
-5.827847 -87.244492 -10.570679
-18.232784 -102.927246 -20.118542
-14.971439 -105.745407 -19.457043
-15.970545 -102.167236 -19.17775
-13.480274 -95.733948 -17.126724
-12.081499 -99.690979 -17.281425
-10.454199 -98.061172 -16.254356
-9.03886 -96.225449 -15.144402
-7.844555 -94.212173 -13.965479
-10.59351 -92.217194 -15.139482
-4.431414 -91.102417 -10.05158
-6.207365 -89.7117 -11.608942
-20.282694 -95.416443 -19.699833
-17.108294 -98.38208 -18.944016
-18.343372 -94.425339 -18.786545
-16.584877 -93.151459 -17.910057
-14.991791 -91.647797 -17.034393
-13.550535 -89.959167 -16.131052
-14.149647 -109.087784 -19.739288
-11.85548 -108.236359 -18.731113
-9.806774 -107.048523 -17.667385
-13.919641 -101.074829 -18.24361
-10.842545 -103.476364 -17.473969
-6.890907 -92.03775 -12.764233
-8.481552 -88.048782 -13.01734
-12.256163 -88.112915 -15.195356
-11.116673 -86.117493 -14.25165
-6.584525 -85.26033 -10.86881
-6.800536 -86.489883 -11.299853
-4.605109 -92.340385 -10.656242
-3.825105 -92.965607 -9.825995
-5.493084 -91.645027 -11.434923
-5.319389 -90.407059 -10.830261
-4.605109 -92.340385 -10.656242
-19.870517 -92.919915 -19.209904
-19.313033 -94.920891 -19.243189
-20.840177 -93.415467 -19.666548
-17.310334 -91.077538 -17.886831
-18.111073 -91.743615 -18.317259
-16.513791 -90.325706 -17.448999
-15.788334 -92.399628 -17.472225
-17.310334 -91.077538 -17.886831
-15.779701 -89.559509 -17.027006
-16.513791 -90.325706 -17.448999
-4.628669 -87.164215 -8.601422
-4.065947 -89.027305 -8.215567
-15.761622 -107.730294 -20.077194
-15.411888 -109.334228 -20.226234
-17.023862 -107.976738 -20.564141
-9.984978 -102.691635 -16.928285
-11.462022 -101.583672 -17.377697
-10.604455 -100.798943 -16.832013
-9.426966 -104.517243 -16.994079
-9.984978 -102.691635 -16.928285
-13.734321 -86.944999 -15.684158
-12.903349 -89.036041 -15.663204
-14.381507 -87.868125 -16.152006
-11.971951 -84.035408 -14.381206
-12.539675 -85.027885 -14.789594
-10.635434 -85.043457 -13.798848
-11.971951 -84.035408 -14.381206
-5.803935 -85.949264 -10.136812
-5.110113 -86.580978 -9.358518
-5.134026 -87.876205 -9.792385
-5.803935 -85.949264 -10.136812
-6.584525 -85.26033 -10.86881
-9.790805 -99.984039 -16.318479
-10.604455 -100.798943 -16.832013
-11.267849 -98.876075 -16.767891
-9.051952 -99.081581 -15.722367
-9.790805 -99.984039 -16.318479
-8.344283 -98.163719 -15.16739
-9.051952 -99.081581 -15.722367
-9.746529 -97.14331 -15.699379
-7.728736 -97.160835 -14.525116
-8.344283 -98.163719 -15.16739
-8.441707 -95.218811 -14.554941
-7.131583 -96.154198 -13.935655
-7.728736 -97.160835 -14.525116
-3.850083 -90.37001 -8.705801
-4.065947 -89.027305 -8.215567
-3.845687 -91.667259 -9.224545
-3.825105 -92.965607 -9.825995
-4.435809 -89.805168 -9.532836
-3.850083 -90.37001 -8.705801
-3.845687 -91.667259 -9.224545
-6.990295 -87.723488 -11.818984
-6.800536 -86.489883 -11.299853
-6.017606 -88.478096 -11.089811
-18.990321 -92.380554 -18.755503
-19.870517 -92.919915 -19.209904
-17.464124 -93.788399 -18.348301
-18.990321 -92.380554 -18.755503
-18.111073 -91.743615 -18.317259
-15.059074 -88.715194 -16.575336
-14.271163 -90.803482 -16.582723
-15.779701 -89.559509 -17.027006
-14.381507 -87.868125 -16.152006
-15.059074 -88.715194 -16.575336
-18.675831 -106.504486 -20.888832
-17.023862 -107.976738 -20.564141
-19.034135 -104.850602 -20.745953
-18.675831 -106.504486 -20.888832
-19.463729 -103.127823 -20.597673
-17.80319 -104.650025 -20.266821
-19.034135 -104.850602 -20.745953
-19.875671 -101.364227 -20.476574
-19.463729 -103.127823 -20.597673
-20.367109 -99.53334 -20.351772
-18.724222 -101.096359 -19.99374
-19.875671 -101.364227 -20.476574
-20.813638 -97.671325 -20.270391
-20.367109 -99.53334 -20.351772
-21.347155 -95.746811 -20.185839
-19.749177 -97.340958 -19.784385
-20.813638 -97.671325 -20.270391
-21.810601 -93.800896 -20.156443
-21.347155 -95.746811 -20.185839
-20.840177 -93.415467 -19.666548
-21.810601 -93.800896 -20.156443
-4.628669 -87.164215 -8.601422
-5.110113 -86.580978 -9.358518
-13.841522 -110.630798 -19.855066
-15.411888 -109.334228 -20.226234
-12.646225 -110.267601 -19.33291
-13.841522 -110.630798 -19.855066
-11.499142 -109.841888 -18.828823
-12.646225 -110.267601 -19.33291
-13.002564 -108.662071 -19.2352
-10.431788 -109.30397 -18.272001
-11.499142 -109.841888 -18.828823
-9.407435 -108.710053 -17.740137
-10.431788 -109.30397 -18.272001
-10.831127 -107.642441 -18.199249
-8.474331 -108.010773 -17.134927
-9.407435 -108.710053 -17.740137
-8.90908 -106.303322 -17.090787
-10.324659 -105.262444 -17.570677
-9.426966 -104.517243 -16.994079
-8.474331 -108.010773 -17.134927
-8.90908 -106.303322 -17.090787
-6.648466 -95.063759 -13.268978
-7.131583 -96.154198 -13.935655
-6.171642 -93.976547 -12.668355
-6.648466 -95.063759 -13.268978
-7.367731 -93.124962 -13.364856
-5.834855 -92.808052 -12.012569
-6.171642 -93.976547 -12.668355
-6.549136 -90.874725 -12.186588
-5.493084 -91.645027 -11.434923
-5.834855 -92.808052 -12.012569
-8.127388 -86.892029 -12.523183
-6.990295 -87.723488 -11.818984
-7.344459 -88.880241 -12.313141
-13.10942 -86.025597 -15.261447
-13.734321 -86.944999 -15.684158
-11.686418 -87.115204 -14.723503
-13.10942 -86.025597 -15.261447
-12.539675 -85.027885 -14.789594
-9.317873 -86.009101 -13.181693
-9.799112 -87.083137 -13.634495
-10.635434 -85.043457 -13.798848
-8.127388 -86.892029 -12.523183
-9.317873 -86.009101 -13.181693
3 35 34 7
3 0 10 8
3 1 13 11
3 1 14 13
3 1 16 14
3 36 17 37
3 38 18 39
3 40 39 17
3 38 39 40
3 41 21 42
3 43 42 19
3 41 42 43
3 44 22 45
3 46 23 47
3 48 47 22
3 46 47 48
3 50 49 23
3 2 51 52
3 4 53 55
3 53 25 54
3 53 54 55
3 5 26 9
3 5 27 26
3 3 28 20
3 56 29 57
3 58 57 12
3 56 57 58
3 60 59 29
3 6 30 15
3 6 31 30
3 61 32 62
3 63 62 24
3 61 62 63
3 64 33 65
3 67 66 33
3 7 68 70
3 70 69 2
3 68 69 70
3 72 71 7
3 8 9 4
3 10 9 8
3 10 5 9
3 11 12 3
3 13 12 11
3 13 73 75
3 75 74 12
3 73 74 75
3 13 76 77
3 14 78 80
3 80 79 13
3 78 79 80
3 14 81 82
3 14 83 85
3 83 15 84
3 83 84 85
3 16 15 14
3 16 6 15
3 86 2 87
3 17 88 89
3 17 90 92
3 90 2 91
3 90 91 92
3 17 7 2
3 18 7 17
3 18 93 95
3 95 94 7
3 93 94 95
3 19 20 0
3 21 20 19
3 21 3 20
3 96 21 97
3 22 98 100
3 98 21 99
3 98 99 100
3 22 3 21
3 22 11 3
3 23 11 22
3 23 1 11
3 23 24 1
3 101 24 102
3 103 102 23
3 101 102 103
3 105 104 24
3 106 4 107
3 108 4 109
3 110 8 111
3 112 111 4
3 110 111 112
3 113 8 114
3 115 0 116
3 117 116 8
3 115 116 117
3 118 0 119
3 120 19 121
3 122 121 0
3 120 121 122
3 123 19 124
3 126 125 19
3 128 127 2
3 25 129 130
3 25 131 132
3 9 25 4
3 26 25 9
3 26 133 135
3 135 134 25
3 133 134 135
3 26 136 137
3 27 138 140
3 140 139 26
3 138 139 140
3 27 141 142
3 20 10 0
3 28 10 20
3 28 5 10
3 12 28 3
3 29 28 12
3 29 5 28
3 29 27 5
3 143 27 144
3 145 144 29
3 143 144 145
3 147 146 27
3 15 148 149
3 30 150 152
3 152 151 15
3 150 151 152
3 30 153 154
3 30 155 157
3 155 18 156
3 155 156 157
3 31 18 30
3 31 158 160
3 160 159 18
3 158 159 160
3 24 16 1
3 32 16 24
3 32 6 16
3 161 32 162
3 33 163 165
3 163 32 164
3 163 164 165
3 33 6 32
3 33 31 6
3 166 31 167
3 168 167 33
3 166 167 168
3 170 169 31
