ply
format ascii 1.0
element vertex 209
property float x
property float y
property float z
element face 188
property list uchar int vertex_index
end_header
50.797157 -78.366135 22.371367
43.424194 -97.9105 19.90414
44.652813 -92.258408 32.793617
47.101246 -87.881676 22.355679
41.213184 -103.326988 7.766876
44.023514 -95.244881 26.387505
46.127903 -90.439171 27.620203
45.473339 -93.068855 21.490376
45.088451 -95.648613 15.338788
44.619171 -98.38826 9.376499
42.553886 -100.504829 13.651274
48.201363 -85.419426 27.997688
48.852165 -82.870628 22.554554
43.738506 -96.604042 23.133514
44.800964 -94.260376 23.954224
44.540195 -95.56385 20.778116
45.265755 -94.351807 18.40136
44.279858 -96.847099 17.627197
43.976376 -98.142105 14.531085
43.040241 -99.198128 16.735254
45.896645 -89.953186 33.260342
46.662121 -89.215523 24.987068
47.15332 -87.919228 27.902706
47.584541 -86.659821 25.206295
48.549 -84.168533 25.264198
47.942204 -85.325653 22.523811
43.092697 -100.900238 8.564299
44.31831 -93.804115 29.622938
45.462666 -91.479271 30.233273
45.100189 -92.907562 27.118862
45.753029 -91.773445 24.574509
46.299812 -90.485077 22.017031
46.781654 -89.115837 19.46501
46.068161 -91.754929 19.019842
45.940422 -93.048286 16.025173
44.889687 -96.985649 12.326362
43.590107 -99.482498 11.508229
41.94606 -101.869553 10.662745
43.40398 -94.379341 32.05127
43.128639 -95.930908 28.759403
42.843468 -97.377594 25.439426
46.599201 -89.039909 30.596596
47.747696 -86.567169 30.742893
49.267349 -82.993294 27.94968
49.548912 -81.78389 25.203728
49.819092 -80.548523 22.489786
39.988655 -104.159271 9.85811
50.976677 -77.800408 21.045082
51.261291 -77.33677 22.3019
50.480093 -78.84842 21.093423
50.976677 -77.800408 21.045082
45.274729 -91.105797 33.026979
45.469912 -90.272087 34.556746
44.847996 -91.424698 34.323383
47.301123 -87.19133 21.047736
47.721601 -85.913319 21.131802
47.521725 -86.603665 22.439745
41.841825 -102.873481 6.730243
42.781582 -101.660106 7.128954
42.15294 -102.113613 8.165588
40.788732 -104.114059 6.358847
41.841825 -102.873481 6.730243
45.477092 -95.016807 14.199016
45.903078 -93.716644 14.542208
45.514437 -94.34845 15.68198
44.989069 -96.317131 13.832575
45.377711 -95.685326 12.692803
45.477092 -95.016807 14.199016
42.762003 -95.306583 31.543521
42.887259 -94.470177 33.207867
42.624333 -96.082367 29.897588
43.266309 -95.155124 30.405337
42.762003 -95.306583 31.543521
42.177737 -98.315247 24.876798
42.346525 -97.583816 26.55219
42.674456 -98.061771 23.791193
42.177737 -98.315247 24.876798
48.552246 -84.773186 29.358039
48.325413 -85.347057 30.730641
47.97453 -85.993298 29.37029
48.734356 -84.20636 27.973684
49.08524 -83.56012 29.334035
48.552246 -84.773186 29.358039
49.021095 -82.222724 21.215837
49.504559 -81.061672 21.183453
49.335628 -81.709575 22.52217
47.017482 -88.419269 18.198154
46.703066 -89.751034 18.012253
45.121218 -97.82124 8.324114
45.199907 -97.085308 9.757979
39.400644 -104.504002 10.898134
40.404056 -103.447113 11.310559
46.146168 -89.133065 34.712988
45.469912 -90.272087 34.556746
46.523426 -88.75251 33.369022
46.146168 -89.133065 34.712988
48.118755 -84.648873 21.194675
48.573736 -83.42136 21.210047
48.397184 -84.09814 22.539182
48.118755 -84.648873 21.194675
47.721601 -85.913319 21.131802
43.665177 -100.388771 7.527026
44.428414 -99.132782 7.933126
43.855934 -99.644249 8.970399
43.665177 -100.388771 7.527026
42.781582 -101.660106 7.128954
46.346319 -91.07058 17.789669
46.703066 -89.751034 18.012253
46.424908 -90.435383 19.242426
46.282449 -91.717258 16.292334
46.346319 -91.07058 17.789669
46.004292 -92.401608 17.522507
46.267006 -92.378731 14.845152
46.282449 -91.717258 16.292334
46.267006 -92.378731 14.845152
45.903078 -93.716644 14.542208
45.335165 -96.384002 11.23291
45.377711 -95.685326 12.692803
44.754429 -97.686954 10.85143
45.199907 -97.085308 9.757979
45.335165 -96.384002 11.23291
51.144287 -77.875225 23.636443
51.261291 -77.33677 22.3019
44.178944 -92.481007 34.026234
44.847996 -91.424698 34.323383
43.554527 -93.541473 33.65506
42.887259 -94.470177 33.207867
44.028396 -93.318874 32.422443
44.178944 -92.481007 34.026234
43.554527 -93.541473 33.65506
42.489111 -96.860473 28.212178
42.624333 -96.082367 29.897588
42.986053 -96.654251 27.099415
42.489111 -96.860473 28.212178
42.346525 -97.583816 26.55219
43.121975 -97.674995 22.638237
43.290987 -96.990818 24.28647
42.674456 -98.061771 23.791193
42.964819 -98.328225 21.02355
43.58135 -97.257271 21.518827
43.121975 -97.674995 22.638237
42.74864 -98.9897 19.408715
42.964819 -98.328225 21.02355
50.672127 -78.945091 23.720715
51.144287 -77.875225 23.636443
46.874704 -88.295872 32.037149
46.523426 -88.75251 33.369022
46.247923 -89.496547 31.928469
47.448952 -87.059502 32.110298
46.874704 -88.295872 32.037149
47.173448 -87.803539 30.669745
48.077362 -85.849807 32.117722
47.448952 -87.059502 32.110298
48.077362 -85.849807 32.117722
48.325413 -85.347057 30.730641
49.65209 -82.377865 29.262768
49.08524 -83.56012 29.334035
49.793464 -81.832085 27.878552
49.65209 -82.377865 29.262768
49.934246 -81.227383 26.505575
49.793464 -81.832085 27.878552
49.40813 -82.388592 26.576704
50.048004 -80.653969 25.136896
49.934246 -81.227383 26.505575
50.183094 -80.036285 23.779924
50.048004 -80.653969 25.136896
49.684002 -81.166207 23.846757
50.308124 -79.457329 22.430577
50.672127 -78.945091 23.720715
50.183094 -80.036285 23.779924
49.991061 -79.939614 21.152632
50.480093 -78.84842 21.093423
50.308124 -79.457329 22.430577
49.991061 -79.939614 21.152632
49.504559 -81.061672 21.183453
49.021095 -82.222724 21.215837
48.573736 -83.42136 21.210047
47.141327 -87.808411 19.602401
47.301123 -87.19133 21.047736
46.94145 -88.498756 20.910345
47.141327 -87.808411 19.602401
47.017482 -88.419269 18.198154
45.121218 -97.82124 8.324114
44.428414 -99.132782 7.933126
42.556663 -99.633514 17.824272
43.232218 -98.554314 18.319697
42.74864 -98.9897 19.408715
42.27796 -100.291459 16.258336
42.556663 -99.633514 17.824272
42.034782 -100.944809 14.716345
42.797064 -99.851478 15.193264
42.27796 -100.291459 16.258336
41.686672 -101.619892 13.207141
42.034782 -100.944809 14.716345
41.382759 -102.302254 11.712877
42.249973 -101.187191 12.15701
41.686672 -101.619892 13.207141
40.967358 -103.014412 10.260427
41.382759 -102.302254 11.712877
40.404056 -103.447113 11.310559
38.886723 -105.266876 9.511419
39.400644 -104.504002 10.898134
39.515079 -104.924641 8.455948
38.886723 -105.266876 9.511419
40.127344 -104.508499 7.410331
40.60092 -103.74313 8.812493
39.515079 -104.924641 8.455948
40.788732 -104.114059 6.358847
40.127344 -104.508499 7.410331
3 0 47 48
3 0 49 50
3 1 15 13
3 1 17 15
3 1 19 17
3 2 51 53
3 51 20 52
3 51 52 53
3 3 23 21
3 3 25 23
3 3 54 56
3 56 55 25
3 54 55 56
3 4 57 59
3 59 58 26
3 57 58 59
3 4 60 61
3 5 29 27
3 7 30 14
3 7 31 30
3 7 33 31
3 8 34 16
3 8 62 64
3 64 63 34
3 62 63 64
3 8 65 67
3 65 35 66
3 65 66 67
3 10 36 18
3 10 37 36
3 68 38 69
3 70 39 71
3 72 71 38
3 70 71 72
3 73 40 74
3 76 75 40
3 6 41 28
3 11 42 22
3 11 77 79
3 79 78 42
3 77 78 79
3 11 80 82
3 80 43 81
3 80 81 82
3 12 44 24
3 12 45 44
3 12 83 85
3 85 84 45
3 83 84 85
3 87 86 32
3 9 88 89
3 90 46 91
3 13 14 5
3 15 14 13
3 15 7 14
3 15 16 7
3 17 16 15
3 17 8 16
3 17 18 8
3 19 18 17
3 19 10 18
3 20 92 93
3 20 94 95
3 21 22 6
3 23 22 21
3 23 11 22
3 23 24 11
3 25 24 23
3 25 12 24
3 25 96 98
3 98 97 12
3 96 97 98
3 100 99 25
3 26 101 103
3 103 102 9
3 101 102 103
3 105 104 26
3 27 28 2
3 29 28 27
3 29 6 28
3 14 29 5
3 30 29 14
3 30 6 29
3 30 21 6
3 31 21 30
3 31 3 21
3 31 32 3
3 33 32 31
3 33 106 108
3 108 107 32
3 106 107 108
3 16 33 7
3 34 33 16
3 34 109 111
3 111 110 33
3 109 110 111
3 34 112 113
3 115 114 34
3 35 116 117
3 35 118 120
3 118 9 119
3 118 119 120
3 18 35 8
3 36 35 18
3 36 9 35
3 36 26 9
3 37 26 36
3 37 4 26
3 121 0 122
3 123 2 124
3 38 125 126
3 38 127 129
3 127 2 128
3 127 128 129
3 38 27 2
3 39 27 38
3 39 5 27
3 130 39 131
3 40 132 134
3 132 39 133
3 132 133 134
3 40 5 39
3 40 13 5
3 135 13 136
3 137 136 40
3 135 136 137
3 138 1 139
3 140 139 13
3 138 139 140
3 142 141 1
3 143 0 144
3 28 20 2
3 41 20 28
3 41 145 147
3 147 146 20
3 145 146 147
3 22 41 6
3 42 41 22
3 42 148 150
3 150 149 41
3 148 149 150
3 42 151 152
3 154 153 42
3 43 155 156
3 43 157 158
3 24 43 11
3 44 43 24
3 44 159 161
3 161 160 43
3 159 160 161
3 44 162 163
3 45 164 166
3 166 165 44
3 164 165 166
3 45 167 169
3 167 0 168
3 167 168 169
3 45 170 172
3 172 171 0
3 170 171 172
3 174 173 45
3 176 175 12
3 32 177 179
3 179 178 3
3 177 178 179
3 181 180 32
3 183 182 9
3 184 19 185
3 186 185 1
3 184 185 186
3 187 19 188
3 189 10 190
3 191 190 19
3 189 190 191
3 192 10 193
3 194 37 195
3 196 195 10
3 194 195 196
3 46 197 199
3 197 37 198
3 197 198 199
3 46 4 37
3 200 46 201
3 202 46 203
3 204 4 205
3 206 205 46
3 204 205 206
3 208 207 4
