ply
format ascii 1.0
element vertex 260
property float x
property float y
property float z
element face 248
property list uchar int vertex_index
end_header
-45.400036 -86.574341 31.810211
-57.831512 -67.949242 39.924309
-47.93259 -80.802078 39.245567
-52.697014 -73.405891 34.070724
-44.640457 -87.874329 37.736927
-42.790749 -91.902908 38.659046
-50.460625 -77.822784 41.793259
-50.152596 -77.048141 36.670296
-52.998028 -74.415344 39.276321
-55.342194 -71.262466 41.778847
-46.100227 -83.662247 35.913288
-46.188248 -82.053932 29.899471
-47.614738 -79.480537 33.597424
-49.630905 -75.47052 31.101959
-55.622501 -70.994362 36.892731
-45.80864 -84.558624 41.485371
-45.69368 -85.741776 28.758949
-45.060249 -87.309738 34.819191
-44.420307 -89.49173 35.49958
-51.720222 -76.202194 42.85355
-51.731163 -76.129845 40.536346
-53.005394 -74.577698 41.679478
-50.384644 -77.773842 44.001923
-41.655922 -93.734833 38.649895
-46.885273 -82.231979 37.683998
-46.819248 -81.558266 34.794991
-47.797455 -80.236382 36.477505
-51.373238 -75.205139 35.356232
-49.884769 -76.330811 33.915588
-51.122883 -74.452026 32.628525
-52.514946 -72.644882 31.377035
-56.569221 -69.607544 40.811756
-55.526726 -71.231201 39.403114
-56.827232 -69.554962 38.367485
-47.961578 -81.111008 41.829571
-46.875908 -82.686752 40.429222
-46.00219 -84.235931 38.788052
-46.698944 -79.833138 28.815769
-44.12402 -88.188614 40.497433
-43.048302 -90.075623 40.996407
-43.78318 -89.930923 38.338394
-49.1609 -79.344391 40.605721
-49.014355 -78.918419 37.979088
-50.365372 -77.564346 39.319336
-51.596794 -75.78154 38.010818
-52.877209 -74.010422 36.717918
-49.167027 -79.483101 43.007378
-54.115517 -72.88736 42.798927
-57.418739 -67.83799 42.290352
-41.856956 -91.841171 41.188759
-40.558403 -93.422668 41.034348
-45.611355 -85.108459 33.946144
-45.782757 -84.306335 30.910711
-46.144196 -82.911179 32.932899
-46.734764 -80.736496 31.824137
-47.452232 -78.601562 30.656368
-48.784996 -78.264343 35.209362
-48.539307 -77.44561 32.356178
-48.35025 -76.523987 29.459444
-54.263664 -72.913811 40.517456
-54.28611 -72.696236 38.050583
-54.228481 -72.269485 35.47506
-57.028397 -69.332443 35.83017
-55.668282 -70.578842 34.311798
-54.13858 -71.668228 32.843689
-45.097431 -86.229919 39.743164
-45.395126 -85.774826 36.910316
-45.961342 -83.435913 27.848604
-45.546858 -86.158059 30.28458
-45.549345 -86.899071 29.149437
-45.402523 -87.315354 30.675068
-45.178221 -87.707268 32.179791
-45.008328 -88.074966 33.68428
-45.230142 -86.942039 33.314701
-45.402523 -87.315354 30.675068
-45.178221 -87.707268 32.179791
-52.927998 -74.518047 42.759612
-52.362808 -75.389946 42.266514
-52.285411 -75.330296 43.346648
-52.285411 -75.330296 43.346648
-51.618257 -76.080506 43.860218
-46.742132 -79.368611 27.309917
-47.04155 -78.746853 28.252972
-44.029598 -90.55693 35.715047
-44.400566 -90.286202 34.286051
-57.170513 -67.69733 43.369782
-56.820736 -68.653378 42.689373
-40.476303 -94.391182 39.656216
-41.107163 -93.57875 39.842122
-41.025062 -94.547264 38.463989
-39.867928 -94.086616 40.77372
-40.476303 -94.391182 39.656216
-49.547092 -74.996193 29.680209
-48.906765 -75.522927 28.858951
-48.990578 -75.997253 30.280701
-57.768013 -68.53025 35.355841
-57.607655 -68.620834 36.631996
-55.685341 -70.293312 33.005819
-56.435154 -69.767117 33.78133
-54.92049 -70.838005 32.271764
-54.903431 -71.123535 33.577743
-55.685341 -70.293312 33.005819
-54.101841 -71.296333 31.514838
-54.92049 -70.838005 32.271764
-45.648777 -84.560592 42.699612
-46.27685 -83.706611 42.216525
-45.251865 -85.478523 41.92518
-45.648777 -84.560592 42.699612
-45.453035 -85.394272 40.614267
-44.896261 -86.31417 41.054077
-45.251865 -85.478523 41.92518
-45.746998 -86.475105 27.63479
-45.549345 -86.899071 29.149437
-45.843232 -85.306885 27.231256
-45.746998 -86.475105 27.63479
-44.688356 -89.165963 34.024475
-44.740278 -88.400734 35.159385
-45.008328 -88.074966 33.68428
-44.400566 -90.286202 34.286051
-44.688356 -89.165963 34.024475
-50.950468 -76.86633 44.434404
-50.239575 -77.57695 44.923935
-51.052433 -76.988018 43.427736
-50.950468 -76.86633 44.434404
-51.618257 -76.080506 43.860218
-42.172798 -93.695419 37.353775
-42.223335 -92.818871 38.654471
-42.740212 -92.779457 37.358351
-41.614838 -94.63475 37.244213
-42.172798 -93.695419 37.353775
-41.025062 -94.547264 38.463989
-41.614838 -94.63475 37.244213
-51.017393 -74.012306 31.245149
-50.271404 -74.521553 30.481866
-50.376894 -74.961273 31.865242
-51.713425 -73.108734 30.619404
-51.017393 -74.012306 31.245149
-51.818915 -73.548454 32.00278
-52.452299 -72.206192 30.018155
-51.713425 -73.108734 30.619404
-47.353319 -81.982803 42.388625
-47.898786 -81.107399 42.983446
-46.810484 -82.770675 41.68845
-47.353319 -81.982803 42.388625
-47.418743 -81.89888 41.129396
-46.342274 -83.622688 40.957296
-46.27685 -83.706611 42.216525
-46.810484 -82.770675 41.68845
-46.498527 -80.492619 27.834167
-46.243179 -81.603016 28.376019
-46.443596 -80.943535 29.35762
-46.498527 -80.492619 27.834167
-46.742132 -79.368611 27.309917
-43.586161 -89.132118 40.74692
-43.277375 -89.126419 42.006354
-43.815234 -88.182915 41.756867
-43.711034 -90.776527 37.134455
-44.101743 -89.711327 36.918987
-44.029598 -90.55693 35.715047
-43.214819 -91.762519 37.294781
-43.286964 -90.916916 38.49872
-43.711034 -90.776527 37.134455
-42.740212 -92.779457 37.358351
-43.214819 -91.762519 37.294781
-58.009212 -67.929234 38.679066
-58.489036 -67.130047 39.528996
-49.685034 -78.529854 44.54398
-50.239575 -77.57695 44.923935
-49.076225 -79.384484 44.046707
-49.685034 -78.529854 44.54398
-49.775835 -78.628472 43.50465
-48.501511 -80.293446 43.57235
-49.076225 -79.384484 44.046707
-48.564302 -80.297055 42.418475
-47.898786 -81.107399 42.983446
-48.501511 -80.293446 43.57235
-53.957781 -72.736107 43.800364
-53.483059 -73.672878 43.319336
-54.573014 -71.973328 43.366791
-53.957781 -72.736107 43.800364
-55.186352 -71.160881 42.856751
-54.728855 -72.074913 42.288887
-54.573014 -71.973328 43.366791
-55.782463 -70.365616 42.433621
-55.186352 -71.160881 42.856751
-56.395977 -69.538155 41.950075
-55.955708 -70.435005 41.295302
-55.782463 -70.365616 42.433621
-56.99398 -68.722767 41.551054
-56.395977 -69.538155 41.950075
-56.820736 -68.653378 42.689373
-57.758503 -66.892872 43.057225
-57.170513 -67.69733 43.369782
-58.034759 -67.015171 41.925736
-57.758503 -66.892872 43.057225
-58.241146 -67.070797 40.742714
-57.625125 -67.893616 41.107331
-58.034759 -67.015171 41.925736
-58.489036 -67.130047 39.528996
-58.241146 -67.070797 40.742714
-42.63805 -89.964485 42.192574
-43.277375 -89.126419 42.006354
-42.042377 -90.84726 42.28875
-42.63805 -89.964485 42.192574
-42.452629 -90.958397 41.092583
-41.35955 -91.606499 42.314045
-42.042377 -90.84726 42.28875
-40.710273 -92.397247 42.23684
-41.35955 -91.606499 42.314045
-41.207679 -92.63192 41.111553
-39.993688 -93.045379 42.087339
-40.710273 -92.397247 42.23684
-39.993688 -93.045379 42.087339
-39.867928 -94.086616 40.77372
-47.418194 -78.131065 29.173271
-47.04155 -78.746853 28.252972
-47.075588 -79.21735 29.736069
-47.867203 -77.092277 28.574809
-47.418194 -78.131065 29.173271
-47.901241 -77.562775 30.057906
-48.321601 -76.039002 28.003034
-47.867203 -77.092277 28.574809
-48.321601 -76.039002 28.003034
-48.906765 -75.522927 28.858951
-49.547092 -74.996193 29.680209
-50.271404 -74.521553 30.481866
-53.560456 -73.732529 42.239203
-52.927998 -74.518047 42.759612
-53.483059 -73.672878 43.319336
-57.507072 -68.732094 37.900654
-57.329372 -68.752102 39.145897
-58.009212 -67.929234 38.679066
-56.927814 -69.443703 37.098827
-57.507072 -68.732094 37.900654
-57.607655 -68.620834 36.631996
-57.115212 -69.143917 34.540516
-57.768013 -68.53025 35.355841
-56.348339 -69.955642 35.070984
-57.115212 -69.143917 34.540516
-56.435154 -69.767117 33.78133
-53.290024 -71.78466 30.781511
-53.326763 -72.156555 32.110362
-54.101841 -71.296333 31.514838
-52.452299 -72.206192 30.018155
-53.290024 -71.78466 30.781511
-44.409555 -87.293518 41.431212
-43.815234 -88.182915 41.756867
-44.610726 -87.209266 40.120299
-44.409555 -87.293518 41.431212
-44.896261 -86.31417 41.054077
-45.977063 -84.153954 26.776083
-45.843232 -85.306885 27.231256
-45.827511 -84.588844 28.303777
-46.129727 -82.294006 27.350585
-46.074795 -82.744923 28.874038
-46.243179 -81.603016 28.376019
-46.086571 -82.992965 26.322375
-46.129727 -82.294006 27.350585
-45.977063 -84.153954 26.776083
-46.086571 -82.992965 26.322375
3 0 68 70
3 68 16 69
3 68 69 70
3 0 71 73
3 73 72 17
3 71 72 73
3 0 74 75
3 76 21 77
3 78 77 19
3 76 77 78
3 79 19 80
3 2 26 24
3 3 29 27
3 3 30 29
3 1 33 31
3 2 35 34
3 2 24 35
3 82 81 37
3 4 40 38
3 84 83 18
3 6 43 41
3 8 44 20
3 8 45 44
3 6 46 22
3 6 41 46
3 85 48 86
3 5 49 39
3 87 50 88
3 89 88 23
3 87 88 89
3 91 90 50
3 10 53 51
3 12 54 25
3 12 55 54
3 7 56 42
3 13 57 28
3 13 58 57
3 13 92 94
3 94 93 58
3 92 93 94
3 9 59 47
3 14 60 32
3 14 61 60
3 95 62 96
3 97 63 98
3 99 64 100
3 101 100 63
3 99 100 101
3 103 102 64
3 15 104 105
3 15 106 107
3 15 108 110
3 108 65 109
3 108 109 110
3 10 66 36
3 10 51 66
3 11 67 52
3 16 111 112
3 16 113 114
3 17 18 4
3 115 18 116
3 117 116 17
3 115 116 117
3 119 118 18
3 19 20 6
3 21 20 19
3 21 8 20
3 120 22 121
3 19 122 124
3 122 22 123
3 122 123 124
3 19 6 22
3 125 23 126
3 127 126 5
3 125 126 127
3 128 23 129
3 131 130 23
3 24 25 10
3 26 25 24
3 26 12 25
3 27 28 7
3 29 28 27
3 29 13 28
3 29 132 134
3 134 133 13
3 132 133 134
3 30 135 137
3 137 136 29
3 135 136 137
3 30 138 139
3 31 32 9
3 33 32 31
3 33 14 32
3 34 140 141
3 35 142 144
3 144 143 34
3 142 143 144
3 35 145 147
3 145 15 146
3 145 146 147
3 35 36 15
3 24 36 35
3 24 10 36
3 37 148 150
3 150 149 11
3 148 149 150
3 152 151 37
3 38 153 155
3 153 39 154
3 153 154 155
3 40 39 38
3 40 5 39
3 18 40 4
3 156 40 157
3 158 157 18
3 156 157 158
3 159 5 160
3 161 160 40
3 159 160 161
3 163 162 5
3 41 42 2
3 43 42 41
3 43 7 42
3 20 43 6
3 44 43 20
3 44 7 43
3 44 27 7
3 45 27 44
3 45 3 27
3 165 164 1
3 22 166 167
3 46 168 170
3 170 169 22
3 168 169 170
3 46 171 172
3 46 173 175
3 173 34 174
3 173 174 175
3 41 34 46
3 41 2 34
3 176 47 177
3 178 47 179
3 180 9 181
3 182 181 47
3 180 181 182
3 183 9 184
3 185 31 186
3 187 186 9
3 185 186 187
3 48 188 190
3 188 31 189
3 188 189 190
3 48 1 31
3 191 48 192
3 193 48 194
3 195 1 196
3 197 196 48
3 195 196 197
3 199 198 1
3 39 200 201
3 49 202 204
3 204 203 39
3 202 203 204
3 49 205 206
3 23 49 5
3 50 49 23
3 50 207 209
3 209 208 49
3 207 208 209
3 50 210 211
3 213 212 50
3 51 52 0
3 53 52 51
3 53 11 52
3 25 53 10
3 54 53 25
3 54 11 53
3 54 37 11
3 55 37 54
3 55 214 216
3 216 215 37
3 214 215 216
3 42 26 2
3 56 26 42
3 56 12 26
3 28 56 7
3 57 56 28
3 57 12 56
3 57 55 12
3 58 55 57
3 58 217 219
3 219 218 55
3 217 218 219
3 58 220 221
3 223 222 58
3 225 224 13
3 47 226 228
3 226 21 227
3 226 227 228
3 59 21 47
3 59 8 21
3 32 59 9
3 60 59 32
3 60 8 59
3 60 45 8
3 61 45 60
3 61 3 45
3 229 33 230
3 231 230 1
3 229 230 231
3 62 232 234
3 232 33 233
3 232 233 234
3 62 14 33
3 235 62 236
3 63 237 239
3 237 62 238
3 237 238 239
3 63 14 62
3 63 61 14
3 64 61 63
3 64 3 61
3 64 30 3
3 240 30 241
3 242 241 64
3 240 241 242
3 244 243 30
3 245 38 246
3 65 247 249
3 247 38 248
3 247 248 249
3 65 4 38
3 36 65 15
3 66 65 36
3 66 4 65
3 66 17 4
3 51 17 66
3 51 0 17
3 52 16 0
3 67 16 52
3 67 250 252
3 252 251 16
3 250 251 252
3 253 67 254
3 255 254 11
3 253 254 255
3 256 67 257
3 259 258 67
