ply
format ascii 1.0
element vertex 247
property float x
property float y
property float z
element face 233
property list uchar int vertex_index
end_header
12.677906 -62.003616 -3.394693
12.822594 -64.293381 -8.120504
12.382881 -65.674911 -12.314407
13.901382 -58.575817 -10.567568
11.957544 -64.965622 -10.221846
14.279205 -58.842766 -12.950336
15.907524 -59.106659 -15.174166
13.797455 -68.181259 -3.121788
12.796566 -69.857094 -5.229876
13.505239 -63.422733 -5.883423
13.799772 -58.257832 -8.07918
10.7612 -71.066315 -7.102386
14.811499 -66.325272 -14.361176
19.052685 -59.143604 -17.196535
12.495409 -65.775375 -0.614498
13.983379 -58.70631 -11.773909
15.782816 -55.935265 -14.121168
13.401791 -65.040329 -3.361145
13.620647 -65.895744 -4.562107
13.331127 -62.801777 -4.671482
12.702389 -67.139664 -6.716135
11.790594 -70.495834 -6.17457
11.916557 -67.6147 -7.710262
11.939085 -65.312637 -11.267498
10.802307 -68.49913 -9.696398
10.855837 -68.960403 -10.732397
11.466238 -69.427353 -11.795397
12.647247 -69.862221 -12.864479
13.345701 -66.027527 -13.350517
17.761473 -55.921703 -16.461657
17.307846 -59.175648 -16.206743
19.231808 -55.81583 -17.545038
13.441221 -68.854202 -0.358341
12.263201 -67.321304 0.968516
21.16596 -62.574894 -17.711512
13.211567 -61.409458 -9.412479
12.311895 -64.633682 -9.177404
13.000383 -61.637829 -10.540804
12.989708 -61.871696 -11.649067
13.323002 -62.120834 -12.737236
14.091251 -62.37291 -13.797039
14.899818 -58.983231 -14.087383
16.609543 -55.949375 -15.322001
13.78348 -71.373878 -2.69133
13.034046 -72.359116 -3.68811
13.533152 -69.099518 -4.222702
13.3388 -66.58255 -5.676107
13.28521 -63.905117 -7.029369
13.334946 -60.431179 -5.823385
13.538826 -60.846622 -7.061924
13.449326 -61.158653 -8.256298
13.890337 -58.435661 -9.335798
11.211327 -68.055603 -8.69368
9.955336 -71.61573 -8.059738
16.70108 -66.512054 -15.3416
15.321262 -62.594326 -14.817795
16.976421 -62.736992 -15.796865
18.966911 -62.747322 -16.749128
21.050074 -58.962517 -18.175417
13.950823 -70.20816 -1.582958
13.462547 -67.076385 -1.916433
12.616789 -63.989433 -2.076269
19.411582 -54.33456 -17.618277
18.49664 -55.868766 -17.003348
18.676414 -54.387497 -17.076586
20.133823 -54.18397 -18.20707
19.411582 -54.33456 -17.618277
12.077691 -67.963478 1.81364
12.774697 -68.829521 1.13435
12.589187 -69.471695 1.979473
22.297926 -62.376705 -18.225333
22.172708 -60.582379 -18.452818
17.02825 -54.568581 -15.250644
16.196179 -55.94232 -14.721585
16.614887 -54.561526 -14.650227
17.500412 -54.501999 -15.893921
17.02825 -54.568581 -15.250644
13.117175 -59.041527 -5.661943
13.040666 -60.151027 -5.183321
13.669299 -59.552227 -7.570552
13.518756 -59.427479 -6.930325
13.649229 -58.133083 -7.438952
12.34255 -71.524982 -4.916421
12.461289 -72.775993 -4.145538
12.915306 -71.108105 -4.458993
10.678185 -72.493802 -6.294719
11.192882 -72.208561 -5.830811
11.275897 -70.781075 -6.638478
10.091784 -72.831395 -6.751375
10.678185 -72.493802 -6.294719
9.767713 -71.895012 -8.569085
10.378822 -70.05743 -8.878068
10.191199 -70.336712 -9.387415
9.096884 -73.717824 -8.236009
9.284507 -73.438541 -7.726662
9.767713 -71.895012 -8.569085
14.575481 -68.267762 -14.139115
13.493355 -70.036236 -13.390767
13.729373 -68.093747 -13.612827
15.75629 -66.418663 -14.851388
15.520272 -68.361153 -14.629327
14.575481 -68.267762 -14.139115
13.97982 -71.06617 -0.770096
13.978955 -71.77359 -1.338429
14.440613 -57.286955 -11.675311
13.94238 -58.641064 -11.170738
14.399614 -57.221708 -11.07214
14.611857 -57.305473 -12.320937
14.440613 -57.286955 -11.675311
14.75977 -57.373701 -12.90915
14.131292 -58.774538 -12.362122
14.611857 -57.305473 -12.320937
15.511576 -55.91995 -13.494566
15.031011 -57.389015 -13.535752
14.75977 -57.373701 -12.90915
16.256814 -54.606406 -13.978658
15.511576 -55.91995 -13.494566
16.614887 -54.561526 -14.650227
16.256814 -54.606406 -13.978658
13.847519 -56.936768 -7.837206
13.649229 -58.133083 -7.438952
14.072147 -57.000395 -8.505171
13.847519 -56.936768 -7.837206
10.217963 -70.567349 -9.905414
10.191199 -70.336712 -9.387415
10.829072 -68.729766 -10.214398
10.314224 -70.852985 -10.448799
10.217963 -70.567349 -9.905414
10.619425 -71.08646 -10.980299
10.314224 -70.852985 -10.448799
11.161037 -69.193878 -11.263897
11.025596 -71.365475 -11.548227
10.619425 -71.08646 -10.980299
12.056743 -69.644787 -12.329938
11.6161 -71.582909 -12.082769
11.025596 -71.365475 -11.548227
20.100527 -55.703051 -18.070492
20.010965 -57.366938 -17.89624
19.142246 -57.479717 -17.370787
20.100527 -55.703051 -18.070492
20.133823 -54.18397 -18.20707
13.363706 -69.59597 0.470921
13.72502 -70.38919 -0.157787
12.852211 -68.087753 0.305088
13.363706 -69.59597 0.470921
12.774697 -68.829521 1.13435
12.712146 -60.937246 -3.968975
12.211838 -60.563881 -3.312779
21.195017 -64.454218 -17.505333
20.027421 -64.553056 -17.009586
21.195017 -64.454218 -17.505333
22.297926 -62.376705 -18.225333
18.076377 -54.488163 -16.463749
17.185508 -55.935539 -15.891829
17.500412 -54.501999 -15.893921
18.676414 -54.387497 -17.076586
18.076377 -54.488163 -16.463749
13.408763 -71.866497 -3.18972
13.184036 -73.464493 -2.896837
13.558753 -72.971874 -2.398447
13.038756 -61.336326 -4.607369
13.004517 -62.402697 -4.033088
12.712146 -60.937246 -3.968975
13.333037 -61.616478 -5.247433
13.038756 -61.336326 -4.607369
13.040666 -60.151027 -5.183321
13.416816 -59.219757 -6.311055
13.117175 -59.041527 -5.661943
13.436886 -60.638901 -6.442654
13.416816 -59.219757 -6.311055
13.518756 -59.427479 -6.930325
14.117429 -57.089309 -9.13348
13.845054 -58.346747 -8.707489
14.072147 -57.000395 -8.505171
14.265663 -57.127459 -9.798409
14.117429 -57.089309 -9.13348
14.271185 -57.197536 -10.414295
13.89586 -58.505739 -9.951683
14.265663 -57.127459 -9.798409
14.399614 -57.221708 -11.07214
14.271185 -57.197536 -10.414295
12.589749 -73.993324 -3.352073
13.184036 -73.464493 -2.896837
12.589749 -73.993324 -3.352073
12.461289 -72.775993 -4.145538
11.839564 -71.844352 -5.388768
12.34255 -71.524982 -4.916421
12.29358 -70.176464 -5.702223
11.839564 -71.844352 -5.388768
11.192882 -72.208561 -5.830811
9.688852 -73.106102 -7.230051
10.091784 -72.831395 -6.751375
10.358268 -71.341023 -7.581062
9.688852 -73.106102 -7.230051
9.284507 -73.438541 -7.726662
12.317054 -71.830677 -12.658154
11.6161 -71.582909 -12.082769
12.317054 -71.830677 -12.658154
13.493355 -70.036236 -13.390767
16.563963 -68.461449 -15.142906
15.520272 -68.361153 -14.629327
17.794981 -66.521636 -15.82463
16.563963 -68.461449 -15.142906
18.927896 -64.63927 -16.528394
17.794981 -66.521636 -15.82463
17.833996 -64.629688 -16.045364
20.066435 -62.661108 -17.23032
20.027421 -64.553056 -17.009586
18.927896 -64.63927 -16.528394
22.114765 -58.77619 -18.68477
22.172708 -60.582379 -18.452818
21.108017 -60.768705 -17.943464
21.00966 -57.276394 -18.385681
20.051379 -59.053061 -17.685976
20.010965 -57.366938 -17.89624
21.968614 -57.083683 -18.916405
21.00966 -57.276394 -18.385681
23.033305 -56.897356 -19.425759
22.114765 -58.77619 -18.68477
21.968614 -57.083683 -18.916405
13.895284 -72.356449 -1.892614
13.558753 -72.971874 -2.398447
13.867152 -70.791019 -2.137144
13.895284 -72.356449 -1.892614
13.978955 -71.77359 -1.338429
13.696022 -69.531181 -0.97065
13.97982 -71.06617 -0.770096
13.72502 -70.38919 -0.157787
11.389392 -66.47454 1.674041
12.077691 -67.963478 1.81364
11.608277 -65.801147 0.86876
11.389392 -66.47454 1.674041
11.724381 -65.028183 0.077253
12.379305 -66.548339 0.177009
11.608277 -65.801147 0.86876
11.889678 -64.251368 -0.666627
11.724381 -65.028183 0.077253
11.950368 -63.358396 -1.397512
12.556099 -64.882404 -1.345384
11.889678 -64.251368 -0.666627
12.075377 -62.492452 -2.068982
11.950368 -63.358396 -1.397512
12.105935 -61.499544 -2.728194
12.647348 -62.996524 -2.735481
12.075377 -62.492452 -2.068982
12.211838 -60.563881 -3.312779
12.105935 -61.499544 -2.728194
3 0 19 17
3 1 22 20
3 2 25 23
3 2 26 25
3 2 28 26
3 62 31 63
3 64 63 29
3 62 63 64
3 66 65 31
3 67 33 68
3 67 68 69
3 71 70 34
3 3 37 35
3 5 38 15
3 5 39 38
3 5 41 39
3 72 42 73
3 74 73 16
3 72 73 74
3 76 75 42
3 7 45 43
3 9 46 18
3 9 47 46
3 77 48 78
3 10 79 81
3 79 49 80
3 79 80 81
3 10 50 49
3 10 51 50
3 8 82 84
3 84 83 44
3 82 83 84
3 11 85 87
3 87 86 21
3 85 86 87
3 11 88 89
3 4 52 36
3 90 53 91
3 92 91 24
3 90 91 92
3 95 94 53
3 93 94 95
3 12 96 98
3 98 97 27
3 96 97 98
3 12 99 101
3 99 54 100
3 99 100 101
3 6 55 40
3 13 56 30
3 13 57 56
3 13 58 57
3 102 59 103
3 14 60 32
3 14 61 60
3 104 15 105
3 106 105 3
3 104 105 106
3 107 15 108
3 109 5 110
3 111 110 15
3 109 110 111
3 112 16 113
3 114 113 5
3 112 113 114
3 115 16 116
3 118 117 16
3 17 18 7
3 19 18 17
3 19 9 18
3 119 10 120
3 122 121 10
3 20 21 8
3 22 21 20
3 22 11 21
3 23 24 4
3 25 24 23
3 25 123 125
3 125 124 24
3 123 124 125
3 25 126 127
3 26 128 130
3 130 129 25
3 128 129 130
3 26 131 132
3 26 133 135
3 133 27 134
3 133 134 135
3 28 27 26
3 28 12 27
3 29 30 6
3 31 30 29
3 31 13 30
3 31 136 138
3 138 137 13
3 136 137 138
3 140 139 31
3 141 32 142
3 33 143 145
3 143 32 144
3 143 144 145
3 33 14 32
3 147 146 0
3 34 148 149
3 151 150 34
3 35 36 1
3 37 36 35
3 37 4 36
3 15 37 3
3 38 37 15
3 38 4 37
3 38 23 4
3 39 23 38
3 39 2 23
3 39 40 2
3 41 40 39
3 41 6 40
3 16 41 5
3 42 41 16
3 42 6 41
3 42 29 6
3 152 29 153
3 154 153 42
3 152 153 154
3 156 155 29
3 43 157 159
3 157 44 158
3 157 158 159
3 45 44 43
3 45 8 44
3 18 45 7
3 46 45 18
3 46 8 45
3 46 20 8
3 47 20 46
3 47 1 20
3 160 19 161
3 162 161 0
3 160 161 162
3 48 163 165
3 163 19 164
3 163 164 165
3 48 9 19
3 166 48 167
3 49 168 170
3 168 48 169
3 168 169 170
3 49 9 48
3 49 47 9
3 50 47 49
3 50 1 47
3 50 35 1
3 51 35 50
3 51 3 35
3 171 51 172
3 173 172 10
3 171 172 173
3 174 51 175
3 176 3 177
3 178 177 51
3 176 177 178
3 180 179 3
3 44 181 182
3 184 183 44
3 21 185 187
3 187 186 8
3 185 186 187
3 189 188 21
3 36 22 1
3 52 22 36
3 52 11 22
3 24 52 4
3 53 52 24
3 53 11 52
3 53 190 192
3 192 191 11
3 190 191 192
3 194 193 53
3 27 195 196
3 198 197 27
3 54 199 200
3 54 201 202
3 40 28 2
3 55 28 40
3 55 12 28
3 30 55 6
3 56 55 30
3 56 12 55
3 56 54 12
3 57 54 56
3 57 203 205
3 205 204 54
3 203 204 205
3 57 206 208
3 206 34 207
3 206 207 208
3 58 34 57
3 58 209 211
3 211 210 34
3 209 210 211
3 212 58 213
3 214 213 13
3 212 213 214
3 215 58 216
3 219 218 58
3 217 218 219
3 220 43 221
3 59 222 224
3 222 43 223
3 222 223 224
3 59 7 43
3 32 225 227
3 225 59 226
3 225 226 227
3 60 59 32
3 60 7 59
3 60 17 7
3 61 17 60
3 61 0 17
3 228 33 229
3 230 33 231
3 232 14 233
3 234 233 33
3 232 233 234
3 235 14 236
3 237 61 238
3 239 238 14
3 237 238 239
3 240 61 241
3 242 0 243
3 244 243 61
3 242 243 244
3 246 245 0
