ply
format ascii 1.0
element vertex 255
property float x
property float y
property float z
element face 251
property list uchar int vertex_index
end_header
-68.003006 -27.671547 32.635239
-66.352745 -37.944107 32.335854
-64.977539 -29.977272 26.030949
-64.855545 -26.093304 39.93103
-59.737701 -40.119843 25.772535
-67.461227 -31.657665 35.746399
-67.41066 -36.667393 35.842896
-67.554977 -32.827187 32.23822
-62.331608 -35.142567 25.972088
-68.35347 -23.570541 29.819033
-67.400574 -28.837246 29.082268
-67.113098 -24.725925 26.402802
-65.757217 -30.715813 39.051846
-66.987862 -26.686222 36.331604
-67.961021 -22.543808 33.664902
-65.777985 -34.031044 28.882267
-63.592518 -39.139317 28.943697
-55.625782 -40.762283 22.665384
-67.764069 -29.68429 34.148975
-67.734833 -32.226421 33.997829
-67.861252 -30.256207 32.352554
-67.116035 -37.305183 34.093006
-65.528191 -40.501293 32.379028
-68.489502 -21.517826 28.453156
-67.953323 -24.149708 28.03512
-67.948891 -22.091818 26.710823
-63.961723 -28.132851 40.988983
-64.46447 -30.37859 40.57402
-65.284546 -28.373444 39.360809
-66.4086 -28.720032 37.677895
-66.025475 -26.331915 38.148361
-67.2789 -22.17202 35.648624
-68.36245 -20.476494 32.293846
-66.411392 -29.418968 27.474474
-66.680046 -31.445812 28.918613
-65.395813 -32.022614 27.372395
-60.966202 -37.669647 25.93516
-62.979156 -37.154953 27.382515
-61.751144 -39.663235 27.33568
-62.51931 -41.636131 28.846973
-67.078735 -33.592556 37.414574
-67.231995 -36.056747 37.536575
-67.529617 -34.157257 35.737156
-67.52771 -34.763847 34.00132
-67.049644 -35.386841 32.256302
-63.547188 -25.972803 41.691284
-63.699287 -32.573311 25.979103
-60.173248 -35.64798 24.697313
-58.789612 -38.131783 24.555332
-68.194611 -25.628204 31.200016
-67.926605 -28.246832 30.818127
-67.950882 -26.206625 29.388714
-67.261597 -26.791681 27.697716
-66.120331 -27.359549 26.169609
-66.222534 -33.09354 38.994064
-66.780746 -31.146793 37.440361
-67.259109 -29.163479 35.935448
-67.670273 -27.141178 34.486046
-65.656441 -24.022743 38.823429
-66.689796 -24.259285 36.918926
-67.50338 -24.62162 35.001228
-68.027161 -25.088297 33.084858
-68.339882 -23.022305 31.710041
-68.613861 -20.965225 30.328539
-67.506157 -30.851418 30.592617
-66.899773 -33.435219 30.517742
-66.101585 -36.003563 30.55022
-64.231308 -34.60228 27.363398
-64.721848 -36.596802 28.919693
-65.156403 -38.561485 30.611584
-64.164261 -41.100922 30.598343
-57.661674 -40.493271 24.226547
-66.438633 -38.901506 33.257584
-66.820278 -38.582044 34.13616
-66.73439 -37.624645 33.21443
-65.940468 -39.2227 32.357441
-66.026356 -40.180099 33.279171
-66.438633 -38.901506 33.257584
-68.277615 -20.789053 26.884453
-68.219197 -21.804822 27.581989
-68.547921 -20.502057 27.75562
-60.216957 -41.10369 26.44473
-61.223678 -40.875386 27.226302
-60.744422 -39.891539 26.554108
-62.854414 -25.966921 42.572022
-63.029535 -26.984555 42.138016
-59.01786 -35.880083 24.103451
-59.780712 -34.618151 24.170212
-58.326042 -37.121984 24.032461
-59.48143 -36.889882 24.626323
-59.01786 -35.880083 24.103451
-67.302814 -37.608419 36.777314
-67.213482 -37.303097 37.624153
-67.321327 -36.36207 36.689735
-65.391532 -31.696793 39.753147
-64.745159 -31.528182 40.514235
-65.110844 -30.547201 39.812933
-65.989875 -31.904677 39.022955
-65.624191 -32.885656 39.724256
-65.391532 -31.696793 39.753147
-66.008556 -22.978958 38.23118
-65.463989 -22.935083 39.225493
-66.525234 -23.097229 37.278928
-66.173119 -24.141014 37.871178
-66.008556 -22.978958 38.23118
-68.659439 -19.704074 30.593585
-68.488156 -20.720859 31.311193
-68.533733 -19.459708 31.576239
-68.73143 -19.951207 29.616141
-68.659439 -19.704074 30.593585
-62.891994 -42.613876 29.623287
-62.087972 -42.838486 28.6849
-56.092106 -39.644798 22.936904
-54.999944 -39.798233 22.260623
-56.643728 -40.627777 23.445965
-57.110052 -39.510292 23.717486
-56.092106 -39.644798 22.936904
-67.103584 -38.25204 35.032038
-67.250896 -37.933145 35.906982
-67.263347 -36.986288 34.967951
-67.103584 -38.25204 35.032038
-66.820278 -38.582044 34.13616
-65.680577 -41.461013 33.265514
-66.026356 -40.180099 33.279171
-65.10899 -41.771969 32.327267
-65.261375 -42.73169 33.213752
-65.680577 -41.461013 33.265514
-64.213097 -29.25572 40.781501
-63.722107 -30.258719 41.297866
-63.470733 -29.135849 41.505348
-67.121689 -21.012643 36.000326
-66.819786 -22.053596 36.643777
-67.535194 -21.133085 34.979839
-67.121689 -21.012643 36.000326
-67.876255 -21.318979 33.987978
-67.61996 -22.357914 34.656763
-67.535194 -21.133085 34.979839
-68.076969 -20.285322 33.30245
-68.161735 -21.510151 32.979374
-67.876255 -21.318979 33.987978
-68.293114 -19.263683 32.588408
-68.076969 -20.285322 33.30245
-68.533733 -19.459708 31.576239
-68.293114 -19.263683 32.588408
-61.607761 -41.861834 27.981949
-62.135227 -40.649683 28.091327
-61.223678 -40.875386 27.226302
-62.087972 -42.838486 28.6849
-61.607761 -41.861834 27.981949
-54.671957 -40.83057 21.862829
-54.999944 -39.798233 22.260623
-67.155365 -34.824652 37.475575
-66.918057 -35.777946 38.331661
-66.841426 -34.545851 38.270661
-63.236803 -28.064579 41.786865
-63.470733 -29.135849 41.505348
-63.754455 -27.052827 41.340134
-63.236803 -28.064579 41.786865
-63.029535 -26.984555 42.138016
-63.424357 -31.53993 25.374323
-64.338413 -31.275291 26.005026
-64.063482 -30.241911 25.400246
-62.682212 -32.834402 25.360625
-63.424357 -31.53993 25.374323
-61.998373 -34.11903 25.357117
-63.015448 -33.857939 25.975595
-62.682212 -32.834402 25.360625
-60.919193 -34.371736 24.719729
-59.780712 -34.618151 24.170212
-61.252428 -35.395274 25.334701
-61.998373 -34.11903 25.357117
-60.919193 -34.371736 24.719729
-67.032425 -36.998065 38.444416
-66.918057 -35.777946 38.331661
-67.032425 -36.998065 38.444416
-67.213482 -37.303097 37.624153
-67.302814 -37.608419 36.777314
-67.250896 -37.933145 35.906982
-67.947033 -21.068314 26.037491
-68.277615 -20.789053 26.884453
-67.461792 -22.371733 25.926996
-67.947033 -21.068314 26.037491
-67.043895 -23.688786 25.772986
-67.530994 -23.408872 26.556812
-67.461792 -22.371733 25.926996
-66.473854 -25.00058 25.681248
-67.043895 -23.688786 25.772986
-65.97747 -26.317391 25.564652
-66.616715 -26.042737 26.286206
-66.473854 -25.00058 25.681248
-65.336231 -27.628265 25.501854
-65.97747 -26.317391 25.564652
-64.764836 -28.937126 25.432524
-65.548935 -28.668411 26.100279
-65.336231 -27.628265 25.501854
-64.063482 -30.241911 25.400246
-64.764836 -28.937126 25.432524
-64.014357 -31.366081 41.185712
-63.722107 -30.258719 41.297866
-64.014357 -31.366081 41.185712
-64.745159 -31.528182 40.514235
-65.898735 -34.054701 39.78619
-65.624191 -32.885656 39.724256
-66.413326 -34.296343 39.060406
-65.898735 -34.054701 39.78619
-66.650634 -33.343048 38.204319
-66.841426 -34.545851 38.270661
-66.413326 -34.296343 39.060406
-63.368889 -24.958281 42.150627
-62.854414 -25.966921 42.572022
-64.008728 -24.9463 41.203602
-63.368889 -24.958281 42.150627
-64.662907 -25.006551 40.323475
-64.201367 -26.033054 40.811157
-64.008728 -24.9463 41.203602
-65.063355 -23.97127 39.769674
-65.463989 -22.935083 39.225493
-65.255993 -25.058023 39.377229
-64.662907 -25.006551 40.323475
-65.063355 -23.97127 39.769674
-66.984348 -23.215652 36.283775
-66.525234 -23.097229 37.278928
-66.819786 -22.053596 36.643777
-68.669251 -20.227508 28.67845
-68.551682 -21.241526 29.390847
-68.73143 -19.951207 29.616141
-68.547921 -20.502057 27.75562
-68.669251 -20.227508 28.67845
-64.427025 -42.071783 31.436924
-65.10899 -41.771969 32.327267
-64.846226 -40.801108 31.488685
-63.71447 -42.346272 30.498972
-63.341786 -41.368527 29.722658
-62.891994 -42.613876 29.623287
-64.427025 -42.071783 31.436924
-63.71447 -42.346272 30.498972
-57.674021 -38.329548 23.881878
-58.326042 -37.121984 24.032461
-58.225643 -39.312527 24.39094
-57.674021 -38.329548 23.881878
-57.110052 -39.510292 23.717486
-55.415106 -41.747755 22.247202
-54.671957 -40.83057 21.862829
-56.284546 -41.710865 23.148948
-55.415106 -41.747755 22.247202
-57.302492 -41.576359 23.92953
-56.643728 -40.627777 23.445965
-56.284546 -41.710865 23.148948
-58.232489 -41.46454 24.806988
-57.302492 -41.576359 23.92953
-59.270502 -41.277827 25.579982
-58.699687 -40.306557 24.999541
-58.232489 -41.46454 24.806988
-60.216957 -41.10369 26.44473
-59.270502 -41.277827 25.579982
3 0 20 18
3 1 72 74
3 74 73 21
3 72 73 74
3 1 75 77
3 75 22 76
3 75 76 77
3 78 25 79
3 80 79 23
3 78 79 80
3 3 28 26
3 3 30 28
3 2 35 33
3 4 38 36
3 4 81 83
3 83 82 38
3 81 82 83
3 5 42 40
3 7 43 19
3 7 44 43
3 84 45 85
3 86 47 87
3 88 48 89
3 90 89 47
3 88 89 90
3 6 91 93
3 93 92 41
3 91 92 93
3 9 51 49
3 11 52 24
3 11 53 52
3 12 94 96
3 96 95 27
3 94 95 96
3 12 97 99
3 97 54 98
3 97 98 99
3 12 55 54
3 13 56 29
3 13 57 56
3 100 58 101
3 102 59 103
3 104 103 58
3 102 103 104
3 14 60 31
3 14 61 60
3 14 62 61
3 105 63 106
3 107 106 32
3 105 106 107
3 109 108 63
3 10 64 50
3 15 65 34
3 15 66 65
3 8 67 46
3 16 68 37
3 16 69 68
3 16 70 69
3 111 110 39
3 17 112 113
3 17 114 116
3 114 71 115
3 114 115 116
3 18 19 5
3 20 19 18
3 20 7 19
3 21 117 119
3 119 118 6
3 117 118 119
3 121 120 21
3 22 122 123
3 22 124 126
3 124 125 126
3 23 24 9
3 25 24 23
3 25 11 24
3 26 127 129
3 127 27 128
3 127 128 129
3 28 27 26
3 28 12 27
3 28 29 12
3 30 29 28
3 30 13 29
3 130 31 131
3 132 31 133
3 134 14 135
3 136 135 31
3 134 135 136
3 137 32 138
3 139 138 14
3 137 138 139
3 140 32 141
3 143 142 32
3 33 34 10
3 35 34 33
3 35 15 34
3 36 37 8
3 38 37 36
3 38 16 37
3 38 39 16
3 144 39 145
3 146 145 38
3 144 145 146
3 148 147 39
3 149 17 150
3 40 151 153
3 151 41 152
3 151 152 153
3 42 41 40
3 42 6 41
3 19 42 5
3 43 42 19
3 43 6 42
3 43 21 6
3 44 21 43
3 44 1 21
3 154 26 155
3 45 156 158
3 156 26 157
3 156 157 158
3 45 3 26
3 159 46 160
3 161 160 2
3 159 160 161
3 162 46 163
3 164 8 165
3 166 165 46
3 164 165 166
3 47 167 168
3 47 169 171
3 169 8 170
3 169 170 171
3 47 36 8
3 48 36 47
3 48 4 36
3 41 172 173
3 175 174 41
3 177 176 6
3 49 50 0
3 51 50 49
3 51 10 50
3 24 51 9
3 52 51 24
3 52 10 51
3 52 33 10
3 53 33 52
3 53 2 33
3 178 25 179
3 180 25 181
3 182 11 183
3 184 183 25
3 182 183 184
3 185 11 186
3 187 53 188
3 189 188 11
3 187 188 189
3 190 53 191
3 192 2 193
3 194 193 53
3 192 193 194
3 196 195 2
3 27 197 198
3 200 199 27
3 54 201 202
3 54 203 204
3 54 205 207
3 205 40 206
3 205 206 207
3 55 40 54
3 55 5 40
3 29 55 12
3 56 55 29
3 56 5 55
3 56 18 5
3 57 18 56
3 57 0 18
3 208 45 209
3 210 45 211
3 212 3 213
3 214 213 45
3 212 213 214
3 58 215 216
3 58 217 219
3 217 3 218
3 217 218 219
3 58 30 3
3 59 30 58
3 59 13 30
3 31 220 222
3 220 59 221
3 220 221 222
3 60 59 31
3 60 13 59
3 60 57 13
3 61 57 60
3 61 0 57
3 61 49 0
3 62 49 61
3 62 9 49
3 32 62 14
3 63 62 32
3 63 9 62
3 63 23 9
3 223 23 224
3 225 224 63
3 223 224 225
3 227 226 23
3 50 20 0
3 64 20 50
3 64 7 20
3 34 64 10
3 65 64 34
3 65 7 64
3 65 44 7
3 66 44 65
3 66 1 44
3 46 35 2
3 67 35 46
3 67 15 35
3 37 67 8
3 68 67 37
3 68 15 67
3 68 66 15
3 69 66 68
3 69 1 66
3 69 22 1
3 70 22 69
3 70 228 230
3 230 229 22
3 228 229 230
3 39 70 16
3 231 70 232
3 233 232 39
3 231 232 233
3 235 234 70
3 236 48 237
3 71 238 240
3 238 48 239
3 238 239 240
3 71 4 48
3 241 17 242
3 243 17 244
3 245 71 246
3 247 246 17
3 245 246 247
3 248 71 249
3 250 4 251
3 252 251 71
3 250 251 252
3 254 253 4
