ply
format ascii 1.0
element vertex 237
property float x
property float y
property float z
element face 241
property list uchar int vertex_index
end_header
7.276403 -39.232185 87.989426
0.329411 -39.221603 89.858299
5.003653 -47.254166 90.485321
16.384811 -38.399025 83.443306
12.452198 -45.740738 86.873161
-0.048866 -43.291653 89.421875
11.681091 -38.806812 85.741203
14.099585 -41.721596 85.72065
9.753593 -42.361477 88.117363
3.39744 -39.459644 89.596306
5.741959 -43.015503 89.964981
2.365828 -43.419659 90.572456
2.259863 -47.585098 90.074715
14.301031 -35.69104 82.516678
9.697006 -35.835228 85.070488
5.534178 -35.755024 87.510277
8.516542 -46.546989 89.201897
9.429066 -39.028198 86.901794
10.627853 -40.511208 87.070427
8.45997 -40.797413 88.176071
1.743849 -39.41362 89.932739
2.747295 -41.407906 90.255859
1.236917 -41.408066 90.251717
1.055355 -45.482201 89.85891
15.858736 -34.192505 80.798576
13.503807 -34.222866 82.106544
11.954687 -35.778481 83.772316
18.799332 -38.235703 82.367119
17.497845 -39.772419 83.559982
13.193846 -43.63736 86.440025
15.3242 -43.312752 85.136169
14.490082 -45.363171 85.536087
5.288498 -45.082809 90.423615
7.106737 -44.747978 89.776505
6.686399 -46.929428 90.020737
-0.815891 -38.866585 89.333305
-0.013865 -41.255096 89.799248
14.006601 -38.591888 84.574165
15.168248 -39.985161 84.71608
12.872063 -40.234451 85.897636
11.899948 -42.028015 86.949196
11.095837 -43.996239 87.695511
4.833925 -49.503807 90.152245
6.383398 -49.21973 89.881256
5.254108 -39.387711 88.918884
6.399061 -41.065872 89.135803
4.48147 -41.281998 89.858994
3.953123 -43.268112 90.465103
3.645273 -45.340858 90.690918
1.020853 -43.435642 90.231918
2.221357 -45.48436 90.513428
3.513821 -47.484035 90.518761
3.495922 -49.674194 89.960327
17.730053 -36.918934 81.940712
18.280376 -34.139774 79.599052
16.717743 -35.592041 81.344025
15.291819 -37.060387 83.031967
12.907627 -37.214493 84.195648
10.595459 -37.367325 85.403702
8.376982 -37.497765 86.603043
7.548897 -35.836792 86.345467
6.277842 -37.5783 87.717285
4.32757 -37.577309 88.653954
2.558781 -37.46294 89.316086
1.005121 -37.208076 89.616859
-0.302263 -36.795105 89.493217
16.330885 -41.453667 84.482712
7.689091 -42.700844 89.152
9.055773 -44.37468 88.836082
10.45097 -46.141518 88.121628
8.099384 -48.855499 89.210632
9.936916 -48.445061 88.227898
13.24021 -33.412569 82.038059
14.373059 -33.44453 81.30547
12.367673 -34.217991 82.799827
13.24021 -33.412569 82.038059
13.135264 -46.668686 86.288539
14.154205 -46.479903 85.620002
13.47114 -45.551955 86.204624
-0.897425 -39.900416 89.109401
-1.244449 -38.605875 88.84333
5.486612 -50.54381 89.764454
4.774047 -50.652254 89.801254
18.459448 -36.206575 81.105572
18.968697 -36.857721 81.433983
17.931144 -33.410503 79.368618
19.130502 -33.401893 78.745991
18.78127 -32.672623 78.515557
6.541538 -35.795908 86.927872
7.277315 -34.908968 86.301861
6.269956 -34.868084 86.884266
2.286797 -36.346285 89.216106
3.119254 -36.512011 88.891125
1.509966 -36.218853 89.366493
1.781951 -37.335508 89.466473
2.286797 -36.346285 89.216106
-0.466727 -35.44568 89.348999
0.133402 -35.769203 89.436413
-0.820829 -36.507076 89.204239
-0.466727 -35.44568 89.348999
16.39617 -43.170487 84.481189
15.932997 -44.165532 84.651607
7.925574 -50.059694 89.043442
7.241391 -49.037615 89.545944
7.067581 -50.24181 89.378753
10.648412 -49.441365 87.575947
9.721716 -49.658485 88.127537
10.895876 -48.231558 87.628639
10.648412 -49.441365 87.575947
0.614729 -45.398735 89.295727
0.503244 -44.386927 89.640392
0.062619 -44.303461 89.07721
1.165303 -46.507609 89.502006
0.614729 -45.398735 89.295727
1.767557 -47.559057 89.609909
1.657609 -46.53365 89.966813
1.165303 -46.507609 89.502006
2.334139 -48.644617 89.677235
1.767557 -47.559057 89.609909
15.550524 -33.42935 80.651486
16.720323 -33.436869 79.96838
14.681272 -34.207685 81.45256
15.550524 -33.42935 80.651486
14.373059 -33.44453 81.30547
11.593113 -34.995798 83.632713
12.729247 -35.000674 82.93943
12.367673 -34.217991 82.799827
10.464272 -35.024172 84.2818
10.825847 -35.806855 84.421402
11.593113 -34.995798 83.632713
5.313302 -34.731358 87.486427
6.269956 -34.868084 86.884266
4.606952 -35.658052 87.988221
5.313302 -34.731358 87.486427
19.323 -38.916552 82.403728
20.018034 -38.168707 81.855182
18.672257 -39.68491 83.00016
19.323 -38.916552 82.403728
18.148589 -39.004061 82.96355
18.037917 -40.499861 83.410893
18.672257 -39.68491 83.00016
15.515938 -45.190741 84.851566
15.932997 -44.165532 84.651607
14.907141 -44.337962 85.336128
15.144855 -46.278892 84.928066
15.515938 -45.190741 84.851566
14.808979 -47.395624 85.011981
15.144855 -46.278892 84.928066
14.154205 -46.479903 85.620002
-0.496412 -41.094671 89.342373
-0.414878 -40.06084 89.566277
-0.897425 -39.900416 89.109401
-0.513912 -42.112949 89.153686
-0.031365 -42.273375 89.610562
-0.496412 -41.094671 89.342373
-0.436287 -43.134092 88.789417
-0.513912 -42.112949 89.153686
0.062619 -44.303461 89.07721
-0.436287 -43.134092 88.789417
6.261349 -50.401771 89.628959
5.608662 -49.361768 90.016751
5.486612 -50.54381 89.764454
7.067581 -50.24181 89.378753
6.261349 -50.401771 89.628959
4.105046 -50.737448 89.705296
4.774047 -50.652254 89.801254
4.164924 -49.589 90.056286
2.952168 -49.689165 89.620041
2.877893 -48.629646 90.017521
2.334139 -48.644617 89.677235
3.507429 -50.780838 89.505242
2.952168 -49.689165 89.620041
4.116553 -51.844091 89.25021
4.105046 -50.737448 89.705296
3.507429 -50.780838 89.505242
19.503336 -37.516106 81.647187
20.018034 -38.168707 81.855182
18.264693 -37.577319 82.153916
19.503336 -37.516106 81.647187
18.968697 -36.857721 81.433983
19.517171 -34.108013 79.057369
19.130502 -33.401893 78.745991
18.734609 -34.816996 79.934742
19.517171 -34.108013 79.057369
17.069556 -34.166139 80.198814
17.931144 -33.410503 79.368618
16.720323 -33.436869 79.96838
17.953293 -35.543129 80.807229
18.734609 -34.816996 79.934742
17.49906 -34.865908 80.471539
17.223898 -36.255488 81.642369
18.459448 -36.206575 81.105572
17.953293 -35.543129 80.807229
9.378101 -34.988095 84.98687
10.464272 -35.024172 84.2818
8.304046 -34.988877 85.624359
7.277315 -34.908968 86.301861
8.622951 -35.83601 85.707977
9.378101 -34.988095 84.98687
8.304046 -34.988877 85.624359
4.003648 -36.569195 88.560059
4.930874 -36.666167 88.082116
4.606952 -35.658052 87.988221
3.443175 -37.520125 88.98502
4.003648 -36.569195 88.560059
3.119254 -36.512011 88.891125
0.787094 -35.975689 89.498233
1.509966 -36.218853 89.366493
0.351429 -37.00159 89.555038
0.787094 -35.975689 89.498233
0.133402 -35.769203 89.436413
-1.077643 -37.542817 89.124282
-0.559077 -37.830845 89.413261
-0.820829 -36.507076 89.204239
-1.244449 -38.605875 88.84333
-1.077643 -37.542817 89.124282
17.454436 -41.340485 83.872258
18.037917 -40.499861 83.410893
16.914365 -40.613043 84.021347
16.899513 -42.240944 84.154461
15.827542 -42.38321 84.80944
16.39617 -43.170487 84.481189
17.454436 -41.340485 83.872258
16.899513 -42.240944 84.154461
8.80295 -49.863704 88.618904
7.925574 -50.059694 89.043442
9.01815 -48.65028 88.719265
8.80295 -49.863704 88.618904
9.721716 -49.658485 88.127537
11.152904 -47.079786 87.575504
10.193943 -47.29329 88.174763
10.895876 -48.231558 87.628639
12.153517 -46.879396 86.951271
11.451584 -45.941128 87.497394
11.152904 -47.079786 87.575504
13.135264 -46.668686 86.288539
12.153517 -46.879396 86.951271
3 0 19 17
3 1 22 20
3 72 25 73
3 75 74 25
3 3 28 27
3 4 31 29
3 4 76 78
3 78 77 31
3 76 77 78
3 2 34 32
3 80 79 35
3 6 39 37
3 8 40 18
3 8 41 40
3 82 81 42
3 9 46 44
3 11 47 21
3 11 48 47
3 5 49 36
3 12 50 23
3 12 51 50
3 12 52 51
3 83 53 84
3 85 54 86
3 85 86 87
3 13 55 24
3 13 56 55
3 13 57 56
3 14 58 26
3 14 59 58
3 15 88 90
3 88 60 89
3 88 89 90
3 15 61 60
3 15 62 61
3 91 63 92
3 93 64 94
3 95 94 63
3 93 94 95
3 96 65 97
3 99 98 65
3 7 66 38
3 101 100 30
3 10 67 45
3 16 68 33
3 16 69 68
3 102 70 103
3 104 103 43
3 102 103 104
3 105 71 106
3 108 107 71
3 17 18 6
3 19 18 17
3 19 8 18
3 20 21 9
3 22 21 20
3 22 11 21
3 109 23 110
3 111 110 5
3 109 110 111
3 112 23 113
3 114 12 115
3 116 115 23
3 114 115 116
3 118 117 12
3 119 24 120
3 25 121 123
3 121 24 122
3 121 122 123
3 25 13 24
3 25 26 13
3 124 26 125
3 126 125 25
3 124 125 126
3 127 14 128
3 129 128 26
3 127 128 129
3 130 15 131
3 133 132 15
3 27 134 135
3 28 136 138
3 138 137 27
3 136 137 138
3 28 139 140
3 29 30 7
3 31 30 29
3 31 141 143
3 143 142 30
3 141 142 143
3 31 144 145
3 148 147 31
3 146 147 148
3 32 33 10
3 34 33 32
3 34 16 33
3 35 36 1
3 149 36 150
3 151 150 35
3 149 150 151
3 152 5 153
3 154 153 36
3 152 153 154
3 155 5 156
3 158 157 5
3 37 38 3
3 39 38 37
3 39 7 38
3 18 39 6
3 40 39 18
3 40 7 39
3 40 29 7
3 41 29 40
3 41 4 29
3 42 43 2
3 159 43 160
3 161 160 42
3 159 160 161
3 163 162 43
3 44 45 0
3 46 45 44
3 46 10 45
3 21 46 9
3 47 46 21
3 47 10 46
3 47 32 10
3 48 32 47
3 48 2 32
3 36 22 1
3 49 22 36
3 49 11 22
3 23 49 5
3 50 49 23
3 50 11 49
3 50 48 11
3 51 48 50
3 51 2 48
3 51 42 2
3 52 42 51
3 52 164 166
3 166 165 42
3 164 165 166
3 167 52 168
3 169 168 12
3 167 168 169
3 170 52 171
3 174 173 52
3 172 173 174
3 175 27 176
3 53 177 179
3 177 27 178
3 177 178 179
3 53 3 27
3 54 180 181
3 54 182 183
3 24 184 186
3 184 54 185
3 184 185 186
3 55 54 24
3 55 187 189
3 189 188 54
3 187 188 189
3 55 190 192
3 190 53 191
3 190 191 192
3 56 53 55
3 56 3 53
3 56 37 3
3 57 37 56
3 57 6 37
3 26 57 13
3 58 57 26
3 58 6 57
3 58 17 6
3 59 17 58
3 59 0 17
3 193 14 194
3 60 195 196
3 60 197 199
3 197 14 198
3 197 198 199
3 60 59 14
3 61 59 60
3 61 0 59
3 61 44 0
3 62 44 61
3 62 9 44
3 200 62 201
3 202 201 15
3 200 201 202
3 63 203 205
3 203 62 204
3 203 204 205
3 63 9 62
3 63 20 9
3 64 20 63
3 64 1 20
3 206 64 207
3 65 208 210
3 208 64 209
3 208 209 210
3 65 1 64
3 65 35 1
3 211 35 212
3 213 212 65
3 211 212 213
3 215 214 35
3 38 28 3
3 66 28 38
3 66 216 218
3 218 217 28
3 216 217 218
3 30 66 7
3 219 66 220
3 221 220 30
3 219 220 221
3 223 222 66
3 45 19 0
3 67 19 45
3 67 8 19
3 33 67 10
3 68 67 33
3 68 8 67
3 68 41 8
3 69 41 68
3 69 4 41
3 43 34 2
3 70 34 43
3 70 16 34
3 224 70 225
3 71 226 228
3 226 70 227
3 226 227 228
3 71 16 70
3 71 69 16
3 229 69 230
3 231 230 71
3 229 230 231
3 232 4 233
3 234 233 69
3 232 233 234
3 236 235 4
