ply
format ascii 1.0
element vertex 208
property float x
property float y
property float z
element face 191
property list uchar int vertex_index
end_header
-66.460739 -32.053951 -35.222004
-60.754177 -33.761993 -41.249744
-53.77689 -34.384087 -42.585415
-64.794144 -24.935043 -39.32069
-63.724998 -32.987045 -38.596527
-61.947899 -25.780165 -42.775066
-58.885803 -26.436653 -45.227673
-49.697868 -34.712936 -41.538445
-64.875778 -40.14679 -34.528336
-61.876205 -41.009869 -37.223728
-58.611336 -41.487835 -38.931076
-57.486267 -34.17865 -42.624947
-63.399677 -25.360207 -41.126595
-62.227036 -21.806192 -43.265285
-60.729713 -22.195446 -44.891438
-67.050034 -35.611565 -33.245628
-66.258598 -39.635277 -32.947021
-65.76207 -36.089733 -34.940334
-62.265129 -33.414818 -40.053448
-62.900295 -37.031746 -38.009438
-61.38575 -37.40242 -39.2421
-60.283035 -41.298248 -38.221371
-59.805737 -37.674152 -40.187428
-58.13689 -37.852982 -40.806309
-59.169823 -34.013508 -42.119335
-54.47049 -38.061256 -41.069733
-52.47575 -38.181641 -40.794598
-47.599281 -35.004456 -40.838531
-65.715759 -28.489033 -37.243832
-65.134918 -32.515965 -36.959446
-64.357422 -28.934271 -39.020771
-62.932907 -29.382092 -40.672089
-61.462959 -29.782089 -42.109268
-59.936562 -30.101109 -43.246548
-60.448685 -26.148155 -44.171329
-52.856117 -30.689104 -44.036793
-51.77005 -34.513279 -42.147884
-50.849144 -30.83778 -43.444073
-48.801743 -31.06735 -42.697952
-46.755772 -31.398552 -41.887352
-64.363007 -36.580837 -36.55146
-63.406612 -40.618935 -35.974564
-56.84407 -41.606255 -39.342186
-56.360458 -37.967506 -41.091591
-55.688187 -34.287754 -42.767319
-58.327759 -30.328979 -44.017784
-56.613678 -30.479191 -44.391743
-54.786327 -30.584595 -44.380386
-50.397793 -38.368599 -40.335537
-62.27146 -19.856695 -43.431448
-62.948284 -21.605462 -42.35553
-61.517822 -20.045029 -44.33914
-62.27146 -19.856695 -43.431448
-46.864681 -37.008686 -39.986135
-46.559509 -35.19643 -40.475156
-59.955211 -22.363283 -45.558678
-59.988239 -20.41995 -45.944239
-51.266138 -28.927692 -44.443049
-51.852631 -30.763442 -43.740433
-52.269624 -28.853355 -44.739409
-48.245039 -29.280212 -43.268206
-49.246796 -29.136661 -43.701898
-47.222054 -29.445813 -42.862905
-47.778757 -31.232951 -42.292652
-48.245039 -29.280212 -43.268206
-46.234431 -29.648925 -42.409752
-47.222054 -29.445813 -42.862905
-65.077042 -41.905438 -33.518166
-65.768451 -41.649681 -32.727508
-65.567188 -39.891034 -33.737679
-64.341962 -42.153489 -34.233176
-65.077042 -41.905438 -33.518166
-62.067577 -42.791136 -36.206981
-62.83278 -42.595669 -35.5824
-62.641408 -40.814402 -36.599146
-61.259134 -42.943577 -36.721872
-62.067577 -42.791136 -36.206981
-58.782133 -43.282364 -37.964332
-59.617982 -43.18757 -37.60948
-59.447186 -41.393041 -38.576223
-57.896299 -43.343132 -38.222343
-58.782133 -43.282364 -37.964332
-57.727703 -41.547045 -39.136631
-57.012667 -43.402342 -38.427898
-57.896299 -43.343132 -38.222343
-56.047032 -28.630052 -45.251684
-56.924328 -28.56031 -45.136726
-55.133356 -28.682755 -45.246006
-55.700002 -30.531893 -44.386065
-56.047032 -28.630052 -45.251684
-54.204855 -28.73787 -45.161484
-55.133356 -28.682755 -45.246006
-63.534605 -23.382469 -41.286185
-64.096911 -25.147625 -40.223642
-64.231839 -23.169888 -40.383232
-62.813356 -23.583199 -42.19594
-63.534605 -23.382469 -41.286185
-62.948284 -21.605462 -42.35553
-60.769161 -20.239657 -45.152216
-61.478375 -22.000819 -44.078361
-61.517822 -20.045029 -44.33914
-59.988239 -20.41995 -45.944239
-60.769161 -20.239657 -45.152216
-66.654316 -37.623421 -33.096325
-66.877926 -39.386558 -32.118481
-67.273643 -37.374702 -32.267784
-58.06039 -26.539041 -45.554692
-58.224672 -24.61457 -46.205023
-53.733082 -39.937332 -40.214983
-54.721106 -39.879644 -40.270773
-52.735712 -39.997524 -40.077416
-53.733082 -39.937332 -40.214983
-53.47312 -38.121448 -40.932165
-51.701944 -40.088833 -39.928038
-52.735712 -39.997524 -40.077416
-47.933971 -36.824867 -40.300663
-48.983265 -36.679108 -40.65062
-48.648574 -34.858696 -41.188488
-47.933971 -36.824867 -40.300663
-46.864681 -37.008686 -39.986135
-59.814697 -24.339638 -45.198623
-60.589199 -24.1718 -44.531384
-59.955211 -22.363283 -45.558678
-59.033257 -24.483887 -45.726796
-59.667244 -26.292404 -44.699501
-59.814697 -24.339638 -45.198623
-58.224672 -24.61457 -46.205023
-59.033257 -24.483887 -45.726796
-50.270497 -29.021876 -44.074959
-51.266138 -28.927692 -44.443049
-49.825444 -30.952565 -43.071013
-50.270497 -29.021876 -44.074959
-49.246796 -29.136661 -43.701898
-46.137754 -33.393479 -40.999567
-46.559509 -35.19643 -40.475156
-47.177526 -33.201504 -41.362942
-45.755669 -31.615049 -41.482776
-46.137754 -33.393479 -40.999567
-45.755669 -31.615049 -41.482776
-46.234431 -29.648925 -42.409752
-66.446041 -41.381439 -31.949422
-66.877926 -39.386558 -32.118481
-66.446041 -41.381439 -31.949422
-65.768451 -41.649681 -32.727508
-63.60738 -42.389561 -34.956289
-64.341962 -42.153489 -34.233176
-64.141195 -40.382863 -35.25145
-63.60738 -42.389561 -34.956289
-62.83278 -42.595669 -35.5824
-60.462549 -43.087767 -37.220693
-61.259134 -42.943577 -36.721872
-61.07962 -41.154059 -37.722549
-60.462549 -43.087767 -37.220693
-59.617982 -43.18757 -37.60948
-56.081409 -43.447056 -38.561186
-57.012667 -43.402342 -38.427898
-55.907896 -41.652143 -39.406999
-56.081409 -43.447056 -38.561186
-55.66609 -39.832769 -40.281702
-55.907896 -41.652143 -39.406999
-56.602264 -39.78688 -40.216888
-55.415474 -38.014381 -41.080662
-54.721106 -39.879644 -40.270773
-55.66609 -39.832769 -40.281702
-57.781368 -28.485205 -44.949747
-58.606781 -28.382816 -44.622729
-58.06039 -26.539041 -45.554692
-57.470719 -30.404085 -44.204763
-57.781368 -28.485205 -44.949747
-56.924328 -28.56031 -45.136726
-53.23975 -28.790124 -44.989687
-53.821222 -30.63685 -44.20859
-54.204855 -28.73787 -45.161484
-52.269624 -28.853355 -44.739409
-53.23975 -28.790124 -44.989687
-67.597343 -35.406639 -32.385223
-67.273643 -37.374702 -32.267784
-67.820953 -37.169777 -31.407379
-67.33973 -33.63478 -33.348541
-67.597343 -35.406639 -32.385223
-67.045082 -31.855973 -34.336729
-66.755387 -33.832758 -34.233816
-67.33973 -33.63478 -33.348541
-66.704102 -30.079147 -35.320156
-67.045082 -31.855973 -34.336729
-67.288444 -29.881169 -34.434881
-66.331612 -28.296688 -36.33107
-66.088249 -30.271492 -36.232918
-66.704102 -30.079147 -35.320156
-65.899872 -26.525609 -37.343393
-66.331612 -28.296688 -36.33107
-65.439064 -24.748614 -38.381822
-65.254952 -26.712038 -38.282261
-65.899872 -26.525609 -37.343393
-64.907608 -22.99062 -39.422932
-65.439064 -24.748614 -38.381822
-64.231839 -23.169888 -40.383232
-64.907608 -22.99062 -39.422932
-50.662966 -40.182312 -39.698508
-51.701944 -40.088833 -39.928038
-51.436771 -38.27512 -40.565067
-49.333227 -38.506939 -40.049166
-50.047831 -36.540768 -40.936991
-48.983265 -36.679108 -40.65062
-49.594645 -40.320507 -39.483604
-49.333227 -38.506939 -40.049166
-50.662966 -40.182312 -39.698508
-49.594645 -40.320507 -39.483604
3 49 13 50
3 52 51 13
3 0 17 15
3 1 20 18
3 1 22 20
3 1 24 22
3 2 26 25
3 54 53 27
3 3 30 28
3 5 31 12
3 5 32 31
3 5 34 32
3 56 55 14
3 57 37 58
3 59 58 35
3 57 58 59
3 60 38 61
3 62 39 63
3 64 63 38
3 62 63 64
3 66 65 39
3 8 67 69
3 69 68 16
3 67 68 69
3 8 70 71
3 4 40 29
3 9 41 19
3 9 72 74
3 74 73 41
3 72 73 74
3 9 75 76
3 10 77 79
3 79 78 21
3 77 78 79
3 10 80 81
3 10 82 84
3 82 42 83
3 82 83 84
3 11 43 23
3 11 44 43
3 6 45 33
3 85 46 86
3 87 47 88
3 89 88 46
3 87 88 89
3 91 90 47
3 7 48 36
3 92 12 93
3 94 93 3
3 92 93 94
3 13 95 97
3 95 12 96
3 95 96 97
3 13 5 12
3 13 14 5
3 98 14 99
3 100 99 13
3 98 99 100
3 102 101 14
3 15 103 105
3 103 16 104
3 103 104 105
3 17 16 15
3 17 8 16
3 18 19 4
3 20 19 18
3 20 9 19
3 20 21 9
3 22 21 20
3 22 10 21
3 22 23 10
3 24 23 22
3 24 11 23
3 107 106 6
3 25 108 109
3 26 110 112
3 112 111 25
3 110 111 112
3 26 113 114
3 27 115 117
3 117 116 7
3 115 116 117
3 119 118 27
3 28 29 0
3 30 29 28
3 30 4 29
3 12 30 3
3 31 30 12
3 31 4 30
3 31 18 4
3 32 18 31
3 32 1 18
3 32 33 1
3 34 33 32
3 34 6 33
3 14 34 5
3 120 34 121
3 122 121 14
3 120 121 122
3 123 6 124
3 125 124 34
3 123 124 125
3 127 126 6
3 35 36 2
3 37 36 35
3 37 7 36
3 128 37 129
3 38 130 132
3 130 37 131
3 130 131 132
3 38 7 37
3 38 27 7
3 39 27 38
3 39 133 135
3 135 134 27
3 133 134 135
3 39 136 137
3 139 138 39
3 16 140 141
3 143 142 16
3 29 17 0
3 40 17 29
3 40 8 17
3 19 40 4
3 41 40 19
3 41 8 40
3 41 144 146
3 146 145 8
3 144 145 146
3 148 147 41
3 21 149 151
3 151 150 9
3 149 150 151
3 153 152 21
3 42 154 155
3 42 156 157
3 23 42 10
3 43 42 23
3 43 158 160
3 160 159 42
3 158 159 160
3 43 161 163
3 161 25 162
3 161 162 163
3 44 25 43
3 44 2 25
3 33 24 1
3 45 24 33
3 45 11 24
3 164 45 165
3 166 165 6
3 164 165 166
3 46 167 169
3 167 45 168
3 167 168 169
3 46 11 45
3 46 44 11
3 47 44 46
3 47 2 44
3 47 35 2
3 170 35 171
3 172 171 47
3 170 171 172
3 174 173 35
3 175 15 176
3 175 176 177
3 178 15 179
3 180 0 181
3 182 181 15
3 180 181 182
3 183 0 184
3 183 184 185
3 186 28 187
3 188 187 0
3 186 187 188
3 189 28 190
3 191 3 192
3 193 192 28
3 191 192 193
3 194 3 195
3 197 196 3
3 36 26 2
3 48 26 36
3 48 198 200
3 200 199 26
3 198 199 200
3 201 48 202
3 203 202 7
3 201 202 203
3 204 48 205
3 207 206 48
