ply
format ascii 1.0
element vertex 249
property float x
property float y
property float z
element face 232
property list uchar int vertex_index
end_header
17.160183 32.22541 64.171776
10.917162 31.189419 72.118217
21.490425 19.652138 64.015129
2.066057 29.226871 73.437523
4.476078 33.459206 72.987389
14.159674 32.169388 68.338509
11.058367 38.202988 67.907478
14.354422 38.69091 63.979652
20.247965 31.865414 60.537666
17.540016 38.343128 59.96151
20.898624 37.765347 56.78389
7.471426 29.023182 74.92997
13.80698 25.541355 72.366737
16.693771 26.00853 68.168762
18.673702 19.818108 67.642906
19.501896 25.875843 64.115372
22.683662 25.66172 61.216415
7.641748 36.491383 71.046577
3.149996 31.479416 73.413376
4.406029 29.558472 74.784904
15.674749 32.285667 66.252327
14.268665 35.444378 66.2034
15.818205 35.450706 64.125824
21.938328 31.709873 59.213333
20.582909 34.832539 58.688774
22.343231 34.66048 57.509087
15.288854 25.879482 70.310974
16.406435 22.8587 70.1036
20.024363 19.744282 65.673103
19.095724 22.85799 65.87812
20.529556 22.752079 64.064568
21.025379 25.748142 62.468826
22.093029 22.658199 62.612
9.198818 30.260571 73.669716
7.587233 32.763653 73.057899
9.300785 33.894955 71.700737
22.416473 16.57095 63.973175
23.108461 19.594158 62.762321
12.577547 31.817806 70.321358
11.009604 34.706966 70.069969
12.670568 35.213135 68.215256
12.730518 38.582809 66.007065
18.667599 32.060112 62.224419
17.356197 35.299118 62.097694
18.929943 35.067181 60.246078
19.178932 38.043812 58.212929
22.719223 37.567101 55.737083
10.761009 27.650688 74.05619
12.432884 28.398884 72.331329
14.011433 28.869453 70.392166
15.502565 29.095924 68.312317
16.942024 29.128677 66.192612
17.743103 22.915058 67.936752
18.07683 25.985226 66.058571
18.384342 29.032093 64.157768
19.887541 28.877857 62.341087
21.498283 28.735195 60.860153
5.932035 31.314053 74.099373
5.994701 35.136841 72.186684
9.349268 37.512413 69.60569
15.94588 38.586143 61.92482
4.336696 27.60388 75.596405
3.740445 28.538254 74.930973
23.048531 33.151987 57.906159
22.14078 33.185176 58.36121
22.84608 31.676684 58.758281
16.236724 21.264261 71.047947
15.712446 22.743834 71.175148
20.757394 19.69821 64.844116
20.461185 18.193261 65.568195
21.194215 18.147188 64.739208
2.076705 31.227708 72.5783
1.670825 29.997253 72.459439
3.822959 34.448138 72.27449
3.159918 33.458242 72.487484
3.813037 32.469311 73.200382
4.484863 35.406824 72.003609
3.822959 34.448138 72.27449
1.659816 27.982599 73.24377
2.027346 27.223968 74.192928
1.670825 29.997253 72.459439
1.659816 27.982599 73.24377
22.883306 15.042931 63.962455
22.089294 15.064486 64.623524
23.258131 16.560434 63.441139
22.883306 15.042931 63.962455
13.565174 40.304239 63.834084
12.753222 40.250189 64.84779
13.54247 38.636859 64.993358
20.162723 39.369827 56.452736
19.302878 39.50906 57.167255
20.038778 37.904579 57.49841
23.679939 37.523516 55.406341
23.468446 36.079792 56.235721
10.640861 25.868032 74.968643
9.89216 27.129203 74.784973
13.011939 25.24669 73.305873
13.666934 23.859223 73.311901
13.119932 26.970119 72.349033
12.324891 26.675455 73.288169
13.011939 25.24669 73.305873
18.454733 18.283524 68.528954
19.097414 18.26894 67.478809
18.026095 19.815728 68.719132
18.454733 18.283524 68.528954
18.208402 21.366583 67.789829
17.560796 21.364202 68.866054
18.026095 19.815728 68.719132
22.962654 27.160947 60.503483
22.369965 28.697685 60.325351
22.090972 27.198457 61.038284
23.458755 21.109468 62.175815
23.997873 19.600979 62.356021
6.701731 30.168617 74.514671
5.867487 29.397778 74.978065
6.637182 28.252342 75.393364
6.825699 37.720774 70.58284
6.002176 37.043503 71.152893
6.818224 35.814112 71.61663
3.112428 29.498726 74.245209
2.608026 30.353144 73.425449
2.570458 28.372453 74.257283
3.778012 30.518944 74.09914
3.112428 29.498726 74.245209
3.740445 28.538254 74.930973
2.570458 28.372453 74.257283
2.027346 27.223968 74.192928
14.412719 24.085161 72.306716
13.666934 23.859223 73.311901
15.153655 24.254224 71.278835
14.547917 25.710418 71.338855
14.412719 24.085161 72.306716
15.847644 24.369091 70.207287
15.153655 24.254224 71.278835
15.712446 22.743834 71.175148
19.772745 18.232027 66.493908
20.461185 18.193261 65.568195
19.349032 19.781195 66.658005
19.097414 18.26894 67.478809
19.772745 18.232027 66.493908
10.211597 39.655338 67.642692
11.070874 39.936453 66.765003
16.806355 40.011907 59.802548
17.632476 39.843849 58.860187
2.618675 32.353981 72.566227
2.076705 31.227708 72.5783
2.608026 30.353144 73.425449
2.618675 32.353981 72.566227
3.159918 33.458242 72.487484
21.657239 16.606594 64.718231
22.089294 15.064486 64.623524
21.953449 18.111544 63.994152
21.194215 18.147188 64.739208
21.657239 16.606594 64.718231
23.604125 18.072038 62.835712
22.762467 18.082554 63.367748
23.258131 16.560434 63.441139
23.997873 19.600979 62.356021
23.604125 18.072038 62.835712
11.906949 40.126363 65.814796
11.070874 39.936453 66.765003
11.894443 38.392899 66.957271
11.906949 40.126363 65.814796
12.753222 40.250189 64.84779
18.451934 39.694191 57.985897
17.632476 39.843849 58.860187
18.359474 38.19347 59.08722
18.451934 39.694191 57.985897
19.302878 39.50906 57.167255
23.280451 34.626482 57.121724
23.048531 33.151987 57.906159
22.531227 36.113791 56.623085
23.280451 34.626482 57.121724
23.468446 36.079792 56.235721
22.899116 38.98551 54.816539
23.679939 37.523516 55.406341
21.963176 39.105429 55.278755
22.899116 38.98551 54.816539
21.052877 39.204552 55.802159
21.808923 37.666224 56.260486
21.963176 39.105429 55.278755
20.162723 39.369827 56.452736
21.052877 39.204552 55.802159
7.373603 27.144859 75.795151
6.637182 28.252342 75.393364
8.247369 27.81545 75.221863
7.373603 27.144859 75.795151
9.111065 28.434145 74.591736
8.335122 29.641876 74.299843
8.247369 27.81545 75.221863
9.979913 28.95563 73.862953
9.111065 28.434145 74.591736
9.89216 27.129203 74.784973
11.488954 26.301357 74.1506
10.640861 25.868032 74.968643
11.596946 28.024786 73.193759
11.488954 26.301357 74.1506
12.324891 26.675455 73.288169
16.892462 21.336023 69.949478
16.236724 21.264261 71.047947
17.074769 22.886879 69.020176
16.892462 21.336023 69.949478
17.560796 21.364202 68.866054
22.589987 30.185024 59.501942
21.718305 30.222534 60.036743
22.369965 28.697685 60.325351
22.84608 31.676684 58.758281
22.589987 30.185024 59.501942
22.95104 22.641489 62.100655
22.600745 21.126179 62.687161
23.458755 21.109468 62.175815
23.246356 24.143249 61.402862
22.388345 24.159959 61.914208
22.95104 22.641489 62.100655
23.585444 25.660236 60.807972
23.246356 24.143249 61.402862
22.962654 27.160947 60.503483
23.585444 25.660236 60.807972
5.104484 28.519987 75.320831
4.336696 27.60388 75.596405
5.169032 30.436262 74.442138
5.104484 28.519987 75.320831
5.867487 29.397778 74.978065
5.244174 36.245642 71.603257
4.484863 35.406824 72.003609
5.23539 34.298023 72.587036
5.244174 36.245642 71.603257
6.002176 37.043503 71.152893
9.357047 39.310051 68.491798
10.203817 37.8577 68.756584
10.211597 39.655338 67.642692
8.502209 38.858114 69.24905
9.357047 39.310051 68.491798
7.648448 38.347599 69.969493
8.495508 37.001898 70.326133
8.502209 38.858114 69.24905
6.825699 37.720774 70.58284
7.648448 38.347599 69.969493
16.009287 40.133415 60.784202
16.742948 38.464635 60.943165
16.806355 40.011907 59.802548
15.189808 40.242404 61.792454
16.009287 40.133415 60.784202
15.253214 41.789676 60.651837
14.394078 40.294788 62.81987
15.150151 38.638526 62.952236
15.189808 40.242404 61.792454
13.565174 40.304239 63.834084
14.394078 40.294788 62.81987
3 61 19 62
3 0 22 20
3 63 25 64
3 65 64 23
3 63 64 65
3 66 27 67
3 2 68 70
3 68 28 69
3 68 69 70
3 2 30 28
3 2 32 30
3 1 35 33
3 3 71 72
3 4 73 75
3 75 74 18
3 73 74 75
3 4 76 77
3 3 78 79
3 3 80 81
3 82 36 83
3 85 84 36
3 5 40 38
3 7 41 21
3 7 86 88
3 88 87 41
3 86 87 88
3 8 44 42
3 10 45 24
3 10 89 91
3 91 90 45
3 89 90 91
3 92 46 93
3 94 47 95
3 12 96 97
3 12 98 100
3 98 48 99
3 98 99 100
3 12 49 48
3 13 50 26
3 13 51 50
3 14 101 102
3 14 103 104
3 14 105 107
3 105 52 106
3 105 106 107
3 15 53 29
3 15 54 53
3 15 55 54
3 16 56 31
3 16 108 110
3 110 109 56
3 108 109 110
3 112 111 37
3 11 113 115
3 113 57 114
3 113 114 115
3 17 58 34
3 17 116 118
3 118 117 58
3 116 117 118
3 6 59 39
3 9 60 43
3 119 18 120
3 121 120 3
3 119 120 121
3 19 122 124
3 122 18 123
3 122 123 124
3 19 4 18
3 125 3 126
3 20 21 5
3 22 21 20
3 22 7 21
3 23 24 8
3 25 24 23
3 25 10 24
3 127 12 128
3 129 26 130
3 131 130 12
3 129 130 131
3 27 132 134
3 132 26 133
3 132 133 134
3 27 13 26
3 28 135 136
3 28 137 139
3 137 14 138
3 137 138 139
3 28 29 14
3 30 29 28
3 30 15 29
3 30 31 15
3 32 31 30
3 32 16 31
3 33 34 11
3 35 34 33
3 35 17 34
3 141 140 6
3 143 142 9
3 18 144 146
3 146 145 3
3 144 145 146
3 148 147 18
3 36 149 150
3 36 151 153
3 151 2 152
3 151 152 153
3 36 37 2
3 154 37 155
3 156 155 36
3 154 155 156
3 158 157 37
3 38 39 1
3 40 39 38
3 40 6 39
3 21 40 5
3 41 40 21
3 41 6 40
3 41 159 161
3 161 160 6
3 159 160 161
3 163 162 41
3 42 43 0
3 44 43 42
3 44 9 43
3 24 44 8
3 45 44 24
3 45 9 44
3 45 164 166
3 166 165 9
3 164 165 166
3 168 167 45
3 169 25 170
3 46 171 173
3 171 25 172
3 171 172 173
3 46 10 25
3 174 46 175
3 176 46 177
3 178 10 179
3 180 179 46
3 178 179 180
3 182 181 10
3 183 11 184
3 185 11 186
3 187 33 188
3 189 188 11
3 187 188 189
3 47 190 192
3 190 33 191
3 190 191 192
3 47 1 33
3 193 47 194
3 48 195 197
3 195 47 196
3 195 196 197
3 48 1 47
3 48 38 1
3 49 38 48
3 49 5 38
3 26 49 12
3 50 49 26
3 50 5 49
3 50 20 5
3 51 20 50
3 51 0 20
3 198 27 199
3 52 200 202
3 200 27 201
3 200 201 202
3 52 13 27
3 29 52 14
3 53 52 29
3 53 13 52
3 53 51 13
3 54 51 53
3 54 0 51
3 54 42 0
3 55 42 54
3 55 8 42
3 31 55 15
3 56 55 31
3 56 8 55
3 56 23 8
3 203 23 204
3 205 204 56
3 203 204 205
3 207 206 23
3 37 32 2
3 208 32 209
3 210 209 37
3 208 209 210
3 211 16 212
3 213 212 32
3 211 212 213
3 214 16 215
3 217 216 16
3 218 19 219
3 57 220 222
3 220 19 221
3 220 221 222
3 57 4 19
3 34 57 11
3 58 57 34
3 58 4 57
3 58 223 225
3 225 224 4
3 223 224 225
3 227 226 58
3 39 35 1
3 59 35 39
3 59 17 35
3 228 59 229
3 230 229 6
3 228 229 230
3 231 59 232
3 233 17 234
3 235 234 59
3 233 234 235
3 237 236 17
3 43 22 0
3 60 22 43
3 60 7 22
3 238 60 239
3 240 239 9
3 238 239 240
3 241 60 242
3 241 242 243
3 244 7 245
3 246 245 60
3 244 245 246
3 248 247 7
