ply
format ascii 1.0
element vertex 222
property float x
property float y
property float z
element face 206
property list uchar int vertex_index
end_header
-44.161617 38.495037 28.215233
-43.675068 48.884548 30.237331
-43.106026 38.031288 37.622181
-44.400543 32.815506 26.724035
-45.777702 38.280895 24.014053
-41.60305 53.154545 30.569351
-42.265541 37.358135 42.732079
-42.395859 42.874851 38.968651
-44.296768 43.948593 29.401875
-43.011902 32.709377 31.015831
-43.512383 38.399227 32.750313
-43.630066 43.60321 34.104023
-42.260719 48.075932 34.930531
-39.196114 51.763477 35.073055
-34.961147 54.786503 34.497219
-44.165745 35.657261 27.510906
-45.087879 35.600082 25.443626
-44.81879 38.425407 26.078169
-40.00938 55.011173 30.497423
-44.140717 46.492428 29.871544
-44.46521 46.58913 27.553211
-44.091034 49.098606 27.897488
-43.047287 35.474899 34.280357
-43.328819 38.246578 35.148106
-43.705513 41.083115 33.48296
-43.399887 40.861446 35.902725
-42.3806 45.503544 36.984482
-41.190857 47.50983 37.26799
-40.918446 50.01553 35.094734
-42.834229 51.109608 30.477312
-43.420673 51.465809 28.140926
-42.406815 53.671238 28.260044
-42.767029 37.744431 40.157635
-42.961201 40.560135 38.376575
-42.343304 40.165226 40.885994
-44.255737 41.272995 28.846119
-44.705692 41.225151 26.635958
-44.630844 43.956905 27.128368
-43.839703 29.949165 27.892181
-43.543011 32.783993 28.819757
-43.56126 35.65274 29.667118
-43.218269 35.589191 31.923361
-43.755405 38.484909 30.438101
-43.95715 41.223343 31.128738
-43.997681 43.827271 31.728033
-43.736717 46.270679 32.219566
-43.111984 43.286037 36.522301
-43.167004 45.93771 34.593643
-43.08392 48.537762 32.583099
-42.007507 50.618763 32.796902
-40.529076 52.509403 32.842247
-38.708649 54.214893 32.710449
-37.178459 53.340504 34.866451
-45.392853 41.081993 24.492922
-39.68243 56.269565 29.274259
-39.060161 55.847217 30.378662
-43.025925 36.673975 37.176828
-42.961934 36.571015 38.443404
-43.217422 38.138933 36.385143
-43.137321 36.78162 35.939791
-43.025925 36.673975 37.176828
-40.544832 47.172134 38.420761
-41.278881 46.237324 38.321079
-40.388878 48.410995 37.312282
-40.544832 47.172134 38.420761
-45.000263 32.808296 25.715608
-44.67963 31.424988 26.279837
-46.055736 36.883654 23.728037
-45.710825 35.543247 24.442823
-45.43279 36.940489 24.728839
-46.406696 38.177703 23.007345
-46.055736 36.883654 23.728037
-42.426834 36.096883 42.296925
-42.237282 35.904016 43.614243
-42.516285 37.551283 41.444857
-42.677578 36.290031 41.009703
-42.426834 36.096883 42.296925
-44.641245 46.571049 26.409155
-44.444657 47.87746 26.55872
-43.62644 51.565929 26.964371
-43.196865 52.747783 27.027112
-43.684126 28.497245 28.440554
-44.19 28.586699 27.383077
-43.277456 32.746685 29.917794
-43.306607 31.308695 29.428168
-43.041052 31.271387 30.526205
-36.069803 54.063504 34.681835
-36.330578 52.872544 35.906906
-35.221922 53.595543 35.72229
-35.794468 55.271569 33.454094
-36.903124 54.548569 33.63871
-36.069803 54.063504 34.681835
-34.668747 55.982289 33.237361
-35.502068 56.467354 32.194236
-35.794468 55.271569 33.454094
-45.249073 42.465981 24.699666
-45.049273 41.153572 25.56444
-44.905493 42.53756 25.771184
-40.526067 55.35358 29.365581
-41.322902 54.425266 29.401544
-40.806215 54.082859 30.533387
-40.526067 55.35358 29.365581
-39.68243 56.269565 29.274259
-41.925766 37.092178 44.022612
-42.237282 35.904016 43.614243
-41.900114 38.500841 43.067635
-41.925766 37.092178 44.022612
-44.257569 49.132199 26.730859
-44.444657 47.87746 26.55872
-44.278122 47.843868 27.72535
-42.818897 31.203247 31.651387
-43.041052 31.271387 30.526205
-42.996555 35.395781 35.505916
-42.85152 33.97052 35.005795
-43.188053 36.860738 34.714231
-42.996555 35.395781 35.505916
-43.137321 36.78162 35.939791
-41.873753 45.23418 38.179325
-42.38823 44.189197 37.976567
-41.881382 43.919834 39.171409
-41.785729 46.506687 37.126236
-41.873753 45.23418 38.179325
-41.278881 46.237324 38.321079
-40.252673 49.663845 36.225655
-41.054652 48.76268 36.181362
-40.388878 48.410995 37.312282
-39.391507 50.537819 36.214815
-40.05728 50.889504 35.083894
-40.252673 49.663845 36.225655
-34.071043 54.288575 35.498666
-35.221922 53.595543 35.72229
-33.799993 55.474587 34.25456
-34.071043 54.288575 35.498666
-45.343931 34.200584 25.075403
-45.000263 32.808296 25.715608
-44.744211 34.207794 26.08383
-45.343931 34.200584 25.075403
-45.710825 35.543247 24.442823
-42.689936 53.850498 27.086671
-43.196865 52.747783 27.027112
-42.913744 52.568523 28.200485
-41.724785 54.683613 28.246891
-42.004933 53.412892 29.414698
-41.322902 54.425266 29.401544
-42.108225 54.950707 27.088487
-41.724785 54.683613 28.246891
-42.689936 53.850498 27.086671
-42.108225 54.950707 27.088487
-42.792435 36.427586 39.71113
-42.677578 36.290031 41.009703
-42.936527 37.88786 38.889908
-42.961934 36.571015 38.443404
-42.792435 36.427586 39.71113
-41.938996 39.904387 42.144593
-42.304423 38.76168 41.809036
-41.900114 38.500841 43.067635
-41.907648 41.258186 41.152921
-41.938996 39.904387 42.144593
-41.933926 42.612999 40.19425
-42.369582 41.520038 39.927323
-41.907648 41.258186 41.152921
-41.881382 43.919834 39.171409
-41.933926 42.612999 40.19425
-44.868069 43.903436 26.017389
-44.905493 42.53756 25.771184
-44.668268 42.591028 26.882163
-44.724062 45.254936 26.196734
-44.548027 45.273017 27.340789
-44.641245 46.571049 26.409155
-44.868069 43.903436 26.017389
-44.724062 45.254936 26.196734
-43.96162 50.382328 26.842652
-43.755854 50.282207 28.019207
-43.62644 51.565929 26.964371
-44.257569 49.132199 26.730859
-43.96162 50.382328 26.842652
-44.39921 29.991817 26.863911
-44.19 28.586699 27.383077
-44.120123 31.382335 27.308108
-44.67963 31.424988 26.279837
-44.39921 29.991817 26.863911
-43.454953 29.891281 28.96438
-43.684126 28.497245 28.440554
-43.691357 31.366579 28.355969
-43.454953 29.891281 28.96438
-43.306607 31.308695 29.428168
-42.879032 32.654837 32.168094
-42.818897 31.203247 31.651387
-42.896724 34.037598 33.800358
-42.85152 33.97052 35.005795
-42.982215 34.094743 32.621859
-42.896724 34.037598 33.800358
-43.132778 35.532045 33.101859
-43.115085 34.149284 31.469596
-42.879032 32.654837 32.168094
-42.982215 34.094743 32.621859
-38.409796 55.449078 31.485175
-39.060161 55.847217 30.378662
-39.359015 54.613033 31.603936
-38.42363 51.347302 36.159124
-39.391507 50.537819 36.214815
-37.414802 52.135815 36.055822
-36.330578 52.872544 35.906906
-38.187286 52.551991 34.969753
-38.42363 51.347302 36.159124
-37.414802 52.135815 36.055822
-37.668219 54.985764 32.560709
-37.943554 53.777698 33.78845
-36.903124 54.548569 33.63871
-38.409796 55.449078 31.485175
-37.668219 54.985764 32.560709
-34.668747 55.982289 33.237361
-33.799993 55.474587 34.25456
-45.598656 42.359802 23.611974
-45.249073 42.465981 24.699666
-45.877962 40.96919 23.448859
-45.598656 42.359802 23.611974
-46.070386 39.568641 23.209424
-45.585278 39.681444 24.253487
-45.877962 40.96919 23.448859
-46.406696 38.177703 23.007345
-46.070386 39.568641 23.209424
3 0 17 15
3 55 54 18
3 1 21 19
3 2 56 57
3 2 58 60
3 58 23 59
3 58 59 60
3 2 25 23
3 61 27 62
3 64 63 27
3 3 65 66
3 4 67 69
3 69 68 16
3 67 68 69
3 4 70 71
3 5 31 29
3 6 72 73
3 6 74 76
3 74 32 75
3 74 75 76
3 6 34 32
3 8 37 35
3 78 77 20
3 80 79 30
3 81 38 82
3 9 83 85
3 83 39 84
3 83 84 85
3 9 40 39
3 10 41 22
3 10 42 41
3 10 43 42
3 11 44 24
3 11 45 44
3 7 46 33
3 12 47 26
3 12 48 47
3 12 49 48
3 13 50 28
3 13 51 50
3 14 86 88
3 86 52 87
3 86 87 88
3 14 89 91
3 91 90 52
3 89 90 91
3 14 92 94
3 92 93 94
3 95 53 96
3 97 96 36
3 95 96 97
3 15 16 3
3 17 16 15
3 17 4 16
3 18 98 100
3 100 99 5
3 98 99 100
3 102 101 18
3 103 6 104
3 106 105 6
3 19 20 8
3 21 20 19
3 21 107 109
3 109 108 20
3 107 108 109
3 110 9 111
3 112 22 113
3 23 114 116
3 114 22 115
3 114 115 116
3 23 10 22
3 23 24 10
3 25 24 23
3 25 11 24
3 117 26 118
3 119 118 7
3 117 118 119
3 27 120 122
3 120 26 121
3 120 121 122
3 27 12 26
3 27 28 12
3 123 28 124
3 125 124 27
3 123 124 125
3 126 13 127
3 128 127 28
3 126 127 128
3 129 14 130
3 132 131 14
3 16 133 135
3 135 134 3
3 133 134 135
3 137 136 16
3 29 30 1
3 31 30 29
3 31 138 140
3 140 139 30
3 138 139 140
3 141 31 142
3 143 142 5
3 141 142 143
3 144 31 145
3 147 146 31
3 32 148 149
3 32 150 152
3 150 2 151
3 150 151 152
3 32 33 2
3 34 33 32
3 34 7 33
3 153 34 154
3 155 154 6
3 153 154 155
3 156 34 157
3 158 7 159
3 160 159 34
3 158 159 160
3 162 161 7
3 35 36 0
3 37 36 35
3 37 163 165
3 165 164 36
3 163 164 165
3 20 37 8
3 166 37 167
3 168 167 20
3 166 167 168
3 170 169 37
3 30 21 1
3 171 21 172
3 173 172 30
3 171 172 173
3 175 174 21
3 38 176 177
3 38 178 180
3 178 3 179
3 178 179 180
3 181 38 182
3 39 183 185
3 183 38 184
3 183 184 185
3 39 3 38
3 39 15 3
3 40 15 39
3 40 0 15
3 186 9 187
3 22 188 189
3 41 190 192
3 192 191 22
3 190 191 192
3 41 193 195
3 193 9 194
3 193 194 195
3 41 40 9
3 42 40 41
3 42 0 40
3 42 35 0
3 43 35 42
3 43 8 35
3 24 43 10
3 44 43 24
3 44 8 43
3 44 19 8
3 45 19 44
3 45 1 19
3 33 25 2
3 46 25 33
3 46 11 25
3 26 46 7
3 47 46 26
3 47 11 46
3 47 45 11
3 48 45 47
3 48 1 45
3 48 29 1
3 49 29 48
3 49 5 29
3 28 49 12
3 50 49 28
3 50 5 49
3 50 18 5
3 51 18 50
3 51 196 198
3 198 197 18
3 196 197 198
3 199 13 200
3 52 201 202
3 52 203 205
3 203 13 204
3 203 204 205
3 52 51 13
3 206 51 207
3 208 207 52
3 206 207 208
3 210 209 51
3 212 211 14
3 36 17 0
3 53 17 36
3 53 4 17
3 213 53 214
3 215 53 216
3 217 4 218
3 219 218 53
3 217 218 219
3 221 220 4
