ply
format ascii 1.0
element vertex 226
property float x
property float y
property float z
element face 207
property list uchar int vertex_index
end_header
-0.67337 73.865356 28.704189
-8.868567 79.878815 29.773804
-3.126583 84.128159 21.721268
-2.747868 75.387161 38.136295
-8.782251 74.703659 36.986538
-5.400738 78.5056 34.013683
-1.078142 70.518936 23.540787
-9.291468 83.924149 22.102465
-12.826008 79.62381 25.789242
-1.402348 79.798935 25.376778
-5.590485 83.094376 26.056248
-2.801867 80.320435 30.054379
-1.07128 75.685623 33.747368
-7.127401 73.974655 39.212761
-0.908812 75.663101 24.526058
-0.824482 72.334061 26.104898
-13.155857 81.422653 22.200096
-12.334942 72.490234 35.859917
-2.123995 82.190598 23.583202
-9.049116 82.052979 25.969383
-7.346876 83.750626 24.048838
-7.162306 81.723709 28.004677
-3.960245 77.16861 36.113556
-3.969385 79.69519 32.143295
-2.728794 77.985291 34.148811
-1.806864 78.222549 31.954899
-1.74136 75.820847 36.055336
-8.77264 77.422012 33.462898
-7.048866 79.404663 31.884129
-7.030077 76.814392 35.63575
-5.449903 75.809799 37.810539
-11.70875 84.995117 16.507887
-9.571478 85.474609 18.220791
-11.371223 83.632156 20.264675
-11.064451 81.944199 24.020136
-10.811687 79.944794 27.728388
-10.635033 77.651886 31.33672
-10.554104 75.085083 34.79274
-10.586403 72.264832 38.053314
-0.453016 71.796707 32.860344
-0.578642 70.443451 30.241203
-0.932415 77.004517 27.084888
-7.577705 85.466095 20.064943
-5.780571 84.947006 21.992764
-4.225645 83.912903 23.953659
-5.455477 80.940796 30.079191
-4.066172 81.949646 28.074404
-2.942911 82.373322 25.898129
-1.942581 80.351212 27.783993
-1.21393 77.882187 29.581383
-0.729855 75.012299 31.27446
-0.850554 68.788116 27.631165
-1.151218 66.927124 25.092869
-2.72645 83.928574 20.554057
-3.226952 84.850762 19.639215
-2.625289 83.159379 22.652235
-2.225156 82.959793 21.485024
-2.72645 83.928574 20.554057
-2.258426 74.276688 39.089309
-1.755172 74.49353 38.04883
-2.244614 75.604004 37.095816
-5.536789 74.342865 39.618539
-6.288652 74.892227 38.51165
-6.375538 73.425293 40.319651
-4.755763 75.10054 38.874591
-5.536789 74.342865 39.618539
-1.171815 71.249725 21.501645
-1.067479 72.236427 22.753414
-1.195631 69.517899 22.304428
-1.171815 71.249725 21.501645
-12.453008 83.27034 19.421968
-11.539987 84.313637 18.386281
-12.621772 83.95182 17.543574
-11.516862 76.396286 32.002523
-11.601219 77.588211 30.316419
-11.476398 75.112885 33.730533
-10.594569 76.368484 33.06473
-11.516862 76.396286 32.002523
-11.487945 70.929009 38.446568
-11.460673 72.377533 36.956615
-12.362214 71.041709 37.349869
-10.666984 70.738907 39.573028
-11.487945 70.929009 38.446568
-12.621772 83.95182 17.543574
-12.824509 84.535011 15.738668
-0.397328 70.046913 33.602764
-0.362054 70.63546 34.910705
-1.278532 79.256408 24.129789
-1.507486 80.611061 23.272549
-1.167381 78.401726 26.230833
-1.043566 77.8592 24.983843
-1.278532 79.256408 24.129789
-0.820846 74.218666 34.582157
-0.650134 73.882004 33.345703
-0.900567 75.348961 32.510914
-0.726126 67.794899 29.668906
-0.714598 69.615783 28.936184
-0.59017 68.622567 30.973924
-1.192913 65.076002 25.860985
-1.045851 66.004799 27.104222
-1.253965 65.935486 23.885086
-1.192913 65.076002 25.860985
-8.02175 72.860077 39.759352
-7.954826 74.339157 38.099649
-8.849176 73.224579 38.646241
-7.243087 72.44162 40.896763
-8.02175 72.860077 39.759352
-6.491224 71.892258 42.003653
-6.375538 73.425293 40.319651
-7.243087 72.44162 40.896763
-0.982814 74.808509 23.246049
-1.023125 76.42067 22.440998
-0.940649 73.14399 24.035469
-0.982814 74.808509 23.246049
-0.866647 73.998581 25.315478
-0.951312 71.426499 24.822843
-1.067479 72.236427 22.753414
-0.940649 73.14399 24.035469
-14.218816 80.975845 21.375591
-13.345325 82.165588 20.389679
-14.01112 80.184196 23.098381
-14.218816 80.975845 21.375591
-13.846196 79.284775 24.892954
-12.990932 80.523232 23.994669
-14.01112 80.184196 23.098381
-13.227018 72.467399 34.80624
-12.366816 73.81546 34.264122
-13.208519 71.112617 36.263737
-13.227018 72.467399 34.80624
-12.362214 71.041709 37.349869
-13.208519 71.112617 36.263737
-1.86831 81.806893 22.375761
-2.225156 82.959793 21.485024
-1.763171 80.994766 24.47999
-1.507486 80.611061 23.272549
-1.86831 81.806893 22.375761
-1.369681 74.523758 36.945352
-1.034641 74.456146 35.791369
-1.40632 75.753235 34.901352
-1.369681 74.523758 36.945352
-1.755172 74.49353 38.04883
-3.774269 84.848503 20.771793
-3.226952 84.850762 19.639215
-4.010934 75.779945 38.0261
-4.705074 76.489204 36.962047
-4.755763 75.10054 38.874591
-3.404745 74.889221 39.03747
-3.354056 76.277885 37.124926
-4.010934 75.779945 38.0261
-2.81408 73.967713 40.054727
-3.404745 74.889221 39.03747
-10.640114 85.234863 17.364339
-9.71867 86.083602 16.291538
-10.787306 85.843856 15.435086
-12.26354 82.527404 21.232385
-12.453008 83.27034 19.421968
-13.345325 82.165588 20.389679
-13.674042 78.344162 26.583412
-13.846196 79.284775 24.892954
-12.696707 78.574173 27.54268
-13.674042 78.344162 26.583412
-11.689546 78.734665 28.512253
-11.818848 79.784302 26.758815
-12.696707 78.574173 27.54268
-10.72336 78.79834 29.532554
-11.689546 78.734665 28.512253
-11.601219 77.588211 30.316419
-11.444523 73.787658 35.326329
-11.476398 75.112885 33.730533
-12.366816 73.81546 34.264122
-9.751252 72.005166 39.179628
-8.849176 73.224579 38.646241
-9.684327 73.484246 37.519926
-9.751252 72.005166 39.179628
-10.666984 70.738907 39.573028
-11.882509 85.511406 14.646572
-12.824509 84.535011 15.738668
-10.787306 85.843856 15.435086
-11.882509 85.511406 14.646572
-0.460141 69.370285 32.293194
-0.515829 71.120079 31.550773
-0.397328 70.046913 33.602764
-0.59017 68.622567 30.973924
-0.460141 69.370285 32.293194
-1.031764 77.188491 23.704428
-1.023125 76.42067 22.440998
-0.920613 76.333809 25.805473
-1.031764 77.188491 23.704428
-1.043566 77.8592 24.983843
-8.700655 86.164772 17.15672
-9.71867 86.083602 16.291538
-7.703768 86.160515 18.078795
-8.700655 86.164772 17.15672
-8.574592 85.470352 19.142867
-6.788826 85.974243 18.997212
-7.703768 86.160515 18.078795
-5.890259 85.714698 19.961123
-6.788826 85.974243 18.997212
-6.679138 85.20655 21.028854
-5.101263 85.257927 20.907541
-5.890259 85.714698 19.961123
-4.3238 84.740876 21.887988
-5.101263 85.257927 20.907541
-5.003108 84.429955 22.973211
-3.676114 84.020531 22.837463
-3.774269 84.848503 20.771793
-4.3238 84.740876 21.887988
-0.511714 72.274208 34.138645
-0.591436 73.404503 32.067402
-0.650134 73.882004 33.345703
-0.362054 70.63546 34.910705
-0.511714 72.274208 34.138645
-0.820846 74.218666 34.582157
-1.034641 74.456146 35.791369
-2.258426 74.276688 39.089309
-2.81408 73.967713 40.054727
-0.89552 66.935295 28.373369
-0.726126 67.794899 29.668906
-1.000886 67.85762 26.362017
-0.89552 66.935295 28.373369
-1.045851 66.004799 27.104222
-1.232169 67.721992 23.080469
-1.195631 69.517899 22.304428
-1.11468 68.72303 24.316828
-1.232169 67.721992 23.080469
-1.253965 65.935486 23.885086
3 0 15 14
3 2 53 54
3 2 55 57
3 55 18 56
3 55 56 57
3 1 21 19
3 3 24 22
3 3 26 24
3 3 58 60
3 60 59 26
3 58 59 60
3 4 29 27
3 61 30 62
3 63 62 13
3 61 62 63
3 65 64 30
3 6 66 67
3 6 68 69
3 70 33 71
3 72 71 31
3 70 71 72
3 8 34 16
3 8 35 34
3 73 36 74
3 75 37 76
3 77 76 36
3 75 76 77
3 78 38 79
3 80 79 17
3 78 79 80
3 82 81 38
3 83 31 84
3 86 85 39
3 9 87 88
3 9 89 91
3 89 41 90
3 89 90 91
3 7 42 32
3 10 43 20
3 10 44 43
3 5 45 28
3 11 46 23
3 11 47 46
3 11 48 47
3 12 49 25
3 12 50 49
3 12 92 94
3 94 93 50
3 92 93 94
3 95 51 96
3 97 96 40
3 95 96 97
3 98 52 99
3 101 100 52
3 102 13 103
3 104 103 4
3 102 103 104
3 105 13 106
3 109 108 13
3 107 108 109
3 14 110 111
3 15 112 114
3 114 113 14
3 112 113 114
3 15 115 117
3 115 6 116
3 115 116 117
3 118 16 119
3 120 16 121
3 122 8 123
3 124 123 16
3 122 123 124
3 125 17 126
3 127 17 128
3 130 129 17
3 18 131 132
3 18 133 135
3 133 9 134
3 133 134 135
3 19 20 7
3 21 20 19
3 21 10 20
3 22 23 5
3 24 23 22
3 24 11 23
3 24 25 11
3 26 25 24
3 26 12 25
3 26 136 138
3 138 137 12
3 136 137 138
3 140 139 26
3 141 2 142
3 27 28 1
3 29 28 27
3 29 5 28
3 13 29 4
3 30 29 13
3 30 5 29
3 30 22 5
3 143 22 144
3 145 144 30
3 143 144 145
3 146 3 147
3 148 147 22
3 146 147 148
3 150 149 3
3 31 151 153
3 151 32 152
3 151 152 153
3 33 32 31
3 33 7 32
3 16 154 156
3 154 33 155
3 154 155 156
3 34 33 16
3 34 7 33
3 34 19 7
3 35 19 34
3 35 1 19
3 157 8 158
3 159 8 160
3 161 35 162
3 163 162 8
3 161 162 163
3 36 164 166
3 164 35 165
3 164 165 166
3 36 1 35
3 36 27 1
3 37 27 36
3 37 4 27
3 17 167 169
3 167 37 168
3 167 168 169
3 38 37 17
3 38 4 37
3 38 170 172
3 172 171 4
3 170 171 172
3 174 173 38
3 31 175 176
3 31 177 178
3 39 40 0
3 179 40 180
3 181 180 39
3 179 180 181
3 183 182 40
3 184 14 185
3 41 186 188
3 186 14 187
3 186 187 188
3 41 0 14
3 32 189 190
3 42 191 193
3 193 192 32
3 191 192 193
3 42 194 195
3 20 42 7
3 43 42 20
3 43 196 198
3 198 197 42
3 196 197 198
3 43 199 200
3 44 201 203
3 203 202 43
3 201 202 203
3 44 204 206
3 204 2 205
3 204 205 206
3 28 21 1
3 45 21 28
3 45 10 21
3 23 45 5
3 46 45 23
3 46 10 45
3 46 44 10
3 47 44 46
3 47 2 44
3 47 18 2
3 48 18 47
3 48 9 18
3 25 48 11
3 49 48 25
3 49 9 48
3 49 41 9
3 50 41 49
3 50 0 41
3 50 39 0
3 207 39 208
3 209 208 50
3 207 208 209
3 211 210 39
3 213 212 12
3 215 214 3
3 40 15 0
3 51 15 40
3 51 6 15
3 216 51 217
3 52 218 220
3 218 51 219
3 218 219 220
3 52 6 51
3 52 221 223
3 223 222 6
3 221 222 223
3 225 224 52
