ply
format ascii 1.0
element vertex 240
property float x
property float y
property float z
element face 228
property list uchar int vertex_index
end_header
28.430477 -84.7173 44.649582
14.860081 -85.293579 59.619392
21.589182 -87.750664 45.79546
28.582748 -81.394676 50.51635
25.210606 -81.796783 50.504738
18.388275 -91.030136 47.953091
21.105633 -93.266029 40.674858
24.518368 -90.31485 38.706383
9.307777 -93.672493 56.07502
12.084143 -92.243988 55.966751
18.40839 -82.290245 58.218048
15.110473 -89.483322 54.750351
18.334007 -86.199425 52.996864
21.734661 -83.400078 51.399315
24.994141 -85.489143 44.550068
28.055502 -88.756668 38.333809
25.323605 -80.222504 53.285561
23.590733 -80.766464 53.649429
22.273075 -94.665688 37.08469
28.519403 -83.001091 47.690605
16.620983 -83.747711 58.94413
13.571228 -90.989014 55.467651
15.300529 -91.808144 52.423523
19.958694 -89.322853 46.804642
18.379498 -88.491257 50.419464
19.998898 -86.861282 49.42939
20.01564 -84.68158 52.138245
21.670326 -85.429329 48.5756
23.381929 -84.298317 47.935631
23.273598 -86.442863 45.020302
25.86307 -91.972542 35.431343
26.285748 -89.331841 38.296299
27.68885 -91.164024 35.280602
28.643219 -79.82357 53.051682
27.011286 -79.935005 53.093147
26.919514 -81.476028 50.401367
26.832771 -83.111725 47.484089
19.817368 -92.051781 44.330288
21.426094 -90.375778 43.140701
23.095963 -88.900314 42.189312
22.784691 -91.661201 39.524914
24.048321 -93.167145 36.052376
8.791756 -91.963509 58.291779
10.224131 -91.261551 58.408752
10.658447 -93.157944 56.182526
7.455261 -92.266212 57.863953
20.207432 -81.014771 57.502098
11.735554 -90.200577 58.229782
13.310713 -88.85186 57.79538
14.938558 -87.314087 57.16613
16.814388 -90.187286 51.451683
16.698231 -87.843201 53.896896
16.61211 -85.704727 56.415108
18.325579 -84.146843 55.619705
20.070358 -82.753227 54.853844
21.832119 -81.610565 54.181206
23.474167 -82.429588 50.841713
25.111935 -83.52552 47.563465
26.723194 -84.923775 44.42495
24.814098 -87.745949 41.565228
26.555672 -86.982857 41.326492
28.288019 -86.616814 41.493317
22.795073 -80.37561 55.248131
23.676977 -79.995697 54.968547
29.261713 -84.749939 44.920913
29.306176 -83.891835 46.441425
28.47494 -83.859195 46.170094
29.205763 -85.651401 43.34718
29.261713 -84.749939 44.920913
14.893906 -84.341519 60.835853
13.986786 -85.08054 61.092273
15.740532 -84.520645 59.281761
15.774357 -83.568585 60.498222
14.893906 -84.341519 60.835853
15.357217 -93.034367 51.321717
14.568095 -92.514996 52.828583
27.416177 -92.496159 33.853657
26.77596 -91.568283 35.355973
26.503287 -92.900418 33.929028
28.359634 -92.171307 33.918587
27.416177 -92.496159 33.853657
26.245196 -79.326843 54.467297
27.072395 -79.173664 54.29895
20.4615 -92.658905 42.502573
19.653337 -93.517719 43.189455
20.29747 -94.124843 41.36174
23.699921 -94.698021 34.852499
23.160698 -93.916416 36.568533
22.812298 -95.447293 35.368656
24.643719 -94.014981 34.428276
23.699921 -94.698021 34.852499
6.54225 -91.500648 58.653385
7.189169 -91.462734 59.006695
29.388462 -81.42059 50.662018
29.418698 -80.635037 51.929684
28.612983 -80.609123 51.784016
18.513973 -81.428371 59.473934
17.588809 -82.107098 59.820202
19.307911 -81.652508 57.860073
19.413494 -80.790634 59.115959
18.513973 -81.428371 59.473934
17.601332 -90.608711 49.702387
16.844759 -91.455914 50.291004
17.631702 -91.877339 48.541708
28.923991 -88.659367 38.573719
29.04025 -87.589439 40.153473
28.17176 -87.686741 39.913563
24.543413 -79.723717 54.786614
25.401355 -79.470593 54.563503
24.621163 -78.971806 56.064556
24.457169 -80.494484 53.467495
24.543413 -79.723717 54.786614
23.676977 -79.995697 54.968547
20.829733 -94.800057 39.553431
20.29747 -94.124843 41.36174
21.413454 -95.499886 37.758347
21.689354 -93.965858 38.879774
20.829733 -94.800057 39.553431
21.889235 -96.238701 35.988802
21.413454 -95.499886 37.758347
22.812298 -95.447293 35.368656
21.889235 -96.238701 35.988802
10.190173 -94.349079 55.05423
9.55262 -94.485134 54.997524
29.338229 -83.046539 47.91745
29.369901 -82.243332 49.330323
28.551075 -82.197884 49.103477
29.338229 -83.046539 47.91745
29.306176 -83.891835 46.441425
16.695105 -82.835831 60.183243
15.774357 -83.568585 60.498222
17.514686 -83.018978 58.581089
17.588809 -82.107098 59.820202
16.695105 -82.835831 60.183243
13.703444 -92.105431 54.350647
12.827685 -91.616501 55.717201
12.959902 -92.732918 54.600197
14.435878 -91.398579 53.945587
13.703444 -92.105431 54.350647
14.568095 -92.514996 52.828583
28.589222 -90.959473 35.447873
28.772548 -89.755795 36.974476
27.872176 -89.960346 36.807206
28.589222 -90.959473 35.447873
28.359634 -92.171307 33.918587
27.888361 -79.117947 54.278217
28.683139 -79.024463 54.153324
27.827253 -79.879288 53.072415
27.888361 -79.117947 54.278217
27.072395 -79.173664 54.29895
26.167445 -80.078755 53.189354
26.245196 -79.326843 54.467297
25.401355 -79.470593 54.563503
13.998974 -86.05542 59.898822
13.986786 -85.08054 61.092273
18.329633 -92.404258 46.799406
17.631702 -91.877339 48.541708
19.04418 -92.915081 44.988005
19.653337 -93.517719 43.189455
19.102821 -91.540959 46.141689
18.329633 -92.404258 46.799406
19.04418 -92.915081 44.988005
25.551094 -93.417679 34.117759
24.955696 -92.569844 35.74186
24.643719 -94.014981 34.428276
26.503287 -92.900418 33.929028
25.551094 -93.417679 34.117759
9.507943 -91.61253 58.350265
9.282015 -90.727043 59.489815
8.565828 -91.078022 59.431328
10.865508 -94.091804 55.107983
9.983112 -93.415219 56.128773
10.190173 -94.349079 55.05423
11.540752 -93.738891 54.987572
10.865508 -94.091804 55.107983
12.2536 -93.281914 54.879684
11.371295 -92.700966 56.074639
11.540752 -93.738891 54.987572
12.959902 -92.732918 54.600197
12.2536 -93.281914 54.879684
7.857416 -91.311383 59.220608
8.565828 -91.078022 59.431328
8.123508 -92.11486 58.077866
7.857416 -91.311383 59.220608
7.189169 -91.462734 59.006695
6.84197 -92.21294 57.500873
6.54225 -91.500648 58.653385
7.750658 -93.014209 56.749321
6.84197 -92.21294 57.500873
8.676916 -93.71735 55.854855
8.381519 -92.969352 56.969487
7.750658 -93.014209 56.749321
9.55262 -94.485134 54.997524
8.676916 -93.71735 55.854855
29.432235 -79.804592 53.085594
28.683139 -79.024463 54.153324
29.432235 -79.804592 53.085594
29.418698 -80.635037 51.929684
29.388462 -81.42059 50.662018
29.369901 -82.243332 49.330323
20.333094 -80.203064 58.762863
19.413494 -80.790634 59.115959
21.103423 -80.499764 57.174465
20.333094 -80.203064 58.762863
10.042641 -90.30949 59.554794
9.282015 -90.727043 59.489815
10.798353 -89.779003 59.465309
10.042641 -90.30949 59.554794
10.979843 -90.731064 58.319267
11.601074 -89.203163 59.393383
10.798353 -89.779003 59.465309
12.388654 -88.528805 59.176182
11.601074 -89.203163 59.393383
12.523134 -89.526218 58.012581
13.22429 -87.834561 58.986817
12.388654 -88.528805 59.176182
14.038213 -87.065674 58.672191
13.22429 -87.834561 58.986817
14.124636 -88.082974 57.480755
14.89932 -86.303833 58.392761
13.998974 -86.05542 59.898822
14.038213 -87.065674 58.672191
16.087829 -92.266343 50.776924
15.357217 -93.034367 51.321717
16.057458 -90.997715 51.937603
16.087829 -92.266343 50.776924
16.844759 -91.455914 50.291004
21.915766 -80.797661 55.514019
21.103423 -80.499764 57.174465
21.019776 -81.312668 55.841652
22.711426 -81.188514 53.915318
22.795073 -80.37561 55.248131
21.915766 -80.797661 55.514019
29.134534 -86.601158 41.769047
29.205763 -85.651401 43.34718
28.359248 -85.667057 43.071449
29.134534 -86.601158 41.769047
29.04025 -87.589439 40.153473
28.923991 -88.659367 38.573719
28.772548 -89.755795 36.974476
3 62 17 63
3 0 64 66
3 66 65 19
3 64 65 66
3 0 67 68
3 1 69 70
3 1 71 73
3 71 20 72
3 71 72 73
3 74 22 75
3 2 25 23
3 2 27 25
3 2 29 27
3 76 32 77
3 78 77 30
3 76 77 78
3 80 79 32
3 81 34 82
3 4 35 16
3 4 36 35
3 6 83 85
3 83 37 84
3 83 84 85
3 6 38 37
3 6 40 38
3 86 41 87
3 88 87 18
3 86 87 88
3 90 89 41
3 8 44 42
3 91 45 92
3 3 93 95
3 95 94 33
3 93 94 95
3 10 96 97
3 10 98 100
3 98 46 99
3 98 99 100
3 9 47 43
3 11 48 21
3 11 49 48
3 5 101 103
3 101 50 102
3 101 102 103
3 12 51 24
3 12 52 51
3 12 53 52
3 13 54 26
3 13 55 54
3 13 56 55
3 14 57 28
3 14 58 57
3 7 59 39
3 15 60 31
3 15 61 60
3 15 104 106
3 106 105 61
3 104 105 106
3 107 16 108
3 107 108 109
3 17 110 112
3 110 16 111
3 110 111 112
3 17 4 16
3 113 6 114
3 115 18 116
3 117 116 6
3 115 116 117
3 118 18 119
3 121 120 18
3 123 122 8
3 19 124 126
3 126 125 3
3 124 125 126
3 128 127 19
3 20 129 130
3 20 131 133
3 131 10 132
3 131 132 133
3 134 21 135
3 136 135 9
3 134 135 136
3 22 137 139
3 137 21 138
3 137 138 139
3 22 11 21
3 23 24 5
3 25 24 23
3 25 12 24
3 25 26 12
3 27 26 25
3 27 13 26
3 27 28 13
3 29 28 27
3 29 14 28
3 30 31 7
3 32 31 30
3 32 15 31
3 32 140 142
3 142 141 15
3 140 141 142
3 144 143 32
3 145 33 146
3 34 147 149
3 147 33 148
3 147 148 149
3 34 3 33
3 16 150 152
3 150 34 151
3 150 151 152
3 35 34 16
3 35 3 34
3 35 19 3
3 36 19 35
3 36 0 19
3 153 1 154
3 155 5 156
3 37 157 158
3 37 159 161
3 159 5 160
3 159 160 161
3 37 23 5
3 38 23 37
3 38 2 23
3 38 39 2
3 40 39 38
3 40 7 39
3 18 40 6
3 41 40 18
3 41 7 40
3 41 30 7
3 162 30 163
3 164 163 41
3 162 163 164
3 166 165 30
3 42 167 169
3 167 43 168
3 167 168 169
3 44 43 42
3 44 9 43
3 170 44 171
3 172 171 8
3 170 171 172
3 173 44 174
3 175 9 176
3 177 176 44
3 175 176 177
3 179 178 9
3 180 42 181
3 45 182 184
3 182 42 183
3 182 183 184
3 45 8 42
3 185 45 186
3 187 45 188
3 189 8 190
3 191 190 45
3 189 190 191
3 193 192 8
3 33 194 195
3 197 196 33
3 199 198 3
3 46 200 201
3 46 202 203
3 43 204 205
3 47 206 208
3 208 207 43
3 206 207 208
3 47 209 210
3 21 47 9
3 48 47 21
3 48 211 213
3 213 212 47
3 211 212 213
3 48 214 215
3 49 216 218
3 218 217 48
3 216 217 218
3 49 219 221
3 219 1 220
3 219 220 221
3 222 22 223
3 50 224 226
3 224 22 225
3 224 225 226
3 50 11 22
3 24 50 5
3 51 50 24
3 51 11 50
3 51 49 11
3 52 49 51
3 52 1 49
3 52 20 1
3 53 20 52
3 53 10 20
3 26 53 12
3 54 53 26
3 54 10 53
3 54 46 10
3 55 46 54
3 55 227 229
3 229 228 46
3 227 228 229
3 55 230 232
3 230 17 231
3 230 231 232
3 56 17 55
3 56 4 17
3 28 56 13
3 57 56 28
3 57 4 56
3 57 36 4
3 58 36 57
3 58 0 36
3 39 29 2
3 59 29 39
3 59 14 29
3 31 59 7
3 60 59 31
3 60 14 59
3 60 58 14
3 61 58 60
3 61 0 58
3 61 233 235
3 235 234 0
3 233 234 235
3 237 236 61
3 239 238 15
