ply
format ascii 1.0
element vertex 249
property float x
property float y
property float z
element face 242
property list uchar int vertex_index
end_header
0.244276 -6.560209 82.803253
-0.418556 -27.919472 88.782555
-2.245325 -22.722704 83.696625
-1.435427 -17.521387 75.22155
1.029964 -12.588961 66.32
-1.140312 -14.751128 83.259972
-2.084654 -20.070324 79.662674
-1.272547 -11.873024 79.58651
-0.223736 -6.663473 71.205116
-1.758249 -25.41008 86.892784
-0.535023 -17.831114 86.227203
1.134918 -9.937715 85.371284
-2.518164 -27.850916 80.002472
-1.624052 -25.469837 75.257912
-0.268726 -23.097549 70.442749
-0.977629 -9.194741 75.490417
-0.356415 -15.041361 70.70565
1.375185 -20.707771 65.81813
-0.466644 -10.669547 83.043007
-1.259115 -13.284345 81.493233
-0.678848 -9.148891 81.382141
-2.109541 -28.986881 87.188698
-1.204657 -26.704411 88.02861
-0.003916 -19.40624 87.352951
0.810041 -15.59822 86.894867
0.261292 -13.90844 85.823883
-2.608782 -26.54401 83.951752
-2.564554 -25.285385 81.952271
-1.816114 -18.783838 77.469437
-2.028101 -22.787018 77.512863
-1.573378 -21.558311 75.183624
-0.996155 -24.283638 72.839493
-1.008831 -20.339914 72.841377
0.28727 -9.645607 68.775436
-0.311541 -10.875978 70.952774
0.314854 -13.812732 68.488457
0.395056 -17.91102 68.243324
1.175873 -16.692451 66.029686
1.940985 -15.469996 63.891586
0.053459 -24.515331 88.534798
-1.744204 -18.779253 83.47258
-2.233183 -21.384396 81.755653
-1.787409 -17.372625 81.610092
-1.71163 -16.007421 79.605095
-1.525663 -14.682049 77.50116
0.302542 -5.444114 69.041588
0.934324 -8.43184 66.626671
1.733059 -11.37089 64.210777
1.57369 -7.23516 64.516434
-2.467081 -27.786915 85.719727
-2.09651 -24.072323 85.428917
-0.688 -23.120964 87.726608
-1.220194 -21.677006 86.580597
-1.563547 -20.220119 85.145798
-0.905602 -16.271053 84.850296
-0.15733 -12.258762 84.531952
0.64752 -8.210383 84.182541
-2.363405 -24.029873 79.786255
-2.136602 -26.659311 77.661148
-0.794727 -7.695665 79.57592
-1.180845 -10.512376 77.574905
-1.230207 -13.389866 75.337273
-0.657274 -7.913188 73.360085
-0.823837 -12.123141 73.146072
-0.946371 -16.276134 72.9571
-0.345671 -19.125895 70.519691
0.534533 -21.906897 68.095451
-0.811607 -27.311941 88.405583
-1.358254 -28.40795 88.161567
-0.965203 -29.015481 88.53854
1.617906 -14.573726 87.01463
1.161345 -16.446734 87.307923
2.073061 -12.638063 86.746285
1.265195 -13.662557 86.626522
1.617906 -14.573726 87.01463
-0.539622 -29.523629 88.883533
0.092982 -28.469967 88.948723
-0.965203 -29.015481 88.53854
-1.086269 -30.619639 88.639518
-0.539622 -29.523629 88.883533
0.592271 -4.849429 67.961922
0.32545 -3.34188 69.131531
0.615179 -2.747196 68.051865
0.908162 -6.343292 66.754463
0.618433 -6.937977 67.83413
0.592271 -4.849429 67.961922
1.227845 -5.744953 65.699345
1.254007 -7.8335 65.571552
0.908162 -6.343292 66.754463
0.011299 -22.040913 87.957863
-0.31727 -23.818148 88.130703
0.382028 -22.738096 88.361957
-2.51853 -29.673745 80.170166
-2.632952 -28.443811 81.113911
-2.317165 -29.10929 78.972084
-2.51853 -29.673745 80.170166
-1.595701 -27.347876 75.366059
-1.851976 -27.942614 76.567677
-1.880327 -26.064574 76.45953
-1.258964 -26.774332 74.121563
-1.595701 -27.347876 75.366059
-0.192675 -25.012699 70.478409
-0.55639 -25.605743 71.676781
-0.63244 -23.690593 71.641121
0.234245 -24.434083 69.266789
-0.192675 -25.012699 70.478409
-0.549678 -5.598203 79.55547
-0.435641 -6.343494 80.412037
-1.079237 -9.853559 76.532661
-0.993089 -8.408078 77.613056
-0.891481 -7.749261 76.570812
-0.440505 -7.28833 72.282601
-0.560495 -5.795573 73.451797
-0.343726 -5.170716 72.374313
1.501281 -22.655572 65.778408
1.080955 -23.255135 66.917068
0.954859 -21.307334 66.95679
1.936146 -22.065366 64.647476
1.501281 -22.655572 65.778408
2.17678 -12.807954 63.025421
2.044226 -10.765173 63.190425
-1.810696 -29.549186 87.741612
-2.171285 -30.673592 87.347988
-1.657099 -27.845646 87.608654
-1.810696 -29.549186 87.741612
-1.358254 -28.40795 88.161567
0.754367 -18.350744 87.536965
0.353341 -20.183551 87.771034
0.403062 -17.50223 87.123909
0.754367 -18.350744 87.536965
1.161345 -16.446734 87.307923
0.990821 -12.817667 86.09103
0.535667 -14.75333 86.359375
1.265195 -13.662557 86.626522
1.427634 -10.832304 85.864731
0.698105 -11.923078 85.597583
0.990821 -12.817667 86.09103
-2.678261 -27.790357 83.08855
-2.70315 -28.372259 84.10817
-2.656147 -27.161045 82.08881
-2.678261 -27.790357 83.08855
-2.586668 -25.914698 82.952011
-2.541359 -26.568151 80.977372
-2.632952 -28.443811 81.113911
-2.656147 -27.161045 82.08881
-0.837709 -7.080505 75.561759
-0.891481 -7.749261 76.570812
1.686523 -18.095403 64.828243
1.78618 -20.103064 64.722465
1.275529 -18.700111 65.923908
2.069079 -17.484176 63.759193
1.686523 -18.095403 64.828243
1.558429 -16.081224 64.960636
2.435425 -16.874482 62.713646
2.069079 -17.484176 63.759193
0.533718 -25.168097 88.748749
-0.182549 -26.217402 88.658676
0.29771 -26.870167 88.872627
0.83861 -23.484251 88.616505
0.533718 -25.168097 88.748749
0.382028 -22.738096 88.361957
0.83861 -23.484251 88.616505
0.29771 -26.870167 88.872627
0.092982 -28.469967 88.948723
-0.165625 -4.549831 71.303024
-0.343726 -5.170716 72.374313
0.097513 -3.940152 70.22126
0.32545 -3.34188 69.131531
0.039403 -6.053793 70.123352
-0.165625 -4.549831 71.303024
0.097513 -3.940152 70.22126
1.964542 -8.697308 63.343254
2.044226 -10.765173 63.190425
1.653374 -9.303025 64.363606
1.516316 -5.164393 64.627682
1.227845 -5.744953 65.699345
1.856055 -6.644657 63.485462
1.516316 -5.164393 64.627682
1.798681 -4.573891 63.596711
1.964542 -8.697308 63.343254
1.856055 -6.644657 63.485462
0.083861 -5.775766 82.025703
0.602237 -4.502339 82.658733
-2.372688 -30.152567 86.618908
-2.171285 -30.673592 87.347988
-2.551458 -29.552584 85.884422
-2.372688 -30.152567 86.618908
-2.288311 -28.386898 86.454213
-2.6323 -28.993711 84.992157
-2.551458 -29.552584 85.884422
-2.537932 -27.165463 84.83574
-2.70315 -28.372259 84.10817
-2.6323 -28.993711 84.992157
-0.345958 -21.263602 87.53978
0.011299 -22.040913 87.957863
0.353341 -20.183551 87.771034
1.914652 -8.877058 85.563026
1.427634 -10.832304 85.864731
1.593216 -7.939971 85.119857
1.914652 -8.877058 85.563026
2.37295 -6.879314 85.311599
1.349517 -7.076304 84.525486
0.891219 -9.074049 84.776913
1.593216 -7.939971 85.119857
1.061066 -6.179218 83.985142
1.349517 -7.076304 84.525486
0.859444 -5.354131 83.295498
0.445898 -7.385296 83.492897
1.061066 -6.179218 83.985142
0.602237 -4.502339 82.658733
0.859444 -5.354131 83.295498
-2.126384 -28.513488 77.801422
-2.317165 -29.10929 78.972084
-2.327383 -27.255114 78.83181
-2.126384 -28.513488 77.801422
-1.851976 -27.942614 76.567677
-0.945015 -26.181233 72.912353
-1.258964 -26.774332 74.121563
-1.310104 -24.876737 74.048703
-0.945015 -26.181233 72.912353
-0.55639 -25.605743 71.676781
-0.377702 -7.070107 81.315147
-0.217286 -7.85455 82.092697
0.083861 -5.775766 82.025703
-0.736787 -8.422278 80.47903
-0.377702 -7.070107 81.315147
-0.435641 -6.343494 80.412037
-0.800029 -6.999722 78.613563
-0.549678 -5.598203 79.55547
-0.987786 -9.104021 78.575412
-0.800029 -6.999722 78.613563
-0.993089 -8.408078 77.613056
-0.677532 -6.439728 74.496593
-0.560495 -5.795573 73.451797
-0.817451 -8.553964 74.425251
-0.837709 -7.080505 75.561759
-0.677532 -6.439728 74.496593
0.635875 -23.838757 68.09314
0.234245 -24.434083 69.266789
0.132904 -22.502223 69.2691
0.635875 -23.838757 68.09314
1.080955 -23.255135 66.917068
1.936146 -22.065366 64.647476
1.78618 -20.103064 64.722465
2.280743 -14.857507 62.865825
1.837022 -13.420443 64.051181
2.17678 -12.807954 63.025421
2.435425 -16.874482 62.713646
2.280743 -14.857507 62.865825
3 0 20 18
3 1 67 69
3 67 22 68
3 67 68 69
3 70 24 71
3 74 73 24
3 72 73 74
3 1 75 76
3 1 77 79
3 77 78 79
3 2 27 26
3 3 30 28
3 3 32 30
3 4 35 33
3 4 37 35
3 4 38 37
3 5 42 40
3 7 43 19
3 7 44 43
3 80 45 81
3 80 81 82
3 83 46 84
3 85 84 45
3 83 84 85
3 86 48 87
3 88 87 46
3 86 87 88
3 9 49 21
3 9 50 49
3 89 51 90
3 91 90 39
3 89 90 91
3 10 52 23
3 10 53 52
3 10 54 53
3 11 55 25
3 11 56 55
3 12 92 93
3 12 94 95
3 6 57 41
3 13 58 29
3 13 96 98
3 98 97 58
3 96 97 98
3 13 99 100
3 14 101 103
3 103 102 31
3 101 102 103
3 14 104 105
3 106 59 107
3 15 108 110
3 108 60 109
3 108 109 110
3 15 61 60
3 8 111 113
3 111 62 112
3 111 112 113
3 16 63 34
3 16 64 63
3 16 65 64
3 17 66 36
3 17 114 116
3 116 115 66
3 114 115 116
3 17 117 118
3 120 119 47
3 18 19 5
3 20 19 18
3 20 7 19
3 121 21 122
3 22 123 125
3 123 21 124
3 123 124 125
3 22 9 21
3 126 23 127
3 24 128 130
3 128 23 129
3 128 129 130
3 24 10 23
3 24 25 10
3 131 25 132
3 133 132 24
3 131 132 133
3 134 11 135
3 136 135 25
3 134 135 136
3 26 137 138
3 27 139 141
3 141 140 26
3 139 140 141
3 27 142 144
3 142 12 143
3 142 143 144
3 28 29 6
3 30 29 28
3 30 13 29
3 30 31 13
3 32 31 30
3 32 14 31
3 145 15 146
3 33 34 8
3 35 34 33
3 35 16 34
3 35 36 16
3 37 36 35
3 37 17 36
3 37 147 149
3 149 148 17
3 147 148 149
3 38 150 152
3 152 151 37
3 150 151 152
3 38 153 154
3 155 39 156
3 157 156 1
3 155 156 157
3 158 39 159
3 161 160 39
3 162 1 163
3 40 41 2
3 42 41 40
3 42 6 41
3 19 42 5
3 43 42 19
3 43 6 42
3 43 28 6
3 44 28 43
3 44 3 28
3 164 8 165
3 45 166 167
3 45 168 170
3 168 8 169
3 168 169 170
3 45 33 8
3 46 33 45
3 46 4 33
3 46 47 4
3 48 47 46
3 48 171 173
3 173 172 47
3 171 172 173
3 174 48 175
3 176 48 177
3 176 177 178
3 180 179 48
3 182 181 0
3 21 183 184
3 49 185 187
3 187 186 21
3 185 186 187
3 49 188 189
3 49 190 192
3 190 26 191
3 190 191 192
3 50 26 49
3 50 2 26
3 39 22 1
3 51 22 39
3 51 9 22
3 23 193 195
3 193 51 194
3 193 194 195
3 52 51 23
3 52 9 51
3 52 50 9
3 53 50 52
3 53 2 50
3 53 40 2
3 54 40 53
3 54 5 40
3 25 54 10
3 55 54 25
3 55 5 54
3 55 18 5
3 56 18 55
3 56 0 18
3 196 11 197
3 198 11 199
3 198 199 200
3 201 56 202
3 203 202 11
3 201 202 203
3 204 56 205
3 206 0 207
3 208 207 56
3 206 207 208
3 210 209 0
3 41 27 2
3 57 27 41
3 57 12 27
3 29 57 6
3 58 57 29
3 58 12 57
3 58 211 213
3 213 212 12
3 211 212 213
3 215 214 58
3 31 216 218
3 218 217 13
3 216 217 218
3 220 219 31
3 221 20 222
3 223 222 0
3 221 222 223
3 59 224 226
3 224 20 225
3 224 225 226
3 59 7 20
3 227 59 228
3 60 229 231
3 229 59 230
3 229 230 231
3 60 7 59
3 60 44 7
3 61 44 60
3 61 3 44
3 62 232 233
3 62 234 236
3 234 15 235
3 234 235 236
3 34 62 8
3 63 62 34
3 63 15 62
3 63 61 15
3 64 61 63
3 64 3 61
3 64 32 3
3 65 32 64
3 65 14 32
3 36 65 16
3 66 65 36
3 66 14 65
3 66 237 239
3 239 238 14
3 237 238 239
3 241 240 66
3 243 242 17
3 47 38 4
3 244 38 245
3 246 245 47
3 244 245 246
3 248 247 38
