ply
format ascii 1.0
element vertex 182
property float x
property float y
property float z
element face 174
property list uchar int vertex_index
end_header
66.415741 -9.123349 -37.322098
66.350418 -20.12406 -39.887909
63.413284 -3.071595 -31.696463
61.474823 -4.093284 -46.644333
66.776787 -12.644592 -32.755951
64.86628 -5.568439 -35.109871
62.880089 1.194704 -36.798134
63.918472 -1.88969 -39.938835
64.561813 -6.27311 -41.986435
68.426849 -16.695812 -34.375946
66.97744 -14.026842 -38.802094
64.423767 -11.873675 -43.360832
66.783615 -10.807759 -35.024651
65.838348 -9.075702 -33.991852
65.713364 -7.188378 -36.340385
64.576439 -3.64617 -37.526466
65.214218 -5.460441 -38.701408
64.331848 -3.91384 -41.070183
65.667274 -7.610375 -39.645424
63.957939 -6.379697 -31.078821
62.189564 3.137457 -39.316963
61.877476 4.385962 -37.312279
66.795372 -16.955204 -39.390854
65.813301 -12.89614 -41.075996
65.527824 -15.945345 -41.621506
65.629303 -11.087871 -31.657747
64.829781 -7.620414 -32.693352
64.041847 -4.212818 -33.57177
63.267006 -0.88969 -34.254974
63.876823 -2.13674 -36.057976
63.395767 -0.195572 -38.530975
62.557957 1.572666 -40.984238
62.882423 -0.324629 -42.340576
63.088463 -2.557596 -43.437157
63.145119 -5.104816 -44.328941
67.763847 -14.496752 -33.638641
67.494293 -12.870119 -35.86013
66.854019 -11.40379 -38.123299
67.864204 -15.288528 -36.564499
67.863548 -18.051613 -37.184883
67.521095 -21.112352 -37.7379
62.496788 2.309753 -34.724396
65.869614 -10.098787 -40.421867
64.586639 -8.943423 -42.740913
63.059685 -7.919228 -45.053139
64.103287 -14.995388 -43.838486
62.856255 -10.935923 -45.614929
61.342049 -7.008033 -47.314842
63.40567 -4.1889 -30.414769
63.677998 -5.842951 -30.105947
63.685612 -4.725646 -31.387642
63.260395 -2.595215 -30.596668
63.252781 -3.712521 -29.314974
63.40567 -4.1889 -30.414769
63.148037 -1.472296 -31.905723
63.260395 -2.595215 -30.596668
61.579061 4.724475 -39.592018
61.673925 4.017987 -40.559719
60.596445 -2.25188 -47.363751
61.502685 -2.742394 -46.214596
60.542084 -3.660025 -47.76585
60.596445 -2.25188 -47.363751
66.203045 -11.866231 -32.206849
66.03014 -12.844202 -31.086309
66.603882 -13.622563 -31.635412
68.095348 -15.596282 -34.007294
68.198921 -16.373209 -32.93927
68.530422 -17.472739 -33.307923
68.192955 -20.108103 -36.402451
68.272487 -18.655384 -36.105252
68.021728 -21.638472 -36.678959
67.692321 -19.581983 -37.461392
68.192955 -20.108103 -36.402451
61.795012 4.857009 -36.148254
61.36936 5.882242 -37.458371
63.872169 -16.615057 -43.986027
64.57663 -17.084008 -42.937752
62.001503 -10.500854 -46.696323
62.702904 -12.509933 -45.799785
61.2444 -8.536909 -47.54628
62.099152 -8.971978 -46.464885
62.001503 -10.500854 -46.696323
60.409849 -6.603101 -48.389103
61.2444 -8.536909 -47.54628
68.813041 -18.644737 -33.649116
68.530422 -17.472739 -33.307923
68.554138 -17.977483 -34.700783
68.813041 -18.644737 -33.649116
63.833454 -7.485399 -29.832822
64.246669 -8.068786 -30.679737
63.553512 -6.948654 -28.859949
63.833454 -7.485399 -29.832822
63.677998 -5.842951 -30.105947
61.423018 5.348727 -38.589676
62.03352 3.76171 -38.314621
61.579061 4.724475 -39.592018
61.36936 5.882242 -37.458371
61.423018 5.348727 -38.589676
65.391239 -12.134227 -30.49805
66.03014 -12.844202 -31.086309
65.082351 -10.422873 -30.9692
65.391239 -12.134227 -30.49805
64.682591 -8.689144 -31.487002
65.082351 -10.422873 -30.9692
65.229542 -9.354143 -32.17555
64.39386 -7.000056 -31.886086
64.246669 -8.068786 -30.679737
64.682591 -8.689144 -31.487002
61.858122 3.235591 -41.393356
61.673925 4.017987 -40.559719
62.373761 2.355061 -40.1506
61.956259 2.355447 -42.19677
61.858122 3.235591 -41.393356
62.118492 1.406799 -42.874939
61.956259 2.355447 -42.19677
62.72019 0.624018 -41.662407
62.186363 0.354742 -43.530529
62.118492 1.406799 -42.874939
62.289383 -0.761742 -44.078819
62.186363 0.354742 -43.530529
62.985443 -1.441113 -42.888866
62.309506 -1.97455 -44.611008
62.289383 -0.761742 -44.078819
62.337834 -3.24816 -45.0569
62.309506 -1.97455 -44.611008
63.116791 -3.831206 -43.883049
62.309971 -4.59905 -45.486637
61.502685 -2.742394 -46.214596
62.337834 -3.24816 -45.0569
65.700196 -19.648344 -40.962463
66.018329 -21.788501 -40.073234
67.219791 -14.455769 -32.107545
66.603882 -13.622563 -31.635412
67.713322 -15.381849 -32.54889
68.198921 -16.373209 -32.93927
67.270317 -13.570672 -33.197296
67.219791 -14.455769 -32.107545
67.713322 -15.381849 -32.54889
68.272816 -17.273841 -35.79506
68.145527 -15.99217 -35.470222
68.554138 -17.977483 -34.700783
67.863876 -16.670071 -36.874691
68.272816 -17.273841 -35.79506
68.272487 -18.655384 -36.105252
67.759563 -23.233142 -36.948254
68.021728 -21.638472 -36.678959
67.206745 -22.7546 -37.971924
67.759563 -23.233142 -36.948254
66.621407 -22.260454 -39.046928
66.935756 -20.618206 -38.812905
67.206745 -22.7546 -37.971924
66.018329 -21.788501 -40.073234
66.621407 -22.260454 -39.046928
63.074898 -0.381344 -33.184978
63.148037 -1.472296 -31.905723
63.340145 -1.980642 -32.975718
62.689789 1.218378 -33.41969
63.074898 -0.381344 -33.184978
62.881897 0.710032 -34.489685
62.416882 2.734452 -33.531326
62.689789 1.218378 -33.41969
62.104668 3.818905 -34.854313
62.187132 3.347857 -36.018338
61.795012 4.857009 -36.148254
62.416882 2.734452 -33.531326
62.104668 3.818905 -34.854313
65.288898 -17.558986 -41.829262
65.939121 -18.034703 -40.754707
65.700196 -19.648344 -40.962463
64.815555 -15.470367 -42.729996
65.288898 -17.558986 -41.829262
64.57663 -17.084008 -42.937752
63.32642 -14.539665 -44.911564
63.872169 -16.615057 -43.986027
63.479771 -12.965656 -44.726708
63.32642 -14.539665 -44.911564
62.702904 -12.509933 -45.799785
60.475696 -5.1174 -48.101104
60.542084 -3.660025 -47.76585
61.408436 -5.550658 -46.979588
60.475696 -5.1174 -48.101104
60.409849 -6.603101 -48.389103
3 0 14 12
3 0 16 14
3 0 18 16
3 2 48 50
3 50 49 19
3 48 49 50
3 2 51 53
3 51 52 53
3 2 54 55
3 57 56 20
3 3 58 59
3 3 60 61
3 1 24 22
3 4 62 64
3 62 25 63
3 62 63 64
3 5 26 13
3 5 27 26
3 5 29 27
3 7 30 15
3 7 31 30
3 7 32 31
3 8 33 17
3 8 34 33
3 9 65 67
3 65 35 66
3 65 66 67
3 9 36 35
3 9 38 36
3 68 39 69
3 70 40 71
3 72 71 39
3 70 71 72
3 6 41 28
3 74 73 21
3 10 42 37
3 11 43 23
3 11 44 43
3 75 45 76
3 77 46 78
3 79 47 80
3 81 80 46
3 79 80 81
3 83 82 47
3 12 13 4
3 14 13 12
3 14 5 13
3 14 15 5
3 16 15 14
3 16 7 15
3 16 17 7
3 18 17 16
3 18 8 17
3 84 9 85
3 87 86 9
3 19 88 89
3 92 91 19
3 90 91 92
3 20 21 6
3 93 21 94
3 95 94 20
3 93 94 95
3 97 96 21
3 22 23 10
3 24 23 22
3 24 11 23
3 25 98 99
3 25 100 101
3 13 25 4
3 26 25 13
3 26 102 104
3 104 103 25
3 102 103 104
3 26 105 107
3 105 19 106
3 105 106 107
3 27 19 26
3 27 2 19
3 27 28 2
3 29 28 27
3 29 6 28
3 15 29 5
3 30 29 15
3 30 6 29
3 30 20 6
3 31 20 30
3 31 108 110
3 110 109 20
3 108 109 110
3 31 111 112
3 32 113 115
3 115 114 31
3 113 114 115
3 32 116 117
3 17 32 7
3 33 32 17
3 33 118 120
3 120 119 32
3 118 119 120
3 33 121 122
3 34 123 125
3 125 124 33
3 123 124 125
3 34 126 128
3 126 3 127
3 126 127 128
3 130 129 1
3 131 4 132
3 35 133 134
3 35 135 137
3 135 4 136
3 135 136 137
3 35 12 4
3 36 12 35
3 36 0 12
3 36 37 0
3 38 37 36
3 38 10 37
3 138 38 139
3 140 139 9
3 138 139 140
3 39 141 143
3 141 38 142
3 141 142 143
3 39 10 38
3 39 22 10
3 40 22 39
3 40 1 22
3 144 40 145
3 146 40 147
3 148 1 149
3 150 149 40
3 148 149 150
3 152 151 1
3 28 153 155
3 155 154 2
3 153 154 155
3 41 156 158
3 158 157 28
3 156 157 158
3 41 159 160
3 21 41 6
3 161 41 162
3 163 162 21
3 161 162 163
3 165 164 41
3 37 18 0
3 42 18 37
3 42 8 18
3 23 42 10
3 43 42 23
3 43 8 42
3 43 34 8
3 44 34 43
3 44 3 34
3 166 24 167
3 168 167 1
3 166 167 168
3 45 169 171
3 169 24 170
3 169 170 171
3 45 11 24
3 172 45 173
3 46 174 176
3 174 45 175
3 174 175 176
3 46 11 45
3 46 44 11
3 47 44 46
3 47 3 44
3 47 177 179
3 179 178 3
3 177 178 179
3 181 180 47
