ply
format ascii 1.0
element vertex 238
property float x
property float y
property float z
element face 244
property list uchar int vertex_index
end_header
-17.008429 -44.007549 84.202774
-10.060095 -39.567963 86.52063
-3.200132 -42.56974 89.053528
-9.794844 -48.088943 88.423378
-19.18128 -37.013397 81.627762
-16.666155 -48.612663 83.679291
-13.476032 -41.748566 85.947708
-9.565763 -43.603111 88.088951
-13.153889 -45.917648 86.569077
-13.296375 -50.746254 85.957016
-16.012535 -34.841484 81.577354
-3.862688 -47.330971 88.986221
-6.2472 -41.111748 88.424515
-6.296547 -45.573158 89.332222
-7.018343 -50.254704 89.059616
-10.271473 -53.012589 87.46067
-17.887487 -40.193268 83.57872
-14.418142 -38.166809 84.076515
-16.768513 -46.216278 84.049637
-18.48172 -47.648346 82.440033
-18.716473 -45.314854 82.822556
-15.255059 -42.831268 85.254173
-13.241629 -43.746407 86.428391
-15.022726 -44.920689 85.409821
-14.924827 -47.200771 85.262077
-8.570438 -38.282654 86.650352
-6.63154 -38.92865 87.67263
-8.073704 -40.333832 87.584671
-9.613234 -45.782875 88.427864
-7.839893 -44.59203 88.870277
-8.027065 -46.846603 89.072281
-6.618134 -47.884407 89.357605
-8.326004 -49.1954 88.936317
-8.64732 -51.624241 88.472641
-10.040382 -50.50922 88.087715
-15.020644 -52.224178 84.318939
-13.424778 -53.331978 85.321846
-18.489975 -38.545979 82.750107
-20.249043 -39.538963 82.443207
-17.50877 -35.992867 81.554863
-15.130678 -36.494682 82.847183
-16.755527 -37.55764 82.831779
-16.128294 -39.18602 83.933273
-16.676395 -51.157883 83.17469
-11.720726 -40.691067 86.33242
-9.704342 -41.540459 87.431755
-11.450874 -42.645668 87.083847
-11.356804 -44.737823 87.515038
-11.408323 -46.98307 87.603477
-11.55691 -49.373474 87.365906
-13.186861 -48.259846 86.394363
-14.938492 -49.649475 84.874268
-18.400082 -34.445427 80.229073
-3.417759 -44.959633 89.129997
-4.859587 -39.562012 88.422188
-4.611212 -41.869041 88.943008
-7.838711 -42.427643 88.354362
-6.149147 -43.320045 89.003769
-4.665119 -44.177944 89.287064
-4.961964 -46.501122 89.390442
-5.408781 -48.847679 89.211121
-5.891212 -51.217957 88.73362
-7.392643 -52.670326 88.447815
-11.739376 -51.87904 86.847496
-11.888342 -54.45467 86.107292
-17.386768 -42.002991 84.062042
-19.105017 -43.182564 83.006897
-19.626989 -41.262135 82.901207
-10.647165 -37.649525 85.451523
-13.699072 -35.27813 82.95858
-12.839386 -37.049103 84.161499
-12.181364 -38.83987 85.325287
-13.867431 -39.902122 85.143288
-15.625836 -40.928963 84.75956
-15.067515 -53.547663 83.990142
-15.885933 -53.01174 83.462547
-20.060673 -37.49525 81.624398
-19.71502 -38.261541 82.18557
-18.835628 -37.779688 82.188935
-2.579962 -41.622873 88.898517
-3.244903 -41.361832 88.929158
-17.53104 -49.380886 82.817383
-17.536161 -50.653496 82.565083
-16.671275 -49.885273 83.426991
-19.332616 -48.426452 81.577148
-19.434121 -47.204023 81.824367
-19.626555 -34.266621 79.581883
-18.924377 -33.663277 79.606846
-20.150849 -33.48447 78.959655
-19.181703 -34.994261 80.270565
-19.626555 -34.266621 79.581883
-3.149237 -46.479467 88.738231
-2.926773 -45.293798 88.810119
-3.640224 -46.145302 89.058109
-9.587024 -53.557983 87.58879
-8.774947 -52.86381 88.094776
-9.459397 -52.318415 87.966656
-10.344122 -54.284365 87.028621
-9.587024 -53.557983 87.58879
-12.700032 -55.209383 85.329109
-12.65656 -53.893324 85.714569
-13.46825 -54.648037 84.936386
-11.917124 -55.752571 85.656116
-12.700032 -55.209383 85.329109
-21.106768 -40.070175 82.121601
-21.473224 -39.247416 81.907116
-11.058077 -36.699873 84.893856
-9.990999 -36.948222 85.553119
-14.855804 -35.059807 82.267967
-14.231859 -34.387888 82.395077
-15.388591 -34.169565 81.704464
-19.935262 -43.839264 82.317463
-20.204864 -42.812098 82.433891
-19.551497 -46.037278 82.015629
-19.434121 -47.204023 81.824367
-18.599097 -46.4816 82.631294
-3.441914 -47.678292 88.541908
-4.141892 -48.511162 88.788612
-7.600989 -38.605652 87.161491
-6.973112 -37.840622 87.255932
-7.942561 -37.517624 86.744792
-14.269582 -54.101562 84.491596
-14.222711 -52.778078 84.820392
-15.067515 -53.547663 83.990142
-13.46825 -54.648037 84.936386
-14.269582 -54.101562 84.491596
-20.594554 -38.758033 82.03212
-19.369509 -39.042471 82.596657
-19.71502 -38.261541 82.18557
-21.473224 -39.247416 81.907116
-20.594554 -38.758033 82.03212
-17.550436 -51.96249 82.310863
-16.713808 -52.478592 82.890422
-18.410201 -51.458103 81.701256
-17.550436 -51.96249 82.310863
-17.536161 -50.653496 82.565083
-18.438823 -48.898727 82.197754
-17.53104 -49.380886 82.817383
-17.573937 -48.130505 83.059662
-18.438823 -48.898727 82.197754
-19.332616 -48.426452 81.577148
-16.713808 -52.478592 82.890422
-15.885933 -53.01174 83.462547
-15.84852 -51.69103 83.746814
-20.432456 -36.770313 81.05534
-19.572302 -36.278246 80.969909
-16.544045 -34.008243 80.983406
-15.388591 -34.169565 81.704464
-17.737819 -33.810215 80.309266
-18.924377 -33.663277 79.606846
-17.206308 -34.643456 80.903213
-16.544045 -34.008243 80.983406
-17.737819 -33.810215 80.309266
-18.736047 -35.767981 80.93346
-17.954426 -35.219147 80.891968
-19.181703 -34.994261 80.270565
-19.572302 -36.278246 80.969909
-18.345025 -36.503132 81.591313
-18.736047 -35.767981 80.93346
-2.733002 -44.069755 88.912391
-2.624188 -42.874809 88.874157
-3.308946 -43.764686 89.091763
-2.733002 -44.069755 88.912391
-2.926773 -45.293798 88.810119
-3.149237 -46.479467 88.738231
-3.441914 -47.678292 88.541908
-6.032697 -38.08823 87.73608
-6.973112 -37.840622 87.255932
-5.14672 -38.404911 88.110859
-6.032697 -38.08823 87.73608
-5.745564 -39.245331 88.047409
-4.292435 -38.636443 88.431007
-5.14672 -38.404911 88.110859
-4.074631 -39.857968 88.613488
-4.292435 -38.636443 88.431007
-3.950443 -41.011482 88.873897
-4.074631 -39.857968 88.613488
-4.735399 -40.715527 88.682598
-3.905672 -42.219391 88.998268
-3.244903 -41.361832 88.929158
-3.950443 -41.011482 88.873897
-4.914939 -49.269516 88.901062
-4.141892 -48.511162 88.788612
-4.635734 -48.089325 89.098671
-5.156154 -50.454655 88.662312
-4.914939 -49.269516 88.901062
-5.649997 -50.032818 88.972371
-5.427475 -51.630592 88.333046
-5.156154 -50.454655 88.662312
-6.093026 -52.409571 88.350014
-5.427475 -51.630592 88.333046
-6.843742 -53.135756 88.207111
-6.093026 -52.409571 88.350014
-6.641927 -51.944142 88.590718
-7.520609 -53.887814 88.000695
-6.843742 -53.135756 88.207111
-8.147609 -53.386852 88.082363
-8.019982 -52.147284 88.460228
-8.774947 -52.86381 88.094776
-7.520609 -53.887814 88.000695
-8.147609 -53.386852 88.082363
-11.152556 -55.005405 86.351933
-10.344122 -54.284365 87.028621
-11.079908 -53.733629 86.783981
-11.152556 -55.005405 86.351933
-11.917124 -55.752571 85.656116
-20.465849 -41.851883 82.381046
-20.204864 -42.812098 82.433891
-19.366003 -42.222349 82.954052
-20.795741 -40.931761 82.350601
-19.938016 -40.400549 82.672207
-21.106768 -40.070175 82.121601
-20.465849 -41.851883 82.381046
-20.795741 -40.931761 82.350601
-20.060673 -37.49525 81.624398
-20.432456 -36.770313 81.05534
-8.952635 -37.264786 86.152534
-7.942561 -37.517624 86.744792
-9.608801 -37.966089 86.050938
-8.952635 -37.264786 86.152534
-9.990999 -36.948222 85.553119
-13.111031 -34.561676 83.120327
-14.231859 -34.387888 82.395077
-12.584031 -35.514176 83.647385
-13.111031 -34.561676 83.120327
-12.154188 -36.399662 84.248844
-12.584031 -35.514176 83.647385
-13.269229 -36.163617 83.56004
-11.743275 -37.349314 84.806511
-11.058077 -36.699873 84.893856
-12.154188 -36.399662 84.248844
-19.74099 -44.905409 82.225292
-18.910745 -44.248709 82.914727
-19.935262 -43.839264 82.317463
-19.551497 -46.037278 82.015629
-19.74099 -44.905409 82.225292
-2.579962 -41.622873 88.898517
-2.624188 -42.874809 88.874157
3 0 20 18
3 0 23 21
3 0 18 23
3 1 27 25
3 3 30 28
3 3 32 30
3 3 34 32
3 75 74 35
3 4 76 78
3 78 77 37
3 76 77 78
3 4 41 39
3 4 37 41
3 2 79 80
3 5 81 83
3 83 82 43
3 81 82 83
3 85 84 19
3 6 46 44
3 8 47 22
3 8 48 47
3 8 50 48
3 5 51 24
3 5 43 51
3 86 52 87
3 86 87 88
3 90 89 52
3 11 91 93
3 93 92 53
3 91 92 93
3 12 54 26
3 12 55 54
3 7 56 45
3 13 57 29
3 13 58 57
3 13 59 58
3 14 60 31
3 14 61 60
3 14 62 61
3 15 94 96
3 96 95 33
3 94 95 96
3 15 97 98
3 9 63 49
3 99 64 100
3 101 100 36
3 99 100 101
3 103 102 64
3 16 67 65
3 105 104 38
3 106 68 107
3 10 108 110
3 108 69 109
3 108 109 110
3 17 70 40
3 17 71 70
3 17 72 71
3 16 73 42
3 16 65 73
3 112 111 66
3 18 19 5
3 20 19 18
3 20 113 115
3 115 114 19
3 113 114 115
3 21 22 6
3 23 22 21
3 23 8 22
3 23 24 8
3 18 24 23
3 18 5 24
3 117 116 11
3 25 118 120
3 118 26 119
3 118 119 120
3 27 26 25
3 27 12 26
3 28 29 7
3 30 29 28
3 30 13 29
3 30 31 13
3 32 31 30
3 32 14 31
3 32 33 14
3 34 33 32
3 34 15 33
3 35 36 9
3 121 36 122
3 123 122 35
3 121 122 123
3 125 124 36
3 37 38 16
3 126 38 127
3 128 127 37
3 126 127 128
3 130 129 38
3 39 40 10
3 41 40 39
3 41 17 40
3 41 42 17
3 37 42 41
3 37 16 42
3 43 131 132
3 135 134 43
3 133 134 135
3 19 136 138
3 138 137 5
3 136 137 138
3 140 139 19
3 44 45 1
3 46 45 44
3 46 7 45
3 22 46 6
3 47 46 22
3 47 7 46
3 47 28 7
3 48 28 47
3 48 3 28
3 48 49 3
3 50 49 48
3 50 9 49
3 24 50 8
3 51 50 24
3 51 9 50
3 51 35 9
3 43 35 51
3 43 141 143
3 143 142 35
3 141 142 143
3 145 144 4
3 146 10 147
3 52 148 149
3 52 150 152
3 150 10 151
3 150 151 152
3 52 39 10
3 153 39 154
3 155 154 52
3 153 154 155
3 156 4 157
3 158 157 39
3 156 157 158
3 53 159 161
3 161 160 2
3 159 160 161
3 163 162 53
3 165 164 11
3 26 166 167
3 54 168 170
3 170 169 26
3 168 169 170
3 54 171 172
3 54 173 174
3 55 175 177
3 177 176 54
3 175 176 177
3 55 178 180
3 178 2 179
3 178 179 180
3 45 27 1
3 56 27 45
3 56 12 27
3 29 56 7
3 57 56 29
3 57 12 56
3 57 55 12
3 58 55 57
3 58 2 55
3 58 53 2
3 59 53 58
3 59 11 53
3 31 59 13
3 60 59 31
3 60 11 59
3 60 181 183
3 183 182 11
3 181 182 183
3 61 184 186
3 186 185 60
3 184 185 186
3 61 187 188
3 61 189 190
3 62 191 193
3 193 192 61
3 191 192 193
3 62 194 195
3 33 62 14
3 196 62 197
3 198 197 33
3 196 197 198
3 200 199 62
3 49 34 3
3 63 34 49
3 63 15 34
3 36 63 9
3 64 63 36
3 64 15 63
3 64 201 203
3 203 202 15
3 201 202 203
3 205 204 64
3 65 66 0
3 67 66 65
3 67 206 208
3 208 207 66
3 206 207 208
3 38 67 16
3 209 67 210
3 211 210 38
3 209 210 211
3 213 212 67
3 215 214 4
3 216 25 217
3 68 218 220
3 218 25 219
3 218 219 220
3 68 1 25
3 69 221 222
3 69 223 224
3 40 69 10
3 70 69 40
3 70 225 227
3 227 226 69
3 225 226 227
3 70 228 230
3 228 68 229
3 228 229 230
3 71 68 70
3 71 1 68
3 71 44 1
3 72 44 71
3 72 6 44
3 42 72 17
3 73 72 42
3 73 6 72
3 73 21 6
3 65 21 73
3 65 0 21
3 66 20 0
3 231 20 232
3 233 232 66
3 231 232 233
3 235 234 20
3 237 236 2
