ply
format ascii 1.0
element vertex 292
property float x
property float y
property float z
element face 310
property list uchar int vertex_index
end_header
3.129343 -18.759716 51.199524
1.177444 13.231487 49.276947
-4.440439 -8.152911 39.76226
1.564367 -2.631432 51.638565
-1.336836 -13.380199 46.330704
-2.026014 3.377621 44.861824
4.010357 -26.638889 50.960297
1.72654 -24.23772 48.742546
1.208286 5.342613 50.935921
-0.229101 0.28372 48.411682
-0.350163 8.346231 47.126335
-3.112738 -10.650192 43.297478
-2.641584 -19.264673 43.772079
-3.96501 -16.950161 40.509941
-5.745737 -6.07616 35.850246
-5.105898 -14.96637 36.88739
2.248291 -10.689334 51.584404
0.923079 -16.126425 48.854965
0.220676 -7.893178 48.879723
-1.804213 -4.948284 45.895012
-3.437815 -2.045382 42.412971
-1.97555 11.531096 43.004288
-3.570814 6.387915 40.85524
-4.807924 0.550394 38.467796
-0.706306 -21.750168 46.497726
3.582405 -22.739752 51.035614
2.937452 -25.450813 49.816277
2.514416 -21.491041 49.88916
1.157377 9.298466 50.227631
0.460907 6.806667 49.058273
0.465252 10.774803 48.208694
-3.808516 -9.358706 41.583546
-3.597582 -13.724793 41.934216
-4.212526 -12.553713 40.189331
1.87085 -6.651355 51.683167
1.27507 -9.315526 50.242935
0.949034 -5.250346 50.225601
-1.153494 1.821852 46.69101
-1.028368 -2.289028 47.157291
-1.949247 -0.766378 45.47168
-2.673037 -3.474983 44.21814
-2.780523 0.741974 43.662102
-3.556028 10.518822 39.774071
-4.28414 7.766451 38.692078
-4.233271 3.566799 39.690147
-4.930464 4.818178 37.550484
-5.504583 1.665401 36.349686
-0.244789 -14.762459 47.643948
0.107683 -18.909472 47.653828
-1.036413 -17.588482 46.428303
-3.100363 -22.370827 42.401672
-2.359831 -23.493073 43.933517
2.119722 -28.162817 48.757271
0.859608 -27.001698 47.693657
1.34219 1.366327 51.400864
0.699553 -1.20664 50.04834
0.536573 2.812424 49.668274
-0.330746 4.330408 47.883369
-1.200811 5.897223 46.014496
-2.297674 -12.000427 44.88401
-2.045069 -16.267851 45.070618
-2.892809 -14.971167 43.568893
-3.36133 -18.074545 42.197952
-3.700991 -21.305866 40.751724
-5.071104 -7.054069 37.849628
-4.806364 -11.477987 38.355461
-5.438013 -10.51084 36.442505
2.676044 -14.732854 51.402184
2.080996 -17.460001 50.017738
1.65991 -13.391956 50.154243
0.549076 -12.010609 48.903168
-0.562185 -10.594247 47.589325
-0.04327 -3.791995 48.731766
-0.828156 -6.430799 47.442932
-1.596735 -9.15842 46.16724
-2.509756 -7.727944 44.612953
-3.296556 -6.33359 42.924198
-3.989241 -5.007314 41.113564
-0.295507 12.327675 46.136917
-1.173784 9.933672 45.113522
-2.033697 7.478151 44.042152
-2.815313 9.032267 41.960449
-2.828203 4.912958 42.915264
-3.530615 2.19829 41.73119
-4.133055 -0.693779 40.491539
-4.641748 -3.777655 39.197952
-5.30739 -2.666523 37.188801
-6.016729 -1.688023 35.086952
4.430984 -23.961786 52.296486
3.972677 -20.028431 52.467361
3.503971 -16.036161 52.708984
2.639406 -7.9946 53.154366
1.322054 -20.213486 48.786575
0.479919 -23.00164 47.659882
-0.354076 -25.82748 46.567825
-1.758959 -20.497721 45.208038
-1.442705 -24.652151 45.323311
-4.523222 -15.910081 38.734341
-4.642907 8.393423 37.563786
-4.282511 9.834596 38.092304
-4.966069 6.919287 36.992988
-4.607302 6.292314 38.121281
-4.642907 8.393423 37.563786
-5.29159 5.374963 36.434162
-4.966069 6.919287 36.992988
-2.954739 -24.472374 42.482738
-3.258812 -23.976011 41.668518
3.669954 -27.971649 50.397972
4.200088 -28.531518 50.985542
-0.236629 14.297598 45.53188
0.12094 13.519586 46.631529
-1.574667 10.732384 44.058905
-1.126809 11.930051 44.551695
-1.527692 12.728763 43.497078
-6.128126 0.47486 34.611418
-5.760656 -0.011311 35.718319
-5.872053 2.151572 35.242784
-6.390482 -1.268671 33.985193
-6.128126 0.47486 34.611418
4.483228 -22.616798 53.085888
4.709066 -24.561272 53.011074
4.254075 -20.65012 53.171325
4.20183 -21.995109 52.381923
4.483228 -22.616798 53.085888
3.556194 -14.670977 53.564346
3.785673 -16.672792 53.418003
3.277551 -14.026317 52.834598
3.556194 -14.670977 53.564346
2.725465 -6.637322 54.003422
2.91109 -8.641886 53.91951
2.464994 -5.990606 53.190278
2.725465 -6.637322 54.003422
-1.74279 -26.134546 44.696863
-1.901268 -24.072612 44.628414
-2.201353 -25.555006 44.001966
-1.268946 -26.672343 45.378631
-1.74279 -26.134546 44.696863
-5.939897 -7.867373 35.14805
-6.109813 -5.651193 34.803323
-1.916122 13.531491 42.379635
-1.527692 12.728763 43.497078
-3.918455 11.210782 38.633301
-3.520399 12.554104 39.132187
-3.920084 9.142637 39.233075
-3.918455 11.210782 38.633301
-4.282511 9.834596 38.092304
-5.57865 3.798575 35.833764
-5.217524 3.241789 36.950085
-5.29159 5.374963 36.434162
-5.872053 2.151572 35.242784
-5.57865 3.798575 35.833764
-2.584472 -25.033497 43.248661
-2.730097 -22.93195 43.167594
-2.954739 -24.472374 42.482738
-2.201353 -25.555006 44.001966
-2.584472 -25.033497 43.248661
-4.933471 -17.187647 37.049282
-5.231215 -16.778887 36.118756
3.133501 -27.377611 49.825963
3.669954 -27.971649 50.397972
3.473904 -26.044851 50.388287
2.724636 -28.733613 49.296459
3.133501 -27.377611 49.825963
2.528587 -26.806815 49.286774
2.303425 -30.059255 48.805756
2.724636 -28.733613 49.296459
1.678539 -29.518565 48.266943
2.303425 -30.059255 48.805756
1.048482 -28.938006 47.735136
1.678539 -29.518565 48.266943
1.489665 -27.582258 48.225464
0.437978 -28.392444 47.175697
1.048482 -28.938006 47.735136
-3.559126 -23.44353 40.843544
-3.258812 -23.976011 41.668518
-3.400677 -21.838347 41.576698
0.895637 15.922541 47.612339
0.857416 13.971493 48.201544
1.215666 15.182535 48.687742
-5.786035 -10.084713 35.444179
-5.591875 -8.2935 36.146375
-5.939897 -7.867373 35.14805
-5.597504 -12.317507 35.705992
-5.786035 -10.084713 35.444179
-5.431446 -14.545272 35.928435
-5.271955 -12.738605 36.664947
-5.597504 -12.317507 35.705992
-5.231215 -16.778887 36.118756
-5.431446 -14.545272 35.928435
0.50132 12.743151 47.667417
0.821348 12.003145 48.742821
0.857416 13.971493 48.201544
0.084872 11.551239 47.172805
0.50132 12.743151 47.667417
0.12094 13.519586 46.631529
-0.68767 13.127052 45.063392
-0.236629 14.297598 45.53188
-0.734645 11.130674 45.62522
-0.68767 13.127052 45.063392
-1.126809 11.930051 44.551695
-2.359386 12.31373 41.899582
-1.916122 13.531491 42.379635
-3.149625 11.807593 40.284474
-3.520399 12.554104 39.132187
-2.779268 11.064315 41.377662
-3.149625 11.807593 40.284474
-3.185671 9.775544 40.86726
-2.395431 10.281681 42.482368
-2.359386 12.31373 41.899582
-2.779268 11.064315 41.377662
-6.245309 -3.457125 34.421676
-6.109813 -5.651193 34.803323
-5.881233 -3.882092 35.468599
-6.245309 -3.457125 34.421676
-6.390482 -1.268671 33.985193
4.431665 -27.22094 51.603409
4.200088 -28.531518 50.985542
4.641978 -25.882388 52.271504
4.709066 -24.561272 53.011074
4.22067 -25.300337 51.628391
4.431665 -27.22094 51.603409
4.641978 -25.882388 52.271504
4.020026 -18.668927 53.297191
4.254075 -20.65012 53.171325
3.738324 -18.032296 52.588172
4.020026 -18.668927 53.297191
3.785673 -16.672792 53.418003
2.863588 -13.374663 52.181199
3.090008 -15.384507 52.055584
3.277551 -14.026317 52.834598
2.649711 -11.352903 52.272309
2.462168 -12.711094 51.493294
2.863588 -13.374663 52.181199
2.845269 -10.005536 53.05729
2.91109 -8.641886 53.91951
2.443849 -9.341967 52.369385
2.649711 -11.352903 52.272309
2.845269 -10.005536 53.05729
2.080716 -5.318983 52.454678
2.255128 -7.322978 52.418767
2.464994 -5.990606 53.190278
1.927474 -3.309022 52.432377
1.717608 -4.641393 51.660866
2.080716 -5.318983 52.454678
1.792212 -1.315335 52.378956
1.927474 -3.309022 52.432377
2.155318 -1.992924 53.172768
1.681123 0.683545 52.260105
1.453279 -0.632553 51.519714
1.792212 -1.315335 52.378956
1.588319 2.66693 52.096688
1.681123 0.683545 52.260105
1.521367 4.655073 51.864216
1.275238 3.35447 51.168392
1.588319 2.66693 52.096688
1.469595 6.629409 51.579255
1.521367 4.655073 51.864216
1.444141 8.607335 51.22511
1.182832 7.320539 50.581776
1.469595 6.629409 51.579255
1.42805 10.572961 50.816009
1.444141 8.607335 51.22511
1.438083 12.539471 50.340667
1.16741 11.264976 49.752289
1.42805 10.572961 50.816009
1.450251 14.494245 49.8121
1.438083 12.539471 50.340667
1.215666 15.182535 48.687742
1.450251 14.494245 49.8121
-0.168864 -27.805335 46.612781
0.437978 -28.392444 47.175697
0.252766 -26.414589 47.130741
-0.724631 -27.260008 46.000889
-0.89839 -25.239815 45.945568
-1.268946 -26.672343 45.378631
-0.168864 -27.805335 46.612781
-0.724631 -27.260008 46.000889
-4.642133 -17.659502 37.972758
-4.81456 -15.438225 37.810866
-4.933471 -17.187647 37.049282
-4.376138 -18.112541 38.874157
-4.642133 -17.659502 37.972758
-4.097033 -18.632582 39.761957
-4.244116 -16.430121 39.622141
-4.376138 -18.112541 38.874157
-3.965023 -20.810434 39.882849
-3.833 -19.128014 40.630832
-4.097033 -18.632582 39.761957
-3.813422 -22.97965 39.984544
-3.965023 -20.810434 39.882849
-3.559126 -23.44353 40.843544
-3.813422 -22.97965 39.984544
3 0 27 25
3 1 30 28
3 2 33 31
3 3 36 34
3 5 39 37
3 5 41 39
3 98 43 99
3 100 45 101
3 102 101 43
3 100 101 102
3 104 103 45
3 4 49 47
3 106 105 50
3 6 107 108
3 7 52 26
3 7 53 52
3 8 56 54
3 10 57 29
3 10 58 57
3 11 61 59
3 13 62 32
3 13 63 62
3 14 66 64
3 16 69 67
3 18 70 35
3 18 71 70
3 9 72 55
3 19 73 38
3 19 74 73
3 19 75 74
3 20 76 40
3 20 77 76
3 109 78 110
3 21 111 113
3 111 79 112
3 111 112 113
3 21 80 79
3 22 81 42
3 22 82 81
3 22 83 82
3 23 84 44
3 23 85 84
3 23 86 85
3 114 87 115
3 116 115 46
3 114 115 116
3 118 117 87
3 119 88 120
3 121 89 122
3 123 122 88
3 121 122 123
3 124 90 125
3 127 126 90
3 128 91 129
3 131 130 91
3 17 92 68
3 24 93 48
3 24 94 93
3 12 95 60
3 132 96 133
3 134 133 51
3 132 133 134
3 136 135 96
3 15 97 65
3 25 26 6
3 27 26 25
3 27 7 26
3 28 29 8
3 30 29 28
3 30 10 29
3 31 32 11
3 33 32 31
3 33 13 32
3 138 137 14
3 34 35 16
3 36 35 34
3 36 18 35
3 37 38 9
3 39 38 37
3 39 19 38
3 39 40 19
3 41 40 39
3 41 20 40
3 139 21 140
3 141 42 142
3 43 143 145
3 143 42 144
3 143 144 145
3 43 22 42
3 43 44 22
3 45 44 43
3 45 23 44
3 45 46 23
3 146 46 147
3 148 147 45
3 146 147 148
3 150 149 46
3 47 48 17
3 49 48 47
3 49 24 48
3 50 51 12
3 151 51 152
3 153 152 50
3 151 152 153
3 155 154 51
3 157 156 15
3 26 158 160
3 160 159 6
3 158 159 160
3 52 161 163
3 163 162 26
3 161 162 163
3 52 164 165
3 52 166 167
3 53 168 170
3 170 169 52
3 168 169 170
3 53 171 172
3 54 55 3
3 56 55 54
3 56 9 55
3 29 56 8
3 57 56 29
3 57 9 56
3 57 37 9
3 58 37 57
3 58 5 37
3 59 60 4
3 61 60 59
3 61 12 60
3 32 61 11
3 62 61 32
3 62 12 61
3 62 50 12
3 63 50 62
3 63 173 175
3 175 174 50
3 173 174 175
3 178 177 1
3 176 177 178
3 64 65 2
3 66 65 64
3 66 15 65
3 179 66 180
3 181 180 14
3 179 180 181
3 182 66 183
3 184 15 185
3 186 185 66
3 184 185 186
3 188 187 15
3 67 68 0
3 69 68 67
3 69 17 68
3 35 69 16
3 70 69 35
3 70 17 69
3 70 47 17
3 71 47 70
3 71 4 47
3 55 36 3
3 72 36 55
3 72 18 36
3 38 72 9
3 73 72 38
3 73 18 72
3 73 71 18
3 74 71 73
3 74 4 71
3 74 59 4
3 75 59 74
3 75 11 59
3 40 75 19
3 76 75 40
3 76 11 75
3 76 31 11
3 77 31 76
3 77 2 31
3 189 30 190
3 191 190 1
3 189 190 191
3 78 192 194
3 192 30 193
3 192 193 194
3 78 10 30
3 195 78 196
3 79 197 199
3 197 78 198
3 197 198 199
3 79 10 78
3 79 58 10
3 80 58 79
3 80 5 58
3 200 21 201
3 42 202 203
3 81 204 206
3 206 205 42
3 204 205 206
3 81 207 209
3 207 21 208
3 207 208 209
3 81 80 21
3 82 80 81
3 82 5 80
3 82 41 5
3 83 41 82
3 83 20 41
3 44 83 22
3 84 83 44
3 84 20 83
3 84 77 20
3 85 77 84
3 85 2 77
3 85 64 2
3 86 64 85
3 86 14 64
3 46 86 23
3 87 86 46
3 87 14 86
3 87 210 212
3 212 211 14
3 210 211 212
3 214 213 87
3 215 6 216
3 88 217 218
3 88 219 221
3 219 6 220
3 219 220 221
3 88 25 6
3 89 25 88
3 89 0 25
3 222 89 223
3 90 224 226
3 224 89 225
3 224 225 226
3 90 0 89
3 90 67 0
3 227 67 228
3 229 228 90
3 227 228 229
3 230 16 231
3 232 231 67
3 230 231 232
3 91 233 234
3 91 235 237
3 235 16 236
3 235 236 237
3 91 34 16
3 238 34 239
3 240 239 91
3 238 239 240
3 241 3 242
3 243 242 34
3 241 242 243
3 244 3 245
3 244 245 246
3 247 54 248
3 249 248 3
3 247 248 249
3 250 54 251
3 252 8 253
3 254 253 54
3 252 253 254
3 255 8 256
3 257 28 258
3 259 258 8
3 257 258 259
3 260 28 261
3 262 1 263
3 264 263 28
3 262 263 264
3 265 1 266
3 268 267 1
3 68 27 0
3 92 27 68
3 92 7 27
3 48 92 17
3 93 92 48
3 93 7 92
3 93 53 7
3 94 53 93
3 94 269 271
3 271 270 53
3 269 270 271
3 60 49 4
3 95 49 60
3 95 24 49
3 51 95 12
3 96 95 51
3 96 24 95
3 96 94 24
3 272 94 273
3 274 273 96
3 272 273 274
3 276 275 94
3 65 33 2
3 97 33 65
3 97 13 33
3 277 97 278
3 279 278 15
3 277 278 279
3 280 97 281
3 282 13 283
3 284 283 97
3 282 283 284
3 285 63 286
3 287 286 13
3 285 286 287
3 288 63 289
3 291 290 63
