ply
format ascii 1.0
element vertex 212
property float x
property float y
property float z
element face 198
property list uchar int vertex_index
end_header
52.845589 -13.260794 -51.396118
60.501053 -16.359247 -47.876183
63.641052 -18.234726 -44.133568
62.212494 -24.800062 -43.941635
59.161499 -22.590216 -46.558418
48.652172 -13.035687 -50.721069
48.019768 -19.424166 -46.47538
51.798691 -19.070889 -47.735252
61.146751 -10.065785 -47.777718
57.38308 -8.521705 -51.504974
56.881767 -14.576948 -50.458977
55.603432 -20.479523 -47.84008
63.559731 -25.853842 -42.267258
50.96991 -10.005982 -52.986427
50.749607 -12.970045 -51.235298
50.38868 -15.963767 -49.255768
52.407299 -16.188616 -49.638115
46.39666 -16.856518 -47.716003
62.12735 -17.296717 -46.107735
62.549553 -14.083942 -45.984642
60.879608 -13.200961 -47.984901
59.318062 -9.257927 -49.77095
59.096252 -12.351741 -49.751534
57.200367 -11.559086 -51.195312
58.752846 -15.440285 -49.352097
58.088875 -25.606464 -45.380928
57.436913 -21.495089 -47.380577
56.373795 -24.411522 -45.928352
54.585461 -23.303127 -46.173187
53.11198 -10.322845 -52.83992
65.686241 -23.452942 -40.25856
65.049973 -19.172628 -42.037018
64.397804 -22.499722 -42.272865
63.024132 -21.522429 -44.186951
61.548092 -20.518196 -45.924599
59.949913 -19.499342 -47.404259
60.753288 -23.704865 -45.395164
59.687584 -26.824451 -44.519836
46.669998 -10.319242 -52.094658
46.582993 -13.510052 -49.936409
48.381298 -16.176893 -48.58709
49.908539 -18.966032 -47.230629
49.37973 -21.944212 -45.342743
51.064526 -21.803055 -45.905525
59.47765 -6.198169 -49.463364
55.199265 -10.863755 -52.240616
54.902603 -13.825422 -51.145271
58.218925 -18.495949 -48.551498
56.363674 -17.55773 -49.313881
54.412491 -16.756962 -49.671333
53.706318 -19.630442 -47.947517
52.790474 -22.378202 -46.153778
45.480797 -15.626728 -48.344296
45.422928 -17.406879 -47.223621
56.543408 -26.468595 -44.947307
57.231335 -25.008993 -45.65464
57.400948 -27.066066 -44.673595
55.698912 -25.811486 -45.128357
56.543408 -26.468595 -44.947307
53.174612 -8.851491 -53.348477
52.087288 -8.695587 -53.600944
64.610698 -24.679008 -41.359142
65.042023 -22.976332 -41.265713
65.254917 -25.155618 -40.35199
59.74781 -28.992757 -43.496692
60.421051 -27.423735 -43.943084
59.00309 -28.339464 -43.935527
59.74781 -28.992757 -43.496692
47.661085 -11.677464 -51.407864
47.740196 -10.152228 -52.404758
48.731283 -11.510451 -51.717964
47.814464 -21.129631 -45.485382
47.067211 -19.907923 -46.01957
48.699749 -20.684189 -45.909061
48.494445 -22.389654 -44.919064
47.814464 -21.129631 -45.485382
63.872169 -16.615057 -43.986027
64.57663 -17.084008 -42.937752
64.345512 -18.703677 -43.085293
62.001503 -10.500854 -46.696323
62.702904 -12.509933 -45.799785
61.848152 -12.074863 -46.88118
61.2444 -8.536909 -47.54628
62.001503 -10.500854 -46.696323
60.312201 -8.131977 -48.620541
60.409849 -6.603101 -48.389103
61.2444 -8.536909 -47.54628
57.440575 -7.005149 -51.462024
58.408066 -7.373261 -50.595012
58.350571 -8.889816 -50.637962
56.403889 -6.706256 -52.298828
57.440575 -7.005149 -51.462024
56.367296 -8.202001 -52.197998
56.403889 -6.706256 -52.298828
53.052269 -24.171251 -45.317658
53.687967 -22.840665 -46.163483
53.949763 -24.633713 -45.327362
52.236725 -23.620109 -45.326523
53.052269 -24.171251 -45.317658
63.656575 -28.059079 -41.326759
64.191662 -26.356068 -41.356338
63.029922 -27.514337 -42.117607
63.656575 -28.059079 -41.326759
62.356304 -26.987448 -42.954796
62.886112 -25.326952 -43.104446
63.029922 -27.514337 -42.117607
61.683506 -26.411541 -43.653984
62.356304 -26.987448 -42.954796
49.890152 -9.995598 -52.850643
49.914741 -8.506391 -53.696968
49.78 -11.47763 -51.975078
49.890152 -9.995598 -52.850643
50.859758 -11.488014 -52.110862
49.70089 -13.002866 -50.978184
48.731283 -11.510451 -51.717964
49.78 -11.47763 -51.975078
46.255657 -18.624099 -46.639881
45.422928 -17.406879 -47.223621
47.208214 -18.140342 -47.095692
47.067211 -19.907923 -46.01957
46.255657 -18.624099 -46.639881
54.804745 -25.257288 -45.250774
55.479628 -23.857325 -46.05077
55.698912 -25.811486 -45.128357
53.949763 -24.633713 -45.327362
54.804745 -25.257288 -45.250774
51.016253 -8.537156 -53.674198
49.914741 -8.506391 -53.696968
52.040945 -10.164413 -52.913173
51.016253 -8.537156 -53.674198
52.087288 -8.695587 -53.600944
65.368107 -21.312785 -41.147789
65.700196 -19.648344 -40.962463
66.018329 -21.788501 -40.073234
63.978767 -24.176782 -42.270061
64.610698 -24.679008 -41.359142
64.191662 -26.356068 -41.356338
60.953903 -25.863943 -44.380748
61.482891 -24.252464 -44.668399
61.683506 -26.411541 -43.653984
60.220436 -25.264658 -44.9575
60.953903 -25.863943 -44.380748
60.421051 -27.423735 -43.943084
58.203736 -27.73047 -44.366073
58.88823 -26.215457 -44.950382
59.00309 -28.339464 -43.935527
57.400948 -27.066066 -44.673595
58.203736 -27.73047 -44.366073
66.289318 -23.924895 -39.232254
66.018329 -21.788501 -40.073234
66.621407 -22.260454 -39.046928
65.856609 -25.635078 -39.400352
66.289318 -23.924895 -39.232254
66.459687 -26.107031 -38.374046
65.254917 -25.155618 -40.35199
65.856609 -25.635078 -39.400352
46.666946 -8.785827 -53.065449
47.740196 -10.152228 -52.404758
45.589733 -9.082572 -52.708218
46.666946 -8.785827 -53.065449
45.624706 -10.678209 -51.654663
45.589733 -9.082572 -52.708218
45.581204 -12.273613 -50.575539
45.624706 -10.678209 -51.654663
46.626496 -11.914647 -51.015534
45.573964 -13.953494 -49.454498
45.581204 -12.273613 -50.575539
46.489826 -15.183285 -48.826206
45.480797 -15.626728 -48.344296
45.573964 -13.953494 -49.454498
50.704245 -22.92838 -45.189137
49.861847 -22.998959 -44.907746
50.222128 -21.873634 -45.624134
49.162872 -23.516889 -44.489342
48.494445 -22.389654 -44.919064
49.861847 -22.998959 -44.907746
49.162872 -23.516889 -44.489342
65.288898 -17.558986 -41.829262
65.700196 -19.648344 -40.962463
65.288898 -17.558986 -41.829262
64.57663 -17.084008 -42.937752
63.32642 -14.539665 -44.911564
63.872169 -16.615057 -43.986027
63.095303 -16.159334 -45.059105
63.32642 -14.539665 -44.911564
62.702904 -12.509933 -45.799785
59.543497 -4.712467 -49.175365
60.475696 -5.1174 -48.101104
60.409849 -6.603101 -48.389103
58.53833 -4.348461 -50.228798
59.543497 -4.712467 -49.175365
58.48786 -5.843381 -50.44122
59.397856 -7.728048 -49.617157
58.408066 -7.373261 -50.595012
58.53833 -4.348461 -50.228798
58.48786 -5.843381 -50.44122
56.27594 -9.720691 -52.043167
56.367296 -8.202001 -52.197998
57.291724 -10.040396 -51.350143
55.275389 -9.373026 -52.565819
56.27594 -9.720691 -52.043167
56.199816 -11.21142 -51.717964
54.218255 -9.121945 -53.048825
55.275389 -9.373026 -52.565819
54.155622 -10.5933 -52.540268
53.174612 -8.851491 -53.348477
54.218255 -9.121945 -53.048825
51.373751 -23.332535 -45.202396
51.9275 -22.090629 -46.029651
52.236725 -23.620109 -45.326523
50.704245 -22.92838 -45.189137
51.373751 -23.332535 -45.202396
3 0 14 13
3 0 16 14
3 52 17 53
3 1 20 18
3 1 22 20
3 1 24 22
3 54 27 55
3 56 55 25
3 54 55 56
3 58 57 27
3 59 29 60
3 61 32 62
3 63 62 30
3 61 62 63
3 3 33 12
3 3 34 33
3 3 36 34
3 64 37 65
3 67 66 37
3 5 68 70
3 68 38 69
3 68 69 70
3 5 39 38
3 5 40 39
3 7 41 15
3 7 43 41
3 6 71 72
3 6 73 75
3 73 42 74
3 73 74 75
3 2 76 78
3 78 77 31
3 76 77 78
3 8 79 81
3 81 80 19
3 79 80 81
3 8 82 83
3 8 84 86
3 84 44 85
3 84 85 86
3 9 87 89
3 89 88 21
3 87 88 89
3 9 90 91
3 9 92 93
3 10 45 23
3 10 46 45
3 4 47 35
3 11 48 26
3 11 49 48
3 11 50 49
3 94 51 95
3 96 95 28
3 94 95 96
3 98 97 51
3 99 12 100
3 101 12 102
3 103 3 104
3 105 104 12
3 103 104 105
3 107 106 3
3 13 108 109
3 14 110 112
3 112 111 13
3 110 111 112
3 14 113 115
3 113 5 114
3 113 114 115
3 14 15 5
3 16 15 14
3 16 7 15
3 17 116 117
3 17 118 120
3 118 6 119
3 118 119 120
3 18 19 2
3 20 19 18
3 20 8 19
3 20 21 8
3 22 21 20
3 22 9 21
3 22 23 9
3 24 23 22
3 24 10 23
3 25 26 4
3 27 26 25
3 27 11 26
3 27 28 11
3 121 28 122
3 123 122 27
3 121 122 123
3 125 124 28
3 126 13 127
3 29 128 130
3 128 13 129
3 128 129 130
3 29 0 13
3 30 131 133
3 131 31 132
3 131 132 133
3 32 31 30
3 32 2 31
3 12 134 136
3 134 32 135
3 134 135 136
3 33 32 12
3 33 2 32
3 33 18 2
3 34 18 33
3 34 1 18
3 34 35 1
3 36 35 34
3 36 4 35
3 137 36 138
3 139 138 3
3 137 138 139
3 37 140 142
3 140 36 141
3 140 141 142
3 37 4 36
3 37 25 4
3 143 25 144
3 145 144 37
3 143 144 145
3 147 146 25
3 148 30 149
3 148 149 150
3 151 30 152
3 151 152 153
3 155 154 30
3 38 156 157
3 38 158 159
3 38 160 161
3 39 162 164
3 164 163 38
3 162 163 164
3 39 165 166
3 39 167 169
3 167 17 168
3 167 168 169
3 40 17 39
3 40 6 17
3 15 40 5
3 41 40 15
3 41 6 40
3 41 42 6
3 43 42 41
3 43 170 172
3 172 171 42
3 170 171 172
3 42 173 174
3 42 175 176
3 31 177 178
3 180 179 31
3 19 181 183
3 183 182 2
3 181 182 183
3 185 184 19
3 44 186 188
3 186 187 188
3 44 189 190
3 21 44 8
3 191 44 192
3 193 192 21
3 191 192 193
3 195 194 44
3 23 196 198
3 198 197 9
3 196 197 198
3 45 199 201
3 201 200 23
3 199 200 201
3 45 202 203
3 45 204 206
3 204 29 205
3 204 205 206
3 46 29 45
3 46 0 29
3 35 24 1
3 47 24 35
3 47 10 24
3 26 47 4
3 48 47 26
3 48 10 47
3 48 46 10
3 49 46 48
3 49 0 46
3 49 16 0
3 50 16 49
3 50 7 16
3 28 50 11
3 51 50 28
3 51 7 50
3 51 43 7
3 207 43 208
3 209 208 51
3 207 208 209
3 211 210 43
