ply
format ascii 1.0
element vertex 231
property float x
property float y
property float z
element face 232
property list uchar int vertex_index
end_header
69.877029 -9.418596 30.266304
70.800636 -9.901105 23.503925
65.229988 -6.698997 33.957001
68.987556 -2.326021 25.565765
70.742874 -9.539621 27.122898
70.250702 -13.832081 27.35297
69.943283 -12.74904 30.803173
64.079971 -2.947977 32.227051
69.844948 -1.085993 21.697767
69.526329 -10.31741 20.376677
69.283974 -14.779074 24.047085
68.155853 -7.891078 31.894928
67.284409 -4.212481 29.667625
69.714226 -6.351835 27.852922
70.563538 -5.376248 20.321432
70.681694 -5.640094 23.92355
70.35463 -9.438058 28.865263
70.451607 -11.21174 28.909546
70.01255 -10.839113 30.507259
65.16523 -13.397348 18.884125
70.345871 -10.111694 21.844437
69.484314 -12.617367 22.140612
70.229095 -12.290451 23.677349
66.801094 -7.217981 32.894905
67.259415 -9.009179 34.014824
65.823921 -8.479 35.091263
64.625343 -4.869088 32.949326
65.735939 -3.475372 30.868301
66.272758 -5.391932 31.788717
67.753593 -6.101869 30.746269
69.984703 -5.341905 18.766384
69.552094 -1.628599 23.593857
70.35778 -3.427909 22.64912
70.005806 -3.85339 24.587891
70.302094 -5.921188 25.872986
69.411575 -4.424891 26.595619
70.916115 -9.702675 25.292957
70.61409 -11.937985 25.373434
70.671356 -11.574017 27.152294
70.236176 -13.304281 29.105782
63.512291 -6.346219 35.077946
62.886459 -4.527224 34.220795
68.933289 0.69808 22.9594
68.445877 -0.097515 24.873915
68.345947 -10.508337 19.138161
66.918671 -13.17007 19.727526
68.373558 -12.910926 20.814909
68.257065 -15.18115 22.634268
69.944359 -14.327277 25.639986
69.217216 -8.672034 30.985012
69.365623 -10.320383 31.814941
68.45475 -9.651948 32.929085
67.710678 -1.0662 26.833563
65.228981 -1.452036 30.275421
66.785812 -2.198523 28.831348
68.210091 -3.186859 27.593338
68.640465 -5.168156 28.649071
68.983643 -6.994239 29.849236
69.874458 -8.065342 29.167057
69.385269 -7.886375 18.792042
70.268654 -7.790622 20.191257
70.787323 -7.711588 21.799143
70.410172 -3.125113 20.815788
70.78627 -5.46803 22.055101
70.955254 -7.667588 23.571524
70.814194 -7.683619 25.444366
70.427673 -7.795396 27.337048
69.403427 -12.148481 32.356857
66.000713 -12.038405 18.513886
65.107735 -12.112555 18.136425
69.794895 -13.841093 30.964266
69.941341 -14.118714 30.115571
70.08973 -13.026661 29.954478
62.978367 -7.109083 36.165714
62.611347 -6.250017 35.672804
62.298431 -5.34052 35.244229
62.002344 -4.439011 34.913531
61.414316 -5.252306 35.936964
62.611347 -6.250017 35.672804
63.199375 -5.436721 34.649371
62.298431 -5.34052 35.244229
68.345997 1.445628 23.76094
68.524334 1.87245 22.826504
68.102291 1.04783 24.718198
68.689583 0.300283 23.916657
68.345997 1.445628 23.76094
68.658509 -16.047038 24.310391
68.145054 -16.248076 23.603982
68.77052 -14.980112 23.340677
66.050679 -14.508143 20.104045
66.897919 -14.352358 20.58372
67.42495 -9.927642 34.5088
66.792244 -9.643076 35.101146
66.988746 -0.570972 27.593494
67.419712 0.040813 26.642063
64.654476 -2.200006 31.251236
64.423687 -1.19351 31.085964
63.849182 -1.94148 32.061779
69.217579 -6.615607 18.105338
68.769261 -7.936058 18.208251
70.12756 -2.105553 21.256777
70.11649 -1.904535 20.359977
69.833877 -0.884975 20.800967
69.012192 -11.822108 33.049093
69.384525 -11.234432 32.085899
68.99329 -10.908058 32.778135
64.170086 -13.496545 18.57824
65.107735 -12.112555 18.136425
64.197834 -14.760665 19.318643
64.170086 -13.496545 18.57824
69.640041 -15.918312 28.545662
69.891308 -15.032116 27.521273
69.999436 -14.718277 28.377358
66.074497 -9.377987 35.639366
66.792244 -9.643076 35.101146
66.541668 -8.744089 34.553044
69.736759 -4.070435 18.186145
69.517296 -5.343372 18.092509
70.054699 -4.132428 18.945672
69.736759 -4.070435 18.186145
70.344116 -4.149599 19.723196
70.27412 -5.359077 19.543908
70.054699 -4.132428 18.945672
69.992173 -14.454377 29.253765
69.999436 -14.718277 28.377358
70.243439 -13.568181 28.229376
69.992173 -14.454377 29.253765
69.941341 -14.118714 30.115571
63.856792 -7.221743 35.622006
64.715641 -7.398132 35.061533
64.371139 -6.522608 34.517473
63.856792 -7.221743 35.622006
62.978367 -7.109083 36.165714
63.233799 -2.781693 32.978791
63.849182 -1.94148 32.061779
62.637043 -3.571317 33.975662
62.002344 -4.439011 34.913531
63.483215 -3.737601 33.223923
63.233799 -2.781693 32.978791
62.637043 -3.571317 33.975662
69.486916 0.117908 21.401579
69.833877 -0.884975 20.800967
69.031086 1.009944 22.032396
68.524334 1.87245 22.826504
69.389118 -0.193956 22.328584
69.486916 0.117908 21.401579
69.031086 1.009944 22.032396
67.632309 -11.839203 19.432844
66.877434 -11.924767 18.935586
67.591072 -10.5939 18.640904
67.625362 -14.222786 21.127412
66.897919 -14.352358 20.58372
67.646115 -13.040498 20.271217
67.567116 -15.357897 22.037091
67.625362 -14.222786 21.127412
68.315312 -14.046038 21.724588
67.499897 -16.473187 22.954369
67.567116 -15.357897 22.037091
67.387886 -17.540113 23.924084
67.499897 -16.473187 22.954369
68.145054 -16.248076 23.603982
69.738136 -15.279714 26.664782
70.097531 -14.079679 26.496478
69.891308 -15.032116 27.521273
69.454892 -15.565895 25.850049
69.738136 -15.279714 26.664782
69.124699 -15.791794 25.053598
69.614167 -14.553176 24.843536
69.454892 -15.565895 25.850049
68.658509 -16.047038 24.310391
69.124699 -15.791794 25.053598
66.04195 -13.283709 19.305826
66.000713 -12.038405 18.513886
66.877434 -11.924767 18.935586
65.173958 -14.621782 19.682344
66.04195 -13.283709 19.305826
66.050679 -14.508143 20.104045
64.197834 -14.760665 19.318643
65.173958 -14.621782 19.682344
68.537853 -10.573841 33.335207
68.99329 -10.908058 32.778135
68.910187 -9.986166 32.372013
68.022617 -10.249026 33.965931
67.857083 -9.330564 33.471954
67.42495 -9.927642 34.5088
68.537853 -10.573841 33.335207
68.022617 -10.249026 33.965931
65.012608 -8.288134 35.628664
65.526955 -7.588998 34.524132
64.715641 -7.398132 35.061533
65.339893 -9.158235 36.203305
65.012608 -8.288134 35.628664
66.074497 -9.377987 35.639366
65.339893 -9.158235 36.203305
67.787312 0.525155 25.662239
68.102291 1.04783 24.718198
68.078277 -0.581858 25.853739
67.787312 0.525155 25.662239
67.419712 0.040813 26.642063
64.984691 -0.400678 30.179383
64.423687 -1.19351 31.085964
65.747898 -0.763891 29.314422
64.984691 -0.400678 30.179383
66.526314 -1.137134 28.592386
65.747898 -0.763891 29.314422
66.007396 -1.825279 29.553384
67.248245 -1.632362 27.832456
66.988746 -0.570972 27.593494
66.526314 -1.137134 28.592386
68.249599 -9.247039 18.38131
67.591072 -10.5939 18.640904
68.865608 -9.197356 18.965101
68.249599 -9.247039 18.38131
68.769261 -7.936058 18.208251
69.684986 -6.61414 18.779213
69.217579 -6.615607 18.105338
69.517296 -5.343372 18.092509
70.267434 -3.024032 19.970374
70.11649 -1.904535 20.359977
70.486855 -4.25068 20.56861
70.344116 -4.149599 19.723196
70.267434 -3.024032 19.970374
69.015927 -12.828664 33.352638
69.012192 -11.822108 33.049093
69.333538 -13.189057 32.573543
69.015927 -12.828664 33.352638
69.603466 -13.489337 31.796702
69.673355 -12.448761 31.580015
69.333538 -13.189057 32.573543
69.794895 -13.841093 30.964266
69.603466 -13.489337 31.796702
3 0 18 16
3 68 19 69
3 1 22 20
3 2 25 23
3 2 28 26
3 2 23 28
3 3 33 31
3 3 35 33
3 4 38 36
3 6 39 17
3 6 70 72
3 72 71 39
3 70 71 72
3 74 73 40
3 75 41 76
3 75 76 77
3 78 40 79
3 80 79 41
3 78 79 80
3 81 42 82
3 83 43 84
3 85 84 42
3 83 84 85
3 9 46 44
3 10 47 21
3 10 86 88
3 88 87 47
3 86 87 88
3 5 48 37
3 90 89 45
3 11 51 49
3 92 91 24
3 93 52 94
3 7 95 97
3 95 53 96
3 95 96 97
3 12 54 27
3 12 55 54
3 12 56 55
3 11 57 29
3 11 49 57
3 98 59 99
3 14 60 30
3 14 61 60
3 8 100 102
3 100 62 101
3 100 101 102
3 15 63 32
3 15 64 63
3 15 65 64
3 13 66 34
3 13 58 66
3 103 67 104
3 105 104 50
3 103 104 105
3 16 17 4
3 18 17 16
3 18 6 17
3 19 106 107
3 19 108 109
3 20 21 9
3 22 21 20
3 22 10 21
3 112 111 5
3 110 111 112
3 23 24 11
3 25 24 23
3 25 113 115
3 115 114 24
3 113 114 115
3 26 27 7
3 28 27 26
3 28 12 27
3 28 29 12
3 23 29 28
3 23 11 29
3 116 30 117
3 118 30 119
3 120 14 121
3 122 121 30
3 120 121 122
3 31 32 8
3 33 32 31
3 33 15 32
3 33 34 15
3 35 34 33
3 35 13 34
3 36 37 1
3 38 37 36
3 38 5 37
3 17 38 4
3 39 38 17
3 39 5 38
3 39 123 125
3 125 124 5
3 123 124 125
3 127 126 39
3 40 128 130
3 130 129 2
3 128 129 130
3 132 131 40
3 133 7 134
3 41 135 136
3 41 137 139
3 137 7 138
3 137 138 139
3 41 26 7
3 40 26 41
3 40 2 26
3 140 8 141
3 42 142 143
3 42 144 146
3 144 8 145
3 144 145 146
3 42 31 8
3 43 31 42
3 43 3 31
3 44 147 149
3 147 45 148
3 147 148 149
3 46 45 44
3 46 150 152
3 152 151 45
3 150 151 152
3 21 46 9
3 47 46 21
3 47 153 155
3 155 154 46
3 153 154 155
3 47 156 157
3 160 159 47
3 158 159 160
3 37 22 1
3 48 22 37
3 48 10 22
3 161 48 162
3 163 162 5
3 161 162 163
3 164 48 165
3 166 10 167
3 168 167 48
3 166 167 168
3 170 169 10
3 45 171 173
3 171 19 172
3 171 172 173
3 174 19 175
3 176 175 45
3 174 175 176
3 178 177 19
3 49 50 0
3 51 50 49
3 51 179 181
3 181 180 50
3 179 180 181
3 24 51 11
3 182 51 183
3 184 183 24
3 182 183 184
3 186 185 51
3 187 25 188
3 189 188 2
3 187 188 189
3 190 25 191
3 193 192 25
3 194 43 195
3 52 196 198
3 196 43 197
3 196 197 198
3 52 3 43
3 53 199 200
3 53 201 202
3 27 53 7
3 54 53 27
3 54 203 205
3 205 204 53
3 203 204 205
3 54 206 208
3 206 52 207
3 206 207 208
3 55 52 54
3 55 3 52
3 55 35 3
3 56 35 55
3 56 13 35
3 29 56 12
3 57 56 29
3 57 13 56
3 57 58 13
3 49 58 57
3 49 0 58
3 209 44 210
3 59 211 213
3 211 44 212
3 211 212 213
3 59 9 44
3 30 214 216
3 214 59 215
3 214 215 216
3 60 59 30
3 60 9 59
3 60 20 9
3 61 20 60
3 61 1 20
3 62 217 218
3 62 219 221
3 219 14 220
3 219 220 221
3 32 62 8
3 63 62 32
3 63 14 62
3 63 61 14
3 64 61 63
3 64 1 61
3 64 36 1
3 65 36 64
3 65 4 36
3 34 65 15
3 66 65 34
3 66 4 65
3 66 16 4
3 58 16 66
3 58 0 16
3 50 18 0
3 67 18 50
3 67 6 18
3 222 67 223
3 224 67 225
3 226 6 227
3 228 227 67
3 226 227 228
3 230 229 6
