ply
format ascii 1.0
element vertex 245
property float x
property float y
property float z
element face 231
property list uchar int vertex_index
end_header
-34.486629 47.515354 -24.480568
-24.519606 51.869358 -27.092197
-12.566252 56.237873 -31.080734
-36.534176 45.833561 -22.090511
-27.819452 63.153751 -23.703583
-29.271122 56.145847 -24.752037
-22.81979 59.075939 -26.201847
-18.434872 54.188412 -28.870682
-33.282066 42.367847 -24.568493
-30.4044 43.613083 -26.707314
-34.813538 53.278652 -23.762695
-30.193712 49.567722 -25.854469
-25.85248 45.148991 -28.102486
-20.462608 46.854382 -29.461147
-15.009011 48.530514 -31.097939
-7.25 57.58749 -33.062069
-25.273474 61.224766 -24.913338
-35.820538 46.632069 -23.45034
-34.940262 44.190445 -23.356766
-33.966949 44.87933 -24.624409
-32.091324 42.952141 -25.769962
-32.430172 45.65205 -25.597641
-34.612331 56.404118 -23.277287
-26.836994 54.09837 -25.885033
-29.813055 52.782749 -25.303387
-27.463316 50.701321 -26.432938
-27.952572 47.450703 -26.979473
-25.24119 48.440304 -27.605656
-23.206808 45.991177 -28.750748
-22.378845 49.45705 -28.313908
-15.448972 55.269833 -29.957672
-16.589157 51.458317 -30.08984
-13.790543 52.369228 -31.090435
-12.402924 49.262905 -31.942829
-11.107119 53.153217 -32.070045
-36.655075 45.069462 -20.397945
-37.580376 48.215656 -22.247299
-36.49654 49.211246 -23.368511
-31.129499 61.409161 -23.154499
-31.751593 58.003315 -23.711224
-28.598066 59.622219 -24.224072
-26.099087 57.620228 -25.378078
-23.705788 55.424114 -26.618263
-21.479794 53.042248 -27.90099
-20.523521 56.727535 -27.54324
-17.366991 57.972767 -28.638481
-30.380695 64.830643 -22.553387
-35.352798 43.550671 -21.77877
-28.487898 41.385555 -27.772732
-34.775749 50.311176 -24.176857
-32.22102 54.686893 -24.253395
-32.505638 51.509762 -24.777378
-32.577816 48.497555 -25.245644
-30.390518 46.513737 -26.347424
-28.290354 44.349869 -27.452522
-26.349333 41.9935 -28.505161
-23.955084 42.651779 -29.148926
-21.409483 43.344948 -29.777691
-19.469145 50.473766 -29.145889
-17.708899 47.712322 -30.252235
-9.821453 57.032627 -32.144962
-8.565392 53.747334 -32.950989
-34.40695 58.026203 -23.00647
-35.762407 57.156818 -22.803173
-37.986226 49.475758 -22.246878
-38.385939 48.918858 -21.621174
-37.444308 49.973552 -22.807484
-37.038458 48.713451 -22.807905
-37.986226 49.475758 -22.246878
-16.819283 59.87952 -28.526125
-18.444435 59.225448 -27.934793
-15.829187 58.544117 -29.235027
-16.819283 59.87952 -28.526125
-31.627538 65.522476 -21.979357
-31.997082 63.888883 -22.338751
-33.621189 42.103597 -23.823276
-34.450287 43.014896 -23.217413
-34.111164 43.279146 -23.962629
-32.912258 41.14759 -24.43506
-33.621189 42.103597 -23.823276
-32.458379 41.362223 -25.144523
-32.912258 41.14759 -24.43506
-30.338958 42.226015 -26.787373
-31.18242 41.895544 -26.318697
-31.247862 43.282612 -26.238638
-29.446149 42.499319 -27.240023
-29.380707 41.112251 -27.320082
-30.338958 42.226015 -26.787373
-35.861643 52.616481 -23.450296
-35.928709 54.070458 -23.274541
-34.794643 51.794914 -23.969776
-35.842748 51.132744 -23.657377
-35.861643 52.616481 -23.450296
-19.635009 45.453728 -29.947376
-20.108447 43.699011 -30.105648
-20.936045 45.099665 -29.619419
-15.616179 46.639654 -31.108519
-16.966123 46.230559 -30.685667
-16.358955 48.121418 -30.675087
-14.358311 46.962067 -31.450985
-15.616179 46.639654 -31.108519
-11.846293 47.599758 -32.193121
-11.159096 49.557411 -32.333294
-7.903996 59.224163 -32.581136
-6.621386 59.458782 -33.017981
-8.535726 57.310058 -32.603516
-9.189723 58.946731 -32.122583
-7.903996 59.224163 -32.581136
-24.824534 63.03599 -24.682761
-26.546463 62.189259 -24.30846
-26.097522 64.000483 -24.077883
-23.574784 62.000599 -25.365982
-24.824534 63.03599 -24.682761
-22.347942 60.926186 -26.010236
-24.046632 60.150352 -25.557592
-23.574784 62.000599 -25.365982
-21.170834 59.777034 -26.716476
-22.347942 60.926186 -26.010236
-35.828105 55.63319 -23.031838
-35.762407 57.156818 -22.803173
-34.712935 54.841385 -23.519991
-35.928709 54.070458 -23.274541
-35.828105 55.63319 -23.031838
-10.511194 51.502567 -32.396902
-11.159096 49.557411 -32.333294
-11.755022 51.208061 -32.006437
-6.072098 57.713066 -33.410978
-6.621386 59.458782 -33.017981
-6.722119 55.836929 -33.365498
-6.072098 57.713066 -33.410978
-37.23885 45.733532 -19.661924
-36.470512 44.658851 -19.413992
-37.054287 45.322921 -18.677971
-37.329347 46.184498 -20.579859
-37.23885 45.733532 -19.661924
-37.268898 46.566547 -21.426141
-36.594625 45.451512 -21.244228
-37.329347 46.184498 -20.579859
-37.791998 47.757595 -21.504536
-38.385939 48.918858 -21.621174
-37.057276 47.024608 -22.168905
-37.268898 46.566547 -21.426141
-37.791998 47.757595 -21.504536
-31.440546 59.706238 -23.432862
-32.976581 58.825802 -23.223439
-32.665534 60.528725 -22.945076
-20.0227 58.602833 -27.387173
-21.671655 57.901737 -26.872543
-21.170834 59.777034 -26.716476
-18.945256 57.350151 -28.09086
-20.0227 58.602833 -27.387173
-18.444435 59.225448 -27.934793
-14.870178 57.19265 -29.894622
-16.407981 56.6213 -29.298077
-15.829187 58.544117 -29.235027
-13.428818 57.67667 -30.456153
-14.007612 55.753853 -30.519203
-14.870178 57.19265 -29.894622
-32.371483 62.178142 -22.639307
-32.665534 60.528725 -22.945076
-30.755097 63.119902 -22.853943
-32.371483 62.178142 -22.639307
-31.997082 63.888883 -22.338751
-29.951024 66.501846 -22.203936
-31.627538 65.522476 -21.979357
-28.665788 65.744934 -22.847341
-29.951024 66.501846 -22.203936
-27.385166 64.906488 -23.422439
-29.100074 63.992197 -23.128485
-28.665788 65.744934 -22.847341
-26.097522 64.000483 -24.077883
-27.385166 64.906488 -23.422439
-35.966431 43.97848 -20.166303
-36.470512 44.658851 -19.413992
-35.315292 43.219084 -20.856716
-35.966431 43.97848 -20.166303
-36.003936 44.310067 -21.088358
-34.762484 42.433344 -21.554922
-35.315292 43.219084 -20.856716
-34.656555 42.695009 -22.428415
-35.14653 43.870558 -22.567768
-34.450287 43.014896 -23.217413
-34.762484 42.433344 -21.554922
-34.656555 42.695009 -22.428415
-31.863008 41.65437 -25.745258
-32.458379 41.362223 -25.144523
-32.686695 42.659994 -25.169227
-31.863008 41.65437 -25.745258
-31.18242 41.895544 -26.318697
-28.540078 39.957771 -27.827413
-29.380707 41.112251 -27.320082
-27.620587 40.172579 -28.257008
-28.540078 39.957771 -27.827413
-36.703144 50.582779 -23.253204
-37.444308 49.973552 -22.807484
-35.636145 49.761211 -23.772684
-36.703144 50.582779 -23.253204
-35.842748 51.132744 -23.657377
-33.181962 57.203716 -23.494256
-34.40695 58.026203 -23.00647
-32.976581 58.825802 -23.223439
-26.551305 40.476551 -28.623222
-27.620587 40.172579 -28.257008
-27.418616 41.689527 -28.138947
-25.48977 40.71483 -28.970461
-26.551305 40.476551 -28.623222
-24.292645 41.04397 -29.292343
-25.48977 40.71483 -28.970461
-25.152209 42.322639 -28.827044
-23.133196 41.302026 -29.59211
-24.292645 41.04397 -29.292343
-21.860396 41.648611 -29.906492
-23.133196 41.302026 -29.59211
-22.682284 42.998363 -29.463309
-20.648662 41.920166 -30.186262
-21.860396 41.648611 -29.906492
-20.648662 41.920166 -30.186262
-20.108447 43.699011 -30.105648
-18.258155 45.882698 -30.34292
-19.635009 45.453728 -29.947376
-19.085753 47.283352 -29.856691
-18.258155 45.882698 -30.34292
-16.966123 46.230559 -30.685667
-13.055267 47.328263 -31.87343
-14.358311 46.962067 -31.450985
-13.705967 48.89671 -31.520384
-13.055267 47.328263 -31.87343
-11.846293 47.599758 -32.193121
-11.953447 58.168911 -31.050909
-13.428818 57.67667 -30.456153
-10.581047 58.566288 -31.583023
-9.189723 58.946731 -32.122583
-11.193853 56.63525 -31.612848
-11.953447 58.168911 -31.050909
-10.581047 58.566288 -31.583023
-9.24033 51.799626 -32.837374
-10.511194 51.502567 -32.396902
-9.836256 53.450276 -32.510517
-7.379815 53.916851 -33.309957
-7.907696 55.667412 -33.006529
-6.722119 55.836929 -33.365498
-8.065573 51.990452 -33.168819
-7.379815 53.916851 -33.309957
-9.24033 51.799626 -32.837374
-8.065573 51.990452 -33.168819
3 0 19 17
3 0 21 19
3 62 22 63
3 1 25 23
3 1 27 25
3 1 29 27
3 2 32 30
3 2 34 32
3 64 36 65
3 66 37 67
3 68 67 36
3 66 67 68
3 4 40 38
3 6 41 16
3 6 42 41
3 6 44 42
3 69 45 70
3 72 71 45
3 73 46 74
3 3 47 35
3 8 75 77
3 77 76 18
3 75 76 77
3 8 78 79
3 8 80 81
3 9 82 84
3 84 83 20
3 82 83 84
3 9 85 87
3 85 48 86
3 85 86 87
3 10 88 89
3 10 90 92
3 90 49 91
3 90 91 92
3 5 50 39
3 11 51 24
3 11 52 51
3 11 53 52
3 12 54 26
3 12 55 54
3 12 56 55
3 13 57 28
3 13 93 95
3 95 94 57
3 93 94 95
3 7 58 43
3 14 59 31
3 14 96 98
3 98 97 59
3 96 97 98
3 14 99 100
3 102 101 33
3 15 103 104
3 15 105 107
3 105 60 106
3 105 106 107
3 15 61 60
3 108 16 109
3 110 109 4
3 108 109 110
3 111 16 112
3 113 6 114
3 115 114 16
3 113 114 115
3 117 116 6
3 17 18 3
3 19 18 17
3 19 8 18
3 19 20 8
3 21 20 19
3 21 9 20
3 22 118 119
3 22 120 122
3 120 10 121
3 120 121 122
3 23 24 5
3 25 24 23
3 25 11 24
3 25 26 11
3 27 26 25
3 27 12 26
3 27 28 12
3 29 28 27
3 29 13 28
3 30 31 7
3 32 31 30
3 32 14 31
3 32 33 14
3 34 33 32
3 34 123 125
3 125 124 33
3 123 124 125
3 126 15 127
3 129 128 15
3 130 35 131
3 130 131 132
3 133 35 134
3 135 3 136
3 137 136 35
3 135 136 137
3 36 138 139
3 36 140 142
3 140 3 141
3 140 141 142
3 36 17 3
3 37 17 36
3 37 0 17
3 38 143 145
3 143 39 144
3 143 144 145
3 40 39 38
3 40 5 39
3 16 40 4
3 41 40 16
3 41 5 40
3 41 23 5
3 42 23 41
3 42 1 23
3 42 43 1
3 44 43 42
3 44 7 43
3 146 44 147
3 148 147 6
3 146 147 148
3 45 149 151
3 149 44 150
3 149 150 151
3 45 7 44
3 45 30 7
3 152 30 153
3 154 153 45
3 152 153 154
3 155 2 156
3 157 156 30
3 155 156 157
3 158 38 159
3 46 160 162
3 160 38 161
3 160 161 162
3 46 4 38
3 163 46 164
3 165 46 166
3 167 4 168
3 169 168 46
3 167 168 169
3 171 170 4
3 35 172 173
3 47 174 176
3 176 175 35
3 174 175 176
3 47 177 178
3 18 47 3
3 179 47 180
3 181 180 18
3 179 180 181
3 183 182 47
3 20 184 186
3 186 185 8
3 184 185 186
3 188 187 20
3 48 189 190
3 48 191 192
3 193 37 194
3 49 195 197
3 195 37 196
3 195 196 197
3 49 0 37
3 39 198 200
3 198 22 199
3 198 199 200
3 50 22 39
3 50 10 22
3 24 50 5
3 51 50 24
3 51 10 50
3 51 49 10
3 52 49 51
3 52 0 49
3 52 21 0
3 53 21 52
3 53 9 21
3 26 53 11
3 54 53 26
3 54 9 53
3 54 48 9
3 55 48 54
3 55 201 203
3 203 202 48
3 201 202 203
3 55 204 205
3 56 206 208
3 208 207 55
3 206 207 208
3 56 209 210
3 28 56 12
3 57 56 28
3 57 211 213
3 213 212 56
3 211 212 213
3 57 214 215
3 217 216 57
3 43 29 1
3 58 29 43
3 58 13 29
3 31 58 7
3 59 58 31
3 59 13 58
3 59 218 220
3 220 219 13
3 218 219 220
3 222 221 59
3 33 223 225
3 225 224 14
3 223 224 225
3 227 226 33
3 228 2 229
3 60 230 231
3 60 232 234
3 232 2 233
3 232 233 234
3 60 34 2
3 61 34 60
3 61 235 237
3 237 236 34
3 235 236 237
3 238 61 239
3 240 239 15
3 238 239 240
3 241 61 242
3 244 243 61
