ply
format ascii 1.0
element vertex 237
property float x
property float y
property float z
element face 209
property list uchar int vertex_index
end_header
-29.321566 22.250866 61.233482
-44.565247 11.4611 57.226658
-41.862019 23.703121 54.241764
-46.036957 14.600281 48.68655
-36.744835 23.881615 59.571518
-45.760605 13.489559 53.44054
-41.171829 30.036549 51.420448
-41.052341 14.559917 59.423908
-43.000542 17.42683 56.136429
-40.117371 20.94854 58.37603
-39.359985 27.488758 56.078575
-43.822662 19.23801 51.584927
-33.162079 23.053028 60.72876
-31.135815 24.256042 60.398788
-27.333807 23.644558 60.835228
-46.862953 10.745808 54.166664
-45.301441 12.596678 55.483734
-40.55304 17.715263 59.036922
-38.846142 19.199337 59.906338
-36.394814 27.182709 58.238445
-38.154091 25.791367 57.998787
-47.40184 12.032955 49.71862
-47.451378 12.431936 47.250237
-47.441952 12.746099 44.704849
-45.977646 14.911831 46.117935
-42.367783 20.53738 55.305893
-43.537987 18.470337 53.986019
-42.865032 21.53083 52.975338
-37.040768 20.568508 60.502598
-35.139828 21.841431 60.778637
-34.854805 25.14994 59.64447
-47.226898 11.486841 52.045952
-45.986427 14.145626 51.151413
-41.471504 26.884628 52.940727
-42.360378 24.644348 51.77364
-42.010986 27.77179 50.386341
-42.832138 13.057381 58.369652
-43.748058 14.397854 56.760555
-42.176929 16.111778 57.964226
-41.603428 19.256641 57.348789
-41.120529 22.465805 56.468887
-38.502579 22.48896 59.138565
-39.728287 24.221779 57.391945
-40.715263 25.700062 55.303108
-40.36414 28.912941 53.862164
-44.366276 15.489174 54.814537
-44.716835 16.31707 52.583256
-44.84705 16.898727 50.139301
-43.127323 22.24398 50.440216
-43.900974 19.758377 49.01556
-44.815273 17.280567 47.561008
-23.73756 23.65778 61.69873
-30.22869 23.253454 60.816135
-31.237478 22.615533 60.968801
-30.330353 21.612945 61.386149
-29.207244 23.884735 60.558323
-30.114369 24.887323 60.140976
-30.22869 23.253454 60.816135
-28.327686 22.947712 61.034355
-28.213365 24.581581 60.359195
-29.207244 23.884735 60.558323
-44.933344 12.028889 56.355196
-45.778978 11.191671 55.755071
-45.410882 10.623881 56.626534
-38.081938 18.243244 60.473566
-39.031121 17.58303 60.120896
-37.083908 28.121397 57.370931
-36.181934 28.807164 57.392204
-34.250365 20.798679 61.211983
-35.250498 20.190914 61.132185
-33.857826 25.744865 59.510531
-34.008442 24.101484 60.186615
-33.011463 24.696409 60.052675
-34.664825 26.789619 58.873611
-33.857826 25.744865 59.510531
-47.439768 12.892294 43.420372
-46.659082 13.94757 44.106718
-42.884918 23.776224 49.795036
-42.74385 23.444164 51.106928
-42.501446 24.976408 50.461748
-43.864704 19.922741 47.686159
-43.54873 21.237257 48.399985
-44.321854 18.683836 46.958883
-44.358123 18.519472 48.288284
-43.864704 19.922741 47.686159
-44.750776 17.404604 46.240492
-44.321854 18.683836 46.958883
-22.924414 22.924712 62.38359
-23.765504 21.975778 62.261415
-22.871557 24.641901 61.748423
-22.924414 22.924712 62.38359
-32.250609 22.014026 61.133787
-33.26149 21.404478 61.187044
-32.148947 23.654535 60.563774
-32.250609 22.014026 61.133787
-31.237478 22.615533 60.968801
-31.998331 25.297916 59.88769
-33.011463 24.696409 60.052675
-32.148947 23.654535 60.563774
-30.967867 25.887566 59.619717
-31.998331 25.297916 59.88769
-30.967867 25.887566 59.619717
-30.114369 24.887323 60.140976
-27.199345 25.280435 60.072302
-28.213365 24.581581 60.359195
-26.3662 24.430464 60.651466
-27.199345 25.280435 60.072302
-46.559734 10.266236 55.096536
-47.379891 9.404853 54.470016
-46.082197 11.671243 54.825199
-46.559734 10.266236 55.096536
-45.778978 11.191671 55.755071
-41.480276 30.452908 50.125483
-41.053526 31.576467 50.56674
-39.884569 16.840993 59.686188
-40.80269 16.13759 59.230415
-40.13422 15.26332 59.87968
-39.699591 18.4573 59.47163
-39.884569 16.840993 59.686188
-39.031121 17.58303 60.120896
-37.963547 27.425726 57.251103
-37.274452 26.487038 58.118616
-37.083908 28.121397 57.370931
-38.566494 28.274422 56.290997
-38.757038 26.640062 57.038681
-37.963547 27.425726 57.251103
-39.174324 29.095648 55.272731
-38.566494 28.274422 56.290997
-48.187758 11.043036 49.003096
-48.088882 10.789315 50.177105
-48.212526 11.242527 47.768904
-48.187758 11.043036 49.003096
-47.426609 12.232446 48.484428
-48.272086 11.450481 46.540118
-48.212526 11.242527 47.768904
-47.446665 12.589018 45.977543
-48.267373 11.607562 45.267424
-48.272086 11.450481 46.540118
-45.926929 15.030435 44.813261
-46.659082 13.94757 44.106718
-46.709799 13.828965 45.411392
-36.200968 19.554453 60.994166
-37.179251 18.92783 60.771696
-36.090298 21.20497 60.640618
-36.200968 19.554453 60.994166
-35.250498 20.190914 61.132185
-34.150953 22.447229 60.753698
-34.250365 20.798679 61.211983
-33.26149 21.404478 61.187044
-35.43483 27.806003 58.170599
-35.624809 26.166325 58.941457
-34.664825 26.789619 58.873611
-36.181934 28.807164 57.392204
-35.43483 27.806003 58.170599
-47.649624 9.820044 53.490793
-48.166562 8.47909 53.794145
-47.379891 9.404853 54.470016
-47.831597 10.190561 52.430437
-47.649624 9.820044 53.490793
-47.044925 11.116325 53.106308
-48.001412 10.516258 51.340771
-47.831597 10.190561 52.430437
-47.314369 11.759898 50.882286
-48.088882 10.789315 50.177105
-48.001412 10.516258 51.340771
-42.32675 26.540129 49.768099
-42.501446 24.976408 50.461748
-42.185682 26.208069 51.079991
-41.899855 29.320529 49.608429
-41.591408 28.90417 50.903395
-41.480276 30.452908 50.125483
-42.181505 28.082057 49.053517
-41.899855 29.320529 49.608429
-42.32675 26.540129 49.768099
-42.181505 28.082057 49.053517
-37.943455 19.883923 60.204468
-38.081938 18.243244 60.473566
-37.179251 18.92783 60.771696
-39.676401 29.80774 54.164526
-39.862063 28.20085 54.97037
-39.174324 29.095648 55.272731
-40.203688 30.486042 53.021774
-39.676401 29.80774 54.164526
-40.607533 31.047846 51.800916
-40.767984 29.474745 52.641306
-40.203688 30.486042 53.021774
-41.053526 31.576467 50.56674
-40.607533 31.047846 51.800916
-44.968983 10.037662 57.411148
-45.410882 10.623881 56.626534
-44.047804 10.783271 57.935842
-44.968983 10.037662 57.411148
-43.181249 11.581411 58.50734
-43.698692 12.259241 57.798155
-44.047804 10.783271 57.935842
-42.222248 12.282708 58.997612
-43.181249 11.581411 58.50734
-41.332349 13.033976 59.52474
-41.942239 13.808649 58.89678
-42.222248 12.282708 58.997612
-40.344166 13.693449 59.967321
-41.332349 13.033976 59.52474
-40.13422 15.26332 59.87968
-40.344166 13.693449 59.967321
-29.372644 20.612488 61.69763
-30.330353 21.612945 61.386149
-28.387611 21.307035 61.603639
-29.372644 20.612488 61.69763
-48.318352 11.798599 44.011284
-48.267373 11.607562 45.267424
-48.318352 11.798599 44.011284
-47.439768 12.892294 43.420372
-43.161905 22.480058 49.112313
-42.884918 23.776224 49.795036
-43.514148 21.001179 49.727888
-43.161905 22.480058 49.112313
-43.54873 21.237257 48.399985
-45.331963 16.220236 45.518955
-45.396459 16.096199 46.839472
-44.750776 17.404604 46.240492
-45.926929 15.030435 44.813261
-45.331963 16.220236 45.518955
-27.393731 22.003881 61.404512
-28.327686 22.947712 61.034355
-28.387611 21.307035 61.603639
-26.444033 22.777777 61.309736
-27.393731 22.003881 61.404512
-26.3662 24.430464 60.651466
-26.444033 22.777777 61.309736
-24.64591 22.784388 61.741487
-23.765504 21.975778 62.261415
-24.568077 24.437075 61.083218
-24.64591 22.784388 61.741487
-23.634884 25.335739 60.971843
-24.568077 24.437075 61.083218
-23.634884 25.335739 60.971843
-22.871557 24.641901 61.748423
3 0 52 54
3 52 13 53
3 52 53 54
3 0 55 57
3 57 56 13
3 55 56 57
3 0 58 60
3 58 14 59
3 58 59 60
3 1 61 63
3 61 16 62
3 61 62 63
3 64 18 65
3 67 66 19
3 3 22 21
3 3 24 22
3 2 27 25
3 68 29 69
3 70 30 71
3 72 71 12
3 70 71 72
3 74 73 30
3 5 31 15
3 5 32 31
3 6 35 33
3 7 38 36
3 9 39 17
3 9 40 39
3 4 41 28
3 10 42 20
3 10 43 42
3 10 44 43
3 76 75 23
3 8 45 37
3 11 46 26
3 11 47 46
3 77 48 78
3 79 78 34
3 77 78 79
3 80 49 81
3 82 50 83
3 84 83 49
3 82 83 84
3 86 85 50
3 87 51 88
3 90 89 51
3 91 12 92
3 13 93 95
3 93 12 94
3 93 94 95
3 13 96 98
3 98 97 12
3 96 97 98
3 13 99 100
3 102 101 13
3 14 103 104
3 14 105 106
3 107 15 108
3 16 109 111
3 109 15 110
3 109 110 111
3 16 5 15
3 113 112 6
3 114 17 115
3 116 115 7
3 114 115 116
3 18 117 119
3 117 17 118
3 117 118 119
3 18 9 17
3 19 20 4
3 120 20 121
3 122 121 19
3 120 121 122
3 123 10 124
3 125 124 20
3 123 124 125
3 127 126 10
3 21 128 129
3 22 130 132
3 132 131 21
3 130 131 132
3 22 133 134
3 22 135 137
3 135 23 136
3 135 136 137
3 24 23 22
3 24 138 140
3 140 139 23
3 138 139 140
3 25 26 8
3 27 26 25
3 27 11 26
3 141 28 142
3 29 143 145
3 143 28 144
3 143 144 145
3 29 4 28
3 12 146 148
3 146 29 147
3 146 147 148
3 30 29 12
3 30 4 29
3 30 19 4
3 149 19 150
3 151 150 30
3 149 150 151
3 153 152 19
3 15 154 156
3 154 155 156
3 31 157 159
3 159 158 15
3 157 158 159
3 31 160 161
3 31 162 164
3 162 21 163
3 162 163 164
3 32 21 31
3 32 3 21
3 33 34 2
3 35 34 33
3 35 165 167
3 167 166 34
3 165 166 167
3 168 35 169
3 170 169 6
3 168 169 170
3 171 35 172
3 174 173 35
3 36 37 1
3 38 37 36
3 38 8 37
3 17 38 7
3 39 38 17
3 39 8 38
3 39 25 8
3 40 25 39
3 40 2 25
3 28 175 177
3 175 18 176
3 175 176 177
3 41 18 28
3 41 9 18
3 20 41 4
3 42 41 20
3 42 9 41
3 42 40 9
3 43 40 42
3 43 2 40
3 43 33 2
3 44 33 43
3 44 6 33
3 178 44 179
3 180 179 10
3 178 179 180
3 181 44 182
3 183 6 184
3 185 184 44
3 183 184 185
3 187 186 6
3 188 1 189
3 190 1 191
3 192 36 193
3 194 193 1
3 192 193 194
3 195 36 196
3 197 7 198
3 199 198 36
3 197 198 199
3 200 7 201
3 203 202 7
3 204 0 205
3 207 206 0
3 23 208 209
3 211 210 23
3 37 16 1
3 45 16 37
3 45 5 16
3 26 45 8
3 46 45 26
3 46 5 45
3 46 32 5
3 47 32 46
3 47 3 32
3 34 27 2
3 48 27 34
3 48 11 27
3 212 48 213
3 49 214 216
3 214 48 215
3 214 215 216
3 49 11 48
3 49 47 11
3 50 47 49
3 50 3 47
3 50 24 3
3 217 24 218
3 219 218 50
3 217 218 219
3 221 220 24
3 222 14 223
3 224 223 0
3 222 223 224
3 225 14 226
3 228 227 14
3 51 229 230
3 51 231 232
3 51 233 234
3 236 235 51
