ply
format ascii 1.0
element vertex 258
property float x
property float y
property float z
element face 251
property list uchar int vertex_index
end_header
63.965462 -0.755936 -21.70075
62.7286 -5.35404 -12.15044
66.240753 -10.14474 -12.23649
63.190933 -11.949158 -21.559767
64.345375 -1.95623 -16.558691
62.132408 -0.389553 -16.743315
63.529869 -16.105694 -16.806616
62.554878 -18.272442 -20.782682
65.219803 -6.870772 -12.010786
65.141502 -5.465304 -16.737249
59.03157 -5.572071 -12.81311
58.646488 -0.743353 -17.366465
65.864632 -14.713287 -12.482151
64.710243 -10.394635 -16.921347
63.839989 -5.936949 -21.831251
63.305367 -7.552051 -26.577795
64.322556 -1.086798 -19.059416
63.759285 0.48698 -18.993235
63.672356 1.308258 -21.586927
62.276489 -20.234844 -18.499407
62.37822 -21.451777 -20.230139
66.303566 -10.715299 -10.040644
65.489853 -9.328835 -9.926815
65.918221 -8.310637 -12.099409
65.451591 -5.902764 -14.297066
65.704758 -7.809825 -14.420038
61.004745 -5.276271 -12.422831
61.600677 2.064314 -19.149469
60.52803 -0.360233 -17.015284
60.029289 2.066389 -19.384005
58.178715 1.640268 -19.671869
63.285683 -14.061043 -19.138762
64.176399 -13.188217 -16.912546
63.805359 -11.058707 -19.288439
64.239838 -8.183664 -19.327829
63.546227 -8.877149 -21.75857
63.398056 -5.306206 -29.133074
63.247627 -4.388325 -26.885359
63.848625 -3.392674 -14.251102
62.510147 -2.868872 -14.404774
63.414574 -0.913193 -16.589777
62.851837 1.546427 -19.015841
63.93615 -18.086754 -14.583599
62.848083 -19.092159 -16.596766
62.754105 -17.133772 -18.873953
62.841042 -15.095161 -21.231234
62.783417 -7.83133 -9.995237
64.305115 -8.360764 -9.899748
64.14782 -5.878158 -12.016562
64.834976 -4.411613 -14.225552
64.916565 -3.493326 -16.622702
64.561172 -3.11234 -19.171206
60.854904 -2.816315 -14.689608
58.932846 -3.15773 -15.075405
56.805748 -3.761523 -15.497112
56.547417 -1.39851 -17.723024
56.106674 0.936762 -19.932207
66.208519 -12.303688 -12.376837
64.667221 -15.267439 -14.652569
65.254837 -12.56971 -14.63393
65.622726 -10.058689 -14.546272
65.054779 -7.793775 -16.851885
64.514702 -5.50726 -19.27677
64.002098 -3.201441 -21.799074
62.992683 -16.222898 -23.116426
63.07048 -12.980146 -23.648283
63.384567 -10.803409 -26.105654
63.214149 -9.77467 -24.046835
63.374359 -6.648967 -24.298784
63.492165 -3.660894 -24.407156
63.503464 -0.884224 -24.394846
63.655086 0.418859 -23.001833
63.508533 1.450956 -22.944921
63.818909 0.276161 -21.643839
62.359948 -23.033463 -19.909489
62.142426 -22.393814 -19.127388
61.866672 -5.315156 -12.286635
60.989757 -6.498529 -11.326751
61.851685 -6.537413 -11.190555
60.474148 3.267434 -20.495102
60.814983 2.065352 -19.266737
61.259842 3.266396 -20.377834
59.6968 3.250298 -20.582175
60.474148 3.267434 -20.495102
63.40567 -4.1889 -30.414769
63.677998 -5.842951 -30.105947
63.252781 -3.712521 -29.314974
63.40567 -4.1889 -30.414769
62.965851 2.225628 -20.262878
63.305561 1.016703 -19.004538
63.419575 1.695904 -20.251576
62.507734 2.757064 -20.263279
62.965851 2.225628 -20.262878
62.525318 -20.599645 -16.440243
62.994361 -20.033944 -15.507221
62.728363 -9.062129 -8.972772
61.774948 -8.984633 -9.061112
57.889072 -7.004781 -11.929378
58.985827 -6.766758 -11.704209
57.952482 -5.844918 -13.039779
57.889072 -7.004781 -11.929378
56.822059 2.448479 -20.955311
57.142694 1.288515 -19.802038
57.85808 2.800232 -20.825142
55.800404 2.073173 -21.023378
56.822059 2.448479 -20.955311
66.329727 -14.623143 -11.417307
66.19265 -15.773039 -11.477914
66.036575 -13.508487 -12.429494
66.501671 -13.418343 -11.36465
66.329727 -14.623143 -11.417307
63.258625 -15.161853 -24.300682
63.372364 -16.819355 -23.930227
63.297523 -13.540477 -24.56661
63.031582 -14.601522 -23.382354
63.258625 -15.161853 -24.300682
63.344967 -9.17773 -26.341724
63.546768 -9.697256 -27.346239
63.507168 -8.071576 -27.58231
63.326828 -2.515283 -25.719263
63.369896 -4.02461 -25.646258
63.204559 -2.878999 -26.958365
63.332477 -1.126948 -25.713108
63.497815 -2.272559 -24.401001
63.326828 -2.515283 -25.719263
63.24691 0.272643 -25.717548
63.332477 -1.126948 -25.713108
63.37611 2.106543 -21.548421
63.419575 1.695904 -20.251576
63.71582 0.897619 -20.290081
63.315754 2.493235 -22.885191
63.37611 2.106543 -21.548421
63.315754 2.493235 -22.885191
63.508533 1.450956 -22.944921
62.09156 -21.785348 -18.262022
62.239521 -21.170987 -17.391564
62.327354 -20.843311 -19.364773
62.09156 -21.785348 -18.262022
62.142426 -22.393814 -19.127388
65.89671 -10.022067 -9.983729
65.56303 -10.556211 -8.952814
65.969887 -11.249443 -9.009728
59.972414 -6.618858 -11.509069
60.989757 -6.498529 -11.326751
60.018158 -5.424171 -12.617971
58.985827 -6.766758 -11.704209
59.972414 -6.618858 -11.509069
58.771513 3.037238 -20.726107
59.104002 1.853328 -19.527937
59.6968 3.250298 -20.582175
57.85808 2.800232 -20.825142
58.771513 3.037238 -20.726107
65.567554 -16.008419 -12.503134
66.19265 -15.773039 -11.477914
63.553512 -6.948654 -28.859949
63.677998 -5.842951 -30.105947
63.351711 -6.429129 -27.855435
63.507168 -8.071576 -27.58231
63.553512 -6.948654 -28.859949
63.177566 -3.25358 -28.191116
63.322841 -4.847266 -28.009217
63.252781 -3.712521 -29.314974
63.204559 -2.878999 -26.958365
63.177566 -3.25358 -28.191116
66.448841 -11.91612 -9.081917
65.969887 -11.249443 -9.009728
66.518864 -11.593324 -10.118568
66.448841 -11.91612 -9.081917
66.487457 -11.308045 -11.21649
66.27216 -10.43002 -11.138567
66.518864 -11.593324 -10.118568
61.882154 3.016007 -20.330093
62.226257 1.80537 -19.082655
62.507734 2.757064 -20.263279
61.259842 3.266396 -20.377834
61.882154 3.016007 -20.330093
63.538395 -19.531242 -14.500638
64.217686 -19.050459 -13.533636
63.392117 -18.589456 -15.590182
63.538395 -19.531242 -14.500638
62.994361 -20.033944 -15.507221
62.562286 -19.663501 -17.548087
62.525318 -20.599645 -16.440243
62.239521 -21.170987 -17.391564
61.879093 -7.776058 -10.112954
61.774948 -8.984633 -9.061112
62.756009 -6.592685 -11.072838
61.851685 -6.537413 -11.190555
61.879093 -7.776058 -10.112954
64.902672 -10.082328 -8.917787
65.56303 -10.556211 -8.952814
64.310303 -9.598293 -8.904254
64.902672 -10.082328 -8.917787
64.897484 -8.8448 -9.913282
63.489212 -9.326846 -8.925028
64.310303 -9.598293 -8.904254
63.544266 -8.096047 -9.947492
62.728363 -9.062129 -8.972772
63.489212 -9.326846 -8.925028
57.90312 -4.637747 -14.170926
57.952482 -5.844918 -13.039779
58.982208 -4.364901 -13.944257
56.839571 -4.939643 -14.38178
57.90312 -4.637747 -14.170926
57.869297 -3.459626 -15.286258
55.703335 -5.254678 -14.597864
56.839571 -4.939643 -14.38178
55.675325 -4.10619 -15.679408
55.703335 -5.254678 -14.597864
55.54616 -2.924683 -16.792364
55.675325 -4.10619 -15.679408
56.676583 -2.580017 -16.610068
55.425055 -1.767266 -17.854233
55.54616 -2.924683 -16.792364
55.204683 -0.59963 -18.958824
55.425055 -1.767266 -17.854233
56.327045 -0.230874 -18.827616
54.995916 0.548391 -19.996948
55.204683 -0.59963 -18.958824
54.995916 0.548391 -19.996948
55.800404 2.073173 -21.023378
66.47134 -12.387519 -11.286664
66.501671 -13.418343 -11.36465
66.224636 -11.224214 -12.306663
66.487457 -11.308045 -11.21649
66.47134 -12.387519 -11.286664
64.603313 -17.695152 -13.553859
64.217686 -19.050459 -13.533636
64.968849 -16.285495 -13.588344
64.603313 -17.695152 -13.553859
64.301685 -16.677096 -14.618084
65.265927 -14.990363 -13.56736
65.567554 -16.008419 -12.503134
64.968849 -16.285495 -13.588344
62.772221 -22.082791 -20.986894
62.359948 -23.033463 -19.909489
62.697747 -20.462708 -21.351927
62.772221 -22.082791 -20.986894
62.786076 -18.873041 -21.628198
62.466549 -19.86211 -20.506411
62.697747 -20.462708 -21.351927
63.004978 -17.848268 -22.795071
63.372364 -16.819355 -23.930227
62.773781 -17.24767 -21.949554
62.786076 -18.873041 -21.628198
63.004978 -17.848268 -22.795071
63.726883 -11.368278 -26.990782
63.546768 -9.697256 -27.346239
63.454567 -12.452108 -25.795296
63.726883 -11.368278 -26.990782
63.227524 -11.891777 -24.876969
63.297523 -13.540477 -24.56661
63.454567 -12.452108 -25.795296
63.424087 0.354716 -24.348881
63.655086 0.418859 -23.001833
63.734463 -0.82008 -23.047798
63.424087 0.354716 -24.348881
63.24691 0.272643 -25.717548
3 0 18 16
3 0 71 73
3 73 72 18
3 71 72 73
3 74 20 75
3 2 23 21
3 2 25 23
3 1 76 78
3 76 26 77
3 76 77 78
3 79 29 80
3 81 80 27
3 79 80 81
3 83 82 29
3 3 33 31
3 3 35 33
3 84 36 85
3 87 86 36
3 4 40 38
3 88 41 89
3 90 89 17
3 88 89 90
3 92 91 41
3 93 43 94
3 7 44 19
3 7 45 44
3 95 46 96
3 8 47 22
3 8 48 47
3 8 49 48
3 9 50 24
3 9 51 50
3 10 97 98
3 10 99 100
3 5 52 39
3 11 53 28
3 11 54 53
3 11 55 54
3 101 56 102
3 103 102 30
3 101 102 103
3 105 104 56
3 12 106 107
3 12 108 110
3 108 57 109
3 108 109 110
3 6 58 42
3 13 59 32
3 13 60 59
3 13 61 60
3 14 62 34
3 14 63 62
3 111 64 112
3 113 65 114
3 115 114 64
3 113 114 115
3 15 116 118
3 116 66 117
3 116 117 118
3 15 67 66
3 15 68 67
3 119 69 120
3 121 120 37
3 119 120 121
3 122 70 123
3 124 123 69
3 122 123 124
3 126 125 70
3 16 17 4
3 18 17 16
3 18 127 129
3 129 128 17
3 127 128 129
3 18 130 131
3 133 132 18
3 134 19 135
3 20 136 138
3 136 19 137
3 136 137 138
3 20 7 19
3 21 139 141
3 139 22 140
3 139 140 141
3 23 22 21
3 23 8 22
3 23 24 8
3 25 24 23
3 25 9 24
3 26 142 143
3 26 144 146
3 144 10 145
3 144 145 146
3 27 28 5
3 29 28 27
3 29 11 28
3 29 30 11
3 147 30 148
3 149 148 29
3 147 148 149
3 151 150 30
3 152 12 153
3 31 32 6
3 33 32 31
3 33 13 32
3 33 34 13
3 35 34 33
3 35 14 34
3 36 154 155
3 36 156 158
3 156 15 157
3 156 157 158
3 36 37 15
3 159 37 160
3 161 160 36
3 159 160 161
3 163 162 37
3 164 21 165
3 166 21 167
3 168 2 169
3 170 169 21
3 168 169 170
3 38 39 1
3 40 39 38
3 40 5 39
3 17 40 4
3 41 40 17
3 41 5 40
3 41 27 5
3 171 27 172
3 173 172 41
3 171 172 173
3 175 174 27
3 176 42 177
3 43 178 180
3 178 42 179
3 178 179 180
3 43 6 42
3 19 181 183
3 181 43 182
3 181 182 183
3 44 43 19
3 44 6 43
3 44 31 6
3 45 31 44
3 45 3 31
3 46 184 185
3 46 186 188
3 186 1 187
3 186 187 188
3 22 189 190
3 47 191 193
3 193 192 22
3 191 192 193
3 47 194 195
3 47 196 198
3 196 46 197
3 196 197 198
3 48 46 47
3 48 1 46
3 48 38 1
3 49 38 48
3 49 4 38
3 24 49 8
3 50 49 24
3 50 4 49
3 50 16 4
3 51 16 50
3 51 0 16
3 39 26 1
3 52 26 39
3 52 10 26
3 28 52 5
3 53 52 28
3 53 10 52
3 53 199 201
3 201 200 10
3 199 200 201
3 54 202 204
3 204 203 53
3 202 203 204
3 54 205 206
3 54 207 208
3 55 209 211
3 211 210 54
3 209 210 211
3 55 212 213
3 30 55 11
3 56 55 30
3 56 214 216
3 216 215 55
3 214 215 216
3 56 217 218
3 220 219 56
3 57 221 222
3 57 223 225
3 223 2 224
3 223 224 225
3 42 226 227
3 58 228 230
3 230 229 42
3 228 229 230
3 58 231 233
3 231 12 232
3 231 232 233
3 32 58 6
3 59 58 32
3 59 12 58
3 59 57 12
3 60 57 59
3 60 2 57
3 60 25 2
3 61 25 60
3 61 9 25
3 34 61 13
3 62 61 34
3 62 9 61
3 62 51 9
3 63 51 62
3 63 0 51
3 234 20 235
3 236 20 237
3 238 7 239
3 240 239 20
3 238 239 240
3 64 241 242
3 64 243 245
3 243 7 244
3 243 244 245
3 64 45 7
3 65 45 64
3 65 3 45
3 66 246 247
3 66 248 249
3 66 250 252
3 250 65 251
3 250 251 252
3 67 65 66
3 67 3 65
3 67 35 3
3 68 35 67
3 68 14 35
3 37 68 15
3 69 68 37
3 69 14 68
3 69 63 14
3 70 63 69
3 70 0 63
3 70 253 255
3 255 254 0
3 253 254 255
3 257 256 70
