ply
format ascii 1.0
element vertex 257
property float x
property float y
property float z
element face 245
property list uchar int vertex_index
end_header
-52.526474 -69.792984 23.190603
-55.146751 -65.406128 12.439248
-59.11932 -66.94075 29.727039
-49.385509 -74.026253 16.132332
-49.452171 -73.531342 25.404667
-47.823647 -75.77594 21.795273
-50.127441 -71.548882 19.738094
-56.425537 -66.474396 21.163143
-53.431076 -67.65876 17.740812
-57.453835 -64.087036 15.906732
-52.389652 -71.767502 28.659275
-55.7024 -70.007782 31.699839
-55.883682 -68.468536 26.443747
-50.029831 -76.956619 12.538469
-51.905991 -69.624786 14.263657
-52.144722 -72.333199 10.87472
-53.400764 -75.237106 7.615459
-50.867725 -71.60788 24.281042
-49.658806 -72.533554 22.558054
-51.144226 -70.585609 21.492596
-56.879089 -65.32605 18.525343
-50.911903 -73.572586 29.861773
-58.812782 -67.407181 32.306412
-57.202026 -68.955391 33.250862
-57.375488 -68.433052 30.657345
-55.762367 -69.299721 29.075397
-57.574638 -67.769287 28.059872
-48.448738 -74.882935 18.921604
-47.604462 -77.113083 19.893995
-48.440239 -76.276962 17.055454
-48.72464 -77.751831 15.187735
-49.58707 -75.467178 14.327221
-54.197922 -66.549377 15.061831
-52.439972 -68.530502 16.001375
-53.447662 -67.489914 13.337902
-53.353127 -69.992348 10.003668
-53.875179 -71.424278 8.41255
-52.718739 -73.800919 9.235721
-54.594193 -72.862534 6.856526
-48.437904 -74.578369 23.640579
-48.842438 -73.624435 20.764593
-49.542267 -72.702591 17.943172
-54.396492 -68.086182 22.146984
-52.872253 -68.740242 20.456623
-54.803345 -66.992737 19.463005
-55.379959 -65.840637 16.795874
-56.112804 -64.633232 14.164188
-59.576347 -62.370483 15.088678
-58.13102 -62.766594 13.326048
-49.46328 -74.521866 28.258459
-50.806549 -72.612228 27.075071
-52.377304 -70.807999 25.92807
-54.065102 -70.924438 30.185987
-54.055866 -70.065742 27.514526
-54.154602 -69.114204 24.833591
-50.578674 -78.428383 10.763401
-51.666115 -69.55928 18.726187
-50.878681 -70.582428 16.96636
-50.545574 -71.806213 15.199286
-53.176552 -68.654434 11.646139
-51.831436 -70.913696 12.550101
-50.628876 -73.18705 13.447013
-51.027992 -74.65477 11.7212
-51.605312 -76.13179 10.018587
-52.217346 -77.552643 8.323195
-54.044472 -76.583313 5.986939
-59.281212 -66.629536 28.437763
-58.508871 -67.043804 27.60418
-58.346979 -67.355018 28.893456
-54.810785 -70.920818 7.229831
-54.460058 -70.213863 7.985238
-55.170292 -71.639946 6.45182
-54.234686 -72.143406 7.634538
-54.810785 -70.920818 7.229831
-55.585197 -72.330117 5.708572
-55.170292 -71.639946 6.45182
-48.945037 -74.054856 24.522623
-48.365429 -75.066192 25.093601
-48.872562 -74.542679 25.975645
-60.615875 -61.514486 14.721547
-60.354803 -62.24189 15.980289
-58.505218 -62.070616 12.064322
-59.157366 -61.846317 12.944807
-57.551338 -63.068922 12.45683
-58.505218 -62.070616 12.064322
-49.547092 -74.996193 29.680209
-48.906765 -75.522927 28.858951
-55.685341 -70.293312 33.005819
-56.435154 -69.767117 33.78133
-56.452213 -69.481587 32.47535
-54.92049 -70.838005 32.271764
-55.685341 -70.293312 33.005819
-54.883751 -70.46611 30.942913
-54.101841 -71.296333 31.514838
-54.92049 -70.838005 32.271764
-55.990451 -67.996384 25.124593
-55.125912 -68.319218 24.319515
-55.019142 -68.79137 25.638669
-47.445093 -76.882935 22.307588
-47.654575 -76.241608 23.261332
-47.302149 -78.247917 20.373435
-47.660034 -77.832733 18.929279
-49.605083 -78.101677 12.933759
-48.952488 -78.499283 14.258392
-49.377235 -77.354225 13.863102
-50.304253 -77.692501 11.650935
-49.879505 -78.837559 12.046225
-49.605083 -78.101677 12.933759
-53.90641 -68.147979 10.384279
-53.912773 -67.536964 11.199098
-57.709265 -65.128799 19.388453
-56.652313 -65.900223 19.844243
-57.482489 -65.702973 20.707353
-57.950159 -64.518812 18.091417
-57.709265 -65.128799 19.388453
-58.237532 -63.899305 16.782112
-57.166462 -64.706543 17.216037
-57.950159 -64.518812 18.091417
-51.017393 -74.012306 31.245149
-50.271404 -74.521553 30.481866
-51.713425 -73.108734 30.619404
-51.017393 -74.012306 31.245149
-52.452299 -72.206192 30.018155
-51.650778 -72.670044 29.260524
-51.713425 -73.108734 30.619404
-58.007404 -68.181286 32.778637
-57.854827 -68.341724 34.066187
-58.660206 -67.56762 33.593962
-57.698931 -67.36686 26.759639
-56.853453 -67.716484 25.951577
-56.72916 -68.118911 27.25181
-57.698931 -67.36686 26.759639
-58.508871 -67.043804 27.60418
-48.077923 -77.414672 17.510008
-47.660034 -77.832733 18.929279
-48.022351 -76.695022 18.474725
-48.582439 -77.014397 16.121595
-48.220123 -78.152107 16.576149
-48.077923 -77.414672 17.510008
-54.199032 -69.497898 8.780796
-53.994698 -68.816936 9.563043
-53.614153 -70.708313 9.208109
-54.199032 -69.497898 8.780796
-54.460058 -70.213863 7.985238
-54.971128 -73.547363 6.080996
-54.374414 -74.734649 6.460463
-53.997478 -74.04982 7.235993
-54.971128 -73.547363 6.080996
-55.585197 -72.330117 5.708572
-59.424285 -66.797523 33.180546
-58.660206 -67.56762 33.593962
-59.63298 -66.668083 31.894769
-59.424285 -66.797523 33.180546
-59.786249 -66.434868 30.605083
-58.966051 -67.173965 31.016725
-59.63298 -66.668083 31.894769
-60.659115 -65.721294 30.19765
-59.992186 -66.227176 29.319606
-59.786249 -66.434868 30.605083
-47.961704 -75.642822 24.183985
-48.365429 -75.066192 25.093601
-48.130775 -75.177155 22.717926
-47.654575 -76.241608 23.261332
-47.961704 -75.642822 24.183985
-54.897873 -65.912812 11.595652
-55.690514 -64.812004 11.164584
-59.298788 -63.041029 16.373085
-60.354803 -62.24189 15.980289
-58.515091 -63.228759 15.497705
-58.237532 -63.899305 16.782112
-59.298788 -63.041029 16.373085
-59.880029 -61.648262 13.826122
-60.615875 -61.514486 14.721547
-58.853684 -62.568539 14.207363
-59.880029 -61.648262 13.826122
-59.157366 -61.846317 12.944807
-56.542231 -64.002241 12.875901
-57.121912 -63.699913 13.745118
-57.551338 -63.068922 12.45683
-56.059204 -64.388689 12.01343
-55.629778 -65.01968 13.301718
-56.542231 -64.002241 12.875901
-55.690514 -64.812004 11.164584
-56.059204 -64.388689 12.01343
-48.878116 -75.037941 27.402541
-48.321601 -76.039002 28.003034
-48.906765 -75.522927 28.858951
-49.457725 -74.026604 26.831563
-48.872562 -74.542679 25.975645
-48.878116 -75.037941 27.402541
-50.187591 -74.047226 29.060116
-49.547092 -74.996193 29.680209
-50.271404 -74.521553 30.481866
-57.115212 -69.143917 34.540516
-57.768013 -68.53025 35.355841
-57.854827 -68.341724 34.066187
-57.115212 -69.143917 34.540516
-56.435154 -69.767117 33.78133
-53.290024 -71.78466 30.781511
-54.101841 -71.296333 31.514838
-53.227377 -71.34597 29.422631
-52.452299 -72.206192 30.018155
-53.290024 -71.78466 30.781511
-55.246856 -67.805206 22.976211
-54.275547 -68.600193 23.490288
-55.125912 -68.319218 24.319515
-56.261379 -66.999313 22.484291
-55.411015 -67.280289 21.655064
-55.246856 -67.805206 22.976211
-55.990451 -67.996384 25.124593
-56.853453 -67.716484 25.951577
-57.28315 -66.246185 22.009303
-56.261379 -66.999313 22.484291
-57.482489 -65.702973 20.707353
-57.28315 -66.246185 22.009303
-59.281212 -66.629536 28.437763
-59.992186 -66.227176 29.319606
-47.335501 -77.551506 21.356949
-47.445093 -76.882935 22.307588
-47.714055 -76.444512 20.844634
-47.335501 -77.551506 21.356949
-47.302149 -78.247917 20.373435
-48.388872 -78.897617 15.608132
-48.220123 -78.152107 16.576149
-48.388872 -78.897617 15.608132
-48.952488 -78.499283 14.258392
-50.131639 -79.569569 11.120833
-49.879505 -78.837559 12.046225
-50.843731 -79.131546 9.876409
-50.131639 -79.569569 11.120833
-54.048328 -66.954704 12.044979
-54.297207 -66.448021 12.888575
-54.897873 -65.912812 11.595652
-53.312107 -68.072174 12.49202
-54.048328 -66.954704 12.044979
-53.912773 -67.536964 11.199098
-53.26484 -69.323391 10.824903
-53.90641 -68.147979 10.384279
-53.994698 -68.816936 9.563043
-51.663067 -78.693676 8.656306
-50.843731 -79.131546 9.876409
-51.39801 -77.990513 9.543298
-52.479755 -78.215462 7.468333
-51.663067 -78.693676 8.656306
-53.393318 -77.730797 6.300205
-52.479755 -78.215462 7.468333
-53.130909 -77.067978 7.155067
-54.289974 -77.198513 5.155355
-53.393318 -77.730797 6.300205
-54.696268 -75.407753 5.646202
-53.722618 -75.91021 6.801199
-54.374414 -74.734649 6.460463
-55.018612 -76.035279 4.856153
-54.696268 -75.407753 5.646202
-55.264115 -76.650479 4.02457
-54.289974 -77.198513 5.155355
-55.018612 -76.035279 4.856153
3 0 19 17
3 2 24 22
3 2 26 24
3 2 66 68
3 68 67 26
3 66 67 68
3 3 29 27
3 3 31 29
3 1 34 32
3 69 36 70
3 71 38 72
3 73 72 36
3 71 72 73
3 75 74 38
3 4 76 78
3 76 39 77
3 76 77 78
3 6 40 18
3 6 41 40
3 7 44 42
3 9 45 20
3 9 46 45
3 79 47 80
3 81 48 82
3 84 83 48
3 85 49 86
3 10 50 21
3 10 51 50
3 11 87 89
3 89 88 23
3 87 88 89
3 11 90 91
3 11 92 94
3 92 52 93
3 92 93 94
3 12 53 25
3 12 54 53
3 12 95 97
3 97 96 54
3 95 96 97
3 5 98 99
3 101 100 28
3 13 102 104
3 104 103 30
3 102 103 104
3 13 105 107
3 105 55 106
3 105 106 107
3 8 56 43
3 14 57 33
3 14 58 57
3 108 59 109
3 15 60 35
3 15 61 60
3 15 62 61
3 16 63 37
3 16 64 63
3 16 65 64
3 17 18 4
3 19 18 17
3 19 6 18
3 110 20 111
3 112 111 7
3 110 111 112
3 113 20 114
3 115 9 116
3 117 116 20
3 115 116 117
3 118 21 119
3 120 21 121
3 122 10 123
3 124 123 21
3 122 123 124
3 22 125 127
3 125 23 126
3 125 126 127
3 24 23 22
3 24 11 23
3 24 25 11
3 26 25 24
3 26 12 25
3 26 128 130
3 130 129 12
3 128 129 130
3 132 131 26
3 27 28 5
3 29 28 27
3 29 133 135
3 135 134 28
3 133 134 135
3 29 136 138
3 136 30 137
3 136 137 138
3 31 30 29
3 31 13 30
3 32 33 8
3 34 33 32
3 34 14 33
3 139 35 140
3 36 141 143
3 141 35 142
3 141 142 143
3 36 15 35
3 36 37 15
3 38 37 36
3 38 16 37
3 38 144 146
3 146 145 16
3 144 145 146
3 148 147 38
3 149 22 150
3 151 22 152
3 153 2 154
3 155 154 22
3 153 154 155
3 158 157 2
3 156 157 158
3 39 159 160
3 39 161 163
3 161 5 162
3 161 162 163
3 18 39 4
3 40 39 18
3 40 5 39
3 40 27 5
3 41 27 40
3 41 3 27
3 165 164 1
3 42 43 0
3 44 43 42
3 44 8 43
3 20 44 7
3 45 44 20
3 45 8 44
3 45 32 8
3 46 32 45
3 46 1 32
3 47 166 167
3 47 168 170
3 168 9 169
3 168 169 170
3 171 47 172
3 48 173 175
3 173 47 174
3 173 174 175
3 48 9 47
3 48 46 9
3 176 46 177
3 178 177 48
3 176 177 178
3 179 1 180
3 181 180 46
3 179 180 181
3 183 182 1
3 49 184 186
3 184 185 186
3 49 187 189
3 187 4 188
3 187 188 189
3 21 190 192
3 190 49 191
3 190 191 192
3 50 49 21
3 50 4 49
3 50 17 4
3 51 17 50
3 51 0 17
3 23 193 195
3 193 194 195
3 197 196 23
3 52 198 199
3 52 200 202
3 200 10 201
3 200 201 202
3 25 52 11
3 53 52 25
3 53 10 52
3 53 51 10
3 54 51 53
3 54 0 51
3 54 42 0
3 203 42 204
3 205 204 54
3 203 204 205
3 206 7 207
3 208 207 42
3 206 207 208
3 210 209 12
3 211 7 212
3 214 213 7
3 216 215 2
3 28 217 219
3 219 218 5
3 217 218 219
3 221 220 28
3 30 222 223
3 225 224 30
3 55 226 227
3 55 228 229
3 43 19 0
3 56 19 43
3 56 6 19
3 33 56 8
3 57 56 33
3 57 6 56
3 57 41 6
3 58 41 57
3 58 3 41
3 230 34 231
3 232 231 1
3 230 231 232
3 59 233 235
3 233 34 234
3 233 234 235
3 59 14 34
3 35 236 238
3 236 59 237
3 236 237 238
3 60 59 35
3 60 14 59
3 60 58 14
3 61 58 60
3 61 3 58
3 61 31 3
3 62 31 61
3 62 13 31
3 37 62 15
3 63 62 37
3 63 13 62
3 63 55 13
3 64 55 63
3 64 239 241
3 241 240 55
3 239 240 241
3 64 242 243
3 65 244 246
3 246 245 64
3 244 245 246
3 65 247 248
3 249 65 250
3 251 250 16
3 249 250 251
3 252 65 253
3 256 255 65
3 254 255 256
