ply
format ascii 1.0
element vertex 177
property float x
property float y
property float z
element face 164
property list uchar int vertex_index
end_header
51.473625 53.578568 -5.606697
47.873657 60.880127 -1.439663
49.964645 50.027313 -5.5121
47.733593 58.43811 3.891124
50.848164 55.213806 0.796498
49.567951 58.739067 -8.875736
49.58989 54.651321 -9.730436
47.265182 50.726288 -9.000563
47.571175 62.837631 -6.557182
50.523365 57.248726 -4.175072
52.783287 51.867645 -1.187019
50.65213 56.132256 -7.331806
49.872063 56.67585 -9.504318
50.595505 54.216858 -7.710747
48.633774 50.501419 -7.280508
46.293045 62.59259 0.3042
46.27409 63.750809 -2.357887
47.794388 61.931419 -4.02725
49.128208 60.025764 -5.446899
49.335655 59.08622 -2.948349
52.050011 53.545815 -0.350225
52.046261 51.057182 -3.751574
51.034378 51.789078 -5.751032
46.237007 61.319458 3.012003
47.840256 59.709091 1.199312
49.400986 58.020561 -0.391914
49.349297 56.851738 2.221659
46.061764 52.492554 -12.990051
48.214554 61.39534 -10.213362
48.836151 59.185318 -11.080431
48.939331 56.987099 -11.564869
48.464745 54.834641 -11.643148
49.912292 52.344902 -7.687168
48.702293 52.675423 -9.550917
47.417305 52.735413 -11.32498
45.874989 50.661659 -10.659872
47.17762 63.564949 -9.009121
48.760117 60.808647 -7.876961
50.127823 58.07885 -6.564802
51.278992 55.403275 -5.074032
50.760361 56.284683 -1.72031
51.746941 54.530327 -2.745548
52.209251 52.782555 -3.431257
51.638489 50.20546 -3.725847
52.22089 49.794124 -2.795571
46.9853 59.878784 3.451563
46.196533 60.63409 4.389848
46.944826 59.193416 4.829409
45.348644 52.2137 -13.76166
45.265711 51.388722 -12.617247
46.709598 64.235996 -7.040343
46.854372 63.805698 -5.764544
47.374398 63.20129 -7.783152
46.512821 64.599655 -8.266312
46.709598 64.235996 -7.040343
52.850939 51.031056 -1.437566
52.563921 51.488511 -2.559684
52.496269 52.3251 -2.309138
47.666525 57.760979 5.263934
46.944826 59.193416 4.829409
46.877758 58.516285 6.202218
48.473886 57.017693 4.392434
47.666525 57.760979 5.263934
48.489739 49.379459 -6.105189
49.29921 50.264366 -6.396304
49.155174 49.142406 -5.220986
47.749775 49.571056 -6.914672
48.489739 49.379459 -6.105189
47.065479 49.683491 -7.774699
47.949478 50.613853 -8.140536
47.749775 49.571056 -6.914672
46.335518 49.738045 -8.577519
47.065479 49.683491 -7.774699
45.494152 64.016087 -0.092062
45.506726 63.388652 1.271039
45.484674 64.595196 -1.423106
45.494152 64.016087 -0.092062
46.283568 63.1717 -1.026844
45.42917 65.158626 -2.766382
45.484674 64.595196 -1.423106
46.20583 64.262287 -3.664896
45.42917 65.158626 -2.766382
46.965978 63.352593 -4.499578
46.20583 64.262287 -3.664896
47.034239 62.841114 -3.192569
47.682781 62.384525 -5.292216
46.854372 63.805698 -5.764544
46.965978 63.352593 -4.499578
52.118839 53.009277 0.881382
51.449087 54.37981 0.223137
51.517916 53.843273 1.454743
52.614155 52.204071 0.389294
52.118839 53.009277 0.881382
52.980793 51.364987 -0.029103
52.416649 52.70673 -0.768622
52.614155 52.204071 0.389294
53.201531 50.552109 -0.370488
52.980793 51.364987 -0.029103
51.132548 50.571408 -4.725575
51.540319 51.42313 -4.751303
51.638489 50.20546 -3.725847
50.597681 49.690525 -4.60611
50.499511 50.908196 -5.631566
51.132548 50.571408 -4.725575
49.890338 48.837333 -4.405748
50.597681 49.690525 -4.60611
49.155174 49.142406 -5.220986
49.890338 48.837333 -4.405748
45.473785 62.068444 4.007693
45.433312 61.383076 5.385537
46.196533 60.63409 4.389848
45.478707 62.752086 2.624941
45.473785 62.068444 4.007693
46.265026 61.956024 1.658101
45.506726 63.388652 1.271039
45.478707 62.752086 2.624941
49.281739 56.224507 3.557701
48.541445 57.644924 3.056392
48.473886 57.017693 4.392434
50.076645 55.453625 2.798987
49.281739 56.224507 3.557701
50.826078 54.634659 2.086406
50.098731 56.032772 1.509078
50.076645 55.453625 2.798987
51.517916 53.843273 1.454743
50.826078 54.634659 2.086406
45.957872 53.398258 -14.01892
46.641149 53.609669 -13.206277
45.957872 53.398258 -14.01892
45.348644 52.2137 -13.76166
47.843441 61.56718 -11.315262
47.401077 62.732746 -10.780189
48.15424 60.46217 -11.748797
47.843441 61.56718 -11.315262
48.525352 60.290329 -10.646897
48.378265 59.277691 -12.110625
48.15424 60.46217 -11.748797
48.429856 58.178581 -12.352843
48.378265 59.277691 -12.110625
48.887741 58.086208 -11.32265
48.394089 57.003975 -12.522493
48.429856 58.178581 -12.352843
48.156796 55.927746 -12.561633
48.394089 57.003975 -12.522493
48.702038 55.91087 -11.604008
47.84264 54.780712 -12.532826
48.156796 55.927746 -12.561633
47.31892 53.731099 -12.373742
47.84264 54.780712 -12.532826
47.941025 53.785027 -11.484064
46.739534 52.613984 -12.157515
46.641149 53.609669 -13.206277
47.31892 53.731099 -12.373742
45.172324 50.473274 -11.452158
45.265711 51.388722 -12.617247
45.968376 51.577106 -11.824962
45.640421 49.705731 -9.407173
46.570086 50.693973 -9.830217
46.335518 49.738045 -8.577519
44.929062 49.606945 -10.198434
45.640421 49.705731 -9.407173
45.172324 50.473274 -11.452158
44.929062 49.606945 -10.198434
46.275364 64.930256 -9.495756
46.512821 64.599655 -8.266312
46.88261 63.81755 -10.178068
46.275364 64.930256 -9.495756
47.696087 62.480144 -9.611242
47.401077 62.732746 -10.780189
46.88261 63.81755 -10.178068
52.482426 50.625824 -2.719843
52.127756 51.919868 -3.591416
52.563921 51.488511 -2.559684
52.22089 49.794124 -2.795571
52.482426 50.625824 -2.719843
52.850939 51.031056 -1.437566
53.201531 50.552109 -0.370488
3 0 13 11
3 1 16 15
3 1 17 16
3 1 19 17
3 44 43 21
3 3 45 47
3 45 23 46
3 45 46 47
3 3 24 23
3 3 26 24
3 49 48 27
3 5 29 28
3 6 30 12
3 6 31 30
3 2 32 22
3 7 33 14
3 7 34 33
3 7 35 34
3 8 50 51
3 8 52 54
3 52 36 53
3 52 53 54
3 8 37 36
3 9 38 18
3 9 39 38
3 4 40 25
3 10 41 20
3 10 42 41
3 10 55 57
3 57 56 42
3 55 56 57
3 58 3 59
3 58 59 60
3 62 61 3
3 11 12 5
3 13 12 11
3 13 6 12
3 63 14 64
3 65 64 2
3 63 64 65
3 66 14 67
3 68 7 69
3 70 69 14
3 68 69 70
3 72 71 7
3 15 73 74
3 16 75 77
3 77 76 15
3 75 76 77
3 16 78 79
3 16 80 81
3 17 82 84
3 84 83 16
3 82 83 84
3 17 85 87
3 85 8 86
3 85 86 87
3 17 18 8
3 19 18 17
3 19 9 18
3 88 20 89
3 90 89 4
3 88 89 90
3 91 20 92
3 93 10 94
3 95 94 20
3 93 94 95
3 97 96 10
3 21 22 0
3 98 22 99
3 100 99 21
3 98 99 100
3 101 2 102
3 103 102 22
3 101 102 103
3 104 2 105
3 107 106 2
3 23 108 110
3 108 109 110
3 23 111 112
3 23 113 115
3 113 15 114
3 113 114 115
3 24 15 23
3 24 1 15
3 24 25 1
3 26 25 24
3 26 4 25
3 116 26 117
3 118 117 3
3 116 117 118
3 119 26 120
3 121 4 122
3 123 122 26
3 121 122 123
3 125 124 4
3 27 126 127
3 129 128 27
3 28 130 131
3 29 132 134
3 134 133 28
3 132 133 134
3 29 135 136
3 12 29 5
3 30 29 12
3 30 137 139
3 139 138 29
3 137 138 139
3 30 140 141
3 31 142 144
3 144 143 30
3 142 143 144
3 31 145 146
3 22 13 0
3 32 13 22
3 32 6 13
3 14 32 2
3 33 32 14
3 33 6 32
3 33 31 6
3 34 31 33
3 34 147 149
3 149 148 31
3 147 148 149
3 34 150 152
3 150 27 151
3 150 151 152
3 35 27 34
3 35 153 155
3 155 154 27
3 153 154 155
3 156 35 157
3 158 157 7
3 156 157 158
3 159 35 160
3 162 161 35
3 36 163 164
3 36 165 166
3 36 167 169
3 167 28 168
3 167 168 169
3 37 28 36
3 37 5 28
3 18 37 8
3 38 37 18
3 38 5 37
3 38 11 5
3 39 11 38
3 39 0 11
3 25 19 1
3 40 19 25
3 40 9 19
3 20 40 4
3 41 40 20
3 41 9 40
3 41 39 9
3 42 39 41
3 42 0 39
3 42 21 0
3 170 21 171
3 172 171 42
3 170 171 172
3 174 173 21
3 176 175 10
