ply
format ascii 1.0
element vertex 258
property float x
property float y
property float z
element face 249
property list uchar int vertex_index
end_header
-50.03611 -18.363789 52.024513
-59.345577 -26.194023 47.090256
-51.981369 -23.585251 60.335072
-44.753723 -21.999798 59.846783
-57.31921 -20.931379 51.780083
-56.470978 -30.010551 47.806686
-62.16164 -25.96104 43.452759
-51.195641 -21.015833 56.40139
-54.603477 -22.175457 56.106586
-54.100731 -19.478422 52.2887
-56.646431 -26.67878 50.999939
-48.560707 -22.70433 60.389679
-47.173824 -20.110678 55.992813
-56.386597 -24.0319 54.209732
-58.920517 -23.142178 49.853752
-61.508709 -22.38356 45.657516
-57.977943 -28.095926 47.515961
-58.076435 -29.933014 46.281471
-59.474934 -27.99015 45.815197
-60.748886 -26.040934 45.243912
-50.586723 -19.744148 54.192154
-52.61792 -20.248001 54.351025
-52.089001 -18.915461 52.175789
-55.144867 -28.516239 51.173935
-55.362259 -27.019144 53.055695
-46.622215 -22.372169 60.101822
-47.85498 -21.433882 58.17717
-45.915638 -21.020514 57.946877
-55.952728 -21.549337 53.945827
-55.722294 -23.003283 55.37183
-57.01709 -22.457115 53.174938
-57.645821 -23.571304 52.017235
-58.322426 -21.929268 50.986599
-43.644238 -23.061653 61.664074
-54.875404 -31.95418 48.006824
-51.706745 -22.266695 58.49704
-53.278801 -22.841208 58.243546
-53.059246 -21.528282 56.420341
-54.457146 -20.827845 54.314552
-55.890137 -20.128994 52.197502
-54.932655 -30.165874 49.427994
-56.531212 -28.26833 49.301464
-57.974579 -26.407339 49.007931
-49.693615 -16.804897 50.045074
-51.620693 -17.452679 50.045433
-50.4011 -23.083412 60.523254
-49.844322 -21.821392 58.421795
-49.17289 -20.570118 56.199059
-48.548042 -19.23831 54.011566
-42.066429 -22.577831 61.608864
-43.102901 -21.50556 59.798687
-44.186523 -20.500921 57.905277
-45.370319 -19.558834 55.957382
-46.683041 -18.653299 53.98378
-48.128975 -17.747215 52.00795
-54.440826 -23.593208 57.557014
-55.141586 -24.543278 56.410591
-55.413258 -25.689482 54.86454
-56.652817 -25.260941 52.701393
-57.918434 -24.892246 50.573303
-59.21254 -24.569178 48.498268
-53.661339 -18.052372 50.162739
-55.627098 -18.679749 50.226959
-57.345016 -19.410131 50.08242
-58.694962 -20.30662 49.623756
-59.635258 -21.411373 48.821781
-60.209946 -22.741606 47.732529
-60.532227 -24.292334 46.483826
-61.865929 -24.076134 44.525833
-54.739666 -27.234494 54.104704
-54.59061 -27.938868 53.08833
-45.687969 -22.185983 59.974303
-46.031826 -22.888959 61.02391
-45.09758 -22.702773 60.896391
-52.577431 -23.923567 60.021208
-51.948267 -24.314184 61.067162
-43.08404 -23.627854 62.519199
-43.951535 -23.796444 62.674381
-56.532217 -30.947847 47.244091
-55.73443 -31.919662 47.34416
-55.673191 -30.982366 47.906755
-58.222891 -30.912415 45.860745
-58.900789 -29.929381 45.557251
-62.336761 -26.978673 43.018753
-61.58027 -26.957191 43.817124
-62.854414 -25.966921 42.572022
-63.029535 -26.984555 42.138016
-62.336761 -26.978673 43.018753
-54.202145 -30.291117 50.287922
-54.086128 -31.1402 49.432799
-50.522824 -16.304194 49.073368
-49.684874 -15.916373 49.208473
-48.844784 -23.357277 61.432688
-47.941517 -23.198101 61.334858
-49.480903 -22.893871 60.456467
-49.76498 -23.546819 61.499476
-48.844784 -23.357277 61.432688
-41.920936 -21.703501 60.849129
-41.43436 -22.237507 61.759514
-42.439172 -21.167365 59.94404
-42.584665 -22.041695 60.703775
-41.920936 -21.703501 60.849129
-44.040573 -19.676551 57.068115
-43.486404 -20.157111 58.046166
-44.632471 -19.205507 56.094167
-44.778421 -20.029878 56.93133
-44.040573 -19.676551 57.068115
-46.603589 -17.827895 53.127594
-45.910006 -18.289831 54.117241
-47.326555 -17.374853 52.139679
-47.406008 -18.200257 52.995865
-46.603589 -17.827895 53.127594
-47.284716 -16.523753 51.29048
-48.087136 -16.896115 51.15875
-47.326555 -17.374853 52.139679
-53.4694 -17.269385 49.121666
-52.641016 -17.752525 50.104086
-52.449078 -16.969539 49.063013
-56.403156 -18.262315 49.19988
-55.454431 -17.910677 49.193161
-57.262115 -18.627506 49.127611
-56.486057 -19.04494 50.15469
-56.403156 -18.262315 49.19988
-59.383786 -19.993828 48.554686
-58.752144 -19.48873 48.800554
-59.853933 -20.546205 48.153698
-59.16511 -20.858996 49.222769
-59.383786 -19.993828 48.554686
-60.859328 -22.562583 46.695023
-60.580573 -21.82805 47.210476
-61.229954 -21.649027 46.17297
-59.600038 -28.957949 45.324114
-58.900789 -29.929381 45.557251
-58.775684 -28.961582 46.048334
-60.236917 -27.971746 44.998342
-59.600038 -28.957949 45.324114
-60.873893 -26.997138 44.7127
-60.236917 -27.971746 44.998342
-60.11191 -27.015542 45.529555
-61.455263 -26.000987 44.348336
-61.58027 -26.957191 43.817124
-60.873893 -26.997138 44.7127
-54.481915 -28.687416 52.14745
-54.30825 -29.466299 51.160893
-55.253563 -27.767691 52.114815
-54.481915 -28.687416 52.14745
-54.59061 -27.938868 53.08833
-46.972271 -23.032021 61.190929
-46.031826 -22.888959 61.02391
-47.591461 -22.538249 60.24575
-47.941517 -23.198101 61.334858
-46.972271 -23.032021 61.190929
-61.885159 -21.424862 45.122231
-61.229954 -21.649027 46.17297
-62.156039 -22.239087 44.640511
-61.885159 -21.424862 45.122231
-44.542838 -23.2337 61.805036
-43.951535 -23.796444 62.674381
-44.198981 -22.530725 60.755429
-45.09758 -22.702773 60.896391
-44.542838 -23.2337 61.805036
-54.973619 -32.910026 47.525869
-54.061659 -32.949542 48.079908
-54.973619 -32.910026 47.525869
-55.73443 -31.919662 47.34416
-57.334946 -30.909078 46.481484
-56.532217 -30.947847 47.244091
-57.273707 -29.971782 47.044078
-57.334946 -30.909078 46.481484
-58.222891 -30.912415 45.860745
-54.057502 -32.034352 48.722214
-54.061659 -32.949542 48.079908
-54.90403 -31.060027 48.717409
-54.057502 -32.034352 48.722214
-54.086128 -31.1402 49.432799
-55.038761 -29.341057 50.300964
-54.202145 -30.291117 50.287922
-54.30825 -29.466299 51.160893
-51.486362 -16.628085 49.073548
-50.657154 -17.128788 50.045254
-50.522824 -16.304194 49.073368
-52.449078 -16.969539 49.063013
-51.486362 -16.628085 49.073548
-51.342537 -24.013419 61.346781
-51.948267 -24.314184 61.067162
-50.552402 -23.762499 61.440872
-49.76498 -23.546819 61.499476
-51.191235 -23.334331 60.429163
-51.342537 -24.013419 61.346781
-50.552402 -23.762499 61.440872
-41.536692 -23.137786 62.461151
-41.43436 -22.237507 61.759514
-42.295136 -23.385942 62.491594
-41.536692 -23.137786 62.461151
-42.855334 -22.819742 61.636469
-43.08404 -23.627854 62.519199
-42.295136 -23.385942 62.491594
-42.944593 -20.65943 58.992871
-42.439172 -21.167365 59.94404
-43.644712 -21.003241 58.851982
-42.944593 -20.65943 58.992871
-43.486404 -20.157111 58.046166
-45.253645 -18.742598 55.104042
-44.632471 -19.205507 56.094167
-46.02668 -19.106067 54.970581
-45.253645 -18.742598 55.104042
-45.910006 -18.289831 54.117241
-48.869456 -16.424956 50.177312
-48.911295 -17.276056 51.026512
-48.087136 -16.896115 51.15875
-49.684874 -15.916373 49.208473
-48.869456 -16.424956 50.177312
-53.226146 -23.551546 58.975445
-52.577431 -23.923567 60.021208
-52.630085 -23.21323 59.289309
-53.807159 -23.927546 58.632179
-53.226146 -23.551546 58.975445
-53.859814 -23.217208 57.90028
-54.174495 -24.364393 58.075956
-53.807159 -23.927546 58.632179
-54.524875 -24.839428 57.502744
-54.174495 -24.364393 58.075956
-54.791206 -24.068243 56.983802
-54.667997 -25.373215 56.724119
-54.524875 -24.839428 57.502744
-54.803833 -25.946317 55.951093
-54.667997 -25.373215 56.724119
-55.277422 -25.11638 55.637565
-54.765165 -26.569663 55.009127
-54.803833 -25.946317 55.951093
-55.387759 -26.354313 53.960117
-54.739666 -27.234494 54.104704
-54.765165 -26.569663 55.009127
-54.471552 -17.596988 49.161051
-53.4694 -17.269385 49.121666
-54.644218 -18.36606 50.194849
-54.471552 -17.596988 49.161051
-55.454431 -17.910677 49.193161
-58.077171 -19.040486 49.029886
-57.262115 -18.627506 49.127611
-58.019989 -19.858376 49.853088
-58.077171 -19.040486 49.029886
-58.752144 -19.48873 48.800554
-60.293228 -21.162934 47.755102
-59.853933 -20.546205 48.153698
-59.922602 -22.07649 48.277155
-60.293228 -21.162934 47.755102
-60.580573 -21.82805 47.210476
-62.334649 -23.085374 44.074669
-61.687319 -23.229847 45.091674
-62.156039 -22.239087 44.640511
-62.52826 -24.009947 43.567901
-62.334649 -23.085374 44.074669
-62.676115 -24.9524 43.031364
-62.013784 -25.018587 43.989296
-62.52826 -24.009947 43.567901
-62.854414 -25.966921 42.572022
-62.676115 -24.9524 43.031364
3 1 18 16
3 1 19 18
3 0 22 20
3 69 24 70
3 3 71 73
3 71 25 72
3 71 72 73
3 3 27 25
3 2 74 75
3 4 30 28
3 4 32 30
3 76 33 77
3 5 78 80
3 80 79 34
3 78 79 80
3 82 81 17
3 6 83 84
3 6 85 87
3 85 86 87
3 7 37 35
3 9 38 21
3 9 39 38
3 88 40 89
3 10 41 23
3 10 42 41
3 91 90 43
3 11 92 93
3 11 94 96
3 94 45 95
3 94 95 96
3 11 46 45
3 12 47 26
3 12 48 47
3 97 49 98
3 99 50 100
3 101 100 49
3 99 100 101
3 102 51 103
3 104 52 105
3 106 105 51
3 104 105 106
3 107 53 108
3 109 54 110
3 111 110 53
3 109 110 111
3 114 113 54
3 112 113 114
3 8 55 36
3 13 56 29
3 13 57 56
3 13 58 57
3 14 59 31
3 14 60 59
3 115 61 116
3 117 116 44
3 115 116 117
3 118 62 119
3 120 63 121
3 122 121 62
3 120 121 122
3 123 64 124
3 125 65 126
3 127 126 64
3 125 126 127
3 15 128 130
3 128 66 129
3 128 129 130
3 15 67 66
3 15 68 67
3 16 17 5
3 18 17 16
3 18 131 133
3 133 132 17
3 131 132 133
3 18 134 135
3 19 136 138
3 138 137 18
3 136 137 138
3 19 139 141
3 139 6 140
3 139 140 141
3 20 21 7
3 22 21 20
3 22 9 21
3 142 23 143
3 24 144 146
3 144 23 145
3 144 145 146
3 24 10 23
3 25 147 148
3 25 149 151
3 149 11 150
3 149 150 151
3 25 26 11
3 27 26 25
3 27 12 26
3 28 29 8
3 30 29 28
3 30 13 29
3 30 31 13
3 32 31 30
3 32 14 31
3 152 15 153
3 155 154 15
3 33 156 157
3 33 158 160
3 158 3 159
3 158 159 160
3 34 161 162
3 164 163 34
3 17 165 167
3 167 166 5
3 165 166 167
3 169 168 17
3 35 36 2
3 37 36 35
3 37 8 36
3 21 37 7
3 38 37 21
3 38 8 37
3 38 28 8
3 39 28 38
3 39 4 28
3 170 34 171
3 40 172 174
3 172 34 173
3 172 173 174
3 40 5 34
3 23 175 177
3 175 40 176
3 175 176 177
3 41 40 23
3 41 5 40
3 41 16 5
3 42 16 41
3 42 1 16
3 43 44 0
3 178 44 179
3 180 179 43
3 178 179 180
3 182 181 44
3 183 2 184
3 45 185 186
3 45 187 189
3 187 2 188
3 187 188 189
3 45 35 2
3 46 35 45
3 46 7 35
3 26 46 11
3 47 46 26
3 47 7 46
3 47 20 7
3 48 20 47
3 48 0 20
3 49 190 191
3 49 192 193
3 49 194 196
3 194 33 195
3 194 195 196
3 50 33 49
3 50 3 33
3 197 50 198
3 51 199 201
3 199 50 200
3 199 200 201
3 51 3 50
3 51 27 3
3 52 27 51
3 52 12 27
3 202 52 203
3 53 204 206
3 204 52 205
3 204 205 206
3 53 12 52
3 53 48 12
3 54 48 53
3 54 0 48
3 54 43 0
3 207 43 208
3 209 208 54
3 207 208 209
3 211 210 43
3 36 212 214
3 214 213 2
3 212 213 214
3 55 215 217
3 217 216 36
3 215 216 217
3 55 218 219
3 29 55 8
3 56 55 29
3 56 220 222
3 222 221 55
3 220 221 222
3 56 223 224
3 57 225 227
3 227 226 56
3 225 226 227
3 57 228 229
3 57 230 232
3 230 24 231
3 230 231 232
3 58 24 57
3 58 10 24
3 31 58 13
3 59 58 31
3 59 10 58
3 59 42 10
3 60 42 59
3 60 1 42
3 44 22 0
3 61 22 44
3 61 9 22
3 233 61 234
3 62 235 237
3 235 61 236
3 235 236 237
3 62 9 61
3 62 39 9
3 63 39 62
3 63 4 39
3 238 63 239
3 64 240 242
3 240 63 241
3 240 241 242
3 64 4 63
3 64 32 4
3 65 32 64
3 65 14 32
3 243 65 244
3 66 245 247
3 245 65 246
3 245 246 247
3 66 14 65
3 66 60 14
3 67 60 66
3 67 1 60
3 67 19 1
3 68 19 67
3 68 6 19
3 248 68 249
3 250 249 15
3 248 249 250
3 251 68 252
3 253 6 254
3 255 254 68
3 253 254 255
3 257 256 6
