ply
format ascii 1.0
element vertex 266
property float x
property float y
property float z
element face 273
property list uchar int vertex_index
end_header
6.842169 -20.283512 87.863907
13.700243 -24.430521 84.176292
2.425772 -13.549232 87.134392
12.976614 -32.602272 81.969574
4.965395 -31.416882 87.585426
2.739534 -23.841343 88.848022
0.710598 -20.960861 88.189117
4.289873 -17.123022 88.010063
17.581911 -32.681232 79.138184
17.070717 -29.331982 79.40126
10.033068 -22.745264 86.562561
8.962721 -27.820431 85.806221
5.538565 -26.174503 88.013237
1.855806 -29.979401 89.010323
11.390308 -17.247711 86.126335
17.67498 -25.432322 81.066208
14.870875 -19.663092 84.86644
12.848686 -28.823334 82.721664
8.727449 -32.242161 84.991203
2.014812 -35.22963 89.116127
-0.631191 -34.096256 89.204781
4.702679 -21.994547 88.468643
3.452881 -20.537983 88.533966
5.479155 -18.777073 88.075188
19.272837 -29.455557 77.812523
19.380592 -27.648119 78.444908
8.366718 -21.611656 87.360374
7.711527 -24.413158 87.325577
6.128393 -23.293167 88.065132
4.050091 -25.089888 88.619156
13.069784 -18.569725 85.608635
1.51265 -17.295248 87.720978
15.242311 -32.666195 80.504395
11.231539 -34.213116 83.493111
15.658528 -25.007088 82.681458
15.195067 -27.127552 81.813873
13.189638 -26.688686 83.449142
6.850166 -29.591379 86.69532
8.706999 -30.129425 85.325607
6.776217 -31.898872 86.38961
7.005733 -33.981144 86.258255
5.092426 -33.707691 87.462578
3.679726 -35.561081 88.466164
3.343334 -33.297142 88.415733
0.604519 -29.020462 89.114891
0.442701 -32.00753 89.228249
-0.660688 -31.127787 88.984512
1.013977 -25.820862 88.9627
1.623762 -22.453171 88.698212
2.389654 -18.957211 88.276443
3.275599 -15.36404 87.689896
19.47057 -31.129374 77.623329
17.168598 -31.082672 79.05217
14.927119 -30.980171 80.585243
11.818371 -23.681984 85.488304
11.262527 -26.101665 84.960724
9.43012 -25.347668 86.274788
7.183455 -27.084213 87.057701
5.130508 -28.895035 87.809486
3.317192 -30.779594 88.484459
3.569704 -28.031254 88.589897
2.190678 -27.001751 88.982491
9.09342 -18.703861 87.072868
7.636255 -17.168209 87.363564
9.856501 -15.704037 86.439621
19.731688 -25.729061 79.390434
18.200367 -23.341778 82.003326
16.21447 -22.799833 83.441261
16.766577 -20.534098 83.896446
14.2875 -22.080555 84.702393
12.442095 -21.164728 85.743202
10.702526 -20.03986 86.536026
6.344622 -15.459678 87.428413
5.220434 -13.619225 87.289124
17.263828 -27.439856 80.126015
14.924575 -29.128487 81.054619
12.760427 -30.801998 82.185066
10.856647 -28.394299 84.332848
10.682343 -30.525957 83.791702
10.799845 -32.46867 83.488297
9.059195 -34.140961 84.903252
1.784714 -32.732613 89.026855
0.569067 -34.743301 89.379608
20.595043 -26.784332 78.074303
20.45462 -27.711029 77.629131
1.617906 -14.573726 87.01463
1.161345 -16.446734 87.307923
1.969211 -15.42224 87.427685
2.073061 -12.638063 86.746285
1.617906 -14.573726 87.01463
13.24021 -33.412569 82.038059
14.373059 -33.44453 81.30547
14.109462 -32.634234 81.236985
12.104076 -33.407694 82.731342
12.367673 -34.217991 82.799827
13.24021 -33.412569 82.038059
-0.539622 -29.523629 88.883533
-0.028085 -30.074124 89.049701
0.092982 -28.469967 88.948723
-1.086269 -30.619639 88.639518
-0.539622 -29.523629 88.883533
20.493075 -30.323842 76.971428
20.644417 -31.132411 76.969494
18.465319 -22.270515 82.359417
19.468216 -22.51164 81.680283
17.47237 -21.999542 83.078384
17.207418 -23.070805 82.722294
18.465319 -22.270515 82.359417
15.818726 -20.098595 84.381443
17.005693 -19.382321 83.904743
16.057841 -18.946818 84.38974
0.011299 -22.040913 87.957863
0.382028 -22.738096 88.361957
7.414427 -14.710541 87.002426
6.990438 -16.313944 87.395989
8.060244 -15.564807 86.970001
5.720861 -11.831934 86.850544
6.248449 -12.83867 86.925725
4.73656 -12.658291 87.125157
5.720861 -11.831934 86.850544
17.931144 -33.410503 79.368618
18.78127 -32.672623 78.515557
7.277315 -34.908968 86.301861
6.269956 -34.868084 86.884266
2.286797 -36.346285 89.216106
3.119254 -36.512011 88.891125
2.847269 -35.395356 88.791145
1.509966 -36.218853 89.366493
2.286797 -36.346285 89.216106
-0.466727 -35.44568 89.348999
0.133402 -35.769203 89.436413
-0.031062 -34.419778 89.292194
-0.985294 -35.157652 89.060021
-0.466727 -35.44568 89.348999
20.400742 -28.614748 77.312939
20.394209 -29.486934 77.066025
19.326715 -28.551838 78.128715
20.400742 -28.614748 77.312939
20.45462 -27.711029 77.629131
11.732152 -15.812129 85.731175
12.528525 -16.5775 85.584804
15.135088 -18.428081 84.723034
16.057841 -18.946818 84.38974
14.234542 -17.881398 85.094132
13.97033 -19.116408 85.237538
15.135088 -18.428081 84.723034
13.368263 -17.238507 85.325954
14.234542 -17.881398 85.094132
12.528525 -16.5775 85.584804
12.230046 -17.908718 85.867485
13.368263 -17.238507 85.325954
0.754367 -18.350744 87.536965
0.353341 -20.183551 87.771034
1.111624 -19.128055 87.955048
0.754367 -18.350744 87.536965
1.161345 -16.446734 87.307923
15.550524 -33.42935 80.651486
16.720323 -33.436869 79.96838
16.412111 -32.673714 79.82129
15.550524 -33.42935 80.651486
14.373059 -33.44453 81.30547
11.593113 -34.995798 83.632713
12.367673 -34.217991 82.799827
10.464272 -35.024172 84.2818
11.593113 -34.995798 83.632713
5.313302 -34.731358 87.486427
6.269956 -34.868084 86.884266
6.049079 -33.844417 86.860416
4.386076 -34.634386 87.964371
4.606952 -35.658052 87.988221
5.313302 -34.731358 87.486427
-1.114121 -32.211683 88.779659
-1.099372 -33.695917 88.889793
-0.645939 -32.612021 89.094646
-1.114121 -32.211683 88.779659
-1.086269 -30.619639 88.639518
0.533718 -25.168097 88.748749
0.29771 -26.870167 88.872627
0.83861 -23.484251 88.616505
0.533718 -25.168097 88.748749
1.318869 -24.137017 88.830456
1.16718 -21.707016 88.443664
0.382028 -22.738096 88.361957
0.83861 -23.484251 88.616505
19.7256 -31.896693 77.758129
20.644417 -31.132411 76.969494
18.526241 -31.905303 78.380756
18.78127 -32.672623 78.515557
19.7256 -31.896693 77.758129
19.371703 -30.292465 77.717926
20.493075 -30.323842 76.971428
20.394209 -29.486934 77.066025
0.29771 -26.870167 88.872627
0.092982 -28.469967 88.948723
0.809248 -27.420662 89.038795
9.170367 -14.832721 86.50803
8.060244 -15.564807 86.970001
8.746378 -16.436123 86.901592
10.965249 -15.040291 85.887818
10.623404 -16.475874 86.282978
11.732152 -15.812129 85.731175
10.248561 -14.162109 85.967961
10.965249 -15.040291 85.887818
9.170367 -14.832721 86.50803
10.248561 -14.162109 85.967961
20.996207 -24.858154 79.095345
20.770591 -25.824803 78.547066
22.035111 -24.953896 78.251976
19.977521 -24.72923 79.915142
20.996207 -24.858154 79.095345
18.949167 -24.580861 80.753029
18.703334 -25.580692 80.228321
19.977521 -24.72923 79.915142
19.211861 -23.535589 81.221588
19.468216 -22.51164 81.680283
17.937674 -24.38705 81.534767
18.949167 -24.580861 80.753029
19.211861 -23.535589 81.221588
17.970666 -19.782244 83.462741
17.005693 -19.382321 83.904743
17.748424 -20.866675 83.305977
17.970666 -19.782244 83.462741
16.490524 -21.666965 83.668853
17.47237 -21.999542 83.078384
17.748424 -20.866675 83.305977
0.011299 -22.040913 87.957863
0.353341 -20.183551 87.771034
6.810543 -13.758897 86.995369
7.414427 -14.710541 87.002426
5.782528 -14.539452 87.358768
6.810543 -13.758897 86.995369
6.248449 -12.83867 86.925725
3.764143 -13.530698 87.325543
4.248017 -14.491632 87.48951
4.73656 -12.658291 87.125157
3.339229 -12.623295 87.047791
2.850685 -14.456636 87.412144
3.764143 -13.530698 87.325543
2.922725 -11.648167 86.792435
3.339229 -12.623295 87.047791
2.073061 -12.638063 86.746285
2.922725 -11.648167 86.792435
17.931144 -33.410503 79.368618
16.720323 -33.436869 79.96838
19.55614 -26.68859 78.917671
20.595043 -26.784332 78.074303
20.770591 -25.824803 78.547066
9.378101 -34.988095 84.98687
10.464272 -35.024172 84.2818
10.145367 -34.177038 84.198182
8.304046 -34.988877 85.624359
8.032464 -34.061053 85.580754
7.277315 -34.908968 86.301861
9.378101 -34.988095 84.98687
8.304046 -34.988877 85.624359
4.003648 -36.569195 88.560059
4.606952 -35.658052 87.988221
4.003648 -36.569195 88.560059
3.119254 -36.512011 88.891125
0.787094 -35.975689 89.498233
1.509966 -36.218853 89.366493
1.29194 -34.986466 89.247868
0.787094 -35.975689 89.498233
0.133402 -35.769203 89.436413
-0.985294 -35.157652 89.060021
-1.099372 -33.695917 88.889793
3 0 23 21
3 83 25 84
3 0 28 26
3 0 21 28
3 2 85 87
3 87 86 31
3 85 86 87
3 2 88 89
3 3 90 92
3 92 91 32
3 90 91 92
3 3 93 95
3 93 33 94
3 93 94 95
3 1 36 34
3 4 39 37
3 4 41 39
3 4 43 41
3 96 46 97
3 98 97 44
3 96 97 98
3 100 99 46
3 5 48 47
3 7 49 22
3 7 50 49
3 101 51 102
3 9 52 24
3 9 53 52
3 10 56 54
3 12 57 27
3 12 58 57
3 12 60 58
3 5 61 29
3 5 47 61
3 14 64 62
3 103 66 104
3 105 67 106
3 107 106 66
3 105 106 107
3 16 108 110
3 108 68 109
3 108 109 110
3 16 69 68
3 16 70 69
3 14 71 30
3 14 62 71
3 6 111 112
3 113 72 114
3 115 114 63
3 113 114 115
3 116 73 117
3 119 118 73
3 8 120 121
3 15 74 65
3 17 75 35
3 17 76 75
3 11 77 55
3 18 78 38
3 18 79 78
3 18 80 79
3 123 122 40
3 19 124 126
3 126 125 42
3 124 125 126
3 19 127 128
3 13 81 59
3 20 82 45
3 20 129 131
3 131 130 82
3 129 130 131
3 20 132 133
3 21 22 5
3 23 22 21
3 23 7 22
3 134 24 135
3 25 136 138
3 136 24 137
3 136 137 138
3 25 9 24
3 26 27 10
3 28 27 26
3 28 12 27
3 28 29 12
3 21 29 28
3 21 5 29
3 140 139 14
3 141 16 142
3 143 30 144
3 145 144 16
3 143 144 145
3 146 30 147
3 148 14 149
3 150 149 30
3 148 149 150
3 31 151 153
3 153 152 6
3 151 152 153
3 155 154 31
3 32 156 158
3 158 157 8
3 156 157 158
3 160 159 32
3 33 161 162
3 33 163 164
3 34 35 15
3 36 35 34
3 36 17 35
3 37 38 11
3 39 38 37
3 39 18 38
3 39 40 18
3 41 40 39
3 41 165 167
3 167 166 40
3 165 166 167
3 41 168 170
3 168 42 169
3 168 169 170
3 43 42 41
3 43 19 42
3 44 45 13
3 46 45 44
3 46 20 45
3 46 171 173
3 173 172 20
3 171 172 173
3 175 174 46
3 47 176 177
3 48 178 180
3 180 179 47
3 178 179 180
3 48 181 183
3 181 6 182
3 181 182 183
3 22 48 5
3 49 48 22
3 49 6 48
3 49 31 6
3 50 31 49
3 50 2 31
3 51 184 185
3 51 186 188
3 186 8 187
3 186 187 188
3 24 189 191
3 189 51 190
3 189 190 191
3 52 51 24
3 52 8 51
3 52 32 8
3 53 32 52
3 53 3 32
3 54 55 1
3 56 55 54
3 56 11 55
3 27 56 10
3 57 56 27
3 57 11 56
3 57 37 11
3 58 37 57
3 58 4 37
3 58 59 4
3 60 59 58
3 60 13 59
3 29 60 12
3 61 60 29
3 61 13 60
3 61 44 13
3 47 44 61
3 47 192 194
3 194 193 44
3 192 193 194
3 62 63 0
3 64 63 62
3 64 195 197
3 197 196 63
3 195 196 197
3 198 64 199
3 200 199 14
3 198 199 200
3 201 64 202
3 204 203 64
3 205 65 206
3 205 206 207
3 208 65 209
3 210 15 211
3 212 211 65
3 210 211 212
3 66 213 214
3 66 215 217
3 215 15 216
3 215 216 217
3 66 34 15
3 67 34 66
3 67 1 34
3 68 218 219
3 68 220 221
3 68 222 224
3 222 67 223
3 222 223 224
3 69 67 68
3 69 1 67
3 69 54 1
3 70 54 69
3 70 10 54
3 30 70 16
3 71 70 30
3 71 10 70
3 71 26 10
3 62 26 71
3 62 0 26
3 226 225 6
3 63 23 0
3 72 23 63
3 72 7 23
3 227 72 228
3 73 229 231
3 229 72 230
3 229 230 231
3 73 7 72
3 73 50 7
3 232 50 233
3 234 233 73
3 232 233 234
3 235 2 236
3 237 236 50
3 235 236 237
3 238 2 239
3 241 240 2
3 243 242 8
3 65 244 246
3 244 25 245
3 244 245 246
3 74 25 65
3 74 9 25
3 35 74 15
3 75 74 35
3 75 9 74
3 75 53 9
3 76 53 75
3 76 3 53
3 55 36 1
3 77 36 55
3 77 17 36
3 38 77 11
3 78 77 38
3 78 17 77
3 78 76 17
3 79 76 78
3 79 3 76
3 79 33 3
3 80 33 79
3 80 247 249
3 249 248 33
3 247 248 249
3 40 80 18
3 250 80 251
3 252 251 40
3 250 251 252
3 254 253 80
3 42 255 256
3 258 257 42
3 59 43 4
3 81 43 59
3 81 19 43
3 45 81 13
3 82 81 45
3 82 19 81
3 82 259 261
3 261 260 19
3 259 260 261
3 263 262 82
3 265 264 20
