ply
format ascii 1.0
element vertex 209
property float x
property float y
property float z
element face 202
property list uchar int vertex_index
end_header
60.066856 -69.387543 3.454607
62.637047 -68.58847 -13.459587
54.57621 -77.284828 2.948848
62.736511 -69.50174 -4.964161
55.240547 -79.566299 -5.69832
55.095173 -78.526535 -1.392099
60.783699 -65.368225 3.697577
63.311356 -65.637604 -0.432985
62.992073 -68.947868 -9.191139
66.256828 -63.97575 -8.770992
57.697136 -73.235329 3.177364
61.72897 -69.765411 -0.773264
58.600723 -73.927521 -1.096321
59.017822 -74.217331 -5.30805
58.907463 -74.427849 -9.549021
65.229668 -65.084381 -4.571733
60.658218 -67.410385 3.587018
62.095085 -65.609192 1.630101
61.778179 -67.661385 1.487493
62.877251 -68.720474 -11.324238
64.799187 -65.987099 -11.128736
64.637566 -65.655708 -13.273928
56.155907 -75.203514 3.056856
58.197426 -73.643333 1.025508
56.526909 -75.721275 0.892951
55.223221 -79.060402 -3.541334
57.008537 -76.490784 -3.360943
57.075623 -76.794151 -5.483103
59.021629 -74.309464 -7.422398
57.027245 -77.092018 -7.617304
62.32703 -69.699219 -2.867985
63.593788 -67.575089 -2.682987
64.21109 -67.273621 -4.771902
54.86866 -77.939781 0.765172
53.529636 -81.112465 -1.57938
61.907791 -63.509041 1.7535
63.300163 -63.52919 -0.280464
64.577667 -63.326958 -2.321295
62.95369 -69.229019 -7.070457
64.611343 -66.861954 -6.873793
64.800262 -66.409004 -8.992966
59.047077 -71.315918 3.313047
60.963722 -69.665466 1.330733
59.727673 -71.644531 1.172648
60.289524 -71.820694 -0.941565
60.703228 -71.860306 -3.042093
56.821198 -76.144272 -1.240736
58.878769 -74.106232 -3.202776
60.953011 -71.801643 -5.141455
61.040337 -71.6996 -7.249268
60.98217 -71.612869 -9.3696
60.803337 -71.58786 -11.498672
58.285126 -70.838242 5.488815
62.772266 -67.713928 -0.59964
64.371124 -65.455383 -2.497681
65.860336 -64.569321 -6.661474
56.879448 -77.412552 -9.764666
63.489815 -67.017792 -14.436229
64.490075 -65.551411 -14.3434
63.637307 -67.122089 -13.366758
52.853414 -82.511905 -1.708181
52.782789 -82.039066 -0.578434
53.570419 -81.476551 -2.678578
52.853414 -82.511905 -1.708181
61.345745 -64.438633 2.725538
61.192372 -63.389101 2.767848
60.630325 -64.318693 3.739886
65.614846 -64.68331 -11.014741
65.602508 -64.419695 -12.087447
57.415859 -71.451878 6.549727
57.884529 -70.532303 6.59583
57.710121 -71.771492 5.429761
57.415859 -71.451878 6.549727
65.455418 -64.000494 -4.472755
65.026146 -64.185995 -3.435729
64.800396 -65.269882 -3.534707
55.927578 -78.993439 -9.911664
56.016323 -78.740044 -8.818157
65.521698 -64.254 -13.160043
65.602508 -64.419695 -12.087447
64.718377 -65.821404 -12.201332
65.424664 -64.050808 -14.234903
65.521698 -64.254 -13.160043
65.424664 -64.050808 -14.234903
64.490075 -65.551411 -14.3434
66.737495 -62.805416 -8.652036
66.941311 -62.434967 -9.707842
53.982228 -78.73756 1.800877
54.722435 -77.612304 1.85701
53.836003 -78.410083 2.892715
54.107839 -79.143501 0.692098
53.982228 -78.73756 1.800877
54.221096 -79.436878 -0.386538
54.981916 -78.233158 -0.313464
54.107839 -79.143501 0.692098
53.438327 -80.729843 -0.480179
52.782789 -82.039066 -0.578434
54.312404 -79.8195 -1.485739
54.221096 -79.436878 -0.386538
53.438327 -80.729843 -0.480179
54.417212 -80.450519 -3.659555
54.376429 -80.086433 -2.560357
53.570419 -81.476551 -2.678578
54.425874 -80.703468 -4.738048
55.231884 -79.31335 -4.619827
54.417212 -80.450519 -3.659555
61.596876 -62.445362 1.809284
61.192372 -63.389101 2.767848
62.339035 -62.455011 0.808511
61.596876 -62.445362 1.809284
63.035221 -62.465086 -0.208471
62.339035 -62.455011 0.808511
62.603977 -63.519115 0.736518
63.752483 -62.361683 -1.216374
63.035221 -62.465086 -0.208471
64.391235 -62.260567 -2.23679
63.752483 -62.361683 -1.216374
63.938915 -63.428074 -1.300879
65.047695 -62.047636 -3.251396
64.391235 -62.260567 -2.23679
65.615383 -64.894262 -9.946856
64.799724 -66.198051 -10.060851
65.614846 -64.68331 -11.014741
66.343666 -63.677635 -9.83587
65.528545 -65.192377 -8.881979
65.615383 -64.894262 -9.946856
66.941311 -62.434967 -9.707842
66.343666 -63.677635 -9.83587
60.119557 -65.147648 4.734281
60.630325 -64.318693 3.739886
60.12854 -66.169174 4.700639
60.119557 -65.147648 4.734281
60.065799 -67.190254 4.645359
60.720958 -66.389305 3.642297
60.12854 -66.169174 4.700639
59.87147 -68.174072 4.596208
60.065799 -67.190254 4.645359
59.575789 -69.162651 4.530003
60.362537 -68.398964 3.520812
59.87147 -68.174072 4.596208
58.684923 -69.888001 5.547106
57.884529 -70.532303 6.59583
59.175991 -70.112892 4.471711
59.575789 -69.162651 4.530003
58.684923 -69.888001 5.547106
58.091097 -72.01033 4.341877
58.666101 -71.07708 4.400931
57.710121 -71.771492 5.429761
57.416127 -72.970035 4.274036
58.372107 -72.275623 3.245205
58.091097 -72.01033 4.341877
56.722161 -73.9132 4.221122
57.416127 -72.970035 4.274036
55.951546 -74.897293 4.160868
56.926521 -74.219421 3.11711
56.722161 -73.9132 4.221122
55.209698 -75.882717 4.116011
55.951546 -74.897293 4.160868
54.419849 -76.923374 4.062007
55.366059 -76.244171 3.002852
55.209698 -75.882717 4.116011
53.701847 -77.981793 4.020145
54.419849 -76.923374 4.062007
53.836003 -78.410083 2.892715
53.701847 -77.981793 4.020145
65.129418 -63.121782 -3.347536
64.474395 -64.391171 -2.409488
65.026146 -64.185995 -3.435729
65.047695 -62.047636 -3.251396
65.129418 -63.121782 -3.347536
66.53925 -63.102201 -7.597277
66.058582 -64.272536 -7.716233
66.737495 -62.805416 -8.652036
66.214599 -63.451454 -6.552355
66.53925 -63.102201 -7.597277
65.899265 -63.708984 -5.507485
65.545002 -64.826851 -5.616604
66.214599 -63.451454 -6.552355
65.455418 -64.000494 -4.472755
65.899265 -63.708984 -5.507485
54.411554 -81.055851 -5.844644
54.425874 -80.703468 -4.738048
55.196872 -79.816917 -6.784985
54.411554 -81.055851 -5.844644
56.090221 -78.579777 -7.744476
56.133896 -78.329159 -6.657812
55.196872 -79.816917 -6.784985
56.953346 -77.252285 -8.690985
56.090221 -78.579777 -7.744476
56.016323 -78.740044 -8.818157
56.763588 -77.58799 -10.839499
55.927578 -78.993439 -9.911664
57.787807 -76.006119 -10.722988
56.763588 -77.58799 -10.839499
58.801815 -74.513768 -10.615166
57.893456 -75.9202 -9.656844
57.787807 -76.006119 -10.722988
59.749752 -73.093773 -11.589992
59.8554 -73.007855 -10.523846
58.801815 -74.513768 -10.615166
60.664299 -71.616615 -12.560636
59.749752 -73.093773 -11.589992
61.581154 -70.11692 -13.541093
61.720192 -70.088165 -12.479129
60.664299 -71.616615 -12.560636
62.463852 -68.575317 -14.518193
61.581154 -70.11692 -13.541093
63.489815 -67.017792 -14.436229
62.463852 -68.575317 -14.518193
3 0 18 16
3 1 21 19
3 1 57 59
3 59 58 21
3 57 58 59
3 2 24 22
3 4 27 25
3 4 29 27
3 3 32 30
3 60 34 61
3 63 62 34
3 6 64 66
3 64 35 65
3 64 65 66
3 7 36 17
3 7 37 36
3 8 40 38
3 68 67 20
3 10 43 41
3 12 44 23
3 12 45 44
3 5 46 33
3 13 47 26
3 13 48 47
3 13 49 48
3 14 50 28
3 14 51 50
3 69 52 70
3 72 71 52
3 11 53 42
3 15 54 31
3 15 73 75
3 75 74 54
3 73 74 75
3 9 55 39
3 76 56 77
3 16 17 6
3 18 17 16
3 18 7 17
3 19 20 8
3 21 20 19
3 21 78 80
3 80 79 20
3 78 79 80
3 21 81 82
3 84 83 21
3 22 23 10
3 24 23 22
3 24 12 23
3 25 26 5
3 27 26 25
3 27 13 26
3 27 28 13
3 29 28 27
3 29 14 28
3 30 31 11
3 32 31 30
3 32 15 31
3 86 85 9
3 87 33 88
3 89 88 2
3 87 88 89
3 90 33 91
3 92 5 93
3 94 93 33
3 92 93 94
3 34 95 96
3 34 97 99
3 97 5 98
3 97 98 99
3 34 25 5
3 100 25 101
3 102 101 34
3 100 101 102
3 103 4 104
3 105 104 25
3 103 104 105
3 35 106 107
3 35 108 109
3 17 35 6
3 36 35 17
3 36 110 112
3 112 111 35
3 110 111 112
3 36 113 114
3 37 115 117
3 117 116 36
3 115 116 117
3 37 118 119
3 38 39 3
3 40 39 38
3 40 9 39
3 20 40 8
3 120 40 121
3 122 121 20
3 120 121 122
3 123 9 124
3 125 124 40
3 123 124 125
3 127 126 9
3 41 42 0
3 43 42 41
3 43 11 42
3 23 43 10
3 44 43 23
3 44 11 43
3 44 30 11
3 45 30 44
3 45 3 30
3 33 24 2
3 46 24 33
3 46 12 24
3 26 46 5
3 47 46 26
3 47 12 46
3 47 45 12
3 48 45 47
3 48 3 45
3 48 38 3
3 49 38 48
3 49 8 38
3 28 49 13
3 50 49 28
3 50 8 49
3 50 19 8
3 51 19 50
3 51 1 19
3 128 6 129
3 130 6 131
3 132 16 133
3 134 133 6
3 132 133 134
3 135 16 136
3 137 0 138
3 139 138 16
3 137 138 139
3 52 140 141
3 52 142 144
3 142 0 143
3 142 143 144
3 52 41 0
3 145 41 146
3 147 146 52
3 145 146 147
3 148 10 149
3 150 149 41
3 148 149 150
3 151 10 152
3 153 22 154
3 155 154 10
3 153 154 155
3 156 22 157
3 158 2 159
3 160 159 22
3 158 159 160
3 161 2 162
3 164 163 2
3 42 18 0
3 53 18 42
3 53 7 18
3 31 53 11
3 54 53 31
3 54 7 53
3 54 37 7
3 165 37 166
3 167 166 54
3 165 166 167
3 169 168 37
3 39 32 3
3 55 32 39
3 55 15 32
3 170 55 171
3 172 171 9
3 170 171 172
3 173 55 174
3 175 15 176
3 177 176 55
3 175 176 177
3 179 178 15
3 180 4 181
3 182 4 183
3 184 29 185
3 186 185 4
3 184 185 186
3 56 187 189
3 187 29 188
3 187 188 189
3 56 14 29
3 190 56 191
3 192 56 193
3 194 14 195
3 196 195 56
3 194 195 196
3 197 51 198
3 199 198 14
3 197 198 199
3 200 51 201
3 202 1 203
3 204 203 51
3 202 203 204
3 205 1 206
3 208 207 1
