ply
format ascii 1.0
element vertex 433
property float x
property float y
property float z
element face 378
property list uchar int vertex_index
end_header
-1.801088 -41.218307 41.263767
4.698549 -34.067749 51.210289
1.590399 -43.936737 47.391239
0.016348 -29.78319 46.657738
-5.569643 -22.317596 33.733498
-5.001673 9.020395 36.435493
-3.417261 -25.581194 40.935364
2.487127 -31.955694 48.85424
-6.503061 11.086462 31.652866
-0.258049 -42.499619 44.505756
-5.878328 -29.899151 30.21048
-4.622152 -31.013332 34.01767
-0.17775 16.267521 44.926842
5.019217 -40.856728 52.07991
3.409195 -45.444855 50.229843
3.088934 -39.053322 49.341743
0.801565 -37.216389 46.937435
-1.265234 -35.416206 44.301407
-6.477571 -13.383007 32.96701
-6.239523 2.637743 34.135883
-2.042875 -27.61694 44.070415
-2.740652 -33.742268 41.171402
-4.411882 -23.799725 37.438225
-3.700369 -32.270897 37.673256
-1.084064 -41.8358 42.935249
-0.483883 -45.204323 42.990906
-5.942102 -33.65918 28.277409
4.91507 -37.549416 51.56797
4.135246 -39.962757 50.632713
3.946428 -36.578663 50.236572
1.237356 -30.874313 47.776615
1.604874 -34.591335 47.921722
0.402842 -33.586304 46.778717
-0.290754 -36.306381 45.675285
-0.712286 -32.585197 45.549526
-6.47389 -5.226227 33.756401
-6.134058 -9.658585 34.445854
-6.877771 -8.922199 32.35022
-1.079834 13.92643 43.989868
-1.856695 15.531887 41.754982
-4.280882 11.902742 37.492531
-5.652716 5.931749 35.317841
2.526873 -44.688065 48.786644
-2.809114 -26.573921 42.563805
-2.475637 -30.646301 42.694221
-3.102934 -29.737568 41.073292
-5.356531 -18.591404 35.350121
-4.761045 -19.408924 37.211174
-4.946348 -23.022404 35.611694
-4.132254 -31.618135 35.858734
4.38982 -30.424147 51.010788
3.671904 -33.021282 49.971573
3.32955 -29.304409 49.835648
-5.743059 10.130753 34.089802
0.646948 -43.203247 45.981155
-5.746904 -26.102493 32.024963
-5.093611 -26.714981 33.925953
-5.206804 -30.444969 32.141624
0.537388 14.711498 47.126141
4.993906 -43.984337 52.730507
4.190645 -46.19598 51.7827
4.221361 -43.168087 51.152985
3.29261 -42.337105 49.737732
2.265678 -41.499634 48.423782
2.81506 -35.590996 49.047142
1.95224 -38.135201 48.136154
1.203197 -40.665409 47.139412
0.166708 -39.845123 45.816383
-0.788853 -39.049698 44.40345
-1.62179 -38.289391 42.875179
-5.756994 -14.124174 34.969479
-6.036413 -17.86025 33.421009
-6.77392 -17.20965 31.403709
-6.275862 -21.67725 31.785542
-6.464899 -25.527924 30.050074
-2.743223 13.096363 40.794876
-6.764235 -0.849319 32.883434
-6.404295 6.895176 32.990059
-1.095186 -28.692535 45.433952
-1.681429 -31.600367 44.191689
-2.08436 -34.557739 42.797035
-2.311193 -37.572567 41.233017
-4.229055 -20.315002 39.013973
-3.925852 -24.653433 39.217365
-4.536974 -27.377193 35.77557
-4.060537 -28.099115 37.587822
-3.607798 -28.886158 39.360458
-3.260542 -32.978535 39.452473
-2.863733 -36.90448 39.498852
-1.506197 -42.950283 41.269827
-1.147685 -43.259029 42.105568
-1.442576 -41.527054 42.099508
-1.825767 -42.714432 40.374055
-1.506197 -42.950283 41.269827
-5.611181 -35.746392 28.252649
-5.924038 -35.497637 27.248539
-7.051165 -6.714224 31.951641
-6.675831 -7.074213 33.05331
-6.849224 -4.866238 32.654731
-1.769201 17.503198 41.034698
-1.391976 16.699957 42.207405
-4.642907 8.393423 37.563786
-4.282511 9.834596 38.092304
-4.641278 10.461569 36.964012
-4.966069 6.919287 36.992988
-4.642907 8.393423 37.563786
-5.327195 7.476072 35.876667
-5.29159 5.374963 36.434162
-4.966069 6.919287 36.992988
1.764055 -45.489491 47.54608
2.232293 -45.865155 48.243782
2.058636 -44.312401 48.088942
-3.113187 -26.077557 41.749584
-2.954739 -24.472374 42.482738
-3.258812 -23.976011 41.668518
3.669954 -27.971649 50.397972
3.859685 -29.864278 50.423218
4.200088 -28.531518 50.985542
0.02383 -44.138106 44.564161
0.476328 -44.489919 45.301861
0.194449 -42.851433 45.243455
-0.168949 -46.808266 43.027314
-0.523848 -46.591263 42.140595
-6.893234 -19.150951 30.574428
-7.138046 -16.921535 30.340641
-6.644205 -21.384751 30.765345
-6.524891 -19.44345 31.594625
-6.893234 -19.150951 30.574428
-6.738723 -23.310088 29.897611
-6.37038 -23.602587 30.917808
-6.644205 -21.384751 30.765345
-0.236629 14.297598 45.53188
0.12094 13.519586 46.631529
0.179819 15.48951 46.026491
-1.126809 11.930051 44.551695
-1.527692 12.728763 43.497078
-3.113996 13.842875 39.642589
-2.67847 15.099365 40.112337
-6.128126 0.47486 34.611418
-5.872053 2.151572 35.242784
-6.501879 0.894212 33.509659
-6.390482 -1.268671 33.985193
-6.128126 0.47486 34.611418
3.416253 -46.914852 50.519149
3.806978 -47.290415 51.295578
3.79992 -45.820417 51.006271
-1.74279 -26.134546 44.696863
-2.201353 -25.555006 44.001966
-1.56903 -28.154737 44.752184
-1.268946 -26.672343 45.378631
-1.74279 -26.134546 44.696863
-2.874714 -38.515337 38.592917
-3.089742 -36.595331 38.601198
-2.63051 -38.776881 39.502283
-2.874714 -38.515337 38.592917
-0.847595 -44.943291 42.133397
-0.783973 -43.520061 42.963077
-1.147685 -43.259029 42.105568
-0.523848 -46.591263 42.140595
-0.847595 -44.943291 42.133397
-5.609388 -33.912956 29.26146
-5.577501 -32.032942 30.227995
-5.910215 -31.779165 29.243944
-5.609388 -33.912956 29.26146
-5.611181 -35.746392 28.252649
-6.303974 -7.442406 34.101127
-5.939897 -7.867373 35.14805
-6.109813 -5.651193 34.803323
-1.003546 15.897229 43.324848
-0.628792 15.096975 44.458355
-0.552504 17.067774 43.793335
-1.468265 14.729159 42.872425
-1.003546 15.897229 43.324848
-1.391976 16.699957 42.207405
-1.916122 13.531491 42.379635
-1.527692 12.728763 43.497078
-1.468265 14.729159 42.872425
-3.918455 11.210782 38.633301
-3.882826 13.246064 37.991417
-3.918455 11.210782 38.633301
-4.282511 9.834596 38.092304
-5.57865 3.798575 35.833764
-5.29159 5.374963 36.434162
-5.94612 4.284746 34.726862
-5.872053 2.151572 35.242784
-5.57865 3.798575 35.833764
-6.831129 9.39435 31.106248
-6.876934 11.483975 30.385767
2.620584 -46.199442 49.005893
3.061745 -46.577837 49.727493
2.968034 -45.06646 49.508244
2.620584 -46.199442 49.005893
2.232293 -45.865155 48.243782
-2.584472 -25.033497 43.248661
-2.954739 -24.472374 42.482738
-2.425994 -27.09543 43.31711
-2.201353 -25.555006 44.001966
-2.584472 -25.033497 43.248661
-5.058788 -19.000164 36.280648
-4.933471 -17.187647 37.049282
-5.231215 -16.778887 36.118756
-4.147276 -33.398457 34.942014
-4.377203 -31.315734 34.938202
-4.392225 -33.096056 34.021483
-3.929417 -33.665993 35.866516
-4.147276 -33.398457 34.942014
-3.713474 -33.992374 36.773777
-3.916311 -31.944516 36.765995
-3.929417 -33.665993 35.866516
-3.508061 -34.278539 37.688401
-3.713474 -33.992374 36.773777
3.133501 -27.377611 49.825963
3.669954 -27.971649 50.397972
2.724636 -28.733613 49.296459
3.133501 -27.377611 49.825963
2.303425 -30.059255 48.805756
2.908339 -30.630052 49.344944
2.724636 -28.733613 49.296459
1.678539 -29.518565 48.266943
1.862242 -31.415004 48.315427
2.303425 -30.059255 48.805756
1.048482 -28.938006 47.735136
1.678539 -29.518565 48.266943
0.437978 -28.392444 47.175697
0.626852 -30.328752 47.217177
1.048482 -28.938006 47.735136
-4.250032 13.939805 36.795884
-3.882826 13.246064 37.991417
-4.647823 12.530234 36.308396
-4.250032 13.939805 36.795884
-5.008219 11.089061 35.779877
-4.641278 10.461569 36.964012
-4.647823 12.530234 36.308396
-5.378912 11.64424 34.607031
-5.372366 9.575574 35.262647
-5.008219 11.089061 35.779877
-5.755621 12.198645 33.381323
-5.378912 11.64424 34.607031
-6.135622 12.676499 32.162855
-6.12306 10.608607 32.871334
-5.755621 12.198645 33.381323
-6.516235 13.15268 30.894698
-6.135622 12.676499 32.162855
-6.876934 11.483975 30.385767
-6.516235 13.15268 30.894698
0.885568 -44.79808 46.081696
1.357294 -45.164825 46.786738
1.118673 -43.569992 46.686197
0.885568 -44.79808 46.081696
0.476328 -44.489919 45.301861
-0.089088 -45.490458 43.806736
0.02383 -44.138106 44.564161
-0.370966 -43.851971 43.748331
-0.089088 -45.490458 43.806736
-0.168949 -46.808266 43.027314
-3.559126 -23.44353 40.843544
-3.258812 -23.976011 41.668518
-5.241739 -32.305851 31.193567
-5.542566 -30.17206 31.176052
-5.577501 -32.032942 30.227995
-4.940277 -32.556572 32.147954
-5.241739 -32.305851 31.193567
-4.647951 -32.840753 33.085977
-4.914478 -30.72915 33.079647
-4.940277 -32.556572 32.147954
-4.392225 -33.096056 34.021483
-4.647951 -32.840753 33.085977
0.895637 15.922541 47.612339
0.857416 13.971493 48.201544
0.600808 16.658704 46.478235
0.895637 15.922541 47.612339
0.243239 17.436716 45.378586
0.179819 15.48951 46.026491
0.600808 16.658704 46.478235
-0.092468 18.210749 44.223664
0.243239 17.436716 45.378586
-0.552504 17.067774 43.793335
-0.092468 18.210749 44.223664
4.592275 -45.090159 52.256603
4.509308 -46.56447 52.638561
4.910939 -45.458649 53.112465
-5.786035 -10.084713 35.444179
-5.939897 -7.867373 35.14805
-5.597504 -12.317507 35.705992
-5.786035 -10.084713 35.444179
-5.945526 -11.891379 34.707667
-5.431446 -14.545272 35.928435
-5.597504 -12.317507 35.705992
-5.556762 -16.357789 35.1598
-5.231215 -16.778887 36.118756
-5.431446 -14.545272 35.928435
-7.245842 -8.611111 31.243966
-7.051165 -6.714224 31.951641
-7.050896 -10.830743 31.605116
-7.245842 -8.611111 31.243966
-6.850796 -13.061147 31.913511
-6.677671 -11.152603 32.658615
-7.050896 -10.830743 31.605116
-6.99897 -14.974469 31.131861
-7.138046 -16.921535 30.340641
-6.625746 -15.296328 32.18536
-6.850796 -13.061147 31.913511
-6.99897 -14.974469 31.131861
-6.81992 -25.254577 29.015275
-6.738723 -23.310088 29.897611
-6.524004 -27.445343 29.125976
-6.81992 -25.254577 29.015275
-6.230719 -29.630956 29.206179
-6.171613 -27.713538 30.130277
-6.524004 -27.445343 29.125976
-6.262606 -31.510971 28.239643
-5.910215 -31.779165 29.243944
-6.230719 -29.630956 29.206179
-6.271753 -33.396338 27.254694
-6.262606 -31.510971 28.239643
-5.924038 -35.497637 27.248539
-6.271753 -33.396338 27.254694
0.50132 12.743151 47.667417
0.857416 13.971493 48.201544
0.50132 12.743151 47.667417
0.12094 13.519586 46.631529
-0.68767 13.127052 45.063392
-0.236629 14.297598 45.53188
-0.628792 15.096975 44.458355
-0.68767 13.127052 45.063392
-1.126809 11.930051 44.551695
-2.235206 16.317127 40.59239
-1.769201 17.503198 41.034698
-2.299959 14.314125 41.274929
-2.235206 16.317127 40.59239
-2.67847 15.099365 40.112337
-2.359386 12.31373 41.899582
-1.916122 13.531491 42.379635
-2.299959 14.314125 41.274929
-3.149625 11.807593 40.284474
-3.113996 13.842875 39.642589
-2.779268 11.064315 41.377662
-3.149625 11.807593 40.284474
-2.359386 12.31373 41.899582
-2.779268 11.064315 41.377662
-6.245309 -3.457125 34.421676
-6.109813 -5.651193 34.803323
-6.619063 -3.037773 33.319918
-6.245309 -3.457125 34.421676
-6.390482 -1.268671 33.985193
-6.994397 -2.677784 32.218248
-6.849224 -4.866238 32.654731
-6.619063 -3.037773 33.319918
-6.781746 7.298707 31.774845
-6.453678 8.990819 32.321463
-6.831129 9.39435 31.106248
-6.699738 5.177913 32.403872
-6.781746 7.298707 31.774845
-6.617351 3.049197 32.976783
-6.321909 4.766459 33.562971
-6.699738 5.177913 32.403872
-6.879708 1.305666 32.350559
-6.501879 0.894212 33.509659
-6.617351 3.049197 32.976783
-7.136567 -0.501122 31.724226
-6.879708 1.305666 32.350559
-6.994397 -2.677784 32.218248
-7.136567 -0.501122 31.724226
5.278443 -44.382044 53.620083
4.910939 -45.458649 53.112465
5.337767 -42.856945 53.231964
5.278443 -44.382044 53.620083
5.350423 -41.29314 52.906666
5.006562 -42.420532 52.405209
5.337767 -42.856945 53.231964
5.334931 -39.677887 52.590309
5.350423 -41.29314 52.906666
5.282857 -38.024231 52.334339
4.967144 -39.203072 51.82394
5.334931 -39.677887 52.590309
5.201152 -36.321101 52.102383
5.282857 -38.024231 52.334339
5.092892 -34.580267 51.923542
4.806809 -35.808582 51.38913
5.201152 -36.321101 52.102383
4.955941 -32.794651 51.7818
5.092892 -34.580267 51.923542
4.801577 -30.97285 51.682049
4.544185 -32.245948 51.110539
4.955941 -32.794651 51.7818
4.621396 -29.113568 51.628654
4.801577 -30.97285 51.682049
4.200088 -28.531518 50.985542
4.621396 -29.113568 51.628654
4.112617 -47.62455 52.141751
4.509308 -46.56447 52.638561
4.112617 -47.62455 52.141751
3.806978 -47.290415 51.295578
3.416253 -46.914852 50.519149
3.061745 -46.577837 49.727493
1.764055 -45.489491 47.54608
1.357294 -45.164825 46.786738
-0.168864 -27.805335 46.612781
0.437978 -28.392444 47.175697
-0.724631 -27.260008 46.000889
-1.268946 -26.672343 45.378631
-0.539419 -29.237862 46.045845
-0.168864 -27.805335 46.612781
-0.724631 -27.260008 46.000889
-4.642133 -17.659502 37.972758
-4.933471 -17.187647 37.049282
-4.376138 -18.112541 38.874157
-4.642133 -17.659502 37.972758
-4.49505 -19.861963 38.112573
-4.097033 -18.632582 39.761957
-4.376138 -18.112541 38.874157
-3.965023 -20.810434 39.882849
-4.097033 -18.632582 39.761957
-3.813422 -22.97965 39.984544
-3.965023 -20.810434 39.882849
-4.077453 -22.484217 39.115669
-3.671556 -25.117314 40.076364
-3.559126 -23.44353 40.843544
-3.813422 -22.97965 39.984544
-3.288147 -34.632358 38.578009
-3.480455 -32.624716 38.562865
-3.508061 -34.278539 37.688401
-3.062137 -34.941508 39.475662
-3.288147 -34.632358 38.578009
-3.089742 -36.595331 38.601198
-2.35424 -39.110924 40.369366
-2.587463 -37.238523 40.365934
-2.63051 -38.776881 39.502283
-2.099188 -40.933794 40.38474
-2.05614 -39.395437 41.248392
-2.35424 -39.110924 40.369366
-1.825767 -42.714432 40.374055
-2.099188 -40.933794 40.38474
3 0 89 91
3 91 90 24
3 89 90 91
3 0 92 93
3 95 94 26
3 1 29 27
3 3 32 30
3 3 34 32
3 96 37 97
3 98 97 35
3 96 97 98
3 99 39 100
3 5 101 103
3 103 102 40
3 101 102 103
3 5 104 105
3 5 106 108
3 106 41 107
3 106 107 108
3 2 109 111
3 111 110 42
3 109 110 111
3 6 112 114
3 112 43 113
3 112 113 114
3 6 45 43
3 4 48 46
3 115 52 116
3 117 116 50
3 115 116 117
3 9 118 120
3 120 119 54
3 118 119 120
3 122 121 25
3 10 57 55
3 13 61 59
3 15 62 28
3 15 63 62
3 7 64 51
3 16 65 31
3 16 66 65
3 16 67 66
3 17 68 33
3 17 69 68
3 18 70 36
3 18 71 70
3 123 72 124
3 125 73 126
3 127 126 72
3 125 126 127
3 128 74 129
3 130 129 73
3 128 129 130
3 12 131 133
3 133 132 58
3 131 132 133
3 135 134 38
3 136 75 137
3 19 138 139
3 19 140 142
3 140 76 141
3 140 141 142
3 8 77 53
3 14 143 145
3 145 144 60
3 143 144 145
3 20 146 147
3 20 148 150
3 148 78 149
3 148 149 150
3 20 79 78
3 21 80 44
3 21 81 80
3 22 82 47
3 22 83 82
3 11 84 56
3 23 85 49
3 23 86 85
3 23 87 86
3 151 88 152
3 154 153 88
3 24 25 9
3 155 25 156
3 157 156 24
3 155 156 157
3 159 158 25
3 26 160 162
3 162 161 10
3 160 161 162
3 164 163 26
3 27 28 13
3 29 28 27
3 29 15 28
3 30 31 7
3 32 31 30
3 32 16 31
3 32 33 16
3 34 33 32
3 34 17 33
3 35 165 167
3 165 36 166
3 165 166 167
3 37 36 35
3 37 18 36
3 168 38 169
3 170 169 12
3 168 169 170
3 39 171 173
3 171 38 172
3 171 172 173
3 39 174 176
3 176 175 38
3 174 175 176
3 40 177 178
3 180 179 40
3 41 181 182
3 41 183 185
3 183 19 184
3 183 184 185
3 187 186 8
3 42 188 190
3 190 189 14
3 188 189 190
3 192 191 42
3 43 193 194
3 43 195 197
3 195 20 196
3 195 196 197
3 43 44 20
3 45 44 43
3 45 21 44
3 46 198 200
3 198 47 199
3 198 199 200
3 48 47 46
3 48 22 47
3 201 49 202
3 203 202 11
3 201 202 203
3 204 49 205
3 206 23 207
3 208 207 49
3 206 207 208
3 210 209 23
3 50 51 1
3 52 51 50
3 52 7 51
3 211 52 212
3 213 52 214
3 215 7 216
3 217 216 52
3 215 216 217
3 218 30 219
3 220 219 7
3 218 219 220
3 221 30 222
3 223 3 224
3 225 224 30
3 223 224 225
3 226 40 227
3 228 40 229
3 230 5 231
3 232 231 40
3 230 231 232
3 233 53 234
3 235 234 5
3 233 234 235
3 236 53 237
3 238 8 239
3 240 239 53
3 238 239 240
3 241 8 242
3 244 243 8
3 54 245 247
3 247 246 2
3 245 246 247
3 249 248 54
3 25 250 252
3 252 251 9
3 250 251 252
3 254 253 25
3 255 6 256
3 55 56 4
3 57 56 55
3 57 11 56
3 257 57 258
3 259 258 10
3 257 258 259
3 260 57 261
3 262 11 263
3 264 263 57
3 262 263 264
3 266 265 11
3 267 58 268
3 269 58 270
3 271 12 272
3 273 272 58
3 271 272 273
3 274 12 275
3 277 276 12
3 59 278 280
3 278 60 279
3 278 279 280
3 61 60 59
3 61 14 60
3 28 61 13
3 62 61 28
3 62 14 61
3 62 42 14
3 63 42 62
3 63 2 42
3 51 29 1
3 64 29 51
3 64 15 29
3 31 64 7
3 65 64 31
3 65 15 64
3 65 63 15
3 66 63 65
3 66 2 63
3 66 54 2
3 67 54 66
3 67 9 54
3 33 67 16
3 68 67 33
3 68 9 67
3 68 24 9
3 69 24 68
3 69 0 24
3 36 281 282
3 70 283 285
3 285 284 36
3 283 284 285
3 70 286 287
3 70 288 290
3 288 46 289
3 288 289 290
3 71 46 70
3 71 4 46
3 291 37 292
3 293 37 294
3 295 18 296
3 297 296 37
3 295 296 297
3 72 298 299
3 72 300 302
3 300 18 301
3 300 301 302
3 72 71 18
3 73 71 72
3 73 4 71
3 73 55 4
3 74 55 73
3 74 10 55
3 303 74 304
3 305 74 306
3 307 10 308
3 309 308 74
3 307 308 309
3 310 26 311
3 312 311 10
3 310 311 312
3 313 26 314
3 316 315 26
3 58 317 318
3 320 319 58
3 38 321 323
3 323 322 12
3 321 322 323
3 325 324 38
3 326 39 327
3 75 328 330
3 328 39 329
3 328 329 330
3 75 331 333
3 333 332 39
3 331 332 333
3 334 75 335
3 336 75 337
3 339 338 75
3 340 35 341
3 76 342 344
3 342 35 343
3 342 343 344
3 76 345 347
3 347 346 35
3 345 346 347
3 53 41 5
3 77 41 53
3 77 19 41
3 348 77 349
3 350 349 8
3 348 349 350
3 351 77 352
3 353 19 354
3 355 354 77
3 353 354 355
3 356 76 357
3 358 357 19
3 356 357 358
3 359 76 360
3 362 361 76
3 363 59 364
3 365 59 366
3 367 13 368
3 369 368 59
3 367 368 369
3 370 13 371
3 372 27 373
3 374 373 13
3 372 373 374
3 375 27 376
3 377 1 378
3 379 378 27
3 377 378 379
3 380 1 381
3 382 50 383
3 384 383 1
3 382 383 384
3 385 50 386
3 388 387 50
3 60 389 390
3 392 391 60
3 394 393 14
3 396 395 2
3 397 3 398
3 78 399 400
3 78 401 403
3 401 3 402
3 401 402 403
3 78 34 3
3 79 34 78
3 79 17 34
3 44 79 20
3 80 79 44
3 80 17 79
3 80 69 17
3 81 69 80
3 81 0 69
3 47 404 405
3 82 406 408
3 408 407 47
3 406 407 408
3 82 409 410
3 82 411 412
3 83 413 415
3 415 414 82
3 413 414 415
3 83 416 418
3 416 6 417
3 416 417 418
3 56 48 4
3 84 48 56
3 84 22 48
3 49 84 11
3 85 84 49
3 85 22 84
3 85 83 22
3 86 83 85
3 86 6 83
3 86 45 6
3 87 45 86
3 87 21 45
3 419 87 420
3 421 420 23
3 419 420 421
3 88 422 424
3 422 87 423
3 422 423 424
3 88 21 87
3 88 81 21
3 425 81 426
3 427 426 88
3 425 426 427
3 428 0 429
3 430 429 81
3 428 429 430
3 432 431 0
