ply
format ascii 1.0
element vertex 282
property float x
property float y
property float z
element face 255
property list uchar int vertex_index
end_header
54.75531 -52.193531 48.158661
61.222321 -54.129566 44.702721
59.823509 -45.372002 49.84993
57.179321 -48.807957 49.088737
63.243729 -54.38596 40.59687
63.378967 -50.640511 44.443844
39.628971 -51.621685 49.196945
58.389584 -53.379238 47.230042
59.282738 -57.588833 45.033058
61.25116 -57.865856 41.456425
50.540039 -50.714321 48.096802
43.738102 -52.770187 47.940857
48.228569 -54.203594 47.750244
58.921211 -40.578461 50.849731
62.464859 -41.86441 49.718254
60.648911 -49.931274 47.655285
63.067047 -46.427486 47.725014
53.922066 -49.78743 48.67337
55.211739 -48.10759 49.246437
55.934448 -50.500992 48.593689
59.947559 -36.423981 50.551392
61.909531 -57.798618 39.204712
41.602421 -52.142021 48.396187
57.958336 -44.721378 50.265648
59.371578 -42.995651 50.508629
60.763687 -41.250813 50.469002
61.167221 -43.622189 49.928734
59.912148 -53.814159 46.180542
59.488487 -51.662193 47.445724
60.981697 -52.082336 46.23912
64.491226 -48.900688 44.206299
63.26635 -48.586521 46.202217
64.403229 -46.841713 45.982742
64.226929 -44.677998 47.458591
56.562561 -46.423313 49.812859
58.482491 -47.101021 49.541428
62.326378 -54.320686 42.821457
62.276146 -52.387512 44.592609
63.382118 -52.576973 42.547478
64.472374 -50.840462 42.236649
55.587341 -54.539768 47.636177
56.663132 -52.834145 47.86919
57.350712 -55.091084 47.091251
58.902405 -55.53619 46.166252
60.228111 -55.862343 44.831646
60.383518 -57.79451 43.420292
61.328342 -56.060921 43.098572
62.218437 -56.12714 41.014328
52.700104 -51.477966 48.194611
45.969528 -53.470211 47.758919
47.106323 -51.687908 47.76516
49.349808 -52.443298 47.81192
51.54512 -53.191395 47.888283
53.639587 -53.899273 47.869019
60.346603 -38.845776 50.652306
62.087608 -39.503662 50.103439
57.800087 -51.131657 48.214409
59.000992 -49.419754 48.584511
60.25544 -47.689518 48.882248
62.108406 -50.338043 46.269386
61.854568 -48.184113 47.773003
61.535828 -45.939812 49.017273
62.796021 -44.179916 48.919113
59.050315 -36.056278 50.680943
59.777631 -35.210985 50.417805
64.973587 -47.014332 44.913128
64.447227 -47.871201 45.094521
65.017585 -48.043819 44.024906
64.92379 -45.983258 45.778881
64.973587 -47.014332 44.913128
64.940399 -50.8891 40.984515
64.396389 -51.745767 41.206869
65.006394 -49.984354 42.047078
64.940399 -50.8891 40.984515
56.854905 -55.950119 47.092496
56.469026 -54.815426 47.363714
55.973219 -55.674461 47.364959
59.092572 -56.562511 45.599655
58.420882 -56.396431 46.212135
58.611048 -57.422753 45.645538
60.817339 -57.830183 42.438359
60.354654 -58.697764 42.683895
60.788475 -58.733436 41.701962
62.41766 -56.928955 38.927967
62.151459 -57.69531 37.9735
51.171409 -49.865099 48.334885
50.081333 -49.466711 48.261769
51.620072 -51.096143 48.145707
52.251442 -50.246921 48.38379
51.171409 -49.865099 48.334885
40.15633 -50.693647 49.057083
39.236705 -50.492155 49.590736
43.22483 -51.539876 48.083683
42.15699 -51.225793 48.311348
42.670261 -52.456104 48.168522
44.305523 -51.866686 47.904699
43.22483 -51.539876 48.083683
47.099048 -53.836903 47.754582
46.568374 -54.729004 47.832977
47.697895 -55.095696 47.82864
52.061775 -54.409754 47.833389
50.997949 -54.062502 47.842944
53.109009 -54.763693 47.823757
52.592354 -53.545334 47.878651
52.061775 -54.409754 47.833389
54.100606 -55.079876 47.722901
53.109009 -54.763693 47.823757
57.958244 -40.212004 50.905914
58.187021 -41.437878 50.79121
58.711662 -39.35815 50.88409
57.958244 -40.212004 50.905914
59.633907 -39.712119 50.751019
59.424358 -38.491808 50.785378
58.711662 -39.35815 50.88409
63.0621 -40.993336 49.453491
62.873474 -39.812962 49.646084
62.276234 -40.684036 49.910847
64.101086 -43.553961 48.001283
64.743759 -43.818869 47.201445
54.566902 -48.94751 48.959903
54.174057 -47.723448 49.209667
53.529221 -48.563368 48.923133
64.16145 -53.488126 39.143938
63.782066 -53.518516 40.38698
63.623112 -54.35557 39.353828
60.622243 -35.57423 50.201843
59.777631 -35.210985 50.417805
60.817312 -36.771351 50.333443
61.491996 -35.9216 49.983894
60.622243 -35.57423 50.201843
58.823595 -58.453159 45.188885
58.611048 -57.422753 45.645538
61.099198 -58.701624 40.620695
60.788475 -58.733436 41.701962
61.428383 -58.668005 39.494839
61.580345 -57.832237 40.330568
61.099198 -58.701624 40.620695
61.638514 -58.565273 38.304066
61.428383 -58.668005 39.494839
62.151459 -57.69531 37.9735
61.638514 -58.565273 38.304066
49.431946 -50.325147 48.045866
50.081333 -49.466711 48.261769
41.104184 -53.056685 48.577568
40.615696 -51.881853 48.796566
40.117458 -52.796516 48.977947
42.148438 -53.363855 48.30623
41.104184 -53.056685 48.577568
43.216278 -53.677938 48.078565
42.670261 -52.456104 48.168522
42.148438 -53.363855 48.30623
48.817222 -55.453186 47.838555
47.697895 -55.095696 47.82864
49.339674 -54.568601 47.773924
48.817222 -55.453186 47.838555
57.705584 -43.509337 50.499168
56.969099 -44.3575 50.310913
58.412205 -42.646473 50.620659
57.705584 -43.509337 50.499168
58.664957 -43.858514 50.387138
59.146394 -41.787056 50.67918
58.187021 -41.437878 50.79121
58.412205 -42.646473 50.620659
64.83564 -44.9014 46.516806
64.315079 -45.759856 46.720667
64.92379 -45.983258 45.778881
64.743759 -43.818869 47.201445
64.83564 -44.9014 46.516806
54.872624 -46.888997 49.524498
54.174057 -47.723448 49.209667
55.548034 -46.046858 49.807709
54.872624 -46.888997 49.524498
55.88715 -47.265451 49.529648
56.271211 -45.208467 50.084519
55.548034 -46.046858 49.807709
57.260449 -45.572345 50.039254
56.969099 -44.3575 50.310913
56.271211 -45.208467 50.084519
63.851261 -52.614023 41.362284
63.312923 -53.481466 41.572174
63.782066 -53.518516 40.38698
63.927246 -51.708718 42.392063
63.851261 -52.614023 41.362284
64.396389 -51.745767 41.206869
65.015819 -49.014467 43.031903
64.4818 -49.870575 43.221474
65.006394 -49.984354 42.047078
65.017585 -48.043819 44.024906
65.015819 -49.014467 43.031903
38.751917 -51.42975 49.78775
39.236705 -50.492155 49.590736
39.170016 -52.541561 49.427784
38.751917 -51.42975 49.78775
40.117458 -52.796516 48.977947
39.170016 -52.541561 49.427784
57.645035 -56.173878 46.674634
56.854905 -55.950119 47.092496
58.126559 -55.313637 46.628751
57.645035 -56.173878 46.674634
58.420882 -56.396431 46.212135
59.376888 -58.557181 44.426262
58.823595 -58.453159 45.188885
59.927278 -58.660019 43.619879
60.354654 -58.697764 42.683895
59.833128 -57.691671 44.226675
59.376888 -58.557181 44.426262
59.927278 -58.660019 43.619879
62.572113 -56.093216 39.832775
62.063984 -56.962879 40.10952
62.41766 -56.928955 38.927967
63.084759 -55.222626 39.624046
62.731083 -55.25655 40.805599
62.572113 -56.093216 39.832775
63.623112 -54.35557 39.353828
63.084759 -55.222626 39.624046
52.862423 -49.401654 48.623169
53.529221 -48.563368 48.923133
53.311085 -50.632698 48.433991
52.862423 -49.401654 48.623169
52.251442 -50.246921 48.38379
41.143055 -50.953816 48.656704
40.15633 -50.693647 49.057083
40.615696 -51.881853 48.796566
41.143055 -50.953816 48.656704
42.15699 -51.225793 48.311348
44.322216 -54.020181 47.95279
43.216278 -53.677938 48.078565
45.437929 -54.370193 47.861821
46.568374 -54.729004 47.832977
44.853815 -53.120199 47.849888
44.322216 -54.020181 47.95279
45.437929 -54.370193 47.861821
45.421236 -52.216697 47.81373
44.305523 -51.866686 47.904699
44.853815 -53.120199 47.849888
45.989633 -51.325546 47.816851
45.421236 -52.216697 47.81373
46.537926 -52.579059 47.76204
46.605581 -50.435015 47.890248
45.989633 -51.325546 47.816851
47.715088 -50.811941 47.880045
46.605581 -50.435015 47.890248
48.836831 -51.189636 47.903425
47.715088 -50.811941 47.880045
48.228065 -52.065603 47.78854
49.944924 -51.578809 47.954361
49.431946 -50.325147 48.045866
48.836831 -51.189636 47.903425
49.900294 -53.688453 47.804762
48.789189 -53.323446 47.781082
49.339674 -54.568601 47.773924
50.447464 -52.817346 47.850102
49.900294 -53.688453 47.804762
50.997949 -54.062502 47.842944
55.074483 -55.400123 47.60648
54.613464 -54.219521 47.752598
54.100606 -55.079876 47.722901
55.973219 -55.674461 47.364959
55.074483 -55.400123 47.60648
59.224836 -37.28091 50.734921
59.050315 -36.056278 50.680943
60.147081 -37.634878 50.601849
59.224836 -37.28091 50.734921
59.424358 -38.491808 50.785378
61.016834 -37.982248 50.3839
60.817312 -36.771351 50.333443
60.147081 -37.634878 50.601849
61.887337 -38.311191 50.109466
61.016834 -37.982248 50.3839
61.217106 -39.174719 50.377873
62.690697 -38.64183 49.751061
61.887337 -38.311191 50.109466
62.690697 -38.64183 49.751061
62.873474 -39.812962 49.646084
63.385632 -43.30492 48.731544
63.511475 -44.428957 48.188852
64.101086 -43.553961 48.001283
63.220051 -42.147167 49.131115
62.63044 -43.022163 49.318684
63.385632 -43.30492 48.731544
63.0621 -40.993336 49.453491
63.220051 -42.147167 49.131115
3 0 19 17
3 63 20 64
3 2 24 23
3 2 26 24
3 1 29 27
3 65 32 66
3 67 66 30
3 65 66 67
3 69 68 32
3 3 34 18
3 3 35 34
3 4 38 36
3 70 39 71
3 73 72 39
3 74 42 75
3 76 75 40
3 74 75 76
3 8 77 79
3 77 43 78
3 77 78 79
3 8 44 43
3 9 80 82
3 80 45 81
3 80 81 82
3 9 46 45
3 9 47 46
3 84 83 21
3 10 85 86
3 10 87 89
3 87 48 88
3 87 88 89
3 6 90 91
3 11 92 94
3 94 93 22
3 92 93 94
3 11 95 96
3 12 97 99
3 97 49 98
3 97 98 99
3 12 50 49
3 12 51 50
3 100 52 101
3 102 53 103
3 104 103 52
3 102 103 104
3 106 105 53
3 13 107 108
3 13 109 110
3 13 111 113
3 111 54 112
3 111 112 113
3 14 55 25
3 14 114 116
3 116 115 55
3 114 115 116
3 7 56 41
3 15 57 28
3 15 58 57
3 5 59 37
3 16 60 31
3 16 61 60
3 16 62 61
3 118 117 33
3 17 119 121
3 119 18 120
3 119 120 121
3 19 18 17
3 19 3 18
3 124 123 4
3 122 123 124
3 20 125 126
3 20 127 129
3 127 128 129
3 130 8 131
3 132 9 133
3 134 21 135
3 136 135 9
3 134 135 136
3 137 21 138
3 140 139 21
3 141 10 142
3 143 22 144
3 145 144 6
3 143 144 145
3 146 22 147
3 148 11 149
3 150 149 22
3 148 149 150
3 151 12 152
3 154 153 12
3 23 155 156
3 24 157 159
3 159 158 23
3 157 158 159
3 24 160 162
3 160 13 161
3 160 161 162
3 24 25 13
3 26 25 24
3 26 14 25
3 27 28 7
3 29 28 27
3 29 15 28
3 30 31 5
3 32 31 30
3 32 16 31
3 32 33 16
3 163 33 164
3 165 164 32
3 163 164 165
3 167 166 33
3 18 168 169
3 34 170 172
3 172 171 18
3 170 171 172
3 34 173 174
3 34 175 177
3 175 23 176
3 175 176 177
3 35 23 34
3 35 2 23
3 36 37 1
3 38 37 36
3 38 5 37
3 178 38 179
3 180 179 4
3 178 179 180
3 39 181 183
3 181 38 182
3 181 182 183
3 39 5 38
3 39 30 5
3 184 30 185
3 186 185 39
3 184 185 186
3 188 187 30
3 189 6 190
3 191 6 192
3 194 193 6
3 40 41 0
3 42 41 40
3 42 7 41
3 195 42 196
3 43 197 199
3 197 42 198
3 197 198 199
3 43 7 42
3 43 27 7
3 44 27 43
3 44 1 27
3 200 8 201
3 45 202 203
3 45 204 206
3 204 8 205
3 204 205 206
3 45 44 8
3 46 44 45
3 46 1 44
3 46 36 1
3 47 36 46
3 47 4 36
3 21 47 9
3 207 47 208
3 209 208 21
3 207 208 209
3 210 4 211
3 212 211 47
3 210 211 212
3 214 213 4
3 215 17 216
3 48 217 219
3 217 17 218
3 217 218 219
3 48 0 17
3 22 220 222
3 222 221 6
3 220 221 222
3 224 223 22
3 225 11 226
3 49 227 228
3 49 229 231
3 229 11 230
3 229 230 231
3 49 232 234
3 234 233 11
3 232 233 234
3 50 235 237
3 237 236 49
3 235 236 237
3 50 238 239
3 50 240 241
3 51 242 244
3 244 243 50
3 242 243 244
3 51 245 247
3 245 10 246
3 245 246 247
3 248 51 249
3 250 249 12
3 248 249 250
3 52 251 253
3 251 51 252
3 251 252 253
3 52 10 51
3 52 48 10
3 53 48 52
3 53 0 48
3 53 40 0
3 254 40 255
3 256 255 53
3 254 255 256
3 258 257 40
3 259 20 260
3 54 261 263
3 261 20 262
3 261 262 263
3 54 264 266
3 266 265 20
3 264 265 266
3 25 54 13
3 55 54 25
3 55 267 269
3 269 268 54
3 267 268 269
3 55 270 271
3 273 272 55
3 41 19 0
3 56 19 41
3 56 3 19
3 28 56 7
3 57 56 28
3 57 3 56
3 57 35 3
3 58 35 57
3 58 2 35
3 37 29 1
3 59 29 37
3 59 15 29
3 31 59 5
3 60 59 31
3 60 15 59
3 60 58 15
3 61 58 60
3 61 2 58
3 61 26 2
3 62 26 61
3 62 14 26
3 33 62 16
3 274 62 275
3 276 275 33
3 274 275 276
3 277 14 278
3 279 278 62
3 277 278 279
3 281 280 14
