ply
format ascii 1.0
element vertex 209
property float x
property float y
property float z
element face 195
property list uchar int vertex_index
end_header
46.506927 -84.825897 43.900452
53.640564 -74.00766 32.270641
49.639908 -82.752548 33.361591
52.550217 -74.340355 22.091156
49.620605 -80.505623 43.549721
51.082626 -79.691376 38.370743
48.384796 -84.248131 38.862526
52.202835 -76.34639 27.400673
45.491272 -88.793633 38.755558
51.87624 -78.222534 32.870422
50.31958 -80.670876 27.807423
47.150208 -87.551834 33.477703
51.725426 -76.307404 22.232433
52.097244 -75.258904 19.614388
48.09317 -82.681213 43.798752
49.015366 -82.427124 41.312263
47.518204 -84.669678 41.473846
53.641827 -73.19516 29.590267
52.970581 -74.311111 27.17915
52.916382 -75.224884 29.861725
49.097504 -78.453049 47.554977
50.373756 -81.276367 35.91851
51.557056 -79.024391 35.632286
50.80909 -80.445404 33.139805
51.106747 -79.493011 30.364262
50.036831 -81.762436 30.575855
45.043179 -90.590988 35.853149
46.395691 -88.312943 36.165634
51.053593 -78.343254 43.208405
51.753632 -78.001976 40.684666
50.43792 -80.194046 41.032982
49.77755 -81.948494 38.661629
49.09346 -83.595642 36.138271
53.05439 -73.36972 24.539715
52.335159 -75.342979 24.722387
51.491417 -77.384315 24.90152
45.986351 -86.868065 41.45417
44.456451 -88.946526 41.187035
44.053955 -90.892967 38.323868
50.168186 -78.499176 45.524433
48.634422 -80.602966 45.842564
53.555229 -74.739487 34.970657
52.271454 -77.49556 38.030602
52.618275 -76.846619 35.31221
52.819038 -76.080322 32.578651
52.073555 -77.318192 30.119989
51.312057 -78.45903 27.614357
50.547096 -79.524048 25.070063
46.943504 -86.55088 38.915554
47.75462 -85.957268 36.240921
48.407028 -85.132446 33.49255
48.90313 -84.126945 30.71839
51.440811 -76.771042 20.975614
51.261291 -77.33677 22.3019
53.641195 -73.60141 30.930454
54.005705 -72.593761 30.76386
54.005073 -73.000011 32.104048
45.469912 -90.272087 34.556746
44.847996 -91.424698 34.323383
52.73703 -73.850853 20.802451
52.896687 -73.383473 22.019942
52.387867 -74.756756 18.336236
51.901474 -75.706528 18.368917
53.338871 -72.849235 25.742722
53.355522 -72.401886 24.44227
43.885238 -88.843636 42.29414
44.679313 -87.910115 42.487902
43.347122 -91.82476 37.953331
43.50355 -90.853924 39.471524
43.879514 -91.798286 36.791359
43.347122 -91.82476 37.953331
50.391008 -77.460724 46.352525
50.881147 -77.454353 45.327921
48.059292 -80.535884 46.839793
48.865963 -79.528008 46.698771
48.290833 -79.460926 47.695999
47.827587 -81.644363 45.943422
48.059292 -80.535884 46.839793
53.445366 -75.052712 36.315716
53.922317 -74.02015 36.116432
48.552246 -84.773186 29.358039
48.325413 -85.347057 30.730641
49.08524 -83.56012 29.334035
48.552246 -84.773186 29.358039
51.626721 -76.246792 19.666592
51.911335 -75.783154 20.923411
51.440811 -76.771042 20.975614
51.901474 -75.706528 18.368917
51.626721 -76.246792 19.666592
53.962543 -72.203709 29.441578
54.005705 -72.593761 30.76386
53.632589 -72.761955 28.267999
53.962543 -72.203709 29.441578
53.306204 -73.753135 28.384709
53.296966 -73.319931 27.06244
53.632589 -72.761955 28.267999
49.262497 -77.349525 48.222553
49.855667 -77.43766 47.367798
48.470217 -78.323601 48.396168
49.262497 -77.349525 48.222553
48.290833 -79.460926 47.695999
48.470217 -78.323601 48.396168
46.146168 -89.133065 34.712988
45.719435 -89.451966 36.009391
45.469912 -90.272087 34.556746
46.523426 -88.75251 33.369022
46.772949 -87.932389 34.821669
46.146168 -89.133065 34.712988
54.015442 -73.3517 33.436892
54.005073 -73.000011 32.104048
52.510543 -74.310127 19.564067
52.73703 -73.850853 20.802451
52.323731 -74.79963 20.852772
52.510543 -74.310127 19.564067
52.387867 -74.756756 18.336236
51.403613 -78.172615 41.946535
52.061924 -77.11047 41.747377
51.711905 -77.281109 43.009247
53.148773 -72.898155 23.244222
53.355522 -72.401886 24.44227
52.802304 -73.855038 23.315435
52.896687 -73.383473 22.019942
53.148773 -72.898155 23.244222
53.012485 -73.840416 25.859433
53.338871 -72.849235 25.742722
53.296966 -73.319931 27.06244
51.144287 -77.875225 23.636443
51.261291 -77.33677 22.3019
51.608421 -76.84586 23.566977
45.444263 -86.870884 42.62147
46.246639 -85.846981 42.677311
45.704551 -85.8498 43.844611
45.221401 -87.907296 41.320602
45.444263 -86.870884 42.62147
44.679313 -87.910115 42.487902
43.704797 -89.880703 40.903107
43.885238 -88.843636 42.29414
44.255203 -89.919747 39.755451
43.704797 -89.880703 40.903107
43.50355 -90.853924 39.471524
44.374127 -91.647297 35.555999
44.548567 -90.741977 37.088509
43.879514 -91.798286 36.791359
44.847996 -91.424698 34.323383
44.374127 -91.647297 35.555999
51.323851 -77.376393 44.169907
51.711905 -77.281109 43.009247
50.610889 -78.421215 44.366419
51.323851 -77.376393 44.169907
50.881147 -77.454353 45.327921
49.632845 -78.476112 46.539705
50.391008 -77.460724 46.352525
49.855667 -77.43766 47.367798
47.556961 -82.683487 44.921516
48.363796 -81.642089 44.820658
47.827587 -81.644363 45.943422
46.76384 -83.755829 44.972366
47.300049 -83.753555 43.849602
47.556961 -82.683487 44.921516
45.936239 -84.759166 44.985836
46.76384 -83.755829 44.972366
45.704551 -85.8498 43.844611
45.936239 -84.759166 44.985836
53.972774 -73.717613 34.7869
53.922317 -74.02015 36.116432
53.597896 -74.373573 33.620649
54.015442 -73.3517 33.436892
53.972774 -73.717613 34.7869
52.350419 -76.933696 40.489752
52.061924 -77.11047 41.747377
52.60933 -76.680488 39.16272
52.350419 -76.933696 40.489752
52.012543 -77.748768 39.357634
52.803478 -76.430748 37.845688
52.60933 -76.680488 39.16272
52.976889 -76.106278 36.486492
52.803478 -76.430748 37.845688
52.444864 -77.171089 36.671406
53.086752 -75.793053 35.141434
53.445366 -75.052712 36.315716
52.976889 -76.106278 36.486492
50.672127 -78.945091 23.720715
51.144287 -77.875225 23.636443
51.019256 -78.454182 24.985792
46.874704 -88.295872 32.037149
46.523426 -88.75251 33.369022
47.448952 -87.059502 32.110298
46.874704 -88.295872 32.037149
48.077362 -85.849807 32.117722
47.778618 -86.34214 33.485126
47.448952 -87.059502 32.110298
48.655079 -84.629695 32.10547
48.077362 -85.849807 32.117722
48.325413 -85.347057 30.730641
49.65209 -82.377865 29.262768
49.46998 -82.944691 30.647123
49.08524 -83.56012 29.334035
49.793464 -81.832085 27.878552
50.178206 -81.216656 29.191639
49.65209 -82.377865 29.262768
49.934246 -81.227383 26.505575
49.793464 -81.832085 27.878552
50.048004 -80.653969 25.136896
50.433338 -80.097462 26.438743
49.934246 -81.227383 26.505575
50.183094 -80.036285 23.779924
50.048004 -80.653969 25.136896
50.672127 -78.945091 23.720715
50.183094 -80.036285 23.779924
3 53 52 12
3 0 16 14
3 1 54 56
3 54 17 55
3 54 55 56
3 1 19 17
3 2 23 21
3 2 25 23
3 58 57 26
3 3 59 60
3 62 61 13
3 4 30 28
3 6 31 15
3 6 32 31
3 63 33 64
3 7 34 18
3 7 35 34
3 65 37 66
3 67 38 68
3 70 69 38
3 71 39 72
3 73 40 74
3 75 74 20
3 73 74 75
3 77 76 40
3 78 41 79
3 5 42 29
3 9 43 22
3 9 44 43
3 9 45 44
3 10 46 24
3 10 47 46
3 8 48 36
3 11 49 27
3 11 50 49
3 80 51 81
3 83 82 51
3 12 13 3
3 84 13 85
3 86 85 12
3 84 85 86
3 88 87 13
3 14 15 4
3 16 15 14
3 16 6 15
3 17 89 90
3 17 91 92
3 17 93 95
3 93 18 94
3 93 94 95
3 19 18 17
3 19 7 18
3 96 20 97
3 98 20 99
3 101 100 20
3 21 22 5
3 23 22 21
3 23 9 22
3 23 24 9
3 25 24 23
3 25 10 24
3 26 27 8
3 102 27 103
3 104 103 26
3 102 103 104
3 105 11 106
3 107 106 27
3 105 106 107
3 108 1 109
3 13 110 112
3 112 111 3
3 110 111 112
3 114 113 13
3 28 115 117
3 115 29 116
3 115 116 117
3 30 29 28
3 30 5 29
3 15 30 4
3 31 30 15
3 31 5 30
3 31 21 5
3 32 21 31
3 32 2 21
3 33 118 119
3 33 120 122
3 120 3 121
3 120 121 122
3 18 123 125
3 123 33 124
3 123 124 125
3 34 33 18
3 34 3 33
3 34 12 3
3 35 12 34
3 35 126 128
3 128 127 12
3 126 127 128
3 129 36 130
3 131 130 0
3 129 130 131
3 37 132 134
3 132 36 133
3 132 133 134
3 37 8 36
3 135 37 136
3 38 137 139
3 137 37 138
3 137 138 139
3 38 8 37
3 38 26 8
3 140 26 141
3 142 141 38
3 140 141 142
3 144 143 26
3 145 28 146
3 39 147 149
3 147 28 148
3 147 148 149
3 39 4 28
3 20 150 152
3 150 39 151
3 150 151 152
3 40 39 20
3 40 4 39
3 40 14 4
3 153 14 154
3 155 154 40
3 153 154 155
3 156 0 157
3 158 157 14
3 156 157 158
3 159 0 160
3 162 161 0
3 41 163 164
3 41 165 167
3 165 1 166
3 165 166 167
3 29 168 169
3 42 170 172
3 172 171 29
3 170 171 172
3 42 173 174
3 22 42 5
3 43 42 22
3 43 175 177
3 177 176 42
3 175 176 177
3 43 178 180
3 178 41 179
3 178 179 180
3 44 41 43
3 44 1 41
3 44 19 1
3 45 19 44
3 45 7 19
3 24 45 9
3 46 45 24
3 46 7 45
3 46 35 7
3 47 35 46
3 47 181 183
3 183 182 35
3 181 182 183
3 36 16 0
3 48 16 36
3 48 6 16
3 27 48 8
3 49 48 27
3 49 6 48
3 49 32 6
3 50 32 49
3 50 2 32
3 184 11 185
3 186 11 187
3 188 50 189
3 190 189 11
3 188 189 190
3 51 191 193
3 191 50 192
3 191 192 193
3 51 2 50
3 51 25 2
3 194 25 195
3 196 195 51
3 194 195 196
3 197 10 198
3 199 198 25
3 197 198 199
3 200 10 201
3 202 47 203
3 204 203 10
3 202 203 204
3 205 47 206
3 208 207 47
