ply
format ascii 1.0
element vertex 277
property float x
property float y
property float z
element face 254
property list uchar int vertex_index
end_header
-0.572479 -67.975571 36.834274
-0.578346 -69.528137 46.014252
0.844347 -65.863525 28.624966
-0.782005 -68.847092 41.275337
-1.330219 -63.333359 45.421791
-1.010855 -62.306473 41.082718
0.062551 -66.961578 32.666206
-0.842249 -67.963913 15.668346
0.097118 -75.282196 46.924355
-0.326096 -74.833389 41.916553
-0.669146 -74.095467 37.161804
-0.736547 -73.071297 32.690662
-0.537571 -71.826195 28.428816
-0.298803 -70.483574 24.216745
-0.324896 -69.175667 19.945744
-0.737398 -68.432426 39.016525
-0.97164 -65.6362 41.122154
-0.765709 -65.167908 38.957695
-0.635967 -61.787304 39.014999
-0.428419 -64.682266 36.864799
0.011786 -64.186279 34.832977
-0.296015 -67.482994 34.722488
0.327463 -78.116364 50.047546
0.260818 -75.410263 49.500378
0.194643 -78.013138 47.450207
-0.25495 -77.608246 42.365662
-0.524048 -77.292511 39.899681
-0.523201 -74.501709 39.503815
-0.783398 -76.89502 37.496597
-1.00536 -76.415436 35.161316
-0.399 -69.787865 48.482765
-0.68981 -67.159653 50.502331
-0.861824 -66.847504 48.054539
-1.271692 -75.233276 30.682312
-0.660135 -72.469696 30.542765
-1.316309 -74.555984 28.514904
-0.261454 -69.818985 22.089348
-0.71904 -69.213806 43.609634
-0.993189 -66.485092 45.673096
-1.04142 -66.078438 43.361183
-1.242037 -62.826347 43.217468
-1.248846 -59.482521 43.166939
-0.845577 -58.891407 41.137268
0.459118 -66.418922 30.642609
0.000744 -72.638428 48.970886
-0.184019 -72.45842 46.437401
-0.006302 -77.846291 44.885933
-0.108313 -75.092072 44.393127
-0.373875 -72.218521 43.959167
-0.532307 -71.915634 41.54467
-0.624739 -71.549187 39.2015
-0.626295 -71.121185 36.934101
-0.528158 -70.636154 34.740776
-0.742622 -73.616653 34.892513
-1.170475 -75.858215 32.892708
0.171825 -80.766281 50.586636
-1.298637 -63.812584 47.696606
-0.340473 -70.101189 32.611435
-0.090834 -69.525894 30.527546
0.181128 -68.922318 28.464989
-0.403816 -71.158081 26.326473
0.431393 -68.304047 26.399267
0.61915 -67.68454 24.311506
0.712271 -67.074402 22.193157
-0.513571 -68.558075 17.798691
0.131391 -79.340256 47.718789
0.261053 -78.064751 48.748876
0.197802 -79.391869 49.017458
-0.777222 -78.415199 38.902784
-0.607866 -78.617367 40.128201
-0.906897 -78.216454 37.701242
-0.653723 -77.093766 38.698139
-0.777222 -78.415199 38.902784
-1.075333 -77.970967 36.506062
-0.906897 -78.216454 37.701242
1.151593 -64.274067 28.756232
0.925807 -64.523433 29.74778
1.008943 -65.5839 27.606651
1.151593 -64.274067 28.756232
-1.731841 -75.835587 28.607368
-1.294001 -74.89463 29.598608
-1.709532 -76.174233 29.691073
-0.476058 -60.05871 39.087463
-0.388951 -61.533129 38.011158
0.285469 -65.323398 32.75477
0.260086 -63.935749 33.838155
0.037169 -65.573928 33.749592
0.260835 -66.69025 31.654408
0.483753 -65.05207 31.742971
0.285469 -65.323398 32.75477
-1.079214 -67.675106 14.622314
-0.293164 -66.642551 15.703138
-1.698291 -68.934967 14.64272
-1.079214 -67.675106 14.622314
-0.192901 -79.053997 43.873368
-0.062988 -79.173778 45.14702
-1.423391 -77.165283 33.040394
-1.087918 -76.136826 34.027012
-1.340833 -77.443894 34.174698
-1.554647 -76.84074 31.906173
-1.423391 -77.165283 33.040394
0.178682 -80.784397 51.889721
0.275731 -79.464729 51.626402
-0.861631 -65.898315 51.482591
-0.937562 -65.70504 50.272723
-0.351309 -70.820828 25.271609
-0.867192 -72.141953 25.28048
-0.814685 -71.804699 24.225617
0.182273 -67.827328 19.99676
0.700856 -66.776696 21.120466
0.193687 -68.125034 21.069451
-0.419234 -68.866871 18.872218
0.087935 -67.518532 18.923233
0.182273 -67.827328 19.99676
-0.285177 -62.98061 36.936058
-0.388951 -61.533129 38.011158
-0.532193 -63.234785 37.939899
-0.208316 -64.434272 35.848888
-0.065075 -62.732616 35.920147
-0.285177 -62.98061 36.936058
-0.151626 -66.930458 16.778844
-0.293164 -66.642551 15.703138
0.294141 -76.763314 49.773962
0.310905 -75.447052 50.80563
0.344227 -76.800103 51.079214
-0.473318 -78.775234 41.361191
-0.317225 -78.934974 42.613232
-0.389499 -77.450378 41.132672
-0.473318 -78.775234 41.361191
-0.607866 -78.617367 40.128201
-1.186314 -77.731175 35.338421
-0.894379 -76.655228 36.328957
-1.075333 -77.970967 36.506062
-1.340833 -77.443894 34.174698
-1.186314 -77.731175 35.338421
-0.544405 -68.473759 49.492548
-0.455251 -68.576615 50.755592
-0.309846 -69.890721 49.74581
-1.023569 -65.548966 49.048827
-0.937562 -65.70504 50.272723
-0.775817 -67.003579 49.278435
-1.477466 -62.010222 46.415506
-1.418467 -61.710533 45.338686
-0.83441 -71.449795 23.15465
-0.814685 -71.804699 24.225617
-0.815736 -71.117501 22.090952
-0.280129 -70.15128 23.153047
-0.83441 -71.449795 23.15465
-0.871975 -70.77613 21.017248
-0.815736 -71.117501 22.090952
-0.903696 -70.454472 19.945446
-0.293175 -69.497326 21.017546
-0.871975 -70.77613 21.017248
-1.013624 -70.131332 18.874457
-0.903696 -70.454472 19.945446
-1.374376 -61.457027 44.236525
-1.418467 -61.710533 45.338686
-1.286128 -63.079853 44.319629
-1.37778 -59.785114 44.21126
-1.374376 -61.457027 44.236525
-1.245442 -61.154434 43.192203
-1.361585 -58.126503 44.161869
-1.37778 -59.785114 44.21126
-1.141182 -57.780016 43.175266
-1.361585 -58.126503 44.161869
-0.939547 -57.484459 42.160431
-1.141182 -57.780016 43.175266
-1.047211 -59.186964 42.152103
-0.657978 -57.159182 41.194244
-0.939547 -57.484459 42.160431
-0.580863 -58.610761 40.148598
-0.740772 -60.339355 40.076133
-0.476058 -60.05871 39.087463
-0.657978 -57.159182 41.194244
-0.580863 -58.610761 40.148598
0.218635 -62.486799 34.939453
-0.065075 -62.732616 35.920147
0.218635 -62.486799 34.939453
0.260086 -63.935749 33.838155
0.733192 -64.801132 30.756602
0.483753 -65.05207 31.742971
0.651733 -66.141223 29.633788
0.925807 -64.523433 29.74778
0.733192 -64.801132 30.756602
0.204716 -74.087059 50.525711
0.310905 -75.447052 50.80563
0.074679 -72.701142 50.260965
0.204716 -74.087059 50.525711
0.130781 -74.024346 49.235632
-0.109974 -71.316002 49.98987
0.074679 -72.701142 50.260965
-0.199128 -71.213146 48.726826
-0.309846 -69.890721 49.74581
-0.109974 -71.316002 49.98987
0.037485 -79.257202 46.429158
0.131391 -79.340256 47.718789
0.094171 -77.929714 46.16807
0.037485 -79.257202 46.429158
-0.062988 -79.173778 45.14702
-0.130626 -77.727268 43.625798
-0.192901 -79.053997 43.873368
-0.317225 -78.934974 42.613232
-1.605256 -76.528271 30.800975
-1.221083 -75.545746 31.78751
-1.554647 -76.84074 31.906173
-1.709532 -76.174233 29.691073
-1.605256 -76.528271 30.800975
0.35355 -78.13977 51.356857
0.344227 -76.800103 51.079214
0.249644 -79.441323 50.317091
0.35355 -78.13977 51.356857
0.275731 -79.464729 51.626402
0.119983 -80.716827 49.287003
0.197802 -79.391869 49.017458
0.249644 -79.441323 50.317091
-0.021204 -82.063606 50.839484
0.178682 -80.784397 51.889721
-0.061099 -82.012001 49.547905
-0.021204 -82.063606 50.839484
0.119983 -80.716827 49.287003
-0.061099 -82.012001 49.547905
-0.604106 -67.289456 51.757845
-0.455251 -68.576615 50.755592
-0.604106 -67.289456 51.757845
-0.861631 -65.898315 51.482591
-1.241976 -64.031506 48.86986
-1.023569 -65.548966 49.048827
-1.080231 -65.330044 47.875573
-1.461674 -62.249834 47.552914
-1.314428 -63.572972 46.559199
-1.477466 -62.010222 46.415506
-1.463624 -62.536223 48.665709
-1.461674 -62.249834 47.552914
-1.241976 -64.031506 48.86986
-1.463624 -62.536223 48.665709
-1.812157 -75.462688 27.514359
-1.731841 -75.835587 28.607368
-1.320821 -74.201072 27.443225
-1.812157 -75.462688 27.514359
-0.931452 -72.836178 27.400181
-0.92694 -73.19109 28.47186
-1.320821 -74.201072 27.443225
-0.864575 -72.502121 26.34901
-0.867192 -72.141953 25.28048
-0.470693 -71.492138 27.377645
-0.931452 -72.836178 27.400181
-0.864575 -72.502121 26.34901
0.802466 -66.804161 26.493801
1.008943 -65.5839 27.606651
0.63787 -67.083786 27.512116
0.896345 -66.494408 25.449921
0.802466 -66.804161 26.493801
0.525272 -67.994293 25.355387
1.016536 -66.216713 24.413354
0.896345 -66.494408 25.449921
1.063096 -65.911644 23.35418
1.016536 -66.216713 24.413354
0.66571 -67.379471 23.252332
1.129724 -65.638024 22.296113
1.063096 -65.911644 23.35418
1.129724 -65.638024 22.296113
0.700856 -66.776696 21.120466
0.012713 -67.227539 17.844016
0.087935 -67.518532 18.923233
-0.67791 -68.260994 16.733519
-0.151626 -66.930458 16.778844
0.012713 -67.227539 17.844016
-1.107962 -69.822536 17.80093
-0.419234 -68.866871 18.872218
-1.013624 -70.131332 18.874457
-1.28433 -69.518577 16.742491
-1.107962 -69.822536 17.80093
-1.448669 -69.221497 15.677319
-0.67791 -68.260994 16.733519
-1.28433 -69.518577 16.742491
-1.698291 -68.934967 14.64272
-1.448669 -69.221497 15.677319
3 0 17 15
3 0 19 17
3 0 21 19
3 65 24 66
3 67 66 22
3 65 66 67
3 68 26 69
3 70 28 71
3 72 71 26
3 70 71 72
3 74 73 28
3 1 32 30
3 2 75 76
3 2 77 78
3 79 35 80
3 81 80 33
3 79 80 81
3 3 39 37
3 5 40 16
3 5 41 40
3 5 42 41
3 83 82 18
3 6 84 86
3 86 85 20
3 84 85 86
3 6 87 89
3 87 43 88
3 87 88 89
3 7 90 91
3 7 92 93
3 8 44 23
3 8 45 44
3 94 46 95
3 9 47 25
3 9 48 47
3 9 49 48
3 10 50 27
3 10 51 50
3 10 53 51
3 96 54 97
3 98 97 29
3 96 97 98
3 100 99 54
3 101 55 102
3 104 103 31
3 4 56 38
3 11 57 52
3 12 58 34
3 12 59 58
3 13 105 107
3 105 60 106
3 105 106 107
3 13 61 60
3 13 62 61
3 14 63 36
3 14 108 110
3 110 109 63
3 108 109 110
3 14 111 113
3 111 64 112
3 111 112 113
3 15 16 3
3 17 16 15
3 17 5 16
3 17 18 5
3 19 18 17
3 19 114 116
3 116 115 18
3 114 115 116
3 19 117 119
3 117 20 118
3 117 118 119
3 21 20 19
3 21 6 20
3 120 7 121
3 22 122 124
3 122 23 123
3 122 123 124
3 24 23 22
3 24 8 23
3 125 25 126
3 26 127 129
3 127 25 128
3 127 128 129
3 26 9 25
3 26 27 9
3 28 27 26
3 28 10 27
3 28 29 10
3 130 29 131
3 132 131 28
3 130 131 132
3 134 133 29
3 30 135 137
3 135 31 136
3 135 136 137
3 32 31 30
3 32 138 140
3 140 139 31
3 138 139 140
3 142 141 4
3 33 34 11
3 35 34 33
3 35 12 34
3 143 13 144
3 145 36 146
3 147 146 13
3 145 146 147
3 148 36 149
3 150 14 151
3 152 151 36
3 150 151 152
3 154 153 14
3 37 38 1
3 39 38 37
3 39 4 38
3 16 39 3
3 40 39 16
3 40 4 39
3 40 155 157
3 157 156 4
3 155 156 157
3 41 158 160
3 160 159 40
3 158 159 160
3 41 161 162
3 41 163 164
3 42 165 167
3 167 166 41
3 165 166 167
3 42 168 169
3 18 42 5
3 170 42 171
3 172 171 18
3 170 171 172
3 174 173 42
3 20 175 176
3 178 177 20
3 43 179 180
3 43 181 183
3 181 2 182
3 181 182 183
3 23 184 185
3 44 186 188
3 188 187 23
3 186 187 188
3 44 189 190
3 44 191 193
3 191 30 192
3 191 192 193
3 45 30 44
3 45 1 30
3 194 24 195
3 46 196 198
3 196 24 197
3 196 197 198
3 46 8 24
3 25 199 201
3 199 46 200
3 199 200 201
3 47 46 25
3 47 8 46
3 47 45 8
3 48 45 47
3 48 1 45
3 48 37 1
3 49 37 48
3 49 3 37
3 27 49 9
3 50 49 27
3 50 3 49
3 50 15 3
3 51 15 50
3 51 0 15
3 51 52 0
3 53 52 51
3 53 11 52
3 29 53 10
3 54 53 29
3 54 11 53
3 54 33 11
3 202 33 203
3 204 203 54
3 202 203 204
3 206 205 33
3 207 22 208
3 55 209 211
3 209 22 210
3 209 210 211
3 55 212 214
3 214 213 22
3 212 213 214
3 215 55 216
3 217 55 218
3 220 219 55
3 31 221 222
3 224 223 31
3 38 32 1
3 56 32 38
3 56 225 227
3 227 226 32
3 225 226 227
3 228 56 229
3 230 229 4
3 228 229 230
3 231 56 232
3 234 233 56
3 52 21 0
3 57 21 52
3 57 6 21
3 34 57 11
3 58 57 34
3 58 6 57
3 58 43 6
3 59 43 58
3 59 2 43
3 235 35 236
3 237 35 238
3 239 12 240
3 241 240 35
3 239 240 241
3 60 242 243
3 60 244 246
3 244 12 245
3 244 245 246
3 60 59 12
3 61 59 60
3 61 2 59
3 61 247 249
3 249 248 2
3 247 248 249
3 62 250 252
3 252 251 61
3 250 251 252
3 62 253 254
3 36 62 13
3 63 62 36
3 63 255 257
3 257 256 62
3 255 256 257
3 63 258 259
3 261 260 63
3 64 262 263
3 64 264 266
3 264 7 265
3 264 265 266
3 267 64 268
3 269 268 14
3 267 268 269
3 270 64 271
3 272 7 273
3 274 273 64
3 272 273 274
3 276 275 7
