ply
format ascii 1.0
element vertex 236
property float x
property float y
property float z
element face 235
property list uchar int vertex_index
end_header
-68.232971 -40.90509 -0.132874
-64.020142 -50.350029 0.683265
-63.194962 -53.434086 -5.876457
-63.482162 -42.669312 -7.248564
-66.253845 -50.0471 -13.234179
-66.365227 -45.563507 0.203606
-63.969345 -46.635719 -3.34318
-65.803757 -41.584175 -3.626156
-67.593544 -36.688213 -3.758776
-66.428078 -49.500683 4.227912
-68.404808 -45.119583 3.705335
-65.222786 -54.880554 -8.848652
-63.985153 -49.209045 -10.096088
-62.634563 -51.786823 -2.71624
-62.962227 -47.993534 -6.808855
-62.920475 -43.69492 -10.841192
-62.834599 -38.289272 -11.030058
-67.405701 -43.210373 0.031425
-66.14254 -43.585415 -1.730598
-67.136047 -41.166885 -1.85487
-66.754402 -39.108292 -3.698912
-67.967911 -38.800186 -1.970167
-67.471085 -49.34008 6.019982
-67.571732 -47.294106 3.958569
-68.314423 -47.232906 5.723035
-63.389526 -56.218769 -5.231443
-64.45961 -57.047207 -6.665546
-64.103134 -54.199703 -7.375389
-64.646004 -52.020649 -9.525066
-63.655964 -51.399124 -7.986694
-62.861214 -52.77404 1.042043
-62.268284 -53.542358 -0.63028
-63.110767 -51.013786 -1.042498
-63.767471 -44.694778 -5.307777
-63.21669 -47.306683 -5.094265
-63.10355 -45.320503 -7.086136
-62.967529 -45.917076 -8.83399
-62.924278 -43.216812 -9.058735
-62.726162 -40.97731 -11.002035
-63.154716 -40.538883 -9.160835
-66.940704 -52.993393 -12.565115
-62.574295 -55.325336 -3.762297
-65.208557 -47.946468 0.411654
-64.058685 -48.514252 -1.35009
-65.088348 -46.037811 -1.571356
-64.846542 -44.097122 -3.516249
-64.503342 -42.10495 -5.430664
-64.091324 -40.041447 -7.314442
-65.371078 -39.543018 -5.486494
-66.282066 -37.023254 -5.500645
-63.851601 -52.157101 2.77204
-65.199203 -49.837997 2.445314
-66.460709 -47.532715 2.185753
-67.551773 -45.250408 1.965954
-68.379288 -43.009865 1.756482
-65.591705 -57.788155 -8.099199
-66.357307 -55.473011 -10.327116
-65.806938 -52.547428 -11.042345
-65.053322 -49.675735 -11.675966
-64.225266 -46.852402 -12.196264
-62.171333 -54.413128 -2.2325
-62.669235 -52.613251 -4.327616
-63.226707 -49.197289 -3.082842
-62.861275 -49.943352 -4.77129
-63.018597 -50.694733 -6.405901
-63.239986 -48.641586 -8.476654
-63.370304 -46.437183 -10.538811
-67.795304 -49.339264 6.91905
-67.366745 -50.357754 7.089353
-67.690964 -50.356938 7.988421
-68.216972 -48.285677 6.770577
-67.892754 -48.286493 5.871509
-67.795304 -49.339264 6.91905
-66.821106 -50.199663 -14.013848
-67.164535 -51.672809 -13.679317
-66.597274 -51.520246 -12.899647
-62.179802 -56.204122 -2.696909
-62.531557 -56.703833 -3.424446
-67.360394 -35.627043 -4.627909
-66.704655 -35.794563 -5.498843
-66.937805 -36.855733 -4.62971
-63.707009 -53.049444 3.851304
-63.167994 -53.323779 2.979846
-65.745678 -50.610126 4.385587
-66.351612 -50.482993 5.284654
-65.81364 -49.66934 3.336613
-65.13124 -50.778784 3.494288
-65.745678 -50.610126 4.385587
-63.188761 -43.88114 -11.710705
-63.413675 -45.252271 -11.559515
-63.14539 -45.066052 -10.690002
-62.895712 -42.504111 -11.827979
-63.188761 -43.88114 -11.710705
-62.697264 -38.44041 -11.963465
-62.643045 -39.78443 -11.949454
-62.78038 -39.633291 -11.016046
-62.70377 -37.102548 -11.931653
-62.697264 -38.44041 -11.963465
-64.265806 -37.669412 -8.232617
-63.872564 -38.966314 -8.236273
-64.484566 -38.744545 -7.310786
-66.433212 -48.71258 -14.317854
-65.812996 -48.603033 -13.523177
-66.873116 -50.402691 6.180689
-67.366745 -50.357754 7.089353
-66.949581 -49.420382 5.123947
-66.351612 -50.482993 5.284654
-66.873116 -50.402691 6.180689
-63.924568 -56.632988 -5.948494
-63.976034 -58.046604 -5.57971
-63.440992 -57.632385 -4.862659
-62.564749 -53.158199 0.205882
-62.016661 -54.383606 0.437068
-62.313126 -53.999447 1.27323
-67.405258 -53.193565 -13.341834
-67.131607 -54.495979 -12.202957
-67.405258 -53.193565 -13.341834
-67.164535 -51.672809 -13.679317
-66.821106 -50.199663 -14.013848
-66.433212 -48.71258 -14.317854
-62.939172 -57.150549 -4.159019
-63.440992 -57.632385 -4.862659
-62.98191 -55.772053 -4.49687
-62.939172 -57.150549 -4.159019
-62.531557 -56.703833 -3.424446
-65.124443 -38.495331 -6.396813
-64.484566 -38.744545 -7.310786
-64.731201 -39.792232 -6.400468
-65.579937 -37.235449 -6.403888
-65.124443 -38.495331 -6.396813
-65.826572 -38.283136 -5.493569
-66.016132 -35.964832 -6.376732
-65.314003 -36.177026 -7.279975
-65.579937 -37.235449 -6.403888
-66.438721 -34.736141 -6.37493
-66.016132 -35.964832 -6.376732
-66.704655 -35.794563 -5.498843
-62.6728 -53.632248 2.114847
-62.313126 -53.999447 1.27323
-63.356408 -52.46557 1.907042
-62.6728 -53.632248 2.114847
-63.167994 -53.323779 2.979846
-64.457439 -51.938335 3.657652
-63.707009 -53.049444 3.851304
-64.525402 -50.997549 2.608677
-64.457439 -51.938335 3.657652
-65.13124 -50.778784 3.494288
-68.415943 -47.282606 6.601918
-68.216972 -48.285677 6.770577
-68.521546 -46.203142 5.571468
-68.415943 -47.282606 6.601918
-68.566738 -45.14648 4.562618
-68.359616 -46.176244 4.714185
-68.521546 -46.203142 5.571468
-68.62476 -44.062154 3.572199
-68.566738 -45.14648 4.562618
-68.611999 -43.007295 2.597773
-68.392048 -44.064724 2.730908
-68.62476 -44.062154 3.572199
-68.61692 -41.923279 1.643585
-68.611999 -43.007295 2.597773
-68.543762 -40.870891 0.698906
-68.306129 -41.957477 0.811804
-68.61692 -41.923279 1.643585
-68.492775 -39.788418 -0.222827
-68.543762 -40.870891 0.698906
-68.360245 -38.735965 -1.141474
-68.100441 -39.852638 -1.051521
-68.492775 -39.788418 -0.222827
-68.253071 -37.654342 -2.033497
-68.360245 -38.735965 -1.141474
-68.065888 -36.598356 -2.927802
-67.780727 -37.744199 -2.864472
-68.253071 -37.654342 -2.033497
-67.904831 -35.517446 -3.791372
-68.065888 -36.598356 -2.927802
-67.360394 -35.627043 -4.627909
-67.904831 -35.517446 -3.791372
-64.535054 -58.489901 -6.277788
-63.976034 -58.046604 -5.57971
-65.101101 -58.860375 -6.994615
-64.535054 -58.489901 -6.277788
-65.025657 -57.417681 -7.382373
-65.620781 -59.257973 -7.707257
-65.130177 -60.330193 -6.602673
-65.101101 -58.860375 -6.994615
-66.093857 -58.117213 -8.833494
-65.620781 -59.257973 -7.707257
-66.476658 -56.95964 -9.947453
-66.093857 -58.117213 -8.833494
-65.974506 -56.630583 -9.213158
-66.839909 -55.735788 -11.083958
-66.476658 -56.95964 -9.947453
-66.649006 -54.233202 -11.446116
-67.131607 -54.495979 -12.202957
-66.839909 -55.735788 -11.083958
-65.212734 -48.41735 -12.744071
-65.812996 -48.603033 -13.523177
-65.653583 -49.861418 -12.455072
-64.798707 -47.005684 -13.00422
-65.212734 -48.41735 -12.744071
-64.639294 -48.264069 -11.936115
-64.325417 -45.586614 -13.232358
-64.798707 -47.005684 -13.00422
-61.895424 -54.825302 -0.367154
-62.016661 -54.383606 0.437068
-61.846948 -55.260687 -1.168265
-61.895424 -54.825302 -0.367154
-62.219808 -53.977743 -1.43139
-61.978321 -55.748019 -1.932011
-61.846948 -55.260687 -1.168265
-62.372814 -54.869232 -2.997399
-62.179802 -56.204122 -2.696909
-61.978321 -55.748019 -1.932011
-63.841157 -45.459881 -12.388241
-63.797785 -46.644792 -11.367538
-63.413675 -45.252271 -11.559515
-64.325417 -45.586614 -13.232358
-63.841157 -45.459881 -12.388241
-62.798556 -41.145306 -11.9084
-62.895712 -42.504111 -11.827979
-62.823318 -42.336115 -10.921613
-62.715439 -39.952425 -12.855819
-62.798556 -41.145306 -11.9084
-62.643045 -39.78443 -11.949454
-63.40426 -39.215032 -9.15947
-63.62302 -40.290165 -8.237638
-63.872564 -38.966314 -8.236273
-63.244202 -38.090227 -10.094081
-62.994658 -39.414077 -10.095447
-63.40426 -39.215032 -9.15947
-63.037909 -36.968368 -10.98636
-63.244202 -38.090227 -10.094081
-62.90708 -35.781645 -11.887956
-62.70377 -37.102548 -11.931653
-63.037909 -36.968368 -10.98636
3 0 19 17
3 0 21 19
3 67 22 68
3 67 68 69
3 70 24 71
3 72 71 22
3 70 71 72
3 2 27 25
3 2 29 27
3 1 32 30
3 3 35 33
3 3 37 35
3 3 39 37
3 4 73 75
3 75 74 40
3 73 74 75
3 76 41 77
3 5 44 42
3 7 45 18
3 7 46 45
3 7 48 46
3 8 49 20
3 8 78 80
3 80 79 49
3 78 79 80
3 81 50 82
3 9 83 84
3 9 85 87
3 85 51 86
3 85 86 87
3 9 52 51
3 10 53 23
3 10 54 53
3 11 55 26
3 11 56 55
3 11 57 56
3 12 58 28
3 12 59 58
3 13 60 31
3 13 61 60
3 6 62 43
3 14 63 34
3 14 64 63
3 14 65 64
3 15 66 36
3 15 88 90
3 90 89 66
3 88 89 90
3 15 91 92
3 16 93 95
3 95 94 38
3 93 94 95
3 16 96 97
3 100 99 47
3 98 99 100
3 102 101 4
3 17 18 5
3 19 18 17
3 19 7 18
3 19 20 7
3 21 20 19
3 21 8 20
3 22 103 104
3 22 105 107
3 105 9 106
3 105 106 107
3 22 23 9
3 24 23 22
3 24 10 23
3 25 108 110
3 108 26 109
3 108 109 110
3 27 26 25
3 27 11 26
3 27 28 11
3 29 28 27
3 29 12 28
3 30 111 113
3 111 31 112
3 111 112 113
3 32 31 30
3 32 13 31
3 33 34 6
3 35 34 33
3 35 14 34
3 35 36 14
3 37 36 35
3 37 15 36
3 37 38 15
3 39 38 37
3 39 16 38
3 40 114 115
3 117 116 40
3 119 118 4
3 120 25 121
3 41 122 124
3 122 25 123
3 122 123 124
3 41 2 25
3 42 43 1
3 44 43 42
3 44 6 43
3 18 44 5
3 45 44 18
3 45 6 44
3 45 33 6
3 46 33 45
3 46 3 33
3 46 47 3
3 48 47 46
3 48 125 127
3 127 126 47
3 125 126 127
3 20 48 7
3 49 48 20
3 49 128 130
3 130 129 48
3 128 129 130
3 49 131 133
3 131 132 133
3 136 135 49
3 134 135 136
3 137 30 138
3 50 139 141
3 139 30 140
3 139 140 141
3 50 1 30
3 142 50 143
3 51 144 146
3 144 50 145
3 144 145 146
3 51 1 50
3 51 42 1
3 52 42 51
3 52 5 42
3 23 52 9
3 53 52 23
3 53 5 52
3 53 17 5
3 54 17 53
3 54 0 17
3 147 24 148
3 149 24 150
3 151 10 152
3 153 152 24
3 151 152 153
3 154 10 155
3 156 54 157
3 158 157 10
3 156 157 158
3 159 54 160
3 161 0 162
3 163 162 54
3 161 162 163
3 164 0 165
3 166 21 167
3 168 167 0
3 166 167 168
3 169 21 170
3 171 8 172
3 173 172 21
3 171 172 173
3 174 8 175
3 177 176 8
3 26 178 179
3 55 180 182
3 182 181 26
3 180 181 182
3 55 183 185
3 183 184 185
3 55 186 187
3 56 188 190
3 190 189 55
3 188 189 190
3 56 191 192
3 56 193 195
3 193 40 194
3 193 194 195
3 57 40 56
3 57 4 40
3 28 57 11
3 58 57 28
3 58 4 57
3 58 196 198
3 198 197 4
3 196 197 198
3 59 199 201
3 201 200 58
3 199 200 201
3 59 202 203
3 31 204 205
3 60 206 208
3 208 207 31
3 206 207 208
3 60 209 210
3 60 211 213
3 211 41 212
3 211 212 213
3 61 41 60
3 61 2 41
3 43 32 1
3 62 32 43
3 62 13 32
3 34 62 6
3 63 62 34
3 63 13 62
3 63 61 13
3 64 61 63
3 64 2 61
3 64 29 2
3 65 29 64
3 65 12 29
3 36 65 14
3 66 65 36
3 66 12 65
3 66 59 12
3 214 59 215
3 216 215 66
3 214 215 216
3 218 217 59
3 38 219 221
3 221 220 15
3 219 220 221
3 224 223 38
3 222 223 224
3 47 39 3
3 225 39 226
3 227 226 47
3 225 226 227
3 228 16 229
3 230 229 39
3 228 229 230
3 231 16 232
3 235 234 16
3 233 234 235
