ply
format ascii 1.0
element vertex 264
property float x
property float y
property float z
element face 261
property list uchar int vertex_index
end_header
-36.682423 -48.692543 57.291817
-31.873178 -61.78997 63.33712
-34.314186 -57.922359 55.025318
-38.383617 -54.800991 49.298542
-30.373589 -63.877594 67.360672
-37.03833 -46.068962 62.458336
-35.263351 -50.713337 61.032379
-34.16259 -55.316704 59.994633
-35.367405 -53.365047 56.073906
-36.026451 -56.254658 51.64119
-36.989437 -51.527626 52.707569
-38.876507 -43.980194 58.83287
-38.460732 -46.712814 53.927608
-32.99675 -57.336014 64.081848
-33.050453 -59.782635 59.078362
-33.082115 -62.42033 54.109337
-35.069321 -60.935467 50.790714
-37.682793 -59.689533 48.542889
-36.81789 -47.367325 59.836926
-36.02771 -48.387238 61.685272
-35.950134 -49.704281 59.138454
-35.284779 -52.030014 58.531799
-35.950516 -51.04084 56.652538
-36.106483 -52.428352 54.297237
-36.717155 -50.069351 54.890755
-39.863014 -42.926903 57.073685
-31.186981 -62.828003 65.402344
-31.095703 -63.946991 62.833611
-31.739643 -62.941479 60.724415
-34.21151 -56.596027 57.484512
-33.643112 -57.56776 59.537533
-33.646122 -58.830585 56.996445
-33.004078 -61.044861 56.517429
-33.729008 -60.170422 54.546555
-34.001122 -61.646683 52.337536
-34.573158 -59.352356 52.74778
-37.120441 -55.500248 50.323112
-36.718563 -57.890591 49.877037
-38.034458 -57.24427 48.880215
-39.208351 -59.143337 47.888084
-39.500465 -56.650337 48.200253
-39.570797 -45.784683 52.493885
-38.694675 -48.231262 51.899971
-31.829865 -60.622803 65.792297
-37.250946 -44.782001 65.092468
-36.099995 -45.738678 66.756348
-36.102577 -47.068245 64.239021
-35.224667 -49.384827 63.517208
-34.572933 -51.713512 62.930912
-34.064289 -54.031944 62.453636
-34.672836 -53.028755 60.480362
-34.734879 -54.329865 57.989746
-34.84613 -55.657993 55.535076
-35.097134 -57.062698 53.222843
-35.591515 -54.758759 53.742718
-36.482418 -53.903278 52.156971
-37.540905 -53.097042 50.819374
-38.325344 -43.772655 63.344917
-37.94862 -45.03513 60.642345
-37.641827 -46.333954 58.014355
-37.506599 -47.689606 55.539665
-38.543709 -45.303528 56.263695
-39.559864 -44.299809 54.628197
-40.715408 -43.352085 53.142876
-32.502357 -59.588116 63.740974
-33.599892 -56.320389 62.040092
-33.090603 -58.56736 61.640224
-32.477184 -60.771858 61.211304
-32.357597 -61.970997 58.598236
-32.286221 -63.255211 56.048065
-35.564899 -58.592564 51.176422
-36.297733 -60.284657 49.515305
-37.62318 -49.12751 53.293232
-38.041065 -50.673035 51.345707
-38.775188 -52.346493 49.759602
-39.757323 -46.592137 51.616799
-40.210205 -45.357746 51.879666
-31.663289 -60.003391 66.897213
-31.430722 -61.143688 66.772163
-39.095803 -42.638615 63.825726
-38.493616 -43.154016 64.691284
-38.412563 -44.507662 59.737607
-38.653324 -43.877394 61.094713
-39.117267 -43.349926 60.189976
-40.251007 -43.102892 55.016025
-39.711439 -43.613356 55.850941
-40.402582 -42.416439 56.23877
-40.828779 -42.62903 54.273365
-40.137636 -43.825947 53.885537
-40.251007 -43.102892 55.016025
-29.947895 -64.951027 67.073623
-29.886095 -64.404869 68.267677
-35.473587 -46.191166 67.536632
-35.601154 -46.883579 66.354088
-32.652386 -57.847364 65.081253
-32.833912 -56.687958 65.20602
-32.749554 -58.462065 63.911411
-32.40519 -58.973416 64.910816
-32.652386 -57.847364 65.081253
-32.737299 -63.555189 53.916551
-32.339352 -63.97263 54.885915
-32.684168 -62.837771 55.078701
-33.236211 -63.193023 53.060568
-32.737299 -63.555189 53.916551
-34.803856 -62.119873 50.651899
-34.269756 -62.475481 51.42531
-34.535222 -61.291075 51.564125
-35.457521 -61.819134 50.032967
-34.803856 -62.119873 50.651899
-37.494373 -60.922291 48.436718
-36.801844 -61.219853 48.922926
-36.990263 -59.987095 49.029097
-38.291279 -60.670814 48.118505
-37.494373 -60.922291 48.436718
-40.723909 -59.910561 47.455353
-39.903471 -60.163212 47.625614
-40.02879 -58.890686 47.717823
-38.65662 -50.274994 50.793434
-38.36787 -49.452148 51.622839
-38.983425 -49.054108 51.070566
-39.023681 -51.111723 50.000382
-38.408127 -51.509764 50.552655
-38.65662 -50.274994 50.793434
-39.632283 -42.811577 59.285971
-39.117267 -43.349926 60.189976
-40.125536 -42.284931 58.406378
-39.36976 -43.453548 57.953277
-39.632283 -42.811577 59.285971
-40.658065 -41.749756 57.51696
-40.125536 -42.284931 58.406378
-40.402582 -42.416439 56.23877
-40.658065 -41.749756 57.51696
-30.779592 -63.902817 65.136089
-30.372896 -64.427613 66.115253
-30.780285 -63.352799 66.381508
-30.733953 -64.462311 63.851723
-30.779592 -63.902817 65.136089
-31.141342 -63.387497 64.117977
-30.644206 -65.007019 62.52215
-30.733953 -64.462311 63.851723
-30.995016 -64.517071 61.498722
-30.644206 -65.007019 62.52215
-31.316986 -64.014315 60.444125
-30.995016 -64.517071 61.498722
-31.417673 -63.444235 61.779013
-31.65666 -63.544089 59.406485
-31.316986 -64.014315 60.444125
-33.203817 -56.186194 64.247795
-32.833912 -56.687958 65.20602
-40.174847 -57.644186 47.873908
-40.02879 -58.890686 47.717823
-39.354408 -57.896837 48.044168
-39.319261 -47.815426 51.319841
-39.132736 -47.007973 52.196928
-39.757323 -46.592137 51.616799
-38.983425 -49.054108 51.070566
-39.319261 -47.815426 51.319841
-30.22478 -63.29278 68.472473
-29.886095 -64.404869 68.267677
-30.702583 -62.771084 67.55635
-30.22478 -63.29278 68.472473
-31.109279 -62.246289 66.577186
-30.780285 -63.352799 66.381508
-30.702583 -62.771084 67.55635
-31.508423 -61.725403 65.59732
-31.109279 -62.246289 66.577186
-31.430722 -61.143688 66.772163
-36.675471 -45.26034 65.924408
-36.732975 -44.620781 67.215424
-37.30845 -44.142443 66.383484
-35.602446 -47.548363 65.095425
-35.601154 -46.883579 66.354088
-36.101286 -46.403461 65.497684
-35.16349 -48.706654 64.734518
-35.602446 -47.548363 65.095425
-35.663622 -48.226536 63.878114
-34.795279 -49.871286 64.408873
-35.16349 -48.706654 64.734518
-34.469412 -51.035629 64.115724
-34.795279 -49.871286 64.408873
-34.8988 -50.54917 63.22406
-34.202933 -52.208095 63.865617
-34.469412 -51.035629 64.115724
-34.318611 -52.872728 62.692274
-33.948611 -53.367311 63.62698
-34.202933 -52.208095 63.865617
-37.956417 -43.65869 65.565059
-37.30845 -44.142443 66.383484
-37.788145 -44.277328 64.218693
-37.956417 -43.65869 65.565059
-38.493616 -43.154016 64.691284
-38.841686 -43.246156 62.445999
-39.095803 -42.638615 63.825726
-38.136982 -44.403892 61.993631
-38.841686 -43.246156 62.445999
-38.653324 -43.877394 61.094713
-40.782511 -44.141447 52.204161
-40.210205 -45.357746 51.879666
-40.143102 -44.568384 52.818381
-41.426777 -42.152437 53.498305
-40.828779 -42.62903 54.273365
-41.369543 -42.921881 52.487351
-41.426777 -42.152437 53.498305
-41.436645 -43.711242 51.548636
-40.782511 -44.141447 52.204161
-41.369543 -42.921881 52.487351
-29.947895 -64.951027 67.073623
-30.372896 -64.427613 66.115253
-36.028571 -45.07101 67.975739
-36.732975 -44.620781 67.215424
-36.028571 -45.07101 67.975739
-35.473587 -46.191166 67.536632
-32.068944 -59.490759 65.936477
-31.663289 -60.003391 66.897213
-32.166111 -60.105459 64.766636
-32.068944 -59.490759 65.936477
-32.40519 -58.973416 64.910816
-33.737587 -54.534159 63.433689
-33.948611 -53.367311 63.62698
-33.505388 -55.678381 63.226917
-33.737587 -54.534159 63.433689
-33.83209 -55.176167 62.246864
-33.298321 -56.828201 63.06097
-33.203817 -56.186194 64.247795
-33.505388 -55.678381 63.226917
-31.965637 -63.058847 58.343395
-31.65666 -63.544089 59.406485
-32.04862 -62.456238 59.661326
-31.929949 -63.700955 57.068309
-31.965637 -63.058847 58.343395
-32.321909 -62.613104 57.32315
-31.903083 -64.365894 55.818899
-31.929949 -63.700955 57.068309
-31.903083 -64.365894 55.818899
-32.339352 -63.97263 54.885915
-33.695715 -62.8062 52.174667
-33.236211 -63.193023 53.060568
-33.541618 -62.033507 53.223436
-33.695715 -62.8062 52.174667
-34.269756 -62.475481 51.42531
-36.071728 -61.493729 49.395262
-35.457521 -61.819134 50.032967
-35.683527 -60.610062 50.153009
-36.071728 -61.493729 49.395262
-36.801844 -61.219853 48.922926
-39.054058 -60.397717 47.791103
-38.291279 -60.670814 48.118505
-38.445572 -59.416435 48.215486
-39.054058 -60.397717 47.791103
-39.903471 -60.163212 47.625614
-39.477863 -52.002678 49.376027
-39.023681 -51.111723 50.000382
-39.291542 -53.25243 49.170729
-39.477863 -52.002678 49.376027
-39.095757 -54.479679 48.940199
-38.579403 -53.573742 49.529072
-39.291542 -53.25243 49.170729
-39.65418 -55.404352 48.391054
-38.942041 -55.725664 48.749398
-39.095757 -54.479679 48.940199
-40.297863 -56.377645 48.01702
-39.65418 -55.404352 48.391054
-40.174847 -57.644186 47.873908
-40.297863 -56.377645 48.01702
3 0 20 18
3 0 22 20
3 0 24 22
3 1 27 26
3 1 28 27
3 2 31 29
3 2 33 31
3 2 35 33
3 3 38 36
3 3 40 38
3 76 75 41
3 77 43 78
3 5 46 44
3 6 47 19
3 6 48 47
3 6 50 48
3 8 51 21
3 8 52 51
3 8 54 52
3 10 55 23
3 10 56 55
3 79 57 80
3 11 81 83
3 81 58 82
3 81 82 83
3 11 59 58
3 11 61 59
3 84 62 85
3 86 85 25
3 84 85 86
3 87 63 88
3 89 88 62
3 87 88 89
3 4 90 91
3 93 92 45
3 13 94 95
3 13 96 98
3 96 64 97
3 96 97 98
3 7 65 49
3 14 66 30
3 14 67 66
3 14 68 67
3 15 69 32
3 15 99 101
3 101 100 69
3 99 100 101
3 15 102 103
3 16 104 106
3 106 105 34
3 104 105 106
3 16 107 108
3 9 70 53
3 17 71 37
3 17 109 111
3 111 110 71
3 109 110 111
3 17 112 113
3 116 115 39
3 114 115 116
3 12 72 60
3 117 73 118
3 119 118 42
3 117 118 119
3 120 74 121
3 122 121 73
3 120 121 122
3 18 19 5
3 20 19 18
3 20 6 19
3 20 21 6
3 22 21 20
3 22 8 21
3 22 23 8
3 24 23 22
3 24 10 23
3 123 11 124
3 125 25 126
3 127 126 11
3 125 126 127
3 128 25 129
3 131 130 25
3 26 132 134
3 134 133 4
3 132 133 134
3 27 135 137
3 137 136 26
3 135 136 137
3 27 138 139
3 27 140 141
3 28 142 144
3 144 143 27
3 142 143 144
3 28 145 146
3 147 13 148
3 29 30 7
3 31 30 29
3 31 14 30
3 31 32 14
3 33 32 31
3 33 15 32
3 33 34 15
3 35 34 33
3 35 16 34
3 36 37 9
3 38 37 36
3 38 17 37
3 38 39 17
3 40 39 38
3 40 149 151
3 151 150 39
3 149 150 151
3 41 42 12
3 152 42 153
3 154 153 41
3 152 153 154
3 156 155 42
3 157 4 158
3 159 4 160
3 161 26 162
3 163 162 4
3 161 162 163
3 43 164 166
3 164 26 165
3 164 165 166
3 43 1 26
3 44 167 169
3 167 45 168
3 167 168 169
3 46 45 44
3 46 170 172
3 172 171 45
3 170 171 172
3 19 46 5
3 47 46 19
3 47 173 175
3 175 174 46
3 173 174 175
3 47 176 177
3 48 178 180
3 180 179 47
3 178 179 180
3 48 181 182
3 48 183 185
3 183 49 184
3 183 184 185
3 50 49 48
3 50 7 49
3 21 50 6
3 51 50 21
3 51 7 50
3 51 29 7
3 52 29 51
3 52 2 29
3 52 53 2
3 54 53 52
3 54 9 53
3 23 54 8
3 55 54 23
3 55 9 54
3 55 36 9
3 56 36 55
3 56 3 36
3 186 44 187
3 57 188 190
3 188 44 189
3 188 189 190
3 57 5 44
3 191 57 192
3 58 193 195
3 193 57 194
3 193 194 195
3 58 5 57
3 58 18 5
3 59 18 58
3 59 0 18
3 59 60 0
3 61 60 59
3 61 12 60
3 25 61 11
3 62 61 25
3 62 12 61
3 62 41 12
3 63 41 62
3 63 196 198
3 198 197 41
3 196 197 198
3 199 63 200
3 201 63 202
3 205 204 63
3 203 204 205
3 207 206 4
3 45 208 209
3 211 210 45
3 212 43 213
3 64 214 216
3 214 43 215
3 214 215 216
3 64 1 43
3 49 217 218
3 65 219 221
3 221 220 49
3 219 220 221
3 65 222 224
3 222 13 223
3 222 223 224
3 30 65 7
3 66 65 30
3 66 13 65
3 66 64 13
3 67 64 66
3 67 1 64
3 67 28 1
3 68 28 67
3 68 225 227
3 227 226 28
3 225 226 227
3 32 68 14
3 69 68 32
3 69 228 230
3 230 229 68
3 228 229 230
3 69 231 232
3 234 233 69
3 34 235 237
3 237 236 15
3 235 236 237
3 239 238 34
3 53 35 2
3 70 35 53
3 70 16 35
3 37 70 9
3 71 70 37
3 71 16 70
3 71 240 242
3 242 241 16
3 240 241 242
3 244 243 71
3 39 245 247
3 247 246 17
3 245 246 247
3 249 248 39
3 60 24 0
3 72 24 60
3 72 10 24
3 42 72 12
3 73 72 42
3 73 10 72
3 73 56 10
3 74 56 73
3 74 3 56
3 250 74 251
3 252 74 253
3 254 3 255
3 256 255 74
3 254 255 256
3 257 40 258
3 259 258 3
3 257 258 259
3 260 40 261
3 263 262 40
