ply
format ascii 1.0
element vertex 222
property float x
property float y
property float z
element face 206
property list uchar int vertex_index
end_header
-44.519089 -102.341888 -6.280317
-47.615685 -95.320602 2.672273
-51.707684 -84.79245 1.661913
-43.687157 -101.979141 6.569473
-45.204372 -100.524811 2.368681
-46.518623 -97.151764 7.213075
-47.323154 -96.32222 -5.880501
-45.462242 -99.967056 -10.055141
-43.283192 -104.045288 -2.430103
-46.358521 -98.722382 -1.80233
-48.630455 -92.985443 -1.733433
-49.448532 -89.952896 2.345874
-51.011131 -87.314255 -2.133163
-42.768929 -103.894913 -14.151756
-45.27766 -99.591248 6.994066
-42.474018 -104.730347 -0.523075
-46.542336 -97.963455 2.610084
-45.823917 -99.688858 0.278242
-47.062576 -96.992722 0.443138
-47.545555 -95.878128 -1.698229
-48.112793 -94.222153 0.448888
-49.650322 -88.535294 4.35299
-50.475563 -87.327927 2.030297
-50.172607 -88.683121 0.077624
-51.424919 -86.021088 -0.232129
-52.500721 -84.630249 -2.439657
-42.81221 -105.10405 -6.587679
-43.353588 -104.232086 -8.467518
-44.241844 -101.901001 -12.124834
-43.071022 -102.409134 -15.749834
-42.671326 -103.660828 3.956002
-43.538166 -102.989868 1.951518
-44.487144 -101.271988 4.465744
-45.950821 -98.815765 4.795035
-47.094402 -96.288071 4.928721
-46.005699 -99.390366 -6.032263
-45.010887 -101.245804 -8.194599
-46.475204 -98.106216 -7.968508
-42.156029 -105.827499 -4.732964
-43.956535 -103.264664 -4.350519
-44.305344 -102.272339 -0.048926
-44.957893 -101.45845 -2.050457
-45.512276 -100.506149 -4.05024
-46.844139 -97.601273 -3.861996
-48.036713 -94.61525 -3.800287
-49.211121 -91.621689 -3.862329
-47.466576 -94.663605 7.225092
-48.005749 -93.706955 4.877131
-48.811974 -91.108231 4.671189
-48.538292 -92.633621 2.573069
-49.104282 -91.432556 0.316277
-49.745987 -90.111237 -1.887989
-43.823547 -103.168701 -10.3302
-42.398312 -105.155884 -12.415257
-42.00687 -105.050011 0.43015
-41.41505 -105.904182 -0.8199
-51.091623 -86.060189 1.846105
-50.555397 -86.676827 2.997403
-51.171458 -85.409088 2.813211
-52.310748 -84.13031 0.538755
-52.169365 -84.744629 -0.408266
-51.566302 -85.406769 0.714892
-42.716223 -103.154228 6.269599
-43.262291 -102.332779 7.623918
-43.179242 -102.819985 5.262738
-42.208308 -103.995071 4.962864
-42.716223 -103.154228 6.269599
-42.719611 -104.936394 -3.581533
-41.747785 -106.14701 -3.824942
-42.311367 -105.255905 -2.673512
-47.846276 -93.405327 7.139801
-47.56202 -93.874237 8.360235
-48.115862 -92.927002 5.96582
-47.736163 -94.18528 6.051112
-47.846276 -93.405327 7.139801
-50.750785 -88.001641 -3.082349
-50.118213 -89.400132 -2.959761
-50.378559 -88.712746 -2.010576
-51.488865 -86.589875 -3.20856
-50.750785 -88.001641 -3.082349
-53.08909 -83.898941 -3.517658
-53.364306 -83.346222 -2.612471
-41.731449 -105.54351 -14.28504
-41.546141 -106.173996 -13.416791
-42.58362 -104.525398 -13.283507
-41.887909 -104.908173 -15.123805
-41.731449 -105.54351 -14.28504
-42.158598 -103.403649 -16.67562
-43.181064 -101.560845 -16.468196
-44.906513 -99.96328 8.098695
-44.482408 -100.785194 6.78177
-44.111261 -101.157227 7.886398
-45.578518 -98.771637 8.257123
-44.906513 -99.96328 8.098695
-46.198999 -97.551895 8.366627
-45.898141 -98.371506 7.103571
-45.578518 -98.771637 8.257123
-44.111261 -101.157227 7.886398
-43.262291 -102.332779 7.623918
-47.573751 -95.610267 -6.855983
-47.94832 -94.769753 -5.861995
-41.90678 -105.598434 -1.719998
-41.41505 -105.904182 -0.8199
-42.878605 -104.387817 -1.476589
-42.311367 -105.255905 -2.673512
-41.90678 -105.598434 -1.719998
-50.142776 -87.28051 4.158749
-49.674711 -87.847237 5.34468
-50.062943 -87.931611 3.191644
-50.142776 -87.28051 4.158749
-50.555397 -86.676827 2.997403
-52.707266 -84.04921 -1.512029
-51.96282 -85.325669 -1.335893
-52.169365 -84.744629 -0.408266
-53.364306 -83.346222 -2.612471
-52.707266 -84.04921 -1.512029
-42.149412 -106.044807 -7.656559
-41.861466 -106.357628 -6.744698
-42.420101 -105.608825 -8.596478
-42.149412 -106.044807 -7.656559
-43.082899 -104.668068 -7.527598
-42.662661 -105.207443 -9.526718
-42.420101 -105.608825 -8.596478
-45.061481 -100.20726 -11.973766
-44.852043 -100.934028 -11.089987
-45.671681 -99.240287 -10.93892
-44.423738 -101.168305 -12.966033
-45.061481 -100.20726 -11.973766
-43.687281 -102.165261 -13.979494
-43.505387 -102.897957 -13.138295
-44.423738 -101.168305 -12.966033
-43.838327 -101.422371 -14.778533
-42.919975 -103.152023 -14.950795
-43.687281 -102.165261 -13.979494
-43.985594 -100.597138 -15.549948
-43.838327 -101.422371 -14.778533
-43.181064 -101.560845 -16.468196
-43.985594 -100.597138 -15.549948
-43.104746 -103.325348 2.95376
-42.538944 -104.179772 1.667447
-42.105524 -104.515252 2.669688
-51.769551 -84.195549 2.59967
-51.171458 -85.409088 2.813211
-52.439836 -83.572937 1.462882
-51.769551 -84.195549 2.59967
-41.598925 -104.833496 3.630702
-42.208308 -103.995071 4.962864
-42.105524 -104.515252 2.669688
-41.598925 -104.833496 3.630702
-47.149776 -96.502265 -7.899986
-46.899179 -97.214218 -6.924504
-47.573751 -95.610267 -6.855983
-46.707279 -97.385384 -8.897268
-47.149776 -96.502265 -7.899986
-46.200798 -98.315804 -9.940585
-45.968723 -99.036636 -9.011824
-46.707279 -97.385384 -8.897268
-45.671681 -99.240287 -10.93892
-46.200798 -98.315804 -9.940585
-41.161152 -106.993996 -4.948357
-41.747785 -106.14701 -3.824942
-41.533375 -106.719352 -5.81734
-41.161152 -106.993996 -4.948357
-42.484119 -105.465775 -5.660322
-41.861466 -106.357628 -6.744698
-41.533375 -106.719352 -5.81734
-43.006092 -103.860107 0.714222
-42.00687 -105.050011 0.43015
-42.538944 -104.179772 1.667447
-48.305099 -93.916268 -4.821888
-47.94832 -94.769753 -5.861995
-47.679934 -95.468735 -4.840394
-48.892303 -92.419487 -4.852909
-48.305099 -93.916268 -4.821888
-48.623917 -93.11847 -3.831308
-49.543819 -90.886955 -4.892323
-48.892303 -92.419487 -4.852909
-46.706813 -96.342087 8.412955
-46.198999 -97.551895 8.366627
-47.18079 -95.098007 8.418964
-47.56202 -93.874237 8.360235
-46.992599 -95.907685 7.219083
-46.706813 -96.342087 8.412955
-47.18079 -95.098007 8.418964
-49.289017 -89.084755 5.547865
-49.674711 -87.847237 5.34468
-48.869843 -90.371223 5.706964
-49.289017 -89.084755 5.547865
-49.231148 -89.821763 4.51209
-48.518974 -91.62764 5.862849
-48.869843 -90.371223 5.706964
-48.408862 -92.407593 4.77416
-48.115862 -92.927002 5.96582
-48.518974 -91.62764 5.862849
-49.85078 -90.155358 -3.946931
-49.478554 -90.866463 -2.875159
-50.118213 -89.400132 -2.959761
-49.543819 -90.886955 -4.892323
-49.85078 -90.155358 -3.946931
-52.23366 -85.247872 -3.361807
-51.488865 -86.589875 -3.20856
-51.755926 -85.972252 -2.28641
-52.23366 -85.247872 -3.361807
-53.08909 -83.898941 -3.517658
-52.310748 -84.13031 0.538755
-52.439836 -83.572937 1.462882
-42.89764 -104.67575 -10.458058
-42.662661 -105.207443 -9.526718
-43.588567 -103.700393 -9.398859
-42.185023 -105.669342 -11.500587
-42.89764 -104.67575 -10.458058
-43.110929 -104.162293 -11.372729
-41.361994 -106.67553 -12.513105
-42.185023 -105.669342 -11.500587
-40.509823 -107.693642 -13.514639
-41.361994 -106.67553 -12.513105
-41.546141 -106.173996 -13.416791
-42.038956 -104.165283 -15.922844
-41.887909 -104.908173 -15.123805
-42.919975 -103.152023 -14.950795
-42.038956 -104.165283 -15.922844
-42.158598 -103.403649 -16.67562
3 54 15 55
3 1 18 16
3 1 20 18
3 2 56 58
3 56 22 57
3 56 57 58
3 2 24 22
3 2 59 61
3 61 60 24
3 59 60 61
3 0 27 26
3 3 32 30
3 5 33 14
3 5 34 33
3 3 62 63
3 3 64 66
3 64 30 65
3 64 65 66
3 6 37 35
3 8 67 69
3 67 38 68
3 67 68 69
3 8 39 38
3 4 40 31
3 9 41 17
3 9 42 41
3 9 43 42
3 10 44 19
3 10 45 44
3 70 46 71
3 72 47 73
3 74 73 46
3 72 73 74
3 11 48 21
3 11 49 48
3 11 50 49
3 12 51 23
3 12 75 77
3 77 76 51
3 75 76 77
3 12 78 79
3 81 80 25
3 7 52 36
3 13 53 28
3 13 82 84
3 84 83 53
3 82 83 84
3 13 85 86
3 88 87 29
3 89 14 90
3 91 90 3
3 89 90 91
3 92 14 93
3 94 5 95
3 96 95 14
3 94 95 96
3 97 3 98
3 100 99 6
3 15 101 102
3 15 103 105
3 103 8 104
3 103 104 105
3 16 17 4
3 18 17 16
3 18 9 17
3 18 19 9
3 20 19 18
3 20 10 19
3 106 21 107
3 22 108 110
3 108 21 109
3 108 109 110
3 22 11 21
3 22 23 11
3 24 23 22
3 24 12 23
3 24 25 12
3 111 25 112
3 113 112 24
3 111 112 113
3 115 114 25
3 26 116 117
3 27 118 120
3 120 119 26
3 118 119 120
3 27 121 122
3 123 28 124
3 125 124 7
3 123 124 125
3 126 28 127
3 128 13 129
3 130 129 28
3 128 129 130
3 131 29 132
3 133 132 13
3 131 132 133
3 134 29 135
3 137 136 29
3 30 138 140
3 138 31 139
3 138 139 140
3 32 31 30
3 32 4 31
3 14 32 3
3 33 32 14
3 33 4 32
3 33 16 4
3 34 16 33
3 34 1 16
3 141 2 142
3 144 143 2
3 30 145 146
3 30 147 148
3 35 36 0
3 37 36 35
3 37 7 36
3 149 37 150
3 151 150 6
3 149 150 151
3 152 37 153
3 154 7 155
3 156 155 37
3 154 155 156
3 158 157 7
3 38 159 160
3 38 161 162
3 38 163 165
3 163 26 164
3 163 164 165
3 39 26 38
3 39 0 26
3 31 166 168
3 166 15 167
3 166 167 168
3 40 15 31
3 40 8 15
3 17 40 4
3 41 40 17
3 41 8 40
3 41 39 8
3 42 39 41
3 42 0 39
3 42 35 0
3 43 35 42
3 43 6 35
3 19 43 9
3 44 43 19
3 44 6 43
3 44 169 171
3 171 170 6
3 169 170 171
3 45 172 174
3 174 173 44
3 172 173 174
3 45 175 176
3 177 5 178
3 46 179 180
3 46 181 183
3 181 5 182
3 181 182 183
3 46 34 5
3 47 34 46
3 47 1 34
3 21 184 185
3 48 186 188
3 188 187 21
3 186 187 188
3 48 189 190
3 48 191 193
3 191 47 192
3 191 192 193
3 49 47 48
3 49 1 47
3 49 20 1
3 50 20 49
3 50 10 20
3 23 50 11
3 51 50 23
3 51 10 50
3 51 45 10
3 194 45 195
3 196 195 51
3 194 195 196
3 198 197 45
3 25 199 201
3 201 200 12
3 199 200 201
3 203 202 25
3 205 204 2
3 36 27 0
3 52 27 36
3 52 206 208
3 208 207 27
3 206 207 208
3 28 52 7
3 53 52 28
3 53 209 211
3 211 210 52
3 209 210 211
3 53 212 213
3 216 215 53
3 214 215 216
3 29 217 219
3 219 218 13
3 217 218 219
3 221 220 29
