ply
format ascii 1.0
element vertex 202
property float x
property float y
property float z
element face 179
property list uchar int vertex_index
end_header
-39.227745 -104.517731 -20.471245
-28.134079 -110.573593 -23.388523
-33.90892 -111.722214 -20.811638
-34.071095 -107.922363 -22.698399
-34.262367 -103.128738 -23.730389
-38.936657 -107.937851 -17.90097
-22.749039 -106.53952 -22.262402
-21.967106 -112.193909 -22.617714
-28.563578 -105.364975 -23.603123
-36.69223 -108.225204 -20.749702
-34.000351 -109.956696 -21.889599
-36.773708 -106.294418 -21.756489
-36.831028 -104.118454 -22.554985
-39.286163 -102.4431 -21.455284
-36.374043 -111.263077 -17.992622
-38.686157 -109.244492 -16.296293
-23.328394 -103.365005 -22.025124
-28.033651 -112.823792 -23.011169
-24.902176 -113.886734 -22.973419
-25.040724 -111.528717 -23.156696
-25.281666 -108.931885 -23.151501
-28.305708 -108.083618 -23.558659
-34.429596 -100.390793 -24.088943
-31.026506 -113.378937 -21.776779
-31.091948 -111.502625 -22.65324
-31.169361 -109.36058 -23.24625
-31.286072 -106.975281 -23.621716
-34.148895 -105.641846 -23.289608
-36.896744 -101.709213 -23.201843
-33.780952 -113.187698 -19.441238
-36.561699 -109.890549 -19.497646
-39.117401 -106.354782 -19.29438
-19.401768 -109.709244 -21.643326
-19.978065 -106.636169 -21.362564
-20.694675 -103.3284 -21.076805
-22.290241 -109.48468 -22.482357
-25.633427 -106.104538 -23.040943
-28.906326 -102.424606 -23.594704
-31.464251 -104.35994 -23.855598
-31.711765 -101.522385 -24.019665
-40.69397 -107.192108 -14.418324
-41.006889 -105.921432 -16.095854
-41.246174 -104.398163 -17.601406
-38.53492 -109.748475 -15.405624
-37.413635 -110.779022 -16.277539
-32.467713 -112.550575 -21.294208
-30.989002 -114.167908 -21.176437
-32.430209 -113.339546 -20.693867
-38.110872 -100.924255 -22.747175
-36.863886 -102.913834 -22.878414
-38.078015 -102.128875 -22.423746
-38.137897 -99.659019 -23.120651
-38.110872 -100.924255 -22.747175
-33.700183 -113.752914 -18.615271
-32.320728 -114.692611 -19.243496
-22.346731 -101.650253 -21.449571
-22.011534 -103.346702 -21.550964
-23.66359 -101.668556 -21.923731
-21.106617 -101.564804 -20.955706
-22.346731 -101.650253 -21.449571
-20.349806 -113.656205 -22.272568
-21.871977 -113.427505 -22.602721
-20.476508 -112.366219 -22.237242
-20.349806 -113.656205 -22.272568
-22.128674 -110.839294 -22.550035
-20.638075 -111.011604 -22.169564
-20.476508 -112.366219 -22.237242
-33.181083 -99.478653 -24.221184
-33.07068 -100.956589 -24.054304
-34.539999 -98.912857 -24.255823
-31.864805 -99.996254 -24.095719
-33.181083 -99.478653 -24.221184
-41.731449 -105.54351 -14.28504
-41.546141 -106.173996 -13.416791
-41.887909 -104.908173 -15.123805
-40.85043 -106.55677 -15.257089
-41.731449 -105.54351 -14.28504
-42.268641 -102.555359 -17.393982
-42.158598 -103.403649 -16.67562
-41.324776 -103.519058 -18.260435
-42.268641 -102.555359 -17.393982
-39.305582 -101.291199 -21.873895
-38.078015 -102.128875 -22.423746
-38.058596 -103.280777 -22.005134
-36.257578 -111.788315 -17.125704
-34.996729 -112.790604 -17.890963
-34.880264 -113.315842 -17.024044
-37.5301 -110.253784 -17.144458
-36.257578 -111.788315 -17.125704
-37.413635 -110.779022 -16.277539
-24.707712 -103.208931 -22.460638
-23.038716 -104.952262 -22.143763
-24.418034 -104.796188 -22.579277
-24.972903 -101.57521 -22.39853
-24.707712 -103.208931 -22.460638
-23.66359 -101.668556 -21.923731
-24.972903 -101.57521 -22.39853
-26.439037 -114.40728 -22.763897
-28.00664 -113.81913 -22.680025
-24.8733 -114.938751 -22.745022
-26.439037 -114.40728 -22.763897
-26.467914 -113.355263 -22.992294
-23.301495 -115.381408 -22.639383
-24.8733 -114.938751 -22.745022
-23.339512 -114.273918 -22.780573
-23.301495 -115.381408 -22.639383
-23.408786 -113.094909 -22.872211
-23.339512 -114.273918 -22.780573
-24.97145 -112.707726 -23.065058
-23.503915 -111.861313 -22.887205
-21.871977 -113.427505 -22.602721
-23.408786 -113.094909 -22.872211
-35.714119 -99.731743 -23.924408
-34.345981 -101.759766 -23.909666
-35.630505 -101.100716 -23.745131
-35.789198 -98.302368 -24.186998
-35.714119 -99.731743 -23.924408
-34.539999 -98.912857 -24.255823
-35.789198 -98.302368 -24.186998
-29.486854 -114.946877 -21.560144
-30.989002 -114.167908 -21.176437
-29.503068 -114.096702 -22.06283
-29.486854 -114.946877 -21.560144
-29.535789 -113.158546 -22.501061
-29.503068 -114.096702 -22.06283
-31.059227 -112.440781 -22.21501
-29.562799 -112.163208 -22.832204
-28.00664 -113.81913 -22.680025
-29.535789 -113.158546 -22.501061
-36.947693 -100.390953 -23.480857
-35.630505 -101.100716 -23.745131
-35.579555 -102.418976 -23.466116
-36.947693 -100.390953 -23.480857
-38.137897 -99.659019 -23.120651
-32.366225 -114.072288 -20.008667
-32.320728 -114.692611 -19.243496
-33.844936 -112.454956 -20.126438
-32.430209 -113.339546 -20.693867
-32.366225 -114.072288 -20.008667
-35.077497 -112.225387 -18.71693
-33.700183 -113.752914 -18.615271
-34.996729 -112.790604 -17.890963
-18.037948 -109.644959 -21.178253
-17.780299 -111.123138 -21.299293
-18.326097 -108.108421 -21.037872
-18.037948 -109.644959 -21.178253
-19.689917 -108.172707 -21.502945
-18.675831 -106.504486 -20.888832
-17.023862 -107.976738 -20.564141
-18.326097 -108.108421 -21.037872
-19.034135 -104.850602 -20.745953
-18.675831 -106.504486 -20.888832
-20.33637 -104.982284 -21.219684
-19.463729 -103.127823 -20.597673
-19.034135 -104.850602 -20.745953
-19.463729 -103.127823 -20.597673
-21.106617 -101.564804 -20.955706
-19.193838 -111.123886 -21.750048
-17.780299 -111.123138 -21.299293
-20.846004 -109.596962 -22.062841
-19.193838 -111.123886 -21.750048
-20.638075 -111.011604 -22.169564
-25.860228 -104.578697 -22.968547
-24.418034 -104.796188 -22.579277
-24.191233 -106.322029 -22.651673
-27.496678 -102.738731 -23.245428
-25.860228 -104.578697 -22.968547
-27.269877 -104.264572 -23.317823
-29.110637 -100.847412 -23.592535
-27.496678 -102.738731 -23.245428
-30.462086 -100.447364 -23.883238
-30.309045 -101.973495 -23.807184
-31.864805 -99.996254 -24.095719
-29.110637 -100.847412 -23.592535
-30.462086 -100.447364 -23.883238
-40.509823 -107.693642 -13.514639
-41.546141 -106.173996 -13.416791
-39.538826 -108.722283 -14.46664
-40.509823 -107.693642 -13.514639
-39.690064 -108.2183 -15.357308
-38.53492 -109.748475 -15.405624
-39.538826 -108.722283 -14.46664
-42.038956 -104.165283 -15.922844
-41.887909 -104.908173 -15.123805
-41.126531 -105.159797 -16.84863
-42.038956 -104.165283 -15.922844
-42.158598 -103.403649 -16.67562
-40.26039 -104.497368 -19.106922
-40.181787 -105.376473 -18.447893
-41.324776 -103.519058 -18.260435
-40.315562 -103.578843 -19.695355
-39.172573 -105.436256 -19.882812
-40.26039 -104.497368 -19.106922
-40.357681 -102.588394 -20.26683
-40.315562 -103.578843 -19.695355
-40.38689 -101.551079 -20.75885
-39.256954 -103.480415 -20.963265
-40.357681 -102.588394 -20.26683
-40.406036 -100.451401 -21.260843
-40.38689 -101.551079 -20.75885
-39.305582 -101.291199 -21.873895
-40.406036 -100.451401 -21.260843
3 0 11 9
3 0 13 11
3 43 15 44
3 1 18 17
3 1 19 18
3 1 21 19
3 2 45 47
3 45 23 46
3 45 46 47
3 3 24 10
3 3 25 24
3 3 27 25
3 48 28 49
3 50 49 12
3 48 49 50
3 52 51 28
3 53 29 54
3 5 30 14
3 5 31 30
3 6 33 32
3 55 34 56
3 57 56 16
3 55 56 57
3 59 58 34
3 7 60 61
3 7 62 63
3 7 64 66
3 64 35 65
3 64 65 66
3 8 36 20
3 8 37 36
3 4 38 26
3 67 39 68
3 69 68 22
3 67 68 69
3 71 70 39
3 72 40 73
3 74 41 75
3 76 75 40
3 74 75 76
3 77 42 78
3 80 79 42
3 9 10 2
3 11 10 9
3 11 3 10
3 11 12 3
3 13 12 11
3 13 81 83
3 83 82 12
3 81 82 83
3 84 14 85
3 84 85 86
3 15 87 89
3 87 14 88
3 87 88 89
3 15 5 14
3 90 16 91
3 92 91 6
3 90 91 92
3 93 16 94
3 96 95 16
3 17 97 98
3 18 99 101
3 101 100 17
3 99 100 101
3 18 102 103
3 18 104 105
3 19 106 108
3 108 107 18
3 106 107 108
3 19 109 111
3 109 7 110
3 109 110 111
3 19 20 7
3 21 20 19
3 21 8 20
3 112 22 113
3 114 113 4
3 112 113 114
3 115 22 116
3 118 117 22
3 23 119 120
3 23 121 122
3 10 23 2
3 24 23 10
3 24 123 125
3 125 124 23
3 123 124 125
3 24 126 128
3 126 17 127
3 126 127 128
3 25 17 24
3 25 1 17
3 25 26 1
3 27 26 25
3 27 4 26
3 12 27 3
3 28 27 12
3 28 4 27
3 28 129 131
3 131 130 4
3 129 130 131
3 133 132 28
3 29 134 135
3 29 136 138
3 136 2 137
3 136 137 138
3 14 139 141
3 139 29 140
3 139 140 141
3 30 29 14
3 30 2 29
3 30 9 2
3 31 9 30
3 31 0 9
3 32 142 143
3 33 144 146
3 146 145 32
3 144 145 146
3 33 147 149
3 147 148 149
3 16 33 6
3 34 33 16
3 34 150 152
3 152 151 33
3 150 151 152
3 34 153 154
3 156 155 34
3 157 32 158
3 35 159 161
3 159 32 160
3 159 160 161
3 35 6 32
3 20 35 7
3 36 35 20
3 36 6 35
3 36 162 164
3 164 163 6
3 162 163 164
3 37 165 167
3 167 166 36
3 165 166 167
3 37 168 169
3 26 21 1
3 38 21 26
3 38 8 21
3 22 38 4
3 39 38 22
3 39 8 38
3 39 37 8
3 170 37 171
3 172 171 39
3 170 171 172
3 174 173 37
3 40 175 176
3 40 177 178
3 40 179 181
3 179 15 180
3 179 180 181
3 41 15 40
3 41 5 15
3 182 41 183
3 42 184 186
3 184 41 185
3 184 185 186
3 42 5 41
3 42 31 5
3 187 31 188
3 189 188 42
3 187 188 189
3 190 0 191
3 192 191 31
3 190 191 192
3 193 0 194
3 195 13 196
3 197 196 0
3 195 196 197
3 198 13 199
3 201 200 13
