ply
format ascii 1.0
element vertex 222
property float x
property float y
property float z
element face 195
property list uchar int vertex_index
end_header
1.287533 -112.346069 9.740324
-3.12326 -106.666702 31.340057
0.000381 -114.857574 19.251377
-1.681715 -122.978607 4.881916
-5.109737 -102.861359 36.368122
-2.35158 -119.455505 16.788845
-0.244686 -119.219437 12.249696
-3.559452 -101.58287 31.34782
-1.076462 -110.595032 25.663275
0.683617 -109.268784 20.699497
1.294823 -113.753754 14.422335
0.529457 -118.148346 7.579461
-2.656389 -121.501587 13.18915
0.920073 -111.605682 7.576805
0.900688 -114.570023 6.537403
-4.207834 -104.767715 33.920929
-4.255182 -102.329483 33.916737
-3.209227 -104.178207 31.46735
-2.046143 -106.044098 28.885849
-0.37923 -112.685486 22.544287
-0.037134 -110.002457 23.220898
0.565845 -112.144012 20.118444
1.172104 -111.47493 17.640472
0.821215 -114.369003 16.84885
-0.831512 -121.225586 8.597958
0.300217 -118.76387 9.900546
-0.407196 -120.725677 6.273749
-0.254721 -120.040451 4.003826
-1.347704 -122.392654 2.585512
-0.98575 -117.322647 18.122749
0.041945 -117.062912 15.810097
-1.130816 -119.468018 14.568202
-1.57679 -121.499832 10.923687
-2.298992 -123.31871 7.214334
-4.738621 -97.203522 33.398098
-5.012218 -100.461975 36.267044
-4.467737 -99.787277 33.709885
-2.028347 -108.596146 28.594206
-0.940386 -107.972855 26.142895
1.438652 -110.744537 15.18033
1.435877 -113.066895 12.035477
0.724182 -116.608459 13.43442
1.065849 -116.015427 11.061554
1.102638 -115.327469 8.747383
0.502108 -117.407303 5.335688
1.103803 -111.975876 8.658565
0.993324 -110.445343 9.05757
1.177055 -110.815537 10.139329
-0.189424 -113.77153 20.897832
-0.768376 -113.91951 22.051293
-0.57857 -115.005554 20.404839
-2.219318 -123.684639 3.008258
-2.052313 -123.391662 1.860056
-1.514709 -122.685631 3.733714
-2.344828 -118.390228 18.544936
-3.113345 -119.290809 17.815376
-1.668665 -118.389076 17.455797
-1.661913 -117.323799 19.211888
-2.344828 -118.390228 18.544936
-2.406484 -122.435379 10.224483
-2.116589 -121.500709 12.056418
-2.946284 -122.436256 11.357215
-2.767586 -123.344818 8.369807
-1.937891 -122.409271 9.06901
-2.406484 -122.435379 10.224483
-3.185706 -124.144836 6.515916
-2.767586 -123.344818 8.369807
-4.863786 -97.584572 34.701746
-4.843354 -96.31942 34.533352
-5.060977 -101.661667 36.317583
-5.342373 -100.693023 37.491358
-5.391133 -101.892715 37.541897
-3.814538 -100.26239 31.214882
-4.268681 -99.364593 32.395915
-4.013594 -100.685074 32.528852
-3.305947 -101.129318 30.027849
-3.814538 -100.26239 31.214882
-1.742007 -110.781945 26.809363
-1.359811 -111.810242 25.253753
-1.552405 -109.595589 27.12874
-2.217949 -109.782501 28.274829
-1.742007 -110.781945 26.809363
0.271319 -108.227654 22.14501
-0.089057 -108.59449 23.40571
0.323242 -109.635621 21.960197
0.517997 -107.791756 20.853665
0.271319 -108.227654 22.14501
0.879217 -108.86869 19.435614
0.517997 -107.791756 20.853665
-0.274863 -119.61924 2.91878
-0.740825 -120.818794 2.189316
-3.201574 -120.319114 16.057418
-3.113345 -119.290809 17.815376
-3.963339 -120.154419 17.08395
-3.353978 -121.342155 14.257571
-2.503984 -120.478546 14.988997
-3.201574 -120.319114 16.057418
-3.574891 -122.297432 12.469145
-3.353978 -121.342155 14.257571
-2.946284 -122.436256 11.357215
-3.574891 -122.297432 12.469145
0.733659 -110.096748 8.005485
0.993324 -110.445343 9.05757
0.671254 -111.219109 6.575318
0.733659 -110.096748 8.005485
0.734208 -112.675522 6.022571
0.671254 -111.219109 6.575318
0.724515 -114.157692 5.50287
0.734208 -112.675522 6.022571
0.910381 -113.087852 7.057104
0.601989 -115.563591 4.874244
0.724515 -114.157692 5.50287
-2.812692 -103.780654 30.180321
-2.987805 -102.482986 30.120556
-3.384339 -102.880539 31.407585
-2.23115 -104.7136 28.88957
-2.812692 -103.780654 30.180321
-2.627685 -105.111153 30.1766
-1.632657 -105.639412 27.601112
-2.23115 -104.7136 28.88957
-1.011195 -112.855469 23.694259
-0.768376 -113.91951 22.051293
-0.727846 -111.640259 24.103781
-1.359811 -111.810242 25.253753
-1.011195 -112.855469 23.694259
-1.287316 -121.994895 1.48016
-0.740825 -120.818794 2.189316
-0.801212 -121.216553 3.294669
-1.911348 -123.039017 0.73294
-1.287316 -121.994895 1.48016
-2.615957 -124.038025 0.007485
-1.911348 -123.039017 0.73294
-2.052313 -123.391662 1.860056
1.337549 -111.175323 11.268973
1.177055 -110.815537 10.139329
-5.593447 -102.996453 37.517404
-5.391133 -101.892715 37.541897
-5.238894 -103.977127 36.288877
-5.593447 -102.996453 37.517404
-4.787943 -104.930306 35.065281
-4.658786 -103.814537 35.144526
-5.238894 -103.977127 36.288877
-4.309703 -105.900566 33.772661
-4.787943 -104.930306 35.065281
-3.767416 -106.85006 32.482225
-3.665547 -105.717208 32.630493
-4.309703 -105.900566 33.772661
-1.071636 -116.23809 19.840525
-1.661913 -117.323799 19.211888
-0.492685 -116.090111 18.687063
-0.57857 -115.005554 20.404839
-1.071636 -116.23809 19.840525
-2.784518 -124.075561 5.339962
-2.47588 -123.90551 4.173753
-1.990354 -123.148658 6.048125
-2.784518 -124.075561 5.339962
-3.185706 -124.144836 6.515916
-4.848285 -95.916817 33.227869
-4.843354 -96.31942 34.533352
-4.67691 -96.75531 32.079696
-4.848285 -95.916817 33.227869
-5.181002 -99.509903 37.407142
-5.511158 -99.740951 38.631456
-5.342373 -100.693023 37.491358
-5.000585 -99.213798 36.136219
-5.169369 -98.261726 37.276318
-5.181002 -99.509903 37.407142
-4.728344 -98.87645 34.85764
-5.000585 -99.213798 36.136219
-4.739978 -100.124626 34.988464
-4.603179 -98.4954 33.553991
-4.863786 -97.584572 34.701746
-4.728344 -98.87645 34.85764
-4.404122 -98.072716 32.240021
-4.603179 -98.4954 33.553991
-4.268681 -99.364593 32.395915
-4.67691 -96.75531 32.079696
-4.404122 -98.072716 32.240021
-3.305947 -101.129318 30.027849
-2.987805 -102.482986 30.120556
-3.247607 -107.823593 31.11014
-3.767416 -106.85006 32.482225
-3.891763 -108.006951 32.252308
-2.700151 -108.788315 29.737214
-2.217949 -109.782501 28.274829
-2.575804 -107.631424 29.967132
-3.247607 -107.823593 31.11014
-2.700151 -108.788315 29.737214
-1.079779 -106.603791 26.229634
-1.632657 -105.639412 27.601112
-1.493264 -107.008477 27.514372
-0.540683 -107.579689 24.866709
-0.48876 -108.987656 24.681897
-0.089057 -108.59449 23.40571
-1.079779 -106.603791 26.229634
-0.540683 -107.579689 24.866709
1.123461 -109.971764 17.906101
0.879217 -108.86869 19.435614
0.92786 -110.371857 19.169984
1.256735 -109.606567 16.67603
1.123461 -109.971764 17.906101
1.305378 -111.109734 16.410401
1.290709 -109.205513 15.441762
1.256735 -109.606567 16.67603
1.413108 -110.374557 13.988975
1.290709 -109.205513 15.441762
1.41172 -111.535736 12.416549
1.413108 -110.374557 13.988975
1.437264 -111.905716 13.607903
1.361705 -112.706482 10.887901
1.337549 -111.175323 11.268973
1.41172 -111.535736 12.416549
0.402699 -116.982231 4.273386
0.601989 -115.563591 4.874244
0.701398 -115.988663 5.936546
0.103551 -118.302666 3.584711
0.123694 -118.723877 4.669757
-0.274863 -119.61924 2.91878
0.402699 -116.982231 4.273386
0.103551 -118.302666 3.584711
-2.219318 -123.684639 3.008258
-2.47588 -123.90551 4.173753
3 0 45 47
3 45 13 46
3 45 46 47
3 0 14 13
3 1 17 15
3 1 18 17
3 2 48 50
3 48 19 49
3 48 49 50
3 2 21 19
3 2 23 21
3 3 26 24
3 3 28 26
3 3 51 53
3 53 52 28
3 51 52 53
3 5 54 55
3 5 56 58
3 56 29 57
3 56 57 58
3 5 31 29
3 59 32 60
3 61 60 12
3 59 60 61
3 62 33 63
3 64 63 32
3 62 63 64
3 66 65 33
3 67 34 68
3 4 69 71
3 69 35 70
3 69 70 71
3 7 36 16
3 7 72 74
3 74 73 36
3 72 73 74
3 7 75 76
3 8 77 78
3 8 79 81
3 79 37 80
3 79 80 81
3 8 38 37
3 9 82 84
3 84 83 20
3 82 83 84
3 9 85 86
3 9 87 88
3 10 39 22
3 10 40 39
3 6 41 30
3 11 42 25
3 11 43 42
3 11 44 43
3 90 89 27
3 91 5 92
3 91 92 93
3 94 12 95
3 96 95 5
3 94 95 96
3 97 12 98
3 100 99 12
3 13 101 102
3 13 103 104
3 13 105 106
3 14 107 109
3 109 108 13
3 107 108 109
3 14 110 111
3 15 16 4
3 17 16 15
3 17 7 16
3 17 112 114
3 114 113 7
3 112 113 114
3 18 115 117
3 117 116 17
3 115 116 117
3 18 118 119
3 19 120 121
3 19 122 124
3 122 8 123
3 122 123 124
3 19 20 8
3 21 20 19
3 21 9 20
3 21 22 9
3 23 22 21
3 23 10 22
3 24 25 6
3 26 25 24
3 26 11 25
3 26 27 11
3 28 27 26
3 28 125 127
3 127 126 27
3 125 126 127
3 28 128 129
3 132 131 28
3 130 131 132
3 133 0 134
3 135 4 136
3 137 4 138
3 139 15 140
3 141 140 4
3 139 140 141
3 142 15 143
3 144 1 145
3 146 145 15
3 144 145 146
3 29 147 148
3 29 149 151
3 149 2 150
3 149 150 151
3 29 30 2
3 31 30 29
3 31 6 30
3 12 31 5
3 32 31 12
3 32 6 31
3 32 24 6
3 33 24 32
3 33 3 24
3 33 152 154
3 154 153 3
3 152 153 154
3 156 155 33
3 34 157 158
3 34 159 160
3 35 161 163
3 161 162 163
3 35 164 166
3 164 165 166
3 16 35 4
3 36 35 16
3 36 167 169
3 169 168 35
3 167 168 169
3 36 170 172
3 170 34 171
3 170 171 172
3 173 34 174
3 175 174 36
3 173 174 175
3 177 176 34
3 179 178 7
3 180 1 181
3 180 181 182
3 37 183 184
3 37 185 187
3 185 1 186
3 185 186 187
3 37 18 1
3 38 18 37
3 38 188 190
3 190 189 18
3 188 189 190
3 20 38 8
3 191 38 192
3 193 192 20
3 191 192 193
3 195 194 38
3 22 196 198
3 198 197 9
3 196 197 198
3 39 199 201
3 201 200 22
3 199 200 201
3 39 202 203
3 39 204 205
3 40 206 208
3 208 207 39
3 206 207 208
3 40 209 211
3 209 0 210
3 209 210 211
3 30 23 2
3 41 23 30
3 41 10 23
3 25 41 6
3 42 41 25
3 42 10 41
3 42 40 10
3 43 40 42
3 43 0 40
3 43 14 0
3 44 14 43
3 44 212 214
3 214 213 14
3 212 213 214
3 27 44 11
3 215 44 216
3 217 216 27
3 215 216 217
3 219 218 44
3 221 220 3
