ply
format ascii 1.0
element vertex 246
property float x
property float y
property float z
element face 243
property list uchar int vertex_index
end_header
-11.488285 -78.566772 6.409495
-9.163219 -80.607254 12.313556
-4.517588 -71.774597 11.751742
-10.239424 -75.039536 5.499653
-11.544174 -74.976318 2.468179
-12.637691 -79.588593 3.928304
-7.996157 -81.633194 16.261808
-8.246586 -86.058731 16.247568
-5.284277 -78.648438 20.319653
-6.052387 -77.329361 16.070841
-10.491348 -79.628021 8.881107
-11.128906 -84.14241 8.831125
-3.372252 -72.864807 15.780493
-7.148821 -76.267342 12.099067
-8.605165 -75.423981 8.595432
-6.169491 -70.868896 8.05946
-11.030132 -77.063034 5.979619
-11.71813 -77.241524 4.591256
-12.124548 -79.056213 5.282143
-7.490238 -82.255569 18.362106
-8.372475 -83.817657 16.275677
-7.814356 -84.443375 18.37953
-6.311924 -80.809776 20.445192
-6.729755 -80.104393 18.292196
-12.478638 -77.594452 1.68996
-11.831009 -74.855957 0.965178
-9.823429 -80.131233 10.515786
-11.025911 -81.832169 8.878763
-10.328856 -82.357605 10.532385
-1.702353 -71.086998 17.803169
-3.005045 -73.481979 17.889343
-7.70142 -78.931221 14.164153
-6.550791 -76.771194 14.037382
-8.293793 -78.432648 12.234839
-8.952969 -77.963326 10.434298
-3.200033 -69.362534 11.613988
-5.292229 -71.298187 9.863708
-7.432306 -73.227585 8.329041
-6.595566 -73.611145 10.076262
-9.212864 -72.694366 5.041702
-10.003799 -72.481842 3.448187
-10.984938 -75.012688 3.984488
-12.239697 -77.457481 3.147725
-12.860209 -80.033974 2.51501
-8.550533 -81.094063 14.238337
-9.633005 -82.821671 12.333979
-8.976858 -83.289551 14.255445
-4.054247 -76.44339 20.169189
-4.353689 -75.759766 18.025833
-5.639685 -77.953278 18.172453
-7.184326 -79.481339 16.192024
-1.316179 -67.386299 13.576282
-2.554333 -69.906021 13.617093
-10.610655 -72.233032 1.876822
-11.090761 -79.084671 7.464862
-12.084583 -80.329857 6.191787
-11.651083 -81.180885 7.412093
-10.369137 -84.651947 10.504663
-7.645945 -86.695755 18.361713
-2.05509 -70.47908 15.686292
-3.874166 -72.296738 13.727604
-4.738047 -75.137413 15.921577
-5.234676 -74.573929 13.880189
-5.855732 -74.06456 11.926208
-7.840992 -75.812424 10.280883
-9.646317 -77.519623 8.793617
-10.329185 -77.153549 7.335767
-8.326427 -72.927032 6.66153
-9.417482 -75.156067 7.020934
-12.687611 -81.291512 4.853419
-7.413276 -83.708378 19.451953
-7.652297 -83.349472 18.370818
-7.251217 -82.614475 19.443241
-6.66206 -81.891579 20.484784
-6.106822 -81.200207 21.542567
-7.251217 -82.614475 19.443241
-6.901081 -81.532672 19.403649
-6.66206 -81.891579 20.484784
-12.426821 -77.588524 0.969804
-12.598043 -78.954041 1.396168
-2.87776 -73.815956 18.959993
-2.243771 -72.607628 18.917245
-8.574908 -85.797676 15.23751
-8.637853 -84.677139 15.251565
-8.309531 -84.938194 16.261623
-8.281468 -86.953392 15.212026
-8.574908 -85.797676 15.23751
-4.543814 -77.915329 21.327281
-5.117954 -79.028419 21.408949
-4.669262 -77.545914 20.244421
-3.928799 -76.812805 21.252049
-4.543814 -77.915329 21.327281
-1.079214 -67.675106 14.622314
-0.530129 -66.353745 14.657107
-1.698291 -68.934967 14.64272
-1.935256 -68.64616 13.596688
-1.079214 -67.675106 14.622314
-11.400096 -73.378464 0.649707
-11.818141 -74.729065 0.228688
-11.481008 -83.808228 8.07162
-11.42951 -82.653107 8.095439
-11.077409 -82.98729 8.854944
-11.329878 -85.018394 8.021339
-11.481008 -83.808228 8.07162
-9.99232 -84.870728 11.406918
-10.001071 -83.736809 11.419321
-9.624254 -83.95559 12.321576
-7.370525 -87.076866 19.463323
-7.467326 -85.937531 19.459543
-5.512249 -69.606632 7.944827
-5.073373 -69.856361 8.872595
-6.635009 -70.674835 7.191249
-5.512249 -69.606632 7.944827
-7.247959 -71.897964 7.360495
-7.713477 -71.703903 6.492284
-6.635009 -70.674835 7.191249
-12.539266 -81.924984 5.415415
-12.386097 -80.810685 5.522603
-12.237752 -81.444157 6.084599
-5.631777 -80.109088 21.471719
-6.106822 -81.200207 21.542567
-5.798101 -79.729107 20.382422
-5.117954 -79.028419 21.408949
-5.631777 -80.109088 21.471719
-12.103006 -76.219277 0.607414
-12.154823 -76.225205 1.327569
-12.426821 -77.588524 0.969804
-11.818141 -74.729065 0.228688
-12.103006 -76.219277 0.607414
-1.592424 -71.410137 18.874159
-1.013624 -70.131332 18.874457
-0.903696 -70.454472 19.945446
-2.353699 -72.284488 17.846256
-1.592424 -71.410137 18.874159
-2.243771 -72.607628 18.917245
-3.588644 -69.10318 10.649859
-2.565637 -68.08979 11.576824
-4.634742 -70.071007 9.774719
-3.588644 -69.10318 10.649859
-4.246131 -70.33036 10.738848
-5.73086 -71.083541 8.961584
-5.073373 -69.856361 8.872595
-4.634742 -70.071007 9.774719
-9.608332 -72.588104 4.244944
-9.010551 -71.297485 4.042193
-8.615084 -71.403748 4.83895
-12.788828 -80.173801 1.808693
-12.598043 -78.954041 1.396168
-12.669424 -78.814213 2.102485
-9.296181 -84.189529 13.28231
-9.624254 -83.95559 12.321576
-9.304932 -83.055611 13.294712
-8.940044 -84.413086 14.241449
-8.674667 -83.553604 15.265561
-8.637853 -84.677139 15.251565
-9.296181 -84.189529 13.28231
-8.940044 -84.413086 14.241449
-3.314713 -75.653667 21.177516
-3.928799 -76.812805 21.252049
-3.402361 -75.296661 20.099916
-3.314713 -75.653667 21.177516
-4.203968 -76.101578 19.097511
-3.552082 -74.954849 19.028238
-3.402361 -75.296661 20.099916
-0.738629 -66.063748 13.595367
-0.530129 -66.353745 14.657107
-1.623711 -67.101673 12.557971
-0.738629 -66.063748 13.595367
-2.258106 -68.374416 12.595135
-2.565637 -68.08979 11.576824
-1.623711 -67.101673 12.557971
-9.423009 -71.107826 3.21776
-9.010551 -71.297485 4.042193
-9.726437 -70.983421 2.432078
-9.423009 -71.107826 3.21776
-10.307227 -72.357437 2.662504
-10.057686 -70.770805 1.625386
-9.726437 -70.983421 2.432078
-10.789919 -72.067001 1.10553
-11.220832 -73.544494 1.421
-11.400096 -73.378464 0.649707
-10.057686 -70.770805 1.625386
-10.789919 -72.067001 1.10553
-12.021002 -81.869671 6.694752
-12.237752 -81.444157 6.084599
-11.867833 -80.755371 6.80194
-11.742096 -82.327465 7.362104
-11.338497 -81.506527 8.145428
-11.42951 -82.653107 8.095439
-12.021002 -81.869671 6.694752
-11.742096 -82.327465 7.362104
-10.135445 -85.829834 10.479477
-9.99232 -84.870728 11.406918
-10.55201 -85.592842 9.636355
-10.135445 -85.829834 10.479477
-10.931895 -85.338074 8.799586
-10.749022 -84.397178 9.667894
-10.55201 -85.592842 9.636355
-11.329878 -85.018394 8.021339
-10.931895 -85.338074 8.799586
-7.551531 -84.811341 19.468452
-7.413276 -83.708378 19.451953
-7.730151 -85.569565 18.370621
-7.551531 -84.811341 19.468452
-7.467326 -85.937531 19.459543
-7.319586 -87.864578 18.350076
-7.370525 -87.076866 19.463323
-7.631382 -87.535111 17.282528
-7.319586 -87.864578 18.350076
-7.931703 -87.216599 16.225455
-7.946266 -86.377243 17.304641
-7.631382 -87.535111 17.282528
-8.281468 -86.953392 15.212026
-7.931703 -87.216599 16.225455
-1.107962 -69.822536 17.80093
-1.013624 -70.131332 18.874457
-1.28433 -69.518577 16.742491
-1.107962 -69.822536 17.80093
-1.878721 -70.783039 16.74473
-1.448669 -69.221497 15.677319
-1.28433 -69.518577 16.742491
-2.304711 -70.19255 14.651692
-1.698291 -68.934967 14.64272
-1.448669 -69.221497 15.677319
-3.679367 -74.620872 17.957588
-2.87776 -73.815956 18.959993
-3.552082 -74.954849 19.028238
-8.156695 -71.58757 5.68237
-8.615084 -71.403748 4.83895
-8.769645 -72.810699 5.851616
-8.156695 -71.58757 5.68237
-7.713477 -71.703903 6.492284
-12.700458 -82.520375 4.70091
-12.539266 -81.924984 5.415415
-12.81398 -81.695645 4.156232
-12.700458 -82.520375 4.70091
-12.78902 -80.844185 3.693675
-12.662651 -80.440053 4.390861
-12.81398 -81.695645 4.156232
-12.900278 -81.066876 2.987027
-12.74895 -79.811284 3.221657
-12.78902 -80.844185 3.693675
-12.830592 -81.375721 2.286892
-12.900278 -81.066876 2.987027
-12.788828 -80.173801 1.808693
-12.830592 -81.375721 2.286892
3 0 18 16
3 70 21 71
3 72 71 19
3 70 71 72
3 73 22 74
3 75 19 76
3 77 76 22
3 75 76 77
3 79 78 24
3 1 28 26
3 80 30 81
3 1 33 31
3 1 26 33
3 2 36 35
3 2 38 36
3 3 41 39
3 5 42 17
3 5 43 42
3 6 46 44
3 7 82 84
3 84 83 20
3 82 83 84
3 7 85 86
3 8 87 88
3 8 89 91
3 89 47 90
3 89 90 91
3 8 49 47
3 6 50 23
3 6 44 50
3 92 51 93
3 94 52 95
3 96 95 51
3 94 95 96
3 4 53 40
3 98 97 25
3 10 56 54
3 11 99 101
3 101 100 27
3 99 100 101
3 11 102 103
3 104 57 105
3 106 105 45
3 104 105 106
3 107 58 108
3 12 59 29
3 12 60 59
3 9 61 48
3 13 62 32
3 13 63 62
3 13 64 63
3 10 65 34
3 10 54 65
3 15 109 110
3 15 111 112
3 15 113 115
3 113 67 114
3 113 114 115
3 14 68 37
3 14 66 68
3 116 69 117
3 118 117 55
3 116 117 118
3 16 17 3
3 18 17 16
3 18 5 17
3 19 20 6
3 21 20 19
3 21 7 20
3 22 119 120
3 22 121 123
3 121 8 122
3 121 122 123
3 22 23 8
3 19 23 22
3 19 6 23
3 24 25 4
3 124 25 125
3 126 125 24
3 124 125 126
3 128 127 25
3 26 27 10
3 28 27 26
3 28 11 27
3 129 29 130
3 129 130 131
3 30 132 134
3 132 29 133
3 132 133 134
3 30 12 29
3 31 32 9
3 33 32 31
3 33 13 32
3 33 34 13
3 26 34 33
3 26 10 34
3 35 135 136
3 36 137 139
3 139 138 35
3 137 138 139
3 36 140 142
3 140 15 141
3 140 141 142
3 36 37 15
3 38 37 36
3 38 14 37
3 39 143 145
3 143 40 144
3 143 144 145
3 41 40 39
3 41 4 40
3 17 41 3
3 42 41 17
3 42 4 41
3 42 24 4
3 43 24 42
3 43 146 148
3 148 147 24
3 146 147 148
3 44 45 1
3 46 45 44
3 46 149 151
3 151 150 45
3 149 150 151
3 20 46 6
3 152 46 153
3 154 153 20
3 152 153 154
3 156 155 46
3 47 157 158
3 47 159 160
3 47 161 163
3 161 48 162
3 161 162 163
3 49 48 47
3 49 9 48
3 23 49 8
3 50 49 23
3 50 9 49
3 50 31 9
3 44 31 50
3 44 1 31
3 51 164 165
3 51 166 167
3 51 168 170
3 168 35 169
3 168 169 170
3 52 35 51
3 52 2 35
3 40 171 172
3 53 173 175
3 175 174 40
3 173 174 175
3 53 176 177
3 25 53 4
3 178 53 179
3 180 179 25
3 178 179 180
3 182 181 53
3 54 55 0
3 56 55 54
3 56 183 185
3 185 184 55
3 183 184 185
3 27 56 10
3 186 56 187
3 188 187 27
3 186 187 188
3 190 189 56
3 45 28 1
3 57 28 45
3 57 11 28
3 191 57 192
3 193 57 194
3 195 11 196
3 197 196 57
3 195 196 197
3 199 198 11
3 200 21 201
3 58 202 204
3 202 21 203
3 202 203 204
3 58 7 21
3 205 58 206
3 207 58 208
3 209 7 210
3 211 210 58
3 209 210 211
3 213 212 7
3 29 214 215
3 59 216 218
3 218 217 29
3 216 217 218
3 59 219 220
3 59 221 223
3 221 52 222
3 221 222 223
3 60 52 59
3 60 2 52
3 48 224 226
3 224 30 225
3 224 225 226
3 61 30 48
3 61 12 30
3 32 61 9
3 62 61 32
3 62 12 61
3 62 60 12
3 63 60 62
3 63 2 60
3 63 38 2
3 64 38 63
3 64 14 38
3 34 64 13
3 65 64 34
3 65 14 64
3 65 66 14
3 54 66 65
3 54 0 66
3 227 39 228
3 67 229 231
3 229 39 230
3 229 230 231
3 67 3 39
3 37 67 15
3 68 67 37
3 68 3 67
3 68 16 3
3 66 16 68
3 66 0 16
3 55 18 0
3 69 18 55
3 69 5 18
3 232 69 233
3 234 69 235
3 236 5 237
3 238 237 69
3 236 237 238
3 239 43 240
3 241 240 5
3 239 240 241
3 242 43 243
3 245 244 43
