ply
format ascii 1.0
element vertex 210
property float x
property float y
property float z
element face 199
property list uchar int vertex_index
end_header
34.883873 -93.958 -23.873701
27.14016 -77.567055 -21.449865
29.223103 -87.831116 -22.990675
38.435413 -95.645271 -23.745611
44.025726 -88.799484 -24.040495
40.687157 -87.45845 -24.924772
37.428879 -85.355507 -25.304251
22.866024 -86.820457 -19.456625
23.739681 -92.205353 -20.586348
27.660194 -83.211777 -22.21739
32.286602 -78.409485 -25.147696
32.076988 -101.92276 -22.843378
28.519815 -99.698875 -22.370321
25.662737 -96.488091 -21.596987
31.714642 -91.389351 -23.570326
34.542114 -82.371536 -25.362745
36.634102 -94.905479 -23.882822
39.586452 -91.615105 -24.301092
37.859211 -90.774292 -24.473577
39.027069 -86.509331 -25.160711
36.189865 -89.72847 -24.529425
25.104557 -79.173645 -19.918341
22.7934 -83.74147 -18.939775
25.095573 -82.296753 -20.323729
25.306238 -85.18589 -20.793375
27.275019 -80.509415 -21.815695
29.384239 -78.412949 -23.384619
26.508459 -90.177406 -21.764605
24.573399 -94.485001 -21.118666
27.500038 -92.263741 -22.201952
28.725964 -94.080887 -22.583418
30.367603 -89.740105 -23.311354
33.175423 -86.961395 -24.389456
31.896986 -85.211754 -24.213148
41.322937 -92.263672 -23.967089
42.369999 -88.217918 -24.56629
23.17234 -89.647881 -20.020521
25.77379 -87.817108 -21.286051
28.312464 -85.655167 -22.619139
30.817337 -83.204529 -23.975382
29.9711 -80.936646 -23.691168
35.348866 -98.883781 -23.363348
33.508774 -98.028572 -23.320772
30.229445 -100.92923 -22.655752
31.76395 -96.950562 -23.154833
22.543594 -98.568932 -20.647371
23.747129 -100.496513 -21.141756
26.987041 -98.222336 -22.014597
30.157776 -95.638931 -22.903116
33.23135 -92.790649 -23.761354
34.617435 -88.46257 -24.496889
35.923973 -83.981049 -25.370028
33.316872 -80.516159 -25.285646
28.101385 -76.607532 -22.268087
28.168814 -78.078712 -22.451002
27.20759 -79.038235 -21.63278
39.879175 -93.954471 -23.85635
40.776951 -94.224823 -23.685296
39.333189 -95.915622 -23.574556
42.035944 -85.765568 -25.081184
42.877365 -86.145302 -24.901944
41.528578 -87.838184 -24.745531
41.219286 -85.326274 -25.28435
42.035944 -85.765568 -25.081184
38.790322 -83.741284 -25.632641
39.589416 -84.318196 -25.560871
38.227974 -85.932419 -25.232481
38.021824 -83.105846 -25.75448
38.790322 -83.741284 -25.632641
21.592375 -87.455223 -18.830278
21.556063 -85.915729 -18.571853
22.829712 -85.280964 -19.1982
21.679549 -88.968345 -19.141775
21.592375 -87.455223 -18.830278
23.019182 -88.234169 -19.738573
21.832707 -90.382058 -19.423723
21.679549 -88.968345 -19.141775
30.436713 -77.233139 -24.175646
30.167593 -75.935643 -24.076205
44.811142 -89.004635 -23.668272
44.303574 -90.969139 -23.356006
43.518158 -90.763989 -23.728229
33.712927 -100.40327 -23.103363
34.68101 -100.784412 -23.122341
33.045071 -102.303901 -22.862356
29.37463 -100.314053 -22.513036
28.531921 -102.243863 -22.297149
27.677107 -101.628685 -22.154434
22.667314 -94.28492 -20.336396
22.325873 -93.042171 -20.028058
35.85346 -80.868957 -25.870403
36.544389 -81.673714 -25.874045
35.233043 -83.176293 -25.366387
23.948978 -81.457558 -19.429058
22.847859 -82.09082 -18.728136
24.003437 -79.806907 -19.217419
29.223424 -77.030479 -23.235464
28.329629 -79.461182 -22.600157
28.168814 -78.078712 -22.451002
30.167593 -75.935643 -24.076205
29.223424 -77.030479 -23.235464
45.30435 -87.055961 -24.028345
44.518953 -86.787705 -24.375225
31.345634 -103.770699 -22.622961
33.045071 -102.303901 -22.862356
32.313717 -104.15184 -22.641939
26.85296 -100.927582 -21.970953
27.677107 -101.628685 -22.154434
33.464855 -77.047196 -25.829313
32.967602 -75.946793 -25.815236
42.166764 -92.496082 -23.691527
40.776951 -94.224823 -23.685296
42.674332 -90.531578 -24.003792
43.518158 -90.763989 -23.728229
42.166764 -92.496082 -23.691527
43.69109 -86.496921 -24.638123
44.518953 -86.787705 -24.375225
43.197862 -88.508701 -24.303393
43.69109 -86.496921 -24.638123
42.877365 -86.145302 -24.901944
40.389242 -84.851715 -25.402319
41.219286 -85.326274 -25.28435
39.857113 -86.983891 -25.042741
40.389242 -84.851715 -25.402319
39.589416 -84.318196 -25.560871
21.571258 -84.283093 -18.297094
22.847859 -82.09082 -18.728136
20.333922 -86.457352 -17.929172
21.571258 -84.283093 -18.297094
21.556063 -85.915729 -18.571853
22.042202 -91.763435 -19.745144
21.832707 -90.382058 -19.423723
23.45601 -90.926617 -20.303435
22.325873 -93.042171 -20.028058
22.042202 -91.763435 -19.745144
30.730144 -78.494988 -24.328921
29.67767 -79.674797 -23.537894
30.436713 -77.233139 -24.175646
31.887895 -77.231407 -25.057184
31.128851 -79.673066 -24.419432
30.730144 -78.494988 -24.328921
32.967602 -75.946793 -25.815236
31.887895 -77.231407 -25.057184
25.18578 -77.51231 -19.767212
24.003437 -79.806907 -19.217419
24.08466 -78.145573 -19.06629
26.155555 -76.794075 -20.537152
25.18578 -77.51231 -19.767212
27.173357 -75.99078 -21.302913
26.122359 -78.37035 -20.684103
26.155555 -76.794075 -20.537152
28.060507 -75.117047 -22.139359
27.173357 -75.99078 -21.302913
44.811142 -89.004635 -23.668272
45.30435 -87.055961 -24.028345
37.832887 -97.584423 -23.485119
39.333189 -95.915622 -23.574556
36.289614 -99.203678 -23.293988
34.68101 -100.784412 -23.122341
36.892139 -97.264526 -23.554479
37.832887 -97.584423 -23.485119
36.289614 -99.203678 -23.293988
30.367676 -103.317039 -22.536095
31.345634 -103.770699 -22.622961
29.443904 -102.820275 -22.442281
28.531921 -102.243863 -22.297149
31.153216 -101.425995 -22.749565
30.367676 -103.317039 -22.536095
29.443904 -102.820275 -22.442281
23.084173 -95.424744 -20.602555
22.667314 -94.28492 -20.336396
24.15654 -93.345177 -20.852507
22.069271 -97.46671 -20.366907
23.084173 -95.424744 -20.602555
23.558496 -96.526967 -20.883018
20.971544 -99.428738 -20.187851
22.069271 -97.46671 -20.366907
21.51063 -100.496208 -20.470663
19.938579 -101.356015 -20.011143
20.971544 -99.428738 -20.187851
22.112397 -101.459999 -20.717855
21.51063 -100.496208 -20.470663
23.145361 -99.532723 -20.894564
22.778663 -102.389286 -20.962284
22.112397 -101.459999 -20.717855
24.466617 -101.326401 -21.35667
22.778663 -102.389286 -20.962284
26.086573 -100.189312 -21.793091
24.466617 -101.326401 -21.35667
25.367085 -99.359424 -21.578176
27.753428 -98.960605 -22.192459
26.85296 -100.927582 -21.970953
26.086573 -100.189312 -21.793091
37.269371 -82.418617 -25.787369
38.021824 -83.105846 -25.75448
36.676426 -84.668278 -25.337139
37.269371 -82.418617 -25.787369
36.544389 -81.673714 -25.874045
33.97999 -78.100532 -25.898288
32.801737 -79.462822 -25.216671
33.464855 -77.047196 -25.829313
34.573027 -79.080689 -25.882566
33.97999 -78.100532 -25.898288
35.185648 -80.008377 -25.921115
33.929493 -81.443848 -25.324196
34.573027 -79.080689 -25.882566
35.85346 -80.868957 -25.870403
35.185648 -80.008377 -25.921115
28.101385 -76.607532 -22.268087
28.060507 -75.117047 -22.139359
3 0 18 16
3 0 20 18
3 1 23 21
3 1 25 23
3 1 53 55
3 55 54 25
3 53 54 55
3 2 29 27
3 2 31 29
3 2 33 31
3 3 56 58
3 56 34 57
3 56 57 58
3 5 35 17
3 5 59 61
3 61 60 35
3 59 60 61
3 5 62 63
3 6 64 66
3 66 65 19
3 64 65 66
3 6 67 68
3 7 69 71
3 71 70 22
3 69 70 71
3 7 72 73
3 7 74 76
3 74 36 75
3 74 75 76
3 9 37 24
3 9 38 37
3 9 40 38
3 78 77 26
3 4 79 81
3 79 80 81
3 11 82 84
3 82 41 83
3 82 83 84
3 11 42 41
3 12 85 87
3 85 43 86
3 85 86 87
3 12 44 43
3 8 88 89
3 13 45 28
3 13 46 45
3 13 47 46
3 14 48 30
3 14 49 48
3 14 50 49
3 15 51 32
3 15 90 92
3 92 91 51
3 90 91 92
3 10 52 39
3 16 17 3
3 18 17 16
3 18 5 17
3 18 19 5
3 20 19 18
3 20 6 19
3 21 93 95
3 93 22 94
3 93 94 95
3 23 22 21
3 23 7 22
3 23 24 7
3 25 24 23
3 25 9 24
3 25 26 9
3 96 26 97
3 98 97 25
3 96 97 98
3 100 99 26
3 102 101 4
3 103 11 104
3 103 104 105
3 106 12 107
3 27 28 8
3 29 28 27
3 29 13 28
3 29 30 13
3 31 30 29
3 31 14 30
3 31 32 14
3 33 32 31
3 33 15 32
3 109 108 10
3 34 110 111
3 34 112 114
3 112 4 113
3 112 113 114
3 17 34 3
3 35 34 17
3 35 4 34
3 35 115 117
3 117 116 4
3 115 116 117
3 119 118 35
3 19 120 122
3 122 121 5
3 120 121 122
3 124 123 19
3 22 125 126
3 129 128 22
3 127 128 129
3 36 130 131
3 36 132 134
3 132 8 133
3 132 133 134
3 24 36 7
3 37 36 24
3 37 8 36
3 37 27 8
3 38 27 37
3 38 2 27
3 38 39 2
3 40 39 38
3 40 10 39
3 26 40 9
3 135 40 136
3 137 136 26
3 135 136 137
3 138 10 139
3 140 139 40
3 138 139 140
3 142 141 10
3 143 21 144
3 143 144 145
3 146 21 147
3 148 1 149
3 150 149 21
3 148 149 150
3 152 151 1
3 154 153 4
3 155 3 156
3 41 157 158
3 41 159 161
3 159 3 160
3 159 160 161
3 41 16 3
3 42 16 41
3 42 0 16
3 162 11 163
3 43 164 165
3 43 166 168
3 166 11 167
3 166 167 168
3 43 42 11
3 44 42 43
3 44 0 42
3 28 169 171
3 171 170 8
3 169 170 171
3 45 172 174
3 174 173 28
3 172 173 174
3 45 175 176
3 45 177 179
3 177 178 179
3 46 180 182
3 182 181 45
3 180 181 182
3 46 183 184
3 46 185 186
3 47 187 189
3 189 188 46
3 187 188 189
3 47 190 192
3 190 12 191
3 190 191 192
3 30 47 13
3 48 47 30
3 48 12 47
3 48 44 12
3 49 44 48
3 49 0 44
3 49 20 0
3 50 20 49
3 50 6 20
3 32 50 14
3 51 50 32
3 51 6 50
3 51 193 195
3 195 194 6
3 193 194 195
3 197 196 51
3 39 33 2
3 52 33 39
3 52 15 33
3 198 52 199
3 200 199 10
3 198 199 200
3 201 52 202
3 203 15 204
3 205 204 52
3 203 204 205
3 207 206 15
3 209 208 1
