ply
format ascii 1.0
element vertex 166
property float x
property float y
property float z
element face 158
property list uchar int vertex_index
end_header
8.464184 -86.885422 0.577958
9.259214 -89.393875 7.417199
8.627937 -89.176605 11.560843
11.447102 -84.665405 10.18141
12.06287 -84.619576 6.140661
5.703695 -92.829529 1.206652
3.048992 -96.448593 -2.237713
6.043673 -94.297218 8.432982
6.277014 -94.188919 4.572034
9.201134 -88.884415 3.800022
11.973747 -83.532745 2.568504
12.392609 -82.45166 9.479191
7.026041 -89.859726 0.993984
5.297098 -91.536224 -0.337931
6.605696 -88.395615 -0.535057
9.001888 -89.314407 9.418742
7.348808 -91.686234 10.021674
7.653753 -91.812317 7.964351
6.265377 -94.351784 6.434971
7.790993 -91.799446 6.04579
7.714254 -91.526779 4.255749
9.334444 -89.288788 5.548388
13.069986 -82.183792 5.456623
12.111958 -84.255013 4.30302
13.15303 -81.658539 3.617907
10.160742 -86.893951 10.877611
10.530489 -87.004349 8.773277
10.761808 -87.009613 6.802726
11.82971 -84.717972 8.097502
12.807673 -82.413666 7.40766
4.558155 -95.809082 1.206823
3.318495 -97.826485 -0.671345
4.189539 -94.680305 -0.38895
3.897465 -93.142715 -1.90234
6.961134 -91.545532 12.226169
5.680735 -94.147324 10.574906
4.956825 -96.891808 4.747017
4.850515 -96.532417 2.913518
6.06971 -93.704552 2.834467
7.43511 -90.898857 2.579584
8.885311 -88.097176 2.152826
10.806782 -86.78669 4.958284
10.653673 -86.230957 3.22552
10.336044 -85.272896 1.581878
13.428813 -80.664032 4.198411
13.111508 -81.921166 4.537265
13.387291 -80.926659 5.117769
13.49721 -80.315251 3.279471
13.428813 -80.664032 4.198411
10.803922 -85.779678 10.529511
10.564155 -85.737533 11.63542
11.207334 -84.623261 11.287319
12.868427 -81.313198 8.094127
12.600141 -82.432663 8.443426
12.660896 -81.332195 9.129893
13.100255 -81.233543 7.06517
12.868427 -81.313198 8.094127
4.447943 -91.488491 -1.869571
4.597282 -92.33947 -1.120135
5.147759 -90.685246 -1.087366
3.869403 -92.182102 -2.637363
4.447943 -91.488491 -1.869571
7.794536 -90.361068 11.893506
7.59015 -90.319996 13.036835
8.423551 -89.135532 12.704172
5.282321 -95.582046 8.627271
5.100852 -95.507099 9.698233
5.862204 -94.222271 9.503944
5.439811 -95.632194 7.573749
5.282321 -95.582046 8.627271
11.828433 -82.965527 1.740954
11.009581 -83.835602 1.247641
11.154895 -84.402821 2.075191
2.757993 -98.091541 -2.517594
2.892744 -98.780487 -1.734411
3.183744 -97.137539 -1.454529
11.657037 -83.538742 10.926329
11.207334 -84.623261 11.287319
12.129791 -82.43187 10.575219
11.919856 -83.558533 9.8303
11.657037 -83.538742 10.926329
12.371255 -81.35204 10.21579
12.129791 -82.43187 10.575219
12.660896 -81.332195 9.129893
12.371255 -81.35204 10.21579
5.802058 -89.114941 -1.18593
5.147759 -90.685246 -1.087366
5.951397 -89.96592 -0.436494
13.104702 -81.209931 2.746389
12.515061 -82.147034 2.221687
12.563388 -82.595642 3.093205
13.104702 -81.209931 2.746389
13.49721 -80.315251 3.279471
2.725681 -97.281964 -3.279025
3.016946 -95.564335 -2.975829
8.257205 -86.066841 -0.192005
9.196707 -85.385269 0.286988
9.173458 -87.987076 12.339411
8.423551 -89.135532 12.704172
9.93986 -86.845748 11.997795
10.564155 -85.737533 11.63542
9.39434 -88.035278 11.219227
9.173458 -87.987076 12.339411
9.93986 -86.845748 11.997795
13.231411 -81.118606 6.089652
12.93883 -82.298729 6.432142
13.100255 -81.233543 7.06517
13.387291 -80.926659 5.117769
13.231411 -81.118606 6.089652
3.938325 -96.817784 0.267739
3.471667 -98.31345 0.171751
4.091498 -97.304749 1.110835
3.441183 -93.911396 -2.808142
3.016946 -95.564335 -2.975829
3.473229 -94.795654 -2.070026
3.441183 -93.911396 -2.808142
3.869403 -92.182102 -2.637363
7.327961 -86.821938 -0.748512
7.53494 -87.640519 0.02145
8.257205 -86.066841 -0.192005
6.458808 -87.461529 -1.291932
7.327961 -86.821938 -0.748512
5.802058 -89.114941 -1.18593
6.458808 -87.461529 -1.291932
6.773901 -91.520027 13.404804
7.59015 -90.319996 13.036835
6.120539 -92.782601 12.548084
6.773901 -91.520027 13.404804
5.480339 -94.083496 11.722452
6.120539 -92.782601 12.548084
6.320934 -92.846428 11.400538
4.891807 -95.428284 10.825678
5.480339 -94.083496 11.722452
4.891807 -95.428284 10.825678
5.100852 -95.507099 9.698233
5.550663 -95.659477 6.574744
5.439811 -95.632194 7.573749
6.154525 -94.324501 7.433976
4.896387 -96.929489 5.730766
5.550663 -95.659477 6.574744
5.611101 -95.621796 5.590994
4.381196 -98.267067 4.771944
4.896387 -96.929489 5.730766
4.387679 -98.139748 3.791653
4.381196 -98.267067 4.771944
4.334524 -97.960052 2.874904
4.387679 -98.139748 3.791653
4.90367 -96.712112 3.830267
4.237678 -97.666416 1.964182
4.334524 -97.960052 2.874904
4.704335 -96.170749 2.06017
4.091498 -97.304749 1.110835
4.237678 -97.666416 1.964182
10.132637 -84.579006 0.788948
9.196707 -85.385269 0.286988
9.400114 -86.079159 1.079918
10.132637 -84.579006 0.788948
11.009581 -83.835602 1.247641
11.828433 -82.965527 1.740954
12.515061 -82.147034 2.221687
3.00755 -99.3933 -0.904346
3.471667 -98.31345 0.171751
3.00755 -99.3933 -0.904346
2.892744 -98.780487 -1.734411
2.757993 -98.091541 -2.517594
2.725681 -97.281964 -3.279025
3 0 14 12
3 1 17 15
3 1 19 17
3 1 21 19
3 44 24 45
3 46 45 22
3 44 45 46
3 48 47 24
3 3 49 51
3 49 25 50
3 49 50 51
3 3 26 25
3 3 28 26
3 52 29 53
3 54 53 11
3 52 53 54
3 56 55 29
3 5 32 30
3 57 33 58
3 59 58 13
3 57 58 59
3 61 60 33
3 2 62 64
3 62 34 63
3 62 63 64
3 7 35 16
3 7 65 67
3 67 66 35
3 65 66 67
3 7 68 69
3 8 36 18
3 8 37 36
3 8 38 37
3 9 39 20
3 9 40 39
3 4 41 27
3 10 42 23
3 10 43 42
3 10 70 72
3 72 71 43
3 70 71 72
3 6 73 75
3 75 74 31
3 73 74 75
3 76 3 77
3 78 11 79
3 80 79 3
3 78 79 80
3 81 11 82
3 84 83 11
3 12 13 5
3 14 13 12
3 14 85 87
3 87 86 13
3 85 86 87
3 15 16 2
3 17 16 15
3 17 7 16
3 17 18 7
3 19 18 17
3 19 8 18
3 19 20 8
3 21 20 19
3 21 9 20
3 22 23 4
3 24 23 22
3 24 10 23
3 24 88 90
3 90 89 10
3 88 89 90
3 92 91 24
3 94 93 6
3 96 95 0
3 97 2 98
3 25 99 100
3 25 101 103
3 101 2 102
3 101 102 103
3 25 15 2
3 26 15 25
3 26 1 15
3 26 27 1
3 28 27 26
3 28 4 27
3 11 28 3
3 29 28 11
3 29 4 28
3 29 22 4
3 104 22 105
3 106 105 29
3 104 105 106
3 108 107 22
3 30 109 111
3 109 31 110
3 109 110 111
3 32 31 30
3 32 6 31
3 13 32 5
3 33 32 13
3 33 6 32
3 33 112 114
3 114 113 6
3 112 113 114
3 116 115 33
3 117 14 118
3 119 118 0
3 117 118 119
3 120 14 121
3 123 122 14
3 34 124 125
3 34 126 127
3 16 34 2
3 35 34 16
3 35 128 130
3 130 129 34
3 128 129 130
3 35 131 132
3 134 133 35
3 18 135 137
3 137 136 7
3 135 136 137
3 36 138 140
3 140 139 18
3 138 139 140
3 36 141 142
3 36 143 144
3 37 145 147
3 147 146 36
3 145 146 147
3 37 148 149
3 37 150 152
3 150 30 151
3 150 151 152
3 38 30 37
3 38 5 30
3 20 38 8
3 39 38 20
3 39 5 38
3 39 12 5
3 40 12 39
3 40 0 12
3 27 21 1
3 41 21 27
3 41 9 21
3 23 41 4
3 42 41 23
3 42 9 41
3 42 40 9
3 43 40 42
3 43 0 40
3 43 153 155
3 155 154 0
3 153 154 155
3 157 156 43
3 159 158 10
3 31 160 161
3 163 162 31
3 165 164 6
