ply
format ascii 1.0
element vertex 246
property float x
property float y
property float z
element face 236
property list uchar int vertex_index
end_header
25.680761 47.385567 -27.897837
33.918861 44.344112 -23.644773
36.391624 40.342949 -16.410173
30.408924 45.937431 -25.962446
34.286232 50.189392 -23.648008
38.707893 45.933609 -17.840536
38.3894 43.452721 -13.332739
36.206745 37.328918 -12.015253
37.409538 40.105328 -8.43996
27.059729 41.119434 -28.313986
30.723396 40.053993 -26.048525
33.223351 38.611008 -23.119425
38.362106 53.909767 -21.546289
37.473827 48.083733 -21.32102
35.844086 42.545109 -20.449896
34.655254 36.612198 -19.550478
35.426826 33.796955 -15.731264
32.038609 51.231316 -24.531763
34.119934 53.318192 -23.42993
39.963089 46.108566 -14.251642
37.922569 41.921745 -10.886477
24.022413 44.758968 -29.138945
24.879726 41.567837 -29.299719
26.427195 44.195198 -28.157827
32.351017 45.161896 -24.891676
30.613131 42.969692 -26.078936
32.255772 42.273235 -24.847216
32.122898 39.389713 -24.676451
33.546555 41.503277 -23.417707
38.063454 50.928001 -21.527998
39.281555 49.747719 -20.19145
37.453766 43.223118 -17.096224
37.260448 44.312897 -19.141905
36.255558 41.516193 -18.51174
35.113857 39.66869 -19.942621
35.486851 38.540943 -17.966852
35.093971 35.326012 -17.641764
35.681747 37.212917 -15.914225
36.056816 35.381397 -9.869726
28.157011 46.675789 -26.936228
30.038334 49.018036 -25.709204
32.300312 48.12838 -24.779345
34.200504 47.214584 -23.727808
38.692314 44.765362 -15.682013
37.359638 41.991447 -14.869551
36.344604 38.966904 -14.218803
37.087048 40.55014 -12.545088
36.742836 38.83424 -10.210089
36.416782 36.794899 -7.943682
28.650307 43.605366 -27.160036
29.025787 40.623501 -27.247923
36.235802 55.266792 -22.395426
36.323334 52.121704 -22.57757
36.119698 49.137619 -22.608183
35.672207 46.279297 -22.46715
38.326935 47.023857 -19.733564
36.686649 45.318504 -20.942461
35.080662 43.477268 -22.169054
34.487511 40.643608 -21.775953
34.051456 37.69503 -21.396021
33.912708 34.5784 -21.167391
34.584827 33.341431 -19.411821
35.774353 35.634365 -13.853598
36.946754 37.956253 -6.080111
33.905946 54.966202 -23.274515
32.833255 53.909447 -23.815416
24.377328 47.732597 -28.405477
25.24231 49.054199 -27.744124
24.851587 46.072268 -28.518391
23.548154 46.419298 -29.026032
24.377328 47.732597 -28.405477
40.168319 50.495942 -19.617871
39.632915 51.156315 -20.32407
35.976265 33.475904 -9.904965
36.004675 34.239694 -8.853818
29.754825 50.635601 -25.539586
28.772106 49.449959 -26.163221
26.365385 39.795869 -28.83478
25.275384 40.020071 -29.327647
25.969728 41.343635 -28.806852
27.342524 39.615806 -28.329059
26.365385 39.795869 -28.83478
30.041441 38.864099 -26.628739
29.192636 39.148854 -27.228437
29.874592 40.338747 -26.648224
30.78505 38.590595 -25.984225
30.041441 38.864099 -26.628739
32.654091 37.528021 -23.793732
32.103865 37.917373 -24.572245
32.673125 39.00036 -23.897938
33.158886 37.107384 -22.994978
32.654091 37.528021 -23.793732
38.346201 55.478234 -21.46652
39.355173 54.714653 -21.025833
37.298954 54.588279 -21.970858
37.283049 56.156746 -21.891089
38.346201 55.478234 -21.46652
38.517414 46.478733 -18.78705
39.147074 47.799542 -19.127699
39.337553 47.254418 -18.181185
35.290688 32.830494 -16.695038
35.12426 33.595022 -17.650288
35.260399 34.561483 -16.686514
35.542037 31.95854 -15.84337
35.290688 32.830494 -16.695038
36.773502 36.705585 -4.977912
37.314898 38.391339 -5.190775
37.141646 37.140671 -4.088576
36.55981 36.182268 -5.944573
36.773502 36.705585 -4.977912
31.792593 52.866009 -24.366333
30.754963 51.742241 -24.950865
33.079272 52.274754 -23.980846
31.792593 52.866009 -24.366333
32.833255 53.909447 -23.815416
40.61426 46.660274 -13.520353
40.788431 47.361927 -14.709646
41.439602 47.913635 -13.978357
39.725326 45.397896 -13.020773
40.61426 46.660274 -13.520353
40.376497 45.949604 -12.289484
38.938482 44.069973 -12.561322
39.176244 44.780643 -13.792191
39.725326 45.397896 -13.020773
38.705067 43.304485 -11.33819
38.155985 42.687233 -12.109608
38.938482 44.069973 -12.561322
38.39683 42.480808 -10.064878
38.705067 43.304485 -11.33819
38.140314 41.572599 -8.84162
37.666054 41.013537 -9.663218
38.39683 42.480808 -10.064878
22.772467 45.038992 -29.642744
23.548154 46.419298 -29.026032
23.290019 43.379074 -29.695484
22.772467 45.038992 -29.642744
24.45107 43.163403 -29.219332
23.718676 41.783508 -29.775872
23.290019 43.379074 -29.695484
39.173191 53.237339 -21.001489
39.355173 54.714653 -21.025833
39.023865 51.746456 -20.992344
38.21278 52.418884 -21.537143
39.173191 53.237339 -21.001489
38.672505 50.33786 -20.859724
39.023865 51.746456 -20.992344
39.632915 51.156315 -20.32407
35.943237 34.571846 -10.858057
36.018202 35.545607 -11.93082
36.13178 36.355158 -10.94249
35.943237 34.571846 -10.858057
35.976265 33.475904 -9.904965
26.593319 48.633724 -27.257538
25.24231 49.054199 -27.744124
27.831444 48.278835 -26.776733
26.918886 47.030678 -27.417032
26.593319 48.633724 -27.257538
29.097673 47.846913 -26.322716
27.831444 48.278835 -26.776733
28.772106 49.449959 -26.163221
31.038471 50.124676 -25.120483
29.754825 50.635601 -25.539586
30.754963 51.742241 -24.950865
39.435944 46.657028 -17.182512
39.337553 47.254418 -18.181185
40.063541 46.744506 -15.388065
40.788431 47.361927 -14.709646
39.428154 46.072904 -16.103251
40.063541 46.744506 -15.388065
39.327702 45.436964 -14.966828
38.700103 45.349486 -16.761274
39.435944 46.657028 -17.182512
39.428154 46.072904 -16.103251
36.184658 34.946445 -7.890796
36.004675 34.239694 -8.853818
36.236799 36.088148 -8.906704
24.212791 40.179591 -29.790314
23.718676 41.783508 -29.775872
24.212791 40.179591 -29.790314
25.275384 40.020071 -29.327647
28.325553 39.36784 -27.796028
27.342524 39.615806 -28.329059
28.042758 40.871467 -27.780954
28.325553 39.36784 -27.796028
29.192636 39.148854 -27.228437
31.484801 38.258455 -25.298188
30.78505 38.590595 -25.984225
31.423147 39.721853 -25.362488
31.484801 38.258455 -25.298188
32.103865 37.917373 -24.572245
36.045533 56.916515 -22.24568
37.092779 57.806469 -21.741343
37.283049 56.156746 -21.891089
34.963881 55.940502 -22.757264
36.045533 56.916515 -22.24568
35.177868 54.292492 -22.912678
33.905946 54.966202 -23.274515
34.963881 55.940502 -22.757264
39.624384 49.161473 -19.356642
40.168319 50.495942 -19.617871
38.804245 48.385788 -19.962507
39.624384 49.161473 -19.356642
39.147074 47.799542 -19.127699
33.572938 36.649395 -22.133276
33.158886 37.107384 -22.994978
33.637404 38.153019 -22.257723
33.503564 35.09108 -22.018961
33.572938 36.649395 -22.133276
33.982082 36.136715 -21.281706
33.594538 33.518885 -21.992328
33.503564 35.09108 -22.018961
34.037294 32.935805 -21.199224
33.594538 33.518885 -21.992328
34.373353 32.31732 -20.32144
34.037294 32.935805 -21.199224
34.248767 33.959916 -20.289606
34.769587 31.61269 -19.529222
34.373353 32.31732 -20.32144
34.869688 32.602732 -18.535317
34.839399 34.333721 -18.526792
35.12426 33.595022 -17.650288
34.769587 31.61269 -19.529222
34.869688 32.602732 -18.535317
35.802006 34.69833 -12.849993
35.990549 36.481642 -12.934425
36.018202 35.545607 -11.93082
35.739119 33.811985 -13.863104
35.802006 34.69833 -12.849993
35.766772 32.87595 -12.859499
35.565355 32.89328 -14.801937
35.600589 34.71566 -14.792431
35.739119 33.811985 -13.863104
35.542037 31.95854 -15.84337
35.565355 32.89328 -14.801937
37.82329 40.603027 -7.578171
38.140314 41.572599 -8.84162
37.591898 39.52849 -6.398247
37.314898 38.391339 -5.190775
37.178146 39.03079 -7.260035
37.82329 40.603027 -7.578171
37.591898 39.52849 -6.398247
36.294824 35.601591 -6.876359
36.681768 37.375576 -7.011896
36.55981 36.182268 -5.944573
36.184658 34.946445 -7.890796
36.294824 35.601591 -6.876359
3 64 18 65
3 0 66 67
3 0 68 70
3 68 21 69
3 68 69 70
3 0 23 21
3 1 26 24
3 1 28 26
3 71 30 72
3 2 33 31
3 2 35 33
3 2 37 35
3 74 73 38
3 75 40 76
3 4 41 17
3 4 42 41
3 6 43 19
3 6 44 43
3 6 46 44
3 8 47 20
3 8 48 47
3 9 77 79
3 79 78 22
3 77 78 79
3 9 80 81
3 3 49 39
3 10 50 25
3 10 82 84
3 84 83 50
3 82 83 84
3 10 85 86
3 11 87 89
3 89 88 27
3 87 88 89
3 11 90 91
3 12 92 93
3 12 94 96
3 94 51 95
3 94 95 96
3 12 52 51
3 13 53 29
3 13 54 53
3 5 97 99
3 97 55 98
3 97 98 99
3 14 56 32
3 14 57 56
3 14 58 57
3 15 59 34
3 15 60 59
3 15 61 60
3 16 100 102
3 102 101 36
3 100 101 102
3 16 103 104
3 7 62 45
3 105 63 106
3 105 106 107
3 109 108 63
3 110 17 111
3 18 112 114
3 112 17 113
3 112 113 114
3 18 4 17
3 115 19 116
3 115 116 117
3 118 19 119
3 118 119 120
3 121 6 122
3 123 122 19
3 121 122 123
3 124 20 125
3 126 125 6
3 124 125 126
3 127 20 128
3 129 8 130
3 131 130 20
3 129 130 131
3 21 132 133
3 21 134 135
3 21 136 138
3 136 22 137
3 136 137 138
3 23 22 21
3 23 9 22
3 24 25 3
3 26 25 24
3 26 10 25
3 26 27 10
3 28 27 26
3 28 11 27
3 139 12 140
3 141 29 142
3 143 142 12
3 141 142 143
3 30 144 146
3 144 29 145
3 144 145 146
3 30 13 29
3 31 32 5
3 33 32 31
3 33 14 32
3 33 34 14
3 35 34 33
3 35 15 34
3 35 36 15
3 37 36 35
3 37 16 36
3 38 147 149
3 149 148 7
3 147 148 149
3 151 150 38
3 152 0 153
3 154 39 155
3 156 155 0
3 154 155 156
3 40 157 159
3 157 39 158
3 157 158 159
3 40 3 39
3 17 160 162
3 160 40 161
3 160 161 162
3 41 40 17
3 41 3 40
3 41 24 3
3 42 24 41
3 42 1 24
3 163 5 164
3 19 165 166
3 43 167 169
3 169 168 19
3 167 168 169
3 43 170 172
3 170 5 171
3 170 171 172
3 43 31 5
3 44 31 43
3 44 2 31
3 44 45 2
3 46 45 44
3 46 7 45
3 20 46 6
3 47 46 20
3 47 7 46
3 47 38 7
3 48 38 47
3 48 173 175
3 175 174 38
3 173 174 175
3 22 176 177
3 179 178 22
3 39 23 0
3 49 23 39
3 49 9 23
3 25 49 3
3 50 49 25
3 50 9 49
3 50 180 182
3 182 181 9
3 180 181 182
3 184 183 50
3 27 185 187
3 187 186 10
3 185 186 187
3 189 188 27
3 51 190 192
3 190 191 192
3 51 193 194
3 51 195 197
3 195 18 196
3 195 196 197
3 52 18 51
3 52 4 18
3 29 52 12
3 53 52 29
3 53 4 52
3 53 42 4
3 54 42 53
3 54 1 42
3 198 30 199
3 55 200 202
3 200 30 201
3 200 201 202
3 55 13 30
3 32 55 5
3 56 55 32
3 56 13 55
3 56 54 13
3 57 54 56
3 57 1 54
3 57 28 1
3 58 28 57
3 58 11 28
3 34 58 14
3 59 58 34
3 59 11 58
3 59 203 205
3 205 204 11
3 203 204 205
3 60 206 208
3 208 207 59
3 206 207 208
3 60 209 210
3 60 211 212
3 61 213 215
3 215 214 60
3 213 214 215
3 61 216 217
3 36 61 15
3 218 61 219
3 220 219 36
3 218 219 220
3 222 221 61
3 45 37 2
3 62 37 45
3 62 16 37
3 223 62 224
3 225 224 7
3 223 224 225
3 226 62 227
3 226 227 228
3 229 16 230
3 231 230 62
3 229 230 231
3 233 232 16
3 234 8 235
3 63 236 237
3 63 238 240
3 238 8 239
3 238 239 240
3 63 48 8
3 241 48 242
3 243 242 63
3 241 242 243
3 245 244 48
