ply
format ascii 1.0
element vertex 297
property float x
property float y
property float z
element face 293
property list uchar int vertex_index
end_header
-31.693153 -66.990677 53.388084
-28.197975 -70.202805 60.565228
-24.488567 -77.719177 55.02573
-29.282623 -76.265884 51.632893
-36.900009 -64.658722 48.27784
-28.241192 -65.987274 70.816872
-29.880175 -68.496178 56.952164
-28.278509 -72.792755 55.492668
-30.386305 -71.66468 52.740482
-26.232882 -72.074753 63.845905
-23.928047 -75.731308 60.830986
-26.244179 -74.123367 58.26289
-26.900736 -76.840057 53.253704
-28.345201 -80.531563 49.261917
-33.988754 -65.716232 50.359692
-32.917358 -70.689163 50.352173
-26.2146 -70.213242 69.197464
-28.511967 -68.107788 66.011642
-30.192709 -66.067047 62.21069
-31.573677 -64.146698 58.088554
-31.952684 -75.76078 50.268879
-30.744452 -67.715706 55.134109
-29.996126 -69.966164 54.653362
-31.016977 -69.320969 53.078068
-27.273075 -71.119339 62.2635
-26.18844 -73.043823 61.028118
-27.200544 -72.198959 59.511192
-28.659777 -74.406494 53.380268
-27.562292 -74.860794 54.507454
-28.075191 -76.530907 52.419556
-27.534794 -78.556747 51.124092
-28.797377 -78.452148 50.652523
-35.369183 -65.163353 49.18251
-34.88303 -67.677429 49.236938
-36.471416 -67.21315 48.394547
-26.895422 -67.040245 72.269859
-25.93663 -69.205002 71.524689
-27.316536 -68.141922 70.132278
-27.451443 -69.154526 67.692139
-28.510393 -67.080704 68.548592
-30.372204 -64.977631 64.869835
-30.894329 -65.087151 60.163834
-24.136002 -76.649261 57.893909
-32.420883 -73.226692 50.372414
-29.049683 -69.327042 58.78059
-28.139593 -71.405472 57.919109
-29.05378 -70.661255 56.284897
-29.298599 -72.207001 54.094429
-29.80932 -73.992004 52.293083
-29.398602 -64.932144 69.174683
-25.049988 -73.068901 65.295082
-23.812166 -74.902939 63.762722
-25.066296 -73.943924 62.448891
-25.137966 -74.887497 59.579659
-25.339762 -75.96225 56.779591
-27.276857 -73.428619 56.893135
-26.470261 -75.372711 55.647034
-25.717218 -77.225349 54.124237
-26.284569 -78.722725 51.666203
-32.766235 -66.324188 51.77726
-32.157063 -68.725922 51.615974
-33.442596 -68.179428 50.320839
-24.99436 -72.200012 68.017639
-26.278786 -71.151993 66.605995
-27.396782 -70.126602 65.031754
-28.363218 -69.126091 63.30777
-29.5222 -66.02446 66.786575
-29.414295 -67.076691 64.174347
-29.209673 -68.153999 61.458202
-29.98164 -67.216316 59.520233
-30.733158 -66.321022 57.54393
-31.519945 -65.476578 55.589733
-32.392483 -64.690048 53.723766
-33.390308 -63.965717 52.011799
-34.538391 -63.304279 50.513084
-35.845722 -62.702801 49.275219
-37.305954 -62.155048 48.330547
-38.899765 -61.652096 47.694122
-40.598591 -61.183086 47.363144
-31.583164 -71.160416 51.477776
-31.052813 -73.602646 51.279106
-30.564119 -76.016747 50.909882
-30.110617 -78.363602 50.248383
-29.686871 -80.611206 49.182423
-27.568307 -66.513759 71.543365
-27.261676 -65.913593 72.51474
-27.934561 -65.387108 71.788246
-23.839066 -78.034271 55.491377
-23.662783 -77.499313 56.925466
-24.312285 -77.184219 56.45982
-27.687202 -80.507199 49.346052
-27.281999 -79.51979 50.277139
-27.939998 -79.544155 50.193005
-28.132976 -81.520756 48.336178
-27.687202 -80.507199 49.346052
-34.641852 -68.961388 49.319547
-35.455702 -68.749859 48.945463
-25.507369 -70.747009 69.858338
-25.368384 -70.242889 71.02195
-26.075615 -69.709122 70.361076
-25.60448 -71.206627 68.607551
-24.897249 -71.740395 69.268425
-25.507369 -70.747009 69.858338
-29.947895 -64.951027 67.073623
-29.460401 -65.478302 67.980629
-29.886095 -64.404869 68.267677
-32.737299 -63.555189 53.916551
-32.339352 -63.97263 54.885915
-33.236211 -63.193023 53.060568
-32.891396 -64.327883 52.867783
-32.737299 -63.555189 53.916551
-34.803856 -62.119873 50.651899
-34.269756 -62.475481 51.42531
-35.457521 -61.819134 50.032967
-35.192056 -63.00354 49.894151
-34.803856 -62.119873 50.651899
-37.494373 -60.922291 48.436718
-36.801844 -61.219853 48.922926
-38.291279 -60.670814 48.118505
-38.10286 -61.903572 48.012335
-37.494373 -60.922291 48.436718
-40.723909 -59.910561 47.455353
-39.903471 -60.163212 47.625614
-41.483845 -60.959585 47.340431
-40.723909 -59.910561 47.455353
-23.263537 -76.196293 61.421404
-23.205596 -75.782108 62.887272
-23.870106 -75.317124 62.296854
-30.599445 -79.513599 49.708918
-30.809815 -78.308098 50.079613
-30.387571 -80.637401 49.175938
-29.898744 -79.487404 49.715403
-30.599445 -79.513599 49.708918
-36.249895 -68.517719 48.524268
-35.455702 -68.749859 48.945463
-35.677223 -67.44529 48.815742
-26.515227 -66.429691 73.170059
-27.261676 -65.913593 72.51474
-26.132518 -67.564346 72.897724
-26.515227 -66.429691 73.170059
-26.416026 -68.122624 71.897274
-25.653122 -68.646725 72.525139
-26.132518 -67.564346 72.897724
-30.779592 -63.902817 65.136089
-30.372896 -64.427613 66.115253
-30.733953 -64.462311 63.851723
-30.779592 -63.902817 65.136089
-30.644206 -65.007019 62.52215
-30.282457 -65.522339 63.540262
-30.733953 -64.462311 63.851723
-30.995016 -64.517071 61.498722
-30.543519 -65.577099 61.187262
-30.644206 -65.007019 62.52215
-31.316986 -64.014315 60.444125
-30.995016 -64.517071 61.498722
-31.65666 -63.544089 59.406485
-31.234003 -64.616925 59.126194
-31.316986 -64.014315 60.444125
-23.486553 -77.049285 58.439529
-23.382576 -76.590309 59.908068
-24.032024 -76.190284 59.362448
-23.486553 -77.049285 58.439529
-23.662783 -77.499313 56.925466
-33.174845 -73.040775 49.987337
-32.669121 -71.957927 50.362293
-33.423082 -71.77201 49.977217
-32.944399 -74.354007 50.049248
-33.174845 -73.040775 49.987337
-32.710299 -75.621051 49.99748
-32.186784 -74.493736 50.320646
-32.944399 -74.354007 50.049248
-37.543442 -65.717949 48.042786
-37.730117 -64.425636 47.969292
-28.592389 -64.868336 71.038601
-27.934561 -65.387108 71.788246
-29.171094 -64.34077 70.217506
-28.819897 -65.459709 69.995778
-28.592389 -64.868336 71.038601
-29.737286 -63.820055 69.379479
-29.171094 -64.34077 70.217506
-29.886095 -64.404869 68.267677
-29.737286 -63.820055 69.379479
-24.089436 -78.571838 54.006473
-24.750149 -78.358375 53.655256
-24.431077 -73.98592 64.528902
-23.762884 -74.50206 65.183012
-24.381795 -73.585041 65.949192
-25.364475 -78.111461 53.20451
-24.750149 -78.358375 53.655256
-25.102892 -77.472263 54.574984
-25.64815 -78.86015 51.975493
-25.364475 -78.111461 53.20451
-26.000894 -77.974037 52.89522
-25.99531 -79.625763 50.688118
-25.64815 -78.86015 51.975493
-26.656886 -79.602779 50.548195
-26.909682 -78.639736 51.395148
-27.281999 -79.51979 50.277139
-25.99531 -79.625763 50.688118
-26.656886 -79.602779 50.548195
-33.921634 -69.212387 49.861498
-34.162813 -67.928428 49.778889
-34.641852 -68.961388 49.319547
-33.659015 -70.467254 49.877165
-33.179977 -69.434295 50.336506
-33.921634 -69.212387 49.861498
-33.423082 -71.77201 49.977217
-33.659015 -70.467254 49.877165
-37.329145 -66.995163 48.10114
-36.685712 -65.935936 48.336194
-37.543442 -65.717949 48.042786
-37.126423 -68.312481 48.256918
-37.329145 -66.995163 48.10114
-36.249895 -68.517719 48.524268
-37.126423 -68.312481 48.256918
-25.159185 -69.735641 72.1231
-25.653122 -68.646725 72.525139
-25.159185 -69.735641 72.1231
-25.368384 -70.242889 71.02195
-24.269806 -72.733719 68.639958
-24.897249 -71.740395 69.268425
-24.353981 -73.150597 67.310471
-24.269806 -72.733719 68.639958
-25.022174 -72.634456 66.656361
-24.381795 -73.585041 65.949192
-24.353981 -73.150597 67.310471
-29.947202 -65.501046 65.828205
-29.947895 -64.951027 67.073623
-30.372896 -64.427613 66.115253
-31.965637 -63.058847 58.343395
-31.65666 -63.544089 59.406485
-31.929949 -63.700955 57.068309
-31.965637 -63.058847 58.343395
-31.903083 -64.365894 55.818899
-31.546811 -64.811638 56.839144
-31.929949 -63.700955 57.068309
-31.956214 -65.083313 54.65675
-31.903083 -64.365894 55.818899
-32.339352 -63.97263 54.885915
-33.695715 -62.8062 52.174667
-33.236211 -63.193023 53.060568
-33.964349 -63.634998 51.262442
-33.695715 -62.8062 52.174667
-34.269756 -62.475481 51.42531
-36.071728 -61.493729 49.395262
-35.457521 -61.819134 50.032967
-36.575838 -62.428925 48.802883
-36.071728 -61.493729 49.395262
-36.801844 -61.219853 48.922926
-37.93309 -63.1738 47.995646
-37.730117 -64.425636 47.969292
-37.102981 -63.406885 48.304193
-38.729996 -62.922323 47.677433
-37.93309 -63.1738 47.995646
-38.10286 -61.903572 48.012335
-39.609453 -62.702396 47.511578
-38.729996 -62.922323 47.677433
-39.054058 -60.397717 47.791103
-38.291279 -60.670814 48.118505
-39.749178 -61.417591 47.528633
-39.054058 -60.397717 47.791103
-39.903471 -60.163212 47.625614
-40.458866 -62.467892 47.346089
-39.609453 -62.702396 47.511578
-39.749178 -61.417591 47.528633
-41.369681 -62.25421 47.313793
-40.458866 -62.467892 47.346089
-41.369681 -62.25421 47.313793
-41.483845 -60.959585 47.340431
-23.116074 -75.411934 64.364477
-23.066792 -75.011055 65.784767
-23.762884 -74.50206 65.183012
-23.116074 -75.411934 64.364477
-23.205596 -75.782108 62.887272
-23.263537 -76.196293 61.421404
-23.382576 -76.590309 59.908068
-23.839066 -78.034271 55.491377
-24.089436 -78.571838 54.006473
-32.4847 -76.925479 49.953975
-32.710299 -75.621051 49.99748
-31.730848 -77.006687 50.089861
-32.4847 -76.925479 49.953975
-31.036566 -77.13467 50.410363
-31.258402 -75.888763 50.589381
-31.730848 -77.006687 50.089861
-30.337368 -77.190174 50.579133
-31.036566 -77.13467 50.410363
-30.809815 -78.308098 50.079613
-30.190202 -81.788216 48.56172
-30.387571 -80.637401 49.175938
-29.488906 -81.678352 48.407528
-30.190202 -81.788216 48.56172
-28.818071 -81.638531 48.447275
-29.016036 -80.571384 49.22217
-29.488906 -81.678352 48.407528
-28.132976 -81.520756 48.336178
-28.818071 -81.638531 48.447275
3 0 23 21
3 1 26 24
3 3 29 27
3 3 31 29
3 4 34 32
3 5 84 86
3 84 35 85
3 84 85 86
3 5 37 35
3 5 39 37
3 2 87 89
3 89 88 42
3 87 88 89
3 6 46 44
3 8 47 22
3 8 48 47
3 9 52 50
3 11 53 25
3 11 54 53
3 7 55 45
3 12 56 28
3 12 57 56
3 12 58 57
3 13 90 92
3 92 91 30
3 90 91 92
3 13 93 94
3 14 61 59
3 96 95 33
3 16 97 99
3 99 98 36
3 97 98 99
3 16 100 102
3 100 62 101
3 100 101 102
3 16 63 62
3 17 64 38
3 17 65 64
3 103 66 104
3 105 104 49
3 103 104 105
3 18 67 40
3 18 68 67
3 18 69 68
3 19 70 41
3 19 71 70
3 106 72 107
3 108 73 109
3 110 109 72
3 108 109 110
3 111 74 112
3 113 75 114
3 115 114 74
3 113 114 115
3 116 76 117
3 118 77 119
3 120 119 76
3 118 119 120
3 121 78 122
3 124 123 78
3 10 125 127
3 127 126 51
3 125 126 127
3 15 79 60
3 20 80 43
3 20 81 80
3 128 82 129
3 130 83 131
3 132 131 82
3 130 131 132
3 21 22 6
3 23 22 21
3 23 8 22
3 24 25 9
3 26 25 24
3 26 11 25
3 27 28 7
3 29 28 27
3 29 12 28
3 29 30 12
3 31 30 29
3 31 13 30
3 32 33 14
3 34 33 32
3 34 133 135
3 135 134 33
3 133 134 135
3 35 136 137
3 35 138 139
3 35 140 142
3 140 36 141
3 140 141 142
3 37 36 35
3 37 16 36
3 37 38 16
3 39 38 37
3 39 17 38
3 143 40 144
3 145 40 146
3 147 18 148
3 149 148 40
3 147 148 149
3 150 41 151
3 152 151 18
3 150 151 152
3 153 41 154
3 155 19 156
3 157 156 41
3 155 156 157
3 42 158 160
3 160 159 10
3 158 159 160
3 162 161 42
3 163 43 164
3 165 164 15
3 163 164 165
3 166 43 167
3 168 20 169
3 170 169 43
3 168 169 170
3 44 45 1
3 46 45 44
3 46 7 45
3 22 46 6
3 47 46 22
3 47 7 46
3 47 27 7
3 48 27 47
3 48 3 27
3 172 171 4
3 173 5 174
3 175 49 176
3 177 176 5
3 175 176 177
3 178 49 179
3 181 180 49
3 183 182 2
3 50 184 186
3 184 51 185
3 184 185 186
3 52 51 50
3 52 10 51
3 25 52 9
3 53 52 25
3 53 10 52
3 53 42 10
3 54 42 53
3 54 2 42
3 45 26 1
3 55 26 45
3 55 11 26
3 28 55 7
3 56 55 28
3 56 11 55
3 56 54 11
3 57 54 56
3 57 2 54
3 57 187 189
3 189 188 2
3 187 188 189
3 58 190 192
3 192 191 57
3 190 191 192
3 58 193 194
3 30 58 12
3 195 58 196
3 197 196 30
3 195 196 197
3 199 198 58
3 59 60 0
3 61 60 59
3 61 15 60
3 33 61 14
3 200 61 201
3 202 201 33
3 200 201 202
3 203 15 204
3 205 204 61
3 203 204 205
3 207 206 15
3 208 34 209
3 210 209 4
3 208 209 210
3 211 34 212
3 214 213 34
3 36 215 216
3 218 217 36
3 62 219 220
3 62 221 222
3 62 223 225
3 223 50 224
3 223 224 225
3 63 50 62
3 63 9 50
3 38 63 16
3 64 63 38
3 64 9 63
3 64 24 9
3 65 24 64
3 65 1 24
3 49 39 5
3 66 39 49
3 66 17 39
3 40 226 228
3 226 66 227
3 226 227 228
3 67 66 40
3 67 17 66
3 67 65 17
3 68 65 67
3 68 1 65
3 68 44 1
3 69 44 68
3 69 6 44
3 41 69 18
3 70 69 41
3 70 6 69
3 70 21 6
3 71 21 70
3 71 0 21
3 229 19 230
3 231 19 232
3 233 71 234
3 235 234 19
3 233 234 235
3 72 236 238
3 236 71 237
3 236 237 238
3 72 0 71
3 72 59 0
3 73 59 72
3 73 14 59
3 239 73 240
3 74 241 243
3 241 73 242
3 241 242 243
3 74 14 73
3 74 32 14
3 75 32 74
3 75 4 32
3 244 75 245
3 76 246 248
3 246 75 247
3 246 247 248
3 76 4 75
3 76 249 251
3 251 250 4
3 249 250 251
3 77 252 254
3 254 253 76
3 252 253 254
3 77 255 256
3 257 77 258
3 78 259 261
3 259 77 260
3 259 260 261
3 78 262 264
3 264 263 77
3 262 263 264
3 78 265 266
3 268 267 78
3 51 269 271
3 269 270 271
3 273 272 51
3 275 274 10
3 277 276 2
3 60 23 0
3 79 23 60
3 79 8 23
3 43 79 15
3 80 79 43
3 80 8 79
3 80 48 8
3 81 48 80
3 81 3 48
3 278 20 279
3 280 20 281
3 282 81 283
3 284 283 20
3 282 283 284
3 82 285 287
3 285 81 286
3 285 286 287
3 82 3 81
3 82 31 3
3 83 31 82
3 83 13 31
3 288 83 289
3 290 83 291
3 292 13 293
3 294 293 83
3 292 293 294
3 296 295 13
