ply
format ascii 1.0
element vertex 269
property float x
property float y
property float z
element face 273
property list uchar int vertex_index
end_header
1.605129 -65.431305 43.021854
4.827971 -46.932961 53.494423
1.291449 -65.454193 51.818237
2.890562 -57.12809 56.97525
2.43351 -55.536182 49.045998
0.327379 -69.834755 53.652344
1.065456 -70.693649 44.586395
4.07704 -52.323246 55.226311
2.780312 -56.327709 52.910805
3.324001 -51.169178 51.459854
0.864542 -48.899479 44.773994
-0.012421 -75.033745 51.229057
0.780293 -70.456978 49.133568
1.635015 -65.511635 47.439072
1.86994 -61.014416 54.442841
2.097246 -60.671848 50.301239
2.057783 -60.28117 46.145302
2.214148 -49.998665 48.076569
1.763109 -54.773075 45.271736
1.381931 -68.094353 43.744251
1.10146 -70.717773 42.319103
4.519255 -49.708843 54.338844
3.752943 -51.750427 53.281464
4.03459 -49.05312 52.500801
-0.245008 -74.486282 53.576134
0.805676 -67.699623 52.687187
0.561226 -70.202545 51.403053
1.038504 -67.901352 50.473732
1.231676 -68.023926 48.23716
1.495039 -65.507622 49.637848
2.222443 -59.343414 57.764793
1.722212 -61.19183 56.479729
2.305613 -59.018826 55.716843
2.640295 -55.933388 50.957695
2.374331 -58.441238 51.647064
2.335947 -58.148857 49.639862
2.126289 -60.479797 48.224014
2.220098 -57.852695 47.646271
2.714294 -47.710819 49.225143
1.937712 -47.042244 47.70092
0.754642 -51.482346 43.180992
1.368303 -51.890877 44.983131
1.280935 -54.438755 43.371338
1.665802 -57.303024 43.659531
0.569815 -67.410713 54.850655
1.060658 -65.346802 53.959564
3.523022 -54.791183 56.117722
2.862955 -56.721291 54.916389
3.355558 -54.30175 54.096169
3.107674 -53.812035 52.166939
2.784832 -53.317913 50.317627
1.124189 -46.392914 46.182236
0.305708 -45.776592 44.622566
0.145985 -48.412209 43.063721
0.118193 -72.400536 52.43512
0.346571 -72.798218 50.130013
0.557554 -73.064301 47.829025
0.955332 -70.613937 46.858925
1.353655 -68.081833 45.991615
1.679028 -65.480057 45.231987
2.106785 -59.744236 59.80307
2.859396 -57.572304 59.079185
3.601694 -55.292759 58.230637
4.28087 -52.891792 57.301971
4.852732 -50.350502 56.339928
1.349958 -63.178585 55.217743
1.551622 -63.154194 53.144279
2.358658 -58.72739 53.673622
2.002071 -60.848633 52.376785
1.737194 -63.108349 51.026649
1.873943 -63.031616 48.888535
1.926817 -62.929344 46.740578
1.865068 -62.816128 44.586891
3.423311 -48.38485 50.808456
2.806231 -50.582161 49.737244
2.388102 -52.82423 48.524216
1.561493 -49.432636 46.435303
1.915789 -52.343212 46.756168
2.145647 -55.144405 47.157455
2.002384 -57.565151 45.656197
1.865965 -60.0919 44.062344
1.670429 -62.709644 42.429367
1.456661 -66.756141 42.260488
1.345062 -68.087665 42.621687
1.49353 -66.762829 43.383052
1.506816 -65.406853 41.917006
1.456661 -66.756141 42.260488
-0.346273 -74.125228 54.753106
-0.370144 -75.468941 54.200303
1.764055 -45.489491 47.54608
2.232293 -45.865155 48.243782
0.99554 -54.296346 42.408104
1.017788 -52.96055 43.276165
0.732394 -52.818142 42.312931
1.245221 -55.760016 42.510216
0.99554 -54.296346 42.408104
0.704312 -66.301868 55.435727
0.470598 -67.219341 55.884056
0.949734 -65.269913 54.990181
0.815237 -66.378758 54.40511
0.704312 -66.301868 55.435727
0.964794 -71.989662 43.922073
0.899186 -71.956359 45.062179
1.028018 -72.00196 41.653146
1.085281 -70.711273 41.188835
0.02383 -44.138106 44.564161
0.476328 -44.489919 45.301861
-0.208913 -48.195206 42.177002
-0.168949 -46.808266 43.027314
0.12152 -49.769775 42.199703
-0.208913 -48.195206 42.177002
0.001269 -76.346062 50.648586
-0.13367 -76.091659 51.829837
0.107431 -75.225834 50.064224
0.001269 -76.346062 50.648586
0.222786 -71.117646 53.043732
0.008381 -72.128101 53.583233
0.112974 -70.845211 54.191845
2.435003 -58.912886 60.50967
2.028926 -60.004133 60.815331
2.811309 -57.82692 60.147728
2.48309 -58.65827 59.441128
2.435003 -58.912886 60.50967
3.977494 -54.379175 58.865132
3.592764 -55.558262 59.326706
4.317082 -53.178691 58.400799
3.941282 -54.092275 57.766304
3.977494 -54.379175 58.865132
5.197013 -49.349838 56.911507
4.935802 -50.666065 57.420403
5.069239 -49.000721 55.866539
5.197013 -49.349838 56.911507
3.416253 -46.914852 50.519149
3.806978 -47.290415 51.295578
1.702851 -60.010281 43.017508
1.765884 -58.697462 43.860938
1.60277 -58.615842 42.816102
1.605084 -61.319153 42.20102
1.768197 -61.400772 43.245856
1.702851 -60.010281 43.017508
1.507515 -62.666927 41.349514
1.605084 -61.319153 42.20102
1.204827 -69.399375 41.909113
1.241696 -69.406063 43.031677
1.345062 -68.087665 42.621687
1.085281 -70.711273 41.188835
1.204827 -69.399375 41.909113
-0.249964 -75.817928 53.003376
-0.370144 -75.468941 54.200303
-0.128715 -74.760013 52.402596
-0.13367 -76.091659 51.829837
-0.249964 -75.817928 53.003376
1.972328 -60.267622 57.122261
1.645211 -61.310522 57.46838
1.895326 -60.386314 58.110912
2.620584 -46.199442 49.005893
3.061745 -46.577837 49.727493
2.326003 -47.376531 48.463031
2.620584 -46.199442 49.005893
2.232293 -45.865155 48.243782
1.437655 -57.19215 42.654313
1.473368 -55.87089 43.515434
1.245221 -55.760016 42.510216
1.60277 -58.615842 42.816102
1.437655 -57.19215 42.654313
0.22093 -69.587555 54.754181
0.112974 -70.845211 54.191845
0.342148 -68.375534 55.353336
0.470598 -67.219341 55.884056
0.448597 -68.622734 54.2515
0.22093 -69.587555 54.754181
0.342148 -68.375534 55.353336
0.982796 -72.001724 42.788427
0.964794 -71.989662 43.922073
1.083458 -70.705711 43.452749
0.982796 -72.001724 42.788427
1.028018 -72.00196 41.653146
0.885568 -44.79808 46.081696
1.357294 -45.164825 46.786738
0.714948 -46.084753 45.402401
0.885568 -44.79808 46.081696
0.476328 -44.489919 45.301861
-0.089088 -45.490458 43.806736
0.02383 -44.138106 44.564161
0.225847 -47.0944 43.843143
-0.089088 -45.490458 43.806736
-0.168949 -46.808266 43.027314
0.425848 -51.304844 42.258339
0.450314 -49.947277 43.122357
0.12152 -49.769775 42.199703
0.732394 -52.818142 42.312931
0.425848 -51.304844 42.258339
-0.173219 -73.170974 54.15374
-0.346273 -74.125228 54.753106
-0.063408 -73.443409 53.005627
-0.173219 -73.170974 54.15374
0.008381 -72.128101 53.583233
0.286927 -74.10807 49.514702
0.107431 -75.225834 50.064224
0.167075 -73.915982 50.679535
0.392418 -74.241112 48.364208
0.286927 -74.10807 49.514702
0.452063 -72.93126 48.979519
0.50798 -74.360569 47.209976
0.392418 -74.241112 48.364208
0.645235 -73.141685 46.683495
0.50798 -74.360569 47.209976
0.844124 -71.916504 46.198445
0.645235 -73.141685 46.683495
0.756443 -71.839119 47.343975
1.010394 -70.653793 45.72266
0.899186 -71.956359 45.062179
0.844124 -71.916504 46.198445
4.509308 -46.56447 52.638561
4.910939 -45.458649 53.112465
1.753553 -60.77712 60.079048
2.028926 -60.004133 60.815331
1.837497 -60.586725 59.13005
1.753553 -60.77712 60.079048
2.164614 -59.543825 58.783931
1.895326 -60.386314 58.110912
1.837497 -60.586725 59.13005
3.221615 -56.698035 59.75098
2.811309 -57.82692 60.147728
3.230545 -56.432531 58.654911
3.221615 -56.698035 59.75098
3.592764 -55.558262 59.326706
4.649871 -51.93671 57.901424
4.317082 -53.178691 58.400799
4.566801 -51.621147 56.820949
4.649871 -51.93671 57.901424
4.935802 -50.666065 57.420403
4.902501 -48.679891 54.865997
4.685994 -50.029673 55.339386
5.069239 -49.000721 55.866539
5.056858 -47.29195 54.443787
4.673613 -48.320902 53.916634
4.902501 -48.679891 54.865997
5.195476 -45.856356 54.002041
5.056858 -47.29195 54.443787
4.910939 -45.458649 53.112465
5.195476 -45.856356 54.002041
1.43989 -62.202517 56.840824
1.645211 -61.310522 57.46838
1.253763 -63.195894 56.209831
1.43989 -62.202517 56.840824
1.536085 -62.185208 55.848736
1.094384 -64.185804 55.61927
1.253763 -63.195894 56.209831
1.205308 -64.262693 54.588653
0.949734 -65.269913 54.990181
1.094384 -64.185804 55.61927
4.112617 -47.62455 52.141751
4.43128 -47.99304 52.997612
4.509308 -46.56447 52.638561
3.72895 -48.718985 51.654629
4.112617 -47.62455 52.141751
3.806978 -47.290415 51.295578
3.068803 -48.047835 50.0168
3.416253 -46.914852 50.519149
3.061745 -46.577837 49.727493
1.530951 -46.717579 46.941578
1.764055 -45.489491 47.54608
1.357294 -45.164825 46.786738
1.539466 -64.046022 41.620762
1.506816 -65.406853 41.917006
1.637779 -64.070474 42.725611
1.539466 -64.046022 41.620762
1.507515 -62.666927 41.349514
3 0 82 84
3 84 83 19
3 82 83 84
3 0 85 86
3 1 23 21
3 87 24 88
3 2 27 25
3 2 29 27
3 3 32 30
3 4 35 33
3 4 37 35
3 89 39 90
3 91 42 92
3 93 92 40
3 91 92 93
3 95 94 42
3 96 44 97
3 98 45 99
3 100 99 44
3 98 99 100
3 6 101 102
3 104 103 20
3 7 48 46
3 9 49 22
3 9 50 49
3 105 52 106
3 107 53 108
3 110 109 53
3 11 111 112
3 11 113 114
3 5 115 117
3 115 54 116
3 115 116 117
3 12 55 26
3 12 56 55
3 12 57 56
3 13 58 28
3 13 59 58
3 118 60 119
3 120 61 121
3 122 121 60
3 120 121 122
3 123 62 124
3 125 63 126
3 127 126 62
3 125 126 127
3 128 64 129
3 131 130 64
3 14 65 31
3 14 66 65
3 8 67 47
3 15 68 34
3 15 69 68
3 15 70 69
3 16 71 36
3 16 72 71
3 132 73 133
3 17 74 38
3 17 75 74
3 10 76 51
3 18 77 41
3 18 78 77
3 18 79 78
3 134 80 135
3 136 135 43
3 134 135 136
3 137 81 138
3 139 138 80
3 137 138 139
3 141 140 81
3 19 20 6
3 142 20 143
3 144 143 19
3 142 143 144
3 146 145 20
3 21 22 7
3 23 22 21
3 23 9 22
3 24 147 148
3 24 149 151
3 149 11 150
3 149 150 151
3 25 26 5
3 27 26 25
3 27 12 26
3 27 28 12
3 29 28 27
3 29 13 28
3 30 152 154
3 152 31 153
3 152 153 154
3 32 31 30
3 32 14 31
3 33 34 8
3 35 34 33
3 35 15 34
3 35 36 15
3 37 36 35
3 37 16 36
3 155 38 156
3 39 157 159
3 157 38 158
3 157 158 159
3 39 17 38
3 40 41 10
3 42 41 40
3 42 18 41
3 42 43 18
3 160 43 161
3 162 161 42
3 160 161 162
3 164 163 43
3 165 5 166
3 44 167 168
3 44 169 171
3 169 5 170
3 169 170 171
3 44 25 5
3 45 25 44
3 45 2 25
3 20 172 174
3 174 173 6
3 172 173 174
3 176 175 20
3 46 47 3
3 48 47 46
3 48 8 47
3 22 48 7
3 49 48 22
3 49 8 48
3 49 33 8
3 50 33 49
3 50 4 33
3 177 51 178
3 52 179 181
3 179 51 180
3 179 180 181
3 52 10 51
3 182 52 183
3 53 184 186
3 184 52 185
3 184 185 186
3 53 10 52
3 53 40 10
3 187 40 188
3 189 188 53
3 187 188 189
3 191 190 40
3 192 24 193
3 54 194 196
3 194 24 195
3 194 195 196
3 54 11 24
3 26 54 5
3 55 54 26
3 55 11 54
3 55 197 199
3 199 198 11
3 197 198 199
3 56 200 202
3 202 201 55
3 200 201 202
3 56 203 204
3 56 205 206
3 57 207 209
3 209 208 56
3 207 208 209
3 57 210 212
3 210 6 211
3 210 211 212
3 28 57 12
3 58 57 28
3 58 6 57
3 58 19 6
3 59 19 58
3 59 0 19
3 214 213 1
3 60 215 216
3 60 217 218
3 60 219 221
3 219 30 220
3 219 220 221
3 61 30 60
3 61 3 30
3 222 61 223
3 62 224 226
3 224 61 225
3 224 225 226
3 62 3 61
3 62 46 3
3 63 46 62
3 63 7 46
3 227 63 228
3 64 229 231
3 229 63 230
3 229 230 231
3 64 7 63
3 64 21 7
3 232 21 233
3 234 233 64
3 232 233 234
3 235 1 236
3 237 236 21
3 235 236 237
3 238 1 239
3 241 240 1
3 31 242 243
3 65 244 246
3 246 245 31
3 244 245 246
3 65 247 248
3 65 249 251
3 249 45 250
3 249 250 251
3 66 45 65
3 66 2 45
3 47 32 3
3 67 32 47
3 67 14 32
3 34 67 8
3 68 67 34
3 68 14 67
3 68 66 14
3 69 66 68
3 69 2 66
3 69 29 2
3 70 29 69
3 70 13 29
3 36 70 15
3 71 70 36
3 71 13 70
3 71 59 13
3 72 59 71
3 72 0 59
3 252 23 253
3 254 253 1
3 252 253 254
3 73 255 257
3 255 23 256
3 255 256 257
3 73 9 23
3 38 258 260
3 258 73 259
3 258 259 260
3 74 73 38
3 74 9 73
3 74 50 9
3 75 50 74
3 75 4 50
3 51 261 263
3 261 39 262
3 261 262 263
3 76 39 51
3 76 17 39
3 41 76 10
3 77 76 41
3 77 17 76
3 77 75 17
3 78 75 77
3 78 4 75
3 78 37 4
3 79 37 78
3 79 16 37
3 43 79 18
3 80 79 43
3 80 16 79
3 80 72 16
3 81 72 80
3 81 0 72
3 81 264 266
3 266 265 0
3 264 265 266
3 268 267 81
