ply
format ascii 1.0
element vertex 299
property float x
property float y
property float z
element face 319
property list uchar int vertex_index
end_header
-0.439129 -19.309406 48.04501
-3.291842 -47.547077 51.222927
4.723461 -25.084797 37.464714
2.462662 -28.929787 43.979141
-2.414633 -34.195454 48.994167
0.34025 -43.184113 44.848148
4.017384 -32.92202 37.802658
2.012445 -15.999638 45.766693
3.21386 -21.142952 43.495796
1.217978 -23.960777 46.138767
-4.971087 -43.55582 53.127094
-4.827387 -36.963051 51.581001
-3.085073 -41.053482 50.011929
-0.713364 -38.516571 47.300755
-1.583633 -45.283081 47.991829
-1.979652 -14.955071 50.175922
4.44104 -18.657646 40.375229
3.839382 -26.777353 40.861496
3.071823 -34.331467 41.263725
-3.87653 -18.335527 52.578491
-3.06027 -22.583088 50.145615
-4.109413 -29.946407 50.558735
-1.458736 -26.949213 48.334381
0.270172 -31.449884 46.643745
1.500154 -36.219032 44.465256
2.025423 -41.476387 41.510445
3.630524 -36.634125 37.913872
4.022568 -36.154709 36.117287
0.020735 -15.355077 47.982456
1.238115 -13.603702 46.837448
0.855446 -17.648905 46.959763
1.642076 -20.037386 45.945129
0.412491 -21.599108 47.094185
-4.115389 -45.540138 52.227734
-4.124941 -42.328911 51.485741
-3.255737 -44.344616 50.605011
-2.255301 -43.127617 49.100555
-2.491133 -46.413147 49.570148
-2.525454 -12.900584 51.437557
2.863323 -25.104591 43.735359
3.596458 -23.895987 42.23164
3.246899 -27.800407 42.468666
3.483055 -30.619305 41.074123
2.844929 -31.568207 42.697517
-3.596422 -20.444542 51.269894
-4.156218 -24.15538 51.323532
-3.707394 -35.592415 50.216682
-4.527475 -33.503002 50.993446
-3.318356 -32.073078 49.743744
-2.845245 -28.457973 49.400368
-1.9594 -30.622105 48.613605
-0.564827 -29.17802 47.515533
-1.053261 -32.805359 47.83054
-0.087627 -40.786953 46.191708
0.451832 -37.324608 45.923676
0.938349 -39.728634 44.677971
1.842667 -38.775421 43.08564
1.238358 -42.272705 43.209694
4.375984 -29.078552 37.651333
4.408573 -32.391846 36.022694
2.981262 -14.384893 44.437149
3.513405 -17.047089 43.248566
2.682121 -18.512424 44.66563
2.32373 -22.520571 44.884933
1.915119 -26.399937 45.116684
-5.72213 -41.546333 54.010941
-5.687668 -38.270332 53.152489
-4.981522 -40.316879 52.302219
-3.983751 -39.012123 50.805531
-2.797741 -37.671486 49.466839
-1.512281 -36.332756 48.211246
-1.920546 -39.770142 48.641415
-1.175732 -41.929653 47.650227
-0.620174 -44.195736 46.433006
-0.792294 -13.160398 49.066669
-1.262051 -17.093056 49.054893
4.616852 -21.801647 38.960754
3.901299 -19.848764 41.98381
4.155952 -22.790695 40.630951
4.303017 -25.87068 39.186714
3.968147 -29.788769 39.384178
3.598518 -33.566368 39.553596
3.173855 -37.226517 39.684349
-3.343193 -14.636349 52.684776
-3.042198 -16.688305 51.322914
-2.505894 -18.7966 50.124306
-1.782038 -20.960657 49.080658
-5.485359 -34.87899 52.437508
-5.139809 -31.386433 51.890823
-4.683989 -27.807203 51.522156
-3.607601 -26.303139 50.280624
-2.321314 -24.751783 49.185204
-0.941908 -23.176994 48.151501
-0.068657 -25.443434 47.272469
0.755756 -27.763966 46.368805
1.463142 -30.151714 45.370712
-0.224672 -35.028961 46.959145
0.973139 -33.787033 45.644089
2.009243 -32.628071 44.226376
2.379528 -35.217545 42.908909
2.588959 -37.939735 41.415386
0.591339 -45.737926 43.270432
3.623911 -38.21645 37.036438
3.411709 -38.439351 37.942704
-2.689896 -11.917095 52.138803
-2.297911 -10.99764 51.5037
4.954193 -24.750733 36.581081
4.895043 -23.010193 37.350504
-4.561866 -24.90401 52.004372
-4.292622 -23.084477 51.943945
4.224979 -35.964371 35.204724
4.017186 -37.802055 35.219355
2.16301 -13.930909 45.669807
1.775845 -12.732941 46.205185
1.62528 -14.80167 46.30207
2.496854 -15.192265 45.101921
2.647419 -13.123537 45.005035
2.16301 -13.930909 45.669807
-1.385973 -14.057735 49.621296
-1.15155 -12.115838 49.660793
-1.745229 -13.013174 50.215419
4.677368 -18.121389 39.534546
4.567915 -16.523668 40.225458
4.528946 -20.229647 39.667991
4.765274 -19.693389 38.827309
4.677368 -18.121389 39.534546
-3.879257 -17.292137 53.316848
-4.139278 -19.103269 53.289133
-3.609862 -16.485938 52.631633
-3.612589 -15.442548 53.369991
-3.879257 -17.292137 53.316848
2.350295 -41.138687 40.634834
2.632063 -39.370361 40.587305
2.307191 -39.708061 41.462915
0.655649 -47.098116 42.37859
0.271044 -47.464624 43.270782
0.99097 -45.355916 42.402611
0.655649 -47.098116 42.37859
3.819933 -37.976742 36.138146
3.826546 -36.394417 37.01558
3.623911 -38.21645 37.036438
4.017186 -37.802055 35.219355
3.819933 -37.976742 36.138146
0.629425 -14.479389 47.409952
0.825198 -12.465726 47.38072
0.216508 -13.341413 47.953224
-2.01813 -11.985931 50.846237
-2.297911 -10.99764 51.5037
-2.252553 -13.927827 50.806739
-1.745229 -13.013174 50.215419
-2.01813 -11.985931 50.846237
4.302078 -17.161511 41.04273
4.567915 -16.523668 40.225458
-4.152778 -20.17455 52.571424
-4.139278 -19.103269 53.289133
-4.012724 -21.229057 51.917126
-3.736476 -19.390034 51.924193
-4.152778 -20.17455 52.571424
-3.87632 -22.299961 51.296713
-4.012724 -21.229057 51.917126
-4.292622 -23.084477 51.943945
4.584706 -28.781166 36.767286
4.758444 -26.784288 36.673977
4.549722 -27.081674 37.558024
4.601 -30.437813 35.952967
4.584706 -28.781166 36.767286
4.392278 -30.735199 36.837013
4.63038 -32.177011 35.114775
4.601 -30.437813 35.952967
4.417982 -34.08294 35.157427
4.215571 -34.273277 36.069991
4.224979 -35.964371 35.204724
4.63038 -32.177011 35.114775
4.417982 -34.08294 35.157427
1.389587 -11.542469 46.763699
0.825198 -12.465726 47.38072
1.389587 -11.542469 46.763699
1.775845 -12.732941 46.205185
3.09598 -12.271017 44.303545
2.647419 -13.123537 45.005035
3.369162 -13.607838 43.704052
3.09598 -12.271017 44.303545
3.247333 -15.715991 43.842857
3.635233 -14.938937 43.10976
3.369162 -13.607838 43.704052
-5.704899 -39.908333 53.581715
-5.958734 -38.873779 54.059378
-5.975964 -40.51178 54.488604
-0.595174 -11.168874 49.069351
-1.15155 -12.115838 49.660793
-0.190007 -12.244074 48.49533
-0.595174 -11.168874 49.069351
-0.38578 -14.257738 48.524563
0.216508 -13.341413 47.953224
-0.190007 -12.244074 48.49533
-5.943225 -42.105325 54.983141
-5.975964 -40.51178 54.488604
-5.6485 -43.120662 54.494406
-5.943225 -42.105325 54.983141
-5.272979 -44.125406 54.052482
-5.346609 -42.551076 53.569018
-5.6485 -43.120662 54.494406
-4.87939 -45.114629 53.57394
-5.272979 -44.125406 54.052482
-4.451541 -46.106789 53.12426
-4.543238 -44.547979 52.677414
-4.87939 -45.114629 53.57394
-4.031511 -47.092178 52.615313
-4.451541 -46.106789 53.12426
-3.619737 -48.095647 52.11291
-3.703616 -46.543608 51.72533
-4.031511 -47.092178 52.615313
4.954193 -24.750733 36.581081
4.758444 -26.784288 36.673977
4.841738 -21.368618 38.098524
4.765274 -19.693389 38.827309
4.670157 -23.443222 38.212734
4.895043 -23.010193 37.350504
4.841738 -21.368618 38.098524
3.83826 -16.356233 42.479399
3.635233 -14.938937 43.10976
4.032208 -17.75707 41.847021
3.83826 -16.356233 42.479399
3.707352 -18.447927 42.616188
4.171169 -19.253205 41.179519
4.302078 -17.161511 41.04273
4.032208 -17.75707 41.847021
3.183375 -38.735546 38.827942
3.411709 -38.439351 37.942704
3.402189 -36.930321 38.79911
-3.368133 -13.636591 53.434406
-3.612589 -15.442548 53.369991
-3.098765 -12.784977 52.762413
-3.368133 -13.636591 53.434406
-2.934323 -13.768466 52.061166
-2.689896 -11.917095 52.138803
-3.098765 -12.784977 52.762413
-5.902821 -37.217941 53.637526
-5.958734 -38.873779 54.059378
-5.801666 -35.52227 53.280035
-5.902821 -37.217941 53.637526
-5.586514 -36.574661 52.794999
-5.667415 -33.812397 52.945616
-5.801666 -35.52227 53.280035
-5.49464 -32.066119 52.672274
-5.667415 -33.812397 52.945616
-5.312584 -33.132711 52.164165
-5.296894 -30.31106 52.433012
-5.49464 -32.066119 52.672274
-5.068984 -28.521445 52.248678
-5.296894 -30.31106 52.433012
-4.911899 -29.596818 51.70649
-4.825752 -26.729922 52.103684
-5.068984 -28.521445 52.248678
-4.420103 -25.981292 51.422844
-4.561866 -24.90401 52.004372
-4.825752 -26.729922 52.103684
2.924511 -39.013752 39.721787
2.881407 -37.583126 40.549867
2.632063 -39.370361 40.587305
3.183375 -38.735546 38.827942
2.924511 -39.013752 39.721787
-3.236244 -49.104414 51.535668
-3.619737 -48.095647 52.11291
-2.946584 -48.589019 50.63072
-3.236244 -49.104414 51.535668
-2.546229 -48.022054 49.804331
-2.891488 -46.980112 50.396538
-2.946584 -48.589019 50.63072
-2.19588 -47.499832 48.944016
-2.546229 -48.022054 49.804331
-1.74213 -46.934799 48.154856
-2.037383 -45.848114 48.780989
-2.19588 -47.499832 48.944016
-1.344842 -46.42516 47.316578
-1.74213 -46.934799 48.154856
-0.863112 -45.881487 46.537166
-1.101904 -44.739408 47.212418
-1.344842 -46.42516 47.316578
-0.439325 -45.402075 45.700653
-0.863112 -45.881487 46.537166
0.040887 -44.896264 44.908224
-0.139962 -43.689925 45.640577
-0.439325 -45.402075 45.700653
0.166431 -46.17317 44.119366
0.271044 -47.464624 43.270782
0.465795 -44.46102 44.05929
0.040887 -44.896264 44.908224
0.166431 -46.17317 44.119366
1.314479 -43.623306 42.372242
0.914848 -44.005316 43.240063
0.99097 -45.355916 42.402611
1.708012 -43.225147 41.522617
1.63189 -41.874546 42.360069
1.314479 -43.623306 42.372242
2.06073 -42.900387 40.636185
1.708012 -43.225147 41.522617
2.350295 -41.138687 40.634834
2.06073 -42.900387 40.636185
3 103 102 26
3 0 30 28
3 0 32 30
3 1 35 33
3 1 37 35
3 104 38 105
3 2 106 107
3 3 41 39
3 3 43 41
3 108 45 109
3 4 48 46
3 4 50 48
3 4 52 50
3 5 55 53
3 5 57 55
3 6 59 58
3 111 110 27
3 7 112 114
3 114 113 29
3 112 113 114
3 7 115 117
3 115 60 116
3 115 116 117
3 7 62 60
3 9 63 31
3 9 64 63
3 10 67 65
3 12 68 34
3 12 69 68
3 12 71 69
3 14 72 36
3 14 73 72
3 15 118 120
3 118 74 119
3 118 119 120
3 15 75 74
3 16 121 122
3 16 123 125
3 123 76 124
3 123 124 125
3 8 77 61
3 17 78 40
3 17 79 78
3 17 80 79
3 18 81 42
3 18 82 81
3 19 126 127
3 19 128 130
3 128 83 129
3 128 129 130
3 19 84 83
3 20 85 44
3 20 86 85
3 11 87 66
3 21 88 47
3 21 89 88
3 21 90 89
3 22 91 49
3 22 92 91
3 22 93 92
3 23 94 51
3 23 95 94
3 13 96 70
3 24 97 54
3 24 98 97
3 24 99 98
3 25 100 56
3 25 131 133
3 133 132 100
3 131 132 133
3 134 101 135
3 137 136 101
3 26 27 6
3 138 27 139
3 140 139 26
3 138 139 140
3 142 141 27
3 28 143 145
3 143 29 144
3 143 144 145
3 30 29 28
3 30 7 29
3 30 31 7
3 32 31 30
3 32 9 31
3 33 34 10
3 35 34 33
3 35 12 34
3 35 36 12
3 37 36 35
3 37 14 36
3 38 146 147
3 38 148 150
3 148 15 149
3 148 149 150
3 151 16 152
3 39 40 8
3 41 40 39
3 41 17 40
3 41 42 17
3 43 42 41
3 43 18 42
3 153 19 154
3 155 44 156
3 157 156 19
3 155 156 157
3 45 158 160
3 158 44 159
3 158 159 160
3 45 20 44
3 46 47 11
3 48 47 46
3 48 21 47
3 48 49 21
3 50 49 48
3 50 22 49
3 50 51 22
3 52 51 50
3 52 23 51
3 53 54 13
3 55 54 53
3 55 24 54
3 55 56 24
3 57 56 55
3 57 25 56
3 58 161 163
3 163 162 2
3 161 162 163
3 59 164 166
3 166 165 58
3 164 165 166
3 59 167 168
3 27 59 6
3 169 59 170
3 171 170 27
3 169 170 171
3 173 172 59
3 29 174 175
3 177 176 29
3 60 178 179
3 60 180 181
3 60 182 184
3 182 61 183
3 182 183 184
3 62 61 60
3 62 8 61
3 31 62 7
3 63 62 31
3 63 8 62
3 63 39 8
3 64 39 63
3 64 3 39
3 65 185 187
3 185 66 186
3 185 186 187
3 67 66 65
3 67 11 66
3 34 67 10
3 68 67 34
3 68 11 67
3 68 46 11
3 69 46 68
3 69 4 46
3 69 70 4
3 71 70 69
3 71 13 70
3 36 71 12
3 72 71 36
3 72 13 71
3 72 53 13
3 73 53 72
3 73 5 53
3 74 188 189
3 74 190 191
3 74 192 194
3 192 28 193
3 192 193 194
3 75 28 74
3 75 0 28
3 195 65 196
3 197 65 198
3 199 10 200
3 201 200 65
3 199 200 201
3 202 10 203
3 204 33 205
3 206 205 10
3 204 205 206
3 207 33 208
3 209 1 210
3 211 210 33
3 209 210 211
3 213 212 2
3 76 214 215
3 76 216 218
3 216 2 217
3 216 217 218
3 61 219 220
3 77 221 223
3 223 222 61
3 221 222 223
3 77 224 226
3 224 16 225
3 224 225 226
3 40 77 8
3 78 77 40
3 78 16 77
3 78 76 16
3 79 76 78
3 79 2 76
3 79 58 2
3 80 58 79
3 80 6 58
3 42 80 17
3 81 80 42
3 81 6 80
3 81 26 6
3 82 26 81
3 82 227 229
3 229 228 26
3 227 228 229
3 83 230 231
3 83 232 233
3 83 234 236
3 234 38 235
3 234 235 236
3 84 38 83
3 84 15 38
3 44 84 19
3 85 84 44
3 85 15 84
3 85 75 15
3 86 75 85
3 86 0 75
3 66 237 238
3 87 239 241
3 241 240 66
3 239 240 241
3 87 242 243
3 47 87 11
3 88 87 47
3 88 244 246
3 246 245 87
3 244 245 246
3 88 247 248
3 89 249 251
3 251 250 88
3 249 250 251
3 89 252 253
3 89 254 256
3 254 45 255
3 254 255 256
3 90 45 89
3 90 20 45
3 49 90 21
3 91 90 49
3 91 20 90
3 91 86 20
3 92 86 91
3 92 0 86
3 92 32 0
3 93 32 92
3 93 9 32
3 51 93 22
3 94 93 51
3 94 9 93
3 94 64 9
3 95 64 94
3 95 3 64
3 70 52 4
3 96 52 70
3 96 23 52
3 54 96 13
3 97 96 54
3 97 23 96
3 97 95 23
3 98 95 97
3 98 3 95
3 98 43 3
3 99 43 98
3 99 18 43
3 56 99 24
3 100 99 56
3 100 18 99
3 100 82 18
3 257 82 258
3 259 258 100
3 257 258 259
3 261 260 82
3 262 1 263
3 264 1 265
3 266 37 267
3 268 267 1
3 266 267 268
3 269 37 270
3 271 14 272
3 273 272 37
3 271 272 273
3 274 14 275
3 276 73 277
3 278 277 14
3 276 277 278
3 279 73 280
3 281 5 282
3 283 282 73
3 281 282 283
3 101 284 285
3 101 286 288
3 286 5 287
3 286 287 288
3 101 57 5
3 289 57 290
3 291 290 101
3 289 290 291
3 292 25 293
3 294 293 57
3 292 293 294
3 295 25 296
3 298 297 25
