ply
format ascii 1.0
element vertex 301
property float x
property float y
property float z
element face 305
property list uchar int vertex_index
end_header
5.51931 27.925911 26.882267
0.599932 13.100513 45.993095
2.835175 21.626522 37.068356
3.484844 43.662945 19.576954
0.837196 37.18626 31.773525
-0.755529 28.28548 43.049576
1.716337 17.547356 41.703934
4.879776 45.456074 13.303198
2.215927 50.828671 15.497937
-0.070536 44.671894 28.762617
-0.10317 32.921547 37.545689
4.093853 25.142521 32.121613
6.157364 19.438412 30.007553
4.79958 16.735088 34.808678
6.065094 37.92791 17.524588
4.606735 36.010853 23.389292
0.974173 48.21944 22.182144
2.067709 40.843422 25.762974
3.142323 33.162323 29.083796
1.856918 29.546383 34.546524
0.807287 25.362377 39.738136
-0.062035 20.814526 44.634251
6.250172 29.001095 24.16185
6.595768 24.795059 25.86755
1.165018 15.357613 43.894577
2.094152 13.502743 42.576569
3.44083 23.466412 34.632549
4.484684 20.988747 33.516083
3.848007 19.338211 35.904877
4.200966 44.697578 16.444555
5.509666 41.769287 15.454922
4.806076 40.963116 18.498789
5.351448 37.094372 20.473358
4.068527 39.894047 21.521128
0.450701 51.79269 20.310604
-0.037642 50.196339 23.754223
0.362598 40.942715 30.298248
0.906322 42.852737 27.174282
1.419853 39.105896 28.794781
2.613262 37.04208 27.457111
1.945951 35.304108 30.352482
2.470272 31.438431 31.84705
1.341068 33.392544 33.189461
-0.462465 30.636669 40.331696
0.336805 29.161869 38.667736
-0.069937 26.898567 41.302917
0.355087 23.122383 42.22435
-0.423185 24.569054 43.866875
6.351223 15.052299 31.400448
7.144806 11.617321 30.313456
2.266537 19.645378 39.426765
3.2509 17.525284 38.213104
2.674927 15.571857 40.438728
5.488358 45.923641 10.169037
4.180431 48.974216 11.087772
3.542217 48.28632 14.323052
2.863472 47.309925 17.564339
-0.103258 38.870178 33.366058
0.328869 35.114563 34.69212
-0.487944 36.667427 36.371284
-0.793823 34.366085 39.310425
4.791893 26.634811 29.537266
5.877296 23.731228 28.496151
5.165127 22.458244 31.04653
5.460949 18.182686 32.453232
5.670246 13.812763 33.739868
4.180485 15.109699 37.077072
6.147774 42.297962 12.403431
6.545902 33.948757 19.502514
5.833855 33.103516 22.362211
5.092831 32.019993 25.177635
1.582621 49.654194 18.845686
2.178293 46.06348 20.795679
0.416931 46.54929 25.492264
1.51754 44.569206 24.003128
2.763981 42.370853 22.686956
3.328236 38.580029 24.510496
3.861336 34.693768 26.262241
4.353104 30.712582 27.939445
3.641075 29.198284 30.640593
2.975143 27.496716 33.276001
2.362926 25.62991 35.841988
0.80505 31.335583 35.962498
1.304501 27.512188 37.177979
1.801029 23.621822 38.335472
1.277754 21.497452 40.753204
0.778301 19.28149 43.091507
0.290974 16.996628 45.346451
-0.44924 18.4561 46.965229
-0.187393 14.661858 47.514107
1.042342 12.222555 45.306194
1.324885 13.351105 44.256935
0.882475 14.229063 44.943836
-0.408975 51.127991 24.63784
-0.241664 51.994293 22.863247
6.799162 11.099922 31.485135
6.748015 13.33481 30.856952
6.40237 12.817411 32.028632
2.549683 12.452138 41.965817
2.241286 11.434857 42.965653
3.802488 50.645042 9.962193
4.462295 49.166916 9.48238
2.879072 49.557496 14.910495
3.191948 50.003968 13.239272
2.528803 51.275143 13.826714
-0.452519 39.645523 34.253677
-0.290523 40.744162 32.673946
-0.644863 38.544148 35.75629
-0.295601 37.768803 34.868671
-0.452519 39.645523 34.253677
-1.004412 35.045919 40.28693
-0.919571 36.239607 38.773083
-1.130161 36.919442 39.749588
-0.910327 33.180259 40.746598
-1.004412 35.045919 40.28693
3.885992 14.217079 38.168575
3.715693 16.317491 37.645088
3.4212 15.424871 38.736591
6.391184 38.212906 16.039991
6.11347 40.133595 15.005159
5.78738 39.848598 16.489755
6.632048 36.235859 17.067478
6.391184 38.212906 16.039991
6.305498 35.938333 18.513551
6.872452 34.246282 18.056441
6.632048 36.235859 17.067478
0.173198 45.610592 27.12744
-0.018438 47.463585 26.330192
-0.262172 46.524887 27.965369
-0.626554 17.257028 48.089258
-0.718984 19.114336 47.870233
-0.495631 15.359907 48.363697
-0.318317 16.558979 47.239668
-0.626554 17.257028 48.089258
-0.417923 13.476579 48.552159
-0.495631 15.359907 48.363697
6.510886 19.964908 28.739155
6.370852 22.111317 27.983454
6.01733 21.58482 29.251852
6.76907 27.320358 23.664793
6.601807 29.424616 22.77317
6.941868 25.21734 24.517643
6.76907 27.320358 23.664793
6.42297 26.898077 25.0147
7.071621 23.064243 25.357428
6.941868 25.21734 24.517643
1.789451 12.42367 43.597931
1.629585 14.430178 43.235573
1.324885 13.351105 44.256935
2.241286 11.434857 42.965653
1.789451 12.42367 43.597931
1.8877 52.522697 14.44948
2.528803 51.275143 13.826714
0.002507 52.792469 21.141438
0.206959 53.540287 19.358662
-0.241235 54.540066 20.189495
0.20653 50.994515 22.032414
0.002507 52.792469 21.141438
-0.241664 51.994293 22.863247
6.700268 15.574171 30.179354
6.603338 17.767228 29.482906
6.254294 17.245355 30.704
7.09706 13.856682 29.635858
6.700268 15.574171 30.179354
6.748015 13.33481 30.856952
7.484644 12.038346 29.083866
7.09706 13.856682 29.635858
3.133213 14.448158 39.849403
3.4212 15.424871 38.736591
2.962913 16.548571 39.325916
2.840071 13.486695 40.896896
2.384539 14.5373 41.507649
2.549683 12.452138 41.965817
3.133213 14.448158 39.849403
2.840071 13.486695 40.896896
5.116259 47.641628 9.023013
5.742535 46.00692 8.61532
4.834395 47.448929 10.628404
5.116259 47.641628 9.023013
4.462295 49.166916 9.48238
3.511055 50.347915 11.621631
3.802488 50.645042 9.962193
3.861324 48.630268 12.705412
3.511055 50.347915 11.621631
3.191948 50.003968 13.239272
-0.429257 45.519356 29.6503
-0.262172 46.524887 27.965369
-0.274163 43.64502 30.372225
-0.429257 45.519356 29.6503
-0.632883 44.492481 31.259909
-0.057596 41.78043 31.140041
0.146031 42.807305 29.530432
-0.274163 43.64502 30.372225
0.12967 39.906447 31.832153
-0.057596 41.78043 31.140041
-0.290523 40.744162 32.673946
-0.766632 37.390278 37.303512
-0.644863 38.544148 35.75629
-0.640883 35.516756 37.840855
-0.766632 37.390278 37.303512
-0.919571 36.239607 38.773083
-0.744648 31.315551 41.257233
-0.628144 32.501377 39.821061
-0.910327 33.180259 40.746598
-0.89118 30.139957 42.616173
-0.608997 29.461075 41.690636
-0.744648 31.315551 41.257233
0.717224 11.112409 46.276584
0.310716 11.949265 46.994079
6.061882 12.197643 33.198341
6.40237 12.817411 32.028632
6.010734 14.432531 32.570158
4.30386 12.948728 37.604374
3.885992 14.217079 38.168575
4.604584 13.748275 36.529325
4.30386 12.948728 37.604374
4.914131 14.560969 35.395128
4.490032 15.922394 35.942875
4.604584 13.748275 36.529325
5.349464 13.099806 34.860724
5.234913 15.273926 34.274273
4.914131 14.560969 35.395128
5.729288 11.5864 34.314195
5.349464 13.099806 34.860724
6.061882 12.197643 33.198341
5.729288 11.5864 34.314195
1.042342 12.222555 45.306194
0.717224 11.112409 46.276584
6.089861 44.231037 9.765324
5.742535 46.00692 8.61532
6.419569 42.418197 10.882521
6.089861 44.231037 9.765324
5.818066 44.110802 11.286234
6.7141 40.545936 11.992324
6.419569 42.418197 10.882521
6.432524 40.397932 13.479413
5.82872 42.033625 13.929177
6.11347 40.133595 15.005159
6.7141 40.545936 11.992324
6.432524 40.397932 13.479413
7.072209 32.202931 19.032274
6.872452 34.246282 18.056441
6.749672 31.898447 20.443503
7.072209 32.202931 19.032274
6.393648 31.475827 21.873351
6.749672 31.898447 20.443503
6.189878 33.526136 20.932362
6.042013 31.052305 23.262031
6.601807 29.424616 22.77317
6.393648 31.475827 21.873351
1.60409 51.984573 16.175774
1.8877 52.522697 14.44948
0.721477 52.466583 18.582107
0.206959 53.540287 19.358662
1.287437 51.397335 17.849649
0.721477 52.466583 18.582107
1.016661 50.723442 19.578145
1.899274 50.241433 17.171812
1.60409 51.984573 16.175774
1.287437 51.397335 17.849649
-0.245725 49.287109 25.461172
-0.408975 51.127991 24.63784
0.189644 48.372815 24.623244
-0.245725 49.287109 25.461172
-0.018438 47.463585 26.330192
-0.974761 28.929882 44.019495
-0.89118 30.139957 42.616173
-0.8722 27.086182 44.374588
-0.974761 28.929882 44.019495
-0.706028 25.227969 44.783237
-0.589357 26.427267 43.458225
-0.8722 27.086182 44.374588
-0.576104 23.379824 45.112702
-0.706028 25.227969 44.783237
-0.395529 21.50256 45.496389
-0.24261 22.69179 44.250563
-0.576104 23.379824 45.112702
-0.589131 20.323347 46.661879
-0.718984 19.114336 47.870233
-0.255637 19.635313 45.79974
-0.395529 21.50256 45.496389
-0.589131 20.323347 46.661879
-0.082947 12.729938 47.754586
0.310716 11.949265 46.994079
0.206269 13.881186 46.753601
-0.313476 11.544659 48.792637
-0.082947 12.729938 47.754586
-0.417923 13.476579 48.552159
6.730087 22.643232 26.669154
6.236532 24.263143 27.181851
6.370852 22.111317 27.983454
7.071621 23.064243 25.357428
6.730087 22.643232 26.669154
6.510886 19.964908 28.739155
6.603338 17.767228 29.482906
7.146383 9.34288 30.916406
6.799162 11.099922 31.485135
7.488926 9.763587 29.732858
7.146383 9.34288 30.916406
7.484644 12.038346 29.083866
7.488926 9.763587 29.732858
3 0 23 22
3 1 90 92
3 92 91 24
3 90 91 92
3 2 28 26
3 3 31 29
3 3 33 31
3 93 35 94
3 4 38 36
3 4 40 38
3 4 42 40
3 5 45 43
3 5 47 45
3 95 49 96
3 97 96 48
3 95 96 97
3 6 52 50
3 99 98 25
3 100 54 101
3 8 102 104
3 102 55 103
3 102 103 104
3 8 56 55
3 105 57 106
3 107 59 108
3 109 108 57
3 107 108 109
3 110 60 111
3 110 111 112
3 114 113 60
3 11 63 61
3 13 64 27
3 13 65 64
3 115 66 116
3 117 116 51
3 115 116 117
3 7 67 53
3 14 118 120
3 120 119 30
3 118 119 120
3 14 121 122
3 14 123 125
3 123 68 124
3 123 124 125
3 15 69 32
3 15 70 69
3 16 71 34
3 16 72 71
3 9 126 128
3 126 73 127
3 126 127 128
3 17 74 37
3 17 75 74
3 17 76 75
3 18 77 39
3 18 78 77
3 18 79 78
3 19 80 41
3 19 81 80
3 10 82 58
3 20 83 44
3 20 84 83
3 20 85 84
3 21 86 46
3 21 87 86
3 129 88 130
3 131 89 132
3 133 132 88
3 131 132 133
3 135 134 89
3 12 136 138
3 138 137 62
3 136 137 138
3 22 139 140
3 23 141 143
3 143 142 22
3 141 142 143
3 23 144 145
3 24 25 6
3 146 25 147
3 148 147 24
3 146 147 148
3 150 149 25
3 151 8 152
3 26 27 11
3 28 27 26
3 28 13 27
3 29 30 7
3 31 30 29
3 31 14 30
3 31 32 14
3 33 32 31
3 33 15 32
3 153 34 154
3 153 154 155
3 35 156 158
3 156 34 157
3 156 157 158
3 35 16 34
3 36 37 9
3 38 37 36
3 38 17 37
3 38 39 17
3 40 39 38
3 40 18 39
3 40 41 18
3 42 41 40
3 42 19 41
3 43 44 10
3 45 44 43
3 45 20 44
3 45 46 20
3 47 46 45
3 47 21 46
3 48 159 161
3 161 160 12
3 159 160 161
3 49 162 164
3 164 163 48
3 162 163 164
3 49 165 166
3 50 51 2
3 52 51 50
3 52 167 169
3 169 168 51
3 167 168 169
3 25 52 6
3 170 52 171
3 172 171 25
3 170 171 172
3 174 173 52
3 175 53 176
3 54 177 179
3 177 53 178
3 177 178 179
3 54 7 53
3 180 54 181
3 55 182 184
3 182 54 183
3 182 183 184
3 55 7 54
3 55 29 7
3 56 29 55
3 56 3 29
3 185 9 186
3 187 9 188
3 187 188 189
3 190 36 191
3 192 191 9
3 190 191 192
3 57 193 195
3 193 36 194
3 193 194 195
3 57 4 36
3 57 58 4
3 59 58 57
3 59 10 58
3 196 59 197
3 60 198 200
3 198 59 199
3 198 199 200
3 60 10 59
3 60 43 10
3 201 43 202
3 203 202 60
3 201 202 203
3 204 5 205
3 206 205 43
3 204 205 206
3 208 207 1
3 61 62 0
3 63 62 61
3 63 12 62
3 27 63 11
3 64 63 27
3 64 12 63
3 64 48 12
3 65 48 64
3 65 209 211
3 211 210 48
3 209 210 211
3 51 28 2
3 66 28 51
3 66 13 28
3 212 66 213
3 214 66 215
3 216 13 217
3 218 217 66
3 216 217 218
3 219 65 220
3 221 220 13
3 219 220 221
3 222 65 223
3 225 224 65
3 227 226 1
3 53 228 229
3 67 230 232
3 232 231 53
3 230 231 232
3 67 233 234
3 30 67 7
3 235 67 236
3 237 236 30
3 235 236 237
3 239 238 67
3 68 240 241
3 68 242 243
3 32 68 14
3 69 68 32
3 69 244 246
3 246 245 68
3 244 245 246
3 69 247 249
3 247 22 248
3 247 248 249
3 70 22 69
3 70 0 22
3 250 8 251
3 34 252 253
3 71 254 256
3 256 255 34
3 254 255 256
3 71 257 259
3 257 8 258
3 257 258 259
3 71 56 8
3 72 56 71
3 72 3 56
3 260 35 261
3 73 262 264
3 262 35 263
3 262 263 264
3 73 16 35
3 37 73 9
3 74 73 37
3 74 16 73
3 74 72 16
3 75 72 74
3 75 3 72
3 75 33 3
3 76 33 75
3 76 15 33
3 39 76 17
3 77 76 39
3 77 15 76
3 77 70 15
3 78 70 77
3 78 0 70
3 78 61 0
3 79 61 78
3 79 11 61
3 41 79 18
3 80 79 41
3 80 11 79
3 80 26 11
3 81 26 80
3 81 2 26
3 58 42 4
3 82 42 58
3 82 19 42
3 44 82 10
3 83 82 44
3 83 19 82
3 83 81 19
3 84 81 83
3 84 2 81
3 84 50 2
3 85 50 84
3 85 6 50
3 46 85 20
3 86 85 46
3 86 6 85
3 86 24 6
3 87 24 86
3 87 1 24
3 265 5 266
3 267 5 268
3 269 47 270
3 271 270 5
3 269 270 271
3 272 47 273
3 274 21 275
3 276 275 47
3 274 275 276
3 88 277 278
3 88 279 281
3 279 21 280
3 279 280 281
3 88 87 21
3 89 87 88
3 89 1 87
3 89 282 284
3 284 283 1
3 282 283 284
3 287 286 89
3 285 286 287
3 62 23 0
3 288 23 289
3 290 289 62
3 288 289 290
3 292 291 23
3 294 293 12
3 295 49 296
3 297 49 298
3 300 299 49
