ply
format ascii 1.0
element vertex 259
property float x
property float y
property float z
element face 266
property list uchar int vertex_index
end_header
-5.608297 -32.789238 87.557388
-4.65131 -21.84561 88.470695
-12.131546 -23.519651 85.44059
-13.801612 -31.924463 82.372612
0.17182 -33.094994 87.887283
-16.963364 -28.06003 81.1222
-18.330521 -31.478561 79.383919
-4.837685 -27.697586 88.350006
-1.737581 -27.271042 88.689949
-2.269655 -33.029819 88.623978
-7.314684 -36.752594 86.839233
-3.725283 -37.710873 88.439827
-8.168959 -22.789295 87.388237
-8.564854 -27.986429 86.609467
-16.353767 -23.979725 83.048698
-12.657084 -28.087723 84.045067
-9.52602 -32.393372 85.253891
-11.46899 -35.750221 84.336189
-1.814096 -20.90616 88.169434
-0.981436 -38.458252 88.43409
-19.779381 -29.749218 78.620956
-20.672771 -31.280323 77.931
-19.448671 -32.881126 78.984619
-5.127413 -30.36459 87.994286
-3.423105 -30.328747 88.556549
-3.847771 -32.932014 88.287468
-11.933338 -21.040068 85.661041
-9.951588 -20.548275 86.57045
-10.107763 -23.188982 86.491409
-8.323652 -25.466335 87.130623
-10.302355 -25.701097 86.074097
-15.2901 -29.991863 81.652672
-14.789069 -28.083771 82.607468
-13.115286 -30.114866 83.154808
-10.996395 -30.224926 84.600159
-11.627764 -32.161633 83.850052
-10.359457 -34.208252 84.696236
-12.522989 -33.845222 83.282074
-4.697077 -18.742825 88.17836
-3.252813 -18.143854 88.117035
-3.132637 -21.35812 88.521347
-0.623363 -30.158613 88.392883
-3.289675 -40.153923 88.804787
-2.227732 -38.120354 88.672745
-1.959793 -40.676006 88.743507
-13.994992 -21.447594 84.655701
-18.784275 -26.143341 80.738365
-19.172482 -28.02776 79.616722
-17.51347 -29.867573 80.132393
-16.038015 -31.693933 80.872162
-14.764647 -33.497646 81.831573
-17.075556 -33.175003 80.389458
-4.691162 -24.841908 88.527374
-3.103992 -24.486578 88.728447
-3.189619 -27.493837 88.728416
-1.907856 -30.256382 88.706871
-0.91659 -33.082535 88.502228
-6.327345 -34.925911 87.146545
-4.507673 -35.249428 88.011337
-5.433853 -37.24781 87.79953
-6.310707 -19.369631 87.895729
-8.070036 -19.983269 87.336258
-6.340437 -22.333443 88.07077
-6.442894 -25.175701 87.97171
-6.641665 -27.865229 87.618767
-6.979801 -30.35807 87.093346
-14.219298 -23.780313 84.282394
-16.60726 -26.085409 82.16613
-14.460319 -26.001354 83.549515
-12.35413 -25.877335 84.864037
-10.577341 -28.058857 85.396439
-8.945086 -30.309486 85.935631
-7.511753 -32.606594 86.516815
-8.287474 -34.573574 86.011101
-9.334833 -36.246918 85.654716
-1.71768 -24.136997 88.517715
-2.864975 -35.529472 88.514282
-1.440716 -35.754623 88.578331
-0.275772 -35.918484 88.153831
-0.905739 -41.104866 88.192284
-0.022104 -38.712906 87.694237
-21.864001 -31.185925 77.229347
-21.376376 -30.458092 77.534027
-22.567606 -30.363694 76.832375
-21.274287 -31.94598 77.782402
-21.864001 -31.185925 77.229347
0.283116 -31.572375 87.740135
-0.114476 -30.104184 87.992935
-0.225772 -31.626804 88.140083
0.568885 -33.085413 87.334308
0.283116 -31.572375 87.740135
-2.579962 -41.622873 88.898517
-2.624734 -40.414964 88.774147
-3.244903 -41.361832 88.929158
-14.918196 -20.463178 84.161774
-13.871108 -20.230252 84.629517
-20.290436 -28.009911 78.863758
-20.076796 -27.106667 79.450008
-18.924377 -33.663277 79.606846
-20.150849 -33.48447 78.959655
-7.165202 -18.21508 87.447388
-6.328981 -17.834797 87.690201
-16.235731 -22.876314 83.316806
-17.318579 -23.003815 82.756359
-15.286532 -23.880019 83.665546
-15.168496 -22.776608 83.933654
-16.235731 -22.876314 83.316806
-11.058077 -36.699873 84.893856
-9.990999 -36.948222 85.553119
-10.401912 -35.99857 84.995452
-14.231859 -34.387888 82.395077
-15.388591 -34.169565 81.704464
-1.906742 -19.259258 87.915059
-2.626101 -17.878105 87.888859
-2.533454 -19.525007 88.143235
-1.266827 -20.713787 87.777809
-1.906742 -19.259258 87.915059
-1.045177 -42.388904 88.017216
-1.476992 -42.142372 88.443535
0.301735 -38.796776 87.079247
-0.088695 -40.06934 87.419392
0.286963 -37.366732 87.460965
0.301735 -38.796776 87.079247
-20.929681 -29.692539 77.879005
-20.593885 -28.87064 78.365875
-20.226076 -30.51477 78.275978
-20.929681 -29.692539 77.879005
-21.376376 -30.458092 77.534027
-20.662237 -32.746381 78.309212
-20.060721 -32.080725 78.457809
-21.274287 -31.94598 77.782402
-20.150849 -33.48447 78.959655
-20.662237 -32.746381 78.309212
-6.973112 -37.840622 87.255932
-7.942561 -37.517624 86.744792
-10.942463 -20.794172 86.115746
-10.843131 -19.497535 86.033478
-11.834006 -19.743431 85.578773
-17.436991 -24.055982 82.403862
-17.318579 -23.003815 82.756359
-3.974945 -18.44334 88.147697
-4.03538 -16.847717 87.905697
-4.757512 -17.147202 87.93636
-0.571536 -28.60438 88.292793
-1.128645 -27.160595 88.441326
-1.180472 -28.714827 88.541416
-0.571536 -28.60438 88.292793
-0.114476 -30.104184 87.992935
-12.84028 -20.02649 85.132187
-11.834006 -19.743431 85.578773
-12.964165 -21.243831 85.158371
-12.84028 -20.02649 85.132187
-13.871108 -20.230252 84.629517
-19.882693 -26.164457 80.01083
-19.744404 -25.197883 80.581524
-18.978378 -27.085551 80.177543
-19.882693 -26.164457 80.01083
-20.076796 -27.106667 79.450008
-19.475932 -28.888489 79.118839
-20.290436 -28.009911 78.863758
-20.593885 -28.87064 78.365875
-16.544045 -34.008243 80.983406
-15.388591 -34.169565 81.704464
-15.920101 -33.336325 81.110516
-17.737819 -33.810215 80.309266
-18.262113 -33.028064 79.687038
-18.924377 -33.663277 79.606846
-16.544045 -34.008243 80.983406
-17.737819 -33.810215 80.309266
-6.032697 -38.08823 87.73608
-6.374268 -37.000202 87.319381
-6.973112 -37.840622 87.255932
-5.14672 -38.404911 88.110859
-6.032697 -38.08823 87.73608
-4.292435 -38.636443 88.431007
-4.579568 -37.479342 88.119678
-5.14672 -38.404911 88.110859
-4.074631 -39.857968 88.613488
-3.507479 -38.932398 88.622307
-4.292435 -38.636443 88.431007
-3.950443 -41.011482 88.873897
-4.074631 -39.857968 88.613488
-3.244903 -41.361832 88.929158
-3.950443 -41.011482 88.873897
-5.522166 -17.521394 87.831516
-4.757512 -17.147202 87.93636
-5.503892 -19.056228 88.037045
-5.522166 -17.521394 87.831516
-6.328981 -17.834797 87.690201
-9.885998 -19.16829 86.44178
-10.843131 -19.497535 86.033478
-8.945222 -18.885787 86.824684
-9.885998 -19.16829 86.44178
-9.010812 -20.265772 86.953354
-8.044867 -18.521899 87.167652
-8.945222 -18.885787 86.824684
-7.190371 -19.67645 87.615994
-7.165202 -18.21508 87.447388
-8.044867 -18.521899 87.167652
-15.056344 -21.610248 84.120308
-14.918196 -20.463178 84.161774
-14.107145 -22.613954 84.469047
-15.056344 -21.610248 84.120308
-15.168496 -22.776608 83.933654
-18.652245 -25.137791 81.248695
-19.744404 -25.197883 80.581524
-17.563737 -25.108824 81.962578
-18.652245 -25.137791 81.248695
-17.695768 -26.114375 81.452247
-16.480514 -25.032567 82.607414
-17.436991 -24.055982 82.403862
-17.563737 -25.108824 81.962578
-8.952635 -37.264786 86.152534
-7.942561 -37.517624 86.744792
-8.324758 -36.499756 86.246974
-8.952635 -37.264786 86.152534
-9.990999 -36.948222 85.553119
-13.111031 -34.561676 83.120327
-13.643818 -33.671434 82.556824
-14.231859 -34.387888 82.395077
-12.584031 -35.514176 83.647385
-11.99599 -34.797722 83.809132
-13.111031 -34.561676 83.120327
-12.154188 -36.399662 84.248844
-12.584031 -35.514176 83.647385
-11.058077 -36.699873 84.893856
-12.154188 -36.399662 84.248844
-3.34977 -16.502792 87.838268
-4.03538 -16.847717 87.905697
-3.34977 -16.502792 87.838268
-2.626101 -17.878105 87.888859
-1.118695 -25.593573 88.355209
-1.727631 -25.70402 88.603832
-1.128645 -27.160595 88.441326
-1.140906 -23.979146 88.189361
-1.118695 -25.593573 88.355209
-1.189113 -22.363727 88.015221
-1.765888 -22.521579 88.343574
-1.140906 -23.979146 88.189361
-1.266827 -20.713787 87.777809
-1.189113 -22.363727 88.015221
-2.004018 -41.927942 88.719146
-2.579962 -41.622873 88.898517
-1.432766 -40.890436 88.467895
-2.004018 -41.927942 88.719146
-1.476992 -42.142372 88.443535
-0.530512 -41.26532 87.668416
-1.045177 -42.388904 88.017216
-0.463921 -39.908886 87.943261
-0.530512 -41.26532 87.668416
-0.088695 -40.06934 87.419392
0.160129 -35.969521 87.690762
-0.148938 -37.315695 87.924034
0.286963 -37.366732 87.460965
0.383925 -34.557775 87.557488
-0.051976 -34.506739 88.020557
0.160129 -35.969521 87.690762
0.568885 -33.085413 87.334308
0.383925 -34.557775 87.557488
3 81 21 82
3 81 82 83
3 85 84 21
3 0 25 23
3 2 28 26
3 2 30 28
3 3 33 31
3 3 35 33
3 3 37 35
3 1 40 38
3 4 86 88
3 88 87 41
3 86 87 88
3 4 89 90
3 91 44 92
3 93 92 42
3 91 92 93
3 94 45 95
3 96 47 97
3 6 48 20
3 6 49 48
3 6 51 49
3 99 98 22
3 7 54 52
3 9 55 24
3 9 56 55
3 10 59 57
3 100 60 101
3 12 61 27
3 12 62 61
3 12 63 62
3 13 64 29
3 13 65 64
3 14 102 103
3 14 104 106
3 104 66 105
3 104 105 106
3 5 67 46
3 15 68 32
3 15 69 68
3 15 70 69
3 16 71 34
3 16 72 71
3 16 73 72
3 17 74 36
3 17 107 109
3 109 108 74
3 107 108 109
3 111 110 50
3 18 112 114
3 114 113 39
3 112 113 114
3 18 115 116
3 8 75 53
3 11 76 58
3 19 77 43
3 19 78 77
3 117 79 118
3 119 80 120
3 122 121 80
3 123 20 124
3 21 125 127
3 125 20 126
3 125 126 127
3 21 6 20
3 21 22 6
3 128 22 129
3 130 129 21
3 128 129 130
3 132 131 22
3 23 24 7
3 25 24 23
3 25 9 24
3 134 133 10
3 26 135 137
3 135 27 136
3 135 136 137
3 28 27 26
3 28 12 27
3 28 29 12
3 30 29 28
3 30 13 29
3 138 14 139
3 31 32 5
3 33 32 31
3 33 15 32
3 33 34 15
3 35 34 33
3 35 16 34
3 35 36 16
3 37 36 35
3 37 17 36
3 38 140 142
3 140 39 141
3 140 141 142
3 40 39 38
3 40 18 39
3 41 143 145
3 145 144 8
3 143 144 145
3 147 146 41
3 42 43 11
3 44 43 42
3 44 19 43
3 148 26 149
3 45 150 152
3 150 26 151
3 150 151 152
3 45 2 26
3 153 46 154
3 47 155 157
3 155 46 156
3 155 156 157
3 47 5 46
3 20 158 160
3 158 47 159
3 158 159 160
3 48 47 20
3 48 5 47
3 48 31 5
3 49 31 48
3 49 3 31
3 49 50 3
3 51 50 49
3 51 161 163
3 163 162 50
3 161 162 163
3 22 51 6
3 164 51 165
3 166 165 22
3 164 165 166
3 168 167 51
3 52 53 1
3 54 53 52
3 54 8 53
3 24 54 7
3 55 54 24
3 55 8 54
3 55 41 8
3 56 41 55
3 56 4 41
3 57 58 0
3 59 58 57
3 59 11 58
3 169 59 170
3 171 170 10
3 169 170 171
3 172 59 173
3 174 11 175
3 176 175 59
3 174 175 176
3 177 42 178
3 179 178 11
3 177 178 179
3 180 42 181
3 183 182 42
3 184 38 185
3 60 186 188
3 186 38 187
3 186 187 188
3 60 1 38
3 27 189 190
3 61 191 193
3 193 192 27
3 191 192 193
3 61 194 195
3 61 196 198
3 196 60 197
3 196 197 198
3 62 60 61
3 62 1 60
3 62 52 1
3 63 52 62
3 63 7 52
3 29 63 12
3 64 63 29
3 64 7 63
3 64 23 7
3 65 23 64
3 65 0 23
3 199 45 200
3 66 201 203
3 201 45 202
3 201 202 203
3 66 2 45
3 46 204 205
3 67 206 208
3 208 207 46
3 206 207 208
3 67 209 211
3 209 14 210
3 209 210 211
3 32 67 5
3 68 67 32
3 68 14 67
3 68 66 14
3 69 66 68
3 69 2 66
3 69 30 2
3 70 30 69
3 70 13 30
3 34 70 15
3 71 70 34
3 71 13 70
3 71 65 13
3 72 65 71
3 72 0 65
3 72 57 0
3 73 57 72
3 73 10 57
3 36 73 16
3 74 73 36
3 74 10 73
3 74 212 214
3 214 213 10
3 212 213 214
3 216 215 74
3 50 37 3
3 217 37 218
3 219 218 50
3 217 218 219
3 220 17 221
3 222 221 37
3 220 221 222
3 223 17 224
3 226 225 17
3 39 227 228
3 230 229 39
3 53 40 1
3 75 40 53
3 75 18 40
3 231 75 232
3 233 232 8
3 231 232 233
3 234 75 235
3 236 18 237
3 238 237 75
3 236 237 238
3 240 239 18
3 58 25 0
3 76 25 58
3 76 9 25
3 43 76 11
3 77 76 43
3 77 9 76
3 77 56 9
3 78 56 77
3 78 4 56
3 241 44 242
3 79 243 245
3 243 44 244
3 243 244 245
3 79 19 44
3 246 79 247
3 80 248 250
3 248 79 249
3 248 249 250
3 80 19 79
3 80 78 19
3 251 78 252
3 253 252 80
3 251 252 253
3 254 4 255
3 256 255 78
3 254 255 256
3 258 257 4
