ply
format ascii 1.0
element vertex 192
property float x
property float y
property float z
element face 174
property list uchar int vertex_index
end_header
13.334026 -74.56987 -2.105564
9.012888 -81.193024 -10.802362
7.99288 -78.167175 -5.72003
11.309196 -80.837891 -0.692741
7.766632 -83.216057 -2.506655
10.676249 -76.54631 -3.876448
5.247677 -87.382431 -7.959028
5.270361 -85.354935 -4.85932
7.178905 -79.742355 -8.052641
13.802053 -77.900253 1.193374
14.008818 -71.924179 0.042767
12.481852 -77.731682 -1.417446
10.942091 -78.872086 -2.281313
12.145452 -75.627533 -3.016037
6.937391 -84.40271 -9.381268
8.37771 -85.119949 -10.937084
7.722197 -80.83728 -4.087997
6.27158 -84.297592 -3.586653
6.576427 -81.756538 -5.174473
6.011263 -82.669464 -6.434849
7.270607 -78.953979 -6.816069
13.056374 -80.761322 1.87487
13.920546 -73.300568 1.753277
13.286192 -70.337738 1.300183
9.92923 -83.885117 -0.003981
8.050226 -85.24826 -0.961967
9.535164 -82.078217 -1.568441
9.261568 -79.890427 -3.145144
9.202028 -77.376053 -4.755344
6.31192 -86.527443 -2.048807
4.952444 -87.758453 -3.332134
4.9091 -86.39257 -6.330673
6.127539 -83.565285 -7.855024
7.770422 -80.506004 -9.400389
11.888533 -73.192871 -4.602966
10.595169 -73.921288 -5.487051
9.422367 -74.596474 -6.400364
8.613678 -75.261353 -7.393587
11.683119 -82.398308 0.913405
12.81213 -79.45282 0.205173
13.614492 -76.429573 -0.482485
14.108797 -76.184433 2.308861
14.13282 -74.949181 0.569772
14.007088 -73.33902 -1.093899
12.589187 -69.471695 1.979473
13.128823 -70.926223 2.17736
12.774697 -68.829521 1.13435
12.589187 -69.471695 1.979473
4.912035 -89.276516 -8.17088
4.633062 -88.745754 -7.252582
4.71158 -87.156022 -4.849337
4.552621 -88.357781 -4.085744
5.111403 -86.556694 -4.095727
5.08973 -85.873752 -5.594997
4.530949 -87.674839 -5.585014
4.71158 -87.156022 -4.849337
12.34255 -71.524982 -4.916421
12.461289 -72.775993 -4.145538
10.678185 -72.493802 -6.294719
11.192882 -72.208561 -5.830811
10.091784 -72.831395 -6.751375
10.008768 -74.258881 -5.943708
10.678185 -72.493802 -6.294719
9.096884 -73.717824 -8.236009
9.284507 -73.438541 -7.726662
8.482076 -75.598588 -7.942689
9.096884 -73.717824 -8.236009
11.828433 -82.965527 1.740954
11.009581 -83.835602 1.247641
13.885347 -75.260231 2.931035
14.009598 -76.620205 3.222289
13.97982 -71.06617 -0.770096
13.978955 -71.77359 -1.338429
14.007953 -72.631599 -0.525566
6.601935 -86.336472 -9.523837
5.757078 -87.826332 -8.812717
6.092534 -85.892571 -8.670148
7.322095 -86.695091 -10.301745
6.601935 -86.336472 -9.523837
7.657551 -84.76133 -10.159176
8.1305 -87.053871 -11.148903
7.322095 -86.695091 -10.301745
13.104702 -81.209931 2.746389
12.515061 -82.147034 2.221687
13.448881 -79.866642 2.407952
13.104702 -81.209931 2.746389
13.49721 -80.315251 3.279471
13.821721 -78.436108 2.067204
13.429213 -79.330788 1.534122
13.448881 -79.866642 2.407952
13.445999 -72.407638 2.403907
13.791222 -73.818298 2.653243
13.603369 -71.819153 1.52673
13.445999 -72.407638 2.403907
13.128823 -70.926223 2.17736
13.363706 -69.59597 0.470921
13.72502 -70.38919 -0.157787
13.647505 -71.130958 0.671475
13.363706 -69.59597 0.470921
12.774697 -68.829521 1.13435
8.989728 -84.566688 -0.482974
8.257205 -86.066841 -0.192005
9.196707 -85.385269 0.286988
4.912035 -89.276516 -8.17088
5.757078 -87.826332 -8.812717
13.184036 -73.464493 -2.896837
13.558753 -72.971874 -2.398447
9.910072 -81.465591 -11.498501
10.190455 -79.483757 -11.504502
7.327961 -86.821938 -0.748512
8.257205 -86.066841 -0.192005
6.458808 -87.461529 -1.291932
7.327961 -86.821938 -0.748512
7.181073 -85.887852 -1.505387
5.65517 -88.180855 -1.942805
6.458808 -87.461529 -1.291932
4.975433 -88.79636 -2.584468
5.65517 -88.180855 -1.942805
5.632182 -87.142948 -2.69047
4.396892 -89.489971 -3.352259
4.975433 -88.79636 -2.584468
4.396892 -89.489971 -3.352259
4.552621 -88.357781 -4.085744
4.463773 -88.250823 -6.438405
4.530949 -87.674839 -5.585014
5.078388 -86.887501 -7.144851
4.633062 -88.745754 -7.252582
4.463773 -88.250823 -6.438405
12.589749 -73.993324 -3.352073
12.739739 -75.098702 -2.560801
13.184036 -73.464493 -2.896837
12.016993 -74.410202 -3.809502
12.589749 -73.993324 -3.352073
12.461289 -72.775993 -4.145538
11.839564 -71.844352 -5.388768
12.34255 -71.524982 -4.916421
11.241851 -73.55708 -5.045008
11.839564 -71.844352 -5.388768
11.192882 -72.208561 -5.830811
9.688852 -73.106102 -7.230051
10.091784 -72.831395 -6.751375
9.018023 -74.928913 -6.896975
9.688852 -73.106102 -7.230051
9.284507 -73.438541 -7.726662
7.81054 -77.444901 -7.65393
7.942143 -77.107666 -7.104828
8.482076 -75.598588 -7.942689
7.764689 -77.839089 -8.272216
7.224756 -79.348167 -7.434355
7.81054 -77.444901 -7.65393
7.95421 -78.175705 -8.869619
7.764689 -77.839089 -8.272216
8.249968 -78.55753 -9.543494
7.474664 -80.124179 -8.726515
7.95421 -78.175705 -8.869619
8.764463 -78.87376 -10.170893
8.249968 -78.55753 -9.543494
9.385696 -79.21727 -10.87188
8.391655 -80.849514 -10.101375
8.764463 -78.87376 -10.170893
10.190455 -79.483757 -11.504502
9.385696 -79.21727 -10.87188
10.132637 -84.579006 0.788948
9.196707 -85.385269 0.286988
10.806175 -83.141712 0.454712
10.132637 -84.579006 0.788948
11.009581 -83.835602 1.247641
12.369746 -81.579815 1.394138
11.828433 -82.965527 1.740954
12.515061 -82.147034 2.221687
13.975093 -77.578198 2.624948
14.009598 -76.620205 3.222289
13.955425 -77.042343 1.751117
13.821721 -78.436108 2.067204
13.975093 -77.578198 2.624948
14.014671 -74.742501 2.031069
13.885347 -75.260231 2.931035
13.791222 -73.818298 2.653243
13.895284 -72.356449 -1.892614
13.558753 -72.971874 -2.398447
13.670557 -73.954445 -1.599732
13.895284 -72.356449 -1.892614
13.978955 -71.77359 -1.338429
13.97982 -71.06617 -0.770096
13.72502 -70.38919 -0.157787
9.592482 -83.429054 -11.565862
8.695299 -83.156486 -10.869723
9.910072 -81.465591 -11.498501
9.354629 -85.384281 -11.692481
9.592482 -83.429054 -11.565862
8.1305 -87.053871 -11.148903
9.354629 -85.384281 -11.692481
3 0 13 11
3 1 15 14
3 2 18 16
3 2 20 18
3 44 23 45
3 47 46 23
3 3 26 24
3 5 27 12
3 5 28 27
3 6 48 49
3 4 29 25
3 7 30 17
3 7 50 52
3 52 51 30
3 50 51 52
3 7 53 55
3 53 31 54
3 53 54 55
3 8 32 19
3 8 33 32
3 56 34 57
3 58 35 59
3 60 36 61
3 62 61 35
3 60 61 62
3 63 37 64
3 66 65 37
3 67 38 68
3 9 39 21
3 9 40 39
3 69 41 70
3 10 42 22
3 10 43 42
3 10 71 73
3 73 72 43
3 71 72 73
3 11 12 3
3 13 12 11
3 13 5 12
3 14 74 76
3 76 75 6
3 74 75 76
3 15 77 79
3 79 78 14
3 77 78 79
3 15 80 81
3 16 17 4
3 18 17 16
3 18 7 17
3 18 19 7
3 20 19 18
3 20 8 19
3 82 21 83
3 84 21 85
3 84 85 86
3 87 9 88
3 89 88 21
3 87 88 89
3 90 22 91
3 23 92 94
3 92 22 93
3 92 93 94
3 23 10 22
3 23 95 97
3 97 96 10
3 95 96 97
3 99 98 23
3 24 100 102
3 100 25 101
3 100 101 102
3 26 25 24
3 26 4 25
3 12 26 3
3 27 26 12
3 27 4 26
3 27 16 4
3 28 16 27
3 28 2 16
3 104 103 6
3 106 105 0
3 108 107 1
3 25 109 110
3 29 111 113
3 113 112 25
3 111 112 113
3 29 114 115
3 17 29 4
3 30 29 17
3 30 116 118
3 118 117 29
3 116 117 118
3 30 119 120
3 122 121 30
3 31 123 124
3 31 125 127
3 125 6 126
3 125 126 127
3 19 31 7
3 32 31 19
3 32 6 31
3 32 14 6
3 33 14 32
3 33 1 14
3 128 13 129
3 130 129 0
3 128 129 130
3 34 131 133
3 131 13 132
3 131 132 133
3 34 5 13
3 134 34 135
3 35 136 138
3 136 34 137
3 136 137 138
3 35 5 34
3 35 28 5
3 36 28 35
3 36 2 28
3 139 36 140
3 37 141 143
3 141 36 142
3 141 142 143
3 37 2 36
3 37 20 2
3 144 20 145
3 146 145 37
3 144 145 146
3 147 8 148
3 149 148 20
3 147 148 149
3 150 8 151
3 152 33 153
3 154 153 8
3 152 153 154
3 155 33 156
3 157 1 158
3 159 158 33
3 157 158 159
3 161 160 1
3 162 24 163
3 38 164 166
3 164 24 165
3 164 165 166
3 38 3 24
3 21 167 169
3 167 38 168
3 167 168 169
3 39 38 21
3 39 3 38
3 39 11 3
3 40 11 39
3 40 0 11
3 41 170 171
3 41 172 174
3 172 9 173
3 172 173 174
3 22 175 177
3 175 41 176
3 175 176 177
3 42 41 22
3 42 9 41
3 42 40 9
3 43 40 42
3 43 0 40
3 43 178 180
3 180 179 0
3 178 179 180
3 182 181 43
3 184 183 10
3 185 15 186
3 187 186 1
3 185 186 187
3 188 15 189
3 191 190 15
