ply
format ascii 1.0
element vertex 193
property float x
property float y
property float z
element face 182
property list uchar int vertex_index
end_header
24.068062 70.218048 24.994957
28.320986 74.338974 13.851702
16.027031 76.885803 27.557369
20.126801 73.665222 26.115866
17.596077 79.541237 20.922394
21.746181 76.021423 19.88818
28.213837 67.244583 24.343405
25.918097 72.615814 19.276278
13.21949 82.298882 22.242203
14.577927 73.280907 33.997429
18.728374 70.513428 32.173912
22.635059 67.293526 30.726513
22.094116 71.920403 25.50745
20.895615 74.945526 23.0042
22.895966 73.174652 22.50198
29.20891 68.616066 21.75539
13.861509 78.17115 28.380627
12.421621 80.843376 25.767639
14.633566 79.749878 24.980129
27.05143 73.574387 16.517834
24.849655 75.156479 16.592432
26.028671 75.861359 13.75661
12.414909 74.307068 35.049664
18.063755 68.651024 35.078896
20.052036 67.17231 34.229591
20.699081 68.919571 31.404003
18.115324 75.353539 26.802029
16.792694 78.339333 24.25499
18.87521 76.703239 23.594105
19.690788 77.819977 20.364071
26.098148 68.641853 24.601192
24.927242 71.489166 22.112213
27.02824 69.960045 21.859192
28.09831 71.145645 19.185482
29.305813 72.157234 16.596199
15.435945 81.069626 21.550179
23.807617 74.257088 19.516941
22.702797 76.886993 16.81078
13.119814 76.351044 31.738008
15.28929 75.194595 30.807537
16.012177 70.003357 36.046539
16.690277 71.992867 33.037537
17.391121 73.780029 29.95575
19.412102 72.186325 29.182297
21.372128 70.501495 28.488174
23.314997 68.818039 27.881695
24.583601 65.71682 30.145172
25.292715 67.222412 27.378067
27.347429 65.781349 26.992592
20.717477 65.507874 35.193487
19.736995 66.214703 35.594692
21.024833 66.405632 33.86067
20.717477 65.507874 35.193487
21.164904 77.35923 18.519976
20.137207 78.258507 18.757922
20.718485 76.9207 20.126126
29.216639 70.494529 19.216387
28.65361 69.880855 20.470436
29.771938 69.22974 20.501341
29.82039 71.000324 17.921746
28.702061 71.65144 17.89084
29.216639 70.494529 19.216387
12.1075 82.718972 22.618061
11.708565 81.991219 24.380779
12.820556 81.571129 24.004921
12.511193 83.383106 20.807842
12.1075 82.718972 22.618061
23.241753 77.213154 15.309811
23.776226 76.021736 16.701606
24.315182 76.347897 15.200637
22.137162 78.110115 15.40387
23.241753 77.213154 15.309811
16.716271 68.304355 36.975307
15.689896 68.913826 37.521175
16.39399 67.214825 38.449944
25.587518 64.988445 29.90595
25.250903 64.203834 31.232856
25.942075 65.741242 28.522398
24.938158 66.469616 28.76162
25.587518 64.988445 29.90595
26.969431 65.02071 28.32966
26.320072 66.50188 27.18533
25.942075 65.741242 28.522398
29.810231 67.327019 22.988918
28.711374 67.930325 23.049397
29.312694 66.641277 24.282926
30.325843 68.027359 21.774131
29.810231 67.327019 22.988918
29.771938 69.22974 20.501341
30.325843 68.027359 21.774131
13.141565 79.507263 27.074133
12.038729 79.987103 27.518736
12.758674 78.65099 28.82523
16.934744 80.82806 19.518751
18.023699 80.010898 19.257347
24.904689 76.700336 13.782726
24.315182 76.347897 15.200637
25.439163 75.508919 15.174521
12.087078 73.181236 36.685148
11.333867 74.656475 35.612662
11.006036 73.530643 37.248146
13.157893 72.733696 36.090888
12.087078 73.181236 36.685148
14.239402 72.220616 35.56477
13.496418 73.793988 34.523546
13.157893 72.733696 36.090888
18.742854 66.954059 36.019345
17.742059 67.628189 36.491486
19.057896 67.911667 34.654243
18.742854 66.954059 36.019345
19.736995 66.214703 35.594692
21.348355 67.279263 32.447876
20.375559 68.045941 32.816797
21.024833 66.405632 33.86067
22.316344 66.46624 32.109131
21.66707 68.106549 31.065258
21.348355 67.279263 32.447876
19.071055 79.150268 18.978185
18.023699 80.010898 19.257347
18.643433 78.680607 20.643232
19.071055 79.150268 18.978185
20.137207 78.258507 18.757922
27.829186 75.351669 12.43777
29.013708 74.613179 12.565189
30.441198 71.511688 16.707224
29.82039 71.000324 17.921746
29.968477 72.554699 15.34338
30.441198 71.511688 16.707224
29.476063 73.645569 13.971131
28.8134 73.248104 15.22395
29.968477 72.554699 15.34338
29.013708 74.613179 12.565189
29.476063 73.645569 13.971131
11.319536 81.193291 26.189511
12.038729 79.987103 27.518736
11.319536 81.193291 26.189511
11.708565 81.991219 24.380779
15.854678 81.592254 19.832643
16.516011 80.305431 21.236286
16.934744 80.82806 19.518751
14.740791 82.274383 20.13046
15.854678 81.592254 19.832643
13.632563 82.889012 20.476472
14.327718 81.684254 21.896191
14.740791 82.274383 20.13046
12.511193 83.383106 20.807842
13.632563 82.889012 20.476472
21.643211 77.792015 16.981276
21.164904 77.35923 18.519976
22.224489 76.454208 18.34948
21.643211 77.792015 16.981276
22.137162 78.110115 15.40387
26.683029 76.112862 12.390225
27.174829 75.100167 13.804156
27.829186 75.351669 12.43777
25.506509 76.921696 12.332459
26.683029 76.112862 12.390225
24.904689 76.700336 13.782726
25.506509 76.921696 12.332459
11.672142 75.743344 33.894776
11.333867 74.656475 35.612662
12.024594 76.765332 32.238948
11.672142 75.743344 33.894776
12.767361 75.329056 33.393836
12.387826 77.740937 30.50392
12.024594 76.765332 32.238948
13.490661 77.261097 30.059317
12.758674 78.65099 28.82523
12.387826 77.740937 30.50392
14.956527 70.58184 36.589325
15.689896 68.913826 37.521175
15.295052 71.642132 35.021984
14.239402 72.220616 35.56477
14.956527 70.58184 36.589325
17.037966 69.327191 35.562718
16.716271 68.304355 36.975307
17.742059 67.628189 36.491486
23.286719 65.708282 31.791994
22.316344 66.46624 32.109131
24.26099 64.919929 31.501323
25.250903 64.203834 31.232856
23.60933 66.505173 30.435842
23.286719 65.708282 31.791994
24.26099 64.919929 31.501323
28.018335 64.376423 28.143308
26.969431 65.02071 28.32966
28.421627 65.155491 26.861538
28.018335 64.376423 28.143308
28.854831 65.887108 25.536945
27.780633 66.512966 25.667998
28.421627 65.155491 26.861538
29.312694 66.641277 24.282926
28.854831 65.887108 25.536945
3 0 14 12
3 2 18 16
3 1 21 19
3 49 24 50
3 52 51 24
3 3 28 26
3 5 29 13
3 5 53 55
3 55 54 29
3 53 54 55
3 6 32 30
3 56 33 57
3 58 57 15
3 56 57 58
3 59 34 60
3 61 60 33
3 59 60 61
3 8 62 64
3 64 63 17
3 62 63 64
3 8 65 66
3 4 35 27
3 7 36 31
3 67 37 68
3 69 68 20
3 67 68 69
3 71 70 37
3 9 38 22
3 9 39 38
3 72 40 73
3 72 73 74
3 10 41 23
3 10 42 41
3 10 43 42
3 11 44 25
3 11 45 44
3 75 46 76
3 77 47 78
3 79 78 46
3 77 78 79
3 80 48 81
3 82 81 47
3 80 81 82
3 12 13 3
3 14 13 12
3 14 5 13
3 83 15 84
3 85 84 6
3 83 84 85
3 86 15 87
3 89 88 15
3 16 90 92
3 90 17 91
3 90 91 92
3 18 17 16
3 18 8 17
3 94 93 4
3 19 20 7
3 21 20 19
3 21 95 97
3 97 96 20
3 95 96 97
3 98 22 99
3 98 99 100
3 101 22 102
3 103 9 104
3 105 104 22
3 103 104 105
3 106 23 107
3 24 108 110
3 108 23 109
3 108 109 110
3 24 10 23
3 24 25 10
3 111 25 112
3 113 112 24
3 111 112 113
3 114 11 115
3 116 115 25
3 114 115 116
3 26 27 2
3 28 27 26
3 28 4 27
3 13 28 3
3 29 28 13
3 29 4 28
3 29 117 119
3 119 118 4
3 117 118 119
3 121 120 29
3 123 122 1
3 30 31 0
3 32 31 30
3 32 7 31
3 15 32 6
3 33 32 15
3 33 7 32
3 33 19 7
3 34 19 33
3 34 1 19
3 124 34 125
3 126 34 127
3 128 1 129
3 130 129 34
3 128 129 130
3 132 131 1
3 17 133 134
3 136 135 17
3 27 18 2
3 35 18 27
3 35 8 18
3 137 35 138
3 139 138 4
3 137 138 139
3 140 35 141
3 142 8 143
3 144 143 35
3 142 143 144
3 146 145 8
3 31 14 0
3 36 14 31
3 36 5 14
3 20 36 7
3 37 36 20
3 37 5 36
3 37 147 149
3 149 148 5
3 147 148 149
3 151 150 37
3 152 21 153
3 154 153 1
3 152 153 154
3 155 21 156
3 158 157 21
3 22 159 160
3 38 161 163
3 163 162 22
3 161 162 163
3 38 164 165
3 38 166 168
3 166 16 167
3 166 167 168
3 39 16 38
3 39 2 16
3 40 169 170
3 40 171 173
3 171 9 172
3 171 172 173
3 23 174 176
3 174 40 175
3 174 175 176
3 41 40 23
3 41 9 40
3 41 39 9
3 42 39 41
3 42 2 39
3 42 26 2
3 43 26 42
3 43 3 26
3 25 43 10
3 44 43 25
3 44 3 43
3 44 12 3
3 45 12 44
3 45 0 12
3 177 11 178
3 46 179 180
3 46 181 183
3 181 11 182
3 181 182 183
3 46 45 11
3 47 45 46
3 47 0 45
3 47 30 0
3 48 30 47
3 48 6 30
3 184 48 185
3 186 48 187
3 188 6 189
3 190 189 48
3 188 189 190
3 192 191 6
