ply
format ascii 1.0
element vertex 224
property float x
property float y
property float z
element face 225
property list uchar int vertex_index
end_header
-46.781338 -20.386074 -1.312229
-49.361092 -31.904053 5.432495
-54.145748 -23.138411 -0.305429
-42.659241 -26.720022 6.90132
-58.262611 -13.448835 -7.171316
-44.363514 -32.747383 9.678873
-45.64782 -29.556152 6.380133
-41.584366 -29.303324 10.569099
-50.316528 -21.926119 -0.50862
-56.496765 -18.408571 -3.442852
-52.660053 -17.592731 -4.395256
-54.538231 -12.809087 -8.688961
-58.060993 -24.635185 -0.738565
-51.582253 -27.667133 2.530345
-47.819878 -25.902664 3.031682
-44.557281 -23.745901 2.926353
-60.186455 -19.674494 -3.299179
-42.733566 -32.337528 11.83045
-42.855804 -31.118221 10.177991
-48.496628 -21.247795 -0.866531
-51.530968 -19.810501 -2.402035
-49.665981 -19.259775 -2.934612
-50.762737 -17.147137 -5.07748
-47.882908 -18.52696 -3.517826
-52.455208 -30.833508 3.507326
-53.607662 -28.559612 2.137994
-50.391052 -29.834665 3.952561
-44.056473 -28.226938 6.713692
-46.658295 -27.774036 4.719073
-45.012554 -26.614164 4.908518
-46.114548 -24.913458 3.048917
-43.537525 -25.277519 4.948912
-56.10231 -23.827238 -0.468904
-59.184723 -22.158976 -1.978769
-57.297157 -21.406082 -1.817888
-57.467106 -15.960117 -5.222549
-59.286682 -16.478662 -4.884275
-60.009926 -13.968779 -6.682699
-58.871063 -10.876105 -9.293303
-46.612427 -32.579399 7.512151
-47.41925 -30.766319 5.930099
-44.860802 -31.22514 8.031013
-43.315536 -29.736938 8.470127
-41.987095 -28.067646 8.777747
-52.209373 -22.526636 -0.311694
-55.376495 -20.799109 -1.814381
-53.445194 -20.291426 -2.01071
-54.582336 -17.979479 -3.826164
-55.585052 -15.580343 -5.774212
-56.429401 -13.088165 -7.860117
-53.670387 -15.260624 -6.491919
-51.755081 -14.898102 -7.290554
-56.879444 -27.091482 0.4879
-54.848724 -26.216206 0.830163
-52.85873 -25.429527 1.126712
-48.45562 -28.828575 4.384035
-49.648758 -26.797838 2.850644
-50.923546 -24.694521 1.297454
-49.06102 -23.953564 1.296495
-47.295856 -23.127386 1.126496
-45.65699 -22.119936 0.837831
-58.373371 -18.957003 -3.273737
-61.017025 -17.186687 -4.761282
-41.472046 -24.968927 6.956485
-42.253613 -23.684444 4.879459
-43.172272 -22.308083 2.727071
-44.171066 -20.829063 0.513537
-42.120379 -31.369242 12.046425
-42.2661 -31.833763 12.835975
-42.2661 -31.833763 12.835975
-42.861374 -32.848826 12.622227
-50.412746 -32.454169 5.205445
-48.961517 -32.871021 6.214193
-50.90815 -31.36878 4.469911
-51.959805 -31.918896 4.242861
-50.412746 -32.454169 5.205445
-59.397322 -12.43867 -7.928198
-60.270979 -12.698642 -7.683889
-59.136268 -13.708807 -6.927008
-58.566837 -12.16247 -8.232309
-59.701548 -11.152305 -8.989192
-59.397322 -12.43867 -7.928198
-45.230875 -33.488018 9.409698
-44.286404 -33.415943 10.499481
-45.487971 -32.663391 8.595512
-46.355331 -33.404026 8.326337
-45.230875 -33.488018 9.409698
-50.33901 -15.712407 -6.530862
-51.258909 -16.02262 -6.184017
-49.842838 -16.836924 -5.424325
-50.813187 -14.636951 -7.677131
-50.33901 -15.712407 -6.530862
-56.296208 -28.299473 1.125784
-57.905899 -27.584044 0.338688
-59.53982 -23.858624 -1.480498
-59.032086 -25.110067 -0.883733
-61.049788 -20.130347 -3.379923
-60.548921 -21.372588 -2.719718
-59.685589 -20.916735 -2.638974
-61.410221 -18.891673 -4.056432
-61.049788 -20.130347 -3.379923
-61.33151 -15.941987 -5.58754
-60.151854 -16.832674 -4.822779
-60.466339 -15.587974 -5.649037
-62.082251 -16.421726 -5.552147
-61.33151 -15.941987 -5.58754
-55.819754 -11.657458 -9.384588
-56.765338 -11.796997 -8.970166
-55.483816 -12.948626 -8.274539
-40.988928 -23.938409 6.940743
-40.747957 -24.469981 7.97148
-41.379711 -23.296168 5.90223
-41.86283 -24.326685 5.917972
-40.988928 -23.938409 6.940743
-42.573843 -21.410799 2.629789
-42.173466 -22.033009 3.746437
-43.07324 -20.671289 1.523022
-43.671669 -21.568573 1.620304
-42.573843 -21.410799 2.629789
-42.181497 -30.759588 11.220195
-42.794685 -31.727874 11.004221
-42.120379 -31.369242 12.046425
-41.545778 -29.852139 11.415749
-42.220085 -30.210772 10.373545
-42.181497 -30.759588 11.220195
-43.471429 -33.211016 11.57527
-42.861374 -32.848826 12.622227
-43.54854 -32.542456 10.754662
-44.286404 -33.415943 10.499481
-43.471429 -33.211016 11.57527
-48.402923 -17.526835 -4.644498
-49.842838 -16.836924 -5.424325
-49.322823 -17.837049 -4.297653
-53.031435 -29.69656 2.82266
-54.660317 -29.033538 1.950832
-54.08409 -30.170486 2.635498
-53.545175 -31.343658 3.324134
-51.959805 -31.918896 4.242861
-54.08409 -30.170486 2.635498
-53.545175 -31.343658 3.324134
-60.827961 -14.333033 -6.548249
-60.466339 -15.587974 -5.649037
-59.648304 -15.22372 -5.783487
-61.036072 -13.088682 -7.484977
-60.827961 -14.333033 -6.548249
-61.036072 -13.088682 -7.484977
-60.270979 -12.698642 -7.683889
-59.863102 -9.8707 -10.092299
-59.701548 -11.152305 -8.989192
-59.080551 -9.564066 -10.437496
-59.863102 -9.8707 -10.092299
-54.892943 -11.526279 -9.834177
-53.578883 -12.659432 -9.127913
-47.587185 -33.208695 7.254021
-46.355331 -33.404026 8.326337
-47.986759 -32.241726 6.472323
-48.961517 -32.871021 6.214193
-47.587185 -33.208695 7.254021
-52.187308 -13.70394 -8.428709
-53.578883 -12.659432 -9.127913
-53.146656 -13.853594 -7.989758
-52.187308 -13.70394 -8.428709
-50.813187 -14.636951 -7.677131
-58.441311 -26.338216 -0.2705
-57.905899 -27.584044 0.338688
-57.470219 -25.863333 -0.125333
-59.032086 -25.110067 -0.883733
-58.441311 -26.338216 -0.2705
-55.243553 -27.825547 1.312947
-56.296208 -28.299473 1.125784
-54.660317 -29.033538 1.950832
-60.101684 -22.62052 -2.1006
-59.53982 -23.858624 -1.480498
-58.622858 -23.397081 -1.358667
-60.101684 -22.62052 -2.1006
-60.548921 -21.372588 -2.719718
-61.825506 -17.647769 -4.787483
-61.410221 -18.891673 -4.056432
-60.60174 -18.430591 -4.030231
-61.825506 -17.647769 -4.787483
-62.082251 -16.421726 -5.552147
-57.98617 -10.690967 -9.686758
-57.650232 -11.982135 -8.57671
-56.765338 -11.796997 -8.970166
-59.080551 -9.564066 -10.437496
-57.98617 -10.690967 -9.686758
-55.819754 -11.657458 -9.384588
-54.892943 -11.526279 -9.834177
-41.061617 -28.772359 11.565787
-41.545778 -29.852139 11.415749
-41.071377 -28.281841 10.693298
-41.061617 -28.772359 11.565787
-41.272741 -27.664003 9.797622
-41.78573 -28.685485 9.673423
-41.071377 -28.281841 10.693298
-41.437207 -27.115631 8.859876
-41.272741 -27.664003 9.797622
-41.77328 -26.441819 7.921663
-42.323168 -27.393834 7.839533
-41.437207 -27.115631 8.859876
-41.179682 -25.566271 7.949245
-40.747957 -24.469981 7.97148
-42.065644 -25.844475 6.928902
-41.77328 -26.441819 7.921663
-41.179682 -25.566271 7.949245
-41.714137 -22.72119 4.822631
-41.379711 -23.296168 5.90223
-42.712942 -22.996263 3.803265
-41.714137 -22.72119 4.822631
-42.173466 -22.033009 3.746437
-43.51314 -19.995151 0.379657
-43.07324 -20.671289 1.523022
-44.684744 -20.030171 -0.617274
-43.51314 -19.995151 0.379657
-45.98988 -19.808677 -1.530157
-45.476202 -20.607568 -0.399346
-44.684744 -20.030171 -0.617274
-46.540665 -18.87912 -2.632956
-47.332123 -19.456517 -2.415027
-45.98988 -19.808677 -1.530157
-47.046408 -18.012332 -3.78164
-46.540665 -18.87912 -2.632956
-48.402923 -17.526835 -4.644498
-47.046408 -18.012332 -3.78164
3 68 67 17
3 69 17 70
3 0 21 19
3 0 23 21
3 1 26 24
3 3 29 27
3 3 31 29
3 1 71 72
3 1 73 75
3 73 24 74
3 73 74 75
3 2 34 32
3 4 37 35
3 4 76 78
3 78 77 37
3 76 77 78
3 4 79 81
3 79 38 80
3 79 80 81
3 5 41 39
3 7 42 18
3 7 43 42
3 5 82 83
3 5 84 86
3 84 39 85
3 84 85 86
3 8 46 44
3 10 47 20
3 10 48 47
3 10 50 48
3 87 51 88
3 89 88 22
3 87 88 89
3 91 90 51
3 92 52 93
3 13 53 25
3 13 54 53
3 6 55 40
3 14 56 28
3 14 57 56
3 14 58 57
3 15 59 30
3 15 60 59
3 12 94 95
3 16 96 98
3 98 97 33
3 96 97 98
3 16 99 100
3 9 61 45
3 101 62 102
3 103 102 36
3 101 102 103
3 105 104 62
3 11 106 108
3 108 107 49
3 106 107 108
3 109 63 110
3 111 64 112
3 113 112 63
3 111 112 113
3 114 65 115
3 116 66 117
3 118 117 65
3 116 117 118
3 17 18 5
3 119 18 120
3 121 120 17
3 119 120 121
3 122 7 123
3 124 123 18
3 122 123 124
3 17 125 126
3 17 127 129
3 127 5 128
3 127 128 129
3 19 20 8
3 21 20 19
3 21 10 20
3 21 22 10
3 23 22 21
3 23 130 132
3 132 131 22
3 130 131 132
3 24 133 135
3 133 25 134
3 133 134 135
3 26 25 24
3 26 13 25
3 27 28 6
3 29 28 27
3 29 14 28
3 29 30 14
3 31 30 29
3 31 15 30
3 24 136 137
3 24 138 139
3 32 33 12
3 34 33 32
3 34 16 33
3 35 36 9
3 37 36 35
3 37 140 142
3 142 141 36
3 140 141 142
3 37 143 144
3 146 145 37
3 38 147 148
3 38 149 150
3 152 151 11
3 39 40 1
3 41 40 39
3 41 6 40
3 18 41 5
3 42 41 18
3 42 6 41
3 42 27 6
3 43 27 42
3 43 3 27
3 39 153 154
3 39 155 157
3 155 1 156
3 155 156 157
3 44 45 2
3 46 45 44
3 46 9 45
3 20 46 8
3 47 46 20
3 47 9 46
3 47 35 9
3 48 35 47
3 48 4 35
3 48 49 4
3 50 49 48
3 50 11 49
3 22 50 10
3 51 50 22
3 51 11 50
3 51 158 160
3 160 159 11
3 158 159 160
3 162 161 51
3 52 163 164
3 52 165 167
3 165 12 166
3 165 166 167
3 25 168 170
3 168 52 169
3 168 169 170
3 53 52 25
3 53 12 52
3 53 32 12
3 54 32 53
3 54 2 32
3 40 26 1
3 55 26 40
3 55 13 26
3 28 55 6
3 56 55 28
3 56 13 55
3 56 54 13
3 57 54 56
3 57 2 54
3 57 44 2
3 58 44 57
3 58 8 44
3 30 58 14
3 59 58 30
3 59 8 58
3 59 19 8
3 60 19 59
3 60 0 19
3 33 171 173
3 173 172 12
3 171 172 173
3 175 174 33
3 45 34 2
3 61 34 45
3 61 16 34
3 36 61 9
3 62 61 36
3 62 16 61
3 62 176 178
3 178 177 16
3 176 177 178
3 180 179 62
3 49 38 4
3 181 38 182
3 183 182 49
3 181 182 183
3 185 184 38
3 187 186 11
3 188 7 189
3 190 7 191
3 192 43 193
3 194 193 7
3 192 193 194
3 195 43 196
3 197 3 198
3 199 198 43
3 197 198 199
3 63 200 201
3 63 202 204
3 202 3 203
3 202 203 204
3 63 31 3
3 64 31 63
3 64 15 31
3 205 64 206
3 65 207 209
3 207 64 208
3 207 208 209
3 65 15 64
3 65 60 15
3 66 60 65
3 66 0 60
3 210 66 211
3 212 66 213
3 214 0 215
3 216 215 66
3 214 215 216
3 217 23 218
3 219 218 0
3 217 218 219
3 220 23 221
3 223 222 23
