ply
format ascii 1.0
element vertex 216
property float x
property float y
property float z
element face 191
property list uchar int vertex_index
end_header
-37.245678 -111.40596 -7.303373
-28.226177 -119.360275 -11.564283
-38.383682 -110.252457 -14.514956
-41.539722 -105.369675 1.383375
-33.369247 -115.043015 -9.462986
-33.306656 -115.458725 -13.833199
-37.738178 -111.342117 -10.683641
-22.618553 -123.249863 -12.883871
-27.92186 -119.472504 -16.220509
-39.187763 -108.733948 -3.491049
-40.910721 -107.611206 -6.901716
-41.971733 -106.1828 -10.585917
-35.572151 -113.027771 -8.307093
-35.533508 -113.372574 -10.291803
-37.456135 -111.468369 -8.83049
-25.454006 -121.412231 -12.349493
-25.180611 -121.535995 -14.774675
-28.010664 -119.631912 -13.966883
-35.892296 -113.01886 -14.347952
-33.447525 -115.081894 -15.898355
-36.141113 -112.313553 -16.258785
-40.356083 -107.078018 -1.116724
-41.339542 -106.466522 -2.91692
-40.526524 -106.006165 3.305403
-39.254822 -107.697098 0.704986
-38.013878 -109.357346 -1.801178
-41.486614 -106.985565 -8.725439
-30.885925 -117.198853 -10.580093
-30.722105 -117.567062 -12.91221
-33.254765 -115.443954 -11.66716
-35.670628 -113.369751 -12.331533
-38.057331 -110.949142 -12.616816
-40.807983 -105.018478 7.992207
-41.745289 -104.329315 5.969726
-19.766096 -124.782501 -13.126997
-19.386347 -124.513214 -15.46974
-22.287107 -123.188171 -15.287437
-30.704016 -117.523605 -15.147633
-38.107407 -110.245255 -5.639561
-38.943054 -109.782227 -7.161036
-40.166275 -108.160492 -5.16375
-36.894848 -110.905548 -4.164789
-36.013878 -112.202835 -6.320473
-39.472527 -109.428497 -8.885834
-39.918404 -108.930252 -10.738447
-40.325676 -108.195175 -12.610954
-38.53492 -109.748475 -15.405624
-37.413635 -110.779022 -16.277539
-37.262397 -111.283005 -15.386871
-42.00687 -105.050011 0.43015
-41.41505 -105.904182 -0.8199
-40.947902 -106.223847 0.133325
-41.389767 -104.213821 9.389318
-40.351357 -105.367973 9.003814
-42.716223 -103.154228 6.269599
-42.291357 -103.507866 7.324044
-42.208308 -103.995071 4.962864
-42.716223 -103.154228 6.269599
-26.470765 -120.345497 -16.609669
-25.10014 -121.377243 -15.886752
-26.551235 -120.50425 -15.497592
-27.913761 -119.177734 -17.233351
-26.470765 -120.345497 -16.609669
-32.107241 -116.072342 -16.557464
-33.53347 -114.700012 -16.843829
-19.245576 -124.165154 -16.494015
-20.722738 -123.599868 -16.454784
-41.747785 -106.14701 -3.824942
-42.311367 -105.255905 -2.673512
-35.246498 -112.642112 -5.63399
-34.883774 -113.226616 -6.778957
-34.880264 -113.315842 -17.024044
-33.53347 -114.700012 -16.843829
-34.794319 -113.697723 -16.07857
-36.257578 -111.788315 -17.125704
-34.880264 -113.315842 -17.024044
-36.257578 -111.788315 -17.125704
-37.413635 -110.779022 -16.277539
-41.90678 -105.598434 -1.719998
-40.847813 -106.77227 -2.016822
-41.41505 -105.904182 -0.8199
-42.311367 -105.255905 -2.673512
-41.90678 -105.598434 -1.719998
-39.321038 -107.174171 2.938664
-40.011623 -106.336029 4.278205
-38.685187 -108.019638 1.638455
-39.321038 -107.174171 2.938664
-39.890673 -106.851631 2.005194
-38.005056 -108.856797 0.335811
-38.685187 -108.019638 1.638455
-38.63435 -108.527222 -0.548096
-37.384585 -109.686921 -0.917271
-38.005056 -108.856797 0.335811
-42.149412 -106.044807 -7.656559
-41.198667 -107.298385 -7.813578
-41.861466 -106.357628 -6.744698
-42.420101 -105.608825 -8.596478
-42.149412 -106.044807 -7.656559
-42.662661 -105.207443 -9.526718
-41.729174 -106.584182 -9.655678
-42.420101 -105.608825 -8.596478
-42.538944 -104.179772 1.667447
-42.105524 -104.515252 2.669688
-39.656176 -106.182274 7.604273
-40.351357 -105.367973 9.003814
-40.152353 -105.842186 6.621607
-39.656176 -106.182274 7.604273
-41.822704 -103.852448 8.335285
-41.389767 -104.213821 9.389318
-41.276636 -104.673896 6.980966
-41.822704 -103.852448 8.335285
-42.291357 -103.507866 7.324044
-40.621006 -105.497604 5.610366
-40.152353 -105.842186 6.621607
-41.276636 -104.673896 6.980966
-41.135907 -105.16774 4.637564
-40.011623 -106.336029 4.278205
-40.621006 -105.497604 5.610366
-41.598925 -104.833496 3.630702
-41.135907 -105.16774 4.637564
-42.208308 -103.995071 4.962864
-42.105524 -104.515252 2.669688
-41.033123 -105.68792 2.344389
-41.598925 -104.833496 3.630702
-19.576222 -124.647858 -14.298368
-18.166419 -125.225556 -14.260832
-18.356293 -125.360199 -13.08946
-22.173118 -122.937347 -16.363632
-20.722738 -123.599868 -16.454784
-20.836727 -123.850693 -15.378588
-23.653388 -122.203331 -16.143133
-23.733859 -122.362083 -15.031056
-25.10014 -121.377243 -15.886752
-22.173118 -122.937347 -16.363632
-23.653388 -122.203331 -16.143133
-30.735486 -117.293198 -16.182102
-32.07577 -116.30275 -15.522994
-32.107241 -116.072342 -16.557464
-29.344408 -118.267647 -16.71854
-29.312938 -118.498054 -15.684071
-30.735486 -117.293198 -16.182102
-27.913761 -119.177734 -17.233351
-29.344408 -118.267647 -16.71854
-17.961928 -124.98375 -15.386922
-18.166419 -125.225556 -14.260832
-17.961928 -124.98375 -15.386922
-19.245576 -124.165154 -16.494015
-41.161152 -106.993996 -4.948357
-40.752909 -107.313507 -4.040335
-41.747785 -106.14701 -3.824942
-41.533375 -106.719352 -5.81734
-40.538498 -107.885849 -6.032733
-41.161152 -106.993996 -4.948357
-41.861466 -106.357628 -6.744698
-41.533375 -106.719352 -5.81734
-42.00687 -105.050011 0.43015
-42.538944 -104.179772 1.667447
-36.762516 -110.492829 -2.17403
-37.384585 -109.686921 -0.917271
-36.203001 -111.26693 -3.355835
-36.762516 -110.492829 -2.17403
-37.454363 -110.131447 -2.982984
-35.686983 -111.993469 -4.556147
-36.203001 -111.26693 -3.355835
-36.454363 -111.554192 -5.242631
-35.246498 -112.642112 -5.63399
-35.686983 -111.993469 -4.556147
-18.627386 -125.388321 -11.845019
-18.356293 -125.360199 -13.08946
-20.025787 -124.697472 -11.855251
-18.627386 -125.388321 -11.845019
-21.452015 -123.931152 -11.733688
-21.192324 -124.016182 -13.005434
-20.025787 -124.697472 -11.855251
-22.858975 -123.061195 -11.602476
-21.452015 -123.931152 -11.733688
-24.276702 -122.14238 -11.335287
-24.036279 -122.331047 -12.616682
-22.858975 -123.061195 -11.602476
-25.67322 -121.13665 -11.077852
-24.276702 -122.14238 -11.335287
-27.059305 -120.110672 -10.685246
-26.840091 -120.386253 -11.956888
-25.67322 -121.13665 -11.077852
-28.427802 -119.020263 -10.322266
-27.059305 -120.110672 -10.685246
-29.757676 -117.939552 -9.830171
-29.556051 -118.279564 -11.072188
-28.427802 -119.020263 -10.322266
-31.077444 -116.819588 -9.389074
-29.757676 -117.939552 -9.830171
-32.319105 -115.741669 -8.830521
-32.127586 -116.120934 -10.021539
-31.077444 -116.819588 -9.389074
-33.561459 -114.646706 -8.350214
-32.319105 -115.741669 -8.830521
-34.66291 -113.639084 -7.772267
-34.470699 -114.035393 -8.88504
-33.561459 -114.646706 -8.350214
-35.793014 -112.615303 -7.313783
-34.66291 -113.639084 -7.772267
-34.883774 -113.226616 -6.778957
-42.89764 -104.67575 -10.458058
-42.662661 -105.207443 -9.526718
-42.185023 -105.669342 -11.500587
-42.89764 -104.67575 -10.458058
-41.361994 -106.67553 -12.513105
-41.148705 -107.188987 -11.598436
-42.185023 -105.669342 -11.500587
-40.509823 -107.693642 -13.514639
-41.361994 -106.67553 -12.513105
-39.538826 -108.722283 -14.46664
-39.354679 -109.223816 -13.562955
-40.509823 -107.693642 -13.514639
-38.53492 -109.748475 -15.405624
-39.538826 -108.722283 -14.46664
3 0 14 12
3 1 17 15
3 2 20 18
3 2 46 48
3 48 47 20
3 46 47 48
3 3 49 51
3 51 50 21
3 49 50 51
3 3 24 23
3 3 21 24
3 4 29 27
3 6 30 13
3 6 31 30
3 52 32 53
3 54 33 55
3 57 56 33
3 7 36 34
3 8 58 60
3 60 59 16
3 58 59 60
3 8 61 62
3 5 37 28
3 64 63 19
3 66 65 35
3 9 40 38
3 68 67 22
3 9 41 25
3 9 38 41
3 69 42 70
3 10 43 39
3 11 44 26
3 11 45 44
3 12 13 4
3 14 13 12
3 14 6 13
3 15 16 7
3 17 16 15
3 17 8 16
3 18 19 5
3 20 19 18
3 20 71 73
3 73 72 19
3 71 72 73
3 20 74 75
3 77 76 20
3 21 22 9
3 78 22 79
3 80 79 21
3 78 79 80
3 82 81 22
3 23 83 84
3 24 85 87
3 87 86 23
3 85 86 87
3 24 88 89
3 24 90 92
3 90 25 91
3 90 91 92
3 21 25 24
3 21 9 25
3 93 26 94
3 95 94 10
3 93 94 95
3 96 26 97
3 98 11 99
3 100 99 26
3 98 99 100
3 27 28 1
3 29 28 27
3 29 5 28
3 13 29 4
3 30 29 13
3 30 5 29
3 30 18 5
3 31 18 30
3 31 2 18
3 102 101 3
3 32 103 104
3 32 105 106
3 107 32 108
3 33 109 111
3 109 32 110
3 109 110 111
3 33 112 114
3 114 113 32
3 112 113 114
3 33 115 117
3 115 23 116
3 115 116 117
3 118 23 119
3 120 119 33
3 118 119 120
3 121 3 122
3 123 122 23
3 121 122 123
3 34 124 126
3 124 35 125
3 124 125 126
3 36 35 34
3 36 127 129
3 129 128 35
3 127 128 129
3 16 36 7
3 130 36 131
3 132 131 16
3 130 131 132
3 134 133 36
3 28 17 1
3 37 17 28
3 37 8 17
3 19 37 5
3 135 37 136
3 137 136 19
3 135 136 137
3 138 8 139
3 140 139 37
3 138 139 140
3 142 141 8
3 35 143 144
3 146 145 35
3 38 39 0
3 40 39 38
3 40 10 39
3 22 40 9
3 147 40 148
3 149 148 22
3 147 148 149
3 150 10 151
3 152 151 40
3 150 151 152
3 154 153 10
3 156 155 3
3 25 157 158
3 41 159 161
3 161 160 25
3 159 160 161
3 41 162 163
3 41 164 166
3 164 42 165
3 164 165 166
3 38 42 41
3 38 0 42
3 167 34 168
3 169 34 170
3 171 7 172
3 173 172 34
3 171 172 173
3 174 7 175
3 176 15 177
3 178 177 7
3 176 177 178
3 179 15 180
3 181 1 182
3 183 182 15
3 181 182 183
3 184 1 185
3 186 27 187
3 188 187 1
3 186 187 188
3 189 27 190
3 191 4 192
3 193 192 27
3 191 192 193
3 194 4 195
3 196 12 197
3 198 197 4
3 196 197 198
3 42 199 201
3 199 12 200
3 199 200 201
3 42 0 12
3 39 14 0
3 43 14 39
3 43 6 14
3 26 43 10
3 44 43 26
3 44 6 43
3 44 31 6
3 45 31 44
3 45 2 31
3 202 11 203
3 204 11 205
3 206 45 207
3 208 207 11
3 206 207 208
3 209 45 210
3 211 2 212
3 213 212 45
3 211 212 213
3 215 214 2
