ply
format ascii 1.0
element vertex 314
property float x
property float y
property float z
element face 295
property list uchar int vertex_index
end_header
-52.850601 -74.458397 43.839745
-43.988167 -62.895863 47.434593
-49.987972 -70.74791 48.404732
-35.113655 -75.167343 49.291267
-42.62093 -73.464813 48.518192
-40.319141 -63.752697 47.329033
-39.630035 -69.003937 47.795219
-43.464146 -68.145523 47.707409
-51.902527 -73.262314 47.054054
-48.76989 -75.497238 48.121307
-50.094505 -77.380058 45.845947
-37.659943 -79.893646 49.350964
-54.556 -70.593796 45.775803
-56.922287 -67.556671 44.449211
-47.628677 -61.975304 48.293869
-53.014656 -68.794449 48.202717
-36.028374 -69.822289 48.653988
-38.740082 -74.412628 48.738979
-41.419792 -78.805901 49.26865
-46.46447 -72.273636 48.463253
-45.207745 -77.331078 48.873398
-42.14077 -63.325333 47.264442
-41.868462 -65.940659 47.378128
-52.492802 -74.026268 45.660149
-51.082893 -75.372604 46.480728
-51.516293 -75.958817 44.866886
-55.135696 -68.512161 46.775528
-55.755054 -69.112747 45.106812
-56.314575 -67.079346 46.309311
-54.341141 -67.642868 48.022064
-53.889805 -69.843071 47.216797
-41.13839 -71.262955 48.097183
-39.211128 -71.691284 48.245743
-40.666191 -73.964996 48.596828
-40.122791 -76.683205 49.055943
-42.06073 -76.137222 48.958206
-48.281097 -71.559143 48.444229
-47.93079 -77.774017 47.904022
-47.031845 -76.460632 48.540962
-46.208954 -78.835938 48.460945
-44.416756 -79.808167 48.889561
-33.928806 -72.854858 49.602261
-33.467915 -75.481323 49.726082
-38.560226 -64.192551 47.660744
-38.186874 -66.777176 47.807732
-39.998283 -66.357651 47.474449
-41.537521 -68.586563 47.666386
-43.08847 -70.798477 48.069576
-51.065952 -72.16391 47.968483
-49.458801 -73.151711 48.264088
-50.398193 -74.433449 47.621979
-49.560577 -76.620972 47.236771
-48.580551 -78.720062 46.743385
-36.383862 -77.546188 49.272465
-34.643471 -77.857727 49.429268
-53.800045 -72.584854 44.8018
-55.03051 -71.059296 43.934654
-56.222733 -69.468765 43.088394
-45.827072 -62.450043 47.795418
-51.56723 -69.828743 48.328281
-52.540863 -71.061783 47.617874
-53.282803 -71.981026 46.432369
-34.400673 -70.245346 49.402157
-35.57552 -72.479561 48.988255
-37.781429 -69.411812 48.119289
-37.345306 -72.094032 48.537724
-36.878769 -74.812363 48.965107
-38.219505 -77.15387 49.154167
-39.520134 -79.402985 49.34219
-45.021767 -70.284897 48.135719
-44.566235 -72.904579 48.480965
-47.729065 -74.032791 48.505054
-45.898788 -74.817612 48.695545
-43.997963 -75.516525 48.84296
-43.326546 -78.113083 49.115253
-42.579479 -80.686104 49.177147
-42.369099 -60.736084 47.317719
-52.927998 -74.518047 42.759612
-52.285411 -75.330296 43.346648
-43.873213 -64.203322 47.462244
-42.949515 -64.418057 47.377168
-43.064469 -63.110598 47.349518
-52.285411 -75.330296 43.346648
-51.618257 -76.080506 43.860218
-52.183447 -75.208607 44.353316
-55.942846 -66.727677 47.048498
-55.725136 -67.795754 46.54242
-55.353407 -67.444084 47.281607
-54.956129 -67.009438 47.904875
-54.507992 -66.530014 48.425748
-55.353407 -67.444084 47.281607
-54.738419 -68.077515 47.398796
-54.956129 -67.009438 47.904875
-49.134535 -71.153526 48.424481
-48.486773 -70.305199 48.436051
-49.34021 -69.899582 48.416302
-46.594479 -79.407673 47.993915
-47.069872 -78.304978 48.182484
-47.455397 -78.876712 47.715454
-45.756977 -79.996288 48.313507
-46.594479 -79.407673 47.993915
-49.539964 -78.332962 45.465992
-48.782988 -79.002964 45.914711
-49.337528 -78.05006 46.294666
-36.764449 -80.080154 49.333056
-36.126408 -78.906425 49.293806
-37.021902 -78.719917 49.311714
-57.170513 -67.69733 43.369782
-56.820736 -68.653378 42.689373
-56.57251 -68.512718 43.768802
-47.540397 -63.262341 48.234314
-46.639595 -63.49971 47.985089
-46.727874 -62.212674 48.044643
-52.471691 -68.122673 48.465084
-53.186907 -67.642292 48.507496
-52.290943 -69.311596 48.265499
-51.747978 -68.63982 48.527866
-52.471691 -68.122673 48.465084
-35.214523 -70.033817 49.028073
-34.641852 -68.961388 49.319547
-35.455702 -68.749859 48.945463
-41.072344 -80.131744 49.293541
-40.122514 -80.430286 49.330311
-40.469963 -79.104443 49.30542
-45.743118 -71.279267 48.299486
-45.961199 -69.996205 48.200665
-46.68255 -70.990574 48.364432
-43.075709 -81.465077 48.905636
-43.498117 -80.247135 49.033354
-43.994347 -81.026108 48.761843
-42.190256 -81.955562 49.043852
-43.075709 -81.465077 48.905636
-41.609163 -59.68706 47.43264
-41.483845 -60.959585 47.340431
-40.723909 -59.910561 47.455353
-33.830094 -77.973953 49.53417
-34.407017 -79.186493 49.343445
-42.813361 -65.725719 47.434011
-42.004616 -64.632996 47.321285
-42.949515 -64.418057 47.377168
-43.611203 -66.828151 47.598652
-42.666304 -67.043091 47.542768
-42.813361 -65.725719 47.434011
-50.950468 -76.86633 44.434404
-50.239575 -77.57695 44.923935
-50.805399 -76.669438 45.356417
-50.950468 -76.86633 44.434404
-51.618257 -76.080506 43.860218
-37.371338 -81.248715 49.269373
-38.271307 -80.998795 49.334171
-48.41357 -62.982579 48.472132
-48.499679 -61.718817 48.582424
-53.85015 -67.066502 48.417169
-54.507992 -66.530014 48.425748
-53.677898 -68.218659 48.112391
-53.186907 -67.642292 48.507496
-53.85015 -67.066502 48.417169
-36.249895 -68.517719 48.524268
-35.455702 -68.749859 48.945463
-47.590864 -70.633328 48.35492
-48.486773 -70.305199 48.436051
-47.372783 -71.91639 48.453741
-46.68255 -70.990574 48.364432
-47.590864 -70.633328 48.35492
-44.860878 -80.482403 48.527815
-45.312855 -79.322052 48.675253
-45.756977 -79.996288 48.313507
-43.994347 -81.026108 48.761843
-44.860878 -80.482403 48.527815
-33.174845 -73.040775 49.987337
-33.423082 -71.77201 49.977217
-32.944399 -74.354007 50.049248
-33.174845 -73.040775 49.987337
-33.69836 -74.168091 49.664171
-32.710299 -75.621051 49.99748
-32.944399 -74.354007 50.049248
-38.37355 -65.484863 47.734238
-37.543442 -65.717949 48.042786
-37.730117 -64.425636 47.969292
-47.780277 -79.349735 47.135136
-47.455397 -78.876712 47.715454
-48.255671 -78.247039 47.323704
-48.049167 -79.72757 46.405174
-47.780277 -79.349735 47.135136
-48.049167 -79.72757 46.405174
-48.782988 -79.002964 45.914711
-49.685034 -78.529854 44.54398
-49.539964 -78.332962 45.465992
-50.239575 -77.57695 44.923935
-35.256213 -79.062195 49.372208
-35.513666 -77.701957 49.350866
-36.126408 -78.906425 49.293806
-34.407017 -79.186493 49.343445
-35.256213 -79.062195 49.372208
-36.764449 -80.080154 49.333056
-37.371338 -81.248715 49.269373
-53.957781 -72.736107 43.800364
-53.483059 -73.672878 43.319336
-53.325323 -73.521625 44.320773
-54.573014 -71.973328 43.366791
-53.957781 -72.736107 43.800364
-54.415278 -71.822075 44.368227
-55.186352 -71.160881 42.856751
-54.573014 -71.973328 43.366791
-55.782463 -70.365616 42.433621
-55.186352 -71.160881 42.856751
-55.626621 -70.264031 43.511524
-56.395977 -69.538155 41.950075
-55.782463 -70.365616 42.433621
-56.395977 -69.538155 41.950075
-56.820736 -68.653378 42.689373
-56.526352 -66.038327 46.908396
-55.942846 -66.727677 47.048498
-56.154623 -65.686657 47.647583
-56.891092 -66.319024 46.07233
-56.526352 -66.038327 46.908396
-57.194948 -66.557686 45.14228
-56.618431 -67.318008 45.379261
-56.891092 -66.319024 46.07233
-57.510277 -66.752212 44.136654
-57.194948 -66.557686 45.14228
-57.758503 -66.892872 43.057225
-57.170513 -67.69733 43.369782
-57.510277 -66.752212 44.136654
-45.728684 -63.751053 47.783153
-44.809231 -63.973963 47.602741
-44.907619 -62.672953 47.615005
-45.728684 -63.751053 47.783153
-46.639595 -63.49971 47.985089
-47.540397 -63.262341 48.234314
-48.41357 -62.982579 48.472132
-50.180433 -69.525216 48.498063
-49.34021 -69.899582 48.416302
-50.970062 -69.065632 48.459837
-51.747978 -68.63982 48.527866
-50.777601 -70.288327 48.366506
-50.180433 -69.525216 48.498063
-50.970062 -69.065632 48.459837
-52.927998 -74.518047 42.759612
-53.483059 -73.672878 43.319336
-33.921634 -69.212387 49.861498
-34.641852 -68.961388 49.319547
-33.659015 -70.467254 49.877165
-33.921634 -69.212387 49.861498
-34.164739 -71.550102 49.502209
-33.423082 -71.77201 49.977217
-33.659015 -70.467254 49.877165
-37.329145 -66.995163 48.10114
-37.543442 -65.717949 48.042786
-37.126423 -68.312481 48.256918
-37.329145 -66.995163 48.10114
-37.984152 -68.094494 47.96351
-36.904902 -69.617051 48.386639
-36.249895 -68.517719 48.524268
-37.126423 -68.312481 48.256918
-39.201403 -80.753464 49.329785
-38.271307 -80.998795 49.334171
-38.590038 -79.648315 49.346577
-39.201403 -80.753464 49.329785
-40.122514 -80.430286 49.330311
-43.873213 -64.203322 47.462244
-44.809231 -63.973963 47.602741
-44.417341 -67.905338 47.796362
-43.611203 -66.828151 47.598652
-45.196152 -68.975026 48.010517
-45.961199 -69.996205 48.200665
-44.242956 -69.21521 47.921564
-44.417341 -67.905338 47.796362
-45.196152 -68.975026 48.010517
-41.652187 -81.071846 49.247789
-41.072344 -80.131744 49.293541
-41.999635 -79.746003 49.222898
-41.652187 -81.071846 49.247789
-42.190256 -81.955562 49.043852
-37.93309 -63.1738 47.995646
-37.730117 -64.425636 47.969292
-38.729996 -62.922323 47.677433
-37.93309 -63.1738 47.995646
-39.609453 -62.702396 47.511578
-39.439684 -63.972624 47.494889
-38.729996 -62.922323 47.677433
-40.458866 -62.467892 47.346089
-39.609453 -62.702396 47.511578
-41.369681 -62.25421 47.313793
-41.229956 -63.539015 47.296738
-40.458866 -62.467892 47.346089
-42.254935 -62.030709 47.29108
-41.369681 -62.25421 47.313793
-41.483845 -60.959585 47.340431
-42.472326 -59.45059 47.409077
-41.609163 -59.68706 47.43264
-43.273314 -60.517551 47.4202
-42.472326 -59.45059 47.409077
-44.082847 -61.597441 47.478638
-43.178633 -61.815973 47.376156
-43.273314 -60.517551 47.4202
-45.0023 -61.374531 47.65905
-44.907619 -62.672953 47.615005
-44.082847 -61.597441 47.478638
-45.910103 -61.155413 47.862726
-45.0023 -61.374531 47.65905
-46.810906 -60.918043 48.111952
-46.727874 -62.212674 48.044643
-45.910103 -61.155413 47.862726
-47.709435 -60.69393 48.387833
-46.810906 -60.918043 48.111952
-48.499679 -61.718817 48.582424
-47.709435 -60.69393 48.387833
-33.242316 -76.785751 49.682577
-34.055693 -76.669525 49.577675
-33.830094 -77.973953 49.53417
-32.4847 -76.925479 49.953975
-32.710299 -75.621051 49.99748
-33.242316 -76.785751 49.682577
3 0 77 78
3 1 79 81
3 81 80 21
3 79 80 81
3 0 25 23
3 0 82 84
3 84 83 25
3 82 83 84
3 85 28 86
3 87 86 26
3 85 86 87
3 88 29 89
3 90 26 91
3 92 91 29
3 90 91 92
3 4 33 31
3 4 35 33
3 2 93 95
3 93 36 94
3 93 94 95
3 96 39 97
3 98 97 37
3 96 97 98
3 100 99 39
3 3 42 41
3 5 45 43
3 7 46 22
3 7 47 46
3 8 50 48
3 10 51 24
3 10 52 51
3 10 101 103
3 103 102 52
3 101 102 103
3 11 104 106
3 106 105 53
3 104 105 106
3 12 56 55
3 13 57 27
3 13 107 109
3 109 108 57
3 107 108 109
3 14 110 112
3 112 111 58
3 110 111 112
3 15 113 114
3 15 115 117
3 115 59 116
3 115 116 117
3 15 60 59
3 12 61 30
3 12 55 61
3 16 118 120
3 118 62 119
3 118 119 120
3 16 63 62
3 6 64 44
3 17 65 32
3 17 66 65
3 17 67 66
3 18 68 34
3 18 121 123
3 123 122 68
3 121 122 123
3 19 124 126
3 124 69 125
3 124 125 126
3 19 70 69
3 9 71 49
3 20 72 38
3 20 73 72
3 20 74 73
3 127 75 128
3 129 128 40
3 127 128 129
3 131 130 75
3 132 76 133
3 132 133 134
3 136 135 54
3 21 22 5
3 137 22 138
3 139 138 21
3 137 138 139
3 140 7 141
3 142 141 22
3 140 141 142
3 23 24 8
3 25 24 23
3 25 10 24
3 25 143 145
3 145 144 10
3 143 144 145
3 147 146 25
3 149 148 11
3 26 27 12
3 28 27 26
3 28 13 27
3 151 150 14
3 29 152 153
3 29 154 156
3 154 15 155
3 154 155 156
3 29 30 15
3 26 30 29
3 26 12 30
3 157 16 158
3 31 32 6
3 33 32 31
3 33 17 32
3 33 34 17
3 35 34 33
3 35 18 34
3 36 159 160
3 36 161 163
3 161 19 162
3 161 162 163
3 37 38 9
3 39 38 37
3 39 20 38
3 39 40 20
3 164 40 165
3 166 165 39
3 164 165 166
3 168 167 40
3 41 169 170
3 42 171 173
3 173 172 41
3 171 172 173
3 42 174 175
3 43 176 178
3 176 44 177
3 176 177 178
3 45 44 43
3 45 6 44
3 22 45 5
3 46 45 22
3 46 6 45
3 46 31 6
3 47 31 46
3 47 4 31
3 48 49 2
3 50 49 48
3 50 9 49
3 24 50 8
3 51 50 24
3 51 9 50
3 51 37 9
3 52 37 51
3 52 179 181
3 181 180 37
3 179 180 181
3 52 182 183
3 185 184 52
3 188 187 10
3 186 187 188
3 53 54 3
3 189 54 190
3 191 190 53
3 189 190 191
3 193 192 54
3 195 194 11
3 55 196 198
3 198 197 0
3 196 197 198
3 56 199 201
3 201 200 55
3 199 200 201
3 56 202 203
3 27 56 12
3 57 56 27
3 57 204 206
3 206 205 56
3 204 205 206
3 57 207 208
3 210 209 57
3 211 28 212
3 211 212 213
3 214 28 215
3 216 13 217
3 218 217 28
3 216 217 218
3 219 13 220
3 223 222 13
3 221 222 223
3 58 224 226
3 226 225 1
3 224 225 226
3 228 227 58
3 230 229 14
3 231 2 232
3 59 233 234
3 59 235 237
3 235 2 236
3 235 236 237
3 59 48 2
3 60 48 59
3 60 8 48
3 30 60 15
3 61 60 30
3 61 8 60
3 61 23 8
3 55 23 61
3 55 0 23
3 239 238 0
3 62 240 241
3 62 242 243
3 62 244 246
3 244 41 245
3 244 245 246
3 63 41 62
3 63 3 41
3 44 247 248
3 64 249 251
3 251 250 44
3 249 250 251
3 64 252 254
3 252 16 253
3 252 253 254
3 32 64 6
3 65 64 32
3 65 16 64
3 65 63 16
3 66 63 65
3 66 3 63
3 66 53 3
3 67 53 66
3 67 11 53
3 34 67 17
3 68 67 34
3 68 11 67
3 68 255 257
3 257 256 11
3 255 256 257
3 259 258 68
3 261 260 1
3 262 7 263
3 69 264 265
3 69 266 268
3 266 7 267
3 266 267 268
3 69 47 7
3 70 47 69
3 70 4 47
3 49 36 2
3 71 36 49
3 71 19 36
3 38 71 9
3 72 71 38
3 72 19 71
3 72 70 19
3 73 70 72
3 73 4 70
3 73 35 4
3 74 35 73
3 74 18 35
3 40 74 20
3 75 74 40
3 75 18 74
3 75 269 271
3 271 270 18
3 269 270 271
3 273 272 75
3 274 43 275
3 276 43 277
3 278 5 279
3 280 279 43
3 278 279 280
3 281 5 282
3 283 21 284
3 285 284 5
3 283 284 285
3 76 286 288
3 286 21 287
3 286 287 288
3 76 1 21
3 289 76 290
3 291 76 292
3 293 1 294
3 295 294 76
3 293 294 295
3 296 58 297
3 298 297 1
3 296 297 298
3 299 58 300
3 301 14 302
3 303 302 58
3 301 302 303
3 304 14 305
3 307 306 14
3 54 42 3
3 308 42 309
3 310 309 54
3 308 309 310
3 313 312 42
3 311 312 313
