ply
format ascii 1.0
element vertex 214
property float x
property float y
property float z
element face 197
property list uchar int vertex_index
end_header
47.382755 49.420944 20.558455
44.648949 52.900566 28.089344
48.745644 38.519024 22.287096
44.220554 56.571342 23.120121
42.382607 57.76255 26.239641
50.140705 50.16684 11.410587
47.012798 45.967979 25.613358
48.406494 44.047676 21.701973
47.392868 52.646004 15.071603
45.585632 54.836746 19.165779
46.113552 51.32003 24.539944
49.430107 47.257195 16.74044
42.100971 54.202499 30.701767
45.254967 56.539124 16.355444
44.472519 57.545998 18.461472
44.539112 54.739525 25.651318
45.269714 53.973038 23.857384
45.474571 52.15197 26.406628
46.147156 49.51564 27.056517
47.400711 51.061012 17.853722
48.479141 49.934349 15.912949
48.273987 48.370178 18.598305
48.634762 41.317398 22.081242
49.487617 42.996387 19.855288
40.798035 56.558929 29.418407
40.345463 54.810249 31.609436
43.763401 58.390656 20.494297
43.019272 59.047432 22.365921
43.408558 57.225021 24.826912
43.593399 55.401848 27.208395
47.273506 47.722595 23.152279
47.998009 46.738068 21.181267
47.602875 45.034821 23.635769
47.712021 42.319275 23.984358
47.664051 39.548065 24.175926
47.55793 36.702671 24.199413
47.411415 54.179344 12.251036
46.213799 55.405891 14.260533
46.381416 53.785728 17.094807
46.568295 52.119667 19.874372
44.907078 55.773071 21.203627
45.900391 53.096077 21.903383
46.701454 50.406883 22.563757
46.703236 48.648895 25.135014
48.6591 51.436806 13.161805
49.812008 48.745773 14.103502
50.824913 46.077713 15.017756
48.971504 45.693344 19.28285
50.215656 44.581711 17.495516
42.356575 55.991905 28.470741
43.539146 53.576126 29.53075
43.864095 58.868725 18.121225
44.262138 58.415588 17.058252
45.053051 51.611065 28.466999
45.465862 51.236767 27.625641
45.06176 52.526268 27.247986
49.297398 39.381496 21.275799
49.241957 40.780683 21.172873
48.690203 39.918211 22.184169
49.430642 37.965681 21.377778
49.297398 39.381496 21.275799
48.788788 37.079876 22.293583
49.430642 37.965681 21.377778
39.338302 55.120106 31.952005
39.641789 55.977429 30.847726
42.361131 60.178002 22.004884
42.758572 59.961273 21.08466
42.895583 57.493786 25.533276
42.78343 58.372284 24.406172
42.270454 58.641048 25.112536
50.930548 49.501248 10.626421
50.282522 50.846276 10.056667
50.732839 48.829819 11.931886
50.930548 49.501248 10.626421
47.298057 41.417757 25.059514
47.383049 42.792015 24.967892
47.274073 40.032152 25.155298
47.688036 40.93367 24.080142
47.298057 41.417757 25.059514
47.133348 38.624719 25.167912
47.274073 40.032152 25.155298
45.59684 56.802524 13.882979
46.164507 56.192188 12.834426
46.329716 48.184944 27.31477
46.048989 48.606826 28.251858
50.523317 43.225081 17.804026
49.851636 43.789049 18.675402
50.159298 42.432418 18.983913
50.942328 43.987049 16.663199
50.523317 43.225081 17.804026
47.536766 35.244044 24.127962
46.949289 35.758127 25.117529
41.758263 58.817218 25.741647
42.270454 58.641048 25.112536
49.491644 51.524544 10.897898
50.282522 50.846276 10.056667
47.033437 44.616367 25.782393
46.788339 45.067979 26.774754
44.653363 57.912152 16.005238
45.117424 57.369141 14.930434
44.863743 57.042561 17.408458
44.653363 57.912152 16.005238
44.262138 58.415588 17.058252
45.802155 49.918602 27.950585
45.810863 50.833805 26.731572
45.465862 51.236767 27.625641
46.048989 48.606826 28.251858
45.802155 49.918602 27.950585
49.668385 41.620178 20.059896
49.061189 42.156892 20.968265
49.241957 40.780683 21.172873
50.159298 42.432418 18.983913
49.668385 41.620178 20.059896
39.868074 56.851768 29.752212
40.120966 57.689754 28.68943
39.191006 57.982594 29.023235
40.571749 55.684589 30.513921
39.868074 56.851768 29.752212
39.641789 55.977429 30.847726
43.130636 59.632885 20.148848
43.509536 59.291054 19.137637
43.391337 58.719044 21.430109
43.130636 59.632885 20.148848
42.758572 59.961273 21.08466
42.588787 59.28349 23.175677
42.361131 60.178002 22.004884
43.213915 58.136226 23.596417
42.588787 59.28349 23.175677
42.78343 58.372284 24.406172
47.328476 44.149788 24.793598
47.307836 45.5014 24.624564
47.033437 44.616367 25.782393
47.657448 43.677048 23.810063
47.328476 44.149788 24.793598
47.383049 42.792015 24.967892
47.080288 37.202022 25.179655
47.61099 38.125368 24.187669
47.133348 38.624719 25.167912
46.949289 35.758127 25.117529
47.080288 37.202022 25.179655
46.763315 55.578914 11.829677
47.446689 54.919979 10.840259
46.812607 54.792617 13.255785
46.763315 55.578914 11.829677
46.164507 56.192188 12.834426
45.734383 55.972507 15.307989
45.59684 56.802524 13.882979
45.117424 57.369141 14.930434
44.11796 57.968327 19.477885
43.864095 58.868725 18.121225
43.509536 59.291054 19.137637
46.607756 47.751571 26.354019
46.425196 49.082268 26.095765
46.329716 48.184944 27.31477
46.762537 46.411113 26.59319
46.858017 47.308437 25.374186
46.607756 47.751571 26.354019
46.788339 45.067979 26.774754
46.762537 46.411113 26.59319
48.126999 53.530796 11.318122
47.446689 54.919979 10.840259
48.750841 52.159527 11.773507
48.126999 53.530796 11.318122
48.035258 52.808075 12.706421
49.399902 50.801823 12.286196
49.491644 51.524544 10.897898
48.750841 52.159527 11.773507
50.568491 48.119286 13.278344
50.732839 48.829819 11.931886
49.976356 49.456306 12.757044
51.074944 46.785256 13.73547
50.568491 48.119286 13.278344
50.318461 47.411743 14.560629
51.588287 45.449965 14.227999
51.074944 46.785256 13.73547
51.246956 44.73505 15.424319
50.520285 45.329712 16.256636
50.942328 43.987049 16.663199
51.588287 45.449965 14.227999
51.246956 44.73505 15.424319
48.194931 36.1717 23.249741
48.788788 37.079876 22.293583
48.151787 37.610848 23.243254
48.194931 36.1717 23.249741
47.536766 35.244044 24.127962
41.728828 58.014125 26.762532
41.758263 58.817218 25.741647
40.936543 57.412315 28.351915
40.120966 57.689754 28.68943
41.715812 57.128803 27.878082
40.936543 57.412315 28.351915
41.577305 56.275417 28.944574
42.369591 56.877228 27.355191
41.728828 58.014125 26.762532
41.715812 57.128803 27.878082
40.04921 53.948475 32.723072
39.338302 55.120106 31.952005
40.994341 53.621681 32.27066
40.04921 53.948475 32.723072
41.872095 53.317806 31.816826
41.223217 54.506374 31.155601
40.994341 53.621681 32.27066
42.672584 52.985023 31.253607
41.872095 53.317806 31.816826
43.391672 52.671837 30.668098
42.820059 53.889313 30.116259
42.672584 52.985023 31.253607
44.025772 52.322602 29.985349
43.391672 52.671837 30.668098
44.580674 51.984821 29.264646
44.094048 53.238346 28.810047
44.025772 52.322602 29.985349
45.053051 51.611065 28.466999
44.580674 51.984821 29.264646
3 51 14 52
3 1 17 15
3 1 53 55
3 55 54 17
3 53 54 55
3 0 21 19
3 2 56 58
3 58 57 22
3 56 57 58
3 2 59 60
3 2 61 62
3 63 25 64
3 65 27 66
3 4 67 69
3 67 28 68
3 67 68 69
3 4 29 28
3 5 70 71
3 5 72 73
3 6 32 30
3 74 33 75
3 76 34 77
3 78 77 33
3 76 77 78
3 80 79 34
3 81 37 82
3 9 38 13
3 9 39 38
3 3 40 26
3 10 41 16
3 10 42 41
3 10 43 42
3 84 83 18
3 8 44 36
3 11 45 20
3 11 46 45
3 7 47 31
3 85 48 86
3 87 86 23
3 85 86 87
3 89 88 48
3 91 90 35
3 12 49 24
3 12 50 49
3 92 4 93
3 94 5 95
3 97 96 6
3 98 13 99
3 14 100 102
3 100 13 101
3 100 101 102
3 14 9 13
3 15 16 3
3 17 16 15
3 17 10 16
3 17 18 10
3 103 18 104
3 105 104 17
3 103 104 105
3 107 106 18
3 19 20 8
3 21 20 19
3 21 11 20
3 22 23 7
3 108 23 109
3 110 109 22
3 108 109 110
3 112 111 23
3 113 24 114
3 113 114 115
3 25 116 118
3 116 24 117
3 116 117 118
3 25 12 24
3 119 26 120
3 27 121 123
3 121 26 122
3 121 122 123
3 27 3 26
3 124 27 125
3 28 126 128
3 126 27 127
3 126 127 128
3 28 3 27
3 28 15 3
3 29 15 28
3 29 1 15
3 30 31 0
3 32 31 30
3 32 7 31
3 129 32 130
3 131 130 6
3 129 130 131
3 33 132 134
3 132 32 133
3 132 133 134
3 33 7 32
3 33 22 7
3 34 22 33
3 34 2 22
3 34 35 2
3 135 35 136
3 137 136 34
3 135 136 137
3 139 138 35
3 140 36 141
3 37 142 144
3 142 36 143
3 142 143 144
3 37 8 36
3 13 145 147
3 145 37 146
3 145 146 147
3 38 37 13
3 38 8 37
3 38 19 8
3 39 19 38
3 39 0 19
3 26 148 150
3 148 14 149
3 148 149 150
3 40 14 26
3 40 9 14
3 16 40 3
3 41 40 16
3 41 9 40
3 41 39 9
3 42 39 41
3 42 0 39
3 42 30 0
3 43 30 42
3 43 6 30
3 18 43 10
3 151 43 152
3 153 152 18
3 151 152 153
3 154 6 155
3 156 155 43
3 154 155 156
3 158 157 6
3 36 159 160
3 44 161 163
3 163 162 36
3 161 162 163
3 44 164 166
3 164 5 165
3 164 165 166
3 20 44 8
3 45 44 20
3 45 5 44
3 45 167 169
3 169 168 5
3 167 168 169
3 46 170 172
3 172 171 45
3 170 171 172
3 46 173 174
3 31 21 0
3 47 21 31
3 47 11 21
3 23 47 7
3 48 47 23
3 48 11 47
3 48 46 11
3 175 46 176
3 177 176 48
3 175 176 177
3 179 178 46
3 35 180 182
3 182 181 2
3 180 181 182
3 184 183 35
3 185 4 186
3 24 187 188
3 49 189 191
3 191 190 24
3 189 190 191
3 49 192 194
3 192 4 193
3 192 193 194
3 49 29 4
3 50 29 49
3 50 1 29
3 195 25 196
3 197 25 198
3 199 12 200
3 201 200 25
3 199 200 201
3 202 12 203
3 204 50 205
3 206 205 12
3 204 205 206
3 207 50 208
3 209 1 210
3 211 210 50
3 209 210 211
3 213 212 1
