ply
format ascii 1.0
element vertex 289
property float x
property float y
property float z
element face 276
property list uchar int vertex_index
end_header
67.789528 -19.42757 -4.882795
63.376541 -36.916237 -3.588648
61.9795 -15.159016 -4.201662
67.711342 -27.481136 -5.194647
59.249348 -24.607212 2.368083
67.842949 -28.599941 1.464077
65.541794 -16.67967 -4.462595
65.824829 -32.156998 -4.684864
64.064117 -28.919245 -8.293213
68.486488 -23.136843 -5.201164
65.996208 -23.76646 -8.655993
60.760117 -19.944214 -0.833588
64.966499 -21.542572 -1.301065
51.261585 -30.827135 9.94408
57.771152 -29.001961 5.702564
64.048943 -26.302395 1.814469
68.016365 -24.053947 -1.754248
69.492043 -27.348701 -1.979799
69.25943 -31.216129 -1.774969
66.851677 -17.913645 -4.670265
66.778801 -15.516396 -6.339413
67.524063 -17.110308 -6.536837
64.632828 -34.538555 -4.2103
63.783997 -33.042126 -6.066315
62.631016 -35.541653 -5.510807
62.401962 -12.735678 -6.020411
68.266129 -25.249479 -5.251139
67.503021 -23.269215 -6.924158
66.850639 -25.622429 -6.896166
60.022224 -22.296909 0.770197
62.973816 -20.625988 -1.05422
62.376446 -23.026134 0.504094
50.990356 -32.294369 11.803787
53.908958 -31.877621 9.647736
54.408218 -30.110271 7.792613
57.150265 -31.013964 7.506876
63.528442 -28.591806 3.472594
66.112991 -27.373184 1.603743
66.428452 -25.051901 0.002359
67.976463 -26.346193 -0.182716
68.967422 -25.615007 -1.908077
69.123596 -27.815626 -0.29372
63.899109 -15.756655 -4.294352
64.178322 -13.301428 -6.04356
65.653488 -14.234179 -6.162401
66.875641 -29.794851 -5.010763
65.966568 -28.057095 -6.753082
64.919998 -30.539711 -6.479525
55.840572 -26.108141 4.320829
61.527847 -38.020947 -4.816271
68.334389 -21.182558 -5.069456
67.880577 -18.967167 -6.719448
67.86264 -21.03619 -6.857355
65.085922 -26.320164 -8.534065
61.423637 -17.562651 -2.480434
63.490692 -18.199697 -2.641127
65.308044 -19.117655 -2.853916
66.812561 -20.306616 -3.085075
48.572323 -31.011305 12.086658
55.065479 -28.17231 6.022783
58.484482 -26.852865 3.999685
60.450592 -29.860888 5.44001
61.077789 -27.673416 3.708695
61.73217 -25.383686 2.076906
64.538086 -23.943586 0.239126
66.667427 -22.689857 -1.543482
67.95475 -21.743752 -3.303665
68.701607 -23.399883 -3.481974
69.038185 -25.242332 -3.592636
68.971481 -27.236591 -3.608341
69.829178 -29.443314 -0.307957
69.583382 -29.226542 -1.943039
68.528976 -29.347027 -3.504616
67.756927 -31.538198 -3.261705
66.718079 -33.77681 -2.867571
62.190731 -13.947347 -5.111036
61.12643 -13.805037 -5.118113
60.915199 -15.016706 -4.208738
59.635786 -23.452061 1.56914
58.354809 -23.126089 1.714856
57.96837 -24.281241 2.513799
55.28322 -32.360422 9.538974
53.754127 -32.652952 10.619956
56.903874 -31.928594 8.468543
55.529612 -31.445793 8.577306
55.28322 -32.360422 9.538974
66.97797 -27.986562 1.53391
65.927665 -28.499221 2.456626
66.792644 -29.1126 2.386793
66.686459 -14.316668 -7.231301
66.97316 -15.154326 -7.319873
63.393483 -32.289504 -6.994907
62.877167 -33.597109 -6.742946
54.131348 -26.725133 5.34642
54.536276 -25.759137 4.480748
64.246906 -12.068625 -6.97616
64.907265 -12.542508 -7.011186
66.359386 -22.529115 -8.664689
67.112793 -22.280493 -7.798771
66.749615 -23.517837 -7.790076
65.596882 -22.834266 -9.583386
66.359386 -22.529115 -8.664689
61.276796 -37.384844 -5.798237
60.871952 -38.667784 -5.411905
59.581303 -19.714631 -0.752614
59.158692 -20.842904 0.086402
61.091877 -18.753432 -1.657011
59.913063 -18.523849 -1.576037
59.581303 -19.714631 -0.752614
50.027765 -30.24391 10.116963
48.683134 -30.335995 11.188252
49.916954 -30.91922 11.015369
51.506059 -29.994284 9.039506
50.027765 -30.24391 10.116963
61.728863 -30.318483 5.347398
60.168267 -30.88259 6.370731
69.934498 -30.473844 0.582249
69.499103 -29.71179 0.553028
69.421406 -30.221335 -1.859004
69.828919 -30.216439 -1.072869
69.666943 -31.211233 -0.988834
67.131824 -34.587479 -1.927333
67.639077 -33.530388 -2.163276
66.102696 -34.905441 -2.593563
67.131824 -34.587479 -1.927333
67.62025 -17.859686 -7.595415
67.538689 -18.952248 -7.661987
67.345791 -15.951282 -7.418585
66.97316 -15.154326 -7.319873
67.151432 -16.313352 -6.438125
62.300677 -34.846873 -6.465192
62.877167 -33.597109 -6.742946
63.207507 -34.291889 -5.788561
61.394554 -12.629133 -6.070813
61.12643 -13.805037 -5.118113
62.537636 -11.514302 -6.985359
61.530228 -11.407757 -7.035761
61.394554 -12.629133 -6.070813
63.69094 -28.10136 -9.227484
63.208027 -29.464588 -9.05378
58.789745 -22.019251 0.888294
58.354809 -23.126089 1.714856
60.391171 -21.120562 -0.031695
59.158692 -20.842904 0.086402
58.789745 -22.019251 0.888294
52.294826 -32.861327 11.697982
50.975307 -32.907645 12.755211
52.449657 -32.085995 10.725762
52.294826 -32.861327 11.697982
53.754127 -32.652952 10.619956
64.635391 -29.108532 3.391051
63.267787 -29.683941 4.36369
64.820717 -27.982495 2.538168
64.635391 -29.108532 3.391051
65.927665 -28.499221 2.456626
69.563789 -32.146101 -0.866497
69.666943 -31.211233 -0.988834
68.909752 -32.250048 -1.616976
69.563789 -32.146101 -0.866497
65.644848 -13.008883 -7.070607
64.907265 -12.542508 -7.011186
64.915905 -13.767803 -6.102981
66.123802 -13.675559 -7.142796
66.216144 -14.875287 -6.250907
66.686459 -14.316668 -7.231301
65.644848 -13.008883 -7.070607
66.123802 -13.675559 -7.142796
63.961483 -31.038297 -7.201512
64.351998 -31.790919 -6.27292
63.393483 -32.289504 -6.994907
63.533542 -30.228063 -8.108356
64.492058 -29.729478 -7.386369
63.961483 -31.038297 -7.201512
63.208027 -29.464588 -9.05378
63.533542 -30.228063 -8.108356
56.263982 -25.031705 3.490172
54.536276 -25.759137 4.480748
57.54496 -25.357677 3.344456
57.96837 -24.281241 2.513799
56.263982 -25.031705 3.490172
67.736092 -29.692997 2.34895
66.792644 -29.1126 2.386793
68.505989 -29.290104 1.439045
67.736092 -29.692997 2.34895
61.828873 -38.64699 -3.822635
62.452194 -37.468592 -4.202459
62.75322 -38.094635 -3.208824
61.029116 -39.244181 -4.403685
61.828873 -38.64699 -3.822635
60.871952 -38.667784 -5.411905
61.029116 -39.244181 -4.403685
63.358726 -11.78575 -6.964586
63.290142 -13.018553 -6.031986
64.246906 -12.068625 -6.97616
62.537636 -11.514302 -6.985359
63.358726 -11.78575 -6.964586
67.52972 -19.98676 -7.730941
67.538689 -18.952248 -7.661987
67.871609 -20.001679 -6.788401
67.292603 -21.163981 -7.76537
67.68283 -22.152703 -6.890757
67.112793 -22.280493 -7.798771
67.52972 -19.98676 -7.730941
67.292603 -21.163981 -7.76537
64.201843 -26.80182 -9.34791
64.575019 -27.619704 -8.413639
63.69094 -28.10136 -9.227484
64.687923 -25.446213 -9.462495
64.201843 -26.80182 -9.34791
65.143067 -24.169361 -9.52346
65.541065 -25.043312 -8.595029
64.687923 -25.446213 -9.462495
65.596882 -22.834266 -9.583386
65.143067 -24.169361 -9.52346
61.828381 -36.145197 -6.145505
62.079431 -36.7813 -5.163539
61.276796 -37.384844 -5.798237
62.300677 -34.846873 -6.465192
61.828381 -36.145197 -6.145505
60.57948 -16.177 -3.303064
60.915199 -15.016706 -4.208738
60.301548 -17.378817 -2.44245
59.913063 -18.523849 -1.576037
61.701569 -16.360833 -3.341048
60.57948 -16.177 -3.303064
60.301548 -17.378817 -2.44245
49.803428 -32.220152 12.843947
50.975307 -32.907645 12.755211
48.594412 -31.57862 12.985383
49.803428 -32.220152 12.843947
49.78134 -31.652837 11.945222
47.550981 -30.791885 13.102941
48.594412 -31.57862 12.985383
47.489889 -30.282542 12.245915
46.468547 -30.063121 13.262199
47.550981 -30.791885 13.102941
47.489889 -30.282542 12.245915
48.683134 -30.335995 11.188252
53.079376 -29.635852 7.963773
51.506059 -29.994284 9.039506
52.834902 -30.468703 8.868346
53.408006 -28.666871 7.078858
53.079376 -29.635852 7.963773
54.736849 -29.141291 6.907698
53.743801 -27.757217 6.197397
53.408006 -28.666871 7.078858
55.453026 -27.140225 5.171806
54.131348 -26.725133 5.34642
53.743801 -27.757217 6.197397
58.518103 -31.459128 7.404164
56.903874 -31.928594 8.468543
58.800428 -30.437426 6.473443
58.518103 -31.459128 7.404164
60.168267 -30.88259 6.370731
61.989517 -29.226347 4.456302
61.728863 -30.318483 5.347398
63.267787 -29.683941 4.36369
69.146312 -28.897947 0.560146
68.483272 -28.207784 0.585179
68.505989 -29.290104 1.439045
69.476387 -28.62947 -0.300839
69.146312 -28.897947 0.560146
69.499103 -29.71179 0.553028
69.951817 -30.324826 -0.255327
69.934498 -30.473844 0.582249
69.70628 -29.334928 -1.125498
69.951817 -30.324826 -0.255327
69.828919 -30.216439 -1.072869
68.158501 -32.411082 -2.360343
68.508178 -31.377164 -2.518337
68.909752 -32.250048 -1.616976
67.237503 -32.657504 -3.064638
68.158501 -32.411082 -2.360343
67.639077 -33.530388 -2.163276
65.06007 -35.286314 -3.264927
65.675454 -34.157682 -3.538936
66.102696 -34.905441 -2.593563
64.431927 -36.475155 -2.954102
64.004684 -35.727396 -3.899474
65.06007 -35.286314 -3.264927
63.761162 -37.60194 -2.606564
64.431927 -36.475155 -2.954102
62.75322 -38.094635 -3.208824
63.761162 -37.60194 -2.606564
67.441993 -16.931256 -7.50411
67.70232 -18.038737 -6.628143
67.62025 -17.859686 -7.595415
67.345791 -15.951282 -7.418585
67.441993 -16.931256 -7.50411
3 0 21 19
3 1 24 22
3 2 75 77
3 75 25 76
3 75 76 77
3 3 28 26
3 4 78 80
3 78 29 79
3 78 79 80
3 4 31 29
3 81 33 82
3 83 35 84
3 85 84 33
3 83 84 85
3 5 86 88
3 86 37 87
3 86 87 88
3 5 39 37
3 5 41 39
3 6 44 42
3 90 89 20
3 7 47 45
3 92 91 23
3 93 48 94
3 96 95 43
3 9 52 50
3 10 97 99
3 99 98 27
3 97 98 99
3 10 100 101
3 8 53 46
3 103 102 49
3 11 104 105
3 11 106 108
3 106 54 107
3 106 107 108
3 11 55 54
3 12 56 30
3 12 57 56
3 13 58 32
3 13 109 111
3 111 110 58
3 109 110 111
3 13 112 113
3 14 59 34
3 14 60 59
3 114 61 115
3 15 62 36
3 15 63 62
3 15 64 63
3 16 65 38
3 16 66 65
3 16 67 66
3 17 68 40
3 17 69 68
3 116 70 117
3 18 118 120
3 118 71 119
3 118 119 120
3 18 72 71
3 18 73 72
3 121 74 122
3 124 123 74
3 126 125 51
3 19 20 6
3 21 20 19
3 21 127 129
3 129 128 20
3 127 128 129
3 22 23 7
3 24 23 22
3 24 130 132
3 132 131 23
3 130 131 132
3 25 133 134
3 25 135 137
3 135 136 137
3 26 27 9
3 28 27 26
3 28 10 27
3 139 138 8
3 29 140 141
3 29 142 144
3 142 11 143
3 142 143 144
3 29 30 11
3 31 30 29
3 31 12 30
3 145 32 146
3 33 147 149
3 147 32 148
3 147 148 149
3 33 13 32
3 33 34 13
3 35 34 33
3 35 14 34
3 150 36 151
3 37 152 154
3 152 36 153
3 152 153 154
3 37 15 36
3 37 38 15
3 39 38 37
3 39 16 38
3 39 40 16
3 41 40 39
3 41 17 40
3 155 18 156
3 158 157 18
3 42 43 2
3 44 43 42
3 44 159 161
3 161 160 43
3 159 160 161
3 20 44 6
3 162 44 163
3 164 163 20
3 162 163 164
3 166 165 44
3 45 46 3
3 47 46 45
3 47 8 46
3 23 47 7
3 167 47 168
3 169 168 23
3 167 168 169
3 170 8 171
3 172 171 47
3 170 171 172
3 174 173 8
3 48 175 176
3 48 177 179
3 177 4 178
3 177 178 179
3 180 5 181
3 183 182 5
3 184 49 185
3 186 185 1
3 184 185 186
3 187 49 188
3 190 189 49
3 43 25 2
3 191 25 192
3 193 192 43
3 191 192 193
3 195 194 25
3 50 51 0
3 52 51 50
3 52 196 198
3 198 197 51
3 196 197 198
3 27 52 9
3 199 52 200
3 201 200 27
3 199 200 201
3 203 202 52
3 46 28 3
3 53 28 46
3 53 10 28
3 204 53 205
3 206 205 8
3 204 205 206
3 207 53 208
3 209 10 210
3 211 210 53
3 209 210 211
3 213 212 10
3 49 24 1
3 214 24 215
3 216 215 49
3 214 215 216
3 218 217 24
3 219 2 220
3 54 221 222
3 54 223 225
3 223 2 224
3 223 224 225
3 54 42 2
3 55 42 54
3 55 6 42
3 30 55 11
3 56 55 30
3 56 6 55
3 56 19 6
3 57 19 56
3 57 0 19
3 32 226 227
3 58 228 230
3 230 229 32
3 228 229 230
3 58 231 232
3 58 233 235
3 233 234 235
3 237 236 58
3 34 238 240
3 240 239 13
3 238 239 240
3 59 241 243
3 243 242 34
3 241 242 243
3 59 244 245
3 59 246 248
3 246 48 247
3 246 247 248
3 60 48 59
3 60 4 48
3 249 35 250
3 61 251 253
3 251 35 252
3 251 252 253
3 61 14 35
3 36 254 256
3 254 61 255
3 254 255 256
3 62 61 36
3 62 14 61
3 62 60 14
3 63 60 62
3 63 4 60
3 63 31 4
3 64 31 63
3 64 12 31
3 38 64 15
3 65 64 38
3 65 12 64
3 65 57 12
3 66 57 65
3 66 0 57
3 66 50 0
3 67 50 66
3 67 9 50
3 40 67 16
3 68 67 40
3 68 9 67
3 68 26 9
3 69 26 68
3 69 3 26
3 257 41 258
3 259 258 5
3 257 258 259
3 70 260 262
3 260 41 261
3 260 261 262
3 70 17 41
3 263 70 264
3 71 265 267
3 265 70 266
3 265 266 267
3 71 17 70
3 71 69 17
3 72 69 71
3 72 3 69
3 72 45 3
3 73 45 72
3 73 7 45
3 268 73 269
3 270 269 18
3 268 269 270
3 74 271 273
3 271 73 272
3 271 272 273
3 74 7 73
3 74 22 7
3 274 22 275
3 276 275 74
3 274 275 276
3 277 1 278
3 279 278 22
3 277 278 279
3 280 1 281
3 283 282 1
3 51 21 0
3 284 21 285
3 286 285 51
3 284 285 286
3 288 287 21
