ply
format ascii 1.0
element vertex 276
property float x
property float y
property float z
element face 275
property list uchar int vertex_index
end_header
-53.792686 -11.287699 15.010088
-67.600357 -2.671568 14.556563
-62.802437 -12.202734 16.165993
-45.862839 -9.120279 14.775846
-65.293808 -2.339649 11.953531
-48.986599 -16.887413 17.301851
-49.540466 -10.337247 14.990467
-58.372246 -11.924245 15.267212
-58.523827 -17.262682 17.92462
-53.622528 -17.228992 17.501143
-58.359055 -6.083911 12.274504
-54.210594 -4.827149 12.036657
-68.365776 -7.252494 17.496637
-66.445442 -12.060966 17.984703
-66.006485 -7.362661 14.842075
-62.473637 -6.963796 13.134804
-50.343765 -3.293401 12.142227
-68.569458 -2.541527 18.01358
-51.372574 -14.049681 16.282726
-49.211594 -13.688124 16.230675
-51.605305 -10.849409 14.997976
-56.065823 -11.647437 15.082013
-56.0326 -14.534483 16.431515
-53.662239 -14.331648 16.329041
-51.240669 -17.099483 17.406172
-60.340855 -3.666369 11.102764
-58.359276 -3.021875 10.743332
-68.034729 -4.992995 15.970619
-67.363861 -7.366459 16.053308
-67.022949 -4.999526 14.54336
-63.749104 -1.940351 10.989799
-64.074471 -4.608408 12.384774
-62.268822 -4.201121 11.64301
-60.450691 -6.577827 12.611353
-45.401287 -12.737223 15.873783
-52.23214 -4.089087 12.066418
-64.762894 -12.187399 16.951012
-64.911255 -14.509212 18.469666
-62.94421 -14.652413 17.633455
-56.211231 -19.895672 18.737713
-58.700787 -19.749729 19.079908
-67.069351 -0.347055 13.270975
-66.596436 -2.579353 13.139997
-66.094772 -0.169222 11.874938
-64.846481 0.185015 10.707649
-46.905571 -16.588326 17.122948
-47.213524 -13.248772 16.112568
-47.621632 -9.75788 14.933223
-60.644211 -12.112099 15.614731
-60.752769 -14.699574 17.036108
-58.421165 -14.658127 16.649574
-56.073837 -17.282043 17.653139
-53.698589 -19.978252 18.518147
-51.240028 -19.989975 18.358379
-48.90266 -19.91922 18.190369
-56.150475 -8.627757 13.624558
-53.985493 -8.110862 13.566067
-56.263077 -5.496055 12.093897
-56.379005 -2.285418 10.544205
-67.615372 -9.644744 17.639429
-66.259583 -9.762598 16.400116
-64.580383 -9.761114 15.40633
-65.683014 -4.875308 13.347456
-64.351997 -7.228418 13.871767
-62.649502 -9.638544 14.655504
-60.548088 -9.401694 14.129467
-58.35746 -9.061172 13.798316
-51.903954 -7.518958 13.577546
-49.931648 -6.860828 13.611311
-48.082619 -6.146276 13.618513
-48.55217 -2.451233 12.218979
-46.364075 -5.385579 13.5516
-44.780796 -4.587869 13.367848
-60.892063 -17.170307 18.369444
-68.677689 -4.882169 17.609459
-68.26503 -2.645569 16.191471
-68.084557 -0.251707 18.721012
-68.076172 -0.339624 16.729141
-67.736443 -0.387587 14.897717
-61.117536 -1.047595 9.946982
-60.273106 -2.186275 10.382608
-61.185285 -2.527689 10.667139
-62.149269 -2.795065 10.937261
-63.008963 -3.070736 11.316405
-62.88941 -1.66468 10.610656
-61.185285 -2.527689 10.667139
-61.304839 -3.933745 11.372887
-62.149269 -2.795065 10.937261
-44.826214 -10.641335 15.122617
-44.595438 -12.449807 15.671585
-45.632063 -10.928751 15.324814
-45.067749 -8.777343 14.625609
-44.826214 -10.641335 15.122617
-56.336786 -21.14255 19.212193
-55.060381 -21.241778 19.060498
-66.275207 0.861178 12.004017
-66.582062 -0.258138 12.572957
-66.762497 0.772262 12.702035
-64.595787 1.409668 10.193418
-65.189842 1.164998 10.752066
-64.110666 0.454736 10.226855
-64.595787 1.409668 10.193418
-47.946085 -16.737869 17.2124
-46.823773 -18.171442 17.534604
-47.864286 -18.320986 17.624055
-47.864286 -18.320986 17.624055
-47.822317 -19.836889 18.068314
-48.944629 -18.403316 17.74611
-57.358306 -1.100441 9.907979
-57.369141 -2.653646 10.643769
-58.348442 -1.46867 10.007542
-56.425659 -0.661715 9.797424
-57.358306 -1.100441 9.907979
-67.990574 -8.448619 17.568033
-68.104599 -9.533445 18.374409
-68.479801 -8.33732 18.303013
-47.706181 -2.011788 12.234474
-48.773762 -0.582792 11.510449
-46.612133 -3.47896 12.900785
-47.458123 -3.918406 12.885289
-47.706181 -2.011788 12.234474
-45.820493 -3.080106 12.808909
-45.572435 -4.986724 13.459724
-46.612133 -3.47896 12.900785
-66.511143 -13.163635 18.770245
-67.113964 -11.944059 18.624636
-64.978264 -15.626887 19.198754
-64.002378 -15.75449 18.749215
-60.026593 -20.839554 19.855798
-59.892024 -19.645612 19.338769
-58.835356 -20.94367 19.596936
-68.623573 -3.711848 17.81152
-68.806092 -4.794114 18.516893
-68.751976 -3.623793 18.718953
-67.678044 0.849285 19.218561
-67.929921 -0.212066 19.772025
-67.762032 0.747394 16.141194
-67.789929 0.77775 17.149415
-67.592167 0.723413 15.225482
-67.906307 -0.363606 15.813429
-67.762032 0.747394 16.141194
-67.416512 0.713504 14.311006
-67.592167 0.723413 15.225482
-59.282317 -1.864029 10.202891
-59.350065 -3.344122 10.923048
-60.273106 -2.186275 10.382608
-58.348442 -1.46867 10.007542
-59.282317 -1.864029 10.202891
-44.392996 -14.236231 16.09518
-45.215988 -14.469804 16.342139
-44.392996 -14.236231 16.09518
-44.595438 -12.449807 15.671585
-53.334789 -2.781026 11.274587
-53.221367 -4.458118 12.051538
-54.324016 -3.150057 11.259707
-52.393698 -2.343927 11.298535
-53.334789 -2.781026 11.274587
-51.449511 -1.946083 11.33644
-51.287953 -3.691244 12.104323
-52.393698 -2.343927 11.298535
-63.018856 -15.826091 18.331109
-64.002378 -15.75449 18.749215
-63.927732 -14.580813 18.051561
-57.581564 -21.069579 19.38329
-57.456009 -19.8227 18.908811
-56.336786 -21.14255 19.212193
-58.835356 -20.94367 19.596936
-57.581564 -21.069579 19.38329
-68.541725 -2.473943 18.996395
-68.751976 -3.623793 18.718953
-65.813987 0.98788 11.33571
-66.275207 0.861178 12.004017
-65.470627 0.007897 11.291294
-65.813987 0.98788 11.33571
-65.189842 1.164998 10.752066
-63.561977 -0.607947 10.36793
-64.297792 -0.877668 10.848724
-64.110666 0.454736 10.226855
-62.88941 -1.66468 10.610656
-63.561977 -0.607947 10.36793
-45.853531 -18.038697 17.343515
-46.823773 -18.171442 17.534604
-45.96813 -16.395356 16.966721
-45.853531 -18.038697 17.343515
-46.122107 -14.725579 16.461531
-45.96813 -16.395356 16.966721
-47.059548 -14.918549 16.617758
-46.307406 -12.992998 15.993175
-45.215988 -14.469804 16.342139
-46.122107 -14.725579 16.461531
-53.80406 -21.283068 18.950715
-55.060381 -21.241778 19.060498
-54.95491 -19.936962 18.62793
-52.546064 -21.350604 18.830237
-53.80406 -21.283068 18.950715
-51.316783 -21.356465 18.750353
-52.546064 -21.350604 18.830237
-52.469308 -19.984113 18.438263
-50.11425 -21.384123 18.627474
-51.316783 -21.356465 18.750353
-48.945566 -21.348745 18.543468
-50.11425 -21.384123 18.627474
-50.071344 -19.954597 18.274374
-47.830576 -21.327359 18.384308
-48.945566 -21.348745 18.543468
-46.750233 -21.245029 18.262253
-47.830576 -21.327359 18.384308
-47.822317 -19.836889 18.068314
-55.408222 -1.879192 10.513481
-54.324016 -3.150057 11.259707
-55.294799 -3.556284 11.290431
-55.408222 -1.879192 10.513481
-56.425659 -0.661715 9.797424
-67.698929 -10.735948 18.451999
-68.104599 -9.533445 18.374409
-67.030407 -10.852855 17.812066
-67.113964 -11.944059 18.624636
-67.698929 -10.735948 18.451999
-50.542221 -1.484506 11.396916
-51.449511 -1.946083 11.33644
-49.646423 -1.063422 11.435292
-48.773762 -0.582792 11.510449
-49.447967 -2.872317 12.180603
-50.542221 -1.484506 11.396916
-49.646423 -1.063422 11.435292
-45.318367 -6.909993 14.013486
-45.067749 -8.777343 14.625609
-46.113457 -7.252929 14.163723
-44.526727 -6.511138 13.92161
-45.318367 -6.909993 14.013486
-45.572435 -4.986724 13.459724
-43.818936 -6.148422 13.683706
-44.526727 -6.511138 13.92161
-45.025906 -2.625773 12.779444
-45.820493 -3.080106 12.808909
-44.059303 -4.173627 13.200464
-45.025906 -2.625773 12.779444
-44.304413 -2.21153 12.61206
-43.818936 -6.148422 13.683706
-44.059303 -4.173627 13.200464
-65.744049 -14.387758 19.012726
-66.511143 -13.163635 18.770245
-65.678348 -13.285089 18.227184
-65.744049 -14.387758 19.012726
-64.978264 -15.626887 19.198754
-61.992783 -17.085038 18.699103
-63.018856 -15.826091 18.331109
-61.918137 -15.91136 18.001449
-60.987662 -18.355902 18.983538
-59.796425 -18.460018 18.724676
-59.892024 -19.645612 19.338769
-61.992783 -17.085038 18.699103
-60.987662 -18.355902 18.983538
-68.670677 -7.150245 18.321371
-68.479801 -8.33732 18.303013
-68.826633 -5.965083 18.377782
-68.806092 -4.794114 18.516893
-68.521732 -6.067331 17.553048
-68.670677 -7.150245 18.321371
-68.826633 -5.965083 18.377782
-68.299274 -1.329033 19.350111
-68.144638 -1.289393 20.401124
-67.929921 -0.212066 19.772025
-68.327008 -1.396617 18.367296
-68.541725 -2.473943 18.996395
-68.299274 -1.329033 19.350111
-67.794121 0.821708 18.14535
-67.678044 0.849285 19.218561
-68.080365 -0.295666 17.725077
-67.794121 0.821708 18.14535
-67.789929 0.77775 17.149415
-67.082966 0.733769 13.497635
-67.402897 -0.367321 14.084346
-67.416512 0.713504 14.311006
-66.762497 0.772262 12.702035
-67.082966 0.733769 13.497635
3 0 20 18
3 0 23 21
3 0 18 23
3 81 80 25
3 79 80 81
3 1 29 27
3 82 32 83
3 84 83 30
3 82 83 84
3 85 25 86
3 87 86 32
3 85 86 87
3 3 88 90
3 90 89 34
3 88 89 90
3 3 91 92
3 2 38 36
3 94 93 39
3 95 43 96
3 97 96 41
3 95 96 97
3 98 44 99
3 101 100 44
3 5 102 104
3 102 45 103
3 102 103 104
3 6 46 19
3 6 47 46
3 7 50 48
3 9 51 22
3 9 52 51
3 9 53 52
3 5 54 24
3 5 105 107
3 107 106 54
3 105 106 107
3 10 57 55
3 108 58 109
3 110 109 26
3 108 109 110
3 112 111 58
3 12 113 115
3 113 59 114
3 113 114 115
3 14 60 28
3 14 61 60
3 4 62 42
3 15 63 31
3 15 64 63
3 15 65 64
3 10 66 33
3 10 55 66
3 11 67 56
3 16 68 35
3 16 69 68
3 116 70 117
3 118 71 119
3 120 119 70
3 118 119 120
3 121 72 122
3 123 122 71
3 121 122 123
3 13 124 125
3 127 126 37
3 8 73 49
3 130 129 40
3 128 129 130
3 17 131 133
3 131 74 132
3 131 132 133
3 17 75 74
3 134 76 135
3 136 77 137
3 138 78 139
3 140 139 77
3 138 139 140
3 142 141 78
3 18 19 5
3 20 19 18
3 20 6 19
3 21 22 7
3 23 22 21
3 23 9 22
3 23 24 9
3 18 24 23
3 18 5 24
3 25 26 10
3 143 26 144
3 145 144 25
3 143 144 145
3 147 146 26
3 27 28 12
3 29 28 27
3 29 14 28
3 30 31 4
3 32 31 30
3 32 15 31
3 32 33 15
3 25 33 32
3 25 10 33
3 34 148 149
3 151 150 34
3 152 35 153
3 154 153 11
3 152 153 154
3 155 35 156
3 157 16 158
3 159 158 35
3 157 158 159
3 36 37 13
3 38 37 36
3 38 160 162
3 162 161 37
3 160 161 162
3 39 40 8
3 163 40 164
3 165 164 39
3 163 164 165
3 167 166 40
3 168 17 169
3 41 42 1
3 43 42 41
3 43 4 42
3 170 43 171
3 44 172 174
3 172 43 173
3 172 173 174
3 44 4 43
3 44 30 4
3 175 30 176
3 177 176 44
3 175 176 177
3 179 178 30
3 45 180 181
3 45 182 183
3 19 45 5
3 46 45 19
3 46 184 186
3 186 185 45
3 184 185 186
3 46 187 189
3 187 34 188
3 187 188 189
3 47 34 46
3 47 3 34
3 48 49 2
3 50 49 48
3 50 8 49
3 22 50 7
3 51 50 22
3 51 8 50
3 51 39 8
3 52 39 51
3 52 190 192
3 192 191 39
3 190 191 192
3 52 193 194
3 53 195 197
3 197 196 52
3 195 196 197
3 53 198 199
3 24 53 9
3 54 53 24
3 54 200 202
3 202 201 53
3 200 201 202
3 54 203 204
3 207 206 54
3 205 206 207
3 55 56 0
3 57 56 55
3 57 11 56
3 26 57 10
3 58 57 26
3 58 11 57
3 58 208 210
3 210 209 11
3 208 209 210
3 212 211 58
3 59 213 214
3 59 215 217
3 215 13 216
3 215 216 217
3 28 59 12
3 60 59 28
3 60 13 59
3 60 36 13
3 61 36 60
3 61 2 36
3 42 29 1
3 62 29 42
3 62 14 29
3 31 62 4
3 63 62 31
3 63 14 62
3 63 61 14
3 64 61 63
3 64 2 61
3 64 48 2
3 65 48 64
3 65 7 48
3 33 65 15
3 66 65 33
3 66 7 65
3 66 21 7
3 55 21 66
3 55 0 21
3 56 20 0
3 67 20 56
3 67 6 20
3 35 67 11
3 68 67 35
3 68 6 67
3 68 47 6
3 69 47 68
3 69 3 47
3 218 16 219
3 70 220 221
3 70 222 224
3 222 16 223
3 222 223 224
3 70 69 16
3 71 69 70
3 71 3 69
3 71 225 227
3 227 226 3
3 225 226 227
3 72 228 230
3 230 229 71
3 228 229 230
3 72 231 232
3 233 72 234
3 235 72 236
3 235 236 237
3 239 238 72
3 37 240 242
3 242 241 13
3 240 241 242
3 244 243 37
3 49 38 2
3 73 38 49
3 73 245 247
3 247 246 38
3 245 246 247
3 40 73 8
3 248 73 249
3 250 249 40
3 248 249 250
3 252 251 73
3 253 12 254
3 74 255 256
3 74 257 259
3 257 12 258
3 257 258 259
3 74 27 12
3 75 27 74
3 75 1 27
3 76 260 262
3 260 261 262
3 76 263 265
3 263 17 264
3 263 264 265
3 266 76 267
3 77 268 270
3 268 76 269
3 268 269 270
3 77 17 76
3 77 75 17
3 78 75 77
3 78 1 75
3 78 41 1
3 271 41 272
3 273 272 78
3 271 272 273
3 275 274 41
