ply
format ascii 1.0
element vertex 148
property float x
property float y
property float z
element face 136
property list uchar int vertex_index
end_header
4.467888 -120.595085 -1.732639
2.215578 -110.527573 -0.653854
6.871096 -124.336121 -1.787933
7.777819 -123.529396 -7.561543
2.903324 -115.879265 -1.351109
5.197063 -119.589027 -7.175062
3.314762 -114.743439 -6.339998
1.990078 -116.045143 4.227386
1.524126 -110.806213 4.392855
5.565819 -122.614929 -1.801954
7.325418 -124.083466 -4.74901
6.014402 -122.29364 -4.697701
2.446497 -113.267746 -1.039286
3.173569 -115.453659 -3.939552
2.62483 -112.803551 -3.490126
1.098518 -113.348816 7.129273
1.618189 -113.487213 4.293205
0.999264 -110.693771 7.105012
6.742176 -120.787132 -9.916603
8.805931 -125.540565 -4.684271
9.29277 -125.061012 -7.567156
9.784971 -124.261414 -10.237341
3.579201 -118.3339 -1.582422
4.879831 -120.228584 -4.543024
3.929354 -117.936806 -4.290421
4.159973 -117.266426 -6.814556
5.125292 -122.661522 1.191267
4.002266 -120.707573 1.197783
2.641453 -118.42952 4.19626
3.124041 -118.48893 1.26047
2.489561 -116.06279 1.382415
2.099564 -113.477669 1.56463
1.95612 -110.773079 1.802267
6.408199 -121.688797 -7.425409
8.195843 -122.669548 -10.143696
10.276794 -123.138985 -12.611786
0.801333 -111.923576 8.531856
0.882644 -113.229691 8.595474
0.751706 -110.596054 8.519725
1.048891 -112.021293 7.117142
0.801333 -111.923576 8.531856
7.838513 -124.938343 -3.236102
8.591943 -125.619808 -3.184781
7.624525 -125.017586 -1.736612
3.82163 -115.516423 -7.721381
4.244236 -116.777916 -7.95866
3.737367 -116.004932 -6.577277
4.349982 -121.622154 2.693192
4.958232 -122.552342 2.704015
3.788468 -120.64518 2.69645
4.563779 -121.684548 1.194525
4.349982 -121.622154 2.693192
2.315765 -117.237331 4.211823
2.077068 -117.147084 5.677744
1.75138 -115.954895 5.693307
8.399914 -122.081848 -11.285314
7.46901 -121.72834 -10.03015
7.67308 -121.14064 -11.171767
9.44039 -122.316566 -12.519358
9.236318 -122.904267 -11.377741
8.399914 -122.081848 -11.285314
1.3056 -114.606731 7.144251
0.882644 -113.229691 8.595474
1.544298 -114.696979 5.67833
1.75138 -115.954895 5.693307
1.3056 -114.606731 7.144251
6.093724 -119.719929 -9.743417
5.96962 -120.18808 -8.545832
5.321167 -119.120876 -8.372647
6.907574 -120.178745 -11.014837
6.093724 -119.719929 -9.743417
7.67308 -121.14064 -11.171767
6.907574 -120.178745 -11.014837
2.255 -110.266659 -1.802091
2.215737 -109.10569 -0.433853
9.624133 -126.074569 -4.58543
8.591943 -125.619808 -3.184781
9.872352 -125.883846 -6.050135
9.624133 -126.074569 -4.58543
10.115771 -125.64407 -7.491578
9.872352 -125.883846 -6.050135
9.04935 -125.300789 -6.125713
10.391036 -125.286522 -8.8669
10.115771 -125.64407 -7.491578
10.637137 -124.886723 -10.201993
10.391036 -125.286522 -8.8669
9.538871 -124.661213 -8.902249
10.924186 -124.362709 -11.438053
10.637137 -124.886723 -10.201993
4.802623 -117.959575 -8.192394
5.321167 -119.120876 -8.372647
4.678518 -118.427727 -6.994809
4.802623 -117.959575 -8.192394
4.244236 -116.777916 -7.95866
2.459626 -111.404648 -3.220228
2.420204 -111.665562 -2.07199
2.255 -110.266659 -1.802091
2.651671 -112.419029 -4.61968
2.459626 -111.404648 -3.220228
2.996638 -113.388973 -6.044615
2.969796 -113.773495 -4.915062
2.651671 -112.419029 -4.61968
3.364643 -114.226105 -7.422589
2.996638 -113.388973 -6.044615
3.82163 -115.516423 -7.721381
3.364643 -114.226105 -7.422589
6.681718 -124.312947 -0.275014
7.624525 -125.017586 -1.736612
5.808816 -123.475647 1.214586
4.958232 -122.552342 2.704015
5.998194 -123.498822 -0.298333
6.681718 -124.312947 -0.275014
5.808816 -123.475647 1.214586
2.443218 -118.306004 5.693257
2.077068 -117.147084 5.677744
3.108062 -119.506153 4.195688
2.443218 -118.306004 5.693257
3.321859 -119.568546 2.697021
3.788468 -120.64518 2.69645
3.108062 -119.506153 4.195688
0.843873 -109.237556 8.443443
0.751706 -110.596054 8.519725
1.104677 -109.323219 7.094596
0.843873 -109.237556 8.443443
1.367109 -109.37944 5.738518
1.261695 -110.749992 5.748933
1.104677 -109.323219 7.094596
1.614726 -109.425895 4.454914
1.367109 -109.37944 5.738518
1.830723 -109.409329 3.15962
1.740123 -110.789646 3.097561
1.614726 -109.425895 4.454914
2.008212 -109.377662 1.941485
1.830723 -109.409329 3.15962
2.137942 -109.254909 0.713425
2.085849 -110.650326 0.574207
2.008212 -109.377662 1.941485
2.215737 -109.10569 -0.433853
2.137942 -109.254909 0.713425
11.170097 -123.801495 -12.625276
10.924186 -124.362709 -11.438053
10.030883 -123.700199 -11.424564
10.54423 -122.41272 -13.622615
9.44039 -122.316566 -12.519358
11.475666 -123.109559 -13.68564
10.54423 -122.41272 -13.622615
11.170097 -123.801495 -12.625276
11.475666 -123.109559 -13.68564
3 0 11 9
3 1 14 12
3 36 15 37
3 38 17 39
3 40 39 15
3 38 39 40
3 2 41 43
3 41 19 42
3 41 42 43
3 3 20 10
3 3 21 20
3 4 24 22
3 6 25 13
3 6 44 46
3 46 45 25
3 44 45 46
3 47 26 48
3 49 27 50
3 51 50 26
3 49 50 51
3 7 52 54
3 52 28 53
3 52 53 54
3 7 29 28
3 7 30 29
3 8 31 16
3 8 32 31
3 5 33 23
3 55 34 56
3 57 56 18
3 55 56 57
3 58 35 59
3 60 59 34
3 58 59 60
3 9 10 2
3 11 10 9
3 11 3 10
3 12 13 4
3 14 13 12
3 14 6 13
3 15 61 62
3 15 63 65
3 63 7 64
3 63 64 65
3 15 16 7
3 17 16 15
3 17 8 16
3 66 18 67
3 68 67 5
3 66 67 68
3 69 18 70
3 72 71 18
3 74 73 1
3 19 75 76
3 19 77 78
3 10 19 2
3 20 19 10
3 20 79 81
3 81 80 19
3 79 80 81
3 20 82 83
3 21 84 86
3 86 85 20
3 84 85 86
3 21 87 88
3 22 23 0
3 24 23 22
3 24 5 23
3 13 24 4
3 25 24 13
3 25 5 24
3 25 89 91
3 91 90 5
3 89 90 91
3 93 92 25
3 94 14 95
3 96 95 1
3 94 95 96
3 97 14 98
3 99 6 100
3 101 100 14
3 99 100 101
3 102 6 103
3 105 104 6
3 106 2 107
3 26 108 109
3 26 110 112
3 110 2 111
3 110 111 112
3 26 9 2
3 27 9 26
3 27 0 9
3 28 113 114
3 28 115 116
3 28 117 119
3 117 27 118
3 117 118 119
3 29 27 28
3 29 0 27
3 29 22 0
3 30 22 29
3 30 4 22
3 16 30 7
3 31 30 16
3 31 4 30
3 31 12 4
3 32 12 31
3 32 1 12
3 120 17 121
3 122 17 123
3 124 8 125
3 126 125 17
3 124 125 126
3 127 8 128
3 129 32 130
3 131 130 8
3 129 130 131
3 132 32 133
3 134 1 135
3 136 135 32
3 134 135 136
3 138 137 1
3 23 11 0
3 33 11 23
3 33 3 11
3 18 33 5
3 34 33 18
3 34 3 33
3 34 21 3
3 35 21 34
3 35 139 141
3 141 140 21
3 139 140 141
3 142 35 143
3 144 35 145
3 147 146 35
