ply
format ascii 1.0
element vertex 292
property float x
property float y
property float z
element face 305
property list uchar int vertex_index
end_header
39.37521 -9.229338 10.868705
42.8857 -10.122377 15.434201
40.785374 -21.031933 11.463001
43.170769 -22.714113 17.262663
39.291565 -8.137798 3.237873
44.972565 -13.850804 -5.837412
42.388012 -18.248203 3.146982
42.647972 -16.794044 16.657242
45.748459 -17.079391 17.901846
39.007126 -8.723466 7.312295
40.46841 -13.973214 3.159034
39.765442 -14.968496 7.462966
43.022045 -25.170279 11.22783
43.828804 -23.174189 7.405369
40.637611 -9.684425 13.634786
39.709198 -15.728201 11.3211
40.618076 -16.329836 14.45454
41.364368 -22.0345 14.772934
43.283768 -26.770521 14.591257
39.279221 -1.739285 10.13611
40.911655 -2.236435 12.432501
42.24913 -10.650789 -5.337324
41.422836 -12.61747 -1.262924
43.767197 -16.331703 -1.394981
47.067467 -18.281122 -1.138767
41.247524 -19.777491 7.511464
45.328381 -20.887037 3.246264
39.09166 -8.98491 9.173973
39.324909 -12.011314 7.404475
39.302402 -12.333635 9.3453
41.639629 -9.9043 14.660304
40.564079 -13.118967 14.101423
41.499638 -13.340754 15.236257
42.788338 -19.854437 17.035799
41.676685 -19.610516 15.976662
42.111736 -22.421532 16.126942
42.160816 -24.522274 14.73677
42.838333 -25.007126 16.145405
39.581272 -7.80614 1.11879
40.576767 -10.164588 -1.098511
40.180603 -10.737924 1.037992
41.314007 -16.324005 3.133664
41.893295 -15.569008 0.876721
43.07534 -17.348095 0.882526
45.297348 -17.514452 -1.308029
44.507465 -18.687408 0.956843
40.123764 -18.533096 11.435215
40.148762 -18.0742 9.53767
40.905937 -20.435228 9.553389
44.51981 -22.065834 5.360881
43.488586 -12.461996 -5.67309
45.410511 -12.329144 -7.918276
42.699837 -13.545408 16.11985
44.15094 -13.728689 16.757463
44.075512 -16.963053 17.391092
44.185875 -20.025076 17.860691
39.086857 -8.442027 5.319667
39.809746 -11.224687 3.206374
39.509041 -11.644907 5.344604
40.060207 -14.506775 5.348002
40.794205 -16.981911 5.353147
41.741386 -23.236586 11.394954
41.950909 -22.470449 9.50028
43.31218 -24.212042 9.366004
39.884815 -9.460874 12.36461
39.481663 -12.620571 11.13028
39.89489 -12.880161 12.725495
40.028709 -16.045881 12.994076
40.352989 -18.942858 13.159227
41.491016 -16.580536 15.679523
40.865318 -19.303669 14.680503
40.927906 -21.567307 13.211535
41.800816 -23.925627 13.14757
43.002125 -26.031092 12.974881
38.741646 -4.962764 5.238165
38.754917 -5.157948 7.165195
38.940247 -5.367955 8.942896
39.325935 -5.587573 10.537855
39.982517 -1.975071 11.406446
39.932995 -5.814058 11.921797
40.772903 -6.047418 13.072029
40.954979 -9.467862 -3.116899
41.873997 -11.737461 -3.381014
43.025196 -13.672136 -3.578571
40.939049 -13.351053 0.938419
42.479622 -14.694677 -1.376806
44.413754 -15.175083 -3.648832
46.03952 -16.215124 -3.574673
39.633598 -15.371908 9.465992
40.388191 -17.56057 7.499146
41.759892 -19.052471 5.366401
42.385994 -21.635605 7.486606
42.994911 -20.732546 5.376825
43.721313 -19.754219 3.19295
46.1964 -19.629995 1.074847
45.095646 -12.135048 16.517777
44.255701 -12.032705 16.361224
44.911986 -17.021222 17.646469
44.952354 -15.423185 17.281362
45.788828 -15.481355 17.536738
43.912521 -27.335484 13.653464
43.7717 -26.96577 12.845275
43.142947 -26.400807 13.783069
38.630902 -3.170634 6.087797
38.585369 -3.120961 5.149805
38.637537 -3.268226 7.051312
38.748282 -5.060356 6.20168
38.630902 -3.170634 6.087797
39.109734 -3.55362 9.539503
38.86838 -3.452282 8.790778
39.037867 -1.637948 9.387385
40.447086 -2.105753 11.919474
40.496279 -0.130459 11.571067
40.960847 -0.261141 12.084094
40.436985 -8.453202 -2.042093
40.613076 -8.246164 -3.013311
47.478489 -17.55239 -2.257778
46.593429 -17.169055 -2.342409
46.182407 -17.897787 -1.223398
48.502941 -17.683228 -2.12139
47.478489 -17.55239 -2.257778
42.376427 -9.949731 -6.196153
41.756525 -9.606857 -5.113506
46.726154 -15.54025 17.651208
45.788828 -15.481355 17.536738
44.00884 -25.437289 10.186798
43.828732 -26.016737 11.099115
39.237526 0.262709 9.898288
39.037867 -1.637948 9.387385
41.575878 -0.42984 12.408335
40.960847 -0.261141 12.084094
41.486776 -2.378005 12.818912
41.575878 -0.42984 12.408335
40.07902 -8.985364 0.010139
40.247879 -8.801564 -1.032899
39.750131 -7.62234 0.075751
45.427023 -22.593479 5.32583
44.174307 -22.620011 6.383125
45.08152 -23.147656 6.348074
45.86208 -21.894863 4.315905
45.427023 -22.593479 5.32583
46.266365 -21.305464 3.258597
44.924095 -21.476436 4.303572
45.86208 -21.894863 4.315905
46.73004 -20.57269 2.220441
46.266365 -21.305464 3.258597
43.662239 -11.736772 -6.639591
43.042511 -10.831169 -6.471707
42.868858 -11.556392 -5.505207
44.623202 -11.670346 -7.762183
43.662239 -11.736772 -6.639591
44.449548 -12.39557 -6.795683
45.558239 -11.457138 -8.888089
44.623202 -11.670346 -7.762183
43.53015 -11.941065 16.042417
42.792769 -11.833893 15.777026
43.623081 -10.22955 15.699592
43.425388 -13.637048 16.438657
43.53015 -11.941065 16.042417
44.255701 -12.032705 16.361224
44.990068 -13.806003 16.964547
45.095646 -12.135048 16.517777
44.113226 -15.345871 17.074278
44.990068 -13.806003 16.964547
44.952354 -15.423185 17.281362
44.153908 -24.95817 9.255885
43.167113 -24.691161 10.296917
44.00884 -25.437289 10.186798
44.44566 -24.331411 8.308244
44.153908 -24.95817 9.255885
44.703972 -23.812484 7.327927
43.570492 -23.693115 8.385687
44.44566 -24.331411 8.308244
45.08152 -23.147656 6.348074
44.703972 -23.812484 7.327927
46.09301 -13.503429 -6.911696
45.831185 -14.309708 -5.82464
43.818771 -26.447143 11.972641
43.828732 -26.016737 11.099115
43.012085 -25.600686 12.101356
43.818771 -26.447143 11.972641
43.7717 -26.96577 12.845275
39.342657 -6.224651 1.112146
39.750131 -7.62234 0.075751
39.224787 -6.297496 2.160312
39.342657 -6.224651 1.112146
39.079933 -6.463325 3.219853
39.436419 -7.971969 2.178332
39.224787 -6.297496 2.160312
38.804974 -4.875808 4.219999
38.585369 -3.120961 5.149805
39.016605 -6.550281 4.238019
39.079933 -6.463325 3.219853
38.804974 -4.875808 4.219999
38.775715 -3.347279 7.901927
38.637537 -3.268226 7.051312
38.847582 -5.262951 8.054045
38.775715 -3.347279 7.901927
38.86838 -3.452282 8.790778
39.635468 0.137373 10.481547
39.237526 0.262709 9.898288
39.987116 0.01948 11.116715
40.496279 -0.130459 11.571067
39.630869 -1.857178 10.771278
39.635468 0.137373 10.481547
39.987116 0.01948 11.116715
41.4174 -4.283497 13.138676
40.842279 -4.141927 12.752265
41.486776 -2.378005 12.818912
41.309722 -6.168407 13.523033
41.4174 -4.283497 13.138676
41.242076 -7.98691 13.804412
40.705257 -7.865921 13.353407
41.309722 -6.168407 13.523033
41.743085 -8.096848 14.31717
41.13862 -9.794362 14.147545
41.242076 -7.98691 13.804412
42.392038 -8.222884 14.642779
41.743085 -8.096848 14.31717
43.015073 -8.331923 15.029727
42.262664 -10.013338 15.047252
42.392038 -8.222884 14.642779
43.767011 -8.462561 15.236318
43.015073 -8.331923 15.029727
43.623081 -10.22955 15.699592
43.767011 -8.462561 15.236318
41.109449 -9.015394 -4.003293
40.613076 -8.246164 -3.013311
41.602055 -10.059325 -4.227111
41.756525 -9.606857 -5.113506
41.109449 -9.015394 -4.003293
40.765873 -9.816225 -2.107705
40.436985 -8.453202 -2.042093
40.247879 -8.801564 -1.032899
45.551779 -14.971847 -4.730351
45.831185 -14.309708 -5.82464
44.69316 -14.512944 -4.743122
46.364662 -15.491867 -4.693271
45.551779 -14.971847 -4.730351
45.226637 -15.695104 -3.611753
47.328358 -15.727874 -4.595886
46.364662 -15.491867 -4.693271
46.964516 -16.519391 -3.475731
45.668434 -16.864788 -2.441351
46.593429 -17.169055 -2.342409
47.328358 -15.727874 -4.595886
46.964516 -16.519391 -3.475731
47.164049 -19.944169 1.134733
45.76239 -20.258516 2.160556
46.73004 -20.57269 2.220441
47.628351 -19.173188 0.07085
47.164049 -19.944169 1.134733
48.063885 -18.498751 -1.035957
46.631934 -18.955559 -0.03196
47.628351 -19.173188 0.07085
48.502941 -17.683228 -2.12139
48.063885 -18.498751 -1.035957
46.690998 -17.108098 18.063905
46.726154 -15.54025 17.651208
45.795276 -18.596879 18.186513
46.690998 -17.108098 18.063905
45.013985 -20.069721 18.165935
44.967167 -18.552233 17.881268
45.795276 -18.596879 18.186513
44.355683 -21.462395 18.021812
45.013985 -20.069721 18.165935
43.848129 -22.806914 17.722798
43.678322 -21.369594 17.561677
44.355683 -21.462395 18.021812
43.501894 -24.037692 17.313233
43.848129 -22.806914 17.722798
43.335676 -25.184199 16.754604
43.004551 -23.860619 16.704034
43.501894 -24.037692 17.313233
43.36072 -26.184821 16.104234
43.335676 -25.184199 16.754604
43.583437 -27.066519 15.32716
43.061051 -25.888824 15.368331
43.36072 -26.184821 16.104234
44.013495 -27.77747 14.480925
43.583437 -27.066519 15.32716
43.912521 -27.335484 13.653464
44.013495 -27.77747 14.480925
42.376427 -9.949731 -6.196153
43.042511 -10.831169 -6.471707
46.311983 -12.742599 -7.952128
45.191538 -13.089974 -6.877844
46.09301 -13.503429 -6.911696
46.498734 -11.846971 -8.992026
46.311983 -12.742599 -7.952128
45.558239 -11.457138 -8.888089
46.498734 -11.846971 -8.992026
3 0 29 27
3 1 32 30
3 3 35 33
3 3 37 35
3 4 40 38
3 6 43 41
3 6 45 43
3 2 48 46
3 5 51 50
3 95 53 96
3 8 97 99
3 97 54 98
3 97 98 99
3 8 55 54
3 9 58 56
3 11 59 28
3 11 60 59
3 12 63 61
3 14 66 64
3 16 67 31
3 16 68 67
3 7 69 52
3 17 70 34
3 17 71 70
3 17 72 71
3 18 73 36
3 18 100 102
3 102 101 73
3 100 101 102
3 103 74 104
3 105 75 106
3 107 106 74
3 105 106 107
3 19 108 110
3 108 76 109
3 108 109 110
3 19 77 76
3 20 111 113
3 111 78 112
3 111 112 113
3 20 79 78
3 20 80 79
3 114 81 115
3 22 82 39
3 22 83 82
3 10 84 57
3 23 85 42
3 23 86 85
3 23 87 86
3 24 116 118
3 118 117 44
3 116 117 118
3 24 119 120
3 15 88 65
3 25 89 47
3 25 90 89
3 13 91 62
3 26 92 49
3 26 93 92
3 26 94 93
3 21 121 122
3 123 8 124
3 27 28 9
3 29 28 27
3 29 11 28
3 126 125 12
3 30 31 14
3 32 31 30
3 32 16 31
3 33 34 7
3 35 34 33
3 35 17 34
3 35 36 17
3 37 36 35
3 37 18 36
3 127 19 128
3 129 20 130
3 132 131 20
3 38 133 135
3 133 39 134
3 133 134 135
3 40 39 38
3 40 22 39
3 41 42 10
3 43 42 41
3 43 23 42
3 43 44 23
3 45 44 43
3 45 24 44
3 46 47 15
3 48 47 46
3 48 25 47
3 136 49 137
3 138 137 13
3 136 137 138
3 139 49 140
3 141 26 142
3 143 142 49
3 141 142 143
3 145 144 26
3 50 146 148
3 148 147 21
3 146 147 148
3 51 149 151
3 151 150 50
3 149 150 151
3 51 152 153
3 154 52 155
3 156 155 1
3 154 155 156
3 53 157 159
3 157 52 158
3 157 158 159
3 53 7 52
3 160 53 161
3 54 162 164
3 162 53 163
3 162 163 164
3 54 7 53
3 54 33 7
3 55 33 54
3 55 3 33
3 56 57 4
3 58 57 56
3 58 10 57
3 28 58 9
3 59 58 28
3 59 10 58
3 59 41 10
3 60 41 59
3 60 6 41
3 61 62 2
3 63 62 61
3 63 13 62
3 165 63 166
3 167 166 12
3 165 166 167
3 168 63 169
3 170 13 171
3 172 171 63
3 170 171 172
3 174 173 13
3 176 175 5
3 64 65 0
3 66 65 64
3 66 15 65
3 31 66 14
3 67 66 31
3 67 15 66
3 67 46 15
3 68 46 67
3 68 2 46
3 52 32 1
3 69 32 52
3 69 16 32
3 34 69 7
3 70 69 34
3 70 16 69
3 70 68 16
3 71 68 70
3 71 2 68
3 71 61 2
3 72 61 71
3 72 12 61
3 36 72 17
3 73 72 36
3 73 12 72
3 73 177 179
3 179 178 12
3 177 178 179
3 181 180 73
3 182 38 183
3 184 38 185
3 186 4 187
3 188 187 38
3 186 187 188
3 74 189 190
3 74 191 193
3 191 4 192
3 191 192 193
3 74 56 4
3 75 56 74
3 75 9 56
3 194 75 195
3 76 196 198
3 196 75 197
3 196 197 198
3 76 9 75
3 76 27 9
3 77 27 76
3 77 0 27
3 199 19 200
3 78 201 202
3 78 203 205
3 203 19 204
3 203 204 205
3 78 77 19
3 79 77 78
3 79 0 77
3 79 64 0
3 80 64 79
3 80 14 64
3 206 80 207
3 208 207 20
3 206 207 208
3 209 80 210
3 211 14 212
3 213 212 80
3 211 212 213
3 214 30 215
3 216 215 14
3 214 215 216
3 217 30 218
3 219 1 220
3 221 220 30
3 219 220 221
3 222 1 223
3 225 224 1
3 81 226 227
3 81 228 230
3 228 21 229
3 228 229 230
3 39 231 233
3 231 81 232
3 231 232 233
3 82 81 39
3 82 21 81
3 82 50 21
3 83 50 82
3 83 5 50
3 57 40 4
3 84 40 57
3 84 22 40
3 42 84 10
3 85 84 42
3 85 22 84
3 85 83 22
3 86 83 85
3 86 5 83
3 86 234 236
3 236 235 5
3 234 235 236
3 87 237 239
3 239 238 86
3 237 238 239
3 87 240 241
3 44 87 23
3 242 87 243
3 244 243 44
3 242 243 244
3 246 245 87
3 65 29 0
3 88 29 65
3 88 11 29
3 47 88 15
3 89 88 47
3 89 11 88
3 89 60 11
3 90 60 89
3 90 6 60
3 62 48 2
3 91 48 62
3 91 25 48
3 49 91 13
3 92 91 49
3 92 25 91
3 92 90 25
3 93 90 92
3 93 6 90
3 93 45 6
3 94 45 93
3 94 24 45
3 247 94 248
3 249 248 26
3 247 248 249
3 250 94 251
3 252 24 253
3 254 253 94
3 252 253 254
3 256 255 24
3 257 8 258
3 259 8 260
3 261 55 262
3 263 262 8
3 261 262 263
3 264 55 265
3 266 3 267
3 268 267 55
3 266 267 268
3 269 3 270
3 271 37 272
3 273 272 3
3 271 272 273
3 274 37 275
3 276 18 277
3 278 277 37
3 276 277 278
3 279 18 280
3 282 281 18
3 284 283 21
3 285 51 286
3 287 286 5
3 285 286 287
3 288 51 289
3 291 290 51
