ply
format ascii 1.0
element vertex 295
property float x
property float y
property float z
element face 288
property list uchar int vertex_index
end_header
-54.637287 1.908249 8.986103
-60.368114 9.492535 6.872948
-41.660862 10.799957 9.738235
-47.730629 6.120173 9.677609
-60.766991 12.350153 13.312594
-61.393402 4.200434 7.93389
-63.099922 7.225422 8.643503
-54.877357 8.570564 6.561351
-51.097076 3.948736 9.224545
-51.668182 11.048462 6.942707
-56.906548 15.538898 16.139454
-58.443008 15.377499 11.301992
-58.337608 0.084536 9.271753
-58.132767 6.246677 6.858475
-57.597343 12.073919 5.778817
-46.860191 -1.572342 12.24997
-43.790367 0.271523 12.004895
-44.557041 8.398849 9.955825
-63.649513 8.834908 11.338337
-61.170998 11.489435 9.226925
-58.805042 14.319645 7.512985
-63.778267 4.97567 8.964359
-54.911606 11.773247 5.834189
-53.270355 9.795511 6.684449
-53.420063 13.102585 5.980471
-60.205357 -0.706182 9.662451
-60.944099 6.898035 7.211737
-59.774231 5.178928 7.303212
-59.428078 8.0196 6.562122
-57.909164 9.217438 6.109053
-58.971153 10.750315 6.222151
-41.43692 6.512836 10.446233
-54.437439 -1.472965 10.482757
-52.555256 -0.598766 10.530653
-49.392441 5.021099 9.448616
-48.995354 1.28565 10.801919
-47.319862 2.277189 10.933853
-45.271015 -0.663677 12.19104
-45.717484 3.295063 11.000634
-44.195541 4.339024 10.961292
-46.115768 7.245312 9.861581
-62.359196 10.636356 12.194801
-62.426327 10.161463 10.2644
-61.095085 12.041241 11.10887
-58.804131 14.982391 9.210113
-61.745129 1.426214 8.968115
-62.940269 3.338617 8.730532
-62.416794 5.873047 8.025911
-61.762604 8.31373 7.697516
-54.787544 5.270512 7.644295
-52.84481 2.908043 9.055527
-53.083645 6.386484 7.739579
-51.403416 7.536329 7.95651
-49.742699 8.713362 8.247921
-48.100796 9.915968 8.560553
-50.064003 12.325777 7.285191
-58.926025 13.970985 14.646454
-59.529282 13.829132 12.25601
-57.784851 15.548065 13.652399
-56.472313 0.961988 9.050644
-60.02491 2.25728 8.366552
-58.270069 3.189274 7.944757
-56.517975 4.199766 7.705958
-56.497246 7.382969 6.612168
-56.404079 10.473991 5.868183
-56.248512 13.447586 5.55427
-50.740677 0.324389 10.651606
-42.764706 5.411041 10.783863
-43.067299 9.583597 9.923892
-46.482803 11.146631 8.84128
-44.89946 12.409481 9.042009
-43.365417 13.707058 9.122323
-60.24128 12.466967 15.722979
-58.149155 13.946388 17.157623
-63.489758 8.209259 9.761127
-62.243301 9.40107 8.735729
-60.942604 10.648636 7.782244
-59.891357 13.477188 10.095688
-59.948948 12.869099 8.291464
-59.651684 11.967152 6.96708
-58.405956 13.356022 6.338075
-54.165025 13.979191 5.758126
-54.165835 12.437916 5.90733
-54.910797 13.314522 5.684985
-53.48974 14.694904 5.834754
-54.165025 13.979191 5.758126
-61.117536 -1.047595 9.946982
-60.273106 -2.186275 10.382608
-40.942 9.221657 9.836583
-40.830028 7.078097 10.190582
-41.548891 8.656396 10.092234
-63.642681 2.986469 9.20486
-63.15756 2.031537 9.238297
-57.358306 -1.100441 9.907979
-58.348442 -1.46867 10.007542
-57.404961 0.523262 9.161199
-56.425659 -0.661715 9.797424
-57.358306 -1.100441 9.907979
-47.706181 -2.011788 12.234474
-48.773762 -0.582792 11.510449
-47.927773 -0.143346 11.525944
-46.612133 -3.47896 12.900785
-47.706181 -2.011788 12.234474
-45.820493 -3.080106 12.808909
-46.612133 -3.47896 12.900785
-43.564089 -1.74393 12.518988
-44.304413 -2.21153 12.61206
-44.530691 -0.196077 12.097967
-42.91572 -1.315538 12.264609
-43.564089 -1.74393 12.518988
-43.108402 0.752453 11.834535
-42.233755 -0.834608 12.09425
-42.91572 -1.315538 12.264609
-47.469663 12.387921 8.248349
-47.291799 10.531299 8.700916
-48.27866 11.772589 8.107986
-45.080355 14.371937 8.651665
-45.875513 13.686642 8.519827
-44.313333 15.020725 8.691822
-44.132438 13.058269 9.082166
-45.080355 14.371937 8.651665
-43.53362 15.724569 8.762781
-44.313333 15.020725 8.691822
-59.906113 12.449746 16.982237
-60.939137 11.72257 16.27769
-58.86005 13.189457 17.699559
-59.195217 13.206678 16.440301
-59.906113 12.449746 16.982237
-63.569636 8.522084 10.549732
-64.043982 7.617011 10.268868
-64.12386 7.929836 11.057473
-64.355022 4.623501 9.47919
-64.06168 3.804995 9.321773
-64.638435 3.452827 9.836605
-64.03313 5.612084 9.301019
-64.355022 4.623501 9.47919
-63.693958 6.736961 9.140591
-63.439094 6.100546 8.803931
-64.03313 5.612084 9.301019
-52.667665 13.77881 6.121737
-51.791725 12.751749 6.602855
-52.544123 12.075523 6.461589
-52.667665 13.77881 6.121737
-53.48974 14.694904 5.834754
-56.418949 16.394363 15.68292
-55.849213 16.329645 16.932246
-59.282317 -1.864029 10.202891
-60.273106 -2.186275 10.382608
-59.271483 -0.310823 9.467102
-58.348442 -1.46867 10.007542
-59.282317 -1.864029 10.202891
-40.760187 4.878362 10.454397
-41.312585 4.3683 10.799299
-40.760187 4.878362 10.454397
-40.830028 7.078097 10.190582
-53.334789 -2.781026 11.274587
-54.324016 -3.150057 11.259707
-52.393698 -2.343927 11.298535
-53.334789 -2.781026 11.274587
-53.496347 -1.035866 10.506705
-51.449511 -1.946083 11.33644
-52.393698 -2.343927 11.298535
-58.177304 15.999569 9.850072
-58.62357 15.179945 10.256052
-57.996742 16.197123 10.896011
-58.331734 15.77457 8.850577
-58.177304 15.999569 9.850072
-58.332189 15.443198 8.002013
-58.804586 14.651018 8.361549
-58.331734 15.77457 8.850577
-58.279443 15.079284 7.219531
-58.332189 15.443198 8.002013
-62.55999 1.075335 9.357088
-61.887422 0.018603 9.599814
-62.342699 2.382416 8.849324
-62.55999 1.075335 9.357088
-63.15756 2.031537 9.238297
-63.359268 4.157144 8.847445
-63.642681 2.986469 9.20486
-64.06168 3.804995 9.321773
-41.006132 11.421778 9.55864
-41.778883 12.918657 9.394056
-49.260264 12.977494 7.470305
-48.27866 11.772589 8.107986
-49.0824 11.120873 7.922872
-50.989635 13.390407 6.774097
-50.866093 11.68712 7.113949
-51.791725 12.751749 6.602855
-50.225577 14.077958 6.955979
-50.989635 13.390407 6.774097
-49.260264 12.977494 7.470305
-50.225577 14.077958 6.955979
-56.858101 16.398947 14.439392
-57.3457 15.543481 14.895927
-56.418949 16.394363 15.68292
-57.333195 16.388738 13.216107
-56.858101 16.398947 14.439392
-57.662273 16.303455 12.040903
-58.113929 15.462782 12.477196
-57.333195 16.388738 13.216107
-57.996742 16.197123 10.896011
-57.662273 16.303455 12.040903
-55.408222 -1.879192 10.513481
-54.324016 -3.150057 11.259707
-55.454876 -0.255489 9.7667
-55.408222 -1.879192 10.513481
-56.425659 -0.661715 9.797424
-60.975243 0.360016 9.315283
-61.117536 -1.047595 9.946982
-61.887422 0.018603 9.599814
-55.57925 14.151692 5.545025
-54.910797 13.314522 5.684985
-55.580059 12.610416 5.69423
-40.942 9.221657 9.836583
-41.006132 11.421778 9.55864
-50.542221 -1.484506 11.396916
-51.449511 -1.946083 11.33644
-51.647966 -0.137189 10.591129
-49.646423 -1.063422 11.435292
-49.868015 0.805019 10.726762
-48.773762 -0.582792 11.510449
-50.542221 -1.484506 11.396916
-49.646423 -1.063422 11.435292
-45.025906 -2.625773 12.779444
-45.820493 -3.080106 12.808909
-46.065603 -1.118009 12.220505
-45.025906 -2.625773 12.779444
-44.304413 -2.21153 12.61206
-43.310989 2.786204 11.312734
-43.108402 0.752453 11.834535
-43.992954 2.305274 11.483093
-42.595571 3.322212 11.22402
-43.310989 2.786204 11.312734
-43.480123 4.875032 10.872578
-41.976478 3.817403 10.968114
-42.595571 3.322212 11.22402
-42.100813 5.961939 10.615048
-41.312585 4.3683 10.799299
-41.976478 3.817403 10.968114
-46.667184 13.055217 8.419462
-47.469663 12.387921 8.248349
-45.691131 11.778056 8.941644
-46.667184 13.055217 8.419462
-45.875513 13.686642 8.519827
-42.631161 14.372208 9.086099
-41.778883 12.918657 9.394056
-42.51314 12.253507 9.430279
-42.631161 14.372208 9.086099
-43.53362 15.724569 8.762781
-64.215214 8.122461 11.865814
-64.12386 7.929836 11.057473
-63.631298 9.014546 12.317814
-64.215214 8.122461 11.865814
-62.98614 9.91527 12.746046
-63.004354 9.735632 11.766569
-63.631298 9.014546 12.317814
-62.221388 10.763258 13.307392
-62.98614 9.91527 12.746046
-61.425286 11.620157 13.866288
-61.563093 11.493254 12.753698
-62.221388 10.763258 13.307392
-61.16243 11.678563 15.071481
-60.939137 11.72257 16.27769
-60.504136 12.40856 14.517786
-61.425286 11.620157 13.866288
-61.16243 11.678563 15.071481
-57.706507 13.867536 18.433003
-58.86005 13.189457 17.699559
-57.018889 14.667568 17.914314
-57.706507 13.867536 18.433003
-56.397585 15.463823 17.40523
-57.527851 14.742643 16.648539
-57.018889 14.667568 17.914314
-55.849213 16.329645 16.932246
-56.397585 15.463823 17.40523
-63.888876 7.228879 9.699403
-64.043982 7.617011 10.268868
-63.29484 7.71734 9.202315
-63.693958 6.736961 9.140591
-63.888876 7.228879 9.699403
-58.079901 14.597473 6.632076
-58.605499 13.837833 6.92553
-58.279443 15.079284 7.219531
-57.809046 14.079925 6.129275
-58.079901 14.597473 6.632076
-57.404739 13.438874 5.849646
-58.001649 12.71497 6.058446
-57.809046 14.079925 6.129275
-56.730323 14.125708 5.737372
-56.922928 12.760752 5.666543
-57.404739 13.438874 5.849646
-56.151032 14.870683 5.634467
-56.730323 14.125708 5.737372
-55.57925 14.151692 5.545025
-56.151032 14.870683 5.634467
3 81 24 82
3 83 82 22
3 81 82 83
3 85 84 24
3 86 25 87
3 1 28 26
3 1 30 28
3 2 88 90
3 90 89 31
3 88 89 90
3 0 33 32
3 3 36 34
3 3 38 36
3 3 40 38
3 4 43 41
3 91 46 92
3 6 47 21
3 6 48 47
3 7 51 49
3 9 52 23
3 9 53 52
3 9 55 53
3 10 58 56
3 12 93 94
3 12 95 97
3 95 59 96
3 95 96 97
3 5 60 45
3 13 61 27
3 13 62 61
3 13 63 62
3 14 64 29
3 14 65 64
3 8 66 50
3 15 98 100
3 100 99 35
3 98 99 100
3 15 101 102
3 15 103 104
3 16 105 107
3 107 106 37
3 105 106 107
3 16 108 109
3 16 110 112
3 110 111 112
3 17 67 39
3 17 68 67
3 113 69 114
3 115 114 54
3 113 114 115
3 116 70 117
3 118 71 119
3 120 119 70
3 118 119 120
3 122 121 71
3 123 72 124
3 125 73 126
3 127 126 72
3 125 126 127
3 18 128 130
3 128 74 129
3 128 129 130
3 19 75 42
3 19 76 75
3 11 77 57
3 20 78 44
3 20 79 78
3 20 80 79
3 131 21 132
3 131 132 133
3 134 21 135
3 136 6 137
3 138 137 21
3 136 137 138
3 22 23 7
3 24 23 22
3 24 9 23
3 24 139 141
3 141 140 9
3 139 140 141
3 143 142 24
3 145 144 10
3 25 146 147
3 25 148 150
3 148 12 149
3 148 149 150
3 26 27 5
3 28 27 26
3 28 13 27
3 28 29 13
3 30 29 28
3 30 14 29
3 31 151 152
3 154 153 31
3 32 155 156
3 33 157 159
3 159 158 32
3 157 158 159
3 33 160 161
3 34 35 8
3 36 35 34
3 36 15 35
3 36 37 15
3 38 37 36
3 38 16 37
3 38 39 16
3 40 39 38
3 40 17 39
3 41 42 18
3 43 42 41
3 43 19 42
3 162 44 163
3 164 163 11
3 162 163 164
3 165 44 166
3 167 20 168
3 169 168 44
3 167 168 169
3 171 170 20
3 172 45 173
3 46 174 176
3 174 45 175
3 174 175 176
3 46 5 45
3 21 177 179
3 177 46 178
3 177 178 179
3 47 46 21
3 47 5 46
3 47 26 5
3 48 26 47
3 48 1 26
3 181 180 2
3 49 50 0
3 51 50 49
3 51 8 50
3 23 51 7
3 52 51 23
3 52 8 51
3 52 34 8
3 53 34 52
3 53 3 34
3 53 54 3
3 55 54 53
3 55 182 184
3 184 183 54
3 182 183 184
3 185 55 186
3 187 186 9
3 185 186 187
3 188 55 189
3 191 190 55
3 56 57 4
3 58 57 56
3 58 11 57
3 192 58 193
3 194 193 10
3 192 193 194
3 195 58 196
3 197 11 198
3 199 198 58
3 197 198 199
3 201 200 11
3 202 32 203
3 59 204 206
3 204 32 205
3 204 205 206
3 59 0 32
3 45 207 209
3 207 25 208
3 207 208 209
3 60 25 45
3 60 12 25
3 27 60 5
3 61 60 27
3 61 12 60
3 61 59 12
3 62 59 61
3 62 0 59
3 62 49 0
3 63 49 62
3 63 7 49
3 29 63 13
3 64 63 29
3 64 7 63
3 64 22 7
3 65 22 64
3 65 210 212
3 212 211 22
3 210 211 212
3 214 213 2
3 50 33 0
3 66 33 50
3 66 215 217
3 217 216 33
3 215 216 217
3 35 66 8
3 218 66 219
3 220 219 35
3 218 219 220
3 222 221 66
3 37 223 225
3 225 224 15
3 223 224 225
3 227 226 37
3 39 228 230
3 230 229 16
3 228 229 230
3 67 231 233
3 233 232 39
3 231 232 233
3 67 234 235
3 67 236 238
3 236 31 237
3 236 237 238
3 68 31 67
3 68 2 31
3 54 40 3
3 69 40 54
3 69 17 40
3 239 69 240
3 70 241 243
3 241 69 242
3 241 242 243
3 70 17 69
3 70 68 17
3 71 68 70
3 71 2 68
3 71 244 246
3 246 245 2
3 244 245 246
3 248 247 71
3 249 18 250
3 251 18 252
3 253 41 254
3 255 254 18
3 253 254 255
3 256 41 257
3 258 4 259
3 260 259 41
3 258 259 260
3 72 261 262
3 72 263 265
3 263 4 264
3 263 264 265
3 72 56 4
3 73 56 72
3 73 10 56
3 266 73 267
3 268 73 269
3 270 10 271
3 272 271 73
3 270 271 272
3 274 273 10
3 74 275 276
3 74 277 279
3 277 6 278
3 277 278 279
3 42 74 18
3 75 74 42
3 75 6 74
3 75 48 6
3 76 48 75
3 76 1 48
3 57 43 4
3 77 43 57
3 77 19 43
3 44 77 11
3 78 77 44
3 78 19 77
3 78 76 19
3 79 76 78
3 79 1 76
3 79 30 1
3 80 30 79
3 80 14 30
3 280 80 281
3 282 281 20
3 280 281 282
3 283 80 284
3 285 14 286
3 287 286 80
3 285 286 287
3 288 65 289
3 290 289 14
3 288 289 290
3 291 65 292
3 294 293 65
