ply
format ascii 1.0
element vertex 179
property float x
property float y
property float z
element face 159
property list uchar int vertex_index
end_header
-16.946491 -125.937897 -13.051924
-7.077288 -126.060013 -9.699503
-11.625851 -126.930634 -11.931301
-10.916727 -124.833389 -15.677078
-16.222326 -124.567154 -17.232029
-6.531103 -123.449493 -13.157867
-10.461893 -121.49762 -17.98275
-7.959574 -127.478043 -5.24765
-12.810726 -127.543854 -7.119911
-18.207005 -125.618271 -7.934795
-14.21437 -126.664291 -12.649378
-13.800889 -125.973328 -14.795216
-16.53751 -125.454285 -15.304104
-13.212883 -123.50856 -18.026272
-10.65661 -123.308945 -17.015499
-13.017134 -121.800568 -19.050182
-10.291332 -127.76973 -6.304916
-17.546741 -125.296982 -2.381472
-16.389027 -126.255295 -5.016462
-19.138416 -124.829544 -5.260273
-9.232843 -126.726273 -10.931122
-8.883163 -125.684998 -12.878119
-11.233387 -126.050797 -13.970858
-13.474566 -124.909714 -16.60363
-15.974969 -123.311111 -18.772167
-6.305151 -121.745987 -14.42646
-8.592148 -124.341339 -14.509146
-8.345036 -122.716476 -15.798964
-8.159767 -120.817596 -16.747311
-10.366703 -119.407394 -18.604404
-5.464514 -125.961273 -6.237581
-7.447817 -126.934143 -7.571594
-9.68355 -127.432922 -8.71722
-12.135044 -127.438202 -9.62044
-14.754519 -126.951004 -10.242201
-13.697321 -127.231903 -4.520927
-15.466396 -126.814423 -7.665953
-17.488676 -125.994141 -10.563042
-6.931511 -125.475212 -10.637254
-6.13267 -125.50882 -8.997813
-14.403541 -121.761887 -19.473408
-13.115009 -122.654564 -18.538227
-14.501416 -122.615883 -18.961453
-14.350074 -120.817948 -19.834373
-14.403541 -121.761887 -19.473408
-18.926414 -124.48397 -2.499214
-18.245504 -124.640084 -1.10623
-19.722251 -124.250251 -3.938615
-18.342579 -125.063263 -3.820873
-18.926414 -124.48397 -2.499214
-20.525133 -123.928223 -5.260834
-19.722251 -124.250251 -3.938615
-5.642183 -122.816834 -12.415385
-5.74757 -123.571991 -11.638912
-6.418127 -122.59774 -13.792164
-5.529207 -121.96508 -13.049682
-5.642183 -122.816834 -12.415385
-4.744435 -125.679634 -4.416535
-4.61108 -125.255951 -5.506937
-6.909639 -127.07782 -4.619944
-7.20317 -127.273857 -3.432824
-7.703696 -127.206093 -6.409622
-6.653761 -126.80587 -5.781917
-6.909639 -127.07782 -4.619944
-14.260158 -126.869003 -3.217518
-12.934646 -127.233315 -2.868261
-19.246241 -125.115356 -9.259151
-18.887076 -125.303292 -10.573274
-17.847841 -125.806206 -9.248919
-6.658418 -124.169952 -12.366436
-5.74757 -123.571991 -11.638912
-12.964416 -120.803566 -19.374271
-11.686795 -120.652092 -18.840555
-11.739514 -121.649094 -18.516466
-12.964416 -120.803566 -19.374271
-14.350074 -120.817948 -19.834373
-8.317568 -127.566941 -4.022222
-7.20317 -127.273857 -3.432824
-9.483447 -127.712784 -4.550855
-9.125453 -127.623886 -5.776283
-8.317568 -127.566941 -4.022222
-10.700147 -127.738991 -5.040218
-9.483447 -127.712784 -4.550855
-11.959844 -127.626053 -5.447716
-11.551029 -127.656792 -6.712414
-10.700147 -127.738991 -5.040218
-16.870456 -125.34375 -0.880649
-18.245504 -124.640084 -1.10623
-16.184867 -125.901543 -2.14779
-16.870456 -125.34375 -0.880649
-16.967884 -125.776139 -3.698967
-15.606011 -126.380699 -3.465285
-16.184867 -125.901543 -2.14779
-20.063343 -124.422104 -6.597192
-19.597637 -124.816467 -7.934453
-18.672711 -125.223907 -6.597534
-20.063343 -124.422104 -6.597192
-20.525133 -123.928223 -5.260834
-15.882459 -122.517158 -19.3344
-14.501416 -122.615883 -18.961453
-14.593926 -123.409835 -18.39922
-18.166419 -125.225556 -14.260832
-18.356293 -125.360199 -13.08946
-5.430245 -121.083893 -13.679696
-4.6543 -121.302987 -12.302917
-5.529207 -121.96508 -13.049682
-6.220479 -120.759987 -14.902621
-5.430245 -121.083893 -13.679696
-7.834448 -125.287704 -12.226562
-6.931511 -125.475212 -10.637254
-7.980225 -125.872505 -11.288811
-7.688941 -124.615875 -13.042075
-7.834448 -125.287704 -12.226562
-8.737655 -125.013169 -13.693632
-7.561625 -123.895416 -13.833506
-6.658418 -124.169952 -12.366436
-7.688941 -124.615875 -13.042075
-7.147787 -120.295792 -16.063046
-6.220479 -120.759987 -14.902621
-7.232459 -121.281791 -15.586886
-8.120324 -119.729042 -17.062005
-7.147787 -120.295792 -16.063046
-9.223792 -119.023941 -17.990551
-8.120324 -119.729042 -17.062005
-9.263235 -120.112495 -17.675857
-10.393042 -118.222374 -18.766153
-9.250132 -117.838921 -18.1523
-9.223792 -119.023941 -17.990551
-11.6392 -119.606979 -19.151382
-10.414298 -120.452507 -18.293577
-11.686795 -120.652092 -18.840555
-11.651446 -118.47174 -19.313192
-11.6392 -119.606979 -19.151382
-10.393042 -118.222374 -18.766153
-11.651446 -118.47174 -19.313192
-17.961928 -124.98375 -15.386922
-16.742001 -125.696091 -14.178014
-18.166419 -125.225556 -14.260832
-17.821157 -124.635689 -16.411198
-17.961928 -124.98375 -15.386922
-19.245576 -124.165154 -16.494015
-17.663565 -124.192124 -17.37516
-16.379918 -125.010719 -16.268066
-17.821157 -124.635689 -16.411198
-17.556638 -123.645523 -18.21422
-17.663565 -124.192124 -17.37516
-17.43296 -123.017502 -18.984289
-16.098647 -123.939132 -18.002098
-17.556638 -123.645523 -18.21422
-17.353522 -122.291641 -19.615865
-17.43296 -123.017502 -18.984289
-15.882459 -122.517158 -19.3344
-17.353522 -122.291641 -19.615865
-5.326284 -125.45945 -7.266851
-4.61108 -125.255951 -5.506937
-6.270901 -126.010643 -7.968542
-6.13267 -125.50882 -8.997813
-5.326284 -125.45945 -7.266851
-5.662109 -126.319435 -5.11491
-4.744435 -125.679634 -4.416535
-6.456166 -126.447708 -6.904587
-5.662109 -126.319435 -5.11491
-6.653761 -126.80587 -5.781917
-12.403141 -127.470078 -4.148224
-12.934646 -127.233315 -2.868261
-13.254024 -127.387878 -5.820419
-11.959844 -127.626053 -5.447716
-12.403141 -127.470078 -4.148224
-15.043174 -126.743599 -4.768695
-14.260158 -126.869003 -3.217518
-15.606011 -126.380699 -3.465285
-18.627386 -125.388321 -11.845019
-18.356293 -125.360199 -13.08946
-17.217584 -125.966019 -11.807483
-20.025787 -124.697472 -11.855251
-18.627386 -125.388321 -11.845019
-18.887076 -125.303292 -10.573274
-19.246241 -125.115356 -9.259151
-19.597637 -124.816467 -7.934453
3 0 12 10
3 1 38 39
3 40 15 41
3 42 41 13
3 40 41 42
3 44 43 15
3 45 17 46
3 47 19 48
3 49 48 17
3 47 48 49
3 51 50 19
3 2 22 20
3 4 23 11
3 4 24 23
3 5 52 53
3 5 54 56
3 54 25 55
3 54 55 56
3 3 26 21
3 6 27 14
3 6 28 27
3 6 29 28
3 57 30 58
3 7 59 60
3 7 61 63
3 61 31 62
3 61 62 63
3 7 32 31
3 8 33 16
3 8 34 33
3 64 35 65
3 9 36 18
3 9 37 36
3 9 66 68
3 68 67 37
3 66 67 68
3 10 11 2
3 12 11 10
3 12 4 11
3 69 5 70
3 13 14 3
3 15 14 13
3 15 6 14
3 15 71 73
3 73 72 6
3 71 72 73
3 75 74 15
3 76 7 77
3 78 16 79
3 80 79 7
3 78 79 80
3 81 16 82
3 83 8 84
3 85 84 16
3 83 84 85
3 17 86 87
3 17 88 89
3 17 90 92
3 90 18 91
3 90 91 92
3 19 18 17
3 19 9 18
3 19 93 95
3 95 94 9
3 93 94 95
3 97 96 19
3 20 21 1
3 22 21 20
3 22 3 21
3 11 22 2
3 23 22 11
3 23 3 22
3 23 13 3
3 24 13 23
3 24 98 100
3 100 99 13
3 98 99 100
3 102 101 0
3 25 103 105
3 103 104 105
3 25 106 107
3 21 108 110
3 110 109 1
3 108 109 110
3 26 111 113
3 113 112 21
3 111 112 113
3 26 114 116
3 114 5 115
3 114 115 116
3 14 26 3
3 27 26 14
3 27 5 26
3 27 25 5
3 28 25 27
3 28 117 119
3 119 118 25
3 117 118 119
3 28 120 121
3 29 122 124
3 124 123 28
3 122 123 124
3 29 125 127
3 125 126 127
3 128 29 129
3 130 129 6
3 128 129 130
3 131 29 132
3 134 133 29
3 135 12 136
3 137 136 0
3 135 136 137
3 138 12 139
3 138 139 140
3 141 4 142
3 143 142 12
3 141 142 143
3 144 4 145
3 146 24 147
3 148 147 4
3 146 147 148
3 149 24 150
3 152 151 24
3 30 153 154
3 30 155 157
3 155 1 156
3 155 156 157
3 158 30 159
3 31 160 162
3 160 30 161
3 160 161 162
3 31 1 30
3 31 20 1
3 32 20 31
3 32 2 20
3 16 32 7
3 33 32 16
3 33 2 32
3 33 10 2
3 34 10 33
3 34 0 10
3 35 163 164
3 35 165 167
3 165 8 166
3 165 166 167
3 18 168 170
3 168 35 169
3 168 169 170
3 36 35 18
3 36 8 35
3 36 34 8
3 37 34 36
3 37 0 34
3 37 171 173
3 173 172 0
3 171 172 173
3 176 175 37
3 174 175 176
3 178 177 9
