ply
format ascii 1.0
element vertex 242
property float x
property float y
property float z
element face 239
property list uchar int vertex_index
end_header
-16.5016 -64.347809 80.235466
-16.751221 -53.799301 82.606155
-10.426653 -58.095222 85.552353
-5.248362 -61.158401 82.943802
-9.082834 -67.741211 80.455086
-20.13847 -51.784325 80.233894
-13.376789 -61.17989 82.78376
-9.989557 -63.031414 83.120438
-12.713953 -66.164581 80.858719
-16.844551 -59.154491 81.434952
-20.243156 -62.4123 78.878151
-20.291437 -57.129787 79.475235
-7.648575 -55.105301 87.553574
-13.511723 -55.964096 84.550926
-7.604809 -59.908508 85.096313
-6.884586 -64.497246 82.061935
-5.868011 -68.960434 78.765182
-16.093958 -66.841049 79.57122
-18.049829 -65.913818 79.130676
-14.927683 -62.760818 81.446457
-13.110926 -63.70496 81.837608
-14.602324 -65.278183 80.655396
-14.1351 -67.72937 79.817772
-16.828419 -56.481182 82.019897
-18.573709 -58.134502 80.511368
-18.507814 -55.446274 80.96151
-21.896345 -50.853828 79.004341
-21.905548 -53.480083 78.623146
-15.114386 -54.871147 83.661346
-15.160473 -57.536587 82.949074
-22.047607 -61.430012 77.982262
-9.022665 -56.594433 86.718559
-7.725416 -57.527676 86.420395
-8.971495 -59.05994 85.530785
-9.578749 -65.408279 81.805969
-8.385715 -63.824314 82.781837
-7.923708 -66.124763 81.299446
-6.388708 -66.728561 80.432228
-7.405998 -68.401176 79.779984
-18.424477 -52.767097 81.447037
-5.516724 -58.95166 84.490189
-11.874857 -59.622433 84.191658
-10.281364 -60.593624 84.379601
-11.662857 -62.140888 83.105957
-11.318718 -64.594833 81.972931
-10.863661 -66.990936 80.804855
-10.322767 -69.347443 79.601677
-12.201214 -68.568298 79.839432
-16.747042 -61.783443 80.846977
-18.388565 -63.388275 79.634407
-18.552261 -60.790756 80.080505
-20.330627 -59.796577 79.178162
-22.072067 -58.810398 78.160721
-20.199638 -54.444031 79.818153
-21.994656 -56.14827 78.353668
-6.29484 -53.601185 87.966408
-8.902575 -54.103378 87.716911
-10.416771 -55.556141 86.596573
-11.945906 -57.050472 85.204941
-13.506493 -58.592693 83.693863
-15.109123 -60.176155 82.20845
-6.529661 -55.976955 86.935173
-6.548841 -58.320827 85.676064
-6.354752 -60.613014 84.230698
-8.749437 -61.472973 84.203911
-7.308495 -62.231056 83.628876
-5.99032 -62.847279 82.642738
-5.519796 -65.036377 80.954613
-5.007025 -67.211418 79.20314
-22.760637 -51.70451 78.202511
-22.796622 -50.413732 78.394378
-15.932804 -54.335224 83.13375
-15.067515 -53.547663 83.990142
-15.885933 -53.01174 83.462547
-22.84685 -62.214066 77.401452
-22.916708 -60.939312 77.46838
-4.777185 -61.351208 82.107216
-4.947813 -60.28595 82.919598
-5.03611 -62.235774 82.101513
-4.777185 -61.351208 82.107216
-8.80781 -68.899002 79.764092
-7.969392 -69.228984 79.426541
-8.244416 -68.071194 80.117535
-5.541517 -57.820247 85.174644
-5.145299 -58.089605 84.422032
-13.837384 -68.925804 79.364155
-14.831318 -68.497231 79.320156
-22.837353 -55.670738 77.759842
-21.950102 -54.814177 78.488407
-22.792799 -54.336645 77.894581
-22.881166 -56.992989 77.697548
-22.837353 -55.670738 77.759842
-9.587024 -53.557983 87.58879
-8.774947 -52.86381 88.094776
-10.344122 -54.284365 87.028621
-9.659673 -54.829759 87.156742
-9.587024 -53.557983 87.58879
-12.700032 -55.209383 85.329109
-13.46825 -54.648037 84.936386
-12.728815 -56.507284 84.877934
-11.917124 -55.752571 85.656116
-12.700032 -55.209383 85.329109
-20.109918 -63.685173 78.698341
-19.182623 -64.17316 79.07647
-19.31586 -62.900288 79.256279
-5.183875 -69.187359 78.089698
-4.753382 -68.312851 78.308678
-5.437518 -68.085926 78.984161
-5.611035 -70.095898 77.918014
-5.183875 -69.187359 78.089698
-10.021895 -70.515812 78.976647
-10.958189 -70.138745 79.182552
-16.810209 -67.60244 79.049308
-15.810747 -68.05307 79.19688
-17.788145 -67.138824 78.829037
-16.810209 -67.60244 79.049308
-17.071894 -66.377433 79.350948
-18.778042 -66.669563 78.588329
-17.788145 -67.138824 78.829037
-15.810747 -68.05307 79.19688
-14.831318 -68.497231 79.320156
-15.114529 -67.28521 79.694496
-22.765239 -53.017637 78.011914
-21.900946 -52.166956 78.813744
-22.760637 -51.70451 78.202511
-22.792799 -54.336645 77.894581
-22.765239 -53.017637 78.011914
-14.269582 -54.101562 84.491596
-15.067515 -53.547663 83.990142
-14.313054 -55.417621 84.106136
-13.46825 -54.648037 84.936386
-14.269582 -54.101562 84.491596
-21.948746 -62.706701 77.864712
-21.04652 -63.197845 78.312657
-21.145381 -61.921156 78.430206
-21.948746 -62.706701 77.864712
-22.84685 -62.214066 77.401452
-7.135807 -69.54417 79.005966
-6.366814 -69.823799 78.498565
-6.637004 -68.680805 79.272583
-7.135807 -69.54417 79.005966
-7.969392 -69.228984 79.426541
-17.550436 -51.96249 82.310863
-17.587849 -53.283199 82.026596
-16.713808 -52.478592 82.890422
-18.410201 -51.458103 81.701256
-17.550436 -51.96249 82.310863
-19.267198 -50.966717 81.094684
-19.281474 -52.275711 80.840465
-18.410201 -51.458103 81.701256
-20.160991 -50.494442 80.474079
-19.267198 -50.966717 81.094684
-21.039929 -50.029194 79.859302
-21.017408 -51.319077 79.619118
-20.160991 -50.494442 80.474079
-21.968442 -49.588893 79.246933
-21.039929 -50.029194 79.859302
-22.796622 -50.413732 78.394378
-21.968442 -49.588893 79.246933
-16.713808 -52.478592 82.890422
-15.885933 -53.01174 83.462547
-5.081994 -59.182579 83.692791
-5.145299 -58.089605 84.422032
-5.382543 -60.055031 83.716995
-4.947813 -60.28595 82.919598
-5.081994 -59.182579 83.692791
-11.897412 -69.749172 79.30143
-10.958189 -70.138745 79.182552
-11.26199 -68.95787 79.720554
-12.870442 -69.345268 79.374985
-13.168157 -68.148834 79.828602
-13.837384 -68.925804 79.364155
-11.897412 -69.749172 79.30143
-12.870442 -69.345268 79.374985
-22.928939 -59.629505 77.557609
-22.916708 -60.939312 77.46838
-22.059837 -60.120205 78.071492
-22.919871 -58.324053 77.601074
-22.033361 -57.479334 78.257194
-22.881166 -56.992989 77.697548
-22.928939 -59.629505 77.557609
-22.919871 -58.324053 77.601074
-6.093026 -52.409571 88.350014
-5.629288 -52.822207 87.94944
-6.843742 -53.135756 88.207111
-6.093026 -52.409571 88.350014
-7.520609 -53.887814 88.000695
-6.971707 -54.353243 87.759991
-6.843742 -53.135756 88.207111
-8.147609 -53.386852 88.082363
-8.774947 -52.86381 88.094776
-8.275575 -54.604339 87.635243
-7.520609 -53.887814 88.000695
-8.147609 -53.386852 88.082363
-11.152556 -55.005405 86.351933
-10.344122 -54.284365 87.028621
-11.181339 -56.303306 85.900757
-11.152556 -55.005405 86.351933
-11.917124 -55.752571 85.656116
-19.013255 -65.435932 78.824604
-18.219197 -64.651047 79.382542
-19.182623 -64.17316 79.07647
-19.741468 -66.191677 78.282257
-18.778042 -66.669563 78.588329
-19.013255 -65.435932 78.824604
-20.109918 -63.685173 78.698341
-21.04652 -63.197845 78.312657
-5.83368 -53.990818 87.491096
-5.629288 -52.822207 87.94944
-5.95109 -55.178703 86.975479
-5.83368 -53.990818 87.491096
-6.41225 -54.78907 87.450791
-6.047986 -56.332895 86.397137
-5.95109 -55.178703 86.975479
-6.057576 -57.504831 85.767582
-6.047986 -56.332895 86.397137
-6.539251 -57.148891 86.305619
-6.032782 -58.636243 85.083126
-5.541517 -57.820247 85.174644
-6.057576 -57.504831 85.767582
-5.407089 -63.080213 81.950981
-5.03611 -62.235774 82.101513
-5.619341 -62.00284 82.79327
-5.171827 -64.174762 81.106919
-5.407089 -63.080213 81.950981
-5.755058 -63.941828 81.798676
-4.919946 -65.237549 80.215557
-5.171827 -64.174762 81.106919
-4.66356 -66.325069 79.339821
-4.919946 -65.237549 80.215557
-5.26341 -66.123897 80.078877
-4.406 -67.392711 78.417122
-4.66356 -66.325069 79.339821
-4.406 -67.392711 78.417122
-4.753382 -68.312851 78.308678
-5.611035 -70.095898 77.918014
-6.366814 -69.823799 78.498565
-9.427776 -69.702118 79.337387
-8.80781 -68.899002 79.764092
-9.702801 -68.544327 80.028381
-9.427776 -69.702118 79.337387
-10.021895 -70.515812 78.976647
3 0 18 17
3 0 21 19
3 0 17 21
3 1 25 23
3 70 69 26
3 1 71 73
3 71 28 72
3 71 72 73
3 1 23 28
3 75 74 30
3 3 76 77
3 3 78 79
3 2 33 31
3 4 36 34
3 4 38 36
3 4 80 82
3 82 81 38
3 80 81 82
3 83 40 84
3 6 43 41
3 8 44 20
3 8 45 44
3 8 47 45
3 86 85 22
3 9 50 48
3 11 51 24
3 11 52 51
3 5 53 39
3 87 54 88
3 89 88 27
3 87 88 89
3 91 90 54
3 92 56 93
3 94 57 95
3 96 95 56
3 94 95 96
3 13 97 98
3 13 99 101
3 99 58 100
3 99 100 101
3 13 59 58
3 9 60 29
3 9 48 60
3 10 102 104
3 104 103 49
3 102 103 104
3 12 61 55
3 14 62 32
3 14 63 62
3 7 64 42
3 15 65 35
3 15 66 65
3 15 67 66
3 16 68 37
3 16 105 107
3 107 106 68
3 105 106 107
3 16 108 109
3 111 110 46
3 17 112 113
3 18 114 116
3 116 115 17
3 114 115 116
3 18 117 118
3 19 20 6
3 21 20 19
3 21 8 20
3 21 22 8
3 17 22 21
3 17 119 121
3 121 120 22
3 119 120 121
3 23 24 9
3 25 24 23
3 25 11 24
3 26 27 5
3 122 27 123
3 124 123 26
3 122 123 124
3 126 125 27
3 28 127 128
3 28 129 131
3 129 13 130
3 129 130 131
3 28 29 13
3 23 29 28
3 23 9 29
3 30 132 134
3 134 133 10
3 132 133 134
3 136 135 30
3 31 32 12
3 33 32 31
3 33 14 32
3 34 35 7
3 36 35 34
3 36 15 35
3 36 37 15
3 38 37 36
3 38 16 37
3 38 137 139
3 139 138 16
3 137 138 139
3 141 140 38
3 142 39 143
3 144 143 1
3 142 143 144
3 145 39 146
3 147 5 148
3 149 148 39
3 147 148 149
3 150 5 151
3 152 26 153
3 154 153 5
3 152 153 154
3 155 26 156
3 158 157 26
3 159 1 160
3 40 161 162
3 40 163 165
3 163 3 164
3 163 164 165
3 41 42 2
3 43 42 41
3 43 7 42
3 20 43 6
3 44 43 20
3 44 7 43
3 44 34 7
3 45 34 44
3 45 4 34
3 45 46 4
3 47 46 45
3 47 166 168
3 168 167 46
3 166 167 168
3 22 47 8
3 169 47 170
3 171 170 22
3 169 170 171
3 173 172 47
3 48 49 0
3 50 49 48
3 50 10 49
3 24 50 9
3 51 50 24
3 51 10 50
3 51 30 10
3 52 30 51
3 52 174 176
3 176 175 30
3 174 175 176
3 39 25 1
3 53 25 39
3 53 11 25
3 27 53 5
3 54 53 27
3 54 11 53
3 54 52 11
3 177 52 178
3 179 178 54
3 177 178 179
3 181 180 52
3 182 55 183
3 184 55 185
3 186 12 187
3 188 187 55
3 186 187 188
3 56 189 190
3 56 191 193
3 191 12 192
3 191 192 193
3 56 31 12
3 57 31 56
3 57 2 31
3 194 57 195
3 58 196 198
3 196 57 197
3 196 197 198
3 58 2 57
3 58 41 2
3 59 41 58
3 59 6 41
3 29 59 13
3 60 59 29
3 60 6 59
3 60 19 6
3 48 19 60
3 48 0 19
3 49 18 0
3 199 18 200
3 201 200 49
3 199 200 201
3 204 203 18
3 202 203 204
3 206 205 10
3 55 207 208
3 61 209 211
3 211 210 55
3 209 210 211
3 61 212 213
3 32 61 12
3 62 61 32
3 62 214 216
3 216 215 61
3 214 215 216
3 62 217 219
3 217 40 218
3 217 218 219
3 63 40 62
3 63 3 40
3 42 33 2
3 64 33 42
3 64 14 33
3 35 64 7
3 65 64 35
3 65 14 64
3 65 63 14
3 66 63 65
3 66 3 63
3 66 220 222
3 222 221 3
3 220 221 222
3 67 223 225
3 225 224 66
3 223 224 225
3 67 226 227
3 37 67 15
3 68 67 37
3 68 228 230
3 230 229 67
3 228 229 230
3 68 231 232
3 234 233 68
3 236 235 16
3 46 237 239
3 239 238 4
3 237 238 239
3 241 240 46
