ply
format ascii 1.0
element vertex 241
property float x
property float y
property float z
element face 238
property list uchar int vertex_index
end_header
-54.744564 -1.248976 45.047081
-50.780731 -10.833717 46.176403
-49.550568 -5.483945 52.846188
-50.896835 4.640579 52.023075
-54.847 3.23851 44.404457
-52.924957 -6.076126 45.334351
-54.205975 -8.437853 42.367496
-46.792549 -10.458135 52.991856
-48.775925 9.545675 50.63559
-49.676132 -15.027849 48.371872
-52.274174 -3.378356 49.077675
-53.223793 1.502495 48.769699
-51.24387 -0.37328 52.71106
-47.486752 -13.042665 50.003906
-49.842064 -8.366648 49.18071
-51.974918 6.064852 47.689659
-49.092793 10.469025 45.829998
-55.068108 1.052635 44.813736
-53.97514 -3.640663 45.183586
-54.437767 -4.902213 43.36594
-55.325157 -2.51795 43.151752
-50.043404 -13.028059 47.077316
-51.77422 -11.877894 45.178123
-55.921349 -7.251048 40.44632
-55.316322 -9.496781 41.392284
-50.943008 -4.439528 50.98996
-51.861389 -1.909058 50.955997
-50.617195 -2.927988 52.821705
-46.786858 -15.13026 50.935841
-45.956604 -14.04529 51.952457
-48.207428 -8.006631 52.869305
-48.300339 -9.441444 51.081802
-49.688637 -6.965951 50.994621
-51.15403 -5.882976 49.099735
-52.163975 3.022606 50.467167
-52.866383 3.822861 48.3386
-51.493439 5.395241 49.928669
-48.973675 10.053118 48.287571
-51.794296 -8.495593 45.625534
-52.487572 -9.645172 44.275047
-53.428326 -7.298999 43.701309
-55.052879 -6.104112 41.755814
-45.513954 -12.800188 53.31649
-49.458252 6.333706 53.449085
-49.99646 7.095276 51.411762
-48.436295 8.894281 52.814922
-53.538513 -10.688178 43.28624
-53.539219 -2.311209 47.096825
-54.071293 0.083364 46.946617
-53.009109 -0.903896 48.997978
-52.292534 0.586546 50.801571
-51.33868 2.15366 52.454903
-50.35907 1.205557 54.287788
-50.138901 3.775919 53.940609
-48.045296 -16.045015 50.309551
-48.37109 -14.114219 48.993851
-49.105103 -11.972094 48.081993
-46.993305 -11.81672 51.367409
-48.553726 -10.77205 49.445007
-50.163033 -9.661339 47.536022
-51.389824 -7.239191 47.269859
-52.58522 -4.768884 47.165985
-54.064476 2.382086 46.629211
-53.486557 4.576317 46.09832
-52.392204 6.685724 45.348289
-50.379143 7.724983 49.192879
-50.663132 8.262409 46.840553
-50.905972 8.756189 44.405937
-49.194752 10.851099 43.317719
-54.906336 -0.098171 44.930408
-55.485537 0.42537 43.875504
-55.323765 -0.725436 43.992176
-55.323765 -0.725436 43.992176
-55.614061 -1.359922 43.044511
-55.03486 -1.883463 44.099417
-56.506119 -7.799627 39.967402
-56.771324 -6.688507 39.476456
-45.250923 -14.521157 52.942068
-45.6387 -15.067324 52.4291
-55.224755 3.661475 43.263348
-55.434807 2.62186 43.511207
-54.456642 4.273978 44.092858
-55.224755 3.661475 43.263348
-55.488777 -4.925 41.55928
-54.745323 -5.503163 42.560877
-55.181221 -4.324051 42.364344
-55.856346 -5.525446 40.770779
-55.488777 -4.925 41.55928
-48.166562 8.47909 53.794145
-48.947274 7.613993 53.132003
-48.67754 7.198802 54.111227
-50.514082 -15.41567 48.236767
-49.684874 -15.916373 49.208473
-55.130356 -10.566674 42.03
-56.031298 -9.993269 41.084043
-49.773056 1.999631 54.978445
-49.784947 0.693458 55.130795
-49.662971 3.284812 54.804856
-50.248986 2.490738 54.114199
-49.773056 1.999631 54.978445
-49.427908 4.597558 54.606009
-49.662971 3.284812 54.804856
-47.284716 -16.523753 51.29048
-48.087136 -16.896115 51.15875
-55.545361 1.528922 43.715847
-55.485537 0.42537 43.875504
-54.957554 2.145573 44.609096
-55.434807 2.62186 43.511207
-55.545361 1.528922 43.715847
-55.624916 -3.131919 42.25725
-55.181221 -4.324051 42.364344
-54.881462 -3.710081 43.258846
-55.982945 -1.969626 42.113817
-55.624916 -3.131919 42.25725
-55.982945 -1.969626 42.113817
-55.614061 -1.359922 43.044511
-50.715428 -13.485371 46.767166
-50.531791 -14.485266 47.414444
-49.859768 -14.027954 47.724594
-51.580835 -12.910289 45.81757
-50.715428 -13.485371 46.767166
-50.908812 -12.452977 46.127719
-52.462824 -12.33993 44.868314
-51.580835 -12.910289 45.81757
-56.203605 -8.922493 40.440383
-55.618836 -8.373914 40.919302
-56.506119 -7.799627 39.967402
-56.031298 -9.993269 41.084043
-56.203605 -8.922493 40.440383
-46.053827 -15.609808 51.920792
-46.655497 -16.066375 51.603625
-46.371731 -14.587775 51.444149
-46.053827 -15.609808 51.920792
-45.6387 -15.067324 52.4291
-48.187758 11.043036 49.003096
-48.8748 9.799397 49.46158
-48.088882 10.789315 50.177105
-48.212526 11.242527 47.768904
-48.187758 11.043036 49.003096
-48.272086 11.450481 46.540118
-49.033234 10.261071 47.058785
-48.212526 11.242527 47.768904
-48.267373 11.607562 45.267424
-48.272086 11.450481 46.540118
-56.290581 -6.098914 40.116032
-55.487114 -6.67758 41.101067
-55.856346 -5.525446 40.770779
-56.771324 -6.688507 39.476456
-56.290581 -6.098914 40.116032
-49.415363 -4.718504 53.729076
-48.833063 -5.993892 53.758207
-44.83032 -13.27109 54.307537
-45.029598 -13.898606 53.624085
-45.43309 -12.112534 54.122253
-44.83032 -13.27109 54.307537
-46.072388 -10.941508 53.959936
-46.153251 -11.629162 53.154173
-45.43309 -12.112534 54.122253
-46.766071 -9.730628 53.869673
-46.072388 -10.941508 53.959936
-47.473511 -8.504876 53.808397
-47.499989 -9.232383 52.93058
-46.766071 -9.730628 53.869673
-48.161493 -7.255235 53.769766
-47.473511 -8.504876 53.808397
-48.833063 -5.993892 53.758207
-48.878998 -6.745288 52.857746
-48.161493 -7.255235 53.769766
-47.649624 9.820044 53.490793
-48.166562 8.47909 53.794145
-47.831597 10.190561 52.430437
-47.649624 9.820044 53.490793
-48.001412 10.516258 51.340771
-48.60611 9.219978 51.725256
-47.831597 10.190561 52.430437
-48.088882 10.789315 50.177105
-48.001412 10.516258 51.340771
-50.514082 -15.41567 48.236767
-50.531791 -14.485266 47.414444
-53.344971 -11.745072 43.922373
-52.462824 -12.33993 44.868314
-52.656367 -11.283036 44.232181
-54.241451 -11.162372 42.976979
-54.427418 -10.092479 42.339262
-55.130356 -10.566674 42.03
-53.344971 -11.745072 43.922373
-54.241451 -11.162372 42.976979
-49.948677 -3.440526 53.716835
-50.083882 -4.205967 52.833946
-49.415363 -4.718504 53.729076
-50.340534 -2.1519 53.661663
-49.948677 -3.440526 53.716835
-50.653872 -0.874547 53.606341
-50.930532 -1.650634 52.766383
-50.340534 -2.1519 53.661663
-50.211472 -0.085128 54.394705
-49.784947 0.693458 55.130795
-50.80147 0.416138 53.499424
-50.653872 -0.874547 53.606341
-50.211472 -0.085128 54.394705
-49.087584 5.876451 54.360247
-49.798576 5.054813 53.694847
-49.427908 4.597558 54.606009
-48.67754 7.198802 54.111227
-49.087584 5.876451 54.360247
-48.869456 -16.424956 50.177312
-48.087136 -16.896115 51.15875
-48.860714 -15.536432 49.340711
-49.684874 -15.916373 49.208473
-48.869456 -16.424956 50.177312
-47.416077 -15.587637 50.622696
-47.284716 -16.523753 51.29048
-46.655497 -16.066375 51.603625
-45.735279 -13.422739 52.634473
-45.250923 -14.521157 52.942068
-45.029598 -13.898606 53.624085
-53.776421 4.942882 44.939789
-54.456642 4.273978 44.092858
-54.166778 3.907414 45.251389
-53.229244 5.997585 44.564774
-53.776421 4.942882 44.939789
-52.93938 5.63102 45.723304
-52.592758 6.990586 44.14739
-53.229244 5.997585 44.564774
-51.849642 8.025818 43.676214
-52.592758 6.990586 44.14739
-51.649088 7.720956 44.877113
-51.032795 9.003974 43.169775
-51.849642 8.025818 43.676214
-50.177185 10.051429 42.625666
-51.032795 9.003974 43.169775
-50.050362 9.803644 43.861828
-49.264606 11.050061 42.055754
-50.177185 10.051429 42.625666
-48.318352 11.798599 44.011284
-49.143772 10.660062 44.573859
-48.267373 11.607562 45.267424
-48.316168 11.944795 42.726807
-48.318352 11.798599 44.011284
-49.264606 11.050061 42.055754
-48.316168 11.944795 42.726807
3 0 69 71
3 69 17 70
3 69 70 71
3 0 20 18
3 0 72 74
3 74 73 20
3 72 73 74
3 1 22 21
3 76 75 23
3 2 27 25
3 77 29 78
3 2 32 30
3 2 25 32
3 3 36 34
3 4 79 80
3 4 81 82
3 5 40 38
3 83 41 84
3 85 84 19
3 83 84 85
3 87 86 41
3 88 45 89
3 90 89 43
3 88 89 90
3 9 91 92
3 6 46 39
3 94 93 24
3 10 49 47
3 12 50 26
3 12 51 50
3 95 52 96
3 97 53 98
3 99 98 52
3 97 98 99
3 101 100 53
3 102 54 103
3 13 55 28
3 13 56 55
3 7 57 42
3 14 58 31
3 14 59 58
3 14 60 59
3 10 61 33
3 10 47 61
3 11 62 48
3 15 63 35
3 15 64 63
3 8 65 44
3 16 66 37
3 16 67 66
3 16 68 67
3 17 104 105
3 17 106 108
3 106 4 107
3 106 107 108
3 18 19 5
3 20 19 18
3 20 109 111
3 111 110 19
3 109 110 111
3 20 112 113
3 115 114 20
3 21 116 118
3 118 117 9
3 116 117 118
3 22 119 121
3 121 120 21
3 119 120 121
3 22 122 123
3 23 24 6
3 124 24 125
3 126 125 23
3 124 125 126
3 128 127 24
3 25 26 10
3 27 26 25
3 27 12 26
3 129 28 130
3 29 131 133
3 131 28 132
3 131 132 133
3 29 13 28
3 30 31 7
3 32 31 30
3 32 14 31
3 32 33 14
3 25 33 32
3 25 10 33
3 34 35 11
3 36 35 34
3 36 15 35
3 134 37 135
3 136 135 8
3 134 135 136
3 137 37 138
3 139 16 140
3 141 140 37
3 139 140 141
3 143 142 16
3 38 39 1
3 40 39 38
3 40 6 39
3 19 40 5
3 41 40 19
3 41 6 40
3 41 23 6
3 144 23 145
3 146 145 41
3 144 145 146
3 148 147 23
3 150 149 2
3 151 42 152
3 153 42 154
3 155 7 156
3 157 156 42
3 155 156 157
3 158 7 159
3 160 30 161
3 162 161 7
3 160 161 162
3 163 30 164
3 165 2 166
3 167 166 30
3 165 166 167
3 43 44 3
3 45 44 43
3 45 8 44
3 168 45 169
3 170 45 171
3 172 8 173
3 174 173 45
3 172 173 174
3 176 175 8
3 178 177 9
3 39 22 1
3 46 22 39
3 46 179 181
3 181 180 22
3 179 180 181
3 24 46 6
3 182 46 183
3 184 183 24
3 182 183 184
3 186 185 46
3 47 48 0
3 49 48 47
3 49 11 48
3 26 49 10
3 50 49 26
3 50 11 49
3 50 34 11
3 51 34 50
3 51 3 34
3 187 27 188
3 189 188 2
3 187 188 189
3 190 27 191
3 192 12 193
3 194 193 27
3 192 193 194
3 52 195 196
3 52 197 199
3 197 12 198
3 197 198 199
3 52 51 12
3 53 51 52
3 53 3 51
3 53 43 3
3 200 43 201
3 202 201 53
3 200 201 202
3 204 203 43
3 54 205 206
3 54 207 209
3 207 9 208
3 207 208 209
3 28 210 212
3 210 54 211
3 210 211 212
3 55 54 28
3 55 9 54
3 55 21 9
3 56 21 55
3 56 1 21
3 42 213 215
3 213 29 214
3 213 214 215
3 57 29 42
3 57 13 29
3 31 57 7
3 58 57 31
3 58 13 57
3 58 56 13
3 59 56 58
3 59 1 56
3 59 38 1
3 60 38 59
3 60 5 38
3 33 60 14
3 61 60 33
3 61 5 60
3 61 18 5
3 47 18 61
3 47 0 18
3 48 17 0
3 62 17 48
3 62 4 17
3 35 62 11
3 63 62 35
3 63 4 62
3 63 216 218
3 218 217 4
3 216 217 218
3 64 219 221
3 221 220 63
3 219 220 221
3 64 222 223
3 44 36 3
3 65 36 44
3 65 15 36
3 37 65 8
3 66 65 37
3 66 15 65
3 66 64 15
3 67 64 66
3 67 224 226
3 226 225 64
3 224 225 226
3 67 227 228
3 68 229 231
3 231 230 67
3 229 230 231
3 68 232 233
3 234 68 235
3 236 235 16
3 234 235 236
3 237 68 238
3 240 239 68
