ply
format ascii 1.0
element vertex 241
property float x
property float y
property float z
element face 237
property list uchar int vertex_index
end_header
64.633827 -54.137817 35.451302
69.885635 -46.011452 21.698719
68.462013 -47.725018 33.028332
66.357849 -52.066395 24.44595
68.871819 -43.531353 20.716988
68.628181 -44.670998 26.266201
66.899506 -50.802261 34.203537
68.012352 -50.15097 28.486351
65.62326 -53.37392 29.920244
60.385586 -57.163506 22.78661
69.429054 -46.997139 17.589994
68.461357 -45.012093 31.885984
69.266617 -47.220284 27.287159
68.846275 -48.88987 22.920496
66.859093 -50.209309 19.196121
63.343346 -55.432106 26.163612
63.563576 -53.614086 21.004688
67.540665 -43.535835 25.764463
67.62439 -43.762642 28.523777
64.002495 -54.32518 38.110786
65.117126 -52.608929 37.57122
66.210106 -50.928032 37.025192
65.798538 -52.446804 34.820141
66.387009 -52.157909 32.002335
65.166565 -53.821903 32.699394
69.648674 -44.718597 21.187151
69.881386 -43.83812 18.456589
70.158669 -45.133259 18.976212
69.90419 -46.531292 19.562229
67.934532 -47.750687 35.901333
68.696579 -46.320518 32.460968
68.974548 -46.196892 29.603247
68.897636 -47.554882 30.145912
67.3442 -51.16555 26.385822
68.460678 -49.600471 25.674812
67.726776 -50.448486 23.648275
68.045197 -49.582375 20.972473
66.640518 -51.204353 21.790859
63.190163 -56.163696 28.813499
61.918343 -55.371914 21.914055
63.621071 -52.542942 18.50576
67.521362 -43.09848 23.009338
68.729019 -44.204559 23.479202
69.426788 -45.40509 23.957592
67.187332 -49.30228 36.469528
67.827431 -49.222767 33.606277
68.37233 -49.008438 30.721064
67.495384 -50.547775 31.339905
66.898918 -51.733585 29.177679
66.018326 -52.789726 27.159889
62.925789 -56.059292 38.651222
63.931145 -55.523312 33.418182
68.549881 -44.936024 29.071657
69.208435 -45.896118 26.764694
69.590721 -46.707703 24.469311
68.839859 -48.641777 27.856564
69.244919 -48.10968 25.036854
69.598099 -47.405785 22.271786
69.17038 -48.019562 20.226675
68.293259 -48.573799 18.356667
64.295769 -55.057106 30.696362
64.601471 -54.459419 27.977226
64.860954 -53.730755 25.293322
61.906307 -56.32077 24.448032
63.467934 -54.580246 23.557623
65.077011 -52.873119 22.661823
65.244064 -51.891918 20.0882
65.35051 -50.797783 17.570196
67.095871 -43.200041 29.567545
66.937447 -43.209286 28.228043
68.401073 -47.006392 34.170855
68.137333 -47.019227 35.607355
68.198273 -47.737853 34.464832
68.579296 -47.022768 32.74465
68.518357 -46.304142 33.887173
68.401073 -47.006392 34.170855
66.764499 -42.784622 24.121801
66.695484 -42.583435 22.768137
62.659588 -56.825648 37.696754
62.41766 -56.928955 38.927967
63.205315 -55.958479 37.371802
62.659588 -56.825648 37.696754
68.966645 -43.091387 19.352083
68.227623 -42.98755 20.492306
70.000675 -43.304062 17.114179
70.144314 -43.959477 17.379455
69.520946 -46.416714 16.297999
69.794967 -46.245716 17.247762
68.944831 -47.216602 16.69258
69.520946 -46.416714 16.297999
68.149197 -44.326645 32.950557
68.390656 -44.965885 33.288733
68.100235 -44.40168 31.582168
68.149197 -44.326645 32.950557
68.505619 -44.974058 30.47882
68.144497 -44.363646 30.175004
68.100235 -44.40168 31.582168
66.930538 -49.651352 17.926546
67.647621 -48.833597 17.506819
67.576176 -49.391554 18.776394
63.646668 -55.913786 31.09142
64.113457 -55.290209 32.057272
63.464355 -56.146889 32.452331
61.145947 -56.742138 23.617321
61.182062 -57.206326 24.876722
60.421701 -57.627693 24.046011
64.488068 -51.089617 16.813591
64.485791 -51.670362 18.037978
63.623348 -51.962196 17.281373
65.365921 -50.202706 16.33607
64.488068 -51.089617 16.813591
66.895585 -43.095883 26.848385
66.774151 -43.003299 25.499364
66.129071 -42.563347 26.583286
67.582527 -43.649238 27.14412
66.895585 -43.095883 26.848385
66.937447 -43.209286 28.228043
64.16145 -53.488126 39.143938
63.623112 -54.35557 39.353828
64.718765 -52.630001 38.874155
64.16145 -53.488126 39.143938
64.55981 -53.467055 37.841003
65.262775 -51.773333 38.6518
64.718765 -52.630001 38.874155
65.663616 -51.768481 37.298206
65.809265 -50.932885 38.378786
65.262775 -51.773333 38.6518
70.282955 -44.607046 17.639267
70.144314 -43.959477 17.379455
70.020027 -44.48569 18.7164
70.159775 -45.313776 17.940871
70.282955 -44.607046 17.639267
70.032535 -46.012793 18.233879
70.159775 -45.313776 17.940871
70.03143 -45.832276 19.26922
69.666622 -46.764215 18.576111
69.794967 -46.245716 17.247762
70.032535 -46.012793 18.233879
67.901684 -46.937966 37.010344
67.611728 -47.70298 37.306876
67.901684 -46.937966 37.010344
68.137333 -47.019227 35.607355
68.508266 -45.620098 33.576225
68.518357 -46.304142 33.887173
68.578968 -45.666305 32.173476
68.390656 -44.965885 33.288733
68.508266 -45.620098 33.576225
62.519775 -57.029106 29.229345
63.093864 -56.467081 30.149989
62.538109 -56.663891 27.921259
62.519775 -57.029106 29.229345
62.6147 -56.298096 26.596315
63.266754 -55.797901 27.488556
62.538109 -56.663891 27.921259
61.122845 -55.758922 21.1145
61.151965 -56.26771 22.350333
60.356467 -56.654719 21.550778
61.918335 -54.848971 20.672545
61.122845 -55.758922 21.1145
62.740951 -53.970056 20.217862
62.74096 -54.493 21.459372
61.918335 -54.848971 20.672545
62.769699 -53.434484 18.968398
63.592323 -53.078514 19.755224
62.740951 -53.970056 20.217862
62.757345 -52.86903 17.751836
62.769699 -53.434484 18.968398
63.623348 -51.962196 17.281373
62.757345 -52.86903 17.751836
67.552394 -42.771114 21.638481
66.695484 -42.583435 22.768137
68.19659 -43.314917 21.863163
68.227623 -42.98755 20.492306
67.552394 -42.771114 21.638481
67.531014 -43.317158 24.3869
66.764499 -42.784622 24.121801
66.774151 -43.003299 25.499364
66.321091 -50.096772 38.136282
65.809265 -50.932885 38.378786
66.809704 -49.283895 37.85845
66.321091 -50.096772 38.136282
66.698719 -50.115156 36.74736
67.238129 -48.478777 37.590973
66.809704 -49.283895 37.85845
67.560932 -48.526483 36.18543
67.611728 -47.70298 37.306876
67.238129 -48.478777 37.590973
59.700541 -58.075331 23.192443
60.421701 -57.627693 24.046011
59.646706 -57.582306 21.959347
59.700541 -58.075331 23.192443
60.356467 -56.654719 21.550778
59.646706 -57.582306 21.959347
62.572113 -56.093216 39.832775
62.41766 -56.928955 38.927967
63.084759 -55.222626 39.624046
62.572113 -56.093216 39.832775
63.464142 -55.192236 38.381004
63.623112 -54.35557 39.353828
63.084759 -55.222626 39.624046
63.743668 -55.091423 37.101584
63.464142 -55.192236 38.381004
63.205315 -55.958479 37.371802
64.059333 -54.997742 35.771842
64.318161 -54.231499 36.781044
63.743668 -55.091423 37.101584
63.707993 -55.690489 34.755282
64.282486 -54.830564 34.434742
64.059333 -54.997742 35.771842
63.337044 -56.385673 33.782532
63.707993 -55.690489 34.755282
63.464355 -56.146889 32.452331
63.337044 -56.385673 33.782532
69.471428 -43.244771 18.221884
68.966645 -43.091387 19.352083
69.376603 -43.684736 19.586789
69.471428 -43.244771 18.221884
70.000675 -43.304062 17.114179
67.681752 -43.776955 29.901064
67.095871 -43.200041 29.567545
68.087136 -44.349333 28.797717
67.681752 -43.776955 29.901064
68.144497 -44.363646 30.175004
68.376934 -48.004932 17.075917
68.944831 -47.216602 16.69258
68.861156 -47.785469 17.973331
68.376934 -48.004932 17.075917
67.647621 -48.833597 17.506819
63.742966 -55.610401 29.754931
63.646668 -55.913786 31.09142
63.093864 -56.467081 30.149989
61.896181 -56.742428 25.738525
61.182062 -57.206326 24.876722
62.624826 -55.876438 25.305822
62.6147 -56.298096 26.596315
61.896181 -56.742428 25.738525
66.176247 -49.945589 17.113583
66.930538 -49.651352 17.926546
66.104802 -50.503546 18.383159
66.176247 -49.945589 17.113583
65.365921 -50.202706 16.33607
3 68 18 69
3 0 20 19
3 0 22 20
3 0 24 22
3 1 27 25
3 1 28 27
3 2 70 72
3 72 71 29
3 70 71 72
3 2 73 75
3 73 30 74
3 73 74 75
3 2 32 30
3 3 35 33
3 3 37 35
3 76 41 77
3 5 42 17
3 5 43 42
3 6 44 21
3 6 45 44
3 6 47 45
3 8 48 23
3 8 49 48
3 78 50 79
3 81 80 50
3 4 82 83
3 85 84 26
3 10 86 87
3 10 88 89
3 11 90 91
3 11 92 93
3 11 94 96
3 94 52 95
3 94 95 96
3 12 53 31
3 12 54 53
3 7 55 46
3 13 56 34
3 13 57 56
3 13 58 57
3 14 59 36
3 14 97 99
3 99 98 59
3 97 98 99
3 100 60 101
3 102 101 51
3 100 101 102
3 15 61 38
3 15 62 61
3 9 103 105
3 103 63 104
3 103 104 105
3 16 64 39
3 16 65 64
3 16 66 65
3 106 67 107
3 108 107 40
3 106 107 108
3 110 109 67
3 111 17 112
3 111 112 113
3 18 114 116
3 114 17 115
3 114 115 116
3 18 5 17
3 19 117 118
3 20 119 121
3 121 120 19
3 119 120 121
3 20 122 123
3 20 124 126
3 124 21 125
3 124 125 126
3 22 21 20
3 22 6 21
3 22 23 6
3 24 23 22
3 24 8 23
3 25 26 4
3 27 26 25
3 27 127 129
3 129 128 26
3 127 128 129
3 27 130 131
3 28 132 134
3 134 133 27
3 132 133 134
3 28 135 137
3 135 10 136
3 135 136 137
3 29 138 139
3 141 140 29
3 30 142 143
3 30 144 146
3 144 11 145
3 144 145 146
3 30 31 11
3 32 31 30
3 32 12 31
3 33 34 7
3 35 34 33
3 35 13 34
3 35 36 13
3 37 36 35
3 37 14 36
3 147 38 148
3 149 38 150
3 151 15 152
3 153 152 38
3 151 152 153
3 154 39 155
3 156 155 9
3 154 155 156
3 157 39 158
3 159 16 160
3 161 160 39
3 159 160 161
3 162 40 163
3 164 163 16
3 162 163 164
3 165 40 166
3 168 167 40
3 41 169 170
3 41 171 173
3 171 4 172
3 171 172 173
3 17 174 176
3 174 41 175
3 174 175 176
3 42 41 17
3 42 4 41
3 42 25 4
3 43 25 42
3 43 1 25
3 21 177 178
3 44 179 181
3 181 180 21
3 179 180 181
3 44 182 183
3 44 184 186
3 184 29 185
3 184 185 186
3 45 29 44
3 45 2 29
3 45 46 2
3 47 46 45
3 47 7 46
3 23 47 6
3 48 47 23
3 48 7 47
3 48 33 7
3 49 33 48
3 49 3 33
3 187 9 188
3 189 9 190
3 192 191 9
3 50 193 194
3 50 195 196
3 50 197 199
3 197 19 198
3 197 198 199
3 200 19 201
3 202 201 50
3 200 201 202
3 203 0 204
3 205 204 19
3 203 204 205
3 206 51 207
3 208 207 0
3 206 207 208
3 209 51 210
3 212 211 51
3 26 213 215
3 215 214 4
3 213 214 215
3 217 216 26
3 218 18 219
3 52 220 222
3 220 18 221
3 220 221 222
3 52 5 18
3 31 52 11
3 53 52 31
3 53 5 52
3 53 43 5
3 54 43 53
3 54 1 43
3 46 32 2
3 55 32 46
3 55 12 32
3 34 55 7
3 56 55 34
3 56 12 55
3 56 54 12
3 57 54 56
3 57 1 54
3 57 28 1
3 58 28 57
3 58 10 28
3 36 58 13
3 59 58 36
3 59 10 58
3 59 223 225
3 225 224 10
3 223 224 225
3 227 226 59
3 51 24 0
3 60 24 51
3 60 8 24
3 38 228 230
3 228 60 229
3 228 229 230
3 61 60 38
3 61 8 60
3 61 49 8
3 62 49 61
3 62 3 49
3 63 231 232
3 63 233 235
3 233 15 234
3 233 234 235
3 39 63 9
3 64 63 39
3 64 15 63
3 64 62 15
3 65 62 64
3 65 3 62
3 65 37 3
3 66 37 65
3 66 14 37
3 40 66 16
3 67 66 40
3 67 14 66
3 67 236 238
3 238 237 14
3 236 237 238
3 240 239 67
