ply
format ascii 1.0
element vertex 218
property float x
property float y
property float z
element face 204
property list uchar int vertex_index
end_header
-45.184036 -98.729141 11.842463
-45.876541 -92.557465 22.219387
-42.675873 -95.339355 33.250954
-41.905926 -101.659866 21.040045
-45.541981 -89.549271 27.168438
-44.380825 -91.080673 33.072521
-44.522537 -94.182297 27.81094
-43.660095 -100.285309 16.486593
-41.97155 -103.409164 10.78643
-45.867462 -95.605682 17.087057
-40.394203 -95.359695 38.278084
-42.584373 -98.549118 27.245358
-44.436371 -97.229477 22.218061
-45.40501 -88.056366 29.539925
-45.800316 -87.208435 26.51063
-44.956406 -88.840195 32.54937
-45.010227 -90.363983 30.138569
-44.535366 -100.335312 9.203323
-45.879375 -97.952026 9.520179
-44.443558 -99.507904 14.169056
-42.931744 -101.834396 13.622867
-43.747299 -101.080994 11.416284
-42.837425 -102.686417 8.678363
-45.939575 -94.07486 19.671549
-42.689674 -93.656006 36.057655
-41.573753 -95.534668 35.838531
-41.537983 -97.25116 32.826096
-41.465897 -98.90303 29.682407
-42.668053 -96.96489 30.296089
-45.251148 -93.393921 25.022064
-44.541882 -95.70845 25.042904
-45.287769 -94.907791 22.362566
-45.19136 -96.427826 19.657553
-40.891636 -102.101547 23.253872
-39.015316 -106.376053 12.025162
-45.724232 -91.049698 24.72221
-43.638889 -91.622131 35.930515
-43.62645 -93.262604 33.322769
-43.665222 -94.858368 30.563005
-44.44305 -92.64241 30.497446
-45.135742 -91.880951 27.620611
-42.821594 -101.025009 18.781101
-41.208359 -103.213745 17.965801
-42.090679 -102.566452 15.810397
-41.107559 -104.127029 12.882888
-39.89473 -105.717468 10.015421
-45.62426 -97.154968 14.474139
-41.274937 -100.512634 26.472202
-42.350601 -100.109131 24.145823
-43.672703 -96.42038 27.69384
-43.573944 -97.961319 24.752228
-43.306198 -99.492966 21.771116
-44.154846 -98.752838 19.358707
-44.919983 -97.959259 16.921373
-45.549345 -86.899071 29.149437
-45.402523 -87.315354 30.675068
-45.178221 -87.707268 32.179791
-45.008328 -88.074966 33.68428
-45.402523 -87.315354 30.675068
-45.180708 -88.44828 31.044648
-45.178221 -87.707268 32.179791
-46.157894 -92.134697 20.822529
-46.189411 -92.893394 19.54861
-45.908058 -93.316162 20.945468
-41.082752 -102.673942 20.559151
-40.575608 -102.894783 21.666065
-41.398781 -101.880707 22.146959
-37.862983 -107.472145 11.584238
-38.296284 -107.191025 10.606211
-45.777529 -89.122772 25.681217
-45.868655 -89.872986 24.458103
-45.633106 -90.299485 25.945324
-45.997647 -86.777137 25.002659
-45.89655 -86.040214 26.107096
-44.009857 -91.351402 34.501518
-44.029598 -90.55693 35.715047
-44.400566 -90.286202 34.286051
-41.389767 -104.213821 9.389318
-40.351357 -105.367973 9.003814
-40.93314 -104.563316 10.400925
-42.716223 -103.154228 6.269599
-42.291357 -103.507866 7.324044
-43.262291 -102.332779 7.623918
-46.179636 -95.19429 15.805913
-46.058035 -95.968933 14.499454
-45.745861 -96.380325 15.780598
-40.476303 -94.391182 39.656216
-41.025062 -94.547264 38.463989
-39.785827 -95.05513 39.395588
-40.476303 -94.391182 39.656216
-39.714371 -96.033241 37.9072
-39.785827 -95.05513 39.395588
-40.277663 -104.250275 17.475978
-40.724478 -103.997894 16.459881
-45.746998 -86.475105 27.63479
-45.602663 -87.6324 28.025278
-45.549345 -86.899071 29.149437
-45.89655 -86.040214 26.107096
-45.746998 -86.475105 27.63479
-44.688356 -89.165963 34.024475
-45.008328 -88.074966 33.68428
-44.668616 -89.960434 32.810946
-44.400566 -90.286202 34.286051
-44.688356 -89.165963 34.024475
-44.906513 -99.96328 8.098695
-44.111261 -101.157227 7.886398
-45.578518 -98.771637 8.257123
-44.906513 -99.96328 8.098695
-45.207371 -99.143669 9.361751
-46.198999 -97.551895 8.366627
-45.578518 -98.771637 8.257123
-44.111261 -101.157227 7.886398
-43.262291 -102.332779 7.623918
-43.686396 -101.510864 8.940843
-46.236644 -93.656739 18.330824
-46.200588 -94.42215 17.038578
-45.903519 -94.840271 18.379303
-46.236644 -93.656739 18.330824
-46.189411 -92.893394 19.54861
-42.172798 -93.695419 37.353775
-42.740212 -92.779457 37.358351
-41.614838 -94.63475 37.244213
-42.172798 -93.695419 37.353775
-42.131714 -94.595337 35.948093
-40.983978 -95.447181 37.058307
-41.025062 -94.547264 38.463989
-41.614838 -94.63475 37.244213
-40.943289 -96.362129 35.545603
-40.353513 -96.274642 36.765379
-40.983978 -95.447181 37.058307
-40.925404 -97.220375 34.039385
-40.943289 -96.362129 35.545603
-41.555868 -96.392914 34.332313
-40.887987 -98.090989 32.435654
-40.925404 -97.220375 34.039385
-41.50194 -98.077095 31.254252
-40.851944 -98.916923 30.86381
-40.887987 -98.090989 32.435654
-40.057176 -102.996269 22.697737
-40.330576 -102.177971 24.335247
-40.057176 -102.996269 22.697737
-40.575608 -102.894783 21.666065
-38.584125 -106.64312 13.014867
-39.627956 -105.579048 13.489562
-38.584125 -106.64312 13.014867
-37.862983 -107.472145 11.584238
-45.98639 -90.624 23.275442
-46.062544 -91.377884 22.024031
-45.800387 -91.803582 23.470799
-45.98639 -90.624 23.275442
-45.868655 -89.872986 24.458103
-45.906697 -87.952354 25.352313
-45.777529 -89.122772 25.681217
-45.671149 -88.378853 26.839534
-45.906697 -87.952354 25.352313
-45.997647 -86.777137 25.002659
-43.711034 -90.776527 37.134455
-44.029598 -90.55693 35.715047
-43.214819 -91.762519 37.294781
-43.711034 -90.776527 37.134455
-43.164282 -92.639069 35.994085
-42.740212 -92.779457 37.358351
-43.214819 -91.762519 37.294781
-41.165638 -103.674248 15.382179
-40.724478 -103.997894 16.459881
-41.649519 -102.890098 16.888099
-40.674078 -104.454536 13.918425
-41.165638 -103.674248 15.382179
-41.599119 -103.34674 14.346642
-40.061437 -105.251541 12.454025
-39.627956 -105.579048 13.489562
-40.674078 -104.454536 13.918425
-38.73599 -106.861732 9.60134
-38.296284 -107.191025 10.606211
-39.455023 -106.046761 11.020291
-39.199549 -106.531768 8.61588
-38.73599 -106.861732 9.60134
-39.656176 -106.182274 7.604273
-39.199549 -106.531768 8.61588
-40.351357 -105.367973 9.003814
-41.822704 -103.852448 8.335285
-41.389767 -104.213821 9.389318
-42.404488 -103.047791 9.732397
-41.822704 -103.852448 8.335285
-42.291357 -103.507866 7.324044
-45.95279 -96.75322 13.25358
-45.732678 -97.540306 11.937743
-45.404148 -97.942054 13.158301
-45.95279 -96.75322 13.25358
-46.058035 -95.968933 14.499454
-46.179636 -95.19429 15.805913
-46.200588 -94.42215 17.038578
-46.157894 -92.134697 20.822529
-46.062544 -91.377884 22.024031
-39.714371 -96.033241 37.9072
-40.353513 -96.274642 36.765379
-40.775223 -99.756317 29.211462
-40.851944 -98.916923 30.86381
-40.679743 -100.561119 27.606359
-40.775223 -99.756317 29.211462
-41.370417 -99.707832 28.077305
-40.522227 -101.383515 25.944412
-40.679743 -100.561119 27.606359
-41.083286 -101.307091 24.863037
-40.330576 -102.177971 24.335247
-40.522227 -101.383515 25.944412
-46.080347 -97.151748 10.776601
-45.531706 -98.340584 10.681321
-45.732678 -97.540306 11.937743
-46.38719 -96.742218 9.566507
-46.080347 -97.151748 10.776601
-46.198999 -97.551895 8.366627
-46.38719 -96.742218 9.566507
-40.733969 -103.450882 19.022029
-41.082752 -102.673942 20.559151
-41.557142 -102.436805 19.502923
-40.733969 -103.450882 19.022029
-40.277663 -104.250275 17.475978
3 55 54 13
3 56 15 57
3 58 13 59
3 60 59 15
3 58 59 60
3 0 18 17
3 0 21 19
3 0 17 21
3 1 61 63
3 63 62 23
3 61 62 63
3 2 25 24
3 2 26 25
3 2 28 26
3 1 31 29
3 1 23 31
3 3 64 66
3 66 65 33
3 64 65 66
3 68 67 34
3 4 69 71
3 71 70 35
3 69 70 71
3 73 72 14
3 5 74 76
3 74 36 75
3 74 75 76
3 5 37 36
3 5 39 37
3 4 40 16
3 4 35 40
3 7 43 41
3 8 44 20
3 8 45 44
3 8 77 79
3 79 78 45
3 77 78 79
3 82 81 22
3 80 81 82
3 9 83 85
3 85 84 46
3 83 84 85
3 10 86 87
3 10 88 89
3 10 90 91
3 11 47 27
3 11 48 47
3 6 49 38
3 12 50 30
3 12 51 50
3 12 52 51
3 9 53 32
3 9 46 53
3 93 92 42
3 13 14 4
3 94 14 95
3 96 95 13
3 94 95 96
3 98 97 14
3 15 99 100
3 15 101 103
3 101 5 102
3 101 102 103
3 15 16 5
3 13 16 15
3 13 4 16
3 17 104 105
3 18 106 108
3 108 107 17
3 106 107 108
3 18 109 110
3 19 20 7
3 21 20 19
3 21 8 20
3 21 22 8
3 17 22 21
3 17 111 113
3 113 112 22
3 111 112 113
3 23 114 116
3 116 115 9
3 114 115 116
3 118 117 23
3 24 119 120
3 25 121 123
3 123 122 24
3 121 122 123
3 25 124 126
3 124 10 125
3 124 125 126
3 25 127 129
3 129 128 10
3 127 128 129
3 26 130 132
3 132 131 25
3 130 131 132
3 26 133 134
3 26 135 137
3 135 27 136
3 135 136 137
3 28 27 26
3 28 11 27
3 29 30 6
3 31 30 29
3 31 12 30
3 31 32 12
3 23 32 31
3 23 9 32
3 33 138 139
3 141 140 33
3 34 142 143
3 145 144 34
3 35 146 148
3 148 147 1
3 146 147 148
3 150 149 35
3 14 151 153
3 153 152 4
3 151 152 153
3 155 154 14
3 36 156 157
3 36 158 159
3 36 160 162
3 160 24 161
3 160 161 162
3 37 24 36
3 37 2 24
3 37 38 2
3 39 38 37
3 39 6 38
3 16 39 5
3 40 39 16
3 40 6 39
3 40 29 6
3 35 29 40
3 35 1 29
3 41 42 3
3 43 42 41
3 43 163 165
3 165 164 42
3 163 164 165
3 20 43 7
3 44 43 20
3 44 166 168
3 168 167 43
3 166 167 168
3 44 169 171
3 169 34 170
3 169 170 171
3 45 34 44
3 45 172 174
3 174 173 34
3 172 173 174
3 45 175 176
3 179 178 45
3 177 178 179
3 22 180 182
3 182 181 8
3 180 181 182
3 184 183 22
3 46 185 187
3 187 186 0
3 185 186 187
3 189 188 46
3 191 190 9
3 193 192 1
3 195 194 10
3 27 196 197
3 47 198 200
3 200 199 27
3 198 199 200
3 47 201 202
3 47 203 205
3 203 33 204
3 203 204 205
3 48 33 47
3 48 3 33
3 38 28 2
3 49 28 38
3 49 11 28
3 30 49 6
3 50 49 30
3 50 11 49
3 50 48 11
3 51 48 50
3 51 3 48
3 51 41 3
3 52 41 51
3 52 7 41
3 32 52 12
3 53 52 32
3 53 7 52
3 53 19 7
3 46 19 53
3 46 0 19
3 206 18 207
3 208 207 0
3 206 207 208
3 209 18 210
3 212 211 18
3 42 213 215
3 215 214 3
3 213 214 215
3 217 216 42
