ply
format ascii 1.0
element vertex 214
property float x
property float y
property float z
element face 212
property list uchar int vertex_index
end_header
41.602715 28.147312 47.305573
42.631516 35.200233 38.404007
42.493549 23.39209 37.610298
45.536674 16.442116 46.387421
41.669304 31.75206 42.74926
41.93494 29.293617 38.120834
41.900845 25.677834 42.492928
47.253506 15.022583 41.450905
42.666706 27.074474 33.463482
44.200832 21.528297 32.852707
44.225452 18.181366 51.252205
42.856529 22.017525 46.988487
43.617153 19.879238 42.003551
45.190235 18.185452 37.097775
41.269619 31.211796 47.277161
41.415874 32.994823 44.973583
41.532097 29.984612 45.014
41.663536 28.72406 42.665955
41.773361 26.914848 44.926552
42.30899 36.360718 40.505173
42.849148 34.068951 36.237473
41.98217 26.302944 37.876671
42.183006 28.146427 35.782478
42.406937 25.209381 35.495293
43.143326 24.210255 33.149483
43.17099 22.404484 35.21022
46.538521 14.70322 48.47187
44.869659 17.303097 48.848297
43.535149 20.129368 49.176231
43.99577 19.121784 46.709709
43.179752 20.914165 44.49868
44.525459 18.159893 44.216599
46.132252 16.590443 39.277794
47.325489 16.031429 36.860027
46.438263 17.550316 34.703964
41.76054 34.697716 42.708656
42.039482 33.480167 40.541939
42.208755 32.279522 38.309364
41.804947 30.504593 40.453178
41.773277 27.48304 40.275631
42.102604 24.490269 40.044384
48.456757 12.352701 48.051544
47.430187 14.024017 46.031944
46.308647 15.665207 43.912109
48.435295 13.458824 43.581261
42.383976 31.123585 36.042267
42.692039 30.025478 33.770416
43.250546 28.983967 31.520128
43.478298 26.073994 31.181404
41.826408 26.214951 49.577492
42.541443 23.125759 49.431091
42.08939 25.054958 47.19812
42.283432 23.861576 44.74411
42.520878 22.698425 42.262932
42.913288 21.618591 39.789413
45.213898 17.303249 41.732243
44.263325 18.961166 39.531525
43.557697 20.657177 37.34655
44.524334 19.826729 34.945381
45.846214 19.115864 32.584061
42.830608 36.611515 38.384784
42.669346 37.191757 39.435367
42.470253 35.780475 39.45459
43.014798 36.069316 37.365654
42.830608 36.611515 38.384784
42.740332 34.634592 37.32074
43.123614 35.503675 36.282387
43.014798 36.069316 37.365654
48.574699 15.114818 36.735361
47.871769 15.284256 37.938791
49.12098 14.367646 37.814125
48.066584 15.818133 35.665636
48.574699 15.114818 36.735361
49.002922 12.112733 46.841837
49.46357 11.294481 47.809507
48.489638 12.948391 45.832037
47.943472 13.188359 47.041744
49.002922 12.112733 46.841837
48.992192 12.665795 44.606696
47.932741 13.741421 44.806602
48.489638 12.948391 45.832037
44.22554 22.412492 31.849391
43.696787 23.753471 31.997779
43.672079 22.869276 33.001095
44.903423 21.136663 31.692843
44.22554 22.412492 31.849391
41.978159 25.192473 50.67411
41.610703 26.745459 50.699425
44.53082 17.170345 52.207459
44.961691 16.809646 51.05856
43.871418 18.593782 52.397926
44.53082 17.170345 52.207459
43.635637 19.647091 51.409508
43.281603 20.059507 52.555229
43.871418 18.593782 52.397926
46.92863 18.071297 32.460977
46.142239 18.33309 33.644013
47.224655 17.288523 33.520929
46.680145 18.803606 31.415442
46.92863 18.071297 32.460977
41.342747 32.103309 46.125372
41.186501 33.58839 46.028082
41.113373 32.696877 47.179871
42.38541 37.741855 40.40638
42.125267 38.322744 41.409394
42.048847 36.941606 41.508187
42.38541 37.741855 40.40638
42.669346 37.191757 39.435367
43.258128 34.977057 35.22947
43.123614 35.503675 36.282387
42.966002 33.525042 35.136902
43.258128 34.977057 35.22947
46.118225 15.070574 49.668392
46.979302 13.810592 49.449245
45.283794 16.370512 49.856606
46.118225 15.070574 49.668392
45.70409 16.003159 48.660083
44.547556 17.742232 50.050251
44.961691 16.809646 51.05856
45.283794 16.370512 49.856606
47.275151 15.563763 39.147675
46.692879 15.806513 40.36435
47.835778 14.779833 40.23423
46.72887 16.310936 38.068911
47.275151 15.563763 39.147675
47.871769 15.284256 37.938791
47.622971 16.577576 34.587604
46.881876 16.790872 35.781996
48.066584 15.818133 35.665636
47.224655 17.288523 33.520929
47.622971 16.577576 34.587604
41.349306 34.44334 44.874014
41.186501 33.58839 46.028082
41.521639 35.294787 43.741551
41.349306 34.44334 44.874014
41.588207 33.846269 43.841119
41.774622 36.110106 42.609928
41.521639 35.294787 43.741551
42.034765 35.529217 41.606915
42.048847 36.941606 41.508187
41.774622 36.110106 42.609928
48.865971 11.487992 48.992569
49.872784 10.429772 48.750532
49.46357 11.294481 47.809507
47.93842 12.635332 49.239082
48.865971 11.487992 48.992569
47.497639 13.52796 48.261707
46.979302 13.810592 49.449245
47.93842 12.635332 49.239082
49.587876 12.49089 43.39016
48.992192 12.665795 44.606696
50.144772 11.697861 44.415594
49.017635 13.250805 42.361603
49.587876 12.49089 43.39016
48.426741 14.032684 41.296425
47.844401 14.240703 42.516083
49.017635 13.250805 42.361603
47.835778 14.779833 40.23423
48.426741 14.032684 41.296425
41.029941 31.77955 48.339398
41.113373 32.696877 47.179871
41.276463 30.262791 48.427799
41.029941 31.77955 48.339398
41.44301 28.730549 48.442006
41.436167 29.679554 47.291367
41.276463 30.262791 48.427799
42.733415 32.052359 35.039299
42.966002 33.525042 35.136902
42.616562 32.596268 36.13987
42.887447 31.503305 33.903374
42.733415 32.052359 35.039299
42.538007 30.574531 34.906341
43.077663 30.981302 32.801459
42.887447 31.503305 33.903374
43.356916 30.460546 31.676315
43.077663 30.981302 32.801459
42.971293 29.504722 32.645272
43.678642 29.954767 30.587173
43.356916 30.460546 31.676315
43.698391 28.485037 30.414445
44.126487 29.455838 29.48149
43.678642 29.954767 30.587173
43.812267 27.030051 30.245083
43.698391 28.485037 30.414445
43.364422 27.52898 31.350766
44.072899 25.601452 30.061182
43.812267 27.030051 30.245083
43.864273 24.685341 31.013739
43.310812 25.142125 32.165443
43.696787 23.753471 31.997779
44.072899 25.601452 30.061182
43.864273 24.685341 31.013739
41.554857 27.764368 49.577965
41.610703 26.745459 50.699425
41.714562 27.181131 48.441533
41.44301 28.730549 48.442006
41.554857 27.764368 49.577965
43.290486 20.621092 50.371521
43.635637 19.647091 51.409508
43.8803 19.155367 50.214218
42.793633 22.119287 50.498951
43.290486 20.621092 50.371521
43.038296 21.627564 49.303661
42.335677 23.647876 50.60091
42.793633 22.119287 50.498951
42.183926 24.670355 49.504292
41.978159 25.192473 50.67411
42.335677 23.647876 50.60091
45.726114 19.930446 31.558519
44.903423 21.136663 31.692843
45.023523 20.32208 32.718384
46.560045 19.618188 30.3899
45.726114 19.930446 31.558519
46.680145 18.803606 31.415442
3 0 16 14
3 0 18 16
3 1 60 62
3 62 61 19
3 60 61 62
3 1 63 64
3 1 65 67
3 65 20 66
3 65 66 67
3 2 23 21
3 2 25 23
3 3 27 26
3 3 29 27
3 3 31 29
3 68 33 69
3 68 69 70
3 72 71 33
3 4 35 15
3 4 36 35
3 4 38 36
3 6 39 17
3 6 40 39
3 73 41 74
3 75 42 76
3 77 76 41
3 75 76 77
3 78 44 79
3 80 79 42
3 78 79 80
3 5 45 37
3 8 46 22
3 8 47 46
3 8 48 47
3 9 81 83
3 83 82 24
3 81 82 83
3 9 84 85
3 86 49 87
3 10 88 89
3 10 90 91
3 10 92 94
3 92 93 94
3 11 50 28
3 11 51 50
3 11 52 51
3 12 53 30
3 12 54 53
3 7 55 43
3 13 56 32
3 13 57 56
3 13 58 57
3 95 59 96
3 97 96 34
3 95 96 97
3 99 98 59
3 14 100 102
3 100 15 101
3 100 101 102
3 16 15 14
3 16 4 15
3 16 17 4
3 18 17 16
3 18 6 17
3 19 103 105
3 103 104 105
3 107 106 19
3 20 108 109
3 20 110 111
3 21 22 5
3 23 22 21
3 23 8 22
3 23 24 8
3 25 24 23
3 25 9 24
3 26 112 113
3 27 114 116
3 116 115 26
3 114 115 116
3 27 117 119
3 117 10 118
3 117 118 119
3 27 28 10
3 29 28 27
3 29 11 28
3 29 30 11
3 31 30 29
3 31 12 30
3 120 32 121
3 122 121 7
3 120 121 122
3 33 123 125
3 123 32 124
3 123 124 125
3 33 13 32
3 33 34 13
3 126 34 127
3 128 127 33
3 126 127 128
3 130 129 34
3 15 131 132
3 35 133 135
3 135 134 15
3 133 134 135
3 35 136 137
3 35 138 140
3 138 19 139
3 138 139 140
3 36 19 35
3 36 1 19
3 36 37 1
3 38 37 36
3 38 5 37
3 17 38 4
3 39 38 17
3 39 5 38
3 39 21 5
3 40 21 39
3 40 2 21
3 41 141 143
3 141 142 143
3 41 144 145
3 41 146 148
3 146 26 147
3 146 147 148
3 42 26 41
3 42 3 26
3 42 43 3
3 44 43 42
3 44 7 43
3 149 44 150
3 149 150 151
3 152 44 153
3 154 7 155
3 156 155 44
3 154 155 156
3 158 157 7
3 159 14 160
3 161 14 162
3 163 0 164
3 165 164 14
3 163 164 165
3 37 20 1
3 45 20 37
3 45 166 168
3 168 167 20
3 166 167 168
3 22 45 5
3 46 45 22
3 46 169 171
3 171 170 45
3 169 170 171
3 46 172 173
3 47 174 176
3 176 175 46
3 174 175 176
3 47 177 178
3 47 179 181
3 179 180 181
3 48 182 184
3 184 183 47
3 182 183 184
3 48 185 186
3 24 48 8
3 187 48 188
3 189 188 24
3 187 188 189
3 191 190 48
3 49 192 193
3 49 194 196
3 194 0 195
3 194 195 196
3 28 197 199
3 199 198 10
3 197 198 199
3 50 200 202
3 202 201 28
3 200 201 202
3 50 203 204
3 50 205 207
3 205 49 206
3 205 206 207
3 51 49 50
3 51 0 49
3 51 18 0
3 52 18 51
3 52 6 18
3 30 52 11
3 53 52 30
3 53 6 52
3 53 40 6
3 54 40 53
3 54 2 40
3 43 31 3
3 55 31 43
3 55 12 31
3 32 55 7
3 56 55 32
3 56 12 55
3 56 54 12
3 57 54 56
3 57 2 54
3 57 25 2
3 58 25 57
3 58 9 25
3 34 58 13
3 59 58 34
3 59 9 58
3 59 208 210
3 210 209 9
3 208 209 210
3 213 212 59
3 211 212 213
