ply
format ascii 1.0
element vertex 191
property float x
property float y
property float z
element face 183
property list uchar int vertex_index
end_header
40.055321 61.472893 24.367535
43.255672 60.191452 17.780977
37.077663 68.749542 15.412534
41.702991 61.308571 21.643847
38.646358 64.899513 20.517519
40.493336 64.984352 16.528133
36.926064 63.156677 24.361565
34.764042 67.501564 19.740753
44.720909 61.353134 7.80862
44.979881 58.199158 13.505424
35.686287 72.221146 9.826101
39.413681 68.479042 10.984397
42.386566 63.672859 12.174652
39.443897 58.82058 27.960453
40.852142 61.492821 23.218401
42.158302 59.519547 23.985432
41.133919 59.871887 25.243652
39.431385 63.026962 22.705627
40.263897 63.26564 21.018003
38.732983 62.271492 24.401443
37.754795 64.240166 22.412151
46.10173 58.496719 8.569998
46.156059 59.948723 5.767693
44.051758 59.285179 15.655032
36.364742 70.554695 12.657304
37.658752 70.482674 10.401423
38.245476 68.80204 13.216505
41.937489 62.696487 17.135395
41.416176 64.481979 14.381429
42.779198 61.959511 14.998921
43.708401 60.979111 12.813101
35.909973 68.310822 17.577768
35.073292 70.262993 14.90416
42.497871 60.875114 19.803398
37.842567 66.842842 18.05257
38.883751 67.004135 15.955522
39.571781 65.135139 18.575466
41.110725 63.143288 19.157965
35.805019 65.329666 22.160667
36.807125 66.279831 20.103254
43.325466 64.162605 7.12748
46.115215 56.978485 11.408318
40.607986 67.810783 8.733498
39.920174 66.778 13.790841
40.973419 66.196777 11.571612
42.090843 65.306976 9.334266
43.469826 62.611221 9.963493
44.800854 59.808296 10.647892
38.137089 61.001091 26.293465
39.825981 60.337204 25.982677
41.07505 58.265701 27.285423
46.850594 57.790283 7.603371
46.791847 57.078666 8.99974
43.864095 58.868725 18.121225
44.262138 58.415588 17.058252
43.653715 59.738315 16.718004
42.361131 60.178002 22.004884
42.758572 59.961273 21.08466
42.100431 61.091842 20.723623
42.78343 58.372284 24.406172
42.270454 58.641048 25.112536
36.365541 64.243172 23.261116
35.33033 64.691422 23.221096
35.890852 63.604927 24.321545
44.715736 62.085281 6.406001
44.018015 63.490017 6.065431
44.023187 62.757869 7.46805
46.196533 60.63409 4.389848
46.944826 59.193416 4.829409
45.59684 56.802524 13.882979
46.164507 56.192188 12.834426
45.547548 57.588821 12.456871
36.391458 72.121731 8.682983
35.346541 72.978722 8.385589
39.186287 69.268109 9.561497
38.308823 70.269925 9.27001
38.536216 69.480858 10.69291
40.010833 68.144913 9.858947
39.78344 68.933979 8.436048
39.186287 69.268109 9.561497
33.672337 68.079361 19.592218
34.216772 66.935581 20.84145
34.598564 72.990818 9.552366
34.985153 72.154431 10.976883
35.346541 72.978722 8.385589
34.598564 72.990818 9.552366
38.790493 59.910836 27.126959
37.825178 60.224602 27.327869
38.478583 59.134346 28.161364
41.758263 58.817218 25.741647
42.270454 58.641048 25.112536
41.64611 59.695717 24.614542
46.877758 58.516285 6.202218
46.128895 59.222721 7.168845
46.850594 57.790283 7.603371
46.944826 59.193416 4.829409
46.877758 58.516285 6.202218
44.653363 57.912152 16.005238
45.117424 57.369141 14.930434
44.515819 58.742168 14.580228
44.653363 57.912152 16.005238
44.262138 58.415588 17.058252
34.855801 68.964684 17.367436
34.282835 68.560055 18.448929
35.337007 67.906193 18.659261
34.43746 69.940769 16.030632
34.855801 68.964684 17.367436
35.491633 69.286907 16.240964
33.988871 70.945603 14.678247
34.43746 69.940769 16.030632
34.678656 71.175354 13.515912
33.988871 70.945603 14.678247
35.324381 71.321205 12.392485
34.678656 71.175354 13.515912
35.719017 70.408844 13.780732
36.025514 71.387921 11.241702
34.985153 72.154431 10.976883
35.324381 71.321205 12.392485
39.191006 57.982594 29.023235
38.478583 59.134346 28.161364
40.120966 57.689754 28.68943
39.191006 57.982594 29.023235
43.130636 59.632885 20.148848
43.509536 59.291054 19.137637
42.876772 60.533283 18.792188
43.130636 59.632885 20.148848
42.758572 59.961273 21.08466
42.588787 59.28349 23.175677
42.361131 60.178002 22.004884
41.930646 60.414059 22.814639
42.588787 59.28349 23.175677
42.78343 58.372284 24.406172
34.737261 65.849632 22.051406
35.33033 64.691422 23.221096
35.284531 66.415615 20.95071
34.216772 66.935581 20.84145
34.737261 65.849632 22.051406
43.280749 64.889023 5.722253
42.59749 65.501373 6.812291
43.280749 64.889023 5.722253
44.018015 63.490017 6.065431
45.433312 61.383076 5.385537
44.715736 62.085281 6.406001
45.438484 60.650928 6.788157
45.433312 61.383076 5.385537
46.196533 60.63409 4.389848
46.763315 55.578914 11.829677
46.798589 56.31955 10.4189
46.763315 55.578914 11.829677
46.164507 56.192188 12.834426
45.59684 56.802524 13.882979
45.117424 57.369141 14.930434
43.864095 58.868725 18.121225
43.509536 59.291054 19.137637
37.377691 71.252495 8.970644
36.391458 72.121731 8.682983
36.672519 71.35191 10.113762
37.377691 71.252495 8.970644
38.308823 70.269925 9.27001
40.448043 68.557232 7.310021
39.78344 68.933979 8.436048
41.23875 67.325462 7.6153
40.448043 68.557232 7.310021
41.980179 66.073559 7.915684
41.23875 67.325462 7.6153
41.349414 66.55888 9.033882
42.708154 64.734791 8.230873
42.59749 65.501373 6.812291
41.980179 66.073559 7.915684
46.798589 56.31955 10.4189
46.791847 57.078666 8.99974
46.108473 57.737602 9.989158
33.672337 68.079361 19.592218
34.282835 68.560055 18.448929
36.533265 62.450394 25.394897
35.890852 63.604927 24.321545
37.138777 61.372601 26.360847
37.825178 60.224602 27.327869
37.531576 62.078884 25.327515
36.533265 62.450394 25.394897
37.138777 61.372601 26.360847
41.728828 58.014125 26.762532
41.758263 58.817218 25.741647
41.104484 59.068794 26.264538
40.936543 57.412315 28.351915
40.259473 58.54314 27.622938
40.120966 57.689754 28.68943
41.715812 57.128803 27.878082
40.936543 57.412315 28.351915
41.728828 58.014125 26.762532
41.715812 57.128803 27.878082
3 0 16 14
3 0 14 17
3 0 17 19
3 52 51 21
3 1 53 55
3 55 54 23
3 53 54 55
3 2 26 24
3 1 29 27
3 1 23 29
3 2 32 31
3 2 24 32
3 3 56 58
3 58 57 33
3 56 57 58
3 60 59 15
3 4 36 34
3 3 37 18
3 3 33 37
3 6 61 63
3 61 38 62
3 61 62 63
3 4 39 20
3 4 34 39
3 8 64 66
3 66 65 40
3 64 65 66
3 68 67 22
3 9 69 71
3 71 70 41
3 69 70 71
3 10 72 73
3 11 74 76
3 76 75 25
3 74 75 76
3 11 77 79
3 77 42 78
3 77 78 79
3 5 43 35
3 12 44 28
3 12 45 44
3 12 46 45
3 9 47 30
3 9 41 47
3 7 80 81
3 10 82 83
3 10 84 85
3 13 86 88
3 86 48 87
3 86 87 88
3 13 49 48
3 13 50 49
3 14 15 3
3 16 15 14
3 16 89 91
3 91 90 15
3 89 90 91
3 17 18 4
3 14 18 17
3 14 3 18
3 19 20 6
3 17 20 19
3 17 4 20
3 21 22 8
3 92 22 93
3 94 93 21
3 92 93 94
3 96 95 22
3 23 97 99
3 99 98 9
3 97 98 99
3 101 100 23
3 24 25 10
3 26 25 24
3 26 11 25
3 27 28 5
3 29 28 27
3 29 12 28
3 29 30 12
3 23 30 29
3 23 9 30
3 31 102 104
3 104 103 7
3 102 103 104
3 32 105 107
3 107 106 31
3 105 106 107
3 32 108 109
3 32 110 111
3 24 112 114
3 114 113 32
3 112 113 114
3 24 115 117
3 115 10 116
3 115 116 117
3 118 13 119
3 121 120 13
3 33 122 124
3 124 123 1
3 122 123 124
3 126 125 33
3 15 127 129
3 129 128 3
3 127 128 129
3 131 130 15
3 34 35 2
3 36 35 34
3 36 5 35
3 18 36 4
3 37 36 18
3 37 5 36
3 37 27 5
3 33 27 37
3 33 1 27
3 38 132 133
3 38 134 136
3 134 7 135
3 134 135 136
3 20 38 6
3 39 38 20
3 39 7 38
3 39 31 7
3 34 31 39
3 34 2 31
3 40 137 138
3 140 139 40
3 22 141 143
3 143 142 8
3 141 142 143
3 145 144 22
3 41 146 147
3 149 148 41
3 151 150 9
3 153 152 1
3 25 154 156
3 156 155 10
3 154 155 156
3 158 157 25
3 42 159 160
3 42 161 162
3 35 26 2
3 43 26 35
3 43 11 26
3 28 43 5
3 44 43 28
3 44 11 43
3 44 42 11
3 45 42 44
3 45 163 165
3 165 164 42
3 163 164 165
3 45 166 168
3 166 40 167
3 166 167 168
3 46 40 45
3 46 8 40
3 30 46 12
3 47 46 30
3 47 8 46
3 47 21 8
3 41 21 47
3 41 169 171
3 171 170 21
3 169 170 171
3 173 172 7
3 174 6 175
3 48 176 177
3 48 178 180
3 178 6 179
3 178 179 180
3 48 19 6
3 49 19 48
3 49 0 19
3 49 16 0
3 50 16 49
3 50 181 183
3 183 182 16
3 181 182 183
3 184 50 185
3 186 185 13
3 184 185 186
3 187 50 188
3 190 189 50
