ply
format ascii 1.0
element vertex 295
property float x
property float y
property float z
element face 283
property list uchar int vertex_index
end_header
-38.96447 10.508842 -16.933002
-34.674217 20.235401 1.408885
-45.10107 0.935953 -20.564217
-38.302097 5.764004 -8.492546
-34.252434 23.226307 -6.416525
-41.847797 4.745193 -19.053162
-41.74395 8.081278 -23.293098
-33.997913 29.385067 0.493006
-34.275448 21.919285 -2.365231
-33.424889 30.711426 -3.363897
-33.223221 31.393661 -7.450052
-35.609276 18.171307 4.642209
-35.176228 27.408627 3.791076
-44.575981 -3.137569 -15.998495
-41.454166 1.512341 -14.682423
-38.733177 8.069372 -12.760927
-35.909824 12.545357 -2.853071
-36.07354 14.302223 -6.951347
-36.32341 15.989819 -11.089964
-34.306053 24.249287 -10.504208
-33.048817 31.594246 -11.486715
-40.367569 7.402119 -18.015003
-41.875835 6.414776 -21.194759
-40.3605 8.859388 -20.092018
-34.08519 33.530235 -0.583759
-33.646034 30.132946 -1.386335
-33.706638 34.155815 -2.509792
-33.453213 34.576267 -4.518456
-36.012989 26.213726 5.139815
-46.305153 -4.720288 -16.237938
-39.797962 3.229654 -11.576494
-40.050434 4.573944 -13.747438
-38.525463 6.899702 -10.632519
-35.305168 15.443947 1.341872
-35.111435 16.376347 -0.508573
-34.233017 22.615902 -4.372898
-35.029755 18.040455 -4.46665
-35.093487 18.784836 -6.514767
-36.205688 15.149727 -9.026024
-35.180618 19.48534 -8.572802
-35.248699 20.154736 -10.619518
-34.291706 23.764938 -8.467678
-33.152779 31.538845 -9.488333
-36.983437 20.430477 6.80793
-43.422001 2.587513 -19.933315
-45.16853 3.033327 -22.840725
-43.474495 4.472094 -22.143028
-43.362354 6.354168 -24.324467
-43.053669 8.18906 -26.462276
-34.215519 24.918617 1.144853
-34.414249 21.126953 -0.426435
-33.902851 25.752407 -0.701424
-33.719135 26.452896 -2.652525
-33.634106 27.023846 -4.669836
-33.607857 27.477154 -6.717615
-33.298656 31.126263 -5.397812
-35.070358 19.24736 3.107795
-36.064072 21.693138 5.700879
-35.292526 22.875092 4.375623
-34.676056 23.955788 2.848355
-34.504318 28.472446 2.231739
-34.618458 32.702522 1.213771
-44.893578 -1.129946 -18.28323
-42.959156 -1.064251 -15.461081
-43.239384 0.73423 -17.704384
-41.695541 3.104153 -16.879688
-40.251736 5.96759 -15.896782
-38.89217 9.274378 -14.864838
-36.993172 8.937849 -5.547194
-35.026222 17.240486 -2.454758
-35.964703 13.437485 -4.885841
-37.150707 9.920328 -7.643217
-37.327251 10.909674 -9.74588
-37.490902 11.913649 -11.837379
-37.603649 12.936031 -13.903051
-36.384861 16.8293 -13.127789
-33.59515 27.831802 -8.765612
-33.552299 28.11208 -10.790508
-34.114508 35.709913 -2.301982
-33.895914 33.843025 -1.546776
-34.303783 35.397123 -1.338966
-33.916355 35.941923 -3.289084
-34.114508 35.709913 -2.301982
-46.029291 1.496598 -21.895386
-45.992306 0.347058 -20.725738
-39.05003 4.496829 -10.03452
-39.660198 2.58282 -10.485271
-38.912266 3.849995 -8.943297
-33.368505 34.688898 -5.542032
-33.646711 36.265537 -5.309488
-35.614401 16.307837 3.855517
-35.835093 15.77759 4.645679
-35.339817 18.709333 3.875002
-35.344942 16.845863 3.08831
-35.614401 16.307837 3.855517
-36.53451 23.302674 5.979088
-36.523755 21.061808 6.254404
-36.994192 22.671343 6.532614
-35.197121 34.168181 1.351616
-34.970145 32.194862 2.026513
-34.841801 34.632033 0.493968
-35.197121 34.168181 1.351616
-46.008287 3.690581 -24.208098
-45.115822 4.079754 -23.973968
-45.616478 -2.824365 -17.278726
-46.481064 -3.615725 -17.398447
-45.440567 -3.928929 -16.118216
-44.73478 -2.133757 -17.140863
-45.775277 -1.820554 -18.421093
-45.616478 -2.824365 -17.278726
-42.206661 0.224045 -15.071752
-42.056692 -0.541547 -13.964513
-41.304197 0.746749 -13.575184
-36.394437 10.249346 -3.165519
-35.920675 12.081479 -1.865801
-36.451498 10.741603 -4.200133
-36.936111 8.445592 -4.51258
-36.394437 10.249346 -3.165519
-34.780254 22.52686 -11.571901
-35.251577 20.479584 -11.629556
-34.777376 22.202011 -10.561863
-34.280256 24.473473 -11.507659
-34.780254 22.52686 -11.571901
-33.247017 29.97006 -12.13177
-33.498758 28.228977 -11.783667
-33.300558 29.853163 -11.138611
-32.969113 31.59697 -12.456442
-33.247017 29.97006 -12.13177
-33.789642 36.152149 -4.293416
-33.579926 34.366041 -3.514124
-33.916355 35.941923 -3.289084
-33.646711 36.265537 -5.309488
-33.789642 36.152149 -4.293416
-35.950314 17.595983 5.316687
-35.835093 15.77759 4.645679
-36.622892 27.702808 5.289104
-36.508968 25.562967 5.698556
-36.104838 28.360596 4.697939
-36.622892 27.702808 5.289104
-35.686457 28.958046 4.023569
-35.594608 26.811177 4.465445
-36.104838 28.360596 4.697939
-35.24903 29.547914 3.315165
-35.686457 28.958046 4.023569
-46.077427 -5.782654 -15.078069
-47.219326 -5.287187 -16.197276
-45.238819 -4.893881 -14.973093
-46.077427 -5.782654 -15.078069
-44.374233 -4.102521 -14.853371
-45.440567 -3.928929 -16.118216
-45.238819 -4.893881 -14.973093
-40.476095 1.605406 -12.02222
-39.660198 2.58282 -10.485271
-40.626064 2.370998 -13.129459
-41.304197 0.746749 -13.575184
-40.476095 1.605406 -12.02222
-35.618347 13.530774 0.231671
-35.675238 13.046799 1.177228
-35.52148 13.996974 -0.693552
-35.618347 13.530774 0.231671
-35.208302 15.910147 0.416649
-35.51063 14.460852 -1.680822
-35.920675 12.081479 -1.865801
-35.52148 13.996974 -0.693552
-33.152211 33.196239 -9.049857
-33.188 31.466253 -8.469193
-33.187432 33.123648 -8.030716
-33.083061 33.151512 -10.054512
-33.152211 33.196239 -9.049857
-33.031081 33.179212 -11.053703
-33.100798 31.566545 -10.487524
-33.083061 33.151512 -10.054512
-32.944239 33.083288 -12.024201
-33.031081 33.179212 -11.053703
-37.511475 19.770331 7.249217
-37.048233 18.121582 6.974823
-37.560101 21.980736 6.971277
-37.511475 19.770331 7.249217
-36.994192 22.671343 6.532614
-37.560101 21.980736 6.971277
-44.268805 4.799138 -23.62512
-45.115822 4.079754 -23.973968
-44.321512 3.752711 -22.491877
-44.212734 5.740175 -24.71584
-44.268805 4.799138 -23.62512
-43.418425 5.413131 -23.233747
-44.057798 6.761277 -25.837692
-44.212734 5.740175 -24.71584
-43.903455 7.678723 -26.906597
-44.057798 6.761277 -25.837692
-43.208011 7.271614 -25.393372
-43.633608 8.646642 -28.006006
-43.903455 7.678723 -26.906597
-38.195603 5.21028 -7.424183
-38.912266 3.849995 -8.943297
-33.291227 32.963896 -5.98171
-33.375934 32.851265 -4.958134
-33.368505 34.688898 -5.542032
-33.253509 33.097595 -7.007829
-33.260939 31.259962 -6.423932
-33.291227 32.963896 -5.98171
-33.187432 33.123648 -8.030716
-33.253509 33.097595 -7.007829
-38.937882 11.133135 -17.943886
-38.294668 12.241378 -16.432094
-35.462347 14.944157 2.205348
-35.675238 13.046799 1.177228
-35.187763 17.345654 2.224833
-35.462347 14.944157 2.205348
-35.344942 16.845863 3.08831
-36.637394 18.725569 6.399547
-37.048233 18.121582 6.974823
-36.177712 19.356899 5.846022
-36.637394 18.725569 6.399547
-36.523755 21.061808 6.254404
-35.836674 19.932223 5.171544
-35.950314 17.595983 5.316687
-36.177712 19.356899 5.846022
-36.038531 23.953432 5.420347
-36.53451 23.302674 5.979088
-36.508968 25.562967 5.698556
-34.913075 30.079824 2.535497
-34.840273 27.940537 3.011407
-35.24903 29.547914 3.315165
-34.561388 30.587484 1.722755
-34.913075 30.079824 2.535497
-34.970145 32.194862 2.026513
-34.575167 35.045889 -0.404797
-34.351824 33.116378 0.315006
-34.841801 34.632033 0.493968
-34.303783 35.397123 -1.338966
-34.575167 35.045889 -0.404797
-46.063021 2.545285 -23.03364
-46.029291 1.496598 -21.895386
-45.1348 1.98464 -21.702471
-46.063021 2.545285 -23.03364
-46.008287 3.690581 -24.208098
-39.635897 10.308408 -19.523393
-39.662485 9.684115 -18.51251
-38.937882 11.133135 -17.943886
-40.277575 9.584846 -21.103766
-39.635897 10.308408 -19.523393
-40.969299 9.195791 -22.704306
-41.052225 8.470333 -21.692558
-40.277575 9.584846 -21.103766
-41.582449 8.89168 -24.312288
-40.969299 9.195791 -22.704306
-42.237308 8.945571 -25.896877
-42.398809 8.135169 -24.877687
-41.582449 8.89168 -24.312288
-42.789037 9.055739 -27.497549
-42.237308 8.945571 -25.896877
-43.633608 8.646642 -28.006006
-42.789037 9.055739 -27.497549
-47.409408 -4.091827 -17.374016
-47.219326 -5.287187 -16.197276
-47.409408 -4.091827 -17.374016
-46.481064 -3.615725 -17.398447
-45.888559 -0.685892 -19.585245
-45.775277 -1.820554 -18.421093
-44.997324 -0.096996 -19.423724
-45.992306 0.347058 -20.725738
-45.888559 -0.685892 -19.585245
-43.592224 -2.965219 -14.60228
-44.374233 -4.102521 -14.853371
-42.783811 -1.928561 -14.333573
-42.056692 -0.541547 -13.964513
-43.767568 -2.10091 -15.729788
-43.592224 -2.965219 -14.60228
-42.783811 -1.928561 -14.333573
-37.54114 6.797202 -5.951507
-36.936111 8.445592 -4.51258
-37.647635 7.350926 -7.01987
-38.195603 5.21028 -7.424183
-37.54114 6.797202 -5.951507
-37.614257 13.454973 -14.917119
-38.294668 12.241378 -16.432094
-38.284059 11.722437 -15.418026
-37.004863 15.401608 -14.529488
-37.614257 13.454973 -14.917119
-36.994255 14.882665 -13.51542
-36.366923 17.249398 -14.128138
-37.004863 15.401608 -14.529488
-35.819659 18.816866 -12.883692
-35.81678 18.492018 -11.873653
-35.251577 20.479584 -11.629556
-36.366923 17.249398 -14.128138
-35.819659 18.816866 -12.883692
-33.903379 26.40487 -11.650809
-34.280256 24.473473 -11.507659
-33.929176 26.180684 -10.647358
-33.903379 26.40487 -11.650809
-33.498758 28.228977 -11.783667
-32.969113 31.59697 -12.456442
-32.944239 33.083288 -12.024201
3 0 23 21
3 78 26 79
3 80 79 24
3 78 79 80
3 82 81 26
3 2 83 84
3 3 85 87
3 85 30 86
3 85 86 87
3 3 32 30
3 1 34 33
3 4 37 35
3 4 39 37
3 4 41 39
3 5 46 44
3 6 47 22
3 6 48 47
3 7 51 49
3 9 52 25
3 9 53 52
3 9 55 53
3 89 88 27
3 11 90 91
3 11 92 94
3 92 56 93
3 92 93 94
3 95 57 96
3 97 96 43
3 95 96 97
3 12 58 28
3 12 59 58
3 12 60 59
3 98 61 99
3 101 100 61
3 103 102 45
3 13 104 106
3 106 105 29
3 104 105 106
3 13 107 109
3 107 62 108
3 107 108 109
3 14 110 112
3 110 63 111
3 110 111 112
3 14 64 63
3 14 65 64
3 15 66 31
3 15 67 66
3 16 113 114
3 16 115 117
3 115 68 116
3 115 116 117
3 8 69 50
3 17 70 36
3 17 71 70
3 17 72 71
3 18 73 38
3 18 74 73
3 18 75 74
3 19 118 120
3 120 119 40
3 118 119 120
3 19 121 122
3 10 76 54
3 20 77 42
3 20 123 125
3 125 124 77
3 123 124 125
3 20 126 127
3 21 22 5
3 23 22 21
3 23 6 22
3 24 25 7
3 26 25 24
3 26 9 25
3 26 27 9
3 128 27 129
3 130 129 26
3 128 129 130
3 132 131 27
3 133 11 134
3 135 28 136
3 137 28 138
3 139 12 140
3 141 140 28
3 139 140 141
3 143 142 12
3 144 29 145
3 146 29 147
3 148 13 149
3 150 149 29
3 148 149 150
3 30 151 152
3 30 153 155
3 153 14 154
3 153 154 155
3 30 31 14
3 32 31 30
3 32 15 31
3 33 156 157
3 34 158 160
3 160 159 33
3 158 159 160
3 34 161 163
3 161 16 162
3 161 162 163
3 35 36 8
3 37 36 35
3 37 17 36
3 37 38 17
3 39 38 37
3 39 18 38
3 39 40 18
3 41 40 39
3 41 19 40
3 164 42 165
3 166 165 10
3 164 165 166
3 167 42 168
3 169 20 170
3 171 170 42
3 169 170 171
3 173 172 20
3 174 43 175
3 176 43 177
3 179 178 43
3 44 45 2
3 46 45 44
3 46 180 182
3 182 181 45
3 180 181 182
3 22 46 5
3 47 46 22
3 47 183 185
3 185 184 46
3 183 184 185
3 47 186 187
3 48 188 190
3 190 189 47
3 188 189 190
3 48 191 192
3 193 3 194
3 49 50 1
3 51 50 49
3 51 8 50
3 25 51 7
3 52 51 25
3 52 8 51
3 52 35 8
3 53 35 52
3 53 4 35
3 53 54 4
3 55 54 53
3 55 10 54
3 27 55 9
3 195 55 196
3 197 196 27
3 195 196 197
3 198 10 199
3 200 199 55
3 198 199 200
3 202 201 10
3 204 203 0
3 205 33 206
3 56 207 209
3 207 33 208
3 207 208 209
3 56 1 33
3 43 210 211
3 57 212 214
3 214 213 43
3 212 213 214
3 57 215 217
3 215 11 216
3 215 216 217
3 28 218 220
3 218 57 219
3 218 219 220
3 58 57 28
3 58 11 57
3 58 56 11
3 59 56 58
3 59 1 56
3 59 49 1
3 60 49 59
3 60 7 49
3 221 60 222
3 223 222 12
3 221 222 223
3 61 224 226
3 224 60 225
3 224 225 226
3 61 7 60
3 61 24 7
3 227 24 228
3 229 228 61
3 227 228 229
3 231 230 24
3 45 232 234
3 234 233 2
3 232 233 234
3 236 235 45
3 237 23 238
3 239 238 0
3 237 238 239
3 240 23 241
3 242 6 243
3 244 243 23
3 242 243 244
3 245 6 246
3 247 48 248
3 249 248 6
3 247 248 249
3 250 48 251
3 253 252 48
3 29 254 255
3 257 256 29
3 62 258 259
3 62 260 262
3 260 2 261
3 260 261 262
3 263 13 264
3 63 265 266
3 63 267 269
3 267 13 268
3 267 268 269
3 63 62 13
3 64 62 63
3 64 2 62
3 64 44 2
3 65 44 64
3 65 5 44
3 31 65 14
3 66 65 31
3 66 5 65
3 66 21 5
3 67 21 66
3 67 0 21
3 68 270 271
3 68 272 274
3 272 3 273
3 272 273 274
3 50 34 1
3 69 34 50
3 69 16 34
3 36 69 8
3 70 69 36
3 70 16 69
3 70 68 16
3 71 68 70
3 71 3 68
3 71 32 3
3 72 32 71
3 72 15 32
3 38 72 17
3 73 72 38
3 73 15 72
3 73 67 15
3 74 67 73
3 74 0 67
3 74 275 277
3 277 276 0
3 275 276 277
3 75 278 280
3 280 279 74
3 278 279 280
3 75 281 282
3 40 75 18
3 283 75 284
3 285 284 40
3 283 284 285
3 287 286 75
3 54 41 4
3 76 41 54
3 76 19 41
3 42 76 10
3 77 76 42
3 77 19 76
3 77 288 290
3 290 289 19
3 288 289 290
3 292 291 77
3 294 293 20
