ply
format ascii 1.0
element vertex 245
property float x
property float y
property float z
element face 232
property list uchar int vertex_index
end_header
-1.752775 50.997208 -31.126356
-1.974077 54.290039 -22.332415
-0.354288 67.907143 -27.704775
1.994446 62.044792 -34.136856
-1.650404 55.495735 -16.803247
3.086376 69.406929 -32.155785
-2.917078 45.236748 -23.594309
-2.136072 52.867111 -27.261957
0.693953 63.343933 -7.872835
0.027876 63.014549 -14.09413
-0.693697 62.391083 -20.006182
-1.246965 61.434555 -25.449194
-1.256853 59.885239 -30.029173
1.455742 72.941994 -28.973886
0.322758 65.617195 -31.699526
-0.367008 57.448639 -33.228409
1.479836 53.990257 -34.787498
-2.466597 50.643791 -20.489424
-3.007318 46.120621 -21.115263
-2.504343 49.888649 -23.087442
-2.505037 49.094978 -25.520399
-2.096254 53.618279 -24.895773
-0.335938 62.735641 -17.094378
-0.336006 68.633591 -25.222879
-0.704277 65.390457 -24.111429
-0.868271 64.800583 -26.690733
-1.345919 60.754333 -27.880297
-0.844582 64.003342 -29.012159
2.899733 74.704597 -29.175585
2.471519 65.819588 -33.301941
1.537525 67.784348 -32.088211
1.044596 63.995964 -33.119133
-0.082632 61.633736 -32.624748
0.677835 60.013878 -33.832123
0.450562 55.846489 -34.208359
1.659374 58.098274 -34.636177
-2.424189 51.376274 -17.76491
-1.815226 54.910583 -19.623938
0.201633 71.591705 -26.128099
3.844286 72.780815 -30.729204
3.123047 59.775795 -34.781418
-2.420748 48.237213 -27.730474
-2.039141 52.003441 -29.363062
0.375572 63.223938 -11.017952
-0.550261 59.749519 -12.585344
-0.814926 59.368828 -15.583076
-1.089947 58.935516 -18.495291
-1.357798 58.45253 -21.307726
-0.404577 65.816994 -21.340498
-1.012171 61.967117 -22.804972
-1.587427 57.904907 -23.992167
-1.734461 57.263351 -26.502241
-1.745813 56.490891 -28.774614
-1.568903 55.550964 -30.737612
0.392078 70.652283 -28.474081
2.153557 71.363159 -30.764433
0.836205 69.392036 -30.474512
-0.143106 66.913567 -29.882856
-0.590561 62.957962 -31.008314
-0.937735 58.791481 -31.828566
-1.162792 54.414543 -32.3256
-0.508722 53.064934 -33.495728
2.809877 55.901299 -35.076431
-1.765726 48.611172 -31.162216
-1.974308 49.142567 -30.386465
-1.495455 50.412449 -31.808661
-1.765726 48.611172 -31.162216
3.828753 75.303143 -29.115307
3.345625 76.23558 -28.262529
-2.037297 53.436005 -17.284078
-2.407682 51.731186 -16.349791
-2.02079 53.790917 -15.868959
0.512576 73.316341 -25.216312
0.219826 71.92062 -24.812578
-3.164831 43.285028 -22.56752
-3.209951 43.726965 -21.327997
-2.962198 45.678685 -22.354786
-3.053387 42.783968 -23.742686
-3.164831 43.285028 -22.56752
-2.851031 44.782151 -24.739809
-3.053387 42.783968 -23.742686
0.310669 61.801167 -7.117534
0.83509 63.343788 -6.269343
0.195582 61.700573 -8.69113
0.310669 61.801167 -7.117534
0.201724 63.119243 -12.556041
0.598992 64.837414 -11.678576
0.425144 64.73272 -13.216665
-0.268064 67.476921 -21.922446
-0.098888 67.639454 -20.476814
1.235032 73.549839 -27.889427
1.823246 74.589882 -28.098197
0.92391 71.797138 -28.723984
0.7032 72.404984 -27.639525
1.235032 73.549839 -27.889427
0.932126 52.744907 -34.514057
0.41749 53.673023 -34.224488
0.965199 54.918373 -34.497929
1.478527 51.860211 -34.691925
0.932126 52.744907 -34.514057
3.589349 56.558022 -35.09095
2.966462 57.838547 -34.928925
3.745934 58.49527 -34.943444
-1.572313 55.769852 -15.345268
-2.02079 53.790917 -15.868959
-2.736957 48.382206 -20.802343
-3.049383 46.557213 -19.80405
-2.779022 48.818798 -19.491131
1.131733 64.881359 -6.924308
0.83509 63.343788 -6.269343
0.213955 64.670704 -14.759359
0.425144 64.73272 -13.216665
0.032048 64.53125 -16.259483
-0.154031 62.875095 -15.594254
0.213955 64.670704 -14.759359
-0.17857 64.427677 -17.763348
0.032048 64.53125 -16.259483
-0.357449 64.255398 -19.21925
-0.514818 62.563362 -18.55028
-0.17857 64.427677 -17.763348
-0.520142 67.012024 -24.667154
-0.417914 67.263653 -23.307911
-0.233778 68.88522 -23.863636
2.545241 75.471183 -28.199047
3.345625 76.23558 -28.262529
2.177738 73.823296 -29.074736
1.823246 74.589882 -28.098197
2.545241 75.471183 -28.199047
-2.804966 49.616863 -16.758865
-2.407682 51.731186 -16.349791
-2.757818 49.18504 -18.128874
-2.804966 49.616863 -16.758865
-2.445393 51.010033 -19.127167
-2.779022 48.818798 -19.491131
-2.757818 49.18504 -18.128874
-0.048994 70.441563 -24.359968
-0.233778 68.88522 -23.863636
-0.067187 70.112648 -25.675489
-0.048994 70.441563 -24.359968
0.219826 71.92062 -24.812578
4.880974 73.208256 -30.543354
4.301029 74.341251 -29.892117
4.413074 71.623977 -31.308403
4.880974 73.208256 -30.543354
4.03412 69.937035 -32.021693
3.465331 71.093872 -31.442495
4.413074 71.623977 -31.308403
3.648151 68.242951 -32.65783
4.03412 69.937035 -32.021693
3.340723 66.44928 -33.230908
2.778948 67.613259 -32.728863
3.648151 68.242951 -32.65783
3.031465 64.663376 -33.718788
3.340723 66.44928 -33.230908
2.792928 62.775978 -34.136246
2.232982 63.93219 -33.719398
3.031465 64.663376 -33.718788
3.357229 61.64148 -34.458527
2.558746 60.910294 -34.459137
2.792928 62.775978 -34.136246
3.980237 60.324573 -34.707878
3.357229 61.64148 -34.458527
3.745934 58.49527 -34.943444
3.980237 60.324573 -34.707878
-3.314741 44.22909 -20.071157
-3.049383 46.557213 -19.80405
-3.314741 44.22909 -20.071157
-3.209951 43.726965 -21.327997
-2.64501 46.711265 -25.702854
-2.851031 44.782151 -24.739809
-2.711057 47.165863 -24.557354
-2.602866 46.282383 -26.807892
-2.64501 46.711265 -25.702854
-2.462893 48.666095 -26.625436
-2.490607 45.804485 -27.828083
-2.602866 46.282383 -26.807892
-2.308295 47.762569 -28.688524
-2.490607 45.804485 -27.828083
-2.117491 49.645684 -29.504818
-2.308295 47.762569 -28.688524
-2.229945 50.120327 -28.546768
-1.895958 51.500325 -30.244709
-1.974308 49.142567 -30.386465
-2.117491 49.645684 -29.504818
0.956257 64.915786 -8.530111
1.131733 64.881359 -6.924308
0.797067 64.855789 -10.102669
0.598992 64.837414 -11.678576
0.534763 63.283935 -9.445393
0.956257 64.915786 -8.530111
0.797067 64.855789 -10.102669
0.036391 61.640575 -10.263689
0.195582 61.700573 -8.69113
0.534763 63.283935 -9.445393
-0.426526 59.903366 -11.047385
0.036391 61.640575 -10.263689
-0.087344 61.486728 -11.801648
-0.949099 58.142467 -11.734708
-0.426526 59.903366 -11.047385
-1.022242 57.896743 -13.236317
-0.949099 58.142467 -11.734708
-1.154575 57.706398 -14.735183
-1.022242 57.896743 -13.236317
-0.682594 59.559173 -14.08421
-1.232665 57.432282 -16.193161
-1.572313 55.769852 -15.345268
-1.154575 57.706398 -14.735183
-0.21289 65.968354 -19.886408
-0.098888 67.639454 -20.476814
-0.549137 64.104039 -20.67334
-0.357449 64.255398 -19.21925
-0.21289 65.968354 -19.886408
-0.554427 65.603725 -22.725963
-0.268064 67.476921 -21.922446
-0.417914 67.263653 -23.307911
0.607977 72.874695 -26.466533
0.512576 73.316341 -25.216312
0.296855 71.121994 -27.30109
0.607977 72.874695 -26.466533
0.7032 72.404984 -27.639525
3.372009 73.742706 -29.952395
3.828753 75.303143 -29.115307
4.301029 74.341251 -29.892117
-1.200463 52.121116 -32.408283
-1.495455 50.412449 -31.808661
-1.457784 52.705876 -31.725978
-0.873428 51.446312 -32.993347
-1.200463 52.121116 -32.408283
-0.835757 53.739739 -32.910664
-0.494503 50.775967 -33.460583
-0.873428 51.446312 -32.993347
-0.062152 52.282246 -33.868172
-0.02908 54.455711 -33.852044
0.41749 53.673023 -34.224488
-0.494503 50.775967 -33.460583
-0.062152 52.282246 -33.868172
3.437817 54.674664 -35.146251
3.589349 56.558022 -35.09095
2.737542 53.89949 -35.048046
3.437817 54.674664 -35.146251
2.072522 52.94397 -34.903579
2.144856 54.945778 -34.931964
2.737542 53.89949 -35.048046
1.478527 51.860211 -34.691925
2.072522 52.94397 -34.903579
3 0 63 64
3 0 65 66
3 1 19 17
3 1 21 19
3 2 25 23
3 2 27 25
3 67 28 68
3 3 31 29
3 3 33 31
3 3 35 33
3 4 69 71
3 69 36 70
3 69 70 71
3 4 37 36
3 72 38 73
3 6 74 76
3 76 75 18
3 74 75 76
3 6 77 78
3 6 79 80
3 7 41 20
3 7 42 41
3 8 81 82
3 8 83 84
3 9 85 87
3 85 43 86
3 85 86 87
3 9 44 43
3 9 45 44
3 10 46 22
3 10 47 46
3 88 48 89
3 11 49 24
3 11 50 49
3 11 51 50
3 12 52 26
3 12 53 52
3 13 90 91
3 13 92 94
3 92 54 93
3 92 93 94
3 5 55 39
3 14 56 30
3 14 57 56
3 14 58 57
3 15 59 32
3 15 60 59
3 15 61 60
3 16 95 97
3 97 96 34
3 95 96 97
3 16 98 99
3 100 62 101
3 102 101 40
3 100 101 102
3 103 4 104
3 17 105 107
3 105 18 106
3 105 106 107
3 19 18 17
3 19 6 18
3 19 20 6
3 21 20 19
3 21 7 20
3 108 8 109
3 110 9 111
3 112 22 113
3 114 113 9
3 112 113 114
3 115 22 116
3 117 10 118
3 119 118 22
3 117 118 119
3 23 120 122
3 120 24 121
3 120 121 122
3 25 24 23
3 25 11 24
3 25 26 11
3 27 26 25
3 27 12 26
3 28 123 124
3 28 125 127
3 125 13 126
3 125 126 127
3 29 30 5
3 31 30 29
3 31 14 30
3 31 32 14
3 33 32 31
3 33 15 32
3 33 34 15
3 35 34 33
3 35 16 34
3 36 128 129
3 36 130 131
3 36 132 134
3 132 17 133
3 132 133 134
3 37 17 36
3 37 1 17
3 135 23 136
3 38 137 139
3 137 23 138
3 137 138 139
3 38 2 23
3 140 39 141
3 142 39 143
3 144 5 145
3 146 145 39
3 144 145 146
3 147 5 148
3 149 29 150
3 151 150 5
3 149 150 151
3 152 29 153
3 154 3 155
3 156 155 29
3 154 155 156
3 157 40 158
3 159 158 3
3 157 158 159
3 160 40 161
3 163 162 40
3 18 164 165
3 167 166 18
3 20 168 170
3 170 169 6
3 168 169 170
3 41 171 173
3 173 172 20
3 171 172 173
3 41 174 175
3 41 176 177
3 42 178 180
3 180 179 41
3 178 179 180
3 42 181 183
3 181 0 182
3 181 182 183
3 184 8 185
3 43 186 187
3 43 188 190
3 188 8 189
3 188 189 190
3 43 191 193
3 193 192 8
3 191 192 193
3 44 194 196
3 196 195 43
3 194 195 196
3 44 197 198
3 44 199 200
3 45 201 203
3 203 202 44
3 201 202 203
3 45 204 206
3 204 4 205
3 204 205 206
3 22 45 9
3 46 45 22
3 46 4 45
3 46 37 4
3 47 37 46
3 47 1 37
3 48 207 208
3 48 209 211
3 209 10 210
3 209 210 211
3 24 212 214
3 212 48 213
3 212 213 214
3 49 48 24
3 49 10 48
3 49 47 10
3 50 47 49
3 50 1 47
3 50 21 1
3 51 21 50
3 51 7 21
3 26 51 11
3 52 51 26
3 52 7 51
3 52 42 7
3 53 42 52
3 53 0 42
3 215 38 216
3 54 217 219
3 217 38 218
3 217 218 219
3 54 2 38
3 39 220 222
3 220 28 221
3 220 221 222
3 55 28 39
3 55 13 28
3 30 55 5
3 56 55 30
3 56 13 55
3 56 54 13
3 57 54 56
3 57 2 54
3 57 27 2
3 58 27 57
3 58 12 27
3 32 58 14
3 59 58 32
3 59 12 58
3 59 53 12
3 60 53 59
3 60 0 53
3 60 223 225
3 225 224 0
3 223 224 225
3 61 226 228
3 228 227 60
3 226 227 228
3 61 229 230
3 34 61 15
3 231 61 232
3 233 232 34
3 231 232 233
3 235 234 61
3 40 35 3
3 62 35 40
3 62 16 35
3 236 62 237
3 238 62 239
3 240 16 241
3 242 241 62
3 240 241 242
3 244 243 16
