ply
format ascii 1.0
element vertex 260
property float x
property float y
property float z
element face 270
property list uchar int vertex_index
end_header
-34.838139 -17.697729 74.318756
-43.890938 -9.451494 60.235973
-39.223728 -13.681883 68.131622
-36.004425 -22.755848 68.849792
-40.221542 -18.856682 61.885921
-44.545242 -14.997023 53.931679
-37.012348 -15.910945 71.764709
-37.585518 -11.669472 70.455299
-35.403557 -20.016413 71.952713
-37.757736 -18.334642 68.671265
-32.948921 -23.949772 71.878586
-41.688187 -14.254192 60.929089
-42.148163 -16.867058 57.946869
-44.011105 -12.362003 56.899895
-41.428703 -11.482846 64.165771
-40.148533 -9.115885 66.593292
-37.387188 -25.060942 66.756523
-39.793144 -22.990669 63.62999
-38.343662 -20.929459 65.546463
-39.731045 -16.280548 64.929153
-34.199291 -26.636683 69.579132
-41.775444 -20.82917 60.089394
-43.894623 -18.85218 56.230953
-46.524136 -17.002491 52.271408
-35.870132 -16.915148 73.261482
-36.227177 -15.009932 72.970261
-35.146042 -18.720139 73.363289
-36.341969 -17.984966 71.941055
-34.030849 -20.540932 73.398903
-42.747932 -11.865789 60.579296
-42.789581 -13.296598 58.905224
-43.982925 -10.910835 58.5951
-40.309177 -12.563513 66.162277
-40.975471 -10.219332 65.527214
-39.770351 -11.376505 67.496155
-36.555592 -23.999647 67.599014
-37.819916 -23.077938 66.034393
-37.256069 -21.900377 67.240845
-38.541847 -16.014133 68.501663
-38.774139 -17.323204 66.846397
-39.557602 -14.941669 66.58757
-40.566319 -13.878757 64.604507
-34.568546 -23.448271 70.388687
-33.436745 -25.376402 70.549805
-35.094772 -24.776127 69.095657
-35.897339 -25.930832 68.192505
-39.891338 -20.998165 62.631546
-40.802292 -21.897184 61.910164
-40.820274 -19.942976 60.787144
-43.274467 -15.92696 55.935543
-42.819614 -17.955505 56.892002
-43.996021 -17.019695 54.896873
-45.136971 -17.926363 54.250702
-45.320797 -16.089357 52.905743
-38.133739 -14.812038 70.021904
-38.595963 -12.575209 69.442009
-37.421448 -13.794986 71.297363
-36.320305 -13.005213 72.286087
-35.655491 -21.398472 70.36866
-36.901932 -20.596758 68.746857
-36.641064 -19.255966 70.379295
-37.476944 -17.050489 70.303085
-34.24419 -22.012268 71.901489
-40.824074 -16.595936 61.341373
-41.14576 -17.841333 59.939896
-41.812416 -15.615719 59.331757
-42.912308 -14.670844 57.30912
-44.146687 -13.741991 55.298584
-42.616489 -10.448052 62.181454
-43.575527 -8.048458 61.692608
-42.239223 -9.111679 63.582893
-38.85194 -10.369659 68.531357
-38.674442 -24.063641 65.242645
-38.914444 -22.059292 64.38179
-39.311127 -19.898056 63.760044
-37.998932 -19.660181 67.027031
-38.980637 -18.647783 65.211121
-39.900806 -17.61318 63.309669
-40.683548 -15.249734 62.946861
-41.616325 -12.851427 62.590763
-35.274467 -27.687698 69.076569
-41.775146 -18.925629 58.865242
-42.786285 -19.813301 58.187054
-34.92765 -16.955284 74.327457
-35.443647 -16.563993 73.798821
-35.354135 -17.306438 73.790119
-34.992091 -18.208934 73.841022
-34.503933 -18.904782 73.986461
-34.349981 -18.393577 74.464195
-34.349981 -18.393577 74.464195
-34.303404 -17.625225 74.789353
-34.303404 -17.625225 74.789353
-34.92765 -16.955284 74.327457
-44.434719 -8.233462 60.051443
-44.570132 -8.963331 59.288538
-44.570132 -8.963331 59.288538
-44.616125 -9.693002 58.468102
-43.936932 -10.181165 59.415537
-45.250923 -14.521157 52.942068
-45.6387 -15.067324 52.4291
-44.93302 -15.54319 53.418711
-35.674576 -13.690349 73.104896
-36.273741 -14.007572 72.628174
-35.628012 -14.692709 73.446983
-35.566271 -12.717927 72.647042
-35.674576 -13.690349 73.104896
-44.681666 -11.893441 55.913956
-44.749457 -12.583436 55.1133
-44.078896 -13.051997 56.099239
-40.823717 -8.514696 65.645038
-41.237186 -9.066419 65.111999
-40.562002 -9.667609 66.060253
-40.240988 -8.002616 66.041458
-40.823717 -8.514696 65.645038
-38.030815 -24.562292 65.999584
-38.603098 -24.981064 65.810367
-37.959471 -25.479715 66.567307
-32.275137 -24.871977 71.932632
-32.0546 -24.105861 72.609589
-33.255823 -26.900695 70.262886
-32.87455 -26.270554 70.748222
-33.818018 -26.006543 70.064469
-33.768623 -27.485801 69.969605
-33.255823 -26.900695 70.262886
-34.736879 -27.162191 69.327851
-34.306211 -28.011308 69.718323
-33.768623 -27.485801 69.969605
-37.198965 -25.96447 67.258377
-36.454041 -26.399415 67.976368
-36.642263 -25.495887 67.474514
-37.959471 -25.479715 66.567307
-37.198965 -25.96447 67.258377
-43.977816 -6.84503 61.413943
-43.244096 -7.403713 62.283461
-40.400049 -23.344205 63.471714
-39.8216 -23.906878 64.265915
-41.920936 -21.703501 60.849129
-41.43436 -22.237507 61.759514
-41.288868 -21.363177 60.999779
-42.439172 -21.167365 59.94404
-41.920936 -21.703501 60.849129
-44.040573 -19.676551 57.068115
-43.486404 -20.157111 58.046166
-43.340454 -19.33274 57.209004
-44.632471 -19.205507 56.094167
-44.040573 -19.676551 57.068115
-46.603589 -17.827895 53.127594
-45.910006 -18.289831 54.117241
-45.830554 -17.464427 53.261055
-47.326555 -17.374853 52.139679
-46.603589 -17.827895 53.127594
-47.284716 -16.523753 51.29048
-47.326555 -17.374853 52.139679
-35.622169 -15.611385 73.65321
-36.048654 -15.96254 73.115871
-35.443647 -16.563993 73.798821
-35.628012 -14.692709 73.446983
-35.622169 -15.611385 73.65321
-33.946337 -19.815179 74.004268
-33.261272 -20.673164 74.077472
-34.588446 -19.630536 73.381096
-33.946337 -19.815179 74.004268
-34.503933 -18.904782 73.986461
-44.65168 -10.437791 57.623276
-44.66577 -11.163376 56.775673
-43.997015 -11.636419 57.747498
-44.65168 -10.437791 57.623276
-44.616125 -9.693002 58.468102
-37.549984 -10.616689 69.853591
-36.874571 -11.321712 70.81258
-46.053827 -15.609808 51.920792
-46.655497 -16.066375 51.603625
-45.922466 -16.545924 52.588576
-46.053827 -15.609808 51.920792
-45.6387 -15.067324 52.4291
-36.241964 -11.989583 71.727974
-36.874571 -11.321712 70.81258
-36.952911 -12.337343 71.370693
-36.241964 -11.989583 71.727974
-35.566271 -12.717927 72.647042
-32.805622 -23.180287 72.62233
-32.0546 -24.105861 72.609589
-33.346586 -21.475867 73.382488
-33.261272 -20.673164 74.077472
-33.453257 -22.211536 72.633781
-33.346586 -21.475867 73.382488
-34.13752 -21.2766 72.650196
-33.596556 -22.98102 71.890038
-32.805622 -23.180287 72.62233
-33.453257 -22.211536 72.633781
-44.83032 -13.27109 54.307537
-45.029598 -13.898606 53.624085
-44.345965 -14.369507 54.615132
-45.43309 -12.112534 54.122253
-44.83032 -13.27109 54.307537
-44.749457 -12.583436 55.1133
-44.681666 -11.893441 55.913956
-44.66577 -11.163376 56.775673
-42.575945 -7.935323 63.228603
-43.244096 -7.403713 62.283461
-42.907375 -8.580068 62.63775
-41.869062 -8.512593 64.139839
-41.607347 -9.665506 64.555053
-41.237186 -9.066419 65.111999
-42.575945 -7.935323 63.228603
-41.869062 -8.512593 64.139839
-38.183195 -9.966783 68.891621
-38.218729 -11.019566 69.493328
-37.549984 -10.616689 69.853591
-38.874424 -9.285697 67.934708
-38.183195 -9.966783 68.891621
-39.522721 -8.65881 66.965675
-39.500236 -9.742772 67.562325
-38.874424 -9.285697 67.934708
-39.615176 -7.54554 66.413841
-40.240988 -8.002616 66.041458
-39.522721 -8.65881 66.965675
-39.262249 -24.443364 65.072243
-38.603098 -24.981064 65.810367
-39.233793 -23.527155 64.436318
-39.8216 -23.906878 64.265915
-39.262249 -24.443364 65.072243
-32.519049 -25.585292 71.268242
-32.275137 -24.871977 71.932632
-33.192833 -24.663087 71.214196
-32.519049 -25.585292 71.268242
-32.87455 -26.270554 70.748222
-34.974792 -28.485512 69.668095
-34.306211 -28.011308 69.718323
-35.962879 -28.098999 69.061944
-34.974792 -28.485512 69.668095
-36.142605 -27.277848 68.4184
-35.585903 -26.809265 68.634537
-36.454041 -26.399415 67.976368
-35.962879 -28.098999 69.061944
-36.142605 -27.277848 68.4184
-44.277013 -7.531944 60.77976
-44.434719 -8.233462 60.051443
-43.733232 -8.749976 60.964291
-44.277013 -7.531944 60.77976
-43.977816 -6.84503 61.413943
-40.904623 -22.797463 62.611801
-40.400049 -23.344205 63.471714
-40.297718 -22.443926 62.770077
-40.904623 -22.797463 62.611801
-41.43436 -22.237507 61.759514
-42.944593 -20.65943 58.992871
-42.439172 -21.167365 59.94404
-42.280864 -20.321236 59.138224
-42.944593 -20.65943 58.992871
-43.486404 -20.157111 58.046166
-45.253645 -18.742598 55.104042
-44.632471 -19.205507 56.094167
-44.515797 -18.389271 55.240827
-45.253645 -18.742598 55.104042
-45.910006 -18.289831 54.117241
-47.284716 -16.523753 51.29048
-46.655497 -16.066375 51.603625
-45.250923 -14.521157 52.942068
-45.029598 -13.898606 53.624085
3 0 83 85
3 85 84 24
3 83 84 85
3 0 24 26
3 0 86 88
3 86 26 87
3 86 87 88
3 0 89 90
3 0 91 92
3 1 93 94
3 1 31 29
3 1 95 97
3 97 96 31
3 95 96 97
3 2 34 32
3 3 37 35
3 2 40 38
3 2 32 40
3 3 44 42
3 3 35 44
3 4 48 46
3 5 51 49
3 5 53 51
3 5 98 100
3 100 99 53
3 98 99 100
3 6 56 54
3 101 57 102
3 103 102 25
3 101 102 103
3 105 104 57
3 8 60 58
3 6 61 27
3 6 54 61
3 8 62 28
3 8 58 62
3 11 65 63
3 13 66 30
3 13 67 66
3 13 106 108
3 108 107 67
3 106 107 108
3 14 70 68
3 15 109 111
3 111 110 33
3 109 110 111
3 15 112 113
3 7 71 55
3 16 114 116
3 114 72 115
3 114 115 116
3 18 73 36
3 18 74 73
3 9 75 59
3 19 76 39
3 19 77 76
3 19 78 77
3 14 79 41
3 14 68 79
3 10 117 118
3 20 119 121
3 121 120 43
3 119 120 121
3 20 122 123
3 20 124 126
3 124 80 125
3 124 125 126
3 16 127 129
3 129 128 45
3 127 128 129
3 16 130 131
3 133 132 69
3 17 134 135
3 21 136 138
3 138 137 47
3 136 137 138
3 21 139 140
3 12 81 64
3 22 82 50
3 22 141 143
3 143 142 82
3 141 142 143
3 22 144 145
3 23 146 148
3 148 147 52
3 146 147 148
3 23 149 150
3 23 151 152
3 24 25 6
3 153 25 154
3 155 154 24
3 153 154 155
3 157 156 25
3 26 27 8
3 24 27 26
3 24 6 27
3 158 28 159
3 26 160 162
3 160 28 161
3 160 161 162
3 26 8 28
3 29 30 11
3 31 30 29
3 31 13 30
3 31 163 165
3 165 164 13
3 163 164 165
3 167 166 31
3 32 33 14
3 34 33 32
3 34 15 33
3 169 168 7
3 35 36 16
3 37 36 35
3 37 18 36
3 38 39 9
3 40 39 38
3 40 19 39
3 40 41 19
3 32 41 40
3 32 14 41
3 42 43 10
3 44 43 42
3 44 20 43
3 44 45 20
3 35 45 44
3 35 16 45
3 46 47 17
3 48 47 46
3 48 21 47
3 49 50 12
3 51 50 49
3 51 22 50
3 51 52 22
3 53 52 51
3 53 23 52
3 53 170 172
3 172 171 23
3 170 171 172
3 174 173 53
3 54 55 2
3 56 55 54
3 56 7 55
3 25 56 6
3 57 56 25
3 57 7 56
3 57 175 177
3 177 176 7
3 175 176 177
3 179 178 57
3 58 59 3
3 60 59 58
3 60 9 59
3 27 60 8
3 61 60 27
3 61 9 60
3 61 38 9
3 54 38 61
3 54 2 38
3 180 10 181
3 28 182 183
3 62 184 186
3 186 185 28
3 184 185 186
3 62 187 189
3 187 10 188
3 187 188 189
3 62 42 10
3 58 42 62
3 58 3 42
3 63 64 4
3 65 64 63
3 65 12 64
3 30 65 11
3 66 65 30
3 66 12 65
3 66 49 12
3 67 49 66
3 67 5 49
3 67 190 192
3 192 191 5
3 190 191 192
3 195 194 67
3 193 194 195
3 197 196 13
3 68 69 1
3 70 69 68
3 70 198 200
3 200 199 69
3 198 199 200
3 33 70 14
3 201 70 202
3 203 202 33
3 201 202 203
3 205 204 70
3 55 34 2
3 71 34 55
3 71 15 34
3 206 71 207
3 208 207 7
3 206 207 208
3 209 71 210
3 211 15 212
3 213 212 71
3 211 212 213
3 216 215 15
3 214 215 216
3 72 217 218
3 72 219 221
3 219 17 220
3 219 220 221
3 36 72 16
3 73 72 36
3 73 17 72
3 73 46 17
3 74 46 73
3 74 4 46
3 59 37 3
3 75 37 59
3 75 18 37
3 39 75 9
3 76 75 39
3 76 18 75
3 76 74 18
3 77 74 76
3 77 4 74
3 77 63 4
3 78 63 77
3 78 11 63
3 41 78 19
3 79 78 41
3 79 11 78
3 79 29 11
3 68 29 79
3 68 1 29
3 43 222 224
3 224 223 10
3 222 223 224
3 226 225 43
3 80 227 228
3 80 229 230
3 45 80 20
3 231 80 232
3 233 232 45
3 231 232 233
3 235 234 80
3 69 236 238
3 238 237 1
3 236 237 238
3 240 239 69
3 47 241 243
3 243 242 17
3 241 242 243
3 245 244 47
3 64 48 4
3 81 48 64
3 81 21 48
3 50 81 12
3 82 81 50
3 82 21 81
3 82 246 248
3 248 247 21
3 246 247 248
3 250 249 82
3 52 251 253
3 253 252 22
3 251 252 253
3 255 254 52
3 257 256 23
3 259 258 5
