ply
format ascii 1.0
element vertex 252
property float x
property float y
property float z
element face 238
property list uchar int vertex_index
end_header
56.645882 -68.257851 40.761032
57.449577 -61.059349 45.779381
53.442974 -68.310852 48.220749
52.370216 -76.218964 42.810089
48.037212 -75.875702 50.219124
55.16584 -71.29673 36.824371
57.561653 -64.869949 43.769562
59.417049 -61.338829 42.501183
50.974285 -72.091003 49.34565
47.724113 -71.134811 50.944443
55.561111 -68.550735 45.084
54.66124 -72.125168 41.884689
53.295826 -72.413338 46.243
50.613831 -76.422272 47.180618
55.550507 -64.621498 46.940472
53.335503 -75.365936 37.660774
56.839844 -67.918373 38.320145
56.005096 -69.350143 36.334148
55.937759 -69.817238 38.891777
57.212036 -66.612251 42.394299
58.164543 -64.801773 41.723602
57.588112 -66.406433 40.123581
54.369583 -71.992363 31.937454
57.939358 -57.256672 46.258018
58.364452 -59.317486 45.344711
60.32579 -59.601017 41.947498
54.634178 -68.498398 46.828079
54.471436 -70.460297 45.690166
53.494987 -70.399879 47.431179
49.564911 -73.990562 49.816208
50.902058 -74.28479 48.46637
49.42749 -76.246002 48.890129
44.356075 -72.099564 51.744446
54.531944 -66.451134 47.587002
55.693771 -66.633621 46.183662
53.567619 -74.144569 42.369156
54.024639 -73.789009 39.870872
52.947205 -75.865417 40.294838
55.163696 -70.708496 34.195625
54.39032 -72.69574 34.603142
57.644806 -63.020798 44.888416
58.565495 -61.26358 44.311157
58.501373 -63.090733 43.11483
59.095634 -63.028034 41.051704
52.263283 -70.193848 48.81205
50.782394 -69.840927 49.810532
49.456909 -71.69014 50.325653
48.010925 -73.521317 50.779282
59.471039 -59.525528 43.819466
56.227386 -68.469742 43.039429
55.677826 -70.162941 41.349831
55.19548 -70.379425 43.640327
54.094769 -72.341721 44.188515
52.900829 -74.353638 44.684566
52.256214 -72.33168 47.978817
52.014046 -74.403786 46.740116
51.594109 -76.409531 45.131409
46.261684 -72.885559 51.392784
46.452782 -75.314552 51.168243
56.517426 -62.824959 46.323006
56.692253 -64.808395 45.524944
56.585663 -66.687729 44.436104
55.010254 -71.773254 39.406624
54.289406 -73.300812 37.262207
54.005705 -72.593761 30.76386
54.005073 -73.000011 32.104048
57.907015 -60.188417 45.562046
57.683554 -59.151944 45.919246
57.226116 -60.022875 46.136582
47.940071 -77.034928 49.728241
48.63521 -77.220078 49.063744
48.732351 -76.060852 49.554626
53.987459 -67.380993 47.903875
53.819012 -66.296711 48.104177
53.274527 -67.22657 48.421051
58.807495 -63.814284 40.251732
58.630088 -63.914903 41.387653
58.341949 -64.701153 40.587681
59.272949 -62.928036 39.908028
58.807495 -63.814284 40.251732
50.54261 -68.687072 49.850575
51.387846 -68.91439 49.524121
48.590511 -71.412475 50.635048
49.263863 -70.517746 50.384678
48.397464 -70.240082 50.694073
58.420882 -56.396431 46.212135
58.611048 -57.422753 45.645538
60.354654 -58.697764 42.683895
60.788475 -58.733436 41.701962
50.391008 -77.460724 46.352525
50.881147 -77.454353 45.327921
51.10397 -76.415902 46.156014
45.47949 -73.730435 51.590748
45.30888 -72.492561 51.568615
44.526685 -73.337437 51.766579
45.575039 -74.944931 51.478477
46.357233 -74.100055 51.280513
45.47949 -73.730435 51.590748
55.337136 -63.566151 47.167429
54.846392 -64.467823 47.466158
56.033967 -63.723229 46.631739
55.820595 -62.667881 46.858696
55.337136 -63.566151 47.167429
53.445366 -75.052712 36.315716
53.922317 -74.02015 36.116432
53.812455 -74.333374 37.46149
56.42247 -68.634258 37.327146
56.42469 -68.403369 36.058611
56.842064 -67.687485 37.051609
58.053734 -65.503483 39.78767
58.341949 -64.701153 40.587681
57.876328 -65.604103 40.923592
57.664645 -66.238678 38.908794
58.053734 -65.503483 39.78767
57.29051 -66.994648 38.007076
57.664645 -66.238678 38.908794
57.213978 -67.162403 39.221863
56.842064 -67.687485 37.051609
57.29051 -66.994648 38.007076
47.443653 -69.926368 50.859676
48.397464 -70.240082 50.694073
54.326421 -71.60231 30.615171
54.711033 -71.008454 31.749841
54.326421 -71.60231 30.615171
54.005705 -72.593761 30.76386
57.471007 -58.121537 46.3759
57.149227 -57.032913 46.67588
58.151905 -58.287079 45.801364
57.471007 -58.121537 46.3759
57.683554 -59.151944 45.919246
58.823595 -58.453159 45.188885
58.611048 -57.422753 45.645538
58.151905 -58.287079 45.801364
60.171492 -60.439298 41.174265
59.87142 -60.469923 42.22434
59.717121 -61.308205 41.451107
60.636512 -59.569204 40.866232
60.171492 -60.439298 41.174265
60.788475 -58.733436 41.701962
60.636512 -59.569204 40.866232
49.262497 -77.349525 48.222553
49.855667 -77.43766 47.367798
50.02066 -76.334137 48.035374
48.470217 -78.323601 48.396168
49.262497 -77.349525 48.222553
48.63521 -77.220078 49.063744
43.354772 -71.642807 51.853608
44.067478 -70.859741 51.59224
43.583799 -72.889152 51.963112
43.354772 -71.642807 51.853608
44.526685 -73.337437 51.766579
43.583799 -72.889152 51.963112
54.337111 -65.382641 47.789423
53.819012 -66.296711 48.104177
55.041226 -65.536316 47.263737
54.846392 -64.467823 47.466158
54.337111 -65.382641 47.789423
55.963409 -69.061138 35.033445
56.42469 -68.403369 36.058611
55.542709 -69.740314 33.964184
55.963409 -69.061138 35.033445
55.584396 -70.029319 35.264887
55.10809 -70.36652 32.878927
55.542709 -69.740314 33.964184
54.766639 -71.350429 33.066539
54.711033 -71.008454 31.749841
55.10809 -70.36652 32.878927
54.015442 -73.3517 33.436892
54.005073 -73.000011 32.104048
54.379952 -72.344052 33.270298
59.556413 -62.152807 40.726368
59.717121 -61.308205 41.451107
59.256341 -62.183431 41.776443
59.556413 -62.152807 40.726368
59.272949 -62.928036 39.908028
52.128291 -69.090851 49.024879
52.853128 -69.25235 48.516399
52.718136 -68.149353 48.729229
51.522838 -70.017387 49.311291
52.128291 -69.090851 49.024879
51.387846 -68.91439 49.524121
49.926605 -69.59314 50.127117
50.54261 -68.687072 49.850575
50.119652 -70.765534 50.068093
49.926605 -69.59314 50.127117
49.263863 -70.517746 50.384678
52.718136 -68.149353 48.729229
53.274527 -67.22657 48.421051
52.061924 -77.11047 41.747377
51.711905 -77.281109 43.009247
57.645035 -56.173878 46.674634
57.149227 -57.032913 46.67588
57.645035 -56.173878 46.674634
58.420882 -56.396431 46.212135
59.376888 -58.557181 44.426262
58.823595 -58.453159 45.188885
58.917745 -59.421507 44.582088
59.927278 -58.660019 43.619879
59.898415 -59.563272 42.883482
60.354654 -58.697764 42.683895
59.376888 -58.557181 44.426262
59.927278 -58.660019 43.619879
51.323851 -77.376393 44.169907
51.711905 -77.281109 43.009247
51.982163 -76.314247 43.970749
51.323851 -77.376393 44.169907
50.881147 -77.454353 45.327921
50.391008 -77.460724 46.352525
49.855667 -77.43766 47.367798
46.768383 -70.786476 51.110619
47.443653 -69.926368 50.859676
45.084364 -71.268853 51.51062
44.067478 -70.859741 51.59224
46.037168 -71.66185 51.334789
45.084364 -71.268853 51.51062
45.30888 -72.492561 51.568615
46.992899 -72.010185 51.168613
46.768383 -70.786476 51.110619
46.037168 -71.66185 51.334789
45.629137 -76.177345 51.324359
45.575039 -74.944931 51.478477
46.430679 -76.517498 50.854579
45.629137 -76.177345 51.324359
47.222894 -76.798073 50.38002
47.244997 -75.595127 50.693683
46.430679 -76.517498 50.854579
47.940071 -77.034928 49.728241
47.222894 -76.798073 50.38002
56.760193 -60.897429 46.329853
57.226116 -60.022875 46.136582
56.294117 -61.780234 46.601665
55.820595 -62.667881 46.858696
56.983502 -61.942154 46.051193
56.760193 -60.897429 46.329853
56.294117 -61.780234 46.601665
53.972774 -73.717613 34.7869
54.339863 -72.998276 35.932674
53.922317 -74.02015 36.116432
54.015442 -73.3517 33.436892
53.972774 -73.717613 34.7869
52.350419 -76.933696 40.489752
52.65871 -76.042191 41.552464
52.061924 -77.11047 41.747377
52.60933 -76.680488 39.16272
52.350419 -76.933696 40.489752
52.803478 -76.430748 37.845688
53.141354 -75.615677 38.977806
52.60933 -76.680488 39.16272
52.976889 -76.106278 36.486492
52.803478 -76.430748 37.845688
53.445366 -75.052712 36.315716
52.976889 -76.106278 36.486492
3 0 18 16
3 0 21 19
3 0 16 21
3 65 64 22
3 1 66 68
3 66 24 67
3 66 67 68
3 2 28 26
3 4 31 29
3 4 69 71
3 71 70 31
3 69 70 71
3 2 72 74
3 72 33 73
3 72 73 74
3 2 26 33
3 3 37 35
3 5 38 17
3 5 39 38
3 6 42 40
3 75 43 76
3 77 76 20
3 75 76 77
3 79 78 43
3 80 45 81
3 9 82 84
3 82 46 83
3 82 83 84
3 9 47 46
3 86 85 23
3 7 48 41
3 88 87 25
3 10 51 49
3 12 52 27
3 12 53 52
3 8 54 44
3 13 55 30
3 13 56 55
3 13 89 91
3 91 90 56
3 89 90 91
3 92 57 93
3 94 93 32
3 92 93 94
3 95 58 96
3 97 96 57
3 95 96 97
3 14 98 99
3 14 100 102
3 100 59 101
3 100 101 102
3 14 60 59
3 10 61 34
3 10 49 61
3 11 62 50
3 15 63 36
3 15 103 105
3 105 104 63
3 103 104 105
3 16 106 108
3 106 17 107
3 106 107 108
3 18 17 16
3 18 5 17
3 19 20 6
3 21 20 19
3 21 109 111
3 111 110 20
3 109 110 111
3 21 112 113
3 16 114 116
3 116 115 21
3 114 115 116
3 16 117 118
3 119 9 120
3 22 121 122
3 124 123 22
3 125 23 126
3 24 127 129
3 127 23 128
3 127 128 129
3 24 130 132
3 132 131 23
3 130 131 132
3 133 25 134
3 135 134 7
3 133 134 135
3 136 25 137
3 139 138 25
3 26 27 10
3 28 27 26
3 28 12 27
3 29 30 8
3 31 30 29
3 31 13 30
3 31 140 142
3 142 141 13
3 140 141 142
3 145 144 31
3 143 144 145
3 146 32 147
3 148 32 149
3 151 150 32
3 33 152 153
3 33 154 156
3 154 14 155
3 154 155 156
3 33 34 14
3 26 34 33
3 26 10 34
3 35 36 11
3 37 36 35
3 37 15 36
3 17 157 158
3 38 159 161
3 161 160 17
3 159 160 161
3 38 162 163
3 38 164 166
3 164 22 165
3 164 165 166
3 39 22 38
3 39 167 169
3 169 168 22
3 167 168 169
3 40 41 1
3 42 41 40
3 42 7 41
3 20 42 6
3 43 42 20
3 43 7 42
3 43 170 172
3 172 171 7
3 170 171 172
3 174 173 43
3 175 44 176
3 177 176 2
3 175 176 177
3 45 178 180
3 178 44 179
3 178 179 180
3 45 8 44
3 181 45 182
3 46 183 185
3 183 45 184
3 183 184 185
3 46 8 45
3 46 29 8
3 47 29 46
3 47 4 29
3 186 2 187
3 189 188 3
3 23 190 191
3 193 192 23
3 41 24 1
3 48 24 41
3 48 194 196
3 196 195 24
3 194 195 196
3 25 48 7
3 197 48 198
3 199 198 25
3 197 198 199
3 201 200 48
3 49 50 0
3 51 50 49
3 51 11 50
3 27 51 10
3 52 51 27
3 52 11 51
3 52 35 11
3 53 35 52
3 53 3 35
3 44 28 2
3 54 28 44
3 54 12 28
3 30 54 8
3 55 54 30
3 55 12 54
3 55 53 12
3 56 53 55
3 56 3 53
3 56 202 204
3 204 203 3
3 202 203 204
3 206 205 56
3 208 207 13
3 209 9 210
3 32 211 212
3 57 213 215
3 215 214 32
3 213 214 215
3 57 216 218
3 216 9 217
3 216 217 218
3 57 47 9
3 58 47 57
3 58 4 47
3 219 58 220
3 221 58 222
3 223 4 224
3 225 224 58
3 223 224 225
3 227 226 4
3 228 1 229
3 59 230 231
3 59 232 234
3 232 1 233
3 232 233 234
3 59 40 1
3 60 40 59
3 60 6 40
3 34 60 14
3 61 60 34
3 61 6 60
3 61 19 6
3 49 19 61
3 49 0 19
3 50 18 0
3 62 18 50
3 62 5 18
3 36 62 11
3 63 62 36
3 63 5 62
3 63 39 5
3 235 39 236
3 237 236 63
3 235 236 237
3 239 238 39
3 240 37 241
3 242 241 3
3 240 241 242
3 243 37 244
3 245 15 246
3 247 246 37
3 245 246 247
3 248 15 249
3 251 250 15
