ply
format ascii 1.0
element vertex 250
property float x
property float y
property float z
element face 262
property list uchar int vertex_index
end_header
51.639511 -32.794903 52.631256
58.153072 -35.688576 50.810493
44.337627 -39.800705 51.59536
51.873646 -42.390968 50.096649
46.104839 -49.182121 48.015335
55.070618 -29.388882 52.214859
57.829395 -30.816097 50.561684
54.674362 -34.151932 51.322388
41.009239 -43.448776 51.057022
44.684074 -44.312164 49.278549
41.88311 -47.917534 48.841621
53.136375 -47.339306 49.172897
55.979862 -43.993622 50.356178
47.979713 -36.264526 52.291237
51.291225 -37.49733 51.088821
47.888275 -40.857765 50.216095
48.844193 -45.729065 48.883873
45.224823 -35.762276 54.980782
41.385513 -39.521675 54.516556
38.037437 -43.33247 54.33934
55.04586 -39.065025 50.9412
53.396317 -31.08157 52.535004
54.777729 -31.741796 51.676109
53.088905 -33.424568 51.829567
39.559013 -45.32114 50.99292
41.301807 -45.622452 49.787338
39.988129 -47.483738 49.785416
57.917015 -33.243496 50.651093
46.138798 -38.021721 51.95649
47.790955 -38.518555 51.143471
46.043953 -40.245422 50.714996
45.280724 -46.714241 48.518112
46.723885 -44.972473 48.939758
47.4314 -47.436985 48.368492
49.622627 -48.219101 48.426735
48.323853 -49.935974 47.99493
47.195 -33.895233 55.171349
39.622509 -41.41914 54.364716
51.477592 -39.928246 50.557457
53.128876 -38.267075 50.936188
53.453568 -40.732922 50.609467
57.452831 -42.297295 50.732689
56.38765 -30.072155 51.27697
56.291866 -32.479172 51.077034
56.375801 -34.921726 51.022507
42.614632 -41.608253 51.274734
44.358719 -42.00116 50.301628
42.767616 -43.792946 49.97287
43.221794 -46.096127 48.970459
43.939198 -48.495384 48.269043
52.440201 -44.867565 49.645973
53.935081 -43.206421 50.250465
54.533508 -45.670403 49.802559
49.824276 -34.52314 52.535019
51.343433 -35.114586 51.762169
49.567734 -36.811073 51.514862
49.578461 -39.171558 50.699585
49.843597 -41.590797 50.042221
46.247959 -42.567833 49.716431
48.251549 -43.267776 49.47403
50.330429 -44.051373 49.489815
50.997894 -46.533371 49.004936
51.80278 -49.015877 48.572968
40.683689 -49.76561 48.917221
42.711559 -50.309566 48.226509
44.872944 -50.963184 47.868542
52.147087 -30.55335 53.701813
50.327232 -32.31831 53.772797
48.445236 -34.103867 53.672928
46.534397 -35.904987 53.450302
44.633171 -37.721169 53.162148
43.271301 -37.637337 54.741974
42.784496 -39.555691 52.871155
41.03466 -41.413216 52.64019
39.430943 -43.296459 52.5261
38.016941 -45.202988 52.573166
52.998951 -35.825523 51.314453
54.770821 -36.59864 51.10807
56.622467 -37.382118 51.023087
55.462269 -41.535355 50.718193
56.995277 -39.845547 50.962097
58.502113 -38.13784 50.918449
39.141481 -47.350302 50.450203
39.773571 -46.402439 50.389168
38.926924 -46.269003 51.053955
58.880388 -34.843283 50.547356
58.76236 -33.620743 50.467656
58.035044 -34.466036 50.730793
59.050315 -36.056278 50.680943
59.777631 -35.210985 50.417805
58.880388 -34.843283 50.547356
55.729134 -29.730518 51.745914
56.51616 -28.898485 51.46516
55.857644 -28.556849 51.934105
58.549867 -29.995643 50.169292
57.865781 -29.620445 50.592304
51.171409 -49.865099 48.334885
50.712704 -48.617489 48.499852
50.081333 -49.466711 48.261769
52.251442 -50.246921 48.38379
51.171409 -49.865099 48.334885
40.15633 -50.693647 49.057083
39.764065 -49.564118 49.450874
43.22483 -51.539876 48.083683
42.15699 -51.225793 48.311348
44.305523 -51.866686 47.904699
43.792251 -50.636375 48.047525
43.22483 -51.539876 48.083683
52.467022 -29.480878 54.30653
53.012329 -29.685437 53.562565
49.731915 -32.17922 54.514145
50.669125 -31.262467 54.477611
48.790917 -33.071999 54.464211
49.386234 -33.211089 53.722862
49.731915 -32.17922 54.514145
42.328407 -38.579506 54.629265
42.653188 -37.701931 55.692238
41.710295 -38.6441 55.579529
57.958244 -40.212004 50.905914
57.224054 -41.071421 50.847393
58.187021 -41.437878 50.79121
58.711662 -39.35815 50.88409
57.748695 -38.991693 50.940273
57.958244 -40.212004 50.905914
59.424358 -38.491808 50.785378
58.711662 -39.35815 50.88409
54.174057 -47.723448 49.209667
53.529221 -48.563368 48.923133
58.643952 -32.410652 50.318966
58.600141 -31.196953 50.274262
57.873205 -32.029797 50.606389
58.643952 -32.410652 50.318966
58.76236 -33.620743 50.467656
49.431946 -50.325147 48.045866
50.081333 -49.466711 48.261769
48.97324 -49.077538 48.210832
47.616826 -32.941299 56.106465
48.165799 -32.967682 55.213421
46.621748 -33.904726 56.0793
47.616826 -32.941299 56.106465
45.63666 -34.838248 55.984016
46.209912 -34.828755 55.076065
46.621748 -33.904726 56.0793
40.755228 -39.604004 55.494748
41.710295 -38.6441 55.579529
39.873726 -40.552736 55.418827
40.504011 -40.470408 54.440636
40.755228 -39.604004 55.494748
38.992956 -41.513136 55.37468
39.873726 -40.552736 55.418827
38.20042 -42.469801 55.361992
38.829973 -42.375805 54.352028
38.992956 -41.513136 55.37468
57.705584 -43.509337 50.499168
56.716347 -43.145459 50.544433
56.969099 -44.3575 50.310913
58.412205 -42.646473 50.620659
57.705584 -43.509337 50.499168
58.187021 -41.437878 50.79121
58.412205 -42.646473 50.620659
57.144909 -29.248474 50.949948
56.51616 -28.898485 51.46516
57.108522 -30.444126 50.919327
57.865781 -29.620445 50.592304
57.144909 -29.248474 50.949948
54.872624 -46.888997 49.524498
53.834941 -46.504855 49.487728
54.174057 -47.723448 49.209667
55.548034 -46.046858 49.807709
54.872624 -46.888997 49.524498
56.271211 -45.208467 50.084519
55.256685 -44.832013 50.079369
55.548034 -46.046858 49.807709
56.969099 -44.3575 50.310913
56.271211 -45.208467 50.084519
58.549867 -29.995643 50.169292
58.600141 -31.196953 50.274262
52.862423 -49.401654 48.623169
53.529221 -48.563368 48.923133
52.469577 -48.177592 48.872933
52.862423 -49.401654 48.623169
52.251442 -50.246921 48.38379
39.416285 -48.423181 49.884972
39.141481 -47.350302 50.450203
40.335909 -48.624674 49.351318
39.416285 -48.423181 49.884972
39.764065 -49.564118 49.450874
41.143055 -50.953816 48.656704
40.15633 -50.693647 49.057083
41.697624 -50.037588 48.571865
41.143055 -50.953816 48.656704
42.15699 -51.225793 48.311348
45.421236 -52.216697 47.81373
44.305523 -51.866686 47.904699
45.989633 -51.325546 47.816851
45.421236 -52.216697 47.81373
46.605581 -50.435015 47.890248
45.488891 -50.072653 47.941938
45.989633 -51.325546 47.816851
47.715088 -50.811941 47.880045
47.214346 -49.559048 48.005133
46.605581 -50.435015 47.890248
48.836831 -51.189636 47.903425
47.715088 -50.811941 47.880045
49.431946 -50.325147 48.045866
48.836831 -51.189636 47.903425
55.284607 -28.254702 52.564033
55.857644 -28.556849 51.934105
54.474095 -29.103203 52.819088
55.284607 -28.254702 52.564033
53.636944 -29.949547 52.97916
54.233468 -30.235226 52.374932
54.474095 -29.103203 52.819088
52.771702 -30.81746 53.118409
53.636944 -29.949547 52.97916
53.012329 -29.685437 53.562565
51.579052 -30.379987 54.44212
52.467022 -29.480878 54.30653
51.23716 -31.43583 53.737305
51.579052 -30.379987 54.44212
50.669125 -31.262467 54.477611
47.820118 -33.99955 54.422139
48.790917 -33.071999 54.464211
48.165799 -32.967682 55.213421
44.627226 -35.802517 55.907612
45.63666 -34.838248 55.984016
43.650465 -36.740048 55.788208
42.653188 -37.701931 55.692238
44.248062 -36.699807 54.861378
44.627226 -35.802517 55.907612
43.650465 -36.740048 55.788208
38.155888 -46.209927 51.844078
38.926924 -46.269003 51.053955
38.787977 -45.262064 51.783043
37.425231 -43.433084 55.383766
38.20042 -42.469801 55.361992
37.358244 -44.296137 54.40961
37.425231 -43.433084 55.383766
37.347995 -45.231396 53.526523
38.027189 -44.267729 53.456253
37.358244 -44.296137 54.40961
37.421488 -46.163178 52.690201
37.347995 -45.231396 53.526523
38.155888 -46.209927 51.844078
37.421488 -46.163178 52.690201
59.224836 -37.28091 50.734921
59.050315 -36.056278 50.680943
58.327593 -36.913208 50.864471
59.224836 -37.28091 50.734921
59.424358 -38.491808 50.785378
3 0 23 21
3 82 26 83
3 84 83 24
3 82 83 84
3 1 85 87
3 87 86 27
3 85 86 87
3 1 88 90
3 88 89 90
3 2 30 28
3 4 33 31
3 4 35 33
3 3 40 38
3 5 91 93
3 91 42 92
3 91 92 93
3 7 43 22
3 7 44 43
3 8 47 45
3 10 48 25
3 10 49 48
3 11 52 50
3 6 94 95
3 13 55 53
3 15 56 29
3 15 57 56
3 9 58 46
3 16 59 32
3 16 60 59
3 16 61 60
3 96 62 97
3 98 97 34
3 96 97 98
3 100 99 62
3 101 63 102
3 103 64 104
3 105 65 106
3 107 106 64
3 105 106 107
3 108 66 109
3 110 67 111
3 112 68 113
3 114 113 67
3 112 113 114
3 17 69 36
3 17 70 69
3 18 115 117
3 115 71 116
3 115 116 117
3 18 72 71
3 18 73 72
3 19 74 37
3 19 75 74
3 14 76 54
3 20 77 39
3 20 78 77
3 12 79 51
3 118 80 119
3 120 119 41
3 118 119 120
3 121 81 122
3 123 122 80
3 121 122 123
3 125 124 81
3 21 22 5
3 23 22 21
3 23 7 22
3 24 25 8
3 26 25 24
3 26 10 25
3 127 126 11
3 27 128 130
3 130 129 6
3 128 129 130
3 132 131 27
3 28 29 13
3 30 29 28
3 30 15 29
3 31 32 9
3 33 32 31
3 33 16 32
3 33 34 16
3 35 34 33
3 35 133 135
3 135 134 34
3 133 134 135
3 136 36 137
3 138 36 139
3 140 17 141
3 142 141 36
3 140 141 142
3 143 18 144
3 145 37 146
3 147 146 18
3 145 146 147
3 148 37 149
3 150 19 151
3 152 151 37
3 150 151 152
3 38 39 14
3 40 39 38
3 40 20 39
3 153 41 154
3 155 154 12
3 153 154 155
3 156 41 157
3 159 158 41
3 42 160 161
3 42 162 164
3 162 6 163
3 162 163 164
3 22 42 5
3 43 42 22
3 43 6 42
3 43 27 6
3 44 27 43
3 44 1 27
3 45 46 2
3 47 46 45
3 47 9 46
3 25 47 8
3 48 47 25
3 48 9 47
3 48 31 9
3 49 31 48
3 49 4 31
3 50 51 3
3 52 51 50
3 52 12 51
3 165 52 166
3 167 166 11
3 165 166 167
3 168 52 169
3 170 12 171
3 172 171 52
3 170 171 172
3 174 173 12
3 176 175 6
3 53 54 0
3 55 54 53
3 55 14 54
3 29 55 13
3 56 55 29
3 56 14 55
3 56 38 14
3 57 38 56
3 57 3 38
3 46 30 2
3 58 30 46
3 58 15 30
3 32 58 9
3 59 58 32
3 59 15 58
3 59 57 15
3 60 57 59
3 60 3 57
3 60 50 3
3 61 50 60
3 61 11 50
3 34 61 16
3 62 61 34
3 62 11 61
3 62 177 179
3 179 178 11
3 177 178 179
3 181 180 62
3 182 26 183
3 63 184 186
3 184 26 185
3 184 185 186
3 63 10 26
3 187 63 188
3 64 189 191
3 189 63 190
3 189 190 191
3 64 10 63
3 64 49 10
3 65 49 64
3 65 4 49
3 192 65 193
3 194 65 195
3 196 4 197
3 198 197 65
3 196 197 198
3 199 35 200
3 201 200 4
3 199 200 201
3 202 35 203
3 205 204 35
3 206 5 207
3 208 5 209
3 210 21 211
3 212 211 5
3 210 211 212
3 66 213 215
3 213 21 214
3 213 214 215
3 66 0 21
3 216 66 217
3 67 218 220
3 218 66 219
3 218 219 220
3 67 0 66
3 67 53 0
3 68 53 67
3 68 13 53
3 36 221 223
3 221 68 222
3 221 222 223
3 69 68 36
3 69 13 68
3 69 28 13
3 70 28 69
3 70 2 28
3 224 17 225
3 71 226 227
3 71 228 230
3 228 17 229
3 228 229 230
3 71 70 17
3 72 70 71
3 72 2 70
3 72 45 2
3 73 45 72
3 73 8 45
3 37 73 18
3 74 73 37
3 74 8 73
3 74 24 8
3 75 24 74
3 75 231 233
3 233 232 24
3 231 232 233
3 234 19 235
3 236 19 237
3 238 75 239
3 240 239 19
3 238 239 240
3 241 75 242
3 244 243 75
3 54 23 0
3 76 23 54
3 76 7 23
3 39 76 14
3 77 76 39
3 77 7 76
3 77 44 7
3 78 44 77
3 78 1 44
3 51 40 3
3 79 40 51
3 79 20 40
3 41 79 12
3 80 79 41
3 80 20 79
3 80 78 20
3 81 78 80
3 81 1 78
3 81 245 247
3 247 246 1
3 245 246 247
3 249 248 81
