ply
format ascii 1.0
element vertex 218
property float x
property float y
property float z
element face 192
property list uchar int vertex_index
end_header
9.123188 -100.854187 42.884499
6.478184 -116.194283 21.28437
6.600822 -108.632172 33.725662
13.272579 -103.693504 42.415958
8.1049 -104.870918 38.885803
7.142529 -101.362465 37.642426
10.803829 -103.17907 43.560825
10.239025 -106.868782 38.406265
5.85519 -112.323677 27.648003
16.321039 -102.296349 39.722771
8.140327 -97.17942 40.841885
8.760494 -102.892929 41.02803
7.482359 -103.274223 38.44783
8.208998 -101.234459 40.343281
9.861813 -102.219765 43.435875
9.556488 -104.188423 41.30954
8.02845 -115.007576 23.64539
8.702148 -116.849815 20.518723
6.076414 -110.466797 30.767588
4.372355 -111.037689 28.118172
4.84873 -109.09623 31.07518
12.975662 -101.967339 45.200985
14.321371 -101.598724 44.299141
15.770793 -100.766502 43.046211
14.741806 -103.219528 41.215912
14.995246 -104.815773 37.951633
13.365129 -105.378044 39.383762
8.436607 -107.911659 36.167221
9.854553 -108.604324 35.43502
7.939188 -109.680885 33.206596
7.65992 -111.430992 30.072166
7.326538 -106.778572 36.447128
5.619446 -107.18222 33.810593
6.555428 -105.252968 36.273701
11.94833 -103.680382 43.218086
11.886843 -105.463562 40.472618
10.604719 -105.060257 41.128571
9.027622 -106.087257 38.882538
5.987562 -114.231911 24.457912
4.541676 -115.118088 21.861588
4.263161 -113.041481 25.017429
17.300251 -99.535538 41.557034
17.983555 -101.002831 38.071476
11.702871 -107.178734 37.478149
8.564241 -99.149055 41.986423
7.867287 -99.283676 39.347656
9.492501 -101.536976 43.160187
9.835165 -101.213741 44.353783
9.465853 -100.530952 44.078094
5.833343 -116.719479 20.006646
6.888134 -117.187092 19.737558
6.888134 -117.187092 19.737558
8.000116 -117.514858 19.354734
7.590166 -116.522049 20.901547
6.634398 -102.378552 36.668559
6.804312 -103.33443 37.071261
7.312444 -102.318344 38.045128
6.577355 -101.316223 36.217968
6.634398 -102.378552 36.668559
11.282817 -102.513004 44.617612
10.753681 -102.21333 44.625726
11.376079 -103.429726 43.389455
11.855068 -102.763661 44.446243
11.282817 -102.513004 44.617612
3.642633 -111.254139 26.700665
3.826888 -110.209831 28.175987
4.818285 -107.274463 32.397177
5.319065 -106.283935 33.644264
16.529037 -103.061645 38.012219
17.360295 -102.414886 37.186571
17.152297 -101.64959 38.897123
15.090829 -105.596119 36.270692
14.182194 -105.911407 37.060361
10.691999 -108.716804 34.867928
9.720923 -109.446648 33.859146
6.766908 -112.761463 27.251198
7.669273 -112.315121 28.463279
6.757555 -111.877335 28.860084
5.921376 -113.277794 26.052957
6.833094 -113.71558 25.656153
6.766908 -112.761463 27.251198
3.969818 -115.511047 20.478906
3.747743 -114.383964 22.035765
10.282673 -101.733677 44.563251
9.835165 -101.213741 44.353783
10.332821 -102.699417 43.49835
10.753681 -102.21333 44.625726
10.282673 -101.733677 44.563251
9.17324 -115.179062 23.14294
8.903363 -114.323715 24.721909
9.510089 -116.100182 21.579607
9.17324 -115.179062 23.14294
8.365299 -115.928696 22.082057
9.922812 -116.961219 20.067485
9.510089 -116.100182 21.579607
9.18246 -117.768196 19.016463
9.922812 -116.961219 20.067485
9.18246 -117.768196 19.016463
8.000116 -117.514858 19.354734
4.065076 -109.239102 29.654491
3.826888 -110.209831 28.175987
4.610542 -110.066959 29.596676
13.310968 -100.972382 46.169302
12.67897 -101.09726 46.450091
13.983822 -100.788074 45.71838
13.310968 -100.972382 46.169302
13.648516 -101.783031 44.750063
14.663284 -100.428432 45.244355
13.983822 -100.788074 45.71838
15.046082 -101.182613 43.672676
15.387995 -100.012321 44.61789
14.663284 -100.428432 45.244355
13.367136 -106.192543 37.776426
14.182194 -105.911407 37.060361
14.180187 -105.096908 38.667698
8.763241 -109.984928 32.744934
9.720923 -109.446648 33.859146
8.89687 -109.142605 34.320808
7.799554 -110.555938 31.639381
8.623607 -110.859982 31.177719
8.763241 -109.984928 32.744934
7.909883 -97.147403 39.494436
7.967651 -96.100696 40.196787
5.787056 -105.31931 34.875819
5.319065 -106.283935 33.644264
6.087437 -106.217594 35.042147
6.340847 -104.323803 35.984196
7.018893 -104.263596 37.360765
6.804312 -103.33443 37.071261
5.787056 -105.31931 34.875819
6.340847 -104.323803 35.984196
12.368734 -101.907139 45.437692
12.67897 -101.09726 46.450091
12.461996 -102.82386 44.209536
12.368734 -101.907139 45.437692
11.855068 -102.763661 44.446243
3.608486 -113.345661 23.613686
3.747743 -114.383964 22.035765
4.402418 -114.079785 23.439509
3.588037 -112.256035 25.150294
4.317758 -112.039585 26.567801
3.642633 -111.254139 26.700665
3.608486 -113.345661 23.613686
3.588037 -112.256035 25.150294
4.432927 -108.231469 31.029471
5.234088 -108.139225 32.442887
4.818285 -107.274463 32.397177
4.065076 -109.239102 29.654491
4.432927 -108.231469 31.029471
16.104847 -99.443153 43.994712
15.387995 -100.012321 44.61789
16.869575 -98.827671 43.250124
16.104847 -99.443153 43.994712
16.535522 -100.15102 42.301623
17.61745 -98.094098 42.53732
16.869575 -98.827671 43.250124
18.098128 -98.773395 40.763514
17.61745 -98.094098 42.53732
18.43978 -99.507042 39.020735
18.098128 -98.773395 40.763514
17.641903 -100.269184 39.814255
18.848785 -100.230324 37.241545
18.43978 -99.507042 39.020735
18.272486 -101.752961 36.325701
18.848785 -100.230324 37.241545
18.272486 -101.752961 36.325701
17.360295 -102.414886 37.186571
15.86614 -104.321358 37.126649
16.529037 -103.061645 38.012219
15.658143 -103.556061 38.837202
15.86614 -104.321358 37.126649
15.090829 -105.596119 36.270692
12.536007 -107.092888 36.823619
13.367136 -106.192543 37.776426
12.534 -106.278389 38.430955
11.616159 -108.004009 35.889492
10.778712 -107.891529 36.456585
10.691999 -108.716804 34.867928
12.536007 -107.092888 36.823619
11.616159 -108.004009 35.889492
8.600561 -111.693996 29.555911
8.623607 -110.859982 31.177719
8.600561 -111.693996 29.555911
7.669273 -112.315121 28.463279
7.853538 -114.103412 25.249892
8.903363 -114.323715 24.721909
7.008006 -114.619743 24.051651
7.853538 -114.103412 25.249892
6.833094 -113.71558 25.656153
8.813869 -98.967331 43.233762
8.843715 -100.001621 42.435461
9.093342 -99.819896 43.6828
8.49987 -98.100815 42.69776
8.813869 -98.967331 43.233762
8.287913 -97.115997 42.12549
8.352284 -98.164237 41.414154
8.49987 -98.100815 42.69776
8.009863 -96.132431 41.497751
8.287913 -97.115997 42.12549
7.967651 -96.100696 40.196787
8.009863 -96.132431 41.497751
9.093342 -99.819896 43.6828
9.465853 -100.530952 44.078094
4.865089 -116.181382 20.295255
5.833343 -116.719479 20.006646
5.50993 -115.656185 21.572979
4.865089 -116.181382 20.295255
3.969818 -115.511047 20.478906
7.773364 -98.199532 38.747322
8.003807 -98.231548 40.09477
7.909883 -97.147403 39.494436
7.453794 -99.245083 37.958715
7.773364 -98.199532 38.747322
7.091416 -100.284478 37.1061
7.504908 -100.323071 38.495041
7.453794 -99.245083 37.958715
6.577355 -101.316223 36.217968
7.091416 -100.284478 37.1061
3 0 13 11
3 0 46 48
3 46 14 47
3 46 47 48
3 0 11 14
3 1 49 50
3 1 17 16
3 1 51 53
3 53 52 17
3 51 52 53
3 2 20 18
3 3 22 21
3 3 24 22
3 3 26 24
3 2 29 27
3 2 18 29
3 4 33 31
3 5 54 56
3 56 55 12
3 54 55 56
3 5 57 58
3 6 59 60
3 6 61 63
3 61 34 62
3 61 62 63
3 6 36 34
3 4 37 15
3 4 31 37
3 8 40 38
3 65 64 19
3 67 66 32
3 9 41 23
3 9 42 41
3 9 68 70
3 70 69 42
3 68 69 70
3 72 71 25
3 7 43 35
3 74 73 28
3 8 75 77
3 77 76 30
3 75 76 77
3 8 78 80
3 78 38 79
3 78 79 80
3 82 81 39
3 10 45 44
3 11 12 4
3 13 12 11
3 13 5 12
3 14 83 84
3 14 85 87
3 85 6 86
3 85 86 87
3 14 15 6
3 11 15 14
3 11 4 15
3 16 88 89
3 17 90 92
3 92 91 16
3 90 91 92
3 17 93 94
3 17 95 96
3 98 97 17
3 18 19 8
3 20 19 18
3 20 99 101
3 101 100 19
3 99 100 101
3 21 102 103
3 22 104 106
3 106 105 21
3 104 105 106
3 22 107 108
3 22 109 111
3 109 23 110
3 109 110 111
3 24 23 22
3 24 9 23
3 24 25 9
3 26 25 24
3 26 112 114
3 114 113 25
3 112 113 114
3 27 28 7
3 29 28 27
3 29 115 117
3 117 116 28
3 115 116 117
3 29 118 120
3 118 30 119
3 118 119 120
3 18 30 29
3 18 8 30
3 122 121 10
3 31 32 2
3 33 32 31
3 33 123 125
3 125 124 32
3 123 124 125
3 12 33 4
3 126 33 127
3 128 127 12
3 126 127 128
3 130 129 33
3 131 21 132
3 34 133 135
3 133 21 134
3 133 134 135
3 34 3 21
3 34 35 3
3 36 35 34
3 36 7 35
3 15 36 6
3 37 36 15
3 37 7 36
3 37 27 7
3 31 27 37
3 31 2 27
3 38 39 1
3 40 39 38
3 40 136 138
3 138 137 39
3 136 137 138
3 19 40 8
3 139 40 140
3 141 140 19
3 139 140 141
3 143 142 40
3 32 20 2
3 144 20 145
3 146 145 32
3 144 145 146
3 148 147 20
3 23 149 150
3 41 151 153
3 153 152 23
3 151 152 153
3 41 154 155
3 41 156 157
3 42 158 160
3 160 159 41
3 158 159 160
3 42 161 162
3 42 163 164
3 166 165 42
3 25 167 169
3 169 168 9
3 167 168 169
3 171 170 25
3 35 26 3
3 43 26 35
3 43 172 174
3 174 173 26
3 172 173 174
3 28 43 7
3 175 43 176
3 177 176 28
3 175 176 177
3 179 178 43
3 30 180 181
3 183 182 30
3 184 16 185
3 38 186 188
3 186 16 187
3 186 187 188
3 38 1 16
3 189 44 190
3 191 190 0
3 189 190 191
3 192 44 193
3 194 10 195
3 196 195 44
3 194 195 196
3 197 10 198
3 200 199 10
3 201 0 202
3 39 203 205
3 205 204 1
3 203 204 205
3 207 206 39
3 44 13 0
3 45 13 44
3 45 5 13
3 208 45 209
3 210 209 10
3 208 209 210
3 211 45 212
3 213 5 214
3 215 214 45
3 213 214 215
3 217 216 5
