ply
format ascii 1.0
element vertex 243
property float x
property float y
property float z
element face 242
property list uchar int vertex_index
end_header
-5.426655 -97.988327 5.072063
-1.732515 -102.337601 -2.612814
-11.5261 -87.532394 5.66717
-1.904495 -100.291794 11.831027
-7.868162 -91.44458 -0.020724
-8.859602 -92.719269 5.470083
-10.330582 -90.133606 2.756076
-6.844727 -95.51944 2.372836
-2.420549 -103.420944 4.031309
-3.521292 -100.905518 1.392601
-1.306992 -106.329819 -0.575954
-12.390921 -82.558456 5.977412
-9.853828 -88.981537 8.70483
-7.0007 -94.016159 8.554932
-5.11812 -94.828644 12.084479
-3.661013 -99.310059 8.175034
-12.614647 -84.733017 3.132225
-4.306929 -96.910889 -0.830265
-7.158703 -95.339478 5.324802
-7.961416 -94.278381 3.921852
-6.189056 -96.938705 3.679315
-1.843071 -105.062485 1.783187
-8.954758 -89.418671 10.396812
-8.565636 -91.474319 8.640226
-7.62048 -91.887527 10.335251
-3.463892 -97.498474 11.991541
-4.361309 -97.057144 10.132036
-2.749542 -99.79277 9.923992
-2.175667 -102.089615 7.795613
-1.333956 -102.638763 9.592399
-12.218239 -84.994217 5.80012
-12.713305 -83.749237 4.548402
-12.174841 -86.332794 4.334029
-9.213541 -90.964828 1.359988
-10.842375 -88.219604 1.534545
-2.559055 -101.813522 -0.573772
-3.934311 -99.105591 0.240418
-2.847492 -99.629929 -1.58005
-0.571436 -103.205811 11.560463
-10.367071 -90.116104 5.567616
-11.119108 -88.971329 4.186588
-9.661772 -91.624374 4.068057
-8.649261 -92.831741 2.601554
-7.398623 -93.689133 1.142519
-3.809177 -100.679977 4.654828
-4.501581 -99.618408 3.272632
-3.024137 -102.327057 2.649308
-2.241402 -103.617004 0.538025
-1.529974 -104.515625 -1.663414
-0.878555 -107.19046 -3.006411
-11.833109 -83.474045 7.312115
-11.530851 -85.894379 7.211553
-10.734884 -86.533737 8.768047
-10.730612 -88.38707 7.126633
-9.498491 -90.920212 7.052423
-7.958229 -93.484329 6.96358
-6.263706 -96.087296 6.817883
-6.711386 -92.270523 12.146683
-6.036572 -94.427414 10.256434
-5.314222 -96.622238 8.414206
-4.571875 -98.744995 6.564648
-3.021265 -101.470734 6.156017
-12.940348 -82.099777 3.459045
-12.800976 -82.717468 2.058775
-11.706718 -87.426529 2.912445
-12.092916 -85.461151 1.746517
-5.088667 -98.207062 1.991533
-5.585934 -96.399139 0.795162
-6.025534 -94.184525 -0.332607
-4.690624 -94.337738 -1.84457
-6.444536 -91.586182 -1.408676
-8.518225 -89.61203 11.299583
-9.019479 -88.417122 11.328005
-7.851086 -90.846458 11.268802
-8.287619 -90.653099 10.366032
-8.518225 -89.61203 11.299583
-2.684194 -98.895134 11.911284
-3.072496 -97.763787 13.000543
-2.292797 -99.160447 12.920286
-8.761954 -90.063202 0.08635
-9.434643 -89.823326 0.776706
-8.540851 -91.204704 0.669632
-8.071314 -90.130028 -0.573793
-8.761954 -90.063202 0.08635
-0.772727 -107.413147 -4.227048
-0.744144 -108.497459 -3.777936
-0.94069 -106.103347 -3.462231
-0.772727 -107.413147 -4.227048
-11.481008 -83.808228 8.07162
-11.42951 -82.653107 8.095439
-11.329878 -85.018394 8.021339
-11.68198 -84.684212 7.261834
-11.481008 -83.808228 8.07162
-10.294356 -87.757637 8.736438
-10.318319 -86.770729 9.611168
-9.877791 -87.994629 9.57956
-5.499255 -93.773308 13.085272
-4.706721 -95.069519 13.069915
-5.914753 -93.549583 12.115581
-6.295888 -92.494248 13.116373
-5.499255 -93.773308 13.085272
-1.947337 -103.177765 6.676513
-1.568232 -103.522606 7.519822
-0.392725 -104.393723 10.33187
-0.06642 -104.711869 11.350109
-12.539266 -81.924984 5.415415
-12.237752 -81.444157 6.084599
-11.638818 -85.677612 1.074242
-11.467645 -86.840378 1.640531
-11.013548 -87.056838 0.968256
-12.175237 -84.27776 1.215882
-11.638818 -85.677612 1.074242
-4.910527 -92.882408 -2.336362
-4.136262 -94.262383 -2.62701
-5.787483 -91.50663 -2.118415
-5.56758 -92.96196 -1.626623
-4.910527 -92.882408 -2.336362
-6.659016 -90.118462 -1.929431
-5.787483 -91.50663 -2.118415
-1.590708 -105.632821 2.483275
-2.13181 -104.241715 2.907248
-1.879447 -104.81205 3.607336
-1.425469 -106.434876 1.230884
-1.590708 -105.632821 2.483275
-1.157429 -107.068543 0.051314
-1.575031 -105.696152 0.603617
-1.425469 -106.434876 1.230884
-9.428256 -88.213196 10.425551
-9.019479 -88.417122 11.328005
-9.404293 -89.200104 9.550821
-9.877791 -87.994629 9.57956
-9.428256 -88.213196 10.425551
-3.879607 -96.404434 13.023446
-3.072496 -97.763787 13.000543
-4.291006 -96.163559 12.03801
-4.706721 -95.069519 13.069915
-3.879607 -96.404434 13.023446
-1.147376 -103.79718 8.418215
-1.568232 -103.522606 7.519822
-1.754811 -102.364189 8.694006
-10.24906 -88.450714 0.863984
-10.027958 -89.592216 1.447267
-9.434643 -89.823326 0.776706
-11.013548 -87.056838 0.968256
-10.24906 -88.450714 0.863984
-1.54932 -100.58561 12.869938
-2.292797 -99.160447 12.920286
-0.882791 -102.042618 12.734656
-1.237966 -101.748802 11.695745
-1.54932 -100.58561 12.869938
-0.267984 -103.527946 12.632333
-0.882791 -102.042618 12.734656
-0.06642 -104.711869 11.350109
-0.267984 -103.527946 12.632333
-1.858404 -101.0682 -3.037573
-1.460865 -102.41446 -3.653805
-1.024992 -107.673775 -1.248034
-1.157429 -107.068543 0.051314
-0.810774 -108.104095 -2.463263
-0.744144 -108.497459 -3.777936
-1.092773 -106.76014 -1.791182
-1.024992 -107.673775 -1.248034
-0.810774 -108.104095 -2.463263
-1.266399 -104.76593 -2.790732
-1.204264 -105.853043 -2.334912
-0.94069 -106.103347 -3.462231
-1.36767 -103.676918 -3.265433
-1.631244 -103.426613 -2.138114
-1.266399 -104.76593 -2.790732
-1.460865 -102.41446 -3.653805
-1.36767 -103.676918 -3.265433
-12.021002 -81.869671 6.694752
-12.237752 -81.444157 6.084599
-11.742096 -82.327465 7.362104
-11.42951 -82.653107 8.095439
-12.112015 -83.016251 6.644763
-12.021002 -81.869671 6.694752
-11.742096 -82.327465 7.362104
-10.55201 -85.592842 9.636355
-10.318319 -86.770729 9.611168
-10.931895 -85.338074 8.799586
-10.55201 -85.592842 9.636355
-11.132867 -86.214058 7.9898
-11.329878 -85.018394 8.021339
-10.931895 -85.338074 8.799586
-6.991242 -91.253533 13.13588
-6.295888 -92.494248 13.116373
-7.396539 -91.037956 12.174518
-6.991242 -91.253533 13.13588
-7.165933 -92.079025 11.240967
-7.851086 -90.846458 11.268802
-7.396539 -91.037956 12.174518
-2.370136 -102.868324 5.856715
-2.598466 -101.780174 6.975815
-1.947337 -103.177765 6.676513
-2.069778 -103.84343 4.79436
-2.720907 -102.445839 5.093663
-2.370136 -102.868324 5.856715
-1.879447 -104.81205 3.607336
-2.069778 -103.84343 4.79436
-0.773985 -104.110199 9.347838
-0.952696 -102.922287 10.576431
-0.392725 -104.393723 10.33187
-1.147376 -103.79718 8.418215
-0.773985 -104.110199 9.347838
-12.700458 -82.520375 4.70091
-12.539266 -81.924984 5.415415
-12.552113 -83.153847 5.262907
-12.81398 -81.695645 4.156232
-12.700458 -82.520375 4.70091
-12.826826 -82.924507 4.003724
-12.78902 -80.844185 3.693675
-12.81398 -81.695645 4.156232
-12.900278 -81.066876 2.987027
-12.78902 -80.844185 3.693675
-12.830592 -81.375721 2.286892
-12.900278 -81.066876 2.987027
-12.870662 -82.408623 2.75891
-12.759211 -81.515548 1.580575
-12.830592 -81.375721 2.286892
-12.529267 -82.905918 1.372011
-12.446946 -84.089309 1.902646
-12.175237 -84.27776 1.215882
-12.759211 -81.515548 1.580575
-12.529267 -82.905918 1.372011
-2.415892 -99.714364 -2.521191
-2.290004 -100.983765 -2.096432
-1.858404 -101.0682 -3.037573
-3.008367 -98.35299 -2.046844
-2.415892 -99.714364 -2.521191
-3.738085 -96.99347 -1.671952
-3.577211 -98.270409 -1.205157
-3.008367 -98.35299 -2.046844
-3.929932 -95.706894 -2.179104
-4.136262 -94.262383 -2.62701
-4.498776 -95.624313 -1.337417
-3.738085 -96.99347 -1.671952
-3.929932 -95.706894 -2.179104
-7.359501 -90.200829 -1.267769
-8.071314 -90.130028 -0.573793
-7.156349 -91.515381 -0.7147
-7.359501 -90.200829 -1.267769
-6.659016 -90.118462 -1.929431
3 0 20 18
3 71 22 72
3 73 24 74
3 75 74 22
3 73 74 75
3 3 76 78
3 76 25 77
3 76 77 78
3 3 27 25
3 3 29 27
3 2 32 30
3 4 79 81
3 81 80 33
3 79 80 81
3 4 82 83
3 1 37 35
3 5 41 39
3 7 42 19
3 7 43 42
3 8 46 44
3 10 47 21
3 10 48 47
3 84 49 85
3 87 86 49
3 88 50 89
3 90 51 91
3 92 91 50
3 90 91 92
3 12 93 95
3 93 52 94
3 93 94 95
3 12 53 52
3 12 54 53
3 13 55 23
3 13 56 55
3 14 96 97
3 14 98 100
3 98 57 99
3 98 99 100
3 14 58 57
3 15 59 26
3 15 60 59
3 15 61 60
3 102 101 28
3 104 103 38
3 11 105 106
3 16 62 31
3 16 63 62
3 6 64 40
3 107 65 108
3 109 108 34
3 107 108 109
3 111 110 65
3 9 66 45
3 17 67 36
3 17 68 67
3 112 69 113
3 114 70 115
3 116 115 69
3 114 115 116
3 118 117 70
3 18 19 5
3 20 19 18
3 20 7 19
3 119 21 120
3 121 120 8
3 119 120 121
3 122 21 123
3 124 10 125
3 126 125 21
3 124 125 126
3 22 127 128
3 22 129 131
3 129 12 130
3 129 130 131
3 22 23 12
3 24 23 22
3 24 13 23
3 25 132 133
3 25 134 136
3 134 14 135
3 134 135 136
3 25 26 14
3 27 26 25
3 27 15 26
3 27 28 15
3 29 28 27
3 29 137 139
3 139 138 28
3 137 138 139
3 30 31 11
3 32 31 30
3 32 16 31
3 33 34 6
3 140 34 141
3 142 141 33
3 140 141 142
3 144 143 34
3 35 36 9
3 37 36 35
3 37 17 36
3 145 3 146
3 147 38 148
3 149 148 3
3 147 148 149
3 150 38 151
3 153 152 38
3 39 40 2
3 41 40 39
3 41 6 40
3 19 41 5
3 42 41 19
3 42 6 41
3 42 33 6
3 43 33 42
3 43 4 33
3 155 154 1
3 44 45 0
3 46 45 44
3 46 9 45
3 21 46 8
3 47 46 21
3 47 9 46
3 47 35 9
3 48 35 47
3 48 1 35
3 156 10 157
3 49 158 159
3 49 160 162
3 160 10 161
3 160 161 162
3 49 48 10
3 163 48 164
3 165 164 49
3 163 164 165
3 166 1 167
3 168 167 48
3 166 167 168
3 170 169 1
3 171 11 172
3 50 173 174
3 50 175 177
3 175 11 176
3 175 176 177
3 50 30 11
3 51 30 50
3 51 2 30
3 52 178 179
3 52 180 181
3 52 182 184
3 182 51 183
3 182 183 184
3 53 51 52
3 53 2 51
3 53 39 2
3 54 39 53
3 54 5 39
3 23 54 12
3 55 54 23
3 55 5 54
3 55 18 5
3 56 18 55
3 56 0 18
3 57 185 186
3 57 187 188
3 57 189 191
3 189 24 190
3 189 190 191
3 58 24 57
3 58 13 24
3 26 58 14
3 59 58 26
3 59 13 58
3 59 56 13
3 60 56 59
3 60 0 56
3 60 44 0
3 61 44 60
3 61 8 44
3 28 61 15
3 192 61 193
3 194 193 28
3 192 193 194
3 195 8 196
3 197 196 61
3 195 196 197
3 199 198 8
3 38 29 3
3 200 29 201
3 202 201 38
3 200 201 202
3 204 203 29
3 31 205 207
3 207 206 11
3 205 206 207
3 62 208 210
3 210 209 31
3 208 209 210
3 62 211 212
3 62 213 214
3 63 215 217
3 217 216 62
3 215 216 217
3 63 218 219
3 40 32 2
3 64 32 40
3 64 16 32
3 34 64 6
3 65 64 34
3 65 16 64
3 65 63 16
3 220 63 221
3 222 221 65
3 220 221 222
3 224 223 63
3 45 20 0
3 66 20 45
3 66 7 20
3 36 66 9
3 67 66 36
3 67 7 66
3 67 43 7
3 68 43 67
3 68 4 43
3 225 37 226
3 227 226 1
3 225 226 227
3 228 37 229
3 230 17 231
3 232 231 37
3 230 231 232
3 69 233 234
3 69 235 237
3 235 17 236
3 235 236 237
3 69 68 17
3 70 68 69
3 70 4 68
3 70 238 240
3 240 239 4
3 238 239 240
3 242 241 70
