ply
format ascii 1.0
element vertex 257
property float x
property float y
property float z
element face 237
property list uchar int vertex_index
end_header
50.343964 -24.053705 -44.472748
62.446362 -33.611233 -40.036118
67.099739 -37.529243 -33.698372
56.71302 -28.525669 -43.966263
51.682568 -42.733944 -37.423576
64.823593 -26.858294 -40.445419
59.808037 -31.161064 -42.473549
64.816742 -35.748047 -37.003578
49.998222 -30.596691 -41.556778
66.365471 -46.151718 -31.010485
63.98642 -44.625038 -33.868416
61.547638 -42.537163 -36.370773
59.020771 -39.997578 -38.480423
56.22023 -37.132942 -40.025948
53.116867 -34.006912 -40.940651
53.314064 -25.9643 -44.481537
63.753418 -30.264317 -40.386261
62.500114 -29.174833 -41.967957
61.154518 -28.02302 -43.366333
61.177349 -32.419445 -41.354324
66.106697 -32.238731 -36.911942
65.968895 -36.681892 -35.372787
67.462082 -46.716431 -29.424639
62.769501 -43.646603 -35.162109
58.250862 -44.435394 -36.576233
56.909691 -43.028267 -37.39917
57.663635 -38.600342 -39.334312
55.50811 -41.540237 -38.106697
50.188629 -40.955147 -37.89949
52.52169 -38.320175 -39.163589
50.981987 -36.570805 -39.559097
51.532455 -32.34676 -41.245041
49.463837 -34.70573 -39.938622
55.024029 -27.211449 -44.328362
53.154572 -44.401993 -36.879417
58.318596 -29.854477 -43.351219
66.026978 -27.817215 -38.542145
64.947784 -31.285065 -38.683411
63.648621 -34.723534 -38.569984
47.609161 -22.835096 -44.495384
48.946014 -25.089565 -43.635941
48.549812 -28.677727 -41.998917
50.286743 -26.899292 -43.138069
66.805634 -41.883316 -32.347275
65.193459 -45.460167 -32.487915
65.65451 -41.10405 -33.909019
64.481468 -40.208782 -35.40464
63.301773 -39.196915 -36.829826
62.107414 -38.076614 -38.167412
59.549686 -45.75164 -35.653496
60.306679 -41.314758 -37.484009
60.872536 -36.860672 -39.38739
59.56448 -35.563221 -40.452057
58.157646 -34.198524 -41.325928
56.644859 -32.781387 -41.987961
54.040962 -39.972778 -38.691277
54.695354 -35.601044 -40.553177
55.044384 -31.328682 -42.442665
53.401413 -29.860064 -42.727844
51.785751 -28.391851 -42.918594
51.682976 -24.862015 -44.499268
67.165989 -35.331745 -34.403549
67.700016 -35.758276 -33.496132
66.534317 -37.105567 -34.535579
66.600567 -34.908069 -35.240757
67.165989 -35.331745 -34.403549
55.747589 -44.501175 -36.824898
56.441214 -45.243198 -36.468586
55.046799 -43.75716 -37.178661
56.2089 -42.284252 -37.752933
55.747589 -44.501175 -36.824898
49.843593 -37.809161 -38.951363
50.585308 -38.762976 -38.729293
49.446914 -40.001331 -38.121559
49.084519 -36.876623 -39.141125
50.222912 -35.638267 -39.74886
49.843593 -37.809161 -38.951363
56.543408 -26.468595 -44.947307
57.400948 -27.066066 -44.673595
55.868524 -27.868559 -44.147312
55.698912 -25.811486 -45.128357
56.543408 -26.468595 -44.947307
64.610698 -24.679008 -41.359142
65.254917 -25.155618 -40.35199
59.74781 -28.992757 -43.496692
60.421051 -27.423735 -43.943084
60.481278 -29.592042 -42.919941
59.063316 -30.50777 -42.912384
59.00309 -28.339464 -43.935527
59.74781 -28.992757 -43.496692
66.601006 -28.280401 -37.575245
66.459687 -26.107031 -38.374046
47.814464 -21.129631 -45.485382
46.861908 -21.613388 -45.029572
48.494445 -22.389654 -44.919064
47.814464 -21.129631 -45.485382
47.853436 -27.595916 -42.332947
47.577435 -29.595151 -41.479301
48.051536 -25.801835 -43.151459
48.747913 -26.883646 -42.817429
47.853436 -27.595916 -42.332947
67.131695 -44.355759 -30.862848
67.680001 -44.638115 -30.069926
66.913776 -46.434075 -30.217562
66.585553 -44.017517 -31.67888
67.351776 -42.221558 -31.531244
67.131695 -44.355759 -30.862848
64.589939 -45.042603 -33.178166
64.27818 -47.207852 -32.426548
63.67466 -46.790287 -33.116799
58.438318 -47.301949 -35.20237
59.106893 -47.947647 -34.776085
53.052269 -24.171251 -45.317658
53.949763 -24.633713 -45.327362
52.49852 -25.413158 -44.490403
52.236725 -23.620109 -45.326523
53.052269 -24.171251 -45.317658
63.656575 -28.059079 -41.326759
64.191662 -26.356068 -41.356338
64.288505 -28.561305 -40.41584
63.029922 -27.514337 -42.117607
63.656575 -28.059079 -41.326759
63.126766 -29.719575 -41.177109
62.356304 -26.987448 -42.954796
63.029922 -27.514337 -42.117607
61.827316 -28.598926 -42.667145
61.683506 -26.411541 -43.653984
62.356304 -26.987448 -42.954796
66.669468 -32.686489 -36.010334
66.640865 -30.491159 -36.760143
66.037796 -34.460312 -36.142364
66.669468 -32.686489 -36.010334
66.600567 -34.908069 -35.240757
67.164024 -48.729484 -28.744409
67.949276 -46.953207 -28.574564
66.622379 -48.506655 -29.53161
67.164024 -48.729484 -28.744409
66.074074 -48.224299 -30.324534
66.913776 -46.434075 -30.217562
66.622379 -48.506655 -29.53161
63.042611 -46.329666 -33.709786
63.67466 -46.790287 -33.116799
62.434151 -45.840449 -34.356632
63.377961 -44.135821 -34.515263
63.042611 -46.329666 -33.709786
61.798527 -45.302774 -34.903114
62.434151 -45.840449 -34.356632
61.187596 -44.748054 -35.507446
62.158569 -43.091883 -35.766441
61.798527 -45.302774 -34.903114
57.111799 -45.946762 -36.057118
57.788906 -46.643826 -35.663739
57.580276 -43.731831 -36.987702
57.111799 -45.946762 -36.057118
56.441214 -45.243198 -36.468586
54.804745 -25.257288 -45.250774
55.698912 -25.811486 -45.128357
54.169047 -26.587875 -44.40495
53.949763 -24.633713 -45.327362
54.804745 -25.257288 -45.250774
67.639122 -37.916229 -32.842866
67.700016 -35.758276 -33.496132
68.239399 -36.145262 -32.640626
52.632737 -46.632381 -36.006889
53.87003 -45.188038 -36.565022
51.912232 -45.804823 -36.307781
52.632737 -46.632381 -36.006889
51.17623 -44.970799 -36.57986
52.41857 -43.567968 -37.151496
51.912232 -45.804823 -36.307781
50.448019 -44.084413 -36.852432
51.17623 -44.970799 -36.57986
49.701049 -43.195015 -37.090389
50.935598 -41.844545 -37.661533
50.448019 -44.084413 -36.852432
48.977239 -42.24073 -37.342888
49.701049 -43.195015 -37.090389
49.446914 -40.001331 -38.121559
48.977239 -42.24073 -37.342888
64.610698 -24.679008 -41.359142
64.191662 -26.356068 -41.356338
60.953903 -25.863943 -44.380748
61.683506 -26.411541 -43.653984
60.953903 -25.863943 -44.380748
60.421051 -27.423735 -43.943084
58.203736 -27.73047 -44.366073
59.00309 -28.339464 -43.935527
57.515808 -29.190073 -43.658741
57.400948 -27.066066 -44.673595
58.203736 -27.73047 -44.366073
65.856609 -25.635078 -39.400352
66.459687 -26.107031 -38.374046
65.425286 -27.337755 -39.493782
65.254917 -25.155618 -40.35199
65.856609 -25.635078 -39.400352
66.066837 -30.027973 -37.727044
66.601006 -28.280401 -37.575245
66.640865 -30.491159 -36.760143
50.704245 -22.92838 -45.189137
49.861847 -22.998959 -44.907746
46.672325 -23.495345 -44.025276
46.861908 -21.613388 -45.029572
47.38311 -24.674601 -43.581181
46.672325 -23.495345 -44.025276
48.277587 -23.962331 -44.065663
48.051536 -25.801835 -43.151459
47.38311 -24.674601 -43.581181
49.162872 -23.516889 -44.489342
48.277587 -23.962331 -44.065663
48.494445 -22.389654 -44.919064
49.861847 -22.998959 -44.907746
49.644989 -24.571635 -44.054344
49.162872 -23.516889 -44.489342
48.365665 -35.849646 -39.373333
49.084519 -36.876623 -39.141125
48.733292 -33.700441 -40.159859
48.365665 -35.849646 -39.373333
49.000484 -31.645922 -40.968937
49.731029 -32.651211 -40.7477
48.733292 -33.700441 -40.159859
48.27628 -30.686439 -41.190006
47.577435 -29.595151 -41.479301
49.274017 -29.637209 -41.777848
49.000484 -31.645922 -40.968937
48.27628 -30.686439 -41.190006
68.171265 -44.938935 -29.215635
67.949276 -46.953207 -28.574564
68.171265 -44.938935 -29.215635
67.680001 -44.638115 -30.069926
67.492069 -40.093266 -32.167318
67.351776 -42.221558 -31.531244
66.952686 -39.70628 -33.022824
67.639122 -37.916229 -32.842866
67.492069 -40.093266 -32.167318
65.4836 -47.93035 -31.039108
66.074074 -48.224299 -30.324534
64.897594 -47.584574 -31.777824
64.27818 -47.207852 -32.426548
65.779465 -45.805943 -31.7492
65.4836 -47.93035 -31.039108
64.897594 -47.584574 -31.777824
60.18862 -46.355293 -35.148808
59.106893 -47.947647 -34.776085
60.548662 -44.144402 -36.012135
61.187596 -44.748054 -35.507446
60.18862 -46.355293 -35.148808
58.900274 -45.093517 -36.114864
58.438318 -47.301949 -35.20237
57.788906 -46.643826 -35.663739
54.331341 -42.971115 -37.493057
55.046799 -43.75716 -37.178661
53.87003 -45.188038 -36.565022
51.373751 -23.332535 -45.202396
52.236725 -23.620109 -45.326523
51.01347 -24.45786 -44.486008
50.704245 -22.92838 -45.189137
51.373751 -23.332535 -45.202396
3 1 17 16
3 1 19 17
3 2 61 62
3 2 63 65
3 63 21 64
3 63 64 65
3 66 25 67
3 68 27 69
3 70 69 25
3 68 69 70
3 71 30 72
3 73 72 28
3 71 72 73
3 74 32 75
3 76 75 30
3 74 75 76
3 3 77 78
3 3 79 81
3 79 33 80
3 79 80 81
3 5 82 83
3 6 84 86
3 86 85 18
3 84 85 86
3 6 87 89
3 87 35 88
3 87 88 89
3 90 36 91
3 7 37 20
3 7 38 37
3 92 39 93
3 95 94 39
3 96 41 97
3 98 40 99
3 100 99 41
3 98 99 100
3 9 101 103
3 103 102 22
3 101 102 103
3 9 104 106
3 104 43 105
3 104 105 106
3 10 107 109
3 107 44 108
3 107 108 109
3 10 45 44
3 10 46 45
3 11 47 23
3 11 48 47
3 110 49 111
3 12 50 24
3 12 51 50
3 12 52 51
3 13 53 26
3 13 54 53
3 4 55 34
3 14 56 29
3 14 57 56
3 14 58 57
3 8 59 31
3 8 42 59
3 15 112 113
3 15 114 116
3 114 60 115
3 114 115 116
3 16 117 119
3 119 118 5
3 117 118 119
3 17 120 122
3 122 121 16
3 120 121 122
3 17 123 124
3 17 125 127
3 125 18 126
3 125 126 127
3 19 18 17
3 19 6 18
3 128 20 129
3 21 130 132
3 130 20 131
3 130 131 132
3 21 7 20
3 133 22 134
3 135 22 136
3 137 9 138
3 139 138 22
3 137 138 139
3 140 10 141
3 142 23 143
3 144 143 10
3 142 143 144
3 145 23 146
3 147 11 148
3 149 148 23
3 147 148 149
3 150 24 151
3 25 152 154
3 152 24 153
3 152 153 154
3 25 12 24
3 25 26 12
3 27 26 25
3 27 13 26
3 28 29 4
3 30 29 28
3 30 14 29
3 30 31 14
3 32 31 30
3 32 8 31
3 33 155 156
3 33 157 159
3 157 15 158
3 157 158 159
3 160 2 161
3 160 161 162
3 163 34 164
3 165 34 166
3 167 4 168
3 169 168 34
3 167 168 169
3 170 4 171
3 172 28 173
3 174 173 4
3 172 173 174
3 175 28 176
3 178 177 28
3 180 179 5
3 18 181 182
3 184 183 18
3 35 185 186
3 35 187 189
3 187 3 188
3 187 188 189
3 36 190 191
3 36 192 194
3 192 5 193
3 192 193 194
3 20 195 197
3 195 36 196
3 195 196 197
3 37 36 20
3 37 5 36
3 37 16 5
3 38 16 37
3 38 1 16
3 198 0 199
3 39 200 201
3 39 202 203
3 39 204 206
3 204 40 205
3 204 205 206
3 207 40 208
3 209 208 39
3 207 208 209
3 210 0 211
3 212 211 40
3 210 211 212
3 213 32 214
3 215 32 216
3 217 8 218
3 219 218 32
3 217 218 219
3 41 220 221
3 41 222 224
3 222 8 223
3 222 223 224
3 41 42 8
3 40 42 41
3 40 0 42
3 22 225 226
3 228 227 22
3 43 229 230
3 43 231 233
3 231 2 232
3 231 232 233
3 234 9 235
3 44 236 237
3 44 238 240
3 238 9 239
3 238 239 240
3 44 43 9
3 45 43 44
3 45 2 43
3 45 21 2
3 46 21 45
3 46 7 21
3 23 46 10
3 47 46 23
3 47 7 46
3 47 38 7
3 48 38 47
3 48 1 38
3 49 241 242
3 49 243 245
3 243 11 244
3 243 244 245
3 24 246 248
3 246 49 247
3 246 247 248
3 50 49 24
3 50 11 49
3 50 48 11
3 51 48 50
3 51 1 48
3 51 19 1
3 52 19 51
3 52 6 19
3 26 52 12
3 53 52 26
3 53 6 52
3 53 35 6
3 54 35 53
3 54 3 35
3 34 249 251
3 249 27 250
3 249 250 251
3 55 27 34
3 55 13 27
3 29 55 4
3 56 55 29
3 56 13 55
3 56 54 13
3 57 54 56
3 57 3 54
3 57 33 3
3 58 33 57
3 58 15 33
3 31 58 14
3 59 58 31
3 59 15 58
3 59 60 15
3 42 60 59
3 42 0 60
3 60 252 253
3 60 254 256
3 254 0 255
3 254 255 256
