ply
format ascii 1.0
element vertex 252
property float x
property float y
property float z
element face 243
property list uchar int vertex_index
end_header
-63.462109 -10.884666 36.379906
-56.710747 -14.422417 44.189655
-63.946579 -2.911917 30.482533
-62.795837 -18.543581 43.269489
-60.164597 -12.424605 40.310364
-60.297421 -16.14883 44.090767
-63.322918 -14.706044 40.015602
-65.353012 -17.833714 39.101227
-53.277462 -16.486399 48.080593
-53.151428 -12.801967 44.558506
-56.746273 -10.489757 40.775803
-60.299988 -8.442832 36.955986
-63.629345 -6.993871 33.041672
-60.919128 -4.20877 34.55571
-57.179214 -17.844881 48.172802
-60.072609 -19.681036 47.485615
-64.069733 -21.906456 41.618423
-66.360672 -21.935173 37.638931
-61.846401 -11.574287 38.355164
-61.849869 -13.486458 40.206745
-63.412235 -12.796133 38.20343
-64.74173 -14.200263 37.965828
-64.887032 -12.285248 36.182106
-51.387451 -13.942684 46.457016
-58.538277 -9.409753 38.874451
-58.845772 -7.287028 37.568314
-60.562172 -6.352867 35.625816
-54.981567 -15.468048 46.130081
-55.281765 -17.141605 48.159363
-56.92939 -16.192513 46.166565
-61.719421 -17.233715 43.803932
-60.271652 -17.932522 45.885113
-61.44376 -19.080273 45.368401
-60.951199 -20.914495 46.688423
-62.261608 -20.466164 44.586945
-62.803368 -22.094614 43.623505
-63.550209 -20.103298 42.511429
-65.944885 -19.775089 38.400658
-63.781021 -4.980326 31.652861
-65.219124 -4.57158 29.617012
-58.445076 -13.39107 42.25246
-58.585621 -15.23555 44.181099
-60.232521 -14.316195 42.196945
-61.831886 -15.370681 42.055397
-63.135628 -16.621872 41.728821
-64.108818 -18.114948 41.182709
-64.495895 -16.143848 39.653774
-65.766663 -15.837138 37.57444
-65.286552 -2.52722 28.394936
-51.352032 -15.803491 48.101662
-53.076645 -14.740159 46.177109
-54.842056 -13.633626 44.26619
-54.944389 -11.636566 42.667717
-56.626312 -12.520506 42.361237
-58.409401 -11.448342 40.453697
-60.170521 -10.467669 38.534992
-61.885303 -9.624884 36.597191
-63.52383 -8.956789 34.633987
-62.007019 -7.628088 35.013512
-62.216904 -5.577016 33.65543
-62.479496 -3.473929 32.536179
-58.740986 -16.989473 46.128162
-58.809326 -18.670841 47.977352
-63.19059 -23.94376 42.60997
-64.470268 -23.919798 40.715919
-64.790558 -19.863234 40.452366
-65.271538 -21.847424 39.627556
-64.21929 -10.636299 35.380196
-64.931752 -11.33659 35.281296
-64.174571 -11.584957 36.281006
-58.233536 -6.706497 38.037453
-57.96833 -7.817616 38.528399
-59.069218 -6.194028 37.056362
-58.233536 -6.706497 38.037453
-65.908813 -14.86137 36.739125
-65.254197 -15.0187 37.770134
-65.396347 -14.042933 36.934819
-66.335758 -15.780184 36.532746
-65.908813 -14.86137 36.739125
-50.514082 -15.41567 48.236767
-50.522824 -16.304194 49.073368
-49.684874 -15.916373 49.208473
-55.845331 -11.063161 41.72176
-55.130356 -10.566674 42.03
-56.031298 -9.993269 41.084043
-53.4694 -17.269385 49.121666
-52.449078 -16.969539 49.063013
-56.403156 -18.262315 49.19988
-55.454431 -17.910677 49.193161
-56.23049 -17.493243 48.166083
-57.262115 -18.627506 49.127611
-56.403156 -18.262315 49.19988
-59.383786 -19.993828 48.554686
-58.752144 -19.48873 48.800554
-59.440967 -19.175939 47.731484
-59.853933 -20.546205 48.153698
-59.383786 -19.993828 48.554686
-60.580573 -21.82805 47.210476
-61.229954 -21.649027 46.17297
-66.008556 -22.978958 38.23118
-65.463989 -22.935083 39.225493
-65.816105 -21.891298 38.633243
-66.525234 -23.097229 37.278928
-66.008556 -22.978958 38.23118
-64.339453 -7.740338 32.841919
-64.286695 -8.721797 33.638076
-63.576588 -7.97533 33.837829
-65.887939 -3.436672 27.973757
-65.872849 -2.41953 27.337431
-65.468998 -13.085425 36.042957
-65.396347 -14.042933 36.934819
-64.814381 -13.242755 37.073967
-65.560406 -12.131852 35.162136
-65.468998 -13.085425 36.042957
-65.560406 -12.131852 35.162136
-64.931752 -11.33659 35.281296
-50.715428 -13.485371 46.767166
-50.531791 -14.485266 47.414444
-51.580835 -12.910289 45.81757
-50.715428 -13.485371 46.767166
-52.462824 -12.33993 44.868314
-52.26944 -13.372325 45.507761
-51.580835 -12.910289 45.81757
-56.918581 -9.418981 40.132143
-56.031298 -9.993269 41.084043
-56.203605 -8.922493 40.440383
-57.814583 -8.878979 39.181467
-57.642275 -9.949755 39.825127
-56.918581 -9.418981 40.132143
-58.692025 -8.348391 38.221383
-57.814583 -8.878979 39.181467
-57.96833 -7.817616 38.528399
-59.927418 -5.726947 36.085113
-59.703972 -6.819947 36.597065
-59.069218 -6.194028 37.056362
-60.105896 -4.654898 35.550061
-60.74065 -5.280819 35.090763
-59.927418 -5.726947 36.085113
-61.885159 -21.424862 45.122231
-61.229954 -21.649027 46.17297
-61.606403 -20.690329 45.637684
-62.532488 -21.280389 44.105225
-62.156039 -22.239087 44.640511
-61.885159 -21.424862 45.122231
-66.216553 -18.750852 37.71085
-65.648949 -18.804402 38.750943
-65.920616 -17.780164 38.061135
-66.454681 -19.814177 37.376343
-66.216553 -18.750852 37.71085
-66.662575 -20.894219 36.99548
-66.152778 -20.855131 38.019795
-66.454681 -19.814177 37.376343
-66.819786 -22.053596 36.643777
-66.662575 -20.894219 36.99548
-64.455754 -5.767879 31.345554
-64.379916 -6.774652 32.039959
-63.705183 -5.987099 32.347267
-65.174805 -5.563506 30.327629
-64.455754 -5.767879 31.345554
-64.500073 -4.775953 30.634937
-65.843296 -5.442451 29.311701
-65.174805 -5.563506 30.327629
-66.127442 -16.781876 37.297741
-65.920616 -17.780164 38.061135
-65.559838 -16.835426 38.337834
-66.127442 -16.781876 37.297741
-66.335758 -15.780184 36.532746
-64.673985 -1.664879 28.951815
-64.616566 -2.719568 29.438735
-64.003998 -1.857228 29.995613
-65.281871 -1.481536 27.874505
-64.673985 -1.664879 28.951815
-65.872849 -2.41953 27.337431
-65.281871 -1.481536 27.874505
-51.486362 -16.628085 49.073548
-50.522824 -16.304194 49.073368
-52.314747 -16.144945 48.091127
-52.449078 -16.969539 49.063013
-51.486362 -16.628085 49.073548
-51.369742 -14.873088 47.279339
-50.514082 -15.41567 48.236767
-50.531791 -14.485266 47.414444
-53.344971 -11.745072 43.922373
-52.462824 -12.33993 44.868314
-54.241451 -11.162372 42.976979
-55.130356 -10.566674 42.03
-54.047909 -12.219266 43.613112
-53.344971 -11.745072 43.922373
-54.241451 -11.162372 42.976979
-60.354171 -3.545318 35.161426
-60.105896 -4.654898 35.550061
-61.103916 -3.120821 34.135254
-60.354171 -3.545318 35.161426
-61.8841 -2.7534 33.125489
-61.699312 -3.84135 33.545944
-61.103916 -3.120821 34.135254
-62.600359 -2.404775 32.082814
-61.8841 -2.7534 33.125489
-63.3339 -2.123769 31.055991
-63.213037 -3.192923 31.509356
-62.600359 -2.404775 32.082814
-64.003998 -1.857228 29.995613
-63.3339 -2.123769 31.055991
-54.471552 -17.596988 49.161051
-53.4694 -17.269385 49.121666
-54.279613 -16.814002 48.119978
-54.471552 -17.596988 49.161051
-55.454431 -17.910677 49.193161
-58.077171 -19.040486 49.029886
-57.262115 -18.627506 49.127611
-57.99427 -18.257861 48.075077
-58.077171 -19.040486 49.029886
-58.752144 -19.48873 48.800554
-60.293228 -21.162934 47.755102
-59.853933 -20.546205 48.153698
-60.511904 -20.297765 47.087019
-60.293228 -21.162934 47.755102
-60.580573 -21.82805 47.210476
-62.334649 -23.085374 44.074669
-62.156039 -22.239087 44.640511
-62.52826 -24.009947 43.567901
-62.334649 -23.085374 44.074669
-62.996979 -23.019187 43.116737
-62.676115 -24.9524 43.031364
-62.52826 -24.009947 43.567901
-63.368889 -24.958281 42.150627
-62.854414 -25.966921 42.572022
-62.676115 -24.9524 43.031364
-64.008728 -24.9463 41.203602
-63.368889 -24.958281 42.150627
-63.830429 -23.931779 41.662944
-64.662907 -25.006551 40.323475
-64.008728 -24.9463 41.203602
-65.063355 -23.97127 39.769674
-64.870903 -22.883611 40.171737
-65.463989 -22.935083 39.225493
-64.662907 -25.006551 40.323475
-65.063355 -23.97127 39.769674
-66.525234 -23.097229 37.278928
-66.819786 -22.053596 36.643777
-64.250151 -9.67236 34.507236
-64.21929 -10.636299 35.380196
-63.49297 -9.920727 35.506946
-64.250151 -9.67236 34.507236
-64.286695 -8.721797 33.638076
-64.339453 -7.740338 32.841919
-64.379916 -6.774652 32.039959
-65.854225 -4.458851 28.584795
-65.252838 -3.5494 29.005974
-65.887939 -3.436672 27.973757
-65.843296 -5.442451 29.311701
-65.854225 -4.458851 28.584795
3 0 20 18
3 0 22 20
3 0 67 69
3 69 68 22
3 67 68 69
3 70 25 71
3 73 72 25
3 1 29 27
3 3 32 30
3 3 34 32
3 3 36 34
3 2 39 38
3 4 42 40
3 6 43 19
3 6 44 43
3 6 46 44
3 74 47 75
3 76 75 21
3 74 75 76
3 78 77 47
3 79 49 80
3 79 80 81
3 9 50 23
3 9 51 50
3 10 82 84
3 82 52 83
3 82 83 84
3 10 53 52
3 10 54 53
3 11 55 24
3 11 56 55
3 11 58 56
3 13 59 26
3 13 60 59
3 8 85 86
3 14 87 89
3 89 88 28
3 87 88 89
3 14 90 91
3 5 61 41
3 15 62 31
3 15 92 94
3 94 93 62
3 92 93 94
3 15 95 96
3 98 97 33
3 16 63 35
3 16 64 63
3 7 65 45
3 17 66 37
3 17 99 101
3 101 100 66
3 99 100 101
3 17 102 103
3 12 104 106
3 106 105 57
3 104 105 106
3 108 107 48
3 18 19 4
3 20 19 18
3 20 6 19
3 20 21 6
3 22 21 20
3 22 109 111
3 111 110 21
3 109 110 111
3 22 112 113
3 115 114 22
3 116 23 117
3 118 23 119
3 120 9 121
3 122 121 23
3 120 121 122
3 123 10 124
3 123 124 125
3 126 24 127
3 128 127 10
3 126 127 128
3 25 129 131
3 129 24 130
3 129 130 131
3 25 11 24
3 25 26 11
3 132 26 133
3 134 133 25
3 132 133 134
3 135 13 136
3 137 136 26
3 135 136 137
3 27 28 8
3 29 28 27
3 29 14 28
3 30 31 5
3 32 31 30
3 32 15 31
3 32 33 15
3 34 33 32
3 34 138 140
3 140 139 33
3 138 139 140
3 34 141 143
3 141 35 142
3 141 142 143
3 36 35 34
3 36 16 35
3 144 37 145
3 146 145 7
3 144 145 146
3 147 37 148
3 149 17 150
3 151 150 37
3 149 150 151
3 153 152 17
3 38 154 156
3 156 155 12
3 154 155 156
3 39 157 159
3 159 158 38
3 157 158 159
3 39 160 161
3 40 41 1
3 42 41 40
3 42 5 41
3 19 42 4
3 43 42 19
3 43 5 42
3 43 30 5
3 44 30 43
3 44 3 30
3 44 45 3
3 46 45 44
3 46 7 45
3 21 46 6
3 47 46 21
3 47 7 46
3 47 162 164
3 164 163 7
3 162 163 164
3 166 165 47
3 167 48 168
3 169 168 2
3 167 168 169
3 170 48 171
3 173 172 48
3 49 174 175
3 49 176 178
3 176 8 177
3 176 177 178
3 23 179 181
3 179 49 180
3 179 180 181
3 50 49 23
3 50 8 49
3 50 27 8
3 51 27 50
3 51 1 27
3 182 9 183
3 52 184 185
3 52 186 188
3 186 9 187
3 186 187 188
3 52 51 9
3 53 51 52
3 53 1 51
3 53 40 1
3 54 40 53
3 54 4 40
3 24 54 10
3 55 54 24
3 55 4 54
3 55 18 4
3 56 18 55
3 56 0 18
3 56 57 0
3 58 57 56
3 58 12 57
3 26 58 11
3 59 58 26
3 59 12 58
3 59 38 12
3 60 38 59
3 60 2 38
3 189 13 190
3 191 13 192
3 193 60 194
3 195 194 13
3 193 194 195
3 196 60 197
3 198 2 199
3 200 199 60
3 198 199 200
3 202 201 2
3 28 203 205
3 205 204 8
3 203 204 205
3 207 206 28
3 41 29 1
3 61 29 41
3 61 14 29
3 31 61 5
3 62 61 31
3 62 14 61
3 62 208 210
3 210 209 14
3 208 209 210
3 212 211 62
3 33 213 215
3 215 214 15
3 213 214 215
3 217 216 33
3 35 218 219
3 63 220 222
3 222 221 35
3 220 221 222
3 63 223 224
3 63 225 227
3 225 226 227
3 64 228 230
3 230 229 63
3 228 229 230
3 64 231 232
3 45 36 3
3 65 36 45
3 65 16 36
3 37 65 7
3 66 65 37
3 66 16 65
3 66 64 16
3 233 64 234
3 235 234 66
3 233 234 235
3 237 236 64
3 239 238 17
3 57 240 242
3 242 241 0
3 240 241 242
3 244 243 57
3 246 245 12
3 48 39 2
3 247 39 248
3 249 248 48
3 247 248 249
3 251 250 39
