ply
format ascii 1.0
element vertex 215
property float x
property float y
property float z
element face 200
property list uchar int vertex_index
end_header
-53.868011 36.377544 12.080198
-48.528469 37.821651 20.01033
-51.546059 33.316715 6.653518
-49.409645 47.099209 11.920856
-47.101212 32.743702 22.734703
-53.560413 32.065941 14.631819
-54.752048 31.202419 10.66583
-53.904816 35.146461 8.70997
-50.571243 32.511795 18.763145
-51.680504 37.206009 16.016569
-49.362938 42.577019 16.402872
-52.017082 41.657551 12.356216
-53.341698 40.509342 8.749633
-52.348007 38.989571 6.155205
-49.112354 36.952148 5.054951
-53.815536 34.24474 13.458311
-54.442528 31.702862 12.582941
-54.424324 33.781979 11.519966
-54.427689 33.186214 9.765114
-54.197662 35.825424 10.276662
-47.85033 35.326279 21.473024
-48.807007 32.647568 20.765383
-49.525795 35.127991 19.501598
-51.201126 34.891499 17.503056
-50.132706 37.532467 18.018789
-49.47261 44.862797 14.260845
-50.766968 42.137928 14.351104
-50.778351 44.355816 12.18976
-53.157143 39.804344 7.287153
-46.946041 35.671417 5.063085
-46.333771 35.486412 23.44202
-47.03569 38.074512 22.000637
-53.807312 32.430168 8.307545
-52.996094 34.317547 7.478263
-52.216679 32.325363 16.712307
-52.691616 34.604763 15.477017
-52.984314 36.828735 14.020466
-47.605972 40.567741 20.353998
-49.047726 40.234367 18.322632
-50.55574 39.865948 16.300865
-51.956085 39.459473 14.296697
-53.061447 39.000134 12.343773
-51.886627 43.801987 10.222967
-52.927963 41.120998 10.466164
-53.70401 38.466064 10.503611
-53.765926 37.834045 8.859737
-53.200249 37.082954 7.503105
-52.035919 36.192924 6.510928
-50.963127 38.046925 5.406712
-50.366516 35.141838 5.926236
-48.33075 33.901707 5.742577
-51.25206 31.830289 6.644768
-52.080563 32.40341 6.949471
-50.612713 32.718331 6.457378
-51.25206 31.830289 6.644768
-49.441128 45.981003 13.090851
-48.803722 46.246712 14.178422
-48.772239 47.364918 13.008428
-46.055736 36.883654 23.728037
-45.710825 35.543247 24.442823
-46.406696 38.177703 23.007345
-46.684731 36.780462 22.721328
-46.055736 36.883654 23.728037
-53.92197 30.826489 14.053847
-53.358312 30.953797 15.123227
-54.820395 30.197553 11.044332
-54.665635 30.447775 12.002887
-54.597288 31.452641 11.624385
-54.826589 29.912567 10.123313
-54.820395 30.197553 11.044332
-54.598101 30.867634 9.834608
-54.826589 29.912567 10.123313
-47.593708 31.420765 22.289848
-46.751066 31.414118 23.284477
-50.22842 31.291325 19.294077
-49.346302 31.359211 20.295195
-49.689125 32.579681 19.764264
-51.103088 31.252205 18.254989
-50.22842 31.291325 19.294077
-51.393961 32.418579 17.737726
-51.925806 31.158989 17.22957
-51.103088 31.252205 18.254989
-47.187868 41.95379 20.473968
-46.984521 40.712064 21.379396
-48.673237 42.778572 17.444488
-48.757435 43.95331 16.399247
-49.205332 41.405693 17.362752
-48.515631 41.607246 18.404368
-48.673237 42.778572 17.444488
-51.746885 44.844618 9.078136
-51.257747 45.161035 10.036134
-53.13483 40.81517 9.607898
-52.771771 42.154646 9.44236
-52.978638 41.848817 8.584095
-50.03774 37.499537 5.230831
-50.390428 38.954803 4.787391
-49.465042 38.407415 4.61151
-46.518036 34.054091 5.480004
-45.789442 34.916185 5.202741
-48.812271 45.096199 15.328233
-48.803722 46.246712 14.178422
-49.417774 43.719908 15.331858
-48.757435 43.95331 16.399247
-48.812271 45.096199 15.328233
-53.080143 41.504957 7.798405
-52.978638 41.848817 8.584095
-52.987865 41.152458 7.067165
-53.24942 40.156843 8.018393
-53.080143 41.504957 7.798405
-52.78455 40.765352 6.434232
-52.987865 41.152458 7.067165
-52.379982 40.357965 5.868258
-52.752575 39.396957 6.721179
-52.78455 40.765352 6.434232
-48.466791 37.839418 4.543721
-49.465042 38.407415 4.61151
-48.819479 39.294685 4.100281
-47.383634 37.199053 4.547788
-48.029198 36.311782 5.059018
-48.466791 37.839418 4.543721
-46.253088 36.537695 4.635703
-47.383634 37.199053 4.547788
-45.096489 35.782463 4.77536
-45.789442 34.916185 5.202741
-46.253088 36.537695 4.635703
-46.350597 32.772394 23.720942
-46.751066 31.414118 23.284477
-45.966877 34.143749 24.0746
-45.343931 34.200584 25.075403
-45.710825 35.543247 24.442823
-46.717491 34.115057 23.088361
-46.350597 32.772394 23.720942
-45.966877 34.143749 24.0746
-54.363028 30.644949 13.029408
-53.92197 30.826489 14.053847
-54.00147 31.884402 13.60738
-54.363028 30.644949 13.029408
-54.665635 30.447775 12.002887
-54.435921 31.859531 9.38425
-54.598101 30.867634 9.834608
-54.589869 32.194316 10.215472
-54.125732 31.481508 8.655466
-54.435921 31.859531 9.38425
-54.117501 32.808191 9.03633
-53.675625 31.048624 8.01134
-54.125732 31.481508 8.655466
-53.21119 31.960137 7.776484
-53.675625 31.048624 8.01134
-52.805581 32.903826 7.361843
-53.21119 31.960137 7.776484
-53.401703 33.373857 7.892904
-52.271076 33.817131 7.065891
-52.080563 32.40341 6.949471
-52.805581 32.903826 7.361843
-48.695824 48.493873 11.767271
-48.772239 47.364918 13.008428
-48.446606 31.372698 21.305188
-47.593708 31.420765 22.289848
-47.95411 32.695635 21.750043
-48.446606 31.372698 21.305188
-49.346302 31.359211 20.295195
-52.686445 31.083508 16.16347
-51.925806 31.158989 17.22957
-52.888546 32.195652 15.672063
-53.358312 30.953797 15.123227
-52.686445 31.083508 16.16347
-46.699381 39.46545 22.202716
-46.406696 38.177703 23.007345
-46.070386 39.568641 23.209424
-47.320831 39.321126 21.177318
-46.699381 39.46545 22.202716
-46.984521 40.712064 21.379396
-47.794754 41.773933 19.420051
-47.187868 41.95379 20.473968
-48.326849 40.401054 19.338315
-47.794754 41.773933 19.420051
-48.515631 41.607246 18.404368
-49.317144 48.191613 10.669187
-48.695824 48.493873 11.767271
-48.603323 49.586277 10.515601
-50.019256 46.809646 10.885079
-49.317144 48.191613 10.669187
-50.703609 45.43795 11.019531
-50.093998 45.727513 12.055308
-50.019256 46.809646 10.885079
-51.332489 44.078902 11.206364
-50.703609 45.43795 11.019531
-51.257747 45.161035 10.036134
-52.251103 43.49514 9.320762
-51.746885 44.844618 9.078136
-52.407295 42.461492 10.344565
-52.251103 43.49514 9.320762
-52.771771 42.154646 9.44236
-51.868685 39.921337 5.417191
-52.379982 40.357965 5.868258
-51.176244 39.450015 5.042945
-50.390428 38.954803 4.787391
-51.655567 38.518248 5.780958
-51.868685 39.921337 5.417191
-51.176244 39.450015 5.042945
-50.022942 33.630892 6.093737
-50.612713 32.718331 6.457378
-50.956288 34.229276 6.289877
-49.005059 33.010827 6.001907
-50.022942 33.630892 6.093737
-49.348633 34.521772 5.834407
-47.939667 32.300078 6.005167
-48.613975 31.409197 6.264497
-49.005059 33.010827 6.001907
-47.210391 33.169235 5.81975
-47.638396 34.786562 5.402831
-46.518036 34.054091 5.480004
-46.819308 31.567606 6.08234
-47.939667 32.300078 6.005167
-47.210391 33.169235 5.81975
3 0 17 15
3 0 19 17
3 1 22 20
3 1 24 22
3 2 51 52
3 2 53 54
3 3 55 57
3 55 25 56
3 55 56 57
3 3 27 25
3 58 30 59
3 60 31 61
3 62 61 30
3 60 61 62
3 5 63 64
3 6 65 67
3 67 66 16
3 65 66 67
3 6 68 69
3 6 70 71
3 7 32 18
3 7 33 32
3 4 72 73
3 8 74 76
3 76 75 21
3 74 75 76
3 8 77 78
3 8 79 81
3 79 34 80
3 79 80 81
3 9 35 23
3 9 36 35
3 82 37 83
3 10 84 85
3 10 86 88
3 86 38 87
3 86 87 88
3 10 39 38
3 11 40 26
3 11 41 40
3 89 42 90
3 12 91 93
3 91 43 92
3 91 92 93
3 12 44 43
3 12 45 44
3 13 46 28
3 13 47 46
3 14 94 96
3 94 48 95
3 94 95 96
3 14 49 48
3 14 50 49
3 98 97 29
3 15 16 5
3 17 16 15
3 17 6 16
3 17 18 6
3 19 18 17
3 19 7 18
3 20 21 4
3 22 21 20
3 22 8 21
3 22 23 8
3 24 23 22
3 24 9 23
3 25 99 100
3 25 101 103
3 101 10 102
3 101 102 103
3 25 26 10
3 27 26 25
3 27 11 26
3 104 12 105
3 106 28 107
3 108 107 12
3 106 107 108
3 109 28 110
3 111 13 112
3 113 112 28
3 111 112 113
3 114 14 115
3 114 115 116
3 117 29 118
3 119 118 14
3 117 118 119
3 120 29 121
3 124 123 29
3 122 123 124
3 125 4 126
3 30 127 129
3 127 128 129
3 30 130 132
3 130 4 131
3 130 131 132
3 30 20 4
3 31 20 30
3 31 1 20
3 16 133 135
3 135 134 5
3 133 134 135
3 137 136 16
3 18 138 140
3 140 139 6
3 138 139 140
3 32 141 143
3 143 142 18
3 141 142 143
3 32 144 145
3 32 146 147
3 33 148 150
3 150 149 32
3 148 149 150
3 33 151 153
3 151 2 152
3 151 152 153
3 154 3 155
3 21 156 158
3 158 157 4
3 156 157 158
3 160 159 21
3 34 161 162
3 34 163 165
3 163 5 164
3 163 164 165
3 23 34 8
3 35 34 23
3 35 5 34
3 35 15 5
3 36 15 35
3 36 0 15
3 166 31 167
3 166 167 168
3 37 169 171
3 169 31 170
3 169 170 171
3 37 1 31
3 172 37 173
3 38 174 176
3 174 37 175
3 174 175 176
3 38 1 37
3 38 24 1
3 39 24 38
3 39 9 24
3 26 39 10
3 40 39 26
3 40 9 39
3 40 36 9
3 41 36 40
3 41 0 36
3 177 3 178
3 177 178 179
3 180 3 181
3 182 27 183
3 184 183 3
3 182 183 184
3 42 185 187
3 185 27 186
3 185 186 187
3 42 11 27
3 188 42 189
3 43 190 192
3 190 42 191
3 190 191 192
3 43 11 42
3 43 41 11
3 44 41 43
3 44 0 41
3 44 19 0
3 45 19 44
3 45 7 19
3 28 45 12
3 46 45 28
3 46 7 45
3 46 33 7
3 47 33 46
3 47 2 33
3 193 13 194
3 48 195 196
3 48 197 199
3 197 13 198
3 197 198 199
3 48 47 13
3 49 47 48
3 49 2 47
3 49 200 202
3 202 201 2
3 200 201 202
3 50 203 205
3 205 204 49
3 203 204 205
3 50 206 208
3 206 207 208
3 29 50 14
3 209 50 210
3 211 210 29
3 209 210 211
3 214 213 50
3 212 213 214
