ply
format ascii 1.0
element vertex 241
property float x
property float y
property float z
element face 206
property list uchar int vertex_index
end_header
-59.159092 6.019045 -37.769821
-52.854301 8.579321 -48.775024
-61.608974 0.122282 -35.935596
-59.970253 1.82518 -41.293442
-48.391716 13.639507 -50.336632
-48.527985 8.2805 -53.317184
-53.474503 2.486261 -50.97081
-64.10614 -14.646074 -26.489304
-63.521683 -8.379034 -28.581745
-65.077255 -12.743851 -30.927338
-52.764381 12.992882 -45.070972
-56.525139 7.834194 -43.497143
-57.178104 2.599318 -46.35743
-60.439957 3.146149 -36.913288
-60.926624 1.081751 -38.646858
-59.50592 4.141405 -39.732224
-46.051125 10.815252 -54.086006
-62.899143 -4.095563 -32.194756
-63.605469 -7.24404 -31.121632
-64.183128 -10.44025 -29.960926
-50.61919 11.265163 -49.666008
-50.661724 13.481548 -47.806446
-52.745361 11.06085 -47.099369
-54.672604 10.556725 -44.359955
-54.804417 8.343845 -46.206898
-56.804321 5.412336 -45.128674
-55.053722 5.667601 -47.669212
-55.837685 -0.640787 -49.43515
-62.666397 -3.006784 -34.834209
-43.784794 15.33971 -52.934303
-46.217255 15.608425 -50.778305
-46.027615 13.471779 -52.608444
-48.3624 11.177307 -52.013084
-50.73748 8.551167 -51.16201
-53.101982 5.681635 -50.06588
-51.020859 5.479126 -52.272987
-63.886234 -11.498916 -27.572308
-64.61293 -13.667123 -28.729599
-65.564171 -16.054102 -29.500462
-48.591644 15.515179 -48.325459
-56.352531 9.757856 -41.487823
-57.978378 7.053513 -40.676472
-58.297386 4.902822 -42.475887
-58.715458 2.332071 -43.867886
-55.408005 2.641378 -48.738358
-59.799525 4.582597 -37.341555
-60.267692 3.952807 -35.856274
-59.62726 5.389255 -36.28454
-63.60624 -6.725957 -32.370062
-63.252306 -5.669802 -31.658194
-63.253077 -5.151718 -32.906624
-64.011455 -8.351247 -31.714776
-63.60624 -6.725957 -32.370062
-61.843229 -0.448828 -34.551237
-61.37668 1.034837 -34.984327
-62.137686 -1.442251 -35.384902
-62.371941 -2.013361 -34.000543
-61.843229 -0.448828 -34.551237
-61.921543 -0.978972 -36.678693
-62.450254 -2.543506 -36.128
-62.137686 -1.442251 -35.384902
-60.749525 0.236113 -40.624695
-61.227711 -0.135601 -39.301403
-60.448438 1.453466 -39.97015
-60.241785 0.48792 -41.864673
-60.749525 0.236113 -40.624695
-44.837561 13.23303 -53.586551
-44.906205 14.405745 -52.771373
-43.71615 14.166996 -53.749481
-64.139671 -16.226059 -25.913361
-63.897634 -15.147061 -25.349222
-64.491775 -15.779328 -26.965752
-64.139671 -16.226059 -25.913361
-63.334616 -7.490371 -27.688639
-63.274416 -6.842387 -29.045942
-63.492432 -8.978411 -27.295906
-63.334616 -7.490371 -27.688639
-63.703958 -9.938975 -28.077027
-63.674707 -10.538352 -26.791187
-63.492432 -8.978411 -27.295906
-65.581779 -14.009231 -31.226391
-65.825238 -15.664357 -30.512953
-65.320713 -14.398976 -30.2139
-51.797348 14.02475 -45.352386
-50.74602 14.269083 -46.720123
-51.713053 13.237215 -46.438709
-52.816206 13.617787 -43.915323
-51.797348 14.02475 -45.352386
-53.703311 12.586984 -43.624973
-52.816206 13.617787 -43.915323
-58.185716 1.012156 -45.606839
-58.954393 0.878533 -44.362066
-57.946781 2.465694 -45.112658
-56.725052 -0.578206 -48.317854
-56.951411 -2.251344 -48.567352
-60.792171 2.546771 -35.473173
-60.267692 3.952807 -35.856274
-61.024466 1.634215 -36.424442
-61.37668 1.034837 -34.984327
-60.792171 2.546771 -35.473173
-44.90439 10.509253 -54.954796
-44.849316 11.904767 -54.325333
-46.174557 9.304696 -54.632438
-44.90439 10.509253 -54.954796
-47.412987 8.03732 -54.248027
-47.289555 9.547876 -53.701595
-46.174557 9.304696 -54.632438
-48.705219 6.685577 -53.773487
-47.412987 8.03732 -54.248027
-63.876005 -13.623293 -25.819069
-63.897634 -15.147061 -25.349222
-63.6675 -14.12428 -24.678987
-62.963146 -4.700652 -30.852447
-62.65692 -3.200983 -31.273306
-63.316309 -6.27489 -30.315886
-62.963146 -4.700652 -30.852447
-63.252306 -5.669802 -31.658194
-63.563576 -7.811537 -29.851689
-63.274416 -6.842387 -29.045942
-63.316309 -6.27489 -30.315886
-64.300285 -9.949352 -31.134422
-63.894298 -8.842145 -30.541279
-64.011455 -8.351247 -31.714776
-64.747348 -11.101152 -31.617628
-64.630191 -11.59205 -30.444132
-64.300285 -9.949352 -31.134422
-65.222351 -12.332108 -32.009217
-64.747348 -11.101152 -31.617628
-54.889632 -0.776034 -50.47015
-54.656094 0.922737 -50.20298
-53.70804 0.78749 -51.23798
-56.071306 -2.373432 -49.613533
-54.889632 -0.776034 -50.47015
-56.951411 -2.251344 -48.567352
-56.071306 -2.373432 -49.613533
-62.488314 -2.557751 -32.680817
-62.65692 -3.200983 -31.273306
-62.24609 -1.66317 -31.759367
-62.78277 -3.551173 -33.514482
-62.488314 -2.557751 -32.680817
-62.371941 -2.013361 -34.000543
-63.136704 -4.607329 -34.226351
-63.253077 -5.151718 -32.906624
-62.78277 -3.551173 -33.514482
-63.043242 -4.160019 -35.452255
-63.136704 -4.607329 -34.226351
-63.043242 -4.160019 -35.452255
-62.450254 -2.543506 -36.128
-61.580368 -0.499238 -38.034324
-61.921543 -0.978972 -36.678693
-61.267799 0.602016 -37.291227
-61.580368 -0.499238 -38.034324
-61.227711 -0.135601 -39.301403
-45.001024 15.474068 -51.856304
-45.178967 16.346001 -50.875622
-43.962736 16.211643 -51.953621
-46.03937 12.143515 -53.347225
-44.837561 13.23303 -53.586551
-44.849316 11.904767 -54.325333
-49.951656 5.28489 -53.251389
-49.774422 6.879813 -52.795085
-48.705219 6.685577 -53.773487
-51.235298 3.824008 -52.634655
-49.951656 5.28489 -53.251389
-52.46212 2.327576 -51.983566
-52.247681 3.982693 -51.621899
-51.235298 3.824008 -52.634655
-53.70804 0.78749 -51.23798
-52.46212 2.327576 -51.983566
-59.040751 6.688655 -36.625576
-59.62726 5.389255 -36.28454
-42.734293 16.017204 -52.951065
-43.962736 16.211643 -51.953621
-42.579521 15.032159 -53.834648
-42.734293 16.017204 -52.951065
-43.71615 14.166996 -53.749481
-42.579521 15.032159 -53.834648
-63.766052 -12.049715 -26.360571
-63.674707 -10.538352 -26.791187
-63.996187 -13.072495 -27.030806
-63.876005 -13.623293 -25.819069
-63.766052 -12.049715 -26.360571
-64.745171 -15.289853 -28.0859
-64.491775 -15.779328 -26.965752
-64.359535 -14.156599 -27.609451
-65.220791 -16.483342 -28.471331
-64.745171 -15.289853 -28.0859
-65.08855 -14.860613 -29.11503
-65.713261 -17.717382 -28.771902
-65.220791 -16.483342 -28.471331
-66.08572 -17.353751 -29.722239
-65.713261 -17.717382 -28.771902
-66.08572 -17.353751 -29.722239
-65.825238 -15.664357 -30.512953
-65.581779 -14.009231 -31.226391
-65.222351 -12.332108 -32.009217
-58.462271 7.350621 -38.143858
-59.040751 6.688655 -36.625576
-46.395886 16.341593 -49.711003
-45.357597 17.079168 -49.808319
-45.178967 16.346001 -50.875622
-47.58308 16.29497 -48.48458
-46.395886 16.341593 -49.711003
-47.404449 15.561802 -49.551882
-48.747679 16.090042 -47.183459
-47.58308 16.29497 -48.48458
-49.71098 15.285899 -46.97963
-49.626684 14.498363 -48.065953
-50.74602 14.269083 -46.720123
-49.867014 15.860762 -45.837629
-48.747679 16.090042 -47.183459
-49.71098 15.285899 -46.97963
-54.657423 11.368906 -43.269464
-53.703311 12.586984 -43.624973
-53.718492 11.774804 -44.715463
-55.497387 10.969472 -41.833399
-54.657423 11.368906 -43.269464
-55.512568 10.157291 -42.923889
-56.307403 10.411935 -40.33152
-55.497387 10.969472 -41.833399
-57.058991 9.220027 -40.002859
-56.307403 10.411935 -40.33152
-57.871914 7.867855 -39.597183
-57.058991 9.220027 -40.002859
-57.165454 8.405684 -41.082147
-58.568735 6.536279 -39.223146
-58.462271 7.350621 -38.143858
-57.871914 7.867855 -39.597183
-59.614387 0.741366 -43.151895
-60.241785 0.48792 -41.864673
-59.342855 2.078626 -42.580664
-59.614387 0.741366 -43.151895
-58.954393 0.878533 -44.362066
-56.510212 1.062877 -47.969458
-55.622845 1.000296 -49.086754
-56.725052 -0.578206 -48.317854
-57.395262 1.041846 -46.778994
-56.293054 2.620348 -47.547894
-56.510212 1.062877 -47.969458
-58.185716 1.012156 -45.606839
-57.395262 1.041846 -46.778994
3 0 45 47
3 45 13 46
3 45 46 47
3 0 15 13
3 48 18 49
3 50 49 17
3 48 49 50
3 52 51 18
3 1 22 20
3 1 24 22
3 1 26 24
3 2 53 54
3 2 55 57
3 55 28 56
3 55 56 57
3 2 58 60
3 60 59 28
3 58 59 60
3 3 61 63
3 63 62 14
3 61 62 63
3 3 64 65
3 66 31 67
3 68 67 29
3 66 67 68
3 5 32 16
3 5 33 32
3 5 35 33
3 7 69 70
3 7 71 72
3 8 73 74
3 8 75 76
3 8 77 79
3 77 36 78
3 77 78 79
3 9 37 19
3 9 38 37
3 9 80 82
3 82 81 38
3 80 81 82
3 4 39 30
3 10 83 85
3 85 84 21
3 83 84 85
3 10 86 87
3 10 88 89
3 11 40 23
3 11 41 40
3 11 42 41
3 12 43 25
3 12 90 92
3 92 91 43
3 90 91 92
3 6 44 34
3 94 93 27
3 13 95 96
3 13 97 99
3 97 2 98
3 97 98 99
3 13 14 2
3 15 14 13
3 15 3 14
3 100 16 101
3 102 16 103
3 104 5 105
3 106 105 16
3 104 105 106
3 108 107 5
3 109 7 110
3 109 110 111
3 17 112 113
3 18 114 116
3 116 115 17
3 114 115 116
3 18 117 119
3 117 8 118
3 117 118 119
3 18 19 8
3 120 19 121
3 122 121 18
3 120 121 122
3 123 9 124
3 125 124 19
3 123 124 125
3 127 126 9
3 20 21 4
3 22 21 20
3 22 10 21
3 22 23 10
3 24 23 22
3 24 11 23
3 24 25 11
3 26 25 24
3 26 12 25
3 128 27 129
3 130 129 6
3 128 129 130
3 131 27 132
3 134 133 27
3 135 17 136
3 135 136 137
3 28 138 140
3 138 17 139
3 138 139 140
3 28 141 143
3 143 142 17
3 141 142 143
3 28 144 145
3 147 146 28
3 14 148 150
3 150 149 2
3 148 149 150
3 152 151 14
3 29 153 155
3 153 30 154
3 153 154 155
3 31 30 29
3 31 4 30
3 16 156 158
3 156 31 157
3 156 157 158
3 32 31 16
3 32 4 31
3 32 20 4
3 33 20 32
3 33 1 20
3 33 34 1
3 35 34 33
3 35 6 34
3 159 35 160
3 161 160 5
3 159 160 161
3 162 35 163
3 164 6 165
3 166 165 35
3 164 165 166
3 168 167 6
3 169 0 170
3 171 29 172
3 173 29 174
3 176 175 29
3 36 177 178
3 36 179 181
3 179 7 180
3 179 180 181
3 19 36 8
3 37 36 19
3 37 7 36
3 37 182 184
3 184 183 7
3 182 183 184
3 38 185 187
3 187 186 37
3 185 186 187
3 38 188 189
3 38 190 191
3 193 192 38
3 195 194 9
3 196 0 197
3 30 198 200
3 198 199 200
3 39 201 203
3 203 202 30
3 201 202 203
3 39 204 205
3 21 39 4
3 206 39 207
3 208 207 21
3 206 207 208
3 211 210 39
3 209 210 211
3 23 212 214
3 214 213 10
3 212 213 214
3 40 215 217
3 217 216 23
3 215 216 217
3 40 218 219
3 40 220 221
3 41 222 224
3 224 223 40
3 222 223 224
3 41 225 227
3 225 0 226
3 225 226 227
3 41 15 0
3 42 15 41
3 42 3 15
3 25 42 11
3 43 42 25
3 43 3 42
3 43 228 230
3 230 229 3
3 228 229 230
3 232 231 43
3 34 26 1
3 44 26 34
3 44 12 26
3 27 44 6
3 233 44 234
3 235 234 27
3 233 234 235
3 236 12 237
3 238 237 44
3 236 237 238
3 240 239 12
