ply
format ascii 1.0
element vertex 248
property float x
property float y
property float z
element face 237
property list uchar int vertex_index
end_header
2.688457 34.248611 -29.277363
4.95668 26.397987 -21.151928
-1.18479 40.450409 -33.002716
-2.257914 19.18018 -28.632885
1.16543 37.729015 -31.815128
-1.395979 30.22887 -30.842606
0.845982 26.91135 -29.468475
3.799892 30.362846 -25.525734
2.56995 23.08213 -27.004913
4.092785 19.135284 -23.618511
-4.291096 32.706596 -31.412994
-5.013493 22.362289 -29.237339
-1.628469 49.605556 -34.284069
1.047157 47.551693 -33.540833
2.594971 44.470856 -31.281952
3.438866 40.77092 -27.537083
4.244949 36.74905 -22.867279
2.010839 36.060661 -30.720894
1.056538 32.435429 -30.662239
1.918493 30.659111 -29.542294
4.354954 28.369465 -23.37273
3.956284 24.823658 -24.505772
4.612675 22.87257 -22.470055
-2.70083 41.417698 -33.199356
-4.250193 37.534142 -32.414478
-2.640993 36.637672 -32.278957
-1.742285 24.777267 -29.688919
-3.076263 26.311123 -30.062462
-3.583618 20.862389 -28.983982
2.432232 17.262833 -26.064709
1.513535 19.258785 -27.330284
-3.386063 50.145458 -34.203423
1.946867 46.113552 -32.612999
3.512794 43.647896 -26.048817
3.810333 38.788818 -25.2701
3.867043 41.616547 -23.627708
5.603695 24.495125 -18.947041
5.293842 21.01767 -20.377689
0.10648 39.207642 -32.562283
-1.210829 35.46701 -31.985031
0.021528 34.052757 -31.465839
-0.194881 28.655914 -30.283848
-0.543606 23.063526 -29.1353
-8.755299 19.728558 -28.695126
3.262436 32.335884 -27.522545
2.652588 28.768044 -28.111641
3.314564 26.806938 -26.411194
3.338104 21.094456 -25.402695
-2.76499 31.590233 -31.197124
-4.542412 27.630928 -30.317356
-7.205408 18.453144 -28.468891
1.753889 25.038158 -28.372429
0.5327 21.209332 -28.355816
-2.946724 45.918415 -33.864342
-1.321341 45.162533 -33.794849
-0.143183 48.731274 -34.08223
0.054691 44.100449 -33.463223
1.165987 42.768185 -32.807384
2.024378 41.213291 -31.781368
2.67326 39.485641 -30.374378
3.062805 42.675514 -29.570026
3.181835 37.631119 -28.617043
3.629471 35.688744 -26.576145
4.088013 33.690643 -24.341217
4.606255 31.66357 -22.008739
-3.278918 17.254888 -28.343117
-3.94177 18.095993 -28.518666
-2.920766 20.021285 -28.808433
1.80665 15.337759 -26.282272
2.324171 14.337722 -25.708424
3.488542 44.95275 -25.121469
3.348909 45.962653 -26.316305
3.665667 43.937075 -23.910915
3.689919 42.632221 -24.838262
3.488542 44.95275 -25.121469
5.793834 21.915984 -18.622141
5.934546 23.605145 -17.89374
-9.96984 17.833081 -28.413599
-9.200162 17.194387 -28.272821
3.705498 17.208976 -24.101436
3.328157 18.188562 -24.993529
3.715445 20.11487 -24.510603
5.07179 19.147098 -21.043562
5.448372 18.310734 -20.05347
-5.121522 33.131809 -31.481098
-5.101071 35.545582 -31.98184
-4.270644 35.120369 -31.913736
-5.20817 30.709011 -30.963487
-5.121522 33.131809 -31.481098
-5.776268 23.007528 -29.344774
-5.540727 25.641848 -29.884783
-4.777952 24.996609 -29.777347
-6.109451 20.407716 -28.853115
-6.872225 21.052956 -28.96055
-5.776268 23.007528 -29.344774
0.319052 18.31033 -27.889606
1.023118 20.234058 -27.84305
0.80947 17.335056 -27.376841
-0.250303 19.279554 -28.241354
0.319052 18.31033 -27.889606
0.451987 48.141483 -33.811532
0.326564 50.411617 -34.015507
0.921733 49.821827 -33.744809
3.250835 41.723217 -28.553554
3.139378 44.142084 -28.933301
3.327408 43.189787 -27.91683
-3.475512 39.47592 -32.806917
-4.33291 39.80941 -32.815331
-3.558228 41.751188 -33.207769
-4.650311 18.921326 -28.627482
-5.365249 19.671276 -28.75416
-4.298555 21.612339 -29.110661
-4.650311 18.921326 -28.627482
-3.94177 18.095993 -28.518666
1.347301 16.335735 -26.91506
1.972884 18.260809 -26.697496
1.80665 15.337759 -26.282272
0.80947 17.335056 -27.376841
1.347301 16.335735 -26.91506
-3.708242 52.129543 -34.188506
-4.382224 50.246227 -34.047303
-2.751868 51.968784 -34.311953
-3.708242 52.129543 -34.188506
-1.873071 51.698833 -34.352276
-2.507266 49.875507 -34.243746
-2.751868 51.968784 -34.311953
1.405878 49.163238 -33.338555
0.921733 49.821827 -33.744809
1.855733 48.444168 -32.874638
1.497012 46.832622 -33.076916
1.405878 49.163238 -33.338555
2.193049 47.665264 -32.259794
1.855733 48.444168 -32.874638
2.517101 46.843916 -31.594271
2.270919 45.292204 -31.947476
2.193049 47.665264 -32.259794
3.364372 44.628275 -27.172697
3.348909 45.962653 -26.316305
3.47583 42.209408 -26.79295
3.327408 43.189787 -27.91683
3.364372 44.628275 -27.172697
5.638908 20.177256 -19.337465
5.448768 22.756397 -19.662365
5.793834 21.915984 -18.622141
5.448372 18.310734 -20.05347
5.638908 20.177256 -19.337465
-9.554831 20.26301 -28.835951
-8.450142 22.222771 -29.184999
-9.554831 20.26301 -28.835951
-9.96984 17.833081 -28.413599
2.875221 16.272751 -25.324535
2.885168 19.178645 -25.733702
3.328157 18.188562 -24.993529
2.324171 14.337722 -25.708424
2.875221 16.272751 -25.324535
4.731207 20.074548 -22.089745
4.953259 21.94512 -21.423872
5.07179 19.147098 -21.043562
4.471262 18.205906 -22.663973
4.35273 21.003927 -23.044283
4.731207 20.074548 -22.089745
4.140234 16.263805 -23.271286
4.471262 18.205906 -22.663973
3.705498 17.208976 -24.101436
4.140234 16.263805 -23.271286
-5.130211 37.838513 -32.430194
-4.33291 39.80941 -32.815331
-5.130211 37.838513 -32.430194
-5.101071 35.545582 -31.98184
-5.333828 28.171177 -30.415669
-5.20817 30.709011 -30.963487
-4.416754 30.168762 -30.865175
-5.333828 28.171177 -30.415669
-5.540727 25.641848 -29.884783
-7.647171 21.690663 -29.073667
-8.450142 22.222771 -29.184999
-7.980354 19.090851 -28.582009
-7.647171 21.690663 -29.073667
-6.872225 21.052956 -28.96055
-8.425217 16.55668 -28.159704
-9.200162 17.194387 -28.272821
-7.980354 19.090851 -28.582009
-6.461207 17.716704 -28.369936
-6.109451 20.407716 -28.853115
-5.365249 19.671276 -28.75416
-7.670657 15.828556 -28.057572
-6.461207 17.716704 -28.369936
-8.425217 16.55668 -28.159704
-7.670657 15.828556 -28.057572
-0.788456 20.206651 -28.631096
-0.005453 22.136429 -28.745558
-0.250303 19.279554 -28.241354
-1.64561 18.264978 -28.379888
-1.40076 21.121853 -28.884093
-0.788456 20.206651 -28.631096
-2.607327 16.354485 -28.195534
-1.64561 18.264978 -28.379888
-3.278918 17.254888 -28.343117
-2.607327 16.354485 -28.195534
-4.087665 48.24887 -33.966425
-4.382224 50.246227 -34.047303
-3.867996 46.135349 -33.796885
-4.087665 48.24887 -33.966425
-3.166393 48.031937 -34.033883
-3.681176 44.001547 -33.540262
-3.867996 46.135349 -33.796885
-2.823777 43.668057 -33.531849
-3.558228 41.751188 -33.207769
-3.681176 44.001547 -33.540262
-1.063686 51.358749 -34.323225
-1.873071 51.698833 -34.352276
-0.321043 50.921608 -34.222306
0.326564 50.411617 -34.015507
-0.885826 49.168415 -34.183149
-1.063686 51.358749 -34.323225
-0.321043 50.921608 -34.222306
2.743191 45.974253 -30.779005
2.517101 46.843916 -31.594271
2.977108 45.076582 -29.923042
3.139378 44.142084 -28.933301
2.828888 43.573185 -30.425989
2.743191 45.974253 -30.779005
2.977108 45.076582 -29.923042
3.862974 42.893307 -22.659259
3.665667 43.937075 -23.910915
4.09992 40.567766 -22.377607
3.862974 42.893307 -22.659259
4.095852 41.844527 -21.409159
4.288874 38.134018 -21.997393
4.055996 39.182798 -23.247493
4.09992 40.567766 -22.377607
4.511519 35.704712 -21.64563
4.288874 38.134018 -21.997393
4.692172 33.161972 -21.21636
4.425602 34.20631 -22.438009
4.511519 35.704712 -21.64563
4.903465 30.646814 -20.839775
4.692172 33.161972 -21.21636
5.078678 28.014022 -20.411369
4.781467 29.030779 -21.580334
4.903465 30.646814 -20.839775
5.402185 27.062591 -19.308926
5.280188 25.446556 -20.049484
5.078678 28.014022 -20.411369
5.728948 26.05086 -18.179769
5.402185 27.062591 -19.308926
5.934546 23.605145 -17.89374
5.728948 26.05086 -18.179769
3 0 19 17
3 1 22 20
3 2 25 23
3 3 28 26
3 3 65 67
3 67 66 28
3 65 66 67
3 69 68 29
3 70 33 71
3 72 35 73
3 74 73 33
3 72 73 74
3 76 75 36
3 4 40 38
3 6 41 18
3 6 42 41
3 78 77 43
3 7 46 44
3 9 47 21
3 9 79 81
3 81 80 47
3 79 80 81
3 83 82 37
3 10 84 86
3 86 85 24
3 84 85 86
3 10 87 88
3 5 48 39
3 11 49 27
3 11 89 91
3 91 90 49
3 89 90 91
3 11 92 94
3 92 50 93
3 92 93 94
3 8 51 45
3 95 52 96
3 97 96 30
3 95 96 97
3 99 98 52
3 12 53 31
3 12 54 53
3 13 100 102
3 100 55 101
3 100 101 102
3 13 56 55
3 13 57 56
3 14 58 32
3 14 59 58
3 15 103 105
3 103 60 104
3 103 104 105
3 15 61 60
3 15 62 61
3 16 63 34
3 16 64 63
3 17 18 4
3 19 18 17
3 19 6 18
3 20 21 7
3 22 21 20
3 22 9 21
3 23 106 108
3 106 24 107
3 106 107 108
3 25 24 23
3 25 10 24
3 26 27 5
3 28 27 26
3 28 11 27
3 28 109 111
3 111 110 11
3 109 110 111
3 113 112 28
3 29 30 8
3 114 30 115
3 116 115 29
3 114 115 116
3 118 117 30
3 119 31 120
3 121 31 122
3 123 12 124
3 125 124 31
3 123 124 125
3 126 13 127
3 128 32 129
3 130 129 13
3 128 129 130
3 131 32 132
3 133 14 134
3 135 134 32
3 133 134 135
3 33 136 137
3 33 138 140
3 138 15 139
3 138 139 140
3 33 34 15
3 35 34 33
3 35 16 34
3 36 37 1
3 141 37 142
3 143 142 36
3 141 142 143
3 145 144 37
3 38 39 2
3 40 39 38
3 40 5 39
3 18 40 4
3 41 40 18
3 41 5 40
3 41 26 5
3 42 26 41
3 42 3 26
3 43 146 147
3 149 148 43
3 44 45 0
3 46 45 44
3 46 8 45
3 21 46 7
3 47 46 21
3 47 8 46
3 47 29 8
3 150 29 151
3 152 151 47
3 150 151 152
3 154 153 29
3 37 22 1
3 155 22 156
3 157 156 37
3 155 156 157
3 158 9 159
3 160 159 22
3 158 159 160
3 161 9 162
3 164 163 9
3 24 165 166
3 168 167 24
3 39 25 2
3 48 25 39
3 48 10 25
3 27 48 5
3 49 48 27
3 49 10 48
3 49 169 171
3 171 170 10
3 169 170 171
3 173 172 49
3 174 43 175
3 50 176 178
3 176 43 177
3 176 177 178
3 50 179 181
3 181 180 43
3 179 180 181
3 182 50 183
3 184 183 11
3 182 183 184
3 185 50 186
3 188 187 50
3 45 19 0
3 51 19 45
3 51 6 19
3 30 51 8
3 52 51 30
3 52 6 51
3 52 42 6
3 189 42 190
3 191 190 52
3 189 190 191
3 192 3 193
3 194 193 42
3 192 193 194
3 195 3 196
3 198 197 3
3 31 199 200
3 53 201 203
3 203 202 31
3 201 202 203
3 53 204 205
3 53 206 208
3 206 23 207
3 206 207 208
3 54 23 53
3 54 2 23
3 209 12 210
3 55 211 212
3 55 213 215
3 213 12 214
3 213 214 215
3 55 54 12
3 56 54 55
3 56 2 54
3 56 38 2
3 57 38 56
3 57 4 38
3 32 57 13
3 58 57 32
3 58 4 57
3 58 17 4
3 59 17 58
3 59 0 17
3 216 14 217
3 60 218 219
3 60 220 222
3 220 14 221
3 220 221 222
3 60 59 14
3 61 59 60
3 61 0 59
3 61 44 0
3 62 44 61
3 62 7 44
3 34 62 15
3 63 62 34
3 63 7 62
3 63 20 7
3 64 20 63
3 64 1 20
3 223 35 224
3 225 35 226
3 225 226 227
3 228 16 229
3 230 229 35
3 228 229 230
3 231 16 232
3 233 64 234
3 235 234 16
3 233 234 235
3 236 64 237
3 238 1 239
3 240 239 64
3 238 239 240
3 241 36 242
3 243 242 1
3 241 242 243
3 244 36 245
3 247 246 36
