ply
format ascii 1.0
element vertex 291
property float x
property float y
property float z
element face 268
property list uchar int vertex_index
end_header
-31.324003 -1.921768 64.97274
-40.317791 -4.66053 64.306519
-46.682701 0.527075 58.645046
-46.669216 -7.498188 56.492294
-48.75684 -2.412584 56.196465
-45.872223 -4.548947 59.466537
-36.211315 -3.173519 64.780884
-39.76709 0.000277 62.275642
-26.491913 -0.380018 65.540085
-47.896828 8.063898 54.773369
-42.912666 -6.758967 62.874313
-49.187042 2.793705 55.669102
-46.065807 5.848356 57.927944
-43.582825 -1.994761 61.350338
-43.234386 3.065159 60.228954
-19.555632 -1.814131 71.043045
-45.249325 -8.475169 58.341103
-46.42292 -5.995783 58.097134
-44.9785 -7.015429 59.866913
-33.809696 -2.551605 64.866699
-35.601814 -0.855715 63.587555
-33.12339 -0.151211 63.728497
-45.320435 -9.964748 56.651451
-28.856773 -1.216591 65.176682
-46.256516 9.786663 56.026409
-47.901646 -0.905598 57.544605
-49.210823 0.18136 55.973801
-48.030216 1.703678 57.223236
-47.743225 4.352827 56.870594
-46.533501 3.154596 58.270065
-41.830788 -5.624036 63.741417
-43.375687 -4.398436 62.101311
-41.943733 -3.311235 62.770561
-39.322247 2.514891 61.648499
-41.545975 1.553225 61.236565
-41.118256 4.165165 60.814346
-42.76836 5.75901 59.926296
-48.115559 -6.503839 54.670227
-49.280159 -3.953063 54.611965
-47.87059 -4.976654 56.357655
-47.346542 -3.47273 57.835407
-46.46109 -2.038544 59.050713
-38.416523 -3.856691 64.625313
-40.11665 -2.379883 63.190464
-37.969158 -1.577709 63.434891
-37.45874 0.835835 62.539513
-45.352226 -11.42488 54.928017
-46.739594 -9.003122 54.74749
-24.291046 0.626822 66.107346
-41.498901 -7.913506 64.696785
-40.333443 -6.889347 65.489624
-32.11705 -4.248043 66.413391
-29.645693 -3.679141 66.529984
-50.063873 -1.375813 54.501621
-48.716915 5.419197 55.271408
-47.113678 7.043938 56.47839
-45.372719 8.614223 57.595638
-44.380104 -5.641602 61.135277
-44.934986 -3.204438 60.551201
-45.182247 -0.712069 59.997086
-41.83876 -0.931046 61.903584
-43.525822 0.48514 60.706982
-45.111732 1.855011 59.523678
-44.760685 4.509016 59.155861
-44.202911 7.257303 58.880356
-27.217211 -3.011787 66.778946
-24.91086 -2.19441 67.222336
-22.782707 -1.194508 67.900604
-21.406116 -2.99649 70.013924
-44.434719 -8.233462 60.051443
-45.113912 -7.745299 59.104008
-44.570132 -8.963331 59.288538
-30.980052 -0.660214 64.44952
-31.879745 0.225064 63.827399
-32.223697 -1.03649 64.350618
-44.570132 -8.963331 59.288538
-44.616125 -9.693002 58.468102
-30.090388 -1.569179 65.074711
-29.746437 -0.307626 64.551491
-30.980052 -0.660214 64.44952
-45.778978 11.191671 55.755071
-45.410882 10.623881 56.626534
-39.979662 4.673654 61.069059
-40.220252 3.340028 61.231423
-39.081657 3.848517 61.486136
-40.868901 5.540311 60.715087
-39.979662 4.673654 61.069059
-36.237024 1.232388 62.651286
-36.530277 -0.00994 63.063534
-35.308561 0.386613 63.175307
-37.202191 2.123664 62.268811
-36.237024 1.232388 62.651286
-44.681666 -11.893441 55.913956
-44.749457 -12.583436 55.1133
-26.225013 1.045018 65.120087
-27.358921 0.540156 64.888016
-25.39148 0.123402 65.823716
-25.12458 1.548439 65.403717
-26.225013 1.045018 65.120087
-48.166562 8.47909 53.794145
-48.67754 7.198802 54.111227
-40.823717 -8.514696 65.645038
-41.237186 -9.066419 65.111999
-40.240988 -8.002616 66.041458
-40.916172 -7.401426 65.093205
-40.823717 -8.514696 65.645038
-32.530182 -5.329354 67.272651
-33.324352 -4.516399 66.380596
-31.324604 -5.09562 67.317016
-32.530182 -5.329354 67.272651
-49.773056 1.999631 54.978445
-49.784947 0.693458 55.130795
-49.198932 1.487533 55.821452
-49.662971 3.284812 54.804856
-49.773056 1.999631 54.978445
-48.951978 4.106451 55.470255
-49.427908 4.597558 54.606009
-49.662971 3.284812 54.804856
-43.646385 -6.200285 62.004795
-43.977816 -6.84503 61.413943
-43.244096 -7.403713 62.283461
-43.203028 7.91511 59.317667
-43.485636 6.508157 59.403326
-42.485752 7.165964 59.840637
-43.866636 8.681373 58.762692
-43.203028 7.91511 59.317667
-27.653498 -4.216771 67.582054
-28.431452 -3.345464 66.654465
-28.867739 -4.550448 67.457573
-24.188415 -3.089322 68.229484
-25.310533 -3.489191 67.963508
-23.124339 -2.589371 68.568618
-23.846784 -1.694459 67.56147
-24.188415 -3.089322 68.229484
-20.480874 -2.405311 70.528485
-20.760396 -3.889294 71.178357
-19.835155 -3.298115 71.692917
-20.210327 -0.906734 69.936932
-21.13557 -1.497914 69.422371
-20.480874 -2.405311 70.528485
-19.360919 -0.214144 70.523983
-20.210327 -0.906734 69.936932
-34.069349 0.738865 63.245778
-35.308561 0.386613 63.175307
-34.362602 -0.503463 63.658026
-32.829176 1.144462 63.36519
-34.069349 0.738865 63.245778
-32.829176 1.144462 63.36519
-31.879745 0.225064 63.827399
-44.65168 -10.437791 57.623276
-44.66577 -11.163376 56.775673
-45.28488 -9.219959 57.496277
-44.65168 -10.437791 57.623276
-44.616125 -9.693002 58.468102
-28.541351 0.121869 64.706314
-29.746437 -0.307626 64.551491
-27.674343 -0.798304 65.358384
-27.358921 0.540156 64.888016
-28.541351 0.121869 64.706314
-46.559734 10.266236 55.096536
-47.379891 9.404853 54.470016
-47.076672 8.92528 55.399889
-46.559734 10.266236 55.096536
-45.778978 11.191671 55.755071
-41.693953 6.337233 60.271062
-41.943308 4.962087 60.370321
-40.868901 5.540311 60.715087
-42.485752 7.165964 59.840637
-41.693953 6.337233 60.271062
-18.933476 -2.718316 72.235005
-19.835155 -3.298115 71.692917
-18.735449 -1.131109 71.672909
-18.933476 -2.718316 72.235005
-48.697859 -5.228451 54.641096
-49.415363 -4.718504 53.729076
-48.833063 -5.993892 53.758207
-38.133944 2.963192 61.823304
-38.390493 1.675363 62.094006
-37.202191 2.123664 62.268811
-39.081657 3.848517 61.486136
-38.133944 2.963192 61.823304
-45.43309 -12.112534 54.122253
-44.749457 -12.583436 55.1133
-46.072388 -10.941508 53.959936
-45.43309 -12.112534 54.122253
-45.336331 -10.694814 55.789734
-44.681666 -11.893441 55.913956
-44.66577 -11.163376 56.775673
-46.766071 -9.730628 53.869673
-46.072388 -10.941508 53.959936
-46.04591 -10.214001 54.837753
-47.473511 -8.504876 53.808397
-46.766071 -9.730628 53.869673
-48.161493 -7.255235 53.769766
-47.473511 -8.504876 53.808397
-47.427577 -7.753481 54.708858
-48.833063 -5.993892 53.758207
-48.161493 -7.255235 53.769766
-24.0837 2.142255 65.72889
-25.12458 1.548439 65.403717
-23.291973 1.225285 66.506123
-24.0837 2.142255 65.72889
-48.166562 8.47909 53.794145
-47.379891 9.404853 54.470016
-42.575945 -7.935323 63.228603
-43.244096 -7.403713 62.283461
-41.869062 -8.512593 64.139839
-41.237186 -9.066419 65.111999
-42.205783 -7.336237 63.785549
-42.575945 -7.935323 63.228603
-41.869062 -8.512593 64.139839
-39.615176 -7.54554 66.413841
-40.240988 -8.002616 66.041458
-39.537588 -6.467985 65.735718
-39.615176 -7.54554 66.413841
-39.529763 -5.353576 65.144165
-40.325617 -5.774938 64.898072
-39.537588 -6.467985 65.735718
-38.579128 -4.951657 65.303562
-39.367157 -4.25861 64.465916
-39.529763 -5.353576 65.144165
-37.596798 -4.609255 65.431404
-38.579128 -4.951657 65.303562
-36.494194 -4.267669 65.509189
-37.313919 -3.515105 64.703099
-37.596798 -4.609255 65.431404
-35.371485 -3.979137 65.564343
-36.494194 -4.267669 65.509189
-34.170675 -3.668179 65.60725
-35.010506 -2.862562 64.823791
-35.371485 -3.979137 65.564343
-32.963373 -3.399824 65.640045
-34.170675 -3.668179 65.60725
-33.324352 -4.516399 66.380596
-30.088926 -4.811169 67.375313
-30.881372 -3.963592 66.471688
-31.324604 -5.09562 67.317016
-28.867739 -4.550448 67.457573
-30.088926 -4.811169 67.375313
-49.948677 -3.440526 53.716835
-49.415363 -4.718504 53.729076
-50.340534 -2.1519 53.661663
-49.948677 -3.440526 53.716835
-49.672016 -2.664438 54.556793
-50.653872 -0.874547 53.606341
-50.340534 -2.1519 53.661663
-50.211472 -0.085128 54.394705
-49.637348 -0.597226 55.237711
-49.784947 0.693458 55.130795
-50.653872 -0.874547 53.606341
-50.211472 -0.085128 54.394705
-49.087584 5.876451 54.360247
-49.427908 4.597558 54.606009
-48.306871 6.741547 55.022389
-48.67754 7.198802 54.111227
-49.087584 5.876451 54.360247
-44.968983 10.037662 57.411148
-45.410882 10.623881 56.626534
-45.814617 9.200443 56.811024
-44.277013 -7.531944 60.77976
-44.434719 -8.233462 60.051443
-44.679302 -6.328515 60.501095
-44.277013 -7.531944 60.77976
-43.977816 -6.84503 61.413943
-44.45154 9.359832 58.120333
-44.787815 7.935763 58.237997
-43.866636 8.681373 58.762692
-44.968983 10.037662 57.411148
-44.45154 9.359832 58.120333
-26.463708 -3.89788 67.741814
-27.653498 -4.216771 67.582054
-26.064035 -2.603098 67.000641
-26.463708 -3.89788 67.741814
-25.310533 -3.489191 67.963508
-22.537803 0.31462 67.402752
-23.291973 1.225285 66.506123
-23.536876 -0.283843 67.003975
-21.762325 -4.374421 70.753117
-20.760396 -3.889294 71.178357
-22.436044 -3.490362 69.625279
-21.762325 -4.374421 70.753117
-22.094411 -2.095499 68.957264
-23.124339 -2.589371 68.568618
-22.436044 -3.490362 69.625279
-21.823865 -0.596923 68.365711
-22.094411 -2.095499 68.957264
-21.13557 -1.497914 69.422371
-22.537803 0.31462 67.402752
-21.823865 -0.596923 68.365711
-19.360919 -0.214144 70.523983
-18.735449 -1.131109 71.672909
3 69 18 70
3 71 70 16
3 69 70 71
3 0 21 19
3 0 72 74
3 74 73 21
3 72 73 74
3 75 16 76
3 0 77 79
3 77 23 78
3 77 78 79
3 81 80 24
3 2 27 25
3 2 29 27
3 1 32 30
3 82 35 83
3 84 83 33
3 82 83 84
3 86 85 35
3 3 39 37
3 5 40 17
3 5 41 40
3 6 44 42
3 87 45 88
3 89 88 20
3 87 88 89
3 91 90 45
3 92 46 93
3 3 47 22
3 3 37 47
3 8 94 95
3 8 96 98
3 96 48 97
3 96 97 98
3 9 99 100
3 101 49 102
3 103 50 104
3 105 104 49
3 103 104 105
3 106 51 107
3 109 108 51
3 4 53 38
3 11 110 112
3 112 111 26
3 110 111 112
3 11 113 114
3 11 115 117
3 115 54 116
3 115 116 117
3 12 55 28
3 12 56 55
3 10 118 120
3 118 57 119
3 118 119 120
3 13 58 31
3 13 59 58
3 7 60 43
3 14 61 34
3 14 62 61
3 14 63 62
3 121 64 122
3 123 122 36
3 121 122 123
3 125 124 64
3 126 65 127
3 128 127 52
3 126 127 128
3 129 66 130
3 131 67 132
3 133 132 66
3 131 132 133
3 15 134 136
3 134 68 135
3 134 135 136
3 15 137 139
3 139 138 68
3 137 138 139
3 15 140 141
3 16 17 3
3 18 17 16
3 18 5 17
3 19 20 6
3 21 20 19
3 21 142 144
3 144 143 20
3 142 143 144
3 21 145 146
3 148 147 21
3 149 22 150
3 16 151 153
3 151 22 152
3 151 152 153
3 16 3 22
3 23 154 155
3 23 156 158
3 156 8 157
3 156 157 158
3 24 159 161
3 161 160 9
3 159 160 161
3 163 162 24
3 25 26 4
3 27 26 25
3 27 11 26
3 27 28 11
3 29 28 27
3 29 12 28
3 30 31 10
3 32 31 30
3 32 13 31
3 33 34 7
3 35 34 33
3 35 14 34
3 35 36 14
3 164 36 165
3 166 165 35
3 164 165 166
3 168 167 36
3 169 15 170
3 172 171 15
3 37 173 175
3 173 38 174
3 173 174 175
3 39 38 37
3 39 4 38
3 17 39 3
3 40 39 17
3 40 4 39
3 40 25 4
3 41 25 40
3 41 2 25
3 42 43 1
3 44 43 42
3 44 7 43
3 20 44 6
3 45 44 20
3 45 7 44
3 45 33 7
3 176 33 177
3 178 177 45
3 176 177 178
3 180 179 33
3 46 181 182
3 46 183 184
3 22 185 187
3 185 46 186
3 185 186 187
3 47 46 22
3 47 188 190
3 190 189 46
3 188 189 190
3 47 191 192
3 37 193 195
3 195 194 47
3 193 194 195
3 37 196 197
3 48 198 199
3 48 200 201
3 203 202 9
3 204 10 205
3 49 206 207
3 49 208 210
3 208 10 209
3 208 209 210
3 49 30 10
3 50 30 49
3 50 1 30
3 211 50 212
3 213 50 214
3 215 1 216
3 217 216 50
3 215 216 217
3 218 42 219
3 220 219 1
3 218 219 220
3 221 42 222
3 223 6 224
3 225 224 42
3 223 224 225
3 226 6 227
3 228 19 229
3 230 229 6
3 228 229 230
3 51 231 233
3 231 19 232
3 231 232 233
3 51 0 19
3 51 52 0
3 234 52 235
3 236 235 51
3 234 235 236
3 238 237 52
3 38 239 240
3 53 241 243
3 243 242 38
3 241 242 243
3 53 244 245
3 26 53 4
3 246 53 247
3 248 247 26
3 246 247 248
3 250 249 53
3 54 251 252
3 54 253 255
3 253 9 254
3 253 254 255
3 28 54 11
3 55 54 28
3 55 9 54
3 55 24 9
3 56 24 55
3 56 256 258
3 258 257 24
3 256 257 258
3 259 18 260
3 57 261 263
3 261 18 262
3 261 262 263
3 57 5 18
3 31 57 10
3 58 57 31
3 58 5 57
3 58 41 5
3 59 41 58
3 59 2 41
3 43 32 1
3 60 32 43
3 60 13 32
3 34 60 7
3 61 60 34
3 61 13 60
3 61 59 13
3 62 59 61
3 62 2 59
3 62 29 2
3 63 29 62
3 63 12 29
3 36 63 14
3 64 63 36
3 64 12 63
3 64 56 12
3 264 56 265
3 266 265 64
3 264 265 266
3 268 267 56
3 52 23 0
3 65 23 52
3 65 8 23
3 269 65 270
3 66 271 273
3 271 65 272
3 271 272 273
3 66 8 65
3 66 48 8
3 67 48 66
3 67 274 276
3 276 275 48
3 274 275 276
3 68 277 278
3 68 279 280
3 68 281 283
3 281 67 282
3 281 282 283
3 284 67 285
3 286 285 68
3 284 285 286
3 288 287 67
3 290 289 15
