ply
format ascii 1.0
element vertex 246
property float x
property float y
property float z
element face 232
property list uchar int vertex_index
end_header
55.463177 15.703011 -42.721413
53.305443 2.402288 -22.084528
56.666946 13.048172 -31.578508
60.919006 4.468479 -21.606199
61.044731 8.403227 -32.319397
47.465656 6.04031 -24.141748
51.709564 6.614716 -25.945211
55.764919 8.287928 -26.542128
63.079865 2.904829 -21.509916
61.415085 7.588531 -26.707346
62.676083 3.919903 -26.954645
57.537445 3.960196 -21.978415
59.106735 9.019344 -26.601233
59.223618 11.903868 -31.983774
58.724457 12.437592 -37.63102
63.161491 -1.369673 -27.03137
62.336975 3.159151 -32.338257
51.052647 1.790031 -21.785975
50.375923 3.967873 -23.543276
52.576557 4.561346 -24.048204
53.796394 7.450359 -26.358332
54.720745 5.389084 -24.260263
62.959152 3.678213 -24.183455
63.344711 1.593655 -24.302916
56.6091 14.636238 -34.328072
59.364311 4.434208 -21.780344
58.537544 6.713205 -24.188868
60.088486 6.796 -24.096148
61.262688 8.261147 -29.495821
60.39679 9.806341 -29.346277
60.217323 10.420296 -32.168854
58.994537 12.447752 -34.825027
59.991493 10.495626 -34.991707
63.107506 -2.118835 -29.496874
62.797363 0.913996 -29.681616
62.88279 0.127003 -32.114983
48.19696 3.86532 -22.682985
49.575939 6.058319 -25.221121
54.645935 10.246292 -28.769384
56.406933 10.895393 -28.97611
62.163631 3.967701 -21.510717
61.348427 6.328239 -24.055254
62.302711 5.279408 -24.088236
62.165215 6.003992 -26.826975
61.924164 6.199621 -29.633768
55.494133 3.209583 -22.11455
56.730579 6.185114 -24.273138
57.551487 8.87528 -26.593397
57.968323 11.11195 -29.102327
60.398598 8.602703 -26.629995
59.301567 10.764294 -29.214808
58.042664 12.785213 -31.788546
57.872421 13.8493 -34.597694
57.566414 14.306339 -37.442284
57.217533 14.187481 -40.216034
62.990356 1.42951 -27.040251
62.41983 3.717205 -29.712862
61.738106 5.948853 -32.392242
61.712547 5.328056 -34.98423
60.88763 8.088106 -35.059875
59.816467 10.09411 -37.698418
58.487526 11.923822 -40.290108
54.468388 16.323212 -43.918484
54.755669 16.530086 -42.588303
55.239573 15.294148 -43.983459
54.468388 16.323212 -43.918484
63.655086 0.418859 -23.001833
63.508533 1.450956 -22.944921
55.932621 13.925161 -32.792244
55.885607 12.899561 -31.447605
56.638023 13.842205 -32.95329
55.903698 14.719195 -34.167026
55.932621 13.925161 -32.792244
60.474148 3.267434 -20.495102
61.259842 3.266396 -20.377834
60.141659 4.451344 -21.693272
59.6968 3.250298 -20.582175
60.474148 3.267434 -20.495102
63.260395 -2.595215 -30.596668
63.252781 -3.712521 -29.314974
63.148037 -1.472296 -31.905723
62.995148 -0.995916 -30.805929
63.260395 -2.595215 -30.596668
48.507835 2.743595 -21.911983
47.437244 2.986222 -21.399206
47.748119 1.864497 -20.628205
51.210993 7.580189 -26.855093
50.14418 7.301991 -26.493048
50.642752 6.336517 -25.583166
52.219314 7.99447 -27.170172
51.210993 7.580189 -26.855093
62.965851 2.225628 -20.262878
63.419575 1.695904 -20.251576
62.621748 3.436265 -21.510317
62.507734 2.757064 -20.263279
62.965851 2.225628 -20.262878
46.451737 6.399468 -23.428762
46.786501 5.250386 -22.797756
56.822059 2.448479 -20.955311
57.85808 2.800232 -20.825142
56.515789 3.58489 -22.046482
55.800404 2.073173 -21.023378
56.822059 2.448479 -20.955311
63.326828 -2.515283 -25.719263
63.204559 -2.878999 -26.958365
63.332477 -1.126948 -25.713108
63.326828 -2.515283 -25.719263
63.075924 0.029919 -27.035811
63.24691 0.272643 -25.717548
63.332477 -1.126948 -25.713108
61.286895 6.353288 -36.294346
61.795012 4.857009 -36.148254
60.874437 7.733313 -36.332168
61.300089 6.708081 -35.022053
61.286895 6.353288 -36.294346
60.338856 8.736315 -37.65144
60.352049 9.091108 -36.379146
60.874437 7.733313 -36.332168
58.399536 11.436829 -41.499184
59.111573 10.595254 -40.237301
57.686219 12.7291 -41.552269
58.399536 11.436829 -41.499184
50.714285 2.878952 -22.664625
49.597317 2.794872 -22.342129
49.935679 1.70595 -21.463479
63.37611 2.106543 -21.548421
63.419575 1.695904 -20.251576
63.315754 2.493235 -22.885191
63.019509 3.291521 -22.846685
63.37611 2.106543 -21.548421
63.151932 2.635934 -24.243185
63.315754 2.493235 -22.885191
63.508533 1.450956 -22.944921
47.045601 7.084511 -24.827898
48.061857 7.04277 -25.477106
55.801533 15.46124 -35.567559
55.903698 14.719195 -34.167026
56.467834 15.122179 -35.745873
55.801533 15.46124 -35.567559
58.771513 3.037238 -20.726107
59.6968 3.250298 -20.582175
58.450878 4.197202 -21.879379
57.85808 2.800232 -20.825142
58.771513 3.037238 -20.726107
63.177566 -3.25358 -28.191116
63.252781 -3.712521 -29.314974
63.134498 -1.744254 -28.264122
63.204559 -2.878999 -26.958365
63.177566 -3.25358 -28.191116
47.152153 4.16289 -22.068374
47.437244 2.986222 -21.399206
47.831308 4.952815 -23.412366
46.786501 5.250386 -22.797756
47.152153 4.16289 -22.068374
49.286441 3.916596 -23.11313
48.507835 2.743595 -21.911983
49.597317 2.794872 -22.342129
49.116998 7.051775 -26.016793
48.061857 7.04277 -25.477106
48.520798 6.049314 -24.681435
49.116998 7.051775 -26.016793
50.14418 7.301991 -26.493048
53.262729 8.412292 -27.376732
52.219314 7.99447 -27.170172
52.752979 7.032538 -26.151772
53.6875 9.810258 -28.582258
53.262729 8.412292 -27.376732
54.221165 8.848325 -27.563858
54.012093 11.143772 -29.852567
53.6875 9.810258 -28.582258
54.875101 11.498621 -30.043043
54.012093 11.143772 -29.852567
55.7556 11.823172 -30.146406
54.875101 11.498621 -30.043043
55.526434 10.570843 -28.872747
56.53694 11.971782 -30.277309
55.885607 12.899561 -31.447605
55.7556 11.823172 -30.146406
61.882154 3.016007 -20.330093
62.507734 2.757064 -20.263279
61.541319 4.21809 -21.558458
61.259842 3.266396 -20.377834
61.882154 3.016007 -20.330093
50.188528 0.560934 -20.650612
49.935679 1.70595 -21.463479
51.324411 0.667972 -20.869352
50.188528 0.560934 -20.650612
52.450809 0.974101 -21.018629
52.179045 2.096159 -21.935251
51.324411 0.667972 -20.869352
46.451737 6.399468 -23.428762
47.045601 7.084511 -24.827898
55.690337 15.829705 -41.358548
54.755669 16.530086 -42.588303
53.595301 1.281154 -21.073109
52.450809 0.974101 -21.018629
54.689646 1.684801 -21.08812
54.995916 0.548391 -19.996948
55.800404 2.073173 -21.023378
54.399788 2.805935 -22.099539
53.595301 1.281154 -21.073109
54.689646 1.684801 -21.08812
57.099495 14.72871 -35.880684
56.467834 15.122179 -35.745873
57.240761 14.242769 -34.462883
56.946492 14.95723 -37.302979
57.099495 14.72871 -35.880684
57.719418 14.07782 -36.019989
56.741955 15.131369 -38.718983
56.946492 14.95723 -37.302979
56.567515 15.071939 -40.105858
56.741955 15.131369 -38.718983
57.391974 14.24691 -38.829159
56.340355 14.945246 -41.468723
55.690337 15.829705 -41.358548
56.567515 15.071939 -40.105858
63.424087 0.354716 -24.348881
63.655086 0.418859 -23.001833
63.167533 1.511583 -25.671584
63.424087 0.354716 -24.348881
63.24691 0.272643 -25.717548
63.074898 -0.381344 -33.184978
63.148037 -1.472296 -31.905723
62.689789 1.218378 -33.41969
63.074898 -0.381344 -33.184978
62.416882 2.734452 -33.531326
62.609882 1.643077 -32.22662
62.689789 1.218378 -33.41969
62.104668 3.818905 -34.854313
61.795012 4.857009 -36.148254
62.024761 4.243603 -33.661243
62.416882 2.734452 -33.531326
62.104668 3.818905 -34.854313
59.776043 9.680398 -38.941456
60.338856 8.736315 -37.65144
59.151997 11.008966 -38.994263
59.776043 9.680398 -38.941456
59.111573 10.595254 -40.237301
57.051222 13.86093 -41.515232
57.85253 13.055651 -40.253071
57.686219 12.7291 -41.552269
56.174044 14.618695 -42.767921
56.340355 14.945246 -41.468723
57.051222 13.86093 -41.515232
55.239573 15.294148 -43.983459
56.174044 14.618695 -42.767921
3 0 62 63
3 0 64 65
3 1 19 17
3 1 21 19
3 66 23 67
3 2 68 69
3 2 70 72
3 70 24 71
3 70 71 72
3 3 73 74
3 3 75 77
3 75 25 76
3 75 76 77
3 3 27 25
3 4 30 28
3 4 32 30
3 78 33 79
3 80 35 81
3 82 81 33
3 80 81 82
3 83 36 84
3 83 84 85
3 6 37 18
3 6 86 88
3 88 87 37
3 86 87 88
3 6 89 90
3 7 38 20
3 7 39 38
3 8 91 92
3 8 93 95
3 93 40 94
3 93 94 95
3 8 42 40
3 10 43 22
3 10 44 43
3 5 96 97
3 11 98 99
3 11 100 102
3 100 45 101
3 100 101 102
3 11 46 45
3 12 47 26
3 12 48 47
3 9 49 41
3 13 50 29
3 13 51 50
3 13 52 51
3 14 53 31
3 14 54 53
3 15 103 104
3 15 105 106
3 15 107 109
3 107 55 108
3 107 108 109
3 16 56 34
3 16 57 56
3 110 58 111
3 112 59 113
3 114 113 58
3 112 113 114
3 115 60 116
3 117 116 59
3 115 116 117
3 118 61 119
3 121 120 61
3 17 122 124
3 122 18 123
3 122 123 124
3 19 18 17
3 19 6 18
3 19 20 6
3 21 20 19
3 21 7 20
3 125 8 126
3 127 22 128
3 129 128 8
3 127 128 129
3 23 130 132
3 130 22 131
3 130 131 132
3 23 10 22
3 134 133 5
3 24 135 136
3 24 137 138
3 25 139 140
3 25 141 143
3 141 11 142
3 141 142 143
3 25 26 11
3 27 26 25
3 27 12 26
3 28 29 9
3 30 29 28
3 30 13 29
3 30 31 13
3 32 31 30
3 32 14 31
3 33 144 145
3 33 146 148
3 146 15 147
3 146 147 148
3 33 34 15
3 35 34 33
3 35 16 34
3 36 149 150
3 36 151 153
3 151 5 152
3 151 152 153
3 18 154 156
3 154 36 155
3 154 155 156
3 37 36 18
3 37 5 36
3 37 157 159
3 159 158 5
3 157 158 159
3 161 160 37
3 20 162 164
3 164 163 6
3 162 163 164
3 38 165 167
3 167 166 20
3 165 166 167
3 38 168 169
3 38 170 171
3 39 172 174
3 174 173 38
3 172 173 174
3 39 175 177
3 175 2 176
3 175 176 177
3 40 178 179
3 40 180 182
3 180 3 181
3 180 181 182
3 40 41 3
3 42 41 40
3 42 9 41
3 22 42 8
3 43 42 22
3 43 9 42
3 43 28 9
3 44 28 43
3 44 4 28
3 183 17 184
3 185 17 186
3 187 1 188
3 189 188 17
3 187 188 189
3 191 190 5
3 192 0 193
3 194 1 195
3 45 196 198
3 196 197 198
3 45 199 201
3 199 1 200
3 199 200 201
3 45 21 1
3 46 21 45
3 46 7 21
3 26 46 11
3 47 46 26
3 47 7 46
3 47 39 7
3 48 39 47
3 48 2 39
3 41 27 3
3 49 27 41
3 49 12 27
3 29 49 9
3 50 49 29
3 50 12 49
3 50 48 12
3 51 48 50
3 51 2 48
3 51 24 2
3 52 24 51
3 52 202 204
3 204 203 24
3 202 203 204
3 31 52 13
3 53 52 31
3 53 205 207
3 207 206 52
3 205 206 207
3 53 208 209
3 54 210 212
3 212 211 53
3 210 211 212
3 54 213 215
3 213 0 214
3 213 214 215
3 216 23 217
3 55 218 220
3 218 23 219
3 218 219 220
3 55 10 23
3 34 55 15
3 56 55 34
3 56 10 55
3 56 44 10
3 57 44 56
3 57 4 44
3 221 35 222
3 223 35 224
3 225 16 226
3 227 226 35
3 225 226 227
3 58 228 229
3 58 230 232
3 230 16 231
3 230 231 232
3 58 57 16
3 59 57 58
3 59 4 57
3 59 32 4
3 60 32 59
3 60 14 32
3 233 60 234
3 61 235 237
3 235 60 236
3 235 236 237
3 61 14 60
3 61 54 14
3 238 54 239
3 240 239 61
3 238 239 240
3 241 0 242
3 243 242 54
3 241 242 243
3 245 244 0
