ply
format ascii 1.0
element vertex 283
property float x
property float y
property float z
element face 277
property list uchar int vertex_index
end_header
66.71154 -36.576942 9.539516
70.77404 -41.502659 11.127046
56.657482 -32.843224 9.430211
70.333076 -34.907848 1.982778
61.49139 -37.645569 13.924191
56.16375 -35.781105 13.623843
62.081169 -34.661461 9.287701
63.007133 -30.776077 5.254786
67.353683 -32.869049 5.161615
70.039818 -31.504375 1.472455
70.094284 -35.409908 5.490618
66.134224 -39.473938 14.5128
69.771263 -38.826637 10.154495
69.289101 -41.568695 15.302434
70.407242 -44.080833 16.302322
50.960258 -33.52092 13.706636
67.54557 -35.398148 -0.987095
70.812065 -38.395672 6.296448
64.211571 -37.187157 11.713831
61.73175 -36.281559 11.540928
64.548012 -35.589523 9.366362
64.933479 -33.773308 7.176618
67.039024 -34.811123 7.264485
68.960464 -34.080284 5.269596
68.740936 -35.947411 7.454334
63.793449 -39.643665 16.756836
67.941086 -40.474449 14.884407
67.727646 -41.568874 17.552629
70.160881 -45.494293 16.905529
56.321548 -34.444744 11.474128
53.500969 -34.721561 13.615512
53.599297 -33.428284 11.592176
65.74234 -29.625259 3.309509
70.427704 -33.154926 1.657136
70.074455 -31.206337 -0.202698
69.868149 -33.076073 0.041975
68.560074 -33.283966 -1.458982
69.245407 -35.021793 0.438055
70.542892 -40.111801 10.595083
70.67466 -38.548645 8.14841
70.847008 -40.006798 8.657257
58.815865 -37.815907 16.09338
56.198467 -36.828617 15.85162
58.860283 -36.740524 13.730452
59.066147 -35.381737 11.457982
59.415459 -33.758636 9.308353
59.885941 -31.904291 7.301451
62.515171 -32.813572 7.189537
65.340561 -31.772053 5.159175
67.629234 -30.786053 3.233824
69.169029 -29.980267 1.414013
69.110046 -32.079781 3.259053
70.124687 -33.503624 3.398748
70.638611 -35.046135 3.665154
70.479477 -42.98838 11.753277
70.503677 -41.553307 9.275522
62.129898 -39.273033 -2.828999
61.382256 -38.738426 16.401751
63.951393 -38.542561 14.189697
66.400032 -38.137772 11.966278
68.477715 -37.650398 9.80288
68.200745 -39.164993 12.290337
69.534805 -40.290241 12.68263
70.348495 -41.523849 13.144729
69.06147 -42.651421 17.987179
70.119965 -42.770004 15.77177
70.619125 -42.865906 13.681895
70.3582 -44.307907 14.300835
65.487312 -36.034073 -2.319555
69.967789 -37.192982 7.748111
70.714935 -36.852634 5.831476
70.646049 -36.688778 4.067082
70.408455 -40.020699 6.886709
70.173943 -38.408745 4.608231
69.787071 -36.736122 2.4569
68.264488 -37.014267 0.988708
66.291809 -37.53154 -0.361473
64.145782 -38.287643 -1.624479
66.788349 -41.503853 18.688018
66.835094 -41.071987 17.347829
55.28322 -32.360422 9.538974
53.754127 -32.652952 10.619956
55.128389 -33.135754 10.511194
56.903874 -31.928594 8.468543
55.28322 -32.360422 9.538974
65.927665 -28.499221 2.456626
66.792644 -29.1126 2.386793
70.087193 -43.080587 10.87668
70.093422 -43.771635 12.113647
61.330141 -39.870224 -3.410049
61.543915 -40.435308 -2.388079
61.402904 -39.148583 17.668156
60.164644 -38.671596 17.455315
68.966645 -43.091387 19.352083
68.322449 -42.547584 19.127402
68.227623 -42.98755 20.492306
70.263603 -43.425418 16.037046
70.000675 -43.304062 17.114179
70.144314 -43.959477 17.379455
69.88686 -45.66529 15.955767
69.794967 -46.245716 17.247762
54.894863 -35.755157 14.659484
54.912222 -36.278914 15.773372
56.181109 -36.304861 14.737732
51.071342 -33.997846 14.670748
52.341697 -34.598167 14.625186
52.230614 -34.12124 13.661074
49.94923 -33.275652 14.687489
51.071342 -33.997846 14.670748
49.78838 -32.833427 13.795372
49.94923 -33.275652 14.687489
61.728863 -30.318483 5.347398
60.168267 -30.88259 6.370731
61.446537 -31.340184 6.278118
69.934498 -30.473844 0.582249
69.499103 -29.71179 0.553028
69.604423 -30.742321 1.443234
69.828919 -30.216439 -1.072869
69.666943 -31.211233 -0.988834
67.131824 -34.587479 -1.927333
67.639077 -33.530388 -2.163276
68.052822 -34.341057 -1.223038
66.516441 -35.71611 -1.653325
66.102696 -34.905441 -2.593563
67.131824 -34.587479 -1.927333
69.982666 -40.865262 7.242131
70.456066 -40.787003 8.081115
70.030277 -41.631565 8.436537
69.510113 -38.511516 3.843233
69.72559 -39.296688 4.946361
69.316677 -37.675205 2.767568
69.980507 -37.572434 3.532566
69.510113 -38.511516 3.843233
68.555385 -37.814278 2.033472
69.025779 -36.875194 1.722804
69.316677 -37.675205 2.767568
65.587803 -38.597859 0.022085
66.64693 -38.280405 0.662828
64.51479 -38.97591 -0.609418
65.218795 -37.909592 -0.992976
65.587803 -38.597859 0.022085
63.460016 -39.405037 -1.211188
64.51479 -38.97591 -0.609418
63.776969 -40.066439 18.067242
62.608501 -39.601202 17.845698
64.867996 -40.109382 16.949933
63.776969 -40.066439 18.067242
66.038384 -40.024519 15.827915
64.963836 -39.558802 15.634818
64.867996 -40.109382 16.949933
66.941814 -40.524774 16.013718
67.037655 -39.974193 14.698604
66.038384 -40.024519 15.827915
67.834366 -41.021662 16.218518
66.941814 -40.524774 16.013718
66.835094 -41.071987 17.347829
70.282955 -44.607046 17.639267
70.144314 -43.959477 17.379455
70.159775 -45.313776 17.940871
70.284062 -44.787563 16.603926
70.282955 -44.607046 17.639267
70.032535 -46.012793 18.233879
70.159775 -45.313776 17.940871
69.794967 -46.245716 17.247762
70.032535 -46.012793 18.233879
52.294826 -32.861327 11.697982
50.975307 -32.907645 12.755211
52.279778 -33.474602 12.649406
52.294826 -32.861327 11.697982
53.754127 -32.652952 10.619956
64.635391 -29.108532 3.391051
63.267787 -29.683941 4.36369
64.374736 -30.200668 4.282147
64.635391 -29.108532 3.391051
65.927665 -28.499221 2.456626
69.563789 -32.146101 -0.866497
69.666943 -31.211233 -0.988834
69.971302 -32.141205 -0.080362
69.214112 -33.18002 -0.708503
68.909752 -32.250048 -1.616976
69.563789 -32.146101 -0.866497
57.507166 -37.322262 15.9725
56.316389 -37.204783 16.987285
57.625088 -37.698428 17.108165
67.736092 -29.692997 2.34895
66.792644 -29.1126 2.386793
66.685787 -30.205656 3.271666
68.399131 -30.38316 2.323918
68.505989 -29.290104 1.439045
67.736092 -29.692997 2.34895
70.099292 -42.36305 9.637802
70.491577 -42.270843 10.514399
70.087193 -43.080587 10.87668
70.030277 -41.631565 8.436537
70.099292 -42.36305 9.637802
61.828873 -38.64699 -3.822635
62.75322 -38.094635 -3.208824
61.828873 -38.64699 -3.822635
61.330141 -39.870224 -3.410049
58.881449 -38.210337 17.30113
57.625088 -37.698428 17.108165
60.099061 -38.277166 16.247566
58.881449 -38.210337 17.30113
60.164644 -38.671596 17.455315
62.587852 -39.191046 16.579293
61.402904 -39.148583 17.668156
62.608501 -39.601202 17.845698
67.655536 -42.006311 18.910127
66.788349 -41.503853 18.688018
68.394558 -42.110147 17.769904
67.655536 -42.006311 18.910127
68.322449 -42.547584 19.127402
69.471428 -43.244771 18.221884
68.966645 -43.091387 19.352083
69.590717 -42.710712 16.879475
69.471428 -43.244771 18.221884
70.000675 -43.304062 17.114179
70.032783 -44.431399 13.387427
70.093422 -43.771635 12.113647
70.418838 -43.648144 13.027056
69.985519 -45.072097 14.65342
70.25954 -44.9011 15.603182
69.88686 -45.66529 15.955767
70.032783 -44.431399 13.387427
69.985519 -45.072097 14.65342
55.088194 -36.634594 16.826539
55.206116 -37.010759 17.962204
56.316389 -37.204783 16.987285
55.088194 -36.634594 16.826539
54.912222 -36.278914 15.773372
53.563473 -35.225386 14.655318
54.894863 -35.755157 14.659484
54.832359 -35.251333 13.619678
53.563473 -35.225386 14.655318
52.341697 -34.598167 14.625186
49.803428 -32.220152 12.843947
49.78838 -32.833427 13.795372
50.975307 -32.907645 12.755211
58.518103 -31.459128 7.404164
56.903874 -31.928594 8.468543
58.271712 -32.373757 8.365831
58.518103 -31.459128 7.404164
60.168267 -30.88259 6.370731
61.728863 -30.318483 5.347398
63.267787 -29.683941 4.36369
69.146312 -28.897947 0.560146
68.505989 -29.290104 1.439045
69.146312 -28.897947 0.560146
69.499103 -29.71179 0.553028
69.951817 -30.324826 -0.255327
69.934498 -30.473844 0.582249
70.057136 -31.355356 0.634879
69.951817 -30.324826 -0.255327
69.828919 -30.216439 -1.072869
68.158501 -32.411082 -2.360343
68.909752 -32.250048 -1.616976
68.158501 -32.411082 -2.360343
67.639077 -33.530388 -2.163276
65.06007 -35.286314 -3.264927
66.102696 -34.905441 -2.593563
64.431927 -36.475155 -2.954102
65.06007 -35.286314 -3.264927
69.842846 -40.102665 6.0856
69.982666 -40.865262 7.242131
70.291199 -39.214722 5.74747
69.842846 -40.102665 6.0856
69.72559 -39.296688 4.946361
67.63327 -38.021768 1.337919
68.555385 -37.814278 2.033472
67.278149 -37.272903 0.313617
67.63327 -38.021768 1.337919
66.64693 -38.280405 0.662828
63.761162 -37.60194 -2.606564
64.431927 -36.475155 -2.954102
64.816547 -37.160858 -1.972017
63.13784 -38.780338 -2.226739
62.75322 -38.094635 -3.208824
63.761162 -37.60194 -2.606564
62.452074 -39.897731 -1.813448
63.13784 -38.780338 -2.226739
63.460016 -39.405037 -1.211188
61.543915 -40.435308 -2.388079
62.452074 -39.897731 -1.813448
3 0 20 18
3 0 22 20
3 0 24 22
3 78 27 79
3 2 31 29
3 2 80 82
3 82 81 31
3 80 81 82
3 2 83 84
3 86 85 32
3 3 35 33
3 3 37 35
3 1 40 38
3 4 43 41
3 6 44 19
3 6 45 44
3 6 47 45
3 8 48 21
3 8 49 48
3 8 51 49
3 10 52 23
3 10 53 52
3 88 87 54
3 90 89 56
3 91 57 92
3 11 58 25
3 11 59 58
3 11 61 59
3 13 62 26
3 13 63 62
3 93 64 94
3 93 94 95
3 14 96 98
3 96 65 97
3 96 97 98
3 14 66 65
3 14 67 66
3 100 99 28
3 5 101 103
3 103 102 42
3 101 102 103
3 15 104 106
3 106 105 30
3 104 105 106
3 15 107 108
3 15 109 110
3 7 111 113
3 113 112 46
3 111 112 113
3 9 114 116
3 116 115 50
3 114 115 116
3 118 117 34
3 16 119 121
3 121 120 36
3 119 120 121
3 16 122 124
3 122 68 123
3 122 123 124
3 12 69 60
3 17 70 39
3 17 71 70
3 125 72 126
3 127 126 55
3 125 126 127
3 128 73 129
3 130 74 131
3 132 131 73
3 130 131 132
3 133 75 134
3 135 134 74
3 133 134 135
3 136 76 137
3 138 77 139
3 140 139 76
3 138 139 140
3 142 141 77
3 18 19 4
3 20 19 18
3 20 6 19
3 20 21 6
3 22 21 20
3 22 8 21
3 22 23 8
3 24 23 22
3 24 10 23
3 143 25 144
3 145 25 146
3 147 11 148
3 149 148 25
3 147 148 149
3 150 26 151
3 152 151 11
3 150 151 152
3 27 153 155
3 153 26 154
3 153 154 155
3 27 13 26
3 156 14 157
3 158 28 159
3 160 159 14
3 158 159 160
3 161 28 162
3 164 163 28
3 29 30 5
3 31 30 29
3 31 15 30
3 31 165 167
3 167 166 15
3 165 166 167
3 169 168 31
3 32 170 172
3 172 171 7
3 170 171 172
3 174 173 32
3 33 34 9
3 35 34 33
3 35 175 177
3 177 176 34
3 175 176 177
3 35 178 180
3 178 36 179
3 178 179 180
3 37 36 35
3 37 16 36
3 38 39 12
3 40 39 38
3 40 17 39
3 41 181 183
3 181 42 182
3 181 182 183
3 43 42 41
3 43 5 42
3 19 43 4
3 44 43 19
3 44 5 43
3 44 29 5
3 45 29 44
3 45 2 29
3 45 46 2
3 47 46 45
3 47 7 46
3 21 47 6
3 48 47 21
3 48 7 47
3 48 32 7
3 49 32 48
3 49 184 186
3 186 185 32
3 184 185 186
3 49 187 189
3 187 50 188
3 187 188 189
3 51 50 49
3 51 9 50
3 23 51 8
3 52 51 23
3 52 9 51
3 52 33 9
3 53 33 52
3 53 3 33
3 54 55 1
3 190 55 191
3 192 191 54
3 190 191 192
3 194 193 55
3 56 195 196
3 198 197 56
3 199 41 200
3 57 201 203
3 201 41 202
3 201 202 203
3 57 4 41
3 25 204 206
3 204 57 205
3 204 205 206
3 58 57 25
3 58 4 57
3 58 18 4
3 59 18 58
3 59 0 18
3 59 60 0
3 61 60 59
3 61 12 60
3 26 61 11
3 62 61 26
3 62 12 61
3 62 38 12
3 63 38 62
3 63 1 38
3 207 27 208
3 64 209 211
3 209 27 210
3 209 210 211
3 64 13 27
3 212 64 213
3 65 214 216
3 214 64 215
3 214 215 216
3 65 13 64
3 65 63 13
3 66 63 65
3 66 1 63
3 66 54 1
3 67 54 66
3 67 217 219
3 219 218 54
3 217 218 219
3 28 67 14
3 220 67 221
3 222 221 28
3 220 221 222
3 224 223 67
3 42 225 227
3 225 226 227
3 229 228 42
3 30 230 232
3 232 231 5
3 230 231 232
3 234 233 30
3 237 236 15
3 235 236 237
3 46 238 240
3 240 239 2
3 238 239 240
3 242 241 46
3 244 243 7
3 50 245 246
3 248 247 50
3 34 249 251
3 251 250 9
3 249 250 251
3 253 252 34
3 36 254 255
3 257 256 36
3 68 258 259
3 68 260 261
3 60 24 0
3 69 24 60
3 69 10 24
3 39 69 12
3 70 69 39
3 70 10 69
3 70 53 10
3 71 53 70
3 71 3 53
3 55 40 1
3 72 40 55
3 72 17 40
3 262 72 263
3 73 264 266
3 264 72 265
3 264 265 266
3 73 17 72
3 73 71 17
3 74 71 73
3 74 3 71
3 74 37 3
3 75 37 74
3 75 16 37
3 267 75 268
3 76 269 271
3 269 75 270
3 269 270 271
3 76 16 75
3 76 68 16
3 77 68 76
3 77 272 274
3 274 273 68
3 272 273 274
3 77 275 277
3 275 56 276
3 275 276 277
3 278 56 279
3 280 279 77
3 278 279 280
3 282 281 56
