ply
format ascii 1.0
element vertex 243
property float x
property float y
property float z
element face 226
property list uchar int vertex_index
end_header
-40.016655 -84.073975 48.984306
-27.519571 -84.422577 45.103256
-43.506447 -88.177216 43.0163
-46.980003 -79.979408 47.526886
-33.277184 -85.583252 47.480282
-47.835995 -81.10379 44.137321
-34.170563 -80.515259 49.257622
-36.519485 -85.251129 48.541912
-41.969482 -86.960114 46.952003
-38.756397 -89.100464 46.812317
-40.862144 -91.371826 43.439331
-43.571938 -82.244049 48.634125
-45.020126 -84.194366 45.971603
-31.088272 -80.663597 49.169453
-30.330414 -85.147995 46.169052
-35.576607 -90.22641 45.515491
-38.882671 -82.103943 49.317379
-37.082733 -82.603783 49.187782
-38.246681 -84.759613 48.856476
-42.788349 -87.779678 45.197884
-41.333878 -89.212784 45.425751
-42.227798 -89.853348 43.388741
-45.305 -81.156639 48.166069
-44.384945 -83.422714 47.565117
-45.98262 -82.117332 46.905846
-46.74506 -82.854599 42.947678
-33.708439 -83.101776 48.641911
-32.577461 -80.642166 49.20163
-32.158649 -83.100769 48.291557
-30.693533 -82.965225 47.941017
-31.77322 -85.440887 46.82679
-38.289448 -91.455414 44.906006
-37.148991 -89.810745 46.297565
-47.517784 -80.735077 46.066963
-48.985424 -79.285866 45.086037
-35.868954 -80.266663 49.315147
-35.351784 -82.939011 48.952541
-34.858685 -85.526947 48.069359
-41.046577 -85.714386 48.216984
-39.344307 -86.630981 48.168331
-40.372772 -88.133331 47.031799
-39.825584 -90.458252 45.332649
-39.428974 -92.668091 43.140331
-40.724895 -81.457588 49.318432
-41.801033 -83.225021 48.910557
-42.734352 -84.631851 48.010971
-43.523197 -85.632477 46.588596
-44.173782 -86.214752 44.679813
-46.456463 -82.678017 45.140083
-45.488914 -84.562561 43.913853
-44.695091 -86.398422 42.36499
-33.016716 -78.090179 49.639072
-31.509012 -78.252594 49.910843
-29.290941 -82.745499 47.632633
-28.922256 -84.778046 45.572357
-37.655235 -87.338974 47.86578
-36.006763 -87.80159 47.328552
-34.418724 -87.998917 46.595352
-32.897068 -87.937561 45.723034
-26.808979 -84.301147 44.963925
-26.325304 -83.258766 46.071428
-27.035896 -83.380195 46.21076
-27.325903 -85.376686 43.755047
-26.808979 -84.301147 44.963925
-46.594479 -79.407673 47.993915
-47.455397 -78.876712 47.715454
-46.142502 -80.568024 47.846477
-45.756977 -79.996288 48.313507
-46.594479 -79.407673 47.993915
-37.522199 -91.802765 44.531898
-38.123436 -92.566132 43.696503
-49.539964 -78.332962 45.465992
-48.782988 -79.002964 45.914711
-36.764449 -80.080154 49.333056
-36.126408 -78.906425 49.293806
-41.072344 -80.131744 49.293541
-40.122514 -80.430286 49.330311
-43.075709 -81.465077 48.905636
-43.994347 -81.026108 48.761843
-42.686486 -82.734535 48.772341
-42.190256 -81.955562 49.043852
-43.075709 -81.465077 48.905636
-45.648777 -84.560592 42.699612
-46.116987 -83.70858 43.430766
-46.27685 -83.706611 42.216525
-45.251865 -85.478523 41.92518
-45.092002 -85.480491 43.139421
-45.648777 -84.560592 42.699612
-44.896261 -86.31417 41.054077
-45.251865 -85.478523 41.92518
-33.59364 -79.302719 49.448347
-33.830094 -77.973953 49.53417
-34.407017 -79.186493 49.343445
-30.599445 -79.513599 49.708918
-30.809815 -78.308098 50.079613
-31.298642 -79.458095 49.540148
-30.387571 -80.637401 49.175938
-30.599445 -79.513599 49.708918
-32.737871 -89.04937 44.553595
-33.475447 -89.136544 45.121084
-32.164479 -87.797027 45.253256
-32.737871 -89.04937 44.553595
-37.982702 -82.353863 49.252581
-37.371338 -81.248715 49.269373
-38.271307 -80.998795 49.334171
-44.860878 -80.482403 48.527815
-45.756977 -79.996288 48.313507
-44.438469 -81.700344 48.400097
-43.994347 -81.026108 48.761843
-44.860878 -80.482403 48.527815
-47.353319 -81.982803 42.388625
-47.290527 -81.979195 43.5425
-47.898786 -81.107399 42.983446
-46.810484 -82.770675 41.68845
-47.353319 -81.982803 42.388625
-46.27685 -83.706611 42.216525
-46.810484 -82.770675 41.68845
-36.951971 -90.98043 45.227678
-37.71922 -90.63308 45.601785
-37.522199 -91.802765 44.531898
-36.165779 -91.188263 44.836641
-36.362799 -90.018577 45.906528
-36.951971 -90.98043 45.227678
-43.277375 -89.126419 42.006354
-43.815234 -88.182915 41.756867
-47.780277 -79.349735 47.135136
-47.455397 -78.876712 47.715454
-48.049167 -79.72757 46.405174
-47.248894 -80.357243 46.796925
-47.780277 -79.349735 47.135136
-48.251604 -80.010471 45.5765
-48.049167 -79.72757 46.405174
-48.782988 -79.002964 45.914711
-49.685034 -78.529854 44.54398
-49.539964 -78.332962 45.465992
-49.076225 -79.384484 44.046707
-49.685034 -78.529854 44.54398
-48.501511 -80.293446 43.57235
-48.410709 -80.194828 44.611679
-49.076225 -79.384484 44.046707
-47.898786 -81.107399 42.983446
-48.501511 -80.293446 43.57235
-35.256213 -79.062195 49.372208
-36.126408 -78.906425 49.293806
-35.019759 -80.390961 49.286384
-34.407017 -79.186493 49.343445
-35.256213 -79.062195 49.372208
-36.475843 -81.435223 49.251464
-36.764449 -80.080154 49.333056
-37.371338 -81.248715 49.269373
-27.720161 -83.466263 46.256847
-27.035896 -83.380195 46.21076
-38.693199 -93.17247 42.813665
-38.123436 -92.566132 43.696503
-38.859211 -92.061753 44.023168
-42.63805 -89.964485 42.192574
-42.867123 -89.015282 43.202521
-43.277375 -89.126419 42.006354
-42.042377 -90.84726 42.28875
-42.63805 -89.964485 42.192574
-41.35955 -91.606499 42.314045
-41.544971 -90.612587 43.414036
-42.042377 -90.84726 42.28875
-40.710273 -92.397247 42.23684
-41.35955 -91.606499 42.314045
-39.993688 -93.045379 42.087339
-40.145559 -92.019959 43.289831
-40.710273 -92.397247 42.23684
-39.303213 -93.709328 41.826712
-39.993688 -93.045379 42.087339
-38.693199 -93.17247 42.813665
-39.303213 -93.709328 41.826712
-39.201403 -80.753464 49.329785
-38.271307 -80.998795 49.334171
-39.803783 -81.780766 49.317906
-39.201403 -80.753464 49.329785
-40.122514 -80.430286 49.330311
-41.652187 -81.071846 49.247789
-41.072344 -80.131744 49.293541
-41.262964 -82.341305 49.114494
-41.652187 -81.071846 49.247789
-42.190256 -81.955562 49.043852
-44.409555 -87.293518 41.431212
-43.815234 -88.182915 41.756867
-44.100769 -87.287819 42.690645
-44.409555 -87.293518 41.431212
-44.896261 -86.31417 41.054077
-33.242316 -76.785751 49.682577
-33.830094 -77.973953 49.53417
-32.4847 -76.925479 49.953975
-33.242316 -76.785751 49.682577
-31.730848 -77.006687 50.089861
-32.4847 -76.925479 49.953975
-32.262864 -78.171387 49.774957
-31.036566 -77.13467 50.410363
-31.730848 -77.006687 50.089861
-31.036566 -77.13467 50.410363
-30.809815 -78.308098 50.079613
-30.190202 -81.788216 48.56172
-30.387571 -80.637401 49.175938
-30.890902 -81.814411 48.555235
-29.488906 -81.678352 48.407528
-30.190202 -81.788216 48.56172
-29.992237 -82.855362 47.786825
-28.818071 -81.638531 48.447275
-29.488906 -81.678352 48.407528
-28.605846 -82.627724 47.521536
-28.132976 -81.520756 48.336178
-28.818071 -81.638531 48.447275
-28.421504 -83.643998 46.491398
-28.605846 -82.627724 47.521536
-29.106599 -83.761773 46.602495
-28.220914 -84.600312 45.337806
-27.720161 -83.466263 46.256847
-28.421504 -83.643998 46.491398
-35.410899 -91.368004 44.322418
-36.165779 -91.188263 44.836641
-34.815216 -90.280968 45.017313
-35.410899 -91.368004 44.322418
-34.236275 -89.167222 45.557243
-34.997665 -89.112663 46.055421
-34.815216 -90.280968 45.017313
-33.657896 -87.968239 46.159193
-34.236275 -89.167222 45.557243
-33.475447 -89.136544 45.121084
-31.602555 -86.54869 45.805134
-32.335144 -86.689224 46.274912
-32.164479 -87.797027 45.253256
-30.881152 -86.402244 45.476265
-31.051817 -85.294441 46.497921
-31.602555 -86.54869 45.805134
-30.165535 -86.187645 45.014187
-30.881152 -86.402244 45.476265
-29.461456 -86.00267 44.71584
-29.626335 -84.96302 45.870705
-30.165535 -86.187645 45.014187
-28.748911 -85.762978 44.30538
-29.461456 -86.00267 44.71584
-28.047568 -85.585244 44.07083
-28.220914 -84.600312 45.337806
-28.748911 -85.762978 44.30538
-27.325903 -85.376686 43.755047
-28.047568 -85.585244 44.07083
3 1 59 61
3 59 60 61
3 1 62 63
3 0 18 16
3 2 21 19
3 3 64 65
3 3 66 68
3 66 22 67
3 66 67 68
3 3 24 22
3 4 28 26
3 4 30 28
3 70 69 31
3 71 34 72
3 73 35 74
3 7 36 17
3 7 37 36
3 8 40 38
3 10 41 20
3 10 42 41
3 75 43 76
3 11 77 78
3 11 79 81
3 79 44 80
3 79 80 81
3 11 45 44
3 12 46 23
3 12 47 46
3 5 48 33
3 82 49 83
3 84 83 25
3 82 83 84
3 85 50 86
3 87 86 49
3 85 86 87
3 89 88 50
3 6 90 92
3 90 51 91
3 90 91 92
3 13 52 27
3 13 93 95
3 95 94 52
3 93 94 95
3 13 96 97
3 14 53 29
3 14 54 53
3 9 55 39
3 15 56 32
3 15 57 56
3 98 58 99
3 101 100 58
3 16 102 104
3 102 17 103
3 102 103 104
3 18 17 16
3 18 7 17
3 19 20 8
3 21 20 19
3 21 10 20
3 22 105 106
3 22 107 109
3 107 11 108
3 107 108 109
3 22 23 11
3 24 23 22
3 24 12 23
3 110 25 111
3 112 111 5
3 110 111 112
3 113 25 114
3 116 115 25
3 26 27 6
3 28 27 26
3 28 13 27
3 28 29 13
3 30 29 28
3 30 14 29
3 31 32 9
3 117 32 118
3 119 118 31
3 117 118 119
3 120 15 121
3 122 121 32
3 120 121 122
3 124 123 2
3 125 3 126
3 127 33 128
3 129 128 3
3 127 128 129
3 34 130 132
3 130 33 131
3 130 131 132
3 34 5 33
3 133 34 134
3 135 34 136
3 137 5 138
3 139 138 34
3 137 138 139
3 141 140 5
3 35 142 143
3 35 144 146
3 144 6 145
3 144 145 146
3 17 147 149
3 147 35 148
3 147 148 149
3 36 35 17
3 36 6 35
3 36 26 6
3 37 26 36
3 37 4 26
3 150 1 151
3 38 39 0
3 40 39 38
3 40 9 39
3 20 40 8
3 41 40 20
3 41 9 40
3 41 31 9
3 42 31 41
3 42 152 154
3 154 153 31
3 152 153 154
3 155 21 156
3 157 156 2
3 155 156 157
3 158 21 159
3 160 10 161
3 162 161 21
3 160 161 162
3 163 10 164
3 165 42 166
3 167 166 10
3 165 166 167
3 168 42 169
3 171 170 42
3 172 16 173
3 43 174 176
3 174 16 175
3 174 175 176
3 43 0 16
3 177 43 178
3 44 179 181
3 179 43 180
3 179 180 181
3 44 0 43
3 44 38 0
3 45 38 44
3 45 8 38
3 23 45 11
3 46 45 23
3 46 8 45
3 46 19 8
3 47 19 46
3 47 2 19
3 33 24 3
3 48 24 33
3 48 12 24
3 25 48 5
3 49 48 25
3 49 12 48
3 49 47 12
3 50 47 49
3 50 2 47
3 50 182 184
3 184 183 2
3 182 183 184
3 186 185 50
3 51 187 188
3 51 189 190
3 27 51 6
3 52 51 27
3 52 191 193
3 193 192 51
3 191 192 193
3 52 194 195
3 197 196 52
3 29 198 200
3 200 199 13
3 198 199 200
3 53 201 203
3 203 202 29
3 201 202 203
3 53 204 205
3 53 206 208
3 206 207 208
3 54 209 211
3 211 210 53
3 209 210 211
3 54 212 214
3 212 1 213
3 212 213 214
3 39 18 0
3 55 18 39
3 55 7 18
3 32 55 9
3 56 55 32
3 56 7 55
3 56 37 7
3 57 37 56
3 57 4 37
3 215 15 216
3 217 15 218
3 219 57 220
3 221 220 15
3 219 220 221
3 58 222 224
3 222 57 223
3 222 223 224
3 58 4 57
3 58 30 4
3 225 30 226
3 227 226 58
3 225 226 227
3 228 14 229
3 230 229 30
3 228 229 230
3 231 14 232
3 233 54 234
3 235 234 14
3 233 234 235
3 236 54 237
3 238 1 239
3 240 239 54
3 238 239 240
3 242 241 1
