ply
format ascii 1.0
element vertex 263
property float x
property float y
property float z
element face 239
property list uchar int vertex_index
end_header
-52.61248 -1.717314 -19.98835
-59.577873 -2.931465 -16.600685
-62.006313 -0.024712 -25.732609
-63.519894 -10.819081 -23.42971
-56.333721 -2.072668 -18.347889
-59.166969 2.298342 -22.10582
-62.414696 -2.306402 -30.351856
-63.043018 -3.777421 -19.855343
-61.482666 -0.122099 -20.802311
-48.752422 -1.011925 -20.881912
-51.970734 -7.07341 -15.119719
-47.020962 -10.343378 -11.469019
-48.133499 -5.854087 -16.156614
-63.030247 -5.179172 -24.665237
-54.513939 -1.880753 -19.221519
-56.321991 0.701511 -20.963757
-54.537064 0.893192 -21.784168
-61.874702 -2.440924 -17.956791
-60.761513 -1.208818 -18.570999
-46.883541 -0.241838 -20.88726
-48.825142 1.466234 -23.279686
-46.957512 2.057243 -23.226555
-53.902161 -7.359267 -14.285419
-51.409691 -9.633301 -12.739878
-47.631176 -8.155394 -13.812273
-63.64587 -12.600513 -25.148834
-62.528736 -1.856922 -22.752865
-63.05426 -4.204913 -22.304028
-62.586819 -2.517942 -25.210865
-63.027149 -5.30574 -29.510139
-58.03162 -2.395802 -17.449963
-59.458775 -0.289778 -19.299568
-57.972935 0.331932 -20.113453
-57.721169 3.01358 -22.871094
-63.662216 -9.369496 -21.390881
-62.146343 -0.916388 -28.157417
-62.799671 -3.974585 -17.464874
-62.352333 -1.812502 -20.288361
-61.844105 0.265778 -23.229988
-60.422729 1.255121 -21.408974
-60.985615 2.110407 -23.756981
-61.275826 2.245157 -26.252125
-50.676132 -1.466999 -20.565739
-52.660332 1.005915 -22.496391
-50.740204 1.15576 -23.019131
-56.152691 -4.845689 -15.812368
-54.297501 -4.644516 -16.7244
-52.376488 -4.423308 -17.532864
-48.829205 -11.386551 -11.049812
-49.49498 -9.056627 -13.403311
-50.034195 -6.607779 -15.768087
-50.433563 -4.06715 -18.152084
-48.513664 -3.463366 -18.510094
-46.656975 -2.511162 -18.558956
-63.565071 -5.968853 -19.480698
-63.430752 -6.725113 -21.858566
-63.341797 -7.959531 -24.076767
-62.707607 -3.701573 -27.508804
-63.147549 -6.601707 -26.795532
-63.463181 -9.577789 -26.010067
-60.169693 -2.070142 -17.585842
-60.857862 -2.471176 -17.213686
-60.266042 -3.332499 -16.228529
-46.029291 1.496598 -21.895386
-46.920527 0.907703 -22.056908
-45.992306 0.347058 -20.725738
-51.057659 -10.853831 -11.563946
-52.374512 -9.811863 -12.319816
-63.540835 -12.27278 -23.070222
-63.634754 -11.458258 -22.153085
-63.582882 -11.709797 -24.289272
-63.603822 -13.163497 -23.929785
-63.540835 -12.27278 -23.070222
-56.912667 3.225261 -23.266863
-57.02158 1.857546 -21.917426
-56.213077 2.069226 -22.313195
-57.492363 4.312378 -24.294641
-56.912667 3.225261 -23.266863
-63.793495 -8.853189 -20.262783
-63.8936 -10.102203 -20.087533
-62.475718 -4.400601 -16.358525
-62.983164 -5.091398 -16.132123
-60.681954 3.172611 -25.274203
-60.462166 2.871082 -24.05267
-60.827059 3.239985 -26.521774
-61.130721 2.177782 -25.004553
-60.681954 3.172611 -25.274203
-60.951584 3.17539 -27.786568
-60.827059 3.239985 -26.521774
-49.712612 2.612691 -24.399082
-48.764236 2.698492 -24.492972
-55.970487 -6.212991 -14.584004
-57.028482 -4.989508 -15.348733
-46.667704 -11.37132 -10.295511
-45.853516 -10.555744 -10.364922
-47.925083 -10.864964 -11.259415
-47.571825 -11.892907 -10.085908
-46.667704 -11.37132 -10.295511
-45.616478 -2.824365 -17.278726
-46.481064 -3.615725 -17.398447
-45.775277 -1.820554 -18.421093
-45.616478 -2.824365 -17.278726
-63.304045 -4.873137 -19.668021
-63.553579 -5.873445 -18.282521
-63.292553 -4.777729 -18.469843
-63.334616 -7.490371 -27.688639
-63.087349 -5.953724 -28.152836
-63.274416 -6.842387 -29.045942
-63.492432 -8.978411 -27.295906
-63.305365 -8.089748 -26.4028
-63.334616 -7.490371 -27.688639
-63.674707 -10.538352 -26.791187
-63.492432 -8.978411 -27.295906
-53.50445 2.320603 -23.457763
-52.579006 2.354815 -23.7806
-55.320614 2.165067 -22.7234
-56.213077 2.069226 -22.313195
-55.429527 0.797351 -21.373963
-61.414457 -3.087229 -16.906582
-62.013233 -3.633771 -16.604484
-61.318107 -1.824871 -18.263895
-61.414457 -3.087229 -16.906582
-60.857862 -2.471176 -17.213686
-59.552843 2.96505 -23.227089
-58.931423 3.549272 -23.556427
-47.830421 2.993997 -24.466406
-48.764236 2.698492 -24.492972
-47.891327 1.761739 -23.253121
-53.620747 -8.674845 -13.092586
-54.845222 -7.46978 -13.820529
-52.655926 -8.496284 -13.512648
-53.620747 -8.674845 -13.092586
-52.374512 -9.811863 -12.319816
-46.163595 -9.6047 -11.531416
-45.853516 -10.555744 -10.364922
-46.468703 -8.510708 -12.703043
-47.326069 -9.249386 -12.640646
-46.163595 -9.6047 -11.531416
-46.740439 -7.500207 -13.865237
-46.468703 -8.510708 -12.703043
-46.9916 -6.349553 -15.037408
-47.882338 -7.00474 -14.984444
-46.740439 -7.500207 -13.865237
-46.077427 -5.782654 -15.078069
-47.219326 -5.287187 -16.197276
-46.9916 -6.349553 -15.037408
-63.6675 -14.12428 -24.678987
-63.603822 -13.163497 -23.929785
-63.876005 -13.623293 -25.819069
-63.6675 -14.12428 -24.678987
-62.963146 -4.700652 -30.852447
-62.720923 -3.806071 -29.930998
-62.65692 -3.200983 -31.273306
-63.316309 -6.27489 -30.315886
-62.963146 -4.700652 -30.852447
-63.274416 -6.842387 -29.045942
-63.316309 -6.27489 -30.315886
-58.208523 3.906891 -23.939064
-58.931423 3.549272 -23.556427
-58.444069 2.655961 -22.488457
-58.208523 3.906891 -23.939064
-57.492363 4.312378 -24.294641
-63.705916 -10.733466 -21.133671
-63.8936 -10.102203 -20.087533
-63.591055 -10.094289 -22.410296
-63.634754 -11.458258 -22.153085
-63.705916 -10.733466 -21.133671
-61.801962 0.394274 -28.456186
-62.076328 -0.47055 -26.945013
-61.731947 0.840112 -27.243782
-61.917088 -0.167456 -29.632448
-61.801962 0.394274 -28.456186
-62.051264 -0.862463 -30.729668
-62.280519 -1.611395 -29.254637
-61.917088 -0.167456 -29.632448
-62.24609 -1.66317 -31.759367
-62.051264 -0.862463 -30.729668
-62.65692 -3.200983 -31.273306
-62.24609 -1.66317 -31.759367
-63.170879 -4.876311 -17.274608
-62.983164 -5.091398 -16.132123
-62.921345 -3.876003 -18.660108
-63.292553 -4.777729 -18.469843
-63.170879 -4.876311 -17.274608
-62.337187 -3.207755 -17.710832
-62.475718 -4.400601 -16.358525
-62.013233 -3.633771 -16.604484
-60.180723 2.44344 -22.878666
-59.794849 1.776731 -21.757397
-59.552843 2.96505 -23.227089
-60.704172 1.682764 -22.582977
-60.180723 2.44344 -22.878666
-60.462166 2.871082 -24.05267
-61.366703 1.975046 -27.50354
-61.731947 0.840112 -27.243782
-61.64107 1.110222 -25.992367
-61.366703 1.975046 -27.50354
-60.951584 3.17539 -27.786568
-51.618943 2.429738 -24.04197
-52.579006 2.354815 -23.7806
-51.700268 1.080837 -22.757761
-50.670143 2.457454 -24.268805
-49.782673 1.310997 -23.149408
-49.712612 2.612691 -24.399082
-51.618943 2.429738 -24.04197
-50.670143 2.457454 -24.268805
-46.063021 2.545285 -23.03364
-46.029291 1.496598 -21.895386
-46.902778 3.20254 -24.401013
-46.063021 2.545285 -23.03364
-47.830421 2.993997 -24.466406
-46.902778 3.20254 -24.401013
-59.550663 -4.263407 -15.311776
-60.266042 -3.332499 -16.228529
-58.741073 -4.032396 -15.742892
-59.550663 -4.263407 -15.311776
-57.967947 -3.764565 -16.167531
-58.804746 -2.663634 -17.025324
-58.741073 -4.032396 -15.742892
-57.092155 -3.620745 -16.631166
-57.967947 -3.764565 -16.167531
-57.028482 -4.989508 -15.348733
-55.027426 -6.102478 -15.048893
-55.970487 -6.212991 -14.584004
-54.845222 -7.46978 -13.820529
-48.439173 -12.481694 -9.876895
-47.571825 -11.892907 -10.085908
-49.767416 -11.730456 -10.718913
-48.439173 -12.481694 -9.876895
-50.119448 -10.509926 -11.894845
-51.057659 -10.853831 -11.563946
-49.767416 -11.730456 -10.718913
-47.409408 -4.091827 -17.374016
-48.323582 -4.658727 -17.333354
-47.219326 -5.287187 -16.197276
-47.585319 -2.987264 -18.534525
-47.409408 -4.091827 -17.374016
-46.481064 -3.615725 -17.398447
-45.888559 -0.685892 -19.585245
-46.770258 -1.3765 -19.723108
-45.775277 -1.820554 -18.421093
-45.992306 0.347058 -20.725738
-45.888559 -0.685892 -19.585245
-63.835858 -6.888777 -18.135058
-63.553579 -5.873445 -18.282521
-63.744923 -7.152868 -19.307692
-63.835858 -6.888777 -18.135058
-63.677763 -7.530998 -20.496626
-63.744923 -7.152868 -19.307692
-63.497912 -6.346983 -20.669632
-63.546484 -8.047304 -21.624724
-63.793495 -8.853189 -20.262783
-63.677763 -7.530998 -20.496626
-63.766052 -12.049715 -26.360571
-63.554525 -11.089151 -25.579451
-63.674707 -10.538352 -26.791187
-63.876005 -13.623293 -25.819069
-63.766052 -12.049715 -26.360571
-54.442816 2.264242 -23.101652
-53.598698 0.949553 -22.140279
-53.50445 2.320603 -23.457763
-55.320614 2.165067 -22.7234
-54.442816 2.264242 -23.101652
3 0 16 14
3 1 60 62
3 60 18 61
3 60 61 62
3 63 21 64
3 65 64 19
3 63 64 65
3 66 23 67
3 3 68 69
3 3 70 72
3 70 25 71
3 70 71 72
3 2 28 26
3 4 32 30
3 73 33 74
3 75 74 15
3 73 74 75
3 77 76 33
3 78 34 79
3 80 36 81
3 8 37 17
3 8 38 37
3 5 39 31
3 82 40 83
3 84 41 85
3 86 85 40
3 84 85 86
3 88 87 41
3 9 44 42
3 90 89 20
3 91 45 92
3 10 46 22
3 10 47 46
3 11 93 94
3 11 95 97
3 95 48 96
3 95 96 97
3 11 49 48
3 12 50 24
3 12 51 50
3 12 52 51
3 98 53 99
3 101 100 53
3 7 102 104
3 102 54 103
3 102 103 104
3 13 55 27
3 13 56 55
3 6 57 35
3 105 58 106
3 107 106 29
3 105 106 107
3 108 59 109
3 110 109 58
3 108 109 110
3 112 111 59
3 114 113 43
3 14 15 4
3 16 15 14
3 16 115 117
3 117 116 15
3 115 116 117
3 118 17 119
3 18 120 122
3 120 17 121
3 120 121 122
3 18 8 17
3 124 123 5
3 19 20 9
3 21 20 19
3 21 125 127
3 127 126 20
3 125 126 127
3 128 22 129
3 23 130 132
3 130 22 131
3 130 131 132
3 23 10 22
3 133 11 134
3 135 24 136
3 137 136 11
3 135 136 137
3 138 24 139
3 140 12 141
3 142 141 24
3 140 141 142
3 145 144 12
3 143 144 145
3 25 146 147
3 25 148 149
3 26 27 7
3 28 27 26
3 28 13 27
3 150 29 151
3 152 151 6
3 150 151 152
3 153 29 154
3 156 155 29
3 30 31 1
3 32 31 30
3 32 5 31
3 15 32 4
3 33 32 15
3 33 5 32
3 33 157 159
3 159 158 5
3 157 158 159
3 161 160 33
3 34 162 163
3 34 164 166
3 164 3 165
3 164 165 166
3 167 35 168
3 169 168 2
3 167 168 169
3 170 35 171
3 172 6 173
3 174 173 35
3 172 173 174
3 175 6 176
3 178 177 6
3 36 179 180
3 36 181 183
3 181 7 182
3 181 182 183
3 17 184 186
3 184 36 185
3 184 185 186
3 37 36 17
3 37 7 36
3 37 26 7
3 38 26 37
3 38 2 26
3 31 18 1
3 39 18 31
3 39 8 18
3 187 39 188
3 189 188 5
3 187 188 189
3 40 190 192
3 190 39 191
3 190 191 192
3 40 8 39
3 40 38 8
3 41 38 40
3 41 2 38
3 41 193 195
3 195 194 2
3 193 194 195
3 197 196 41
3 42 43 0
3 44 43 42
3 44 198 200
3 200 199 43
3 198 199 200
3 20 44 9
3 201 44 202
3 203 202 20
3 201 202 203
3 205 204 44
3 206 21 207
3 208 21 209
3 211 210 21
3 212 1 213
3 214 1 215
3 216 30 217
3 218 217 1
3 216 217 218
3 45 219 221
3 219 30 220
3 219 220 221
3 45 4 30
3 22 222 224
3 222 45 223
3 222 223 224
3 46 45 22
3 46 4 45
3 46 14 4
3 47 14 46
3 47 0 14
3 48 225 226
3 48 227 228
3 48 229 231
3 229 23 230
3 229 230 231
3 49 23 48
3 49 10 23
3 24 49 11
3 50 49 24
3 50 10 49
3 50 47 10
3 51 47 50
3 51 0 47
3 51 42 0
3 52 42 51
3 52 9 42
3 232 52 233
3 234 233 12
3 232 233 234
3 53 235 237
3 235 52 236
3 235 236 237
3 53 9 52
3 53 19 9
3 238 19 239
3 240 239 53
3 238 239 240
3 242 241 19
3 54 243 244
3 54 245 246
3 27 54 7
3 55 54 27
3 55 247 249
3 249 248 54
3 247 248 249
3 55 250 252
3 250 34 251
3 250 251 252
3 56 34 55
3 56 3 34
3 35 28 2
3 57 28 35
3 57 13 28
3 29 57 6
3 58 57 29
3 58 13 57
3 58 56 13
3 59 56 58
3 59 3 56
3 59 25 3
3 253 25 254
3 255 254 59
3 253 254 255
3 257 256 25
3 43 16 0
3 258 16 259
3 260 259 43
3 258 259 260
3 262 261 16
