ply
format ascii 1.0
element vertex 212
property float x
property float y
property float z
element face 193
property list uchar int vertex_index
end_header
31.626381 -112.572151 6.000611
31.983717 -108.416977 14.748684
34.237617 -108.834908 10.756348
29.286705 -112.625969 10.511135
26.51955 -116.876701 6.427307
43.72213 -101.464073 3.657351
39.414719 -106.599182 2.197042
36.664639 -108.012459 6.490664
34.262909 -111.640099 1.331241
28.959915 -116.55072 1.367325
23.814484 -120.918808 2.241598
29.532814 -109.889183 14.581644
30.660044 -110.506195 12.580379
44.237656 -99.877304 6.489752
42.470467 -102.419975 5.693609
41.72303 -104.053062 2.88314
40.364281 -104.901131 4.950818
32.948364 -110.663223 8.347715
35.41428 -108.538094 8.645756
34.170197 -110.307976 6.129504
35.483608 -109.771339 3.887574
32.894295 -112.179016 3.66562
31.601065 -114.12896 1.231054
30.294926 -114.54554 3.679238
25.158211 -118.946266 4.343479
35.456924 -107.08876 13.271723
33.104393 -108.815193 12.793259
31.789951 -110.752724 10.504837
30.435787 -112.745361 8.293064
29.072285 -114.778053 6.107745
27.899025 -114.758087 8.476398
30.857067 -107.621712 16.644438
28.401276 -108.912842 16.54809
27.277836 -107.629967 18.546864
40.858181 -105.792564 0.118237
38.378696 -108.407516 -0.510221
36.596504 -106.872894 11.248533
37.78479 -106.374481 9.164728
39.041504 -105.69001 7.053786
38.002678 -107.345581 4.329333
36.894535 -109.125305 1.663024
35.729832 -111.00666 -0.96067
33.008347 -113.586334 -1.190639
30.287201 -116.115944 -1.178469
27.610416 -118.537842 -0.925226
27.71451 -116.823578 3.917495
26.362089 -118.840683 1.719473
25.000938 -120.773277 -0.455549
22.478207 -122.732605 0.179888
28.840293 -111.027992 13.614232
28.269118 -110.625336 14.652763
41.841825 -102.873481 6.730243
42.781582 -101.660106 7.128954
40.788732 -104.114059 6.358847
41.417374 -103.660553 5.322214
41.841825 -102.873481 6.730243
32.544055 -108.616085 13.770972
33.72081 -107.876316 14.003849
33.160472 -107.677208 14.981562
30.290273 -107.040059 17.588532
31.466058 -106.503262 17.77476
29.062378 -107.685623 17.540358
29.629171 -108.267277 16.596264
30.290273 -107.040059 17.588532
26.021354 -108.25977 18.745678
26.732156 -106.875054 19.603633
26.573298 -108.938175 17.672151
26.021354 -108.25977 18.745678
44.533699 -100.136109 4.054305
44.791462 -99.342724 5.470506
43.979893 -100.670688 5.073551
44.320223 -100.952648 2.661878
44.533699 -100.136109 4.054305
43.393867 -102.304688 2.261734
44.320223 -100.952648 2.661878
29.403908 -111.336498 12.613599
30.096429 -110.197689 13.581012
28.840293 -111.027992 13.614232
28.717239 -112.396385 11.578978
29.973374 -111.566082 11.545757
29.403908 -111.336498 12.613599
28.013707 -113.528293 10.63733
28.717239 -112.396385 11.578978
43.665177 -100.388771 7.527026
44.428414 -99.132782 7.933126
43.354062 -101.14864 6.091681
43.665177 -100.388771 7.527026
42.781582 -101.660106 7.128954
24.560474 -118.874241 5.627468
25.838881 -117.911484 5.385393
25.241143 -117.839459 6.669382
23.889843 -119.891357 4.620272
24.560474 -118.874241 5.627468
23.217979 -120.877629 3.569331
24.486348 -119.932537 3.292539
23.889843 -119.891357 4.620272
22.569806 -121.810367 2.551516
23.217979 -120.877629 3.569331
34.897075 -107.013099 14.243081
36.00967 -106.251415 14.604257
34.280659 -107.951977 13.032491
34.897075 -107.013099 14.243081
33.72081 -107.876316 14.003849
27.319867 -114.594352 9.619961
28.592865 -113.692028 9.493766
28.013707 -113.528293 10.63733
26.619362 -115.705677 8.670906
27.319867 -114.594352 9.619961
25.929624 -116.764984 7.646361
27.209288 -115.817394 7.451852
26.619362 -115.705677 8.670906
25.241143 -117.839459 6.669382
25.929624 -116.764984 7.646361
32.59859 -107.39341 15.914832
33.160472 -107.677208 14.981562
32.035265 -106.995778 16.862709
31.466058 -106.503262 17.77476
31.420392 -108.019345 15.696561
32.59859 -107.39341 15.914832
32.035265 -106.995778 16.862709
27.70335 -110.137165 15.635986
28.269118 -110.625336 14.652763
28.967045 -109.401013 15.564867
27.93697 -106.312424 19.517507
26.732156 -106.875054 19.603633
28.500658 -107.044186 18.539746
27.93697 -106.312424 19.517507
27.839556 -108.271404 17.547477
29.062378 -107.685623 17.540358
28.500658 -107.044186 18.539746
27.135018 -109.579613 16.672764
27.839556 -108.271404 17.547477
26.573298 -108.938175 17.672151
27.70335 -110.137165 15.635986
27.135018 -109.579613 16.672764
44.93046 -98.565762 6.88074
44.428414 -99.132782 7.933126
44.93046 -98.565762 6.88074
44.791462 -99.342724 5.470506
42.394317 -103.599182 1.874628
43.393867 -102.304688 2.261734
42.72258 -102.758567 3.270245
41.961893 -104.468933 0.492177
42.394317 -103.599182 1.874628
41.290605 -104.922813 1.500689
41.565176 -105.34639 -0.888509
41.961893 -104.468933 0.492177
40.371571 -106.701984 -1.246286
41.565176 -105.34639 -0.888509
39.131828 -108.00946 -1.560515
40.371571 -106.701984 -1.246286
39.618438 -107.10004 -0.195992
37.820751 -109.349224 -1.8442
38.573883 -108.951168 -2.894494
39.131828 -108.00946 -1.560515
36.567366 -106.194324 13.622666
36.00967 -106.251415 14.604257
37.137156 -106.086391 12.611071
36.567366 -106.194324 13.622666
36.026714 -106.980827 12.260128
37.704569 -105.860813 11.593345
37.137156 -106.086391 12.611071
38.298712 -105.611606 10.551443
37.704569 -105.860813 11.593345
37.190647 -106.623688 10.20663
38.886723 -105.266876 9.511419
38.298712 -105.611606 10.551443
39.515079 -104.924641 8.455948
38.886723 -105.266876 9.511419
38.413147 -106.032246 8.109257
40.127344 -104.508499 7.410331
39.515079 -104.924641 8.455948
39.702893 -105.29557 6.002302
40.788732 -104.114059 6.358847
40.127344 -104.508499 7.410331
36.496319 -110.648796 -2.069425
37.820751 -109.349224 -1.8442
37.054264 -109.707088 -0.735445
35.118669 -111.976032 -2.252488
36.496319 -110.648796 -2.069425
33.757927 -113.265869 -2.367472
35.118669 -111.976032 -2.252488
34.36909 -112.296497 -1.075654
32.35875 -114.57167 -2.431469
33.757927 -113.265869 -2.367472
30.998176 -115.836476 -2.425384
32.35875 -114.57167 -2.431469
31.647774 -114.851139 -1.184554
29.610287 -117.097759 -2.361192
30.998176 -115.836476 -2.425384
28.271894 -118.308708 -2.234571
29.610287 -117.097759 -2.361192
28.948808 -117.326893 -1.051848
26.91608 -119.489578 -2.042826
28.271894 -118.308708 -2.234571
25.611342 -120.607296 -1.807988
26.91608 -119.489578 -2.042826
26.305677 -119.655559 -0.690387
24.302692 -121.662991 -1.499777
25.611342 -120.607296 -1.807988
23.041326 -122.642655 -1.182059
24.302692 -121.662991 -1.499777
23.739573 -121.752941 -0.13783
21.800505 -123.524383 -0.780982
23.041326 -122.642655 -1.182059
21.901667 -122.717266 1.520662
23.146346 -121.825706 1.210743
22.569806 -121.810367 2.551516
21.27899 -123.530403 0.537813
21.901667 -122.717266 1.520662
21.800505 -123.524383 -0.780982
21.27899 -123.530403 0.537813
3 50 49 11
3 51 14 52
3 53 16 54
3 55 54 14
3 53 54 55
3 0 19 17
3 0 21 19
3 0 23 21
3 1 56 58
3 56 26 57
3 56 57 58
3 3 27 12
3 3 28 27
3 3 30 28
3 59 31 60
3 61 32 62
3 63 62 31
3 61 62 63
3 64 33 65
3 67 66 33
3 5 68 70
3 70 69 13
3 68 69 70
3 5 71 72
3 5 73 74
3 6 34 15
3 6 35 34
3 2 36 25
3 7 37 18
3 7 38 37
3 7 39 38
3 8 40 20
3 8 41 40
3 8 42 41
3 9 43 22
3 9 44 43
3 4 45 29
3 10 46 24
3 10 47 46
3 10 48 47
3 11 12 1
3 75 12 76
3 77 76 11
3 75 76 77
3 78 3 79
3 80 79 12
3 78 79 80
3 82 81 3
3 83 13 84
3 14 85 87
3 85 13 86
3 85 86 87
3 14 5 13
3 14 15 5
3 16 15 14
3 16 6 15
3 17 18 2
3 19 18 17
3 19 7 18
3 19 20 7
3 21 20 19
3 21 8 20
3 21 22 8
3 23 22 21
3 23 9 22
3 88 24 89
3 90 89 4
3 88 89 90
3 91 24 92
3 93 10 94
3 95 94 24
3 93 94 95
3 97 96 10
3 98 25 99
3 26 100 102
3 100 25 101
3 100 101 102
3 26 2 25
3 12 26 1
3 27 26 12
3 27 2 26
3 27 17 2
3 28 17 27
3 28 0 17
3 28 29 0
3 30 29 28
3 30 4 29
3 103 30 104
3 105 104 3
3 103 104 105
3 106 30 107
3 108 4 109
3 110 109 30
3 108 109 110
3 112 111 4
3 113 1 114
3 31 115 116
3 31 117 119
3 117 1 118
3 117 118 119
3 31 11 1
3 32 11 31
3 32 120 122
3 122 121 11
3 120 121 122
3 33 123 124
3 33 125 126
3 33 127 129
3 127 32 128
3 127 128 129
3 130 32 131
3 132 131 33
3 130 131 132
3 134 133 32
3 13 135 136
3 138 137 13
3 15 139 141
3 141 140 5
3 139 140 141
3 34 142 144
3 144 143 15
3 142 143 144
3 34 145 146
3 34 147 148
3 35 149 151
3 151 150 34
3 149 150 151
3 35 152 154
3 152 153 154
3 25 155 156
3 36 157 159
3 159 158 25
3 157 158 159
3 36 160 161
3 18 36 2
3 37 36 18
3 37 162 164
3 164 163 36
3 162 163 164
3 37 165 166
3 38 167 169
3 169 168 37
3 167 168 169
3 38 170 171
3 38 172 174
3 172 16 173
3 172 173 174
3 39 16 38
3 39 6 16
3 20 39 7
3 40 39 20
3 40 6 39
3 40 35 6
3 41 35 40
3 41 175 177
3 177 176 35
3 175 176 177
3 41 178 179
3 42 180 182
3 182 181 41
3 180 181 182
3 42 183 184
3 22 42 8
3 43 42 22
3 43 185 187
3 187 186 42
3 185 186 187
3 43 188 189
3 44 190 192
3 192 191 43
3 190 191 192
3 44 193 194
3 29 23 0
3 45 23 29
3 45 9 23
3 24 45 4
3 46 45 24
3 46 9 45
3 46 44 9
3 47 44 46
3 47 195 197
3 197 196 44
3 195 196 197
3 47 198 199
3 48 200 202
3 202 201 47
3 200 201 202
3 48 203 204
3 205 48 206
3 207 206 10
3 205 206 207
3 208 48 209
3 211 210 48
