ply
format ascii 1.0
element vertex 173
property float x
property float y
property float z
element face 165
property list uchar int vertex_index
end_header
-37.577251 -108.005997 9.18726
-31.391481 -114.756042 -1.4566
-20.306087 -123.670959 -2.616957
-39.496723 -106.665894 5.251007
-23.342213 -120.497604 2.388636
-25.855238 -119.505646 -2.421434
-28.892775 -116.114014 2.6725
-34.377052 -111.380615 3.755682
-36.755291 -110.016495 -0.033364
-34.479118 -113.08139 -4.947506
-23.776619 -122.083832 -7.68351
-29.276161 -117.637756 -6.558498
-25.148197 -118.624146 4.730924
-26.119129 -118.384705 2.418043
-27.913231 -116.526947 4.839754
-33.365959 -112.003372 5.734012
-35.999966 -109.676666 6.435442
-38.115551 -108.342178 2.571924
-20.98827 -124.014664 -7.934111
-21.91185 -123.026901 -5.261396
-28.629961 -117.15799 -2.021053
-27.455753 -118.661591 -4.610195
-30.198734 -116.301178 -4.017075
-31.93292 -115.331009 -5.777937
-32.894299 -113.940903 -3.307486
-38.504368 -107.346069 7.21634
-21.713757 -122.203537 -0.058826
-23.078821 -121.70929 -2.626463
-24.489874 -120.135986 -0.064222
-27.269289 -117.871307 0.145988
-30.047836 -115.497986 0.554816
-30.658445 -114.301086 5.184504
-31.653969 -113.75975 3.131455
-32.809406 -113.090881 1.130341
-37.014168 -109.012558 4.486639
-35.518021 -110.699707 1.823666
-34.114189 -112.365875 -0.77449
-35.511154 -111.628311 -2.546881
-20.285477 -124.612442 -10.583506
-23.099398 -122.872528 -10.321081
-25.892433 -120.861069 -9.80621
-24.688637 -120.937225 -5.036615
-26.547127 -119.922836 -7.211908
-28.629427 -118.680252 -9.08025
-31.268963 -116.440323 -8.198055
-33.75367 -114.250397 -7.237442
-26.107191 -117.636032 5.86738
-24.727154 -118.569221 5.880416
-27.489708 -116.587433 5.921795
-26.530714 -117.575547 4.785339
-26.107191 -117.636032 5.86738
-37.143951 -108.287117 10.165287
-38.296284 -107.191025 10.606211
-36.331238 -109.136467 8.790713
-37.143951 -108.287117 10.165287
-36.788608 -108.841331 7.811351
-35.542595 -109.971801 7.414804
-36.331238 -109.136467 8.790713
-18.926414 -124.48397 -2.499214
-19.625177 -123.827072 -1.223973
-19.722251 -124.250251 -3.938615
-18.926414 -124.48397 -2.499214
-21.108969 -123.34893 -3.939177
-20.525133 -123.928223 -5.260834
-19.722251 -124.250251 -3.938615
-21.953589 -121.434616 2.489585
-22.856693 -120.512283 3.629417
-22.527985 -121.350571 1.164905
-21.139361 -122.287582 1.265854
-21.953589 -121.434616 2.489585
-31.567658 -113.391487 6.453642
-30.226702 -114.461402 6.213909
-19.246241 -125.115356 -9.259151
-18.887076 -125.303292 -10.573274
-35.246498 -112.642112 -5.63399
-34.883774 -113.226616 -6.778957
-34.116394 -113.665894 -6.092474
-23.759684 -119.575554 4.800561
-24.727154 -118.569221 5.880416
-24.245205 -119.560875 3.55978
-22.856693 -120.512283 3.629417
-23.759684 -119.575554 4.800561
-34.225591 -111.135154 7.064089
-32.921415 -112.24263 6.728397
-34.682963 -110.840019 6.084727
-34.225591 -111.135154 7.064089
-35.542595 -109.971801 7.414804
-39.321038 -107.174171 2.938664
-38.806137 -107.504036 3.911466
-40.011623 -106.336029 4.278205
-38.685187 -108.019638 1.638455
-39.321038 -107.174171 2.938664
-38.005056 -108.856797 0.335811
-37.435421 -109.179337 1.26928
-38.685187 -108.019638 1.638455
-37.384585 -109.686921 -0.917271
-38.005056 -108.856797 0.335811
-20.063343 -124.422104 -6.597192
-19.597637 -124.816467 -7.934453
-21.45006 -123.520782 -6.597753
-20.063343 -124.422104 -6.597192
-20.525133 -123.928223 -5.260834
-38.73599 -106.861732 9.60134
-38.296284 -107.191025 10.606211
-39.199549 -106.531768 8.61588
-38.040809 -107.676033 8.2018
-38.73599 -106.861732 9.60134
-39.656176 -106.182274 7.604273
-39.199549 -106.531768 8.61588
-40.152353 -105.842186 6.621607
-39.000546 -107.005981 6.233674
-39.656176 -106.182274 7.604273
-40.621006 -105.497604 5.610366
-40.152353 -105.842186 6.621607
-40.011623 -106.336029 4.278205
-40.621006 -105.497604 5.610366
-20.329012 -123.093361 0.055093
-21.139361 -122.287582 1.265854
-21.009922 -122.937248 -1.337892
-19.625177 -123.827072 -1.223973
-20.329012 -123.093361 0.055093
-28.854095 -115.574333 6.041534
-27.489708 -116.587433 5.921795
-29.285838 -115.414017 5.012129
-28.854095 -115.574333 6.041534
-30.226702 -114.461402 6.213909
-32.012202 -113.152229 5.459258
-31.567658 -113.391487 6.453642
-32.921415 -112.24263 6.728397
-36.762516 -110.492829 -2.17403
-36.133223 -110.822403 -1.290123
-37.384585 -109.686921 -0.917271
-36.203001 -111.26693 -3.355835
-36.762516 -110.492829 -2.17403
-35.686983 -111.993469 -4.556147
-34.995136 -112.35485 -3.747193
-36.203001 -111.26693 -3.355835
-35.246498 -112.642112 -5.63399
-35.686983 -111.993469 -4.556147
-20.025787 -124.697472 -11.855251
-18.887076 -125.303292 -10.573274
-21.452015 -123.931152 -11.733688
-20.025787 -124.697472 -11.855251
-20.636874 -124.313553 -9.258809
-19.246241 -125.115356 -9.259151
-19.597637 -124.816467 -7.934453
-22.858975 -123.061195 -11.602476
-21.452015 -123.931152 -11.733688
-21.692438 -123.742485 -10.452293
-24.276702 -122.14238 -11.335287
-22.858975 -123.061195 -11.602476
-25.67322 -121.13665 -11.077852
-24.276702 -122.14238 -11.335287
-24.495916 -121.866799 -10.063645
-27.059305 -120.110672 -10.685246
-25.67322 -121.13665 -11.077852
-28.427802 -119.020263 -10.322266
-27.059305 -120.110672 -10.685246
-27.26093 -119.77066 -9.44323
-29.757676 -117.939552 -9.830171
-28.427802 -119.020263 -10.322266
-31.077444 -116.819588 -9.389074
-29.757676 -117.939552 -9.830171
-29.949195 -117.560288 -8.639152
-32.319105 -115.741669 -8.830521
-31.077444 -116.819588 -9.389074
-33.561459 -114.646706 -8.350214
-32.319105 -115.741669 -8.830521
-32.511316 -115.34536 -7.717748
-34.66291 -113.639084 -7.772267
-33.561459 -114.646706 -8.350214
-34.66291 -113.639084 -7.772267
-34.883774 -113.226616 -6.778957
3 46 12 47
3 48 14 49
3 50 49 12
3 48 49 50
3 0 51 52
3 0 53 54
3 0 55 57
3 55 16 56
3 55 56 57
3 2 58 59
3 2 60 61
3 2 62 64
3 62 19 63
3 62 63 64
3 1 22 20
3 1 24 22
3 4 65 66
3 4 67 69
3 67 26 68
3 67 68 69
3 4 28 26
3 6 29 13
3 6 30 29
3 70 31 71
3 7 32 15
3 7 33 32
3 3 34 25
3 8 35 17
3 8 36 35
3 8 37 36
3 72 38 73
3 10 39 18
3 10 40 39
3 5 41 27
3 11 42 21
3 11 43 42
3 11 44 43
3 9 45 23
3 9 74 76
3 76 75 45
3 74 75 76
3 12 77 78
3 12 79 81
3 79 4 80
3 79 80 81
3 12 13 4
3 14 13 12
3 14 6 13
3 82 15 83
3 16 84 86
3 84 15 85
3 84 85 86
3 16 7 15
3 87 17 88
3 89 88 3
3 87 88 89
3 90 17 91
3 92 8 93
3 94 93 17
3 92 93 94
3 96 95 8
3 97 18 98
3 19 99 101
3 99 18 100
3 99 100 101
3 19 10 18
3 20 21 5
3 22 21 20
3 22 11 21
3 22 23 11
3 24 23 22
3 24 9 23
3 102 0 103
3 104 25 105
3 106 105 0
3 104 105 106
3 107 25 108
3 109 3 110
3 111 110 25
3 109 110 111
3 112 3 113
3 115 114 3
3 26 116 117
3 26 118 120
3 118 2 119
3 118 119 120
3 26 27 2
3 28 27 26
3 28 5 27
3 13 28 4
3 29 28 13
3 29 5 28
3 29 20 5
3 30 20 29
3 30 1 20
3 121 14 122
3 31 123 125
3 123 14 124
3 123 124 125
3 31 6 14
3 15 126 128
3 126 31 127
3 126 127 128
3 32 31 15
3 32 6 31
3 32 30 6
3 33 30 32
3 33 1 30
3 25 16 0
3 34 16 25
3 34 7 16
3 17 34 3
3 35 34 17
3 35 7 34
3 35 33 7
3 36 33 35
3 36 1 33
3 36 24 1
3 37 24 36
3 37 9 24
3 129 37 130
3 131 130 8
3 129 130 131
3 132 37 133
3 134 9 135
3 136 135 37
3 134 135 136
3 138 137 9
3 38 139 140
3 38 141 142
3 18 143 145
3 143 38 144
3 143 144 145
3 39 38 18
3 39 146 148
3 148 147 38
3 146 147 148
3 39 149 150
3 40 151 153
3 153 152 39
3 151 152 153
3 40 154 155
3 27 19 2
3 41 19 27
3 41 10 19
3 21 41 5
3 42 41 21
3 42 10 41
3 42 40 10
3 43 40 42
3 43 156 158
3 158 157 40
3 156 157 158
3 43 159 160
3 44 161 163
3 163 162 43
3 161 162 163
3 44 164 165
3 23 44 11
3 45 44 23
3 45 166 168
3 168 167 44
3 166 167 168
3 45 169 170
3 172 171 45
