ply
format ascii 1.0
element vertex 270
property float x
property float y
property float z
element face 232
property list uchar int vertex_index
end_header
47.362888 20.020355 28.231661
51.978668 31.279736 6.164499
50.027161 26.796013 21.242685
57.118088 21.557362 12.451482
56.896919 26.69276 8.462997
48.258934 33.439392 5.249997
48.11525 23.301266 24.51976
52.407539 21.35136 19.984167
51.627907 18.565186 23.573189
55.742085 27.469574 14.118795
53.990852 24.39526 16.874199
46.440998 28.920731 25.421843
44.6675 25.12891 28.94096
55.01091 29.03587 7.163147
57.487854 24.182434 10.19205
47.569473 21.624592 26.318253
49.659309 20.795052 24.039885
49.404587 19.310081 25.920404
50.171326 32.376564 5.715784
53.142159 27.298672 17.618416
52.036964 25.639477 19.089718
54.118267 18.947491 19.348179
54.533234 20.248672 17.644424
45.091576 29.927448 27.518105
45.417255 27.011429 27.138054
44.146236 27.986107 29.308762
56.116951 27.882214 7.766338
56.350891 24.476353 13.304847
56.855282 25.893425 12.078945
57.385498 22.874371 11.24983
48.956116 25.034042 22.833857
51.033619 23.981586 20.634014
50.218239 22.357689 22.278572
51.889194 19.916534 21.717022
53.903976 17.735302 21.181456
57.153107 28.588223 9.872414
58.045605 18.737232 11.687844
58.041519 19.914394 10.473776
54.894638 25.944653 15.463963
55.731445 23.04248 14.631434
53.132004 22.853348 18.374012
55.095535 21.62265 16.073971
56.775551 20.260578 13.804646
48.11718 27.883595 23.342209
47.044922 26.035748 24.990494
46.231533 24.214512 26.729612
45.738564 22.44574 28.576756
44.250248 23.296688 30.846075
45.606014 20.745029 30.532978
53.613377 30.165581 6.636653
57.14909 27.268978 10.938694
57.344536 25.459206 9.267268
48.420393 18.96241 28.069676
49.441243 18.607273 26.914048
48.383737 19.665218 27.076033
50.981943 30.147616 6.27727
50.078272 30.69603 6.052912
51.074997 31.82815 5.940142
51.89991 29.613029 6.373845
50.981943 30.147616 6.27727
51.032062 26.217745 20.166201
51.641824 27.09702 19.402635
50.636923 27.675287 20.479118
55.158167 18.396853 18.159356
55.10458 17.85926 19.058789
44.599158 30.426508 28.586161
45.127638 31.402727 27.678552
44.126487 29.455838 29.48149
44.618906 28.956778 28.413434
44.599158 30.426508 28.586161
56.506935 27.287487 8.114667
56.466276 28.865108 8.319968
56.85626 28.270381 8.668297
56.509077 25.67 7.957273
56.119093 26.264727 7.608944
56.506935 27.287487 8.114667
52.774671 17.588845 23.351427
53.912706 17.173903 22.15556
52.765941 18.150244 22.377322
57.008507 29.468718 10.705488
57.063361 30.13439 10.076579
58.429516 17.881155 10.784249
58.573915 17.377351 11.404078
47.17263 32.245641 5.561395
47.283892 33.937323 4.984383
55.769979 20.318699 15.693043
54.814385 20.935661 16.859198
55.488829 19.63171 16.478269
56.609988 19.637663 14.558381
55.935543 20.941614 14.939308
55.769979 20.318699 15.693043
57.389853 18.937677 13.447228
56.609988 19.637663 14.558381
47.052637 29.873576 24.591862
46.341356 30.395832 25.601292
47.279089 28.402163 24.382026
47.890728 29.355007 23.552045
47.052637 29.873576 24.591862
44.22554 22.412492 31.849391
43.696787 23.753471 31.997779
44.903423 21.136663 31.692843
44.928131 22.020858 30.689526
44.22554 22.412492 31.849391
55.045406 30.629892 7.118458
55.565064 30.045589 7.551922
54.312144 29.600725 6.8999
54.34664 31.194748 6.855211
55.045406 30.629892 7.118458
54.252544 27.949787 6.980549
53.553778 28.514643 6.717302
54.312144 29.600725 6.8999
56.085875 28.206555 13.467285
55.499014 28.98261 14.441841
57.977691 20.515707 9.962685
58.23769 19.00193 9.669161
50.528126 18.304087 25.730182
51.639786 17.931639 24.556574
50.516247 18.937634 24.746797
50.528126 18.304087 25.730182
49.441243 18.607273 26.914048
49.111561 31.21813 5.943339
48.155365 31.749544 5.710445
49.21513 32.907978 5.48289
49.111561 31.21813 5.943339
50.078272 30.69603 6.052912
52.194422 27.926617 18.666984
52.831372 28.78776 17.916269
52.589562 26.469074 18.354067
52.194422 27.926617 18.666984
51.641824 27.09702 19.402635
55.365651 19.047443 17.307479
54.32575 19.598081 18.496302
55.158167 18.396853 18.159356
55.488829 19.63171 16.478269
55.365651 19.047443 17.307479
45.666645 30.899191 26.649423
45.127638 31.402727 27.678552
45.766287 29.42409 26.469974
46.341356 30.395832 25.601292
45.666645 30.899191 26.649423
56.118084 29.468761 7.853518
56.466276 28.865108 8.319968
55.56393 28.459042 7.464742
55.565064 30.045589 7.551922
56.118084 29.468761 7.853518
55.530236 26.824402 7.420951
54.977215 27.40123 7.119356
55.56393 28.459042 7.464742
55.530236 26.824402 7.420951
56.119093 26.264727 7.608944
48.393358 35.044752 4.659974
47.283892 33.937323 4.984383
49.327576 34.517027 5.023557
48.393358 35.044752 4.659974
50.283772 33.985613 5.256451
49.21513 32.907978 5.48289
49.327576 34.517027 5.023557
51.163761 33.434839 5.617284
50.283772 33.985613 5.256451
52.067432 32.886425 5.841641
51.074997 31.82815 5.940142
51.163761 33.434839 5.617284
54.997434 17.253166 19.975428
55.10458 17.85926 19.058789
54.011122 18.341397 20.264817
55.029949 16.762524 20.935855
56.123407 16.280387 19.729827
54.997434 17.253166 19.975428
55.029949 16.762524 20.935855
53.912706 17.173903 22.15556
52.774671 17.588845 23.351427
51.639786 17.931639 24.556574
56.984354 29.218113 9.373006
57.063361 30.13439 10.076579
57.025013 27.640491 9.167706
56.85626 28.270381 8.668297
56.984354 29.218113 9.373006
58.427473 18.469736 10.177215
58.043562 19.325813 11.08081
58.429516 17.881155 10.784249
58.23769 19.00193 9.669161
58.427473 18.469736 10.177215
47.17263 32.245641 5.561395
48.155365 31.749544 5.710445
54.996069 28.198093 15.153083
55.499014 28.98261 14.441841
53.696106 28.112642 16.902893
52.831372 28.78776 17.916269
54.572345 27.435633 15.825667
53.696106 28.112642 16.902893
54.018399 26.621662 16.54119
55.318362 26.707113 14.791379
54.996069 28.198093 15.153083
54.572345 27.435633 15.825667
58.024879 18.176004 12.388827
57.410578 19.498905 12.746245
57.389853 18.937677 13.447228
58.573915 17.377351 11.404078
58.024879 18.176004 12.388827
49.698967 28.261026 21.497995
50.636923 27.675287 20.479118
48.743977 28.804817 22.547756
47.890728 29.355007 23.552045
49.07217 27.339804 22.292447
49.698967 28.261026 21.497995
48.743977 28.804817 22.547756
43.698391 28.485037 30.414445
44.126487 29.455838 29.48149
43.812267 27.030051 30.245083
43.698391 28.485037 30.414445
44.072899 25.601452 30.061182
44.406868 26.557509 29.124861
43.812267 27.030051 30.245083
43.864273 24.685341 31.013739
43.696787 23.753471 31.997779
44.458874 24.212799 29.893518
44.072899 25.601452 30.061182
43.864273 24.685341 31.013739
45.726114 19.930446 31.558519
44.903423 21.136663 31.692843
46.560045 19.618188 30.3899
45.726114 19.930446 31.558519
47.438482 19.255851 29.239241
46.484451 20.382692 29.38232
46.560045 19.618188 30.3899
48.420393 18.96241 28.069676
47.438482 19.255851 29.239241
52.85906 32.323649 6.217296
52.067432 32.886425 5.841641
53.676414 31.766571 6.453373
54.34664 31.194748 6.855211
52.796022 30.722659 6.400576
52.85906 32.323649 6.217296
53.676414 31.766571 6.453373
52.717264 29.055952 6.609922
51.89991 29.613029 6.373845
52.796022 30.722659 6.400576
52.717264 29.055952 6.609922
53.553778 28.514643 6.717302
54.252544 27.949787 6.980549
54.977215 27.40123 7.119356
56.642474 27.41848 12.44736
56.085875 28.206555 13.467285
56.298684 26.6815 13.09887
56.789378 28.106257 11.877235
56.642474 27.41848 12.44736
57.002186 26.581201 11.508819
57.006498 28.809095 11.238627
56.789378 28.106257 11.877235
57.151099 27.928601 10.405554
57.008507 29.468718 10.705488
57.006498 28.809095 11.238627
57.649681 21.995696 10.350713
57.713509 21.394382 10.861803
57.977691 20.515707 9.962685
57.700859 22.649727 9.821822
57.436676 23.528402 10.72094
57.649681 21.995696 10.350713
57.537538 23.250262 9.404439
57.700859 22.649727 9.821822
57.465879 23.888647 8.942048
57.416195 24.82082 9.729659
57.537538 23.250262 9.404439
57.172924 24.478565 8.612007
57.465879 23.888647 8.942048
56.949115 25.095343 8.209872
57.120728 26.075983 8.865132
57.172924 24.478565 8.612007
56.509077 25.67 7.957273
56.949115 25.095343 8.209872
3 0 17 15
3 0 52 54
3 54 53 17
3 52 53 54
3 1 55 57
3 57 56 18
3 55 56 57
3 1 58 59
3 2 60 62
3 60 20 61
3 60 61 62
3 64 63 21
3 65 23 66
3 67 25 68
3 69 68 23
3 67 68 69
3 4 70 72
3 70 26 71
3 70 71 72
3 4 73 75
3 75 74 26
3 73 74 75
3 3 29 27
3 6 32 30
3 8 33 16
3 8 34 33
3 8 76 78
3 78 77 34
3 76 77 78
3 79 35 80
3 82 81 36
3 5 83 84
3 10 38 19
3 10 39 38
3 7 40 31
3 85 41 86
3 87 86 22
3 85 86 87
3 88 42 89
3 90 89 41
3 88 89 90
3 92 91 42
3 11 93 94
3 11 95 97
3 95 43 96
3 95 96 97
3 11 44 43
3 12 45 24
3 12 46 45
3 98 47 99
3 100 48 101
3 102 101 47
3 100 101 102
3 13 103 104
3 13 105 107
3 105 49 106
3 105 106 107
3 13 108 110
3 110 109 49
3 108 109 110
3 9 111 112
3 14 50 28
3 14 51 50
3 114 113 37
3 15 16 6
3 17 16 15
3 17 8 16
3 17 115 117
3 117 116 8
3 115 116 117
3 119 118 17
3 18 120 122
3 122 121 5
3 120 121 122
3 124 123 18
3 125 19 126
3 20 127 129
3 127 19 128
3 127 128 129
3 20 10 19
3 21 22 7
3 130 22 131
3 132 131 21
3 130 131 132
3 134 133 22
3 23 135 136
3 23 137 139
3 137 11 138
3 137 138 139
3 23 24 11
3 25 24 23
3 25 12 24
3 26 140 141
3 26 142 144
3 142 13 143
3 142 143 144
3 26 145 147
3 147 146 13
3 145 146 147
3 149 148 26
3 27 28 9
3 29 28 27
3 29 14 28
3 150 5 151
3 152 5 153
3 154 18 155
3 156 155 5
3 154 155 156
3 157 18 158
3 159 1 160
3 161 160 18
3 159 160 161
3 30 31 2
3 32 31 30
3 32 7 31
3 16 32 6
3 33 32 16
3 33 7 32
3 33 21 7
3 34 21 33
3 34 162 164
3 164 163 21
3 162 163 164
3 34 165 167
3 165 166 167
3 169 168 34
3 171 170 8
3 35 172 173
3 35 174 176
3 174 4 175
3 174 175 176
3 36 37 3
3 177 37 178
3 179 178 36
3 177 178 179
3 181 180 37
3 183 182 5
3 184 9 185
3 19 186 187
3 38 188 190
3 190 189 19
3 188 189 190
3 38 191 193
3 191 9 192
3 191 192 193
3 38 27 9
3 39 27 38
3 39 3 27
3 31 20 2
3 40 20 31
3 40 10 20
3 22 40 7
3 41 40 22
3 41 10 40
3 41 39 10
3 42 39 41
3 42 3 39
3 42 36 3
3 194 36 195
3 196 195 42
3 194 195 196
3 198 197 36
3 199 2 200
3 43 201 202
3 43 203 205
3 203 2 204
3 203 204 205
3 43 30 2
3 44 30 43
3 44 6 30
3 24 44 11
3 45 44 24
3 45 6 44
3 45 15 6
3 46 15 45
3 46 0 15
3 206 25 207
3 208 25 209
3 210 12 211
3 212 211 25
3 210 211 212
3 47 213 214
3 47 215 217
3 215 12 216
3 215 216 217
3 47 46 12
3 48 46 47
3 48 0 46
3 218 48 219
3 220 48 221
3 222 0 223
3 224 223 48
3 222 223 224
3 226 225 0
3 227 1 228
3 49 229 230
3 49 231 233
3 231 1 232
3 231 232 233
3 49 234 236
3 236 235 1
3 234 235 236
3 238 237 49
3 240 239 13
3 28 241 243
3 243 242 9
3 241 242 243
3 50 244 246
3 246 245 28
3 244 245 246
3 50 247 248
3 50 249 251
3 249 35 250
3 249 250 251
3 51 35 50
3 51 4 35
3 37 29 3
3 252 29 253
3 254 253 37
3 252 253 254
3 255 14 256
3 257 256 29
3 255 256 257
3 258 14 259
3 260 51 261
3 262 261 14
3 260 261 262
3 263 51 264
3 265 4 266
3 267 266 51
3 265 266 267
3 269 268 4
