ply
format ascii 1.0
element vertex 217
property float x
property float y
property float z
element face 215
property list uchar int vertex_index
end_header
-37.317734 17.287151 61.040794
-38.841068 5.182144 61.323772
-29.544294 9.298367 62.950287
-22.003092 15.277103 64.747856
-33.360901 19.755928 61.645329
-35.015308 1.628941 62.763058
-34.10717 7.138123 62.205624
-30.102541 3.327431 63.298992
-25.627697 5.508015 64.201965
-42.203144 8.572918 59.754978
-37.963593 10.976219 61.269012
-33.636559 13.261986 62.295071
-29.450125 15.704189 62.687717
-25.578226 18.594421 62.731892
-25.468596 11.956388 63.686535
-22.111269 22.191643 63.068451
-31.33914 20.975025 61.538815
-32.534962 2.440134 63.001884
-30.636101 0.601339 63.9263
-28.225929 1.460329 64.235947
-39.216099 15.966724 60.335453
-40.619545 6.915457 60.615829
-40.110592 9.80497 60.557072
-38.376278 8.005236 61.23901
-31.779814 8.171505 62.591892
-33.824345 10.13666 62.256306
-31.604462 11.2586 62.623947
-31.513439 14.445599 62.565208
-29.46702 12.467312 62.900654
-27.435631 13.795044 63.119278
-27.433546 10.551716 63.302338
-23.876354 3.657688 65.350433
-23.660198 6.853979 64.866379
-23.745773 16.914829 63.623318
-23.793447 20.293777 62.8241
-22.091866 18.742268 64.041664
-35.361168 18.540398 61.485733
-36.945641 3.411493 61.998108
-36.480556 6.157261 61.783978
-34.506153 4.295441 62.326359
-32.083633 5.221262 62.66066
-29.742678 6.237965 63.021637
-27.531075 7.384308 63.431458
-27.784502 4.338781 63.688847
-25.958113 2.470055 64.700089
-43.530361 10.105442 58.645027
-41.612358 11.508034 59.625572
-39.63599 12.826981 60.510735
-37.614929 14.078503 61.255188
-36.094994 9.065392 61.79092
-35.795605 12.117239 61.858723
-35.563797 15.286449 61.809612
-33.500587 16.480373 62.139717
-31.446449 17.695625 62.24369
-29.423723 18.97411 62.161777
-27.453655 20.363205 61.973797
-27.466656 17.074951 62.716339
-25.526075 15.270042 63.336971
-23.659184 13.529068 64.152512
-25.48035 8.687157 63.919033
-23.60704 10.161749 64.518936
-25.55426 21.910995 61.784245
-31.237478 22.615533 60.968801
-30.330353 21.612945 61.386149
-30.980052 -0.660214 64.44952
-31.879745 0.225064 63.827399
-29.746437 -0.307626 64.551491
-30.980052 -0.660214 64.44952
-38.081938 18.243244 60.473566
-39.031121 17.58303 60.120896
-38.266917 16.626938 60.688124
-39.979662 4.673654 61.069059
-39.081657 3.848517 61.486136
-39.730306 6.048801 60.9698
-40.868901 5.540311 60.715087
-39.979662 4.673654 61.069059
-22.939928 4.345541 65.778564
-23.084627 2.740718 66.127667
-34.250365 20.798679 61.211983
-35.250498 20.190914 61.132185
-34.361035 19.148163 61.565531
-36.237024 1.232388 62.651286
-35.308561 0.386613 63.175307
-35.980474 2.520217 62.380583
-37.202191 2.123664 62.268811
-36.237024 1.232388 62.651286
-26.225013 1.045018 65.120087
-27.092021 1.965192 64.468018
-27.358921 0.540156 64.888016
-25.12458 1.548439 65.403717
-26.225013 1.045018 65.120087
-43.203028 7.91511 59.317667
-42.485752 7.165964 59.840637
-42.866753 9.33918 59.200002
-43.866636 8.681373 58.762692
-43.203028 7.91511 59.317667
-22.749668 9.271656 65.111557
-23.633619 8.507864 64.692657
-22.776247 7.617771 65.285279
-22.760061 10.987012 64.89125
-22.749668 9.271656 65.111557
-22.924414 22.924712 62.38359
-23.765504 21.975778 62.261415
-22.952358 21.24271 62.946275
-22.058411 23.908832 62.433283
-22.924414 22.924712 62.38359
-32.250609 22.014026 61.133787
-33.26149 21.404478 61.187044
-32.35002 20.365476 61.592072
-32.250609 22.014026 61.133787
-31.237478 22.615533 60.968801
-34.069349 0.738865 63.245778
-35.308561 0.386613 63.175307
-32.829176 1.144462 63.36519
-33.775135 2.034537 62.882471
-34.069349 0.738865 63.245778
-31.585532 1.520736 63.464092
-32.829176 1.144462 63.36519
-31.879745 0.225064 63.827399
-28.541351 0.121869 64.706314
-29.431015 1.030834 64.081123
-29.746437 -0.307626 64.551491
-27.358921 0.540156 64.888016
-28.541351 0.121869 64.706314
-39.884569 16.840993 59.686188
-40.13422 15.26332 59.87968
-39.884569 16.840993 59.686188
-39.031121 17.58303 60.120896
-41.693953 6.337233 60.271062
-40.868901 5.540311 60.715087
-41.411344 7.744187 60.185403
-42.485752 7.165964 59.840637
-41.693953 6.337233 60.271062
-22.83185 5.943687 65.536537
-23.768276 5.255833 65.108406
-22.939928 4.345541 65.778564
-22.776247 7.617771 65.285279
-22.83185 5.943687 65.536537
-36.200968 19.554453 60.994166
-37.179251 18.92783 60.771696
-36.339451 17.913775 61.263264
-36.200968 19.554453 60.994166
-35.250498 20.190914 61.132185
-34.250365 20.798679 61.211983
-33.26149 21.404478 61.187044
-38.133944 2.963192 61.823304
-37.202191 2.123664 62.268811
-37.893355 4.296819 61.66094
-39.081657 3.848517 61.486136
-38.133944 2.963192 61.823304
-24.0837 2.142255 65.72889
-24.917234 3.063871 65.025261
-25.12458 1.548439 65.403717
-23.291973 1.225285 66.506123
-23.084627 2.740718 66.127667
-24.0837 2.142255 65.72889
-20.434448 15.413715 65.836377
-21.243567 16.23649 65.124775
-21.193973 14.454328 65.459457
-38.081938 18.243244 60.473566
-37.179251 18.92783 60.771696
-44.45154 9.359832 58.120333
-43.866636 8.681373 58.762692
-44.047804 10.783271 57.935842
-44.968983 10.037662 57.411148
-44.45154 9.359832 58.120333
-43.181249 11.581411 58.50734
-44.047804 10.783271 57.935842
-42.222248 12.282708 58.997612
-43.181249 11.581411 58.50734
-42.571359 10.806738 59.1353
-41.332349 13.033976 59.52474
-42.222248 12.282708 58.997612
-40.344166 13.693449 59.967321
-41.332349 13.033976 59.52474
-40.624174 12.167507 60.068153
-39.426045 14.396852 60.423094
-40.13422 15.26332 59.87968
-40.344166 13.693449 59.967321
-29.372644 20.612488 61.69763
-30.330353 21.612945 61.386149
-30.381431 19.974567 61.850296
-28.438689 19.668658 62.067787
-28.387611 21.307035 61.603639
-29.372644 20.612488 61.69763
-22.786133 12.670672 64.708039
-23.633112 11.845409 64.335724
-22.760061 10.987012 64.89125
-21.958087 13.544689 65.00571
-22.831138 14.403085 64.450184
-22.786133 12.670672 64.708039
-21.193973 14.454328 65.459457
-21.958087 13.544689 65.00571
-27.393731 22.003881 61.404512
-28.387611 21.307035 61.603639
-26.444033 22.777777 61.309736
-27.393731 22.003881 61.404512
-26.503957 21.1371 61.879021
-25.476427 23.563682 61.125975
-26.444033 22.777777 61.309736
-24.64591 22.784388 61.741487
-24.673853 21.102386 62.304172
-23.765504 21.975778 62.261415
-25.476427 23.563682 61.125975
-24.64591 22.784388 61.741487
-21.287954 17.969072 64.771679
-22.047479 17.009685 64.39476
-21.243567 16.23649 65.124775
-21.319954 19.746315 64.335613
-21.287954 17.969072 64.771679
-21.329656 21.471002 63.849007
-22.101568 20.466955 63.555058
-21.319954 19.746315 64.335613
-21.314111 23.239242 63.286846
-21.329656 21.471002 63.849007
-22.058411 23.908832 62.433283
-21.314111 23.239242 63.286846
3 63 62 16
3 64 18 65
3 67 66 18
3 0 68 70
3 70 69 20
3 68 69 70
3 1 71 72
3 1 73 75
3 73 21 74
3 73 74 75
3 1 23 21
3 2 26 24
3 2 28 26
3 2 30 28
3 77 76 31
3 3 35 33
3 4 78 80
3 80 79 36
3 78 79 80
3 5 81 82
3 5 83 85
3 83 37 84
3 83 84 85
3 5 39 37
3 7 40 17
3 7 41 40
3 7 43 41
3 86 44 87
3 88 87 19
3 86 87 88
3 90 89 44
3 9 91 92
3 9 93 95
3 93 45 94
3 93 94 95
3 9 46 45
3 10 47 22
3 10 48 47
3 6 49 38
3 11 50 25
3 11 51 50
3 11 52 51
3 12 53 27
3 12 54 53
3 12 56 54
3 14 57 29
3 14 58 57
3 8 59 42
3 96 60 97
3 98 97 32
3 96 97 98
3 100 99 60
3 13 61 55
3 15 101 103
3 103 102 34
3 101 102 103
3 15 104 105
3 16 106 108
3 108 107 4
3 106 107 108
3 110 109 16
3 111 5 112
3 113 17 114
3 115 114 5
3 113 114 115
3 18 116 118
3 116 17 117
3 116 117 118
3 18 7 17
3 18 19 7
3 119 19 120
3 121 120 18
3 119 120 121
3 123 122 19
3 20 124 125
3 127 126 20
3 21 128 129
3 21 130 132
3 130 9 131
3 130 131 132
3 21 22 9
3 23 22 21
3 23 10 22
3 24 25 6
3 26 25 24
3 26 11 25
3 26 27 11
3 28 27 26
3 28 12 27
3 28 29 12
3 30 29 28
3 30 14 29
3 31 32 8
3 133 32 134
3 135 134 31
3 133 134 135
3 137 136 32
3 33 34 13
3 35 34 33
3 35 15 34
3 36 138 140
3 140 139 0
3 138 139 140
3 142 141 36
3 144 143 4
3 37 145 146
3 37 147 149
3 147 1 148
3 147 148 149
3 37 38 1
3 39 38 37
3 39 6 38
3 17 39 5
3 40 39 17
3 40 6 39
3 40 24 6
3 41 24 40
3 41 2 24
3 41 42 2
3 43 42 41
3 43 8 42
3 19 43 7
3 44 43 19
3 44 8 43
3 44 31 8
3 150 31 151
3 152 151 44
3 150 151 152
3 155 154 31
3 153 154 155
3 158 157 3
3 156 157 158
3 160 159 0
3 45 161 162
3 45 163 165
3 163 164 165
3 45 166 167
3 46 168 170
3 170 169 45
3 168 169 170
3 46 171 172
3 22 46 9
3 47 46 22
3 47 173 175
3 175 174 46
3 173 174 175
3 47 176 178
3 176 20 177
3 176 177 178
3 48 20 47
3 48 0 20
3 38 23 1
3 49 23 38
3 49 10 23
3 25 49 6
3 50 49 25
3 50 10 49
3 50 48 10
3 51 48 50
3 51 0 48
3 51 36 0
3 52 36 51
3 52 4 36
3 27 52 11
3 53 52 27
3 53 4 52
3 53 16 4
3 54 16 53
3 54 179 181
3 181 180 16
3 179 180 181
3 54 182 184
3 182 55 183
3 182 183 184
3 56 55 54
3 56 13 55
3 29 56 12
3 57 56 29
3 57 13 56
3 57 33 13
3 58 33 57
3 58 3 33
3 42 30 2
3 59 30 42
3 59 14 30
3 32 59 8
3 60 59 32
3 60 14 59
3 60 58 14
3 185 58 186
3 187 186 60
3 185 186 187
3 188 3 189
3 190 189 58
3 188 189 190
3 192 191 3
3 55 193 194
3 61 195 197
3 197 196 55
3 195 196 197
3 61 198 199
3 34 61 13
3 200 61 201
3 202 201 34
3 200 201 202
3 204 203 61
3 205 35 206
3 207 206 3
3 205 206 207
3 208 35 209
3 210 15 211
3 212 211 35
3 210 211 212
3 213 15 214
3 216 215 15
