ply
format ascii 1.0
element vertex 202
property float x
property float y
property float z
element face 174
property list uchar int vertex_index
end_header
46.015797 -99.300568 -0.278154
42.958527 -105.667023 -11.035622
42.272171 -104.900215 -1.895254
44.790222 -102.607834 -5.718697
40.300583 -108.464615 -7.32255
34.621155 -114.148079 -16.697275
37.79237 -111.713867 -12.428173
40.496468 -108.090157 -15.820734
46.580063 -96.073509 5.201783
39.88496 -107.611404 -2.610809
41.349384 -106.69072 -4.629206
38.806976 -109.463684 -5.301939
29.413708 -117.593903 -18.199469
27.294367 -117.901886 -19.207418
25.085796 -117.83445 -19.812838
47.321697 -96.385818 0.495493
46.996002 -97.976929 -2.177553
43.947701 -104.192947 -8.409933
36.302628 -113.016792 -10.468634
35.984032 -112.037254 -18.182741
37.684788 -111.195847 -16.365778
38.989189 -108.958412 -17.814337
44.33371 -102.136719 -1.095409
45.483139 -100.961685 -3.002159
43.59621 -103.862976 -3.840708
42.714676 -105.575508 -6.562748
41.693027 -107.220985 -9.235308
32.760796 -114.92952 -18.321306
46.500595 -99.550995 -4.855221
37.618206 -111.288727 -7.935167
39.119995 -110.160599 -9.941141
40.524986 -108.742386 -11.809208
36.297852 -113.061523 -14.707962
39.194927 -110.083984 -14.213835
41.813911 -106.980873 -13.532614
47.475952 -94.809448 3.169881
46.3797 -97.662285 2.453052
45.345268 -98.808144 4.45126
44.918316 -100.441223 1.666405
43.065605 -103.145302 0.866116
38.034891 -109.877308 -4.240059
39.345968 -108.537544 -3.956374
38.573883 -108.951168 -2.894494
25.586337 -119.000725 -18.902898
26.668387 -118.938877 -18.495241
24.482051 -118.967007 -19.205609
26.190081 -117.868168 -19.510128
25.586337 -119.000725 -18.902898
44.003647 -104.076565 -10.601278
44.498234 -103.339527 -9.288434
43.453114 -104.929985 -9.722777
43.530149 -104.71328 -11.876558
44.003647 -104.076565 -10.601278
38.137806 -109.258388 -18.626713
37.48661 -110.497833 -17.998539
36.635227 -110.797809 -18.810915
39.602043 -107.655934 -18.43947
38.137806 -109.258388 -18.626713
31.74799 -115.152637 -18.926592
31.087252 -116.261711 -18.260388
30.074446 -116.484829 -18.865673
33.429874 -113.754024 -18.961527
31.74799 -115.152637 -18.926592
36.189121 -112.669433 -8.140054
36.840154 -111.741803 -6.8671
35.459503 -113.604801 -15.702618
34.75145 -114.478134 -14.837955
33.913101 -115.021412 -15.832612
41.74487 -106.469594 -15.46359
42.403591 -105.914952 -14.31953
41.155189 -107.535515 -14.676674
47.028008 -95.441479 4.185832
47.477843 -94.040123 4.514588
47.029898 -94.672154 5.530539
44.533699 -100.136109 4.054305
44.791462 -99.342724 5.470506
44.320223 -100.952648 2.661878
45.131792 -99.624684 3.058833
44.533699 -100.136109 4.054305
43.393867 -102.304688 2.261734
43.99196 -101.793262 1.266261
44.320223 -100.952648 2.661878
27.728057 -118.784886 -17.991267
28.756529 -118.522819 -17.381121
28.354038 -117.747895 -18.703443
27.728057 -118.784886 -17.991267
26.668387 -118.938877 -18.495241
29.014775 -116.638821 -19.369648
30.074446 -116.484829 -18.865673
28.354038 -117.747895 -18.703443
27.939901 -116.688061 -19.764238
29.014775 -116.638821 -19.369648
26.835615 -116.654343 -20.066948
27.939901 -116.688061 -19.764238
26.190081 -117.868168 -19.510128
25.728032 -116.531269 -20.270145
26.835615 -116.654343 -20.066948
47.751793 -95.652889 -0.462928
47.82021 -94.898323 0.836695
47.588945 -96.448444 -1.799451
47.751793 -95.652889 -0.462928
47.15885 -97.181374 -0.84103
47.436154 -97.193912 -3.10477
47.588945 -96.448444 -1.799451
44.897883 -102.630791 -7.969152
45.319143 -101.838234 -6.623534
44.368961 -103.400391 -7.064315
44.897883 -102.630791 -7.969152
44.498234 -103.339527 -9.288434
34.817488 -114.397911 -10.617364
35.531332 -113.533466 -9.406788
35.570467 -113.796017 -11.653803
34.817488 -114.397911 -10.617364
36.315338 -113.144554 -12.633572
37.047499 -112.36533 -11.448403
35.570467 -113.796017 -11.653803
40.346075 -107.340114 -17.531771
41.099715 -106.905987 -16.534969
39.742829 -108.524284 -16.817535
40.346075 -107.340114 -17.531771
39.602043 -107.655934 -18.43947
46.612322 -95.311386 6.591689
47.029898 -94.672154 5.530539
33.007491 -115.531994 -16.736618
33.913101 -115.021412 -15.832612
30.403768 -117.254906 -17.487715
28.756529 -118.522819 -17.381121
32.077312 -115.922714 -17.548634
30.403768 -117.254906 -17.487715
31.087252 -116.261711 -18.260388
33.690976 -114.538799 -17.50929
33.007491 -115.531994 -16.736618
32.077312 -115.922714 -17.548634
35.041493 -112.307892 -18.892245
34.372414 -113.483387 -18.252023
33.429874 -113.754024 -18.961527
36.635227 -110.797809 -18.810915
35.041493 -112.307892 -18.892245
47.18845 -97.980945 -4.443605
47.436154 -97.193912 -3.10477
46.748298 -98.763962 -3.516387
46.174329 -100.309815 -6.191797
45.645409 -101.079414 -5.286959
45.319143 -101.838234 -6.623534
46.955849 -98.701031 -5.754293
46.174329 -100.309815 -6.191797
47.18845 -97.980945 -4.443605
46.955849 -98.701031 -5.754293
37.434539 -110.829281 -5.550486
38.034891 -109.877308 -4.240059
38.212591 -110.376205 -6.618553
37.434539 -110.829281 -5.550486
36.840154 -111.741803 -6.8671
36.960417 -112.15276 -9.201901
36.189121 -112.669433 -8.140054
35.531332 -113.533466 -9.406788
35.568079 -113.818382 -13.773467
34.75145 -114.478134 -14.837955
37.045111 -112.387695 -13.568067
36.315338 -113.144554 -12.633572
35.568079 -113.818382 -13.773467
42.957842 -105.370205 -13.125053
43.530149 -104.71328 -11.876558
42.386219 -106.323948 -12.284118
42.957842 -105.370205 -13.125053
42.403591 -105.914952 -14.31953
41.74487 -106.469594 -15.46359
41.099715 -106.905987 -16.534969
47.886521 -93.359478 3.473569
47.477843 -94.040123 4.514588
47.897337 -94.110138 2.173889
47.886521 -93.359478 3.473569
47.398825 -95.597633 1.832687
47.82021 -94.898323 0.836695
47.897337 -94.110138 2.173889
46.101664 -96.663864 6.236756
46.612322 -95.311386 6.591689
45.484266 -98.031182 5.861495
44.791462 -99.342724 5.470506
45.962665 -97.440827 4.826522
46.101664 -96.663864 6.236756
45.484266 -98.031182 5.861495
42.394317 -103.599182 1.874628
43.393867 -102.304688 2.261734
41.961893 -104.468933 0.492177
42.394317 -103.599182 1.874628
41.565176 -105.34639 -0.888509
42.668888 -104.022759 -0.514569
41.961893 -104.468933 0.492177
40.371571 -106.701984 -1.246286
41.078565 -106.255809 -2.253032
41.565176 -105.34639 -0.888509
39.131828 -108.00946 -1.560515
40.371571 -106.701984 -1.246286
38.573883 -108.951168 -2.894494
39.131828 -108.00946 -1.560515
23.373715 -118.830857 -19.426807
24.482051 -118.967007 -19.205609
23.967763 -117.618657 -19.94186
23.373715 -118.830857 -19.426807
25.728032 -116.531269 -20.270145
23.967763 -117.618657 -19.94186
3 40 11 41
3 42 41 9
3 40 41 42
3 43 13 44
3 45 14 46
3 47 46 13
3 45 46 47
3 0 16 15
3 1 48 50
3 50 49 17
3 48 49 50
3 1 51 52
3 53 21 54
3 55 54 19
3 53 54 55
3 57 56 21
3 2 24 22
3 4 25 10
3 4 26 25
3 58 27 59
3 60 59 12
3 58 59 60
3 62 61 27
3 3 28 23
3 63 29 64
3 6 30 18
3 6 31 30
3 5 65 67
3 65 32 66
3 65 66 67
3 7 33 20
3 7 34 33
3 7 68 70
3 70 69 34
3 68 69 70
3 8 71 73
3 71 35 72
3 71 72 73
3 8 36 35
3 74 37 75
3 76 38 77
3 78 77 37
3 76 77 78
3 79 39 80
3 81 80 38
3 79 80 81
3 9 10 2
3 11 10 9
3 11 4 10
3 82 12 83
3 13 84 86
3 84 12 85
3 84 85 86
3 13 87 89
3 89 88 12
3 87 88 89
3 13 90 91
3 14 92 94
3 94 93 13
3 92 93 94
3 14 95 96
3 15 97 98
3 16 99 101
3 101 100 15
3 99 100 101
3 16 102 103
3 17 104 106
3 106 105 3
3 104 105 106
3 108 107 17
3 109 18 110
3 111 18 112
3 113 6 114
3 115 114 18
3 113 114 115
3 19 20 5
3 21 20 19
3 21 7 20
3 21 116 118
3 118 117 7
3 116 117 118
3 120 119 21
3 121 8 122
3 22 23 0
3 24 23 22
3 24 3 23
3 10 24 2
3 25 24 10
3 25 3 24
3 25 17 3
3 26 17 25
3 26 1 17
3 123 5 124
3 12 125 126
3 27 127 129
3 129 128 12
3 127 128 129
3 27 130 132
3 130 5 131
3 130 131 132
3 27 19 5
3 133 19 134
3 135 134 27
3 133 134 135
3 137 136 19
3 23 16 0
3 28 16 23
3 28 138 140
3 140 139 16
3 138 139 140
3 141 28 142
3 143 142 3
3 141 142 143
3 144 28 145
3 147 146 28
3 148 11 149
3 29 150 152
3 150 11 151
3 150 151 152
3 29 4 11
3 18 153 155
3 153 29 154
3 153 154 155
3 30 29 18
3 30 4 29
3 30 26 4
3 31 26 30
3 31 1 26
3 32 156 157
3 32 158 160
3 158 6 159
3 158 159 160
3 20 32 5
3 33 32 20
3 33 6 32
3 33 31 6
3 34 31 33
3 34 1 31
3 34 161 163
3 163 162 1
3 161 162 163
3 165 164 34
3 167 166 7
3 35 168 169
3 35 170 171
3 35 172 174
3 172 15 173
3 172 173 174
3 36 15 35
3 36 0 15
3 175 8 176
3 37 177 178
3 37 179 181
3 179 8 180
3 179 180 181
3 37 36 8
3 38 36 37
3 38 0 36
3 38 22 0
3 39 22 38
3 39 2 22
3 182 39 183
3 184 39 185
3 186 2 187
3 188 187 39
3 186 187 188
3 189 9 190
3 191 190 2
3 189 190 191
3 192 9 193
3 195 194 9
3 196 14 197
3 198 14 199
3 201 200 14
