ply
format ascii 1.0
element vertex 252
property float x
property float y
property float z
element face 255
property list uchar int vertex_index
end_header
-4.622086 -30.344624 60.4174
1.337702 -19.870312 78.004242
-3.184181 -16.642799 59.084152
-0.330755 -19.363407 67.890106
-4.967514 -25.652641 52.685211
-0.132444 -12.438888 66.909477
0.836246 -12.941881 71.652069
-3.918207 -23.573986 59.483421
-4.575722 -21.269646 55.621223
-5.499937 -28.308636 56.105965
1.126669 -13.095175 76.524101
-6.151142 -35.094131 57.331894
-1.489429 -11.457021 62.587933
-1.852386 -18.353024 63.206448
-2.362511 -25.147129 64.045509
0.813507 -19.79155 72.930206
-0.615904 -26.020967 69.085541
-2.864548 -31.677906 65.354492
-3.631863 -14.167906 55.651459
-5.849472 -32.745804 53.453724
-4.286694 -26.990578 59.869232
-4.824955 -25.987673 57.7244
-5.213488 -29.413506 58.164047
-0.211815 -15.929401 67.38636
-0.908278 -15.490189 65.076416
-1.072319 -18.940647 65.489189
-2.099909 -21.77766 63.578594
-1.266718 -22.335825 65.961273
1.222099 -16.513041 77.257263
1.109869 -16.488228 74.78051
1.159111 -19.855623 75.489822
0.149475 -26.246237 71.710358
-0.765587 -29.247017 69.808258
-1.677555 -28.920561 67.183968
-2.866665 -13.208521 58.988155
-3.17963 -12.065555 57.294785
-3.553602 -15.504477 57.279057
-4.927172 -23.477858 54.05983
-4.402027 -19.871012 53.999775
-4.429026 -22.013573 52.564358
-6.18877 -33.991356 55.270626
0.427456 -12.745077 69.24324
0.380581 -16.228094 69.796997
1.215277 -23.166533 76.22197
-3.542048 -20.11451 59.23415
-3.966818 -19.003342 57.317677
-4.399565 -22.509506 57.452637
-5.055624 -24.810678 55.780632
-5.424225 -27.046671 54.274994
1.006433 -13.11841 78.875488
1.162548 -16.521477 79.641403
-4.902403 -33.621311 61.1413
-5.536839 -32.768188 58.789459
-2.326351 -14.142929 60.857098
-0.795721 -12.011971 64.682198
-1.64212 -14.898148 62.892712
-2.5877 -17.589655 61.064774
-2.889372 -21.03928 61.328186
-3.208321 -24.453516 61.690414
-3.521177 -27.810406 62.183159
1.070997 -13.048871 74.095917
0.827526 -16.405195 72.275833
0.310503 -19.638586 70.382004
0.800913 -23.109728 73.622665
0.231802 -22.975561 71.016479
-0.469866 -22.727676 68.450424
-1.472466 -25.663507 66.520111
-2.621439 -28.449295 64.632111
-3.808317 -31.096943 62.82695
-3.393074 -12.636833 54.184036
-4.092247 -17.710943 55.592014
-3.881985 -16.248747 54.055206
-5.875452 -31.742792 56.620483
-5.856707 -30.557503 54.674164
-5.453979 -29.235687 52.975201
-0.845719 -30.827223 70.219486
-0.354476 -29.352593 71.140465
-1.322218 -30.6765 68.887161
-0.845719 -30.827223 70.219486
-4.561866 -24.90401 52.004372
-4.292622 -23.084477 51.943945
-4.69827 -23.833107 52.624785
0.631851 -12.843479 70.447654
0.625954 -11.074662 70.140747
0.830349 -11.173064 71.345161
0.859911 -13.139917 79.977947
0.772974 -11.414521 79.587959
0.626451 -11.436028 80.690418
0.937968 -14.841451 80.360905
1.08449 -14.819944 79.258445
0.859911 -13.139917 79.977947
-5.336239 -34.82799 60.372709
-5.006072 -35.213972 61.591743
-1.806245 -11.10952 61.620132
-1.448451 -9.77648 62.408789
-1.90789 -12.799975 61.722516
-2.224705 -12.452474 60.754715
-1.806245 -11.10952 61.620132
-0.464083 -12.22543 65.795838
-0.45395 -10.466691 65.548023
-0.122312 -10.68015 66.661663
1.098833 -13.072023 75.310009
1.062618 -11.32481 74.951713
1.090454 -11.347962 76.165806
0.792763 -24.740969 73.989532
1.008095 -23.138131 74.922317
0.999945 -24.769372 75.289185
-3.459974 -32.990458 64.49336
-3.931859 -32.699976 63.22959
-3.336432 -31.387425 64.090721
-3.421798 -12.425239 55.707329
-3.195682 -11.374064 56.528992
-3.405747 -13.11673 56.473122
-3.512468 -13.402369 54.917748
-3.302404 -11.659703 54.973618
-3.421798 -12.425239 55.707329
-3.879257 -17.292137 53.316848
-4.142006 -18.05988 54.02749
-4.139278 -19.103269 53.289133
-3.612589 -15.442548 53.369991
-3.879257 -17.292137 53.316848
0.935583 -11.235686 72.539879
0.830349 -11.173064 71.345161
-1.120584 -10.004347 63.419302
-1.448451 -9.77648 62.408789
0.103055 -27.852203 72.091515
0.467044 -26.309224 73.033379
-0.308056 -27.746627 70.759308
0.103055 -27.852203 72.091515
-0.354476 -29.352593 71.140465
-1.778202 -30.513272 67.575016
-1.221571 -29.083789 68.496113
-1.322218 -30.6765 68.887161
-2.371698 -31.891945 66.660278
-2.271052 -30.299233 66.26923
-1.778202 -30.513272 67.575016
-2.975397 -33.252318 65.788284
-2.371698 -31.891945 66.660278
-3.023147 -12.637038 58.14147
-2.891431 -10.979108 58.097317
-2.734949 -11.550591 58.944002
-4.152778 -20.17455 52.571424
-4.139278 -19.103269 53.289133
-4.415527 -20.942293 53.282066
-4.012724 -21.229057 51.917126
-4.152778 -20.17455 52.571424
-4.012724 -21.229057 51.917126
-4.292622 -23.084477 51.943945
-6.288639 -35.66026 55.665535
-6.169956 -34.542744 56.30126
-6.269825 -36.211647 56.696169
-6.153372 -35.078453 54.696594
-6.288639 -35.66026 55.665535
-5.983722 -34.455677 53.788143
-6.019121 -33.36858 54.362175
-6.153372 -35.078453 54.696594
0.149745 -10.821884 67.798385
-0.122312 -10.68015 66.661663
0.429695 -10.974978 68.965267
0.625954 -11.074662 70.140747
0.147506 -12.591983 68.076358
0.149745 -10.821884 67.798385
0.429695 -10.974978 68.965267
1.337086 -23.176032 77.488785
1.276489 -21.518422 77.113106
1.398299 -21.527922 78.379921
1.238837 -24.800773 76.598572
1.337086 -23.176032 77.488785
0.999945 -24.769372 75.289185
1.238837 -24.800773 76.598572
1.006495 -11.371763 77.322178
1.090454 -11.347962 76.165806
0.946376 -11.383381 78.497872
0.772974 -11.414521 79.587959
1.066551 -13.106793 77.699794
1.006495 -11.371763 77.322178
0.946376 -11.383381 78.497872
1.044439 -16.539352 80.750644
0.937968 -14.841451 80.360905
1.251383 -18.199712 80.023647
1.044439 -16.539352 80.750644
1.33896 -19.874129 79.205067
1.250125 -18.195895 78.822823
1.251383 -18.199712 80.023647
1.398299 -21.527922 78.379921
1.33896 -19.874129 79.205067
-5.653457 -34.401428 59.196788
-5.219621 -33.19475 59.965379
-5.336239 -34.82799 60.372709
-5.960609 -35.5644 58.468006
-5.843991 -33.931159 58.060676
-5.653457 -34.401428 59.196788
-6.225732 -36.719005 57.781948
-5.960609 -35.5644 58.468006
-6.269825 -36.211647 56.696169
-6.225732 -36.719005 57.781948
-2.494862 -11.98527 59.820244
-2.734949 -11.550591 58.944002
-2.596508 -13.675725 59.922626
-2.494862 -11.98527 59.820244
-2.224705 -12.452474 60.754715
-0.77373 -10.281822 64.466434
-0.431959 -8.736542 65.33226
-0.45395 -10.466691 65.548023
-1.142575 -11.734496 63.635065
-1.120584 -10.004347 63.419302
-0.77373 -10.281822 64.466434
1.052958 -11.289181 73.761803
1.062618 -11.32481 74.951713
0.953622 -12.995376 72.873993
0.935583 -11.235686 72.539879
1.052958 -11.289181 73.761803
0.475194 -24.677982 72.666511
0.792763 -24.740969 73.989532
0.467044 -26.309224 73.033379
-4.478902 -33.96216 62.386764
-4.35536 -32.359127 61.984125
-3.931859 -32.699976 63.22959
-5.006072 -35.213972 61.591743
-4.478902 -33.96216 62.386764
-3.459974 -32.990458 64.49336
-2.975397 -33.252318 65.788284
-3.016354 -10.414229 57.315264
-2.891431 -10.979108 58.097317
-3.016354 -10.414229 57.315264
-3.195682 -11.374064 56.528992
-3.172157 -10.848385 54.268223
-3.302404 -11.659703 54.973618
-3.123706 -11.785219 53.512043
-2.902789 -9.996771 53.596229
-3.172157 -10.848385 54.268223
-3.368133 -13.636591 53.434406
-3.637529 -14.44279 54.119621
-3.612589 -15.442548 53.369991
-3.098765 -12.784977 52.762413
-3.123706 -11.785219 53.512043
-3.368133 -13.636591 53.434406
-5.667415 -33.812397 52.945616
-5.983722 -34.455677 53.788143
-5.801666 -35.52227 53.280035
-5.49464 -32.066119 52.672274
-5.667415 -33.812397 52.945616
-5.296894 -30.31106 52.433012
-5.651725 -30.990745 53.214462
-5.49464 -32.066119 52.672274
-5.068984 -28.521445 52.248678
-5.296894 -30.31106 52.433012
-4.825752 -26.729922 52.103684
-5.210747 -27.444164 52.830206
-5.068984 -28.521445 52.248678
-4.561866 -24.90401 52.004372
-4.825752 -26.729922 52.103684
3 0 22 20
3 3 25 23
3 3 27 25
3 1 30 28
3 75 32 76
3 78 77 32
3 2 36 34
3 4 39 37
3 4 79 81
3 81 80 39
3 79 80 81
3 6 82 84
3 82 41 83
3 82 83 84
3 6 42 41
3 7 46 44
3 9 47 21
3 9 48 47
3 85 49 86
3 85 86 87
3 88 50 89
3 90 89 49
3 88 89 90
3 92 91 51
3 12 93 94
3 12 95 97
3 95 53 96
3 95 96 97
3 5 98 100
3 98 54 99
3 98 99 100
3 13 55 24
3 13 56 55
3 13 57 56
3 14 58 26
3 14 59 58
3 10 101 103
3 101 60 102
3 101 102 103
3 15 61 29
3 15 62 61
3 104 63 105
3 106 105 43
3 104 105 106
3 16 64 31
3 16 65 64
3 16 66 65
3 17 67 33
3 17 68 67
3 17 107 109
3 109 108 68
3 107 108 109
3 18 110 112
3 112 111 35
3 110 111 112
3 18 113 115
3 113 69 114
3 113 114 115
3 8 70 45
3 116 71 117
3 118 117 38
3 116 117 118
3 120 119 71
3 11 72 52
3 19 73 40
3 19 74 73
3 121 6 122
3 20 21 7
3 22 21 20
3 22 9 21
3 123 12 124
3 23 24 5
3 25 24 23
3 25 13 24
3 25 26 13
3 27 26 25
3 27 14 26
3 28 29 10
3 30 29 28
3 30 15 29
3 125 31 126
3 32 127 129
3 127 31 128
3 127 128 129
3 32 16 31
3 32 33 16
3 130 33 131
3 132 131 32
3 130 131 132
3 133 17 134
3 135 134 33
3 133 134 135
3 137 136 17
3 34 138 140
3 138 35 139
3 138 139 140
3 36 35 34
3 36 18 35
3 37 38 8
3 39 38 37
3 39 141 143
3 143 142 38
3 141 142 143
3 39 144 145
3 147 146 39
3 148 40 149
3 150 149 11
3 148 149 150
3 151 40 152
3 153 19 154
3 155 154 40
3 153 154 155
3 156 5 157
3 41 158 159
3 41 160 162
3 160 5 161
3 160 161 162
3 41 23 5
3 42 23 41
3 42 3 23
3 163 43 164
3 165 164 1
3 163 164 165
3 166 43 167
3 169 168 43
3 44 45 2
3 46 45 44
3 46 8 45
3 21 46 7
3 47 46 21
3 47 8 46
3 47 37 8
3 48 37 47
3 48 4 37
3 170 10 171
3 49 172 173
3 49 174 176
3 174 10 175
3 174 175 176
3 49 28 10
3 50 28 49
3 50 1 28
3 177 50 178
3 179 50 180
3 181 1 182
3 183 182 50
3 181 182 183
3 185 184 1
3 51 52 0
3 186 52 187
3 188 187 51
3 186 187 188
3 189 11 190
3 191 190 52
3 189 190 191
3 192 11 193
3 195 194 11
3 196 34 197
3 53 198 200
3 198 34 199
3 198 199 200
3 53 2 34
3 54 201 203
3 201 202 203
3 54 204 206
3 204 12 205
3 204 205 206
3 24 54 5
3 55 54 24
3 55 12 54
3 55 53 12
3 56 53 55
3 56 2 53
3 56 44 2
3 57 44 56
3 57 7 44
3 26 57 13
3 58 57 26
3 58 7 57
3 58 20 7
3 59 20 58
3 59 0 20
3 60 207 208
3 60 209 211
3 209 6 210
3 209 210 211
3 29 60 10
3 61 60 29
3 61 6 60
3 61 42 6
3 62 42 61
3 62 3 42
3 43 30 1
3 63 30 43
3 63 15 30
3 31 212 214
3 212 63 213
3 212 213 214
3 64 63 31
3 64 15 63
3 64 62 15
3 65 62 64
3 65 3 62
3 65 27 3
3 66 27 65
3 66 14 27
3 33 66 16
3 67 66 33
3 67 14 66
3 67 59 14
3 68 59 67
3 68 0 59
3 68 51 0
3 215 51 216
3 217 216 68
3 215 216 217
3 219 218 51
3 221 220 17
3 35 222 223
3 225 224 35
3 69 226 227
3 69 228 230
3 228 229 230
3 45 36 2
3 70 36 45
3 70 18 36
3 38 70 8
3 71 70 38
3 71 18 70
3 71 69 18
3 231 69 232
3 233 232 71
3 231 232 233
3 236 235 69
3 234 235 236
3 52 22 0
3 72 22 52
3 72 9 22
3 40 72 11
3 73 72 40
3 73 9 72
3 73 48 9
3 74 48 73
3 74 4 48
3 237 19 238
3 237 238 239
3 240 19 241
3 242 74 243
3 244 243 19
3 242 243 244
3 245 74 246
3 247 4 248
3 249 248 74
3 247 248 249
3 251 250 4
