ply
format ascii 1.0
element vertex 242
property float x
property float y
property float z
element face 243
property list uchar int vertex_index
end_header
-65.149277 5.467525 10.534558
-63.238308 5.367624 27.159096
-54.872963 9.923958 33.226128
-65.692001 5.960155 17.65024
-57.987541 11.998259 23.341564
-47.669502 17.256954 28.682213
-64.777206 5.884729 22.372076
-62.483784 9.376448 20.412479
-61.122734 8.911848 25.423489
-51.014839 13.294201 30.943642
-59.535675 7.948544 30.331234
-65.793762 5.775682 13.420682
-63.393623 9.378967 15.528975
-59.570946 12.432526 18.241495
-54.807426 15.126228 21.190151
-56.343906 11.132677 28.338764
-52.712524 14.335526 26.115593
-64.931778 4.271332 9.994022
-64.287994 6.248499 9.637679
-65.786987 3.915827 11.183886
-64.070374 5.691893 24.77351
-63.099842 7.521135 23.887291
-62.345879 7.212988 26.337851
-65.538872 3.928232 23.279558
-65.850388 5.890669 15.435325
-64.792206 7.631908 14.379086
-64.617073 7.74885 16.607851
-60.376976 10.769001 21.882847
-61.056221 10.933184 19.341724
-58.805092 12.272202 20.795876
-57.263859 13.788685 19.708382
-56.32885 13.519073 22.24893
-57.303123 8.964773 31.826483
-58.070614 9.577156 29.388403
-55.576313 10.560902 30.791458
-49.198589 15.17366 29.787886
-51.79747 13.836502 28.53339
-50.085155 15.671356 27.420261
-51.137257 16.133621 25.049072
-48.693436 17.706017 26.373852
-66.58078 4.014481 18.674128
-66.758965 3.964598 16.487513
-66.684639 3.899836 14.460084
-65.32724 5.965994 19.983051
-64.262711 7.774488 18.980648
-63.748367 7.703327 21.424133
-61.845367 9.204687 22.922974
-59.632904 10.487963 24.415405
-52.354755 10.956934 34.542747
-52.964294 11.569172 32.107979
-50.380981 12.736376 33.364281
-48.500118 14.666256 32.174316
-46.870796 16.799911 31.01651
-66.165222 4.013859 20.955311
-61.51527 6.770082 28.758455
-65.535744 5.627901 11.71899
-64.598206 7.024763 10.776609
-64.780914 7.410013 12.393291
-63.613083 9.194183 13.297291
-62.08358 10.89016 14.419983
-63.009109 9.434381 17.928375
-61.636993 10.978172 16.832401
-55.888622 15.388748 18.671005
-60.344162 8.492308 27.895027
-58.854935 10.089376 26.919188
-57.156387 11.616274 25.857365
-53.684464 12.157114 29.67491
-54.502205 12.691345 27.229166
-55.394478 13.149979 24.75679
-53.730179 14.770458 23.67207
-52.314064 16.540558 22.651073
-66.357307 3.860518 12.667064
-63.986753 4.547334 26.384125
-63.514044 4.377799 27.539318
-63.654341 5.529758 25.966303
-64.402786 4.709469 25.191332
-63.986753 4.547334 26.384125
-47.105721 18.407023 28.164704
-47.617688 18.631554 27.010524
-48.181469 17.481485 27.528033
-50.139833 12.465233 34.586821
-51.367868 11.846655 33.953514
-51.12672 11.575512 35.176054
-47.403208 15.514263 32.786163
-48.247203 14.422489 33.385582
-46.588546 16.581091 32.20726
-47.685457 15.733084 31.595413
-47.403208 15.514263 32.786163
-45.916294 17.784435 31.628351
-46.588546 16.581091 32.20726
-59.906113 12.449746 16.982237
-60.939137 11.72257 16.27769
-60.603969 11.705349 17.536948
-58.86005 13.189457 17.699559
-59.906113 12.449746 16.982237
-54.182254 16.000909 20.699872
-54.722853 16.132169 19.440299
-55.348024 15.257488 19.930578
-51.111958 17.332175 23.357385
-51.725661 16.33709 23.850072
-50.523554 17.128706 24.556385
-51.788135 17.515946 22.18705
-51.111958 17.332175 23.357385
-64.043982 7.617011 10.268868
-64.12386 7.929836 11.057473
-64.355022 4.623501 9.47919
-64.638435 3.452827 9.836605
-64.03313 5.612084 9.301019
-64.355022 4.623501 9.47919
-64.609886 5.259915 9.81585
-63.693958 6.736961 9.140591
-64.03313 5.612084 9.301019
-65.660095 3.030404 10.990184
-66.121315 2.903703 11.65849
-65.23249 3.208157 10.395252
-65.660095 3.030404 10.990184
-65.359382 4.09358 10.588954
-64.638435 3.452827 9.836605
-65.23249 3.208157 10.395252
-65.137035 3.827638 24.444356
-65.790832 2.900499 23.736565
-64.804623 4.810062 24.026534
-65.137035 3.827638 24.444356
-64.402786 4.709469 25.191332
-49.301643 17.914904 25.218775
-50.523554 17.128706 24.556385
-49.915346 16.919819 25.711462
-48.208828 18.826668 25.891706
-49.301643 17.914904 25.218775
-48.208828 18.826668 25.891706
-47.617688 18.631554 27.010524
-67.042233 2.954802 18.121908
-66.926155 2.982379 19.195119
-67.131325 2.929861 17.028601
-67.042233 2.954802 18.121908
-66.669872 3.98954 17.580821
-67.103428 2.899505 16.02038
-67.131325 2.929861 17.028601
-66.721802 3.932217 15.473799
-67.066265 2.867124 15.006666
-67.103428 2.899505 16.02038
-49.187635 13.457549 33.980564
-50.139833 12.465233 34.586821
-49.44055 13.701316 32.769298
-49.187635 13.457549 33.980564
-48.247203 14.422489 33.385582
-46.243122 17.978054 30.465941
-46.642475 18.206575 29.298792
-47.270149 17.028433 29.849362
-46.243122 17.978054 30.465941
-45.916294 17.784435 31.628351
-66.1562 2.942245 22.609227
-65.790832 2.900499 23.736565
-66.469375 2.985059 21.447103
-66.1562 2.942245 22.609227
-65.852047 3.971045 22.117435
-66.718376 2.982068 20.33571
-66.469375 2.985059 21.447103
-66.373001 4.01417 19.814719
-66.926155 2.982379 19.195119
-66.718376 2.982068 20.33571
-61.913639 5.835807 29.135976
-62.376789 6.068853 27.958776
-62.775158 5.134578 28.336296
-61.074852 6.482171 29.950696
-61.913639 5.835807 29.135976
-60.085054 7.071402 30.737085
-60.525472 7.359313 29.544844
-61.074852 6.482171 29.950696
-59.127535 7.621385 31.532688
-60.085054 7.071402 30.737085
-58.011259 8.129499 32.280313
-58.419399 8.456658 31.078858
-59.127535 7.621385 31.532688
-56.936583 8.620402 33.034068
-58.011259 8.129499 32.280313
-55.721502 9.099995 33.733891
-56.088043 9.444365 32.526305
-56.936583 8.620402 33.034068
-54.559173 9.58811 34.440197
-55.721502 9.099995 33.733891
-53.300069 10.104598 35.098506
-53.613859 10.440446 33.884438
-54.559173 9.58811 34.440197
-52.10656 10.654532 35.76659
-53.300069 10.104598 35.098506
-51.12672 11.575512 35.176054
-52.10656 10.654532 35.76659
-62.775158 5.134578 28.336296
-63.514044 4.377799 27.539318
-64.215214 8.122461 11.865814
-64.12386 7.929836 11.057473
-64.68956 7.217388 11.58495
-63.631298 9.014546 12.317814
-64.215214 8.122461 11.865814
-64.196999 8.302098 12.845291
-62.98614 9.91527 12.746046
-63.631298 9.014546 12.317814
-62.221388 10.763258 13.307392
-62.98614 9.91527 12.746046
-62.848332 10.042172 13.858637
-61.425286 11.620157 13.866288
-62.221388 10.763258 13.307392
-61.16243 11.678563 15.071481
-61.860287 10.934166 15.626192
-60.939137 11.72257 16.27769
-61.425286 11.620157 13.866288
-61.16243 11.678563 15.071481
-57.706507 13.867536 18.433003
-58.86005 13.189457 17.699559
-58.417402 13.110605 18.974939
-57.018889 14.667568 17.914314
-57.706507 13.867536 18.433003
-56.57624 14.588717 19.189694
-56.397585 15.463823 17.40523
-57.018889 14.667568 17.914314
-55.34025 16.25457 18.198021
-56.397585 15.463823 17.40523
-55.34025 16.25457 18.198021
-54.722853 16.132169 19.440299
-52.935574 16.708075 21.430333
-54.182254 16.000909 20.699872
-53.560745 15.833393 21.920612
-52.935574 16.708075 21.430333
-51.788135 17.515946 22.18705
-47.105721 18.407023 28.164704
-46.642475 18.206575 29.298792
-66.89061 2.857215 14.092189
-67.066265 2.867124 15.006666
-66.726944 2.837556 13.195679
-66.89061 2.857215 14.092189
-66.520973 3.880177 13.563574
-66.406475 2.876049 12.40008
-66.726944 2.837556 13.195679
-66.072147 3.888173 11.925475
-66.121315 2.903703 11.65849
-66.406475 2.876049 12.40008
-63.888876 7.228879 9.699403
-64.4431 6.636631 10.207144
-64.043982 7.617011 10.268868
-63.693958 6.736961 9.140591
-63.888876 7.228879 9.699403
3 0 18 17
3 0 17 19
3 1 22 20
3 1 72 73
3 1 74 76
3 74 20 75
3 74 75 76
3 3 26 24
3 4 29 27
3 4 31 29
3 2 34 32
3 5 37 35
3 5 39 37
3 5 77 79
3 79 78 39
3 77 78 79
3 3 41 40
3 3 24 41
3 6 45 43
3 8 46 21
3 8 47 46
3 80 50 81
3 82 81 48
3 80 81 82
3 83 51 84
3 85 52 86
3 87 86 51
3 85 86 87
3 89 88 52
3 6 53 23
3 6 43 53
3 11 57 55
3 12 58 25
3 12 59 58
3 7 60 44
3 13 61 28
3 13 90 92
3 92 91 61
3 90 91 92
3 13 93 94
3 14 62 30
3 14 95 97
3 97 96 62
3 95 96 97
3 10 63 54
3 15 64 33
3 15 65 64
3 9 66 49
3 16 67 36
3 16 68 67
3 16 69 68
3 98 70 99
3 100 99 38
3 98 99 100
3 102 101 70
3 11 71 42
3 11 55 71
3 104 103 56
3 17 105 106
3 18 107 109
3 109 108 17
3 107 108 109
3 18 110 111
3 19 112 113
3 17 114 116
3 116 115 19
3 114 115 116
3 17 117 118
3 20 21 6
3 22 21 20
3 22 8 21
3 119 23 120
3 20 121 123
3 121 23 122
3 121 122 123
3 20 6 23
3 24 25 11
3 26 25 24
3 26 12 25
3 27 28 7
3 29 28 27
3 29 13 28
3 29 30 13
3 31 30 29
3 31 14 30
3 32 33 10
3 34 33 32
3 34 15 33
3 35 36 9
3 37 36 35
3 37 16 36
3 37 38 16
3 39 38 37
3 39 124 126
3 126 125 38
3 124 125 126
3 39 127 128
3 130 129 39
3 40 131 132
3 41 133 135
3 135 134 40
3 133 134 135
3 41 136 137
3 41 138 140
3 138 42 139
3 138 139 140
3 24 42 41
3 24 11 42
3 43 44 3
3 45 44 43
3 45 7 44
3 21 45 6
3 46 45 21
3 46 7 45
3 46 27 7
3 47 27 46
3 47 4 27
3 48 49 2
3 50 49 48
3 50 9 49
3 141 50 142
3 51 143 145
3 143 50 144
3 143 144 145
3 51 9 50
3 51 35 9
3 52 35 51
3 52 5 35
3 52 146 148
3 148 147 5
3 146 147 148
3 150 149 52
3 23 151 152
3 53 153 155
3 155 154 23
3 153 154 155
3 53 156 157
3 53 158 160
3 158 40 159
3 158 159 160
3 43 40 53
3 43 3 40
3 161 54 162
3 163 162 1
3 161 162 163
3 164 54 165
3 166 10 167
3 168 167 54
3 166 167 168
3 169 10 170
3 171 32 172
3 173 172 10
3 171 172 173
3 174 32 175
3 176 2 177
3 178 177 32
3 176 177 178
3 179 2 180
3 181 48 182
3 183 182 2
3 181 182 183
3 184 48 185
3 187 186 48
3 188 1 189
3 55 56 0
3 57 56 55
3 57 190 192
3 192 191 56
3 190 191 192
3 25 57 11
3 58 57 25
3 58 193 195
3 195 194 57
3 193 194 195
3 58 196 197
3 59 198 200
3 200 199 58
3 198 199 200
3 59 201 202
3 44 26 3
3 60 26 44
3 60 12 26
3 28 60 7
3 61 60 28
3 61 12 60
3 61 59 12
3 203 59 204
3 205 204 61
3 203 204 205
3 207 206 59
3 30 208 210
3 210 209 13
3 208 209 210
3 62 211 213
3 213 212 30
3 211 212 213
3 62 214 215
3 62 216 217
3 219 218 62
3 54 22 1
3 63 22 54
3 63 8 22
3 33 63 10
3 64 63 33
3 64 8 63
3 64 47 8
3 65 47 64
3 65 4 47
3 49 34 2
3 66 34 49
3 66 15 34
3 36 66 9
3 67 66 36
3 67 15 66
3 67 65 15
3 68 65 67
3 68 4 65
3 68 31 4
3 69 31 68
3 69 14 31
3 38 69 16
3 70 69 38
3 70 14 69
3 70 220 222
3 222 221 14
3 220 221 222
3 224 223 70
3 226 225 5
3 42 227 228
3 71 229 231
3 231 230 42
3 229 230 231
3 71 232 233
3 71 234 236
3 234 19 235
3 234 235 236
3 55 19 71
3 55 0 19
3 56 18 0
3 237 18 238
3 239 238 56
3 237 238 239
3 241 240 18
