ply
format ascii 1.0
element vertex 234
property float x
property float y
property float z
element face 216
property list uchar int vertex_index
end_header
-14.840504 39.044949 62.182808
-19.240301 43.12989 52.385033
-6.967007 48.065495 63.151062
-17.052246 41.170166 57.145611
-15.469443 48.636868 53.042202
-13.332783 46.703075 58.169682
-9.361767 51.769917 58.703606
-11.020981 44.021069 63.139236
-21.684612 45.413319 48.316948
-20.715305 36.001476 56.505543
-18.313547 33.818649 60.953278
-2.185091 57.832737 55.908173
-5.414122 55.648174 58.076675
-3.319304 50.669048 61.777473
-0.522032 54.898457 55.577621
-15.966969 40.170383 59.660179
-15.219249 43.943062 57.666035
-14.130853 42.874306 60.22797
-12.210562 45.488239 60.700447
-12.980932 41.610218 62.743214
-22.618858 33.771919 56.556789
-21.304262 32.511078 58.457813
-19.510475 34.89674 58.674236
-20.41683 44.219082 50.250393
-19.666733 47.752224 48.181389
-18.462198 46.748142 50.318314
-13.580517 51.508564 53.459827
-8.175152 50.077419 61.00156
-7.346722 53.894924 58.56588
-6.182093 51.897724 60.694107
-4.330919 53.320644 60.015251
-5.040836 49.571224 62.657589
-18.130398 42.130783 54.699787
-17.343182 45.807606 52.644558
-16.276241 44.894199 55.115429
-14.406911 47.728062 55.595318
-12.489809 50.521183 56.020428
-10.516706 53.16608 56.28167
-11.375002 49.344379 58.546688
-10.210815 47.917217 60.983646
-8.99283 46.19614 63.2953
-22.452724 41.983284 50.447624
-21.196209 40.695854 52.360172
-21.949106 37.209682 54.481735
-20.010223 39.54174 54.460712
-18.870214 38.491096 56.724365
-17.745728 37.478085 59.105507
-16.606293 36.416103 61.551064
-1.051283 58.211765 54.22081
-1.436169 54.829037 57.447845
-20.976265 48.822857 46.244591
-16.563972 49.498753 50.581085
-8.514334 55.565403 56.288403
-6.544964 57.634602 55.970554
-3.662561 56.973454 57.196777
-2.721752 54.304707 58.935287
-0.333376 53.130284 56.169029
-0.675423 53.227204 57.191358
-21.521989 30.785076 59.351376
-22.230621 31.444744 58.482079
-20.657127 31.926628 59.474865
-21.521989 30.785076 59.351376
-13.185957 53.383068 52.356378
-12.615655 52.90926 53.619121
-22.841825 40.274742 51.535434
-23.513927 41.028013 50.687233
-22.213568 39.631027 52.491709
-21.824466 41.339569 51.403898
-22.841825 40.274742 51.535434
-1.618187 58.022251 55.064492
-1.391287 59.725746 53.451643
-1.958191 59.536232 54.295324
-21.330438 47.118088 47.280769
-22.016213 47.756862 46.406734
-22.370386 46.052093 47.442913
-19.329893 49.504181 47.166054
-18.698241 49.058186 48.226974
-5.055191 57.475617 56.677511
-5.620612 58.46883 55.62445
-5.979543 56.641388 57.023615
-4.538341 56.310814 57.636726
-4.17941 58.138256 56.237562
-5.055191 57.475617 56.677511
-2.60691 51.000553 61.134166
-2.308134 52.818382 59.713074
-3.020528 52.486877 60.35638
-0.254378 54.721516 54.47933
-0.407968 56.511395 53.877172
-0.254378 54.721516 54.47933
-0.333376 53.130284 56.169029
-22.887919 32.075164 57.531566
-23.606085 32.804035 56.723873
-21.96156 33.141498 57.507301
-22.887919 32.075164 57.531566
-22.230621 31.444744 58.482079
-19.760233 33.119459 59.583077
-20.407369 33.703909 58.566024
-20.657127 31.926628 59.474865
-19.161769 32.580413 60.722597
-18.912011 34.357695 59.813757
-19.760233 33.119459 59.583077
-2.624367 59.174458 55.045783
-1.958191 59.536232 54.295324
-18.095973 48.556145 49.295437
-18.698241 49.058186 48.226974
-19.064466 47.250183 49.249852
-14.13295 51.94043 52.196256
-15.077413 50.504582 51.987444
-14.52498 50.072716 53.251014
-14.13295 51.94043 52.196256
-13.185957 53.383068 52.356378
-12.070301 52.41557 54.899422
-12.615655 52.90926 53.619121
-13.035163 51.014874 54.740127
-11.503258 51.843632 56.151049
-11.083749 53.738018 55.030043
-12.070301 52.41557 54.899422
-22.740087 44.402647 48.516825
-22.370386 46.052093 47.442913
-23.124142 42.687629 49.582163
-23.513927 41.028013 50.687233
-22.068668 43.698301 49.382286
-22.740087 44.402647 48.516825
-23.124142 42.687629 49.582163
-23.290778 34.477085 55.67666
-23.606085 32.804035 56.723873
-22.955902 36.195966 54.639133
-23.290778 34.477085 55.67666
-22.283982 35.4908 55.519262
-22.590017 37.887941 53.55249
-22.955902 36.195966 54.639133
-21.572657 38.952768 53.420953
-22.213568 39.631027 52.491709
-22.590017 37.887941 53.55249
-0.903417 59.839046 52.511853
-1.391287 59.725746 53.451643
-0.672593 58.168048 53.198767
-0.903417 59.839046 52.511853
-0.786658 56.555111 54.899215
-0.407968 56.511395 53.877172
-0.672593 58.168048 53.198767
-1.132491 53.192493 58.12647
-0.675423 53.227204 57.191358
-0.979101 54.863747 56.512733
-21.686333 49.378994 45.362164
-22.016213 47.756862 46.406734
-20.670198 50.497021 45.228665
-21.686333 49.378994 45.362164
-19.984659 50.039497 46.197655
-20.321499 48.28754 47.21299
-19.329893 49.504181 47.166054
-20.670198 50.497021 45.228665
-19.984659 50.039497 46.197655
-17.14686 49.93145 49.426823
-18.095973 48.556145 49.295437
-17.513085 48.123447 50.4497
-15.624677 50.935524 50.756885
-16.016707 49.067811 51.811644
-15.077413 50.504582 51.987444
-16.204048 51.333882 49.543769
-15.624677 50.935524 50.756885
-17.14686 49.93145 49.426823
-16.204048 51.333882 49.543769
-10.099455 55.050079 55.087151
-11.083749 53.738018 55.030043
-9.098268 56.249741 55.090518
-10.099455 55.050079 55.087151
-9.51552 54.365741 56.285037
-8.113036 57.425038 55.003193
-9.098268 56.249741 55.090518
-7.128351 58.459637 54.844268
-8.113036 57.425038 55.003193
-7.529649 56.600003 56.129479
-6.176763 59.456318 54.581659
-7.128351 58.459637 54.844268
-6.176763 59.456318 54.581659
-5.620612 58.46883 55.62445
-3.363103 58.744816 55.690084
-4.17941 58.138256 56.237562
-2.923826 57.403095 56.552475
-2.624367 59.174458 55.045783
-3.363103 58.744816 55.690084
-1.665342 53.080548 58.969352
-2.07896 54.566872 58.191566
-2.308134 52.818382 59.713074
-1.132491 53.192493 58.12647
-1.665342 53.080548 58.969352
-18.520507 32.000496 61.797384
-19.161769 32.580413 60.722597
-17.709605 33.247795 62.12855
-18.520507 32.000496 61.797384
-16.855978 34.546522 62.427443
-17.45992 35.117376 61.252171
-17.709605 33.247795 62.12855
-16.01726 35.816675 62.781453
-16.855978 34.546522 62.427443
-15.134366 37.131098 63.097324
-15.723399 37.730526 61.866936
-16.01726 35.816675 62.781453
-14.246144 38.380882 63.423755
-15.134366 37.131098 63.097324
-13.316358 39.663517 63.703958
-13.910718 40.327584 62.463011
-14.246144 38.380882 63.423755
-12.36958 40.850479 63.957148
-13.316358 39.663517 63.703958
-11.389605 42.055904 64.155159
-12.000957 42.815644 62.941225
-12.36958 40.850479 63.957148
-10.394082 43.141386 64.297981
-11.389605 42.055904 64.155159
-9.380007 44.228921 64.376013
-10.006906 45.108604 63.217268
-10.394082 43.141386 64.297981
-8.365902 45.17921 64.379096
-9.380007 44.228921 64.376013
-8.753078 43.211992 65.459809
-7.35299 46.113888 64.306977
-7.979919 47.130817 63.223181
-8.365902 45.17921 64.379096
-6.366586 46.900433 64.146034
-7.35299 46.113888 64.306977
-5.4035 47.653298 63.899298
-6.003921 48.818359 62.904325
-6.366586 46.900433 64.146034
-4.498425 48.253117 63.553824
-5.4035 47.653298 63.899298
-3.637659 48.802028 63.113765
-4.18007 50.120136 62.217531
-4.498425 48.253117 63.553824
-2.864335 49.199165 62.569036
-3.637659 48.802028 63.113765
-2.60691 51.000553 61.134166
-2.864335 49.199165 62.569036
3 57 56 14
3 0 17 15
3 0 19 17
3 58 21 59
3 61 60 21
3 1 25 23
3 63 62 26
3 2 29 27
3 2 31 29
3 3 34 32
3 5 35 16
3 5 36 35
3 5 38 36
3 7 39 18
3 7 40 39
3 64 41 65
3 66 42 67
3 68 67 41
3 66 67 68
3 9 43 20
3 9 44 43
3 9 45 44
3 10 46 22
3 10 47 46
3 11 69 71
3 69 48 70
3 69 70 71
3 11 49 48
3 8 72 74
3 72 50 73
3 72 73 74
3 76 75 24
3 4 51 33
3 6 52 37
3 12 53 28
3 12 77 79
3 79 78 53
3 77 78 79
3 12 80 82
3 80 54 81
3 80 81 82
3 13 55 30
3 13 83 85
3 85 84 55
3 83 84 85
3 14 86 87
3 89 88 14
3 15 16 3
3 17 16 15
3 17 5 16
3 17 18 5
3 19 18 17
3 19 7 18
3 90 20 91
3 21 92 94
3 92 20 93
3 92 93 94
3 21 9 20
3 21 22 9
3 95 22 96
3 97 96 21
3 95 96 97
3 98 10 99
3 100 99 22
3 98 99 100
3 101 11 102
3 23 24 8
3 25 24 23
3 25 103 105
3 105 104 24
3 103 104 105
3 26 106 108
3 108 107 4
3 106 107 108
3 110 109 26
3 27 28 6
3 29 28 27
3 29 12 28
3 29 30 12
3 31 30 29
3 31 13 30
3 32 33 1
3 34 33 32
3 34 4 33
3 16 34 3
3 35 34 16
3 35 4 34
3 35 26 4
3 36 26 35
3 36 111 113
3 113 112 26
3 111 112 113
3 36 114 116
3 114 37 115
3 114 115 116
3 38 37 36
3 38 6 37
3 18 38 5
3 39 38 18
3 39 6 38
3 39 27 6
3 40 27 39
3 40 2 27
3 117 8 118
3 41 119 120
3 41 121 123
3 121 8 122
3 121 122 123
3 41 23 8
3 42 23 41
3 42 1 23
3 20 124 125
3 43 126 128
3 128 127 20
3 126 127 128
3 43 129 130
3 43 131 133
3 131 42 132
3 131 132 133
3 44 42 43
3 44 1 42
3 44 32 1
3 45 32 44
3 45 3 32
3 22 45 9
3 46 45 22
3 46 3 45
3 46 15 3
3 47 15 46
3 47 0 15
3 48 134 135
3 48 136 137
3 48 138 140
3 138 14 139
3 138 139 140
3 49 14 48
3 49 141 143
3 143 142 14
3 141 142 143
3 50 144 145
3 50 146 147
3 24 50 8
3 148 50 149
3 150 149 24
3 148 149 150
3 152 151 50
3 33 25 1
3 51 25 33
3 51 153 155
3 155 154 25
3 153 154 155
3 156 51 157
3 158 157 4
3 156 157 158
3 159 51 160
3 162 161 51
3 37 163 164
3 52 165 167
3 167 166 37
3 165 166 167
3 52 168 169
3 28 52 6
3 53 52 28
3 53 170 172
3 172 171 52
3 170 171 172
3 53 173 174
3 176 175 53
3 54 177 178
3 54 179 181
3 179 11 180
3 179 180 181
3 30 54 12
3 55 54 30
3 55 11 54
3 55 49 11
3 182 49 183
3 184 183 55
3 182 183 184
3 186 185 49
3 187 10 188
3 189 10 190
3 191 47 192
3 193 192 10
3 191 192 193
3 194 47 195
3 196 0 197
3 198 197 47
3 196 197 198
3 199 0 200
3 201 19 202
3 203 202 0
3 201 202 203
3 204 19 205
3 206 7 207
3 208 207 19
3 206 207 208
3 209 7 210
3 211 40 212
3 213 212 7
3 211 212 213
3 214 40 215
3 214 215 216
3 217 2 218
3 219 218 40
3 217 218 219
3 220 2 221
3 222 31 223
3 224 223 2
3 222 223 224
3 225 31 226
3 227 13 228
3 229 228 31
3 227 228 229
3 230 13 231
3 233 232 13
