ply
format ascii 1.0
element vertex 174
property float x
property float y
property float z
element face 164
property list uchar int vertex_index
end_header
-44.108215 7.119026 -56.67881
-54.461662 -4.440782 -51.686432
-46.923225 -6.148543 -55.575035
-43.647507 12.994282 -54.564659
-49.395569 1.723694 -54.740509
-50.688221 -5.243153 -54.52195
-45.365147 0.546288 -57.066254
-39.11599 11.206589 -57.295738
-40.011566 5.279408 -58.344131
-41.581894 -0.992674 -57.476151
-43.259758 -7.320132 -54.71875
-43.757656 10.203255 -55.823586
-46.297989 7.79414 -55.178871
-48.882454 5.090654 -54.22979
-46.748062 4.546267 -55.864136
-47.357483 1.177885 -56.121933
-44.663071 3.869518 -57.101601
-37.065277 9.947214 -57.968956
-53.941578 -0.91128 -51.50515
-56.304928 -4.106077 -49.791916
-54.983929 -8.055757 -51.526512
-48.798893 -5.679354 -55.296028
-51.332176 -8.772832 -53.785789
-49.480591 -9.129794 -54.21714
-47.624359 -9.514548 -54.157669
-40.746681 2.154549 -58.157936
-51.449738 2.16889 -52.996323
-51.986748 -1.287546 -53.33577
-52.580605 -4.827974 -53.29364
-50.018478 -1.73741 -54.840424
-48.065216 -2.241865 -55.935158
-46.144146 -2.798567 -56.55619
-41.323902 12.230436 -56.145905
-41.54203 9.36688 -57.162781
-42.003357 6.276785 -57.75103
-39.447563 8.327955 -58.047279
-37.499931 7.100597 -58.438705
-53.1688 -8.417177 -52.87101
-42.657089 3.072773 -57.87883
-43.436512 -0.1717 -57.522316
-44.267185 -3.422812 -56.676125
-42.443657 -4.146174 -56.313293
-45.072781 -6.680757 -55.364929
-45.778774 -9.969706 -53.650055
-55.6145 -6.071111 -50.761914
-56.536133 -5.903759 -49.814656
-55.383295 -4.273429 -50.739174
-54.722796 -6.248269 -51.606472
-55.875634 -7.878599 -50.681953
-55.6145 -6.071111 -50.761914
-44.837561 13.23303 -53.586551
-43.71615 14.166996 -53.749481
-40.219946 11.718512 -56.720821
-40.191154 13.009151 -56.135162
-39.087198 12.497227 -56.710079
-36.347279 7.785903 -58.290176
-37.282604 8.523905 -58.20383
-36.129952 9.209212 -58.055301
-36.604305 6.394989 -58.383136
-36.347279 7.785903 -58.290176
-52.506561 -10.406837 -52.930301
-51.602821 -10.549726 -53.218605
-42.851708 -5.733153 -55.516022
-41.561674 -4.578928 -55.921215
-41.969724 -6.165907 -55.123943
-44.90439 10.509253 -54.954796
-44.849316 11.904767 -54.325333
-43.702581 11.598769 -55.194122
-46.174557 9.304696 -54.632438
-44.90439 10.509253 -54.954796
-45.027822 8.998698 -55.501228
-47.412987 8.03732 -54.248027
-46.174557 9.304696 -54.632438
-47.590221 6.442397 -54.70433
-48.705219 6.685577 -53.773487
-47.412987 8.03732 -54.248027
-38.00578 11.88279 -57.175156
-39.087198 12.497227 -56.710079
-36.980423 11.253103 -57.511764
-38.090633 10.576901 -57.632347
-38.00578 11.88279 -57.175156
-35.99535 10.50742 -57.731174
-36.980423 11.253103 -57.511764
-36.129952 9.209212 -58.055301
-35.99535 10.50742 -57.731174
-54.889632 -0.776034 -50.47015
-53.70804 0.78749 -51.23798
-56.071306 -2.373432 -49.613533
-54.889632 -0.776034 -50.47015
-55.123253 -2.508678 -50.648533
-57.185032 -3.983989 -48.745735
-56.951411 -2.251344 -48.567352
-56.071306 -2.373432 -49.613533
-57.399741 -5.745645 -48.846163
-57.185032 -3.983989 -48.745735
-57.630946 -7.543327 -48.868903
-57.399741 -5.745645 -48.846163
-56.536133 -5.903759 -49.814656
-56.080916 -9.722997 -50.558117
-55.875634 -7.878599 -50.681953
-55.216586 -9.892402 -51.279495
-56.080916 -9.722997 -50.558117
-50.677028 -10.728207 -53.43428
-51.602821 -10.549726 -53.218605
-50.406383 -8.951313 -54.001464
-49.756542 -10.868847 -53.479221
-50.677028 -10.728207 -53.43428
-48.828426 -11.061224 -53.449485
-49.756542 -10.868847 -53.479221
-48.552475 -9.322171 -54.187404
-47.898502 -11.219189 -53.266285
-48.828426 -11.061224 -53.449485
-39.446483 3.140802 -58.295967
-40.379124 3.716978 -58.251033
-39.078926 4.703232 -58.389065
-39.842428 1.627015 -58.048034
-39.446483 3.140802 -58.295967
-40.260035 0.053403 -57.707142
-41.164288 0.580937 -57.817043
-39.842428 1.627015 -58.048034
-42.377239 -7.718645 -54.222065
-41.969724 -6.165907 -55.123943
-43.610529 -8.933622 -53.748466
-42.377239 -7.718645 -54.222065
-44.837561 13.23303 -53.586551
-44.849316 11.904767 -54.325333
-49.951656 5.28489 -53.251389
-48.705219 6.685577 -53.773487
-51.235298 3.824008 -52.634655
-49.951656 5.28489 -53.251389
-50.166096 3.629772 -53.613056
-52.46212 2.327576 -51.983566
-51.235298 3.824008 -52.634655
-52.695658 0.628805 -52.250737
-53.70804 0.78749 -51.23798
-52.46212 2.327576 -51.983566
-42.510878 13.859445 -54.649826
-43.71615 14.166996 -53.749481
-42.579521 15.032159 -53.834648
-41.349075 13.477522 -55.440449
-40.191154 13.009151 -56.135162
-42.485704 12.612359 -55.355282
-42.510878 13.859445 -54.649826
-41.349075 13.477522 -55.440449
-37.823109 5.613827 -58.436352
-39.078926 4.703232 -58.389065
-38.755748 6.190003 -58.391418
-37.823109 5.613827 -58.436352
-36.604305 6.394989 -58.383136
-54.309021 -10.073113 -51.951744
-55.216586 -9.892402 -51.279495
-54.076364 -8.236467 -52.198761
-53.424873 -10.22901 -52.472912
-52.250488 -8.595004 -53.3284
-52.506561 -10.406837 -52.930301
-54.309021 -10.073113 -51.951744
-53.424873 -10.22901 -52.472912
-40.693737 -1.469917 -57.216755
-40.260035 0.053403 -57.707142
-41.124618 -3.046667 -56.635326
-41.561674 -4.578928 -55.921215
-42.012776 -2.569424 -56.894722
-40.693737 -1.469917 -57.216755
-41.124618 -3.046667 -56.635326
-46.97571 -11.446768 -53.012478
-47.898502 -11.219189 -53.266285
-46.701566 -9.742127 -53.903862
-44.870037 -10.258409 -53.214119
-44.519266 -8.644919 -54.184403
-43.610529 -8.933622 -53.748466
-46.047064 -11.647358 -52.639179
-44.870037 -10.258409 -53.214119
-46.97571 -11.446768 -53.012478
-46.047064 -11.647358 -52.639179
3 0 12 11
3 0 14 12
3 0 16 14
3 1 19 18
3 1 44 46
3 46 45 19
3 44 45 46
3 1 47 49
3 47 20 48
3 47 48 49
3 2 23 21
3 2 24 23
3 3 50 51
3 4 26 13
3 4 27 26
3 4 29 27
3 6 30 15
3 6 31 30
3 7 52 54
3 52 32 53
3 52 53 54
3 7 33 32
3 7 35 33
3 55 36 56
3 57 56 17
3 55 56 57
3 59 58 36
3 5 37 28
3 61 60 22
3 8 38 34
3 9 39 25
3 9 40 39
3 10 62 64
3 62 41 63
3 62 63 64
3 10 42 41
3 10 43 42
3 11 65 67
3 67 66 3
3 65 66 67
3 12 68 70
3 70 69 11
3 68 69 70
3 12 71 72
3 12 73 75
3 73 13 74
3 73 74 75
3 14 13 12
3 14 4 13
3 14 15 4
3 16 15 14
3 16 6 15
3 76 7 77
3 78 17 79
3 80 79 7
3 78 79 80
3 81 17 82
3 84 83 17
3 18 85 86
3 19 87 89
3 89 88 18
3 87 88 89
3 19 90 92
3 90 91 92
3 19 93 94
3 97 96 19
3 95 96 97
3 20 98 99
3 20 100 101
3 21 22 5
3 23 22 21
3 23 102 104
3 104 103 22
3 102 103 104
3 23 105 106
3 24 107 109
3 109 108 23
3 107 108 109
3 24 110 111
3 112 25 113
3 114 113 8
3 112 113 114
3 115 25 116
3 117 9 118
3 119 118 25
3 117 118 119
3 120 10 121
3 123 122 10
3 125 124 3
3 13 126 127
3 26 128 130
3 130 129 13
3 128 129 130
3 26 131 132
3 26 133 135
3 133 18 134
3 133 134 135
3 27 18 26
3 27 1 18
3 27 28 1
3 29 28 27
3 29 5 28
3 15 29 4
3 30 29 15
3 30 5 29
3 30 21 5
3 31 21 30
3 31 2 21
3 136 3 137
3 136 137 138
3 32 139 140
3 32 141 143
3 141 3 142
3 141 142 143
3 32 11 3
3 33 11 32
3 33 0 11
3 33 34 0
3 35 34 33
3 35 8 34
3 17 35 7
3 36 35 17
3 36 8 35
3 36 144 146
3 146 145 8
3 144 145 146
3 148 147 36
3 28 20 1
3 37 20 28
3 37 149 151
3 151 150 20
3 149 150 151
3 22 37 5
3 152 37 153
3 154 153 22
3 152 153 154
3 156 155 37
3 34 16 0
3 38 16 34
3 38 6 16
3 25 38 8
3 39 38 25
3 39 6 38
3 39 31 6
3 40 31 39
3 40 2 31
3 157 9 158
3 41 159 160
3 41 161 163
3 161 9 162
3 161 162 163
3 41 40 9
3 42 40 41
3 42 2 40
3 42 24 2
3 43 24 42
3 43 164 166
3 166 165 24
3 164 165 166
3 167 43 168
3 169 168 10
3 167 168 169
3 170 43 171
3 173 172 43
