ply
format ascii 1.0
element vertex 220
property float x
property float y
property float z
element face 203
property list uchar int vertex_index
end_header
4.48394 56.391495 58.548798
19.206142 55.129341 46.049522
17.926979 44.286819 55.492805
11.559464 57.976219 52.291214
2.081549 60.551697 54.199158
4.758841 63.371872 52.339233
18.44816 49.924446 50.817863
14.81884 51.131866 54.142555
15.373301 56.813339 48.812698
21.523571 43.444363 52.803101
22.23782 48.719284 48.641853
11.219923 51.733604 57.977455
7.829826 57.990852 55.773315
3.1605 58.632256 56.549538
3.290291 62.193184 53.412384
4.588055 59.954422 55.522461
18.794022 52.588135 48.439941
16.915882 53.337067 49.845657
17.284506 55.998695 47.307671
17.729416 58.534035 44.760544
19.682682 57.534859 43.644901
23.438305 43.142735 51.990799
21.863033 46.14344 50.740791
16.215729 44.718918 57.282829
13.204145 54.581581 53.307686
13.021276 51.55072 56.049324
11.352987 54.912453 55.181763
9.51367 54.942726 57.014328
9.670889 58.162933 54.080193
8.017097 61.240608 52.703758
9.90855 61.25222 51.043831
1.278566 62.115013 51.522934
2.23502 64.078056 50.963875
3.486149 65.5886 50.120918
18.162968 47.152306 53.173958
16.393034 47.684311 54.851555
16.621717 50.561508 52.365982
15.05685 54.028259 51.495529
13.464886 57.499702 50.502754
11.851873 60.912766 49.330734
13.813232 60.294563 47.657761
19.688919 43.839359 53.976334
19.980961 46.618828 51.78759
20.316456 49.293602 49.567886
20.704464 51.846451 47.326485
21.147865 54.26255 45.064259
14.646999 48.13549 56.731659
12.901358 48.419296 58.704178
9.422749 51.607231 59.823311
7.715212 54.609543 58.711006
6.082407 57.409424 57.285454
6.225077 60.820129 54.221771
6.443184 64.081299 51.022308
3.82222 57.511876 57.549168
3.124959 56.783604 58.032639
3.786679 55.663224 59.032269
24.431354 43.042338 51.744229
24.237736 41.708296 52.659401
23.625313 44.449641 51.00972
24.431354 43.042338 51.744229
17.071354 44.502869 56.387817
16.970332 43.031744 57.520847
17.825958 42.815694 56.625835
1.620678 59.516437 54.440911
2.034066 58.710019 55.733967
1.680057 61.333355 52.861046
1.219187 60.298096 53.102798
1.620678 59.516437 54.440911
4.881629 64.996025 50.679443
4.245283 66.104389 49.570285
4.122495 64.480236 51.230075
21.36535 42.04406 53.811764
22.301291 41.924141 53.349548
20.606245 43.641861 53.389718
20.448024 42.241558 54.398381
21.36535 42.04406 53.811764
22.44663 49.936547 47.575561
21.679952 51.50013 46.917878
21.471142 50.282868 47.984169
11.181776 50.094082 59.317249
12.022493 48.436928 59.680611
12.06064 50.07645 58.340817
10.321336 51.670417 58.900383
10.283189 50.030895 60.240177
11.181776 50.094082 59.317249
7.365624 64.211533 50.274139
7.23014 62.660954 51.863033
8.152581 62.791187 51.114864
6.59389 65.627949 49.366612
7.365624 64.211533 50.274139
11.044041 62.555202 48.630623
12.044375 62.312046 47.827191
21.395224 55.396523 43.917463
22.132671 53.84843 44.700676
2.573541 57.750298 56.909157
3.124959 56.783604 58.032639
2.621024 59.591977 55.374348
2.034066 58.710019 55.733967
2.573541 57.750298 56.909157
16.529339 57.737438 46.709614
15.573737 58.14476 47.462127
16.328903 56.406017 48.060184
16.751794 59.005108 45.436051
16.529339 57.737438 46.709614
17.506961 57.266365 46.034108
16.993362 60.269432 44.079903
16.751794 59.005108 45.436051
17.986728 59.732094 43.480227
16.993362 60.269432 44.079903
18.963361 59.232506 42.922405
17.986728 59.732094 43.480227
18.706049 58.034447 44.202723
19.948422 58.664024 42.428159
18.963361 59.232506 42.922405
23.258657 41.773327 52.943398
24.237736 41.708296 52.659401
22.480938 43.293549 52.39695
22.301291 41.924141 53.349548
23.258657 41.773327 52.943398
22.837677 45.949993 50.384716
22.650669 44.643088 51.365795
23.625313 44.449641 51.00972
23.02507 47.237915 49.335247
22.050427 47.431362 49.691322
22.837677 45.949993 50.384716
23.225492 48.470982 48.328034
23.02507 47.237915 49.335247
16.144211 43.199803 58.463207
16.970332 43.031744 57.520847
15.370297 44.885704 58.262531
16.144211 43.199803 58.463207
9.098308 62.796993 50.2849
8.152581 62.791187 51.114864
8.962823 61.246414 51.873795
0.949593 60.934033 51.66196
1.219187 60.298096 53.102798
1.020741 62.70668 50.045437
0.949593 60.934033 51.66196
1.365903 63.84217 49.864486
1.020741 62.70668 50.045437
1.84413 64.823692 49.584957
1.365903 63.84217 49.864486
1.756793 63.096535 51.243404
2.343252 65.747799 49.272144
1.84413 64.823692 49.584957
2.968816 66.503071 48.850666
2.343252 65.747799 49.272144
2.860584 64.833328 50.542397
3.619753 67.191395 48.408493
2.968816 66.503071 48.850666
3.619753 67.191395 48.408493
4.245283 66.104389 49.570285
13.025054 62.002945 46.990704
12.044375 62.312046 47.827191
12.832552 60.603664 48.494248
14.793702 59.885372 46.884659
14.593266 58.553951 48.23523
15.573737 58.14476 47.462127
14.032496 61.625 46.223759
14.793702 59.885372 46.884659
13.025054 62.002945 46.990704
14.032496 61.625 46.223759
4.459804 54.551002 59.976002
3.786679 55.663224 59.032269
18.676901 42.630564 55.807193
17.825958 42.815694 56.625835
19.557871 42.406834 55.048958
20.448024 42.241558 54.398381
18.807949 44.063089 54.734569
18.676901 42.630564 55.807193
19.557871 42.406834 55.048958
21.901653 52.708179 45.786765
20.926164 53.054501 46.195372
21.679952 51.50013 46.917878
22.132671 53.84843 44.700676
21.901653 52.708179 45.786765
22.44663 49.936547 47.575561
23.225492 48.470982 48.328034
5.243866 55.131417 59.371193
4.459804 54.551002 59.976002
14.585932 46.59399 57.986946
15.370297 44.885704 58.262531
15.431364 46.427204 57.007244
13.713112 46.735893 58.973205
14.585932 46.59399 57.986946
13.774178 48.277393 57.717918
12.863769 46.81084 59.979031
13.713112 46.735893 58.973205
12.863769 46.81084 59.979031
12.022493 48.436928 59.680611
9.401767 49.891243 61.156959
10.283189 50.030895 60.240177
8.540681 51.362125 60.660816
9.401767 49.891243 61.156959
7.686913 52.863281 60.104664
8.540681 51.362125 60.660816
8.568981 53.108387 59.267158
6.859502 54.240441 59.452297
7.686913 52.863281 60.104664
6.0431 55.640381 58.739521
6.859502 54.240441 59.452297
6.89881 56.009484 57.99823
5.283174 56.900459 57.917126
5.243866 55.131417 59.371193
6.0431 55.640381 58.739521
5.7238 65.350739 50.020981
4.881629 64.996025 50.679443
5.601012 63.726585 51.680771
5.7238 65.350739 50.020981
6.59389 65.627949 49.366612
10.07238 62.72493 49.487171
10.880211 61.082493 50.187282
11.044041 62.555202 48.630623
9.098308 62.796993 50.2849
10.07238 62.72493 49.487171
20.662633 57.032677 43.207785
20.415273 55.898704 44.35458
21.395224 55.396523 43.917463
19.948422 58.664024 42.428159
20.662633 57.032677 43.207785
3 0 53 55
3 53 13 54
3 53 54 55
3 0 15 13
3 1 18 16
3 1 19 18
3 1 20 19
3 56 21 57
3 59 58 21
3 2 60 62
3 60 23 61
3 60 61 62
3 3 26 24
3 3 28 26
3 3 30 28
3 4 63 64
3 4 65 67
3 65 31 66
3 65 66 67
3 4 32 31
3 5 33 14
3 5 68 70
3 70 69 33
3 68 69 70
3 6 36 34
3 8 37 17
3 8 38 37
3 8 40 38
3 9 71 72
3 9 73 75
3 73 41 74
3 73 74 75
3 9 42 41
3 10 43 22
3 10 44 43
3 10 76 78
3 78 77 44
3 76 77 78
3 7 46 35
3 11 47 25
3 11 79 81
3 81 80 47
3 79 80 81
3 11 82 84
3 82 48 83
3 82 83 84
3 12 49 27
3 12 50 49
3 12 51 50
3 85 52 86
3 87 86 29
3 85 86 87
3 89 88 52
3 91 90 39
3 93 92 45
3 13 94 95
3 13 96 98
3 96 4 97
3 96 97 98
3 13 14 4
3 15 14 13
3 15 5 14
3 16 17 6
3 18 17 16
3 18 8 17
3 18 99 101
3 101 100 8
3 99 100 101
3 19 102 104
3 104 103 18
3 102 103 104
3 19 105 106
3 19 107 108
3 20 109 111
3 111 110 19
3 109 110 111
3 20 112 113
3 21 114 115
3 21 116 118
3 116 9 117
3 116 117 118
3 21 22 9
3 119 22 120
3 121 120 21
3 119 120 121
3 122 10 123
3 124 123 22
3 122 123 124
3 126 125 10
3 23 127 128
3 23 129 130
3 24 25 7
3 26 25 24
3 26 11 25
3 26 27 11
3 28 27 26
3 28 12 27
3 28 29 12
3 30 29 28
3 30 131 133
3 133 132 29
3 131 132 133
3 31 134 135
3 31 136 137
3 31 138 139
3 32 140 142
3 142 141 31
3 140 141 142
3 32 143 144
3 14 32 4
3 33 32 14
3 33 145 147
3 147 146 32
3 145 146 147
3 33 148 149
3 151 150 33
3 34 35 2
3 36 35 34
3 36 7 35
3 17 36 6
3 37 36 17
3 37 7 36
3 37 24 7
3 38 24 37
3 38 3 24
3 38 39 3
3 40 39 38
3 40 152 154
3 154 153 39
3 152 153 154
3 155 40 156
3 157 156 8
3 155 156 157
3 158 40 159
3 161 160 40
3 162 0 163
3 164 2 165
3 41 166 167
3 41 168 170
3 168 2 169
3 168 169 170
3 41 34 2
3 42 34 41
3 42 6 34
3 22 42 9
3 43 42 22
3 43 6 42
3 43 16 6
3 44 16 43
3 44 1 16
3 44 45 1
3 171 45 172
3 173 172 44
3 171 172 173
3 175 174 45
3 177 176 10
3 178 0 179
3 35 23 2
3 46 23 35
3 46 180 182
3 182 181 23
3 180 181 182
3 25 46 7
3 47 46 25
3 47 183 185
3 185 184 46
3 183 184 185
3 47 186 187
3 189 188 47
3 48 190 191
3 48 192 193
3 27 48 11
3 49 48 27
3 49 194 196
3 196 195 48
3 194 195 196
3 49 197 198
3 50 199 201
3 201 200 49
3 199 200 201
3 50 202 204
3 202 0 203
3 202 203 204
3 50 15 0
3 51 15 50
3 51 5 15
3 29 51 12
3 52 51 29
3 52 5 51
3 52 205 207
3 207 206 5
3 205 206 207
3 209 208 52
3 39 30 3
3 210 30 211
3 212 211 39
3 210 211 212
3 214 213 30
3 45 20 1
3 215 20 216
3 217 216 45
3 215 216 217
3 219 218 20
