ply
format ascii 1.0
element vertex 233
property float x
property float y
property float z
element face 221
property list uchar int vertex_index
end_header
-7.012196 -82.973381 20.524376
-5.059523 -86.424789 29.708662
-2.147373 -77.115189 28.699833
-2.750475 -74.149933 20.030643
-4.091846 -88.044296 34.619877
-5.333174 -91.203537 30.17598
-4.811018 -92.920624 35.313354
-2.896481 -83.331879 33.906906
-4.609783 -80.214409 24.703579
-2.440306 -75.610703 24.346163
-6.059046 -84.645294 25.009418
-7.095104 -87.457977 20.564932
-6.121305 -89.273407 25.223454
-3.821381 -81.851456 29.212795
-4.988951 -97.965622 36.005394
-3.668541 -88.736023 37.138145
-4.528849 -90.4534 34.963966
-4.218355 -91.162079 37.522018
-3.052805 -86.344315 36.743172
-5.90172 -81.590637 22.639942
-4.95163 -79.408401 22.498245
-5.563433 -85.539673 27.331499
-6.285263 -86.917786 25.117659
-5.800114 -87.851288 27.496227
-5.071142 -93.718582 30.449881
-5.284065 -92.73674 27.875195
-4.030437 -84.938461 31.844267
-3.369612 -82.623322 31.533464
-4.533892 -84.131271 29.470724
-5.019342 -83.283508 27.148577
-2.57518 -74.863945 22.185844
-1.330568 -73.125824 24.234488
-1.370018 -72.416016 22.092556
-1.482496 -71.733276 19.945148
-4.562325 -87.268082 32.139931
-5.335358 -88.774078 29.936138
-4.905991 -89.650681 32.429626
-5.03311 -92.105347 32.731487
-4.957949 -94.630112 33.05764
-3.528858 -85.681442 34.269875
-3.302698 -78.752365 26.716671
-2.308006 -76.369392 26.513813
-3.563377 -77.959976 24.516346
-3.80335 -77.18222 22.334908
-6.540287 -83.778305 22.740818
-7.288706 -85.179306 20.557373
-6.781679 -86.014023 22.804144
-6.587639 -88.329025 22.853567
-5.978472 -90.742706 22.923035
-5.700003 -90.246506 27.667908
-5.589088 -91.728241 25.359512
-1.93882 -77.823265 30.919638
-2.260706 -80.947083 33.538239
-2.651312 -80.27037 31.216211
-3.000906 -79.531448 28.945847
-4.236174 -81.038979 26.939068
-5.475224 -82.425476 24.873444
-4.673058 -93.625275 37.897255
-4.948086 -95.435318 35.668606
-1.325333 -73.846161 26.371546
-3.763822 -90.247063 38.601192
-3.943448 -89.949051 37.330082
-3.488916 -89.034035 38.409256
-3.488916 -89.034035 38.409256
-3.146837 -87.826966 38.196571
-7.413276 -83.708378 19.451953
-7.251217 -82.614475 19.443241
-6.66206 -81.891579 20.484784
-6.106822 -81.200207 21.542567
-6.456958 -82.282009 21.582159
-7.251217 -82.614475 19.443241
-6.66206 -81.891579 20.484784
-4.847817 -94.518379 29.291432
-4.843171 -95.01284 30.605588
-1.731841 -75.835587 28.607368
-1.709532 -76.174233 29.691073
-2.87776 -73.815956 18.959993
-2.243771 -72.607628 18.917245
-2.116486 -72.941605 19.987896
-4.543814 -77.915329 21.327281
-4.37749 -78.29531 22.416576
-5.117954 -79.028419 21.408949
-3.928799 -76.812805 21.252049
-4.543814 -77.915329 21.327281
-5.177094 -93.006974 25.454423
-5.436577 -92.23249 26.617354
-5.024583 -93.511223 26.712265
-5.310783 -92.496376 24.200442
-5.177094 -93.006974 25.454423
-1.807563 -78.147808 32.053859
-1.554647 -76.84074 31.906173
-1.423391 -77.165283 33.040394
-2.578594 -82.139481 33.722572
-2.053797 -81.246674 34.727908
-2.371685 -82.439072 34.912241
-7.370525 -87.076866 19.463323
-7.467326 -85.937531 19.459543
-7.191905 -86.318641 20.561152
-4.645373 -93.912636 39.177626
-4.328118 -92.693711 38.990555
-4.968519 -96.70047 35.837
-4.992761 -95.770042 36.960178
-5.013193 -97.035194 37.128573
-4.863786 -97.584572 34.701746
-4.843354 -96.31942 34.533352
-4.968519 -96.70047 35.837
-0.867192 -72.141953 25.28048
-0.814685 -71.804699 24.225617
-2.838969 -86.631112 37.999085
-2.51701 -85.424583 37.776656
-3.360673 -87.540169 36.940658
-2.838969 -86.631112 37.999085
-3.146837 -87.826966 38.196571
-5.631777 -80.109088 21.471719
-5.426675 -80.499519 22.569094
-6.106822 -81.200207 21.542567
-5.117954 -79.028419 21.408949
-5.631777 -80.109088 21.471719
-4.954278 -94.027458 28.004089
-5.177604 -93.227661 29.162538
-4.847817 -94.518379 29.291432
-5.024583 -93.511223 26.712265
-4.954278 -94.027458 28.004089
-7.044166 -88.245689 19.451685
-6.771109 -88.64421 20.572373
-5.169369 -98.261726 37.276318
-5.013193 -97.035194 37.128573
-0.83441 -71.449795 23.15465
-0.814685 -71.804699 24.225617
-1.350293 -72.77092 23.163522
-0.815736 -71.117501 22.090952
-0.83441 -71.449795 23.15465
-0.871975 -70.77613 21.017248
-0.815736 -71.117501 22.090952
-1.426257 -72.074646 21.018852
-0.903696 -70.454472 19.945446
-0.871975 -70.77613 21.017248
-1.592424 -71.410137 18.874159
-0.903696 -70.454472 19.945446
-1.592424 -71.410137 18.874159
-2.243771 -72.607628 18.917245
-4.786575 -95.468605 31.909467
-4.843171 -95.01284 30.605588
-5.014546 -94.174347 31.75376
-2.66077 -83.646843 35.120441
-2.371685 -82.439072 34.912241
-2.738933 -85.153061 36.538574
-2.51701 -85.424583 37.776656
-2.976959 -84.821624 35.301926
-2.738933 -85.153061 36.538574
-3.290832 -86.012878 35.506524
-3.21267 -84.506661 34.088391
-2.66077 -83.646843 35.120441
-2.976959 -84.821624 35.301926
-3.314713 -75.653667 21.177516
-3.189265 -76.023083 22.260376
-3.928799 -76.812805 21.252049
-3.402361 -75.296661 20.099916
-2.662827 -74.506939 21.108244
-3.314713 -75.653667 21.177516
-3.552082 -74.954849 19.028238
-3.402361 -75.296661 20.099916
-6.517377 -89.079735 21.716691
-6.771109 -88.64421 20.572373
-6.841372 -87.893501 21.709249
-6.212794 -90.286575 21.751425
-6.517377 -89.079735 21.716691
-6.283055 -89.535865 22.888301
-5.700143 -91.526665 21.777956
-6.212794 -90.286575 21.751425
-5.505475 -92.003608 22.982203
-5.78378 -91.235473 24.141273
-5.310783 -92.496376 24.200442
-5.700143 -91.526665 21.777956
-5.505475 -92.003608 22.982203
-1.605256 -76.528271 30.800975
-1.554647 -76.84074 31.906173
-2.043096 -77.469227 29.809736
-1.709532 -76.174233 29.691073
-1.605256 -76.528271 30.800975
-1.813987 -79.996998 34.526882
-2.053797 -81.246674 34.727908
-1.968506 -79.709717 33.363159
-1.813987 -79.996998 34.526882
-2.163809 -79.371361 32.202146
-1.968506 -79.709717 33.363159
-2.456009 -80.608727 32.377225
-2.295066 -79.046818 31.067925
-1.807563 -78.147808 32.053859
-2.163809 -79.371361 32.202146
-7.551531 -84.811341 19.468452
-7.413276 -83.708378 19.451953
-7.150451 -84.076344 20.540875
-7.551531 -84.811341 19.468452
-7.467326 -85.937531 19.459543
-7.370525 -87.076866 19.463323
-7.044166 -88.245689 19.451685
-4.100766 -91.462113 38.802937
-3.763822 -90.247063 38.601192
-4.445707 -92.393677 37.709637
-4.100766 -91.462113 38.802937
-4.328118 -92.693711 38.990555
-4.855247 -94.865021 38.074503
-4.645373 -93.912636 39.177626
-4.810572 -94.530296 36.78293
-4.855247 -94.865021 38.074503
-4.992761 -95.770042 36.960178
-4.848285 -95.916817 33.227869
-4.953017 -95.032715 34.363123
-4.843354 -96.31942 34.533352
-4.786575 -95.468605 31.909467
-4.848285 -95.916817 33.227869
-5.000585 -99.213798 36.136219
-5.169369 -98.261726 37.276318
-4.728344 -98.87645 34.85764
-5.000585 -99.213798 36.136219
-4.863786 -97.584572 34.701746
-4.728344 -98.87645 34.85764
-1.812157 -75.462688 27.514359
-1.731841 -75.835587 28.607368
-2.227689 -76.74229 27.606823
-1.320821 -74.201072 27.443225
-1.812157 -75.462688 27.514359
-1.816669 -75.107776 26.442679
-0.931452 -72.836178 27.400181
-1.320821 -74.201072 27.443225
-0.864575 -72.502121 26.34901
-1.327951 -73.485992 25.303017
-0.867192 -72.141953 25.28048
-0.931452 -72.836178 27.400181
-0.864575 -72.502121 26.34901
-2.87776 -73.815956 18.959993
-3.552082 -74.954849 19.028238
3 60 17 61
3 62 61 15
3 60 61 62
3 63 15 64
3 0 65 66
3 0 67 69
3 69 68 19
3 67 68 69
3 0 70 71
3 1 23 21
3 73 72 24
3 1 28 26
3 1 21 28
3 2 74 75
3 3 32 30
3 3 33 32
3 3 76 78
3 78 77 33
3 76 77 78
3 4 36 34
3 6 37 16
3 6 38 37
3 4 39 18
3 4 34 39
3 8 42 40
3 79 43 80
3 81 80 20
3 79 80 81
3 83 82 43
3 10 46 44
3 12 47 22
3 12 48 47
3 5 49 35
3 84 50 85
3 86 85 25
3 84 85 86
3 88 87 50
3 89 51 90
3 89 90 91
3 7 92 94
3 92 52 93
3 92 93 94
3 13 53 27
3 13 54 53
3 13 55 54
3 10 56 29
3 10 44 56
3 11 95 97
3 97 96 45
3 95 96 97
3 98 57 99
3 14 100 102
3 100 58 101
3 100 101 102
3 14 103 105
3 105 104 58
3 103 104 105
3 9 59 41
3 107 106 31
3 15 16 4
3 17 16 15
3 17 6 16
3 108 18 109
3 15 110 112
3 110 18 111
3 110 111 112
3 15 4 18
3 19 20 8
3 113 20 114
3 115 114 19
3 113 114 115
3 117 116 20
3 21 22 10
3 23 22 21
3 23 12 22
3 24 25 5
3 118 25 119
3 120 119 24
3 118 119 120
3 122 121 25
3 26 27 7
3 28 27 26
3 28 13 27
3 28 29 13
3 21 29 28
3 21 10 29
3 124 123 11
3 125 14 126
3 30 31 9
3 32 31 30
3 32 127 129
3 129 128 31
3 127 128 129
3 32 130 131
3 33 132 134
3 134 133 32
3 132 133 134
3 33 135 136
3 33 137 138
3 140 139 33
3 34 35 1
3 36 35 34
3 36 5 35
3 16 36 4
3 37 36 16
3 37 5 36
3 37 24 5
3 38 24 37
3 38 141 143
3 143 142 24
3 141 142 143
3 144 7 145
3 18 146 147
3 39 148 150
3 150 149 18
3 148 149 150
3 39 151 153
3 151 7 152
3 151 152 153
3 39 26 7
3 34 26 39
3 34 1 26
3 40 41 2
3 42 41 40
3 42 9 41
3 20 42 8
3 43 42 20
3 43 9 42
3 43 30 9
3 154 30 155
3 156 155 43
3 154 155 156
3 157 3 158
3 159 158 30
3 157 158 159
3 161 160 3
3 44 45 0
3 46 45 44
3 46 11 45
3 22 46 10
3 47 46 22
3 47 11 46
3 47 162 164
3 164 163 11
3 162 163 164
3 48 165 167
3 167 166 47
3 165 166 167
3 48 168 169
3 35 23 1
3 49 23 35
3 49 12 23
3 25 49 5
3 50 49 25
3 50 12 49
3 50 48 12
3 170 48 171
3 172 171 50
3 170 171 172
3 174 173 48
3 51 175 176
3 51 177 179
3 177 2 178
3 177 178 179
3 52 180 181
3 52 182 183
3 27 52 7
3 53 52 27
3 53 184 186
3 186 185 52
3 184 185 186
3 53 187 189
3 187 51 188
3 187 188 189
3 54 51 53
3 54 2 51
3 54 40 2
3 55 40 54
3 55 8 40
3 29 55 13
3 56 55 29
3 56 8 55
3 56 19 8
3 44 19 56
3 44 0 19
3 45 190 192
3 192 191 0
3 190 191 192
3 194 193 45
3 196 195 11
3 197 17 198
3 57 199 201
3 199 17 200
3 199 200 201
3 57 6 17
3 202 57 203
3 58 204 206
3 204 57 205
3 204 205 206
3 58 6 57
3 58 38 6
3 207 38 208
3 209 208 58
3 207 208 209
3 211 210 38
3 212 14 213
3 214 14 215
3 217 216 14
3 41 218 220
3 220 219 2
3 218 219 220
3 59 221 223
3 223 222 41
3 221 222 223
3 59 224 225
3 31 59 9
3 226 59 227
3 228 227 31
3 226 227 228
3 230 229 59
3 232 231 3
