ply
format ascii 1.0
element vertex 89
property float x
property float y
property float z
element face 74
property list uchar int vertex_index
end_header
-3.839468 87.254578 -10.002209
-4.59244 81.961609 -22.825436
-7.444126 87.602966 -12.149429
-8.33 85.11441 -18.184132
-3.967037 85.235214 -16.929722
-5.406023 87.713623 -11.208435
-5.588692 86.719986 -14.584372
-3.860714 86.388306 -13.561659
-6.349079 83.822922 -20.568985
-6.968695 81.856598 -23.050148
-2.63413 85.491699 -12.268387
-7.815004 86.506683 -15.301279
-5.89344 85.433273 -17.726124
-4.200363 83.769547 -20.041313
-2.572451 84.485382 -15.811928
-2.597355 83.181793 -19.149155
-2.754183 81.553955 -22.208153
-7.629565 87.054824 -13.725354
-8.869549 86.745812 -14.051872
-8.68411 87.293953 -12.475946
-2.124205 83.846123 -15.117057
-2.60329 84.98854 -14.040157
-2.155044 84.349281 -13.345287
-2.03403 81.902359 -20.178509
-2.063359 82.62397 -18.537537
-2.112444 81.08844 -21.708008
-2.675769 82.367874 -20.678654
-2.03403 81.902359 -20.178509
-2.151584 80.202988 -23.199327
-2.112444 81.08844 -21.708008
-9.771787 84.735954 -18.253725
-9.412399 85.467911 -16.946316
-7.674607 83.605927 -20.654187
-8.665067 84.251671 -19.46176
-7.339539 84.468666 -19.376559
-7.984415 82.622765 -21.894768
-7.674607 83.605927 -20.654187
-6.658887 82.83976 -21.809567
-8.393658 81.575554 -22.983597
-7.984415 82.622765 -21.894768
-2.684409 85.857025 -10.423023
-3.236799 86.373138 -11.135298
-3.287078 86.738464 -9.289935
-2.247091 84.780128 -11.51546
-2.684409 85.857025 -10.423023
-2.155044 84.349281 -13.345287
-2.247091 84.780128 -11.51546
-4.875906 80.874237 -24.021313
-3.83562 80.76873 -23.869439
-9.154902 86.164047 -15.50489
-8.869549 86.745812 -14.051872
-8.072502 85.810547 -16.742705
-9.412399 85.467911 -16.946316
-9.154902 86.164047 -15.50489
-2.050906 83.275765 -16.868924
-2.124205 83.846123 -15.117057
-2.584903 83.833587 -17.480542
-2.050906 83.275765 -16.868924
-2.063359 82.62397 -18.537537
-2.916492 80.564903 -23.560797
-3.83562 80.76873 -23.869439
-3.673311 81.757782 -22.516794
-2.916492 80.564903 -23.560797
-2.151584 80.202988 -23.199327
-8.467795 87.744445 -10.903364
-8.68411 87.293953 -12.475946
-7.317327 88.01696 -10.467413
-8.467795 87.744445 -10.903364
-6.298276 88.072288 -9.996916
-6.425075 87.658294 -11.678932
-7.317327 88.01696 -10.467413
-5.356161 88.074341 -9.431869
-6.298276 88.072288 -9.996916
-4.572883 87.844819 -8.828757
-4.622746 87.4841 -10.605322
-5.356161 88.074341 -9.431869
-3.848927 87.552597 -8.152716
-4.572883 87.844819 -8.828757
-3.287078 86.738464 -9.289935
-3.848927 87.552597 -8.152716
-9.771787 84.735954 -18.253725
-8.665067 84.251671 -19.46176
-6.064034 80.821731 -24.133669
-5.780568 81.909104 -22.937792
-4.875906 80.874237 -24.021313
-7.358289 80.684098 -24.085707
-6.064034 80.821731 -24.133669
-8.393658 81.575554 -22.983597
-7.358289 80.684098 -24.085707
3 0 7 5
3 1 9 8
3 2 17 19
3 17 11 18
3 17 18 19
3 4 12 6
3 4 13 12
3 20 14 21
3 22 21 10
3 20 21 22
3 23 15 24
3 25 16 26
3 27 26 15
3 25 26 27
3 29 28 16
3 3 30 31
3 5 6 2
3 7 6 5
3 7 4 6
3 8 32 34
3 34 33 3
3 32 33 34
3 9 35 37
3 37 36 8
3 35 36 37
3 9 38 39
3 40 10 41
3 42 41 0
3 40 41 42
3 43 10 44
3 46 45 10
3 48 47 1
3 11 49 50
3 11 51 53
3 51 3 52
3 51 52 53
3 6 11 2
3 12 11 6
3 12 3 11
3 12 8 3
3 13 8 12
3 13 1 8
3 10 7 0
3 14 7 10
3 14 4 7
3 54 14 55
3 15 56 58
3 56 14 57
3 56 57 58
3 15 4 14
3 15 13 4
3 16 13 15
3 16 1 13
3 16 59 61
3 61 60 1
3 59 60 61
3 63 62 16
3 64 2 65
3 66 2 67
3 68 5 69
3 70 69 2
3 68 69 70
3 71 5 72
3 73 0 74
3 75 74 5
3 73 74 75
3 76 0 77
3 79 78 0
3 81 80 3
3 82 9 83
3 84 83 1
3 82 83 84
3 85 9 86
3 88 87 9
