ply
format ascii 1.0
element vertex 208
property float x
property float y
property float z
element face 197
property list uchar int vertex_index
end_header
-24.534115 48.004314 44.954773
-33.646557 42.445 47.799778
-39.898808 46.834438 39.573532
-31.356678 52.763752 38.396225
-40.36261 41.678013 43.842533
-29.061016 44.949375 46.373817
-32.439713 47.787487 43.128723
-27.790401 50.532063 41.825935
-26.769913 55.729771 37.244133
-23.408756 53.989567 40.704948
-36.869461 45.047024 43.954002
-35.962631 50.007061 39.331505
-41.534687 39.643547 43.403191
-26.765606 46.361721 45.610672
-28.392807 47.789616 44.090096
-26.114897 49.298977 43.399956
-25.546442 52.136005 41.207672
-23.922943 51.05077 42.826218
-21.839722 53.089283 42.419048
-22.396402 49.935131 44.479736
-41.366905 44.964817 39.374168
-39.586899 49.31216 37.356575
-35.257385 43.860229 45.956062
-31.884945 50.312916 40.779343
-34.204048 48.968739 41.300655
-33.695229 51.402409 38.926682
-35.482697 52.404583 36.947361
-33.180939 53.790646 36.500114
-30.836382 55.165363 35.96257
-24.632099 57.488674 36.750088
-41.471992 42.351147 41.419849
-40.151085 44.299572 41.734459
-31.374733 43.678513 47.140656
-33.028664 45.168789 45.465004
-30.716278 46.445164 44.811722
-30.105677 49.11208 42.495102
-29.546146 51.684811 40.169704
-29.026934 54.1777 37.811058
-27.253965 53.175716 39.552551
-25.057308 54.865147 38.999435
-22.986153 56.806164 38.552826
-21.048853 59.016285 38.212349
-21.392805 56.123486 40.343426
-27.485455 43.34074 47.866856
-25.232464 44.873943 47.126823
-23.05616 46.690868 46.568878
-23.795561 43.391975 48.716702
-38.781815 43.469391 44.027916
-38.436874 46.025928 41.814873
-34.722916 46.462223 43.638969
-36.420383 47.564297 41.662331
-38.064693 48.503048 39.556999
-37.651146 50.931126 37.245193
-40.544832 47.172134 38.420761
-41.278881 46.237324 38.321079
-40.632857 45.899627 39.47385
-39.742854 48.073299 38.465053
-40.388878 48.410995 37.312282
-40.544832 47.172134 38.420761
-34.451971 43.152614 46.87792
-35.529857 42.503021 47.104602
-34.724443 41.795406 48.02646
-24.440365 58.751159 35.604164
-23.635872 58.491203 36.548243
-20.853962 54.253605 42.300245
-21.101926 52.630234 43.315893
-26.738357 42.514427 48.613716
-27.865296 41.798334 49.019911
-25.611861 43.281028 48.2437
-26.35896 44.107341 47.49684
-26.738357 42.514427 48.613716
-24.89341 42.540045 49.03864
-24.514012 44.132959 47.921762
-25.611861 43.281028 48.2437
-37.825638 44.258207 43.990959
-38.048703 42.949549 45.120533
-37.092526 43.738366 45.083576
-36.330578 52.872544 35.906906
-35.221922 53.595543 35.72229
-27.648366 56.171436 36.324756
-28.776877 55.395401 36.608219
-27.898423 54.953736 37.527596
-19.36146 60.002418 39.017738
-20.139573 60.246216 38.0728
-20.27074 58.772487 39.157288
-22.016213 47.756862 46.406734
-22.370386 46.052093 47.442913
-41.560339 38.234884 44.358168
-41.900114 38.500841 43.067635
-41.043097 39.294981 44.646603
-41.560339 38.234884 44.358168
-40.457058 40.312214 44.866274
-40.948648 40.66078 43.622862
-41.043097 39.294981 44.646603
-21.380266 51.053158 44.346237
-21.101926 52.630234 43.315893
-22.118062 51.512207 43.449392
-41.873753 45.23418 38.179325
-41.881382 43.919834 39.171409
-41.873753 45.23418 38.179325
-41.278881 46.237324 38.321079
-40.252673 49.663845 36.225655
-40.388878 48.410995 37.312282
-39.391507 50.537819 36.214815
-40.252673 49.663845 36.225655
-36.286487 43.144968 46.084606
-35.529857 42.503021 47.104602
-36.063423 44.453626 44.955032
-37.092526 43.738366 45.083576
-36.286487 43.144968 46.084606
-34.071043 54.288575 35.498666
-35.221922 53.595543 35.72229
-34.331818 53.097615 36.723737
-32.90989 54.976658 35.256008
-33.799993 55.474587 34.25456
-34.071043 54.288575 35.498666
-31.737611 55.664017 34.987236
-32.90989 54.976658 35.256008
-32.008661 54.478004 36.231342
-30.567698 56.355778 34.71931
-31.737611 55.664017 34.987236
-25.473808 57.849877 35.821176
-26.542715 56.970425 36.068199
-25.701006 56.609223 36.99711
-25.473808 57.849877 35.821176
-24.440365 58.751159 35.604164
-41.938996 39.904387 42.144593
-41.900114 38.500841 43.067635
-41.907648 41.258186 41.152921
-41.938996 39.904387 42.144593
-41.503339 40.997347 42.41152
-41.933926 42.612999 40.19425
-41.907648 41.258186 41.152921
-41.419449 43.657982 40.397008
-41.881382 43.919834 39.171409
-41.933926 42.612999 40.19425
-22.812899 58.149948 37.449612
-23.635872 58.491203 36.548243
-23.809126 57.147419 37.651457
-22.017503 57.911225 38.382587
-21.844249 59.255009 37.279373
-22.812899 58.149948 37.449612
-20.442715 57.326088 40.222826
-20.27074 58.772487 39.157288
-21.220829 57.569885 39.277888
-20.630503 55.770707 41.262434
-21.616263 54.606385 41.381237
-20.853962 54.253605 42.300245
-20.442715 57.326088 40.222826
-20.630503 55.770707 41.262434
-33.961294 41.027253 48.961994
-34.724443 41.795406 48.02646
-32.854935 41.628771 48.642668
-33.961294 41.027253 48.961994
-31.719023 42.245528 48.313107
-32.510645 43.061757 47.470217
-32.854935 41.628771 48.642668
-30.576875 42.84919 47.916872
-31.719023 42.245528 48.313107
-29.420017 43.484621 47.533453
-30.217875 44.313944 46.757237
-30.576875 42.84919 47.916872
-28.632237 42.680303 48.279972
-27.865296 41.798334 49.019911
-28.273235 44.145058 47.120337
-29.420017 43.484621 47.533453
-28.632237 42.680303 48.279972
-22.740087 44.402647 48.516825
-22.370386 46.052093 47.442913
-23.42586 45.041421 47.64279
-24.185346 41.732359 49.821772
-24.89341 42.540045 49.03864
-23.124142 42.687629 49.582163
-24.185346 41.732359 49.821772
-22.740087 44.402647 48.516825
-23.124142 42.687629 49.582163
-39.735868 41.242579 45.018664
-40.457058 40.312214 44.866274
-38.945471 42.138267 45.111355
-38.048703 42.949549 45.120533
-39.572212 42.573702 43.935225
-39.735868 41.242579 45.018664
-38.945471 42.138267 45.111355
-38.42363 51.347302 36.159124
-39.391507 50.537819 36.214815
-38.619022 50.121643 37.300884
-37.414802 52.135815 36.055822
-36.566921 51.667855 37.096277
-36.330578 52.872544 35.906906
-38.42363 51.347302 36.159124
-37.414802 52.135815 36.055822
-29.681601 55.889232 35.683975
-29.931658 54.671532 36.886814
-28.776877 55.395401 36.608219
-30.567698 56.355778 34.71931
-29.681601 55.889232 35.683975
-27.648366 56.171436 36.324756
-26.542715 56.970425 36.068199
-20.921585 60.383469 37.108021
-21.844249 59.255009 37.279373
-20.921585 60.383469 37.108021
-20.139573 60.246216 38.0728
-21.686333 49.378994 45.362164
-22.726281 48.313 45.524307
-22.016213 47.756862 46.406734
-20.670198 50.497021 45.228665
-21.380266 51.053158 44.346237
-21.686333 49.378994 45.362164
3 0 15 13
3 0 17 15
3 0 19 17
3 2 53 55
3 55 54 20
3 53 54 55
3 2 56 58
3 56 21 57
3 56 57 58
3 1 59 61
3 59 22 60
3 59 60 61
3 3 25 23
3 3 27 25
3 3 28 27
3 63 62 29
3 4 30 12
3 4 31 30
3 5 34 32
3 7 35 14
3 7 36 35
3 7 38 36
3 9 39 16
3 9 40 39
3 9 42 40
3 65 64 18
3 66 43 67
3 68 44 69
3 70 69 43
3 68 69 70
3 71 46 72
3 73 72 44
3 71 72 73
3 10 74 76
3 74 47 75
3 74 75 76
3 10 48 47
3 6 49 33
3 11 50 24
3 11 51 50
3 11 52 51
3 78 77 26
3 8 79 81
3 81 80 37
3 79 80 81
3 84 83 41
3 82 83 84
3 86 85 45
3 87 12 88
3 89 12 90
3 91 4 92
3 93 92 12
3 91 92 93
3 13 14 5
3 15 14 13
3 15 7 14
3 15 16 7
3 17 16 15
3 17 9 16
3 17 18 9
3 19 18 17
3 19 94 96
3 96 95 18
3 94 95 96
3 20 97 98
3 100 99 20
3 21 101 102
3 21 103 104
3 22 105 106
3 22 107 109
3 107 10 108
3 107 108 109
3 23 24 6
3 25 24 23
3 25 11 24
3 25 26 11
3 27 26 25
3 27 110 112
3 112 111 26
3 110 111 112
3 27 113 115
3 113 114 115
3 28 116 118
3 118 117 27
3 116 117 118
3 28 119 120
3 29 121 123
3 123 122 8
3 121 122 123
3 125 124 29
3 12 126 127
3 30 128 130
3 130 129 12
3 128 129 130
3 30 131 132
3 30 133 135
3 133 20 134
3 133 134 135
3 31 20 30
3 31 2 20
3 32 33 1
3 34 33 32
3 34 6 33
3 14 34 5
3 35 34 14
3 35 6 34
3 35 23 6
3 36 23 35
3 36 3 23
3 36 37 3
3 38 37 36
3 38 8 37
3 16 38 7
3 39 38 16
3 39 8 38
3 39 29 8
3 40 29 39
3 40 136 138
3 138 137 29
3 136 137 138
3 40 139 141
3 139 41 140
3 139 140 141
3 42 41 40
3 42 142 144
3 144 143 41
3 142 143 144
3 18 42 9
3 145 42 146
3 147 146 18
3 145 146 147
3 149 148 42
3 150 1 151
3 152 1 153
3 154 32 155
3 156 155 1
3 154 155 156
3 157 32 158
3 159 5 160
3 161 160 32
3 159 160 161
3 43 162 163
3 43 164 166
3 164 5 165
3 164 165 166
3 43 13 5
3 44 13 43
3 44 0 13
3 44 45 0
3 46 45 44
3 46 167 169
3 169 168 45
3 167 168 169
3 170 46 171
3 172 46 173
3 175 174 46
3 176 4 177
3 47 178 179
3 47 180 182
3 180 4 181
3 180 181 182
3 47 31 4
3 48 31 47
3 48 2 31
3 33 22 1
3 49 22 33
3 49 10 22
3 24 49 6
3 50 49 24
3 50 10 49
3 50 48 10
3 51 48 50
3 51 2 48
3 51 21 2
3 52 21 51
3 52 183 185
3 185 184 21
3 183 184 185
3 26 52 11
3 186 52 187
3 188 187 26
3 186 187 188
3 190 189 52
3 37 28 3
3 191 28 192
3 193 192 37
3 191 192 193
3 195 194 28
3 197 196 8
3 41 198 199
3 201 200 41
3 45 19 0
3 202 19 203
3 204 203 45
3 202 203 204
3 207 206 19
3 205 206 207
