ply
format ascii 1.0
element vertex 169
property float x
property float y
property float z
element face 147
property list uchar int vertex_index
end_header
3.275688 -92.553642 -5.13854
7.430115 -96.397644 -12.941547
4.13665 -94.900162 -9.099644
4.998421 -89.834267 -1.836802
2.328968 -99.64048 -6.568405
3.995409 -102.026299 -11.117901
7.853437 -103.101562 -14.985306
12.106983 -108.331833 -18.083845
2.9849 -94.680077 -3.713945
2.402369 -98.115334 -4.320337
2.665468 -96.12516 -5.735722
5.519045 -95.789124 -11.087992
3.940617 -98.533386 -10.043165
5.480019 -99.362823 -12.098253
5.683571 -102.755028 -13.18186
7.521385 -99.858101 -13.952452
2.051821 -104.783485 -6.02103
4.018446 -90.109077 -6.546137
3.372395 -93.79866 -7.079109
4.576393 -91.170601 -8.382732
5.786589 -92.077751 -10.250731
3.841341 -91.221489 -3.372385
4.152798 -88.957108 -4.839354
2.094252 -101.496254 -5.119896
2.26232 -103.059074 -7.545086
2.985874 -97.431099 -7.883081
2.862503 -100.966614 -8.875204
3.001184 -104.360054 -9.952648
4.306446 -105.334198 -12.218699
6.142004 -105.925468 -14.239613
8.443047 -106.094955 -15.953634
9.961521 -99.974312 -15.553358
10.411259 -103.033707 -16.497019
11.123529 -105.82386 -17.353491
10.703984 -108.574093 -17.441007
11.268244 -109.793793 -17.78944
2.100379 -103.877399 -4.764855
2.068499 -105.4533 -5.153973
4.912035 -89.276516 -8.17088
4.29742 -90.639839 -7.464435
4.633062 -88.745754 -7.252582
6.834939 -90.532772 -10.805727
6.026534 -90.173992 -9.958569
6.672605 -92.418995 -11.149822
6.834939 -90.532772 -10.805727
4.447943 -91.488491 -1.869571
5.147759 -90.685246 -1.087366
4.419881 -90.527878 -2.604594
3.869403 -92.182102 -2.637363
4.447943 -91.488491 -1.869571
4.71158 -87.156022 -4.849337
4.552621 -88.357781 -4.085744
4.530949 -87.674839 -5.585014
4.71158 -87.156022 -4.849337
11.168736 -98.271138 -15.787346
9.859036 -98.322159 -15.072716
11.832495 -102.786137 -17.11917
11.549923 -101.359627 -16.699965
12.18863 -104.181213 -17.547405
10.767394 -104.428784 -16.925255
11.832495 -102.786137 -17.11917
12.604803 -105.467709 -17.919559
12.18863 -104.181213 -17.547405
12.733397 -109.443332 -18.38332
11.268244 -109.793793 -17.78944
13.648114 -107.865662 -18.599655
12.733397 -109.443332 -18.38332
5.802058 -89.114941 -1.18593
5.147759 -90.685246 -1.087366
2.693634 -96.397706 -4.017141
2.725681 -97.281964 -3.279025
3.016946 -95.564335 -2.975829
2.158107 -106.359874 -6.476172
2.068499 -105.4533 -5.153973
2.255181 -105.560115 -7.292628
2.158107 -106.359874 -6.476172
5.421436 -89.720417 -9.02457
4.912035 -89.276516 -8.17088
5.757078 -87.826332 -8.812717
5.181491 -91.624176 -9.316731
5.421436 -89.720417 -9.02457
6.026534 -90.173992 -9.958569
6.538833 -94.274681 -11.568453
5.652817 -93.933437 -10.669362
6.672605 -92.418995 -11.149822
7.494369 -94.578941 -12.49523
6.47458 -96.093384 -12.014769
6.538833 -94.274681 -11.568453
3.441183 -93.911396 -2.808142
3.016946 -95.564335 -2.975829
3.41312 -92.950783 -3.543165
3.441183 -93.911396 -2.808142
3.869403 -92.182102 -2.637363
5.65517 -88.180855 -1.942805
5.802058 -89.114941 -1.18593
6.458808 -87.461529 -1.291932
4.975433 -88.79636 -2.584468
5.65517 -88.180855 -1.942805
4.396892 -89.489971 -3.352259
4.419881 -90.527878 -2.604594
4.975433 -88.79636 -2.584468
3.997069 -90.089299 -4.105869
4.396892 -89.489971 -3.352259
4.552621 -88.357781 -4.085744
4.463773 -88.250823 -6.438405
4.085622 -89.533093 -5.692746
4.530949 -87.674839 -5.585014
4.633062 -88.745754 -7.252582
4.463773 -88.250823 -6.438405
2.434681 -98.924912 -3.558906
2.757993 -98.091541 -2.517594
2.725681 -97.281964 -3.279025
2.280622 -100.615371 -3.958686
2.434681 -98.924912 -3.558906
2.248311 -99.805794 -4.720116
2.121595 -102.233783 -4.314288
2.280622 -100.615371 -3.958686
2.073036 -103.13987 -5.570463
2.100379 -103.877399 -4.764855
2.121595 -102.233783 -4.314288
2.360431 -104.69791 -8.054656
2.255181 -105.560115 -7.292628
2.15707 -103.921279 -6.783058
2.729863 -105.3484 -9.258437
2.360431 -104.69791 -8.054656
2.631752 -103.709564 -8.748867
3.200647 -105.963902 -10.48313
2.729863 -105.3484 -9.258437
3.853278 -106.450974 -11.616156
3.200647 -105.963902 -10.48313
3.653815 -104.847126 -11.085674
4.592427 -106.876205 -12.73533
3.853278 -106.450974 -11.616156
5.510205 -107.171841 -13.745787
4.592427 -106.876205 -12.73533
5.224225 -105.629833 -13.229156
6.503321 -107.384258 -14.716304
5.510205 -107.171841 -13.745787
7.653842 -107.469001 -15.573314
6.503321 -107.384258 -14.716304
7.292525 -106.010211 -15.096623
8.872016 -107.455654 -16.375902
7.653842 -107.469001 -15.573314
8.600609 -94.776096 -13.320725
7.494369 -94.578941 -12.49523
8.593333 -96.533825 -13.766811
8.600609 -94.776096 -13.320725
8.638967 -98.264054 -14.272263
7.47575 -98.127872 -13.447
8.593333 -96.533825 -13.766811
8.741453 -99.916207 -14.752905
8.638967 -98.264054 -14.272263
9.859036 -98.322159 -15.072716
11.325054 -99.829929 -16.228134
11.168736 -98.271138 -15.787346
10.18639 -101.504009 -16.025188
11.325054 -99.829929 -16.228134
11.549923 -101.359627 -16.699965
10.212257 -107.320107 -17.07583
8.872016 -107.455654 -16.375902
9.783288 -105.959407 -16.653562
11.615256 -107.077846 -17.718668
10.703984 -108.574093 -17.441007
10.212257 -107.320107 -17.07583
13.09653 -106.721695 -18.284737
11.615256 -107.077846 -17.718668
12.604803 -105.467709 -17.919559
13.648114 -107.865662 -18.599655
13.09653 -106.721695 -18.284737
3 34 7 35
3 0 10 8
3 1 13 11
3 1 15 13
3 36 16 37
3 38 19 39
3 40 39 17
3 38 39 40
3 41 20 42
3 44 43 20
3 3 45 46
3 3 47 49
3 47 21 48
3 47 48 49
3 50 22 51
3 53 52 22
3 4 23 9
3 4 24 23
3 2 25 18
3 5 26 12
3 5 27 26
3 5 28 27
3 6 29 14
3 6 30 29
3 54 31 55
3 56 32 57
3 58 33 59
3 60 59 32
3 58 59 60
3 62 61 33
3 7 63 64
3 7 65 66
3 67 3 68
3 8 69 71
3 69 9 70
3 69 70 71
3 10 9 8
3 10 4 9
3 11 12 2
3 13 12 11
3 13 5 12
3 13 14 5
3 15 14 13
3 15 6 14
3 16 72 73
3 16 74 75
3 17 18 0
3 19 18 17
3 19 2 18
3 76 19 77
3 76 77 78
3 20 79 81
3 79 19 80
3 79 80 81
3 20 2 19
3 20 11 2
3 82 11 83
3 84 83 20
3 82 83 84
3 85 1 86
3 87 86 11
3 85 86 87
3 88 8 89
3 21 90 92
3 90 8 91
3 90 91 92
3 21 0 8
3 93 3 94
3 93 94 95
3 96 3 97
3 98 21 99
3 100 99 3
3 98 99 100
3 22 101 103
3 101 21 102
3 101 102 103
3 22 0 21
3 22 17 0
3 104 17 105
3 106 105 22
3 104 105 106
3 108 107 17
3 9 109 111
3 109 110 111
3 23 112 114
3 114 113 9
3 112 113 114
3 23 115 116
3 23 117 119
3 117 16 118
3 117 118 119
3 24 16 23
3 24 120 122
3 122 121 16
3 120 121 122
3 18 10 0
3 25 10 18
3 25 4 10
3 12 25 2
3 26 25 12
3 26 4 25
3 26 24 4
3 27 24 26
3 27 123 125
3 125 124 24
3 123 124 125
3 27 126 127
3 28 128 130
3 130 129 27
3 128 129 130
3 28 131 132
3 14 28 5
3 29 28 14
3 29 133 135
3 135 134 28
3 133 134 135
3 29 136 137
3 30 138 140
3 140 139 29
3 138 139 140
3 30 141 142
3 143 1 144
3 145 1 146
3 147 15 148
3 149 148 1
3 147 148 149
3 31 150 152
3 150 15 151
3 150 151 152
3 31 6 15
3 153 31 154
3 32 155 157
3 155 31 156
3 155 156 157
3 32 6 31
3 32 30 6
3 33 30 32
3 33 158 160
3 160 159 30
3 158 159 160
3 33 161 163
3 161 7 162
3 161 162 163
3 164 7 165
3 166 165 33
3 164 165 166
3 168 167 7
