ply
format ascii 1.0
element vertex 148
property float x
property float y
property float z
element face 130
property list uchar int vertex_index
end_header
3.271881 -119.705025 10.213242
0.504147 -110.498337 9.934438
4.207327 -118.182709 16.0077
0.100344 -110.056145 15.915972
3.574671 -120.582787 4.195117
1.360279 -114.69828 16.249866
1.181688 -115.557693 10.157408
7.298084 -118.179901 18.190746
6.159304 -119.364273 15.669941
5.188503 -117.244675 18.728922
4.832306 -121.285973 10.152919
4.66674 -121.976105 7.219231
4.791172 -122.443161 4.216763
3.297352 -120.240067 7.213628
1.976881 -114.194725 19.270283
0.168879 -110.27285 12.876438
0.445107 -112.81414 13.076459
0.666769 -113.110565 10.061674
1.512682 -115.864647 7.159228
7.397856 -121.392776 12.701983
5.328787 -120.405403 12.980656
3.566088 -119.009201 13.156673
0.273554 -107.598816 12.612359
3.397961 -115.904007 19.096224
2.595142 -116.612816 16.203505
2.150434 -117.243568 13.228168
0.525629 -112.492302 16.149469
1.106327 -115.158875 13.19822
2.05094 -117.776649 10.211599
2.244984 -118.182487 7.190253
5.833343 -116.719479 20.006646
6.243294 -117.712288 18.459834
6.888134 -117.187092 19.737558
6.888134 -117.187092 19.737558
8.000116 -117.514858 19.354734
0.801333 -111.923576 8.531856
0.882644 -113.229691 8.595474
0.585458 -111.804451 9.998056
0.751706 -110.596054 8.519725
0.801333 -111.923576 8.531856
7.897633 -120.759231 13.953774
8.556873 -121.66896 12.513689
0.36949 -106.174331 13.873362
0.178644 -107.526409 14.091114
0.510838 -106.226112 12.454144
0.36949 -106.174331 13.873362
4.349982 -121.622154 2.693192
4.958232 -122.552342 2.704015
4.182921 -121.512974 4.20594
3.788468 -120.64518 2.69645
4.349982 -121.622154 2.693192
3.175885 -114.776924 20.653083
3.969818 -115.511047 20.478906
3.747743 -114.383964 22.035765
0.312987 -111.274224 16.03272
0.446152 -111.181045 17.586188
0.233509 -109.962967 17.46944
2.077068 -117.147084 5.677744
1.75138 -115.954895 5.693307
6.728694 -118.772087 16.930343
7.278358 -119.74498 15.437753
7.847748 -119.152794 16.698156
8.480427 -118.433239 17.852474
9.18246 -117.768196 19.016463
8.000116 -117.514858 19.354734
7.847748 -119.152794 16.698156
9.030091 -119.406132 16.359884
8.480427 -118.433239 17.852474
5.58558 -122.311218 8.674906
5.768628 -121.8793 10.088422
5.502797 -122.656284 7.208062
5.58558 -122.311218 8.674906
4.749523 -121.631039 8.686075
5.476313 -122.96365 5.73615
5.502797 -122.656284 7.208062
4.728956 -122.209633 5.717997
5.538528 -123.197178 4.234916
5.476313 -122.96365 5.73615
1.869209 -113.012958 20.788446
2.465345 -113.922283 20.740113
1.468392 -113.179604 19.256688
1.869209 -113.012958 20.788446
1.16009 -113.431381 17.746479
1.66858 -114.446503 17.760075
1.468392 -113.179604 19.256688
1.3056 -114.606731 7.144251
1.089726 -114.487606 8.610451
0.882644 -113.229691 8.595474
1.75138 -115.954895 5.693307
1.3056 -114.606731 7.144251
8.121173 -122.312027 11.26097
8.556873 -121.66896 12.513689
7.051403 -121.932701 11.362954
8.121173 -122.312027 11.26097
6.77858 -120.378524 14.185962
7.897633 -120.759231 13.953774
7.278358 -119.74498 15.437753
6.016869 -121.439015 11.502291
7.051403 -121.932701 11.362954
6.363321 -120.89909 12.84132
5.080547 -120.845688 11.566788
5.768628 -121.8793 10.088422
6.016869 -121.439015 11.502291
0.150839 -108.714699 17.274632
0.233509 -109.962967 17.46944
0.092038 -108.755074 15.742921
0.150839 -108.714699 17.274632
0.126306 -108.863426 14.223154
0.134611 -110.164498 14.396205
0.092038 -108.755074 15.742921
0.221217 -108.935833 12.744398
0.126306 -108.863426 14.223154
0.178644 -107.526409 14.091114
0.481018 -107.690079 11.197116
0.596315 -109.139839 9.858156
0.38885 -109.048576 11.273398
0.718303 -106.317375 11.038901
0.481018 -107.690079 11.197116
0.510838 -106.226112 12.454144
5.641756 -123.366467 2.727334
5.538528 -123.197178 4.234916
5.808816 -123.475647 1.214586
5.641756 -123.366467 2.727334
4.958232 -122.552342 2.704015
4.865089 -116.181382 20.295255
5.833343 -116.719479 20.006646
4.293232 -116.574341 18.912573
4.865089 -116.181382 20.295255
3.969818 -115.511047 20.478906
2.687421 -115.049366 19.183253
3.175885 -114.776924 20.653083
2.465345 -113.922283 20.740113
0.742765 -112.328392 17.696281
0.446152 -111.181045 17.586188
0.942954 -113.595291 16.199668
1.16009 -113.431381 17.746479
0.742765 -112.328392 17.696281
2.443218 -118.306004 5.693257
1.878833 -117.023567 7.174741
2.077068 -117.147084 5.677744
3.108062 -119.506153 4.195688
2.909828 -119.382637 5.692685
2.443218 -118.306004 5.693257
3.788468 -120.64518 2.69645
3.108062 -119.506153 4.195688
0.843873 -109.237556 8.443443
0.751706 -110.596054 8.519725
0.596315 -109.139839 9.858156
3 30 9 31
3 32 31 7
3 30 31 32
3 33 7 34
3 0 11 10
3 0 13 11
3 1 17 15
3 1 35 37
3 37 36 17
3 35 36 37
3 1 38 39
3 40 19 41
3 2 20 8
3 2 21 20
3 42 22 43
3 45 44 22
3 4 46 48
3 48 47 12
3 46 47 48
3 4 49 50
3 51 23 52
3 51 52 53
3 5 24 14
3 5 25 24
3 3 54 56
3 54 26 55
3 54 55 56
3 6 27 16
3 6 28 27
3 6 29 28
3 58 57 18
3 7 59 61
3 59 8 60
3 59 60 61
3 9 8 7
3 9 2 8
3 7 62 64
3 62 63 64
3 7 65 67
3 65 66 67
3 10 68 69
3 11 70 72
3 72 71 10
3 70 71 72
3 11 73 74
3 11 75 77
3 75 12 76
3 75 76 77
3 13 12 11
3 13 4 12
3 78 14 79
3 80 14 81
3 82 5 83
3 84 83 14
3 82 83 84
3 15 16 3
3 17 16 15
3 17 6 16
3 17 18 6
3 85 18 86
3 87 86 17
3 85 86 87
3 89 88 18
3 19 90 91
3 19 92 93
3 8 94 96
3 94 19 95
3 94 95 96
3 20 19 8
3 20 97 99
3 99 98 19
3 97 98 99
3 20 100 102
3 100 10 101
3 100 101 102
3 21 10 20
3 21 0 10
3 103 3 104
3 105 3 106
3 107 15 108
3 109 108 3
3 107 108 109
3 22 110 112
3 110 15 111
3 110 111 112
3 22 1 15
3 22 113 115
3 115 114 1
3 113 114 115
3 118 117 22
3 116 117 118
3 12 119 120
3 123 122 12
3 121 122 123
3 124 9 125
3 23 126 128
3 126 9 127
3 126 127 128
3 23 2 9
3 14 129 131
3 129 23 130
3 129 130 131
3 24 23 14
3 24 2 23
3 24 21 2
3 25 21 24
3 25 0 21
3 26 132 133
3 26 134 136
3 134 5 135
3 134 135 136
3 16 26 3
3 27 26 16
3 27 5 26
3 27 25 5
3 28 25 27
3 28 0 25
3 28 13 0
3 29 13 28
3 29 4 13
3 18 29 6
3 137 29 138
3 139 138 18
3 137 138 139
3 140 4 141
3 142 141 29
3 140 141 142
3 144 143 4
3 147 146 1
3 145 146 147
