ply
format ascii 1.0
element vertex 255
property float x
property float y
property float z
element face 257
property list uchar int vertex_index
end_header
30.329344 -49.452221 68.779091
25.28447 -51.364849 76.116203
30.159941 -57.704418 71.2435
24.3332 -60.660202 77.230484
15.875747 -63.764957 80.334564
30.149702 -53.497471 70.039055
21.921888 -52.394897 78.952087
24.994198 -55.923443 76.853355
21.354721 -57.250072 79.19976
20.272354 -62.244965 79.001137
28.109283 -50.392769 72.757088
22.767311 -47.89254 78.712585
29.445997 -61.977966 71.623039
27.966805 -54.668076 73.830894
27.703959 -59.13266 74.695061
26.54356 -63.623619 74.624985
22.757626 -65.383179 76.68959
18.392311 -67.188568 78.015724
30.99173 -50.950066 67.178574
30.962727 -52.948273 67.882385
30.147018 -51.449802 69.367432
20.085932 -52.932503 80.239365
21.659504 -54.792278 79.102348
19.756538 -55.401318 80.259369
19.360138 -57.923397 80.204834
30.810083 -47.512062 68.340019
31.238251 -48.988602 66.568695
20.946453 -48.274559 80.143944
31.035063 -57.03437 69.205132
30.891319 -59.11108 69.626442
29.927296 -59.840675 71.575035
26.771292 -50.872948 74.511375
27.984617 -52.497692 73.269493
26.640673 -53.045197 74.962227
24.761328 -58.281223 77.129189
26.439772 -57.572689 75.840424
26.123039 -59.885288 76.074654
27.255238 -61.386597 74.808746
25.561092 -62.199749 76.065483
24.745426 -64.490723 75.76722
23.663218 -63.035908 77.095718
18.091137 -63.0242 79.703804
19.422709 -64.734421 78.618942
17.178127 -65.55777 79.196602
16.116373 -68.053375 78.492683
14.92065 -66.328079 79.693382
31.021803 -54.978058 68.591774
30.199106 -55.585835 70.699471
23.661942 -51.871765 77.588066
25.126675 -53.610268 76.48568
23.458733 -54.19334 77.856354
23.24431 -56.580135 78.096252
22.906736 -59.007378 78.230469
22.368896 -61.450836 78.191788
20.911922 -59.742401 79.182991
18.818666 -60.472244 80.031509
29.706347 -47.945576 70.429878
29.293242 -49.920238 70.845833
28.471428 -48.369316 72.37114
27.100163 -48.788536 74.165138
25.598139 -49.210217 75.822693
24.515867 -47.525555 77.224396
23.977859 -49.640976 77.362244
22.255463 -50.085659 78.808464
20.448788 -50.546532 80.189888
29.151587 -51.966194 71.402733
29.157372 -54.071812 72.02829
29.168211 -56.223228 72.623322
26.575443 -55.285416 75.437927
27.914295 -56.886097 74.340424
29.052519 -58.405117 73.081657
28.715872 -60.599888 73.310226
28.117615 -62.78611 73.243652
21.601463 -63.886162 77.932526
20.623524 -66.28923 77.425995
12.702675 -67.014343 80.114334
18.967577 -54.440392 80.869862
19.921235 -54.166911 80.249367
19.132274 -53.205984 80.859859
18.768991 -55.70603 80.810604
18.967577 -54.440392 80.869862
18.059157 -59.528978 80.590251
19.089402 -59.197821 80.118172
18.329893 -58.254554 80.676914
17.745679 -60.82505 80.422741
18.059157 -59.528978 80.590251
28.818013 -47.403914 72.260059
29.088887 -48.157446 71.400509
29.435473 -47.192043 71.289428
26.637834 -47.977802 74.908028
27.414942 -47.798344 74.065609
25.886822 -48.188643 75.736805
26.349151 -48.999376 74.993915
26.637834 -47.977802 74.908028
23.641589 -47.709047 77.968491
24.025427 -46.6826 77.948338
23.151149 -46.866092 78.692432
19.759036 -49.610989 80.867485
20.69762 -49.410545 80.166916
20.007869 -48.475003 80.844513
19.512859 -50.784769 80.861942
19.759036 -49.610989 80.867485
29.435473 -47.192043 71.289428
30.08949 -46.996977 70.308243
29.682817 -62.629435 70.62685
29.984755 -61.588142 70.702549
29.082358 -63.03675 71.486717
29.682817 -62.629435 70.62685
26.909287 -64.281742 73.738106
27.696314 -63.862988 73.047439
27.330588 -63.204864 73.934318
26.071583 -64.721096 74.372715
26.909287 -64.281742 73.738106
23.237923 -66.058166 75.926441
24.231823 -65.611939 75.465256
23.751526 -64.936951 76.228405
22.21262 -66.530563 76.345028
23.237923 -66.058166 75.926441
18.942337 -67.913185 77.339131
20.057944 -67.463516 77.044266
19.507917 -66.738899 77.72086
17.816976 -68.388069 77.598438
18.942337 -67.913185 77.339131
15.541632 -69.273685 78.036045
14.982582 -68.452065 78.683952
12.124439 -66.017944 80.758026
13.190046 -65.72728 80.510059
30.977229 -51.949169 67.530479
31.298147 -52.689878 66.734592
31.312648 -51.690775 66.382687
18.570791 -56.96707 80.783337
19.558338 -56.662357 80.232101
18.768991 -55.70603 80.810604
18.329893 -58.254554 80.676914
18.570791 -56.96707 80.783337
31.305957 -47.290011 67.22631
31.233557 -46.571701 68.208568
31.520041 -48.028281 66.340649
31.305957 -47.290011 67.22631
31.024167 -48.250332 67.454357
31.647471 -48.761623 65.404106
31.520041 -48.028281 66.340649
31.480902 -49.730694 65.71518
31.647471 -48.761623 65.404106
31.357641 -50.711426 66.020119
31.480902 -49.730694 65.71518
31.114991 -49.969334 66.873635
31.312648 -51.690775 66.382687
31.357641 -50.711426 66.020119
22.213093 -47.018839 79.4108
23.151149 -46.866092 78.692432
21.302664 -47.209849 80.12648
21.856882 -48.08355 79.428265
22.213093 -47.018839 79.4108
20.340777 -47.372067 80.830967
21.302664 -47.209849 80.12648
20.007869 -48.475003 80.844513
20.340777 -47.372067 80.830967
31.332231 -57.725903 68.353543
31.370737 -56.718863 68.103898
31.260359 -58.764257 68.564198
31.332231 -57.725903 68.353543
30.963191 -58.072725 69.415787
31.127541 -59.780277 68.691326
31.496582 -59.433454 67.629081
31.260359 -58.764257 68.564198
30.707415 -60.154699 69.704251
31.127541 -59.780277 68.691326
30.225404 -60.519497 70.678547
30.707415 -60.154699 69.704251
30.409307 -59.475877 70.600739
29.686646 -60.90932 71.599037
29.984755 -61.588142 70.702549
30.225404 -60.519497 70.678547
14.384721 -67.589416 79.284301
14.982582 -68.452065 78.683952
15.518511 -67.190727 79.093032
31.316513 -53.67833 67.107605
31.298147 -52.689878 66.734592
31.346052 -54.693222 67.4623
31.316513 -53.67833 67.107605
30.992265 -53.963166 68.237079
31.364107 -55.690706 67.797218
31.346052 -54.693222 67.4623
31.028433 -56.006214 68.898453
31.370737 -56.718863 68.103898
31.364107 -55.690706 67.797218
17.381914 -62.101028 80.258888
18.454901 -61.748222 79.867657
17.745679 -60.82505 80.422741
16.274219 -62.471407 80.574268
16.983442 -63.394579 80.019184
17.381914 -62.101028 80.258888
28.100575 -47.588734 73.16861
28.818013 -47.403914 72.260059
27.785795 -48.578926 73.268139
28.100575 -47.588734 73.16861
27.414942 -47.798344 74.065609
24.931939 -46.535118 77.202099
24.025427 -46.6826 77.948338
25.345686 -47.346311 76.437657
24.931939 -46.535118 77.202099
25.057003 -48.367886 76.523544
25.886822 -48.188643 75.736805
25.345686 -47.346311 76.437657
19.33143 -51.977755 80.886681
20.26736 -51.739517 80.214627
19.512859 -50.784769 80.861942
19.132274 -53.205984 80.859859
19.33143 -51.977755 80.886681
30.641358 -46.78022 69.263313
31.233557 -46.571701 68.208568
30.258215 -47.728819 69.384949
30.641358 -46.78022 69.263313
30.08949 -46.996977 70.308243
28.418166 -63.440822 72.297023
29.082358 -63.03675 71.486717
28.781806 -62.382038 72.433346
28.418166 -63.440822 72.297023
27.696314 -63.862988 73.047439
25.172517 -65.154648 74.943832
26.071583 -64.721096 74.372715
25.644493 -64.057171 75.196102
24.658913 -66.275863 74.641869
25.172517 -65.154648 74.943832
24.231823 -65.611939 75.465256
21.145569 -66.983589 76.71323
22.21262 -66.530563 76.345028
21.690575 -65.836205 77.057793
21.145569 -66.983589 76.71323
20.057944 -67.463516 77.044266
16.679007 -68.820472 77.836917
17.816976 -68.388069 77.598438
17.254342 -67.620971 78.254204
16.679007 -68.820472 77.836917
15.541632 -69.273685 78.036045
15.198776 -62.800661 80.941433
16.274219 -62.471407 80.574268
14.776582 -64.102587 80.620174
15.198776 -62.800661 80.941433
14.299034 -65.384148 80.299583
15.398198 -65.046518 80.013973
14.776582 -64.102587 80.620174
13.811663 -66.671211 79.903858
14.299034 -65.384148 80.299583
13.190046 -65.72728 80.510059
13.275733 -67.932548 79.494777
14.384721 -67.589416 79.284301
13.811663 -66.671211 79.903858
11.638429 -67.29982 80.276745
12.124439 -66.017944 80.758026
12.171957 -68.279968 79.637378
11.638429 -67.29982 80.276745
13.275733 -67.932548 79.494777
12.171957 -68.279968 79.637378
3 0 20 18
3 76 23 77
3 78 77 21
3 76 77 78
3 80 79 23
3 0 26 25
3 0 18 26
3 2 29 28
3 2 30 29
3 1 33 31
3 3 36 34
3 3 38 36
3 3 40 38
3 4 43 41
3 4 45 43
3 5 46 19
3 5 47 46
3 6 50 48
3 8 51 22
3 8 52 51
3 8 54 52
3 81 55 82
3 83 82 24
3 81 82 83
3 85 84 55
3 86 58 87
3 88 87 56
3 86 87 88
3 89 59 90
3 91 60 92
3 93 92 59
3 91 92 93
3 11 94 96
3 94 61 95
3 94 95 96
3 11 62 61
3 11 63 62
3 97 64 98
3 99 98 27
3 97 98 99
3 101 100 64
3 102 56 103
3 12 104 105
3 12 106 107
3 10 65 57
3 13 66 32
3 13 67 66
3 7 68 49
3 14 69 35
3 14 70 69
3 14 71 70
3 15 72 37
3 15 108 110
3 110 109 72
3 108 109 110
3 15 111 112
3 16 113 115
3 115 114 39
3 113 114 115
3 16 116 117
3 9 73 53
3 17 74 42
3 17 118 120
3 120 119 74
3 118 119 120
3 17 121 122
3 124 123 44
3 125 75 126
3 18 127 129
3 127 19 128
3 127 128 129
3 20 19 18
3 20 5 19
3 21 22 6
3 23 22 21
3 23 8 22
3 23 24 8
3 130 24 131
3 132 131 23
3 130 131 132
3 134 133 24
3 25 135 136
3 26 137 139
3 139 138 25
3 137 138 139
3 26 140 141
3 26 142 143
3 18 144 146
3 146 145 26
3 144 145 146
3 18 147 148
3 149 11 150
3 151 27 152
3 153 152 11
3 151 152 153
3 154 27 155
3 157 156 27
3 28 158 159
3 29 160 162
3 162 161 28
3 160 161 162
3 29 163 165
3 163 164 165
3 29 166 167
3 30 168 170
3 170 169 29
3 168 169 170
3 30 171 173
3 171 12 172
3 171 172 173
3 31 32 10
3 33 32 31
3 33 13 32
3 34 35 7
3 36 35 34
3 36 14 35
3 36 37 14
3 38 37 36
3 38 15 37
3 38 39 15
3 40 39 38
3 40 16 39
3 41 42 9
3 43 42 41
3 43 17 42
3 43 44 17
3 45 44 43
3 45 174 176
3 176 175 44
3 174 175 176
3 19 177 178
3 46 179 181
3 181 180 19
3 179 180 181
3 46 182 183
3 46 184 186
3 184 28 185
3 184 185 186
3 47 28 46
3 47 2 28
3 48 49 1
3 50 49 48
3 50 7 49
3 22 50 6
3 51 50 22
3 51 7 50
3 51 34 7
3 52 34 51
3 52 3 34
3 52 53 3
3 54 53 52
3 54 9 53
3 24 54 8
3 55 54 24
3 55 9 54
3 55 41 9
3 187 41 188
3 189 188 55
3 187 188 189
3 190 4 191
3 192 191 41
3 190 191 192
3 56 57 0
3 58 57 56
3 58 10 57
3 193 58 194
3 59 195 197
3 195 58 196
3 195 196 197
3 59 10 58
3 59 31 10
3 60 31 59
3 60 1 31
3 61 198 199
3 61 200 201
3 61 202 204
3 202 60 203
3 202 203 204
3 62 60 61
3 62 1 60
3 62 48 1
3 63 48 62
3 63 6 48
3 27 63 11
3 64 63 27
3 64 6 63
3 64 21 6
3 205 21 206
3 207 206 64
3 205 206 207
3 209 208 21
3 210 25 211
3 56 212 214
3 212 25 213
3 212 213 214
3 56 0 25
3 57 20 0
3 65 20 57
3 65 5 20
3 32 65 10
3 66 65 32
3 66 5 65
3 66 47 5
3 67 47 66
3 67 2 47
3 49 33 1
3 68 33 49
3 68 13 33
3 35 68 7
3 69 68 35
3 69 13 68
3 69 67 13
3 70 67 69
3 70 2 67
3 70 30 2
3 71 30 70
3 71 12 30
3 37 71 14
3 72 71 37
3 72 12 71
3 72 215 217
3 217 216 12
3 215 216 217
3 219 218 72
3 39 220 222
3 222 221 15
3 220 221 222
3 225 224 39
3 223 224 225
3 53 40 3
3 73 40 53
3 73 16 40
3 42 73 9
3 74 73 42
3 74 16 73
3 74 226 228
3 228 227 16
3 226 227 228
3 230 229 74
3 44 231 233
3 233 232 17
3 231 232 233
3 235 234 44
3 236 4 237
3 238 4 239
3 240 45 241
3 242 241 4
3 240 241 242
3 75 243 245
3 243 45 244
3 243 244 245
3 75 246 248
3 248 247 45
3 246 247 248
3 249 75 250
3 251 75 252
3 254 253 75
