ply
format ascii 1.0
element vertex 193
property float x
property float y
property float z
element face 181
property list uchar int vertex_index
end_header
51.582611 -82.377319 -21.657412
54.375294 -81.548691 -14.390783
60.567055 -68.763847 -21.456987
53.87896 -75.118759 -24.076361
56.074715 -75.514832 -21.386412
58.644745 -68.538559 -24.554976
54.975708 -80.574326 -10.058662
58.400429 -74.825325 -13.80065
53.330784 -82.240067 -18.390947
57.522411 -75.311523 -17.863333
61.841198 -68.618355 -17.644152
64.789909 -61.978943 -21.417982
54.991512 -71.406296 -25.399549
56.278458 -71.827309 -24.284231
57.427399 -68.172012 -25.778421
54.718044 -81.077332 -12.242447
56.647728 -77.763428 -11.914331
56.335648 -78.128052 -14.041643
52.55785 -82.388969 -20.137403
58.333023 -72.138443 -21.402662
56.885788 -75.473045 -19.715509
59.087608 -72.078911 -19.652208
59.685066 -71.937973 -17.740858
61.274803 -68.706985 -19.619856
63.398735 -65.354919 -19.557348
62.735363 -65.375 -21.481707
52.738861 -78.771744 -22.832769
53.821976 -78.920151 -21.463472
55.071068 -75.40274 -22.84355
57.39827 -72.066002 -22.953463
59.694149 -68.72496 -23.111994
61.920319 -65.348473 -23.246897
60.940067 -65.20903 -24.8155
51.469467 -78.453491 -23.972715
52.526119 -74.65889 -25.099981
53.575356 -70.802238 -26.329054
55.153198 -80.067535 -7.871649
58.696167 -74.599686 -11.681311
60.525261 -71.64537 -13.622599
53.924629 -81.949478 -16.458067
54.704643 -78.904495 -19.866259
55.397224 -78.743454 -18.066866
55.928833 -78.470024 -16.108477
58.01638 -75.077957 -15.87554
60.155888 -71.774895 -15.715754
62.290657 -68.562164 -15.576799
63.929779 -65.358849 -17.51956
65.398773 -62.040783 -19.416986
56.749329 -67.892517 -26.289602
56.209456 -69.789154 -25.588985
55.531385 -69.509659 -26.100166
57.968422 -66.291435 -26.544033
56.749329 -67.892517 -26.289602
54.546669 -81.313012 -13.316615
53.823484 -82.801304 -12.471381
53.652109 -83.036984 -13.545549
52.070231 -82.383144 -20.897407
51.493151 -84.159969 -20.331493
51.005532 -84.154144 -21.091498
50.258541 -80.153343 -23.970741
50.936922 -80.325913 -23.452455
51.791929 -74.343391 -25.525868
51.288294 -76.313301 -25.003393
52.316547 -72.415065 -26.140404
53.050737 -72.730564 -25.714517
51.791929 -74.343391 -25.525868
52.827061 -70.413189 -26.724588
52.316547 -72.415065 -26.140404
54.213852 -81.904377 -9.141449
54.104164 -82.237977 -10.263844
55.064453 -80.320931 -8.965155
54.302597 -81.650982 -8.047942
54.213852 -81.904377 -9.141449
55.927578 -78.993439 -9.911664
56.016323 -78.740044 -8.818157
55.064453 -80.320931 -8.965155
52.666531 -83.873718 -17.667724
52.321884 -84.020016 -18.61797
53.627707 -82.094773 -17.424507
52.963453 -83.728424 -16.701284
52.666531 -83.873718 -17.667724
65.730885 -60.294459 -21.324735
66.035316 -60.325378 -20.324238
65.094341 -62.009863 -20.417484
62.977704 -63.637726 -23.267411
62.522144 -63.579657 -24.11607
58.611817 -66.53902 -25.973242
59.220489 -66.722294 -25.361519
58.036072 -68.355286 -25.166699
58.611817 -66.53902 -25.973242
57.968422 -66.291435 -26.544033
53.975332 -82.48948 -11.355736
53.823484 -82.801304 -12.471381
54.846876 -80.825829 -11.150555
54.104164 -82.237977 -10.263844
53.975332 -82.48948 -11.355736
51.935417 -84.094467 -19.491197
51.493151 -84.159969 -20.331493
52.944317 -82.314518 -19.264175
52.321884 -84.020016 -18.61797
51.935417 -84.094467 -19.491197
53.451898 -83.310562 -14.633768
53.652109 -83.036984 -13.545549
62.032018 -63.509935 -24.900371
62.522144 -63.579657 -24.11607
61.430193 -65.278751 -24.031199
60.36815 -65.05753 -25.491781
59.792406 -66.873795 -24.685238
59.220489 -66.722294 -25.361519
61.497889 -63.387006 -25.648304
60.36815 -65.05753 -25.491781
62.032018 -63.509935 -24.900371
61.497889 -63.387006 -25.648304
50.458412 -84.134956 -21.803957
51.005532 -84.154144 -21.091498
50.993494 -82.287826 -22.294804
50.458412 -84.134956 -21.803957
51.571619 -80.485039 -22.882483
52.160736 -80.574532 -22.24509
50.993494 -82.287826 -22.294804
52.104164 -78.612617 -23.402742
51.571619 -80.485039 -22.882483
50.936922 -80.325913 -23.452455
50.759968 -78.210601 -24.43976
50.258541 -80.153343 -23.970741
51.997793 -76.55619 -24.536348
50.759968 -78.210601 -24.43976
51.288294 -76.313301 -25.003393
54.823307 -69.20763 -26.564918
55.531385 -69.509659 -26.100166
54.283434 -71.104267 -25.864301
54.097538 -68.834083 -26.995888
54.823307 -69.20763 -26.564918
54.097538 -68.834083 -26.995888
52.827061 -70.413189 -26.724588
54.36788 -81.306469 -6.931309
54.302597 -81.650982 -8.047942
55.196872 -79.816917 -6.784985
54.411554 -81.055851 -5.844644
54.36788 -81.306469 -6.931309
56.090221 -78.579777 -7.744476
55.196872 -79.816917 -6.784985
56.090221 -78.579777 -7.744476
56.016323 -78.740044 -8.818157
56.763588 -77.58799 -10.839499
55.927578 -78.993439 -9.911664
55.811718 -79.168877 -10.986497
57.787807 -76.006119 -10.722988
56.763588 -77.58799 -10.839499
57.671948 -76.181557 -11.797821
58.801815 -74.513768 -10.615166
57.787807 -76.006119 -10.722988
59.749752 -73.093773 -11.589992
58.801815 -74.513768 -10.615166
60.664299 -71.616615 -12.560636
59.749752 -73.093773 -11.589992
59.610714 -73.122528 -12.651955
61.581154 -70.11692 -13.541093
60.664299 -71.616615 -12.560636
53.226566 -83.510955 -15.66741
52.963453 -83.728424 -16.701284
54.149962 -81.749085 -15.424425
53.451898 -83.310562 -14.633768
53.226566 -83.510955 -15.66741
62.463852 -68.575317 -14.518193
61.581154 -70.11692 -13.541093
61.407959 -70.103767 -14.599699
63.31662 -67.004638 -15.494836
63.489815 -67.017792 -14.436229
62.463852 -68.575317 -14.518193
64.136181 -65.402981 -16.466216
63.31662 -67.004638 -15.494836
63.110218 -66.960507 -16.548179
64.900966 -63.769738 -17.424614
64.136181 -65.402981 -16.466216
65.635464 -62.110704 -18.373327
64.900966 -63.769738 -17.424614
64.664276 -63.699816 -18.468273
66.297756 -60.422026 -19.296377
65.635464 -62.110704 -18.373327
66.934299 -58.706621 -20.203629
66.297756 -60.422026 -19.296377
66.035316 -60.325378 -20.324238
63.385226 -63.65099 -22.384816
62.327841 -65.361737 -22.364302
62.977704 -63.637726 -23.267411
64.412498 -61.952961 -22.352953
63.762636 -63.676972 -21.449844
63.385226 -63.65099 -22.384816
65.391644 -60.230439 -22.302589
64.412498 -61.952961 -22.352953
65.730885 -60.294459 -21.324735
65.391644 -60.230439 -22.302589
3 48 14 49
3 50 49 12
3 48 49 50
3 52 51 14
3 1 53 55
3 53 15 54
3 53 54 55
3 1 17 15
3 0 56 58
3 56 18 57
3 56 57 58
3 2 21 19
3 2 23 21
3 2 25 23
3 3 28 26
3 5 29 13
3 5 30 29
3 5 32 30
3 59 33 60
3 61 34 62
3 63 35 64
3 65 64 34
3 63 64 65
3 67 66 35
3 6 68 69
3 6 70 72
3 70 36 71
3 70 71 72
3 6 73 75
3 75 74 36
3 73 74 75
3 7 37 16
3 7 38 37
3 8 76 77
3 8 78 80
3 78 39 79
3 78 79 80
3 4 40 27
3 9 41 20
3 9 42 41
3 9 43 42
3 10 44 22
3 10 45 44
3 10 46 45
3 11 47 24
3 11 81 83
3 83 82 47
3 81 82 83
3 85 84 31
3 12 13 3
3 14 13 12
3 14 5 13
3 14 86 88
3 88 87 5
3 86 87 88
3 90 89 14
3 15 91 92
3 15 93 95
3 93 6 94
3 93 94 95
3 15 16 6
3 17 16 15
3 17 7 16
3 18 96 97
3 18 98 100
3 98 8 99
3 98 99 100
3 19 20 4
3 21 20 19
3 21 9 20
3 21 22 9
3 23 22 21
3 23 10 22
3 23 24 10
3 25 24 23
3 25 11 24
3 101 1 102
3 26 27 0
3 28 27 26
3 28 4 27
3 13 28 3
3 29 28 13
3 29 4 28
3 29 19 4
3 30 19 29
3 30 2 19
3 30 31 2
3 32 31 30
3 32 103 105
3 105 104 31
3 103 104 105
3 106 32 107
3 108 107 5
3 106 107 108
3 109 32 110
3 112 111 32
3 113 0 114
3 115 0 116
3 117 26 118
3 119 118 0
3 117 118 119
3 33 120 122
3 120 26 121
3 120 121 122
3 33 3 26
3 123 33 124
3 34 125 127
3 125 33 126
3 125 126 127
3 34 3 33
3 34 12 3
3 35 12 34
3 35 128 130
3 130 129 12
3 128 129 130
3 35 131 132
3 134 133 35
3 36 135 136
3 36 137 139
3 137 138 139
3 36 140 141
3 143 142 36
3 16 144 146
3 146 145 6
3 144 145 146
3 37 147 149
3 149 148 16
3 147 148 149
3 37 150 151
3 37 152 153
3 38 154 156
3 156 155 37
3 154 155 156
3 38 157 158
3 39 159 160
3 39 161 163
3 161 1 162
3 161 162 163
3 27 18 0
3 40 18 27
3 40 8 18
3 20 40 4
3 41 40 20
3 41 8 40
3 41 39 8
3 42 39 41
3 42 1 39
3 42 17 1
3 43 17 42
3 43 7 17
3 22 43 9
3 44 43 22
3 44 7 43
3 44 38 7
3 45 38 44
3 45 164 166
3 166 165 38
3 164 165 166
3 45 167 169
3 167 168 169
3 46 170 172
3 172 171 45
3 170 171 172
3 46 173 174
3 24 46 10
3 47 46 24
3 47 175 177
3 177 176 46
3 175 176 177
3 47 178 179
3 182 181 47
3 180 181 182
3 31 25 2
3 183 25 184
3 185 184 31
3 183 184 185
3 186 11 187
3 188 187 25
3 186 187 188
3 189 11 190
3 192 191 11
