ply
format ascii 1.0
element vertex 260
property float x
property float y
property float z
element face 237
property list uchar int vertex_index
end_header
41.651611 -29.761972 69.822632
44.519409 -21.862654 61.553848
48.95303 -26.159466 64.528397
46.994091 -32.164223 59.064026
40.813141 -23.475561 63.753265
45.60807 -27.928055 67.509773
46.088963 -30.360872 66.730743
48.642082 -28.939919 62.730072
35.03772 -28.657616 69.518356
39.346733 -27.46789 67.772949
48.347851 -20.268467 59.305489
43.477024 -25.765564 65.956062
47.361847 -23.895676 63.811035
50.885963 -22.311752 61.173759
51.688416 -24.924677 60.963203
33.751923 -30.426067 71.354355
36.081745 -29.981159 70.547829
43.091221 -20.738636 60.481239
44.895638 -20.005196 59.2565
46.427422 -21.04141 60.445419
40.56205 -28.636909 68.894775
41.437443 -26.664696 66.890205
42.680538 -27.770208 67.975349
47.359352 -27.003759 66.104446
46.603264 -25.875124 65.781273
48.383499 -24.969212 64.462479
49.177891 -23.042046 62.557503
50.029877 -24.170927 62.988708
51.535759 -23.528503 61.374893
50.39238 -25.451563 62.801819
47.913754 -30.504757 61.043564
49.736214 -28.473923 60.63855
48.938499 -30.178356 58.924652
46.048496 -33.914219 56.987251
42.645302 -22.689035 62.649742
43.702564 -28.868473 68.744095
44.3592 -30.006144 68.971375
46.086784 -29.100861 67.462128
47.638496 -28.239887 65.775925
49.02536 -27.485329 63.936462
47.437927 -29.585537 64.782295
46.833199 -31.027588 63.215057
38.185856 -26.19779 66.743217
37.211697 -28.137871 68.638275
38.35725 -29.383043 69.739868
39.470097 -30.554964 70.77285
31.383955 -30.732498 72.191109
28.99301 -30.928173 73.084961
29.883087 -32.316006 74.009247
40.155163 -25.489367 65.768387
42.116871 -24.67169 64.797333
44.071686 -23.786776 63.802208
44.698505 -26.829813 66.946785
45.456108 -24.822803 64.938393
46.012554 -22.8862 62.756065
47.923576 -22.023354 61.635956
49.781013 -21.246687 60.425781
50.267136 -26.890858 61.986832
51.391415 -26.496675 59.98716
34.27586 -31.070859 71.892498
33.056002 -31.251036 72.283481
47.516371 -32.075795 58.052803
48.488575 -31.082861 57.983116
47.966295 -31.17129 58.994339
46.521293 -33.039221 58.025638
47.043574 -32.950793 57.014415
47.516371 -32.075795 58.052803
41.094572 -22.464348 62.750759
40.560066 -21.784094 62.407635
40.278635 -22.795307 63.410141
41.729222 -23.082298 63.201504
42.010652 -22.071085 62.198998
41.094572 -22.464348 62.750759
43.610652 -31.032117 69.561081
43.407108 -30.449157 69.635544
46.087874 -29.730866 67.096436
45.327831 -30.153496 67.995583
45.32892 -30.783501 67.62989
45.854573 -32.069063 63.346401
46.2421 -31.364504 64.286816
46.39485 -31.78962 62.226974
45.854573 -32.069063 63.346401
36.124708 -28.397744 69.078316
36.707295 -27.454452 68.192932
35.620306 -27.714324 68.632972
37.767721 -30.297041 70.684757
37.219498 -29.682101 70.143848
36.629969 -30.596099 71.088737
38.324145 -30.883001 71.201248
38.913674 -29.969003 70.256359
37.767721 -30.297041 70.684757
30.98845 -30.005195 71.809922
32.106836 -29.881706 71.316074
28.19149 -31.698019 73.967823
27.793002 -30.986379 73.571694
28.636528 -32.391936 74.429966
29.438049 -31.62209 73.547104
28.19149 -31.698019 73.967823
29.11451 -33.057932 74.915638
28.636528 -32.391936 74.429966
48.527804 -19.441869 58.092918
47.562551 -19.77775 58.683357
49.298155 -19.924712 58.711876
48.527804 -19.441869 58.092918
51.2213 -21.453651 60.146095
50.668825 -20.921119 59.772106
50.333488 -21.779219 60.79977
51.677639 -22.027439 60.4216
51.2213 -21.453651 60.146095
52.294973 -24.00037 60.308151
52.218645 -23.302283 60.513996
51.612088 -24.22659 61.169048
52.274328 -24.766507 60.014786
52.294973 -24.00037 60.308151
51.076418 -27.359593 59.286038
50.563814 -27.485299 60.312855
50.248818 -28.348217 59.611733
51.912382 -26.411515 58.998215
51.076418 -27.359593 59.286038
39.915425 -23.828568 64.318481
40.278635 -22.795307 63.410141
39.380918 -23.148314 63.975358
45.208012 -31.415042 67.068916
45.32892 -30.783501 67.62989
45.869982 -31.031146 66.044658
45.208012 -31.415042 67.068916
35.440771 -30.848405 71.489235
34.916834 -30.203613 70.951092
34.27586 -31.070859 71.892498
36.629969 -30.596099 71.088737
35.440771 -30.848405 71.489235
43.315478 -19.783431 59.405472
42.505736 -20.090243 60.127857
44.217686 -19.416711 58.793102
43.315478 -19.783431 59.405472
43.993429 -20.371916 59.86887
45.091625 -19.105959 58.109279
44.413674 -18.517474 57.645882
44.217686 -19.416711 58.793102
45.836445 -19.646115 58.658863
45.091625 -19.105959 58.109279
46.602337 -20.164222 59.253322
45.836445 -19.646115 58.658863
45.66153 -20.523303 59.85096
47.387636 -20.654939 59.875454
47.562551 -19.77775 58.683357
46.602337 -20.164222 59.253322
49.84996 -29.200434 58.754784
50.248818 -28.348217 59.611733
49.337356 -29.32614 59.781601
49.446941 -30.127474 57.93441
49.84996 -29.200434 58.754784
49.446941 -30.127474 57.93441
48.488575 -31.082861 57.983116
46.621748 -33.904726 56.0793
47.616826 -32.941299 56.106465
47.043574 -32.950793 57.014415
45.63666 -34.838248 55.984016
46.621748 -33.904726 56.0793
42.233612 -21.095886 61.114746
42.505736 -20.090243 60.127857
42.868262 -21.713836 61.565491
42.233612 -21.095886 61.114746
42.010652 -22.071085 62.198998
43.07879 -29.880322 69.521904
42.677087 -29.315223 69.283364
42.053314 -30.327071 70.061172
44.030882 -29.437309 68.857735
43.07879 -29.880322 69.521904
43.407108 -30.449157 69.635544
44.464039 -30.606137 68.750206
43.610652 -31.032117 69.561081
45.222992 -29.553503 68.216752
44.464039 -30.606137 68.750206
45.327831 -30.153496 67.995583
46.544464 -30.643479 65.070435
46.763445 -29.973205 65.756519
45.869982 -31.031146 66.044658
47.135563 -30.306562 63.998676
46.544464 -30.643479 65.070435
46.2421 -31.364504 64.286816
46.935128 -31.528204 61.141228
47.373476 -30.766173 62.129311
46.39485 -31.78962 62.226974
46.475296 -32.357937 60.151459
47.453922 -31.33449 60.053795
46.935128 -31.528204 61.141228
45.981472 -33.158905 59.056881
46.475296 -32.357937 60.151459
37.194374 -26.484411 67.245403
37.71454 -25.487447 66.400429
37.698777 -27.167831 67.690746
37.194374 -26.484411 67.245403
36.707295 -27.454452 68.192932
38.816203 -31.472895 71.626087
38.324145 -30.883001 71.201248
39.926716 -31.128189 71.116741
38.816203 -31.472895 71.626087
41.017473 -30.731693 70.641632
40.560854 -30.158468 70.297741
39.926716 -31.128189 71.116741
42.053314 -30.327071 70.061172
41.017473 -30.731693 70.641632
34.617729 -27.92993 69.160663
35.620306 -27.714324 68.632972
33.933718 -28.844265 69.979698
34.617729 -27.92993 69.160663
33.290819 -29.72849 70.897697
34.394821 -29.541842 70.436355
33.933718 -28.844265 69.979698
32.567939 -30.579282 71.772732
33.290819 -29.72849 70.897697
32.106836 -29.881706 71.316074
31.872018 -31.404251 72.701859
33.056002 -31.251036 72.283481
32.567939 -30.579282 71.772732
28.66337 -30.177568 72.791866
27.793002 -30.986379 73.571694
29.792977 -30.103033 72.256848
28.66337 -30.177568 72.791866
30.188482 -30.830336 72.638035
30.98845 -30.005195 71.809922
29.792977 -30.103033 72.256848
31.121584 -32.196005 73.610928
31.872018 -31.404251 72.701859
30.633521 -31.524252 73.100178
30.381564 -32.967038 74.516835
31.121584 -32.196005 73.610928
30.381564 -32.967038 74.516835
29.11451 -33.057932 74.915638
38.601782 -25.189683 65.813457
37.71454 -25.487447 66.400429
39.586436 -24.835472 65.326042
38.601782 -25.189683 65.813457
39.17051 -25.843578 66.255802
40.484152 -24.482464 64.760826
39.915425 -23.828568 64.318481
39.586436 -24.835472 65.326042
50.014736 -20.413822 59.272022
49.298155 -19.924712 58.711876
49.064432 -20.757577 59.865635
50.014736 -20.413822 59.272022
50.668825 -20.921119 59.772106
52.002537 -22.635815 60.522167
51.677639 -22.027439 60.4216
51.210861 -22.920127 61.274326
52.002537 -22.635815 60.522167
52.218645 -23.302283 60.513996
52.125828 -25.552506 59.526764
52.274328 -24.766507 60.014786
51.539915 -25.710676 60.475182
52.125828 -25.552506 59.526764
51.912382 -26.411515 58.998215
45.508674 -34.033903 58.018494
46.521293 -33.039221 58.025638
45.981472 -33.158905 59.056881
45.039062 -34.878489 56.910847
45.508674 -34.033903 58.018494
45.63666 -34.838248 55.984016
45.039062 -34.878489 56.910847
3 60 59 15
3 1 18 17
3 1 19 18
3 0 22 20
3 2 25 23
3 2 27 25
3 2 29 27
3 3 32 30
3 3 61 63
3 63 62 32
3 61 62 63
3 3 64 66
3 64 33 65
3 64 65 66
3 4 67 69
3 67 68 69
3 4 70 72
3 70 34 71
3 70 71 72
3 73 36 74
3 6 75 77
3 75 37 76
3 75 76 77
3 6 38 37
3 6 40 38
3 78 41 79
3 81 80 41
3 8 82 84
3 82 43 83
3 82 83 84
3 85 44 86
3 87 86 16
3 85 86 87
3 88 45 89
3 90 89 44
3 88 89 90
3 91 46 92
3 93 47 94
3 95 48 96
3 97 96 47
3 95 96 97
3 99 98 48
3 10 100 101
3 10 102 103
3 9 49 42
3 11 50 21
3 11 51 50
3 5 52 35
3 12 53 24
3 12 54 53
3 12 55 54
3 13 56 26
3 13 104 106
3 106 105 56
3 104 105 106
3 13 107 108
3 14 109 111
3 111 110 28
3 109 110 111
3 14 112 113
3 7 57 39
3 114 58 115
3 116 115 31
3 114 115 116
3 118 117 58
3 119 4 120
3 119 120 121
3 122 6 123
3 125 124 6
3 15 16 8
3 126 16 127
3 128 127 15
3 126 127 128
3 130 129 16
3 17 131 132
3 18 133 135
3 135 134 17
3 133 134 135
3 18 136 138
3 136 137 138
3 18 139 140
3 19 141 143
3 143 142 18
3 141 142 143
3 19 144 146
3 144 10 145
3 144 145 146
3 20 21 9
3 22 21 20
3 22 11 21
3 23 24 5
3 25 24 23
3 25 12 24
3 25 26 12
3 27 26 25
3 27 13 26
3 27 28 13
3 29 28 27
3 29 14 28
3 30 31 7
3 32 31 30
3 32 147 149
3 149 148 31
3 147 148 149
3 32 150 151
3 153 152 32
3 33 154 156
3 154 155 156
3 33 157 158
3 159 17 160
3 34 161 163
3 161 17 162
3 161 162 163
3 34 1 17
3 164 35 165
3 166 165 0
3 164 165 166
3 36 167 169
3 167 35 168
3 167 168 169
3 36 5 35
3 170 36 171
3 37 172 174
3 172 36 173
3 172 173 174
3 37 5 36
3 37 23 5
3 38 23 37
3 38 2 23
3 38 39 2
3 40 39 38
3 40 7 39
3 175 40 176
3 177 176 6
3 175 176 177
3 41 178 180
3 178 40 179
3 178 179 180
3 41 7 40
3 41 30 7
3 181 30 182
3 183 182 41
3 181 182 183
3 184 3 185
3 186 185 30
3 184 185 186
3 188 187 3
3 189 42 190
3 43 191 193
3 191 42 192
3 191 192 193
3 43 9 42
3 16 43 8
3 44 43 16
3 44 9 43
3 44 20 9
3 45 20 44
3 45 0 20
3 194 45 195
3 196 45 197
3 198 0 199
3 200 199 45
3 198 199 200
3 202 201 0
3 203 8 204
3 205 8 206
3 207 15 208
3 209 208 8
3 207 208 209
3 46 210 212
3 210 15 211
3 210 211 212
3 46 213 215
3 215 214 15
3 213 214 215
3 47 216 217
3 47 218 219
3 47 220 222
3 220 46 221
3 220 221 222
3 48 46 47
3 48 223 225
3 225 224 46
3 223 224 225
3 48 226 227
3 229 228 48
3 42 230 231
3 49 232 234
3 234 233 42
3 232 233 234
3 49 235 237
3 235 4 236
3 235 236 237
3 21 49 9
3 50 49 21
3 50 4 49
3 50 34 4
3 51 34 50
3 51 1 34
3 35 22 0
3 52 22 35
3 52 11 22
3 24 52 5
3 53 52 24
3 53 11 52
3 53 51 11
3 54 51 53
3 54 1 51
3 54 19 1
3 55 19 54
3 55 10 19
3 26 55 12
3 56 55 26
3 56 10 55
3 56 238 240
3 240 239 10
3 238 239 240
3 242 241 56
3 28 243 245
3 245 244 13
3 243 244 245
3 247 246 28
3 39 29 2
3 57 29 39
3 57 14 29
3 31 57 7
3 58 57 31
3 58 14 57
3 58 248 250
3 250 249 14
3 248 249 250
3 252 251 58
3 253 33 254
3 255 254 3
3 253 254 255
3 256 33 257
3 259 258 33
