ply
format ascii 1.0
element vertex 291
property float x
property float y
property float z
element face 281
property list uchar int vertex_index
end_header
61.373314 10.775881 10.800816
56.090893 16.77103 18.7694
43.844425 4.926525 11.826288
50.940903 2.91194 11.220535
57.57933 13.828037 7.335328
58.359665 1.020283 10.80404
43.99543 12.89282 10.015154
47.583496 11.578362 9.707941
47.239311 3.955757 11.766649
51.310772 10.171793 8.971285
59.102226 16.017471 11.120312
59.661469 12.151119 8.559456
58.034004 7.389765 8.507599
60.879627 6.290035 9.590255
63.466705 5.534107 11.566449
56.444424 19.014748 15.312115
59.643238 14.261608 14.193982
62.939209 9.775532 13.828311
40.904266 14.000488 9.444124
41.042648 5.765482 10.999386
54.850883 8.73764 8.390144
54.695423 1.886515 10.739973
47.673733 15.393154 8.875329
49.565636 14.609943 8.53363
49.4524 10.882769 9.358572
51.424423 13.811142 8.156948
60.232849 13.376389 10.816487
59.665089 14.199757 9.562768
60.545948 11.417034 9.563999
60.289871 9.217936 8.918695
61.405067 8.648443 9.881994
62.203789 5.869175 10.480048
62.465233 8.173056 11.061829
56.198067 17.846214 16.970533
57.986755 16.572514 14.667928
58.046917 15.626274 16.40387
59.977913 13.530869 15.972904
58.218216 14.777145 18.273645
43.953304 8.898647 10.897243
42.392361 9.415472 10.695009
42.353149 5.367002 11.539721
49.069649 3.438725 11.521382
56.314667 14.724247 7.114382
54.873562 12.188038 7.599166
56.41106 11.382809 7.559142
58.216763 4.191509 9.552036
56.534737 4.718222 9.403024
56.543308 1.424438 10.683702
45.749035 12.251793 9.947502
45.650436 8.34219 10.875944
45.485111 4.453873 11.887527
47.44352 7.757051 10.678284
49.290661 7.150736 10.364773
51.152042 6.530769 10.006739
59.028652 15.103432 8.545489
58.684982 12.962315 7.81319
57.815964 10.604387 7.750852
59.101498 9.875347 8.202601
59.49316 6.799688 8.926099
59.841038 3.734936 9.923486
60.139053 0.686695 11.116209
61.409821 3.359318 10.513569
62.919273 3.065536 11.305058
58.004154 17.614777 13.089809
59.362171 15.091103 12.566467
60.775543 12.648895 12.278263
62.16806 10.232065 12.234786
61.322605 12.020235 13.913683
61.885544 11.477396 15.686755
42.367043 13.484283 9.860328
41.003502 9.875572 10.235382
53.205112 13.001572 7.820581
53.119698 9.452902 8.623346
52.994072 5.907806 9.680573
56.489471 8.042934 8.336325
54.792694 5.297176 9.459251
52.823421 2.388758 10.937243
63.4758 7.785063 12.422529
50.53846 16.018549 8.05154
49.608702 16.459461 8.209619
51.467854 15.619148 7.863198
50.49503 14.210542 8.345289
50.53846 16.018549 8.05154
56.14448 17.308622 17.869967
55.158167 18.396853 18.159356
55.10458 17.85926 19.058789
43.042263 3.15164 12.105228
42.296625 3.371879 11.961945
43.098787 5.146764 11.683004
43.753399 2.967805 12.303778
43.042263 3.15164 12.105228
49.86729 1.342081 11.996582
48.931663 1.605474 12.147005
50.005276 3.175332 11.370959
50.812664 1.125852 11.882849
49.86729 1.342081 11.996582
57.464388 15.441824 7.303252
57.926097 14.946006 7.558408
56.946998 14.276142 7.224855
56.832056 15.889929 7.192779
57.464388 15.441824 7.303252
57.441299 -0.40063 11.44624
56.533121 -0.198552 11.38607
57.451487 1.222361 10.743871
58.414058 -0.544953 11.489932
57.441299 -0.40063 11.44624
58.957826 16.521275 10.500483
58.573915 17.377351 11.404078
63.910168 4.188769 11.921428
63.636451 2.954483 11.790733
63.192989 4.299822 11.435754
55.769979 20.318699 15.693043
55.488829 19.63171 16.478269
56.609988 19.637663 14.558381
55.769979 20.318699 15.693043
57.224289 18.314763 14.200962
57.389853 18.937677 13.447228
56.609988 19.637663 14.558381
61.132202 12.180426 16.778652
60.931729 12.504133 15.829829
60.178387 13.207163 16.921727
62.171366 11.233645 16.62444
61.132202 12.180426 16.778652
40.273395 14.204265 9.09158
40.837343 16.047804 9.026934
40.360508 12.127617 9.470327
40.273395 14.204265 9.09158
43.181236 13.188551 9.937741
43.179406 15.179626 9.520091
43.993599 14.883895 9.597504
40.490158 5.936179 10.594637
40.470585 7.991224 10.212635
41.023075 7.820527 10.617384
40.517181 3.889757 10.913185
40.490158 5.936179 10.594637
46.244693 2.28574 12.358322
45.367593 2.534798 12.418761
46.362211 4.204815 11.827088
54.04033 14.316056 7.468537
53.235674 14.767575 7.555122
53.655897 0.402539 11.527589
52.719896 0.653661 11.626224
53.759422 2.137637 10.838608
60.264646 -0.8231 11.770937
61.005748 0.557466 11.367728
48.662751 16.851067 8.380469
47.706306 17.284282 8.521437
48.619684 15.001548 8.70448
48.662751 16.851067 8.380469
49.608702 16.459461 8.209619
55.365651 19.047443 17.307479
55.158167 18.396853 18.159356
56.321246 18.430481 16.141324
55.488829 19.63171 16.478269
55.365651 19.047443 17.307479
59.298538 13.830301 18.072097
60.178387 13.207163 16.921727
59.098064 14.154007 17.123275
41.602443 15.767161 9.235522
40.837343 16.047804 9.026934
41.681595 3.540578 11.637704
41.026344 3.739818 11.367537
41.697899 5.566242 11.269554
41.681595 3.540578 11.637704
42.296625 3.371879 11.961945
48.020634 1.819935 12.225271
47.105465 2.078451 12.347905
48.15448 3.697241 11.644015
48.020634 1.819935 12.225271
48.931663 1.605474 12.147005
56.268517 16.390076 7.055708
56.832056 15.889929 7.192779
55.595108 15.177393 7.115438
56.268517 16.390076 7.055708
55.594115 13.456143 7.356774
54.874555 13.909289 7.35783
55.595108 15.177393 7.115438
55.555605 -0.024862 11.414905
54.631662 0.206176 11.443041
55.619366 1.655477 10.711838
55.555605 -0.024862 11.414905
56.533121 -0.198552 11.38607
63.682698 8.619461 13.87914
63.308719 9.577861 14.687092
54.997434 17.253166 19.975428
55.10458 17.85926 19.058789
56.123407 16.280387 19.729827
54.997434 17.253166 19.975428
44.897167 14.522979 9.563369
43.993599 14.883895 9.597504
46.736318 15.773146 8.993457
47.706306 17.284282 8.521437
45.773969 14.202465 9.529543
46.736318 15.773146 8.993457
46.711384 13.822473 9.411416
44.872232 12.572306 9.981328
44.897167 14.522979 9.563369
45.773969 14.202465 9.529543
59.239258 15.612417 9.721711
58.957826 16.521275 10.500483
59.383657 15.108614 10.34154
58.921039 16.064255 9.213071
59.239258 15.612417 9.721711
59.346871 14.651594 9.054129
58.731257 16.596449 8.705018
58.921039 16.064255 9.213071
58.650759 15.583704 8.163489
58.731257 16.596449 8.705018
58.478924 14.513146 7.797339
58.650759 15.583704 8.163489
58.856817 14.032874 8.179339
58.132156 13.395176 7.574259
57.926097 14.946006 7.558408
58.478924 14.513146 7.797339
61.641132 1.893777 11.066408
61.005748 0.557466 11.367728
60.774437 2.023007 10.814889
62.395859 1.746886 11.462152
61.641132 1.893777 11.066408
62.164547 3.212427 10.909313
63.230464 1.652739 11.804501
62.395859 1.746886 11.462152
63.230464 1.652739 11.804501
63.636451 2.954483 11.790733
58.024879 18.176004 12.388827
57.389853 18.937677 13.447228
58.55319 16.816124 12.105061
58.573915 17.377351 11.404078
58.024879 18.176004 12.388827
62.781887 10.428793 15.616314
63.308719 9.577861 14.687092
62.412377 10.626464 14.757533
62.781887 10.428793 15.616314
62.171366 11.233645 16.62444
57.187069 15.283445 19.481949
57.154555 15.774088 18.521522
56.123407 16.280387 19.729827
58.36565 14.392515 19.260822
57.187069 15.283445 19.481949
59.298538 13.830301 18.072097
58.36565 14.392515 19.260822
42.333832 15.509058 9.443624
43.179406 15.179626 9.520091
41.635655 13.742386 9.652226
41.602443 15.767161 9.235522
42.333832 15.509058 9.443624
40.410126 10.065158 9.865956
40.360508 12.127617 9.470327
40.953884 11.93803 9.839753
40.410126 10.065158 9.865956
40.470585 7.991224 10.212635
40.517181 3.889757 10.913185
41.026344 3.739818 11.367537
44.573742 2.731479 12.334398
43.753399 2.967805 12.303778
44.664768 4.690199 11.856908
44.573742 2.731479 12.334398
45.367593 2.534798 12.418761
46.244693 2.28574 12.358322
47.105465 2.078451 12.347905
52.345329 15.17236 7.723306
51.467854 15.619148 7.863198
52.314768 13.406357 7.988765
52.345329 15.17236 7.723306
53.235674 14.767575 7.555122
54.039337 12.594805 7.709874
54.04033 14.316056 7.468537
54.874555 13.909289 7.35783
51.753923 0.864261 11.741203
50.812664 1.125852 11.882849
51.882162 2.650349 11.078889
51.753923 0.864261 11.741203
52.719896 0.653661 11.626224
53.655897 0.402539 11.527589
54.631662 0.206176 11.443041
59.303753 -0.711747 11.646016
58.414058 -0.544953 11.489932
59.249359 0.853489 10.960124
59.303753 -0.711747 11.646016
60.264646 -0.8231 11.770937
63.950993 7.624227 13.176248
63.207504 8.780297 13.12542
63.682698 8.619461 13.87914
64.065545 6.527086 12.621088
63.950993 7.624227 13.176248
64.060997 5.401607 12.193048
63.471252 6.659585 11.994489
64.065545 6.527086 12.621088
64.504459 4.056269 12.548027
63.910168 4.188769 11.921428
64.060997 5.401607 12.193048
3 78 23 79
3 80 25 81
3 82 81 23
3 80 81 82
3 0 28 26
3 0 30 28
3 0 32 30
3 1 83 85
3 83 33 84
3 83 84 85
3 1 35 33
3 1 37 35
3 2 40 38
3 2 86 88
3 88 87 40
3 86 87 88
3 2 89 90
3 3 91 93
3 93 92 41
3 91 92 93
3 3 94 95
3 4 96 97
3 4 98 100
3 98 42 99
3 98 99 100
3 4 44 42
3 5 47 45
3 5 101 103
3 103 102 47
3 101 102 103
3 5 104 105
3 7 48 22
3 7 49 48
3 7 51 49
3 9 52 24
3 9 53 52
3 10 106 107
3 11 54 27
3 11 55 54
3 11 57 55
3 13 58 29
3 13 59 58
3 13 61 59
3 14 62 31
3 14 108 110
3 110 109 62
3 108 109 110
3 15 111 112
3 15 113 114
3 15 115 117
3 115 63 116
3 115 116 117
3 16 64 34
3 16 65 64
3 16 67 65
3 118 68 119
3 120 119 36
3 118 119 120
3 122 121 68
3 18 123 124
3 18 125 126
3 6 127 129
3 127 69 128
3 127 128 129
3 19 70 39
3 19 130 132
3 132 131 70
3 130 131 132
3 19 133 134
3 8 135 137
3 137 136 50
3 135 136 137
3 138 71 139
3 20 72 43
3 20 73 72
3 12 74 56
3 21 75 46
3 21 76 75
3 21 140 142
3 142 141 76
3 140 141 142
3 144 143 60
3 17 77 66
3 145 22 146
3 23 147 149
3 147 22 148
3 147 148 149
3 23 7 22
3 23 24 7
3 25 24 23
3 25 9 24
3 26 27 10
3 28 27 26
3 28 11 27
3 28 29 11
3 30 29 28
3 30 13 29
3 30 31 13
3 32 31 30
3 32 14 31
3 33 150 151
3 33 152 154
3 152 15 153
3 152 153 154
3 33 34 15
3 35 34 33
3 35 16 34
3 35 36 16
3 37 36 35
3 37 155 157
3 157 156 36
3 155 156 157
3 158 18 159
3 38 39 6
3 40 39 38
3 40 19 39
3 40 160 162
3 162 161 19
3 160 161 162
3 164 163 40
3 41 165 167
3 167 166 8
3 165 166 167
3 169 168 41
3 42 170 171
3 42 172 173
3 42 174 176
3 174 43 175
3 174 175 176
3 44 43 42
3 44 20 43
3 45 46 12
3 47 46 45
3 47 21 46
3 47 177 179
3 179 178 21
3 177 178 179
3 181 180 47
3 183 182 17
3 184 1 185
3 187 186 1
3 188 6 189
3 22 190 191
3 48 192 194
3 194 193 22
3 192 193 194
3 48 195 197
3 195 6 196
3 195 196 197
3 48 38 6
3 49 38 48
3 49 2 38
3 49 50 2
3 51 50 49
3 51 8 50
3 24 51 7
3 52 51 24
3 52 8 51
3 52 41 8
3 53 41 52
3 53 3 41
3 27 198 200
3 200 199 10
3 198 199 200
3 54 201 203
3 203 202 27
3 201 202 203
3 54 204 205
3 54 206 207
3 55 208 210
3 210 209 54
3 208 209 210
3 55 211 213
3 211 4 212
3 211 212 213
3 55 56 4
3 57 56 55
3 57 12 56
3 29 57 11
3 58 57 29
3 58 12 57
3 58 45 12
3 59 45 58
3 59 5 45
3 59 60 5
3 61 60 59
3 61 214 216
3 216 215 60
3 214 215 216
3 31 61 13
3 62 61 31
3 62 217 219
3 219 218 61
3 217 218 219
3 62 220 221
3 223 222 62
3 63 224 225
3 63 226 228
3 226 10 227
3 226 227 228
3 34 63 15
3 64 63 34
3 64 10 63
3 64 26 10
3 65 26 64
3 65 0 26
3 65 66 0
3 67 66 65
3 67 17 66
3 36 67 16
3 68 67 36
3 68 17 67
3 68 229 231
3 231 230 17
3 229 230 231
3 233 232 68
3 234 37 235
3 236 235 1
3 234 235 236
3 237 37 238
3 240 239 37
3 69 241 242
3 69 243 245
3 243 18 244
3 243 244 245
3 39 69 6
3 70 69 39
3 70 18 69
3 70 246 248
3 248 247 18
3 246 247 248
3 250 249 70
3 252 251 19
3 50 253 255
3 255 254 2
3 253 254 255
3 257 256 50
3 259 258 8
3 260 25 261
3 71 262 264
3 262 25 263
3 262 263 264
3 71 9 25
3 43 265 267
3 265 71 266
3 265 266 267
3 72 71 43
3 72 9 71
3 72 53 9
3 73 53 72
3 73 3 53
3 56 44 4
3 74 44 56
3 74 20 44
3 46 74 12
3 75 74 46
3 75 20 74
3 75 73 20
3 76 73 75
3 76 3 73
3 76 268 270
3 270 269 3
3 268 269 270
3 272 271 76
3 274 273 21
3 60 275 277
3 277 276 5
3 275 276 277
3 279 278 60
3 66 32 0
3 77 32 66
3 77 14 32
3 280 77 281
3 282 281 17
3 280 281 282
3 283 77 284
3 285 14 286
3 287 286 77
3 285 286 287
3 290 289 14
3 288 289 290
