ply
format ascii 1.0
element vertex 116
property float x
property float y
property float z
element face 100
property list uchar int vertex_index
end_header
7.045027 88.504112 -9.574484
10.181911 84.713005 -20.462393
4.359369 85.723862 -15.037514
8.220436 87.170906 -15.584801
5.283703 84.121857 -20.717611
7.108955 81.16304 -25.087946
10.82955 86.961922 -15.550562
9.095245 86.092499 -18.192392
6.666056 85.896584 -18.215521
7.503386 84.70784 -20.712442
6.083651 82.827728 -23.093061
8.560108 83.179199 -22.847372
11.458603 82.998505 -22.355165
5.620672 87.364105 -12.356218
5.334152 87.678268 -9.115393
9.189787 88.653801 -9.880892
9.917555 87.930428 -12.844931
7.549059 87.971397 -12.693123
6.047853 86.774918 -15.409401
4.716311 85.076813 -18.010965
3.562578 82.914009 -20.47637
4.08399 81.883759 -23.068884
4.847708 80.494682 -25.313425
9.807915 81.278687 -24.586138
9.638578 85.402752 -19.327393
10.519352 85.914139 -18.06992
11.062685 85.224392 -19.20492
6.849641 88.637062 -7.927636
7.824374 88.816277 -8.141566
4.263225 85.905686 -13.449571
4.893877 86.725807 -12.108923
4.99002 86.543983 -13.696866
10.449987 88.420014 -9.946468
10.056461 88.742905 -8.43447
6.475499 79.939717 -26.126484
5.344876 79.605537 -26.239224
5.978331 80.828861 -25.200685
11.343203 81.096497 -24.219864
10.633259 82.138596 -23.470651
12.168546 81.956406 -23.104377
5.231025 87.702515 -7.425944
4.707479 86.932644 -8.827382
3.757547 84.879776 -14.769249
3.812905 84.672073 -16.317733
11.386505 86.34885 -16.749004
12.313975 86.604657 -15.432265
9.962397 86.52721 -16.871477
11.386505 86.34885 -16.749004
10.519352 85.914139 -18.06992
11.713919 84.46698 -20.227936
11.062685 85.224392 -19.20492
12.352265 83.60973 -21.174322
10.820257 83.855755 -21.408779
11.713919 84.46698 -20.227936
13.077133 82.687107 -22.009611
12.352265 83.60973 -21.174322
12.168546 81.956406 -23.104377
13.077133 82.687107 -22.009611
4.750617 86.882889 -10.488511
5.477412 87.521186 -10.735805
4.893877 86.725807 -12.108923
4.707479 86.932644 -8.827382
4.750617 86.882889 -10.488511
4.263225 85.905686 -13.449571
3.757547 84.879776 -14.769249
8.896753 88.891121 -8.294771
10.056461 88.742905 -8.43447
8.117407 88.578957 -9.727688
7.824374 88.816277 -8.141566
8.896753 88.891121 -8.294771
11.744677 87.143051 -14.176375
12.313975 86.604657 -15.432265
11.28868 87.627305 -12.82356
11.744677 87.143051 -14.176375
10.373552 87.446175 -14.197747
10.813871 88.058327 -11.428488
11.28868 87.627305 -12.82356
9.553671 88.292114 -11.362911
10.449987 88.420014 -9.946468
10.813871 88.058327 -11.428488
3.991376 84.348549 -17.804458
3.812905 84.672073 -16.317733
4.53784 85.400338 -16.52424
3.414509 83.267147 -19.037161
3.991376 84.348549 -17.804458
4.139444 83.995411 -19.243668
2.946178 82.008278 -20.244915
3.414509 83.267147 -19.037161
3.069365 81.62524 -21.628689
2.946178 82.008278 -20.244915
3.330071 81.110116 -22.924946
3.069365 81.62524 -21.628689
3.823284 82.398884 -21.772627
3.571734 80.560021 -24.157259
3.330071 81.110116 -22.924946
3.953594 79.865482 -25.279529
3.571734 80.560021 -24.157259
4.465849 81.189221 -24.191154
4.319612 79.130623 -26.331449
3.953594 79.865482 -25.279529
4.319612 79.130623 -26.331449
5.344876 79.605537 -26.239224
10.502231 80.132405 -25.254194
11.343203 81.096497 -24.219864
9.067074 80.191517 -25.631241
10.502231 80.132405 -25.254194
7.717594 80.133693 -25.882145
8.458435 81.220864 -24.837042
9.067074 80.191517 -25.631241
6.475499 79.939717 -26.126484
7.717594 80.133693 -25.882145
5.994203 88.22414 -7.69809
6.849641 88.637062 -7.927636
6.18959 88.09119 -9.344938
5.994203 88.22414 -7.69809
5.231025 87.702515 -7.425944
3 1 24 26
3 24 7 25
3 24 25 26
3 1 9 7
3 1 11 9
3 0 27 28
3 2 29 31
3 31 30 13
3 29 30 31
3 32 15 33
3 3 16 6
3 3 17 16
3 3 18 17
3 4 19 8
3 4 20 19
3 4 21 20
3 5 22 10
3 5 34 36
3 36 35 22
3 34 35 36
3 37 23 38
3 39 38 12
3 37 38 39
3 41 40 14
3 43 42 2
3 44 6 45
3 7 46 48
3 46 6 47
3 46 47 48
3 7 3 6
3 7 8 3
3 9 8 7
3 9 4 8
3 9 10 4
3 11 10 9
3 11 5 10
3 49 1 50
3 51 12 52
3 53 52 1
3 51 52 53
3 54 12 55
3 57 56 12
3 13 14 0
3 58 14 59
3 60 59 13
3 58 59 60
3 62 61 14
3 64 63 2
3 15 65 66
3 15 67 69
3 67 0 68
3 67 68 69
3 6 70 71
3 16 72 74
3 74 73 6
3 72 73 74
3 16 75 76
3 16 77 79
3 77 15 78
3 77 78 79
3 17 15 16
3 17 0 15
3 17 13 0
3 18 13 17
3 18 2 13
3 8 18 3
3 19 18 8
3 19 2 18
3 19 80 82
3 82 81 2
3 80 81 82
3 20 83 85
3 85 84 19
3 83 84 85
3 20 86 87
3 20 88 89
3 21 90 92
3 92 91 20
3 90 91 92
3 21 93 94
3 10 21 4
3 22 21 10
3 22 95 97
3 97 96 21
3 95 96 97
3 22 98 99
3 101 100 22
3 12 11 1
3 23 11 12
3 23 5 11
3 102 23 103
3 104 23 105
3 106 5 107
3 108 107 23
3 106 107 108
3 110 109 5
3 14 111 113
3 113 112 0
3 111 112 113
3 115 114 14
