ply
format ascii 1.0
element vertex 421
property float x
property float y
property float z
element face 364
property list uchar int vertex_index
end_header
64.499222 -20.014164 -12.483673
61.14053 -31.266651 -11.300512
54.600922 -6.747833 -13.698616
65.636208 -11.783588 -7.978813
67.167519 -14.792255 -8.300333
48.81871 1.62187 -21.140982
61.970337 -34.152092 -7.419577
48.617195 -15.240624 -5.6171
49.653946 -11.649286 -9.99984
54.136971 -11.163432 -9.306379
62.202553 -22.10713 -16.28372
49.702347 -2.976322 -17.80208
60.216057 -39.314621 -6.00754
62.673309 -10.292927 -7.950308
67.1968 -18.93733 -8.604527
62.734688 -25.615444 -12.110214
61.247261 -28.124676 -15.359861
60.123737 -36.849487 -10.011497
45.705967 -10.585133 -9.857903
50.014893 -7.500249 -14.09271
54.302692 -2.136023 -17.985441
50.7206 -15.351308 -5.304764
51.369476 -13.502932 -7.517155
53.627434 -13.242355 -7.112202
61.906631 -23.335852 -18.024637
47.508041 -2.658897 -17.190008
47.747334 -5.002324 -15.584345
62.351936 -30.00993 -9.814346
63.317764 -27.283476 -10.161755
61.885963 -28.44442 -11.76268
61.646065 -26.821552 -13.781019
61.064667 -29.736084 -13.305609
60.065842 -38.11554 -8.010296
52.166183 -9.452844 -11.889381
49.922184 -9.637642 -12.09156
52.289337 -7.272428 -14.008064
52.228622 -5.021706 -16.062201
54.544903 -4.450856 -15.861704
60.97477 -7.720786 -10.230671
58.940083 -7.961446 -10.595308
65.965813 -19.307405 -10.533207
66.520668 -16.832792 -10.473677
65.270477 -17.303551 -12.524118
66.594116 -13.11694 -8.12319
66.734161 -12.47135 -10.196491
63.002968 -31.536882 -7.923498
61.455574 -32.732742 -9.34243
46.689804 -14.768611 -5.811869
47.213455 -13.156054 -7.985981
49.214024 -13.518174 -7.833792
51.857162 -11.535187 -9.719418
54.464645 -8.993748 -11.508141
63.14064 -20.975729 -14.417677
47.147057 -0.276274 -18.696756
49.324409 -0.668163 -19.515249
51.596176 -0.454086 -19.95273
60.766479 -10.137935 -8.126987
64.315491 -10.835822 -7.90876
66.722565 -21.291771 -8.673384
65.197556 -21.902071 -10.510778
64.289925 -24.572262 -10.390926
63.628685 -22.796854 -12.348471
62.355507 -23.896029 -14.150843
61.653614 -25.123381 -15.870771
61.683357 -26.419786 -17.457567
61.025745 -36.748741 -6.780203
60.680851 -35.43808 -8.741892
60.543232 -34.070892 -10.718531
60.648876 -32.630516 -12.72027
61.013763 -31.102928 -14.749235
47.889511 -16.823658 -3.376789
47.586956 -11.364799 -10.065775
47.798798 -9.39447 -12.029196
47.849129 -7.262215 -13.867558
49.937584 -5.267019 -15.996096
51.993095 -2.736271 -18.044611
53.885159 0.160019 -20.061689
56.746574 -8.437491 -11.045645
56.873394 -6.117764 -13.266447
67.359924 -16.752205 -8.471382
66.794823 -14.532999 -10.352463
53.291233 -14.2345 -6.028315
52.174017 -14.296831 -6.208483
51.837816 -15.288977 -5.124595
62.142426 -22.393814 -19.127388
62.124153 -23.975501 -18.806738
46.79896 -5.716358 -14.431511
46.732995 -4.544942 -15.18537
45.784621 -5.258977 -14.032535
60.989757 -6.498529 -11.326751
61.851685 -6.537413 -11.190555
66.880818 -13.954598 -8.211761
66.686459 -14.316668 -7.231301
66.97316 -15.154326 -7.319873
48.507835 2.743595 -21.911983
47.748119 1.864497 -20.628205
62.486653 -32.844487 -7.671538
63.393483 -32.289504 -6.994907
62.877167 -33.597109 -6.742946
62.525318 -20.599645 -16.440243
62.994361 -20.033944 -15.507221
62.671596 -21.541429 -15.350699
46.309252 -0.957262 -17.441562
46.135138 0.294942 -18.096649
61.719894 -10.215431 -8.038647
60.576813 -11.330261 -7.1241
61.530228 -11.407757 -7.035761
62.728363 -9.062129 -8.972772
61.774948 -8.984633 -9.061112
61.719894 -10.215431 -8.038647
64.975849 -11.309705 -7.943786
64.246906 -12.068625 -6.97616
64.907265 -12.542508 -7.011186
66.359386 -22.529115 -8.664689
67.112793 -22.280493 -7.798771
65.596882 -22.834266 -9.583386
65.96006 -21.596921 -9.592081
66.359386 -22.529115 -8.664689
60.620901 -38.031681 -6.393871
61.276796 -37.384844 -5.798237
60.871952 -38.667784 -5.411905
60.807817 -33.342849 -13.376592
60.534632 -34.06522 -12.36939
60.990261 -32.579055 -14.391075
60.831319 -31.866722 -13.734752
60.807817 -33.342849 -13.376592
47.478489 -17.55239 -2.257778
46.593429 -17.169055 -2.342409
48.502941 -17.683228 -2.12139
48.913963 -16.954496 -3.2404
47.478489 -17.55239 -2.257778
44.875553 -9.927878 -9.602079
44.77093 -10.798341 -8.731997
45.778446 -9.598387 -10.75009
44.875553 -9.927878 -9.602079
57.889072 -7.004781 -11.929378
57.843328 -8.199469 -10.820476
58.985827 -6.766758 -11.704209
57.952482 -5.844918 -13.039779
56.809984 -7.277627 -12.156046
57.889072 -7.004781 -11.929378
67.278362 -17.844767 -8.537954
67.62025 -17.859686 -7.595415
67.538689 -18.952248 -7.661987
66.329727 -14.623143 -11.417307
66.657746 -15.682896 -10.41307
66.19265 -15.773039 -11.477914
66.501671 -13.418343 -11.36465
66.329727 -14.623143 -11.417307
67.345791 -15.951282 -7.418585
66.97316 -15.154326 -7.319873
49.597317 2.794872 -22.342129
49.935679 1.70595 -21.463479
62.300677 -34.846873 -6.465192
62.877167 -33.597109 -6.742946
62.09156 -21.785348 -18.262022
62.239521 -21.170987 -17.391564
62.054592 -22.721491 -17.154179
62.09156 -21.785348 -18.262022
62.142426 -22.393814 -19.127388
46.613348 -3.373229 -15.988201
46.489744 -2.148573 -16.688188
47.627688 -3.83061 -16.387176
46.613348 -3.373229 -15.988201
46.732995 -4.544942 -15.18537
62.537636 -11.514302 -6.985359
61.530228 -11.407757 -7.035761
65.56303 -10.556211 -8.952814
65.969887 -11.249443 -9.009728
62.83485 -28.646703 -9.98805
63.69094 -28.10136 -9.227484
63.208027 -29.464588 -9.05378
59.848566 -39.436203 -7.578605
60.14095 -38.71508 -7.008918
59.923673 -40.035744 -6.577227
59.98008 -38.856034 -8.592222
59.848566 -39.436203 -7.578605
60.009028 -38.223007 -9.592822
60.09479 -37.482514 -9.010897
59.98008 -38.856034 -8.592222
45.558239 -11.457138 -8.888089
44.77093 -10.798341 -8.731997
44.623202 -11.670346 -7.762183
59.957426 -7.841116 -10.412989
58.800673 -9.135314 -9.516579
59.818016 -9.014983 -9.334261
59.972414 -6.618858 -11.509069
59.957426 -7.841116 -10.412989
60.989757 -6.498529 -11.326751
58.985827 -6.766758 -11.704209
59.972414 -6.618858 -11.509069
65.567554 -16.008419 -12.503134
66.19265 -15.773039 -11.477914
65.895573 -17.068171 -11.498897
65.644848 -13.008883 -7.070607
64.907265 -12.542508 -7.011186
66.123802 -13.675559 -7.142796
66.686459 -14.316668 -7.231301
66.115162 -12.450264 -8.051001
65.644848 -13.008883 -7.070607
66.123802 -13.675559 -7.142796
66.448841 -11.91612 -9.081917
65.969887 -11.249443 -9.009728
66.115162 -12.450264 -8.051001
66.518864 -11.593324 -10.118568
66.448841 -11.91612 -9.081917
66.664139 -12.794145 -9.15984
66.487457 -11.308045 -11.21649
66.518864 -11.593324 -10.118568
48.507835 2.743595 -21.911983
49.597317 2.794872 -22.342129
63.961483 -31.038297 -7.201512
63.393483 -32.289504 -6.994907
63.533542 -30.228063 -8.108356
63.961483 -31.038297 -7.201512
62.677452 -30.773406 -8.868922
63.208027 -29.464588 -9.05378
63.533542 -30.228063 -8.108356
46.95163 -13.962332 -6.898925
46.09301 -13.503429 -6.911696
45.831185 -14.309708 -5.82464
63.538395 -19.531242 -14.500638
64.217686 -19.050459 -13.533636
63.819931 -20.494947 -13.450675
63.538395 -19.531242 -14.500638
62.994361 -20.033944 -15.507221
62.525318 -20.599645 -16.440243
62.239521 -21.170987 -17.391564
46.912292 0.915425 -19.406092
46.135138 0.294942 -18.096649
47.982883 0.672798 -19.918869
47.748119 1.864497 -20.628205
46.912292 0.915425 -19.406092
47.327549 -1.467585 -17.943382
46.309252 -0.957262 -17.441562
46.489744 -2.148573 -16.688188
50.188528 0.560934 -20.650612
49.935679 1.70595 -21.463479
49.07156 0.476853 -20.328116
51.324411 0.667972 -20.869352
50.188528 0.560934 -20.650612
50.460293 -0.561125 -19.733989
52.450809 0.974101 -21.018629
51.324411 0.667972 -20.869352
60.373221 -39.891018 -4.99932
60.871952 -38.667784 -5.411905
59.893707 -40.57741 -5.557268
60.373221 -39.891018 -4.99932
59.923673 -40.035744 -6.577227
59.893707 -40.57741 -5.557268
59.485626 -11.372609 -7.240679
60.576813 -11.330261 -7.1241
59.713871 -10.223558 -8.282419
59.485626 -11.372609 -7.240679
60.870624 -8.929361 -9.178829
59.818016 -9.014983 -9.334261
59.713871 -10.223558 -8.282419
61.879093 -7.776058 -10.112954
60.870624 -8.929361 -9.178829
61.774948 -8.984633 -9.061112
61.851685 -6.537413 -11.190555
61.879093 -7.776058 -10.112954
63.358726 -11.78575 -6.964586
64.246906 -12.068625 -6.97616
63.4944 -10.564374 -7.929534
62.537636 -11.514302 -6.985359
63.358726 -11.78575 -6.964586
64.902672 -10.082328 -8.917787
64.975849 -11.309705 -7.943786
65.56303 -10.556211 -8.952814
64.310303 -9.598293 -8.904254
64.902672 -10.082328 -8.917787
63.489212 -9.326846 -8.925028
63.4944 -10.564374 -7.929534
64.310303 -9.598293 -8.904254
62.728363 -9.062129 -8.972772
63.489212 -9.326846 -8.925028
67.52972 -19.98676 -7.730941
67.538689 -18.952248 -7.661987
67.292603 -21.163981 -7.76537
67.112793 -22.280493 -7.798771
66.959682 -20.11455 -8.638955
67.52972 -19.98676 -7.730941
67.292603 -21.163981 -7.76537
64.201843 -26.80182 -9.34791
63.69094 -28.10136 -9.227484
64.687923 -25.446213 -9.462495
64.201843 -26.80182 -9.34791
63.803844 -25.927869 -10.27634
65.143067 -24.169361 -9.52346
64.687923 -25.446213 -9.462495
64.743741 -23.237167 -10.450852
65.596882 -22.834266 -9.583386
65.143067 -24.169361 -9.52346
62.012516 -25.517468 -18.523203
62.124153 -23.975501 -18.806738
61.794994 -24.877819 -17.741102
61.828381 -36.145197 -6.145505
61.276796 -37.384844 -5.798237
61.498041 -35.450417 -7.09989
62.300677 -34.846873 -6.465192
61.828381 -36.145197 -6.145505
60.253526 -37.59539 -10.60188
60.009028 -38.223007 -9.592822
60.272062 -36.174706 -11.015004
60.253526 -37.59539 -10.60188
60.481809 -34.785408 -11.368521
60.333484 -35.460189 -10.365014
60.272062 -36.174706 -11.015004
60.596054 -33.350704 -11.7194
60.481809 -34.785408 -11.368521
60.534632 -34.06522 -12.36939
61.381933 -31.806261 -15.400429
60.990261 -32.579055 -14.391075
61.321434 -30.290646 -15.775122
61.381933 -31.806261 -15.400429
61.438183 -28.80152 -16.080434
61.130512 -29.613802 -15.054548
61.321434 -30.290646 -15.775122
61.656231 -27.949075 -17.129288
61.465309 -27.272231 -16.408714
61.438183 -28.80152 -16.080434
62.071666 -27.086617 -18.162886
61.656231 -27.949075 -17.129288
62.012516 -25.517468 -18.523203
62.071666 -27.086617 -18.162886
45.551779 -14.971847 -4.730351
45.831185 -14.309708 -5.82464
46.364662 -15.491867 -4.693271
45.551779 -14.971847 -4.730351
47.328358 -15.727874 -4.595886
47.6535 -15.004618 -5.714484
46.364662 -15.491867 -4.693271
46.964516 -16.519391 -3.475731
46.593429 -17.169055 -2.342409
48.253353 -16.032141 -4.496944
47.328358 -15.727874 -4.595886
46.964516 -16.519391 -3.475731
50.329508 -16.21832 -4.204388
49.305055 -16.087483 -4.340776
48.913963 -16.954496 -3.2404
51.837816 -15.288977 -5.124595
50.329508 -16.21832 -4.204388
46.311983 -12.742599 -7.952128
46.09301 -13.503429 -6.911696
46.498734 -11.846971 -8.992026
46.311983 -12.742599 -7.952128
47.400205 -12.260426 -9.025878
46.646462 -10.974966 -9.961839
45.558239 -11.457138 -8.888089
46.498734 -11.846971 -8.992026
46.824861 -9.003055 -11.835736
45.778446 -9.598387 -10.75009
46.752382 -9.989802 -10.943549
46.850027 -7.936927 -12.754918
46.824861 -9.003055 -11.835736
47.823963 -8.328342 -12.948377
46.849857 -6.846304 -13.573118
46.850027 -7.936927 -12.754918
47.798231 -6.132269 -14.725952
46.79896 -5.716358 -14.431511
46.849857 -6.846304 -13.573118
53.595301 1.281154 -21.073109
52.450809 0.974101 -21.018629
52.740668 -0.147033 -20.00721
54.777676 -13.067158 -6.906494
53.291233 -14.2345 -6.028315
55.027684 -11.970855 -7.981829
54.777676 -13.067158 -6.906494
55.282452 -10.931394 -9.078917
53.882203 -12.202894 -8.20929
55.027684 -11.970855 -7.981829
57.684008 -9.3304 -9.723382
58.800673 -9.135314 -9.516579
56.587254 -9.568423 -9.94855
57.684008 -9.3304 -9.723382
57.843328 -8.199469 -10.820476
55.441772 -9.800462 -10.176012
55.282452 -10.931394 -9.078917
56.587254 -9.568423 -9.94855
57.90312 -4.637747 -14.170926
57.952482 -5.844918 -13.039779
56.839571 -4.939643 -14.38178
57.90312 -4.637747 -14.170926
55.703335 -5.254678 -14.597864
55.737158 -6.432799 -13.482532
56.839571 -4.939643 -14.38178
55.675325 -4.10619 -15.679408
54.572913 -5.599344 -14.78016
55.703335 -5.254678 -14.597864
55.54616 -2.924683 -16.792364
55.675325 -4.10619 -15.679408
55.425055 -1.767266 -17.854233
54.423797 -3.293439 -16.923572
55.54616 -2.924683 -16.792364
55.204683 -0.59963 -18.958824
55.425055 -1.767266 -17.854233
54.995916 0.548391 -19.996948
54.093925 -0.988002 -19.023565
55.204683 -0.59963 -18.958824
54.689646 1.684801 -21.08812
54.995916 0.548391 -19.996948
53.595301 1.281154 -21.073109
54.689646 1.684801 -21.08812
67.441993 -16.931256 -7.50411
67.62025 -17.859686 -7.595415
67.263722 -15.77223 -8.385858
67.345791 -15.951282 -7.418585
67.441993 -16.931256 -7.50411
66.47134 -12.387519 -11.286664
66.764492 -13.502174 -10.274477
66.501671 -13.418343 -11.36465
66.487457 -11.308045 -11.21649
66.47134 -12.387519 -11.286664
64.603313 -17.695152 -13.553859
64.88485 -18.658857 -12.503895
64.217686 -19.050459 -13.533636
64.968849 -16.285495 -13.588344
64.603313 -17.695152 -13.553859
65.567554 -16.008419 -12.503134
64.968849 -16.285495 -13.588344
3 81 23 82
3 83 82 21
3 81 82 83
3 85 84 24
3 86 26 87
3 86 87 88
3 1 29 27
3 1 31 29
3 2 35 33
3 2 37 35
3 90 89 38
3 0 42 40
3 4 91 93
3 91 43 92
3 91 92 93
3 4 44 43
3 5 94 95
3 6 96 98
3 96 45 97
3 96 97 98
3 6 46 45
3 7 49 47
3 9 50 22
3 9 51 50
3 10 99 101
3 101 100 52
3 99 100 101
3 102 53 103
3 11 54 25
3 11 55 54
3 13 104 106
3 104 56 105
3 104 105 106
3 13 107 109
3 109 108 56
3 107 108 109
3 3 110 112
3 110 57 111
3 110 111 112
3 113 58 114
3 115 59 116
3 117 116 58
3 115 116 117
3 15 60 28
3 15 61 60
3 15 62 61
3 16 63 30
3 16 64 63
3 12 118 120
3 118 65 119
3 118 119 120
3 17 66 32
3 17 67 66
3 121 68 122
3 123 69 124
3 125 124 68
3 123 124 125
3 126 70 127
3 130 129 70
3 128 129 130
3 18 131 132
3 18 133 134
3 8 71 48
3 19 72 34
3 19 73 72
3 19 74 73
3 20 75 36
3 20 76 75
3 135 77 136
3 137 136 39
3 135 136 137
3 138 78 139
3 140 139 77
3 138 139 140
3 14 141 143
3 141 79 142
3 141 142 143
3 144 80 145
3 146 145 41
3 144 145 146
3 148 147 80
3 149 4 150
3 152 151 5
3 153 6 154
3 21 22 7
3 23 22 21
3 23 9 22
3 24 155 157
3 157 156 10
3 155 156 157
3 159 158 24
3 160 25 161
3 26 162 164
3 162 25 163
3 162 163 164
3 26 11 25
3 165 13 166
3 168 167 3
3 27 169 171
3 169 28 170
3 169 170 171
3 29 28 27
3 29 15 28
3 29 30 15
3 31 30 29
3 31 16 30
3 172 32 173
3 174 173 12
3 172 173 174
3 175 32 176
3 177 17 178
3 179 178 32
3 177 178 179
3 180 18 181
3 180 181 182
3 33 34 8
3 35 34 33
3 35 19 34
3 35 36 19
3 37 36 35
3 37 20 36
3 38 183 185
3 183 39 184
3 183 184 185
3 186 39 187
3 188 187 38
3 186 187 188
3 190 189 39
3 40 41 14
3 42 41 40
3 42 191 193
3 193 192 41
3 191 192 193
3 194 3 195
3 43 196 197
3 43 198 200
3 198 3 199
3 198 199 200
3 43 201 203
3 203 202 3
3 201 202 203
3 44 204 206
3 206 205 43
3 204 205 206
3 44 207 208
3 210 209 5
3 45 211 212
3 45 213 214
3 45 215 217
3 215 27 216
3 215 216 217
3 46 27 45
3 46 1 27
3 47 218 220
3 218 48 219
3 218 219 220
3 49 48 47
3 49 8 48
3 22 49 7
3 50 49 22
3 50 8 49
3 50 33 8
3 51 33 50
3 51 2 33
3 52 221 223
3 223 222 0
3 221 222 223
3 225 224 52
3 227 226 10
3 53 228 229
3 53 230 232
3 230 5 231
3 230 231 232
3 25 233 235
3 233 53 234
3 233 234 235
3 54 53 25
3 54 5 53
3 54 236 238
3 238 237 5
3 236 237 238
3 55 239 241
3 241 240 54
3 239 240 241
3 55 242 243
3 244 12 245
3 246 12 247
3 249 248 12
3 56 250 251
3 56 252 253
3 56 254 256
3 254 38 255
3 254 255 256
3 257 38 258
3 259 258 56
3 257 258 259
3 261 260 38
3 57 262 263
3 57 264 266
3 264 13 265
3 264 265 266
3 267 57 268
3 269 268 3
3 267 268 269
3 270 57 271
3 272 13 273
3 274 273 57
3 272 273 274
3 276 275 13
3 277 14 278
3 58 279 280
3 58 281 283
3 281 14 282
3 281 282 283
3 58 40 14
3 59 40 58
3 59 0 40
3 28 284 285
3 60 286 288
3 288 287 28
3 286 287 288
3 60 289 290
3 60 291 293
3 291 59 292
3 291 292 293
3 61 59 60
3 61 0 59
3 61 52 0
3 62 52 61
3 62 10 52
3 30 62 15
3 63 62 30
3 63 10 62
3 63 24 10
3 64 24 63
3 64 294 296
3 296 295 24
3 294 295 296
3 65 297 298
3 65 299 301
3 299 6 300
3 299 300 301
3 32 65 12
3 66 65 32
3 66 6 65
3 66 46 6
3 67 46 66
3 67 1 46
3 302 17 303
3 304 17 305
3 306 67 307
3 308 307 17
3 306 307 308
3 68 309 311
3 309 67 310
3 309 310 311
3 68 1 67
3 68 31 1
3 69 31 68
3 69 16 31
3 312 69 313
3 314 69 315
3 316 16 317
3 318 317 69
3 316 317 318
3 319 64 320
3 321 320 16
3 319 320 321
3 322 64 323
3 325 324 64
3 326 47 327
3 328 47 329
3 330 7 331
3 332 331 47
3 330 331 332
3 70 333 334
3 70 335 337
3 335 7 336
3 335 336 337
3 70 21 7
3 338 21 339
3 340 339 70
3 338 339 340
3 342 341 21
3 48 343 344
3 71 345 347
3 347 346 48
3 345 346 347
3 71 348 350
3 348 18 349
3 348 349 350
3 34 71 8
3 72 71 34
3 72 18 71
3 72 351 353
3 353 352 18
3 351 352 353
3 73 354 356
3 356 355 72
3 354 355 356
3 73 357 358
3 73 359 361
3 359 26 360
3 359 360 361
3 74 26 73
3 74 11 26
3 36 74 19
3 75 74 36
3 75 11 74
3 75 55 11
3 76 55 75
3 76 362 364
3 364 363 55
3 362 363 364
3 365 23 366
3 367 23 368
3 369 9 370
3 371 370 23
3 369 370 371
3 39 372 373
3 77 374 376
3 376 375 39
3 374 375 376
3 77 377 379
3 377 9 378
3 377 378 379
3 77 51 9
3 78 51 77
3 78 2 51
3 380 78 381
3 382 78 383
3 384 2 385
3 386 385 78
3 384 385 386
3 387 37 388
3 389 388 2
3 387 388 389
3 390 37 391
3 392 20 393
3 394 393 37
3 392 393 394
3 395 20 396
3 397 76 398
3 399 398 20
3 397 398 399
3 400 76 401
3 403 402 76
3 79 404 405
3 79 406 408
3 406 4 407
3 406 407 408
3 41 79 14
3 80 79 41
3 80 4 79
3 80 44 4
3 409 44 410
3 411 410 80
3 409 410 411
3 413 412 44
3 414 42 415
3 416 415 0
3 414 415 416
3 417 42 418
3 420 419 42
