ply
format ascii 1.0
element vertex 190
property float x
property float y
property float z
element face 185
property list uchar int vertex_index
end_header
-64.724747 -68.124832 -9.054024
-56.959625 -79.001694 -7.084108
-58.336761 -75.270706 -0.11709
-61.166805 -73.735023 -7.970545
-63.432701 -69.710548 -12.451773
-54.830479 -79.987373 0.842501
-54.22789 -82.062195 -2.785286
-58.146896 -77.12661 -3.567379
-61.912693 -72.064476 -4.536953
-57.368248 -73.080658 3.059527
-61.29612 -70.229485 -1.352654
-64.583862 -66.56311 -5.799797
-63.081665 -70.987282 -8.483915
-62.409184 -71.806213 -10.197062
-64.234406 -68.902107 -10.758574
-52.913811 -83.46817 -0.584402
-56.5923 -77.646133 0.388523
-56.488853 -78.616745 -1.369684
-58.387482 -76.218018 -1.815485
-60.113449 -74.639633 -4.020653
-60.19138 -73.756981 -2.320267
-55.348064 -74.232193 5.305466
-56.576202 -71.797699 4.560619
-60.526272 -69.153564 0.112303
-62.336491 -67.531746 -2.089077
-63.050102 -68.499359 -3.564051
-63.950119 -65.700874 -4.301165
-65.325424 -63.667297 -6.536991
-59.086525 -76.389999 -7.506145
-60.375233 -74.600754 -9.677826
-53.171989 -82.353424 1.263851
-54.804977 -78.936722 2.60944
-56.425056 -76.617645 2.089804
-66.011551 -65.156693 -9.684584
-65.76104 -65.886154 -11.364401
-55.599258 -80.576439 -4.949163
-54.626171 -81.01368 -0.963623
-56.142948 -79.579453 -3.160078
-57.654297 -78.043266 -5.337376
-59.729271 -75.50428 -5.763977
-61.697243 -72.898926 -6.240202
-63.437462 -70.186829 -6.779066
-55.992752 -75.487244 3.725367
-57.984978 -74.236343 1.507616
-58.581093 -70.570312 2.321259
-59.378029 -71.753204 0.848582
-59.93964 -72.808701 -0.693878
-61.77771 -71.189438 -2.900919
-63.430828 -69.371735 -5.129217
-64.849892 -67.357529 -7.38891
-65.864265 -64.430267 -8.068256
-65.150818 -66.646927 -13.066628
-64.239944 -67.446564 -14.738503
-56.533674 -79.510067 -7.927246
-55.931099 -80.318085 -6.893844
-52.310748 -84.13031 0.538755
-52.169365 -84.744629 -0.408266
-56.161297 -71.107529 5.303866
-55.585197 -72.330117 5.708572
-62.684889 -66.13628 -2.485575
-61.863817 -66.990925 -1.386761
-63.491703 -65.220844 -3.591619
-63.143305 -66.61631 -3.195121
-62.684889 -66.13628 -2.485575
-64.205925 -64.265615 -4.694743
-63.491703 -65.220844 -3.591619
-62.455315 -71.18436 -12.158355
-61.943556 -72.232193 -11.031
-62.920943 -70.758381 -11.324417
-62.905998 -70.130336 -13.265294
-62.455315 -71.18436 -12.158355
-54.670227 -78.375218 3.466606
-53.950756 -79.519432 3.740181
-55.480266 -77.215679 3.206788
-55.615016 -77.777184 2.349622
-54.670227 -78.375218 3.466606
-66.465653 -63.9704 -10.849388
-66.448234 -63.636584 -10.027808
-53.952675 -82.614914 -3.690473
-53.364306 -83.346222 -2.612471
-54.913574 -81.319317 -3.867225
-54.638359 -81.872036 -4.772411
-53.952675 -82.614914 -3.690473
-59.082459 -69.263816 1.921591
-58.128891 -69.921402 3.039649
-65.885402 -62.555984 -7.670097
-65.48764 -62.197544 -6.926153
-65.854836 -65.064701 -13.386429
-65.455929 -66.266541 -12.215515
-66.159946 -64.684314 -12.535315
-64.545963 -66.231361 -15.895876
-65.044556 -65.837647 -15.071061
-63.663703 -67.858421 -15.532027
-64.545963 -66.231361 -15.895876
-52.707266 -84.04921 -1.512029
-52.169365 -84.744629 -0.408266
-53.570851 -82.765183 -1.684844
-53.364306 -83.346222 -2.612471
-52.707266 -84.04921 -1.512029
-54.971128 -73.547363 6.080996
-54.374414 -74.734649 6.460463
-55.962133 -73.014946 4.933042
-54.971128 -73.547363 6.080996
-55.585197 -72.330117 5.708572
-60.958708 -67.801834 -0.286071
-60.055048 -68.555442 0.817114
-61.431382 -68.342655 -0.988387
-60.958708 -67.801834 -0.286071
-61.863817 -66.990925 -1.386761
-64.893577 -63.248827 -5.812655
-64.637771 -64.684085 -5.419078
-64.205925 -64.265615 -4.694743
-65.48764 -62.197544 -6.926153
-64.893577 -63.248827 -5.812655
-58.662148 -76.85453 -8.35339
-57.598698 -78.160378 -8.142372
-58.023075 -77.695847 -7.295127
-59.306501 -75.959907 -9.439231
-58.662148 -76.85453 -8.35339
-59.730879 -75.495376 -8.591985
-59.875521 -75.052987 -10.49548
-59.306501 -75.959907 -9.439231
-60.926581 -73.629463 -10.771382
-61.392209 -73.203484 -9.937444
-61.943556 -72.232193 -11.031
-59.875521 -75.052987 -10.49548
-60.926581 -73.629463 -10.771382
-52.501703 -82.976036 2.40064
-52.439836 -83.572937 1.462882
-53.206291 -81.800106 2.175265
-52.501703 -82.976036 2.40064
-54.035536 -80.617081 1.96459
-54.001234 -81.170399 1.053176
-53.206291 -81.800106 2.175265
-54.022785 -80.091755 2.84806
-53.950756 -79.519432 3.740181
-54.817728 -79.462048 1.725971
-54.035536 -80.617081 1.96459
-54.022785 -80.091755 2.84806
-56.533674 -79.510067 -7.927246
-57.598698 -78.160378 -8.142372
-66.340397 -64.335131 -11.689297
-65.886295 -65.521423 -10.524493
-66.465653 -63.9704 -10.849388
-66.159946 -64.684314 -12.535315
-66.340397 -64.335131 -11.689297
-55.250915 -81.105457 -5.826371
-54.638359 -81.872036 -4.772411
-56.279442 -79.789066 -6.016635
-55.931099 -80.318085 -6.893844
-55.250915 -81.105457 -5.826371
-53.0429 -82.910797 0.339725
-52.310748 -84.13031 0.538755
-52.439836 -83.572937 1.462882
-54.696268 -75.407753 5.646202
-54.374414 -74.734649 6.460463
-55.018612 -76.035279 4.856153
-54.696268 -75.407753 5.646202
-55.670408 -74.859718 4.515416
-55.264115 -76.650479 4.02457
-55.018612 -76.035279 4.856153
-56.208904 -76.052445 2.907585
-55.480266 -77.215679 3.206788
-55.264115 -76.650479 4.02457
-57.126446 -70.535095 4.159328
-56.161297 -71.107529 5.303866
-57.578648 -71.184005 3.440939
-57.126446 -70.535095 4.159328
-58.128891 -69.921402 3.039649
-59.553683 -69.861938 1.216781
-59.082459 -69.263816 1.921591
-60.055048 -68.555442 0.817114
-66.374592 -63.27337 -9.219645
-66.448234 -63.636584 -10.027808
-65.937908 -64.79348 -8.87642
-66.154823 -62.937469 -8.43573
-65.594844 -64.048782 -7.302624
-65.885402 -62.555984 -7.670097
-66.374592 -63.27337 -9.219645
-66.154823 -62.937469 -8.43573
-65.499992 -65.437828 -14.235124
-65.854836 -65.064701 -13.386429
-64.695381 -67.046746 -13.902565
-65.499992 -65.437828 -14.235124
-65.044556 -65.837647 -15.071061
-63.309619 -68.998345 -14.408659
-62.905998 -70.130336 -13.265294
-63.836322 -68.578556 -13.595138
-63.309619 -68.998345 -14.408659
-63.663703 -67.858421 -15.532027
3 0 14 12
3 1 53 54
3 55 15 56
3 2 18 16
3 2 20 18
3 57 22 58
3 59 24 60
3 61 26 62
3 63 62 24
3 61 62 63
3 65 64 26
3 3 29 28
3 4 66 68
3 68 67 13
3 66 67 68
3 4 69 70
3 71 31 72
3 73 32 74
3 75 74 31
3 73 74 75
3 77 76 33
3 6 78 79
3 6 80 82
3 80 35 81
3 80 81 82
3 5 36 30
3 7 37 17
3 7 38 37
3 7 39 38
3 8 40 19
3 8 41 40
3 9 42 21
3 9 43 42
3 83 44 84
3 10 45 23
3 10 46 45
3 10 47 46
3 11 48 25
3 11 49 48
3 11 50 49
3 86 85 27
3 87 51 88
3 89 88 34
3 87 88 89
3 90 52 91
3 93 92 52
3 12 13 3
3 14 13 12
3 14 4 13
3 15 94 95
3 15 96 98
3 96 6 97
3 96 97 98
3 16 17 5
3 18 17 16
3 18 7 17
3 18 19 7
3 20 19 18
3 20 8 19
3 99 21 100
3 22 101 103
3 101 21 102
3 101 102 103
3 22 9 21
3 104 23 105
3 24 106 108
3 106 23 107
3 106 107 108
3 24 10 23
3 24 25 10
3 26 25 24
3 26 11 25
3 26 27 11
3 109 27 110
3 111 110 26
3 109 110 111
3 113 112 27
3 28 114 116
3 116 115 1
3 114 115 116
3 29 117 119
3 119 118 28
3 117 118 119
3 29 120 121
3 13 29 3
3 122 29 123
3 124 123 13
3 122 123 124
3 126 125 29
3 127 30 128
3 129 30 130
3 131 5 132
3 133 132 30
3 131 132 133
3 31 134 135
3 31 136 138
3 136 5 137
3 136 137 138
3 31 16 5
3 32 16 31
3 32 2 16
3 140 139 1
3 33 34 0
3 141 34 142
3 143 142 33
3 141 142 143
3 145 144 34
3 35 146 147
3 35 148 150
3 148 1 149
3 148 149 150
3 30 151 153
3 151 15 152
3 151 152 153
3 36 15 30
3 36 6 15
3 17 36 5
3 37 36 17
3 37 6 36
3 37 35 6
3 38 35 37
3 38 1 35
3 38 28 1
3 39 28 38
3 39 3 28
3 19 39 7
3 40 39 19
3 40 3 39
3 40 12 3
3 41 12 40
3 41 0 12
3 21 154 155
3 42 156 158
3 158 157 21
3 156 157 158
3 42 159 160
3 42 161 163
3 161 32 162
3 161 162 163
3 43 32 42
3 43 2 32
3 164 22 165
3 44 166 168
3 166 22 167
3 166 167 168
3 44 9 22
3 23 169 171
3 169 44 170
3 169 170 171
3 45 44 23
3 45 9 44
3 45 43 9
3 46 43 45
3 46 2 43
3 46 20 2
3 47 20 46
3 47 8 20
3 25 47 10
3 48 47 25
3 48 8 47
3 48 41 8
3 49 41 48
3 49 0 41
3 49 33 0
3 50 33 49
3 50 172 174
3 174 173 33
3 172 173 174
3 27 50 11
3 175 50 176
3 177 176 27
3 175 176 177
3 179 178 50
3 34 14 0
3 51 14 34
3 51 4 14
3 180 51 181
3 52 182 184
3 182 51 183
3 182 183 184
3 52 4 51
3 52 185 187
3 187 186 4
3 185 186 187
3 189 188 52
