ply
format ascii 1.0
element vertex 232
property float x
property float y
property float z
element face 213
property list uchar int vertex_index
end_header
-12.098032 -52.460793 -8.529631
-18.331291 -53.325268 -18.17971
-24.0476 -45.186226 -24.320877
-15.08784 -56.810707 -15.548372
-26.461775 -47.283997 -25.052055
-25.909779 -40.582932 -28.095852
-14.930495 -53.405739 -13.937267
-17.815468 -50.525764 -16.837193
-20.670231 -47.244858 -19.886322
-23.068661 -43.569176 -23.20113
-21.465721 -49.434757 -21.030926
-23.712944 -52.167694 -21.566341
-24.766016 -39.499645 -26.851711
-27.878237 -48.374573 -25.49157
-27.534513 -44.70689 -27.017998
-28.945772 -45.620956 -27.535698
-16.686882 -55.122322 -16.852787
-16.384926 -53.481354 -16.24036
-17.913414 -51.837337 -17.634754
-19.276432 -48.935349 -18.335686
-19.429087 -50.092888 -19.070477
-20.869617 -48.252434 -20.571789
-19.945568 -51.426849 -19.561611
-22.036377 -54.475639 -20.073593
-25.135208 -53.598869 -21.837177
-23.339371 -44.296188 -23.849865
-24.011345 -41.584229 -24.983604
-24.314404 -42.18092 -25.645554
-19.105019 -54.961506 -18.517387
-25.131758 -46.200996 -24.690945
-25.06715 -42.929733 -26.153412
-26.188074 -43.790321 -26.582561
-27.071383 -41.290943 -28.584663
-12.416754 -54.148079 -9.886328
-13.652016 -53.084499 -11.324686
-15.006043 -51.941681 -12.783915
-16.447014 -50.709579 -14.269747
-14.913335 -55.022346 -14.865278
-16.34609 -52.015327 -15.375389
-17.928112 -49.379993 -15.787994
-19.395203 -47.947449 -17.345436
-20.794205 -46.409142 -18.949848
-22.076759 -44.763977 -20.609241
-23.203819 -43.011429 -22.330662
-21.946938 -45.455872 -21.504185
-22.184818 -46.319717 -22.160149
-22.843277 -47.354095 -22.612976
-20.836308 -52.906456 -19.866398
-22.443695 -50.758595 -21.331089
-23.883179 -48.523224 -22.936771
-25.191936 -49.770599 -23.226711
-26.617447 -51.034191 -23.578701
-24.147671 -41.150841 -24.119114
-24.893261 -39.181442 -25.976849
-25.108433 -39.972038 -27.541668
-12.565774 -51.253052 -8.543579
-11.762379 -51.623524 -7.811459
-29.090951 -47.519174 -26.804903
-28.412005 -46.997765 -26.513634
-28.557184 -48.895983 -25.782839
-29.616635 -46.050161 -27.861016
-29.090951 -47.519174 -26.804903
-27.756921 -41.666507 -28.834049
-27.302948 -42.998916 -27.80133
-27.988486 -43.374481 -28.050717
-27.44487 -39.999159 -29.621759
-27.756921 -41.666507 -28.834049
-13.065574 -54.498255 -11.212198
-13.034385 -53.616289 -10.605507
-12.447943 -55.030045 -10.493019
-14.968269 -52.67371 -13.360591
-14.316333 -53.32186 -12.648861
-14.278559 -54.053888 -13.225537
-15.000587 -55.916527 -15.206825
-14.263994 -56.704588 -14.553048
-14.351247 -57.598768 -14.894595
-20.517173 -54.798361 -19.29718
-19.970664 -53.933981 -19.191893
-19.651528 -55.825886 -18.622675
-26.589515 -53.014412 -22.904525
-25.876327 -52.31653 -22.707939
-25.848396 -54.296751 -22.033763
-27.313358 -51.645773 -23.824326
-26.589515 -53.014412 -22.904525
-25.102792 -38.301304 -27.37727
-25.166415 -38.142202 -26.939839
-24.829639 -39.340543 -26.41428
-28.694116 -43.831514 -28.309567
-27.988486 -43.374481 -28.050717
-28.240143 -45.163923 -27.276848
-29.405675 -44.200939 -28.595585
-28.694116 -43.831514 -28.309567
-29.405675 -44.200939 -28.595585
-29.616635 -46.050161 -27.861016
-14.249433 -54.933644 -13.715505
-14.278559 -54.053888 -13.225537
-21.776676 -56.460279 -19.490911
-21.117207 -55.582953 -19.400778
-22.731884 -55.272689 -20.178739
-21.776676 -56.460279 -19.490911
-23.570168 -54.118717 -20.925114
-22.874661 -53.321666 -20.819967
-22.731884 -55.272689 -20.178739
-24.281299 -54.834305 -21.060531
-24.424076 -52.883281 -21.701759
-23.570168 -54.118717 -20.925114
-25.002365 -55.614458 -21.213324
-24.281299 -54.834305 -21.060531
-25.848396 -54.296751 -22.033763
-25.002365 -55.614458 -21.213324
-25.82373 -39.125855 -28.809669
-26.255733 -39.364841 -29.10915
-14.479093 -58.638052 -15.159233
-14.351247 -57.598768 -14.894595
-15.31312 -57.781133 -15.778834
-14.479093 -58.638052 -15.159233
-16.112641 -56.936941 -16.431041
-15.887361 -55.966515 -16.200579
-15.31312 -57.781133 -15.778834
-16.999865 -56.018067 -17.049341
-16.112641 -56.936941 -16.431041
-17.82207 -55.11954 -17.712803
-17.509087 -54.223795 -17.516248
-16.999865 -56.018067 -17.049341
-18.208934 -55.937658 -17.881641
-18.718155 -54.143387 -18.348548
-17.82207 -55.11954 -17.712803
-18.680771 -56.881332 -18.003445
-18.208934 -55.937658 -17.881641
-19.651528 -55.825886 -18.622675
-18.680771 -56.881332 -18.003445
-26.836536 -39.718847 -29.353555
-26.255733 -39.364841 -29.10915
-26.490581 -40.936937 -28.340257
-26.836536 -39.718847 -29.353555
-27.44487 -39.999159 -29.621759
-12.95732 -52.851816 -9.934121
-12.797959 -52.008173 -9.255773
-12.257393 -53.304436 -9.20798
-13.57495 -52.320026 -10.653301
-12.95732 -52.851816 -9.934121
-13.034385 -53.616289 -10.605507
-14.315972 -51.830824 -11.393308
-13.57495 -52.320026 -10.653301
-13.639319 -53.893269 -11.919246
-13.065574 -54.498255 -11.212198
-14.32903 -52.51309 -12.054301
-13.639319 -53.893269 -11.919246
-14.316333 -53.32186 -12.648861
-14.992985 -51.259415 -12.122923
-14.315972 -51.830824 -11.393308
-14.32903 -52.51309 -12.054301
-15.763691 -50.727124 -12.880805
-14.992985 -51.259415 -12.122923
-16.484177 -50.111072 -13.623721
-15.763691 -50.727124 -12.880805
-15.726529 -51.32563 -13.526831
-17.265745 -49.53006 -14.402304
-16.484177 -50.111072 -13.623721
-14.240853 -55.741947 -14.179511
-14.263994 -56.704588 -14.553048
-14.921915 -54.214042 -14.401273
-14.249433 -54.933644 -13.715505
-14.240853 -55.741947 -14.179511
-18.006293 -48.865267 -15.161427
-17.265745 -49.53006 -14.402304
-17.187563 -50.044786 -15.028871
-18.775402 -48.231133 -15.962619
-18.006293 -48.865267 -15.161427
-19.508947 -47.51486 -16.74134
-18.775402 -48.231133 -15.962619
-18.661657 -48.663721 -16.566715
-20.241043 -46.824543 -17.566448
-19.508947 -47.51486 -16.74134
-20.940545 -46.05539 -18.368654
-20.241043 -46.824543 -17.566448
-20.094704 -47.178296 -18.147642
-21.612599 -45.306929 -19.218643
-20.940545 -46.05539 -18.368654
-22.253875 -44.484347 -20.04834
-21.612599 -45.306929 -19.218643
-21.435482 -45.586559 -19.779545
-22.846252 -43.676552 -20.924011
-22.253875 -44.484347 -20.04834
-22.640289 -43.887703 -21.469952
-23.409782 -42.800278 -21.784721
-22.846252 -43.676552 -20.924011
-21.436343 -53.691047 -19.969995
-20.517173 -54.798361 -19.29718
-21.117207 -55.582953 -19.400778
-27.943753 -50.315964 -24.78076
-27.247842 -49.704382 -24.535135
-27.313358 -51.645773 -23.824326
-28.557184 -48.895983 -25.782839
-27.943753 -50.315964 -24.78076
-11.441643 -52.883723 -7.812
-11.762379 -51.623524 -7.811459
-11.704672 -53.801842 -8.495742
-11.441643 -52.883723 -7.812
-11.864033 -54.645485 -9.174091
-12.257393 -53.304436 -9.20798
-11.704672 -53.801842 -8.495742
-11.963905 -55.596257 -9.788905
-11.864033 -54.645485 -9.174091
-12.447943 -55.030045 -10.493019
-11.963905 -55.596257 -9.788905
-12.565774 -51.253052 -8.543579
-12.797959 -52.008173 -9.255773
-23.907311 -41.932438 -22.686861
-23.409782 -42.800278 -21.784721
-24.379236 -41.002144 -23.581087
-23.907311 -41.932438 -22.686861
-23.675745 -42.081135 -23.224888
-24.77189 -40.07396 -24.510483
-24.379236 -41.002144 -23.581087
-25.144685 -39.08926 -25.439351
-24.77189 -40.07396 -24.510483
-24.520466 -40.166141 -25.047981
-25.428261 -38.100994 -26.396653
-25.144685 -39.08926 -25.439351
-25.428261 -38.100994 -26.396653
-25.166415 -38.142202 -26.939839
-25.423057 -38.820408 -28.532578
-25.509106 -40.277485 -27.81876
-25.82373 -39.125855 -28.809669
-25.224128 -38.643268 -28.170393
-25.423057 -38.820408 -28.532578
-25.05292 -38.407072 -27.825415
-24.937224 -39.735841 -27.19669
-25.224128 -38.643268 -28.170393
-25.102792 -38.301304 -27.37727
-25.05292 -38.407072 -27.825415
3 0 55 56
3 57 15 58
3 59 58 13
3 57 58 59
3 61 60 15
3 1 18 16
3 1 20 18
3 1 22 20
3 2 27 25
3 4 31 29
3 62 32 63
3 64 63 14
3 62 63 64
3 66 65 32
3 67 34 68
3 69 68 33
3 67 68 69
3 6 70 72
3 70 35 71
3 70 71 72
3 6 36 35
3 3 73 75
3 73 37 74
3 73 74 75
3 7 38 17
3 7 39 38
3 7 40 39
3 8 41 19
3 8 42 41
3 8 44 42
3 10 45 21
3 10 46 45
3 76 47 77
3 78 77 28
3 76 77 78
3 11 48 23
3 11 49 48
3 11 50 49
3 79 51 80
3 81 80 24
3 79 80 81
3 83 82 51
3 9 52 43
3 12 53 26
3 12 84 86
3 86 85 53
3 84 85 86
3 5 54 30
3 13 14 4
3 15 14 13
3 15 87 89
3 89 88 14
3 87 88 89
3 15 90 91
3 93 92 15
3 94 6 95
3 16 17 3
3 18 17 16
3 18 7 17
3 18 19 7
3 20 19 18
3 20 8 19
3 20 21 8
3 22 21 20
3 22 10 21
3 96 23 97
3 98 23 99
3 100 11 101
3 102 101 23
3 100 101 102
3 103 24 104
3 105 104 11
3 103 104 105
3 106 24 107
3 109 108 24
3 25 26 9
3 27 26 25
3 27 12 26
3 111 110 5
3 112 3 113
3 114 3 115
3 116 16 117
3 118 117 3
3 116 117 118
3 119 16 120
3 121 1 122
3 123 122 16
3 121 122 123
3 124 28 125
3 126 125 1
3 124 125 126
3 127 28 128
3 130 129 28
3 29 30 2
3 31 30 29
3 31 5 30
3 14 31 4
3 32 31 14
3 32 5 31
3 32 131 133
3 133 132 5
3 131 132 133
3 135 134 32
3 33 136 138
3 138 137 0
3 136 137 138
3 34 139 141
3 141 140 33
3 139 140 141
3 34 142 143
3 144 34 145
3 35 146 148
3 146 34 147
3 146 147 148
3 35 149 151
3 151 150 34
3 149 150 151
3 35 152 153
3 36 154 156
3 156 155 35
3 154 155 156
3 36 157 158
3 37 159 160
3 37 161 163
3 161 6 162
3 161 162 163
3 17 37 3
3 38 37 17
3 38 6 37
3 38 36 6
3 39 36 38
3 39 164 166
3 166 165 36
3 164 165 166
3 39 167 168
3 40 169 171
3 171 170 39
3 169 170 171
3 40 172 173
3 19 40 7
3 41 40 19
3 41 174 176
3 176 175 40
3 174 175 176
3 41 177 178
3 42 179 181
3 181 180 41
3 179 180 181
3 42 182 183
3 42 184 186
3 184 43 185
3 184 185 186
3 44 43 42
3 44 9 43
3 21 44 8
3 45 44 21
3 45 9 44
3 45 25 9
3 46 25 45
3 46 2 25
3 28 22 1
3 47 22 28
3 47 10 22
3 23 187 189
3 187 47 188
3 187 188 189
3 48 47 23
3 48 10 47
3 48 46 10
3 49 46 48
3 49 2 46
3 49 29 2
3 50 29 49
3 50 4 29
3 24 50 11
3 51 50 24
3 51 4 50
3 51 13 4
3 190 13 191
3 192 191 51
3 190 191 192
3 194 193 13
3 195 0 196
3 197 0 198
3 199 33 200
3 201 200 0
3 199 200 201
3 202 33 203
3 205 204 33
3 207 206 0
3 43 208 209
3 52 210 212
3 212 211 43
3 210 211 212
3 52 213 214
3 26 52 9
3 53 52 26
3 53 215 217
3 217 216 52
3 215 216 217
3 53 218 219
3 221 220 53
3 30 27 2
3 54 27 30
3 54 12 27
3 222 54 223
3 224 223 5
3 222 223 224
3 225 54 226
3 227 12 228
3 229 228 54
3 227 228 229
3 231 230 12
