ply
format ascii 1.0
element vertex 168
property float x
property float y
property float z
element face 148
property list uchar int vertex_index
end_header
3.62484 -98.800415 1.014847
3.166445 -99.522499 9.137257
2.450436 -104.762596 0.245845
2.265038 -109.154083 -5.053541
2.148937 -102.971313 -3.50868
1.209015 -105.015068 9.603779
2.1555 -105.243256 4.646094
3.805567 -99.642326 4.796871
5.279943 -94.019669 12.869998
2.920362 -101.792244 0.675177
2.322983 -104.055443 -1.719412
2.696606 -100.960114 -1.137346
2.264393 -107.936264 -6.931314
2.046038 -102.248528 9.393064
1.721817 -105.172585 7.055979
2.517368 -102.394333 7.001493
2.86224 -102.43277 4.751196
3.568848 -99.651375 6.896229
2.215895 -107.683807 -0.213852
2.294422 -110.005745 -2.950329
2.19133 -107.080986 -2.344959
2.085176 -106.123116 -4.286915
0.688482 -107.781342 9.781874
2.708195 -99.365578 11.528292
2.678513 -112.034508 -5.749233
1.210091 -107.952667 7.084181
1.705326 -108.045578 4.516973
2.060305 -107.982246 2.080703
2.410133 -105.135513 2.373048
2.999653 -102.261917 2.640475
3.818533 -99.387688 2.83629
3.699539 -96.60096 13.489043
4.102879 -96.709244 11.07645
4.520969 -96.866875 8.82156
4.835949 -96.967171 6.714516
2.466993 -99.734489 -2.797476
2.587522 -108.684708 -8.233144
2.361467 -107.136505 -7.74777
2.100379 -103.877399 -4.764855
2.068499 -105.4533 -5.153973
2.117057 -104.547214 -3.897797
2.514438 -99.319474 12.803522
2.139935 -100.729206 11.731148
4.489741 -95.310315 13.179521
4.323528 -95.303249 14.406838
5.11373 -94.012604 14.097316
5.282321 -95.582046 8.627271
5.100852 -95.507099 9.698233
5.439811 -95.632194 7.573749
4.678459 -96.917023 7.768038
5.282321 -95.582046 8.627271
2.757993 -98.091541 -2.517594
2.892744 -98.780487 -1.734411
2.493207 -109.427936 -7.353266
2.49353 -110.036846 -6.414379
2.264716 -108.545174 -5.992427
2.493207 -109.427936 -7.353266
2.587522 -108.684708 -8.233144
5.933306 -92.757095 13.726719
5.11373 -94.012604 14.097316
2.255159 -108.844776 -1.582091
2.255 -110.266659 -1.802091
2.215737 -109.10569 -0.433853
2.158107 -106.359874 -6.476172
2.174785 -107.02969 -5.609115
2.068499 -105.4533 -5.153973
2.361467 -107.136505 -7.74777
2.158107 -106.359874 -6.476172
0.481018 -107.690079 11.197116
0.596315 -109.139839 9.858156
0.718303 -106.317375 11.038901
0.481018 -107.690079 11.197116
0.978569 -104.934238 10.949854
0.948748 -106.398205 9.692826
0.718303 -106.317375 11.038901
1.390346 -103.553951 10.768891
0.978569 -104.934238 10.949854
1.808857 -102.170681 10.663534
1.627526 -103.631798 9.498421
1.390346 -103.553951 10.768891
2.377116 -100.807053 10.460678
1.808857 -102.170681 10.663534
2.139935 -100.729206 11.731148
2.459626 -111.404648 -3.220228
2.255 -110.266659 -1.802091
2.651671 -112.419029 -4.61968
2.459626 -111.404648 -3.220228
2.486467 -111.020127 -4.349781
2.996638 -113.388973 -6.044615
2.651671 -112.419029 -4.61968
2.700267 -111.477058 -6.762225
2.471776 -110.594296 -5.401387
2.49353 -110.036846 -6.414379
3.046519 -112.87164 -7.127206
2.700267 -111.477058 -6.762225
2.996638 -113.388973 -6.044615
3.046519 -112.87164 -7.127206
3.471667 -98.31345 0.171751
4.091498 -97.304749 1.110835
0.843873 -109.237556 8.443443
0.596315 -109.139839 9.858156
1.104677 -109.323219 7.094596
0.843873 -109.237556 8.443443
0.949287 -107.867005 8.433027
1.367109 -109.37944 5.738518
1.104677 -109.323219 7.094596
1.614726 -109.425895 4.454914
1.367109 -109.37944 5.738518
1.457708 -107.999122 5.800577
1.830723 -109.409329 3.15962
1.614726 -109.425895 4.454914
2.008212 -109.377662 1.941485
1.830723 -109.409329 3.15962
1.882815 -108.013912 3.298838
2.137942 -109.254909 0.713425
2.008212 -109.377662 1.941485
2.1381 -107.833027 0.933426
2.215737 -109.10569 -0.433853
2.137942 -109.254909 0.713425
3.560749 -96.609597 14.776958
4.323528 -95.303249 14.406838
3.01011 -97.937164 13.783898
3.560749 -96.609597 14.776958
3.203867 -97.983269 12.508668
2.514438 -99.319474 12.803522
3.01011 -97.937164 13.783898
6.120539 -92.782601 12.548084
5.933306 -92.757095 13.726719
5.480339 -94.083496 11.722452
6.120539 -92.782601 12.548084
4.891807 -95.428284 10.825678
4.691411 -95.364456 11.973224
5.480339 -94.083496 11.722452
4.311924 -96.78806 9.949005
4.891807 -95.428284 10.825678
5.100852 -95.507099 9.698233
5.550663 -95.659477 6.574744
5.439811 -95.632194 7.573749
4.896387 -96.929489 5.730766
5.550663 -95.659477 6.574744
4.381196 -98.267067 4.771944
4.320758 -98.304748 5.755693
4.896387 -96.929489 5.730766
4.387679 -98.139748 3.791653
3.81205 -99.515007 3.816581
4.381196 -98.267067 4.771944
4.334524 -97.960052 2.874904
4.387679 -98.139748 3.791653
4.237678 -97.666416 1.964182
3.721686 -99.094052 1.925569
4.334524 -97.960052 2.874904
4.091498 -97.304749 1.110835
4.237678 -97.666416 1.964182
3.00755 -99.3933 -0.904346
3.160723 -99.880265 -0.061249
3.471667 -98.31345 0.171751
2.581799 -100.347302 -1.967411
3.00755 -99.3933 -0.904346
2.892744 -98.780487 -1.734411
2.434681 -98.924912 -3.558906
2.757993 -98.091541 -2.517594
2.280622 -100.615371 -3.958686
2.434681 -98.924912 -3.558906
2.121595 -102.233783 -4.314288
2.307965 -101.352901 -3.153078
2.280622 -100.615371 -3.958686
2.100379 -103.877399 -4.764855
2.121595 -102.233783 -4.314288
3 0 11 9
3 37 36 12
3 1 15 13
3 1 17 15
3 2 20 18
3 4 21 10
3 4 38 40
3 40 39 21
3 38 39 40
3 41 23 42
3 3 24 19
3 5 25 22
3 6 26 14
3 6 27 26
3 6 28 27
3 7 29 16
3 7 30 29
3 8 43 45
3 43 31 44
3 43 44 45
3 8 32 31
3 46 33 47
3 48 34 49
3 50 49 33
3 48 49 50
3 51 35 52
3 9 10 2
3 11 10 9
3 11 4 10
3 12 53 55
3 55 54 3
3 53 54 55
3 57 56 12
3 13 14 5
3 15 14 13
3 15 6 14
3 15 16 6
3 17 16 15
3 17 7 16
3 58 8 59
3 18 60 62
3 60 19 61
3 60 61 62
3 20 19 18
3 20 3 19
3 10 20 2
3 21 20 10
3 21 3 20
3 21 12 3
3 63 12 64
3 65 64 21
3 63 64 65
3 67 66 12
3 68 22 69
3 70 22 71
3 72 5 73
3 74 73 22
3 72 73 74
3 75 5 76
3 77 13 78
3 79 78 5
3 77 78 79
3 23 80 82
3 80 13 81
3 80 81 82
3 23 1 13
3 19 83 84
3 24 85 87
3 87 86 19
3 85 86 87
3 24 88 89
3 90 24 91
3 92 91 3
3 90 91 92
3 93 24 94
3 96 95 24
3 98 97 0
3 22 99 100
3 25 101 103
3 103 102 22
3 101 102 103
3 25 104 105
3 14 25 5
3 26 25 14
3 26 106 108
3 108 107 25
3 106 107 108
3 26 109 110
3 27 111 113
3 113 112 26
3 111 112 113
3 27 114 115
3 27 116 118
3 116 18 117
3 116 117 118
3 28 18 27
3 28 2 18
3 16 28 6
3 29 28 16
3 29 2 28
3 29 9 2
3 30 9 29
3 30 0 9
3 31 119 120
3 31 121 122
3 31 123 125
3 123 23 124
3 123 124 125
3 32 23 31
3 32 1 23
3 126 8 127
3 128 8 129
3 130 32 131
3 132 131 8
3 130 131 132
3 33 133 135
3 133 32 134
3 133 134 135
3 33 1 32
3 33 17 1
3 34 17 33
3 34 7 17
3 136 34 137
3 138 34 139
3 140 7 141
3 142 141 34
3 140 141 142
3 143 30 144
3 145 144 7
3 143 144 145
3 146 30 147
3 148 0 149
3 150 149 30
3 148 149 150
3 152 151 0
3 153 11 154
3 155 154 0
3 153 154 155
3 35 156 158
3 156 11 157
3 156 157 158
3 35 4 11
3 159 35 160
3 161 35 162
3 163 4 164
3 165 164 35
3 163 164 165
3 167 166 4
