ply
format ascii 1.0
element vertex 262
property float x
property float y
property float z
element face 261
property list uchar int vertex_index
end_header
46.346249 -66.273041 50.361885
38.095104 -62.993671 51.370918
41.726608 -56.387402 48.658722
50.562378 -59.162273 48.217094
36.149734 -65.676117 53.210159
50.302826 -67.533218 49.890617
44.157181 -61.324924 49.277763
46.150311 -57.781826 48.247894
48.552753 -62.747417 49.219048
52.484818 -63.892445 48.686943
42.041367 -64.681976 50.499405
43.778881 -69.619919 51.440033
39.667984 -67.723099 51.84417
37.081551 -70.331497 53.425392
39.91695 -59.853901 49.875992
56.359097 -56.809155 47.093742
52.57843 -55.628113 47.778496
54.443855 -60.302685 47.620789
48.404037 -66.956314 50.23365
49.070816 -69.345352 50.443703
47.163193 -68.717926 50.77491
45.321156 -63.805466 49.820595
46.378548 -62.058411 49.245323
47.486954 -64.52523 49.793236
49.545349 -65.167648 49.657608
39.974842 -63.833359 50.787651
40.888451 -66.249313 51.14991
38.904766 -65.323151 51.535431
36.630173 -67.965561 53.285065
35.452808 -69.102356 54.310204
37.286423 -60.753845 51.429634
39.018501 -61.474174 50.591461
40.994179 -62.246803 50.095917
57.002655 -58.986401 46.493782
42.35347 -71.18605 51.962769
40.605946 -53.971348 48.758949
42.694454 -54.58569 48.216274
48.394073 -58.489929 48.246361
47.167221 -55.987797 47.907036
49.405876 -56.702778 47.926865
50.450779 -54.933609 47.797604
51.558449 -57.383591 47.901878
53.570347 -58.004238 47.716145
52.5952 -59.773174 48.041924
53.106079 -66.142288 48.621353
54.142277 -64.314148 47.991844
37.138149 -64.397385 52.234039
51.993298 -67.987854 49.237709
42.933212 -58.845947 48.856064
43.901745 -57.069256 48.346336
45.155876 -59.567429 48.722015
47.393654 -60.280792 48.704803
49.568863 -60.954708 48.675804
51.615417 -61.563286 48.512146
50.607384 -63.365509 49.069534
51.433689 -65.711563 49.29567
44.19717 -65.505707 50.402771
45.112392 -67.976288 50.90995
42.990921 -67.144043 50.985703
41.699501 -68.705307 51.579323
40.333717 -70.172432 52.19873
37.785973 -66.703705 52.361382
38.392338 -69.088821 52.600174
39.704662 -55.772392 49.279259
38.871372 -57.519268 49.91684
40.810432 -58.151249 49.224571
41.973179 -60.578484 49.449173
43.12664 -63.035442 49.876274
45.812653 -70.438141 51.276794
44.90633 -55.270176 47.964722
54.561626 -56.260479 47.576782
55.396687 -58.544044 47.270966
56.070808 -60.735508 46.880325
53.480408 -62.08675 48.110115
55.123764 -62.510803 47.394386
34.7819 -68.483345 54.935208
35.295452 -67.965881 54.315208
34.18849 -68.987366 55.489502
34.859398 -69.606377 54.864498
34.7819 -68.483345 54.935208
57.683554 -59.151944 45.919246
57.226116 -60.022875 46.136582
42.582497 -72.432395 52.072274
41.605248 -71.918892 52.224041
53.819012 -66.296711 48.104177
53.274527 -67.22657 48.421051
50.54261 -68.687072 49.850575
51.387846 -68.91439 49.524121
51.148062 -67.760536 49.564163
49.263863 -70.517746 50.384678
48.397464 -70.240082 50.694073
37.998421 -70.928314 53.138947
38.653815 -70.306976 52.726337
37.736944 -69.710159 53.012783
37.276134 -71.535885 53.480221
37.998421 -70.928314 53.138947
38.806368 -55.515194 49.772637
39.207861 -54.616915 49.468941
39.394161 -58.686584 49.896416
38.473028 -58.353317 50.277817
38.995817 -59.520634 50.257393
56.854905 -55.950119 47.092496
55.973219 -55.674461 47.364959
46.568374 -54.729004 47.832977
47.697895 -55.095696 47.82864
52.061775 -54.409754 47.833389
50.997949 -54.062502 47.842944
51.514604 -55.280861 47.78805
53.109009 -54.763693 47.823757
52.061775 -54.409754 47.833389
53.570028 -55.944296 47.677639
54.100606 -55.079876 47.722901
53.109009 -54.763693 47.823757
55.337136 -63.566151 47.167429
54.633021 -63.412475 47.693115
54.846392 -64.467823 47.466158
55.820595 -62.667881 46.858696
55.337136 -63.566151 47.167429
47.443653 -69.926368 50.859676
48.397464 -70.240082 50.694073
48.117005 -69.031639 50.609307
35.884135 -67.397484 53.802639
36.389954 -66.820839 53.247612
35.643915 -66.252762 53.765186
36.04149 -68.533958 53.797635
35.884135 -67.397484 53.802639
35.295452 -67.965881 54.315208
35.60462 -70.269363 54.310085
36.418991 -70.883934 53.86768
36.267179 -69.716926 53.867798
35.60462 -70.269363 54.310085
34.859398 -69.606377 54.864498
37.680554 -59.970605 51.034214
36.901085 -59.684612 51.598465
38.546593 -60.33077 50.615127
37.680554 -59.970605 51.034214
38.152462 -61.114009 51.010548
39.467726 -60.664037 50.233727
38.995817 -59.520634 50.257393
38.546593 -60.33077 50.615127
57.471007 -58.121537 46.3759
57.149227 -57.032913 46.67588
56.680876 -57.897778 46.793762
57.471007 -58.121537 46.3759
57.683554 -59.151944 45.919246
43.354772 -71.642807 51.853608
44.067478 -70.859741 51.59224
43.066175 -70.402985 51.701401
43.583799 -72.889152 51.963112
43.354772 -71.642807 51.853608
42.582497 -72.432395 52.072274
41.104184 -53.056685 48.577568
40.117458 -52.796516 48.977947
42.148438 -53.363855 48.30623
41.104184 -53.056685 48.577568
41.6502 -54.278519 48.487611
43.216278 -53.677938 48.078565
42.148438 -53.363855 48.30623
48.817222 -55.453186 47.838555
47.697895 -55.095696 47.82864
48.286548 -56.345287 47.91695
49.928327 -55.818193 47.862234
49.339674 -54.568601 47.773924
48.817222 -55.453186 47.838555
54.337111 -65.382641 47.789423
53.624178 -65.228218 48.306598
53.819012 -66.296711 48.104177
54.846392 -64.467823 47.466158
54.337111 -65.382641 47.789423
36.812945 -63.29748 52.265728
37.616626 -63.695528 51.802479
37.291422 -62.595623 51.834168
36.404307 -63.949398 52.75449
36.812945 -63.29748 52.265728
35.910099 -64.588764 53.242549
36.643941 -65.036751 52.722099
36.404307 -63.949398 52.75449
35.491718 -65.16901 53.808006
35.910099 -64.588764 53.242549
35.252083 -64.081657 53.840396
35.643915 -66.252762 53.765186
35.491718 -65.16901 53.808006
36.574728 -60.438802 52.022842
36.901085 -59.684612 51.598465
36.887082 -61.47571 51.863526
36.574728 -60.438802 52.022842
37.291422 -62.595623 51.834168
37.690764 -61.873758 51.400276
36.887082 -61.47571 51.863526
52.128291 -69.090851 49.024879
52.718136 -68.149353 48.729229
52.128291 -69.090851 49.024879
51.387846 -68.91439 49.524121
49.926605 -69.59314 50.127117
50.54261 -68.687072 49.850575
49.686821 -68.439285 50.16716
49.926605 -69.59314 50.127117
49.263863 -70.517746 50.384678
52.718136 -68.149353 48.729229
53.274527 -67.22657 48.421051
52.549689 -67.065071 48.929531
40.595371 -71.412082 52.342022
41.605248 -71.918892 52.224041
41.343593 -70.679241 52.080749
39.624504 -70.848782 52.525616
39.363028 -69.630627 52.399452
38.653815 -70.306976 52.726337
40.595371 -71.412082 52.342022
39.624504 -70.848782 52.525616
37.276134 -71.535885 53.480221
36.418991 -70.883934 53.86768
39.658503 -53.716392 49.208786
40.117458 -52.796516 48.977947
39.170016 -52.541561 49.427784
40.155304 -54.87187 49.019104
39.658503 -53.716392 49.208786
39.207861 -54.616915 49.468941
38.029635 -57.251926 50.448162
38.473028 -58.353317 50.277817
38.389723 -56.388632 50.091427
38.029635 -57.251926 50.448162
39.288017 -56.64583 49.59805
38.806368 -55.515194 49.772637
38.389723 -56.388632 50.091427
57.645035 -56.173878 46.674634
56.854905 -55.950119 47.092496
57.149227 -57.032913 46.67588
46.768383 -70.786476 51.110619
47.443653 -69.926368 50.859676
46.487923 -69.578034 51.025852
45.084364 -71.268853 51.51062
44.795767 -70.02903 51.358413
44.067478 -70.859741 51.59224
46.037168 -71.66185 51.334789
45.084364 -71.268853 51.51062
46.768383 -70.786476 51.110619
46.037168 -71.66185 51.334789
44.322216 -54.020181 47.95279
43.216278 -53.677938 48.078565
43.800392 -54.927933 48.090498
45.437929 -54.370193 47.861821
46.036775 -55.628986 47.935879
46.568374 -54.729004 47.832977
44.322216 -54.020181 47.95279
45.437929 -54.370193 47.861821
49.900294 -53.688453 47.804762
49.339674 -54.568601 47.773924
49.900294 -53.688453 47.804762
50.997949 -54.062502 47.842944
55.074483 -55.400123 47.60648
54.100606 -55.079876 47.722901
55.460361 -56.534817 47.335262
55.973219 -55.674461 47.364959
55.074483 -55.400123 47.60648
56.760193 -60.897429 46.329853
57.226116 -60.022875 46.136582
56.536732 -59.860955 46.687054
56.294117 -61.780234 46.601665
55.597286 -61.623156 47.137355
55.820595 -62.667881 46.858696
56.760193 -60.897429 46.329853
56.294117 -61.780234 46.601665
3 0 20 18
3 0 23 21
3 0 18 23
3 1 27 25
3 75 29 76
3 79 78 29
3 77 78 79
3 1 31 30
3 1 25 31
3 81 80 33
3 83 82 34
3 2 36 35
3 3 39 37
3 3 41 39
3 3 43 41
3 85 84 44
3 5 86 88
3 88 87 47
3 86 87 88
3 90 89 19
3 6 50 48
3 8 51 22
3 8 52 51
3 8 54 52
3 5 55 24
3 5 47 55
3 10 58 56
3 12 59 26
3 12 60 59
3 4 61 46
3 13 62 28
3 13 91 93
3 93 92 62
3 91 92 93
3 13 94 95
3 96 63 97
3 14 98 100
3 98 64 99
3 98 99 100
3 14 65 64
3 14 66 65
3 10 67 32
3 10 56 67
3 15 101 102
3 11 68 57
3 7 69 49
3 104 103 38
3 16 105 107
3 107 106 40
3 105 106 107
3 16 108 109
3 16 110 112
3 110 70 111
3 110 111 112
3 17 71 42
3 17 72 71
3 9 73 53
3 113 74 114
3 115 114 45
3 113 114 115
3 117 116 74
3 18 19 5
3 20 19 18
3 20 118 120
3 120 119 19
3 118 119 120
3 21 22 6
3 23 22 21
3 23 8 22
3 23 24 8
3 18 24 23
3 18 5 24
3 25 26 10
3 27 26 25
3 27 12 26
3 121 28 122
3 123 122 4
3 121 122 123
3 29 124 126
3 124 28 125
3 124 125 126
3 29 13 28
3 29 127 129
3 129 128 13
3 127 128 129
3 131 130 29
3 30 132 133
3 31 134 136
3 136 135 30
3 134 135 136
3 31 137 139
3 137 14 138
3 137 138 139
3 31 32 14
3 25 32 31
3 25 10 32
3 33 140 142
3 142 141 15
3 140 141 142
3 144 143 33
3 34 145 147
3 147 146 11
3 145 146 147
3 150 149 34
3 148 149 150
3 35 151 152
3 36 153 155
3 155 154 35
3 153 154 155
3 36 156 157
3 37 38 7
3 39 38 37
3 39 158 160
3 160 159 38
3 158 159 160
3 39 161 163
3 161 40 162
3 161 162 163
3 41 40 39
3 41 16 40
3 41 42 16
3 43 42 41
3 43 17 42
3 44 45 9
3 164 45 165
3 166 165 44
3 164 165 166
3 168 167 45
3 169 46 170
3 171 170 1
3 169 170 171
3 172 46 173
3 174 4 175
3 176 175 46
3 174 175 176
3 177 4 178
3 177 178 179
3 181 180 4
3 182 30 183
3 184 30 185
3 186 1 187
3 188 187 30
3 186 187 188
3 47 189 190
3 192 191 47
3 19 193 195
3 195 194 5
3 193 194 195
3 197 196 19
3 48 49 2
3 50 49 48
3 50 7 49
3 22 50 6
3 51 50 22
3 51 7 50
3 51 37 7
3 52 37 51
3 52 3 37
3 52 53 3
3 54 53 52
3 54 9 53
3 24 54 8
3 55 54 24
3 55 9 54
3 55 44 9
3 47 44 55
3 47 198 200
3 200 199 44
3 198 199 200
3 56 57 0
3 58 57 56
3 58 11 57
3 26 58 10
3 59 58 26
3 59 11 58
3 59 34 11
3 60 34 59
3 60 201 203
3 203 202 34
3 201 202 203
3 46 27 1
3 61 27 46
3 61 12 27
3 28 61 4
3 62 61 28
3 62 12 61
3 62 60 12
3 204 60 205
3 206 205 62
3 204 205 206
3 208 207 60
3 210 209 13
3 211 35 212
3 211 212 213
3 63 214 216
3 214 35 215
3 214 215 216
3 63 2 35
3 64 217 218
3 64 219 220
3 64 221 223
3 221 63 222
3 221 222 223
3 65 63 64
3 65 2 63
3 65 48 2
3 66 48 65
3 66 6 48
3 32 66 14
3 67 66 32
3 67 6 66
3 67 21 6
3 56 21 67
3 56 0 21
3 226 225 15
3 224 225 226
3 57 20 0
3 68 20 57
3 68 227 229
3 229 228 20
3 227 228 229
3 230 68 231
3 232 231 11
3 230 231 232
3 233 68 234
3 236 235 68
3 49 36 2
3 69 36 49
3 69 237 239
3 239 238 36
3 237 238 239
3 38 69 7
3 240 69 241
3 242 241 38
3 240 241 242
3 244 243 69
3 40 245 246
3 248 247 40
3 70 249 250
3 70 251 253
3 251 15 252
3 251 252 253
3 42 70 16
3 71 70 42
3 71 15 70
3 71 33 15
3 72 33 71
3 72 254 256
3 256 255 33
3 254 255 256
3 53 43 3
3 73 43 53
3 73 17 43
3 45 73 9
3 74 73 45
3 74 17 73
3 74 72 17
3 257 72 258
3 259 258 74
3 257 258 259
3 261 260 72
