ply
format ascii 1.0
element vertex 276
property float x
property float y
property float z
element face 277
property list uchar int vertex_index
end_header
-49.295242 -30.488136 63.428558
-46.972691 -35.53199 53.739986
-54.117073 -27.449844 55.153713
-42.128437 -39.328968 60.696468
-48.301479 -32.777203 58.65765
-50.773323 -31.294739 54.824169
-51.705254 -28.681688 59.36552
-46.686131 -32.737549 67.203857
-43.383633 -37.050262 66.150574
-45.910667 -34.792938 62.47776
-44.424946 -37.230598 57.111046
-46.08659 -24.789118 64.068588
-49.896797 -34.442432 50.71785
-53.471634 -30.416359 51.14785
-39.866261 -41.504574 64.306534
-40.94215 -41.905975 55.403854
-43.465321 -40.102535 52.444157
-48.862991 -28.769764 66.693764
-51.446579 -26.681017 62.813225
-49.423916 -25.428459 64.291924
-53.908165 -25.135578 58.594898
-48.921516 -31.57225 61.15638
-50.115044 -30.672501 59.161861
-50.51033 -29.514637 61.426056
-48.031578 -31.576225 65.358459
-46.457432 -33.712051 65.00441
-47.712143 -32.597763 63.108543
-47.107868 -33.732746 60.577843
-46.583405 -37.101974 51.686333
-48.150711 -36.583855 50.411503
-48.382812 -34.906708 52.177349
-52.546757 -29.31937 55.119595
-52.08765 -30.785217 52.953903
-53.818962 -28.858593 53.120964
-42.821983 -38.156937 63.476189
-41.588665 -39.264244 65.273323
-41.009964 -40.426464 62.514084
-39.358028 -42.719658 61.547081
-40.388058 -41.64296 59.739071
-41.453117 -40.572609 57.960236
-45.657673 -36.313515 55.3899
-43.807907 -38.602699 54.61459
-45.137474 -37.779152 53.090919
-44.929932 -39.384491 51.187885
-47.979012 -28.174164 67.520935
-49.351368 -27.009609 65.722992
-48.105175 -26.541031 66.11618
-45.441437 -23.405748 61.945999
-47.322327 -23.691872 62.280037
-51.915165 -25.043118 61.799252
-52.680573 -25.840515 60.736969
-53.173492 -24.261883 59.707344
-47.595314 -34.095055 56.121288
-48.88345 -33.368256 54.33979
-49.516571 -31.958836 56.73328
-51.317078 -29.92017 57.142159
-52.902077 -27.996727 57.266438
-44.680122 -35.91452 64.341599
-44.007942 -37.042812 61.639297
-43.256596 -38.249535 58.886654
-45.179737 -35.96553 59.788235
-46.367264 -34.969906 57.943207
-46.543243 -26.219261 66.070755
-44.258831 -24.531235 63.684689
-51.519096 -34.128834 49.374619
-50.246815 -32.80106 52.618355
-51.696648 -32.388912 50.978111
-53.239601 -32.114525 49.437603
-42.58511 -39.545933 56.243729
-42.138145 -40.952789 53.853733
-49.298866 -29.545815 65.312408
-50.562729 -28.503397 63.349804
-50.18457 -27.662729 64.803947
-50.650444 -25.95857 63.810772
-50.703705 -24.441587 62.35849
-47.858658 -25.059698 64.331451
-49.12886 -24.010225 62.475697
-47.959351 -30.691118 67.17955
-51.783978 -27.594637 61.304382
-52.988541 -26.830645 59.193008
-54.194408 -26.203152 57.037647
-54.739666 -27.234494 54.104704
-54.59061 -27.938868 53.08833
-53.968018 -28.154218 54.137338
-47.402666 -27.145443 66.966362
-48.042094 -27.357598 66.818557
-47.339585 -27.96201 67.668739
-46.031826 -22.888959 61.02391
-45.09758 -22.702773 60.896391
-47.339585 -27.96201 67.668739
-47.234158 -28.791722 68.357486
-52.577431 -23.923567 60.021208
-52.544329 -24.652501 60.753298
-51.948267 -24.314184 61.067162
-45.905361 -33.802945 67.016944
-45.955467 -33.329676 68.078404
-43.391337 -24.362645 63.529507
-43.633513 -25.125254 64.492224
-43.951535 -23.796444 62.674381
-43.391337 -24.362645 63.529507
-49.868588 -35.332211 49.995461
-48.995545 -36.402922 49.842287
-49.023754 -35.513143 50.564677
-50.707946 -34.285633 50.046234
-50.679737 -35.175411 49.323845
-49.868588 -35.332211 49.995461
-54.202145 -30.291117 50.287922
-54.086128 -31.1402 49.432799
-53.355618 -31.265442 50.292727
-42.686487 -37.60317 67.016144
-43.53245 -36.533817 67.35981
-40.070666 -40.916437 65.653553
-40.931867 -39.796272 66.136948
-40.727463 -40.384409 64.789929
-39.264074 -42.019976 65.172092
-40.070666 -40.916437 65.653553
-39.095803 -42.638615 63.825726
-39.264074 -42.019976 65.172092
-38.653324 -43.877394 61.094713
-39.117267 -43.349926 60.189976
-40.251007 -43.102892 55.016025
-40.402582 -42.416439 56.23877
-40.828779 -42.62903 54.273365
-40.251007 -43.102892 55.016025
-42.7445 -41.297106 52.137991
-42.080911 -41.722233 52.842779
-42.801733 -40.527662 53.148945
-43.476677 -40.92486 51.576188
-42.7445 -41.297106 52.137991
-45.01742 -40.261959 50.481695
-45.731285 -39.100675 50.639601
-48.844784 -23.357277 61.432688
-48.225594 -23.851048 62.377867
-47.941517 -23.198101 61.334858
-49.76498 -23.546819 61.499476
-48.844784 -23.357277 61.432688
-48.411171 -29.730441 66.936657
-47.701375 -30.328378 67.825344
-48.153194 -29.3677 67.582451
-47.367058 -36.842914 51.048918
-47.341675 -37.700357 50.25141
-46.558022 -37.959417 50.888824
-54.481915 -28.687416 52.14745
-54.30825 -29.466299 51.160893
-53.645298 -29.637476 52.134407
-54.481915 -28.687416 52.14745
-54.59061 -27.938868 53.08833
-39.632283 -42.811577 59.285971
-39.117267 -43.349926 60.189976
-39.873043 -42.181309 60.643076
-40.125536 -42.284931 58.406378
-39.632283 -42.811577 59.285971
-40.658065 -41.749756 57.51696
-40.125536 -42.284931 58.406378
-40.920587 -41.107785 58.849654
-41.197633 -41.239292 56.682045
-40.402582 -42.416439 56.23877
-40.658065 -41.749756 57.51696
-46.558022 -37.959417 50.888824
-45.731285 -39.100675 50.639601
-45.756669 -38.243232 51.437109
-46.972271 -23.032021 61.190929
-46.381882 -23.54881 62.113018
-46.031826 -22.888959 61.02391
-47.941517 -23.198101 61.334858
-46.972271 -23.032021 61.190929
-47.711205 -29.069901 67.996037
-47.234158 -28.791722 68.357486
-48.421002 -28.471964 67.107349
-48.153194 -29.3677 67.582451
-47.711205 -29.069901 67.996037
-44.254113 -35.959301 66.490303
-43.53245 -36.533817 67.35981
-45.791012 -34.290196 65.917221
-45.905361 -33.802945 67.016944
-46.571782 -33.2248 66.104133
-44.902357 -35.39143 65.585815
-45.791012 -34.290196 65.917221
-45.568777 -34.813286 64.673004
-44.031878 -36.482391 65.246087
-44.254113 -35.959301 66.490303
-44.902357 -35.39143 65.585815
-45.835151 -26.835476 66.875302
-46.6217 -26.984558 66.943649
-45.669569 -26.097143 65.903213
-45.835151 -26.835476 66.875302
-45.441243 -25.382071 64.90213
-46.314916 -25.504189 65.069671
-45.669569 -26.097143 65.903213
-44.527363 -25.25313 64.71018
-43.633513 -25.125254 64.492224
-45.172711 -24.660176 63.876638
-45.441243 -25.382071 64.90213
-44.527363 -25.25313 64.71018
-44.542838 -23.2337 61.805036
-44.850134 -23.968491 62.815344
-43.951535 -23.796444 62.674381
-45.09758 -22.702773 60.896391
-44.542838 -23.2337 61.805036
-48.210415 -37.493771 49.783035
-47.401379 -38.610273 49.622942
-47.341675 -37.700357 50.25141
-48.210415 -37.493771 49.783035
-48.995545 -36.402922 49.842287
-51.583593 -35.064583 48.822279
-50.679737 -35.175411 49.323845
-52.383505 -34.036869 48.763806
-51.583593 -35.064583 48.822279
-53.243757 -33.029714 48.795298
-52.383505 -34.036869 48.763806
-52.379348 -33.121679 49.406111
-54.057502 -32.034352 48.722214
-54.061659 -32.949542 48.079908
-53.243757 -33.029714 48.795298
-54.057502 -32.034352 48.722214
-54.086128 -31.1402 49.432799
-54.202145 -30.291117 50.287922
-54.30825 -29.466299 51.160893
-41.789003 -38.710161 66.577518
-42.686487 -37.60317 67.016144
-42.486149 -38.157253 65.711949
-41.789003 -38.710161 66.577518
-40.931867 -39.796272 66.136948
-38.841686 -43.246156 62.445999
-39.095803 -42.638615 63.825726
-39.612144 -42.112116 62.926807
-38.841686 -43.246156 62.445999
-38.653324 -43.877394 61.094713
-41.426777 -42.152437 53.498305
-40.828779 -42.62903 54.273365
-41.540148 -41.429382 54.628794
-41.369543 -42.921881 52.487351
-41.426777 -42.152437 53.498305
-42.080911 -41.722233 52.842779
-44.208983 -40.565838 50.948052
-43.476677 -40.92486 51.576188
-44.197626 -39.743513 51.816021
-44.208983 -40.565838 50.948052
-45.01742 -40.261959 50.481695
-51.342537 -24.013419 61.346781
-51.948267 -24.314184 61.067162
-51.309435 -24.742352 62.078871
-47.324209 -26.380146 66.093468
-47.402666 -27.145443 66.966362
-46.6217 -26.984558 66.943649
-50.552402 -23.762499 61.440872
-49.916283 -24.225906 62.417094
-49.76498 -23.546819 61.499476
-51.342537 -24.013419 61.346781
-50.552402 -23.762499 61.440872
-46.596926 -32.315356 68.072449
-45.955467 -33.329676 68.078404
-47.233536 -31.29214 68.060295
-47.701375 -30.328378 67.825344
-47.322741 -31.714334 67.191704
-46.596926 -32.315356 68.072449
-47.233536 -31.29214 68.060295
-53.226146 -23.551546 58.975445
-52.577431 -23.923567 60.021208
-53.807159 -23.927546 58.632179
-53.226146 -23.551546 58.975445
-54.174495 -24.364393 58.075956
-53.540829 -24.69873 59.151121
-53.807159 -23.927546 58.632179
-54.524875 -24.839428 57.502744
-54.174495 -24.364393 58.075956
-54.667997 -25.373215 56.724119
-54.051287 -25.669365 57.816272
-54.524875 -24.839428 57.502744
-54.803833 -25.946317 55.951093
-54.667997 -25.373215 56.724119
-54.765165 -26.569663 55.009127
-54.155741 -26.826498 56.09568
-54.803833 -25.946317 55.951093
-54.739666 -27.234494 54.104704
-54.765165 -26.569663 55.009127
3 0 23 21
3 0 26 24
3 0 21 26
3 1 30 28
3 2 33 31
3 2 81 83
3 83 82 33
3 81 82 83
3 3 36 34
3 3 38 36
3 3 39 38
3 1 42 40
3 1 28 42
3 84 46 85
3 86 85 44
3 84 85 86
3 88 87 47
3 89 44 90
3 91 51 92
3 93 92 49
3 91 92 93
3 4 54 52
3 6 55 22
3 6 56 55
3 7 94 95
3 9 57 25
3 9 58 57
3 9 60 58
3 4 61 27
3 4 52 61
3 96 63 97
3 99 98 63
3 12 100 102
3 102 101 29
3 100 101 102
3 12 103 105
3 103 64 104
3 103 104 105
3 5 65 53
3 13 66 32
3 13 67 66
3 13 106 108
3 108 107 67
3 106 107 108
3 8 109 110
3 14 111 113
3 113 112 35
3 111 112 113
3 14 114 115
3 14 116 117
3 119 118 37
3 15 120 121
3 15 122 123
3 10 68 59
3 16 69 41
3 16 124 126
3 126 125 69
3 124 125 126
3 16 127 128
3 130 129 43
3 17 72 70
3 19 73 45
3 19 74 73
3 11 75 62
3 131 76 132
3 133 132 48
3 131 132 133
3 135 134 76
3 17 136 138
3 136 77 137
3 136 137 138
3 17 70 77
3 18 78 71
3 20 79 50
3 20 80 79
3 21 22 4
3 23 22 21
3 23 6 22
3 24 25 7
3 26 25 24
3 26 9 25
3 26 27 9
3 21 27 26
3 21 4 27
3 28 139 141
3 139 29 140
3 139 140 141
3 30 29 28
3 30 12 29
3 31 32 5
3 33 32 31
3 33 13 32
3 33 142 144
3 144 143 13
3 142 143 144
3 146 145 33
3 34 35 8
3 36 35 34
3 36 14 35
3 36 37 14
3 38 37 36
3 38 147 149
3 149 148 37
3 147 148 149
3 38 150 151
3 39 152 154
3 154 153 38
3 152 153 154
3 39 155 157
3 155 15 156
3 155 156 157
3 40 41 10
3 42 41 40
3 42 16 41
3 42 43 16
3 28 43 42
3 28 158 160
3 160 159 43
3 158 159 160
3 44 45 17
3 46 45 44
3 46 19 45
3 47 48 11
3 161 48 162
3 163 162 47
3 161 162 163
3 165 164 48
3 44 166 167
3 44 168 170
3 168 17 169
3 168 169 170
3 49 50 18
3 51 50 49
3 51 20 50
3 52 53 1
3 54 53 52
3 54 5 53
3 22 54 4
3 55 54 22
3 55 5 54
3 55 31 5
3 56 31 55
3 56 2 31
3 171 8 172
3 25 173 175
3 175 174 7
3 173 174 175
3 57 176 178
3 178 177 25
3 176 177 178
3 57 179 181
3 179 8 180
3 179 180 181
3 57 34 8
3 58 34 57
3 58 3 34
3 58 59 3
3 60 59 58
3 60 10 59
3 27 60 9
3 61 60 27
3 61 10 60
3 61 40 10
3 52 40 61
3 52 1 40
3 182 62 183
3 184 62 185
3 186 11 187
3 188 187 62
3 186 187 188
3 63 189 190
3 63 191 193
3 191 11 192
3 191 192 193
3 63 47 11
3 194 47 195
3 196 195 63
3 194 195 196
3 198 197 47
3 29 199 201
3 199 200 201
3 203 202 29
3 64 204 205
3 64 206 207
3 53 30 1
3 65 30 53
3 65 12 30
3 32 65 5
3 66 65 32
3 66 12 65
3 66 64 12
3 67 64 66
3 67 208 210
3 210 209 64
3 208 209 210
3 67 211 213
3 211 212 213
3 215 214 67
3 217 216 13
3 35 218 220
3 220 219 8
3 218 219 220
3 222 221 35
3 37 223 225
3 225 224 14
3 223 224 225
3 227 226 37
3 59 39 3
3 68 39 59
3 68 15 39
3 41 68 10
3 69 68 41
3 69 15 68
3 69 228 230
3 230 229 15
3 228 229 230
3 233 232 69
3 231 232 233
3 43 234 236
3 236 235 16
3 234 235 236
3 238 237 43
3 70 71 0
3 72 71 70
3 72 18 71
3 45 72 17
3 73 72 45
3 73 18 72
3 73 49 18
3 74 49 73
3 74 239 241
3 241 240 49
3 239 240 241
3 62 242 244
3 242 46 243
3 242 243 244
3 75 46 62
3 75 19 46
3 48 75 11
3 76 75 48
3 76 19 75
3 76 74 19
3 245 74 246
3 247 246 76
3 245 246 247
3 249 248 74
3 250 7 251
3 77 252 253
3 77 254 256
3 254 7 255
3 254 255 256
3 77 24 7
3 70 24 77
3 70 0 24
3 71 23 0
3 78 23 71
3 78 6 23
3 50 78 18
3 79 78 50
3 79 6 78
3 79 56 6
3 80 56 79
3 80 2 56
3 257 51 258
3 259 51 260
3 261 20 262
3 263 262 51
3 261 262 263
3 264 20 265
3 266 80 267
3 268 267 20
3 266 267 268
3 269 80 270
3 271 2 272
3 273 272 80
3 271 272 273
3 275 274 2
