ply
format ascii 1.0
element vertex 223
property float x
property float y
property float z
element face 209
property list uchar int vertex_index
end_header
52.572174 43.289768 1.791972
40.666019 45.65435 -10.237114
44.387497 35.317173 4.070744
46.326263 46.416252 -4.081184
38.21384 36.627705 -0.42765
56.280018 38.873962 8.346491
48.848511 39.67392 2.597615
52.334118 37.569599 4.579227
49.53849 45.153931 -1.149675
45.197739 41.351707 0.482942
43.308098 46.664734 -7.123913
39.2514 41.787048 -5.059521
41.88026 42.174446 -2.042601
40.888275 36.515949 2.247145
54.964775 41.15818 4.940167
50.893784 41.542385 2.075253
50.645348 38.652325 3.584949
52.48444 40.50053 3.327242
51.105911 44.271839 0.306839
49.198128 42.50515 0.841825
39.487564 44.687225 -11.789904
38.87109 43.039871 -9.24328
44.776409 46.689201 -5.588024
42.571983 44.555401 -4.52323
44.100632 44.4193 -3.07531
44.736992 38.457039 2.419588
42.946419 39.100285 1.408722
42.56004 36.029572 3.258709
55.780342 40.036697 6.617798
55.094482 38.292984 5.989019
55.993767 37.144405 7.413429
38.652527 39.377411 -2.637449
37.683041 38.826424 -4.301439
37.272606 36.202106 -2.069788
46.618999 37.621227 3.293017
46.308849 34.435253 4.718769
48.527782 36.650112 4.069952
50.396217 35.594662 4.797118
47.927841 45.887032 -2.605169
45.744511 43.999031 -1.706253
47.461498 43.342373 -0.407927
47.010834 40.59161 1.577129
37.957024 33.552315 1.528563
41.937088 46.320045 -8.678194
39.953663 43.866688 -7.624088
41.185925 44.375103 -6.044538
40.466827 42.144897 -3.49416
39.864265 39.597546 -1.118652
43.470146 41.896835 -0.717514
41.306171 39.495571 0.232679
39.426121 36.72702 1.017891
39.1665 33.549305 2.882276
53.877739 42.244656 3.331319
53.905552 39.411999 4.626633
53.847473 36.453159 5.611998
38.237041 41.100727 -6.716383
51.839042 43.780804 1.049405
51.831417 45.113847 0.173461
52.564549 44.622812 0.916027
40.965725 46.433166 -11.513089
41.634827 46.845249 -10.760776
40.076791 45.170788 -11.013509
40.376497 45.949604 -12.289484
40.965725 46.433166 -11.513089
44.270283 33.633722 4.755721
43.3514 34.009851 4.446907
46.596019 47.528473 -5.31501
47.335983 47.336876 -4.505528
45.551336 46.552726 -4.834604
45.821092 47.664947 -6.06843
46.596019 47.528473 -5.31501
43.3514 34.009851 4.446907
42.437672 34.366051 4.040889
43.473769 35.673372 3.664727
52.245157 36.031357 5.049005
51.276207 35.043888 5.157951
51.365167 36.58213 4.688173
49.677261 46.400643 -2.224536
50.387237 46.008645 -1.399141
48.733165 45.520482 -1.877422
48.871937 46.767193 -2.952283
49.677261 46.400643 -2.224536
37.462824 31.761485 1.606774
37.915987 31.867836 2.373198
46.197588 32.743572 5.295781
47.283892 33.937323 4.984383
43.645617 47.608483 -8.430454
44.356976 47.707268 -7.639194
42.622593 46.49239 -7.901053
42.960111 47.436138 -9.207595
43.645617 47.608483 -8.430454
54.48374 35.883491 6.156465
54.470978 37.373071 5.800508
55.107245 36.803404 6.344975
53.793463 34.91036 5.941046
54.48374 35.883491 6.156465
37.314898 38.391339 -5.190775
37.141646 37.140671 -4.088576
51.170948 45.567599 -0.670884
51.831417 45.113847 0.173461
50.322201 44.712885 -0.421418
50.387237 46.008645 -1.399141
51.170948 45.567599 -0.670884
39.725326 45.397896 -13.020773
40.376497 45.949604 -12.289484
38.938482 44.069973 -12.561322
39.725326 45.397896 -13.020773
38.705067 43.304485 -11.33819
38.938482 44.069973 -12.561322
38.39683 42.480808 -10.064878
38.705067 43.304485 -11.33819
39.179327 43.863548 -10.516592
38.140314 41.572599 -8.84162
38.39683 42.480808 -10.064878
45.091131 47.719501 -6.871249
45.821092 47.664947 -6.06843
44.042254 46.676968 -6.355968
44.356976 47.707268 -7.639194
45.091131 47.719501 -6.871249
41.597228 34.641158 3.618663
40.761345 34.884346 3.112881
41.724158 36.272761 2.752927
41.597228 34.641158 3.618663
42.437672 34.366051 4.040889
55.556887 36.229114 7.05718
55.107245 36.803404 6.344975
55.544124 37.718694 6.701224
36.936428 35.828512 -2.972751
37.141646 37.140671 -4.088576
37.477823 37.514265 -3.185614
48.393358 35.044752 4.659974
47.283892 33.937323 4.984383
47.418316 35.542682 4.39436
49.327576 34.517027 5.023557
48.393358 35.044752 4.659974
49.462 36.122387 4.433535
50.283772 33.985613 5.256451
49.327576 34.517027 5.023557
50.283772 33.985613 5.256451
51.276207 35.043888 5.157951
48.136772 47.072266 -3.76752
48.871937 46.767193 -2.952283
47.127052 46.151642 -3.343177
47.335983 47.336876 -4.505528
48.136772 47.072266 -3.76752
56.418169 37.414805 8.615182
56.356472 38.264694 9.220964
37.49581 33.395967 0.730606
37.624218 34.933662 -0.2475
38.085432 35.09001 0.550456
37.49581 33.395967 0.730606
37.462824 31.761485 1.606774
45.230959 33.192763 5.079733
44.270283 33.633722 4.755721
45.348173 34.876213 4.394756
45.230959 33.192763 5.079733
46.197588 32.743572 5.295781
42.270361 47.178096 -9.981316
42.960111 47.436138 -9.207595
41.301553 45.987198 -9.457654
41.634827 46.845249 -10.760776
42.270361 47.178096 -9.981316
38.520725 31.866331 3.050055
37.915987 31.867836 2.373198
38.561762 33.55081 2.20542
39.900458 33.401024 3.430446
40.027388 35.032627 2.564711
40.761345 34.884346 3.112881
39.119686 31.822811 3.676969
39.900458 33.401024 3.430446
38.520725 31.866331 3.050055
39.119686 31.822811 3.676969
53.802267 43.605095 2.559158
53.224956 42.767212 2.561646
53.149484 44.127651 1.789484
54.286169 43.082009 3.469159
53.802267 43.605095 2.559158
54.829687 42.53877 4.273583
54.421257 41.701418 4.135743
54.286169 43.082009 3.469159
55.189411 41.993911 5.221112
54.829687 42.53877 4.273583
55.597195 41.43317 6.059927
55.372558 40.597438 5.778982
55.189411 41.993911 5.221112
55.813335 40.866222 7.037626
55.597195 41.43317 6.059927
56.063173 40.284854 7.901973
56.03018 39.455329 7.482145
55.813335 40.866222 7.037626
56.121882 39.690538 8.894436
56.063173 40.284854 7.901973
56.356472 38.264694 9.220964
56.121882 39.690538 8.894436
53.149484 44.127651 1.789484
52.564549 44.622812 0.916027
53.001835 35.473136 5.565391
52.245157 36.031357 5.049005
53.090795 37.011379 5.095612
53.001835 35.473136 5.565391
53.793463 34.91036 5.941046
56.275043 36.550026 8.148651
56.136893 38.009183 7.87996
56.418169 37.414805 8.615182
56.043064 35.646195 7.631106
56.275043 36.550026 8.148651
55.556887 36.229114 7.05718
56.043064 35.646195 7.631106
37.82329 40.603027 -7.578171
38.140314 41.572599 -8.84162
38.554066 42.070299 -7.979832
37.591898 39.52849 -6.398247
37.960041 39.963576 -5.508911
37.314898 38.391339 -5.190775
37.82329 40.603027 -7.578171
37.591898 39.52849 -6.398247
37.153601 34.720863 -1.068569
37.743223 36.414906 -1.248719
37.624218 34.933662 -0.2475
36.838421 34.405752 -1.971626
37.153601 34.720863 -1.068569
36.936428 35.828512 -2.972751
36.838421 34.405752 -1.971626
3 0 17 15
3 0 56 58
3 56 18 57
3 56 57 58
3 0 15 18
3 1 59 60
3 1 61 63
3 61 20 62
3 61 62 63
3 1 21 20
3 2 64 65
3 3 66 67
3 3 68 70
3 68 22 69
3 68 69 70
3 3 24 22
3 2 27 25
3 2 71 73
3 73 72 27
3 71 72 73
3 5 30 28
3 4 33 31
3 6 36 34
3 7 37 16
3 7 74 76
3 76 75 37
3 74 75 76
3 8 77 78
3 8 79 81
3 79 38 80
3 79 80 81
3 8 40 38
3 6 41 19
3 6 34 41
3 83 82 42
3 85 84 35
3 10 86 87
3 10 88 90
3 88 43 89
3 88 89 90
3 10 45 43
3 12 46 23
3 12 47 46
3 9 48 39
3 13 49 26
3 13 50 49
3 13 51 50
3 14 53 52
3 91 54 92
3 93 92 29
3 91 92 93
3 95 94 54
3 11 55 44
3 97 96 32
3 15 16 6
3 17 16 15
3 17 7 16
3 18 98 99
3 18 100 102
3 100 8 101
3 100 101 102
3 18 19 8
3 15 19 18
3 15 6 19
3 20 103 104
3 20 105 106
3 20 107 108
3 21 109 111
3 111 110 20
3 109 110 111
3 21 112 113
3 22 114 115
3 22 116 118
3 116 10 117
3 116 117 118
3 22 23 10
3 24 23 22
3 24 12 23
3 25 26 9
3 27 26 25
3 27 13 26
3 27 119 121
3 121 120 13
3 119 120 121
3 123 122 27
3 28 29 14
3 30 29 28
3 30 124 126
3 126 125 29
3 124 125 126
3 31 32 11
3 33 32 31
3 33 127 129
3 129 128 32
3 127 128 129
3 34 35 2
3 36 35 34
3 36 130 132
3 132 131 35
3 130 131 132
3 16 36 6
3 37 36 16
3 37 133 135
3 135 134 36
3 133 134 135
3 37 136 137
3 139 138 37
3 38 140 141
3 38 142 144
3 142 3 143
3 142 143 144
3 38 39 3
3 40 39 38
3 40 9 39
3 19 40 8
3 41 40 19
3 41 9 40
3 41 25 9
3 34 25 41
3 34 2 25
3 146 145 5
3 42 147 149
3 149 148 4
3 147 148 149
3 151 150 42
3 35 152 154
3 154 153 2
3 152 153 154
3 156 155 35
3 43 157 158
3 43 159 161
3 159 1 160
3 159 160 161
3 43 44 1
3 45 44 43
3 45 11 44
3 23 45 10
3 46 45 23
3 46 11 45
3 46 31 11
3 47 31 46
3 47 4 31
3 39 24 3
3 48 24 39
3 48 12 24
3 26 48 9
3 49 48 26
3 49 12 48
3 49 47 12
3 50 47 49
3 50 4 47
3 50 42 4
3 51 42 50
3 51 162 164
3 164 163 42
3 162 163 164
3 165 51 166
3 167 166 13
3 165 166 167
3 168 51 169
3 171 170 51
3 172 52 173
3 174 173 0
3 172 173 174
3 175 52 176
3 177 14 178
3 179 178 52
3 177 178 179
3 180 14 181
3 182 28 183
3 184 183 14
3 182 183 184
3 185 28 186
3 187 5 188
3 189 188 28
3 187 188 189
3 190 5 191
3 193 192 5
3 194 0 195
3 52 17 0
3 53 17 52
3 53 7 17
3 29 53 14
3 54 53 29
3 54 7 53
3 54 196 198
3 198 197 7
3 196 197 198
3 200 199 54
3 201 30 202
3 203 202 5
3 201 202 203
3 204 30 205
3 207 206 30
3 44 21 1
3 55 21 44
3 55 208 210
3 210 209 21
3 208 209 210
3 32 55 11
3 211 55 212
3 213 212 32
3 211 212 213
3 215 214 55
3 216 33 217
3 218 217 4
3 216 217 218
3 219 33 220
3 222 221 33
