ply
format ascii 1.0
element vertex 259
property float x
property float y
property float z
element face 232
property list uchar int vertex_index
end_header
32.650387 64.993118 24.216349
21.382917 63.843437 36.157383
29.436125 58.668625 34.006535
38.331142 55.429962 32.294575
31.179878 75.204163 8.790934
17.420364 66.605354 37.904076
33.885742 56.832291 33.241474
30.334967 69.843414 19.247292
32.904449 71.628212 14.452335
25.299618 61.062325 34.911507
26.591434 64.260071 29.666729
30.879385 61.868912 29.01733
35.372398 60.145729 28.61327
32.713364 75.279884 6.37823
30.411552 66.037971 24.222446
31.442776 67.438652 21.792873
33.801628 69.618546 17.157104
34.284019 72.087715 12.127665
19.421953 65.257095 36.959793
21.997629 65.638954 33.491749
28.80549 57.076805 36.475025
26.72736 58.163994 36.914124
27.326855 59.799202 34.42733
25.918205 62.690849 32.320541
27.973896 61.394241 31.874409
28.68924 62.971497 29.294024
30.122581 60.262627 31.506844
36.146278 56.092651 32.81749
34.61882 58.481857 30.894043
36.846092 57.77607 30.54962
37.513268 59.448112 28.362274
38.938114 57.144608 30.086016
34.85564 64.053177 24.281525
33.669502 66.369598 21.942146
29.706429 74.887383 11.278677
18.814209 63.174522 39.608253
20.785828 61.896606 38.724472
30.960291 56.100433 36.056694
31.630676 57.682549 33.622734
33.181812 55.232872 35.623219
35.433701 54.458588 35.137016
37.652382 53.752701 34.556641
32.580631 68.657158 19.443682
31.576582 70.866142 16.818249
30.63114 72.952164 14.090561
32.043686 73.494728 11.656511
33.510841 73.76049 9.27863
22.744028 60.605972 38.001839
24.714911 59.349205 37.410515
23.330132 62.42617 35.481232
23.938379 64.123039 32.857475
29.495825 64.529633 26.730484
31.719633 63.464844 26.577734
32.352486 59.298859 31.19363
33.129448 60.938927 28.807482
33.963741 62.552795 26.496824
36.140465 61.74411 26.42823
32.282118 75.970726 4.910774
33.499014 75.193687 5.205447
20.717477 65.507874 35.193487
19.736995 66.214703 35.594692
20.402435 64.550266 36.558588
21.690273 64.741196 34.824566
21.024833 66.405632 33.86067
20.717477 65.507874 35.193487
39.338302 55.120106 31.952005
39.641789 55.977429 30.847726
38.634628 56.287285 31.190296
35.33033 64.691422 23.221096
35.890852 63.604927 24.321545
29.969226 75.934101 8.593995
29.232502 75.775711 9.837866
30.443154 75.045773 10.034806
19.514185 61.483856 40.409835
18.529125 62.052338 40.904081
20.499994 60.844898 39.967945
19.800019 62.535564 39.166362
19.514185 61.483856 40.409835
31.738092 54.88977 37.031555
30.648982 55.31501 37.257904
32.848852 54.45599 36.814818
32.071052 55.666652 35.839956
31.738092 54.88977 37.031555
36.185774 53.303879 35.995384
35.082602 53.674878 36.309614
37.295114 52.950935 35.705196
36.543042 54.105644 34.846829
36.185774 53.303879 35.995384
38.358469 52.593178 35.323545
37.295114 52.950935 35.705196
29.216639 70.494529 19.216387
29.771938 69.22974 20.501341
29.82039 71.000324 17.921746
29.216639 70.494529 19.216387
33.672337 68.079361 19.592218
33.125067 67.513378 20.692914
34.216772 66.935581 20.84145
34.598564 72.990818 9.552366
33.89743 72.924103 10.703148
34.985153 72.154431 10.976883
34.258817 73.748394 8.111853
34.598564 72.990818 9.552366
16.716271 68.304355 36.975307
16.39399 67.214825 38.449944
23.449331 59.063973 38.904655
22.461358 59.62516 39.213379
25.587518 64.988445 29.90595
25.250903 64.203834 31.232856
26.254819 63.47546 30.993635
25.942075 65.741242 28.522398
25.587518 64.988445 29.90595
26.969431 65.02071 28.32966
25.942075 65.741242 28.522398
37.825178 60.224602 27.327869
38.478583 59.134346 28.161364
31.491864 76.021335 6.12527
30.72512 75.983475 7.331622
31.946621 75.242023 7.584582
31.491864 76.021335 6.12527
32.282118 75.970726 4.910774
29.810231 67.327019 22.988918
29.312694 66.641277 24.282926
30.325843 68.027359 21.774131
29.810231 67.327019 22.988918
30.927164 66.738312 23.00766
30.888872 68.641033 20.520083
29.771938 69.22974 20.501341
30.325843 68.027359 21.774131
34.855801 68.964684 17.367436
34.282835 68.560055 18.448929
34.43746 69.940769 16.030632
34.855801 68.964684 17.367436
33.988871 70.945603 14.678247
33.353038 70.623379 15.80472
34.43746 69.940769 16.030632
34.678656 71.175354 13.515912
33.594234 71.857964 13.29
33.988871 70.945603 14.678247
35.324381 71.321205 12.392485
34.678656 71.175354 13.515912
34.985153 72.154431 10.976883
35.324381 71.321205 12.392485
18.742854 66.954059 36.019345
17.742059 67.628189 36.491486
18.421158 65.931225 37.431934
18.742854 66.954059 36.019345
19.736995 66.214703 35.594692
21.348355 67.279263 32.447876
21.024833 66.405632 33.86067
22.316344 66.46624 32.109131
21.348355 67.279263 32.447876
27.766425 57.6204 36.694575
27.473185 56.808644 37.896282
28.512249 56.265049 37.676733
39.191006 57.982594 29.023235
38.478583 59.134346 28.161364
38.225691 58.29636 29.224145
39.868074 56.851768 29.752212
39.191006 57.982594 29.023235
39.868074 56.851768 29.752212
39.641789 55.977429 30.847726
34.737261 65.849632 22.051406
34.262571 65.211388 23.111835
35.33033 64.691422 23.221096
34.216772 66.935581 20.84145
34.737261 65.849632 22.051406
28.521908 75.625874 11.151258
29.013708 74.613179 12.565189
28.521908 75.625874 11.151258
29.232502 75.775711 9.837866
29.969226 75.934101 8.593995
30.72512 75.983475 7.331622
17.116115 65.495594 39.286805
16.39399 67.214825 38.449944
17.813038 63.780178 40.138893
18.529125 62.052338 40.904081
18.117286 64.889938 38.756164
17.116115 65.495594 39.286805
17.813038 63.780178 40.138893
29.571582 55.803196 37.46707
28.512249 56.265049 37.676733
29.882891 56.588619 36.26586
29.571582 55.803196 37.46707
30.648982 55.31501 37.257904
33.956657 54.06202 36.552715
32.848852 54.45599 36.814818
34.307756 54.84573 35.380117
33.956657 54.06202 36.552715
35.082602 53.674878 36.309614
38.702669 53.419701 34.196675
39.042049 54.258331 33.065641
37.991762 54.591332 33.425608
38.702669 53.419701 34.196675
38.358469 52.593178 35.323545
33.19113 69.137852 18.300393
33.672337 68.079361 19.592218
34.282835 68.560055 18.448929
30.441198 71.511688 16.707224
29.82039 71.000324 17.921746
30.955774 70.354778 18.032771
29.968477 72.554699 15.34338
30.441198 71.511688 16.707224
31.103861 71.909153 15.454405
29.476063 73.645569 13.971131
29.968477 72.554699 15.34338
30.168785 73.919773 12.684619
29.013708 74.613179 12.565189
29.476063 73.645569 13.971131
33.860079 74.508091 6.661653
33.112102 74.520187 7.82843
34.258817 73.748394 8.111853
33.499014 75.193687 5.205447
33.860079 74.508091 6.661653
16.716271 68.304355 36.975307
17.742059 67.628189 36.491486
21.482258 60.270477 39.574696
20.499994 60.844898 39.967945
21.764928 61.251289 38.363155
21.482258 60.270477 39.574696
22.461358 59.62516 39.213379
26.444622 57.308441 38.112206
27.473185 56.808644 37.896282
25.438398 57.901046 38.360401
26.444622 57.308441 38.112206
25.721136 58.7566 37.162319
24.434773 58.435589 38.608993
25.438398 57.901046 38.360401
23.72947 59.977588 37.706177
23.449331 59.063973 38.904655
24.434773 58.435589 38.608993
23.286719 65.708282 31.791994
22.316344 66.46624 32.109131
22.968004 64.880997 33.174612
24.26099 64.919929 31.501323
24.928292 63.406944 32.589008
25.250903 64.203834 31.232856
23.286719 65.708282 31.791994
24.26099 64.919929 31.501323
28.018335 64.376423 28.143308
26.969431 65.02071 28.32966
27.640337 63.615784 29.480376
28.421627 65.155491 26.861538
28.018335 64.376423 28.143308
29.092533 63.750565 28.012254
28.854831 65.887108 25.536945
28.421627 65.155491 26.861538
29.953688 65.283802 25.476465
29.312694 66.641277 24.282926
28.854831 65.887108 25.536945
36.533265 62.450394 25.394897
35.890852 63.604927 24.321545
35.498053 62.898644 25.354878
37.138777 61.372601 26.360847
36.826866 60.596111 27.395252
37.825178 60.224602 27.327869
36.533265 62.450394 25.394897
37.138777 61.372601 26.360847
39.338302 55.120106 31.952005
39.042049 54.258331 33.065641
3 58 57 13
3 0 15 14
3 1 59 61
3 61 60 18
3 59 60 61
3 1 62 64
3 62 19 63
3 62 63 64
3 2 22 20
3 2 24 22
3 2 26 24
3 3 29 27
3 3 31 29
3 3 65 67
3 67 66 31
3 65 66 67
3 69 68 32
3 4 70 72
3 72 71 34
3 70 71 72
3 73 35 74
3 75 36 76
3 77 76 35
3 75 76 77
3 78 37 79
3 80 39 81
3 82 81 37
3 80 81 82
3 83 40 84
3 85 41 86
3 87 86 40
3 85 86 87
3 89 88 41
3 7 90 91
3 7 92 93
3 94 42 95
3 96 95 33
3 94 95 96
3 8 43 16
3 8 44 43
3 8 45 44
3 97 46 98
3 99 98 17
3 97 98 99
3 101 100 46
3 5 102 103
3 104 47 105
3 9 48 21
3 9 49 48
3 9 50 49
3 10 106 108
3 108 107 23
3 106 107 108
3 10 109 110
3 10 111 112
3 11 51 25
3 11 52 51
3 6 53 38
3 12 54 28
3 12 55 54
3 12 56 55
3 114 113 30
3 13 115 117
3 117 116 4
3 115 116 117
3 119 118 13
3 14 120 121
3 15 122 124
3 124 123 14
3 122 123 124
3 15 125 127
3 125 7 126
3 125 126 127
3 128 16 129
3 130 16 131
3 132 8 133
3 134 133 16
3 132 133 134
3 135 17 136
3 137 136 8
3 135 136 137
3 138 17 139
3 141 140 17
3 18 142 144
3 144 143 5
3 142 143 144
3 146 145 18
3 19 147 148
3 19 149 150
3 20 151 153
3 151 21 152
3 151 152 153
3 22 21 20
3 22 9 21
3 22 23 9
3 24 23 22
3 24 10 23
3 24 25 10
3 26 25 24
3 26 11 25
3 27 28 6
3 29 28 27
3 29 12 28
3 29 30 12
3 31 30 29
3 31 154 156
3 156 155 30
3 154 155 156
3 31 157 158
3 160 159 31
3 32 33 0
3 161 33 162
3 163 162 32
3 161 162 163
3 165 164 33
3 34 166 167
3 169 168 34
3 171 170 4
3 172 5 173
3 35 174 175
3 35 176 178
3 176 5 177
3 176 177 178
3 35 18 5
3 36 18 35
3 36 1 18
3 179 20 180
3 37 181 183
3 181 20 182
3 181 182 183
3 37 2 20
3 37 38 2
3 39 38 37
3 39 6 38
3 184 39 185
3 40 186 188
3 186 39 187
3 186 187 188
3 40 6 39
3 40 27 6
3 41 27 40
3 41 3 27
3 41 189 191
3 191 190 3
3 189 190 191
3 193 192 41
3 33 15 0
3 42 15 33
3 42 7 15
3 16 194 196
3 194 42 195
3 194 195 196
3 43 42 16
3 43 7 42
3 43 197 199
3 199 198 7
3 197 198 199
3 44 200 202
3 202 201 43
3 200 201 202
3 44 203 204
3 44 205 207
3 205 34 206
3 205 206 207
3 45 34 44
3 45 4 34
3 17 45 8
3 46 45 17
3 46 4 45
3 46 13 4
3 208 13 209
3 210 209 46
3 208 209 210
3 212 211 13
3 214 213 5
3 215 36 216
3 47 217 219
3 217 36 218
3 217 218 219
3 47 1 36
3 21 220 221
3 48 222 224
3 224 223 21
3 222 223 224
3 48 225 226
3 48 227 229
3 227 47 228
3 227 228 229
3 49 47 48
3 49 1 47
3 49 19 1
3 50 19 49
3 50 230 232
3 232 231 19
3 230 231 232
3 23 50 9
3 233 50 234
3 235 234 23
3 233 234 235
3 237 236 50
3 25 238 240
3 240 239 10
3 238 239 240
3 51 241 243
3 243 242 25
3 241 242 243
3 51 244 245
3 51 246 248
3 246 14 247
3 246 247 248
3 52 14 51
3 52 0 14
3 38 26 2
3 53 26 38
3 53 11 26
3 28 53 6
3 54 53 28
3 54 11 53
3 54 52 11
3 55 52 54
3 55 0 52
3 55 32 0
3 56 32 55
3 56 249 251
3 251 250 32
3 249 250 251
3 30 56 12
3 252 56 253
3 254 253 30
3 252 253 254
3 256 255 56
3 258 257 3
