ply
format ascii 1.0
element vertex 275
property float x
property float y
property float z
element face 259
property list uchar int vertex_index
end_header
6.655773 38.4352 -33.075203
33.691959 56.614212 -23.119101
6.982426 51.358734 -35.054306
15.316761 50.134987 -32.290161
8.141315 58.196533 -34.319084
10.78145 51.227997 -34.149879
12.738132 57.546776 -32.395973
27.788845 59.200493 -24.671629
23.802834 54.215355 -27.296793
29.471317 52.253166 -25.369967
4.368822 57.214745 -35.105469
32.148571 63.563736 -22.366899
6.518005 44.444134 -34.396523
9.569941 44.743111 -34.426636
13.367311 43.953384 -33.640076
17.804625 42.921249 -32.105316
18.050085 56.042389 -29.78583
20.427177 48.770393 -30.007582
22.557625 41.99918 -30.252024
10.340996 58.025032 -33.485756
30.838873 57.930626 -23.841757
28.713238 55.654694 -25.007967
31.546576 54.500702 -24.200903
6.664667 47.884926 -34.875374
7.945538 44.801136 -34.501457
8.280073 48.133125 -34.794266
12.961613 50.748764 -33.316757
12.071104 47.60408 -33.92662
14.238256 47.07238 -33.149193
15.519213 43.433662 -32.942619
16.564613 46.484665 -32.208488
24.803858 50.722832 -27.59041
22.029835 51.546295 -28.678621
23.073895 48.079628 -28.913118
21.522522 45.319016 -30.146544
5.67098 54.396614 -35.174988
4.065756 53.448029 -35.216072
5.365828 50.768097 -35.127563
5.240414 47.108398 -34.752869
7.474808 54.807175 -34.87339
8.787592 51.471138 -34.73407
9.474504 54.777267 -34.292099
11.667387 54.418701 -33.437729
14.045723 53.839447 -32.357559
22.694147 57.84285 -27.057398
25.72979 56.771042 -25.944307
26.691277 53.248535 -26.267241
27.505878 49.881882 -26.617239
4.837427 60.873352 -34.634338
6.148441 57.957581 -34.858925
29.945631 61.47847 -23.489244
33.023781 60.050667 -22.75773
6.528809 41.16338 -33.729805
7.762884 41.540043 -33.933533
9.229492 41.500618 -34.023712
10.884567 41.210995 -33.967842
10.082851 47.995193 -34.482292
11.37953 44.420471 -34.142982
15.316752 56.859398 -31.127234
16.590883 53.129555 -31.136797
20.897648 55.150772 -28.481234
19.26923 52.353035 -29.879332
17.820286 49.46096 -31.156351
19.011919 45.89315 -31.183443
20.173244 42.443443 -31.192293
35.208023 61.971947 -21.707701
35.855263 58.566238 -22.095934
5.306242 43.476582 -34.126823
5.592566 39.955971 -33.357826
7.09493 37.02686 -32.758049
6.44457 37.445785 -32.800812
33.905946 54.966202 -23.274515
32.833255 53.909447 -23.815416
32.619267 55.557457 -23.660002
24.377328 47.732597 -28.405477
23.938876 49.40123 -28.251764
25.24231 49.054199 -27.744124
23.548154 46.419298 -29.026032
24.377328 47.732597 -28.405477
26.759318 57.985768 -25.307968
25.187266 58.592083 -25.811224
26.216793 59.806809 -25.174885
29.754825 50.635601 -25.539586
28.772106 49.449959 -26.163221
28.488597 51.067524 -25.993603
5.151778 62.638923 -34.225014
4.214418 62.190258 -34.384986
7.144878 58.077057 -34.589005
6.471144 59.691605 -34.519768
7.467581 59.811081 -34.249848
31.047101 62.521103 -22.928072
29.420676 63.273846 -23.317659
30.522146 64.316479 -22.756487
13.039732 42.369568 -33.684303
12.045841 42.603111 -33.935756
12.373421 44.186927 -33.891529
14.034048 42.134107 -33.467598
13.039732 42.369568 -33.684303
17.31626 41.391367 -32.397915
16.173554 41.647574 -32.816567
16.661919 43.177456 -32.523967
18.428512 41.189816 -32.032485
17.31626 41.391367 -32.397915
16.683418 56.450893 -30.456532
16.04347 58.324535 -30.423813
17.410136 57.916031 -29.753111
21.936453 40.55384 -30.699949
20.744262 40.775972 -31.170084
21.365434 42.221311 -30.722158
23.051741 40.395262 -30.266466
21.936453 40.55384 -30.699949
36.59032 61.141941 -21.389384
36.263828 62.805249 -21.162498
36.91394 59.439087 -21.5835
35.531643 60.269092 -21.901817
36.59032 61.141941 -21.389384
3.589349 56.558022 -35.09095
3.745934 58.49527 -34.943444
3.365482 52.672855 -35.117866
4.00295 51.521489 -35.098694
4.950093 40.850164 -33.524204
5.239349 38.861018 -33.073578
9.661376 59.763183 -33.451069
9.241156 58.110782 -33.90242
8.561536 59.848934 -33.867733
10.864116 59.607918 -32.926994
9.661376 59.763183 -33.451069
12.062684 59.36879 -32.382103
11.539564 57.785904 -32.940865
10.864116 59.607918 -32.926994
31.792593 52.866009 -24.366333
30.754963 51.742241 -24.950865
30.508947 53.376934 -24.785435
31.792593 52.866009 -24.366333
32.833255 53.909447 -23.815416
8.561536 59.848934 -33.867733
7.467581 59.811081 -34.249848
31.622125 65.312111 -22.153265
30.522146 64.316479 -22.756487
18.868406 57.450138 -29.061712
17.410136 57.916031 -29.753111
22.772467 45.038992 -29.642744
22.298209 46.699322 -29.529831
23.548154 46.419298 -29.026032
23.290019 43.379074 -29.695484
22.040073 43.659098 -30.199284
22.772467 45.038992 -29.642744
23.718676 41.783508 -29.775872
23.290019 43.379074 -29.695484
4.652986 50.181522 -35.05444
4.00295 51.521489 -35.098694
4.715792 52.108063 -35.171818
5.303121 48.938248 -34.940216
4.590279 48.351673 -34.867092
4.652986 50.181522 -35.05444
23.669444 59.127987 -26.36777
22.09359 59.699543 -26.967399
24.211969 57.306946 -26.500853
23.669444 59.127987 -26.36777
25.187266 58.592083 -25.811224
26.593319 48.633724 -27.257538
25.24231 49.054199 -27.744124
26.154868 50.302357 -27.103825
27.831444 48.278835 -26.776733
26.593319 48.633724 -27.257538
27.831444 48.278835 -26.776733
28.772106 49.449959 -26.163221
29.754825 50.635601 -25.539586
30.754963 51.742241 -24.950865
3.980237 60.324573 -34.707878
4.214418 62.190258 -34.384986
4.603124 59.044049 -34.869903
3.745934 58.49527 -34.943444
3.980237 60.324573 -34.707878
5.815637 61.14949 -34.407474
5.151778 62.638923 -34.225014
5.492934 59.415466 -34.746631
5.815637 61.14949 -34.407474
6.471144 59.691605 -34.519768
27.257157 61.017929 -24.524324
26.216793 59.806809 -25.174885
28.335551 62.156918 -23.933132
29.420676 63.273846 -23.317659
28.867238 60.339482 -24.080436
27.257157 61.017929 -24.524324
28.335551 62.156918 -23.933132
7.102911 39.81262 -33.470249
7.166393 38.448531 -33.142948
6.592291 39.79929 -33.402504
7.719948 40.000952 -33.572113
7.102911 39.81262 -33.470249
7.145846 41.351711 -33.831669
8.395154 39.92119 -33.645657
7.719948 40.000952 -33.572113
9.128458 39.901478 -33.690746
8.395154 39.92119 -33.645657
8.496188 41.520331 -33.978623
9.899712 39.742565 -33.737702
9.128458 39.901478 -33.690746
10.727249 39.597753 -33.709767
9.899712 39.742565 -33.737702
10.05703 41.355806 -33.995777
11.5778 39.390835 -33.698586
10.727249 39.597753 -33.709767
11.79836 40.998373 -33.848186
11.132048 42.815733 -34.055412
12.045841 42.603111 -33.935756
11.5778 39.390835 -33.698586
11.79836 40.998373 -33.848186
15.109999 41.874246 -33.11887
14.034048 42.134107 -33.467598
14.443262 43.693523 -33.291348
15.109999 41.874246 -33.11887
16.173554 41.647574 -32.816567
13.365036 59.068748 -31.749278
12.062684 59.36879 -32.382103
14.654346 58.72506 -31.114908
16.04347 58.324535 -30.423813
14.027442 57.203087 -31.761603
13.365036 59.068748 -31.749278
14.654346 58.72506 -31.114908
21.190437 58.350369 -27.697496
22.09359 59.699543 -26.967399
20.292187 57.004329 -28.409415
21.190437 58.350369 -27.697496
21.795898 56.496811 -27.769316
19.473866 55.596581 -29.133532
18.868406 57.450138 -29.061712
20.292187 57.004329 -28.409415
19.612822 40.950913 -31.575973
18.428512 41.189816 -32.032485
18.988934 42.682346 -31.648805
19.612822 40.950913 -31.575973
20.744262 40.775972 -31.170084
23.051741 40.395262 -30.266466
23.718676 41.783508 -29.775872
33.238977 64.482406 -21.804129
31.622125 65.312111 -22.153265
34.768704 63.686512 -21.47453
36.263828 62.805249 -21.162498
33.678297 62.767842 -22.0373
33.238977 64.482406 -21.804129
34.768704 63.686512 -21.47453
37.092779 57.806469 -21.741343
36.91394 59.439087 -21.5835
36.045533 56.916515 -22.24568
37.092779 57.806469 -21.741343
34.963881 55.940502 -22.757264
34.773611 57.590225 -22.607518
36.045533 56.916515 -22.24568
33.905946 54.966202 -23.274515
34.963881 55.940502 -22.757264
3.437817 54.674664 -35.146251
3.589349 56.558022 -35.09095
4.217289 55.331387 -35.16077
2.737542 53.89949 -35.048046
3.437817 54.674664 -35.146251
3.365482 52.672855 -35.117866
4.625537 46.396133 -34.60051
4.590279 48.351673 -34.867092
4.658451 44.580225 -34.287487
4.625537 46.396133 -34.60051
5.273328 45.29249 -34.439846
4.80693 42.61047 -33.908703
4.658451 44.580225 -34.287487
5.449404 41.716276 -33.742325
4.950093 40.850164 -33.524204
4.80693 42.61047 -33.908703
5.912967 38.206171 -32.942124
5.239349 38.861018 -33.073578
6.124169 39.195585 -33.216515
6.44457 37.445785 -32.800812
5.912967 38.206171 -32.942124
7.09493 37.02686 -32.758049
7.166393 38.448531 -33.142948
3 0 69 70
3 1 22 20
3 1 71 73
3 73 72 22
3 71 72 73
3 2 25 23
3 3 28 26
3 3 30 28
3 74 33 75
3 76 75 31
3 74 75 76
3 78 77 33
3 2 37 35
3 2 23 37
3 4 41 39
3 6 42 19
3 6 43 42
3 7 79 81
3 79 45 80
3 79 80 81
3 9 46 21
3 9 47 46
3 9 82 84
3 84 83 47
3 82 83 84
3 85 48 86
3 4 87 89
3 87 49 88
3 87 88 89
3 4 39 49
3 11 90 92
3 90 50 91
3 90 91 92
3 11 51 50
3 12 53 52
3 13 54 24
3 13 55 54
3 5 56 40
3 14 57 27
3 14 93 95
3 95 94 57
3 93 94 95
3 14 96 97
3 15 98 100
3 100 99 29
3 98 99 100
3 15 101 102
3 16 103 105
3 103 58 104
3 103 104 105
3 16 59 58
3 8 60 44
3 17 61 32
3 17 62 61
3 17 63 62
3 18 64 34
3 18 106 108
3 108 107 64
3 106 107 108
3 18 109 110
3 111 65 112
3 113 66 114
3 115 114 65
3 113 114 115
3 10 116 117
3 119 118 36
3 12 67 38
3 12 52 67
3 120 68 121
3 122 19 123
3 124 123 4
3 122 123 124
3 125 19 126
3 127 6 128
3 129 128 19
3 127 128 129
3 20 21 7
3 22 21 20
3 22 9 21
3 22 130 132
3 132 131 9
3 130 131 132
3 134 133 22
3 135 4 136
3 137 11 138
3 23 24 12
3 25 24 23
3 25 13 24
3 26 27 5
3 28 27 26
3 28 14 27
3 28 29 14
3 30 29 28
3 30 15 29
3 139 16 140
3 31 32 8
3 33 32 31
3 33 17 32
3 33 34 17
3 141 34 142
3 143 142 33
3 141 142 143
3 144 18 145
3 146 145 34
3 144 145 146
3 148 147 18
3 35 36 10
3 37 36 35
3 37 149 151
3 151 150 36
3 149 150 151
3 37 152 154
3 152 38 153
3 152 153 154
3 23 38 37
3 23 12 38
3 39 40 2
3 41 40 39
3 41 5 40
3 19 41 4
3 42 41 19
3 42 5 41
3 42 26 5
3 43 26 42
3 43 3 26
3 155 44 156
3 45 157 159
3 157 44 158
3 157 158 159
3 45 8 44
3 21 45 7
3 46 45 21
3 46 8 45
3 46 31 8
3 47 31 46
3 47 160 162
3 162 161 31
3 160 161 162
3 47 163 164
3 166 165 47
3 168 167 9
3 48 169 170
3 48 171 173
3 171 10 172
3 171 172 173
3 174 48 175
3 49 176 178
3 176 48 177
3 176 177 178
3 49 10 48
3 49 35 10
3 39 35 49
3 39 2 35
3 179 7 180
3 50 181 182
3 50 183 185
3 183 7 184
3 183 184 185
3 50 20 7
3 51 20 50
3 51 1 20
3 52 186 188
3 188 187 0
3 186 187 188
3 53 189 191
3 191 190 52
3 189 190 191
3 53 192 193
3 24 53 12
3 54 53 24
3 54 194 196
3 196 195 53
3 194 195 196
3 54 197 198
3 55 199 201
3 201 200 54
3 199 200 201
3 55 202 203
3 40 25 2
3 56 25 40
3 56 13 25
3 27 56 5
3 57 56 27
3 57 13 56
3 57 55 13
3 204 55 205
3 206 205 57
3 204 205 206
3 208 207 55
3 29 209 211
3 211 210 14
3 209 210 211
3 213 212 29
3 214 6 215
3 58 216 217
3 58 218 220
3 218 6 219
3 218 219 220
3 58 43 6
3 59 43 58
3 59 3 43
3 44 221 222
3 60 223 225
3 225 224 44
3 223 224 225
3 60 226 228
3 226 16 227
3 226 227 228
3 32 60 8
3 61 60 32
3 61 16 60
3 61 59 16
3 62 59 61
3 62 3 59
3 62 30 3
3 63 30 62
3 63 15 30
3 34 63 17
3 64 63 34
3 64 15 63
3 64 229 231
3 231 230 15
3 229 230 231
3 233 232 64
3 235 234 18
3 236 11 237
3 65 238 239
3 65 240 242
3 240 11 241
3 240 241 242
3 65 51 11
3 66 51 65
3 66 1 51
3 243 66 244
3 245 66 246
3 247 1 248
3 249 248 66
3 247 248 249
3 251 250 1
3 36 252 254
3 254 253 10
3 252 253 254
3 257 256 36
3 255 256 257
3 38 258 259
3 67 260 262
3 262 261 38
3 260 261 262
3 67 263 264
3 67 265 267
3 265 68 266
3 265 266 267
3 52 68 67
3 52 0 68
3 68 268 269
3 68 270 272
3 270 0 271
3 270 271 272
3 274 273 0
