ply
format ascii 1.0
element vertex 235
property float x
property float y
property float z
element face 225
property list uchar int vertex_index
end_header
-4.883583 -51.376228 59.39801
-2.012274 -59.482075 53.710415
-1.474325 -56.770485 45.156799
-0.707052 -65.465454 60.14175
-1.910244 -60.505024 58.557682
-0.883165 -64.967422 54.956005
-5.912357 -45.713638 57.05125
-4.435017 -49.666756 54.949528
-0.824091 -65.781631 65.488159
-3.308002 -55.291439 56.806473
-2.919086 -53.68861 52.472118
-1.185314 -64.250427 50.043114
-1.951212 -58.189365 49.272476
-2.086756 -51.842548 48.631145
-0.803057 -50.015263 45.044632
-0.766594 -65.242126 57.518929
-5.500021 -49.386475 60.596706
-5.98514 -46.589943 59.333389
-5.478559 -48.617653 58.21217
-5.244751 -47.708332 56.014137
-4.745298 -50.584091 57.082073
-1.966303 -60.031853 56.081207
-2.61488 -57.941509 57.70018
-2.593954 -57.326988 55.333134
-3.162575 -54.533531 54.567593
-2.519291 -56.627892 53.091965
-1.506714 -60.087708 45.255581
-1.624712 -60.687084 47.409222
-1.777813 -57.483231 47.181866
-2.108521 -55.046669 48.943626
-1.730797 -54.218178 46.99474
-1.493866 -50.908955 46.822727
-1.228197 -53.406227 45.097424
-1.223299 -63.285007 62.006523
-1.867823 -60.90147 61.131447
-1.25597 -63.004448 59.37326
-1.337473 -62.663498 56.810444
-1.446901 -62.257851 54.33115
-1.033518 -56.077511 43.183594
-5.574871 -44.694992 54.977871
-4.787693 -46.673439 54.020786
-3.947632 -48.644218 53.002892
-0.721407 -65.643555 62.806843
-4.165279 -53.997395 60.573803
-2.605293 -58.464691 60.189808
-3.373224 -55.947575 59.191486
-4.106195 -53.326691 58.149517
-3.930735 -52.537224 55.885033
-3.624561 -51.641212 53.78804
-3.180647 -50.661751 51.848408
-1.033453 -64.636978 52.462852
-1.555933 -61.787796 51.940002
-1.628611 -61.259861 49.634811
-2.018482 -58.862911 51.443947
-2.36554 -55.859829 50.96817
-2.563032 -52.781006 50.502853
-2.601326 -49.630962 50.038513
-1.900627 -48.586517 48.317883
-1.10605 -47.567238 46.641327
-0.258476 -46.608414 44.9683
-0.615067 -52.640282 43.231274
-0.04925 -49.191322 43.271133
-6.105161 -44.678421 57.589674
-6.141552 -45.116574 58.730744
-5.948749 -46.151791 58.192319
-6.038339 -44.188978 56.503296
-6.105161 -44.678421 57.589674
-5.743614 -45.204315 56.014561
-5.869595 -43.679655 55.466606
-6.038339 -44.188978 56.503296
-1.096399 -64.735219 66.437805
-0.927497 -65.831421 66.819652
-1.039916 -64.646534 65.088173
-1.096399 -64.735219 66.437805
-0.772749 -65.712593 64.147501
-0.988574 -64.577495 63.747515
-1.039916 -64.646534 65.088173
-3.771399 -55.247221 61.142395
-4.146701 -54.272671 61.854719
-1.109383 -64.443703 51.252983
-0.861631 -65.898315 51.482591
-0.937562 -65.70504 50.272723
-0.542723 -54.033619 42.241248
-0.824292 -54.358897 43.207434
-0.751948 -55.752234 42.217408
0.335354 -48.824814 42.37894
0.012644 -50.567316 42.326404
0.271044 -47.464624 43.270782
0.335354 -48.824814 42.37894
-0.535347 -66.51646 57.86067
-0.736823 -65.35379 58.83034
-0.505576 -66.628124 59.172081
-0.574092 -66.435066 56.550925
-0.535347 -66.51646 57.86067
-0.632378 -66.297714 55.269463
-0.824879 -65.104774 56.237467
-0.574092 -66.435066 56.550925
-5.742581 -47.988209 59.965047
-5.901425 -46.95285 60.562294
-5.658865 -48.351117 61.193952
-0.70487 -66.920937 65.832313
-0.927497 -65.831421 66.819652
-0.608136 -66.892334 64.506712
-0.70487 -66.920937 65.832313
-1.023569 -65.548966 49.048827
-0.937562 -65.70504 50.272723
-1.565713 -60.387396 46.332402
-1.477466 -62.010222 46.415506
-1.418467 -61.710533 45.338686
-5.418051 -49.699783 61.865536
-5.658865 -48.351117 61.193952
-5.18352 -50.710915 61.236644
-5.418051 -49.699783 61.865536
-4.8753 -51.705792 60.637296
-5.191802 -50.381351 59.997358
-5.18352 -50.710915 61.236644
-1.545561 -62.093238 61.568985
-1.862827 -61.063783 62.457798
-1.540566 -62.255552 62.895336
-1.374376 -61.457027 44.236525
-1.418467 -61.710533 45.338686
-1.37778 -59.785114 44.21126
-1.374376 -61.457027 44.236525
-1.361585 -58.126503 44.161869
-1.490519 -58.429096 45.20619
-1.37778 -59.785114 44.21126
-1.141182 -57.780016 43.175266
-1.253922 -56.423998 44.170197
-1.361585 -58.126503 44.161869
-0.939547 -57.484459 42.160431
-1.141182 -57.780016 43.175266
-0.751948 -55.752234 42.217408
-0.939547 -57.484459 42.160431
-6.063864 -45.529026 59.91583
-5.901425 -46.95285 60.562294
-6.063864 -45.529026 59.91583
-6.141552 -45.116574 58.730744
-5.6485 -43.120662 54.494406
-5.869595 -43.679655 55.466606
-5.272979 -44.125406 54.052482
-5.6485 -43.120662 54.494406
-4.87939 -45.114629 53.57394
-5.272979 -44.125406 54.052482
-5.181282 -45.684216 54.499329
-4.451541 -46.106789 53.12426
-4.87939 -45.114629 53.57394
-4.031511 -47.092178 52.615313
-4.451541 -46.106789 53.12426
-4.367662 -47.658828 53.511839
-3.619737 -48.095647 52.11291
-4.031511 -47.092178 52.615313
-1.23952 -63.398222 63.347355
-1.540566 -62.255552 62.895336
-0.972353 -64.464281 62.406683
-1.23952 -63.398222 63.347355
-0.988574 -64.577495 63.747515
-0.556794 -66.823296 63.166054
-0.772749 -65.712593 64.147501
-0.608136 -66.892334 64.506712
-0.512253 -66.778763 61.832026
-0.556794 -66.823296 63.166054
-0.505076 -66.689712 60.499479
-0.71423 -65.554505 61.474297
-0.512253 -66.778763 61.832026
-0.505576 -66.628124 59.172081
-0.505076 -66.689712 60.499479
-4.516148 -53.016375 61.225193
-4.146701 -54.272671 61.854719
-4.524431 -52.686811 59.985906
-4.8753 -51.705792 60.637296
-4.516148 -53.016375 61.225193
-2.226687 -59.899547 61.959238
-1.862827 -61.063783 62.457798
-2.595422 -58.681158 61.488418
-2.226687 -59.899547 61.959238
-2.236558 -59.683081 60.660628
-2.991405 -57.480869 60.950398
-2.595422 -58.681158 61.488418
-3.375371 -56.222311 60.451237
-2.991405 -57.480869 60.950398
-2.989259 -57.206133 59.690647
-3.769252 -54.972485 59.882644
-3.771399 -55.247221 61.142395
-3.375371 -56.222311 60.451237
-3.236244 -49.104414 51.535668
-3.619737 -48.095647 52.11291
-3.56414 -49.652985 52.42565
-0.700784 -66.19334 53.984682
-0.632378 -66.297714 55.269463
-0.775927 -66.028118 52.738106
-0.604106 -67.289456 51.757845
-0.861631 -65.898315 51.482591
-0.958309 -64.8022 53.709429
-0.700784 -66.19334 53.984682
-0.775927 -66.028118 52.738106
-1.241976 -64.031506 48.86986
-1.023569 -65.548966 49.048827
-1.461674 -62.249834 47.552914
-1.477466 -62.010222 46.415506
-1.463624 -62.536223 48.665709
-1.461674 -62.249834 47.552914
-1.626661 -60.973472 48.522016
-1.406963 -62.755144 49.838963
-1.241976 -64.031506 48.86986
-1.463624 -62.536223 48.665709
-2.946584 -48.589019 50.63072
-3.236244 -49.104414 51.535668
-2.890986 -50.146356 50.943461
-2.546229 -48.022054 49.804331
-2.946584 -48.589019 50.63072
-2.19588 -47.499832 48.944016
-2.546229 -48.022054 49.804331
-2.250977 -49.108739 49.178198
-1.74213 -46.934799 48.154856
-2.19588 -47.499832 48.944016
-1.344842 -46.42516 47.316578
-1.74213 -46.934799 48.154856
-1.503338 -48.076878 47.479605
-0.863112 -45.881487 46.537166
-1.344842 -46.42516 47.316578
-0.439325 -45.402075 45.700653
-0.863112 -45.881487 46.537166
-0.682263 -47.087826 45.804813
0.040887 -44.896264 44.908224
-0.439325 -45.402075 45.700653
-0.270265 -52.291796 42.306475
-0.542723 -54.033619 42.241248
-0.332159 -50.915802 43.251204
-0.270265 -52.291796 42.306475
0.012644 -50.567316 42.326404
0.166431 -46.17317 44.119366
-0.153863 -47.899868 44.119716
0.271044 -47.464624 43.270782
0.040887 -44.896264 44.908224
0.166431 -46.17317 44.119366
3 0 18 16
3 0 20 18
3 1 23 21
3 1 25 23
3 2 28 26
3 2 30 28
3 2 32 30
3 3 35 33
3 5 36 15
3 5 37 36
3 6 62 64
3 64 63 17
3 62 63 64
3 6 65 66
3 6 67 69
3 67 39 68
3 67 68 69
3 7 40 19
3 7 41 40
3 8 70 71
3 8 72 73
3 8 74 76
3 74 42 75
3 74 75 76
3 77 43 78
3 4 44 34
3 9 45 22
3 9 46 45
3 9 47 46
3 10 48 24
3 10 49 48
3 11 79 81
3 79 50 80
3 79 80 81
3 11 51 50
3 12 52 27
3 12 53 52
3 12 54 53
3 13 55 29
3 13 56 55
3 13 57 56
3 14 58 31
3 14 59 58
3 82 60 83
3 84 83 38
3 82 83 84
3 85 61 86
3 88 87 61
3 89 15 90
3 91 90 3
3 89 90 91
3 92 15 93
3 94 5 95
3 96 95 15
3 94 95 96
3 16 97 99
3 97 17 98
3 97 98 99
3 18 17 16
3 18 6 17
3 18 19 6
3 20 19 18
3 20 7 19
3 100 8 101
3 103 102 8
3 21 22 4
3 23 22 21
3 23 9 22
3 23 24 9
3 25 24 23
3 25 10 24
3 104 11 105
3 26 106 108
3 106 27 107
3 106 107 108
3 28 27 26
3 28 12 27
3 28 29 12
3 30 29 28
3 30 13 29
3 30 31 13
3 32 31 30
3 32 14 31
3 109 16 110
3 111 16 112
3 113 0 114
3 115 114 16
3 113 114 115
3 33 116 118
3 116 34 117
3 116 117 118
3 35 34 33
3 35 4 34
3 15 35 3
3 36 35 15
3 36 4 35
3 36 21 4
3 37 21 36
3 37 1 21
3 119 26 120
3 121 26 122
3 123 2 124
3 125 124 26
3 123 124 125
3 126 38 127
3 128 127 2
3 126 127 128
3 129 38 130
3 132 131 38
3 17 133 134
3 136 135 17
3 39 137 138
3 39 139 140
3 19 39 6
3 40 39 19
3 40 141 143
3 143 142 39
3 141 142 143
3 40 144 145
3 41 146 148
3 148 147 40
3 146 147 148
3 41 149 150
3 151 33 152
3 42 153 155
3 153 33 154
3 153 154 155
3 42 3 33
3 156 42 157
3 158 157 8
3 156 157 158
3 159 42 160
3 161 3 162
3 163 162 42
3 161 162 163
3 165 164 3
3 43 166 167
3 43 168 170
3 168 0 169
3 168 169 170
3 34 171 172
3 44 173 175
3 175 174 34
3 173 174 175
3 44 176 177
3 22 44 4
3 45 44 22
3 45 178 180
3 180 179 44
3 178 179 180
3 45 181 183
3 181 43 182
3 181 182 183
3 46 43 45
3 46 0 43
3 46 20 0
3 47 20 46
3 47 7 20
3 24 47 9
3 48 47 24
3 48 7 47
3 48 41 7
3 49 41 48
3 49 184 186
3 186 185 41
3 184 185 186
3 187 5 188
3 50 189 191
3 189 190 191
3 50 192 194
3 192 5 193
3 192 193 194
3 50 37 5
3 51 37 50
3 51 1 37
3 195 11 196
3 27 197 198
3 52 199 201
3 201 200 27
3 199 200 201
3 52 202 204
3 202 11 203
3 202 203 204
3 52 51 11
3 53 51 52
3 53 1 51
3 53 25 1
3 54 25 53
3 54 10 25
3 29 54 12
3 55 54 29
3 55 10 54
3 55 49 10
3 56 49 55
3 56 205 207
3 207 206 49
3 205 206 207
3 56 208 209
3 57 210 212
3 212 211 56
3 210 211 212
3 57 213 214
3 31 57 13
3 58 57 31
3 58 215 217
3 217 216 57
3 215 216 217
3 58 218 219
3 59 220 222
3 222 221 58
3 220 221 222
3 59 223 224
3 38 32 2
3 60 32 38
3 60 14 32
3 225 60 226
3 61 227 229
3 227 60 228
3 227 228 229
3 61 14 60
3 61 59 14
3 230 59 231
3 232 231 61
3 230 231 232
3 234 233 59
