ply
format ascii 1.0
element vertex 293
property float x
property float y
property float z
element face 286
property list uchar int vertex_index
end_header
-34.522377 37.264011 -2.094172
-46.535316 61.398525 -9.498486
-46.010647 54.583523 -12.967096
-46.530266 40.43832 2.851989
-42.023445 45.951588 -3.46904
-39.186356 47.453564 -11.337683
-44.088379 43.540329 -0.000153
-46.305653 48.686367 -4.32094
-43.063351 51.142422 -12.51897
-41.425095 50.444447 -16.19673
-48.60997 56.098507 -7.189487
-47.600929 53.335621 -8.590479
-47.210342 58.024212 -12.029125
-35.775784 35.633839 1.489461
-39.458733 40.274334 1.012075
-37.64732 42.31488 -2.373606
-44.593731 50.512783 -8.451944
-40.43433 47.333546 -7.359762
-36.437477 43.284275 -6.26594
-45.649216 62.968334 -7.696527
-46.166763 61.576664 -4.991886
-47.12574 60.189526 -6.896166
-48.324638 57.455776 -5.877277
-47.756012 58.713367 -8.47027
-47.952122 57.188717 -9.665348
-47.085579 59.735416 -10.956644
-36.196686 30.507465 4.256063
-35.321831 31.687202 2.839255
-36.659885 34.505684 3.010251
-47.821228 38.726688 4.032491
-45.560135 37.403973 4.208322
-44.207901 39.068523 3.166476
-42.998051 44.853725 -1.665342
-41.73777 42.04776 0.500519
-40.676746 43.28019 -1.111765
-38.47364 41.413437 -0.59617
-39.756184 44.283157 -2.882732
-46.82233 54.108166 -10.828403
-46.310631 51.942547 -8.689117
-45.517529 52.565113 -10.827585
-41.169182 49.354061 -11.967022
-41.856808 49.342037 -9.988508
-39.786118 47.556332 -9.360279
-38.329224 45.450382 -6.749479
-37.777534 45.57098 -8.753418
-37.278 45.384052 -10.743702
-44.981026 64.125046 -10.278494
-45.797718 62.354534 -11.957859
-45.275051 42.055 1.508065
-45.253429 46.209171 -2.114069
-44.267307 47.394566 -3.992226
-45.129623 54.732159 -14.959435
-44.718277 52.871906 -12.884089
-43.873436 52.84264 -14.815327
-42.281635 50.955944 -14.421324
-40.470737 49.03735 -13.867922
-38.584053 47.039829 -13.254772
-39.709312 48.414845 -15.666248
-48.371468 52.302898 -6.30076
-48.378098 54.719578 -8.097904
-47.64653 55.647915 -10.45188
-46.854912 56.300404 -12.696129
-46.279663 60.485126 -13.285465
-46.351456 58.567387 -14.229141
-45.969139 56.641628 -14.780416
-35.065144 36.561543 -0.225835
-42.923344 40.629616 1.930364
-40.591938 38.938171 2.421159
-38.454269 36.914318 2.829848
-37.423279 38.152538 1.386848
-36.557461 39.187786 -0.259959
-35.860355 39.986004 -2.074265
-47.12513 51.03767 -6.51531
-45.417027 49.731785 -6.372683
-43.377872 48.337772 -5.956612
-43.819592 50.99181 -10.515886
-42.581112 48.99773 -7.970119
-41.171673 46.790607 -5.380722
-38.978386 45.016552 -4.776737
-36.975636 42.94521 -4.27936
-35.319717 40.523251 -4.010822
-34.114508 35.709913 -2.301982
-34.303783 35.397123 -1.338966
-34.324224 37.496021 -3.081275
-34.114508 35.709913 -2.301982
-36.952904 31.858337 4.280725
-36.714741 29.849678 4.847228
-37.184504 33.857447 3.657819
-36.428286 32.506574 3.633157
-36.952904 31.858337 4.280725
-47.175747 39.582504 3.44224
-48.230168 40.171846 3.414277
-47.584687 41.027662 2.824026
-44.051682 65.481217 -10.5606
-44.452599 64.934006 -9.287535
-44.55136 64.567512 -11.483591
-44.051682 65.481217 -10.5606
-45.779541 47.447769 -3.217505
-46.25711 46.81356 -2.222428
-46.783223 48.052158 -3.325863
-44.004998 53.691174 -15.792172
-44.50153 53.7874 -14.887381
-44.633091 54.635933 -15.864225
-41.853365 50.700195 -15.309027
-42.609392 51.716107 -15.506173
-42.181122 51.460358 -16.393876
-46.370146 60.778755 -3.600169
-46.88583 60.169159 -4.595441
-48.909267 55.443466 -5.918625
-48.766602 56.122101 -5.26252
-48.467304 56.777141 -6.533382
-48.84177 54.825519 -6.435553
-48.909267 55.443466 -5.918625
-48.494034 55.409042 -7.643695
-48.725834 54.136055 -6.889761
-48.84177 54.825519 -6.435553
-45.57686 61.751773 -13.753903
-46.038691 61.41983 -12.621662
-45.335888 62.686477 -13.0901
-45.843914 58.675693 -15.222881
-45.825602 59.745644 -14.816992
-45.652755 57.712814 -15.498518
-46.160297 57.604507 -14.504779
-45.843914 58.675693 -15.222881
-45.458957 56.64365 -15.721005
-45.652755 57.712814 -15.498518
-35.197121 34.168181 1.351616
-34.970145 32.194862 2.026513
-35.548808 33.660521 2.164358
-35.420464 36.097691 0.631813
-34.841801 34.632033 0.493968
-35.197121 34.168181 1.351616
-35.67205 42.037319 -6.143258
-35.11317 40.656807 -5.015699
-35.878597 41.903763 -5.138381
-37.680988 45.976169 -12.968579
-38.255193 46.692425 -14.169941
-47.140084 49.288021 -4.334335
-46.783223 48.052158 -3.325863
-41.644962 51.118435 -17.199061
-42.181122 51.460358 -16.393876
-40.935915 50.041264 -17.01694
-41.644962 51.118435 -17.199061
-45.907989 62.272499 -6.344207
-45.352097 62.987139 -5.299178
-45.093323 63.682974 -6.651498
-47.365319 59.47559 -5.547581
-46.88583 60.169159 -4.595441
-46.646252 60.883095 -5.944026
-47.725189 58.822651 -6.386722
-47.964768 58.108715 -5.038137
-47.365319 59.47559 -5.547581
-36.104838 28.360596 4.697939
-36.714741 29.849678 4.847228
-35.686457 28.958046 4.023569
-36.104838 28.360596 4.697939
-35.759259 31.097333 3.547659
-35.24903 29.547914 3.315165
-35.686457 28.958046 4.023569
-48.819479 39.294685 4.100281
-48.230168 40.171846 3.414277
-48.466791 37.839418 4.543721
-48.819479 39.294685 4.100281
-47.383634 37.199053 4.547788
-48.466791 37.839418 4.543721
-46.253088 36.537695 4.635703
-47.383634 37.199053 4.547788
-46.690681 38.065331 4.120406
-45.096489 35.782463 4.77536
-46.253088 36.537695 4.635703
-44.384651 36.623158 4.397068
-45.096489 35.782463 4.77536
-43.708534 37.455433 3.876145
-44.384651 36.623158 4.397068
-44.884018 38.236248 3.687399
-43.029749 38.257896 3.390219
-43.708534 37.455433 3.876145
-36.886532 44.450241 -8.519113
-36.216503 43.306888 -7.275374
-37.107506 44.427627 -7.509679
-36.636764 44.356777 -9.514254
-36.886532 44.450241 -8.519113
-37.527767 45.477516 -9.74856
-36.439556 44.240066 -10.517394
-36.636764 44.356777 -9.514254
-44.786693 64.35565 -7.996551
-45.093323 63.682974 -6.651498
-45.315121 63.54669 -8.98751
-44.786693 64.35565 -7.996551
-44.452599 64.934006 -9.287535
-44.959705 63.682257 -12.323273
-45.389372 63.23979 -11.118177
-44.55136 64.567512 -11.483591
-45.335888 62.686477 -13.0901
-44.959705 63.682257 -12.323273
-46.997183 41.860048 2.071174
-47.584687 41.027662 2.824026
-46.369575 42.668388 1.399211
-45.902659 41.24666 2.180027
-46.997183 41.860048 2.071174
-45.800552 43.439844 0.579889
-46.369575 42.668388 1.399211
-45.207217 44.182508 -0.174219
-44.681715 42.797664 0.753956
-45.800552 43.439844 0.579889
-45.789741 45.51693 -1.231178
-46.25711 46.81356 -2.222428
-44.670904 44.87475 -1.057111
-45.207217 44.182508 -0.174219
-45.789741 45.51693 -1.231178
-43.405293 52.659455 -15.703174
-44.004998 53.691174 -15.792172
-43.077535 51.899292 -14.618326
-43.405293 52.659455 -15.703174
-42.609392 51.716107 -15.506173
-38.817823 47.379932 -15.375679
-38.255193 46.692425 -14.169941
-39.146682 47.727337 -14.46051
-40.078024 49.026463 -16.7517
-40.567203 49.429646 -15.931489
-40.935915 50.041264 -17.01694
-39.273409 47.968575 -16.508945
-40.078024 49.026463 -16.7517
-38.817823 47.379932 -15.375679
-39.273409 47.968575 -16.508945
-45.586117 62.205323 -3.904292
-45.352097 62.987139 -5.299178
-45.586117 62.205323 -3.904292
-46.370146 60.778755 -3.600169
-48.571796 56.724964 -4.549418
-47.964768 58.108715 -5.038137
-48.571796 56.724964 -4.549418
-48.766602 56.122101 -5.26252
-48.722519 52.927715 -5.991189
-48.758907 51.675251 -5.150149
-48.374783 53.511238 -7.199332
-48.722519 52.927715 -5.991189
-48.725834 54.136055 -6.889761
-45.789705 60.704514 -14.345154
-45.57686 61.751773 -13.753903
-46.315559 59.526257 -13.757303
-45.789705 60.704514 -14.345154
-45.825602 59.745644 -14.816992
-45.0392 55.688916 -15.810515
-45.549381 55.686893 -14.869926
-45.458957 56.64365 -15.721005
-44.633091 54.635933 -15.864225
-45.0392 55.688916 -15.810515
-34.913075 30.079824 2.535497
-35.24903 29.547914 3.315165
-34.913075 30.079824 2.535497
-34.970145 32.194862 2.026513
-34.575167 35.045889 -0.404797
-34.841801 34.632033 0.493968
-34.79376 36.912777 -1.160003
-34.303783 35.397123 -1.338966
-34.575167 35.045889 -0.404797
-42.38747 39.038443 2.772163
-43.029749 38.257896 3.390219
-43.565623 39.849069 2.54842
-41.221767 38.19272 3.01756
-42.38747 39.038443 2.772163
-41.757641 39.783893 2.175762
-40.113186 37.22506 3.233084
-41.221767 38.19272 3.01756
-39.044351 36.213133 3.437429
-40.113186 37.22506 3.233084
-39.523103 37.926244 2.625503
-38.081695 35.061763 3.567617
-39.044351 36.213133 3.437429
-37.557077 35.710001 2.92005
-37.184504 33.857447 3.657819
-38.081695 35.061763 3.567617
-48.172991 51.096286 -5.324245
-48.758907 51.675251 -5.150149
-47.549822 50.463673 -5.43152
-48.172991 51.096286 -5.324245
-47.748299 51.670284 -6.408035
-46.715391 49.862018 -5.418125
-47.140084 49.288021 -4.334335
-47.549822 50.463673 -5.43152
-34.722894 39.125641 -4.039599
-34.324224 37.496021 -3.081275
-34.921047 38.893631 -3.052497
-34.722894 39.125641 -4.039599
-35.11317 40.656807 -5.015699
-35.67205 42.037319 -6.143258
-36.216503 43.306888 -7.275374
-37.027962 45.148281 -11.713044
-37.931027 46.21194 -11.999237
-37.680988 45.976169 -12.968579
-36.439556 44.240066 -10.517394
-37.027962 45.148281 -11.713044
3 0 81 82
3 0 83 84
3 1 21 19
3 1 23 21
3 1 25 23
3 85 26 86
3 87 28 88
3 89 88 26
3 87 88 89
3 3 90 92
3 90 29 91
3 90 91 92
3 3 30 29
3 3 31 30
3 4 34 32
3 4 36 34
3 2 39 37
3 5 42 40
3 5 44 42
3 5 45 44
3 93 46 94
3 96 95 46
3 7 97 99
3 97 49 98
3 97 98 99
3 7 50 49
3 100 53 101
3 102 101 51
3 100 101 102
3 9 103 105
3 103 54 104
3 103 104 105
3 9 55 54
3 9 57 55
3 107 106 20
3 10 108 110
3 110 109 22
3 108 109 110
3 10 111 112
3 10 113 115
3 113 59 114
3 113 114 115
3 12 60 24
3 12 61 60
3 116 62 117
3 118 117 47
3 116 117 118
3 119 63 120
3 121 64 122
3 123 122 63
3 121 122 123
3 125 124 64
3 13 126 128
3 128 127 27
3 126 127 128
3 13 129 131
3 129 65 130
3 129 130 131
3 6 66 48
3 14 67 33
3 14 68 67
3 14 69 68
3 15 70 35
3 15 71 70
3 11 72 58
3 16 73 38
3 16 74 73
3 8 75 52
3 17 76 41
3 17 77 76
3 17 78 77
3 18 79 43
3 18 80 79
3 18 132 134
3 134 133 80
3 132 133 134
3 136 135 56
3 137 7 138
3 139 9 140
3 142 141 9
3 19 143 145
3 143 20 144
3 143 144 145
3 21 20 19
3 21 146 148
3 148 147 20
3 146 147 148
3 21 149 151
3 149 22 150
3 149 150 151
3 23 22 21
3 23 10 22
3 23 24 10
3 25 24 23
3 25 12 24
3 26 152 153
3 26 154 155
3 26 156 158
3 156 27 157
3 156 157 158
3 28 27 26
3 28 13 27
3 29 159 160
3 29 161 162
3 29 163 164
3 30 165 167
3 167 166 29
3 165 166 167
3 30 168 169
3 30 170 171
3 31 172 174
3 174 173 30
3 172 173 174
3 31 175 176
3 32 33 6
3 34 33 32
3 34 14 33
3 34 35 14
3 36 35 34
3 36 15 35
3 37 38 11
3 39 38 37
3 39 16 38
3 40 41 8
3 42 41 40
3 42 17 41
3 42 43 17
3 44 43 42
3 44 18 43
3 44 177 179
3 179 178 18
3 177 178 179
3 45 180 182
3 182 181 44
3 180 181 182
3 45 183 184
3 185 19 186
3 46 187 189
3 187 19 188
3 187 188 189
3 46 1 19
3 46 47 1
3 190 47 191
3 192 191 46
3 190 191 192
3 194 193 47
3 195 3 196
3 197 48 198
3 199 198 3
3 197 198 199
3 200 48 201
3 202 6 203
3 204 203 48
3 202 203 204
3 49 205 206
3 49 207 209
3 207 6 208
3 207 208 209
3 49 32 6
3 50 32 49
3 50 4 32
3 51 52 2
3 53 52 51
3 53 8 52
3 210 53 211
3 54 212 214
3 212 53 213
3 212 213 214
3 54 8 53
3 54 40 8
3 55 40 54
3 55 5 40
3 55 56 5
3 57 56 55
3 57 215 217
3 217 216 56
3 215 216 217
3 218 57 219
3 220 219 9
3 218 219 220
3 221 57 222
3 224 223 57
3 20 225 226
3 228 227 20
3 22 229 230
3 232 231 22
3 233 58 234
3 59 235 237
3 235 58 236
3 235 236 237
3 59 11 58
3 24 59 10
3 60 59 24
3 60 11 59
3 60 37 11
3 61 37 60
3 61 2 37
3 47 25 1
3 62 25 47
3 62 12 25
3 238 62 239
3 63 240 242
3 240 62 241
3 240 241 242
3 63 12 62
3 63 61 12
3 64 61 63
3 64 2 61
3 64 51 2
3 243 51 244
3 245 244 64
3 243 244 245
3 247 246 51
3 27 248 249
3 251 250 27
3 65 252 253
3 65 254 256
3 254 0 255
3 254 255 256
3 48 31 3
3 66 31 48
3 66 257 259
3 259 258 31
3 257 258 259
3 33 66 6
3 67 66 33
3 67 260 262
3 262 261 66
3 260 261 262
3 67 263 264
3 68 265 267
3 267 266 67
3 265 266 267
3 68 268 269
3 68 270 272
3 270 28 271
3 270 271 272
3 69 28 68
3 69 13 28
3 35 69 14
3 70 69 35
3 70 13 69
3 70 65 13
3 71 65 70
3 71 0 65
3 58 273 274
3 72 275 277
3 277 276 58
3 275 276 277
3 72 278 280
3 278 7 279
3 278 279 280
3 38 72 11
3 73 72 38
3 73 7 72
3 73 50 7
3 74 50 73
3 74 4 50
3 52 39 2
3 75 39 52
3 75 16 39
3 41 75 8
3 76 75 41
3 76 16 75
3 76 74 16
3 77 74 76
3 77 4 74
3 77 36 4
3 78 36 77
3 78 15 36
3 43 78 17
3 79 78 43
3 79 15 78
3 79 71 15
3 80 71 79
3 80 0 71
3 80 281 283
3 283 282 0
3 281 282 283
3 285 284 80
3 287 286 18
3 56 45 5
3 288 45 289
3 290 289 56
3 288 289 290
3 292 291 45
