ply
format ascii 1.0
element vertex 294
property float x
property float y
property float z
element face 290
property list uchar int vertex_index
end_header
-56.372734 -58.544769 50.801025
-55.571117 -66.376007 47.787685
-51.03627 -60.906868 49.464764
-40.849613 -44.930809 51.265446
-52.481033 -51.332165 49.960815
-44.84671 -52.58292 48.166451
-56.130814 -62.121929 49.662472
-54.071205 -59.690575 50.454288
-53.617943 -64.181747 49.423161
-42.253567 -48.51413 48.848606
-45.819389 -47.527622 48.46302
-48.607845 -51.831539 48.946651
-47.220993 -67.129433 48.161678
-50.646568 -65.835022 48.842075
-54.85593 -55.447693 50.87421
-40.849228 -58.638035 47.547562
-39.272175 -49.876953 50.241161
-41.375538 -53.573799 48.170269
-44.357025 -57.716244 47.709957
-47.978943 -56.864769 48.68713
-51.536098 -56.068302 49.957664
-56.290867 -60.148129 50.376442
-57.231644 -60.872608 49.626614
-55.372849 -59.07365 50.732574
-55.14505 -61.070812 50.254097
-43.758259 -65.51078 47.489895
-44.708729 -45.476635 48.733906
-47.770939 -47.185528 48.562069
-49.370682 -61.46233 48.870979
-49.198463 -63.989853 48.650394
-50.851898 -63.364426 49.145012
-54.674843 -65.41716 48.829433
-53.359158 -66.490135 48.812275
-48.692448 -69.051254 48.427872
-46.900631 -69.707512 48.26561
-53.743542 -53.456234 50.513988
-39.943848 -47.39959 50.739712
-43.439484 -50.500336 48.312183
-41.742165 -51.04142 48.516121
-43.063347 -53.048447 48.043755
-42.792507 -55.604126 47.759884
-44.565041 -55.14407 47.941624
-46.166008 -57.284374 48.125912
-46.387642 -54.721722 48.328209
-50.542046 -51.547779 49.466236
-50.095333 -53.98843 49.454338
-51.9384 -53.68882 50.0373
-53.238083 -55.718372 50.504944
-55.894836 -64.227859 48.771553
-57.044411 -62.910248 48.640263
-52.610275 -60.311886 50.012794
-52.40139 -62.668964 49.607189
-53.8377 -61.904087 49.989906
-54.929981 -63.208565 49.59473
-41.370163 -46.652382 49.827381
-42.963608 -46.007298 49.163345
-43.973309 -47.970501 48.543579
-45.250057 -50.039593 48.346825
-46.702171 -52.177238 48.488369
-47.151749 -49.660423 48.572056
-49.122669 -49.361816 48.926273
-45.630295 -65.052063 47.770889
-47.452118 -64.549377 48.174759
-48.986404 -66.523438 48.494766
-50.372894 -68.302521 48.591393
-52.191055 -65.055923 49.163265
-51.928726 -67.450897 48.727451
-45.370537 -67.665154 47.885315
-55.759266 -57.211555 50.967381
-40.680462 -49.153 49.409023
-40.180538 -51.658863 48.992451
-39.807896 -54.158367 48.581856
-41.095261 -56.104954 47.833786
-42.575554 -58.165096 47.500435
-44.177528 -60.299019 47.522682
-45.993134 -59.860783 47.930035
-47.790192 -59.412556 48.481796
-49.548004 -58.949535 49.112713
-48.237961 -54.335739 48.856903
-49.775547 -56.457035 49.323574
-51.248581 -58.473495 49.752522
-52.871845 -57.996964 50.327393
-54.389008 -57.551704 50.76025
-56.817396 -58.750402 50.589066
-56.776463 -59.552082 50.376774
-56.3318 -59.346449 50.588734
-43.873213 -64.203322 47.462244
-42.949515 -64.418057 47.377168
-55.942846 -66.727677 47.048498
-55.353407 -67.444084 47.281607
-54.956129 -67.009438 47.904875
-54.507992 -66.530014 48.425748
-55.12298 -65.896583 48.308559
-55.353407 -67.444084 47.281607
-54.956129 -67.009438 47.904875
-48.486773 -70.305199 48.436051
-49.34021 -69.899582 48.416302
-53.439399 -51.264426 50.148319
-54.070654 -52.32646 50.424905
-53.112287 -52.394199 50.237401
-40.396731 -46.165199 51.002579
-39.757323 -46.592137 51.616799
-40.210205 -45.357746 51.879666
-57.693623 -61.160097 49.034105
-57.752615 -60.139195 49.559975
-43.436746 -44.774603 49.31588
-42.630989 -45.091839 49.709882
-49.464163 -48.150665 48.85405
-48.446804 -48.273672 48.744171
-48.788297 -47.062521 48.671948
-50.130961 -49.252014 49.130423
-49.464163 -48.150665 48.85405
-47.540397 -63.262341 48.234314
-46.639595 -63.49971 47.985089
-52.471691 -68.122673 48.465084
-52.643942 -66.970516 48.769863
-53.186907 -67.642292 48.507496
-51.747978 -68.63982 48.527866
-52.471691 -68.122673 48.465084
-45.961199 -69.996205 48.200665
-46.68255 -70.990574 48.364432
-55.615147 -55.385607 50.920736
-56.066814 -56.267538 50.967321
-55.307598 -56.329624 50.920795
-40.723909 -59.910561 47.455353
-40.02879 -58.890686 47.717823
-41.609163 -59.68706 47.43264
-40.723909 -59.910561 47.455353
-38.65662 -50.274994 50.793434
-38.983425 -49.054108 51.070566
-39.023681 -51.111723 50.000382
-38.65662 -50.274994 50.793434
-57.246851 -59.914322 50.00186
-56.761256 -60.510368 50.001528
-56.776463 -59.552082 50.376774
-57.752615 -60.139195 49.559975
-57.246851 -59.914322 50.00186
-42.813361 -65.725719 47.434011
-42.949515 -64.418057 47.377168
-43.611203 -66.828151 47.598652
-42.813361 -65.725719 47.434011
-45.190418 -44.258032 48.812548
-44.309307 -44.509271 49.10116
-45.648222 -45.270846 48.622951
-45.190418 -44.258032 48.812548
-46.203552 -46.296339 48.487509
-45.264059 -46.502128 48.598463
-45.648222 -45.270846 48.622951
-47.179327 -46.125292 48.537033
-46.795164 -47.356575 48.512545
-46.203552 -46.296339 48.487509
-48.176016 -45.977282 48.509596
-47.179327 -46.125292 48.537033
-48.788297 -47.062521 48.671948
-48.176016 -45.977282 48.509596
-49.284572 -62.726091 48.760686
-48.41357 -62.982579 48.472132
-48.499679 -61.718817 48.582424
-53.85015 -67.066502 48.417169
-54.017001 -65.953647 48.820854
-54.507992 -66.530014 48.425748
-53.186907 -67.642292 48.507496
-53.85015 -67.066502 48.417169
-47.590864 -70.633328 48.35492
-47.796539 -69.379383 48.346741
-48.486773 -70.305199 48.436051
-46.68255 -70.990574 48.364432
-47.590864 -70.633328 48.35492
-54.615332 -53.388678 50.650695
-55.171526 -54.384407 50.830806
-54.299736 -54.451964 50.694099
-54.615332 -53.388678 50.650695
-54.070654 -52.32646 50.424905
-40.174847 -57.644186 47.873908
-40.02879 -58.890686 47.717823
-39.319261 -47.815426 51.319841
-39.757323 -46.592137 51.616799
-39.608012 -48.638272 50.490437
-38.983425 -49.054108 51.070566
-39.319261 -47.815426 51.319841
-56.316482 -64.612583 48.139517
-56.154623 -65.686657 47.647583
-55.732976 -65.301933 48.279619
-56.89127 -63.953778 48.073872
-56.316482 -64.612583 48.139517
-56.469623 -63.569053 48.705908
-57.46141 -63.210242 47.916208
-56.89127 -63.953778 48.073872
-57.600006 -62.178917 48.54093
-57.138027 -61.891428 49.133438
-57.693623 -61.160097 49.034105
-57.46141 -63.210242 47.916208
-57.600006 -62.178917 48.54093
-52.827407 -50.167012 49.835577
-51.810142 -50.237189 49.647694
-41.834266 -45.414381 50.0419
-41.109888 -45.791595 50.546413
-41.573991 -44.553595 50.760933
-42.166885 -46.32984 49.495363
-41.834266 -45.414381 50.0419
-42.630989 -45.091839 49.709882
-43.836168 -45.741967 48.948625
-43.436746 -44.774603 49.31588
-44.309307 -44.509271 49.10116
-50.840649 -50.344995 49.400404
-49.832358 -50.454797 49.196255
-50.130961 -49.252014 49.130423
-51.810142 -50.237189 49.647694
-51.511539 -51.439972 49.713526
-50.840649 -50.344995 49.400404
-55.942846 -66.727677 47.048498
-56.154623 -65.686657 47.647583
-45.728684 -63.751053 47.783153
-44.809231 -63.973963 47.602741
-46.541207 -64.80072 47.972824
-45.728684 -63.751053 47.783153
-46.639595 -63.49971 47.985089
-48.32529 -64.269615 48.412577
-47.540397 -63.262341 48.234314
-48.41357 -62.982579 48.472132
-50.180433 -69.525216 48.498063
-49.34021 -69.899582 48.416302
-49.532671 -68.676887 48.509632
-50.970062 -69.065632 48.459837
-51.15081 -67.876709 48.659422
-51.747978 -68.63982 48.527866
-50.180433 -69.525216 48.498063
-50.970062 -69.065632 48.459837
-40.782511 -44.141447 52.204161
-40.210205 -45.357746 51.879666
-41.436645 -43.711242 51.548636
-40.782511 -44.141447 52.204161
-41.573991 -44.553595 50.760933
-41.436645 -43.711242 51.548636
-44.694277 -65.281421 47.630392
-43.873213 -64.203322 47.462244
-44.809231 -63.973963 47.602741
-44.417341 -67.905338 47.796362
-43.611203 -66.828151 47.598652
-44.564398 -66.587967 47.687605
-45.196152 -68.975026 48.010517
-46.135584 -68.686333 48.075463
-45.961199 -69.996205 48.200665
-44.417341 -67.905338 47.796362
-45.196152 -68.975026 48.010517
-56.37718 -57.187191 50.899251
-56.683914 -57.853798 50.816073
-56.066 -57.878162 50.884203
-56.37718 -57.187191 50.899251
-56.066814 -56.267538 50.967321
-55.615147 -55.385607 50.920736
-55.171526 -54.384407 50.830806
-53.785774 -50.099272 50.023081
-53.439399 -51.264426 50.148319
-52.827407 -50.167012 49.835577
-39.477863 -52.002678 49.376027
-39.023681 -51.111723 50.000382
-39.726356 -50.767908 49.616806
-39.291542 -53.25243 49.170729
-39.477863 -52.002678 49.376027
-39.994217 -52.908615 48.787154
-39.095757 -54.479679 48.940199
-39.291542 -53.25243 49.170729
-39.65418 -55.404352 48.391054
-39.095757 -54.479679 48.940199
-40.297863 -56.377645 48.01702
-39.65418 -55.404352 48.391054
-40.451578 -55.13166 48.207821
-40.972245 -57.371494 47.690674
-40.174847 -57.644186 47.873908
-40.297863 -56.377645 48.01702
-42.472326 -59.45059 47.409077
-41.609163 -59.68706 47.43264
-41.712391 -58.401566 47.523999
-43.273314 -60.517551 47.4202
-42.472326 -59.45059 47.409077
-43.376541 -59.232057 47.511559
-44.082847 -61.597441 47.478638
-43.273314 -60.517551 47.4202
-45.0023 -61.374531 47.65905
-44.082847 -61.597441 47.478638
-45.910103 -61.155413 47.862726
-45.0023 -61.374531 47.65905
-45.085331 -60.079901 47.726359
-46.810906 -60.918043 48.111952
-45.910103 -61.155413 47.862726
-47.709435 -60.69393 48.387833
-46.810906 -60.918043 48.111952
-46.891663 -59.636669 48.205916
-48.580437 -60.437443 48.676388
-48.499679 -61.718817 48.582424
-47.709435 -60.69393 48.387833
-56.817396 -58.750402 50.589066
-56.683914 -57.853798 50.816073
3 0 83 85
3 85 84 21
3 83 84 85
3 0 21 23
3 86 25 87
3 1 88 89
3 2 30 28
3 1 90 92
3 92 91 31
3 90 91 92
3 1 93 94
3 96 95 33
3 4 97 99
3 99 98 35
3 97 98 99
3 3 100 102
3 100 36 101
3 100 101 102
3 5 39 37
3 5 41 39
3 5 43 41
3 4 46 44
3 4 35 46
3 6 49 48
3 104 103 22
3 7 52 50
3 6 53 24
3 6 48 53
3 105 55 106
3 10 56 26
3 10 57 56
3 10 59 57
3 107 60 108
3 109 108 27
3 107 108 109
3 111 110 60
3 112 62 113
3 13 63 29
3 13 64 63
3 8 65 51
3 114 66 115
3 116 115 32
3 114 115 116
3 118 117 66
3 12 67 61
3 120 119 34
3 14 121 123
3 123 122 68
3 121 122 123
3 15 124 125
3 15 126 127
3 16 128 129
3 16 130 131
3 9 69 54
3 17 70 38
3 17 71 70
3 17 72 71
3 18 73 40
3 18 74 73
3 18 75 74
3 19 76 42
3 19 77 76
3 11 78 58
3 20 79 45
3 20 80 79
3 20 81 80
3 14 82 47
3 14 68 82
3 21 22 6
3 132 22 133
3 134 133 21
3 132 133 134
3 136 135 22
3 23 24 7
3 21 24 23
3 21 6 24
3 25 137 138
3 25 139 140
3 141 26 142
3 143 26 144
3 145 10 146
3 147 146 26
3 145 146 147
3 148 27 149
3 150 149 10
3 148 149 150
3 151 27 152
3 154 153 27
3 28 155 157
3 155 29 156
3 155 156 157
3 30 29 28
3 30 13 29
3 31 32 8
3 158 32 159
3 160 159 31
3 158 159 160
3 162 161 32
3 33 34 12
3 163 34 164
3 165 164 33
3 163 164 165
3 167 166 34
3 35 168 170
3 170 169 14
3 168 169 170
3 172 171 35
3 173 15 174
3 36 175 176
3 36 177 179
3 177 16 178
3 177 178 179
3 37 38 9
3 39 38 37
3 39 17 38
3 39 40 17
3 41 40 39
3 41 18 40
3 41 42 18
3 43 42 41
3 43 19 42
3 44 45 11
3 46 45 44
3 46 20 45
3 46 47 20
3 35 47 46
3 35 14 47
3 48 180 182
3 182 181 1
3 180 181 182
3 49 183 185
3 185 184 48
3 183 184 185
3 49 186 187
3 22 49 6
3 188 49 189
3 190 189 22
3 188 189 190
3 192 191 49
3 50 51 2
3 52 51 50
3 52 8 51
3 24 52 7
3 53 52 24
3 53 8 52
3 53 31 8
3 48 31 53
3 48 1 31
3 194 193 4
3 195 54 196
3 197 196 3
3 195 196 197
3 55 198 200
3 198 54 199
3 198 199 200
3 55 9 54
3 26 201 203
3 201 55 202
3 201 202 203
3 56 55 26
3 56 9 55
3 56 37 9
3 57 37 56
3 57 5 37
3 57 58 5
3 59 58 57
3 59 11 58
3 27 59 10
3 60 59 27
3 60 11 59
3 60 44 11
3 204 44 205
3 206 205 60
3 204 205 206
3 207 4 208
3 209 208 44
3 207 208 209
3 211 210 1
3 212 61 213
3 62 214 216
3 214 61 215
3 214 215 216
3 62 12 61
3 29 217 219
3 217 62 218
3 217 218 219
3 63 62 29
3 63 12 62
3 63 33 12
3 64 33 63
3 64 220 222
3 222 221 33
3 220 221 222
3 51 30 2
3 65 30 51
3 65 13 30
3 32 65 8
3 66 65 32
3 66 13 65
3 66 64 13
3 223 64 224
3 225 224 66
3 223 224 225
3 227 226 64
3 228 3 229
3 230 3 231
3 233 232 3
3 61 234 236
3 234 25 235
3 234 235 236
3 67 25 61
3 67 237 239
3 239 238 25
3 237 238 239
3 34 67 12
3 240 67 241
3 242 241 34
3 240 241 242
3 244 243 67
3 68 245 247
3 247 246 0
3 245 246 247
3 249 248 68
3 251 250 14
3 254 253 4
3 252 253 254
3 54 36 3
3 69 36 54
3 69 16 36
3 38 69 9
3 70 69 38
3 70 16 69
3 70 255 257
3 257 256 16
3 255 256 257
3 71 258 260
3 260 259 70
3 258 259 260
3 71 261 262
3 71 263 264
3 72 265 267
3 267 266 71
3 265 266 267
3 72 268 270
3 268 15 269
3 268 269 270
3 40 72 17
3 73 72 40
3 73 15 72
3 73 271 273
3 273 272 15
3 271 272 273
3 74 274 276
3 276 275 73
3 274 275 276
3 74 277 278
3 74 279 280
3 75 281 283
3 283 282 74
3 281 282 283
3 75 284 285
3 42 75 18
3 76 75 42
3 76 286 288
3 288 287 75
3 286 287 288
3 76 289 291
3 289 28 290
3 289 290 291
3 77 28 76
3 77 2 28
3 58 43 5
3 78 43 58
3 78 19 43
3 45 78 11
3 79 78 45
3 79 19 78
3 79 77 19
3 80 77 79
3 80 2 77
3 80 50 2
3 81 50 80
3 81 7 50
3 47 81 20
3 82 81 47
3 82 7 81
3 82 23 7
3 68 23 82
3 68 0 23
3 293 292 0
