ply
format ascii 1.0
element vertex 218
property float x
property float y
property float z
element face 198
property list uchar int vertex_index
end_header
-58.03035 7.181208 -27.989849
-51.442852 8.82959 -30.3783
-52.978157 14.701408 -40.266769
-56.104164 3.436941 -23.662632
-60.84034 3.309713 -31.78643
-60.378292 4.234814 -26.791424
-58.732956 8.051405 -32.990795
-52.497681 3.703716 -25.064808
-48.703331 3.93075 -25.706257
-54.97654 8.619848 -29.304134
-56.024059 11.427406 -34.122818
-56.262276 11.066013 -39.175217
-60.095428 4.759466 -34.799259
-61.144386 1.947392 -34.033058
-58.695877 4.800201 -25.007034
-59.938717 3.631758 -24.348358
-59.298615 5.892847 -27.368229
-59.639042 6.225399 -29.878307
-58.480156 8.006933 -30.446926
-52.099831 6.328991 -27.695026
-53.92688 6.300268 -27.128658
-53.249474 8.839056 -29.906269
-52.990067 14.312347 -37.705864
-54.46138 12.482849 -34.672409
-54.637177 13.208069 -37.214088
-56.187256 11.648243 -36.675358
-54.660225 13.095806 -39.756882
-57.263557 5.611176 -25.718189
-61.457581 1.704935 -28.754955
-61.687832 0.581476 -31.107479
-62.077484 -1.019938 -33.166878
-52.296692 11.198381 -32.733383
-60.627342 4.105623 -29.321011
-59.859676 5.820797 -32.406635
-58.922409 7.358265 -35.481331
-50.600082 3.759148 -25.518478
-50.228558 6.295307 -28.062439
-46.848045 4.347836 -25.57547
-54.348568 3.635292 -24.419136
-55.662582 6.091398 -26.444801
-56.581802 8.084572 -28.646366
-54.025505 10.97381 -32.2243
-55.654434 10.390615 -31.639843
-57.148098 9.403891 -31.036713
-57.453259 9.938442 -33.559509
-57.619312 9.677475 -36.100399
-57.76545 8.682198 -38.517895
-50.830315 15.056618 -45.633801
-52.868031 14.242691 -42.759674
-54.642242 12.181087 -42.178974
-60.267692 3.952807 -35.856274
-59.62726 5.389255 -36.28454
-56.912667 3.225261 -23.266863
-56.213077 2.069226 -22.313195
-56.68386 4.524059 -24.69041
-57.492363 4.312378 -24.294641
-56.912667 3.225261 -23.266863
-61.843229 -0.448828 -34.551237
-61.610935 0.463727 -33.599968
-61.37668 1.034837 -34.984327
-62.371941 -2.013361 -34.000543
-61.843229 -0.448828 -34.551237
-60.681954 3.172611 -25.274203
-60.462166 2.871082 -24.05267
-60.158504 3.933286 -25.569891
-60.827059 3.239985 -26.521774
-60.681954 3.172611 -25.274203
-60.502817 4.170218 -28.056217
-60.951584 3.17539 -27.786568
-60.827059 3.239985 -26.521774
-49.651707 3.844949 -25.612368
-49.712612 2.612691 -24.399082
-48.764236 2.698492 -24.492972
-45.955579 4.737008 -25.341341
-46.008287 3.690581 -24.208098
-53.423125 3.669504 -24.741972
-53.50445 2.320603 -23.457763
-52.579006 2.354815 -23.7806
-53.409633 12.037593 -33.700249
-53.161099 11.086095 -32.478842
-52.545227 12.149878 -33.95479
-51.797348 14.02475 -45.352386
-50.74602 14.269083 -46.720123
-52.816206 13.617787 -43.915323
-51.849173 14.649655 -44.196737
-51.797348 14.02475 -45.352386
-53.703311 12.586984 -43.624973
-53.755137 13.211889 -42.469324
-52.816206 13.617787 -43.915323
-55.320614 2.165067 -22.7234
-56.213077 2.069226 -22.313195
-60.792171 2.546771 -35.473173
-60.619907 3.353429 -34.416158
-60.267692 3.952807 -35.856274
-61.37668 1.034837 -34.984327
-60.792171 2.546771 -35.473173
-59.317297 4.21598 -24.677696
-59.552843 2.96505 -23.227089
-58.931423 3.549272 -23.556427
-47.830421 2.993997 -24.466406
-48.764236 2.698492 -24.492972
-53.725724 13.397598 -36.189137
-53.627571 12.792112 -34.924303
-52.891914 13.706862 -36.44103
-58.208523 3.906891 -23.939064
-58.931423 3.549272 -23.556427
-57.979717 5.205689 -25.362611
-58.208523 3.906891 -23.939064
-57.492363 4.312378 -24.294641
-61.801962 0.394274 -28.456186
-61.731947 0.840112 -27.243782
-61.917088 -0.167456 -29.632448
-61.801962 0.394274 -28.456186
-61.572706 1.143206 -29.931217
-62.051264 -0.862463 -30.729668
-61.917088 -0.167456 -29.632448
-62.24609 -1.66317 -31.759367
-62.051264 -0.862463 -30.729668
-61.882658 -0.219231 -32.137178
-62.488314 -2.557751 -32.680817
-62.24609 -1.66317 -31.759367
-62.488314 -2.557751 -32.680817
-62.371941 -2.013361 -34.000543
-51.402275 11.173284 -32.913088
-51.869772 10.013986 -31.555841
-50.975355 9.988888 -31.735546
-51.676552 12.259778 -34.155352
-51.402275 11.173284 -32.913088
-52.545227 12.149878 -33.95479
-51.676552 12.259778 -34.155352
-52.133011 14.630354 -37.911495
-52.891914 13.706862 -36.44103
-52.115975 15.071154 -39.198149
-52.133011 14.630354 -37.911495
-52.110019 15.265684 -40.478601
-52.984112 14.506878 -38.986317
-52.115975 15.071154 -39.198149
-60.180723 2.44344 -22.878666
-59.552843 2.96505 -23.227089
-60.180723 2.44344 -22.878666
-60.462166 2.871082 -24.05267
-61.366703 1.975046 -27.50354
-61.731947 0.840112 -27.243782
-61.042462 2.905279 -29.037983
-61.366703 1.975046 -27.50354
-60.951584 3.17539 -27.786568
-59.040751 6.688655 -36.625576
-59.62726 5.389255 -36.28454
-59.508919 6.058865 -35.140295
-51.618943 2.429738 -24.04197
-52.579006 2.354815 -23.7806
-50.670143 2.457454 -24.268805
-49.712612 2.612691 -24.399082
-51.548882 3.731432 -25.291643
-51.618943 2.429738 -24.04197
-50.670143 2.457454 -24.268805
-46.902778 3.20254 -24.401013
-46.063021 2.545285 -23.03364
-46.008287 3.690581 -24.208098
-47.775688 4.139293 -25.640864
-47.830421 2.993997 -24.466406
-46.902778 3.20254 -24.401013
-46.686283 5.465301 -26.750149
-45.955579 4.737008 -25.341341
-47.602937 5.340829 -26.865963
-46.686283 5.465301 -26.750149
-48.53058 5.132286 -26.931356
-47.775688 4.139293 -25.640864
-47.602937 5.340829 -26.865963
-49.293194 6.314564 -28.109448
-49.465944 5.113029 -26.884348
-48.53058 5.132286 -26.931356
-49.914617 7.502618 -29.350638
-49.293194 6.314564 -28.109448
-50.521765 8.769759 -30.508568
-50.835705 7.562449 -29.22037
-49.914617 7.502618 -29.350638
-50.975355 9.988888 -31.735546
-50.521765 8.769759 -30.508568
-54.442816 2.264242 -23.101652
-53.50445 2.320603 -23.457763
-55.226366 3.536117 -24.040884
-55.320614 2.165067 -22.7234
-54.442816 2.264242 -23.101652
-54.243443 11.72833 -33.448355
-53.409633 12.037593 -33.700249
-53.627571 12.792112 -34.924303
-58.462271 7.350621 -38.143858
-59.040751 6.688655 -36.625576
-58.34393 8.020231 -36.999613
-52.017254 15.283445 -41.747704
-52.110019 15.265684 -40.478601
-49.71098 15.285899 -46.97963
-50.74602 14.269083 -46.720123
-49.867014 15.860762 -45.837629
-49.71098 15.285899 -46.97963
-50.943333 15.46105 -44.431219
-49.867014 15.860762 -45.837629
-51.962191 15.054087 -42.994156
-50.943333 15.46105 -44.431219
-51.849173 14.649655 -44.196737
-52.923094 14.47205 -41.513222
-52.017254 15.283445 -41.747704
-51.962191 15.054087 -42.994156
-54.657423 11.368906 -43.269464
-53.703311 12.586984 -43.624973
-55.497387 10.969472 -41.833399
-54.657423 11.368906 -43.269464
-56.307403 10.411935 -40.33152
-55.452259 11.62355 -40.677096
-55.497387 10.969472 -41.833399
-57.058991 9.220027 -40.002859
-57.013863 9.874105 -38.846556
-56.307403 10.411935 -40.33152
-57.871914 7.867855 -39.597183
-57.058991 9.220027 -40.002859
-58.462271 7.350621 -38.143858
-57.871914 7.867855 -39.597183
3 51 50 12
3 0 16 14
3 0 18 16
3 1 21 19
3 2 24 22
3 2 26 24
3 3 52 53
3 3 54 56
3 54 27 55
3 54 55 56
3 4 29 28
3 57 30 58
3 59 58 13
3 57 58 59
3 61 60 30
3 5 62 64
3 64 63 15
3 62 63 64
3 5 65 66
3 5 67 69
3 67 32 68
3 67 68 69
3 6 33 17
3 6 34 33
3 8 70 72
3 70 35 71
3 70 71 72
3 8 36 35
3 73 37 74
3 7 75 77
3 75 38 76
3 75 76 77
3 9 39 20
3 9 40 39
3 78 41 79
3 80 79 31
3 78 79 80
3 10 42 23
3 10 43 42
3 10 44 43
3 11 45 25
3 11 46 45
3 81 47 82
3 83 48 84
3 85 84 47
3 83 84 85
3 86 49 87
3 88 87 48
3 86 87 88
3 89 3 90
3 12 13 4
3 91 13 92
3 93 92 12
3 91 92 93
3 95 94 13
3 14 96 98
3 96 15 97
3 96 97 98
3 16 15 14
3 16 5 15
3 16 17 5
3 18 17 16
3 18 6 17
3 99 8 100
3 19 20 7
3 21 20 19
3 21 9 20
3 22 101 103
3 101 23 102
3 101 102 103
3 24 23 22
3 24 10 23
3 24 25 10
3 26 25 24
3 26 11 25
3 104 14 105
3 27 106 108
3 106 14 107
3 106 107 108
3 27 0 14
3 28 109 110
3 29 111 113
3 113 112 28
3 111 112 113
3 29 114 115
3 13 29 4
3 30 29 13
3 30 116 118
3 118 117 29
3 116 117 118
3 30 119 120
3 122 121 30
3 123 31 124
3 125 124 1
3 123 124 125
3 126 31 127
3 129 128 31
3 130 22 131
3 132 22 133
3 134 2 135
3 136 135 22
3 134 135 136
3 15 137 138
3 140 139 15
3 141 28 142
3 32 143 145
3 143 28 144
3 143 144 145
3 32 4 28
3 17 32 5
3 33 32 17
3 33 4 32
3 33 12 4
3 34 12 33
3 34 146 148
3 148 147 12
3 146 147 148
3 149 7 150
3 35 151 152
3 35 153 155
3 153 7 154
3 153 154 155
3 35 19 7
3 36 19 35
3 36 1 19
3 37 156 158
3 156 157 158
3 37 159 161
3 159 8 160
3 159 160 161
3 162 37 163
3 164 37 165
3 166 8 167
3 168 167 37
3 166 167 168
3 169 36 170
3 171 170 8
3 169 170 171
3 172 36 173
3 174 1 175
3 176 175 36
3 174 175 176
3 178 177 1
3 38 179 180
3 38 181 183
3 181 3 182
3 181 182 183
3 20 38 7
3 39 38 20
3 39 3 38
3 39 27 3
3 40 27 39
3 40 0 27
3 31 21 1
3 41 21 31
3 41 9 21
3 23 184 186
3 184 41 185
3 184 185 186
3 42 41 23
3 42 9 41
3 42 40 9
3 43 40 42
3 43 0 40
3 43 18 0
3 44 18 43
3 44 6 18
3 25 44 10
3 45 44 25
3 45 6 44
3 45 34 6
3 46 34 45
3 46 187 189
3 189 188 34
3 187 188 189
3 190 2 191
3 47 192 193
3 47 194 195
3 47 196 197
3 48 198 200
3 200 199 47
3 198 199 200
3 48 201 203
3 201 2 202
3 201 202 203
3 48 26 2
3 49 26 48
3 49 11 26
3 204 49 205
3 206 49 207
3 208 11 209
3 210 209 49
3 208 209 210
3 211 46 212
3 213 212 11
3 211 212 213
3 214 46 215
3 217 216 46
