ply
format ascii 1.0
element vertex 277
property float x
property float y
property float z
element face 266
property list uchar int vertex_index
end_header
-19.327742 -15.787083 80.933395
-28.283237 -17.002899 78.005753
-20.704533 -24.252426 80.424683
-11.378931 -12.873217 84.281868
-15.129586 -14.583048 82.537804
-11.734674 -18.446795 85.496506
-15.8414 -19.478762 83.667847
-21.40839 -27.992062 78.110794
-22.424364 -12.293877 77.155319
-20.816875 -7.504124 73.873734
-18.141125 -10.9973 78.550812
-14.421834 -9.069293 80.471352
-23.817635 -16.531656 79.489449
-20.197693 -20.142345 81.716194
-24.618328 -20.562614 79.621468
-25.058725 -24.421783 77.651459
-27.040215 -13.06997 76.180862
-4.817947 -15.551579 87.694359
-8.019697 -17.06053 86.999046
-17.178923 -15.250395 81.709518
-15.506075 -17.090555 83.290817
-17.628759 -17.598351 82.435181
-22.079981 -29.63586 77.137054
-20.924818 -14.024978 79.163063
-20.220444 -11.722923 77.786049
-18.749882 -13.468541 79.864571
-16.687057 -12.768375 80.660637
-26.080273 -16.788553 78.768669
-24.294376 -18.562359 79.865791
-26.502739 -18.764725 78.947891
-26.965759 -22.621595 77.518661
-25.37779 -26.219059 76.342262
-27.75596 -15.051201 77.386292
-25.478325 -14.786103 77.960495
-9.681286 -11.880577 85.102554
-8.025442 -14.020108 86.452293
-9.724012 -14.903644 85.788956
-20.473736 -22.229193 81.297699
-18.283392 -22.027905 82.46402
-18.520214 -24.13224 81.759026
-18.852314 -6.556345 74.766434
-12.951174 -10.93854 82.499702
-11.27372 -9.851657 83.461052
-13.194386 -13.78512 83.406998
-11.541536 -15.731068 85.000763
-13.472097 -16.46678 84.153259
-13.747223 -19.012911 84.603333
-20.98111 -26.185574 79.283295
-23.848795 -10.57857 74.973816
-22.955879 -8.269276 73.193985
-21.610336 -9.994827 75.53315
-19.506771 -9.24823 76.261627
-17.564365 -8.327788 77.168777
-16.206938 -10.109699 79.45311
-14.752942 -11.920774 81.54821
-21.551937 -16.20665 80.200867
-19.819798 -17.999868 81.588448
-22.052784 -18.313873 80.738625
-22.414146 -20.374353 80.692139
-22.668343 -22.392014 80.085281
-26.773708 -20.715216 78.49411
-24.842594 -22.524302 78.825302
-22.890814 -24.349413 79.053177
-23.18499 -26.214195 77.814117
-23.659306 -27.94788 76.61937
-24.715666 -12.731799 76.634018
-23.182068 -14.455084 78.538986
-6.450239 -13.127294 86.911369
-6.347256 -16.299963 87.484673
-9.820408 -17.788305 86.31311
-17.998592 -19.850142 82.705284
-16.117695 -21.772903 83.584915
-3.446728 -14.861729 87.559502
-21.376376 -30.458092 77.534027
-22.567606 -30.363694 76.832375
-28.019599 -16.02705 77.696022
-28.849118 -15.168691 77.078793
-29.112756 -16.14454 77.388523
-17.692432 -4.525364 74.644268
-18.581817 -5.089423 74.096699
-17.962929 -5.992286 75.314003
-14.918196 -20.463178 84.161774
-13.871108 -20.230252 84.629517
-14.794311 -19.245836 84.13559
-20.290436 -28.009911 78.863758
-20.076796 -27.106667 79.450008
-21.19475 -27.088818 78.697045
-27.804915 -20.770972 77.89962
-27.699939 -19.823848 78.230084
-24.782988 -27.912606 75.886544
-24.518548 -27.083469 76.480816
-25.64223 -27.048195 75.74799
-24.030769 -28.731566 76.156357
-24.782988 -27.912606 75.886544
-27.783699 -12.223989 75.197609
-28.183424 -13.210313 75.961689
-26.60823 -12.048026 75.366123
-27.783699 -12.223989 75.197609
-25.877941 -12.900885 76.40744
-25.445956 -11.878941 75.592701
-26.60823 -12.048026 75.366123
-7.272644 -11.990591 86.350441
-6.531912 -11.487196 86.582782
-7.165202 -18.21508 87.447388
-6.328981 -17.834797 87.690201
-7.183477 -16.680247 87.24186
-16.235731 -22.876314 83.316806
-17.200544 -21.900404 83.024468
-17.318579 -23.003815 82.756359
-15.168496 -22.776608 83.933654
-16.235731 -22.876314 83.316806
-21.467704 -6.628238 72.683022
-22.537206 -7.010813 72.343148
-21.886377 -7.8867 73.53386
-14.296043 -7.53733 79.948696
-15.105774 -8.154272 79.354809
-4.132338 -15.206654 87.626931
-4.22517 -13.569078 87.322365
-4.91078 -13.914003 87.389793
-20.929681 -29.692539 77.879005
-20.593885 -28.87064 78.365875
-21.744186 -28.813961 77.623924
-20.929681 -29.692539 77.879005
-21.376376 -30.458092 77.534027
-27.983427 -22.642447 76.844261
-27.900941 -21.724162 77.411895
-27.073732 -23.537768 76.873031
-27.983427 -22.642447 76.844261
-26.120215 -24.437862 76.939431
-26.012242 -23.521689 77.58506
-27.073732 -23.537768 76.873031
-26.279747 -25.3365 76.284832
-25.218257 -25.320421 76.99686
-26.120215 -24.437862 76.939431
-26.455937 -26.197521 75.609859
-26.279747 -25.3365 76.284832
-25.64223 -27.048195 75.74799
-26.455937 -26.197521 75.609859
-28.541297 -14.200928 76.564404
-28.849118 -15.168691 77.078793
-27.398088 -14.060586 76.783577
-28.183424 -13.210313 75.961689
-28.541297 -14.200928 76.564404
-8.853364 -12.950343 85.777423
-8.060246 -12.436998 86.120903
-8.888167 -11.367233 85.446033
-10.843131 -19.497535 86.033478
-11.834006 -19.743431 85.578773
-17.436991 -24.055982 82.403862
-17.318579 -23.003815 82.756359
-18.401803 -23.080072 82.111523
-19.483496 -5.669222 73.554611
-20.465776 -6.143111 73.108261
-19.834595 -7.030235 74.320084
-19.212999 -4.2023 72.884876
-19.483496 -5.669222 73.554611
-18.581817 -5.089423 74.096699
-12.862637 -9.420493 82.02821
-13.597967 -8.485869 81.014035
-13.686504 -10.003916 81.485527
-12.02391 -8.877052 82.508884
-12.862637 -9.420493 82.02821
-12.112447 -10.395098 82.980377
-11.256608 -8.251413 83.047909
-12.02391 -8.877052 82.508884
-10.488985 -9.278342 83.907905
-11.256608 -8.251413 83.047909
-9.692768 -10.292802 84.728656
-10.488985 -9.278342 83.907905
-10.477503 -10.866117 84.281803
-8.888167 -11.367233 85.446033
-9.692768 -10.292802 84.728656
-4.03538 -16.847717 87.905697
-4.757512 -17.147202 87.93636
-28.454704 -17.967689 77.985905
-29.320096 -17.099117 77.588852
-29.320096 -17.099117 77.588852
-29.112756 -16.14454 77.388523
-12.84028 -20.02649 85.132187
-11.834006 -19.743431 85.578773
-12.740949 -18.729853 85.04992
-12.84028 -20.02649 85.132187
-13.871108 -20.230252 84.629517
-19.882693 -26.164457 80.01083
-19.744404 -25.197883 80.581524
-20.842821 -25.219 79.853989
-19.882693 -26.164457 80.01083
-20.076796 -27.106667 79.450008
-20.290436 -28.009911 78.863758
-20.593885 -28.87064 78.365875
-23.402337 -9.423923 74.0839
-24.095914 -8.568123 72.952461
-24.542372 -9.72277 73.842377
-17.318954 -6.878007 76.515175
-17.962929 -5.992286 75.314003
-18.20834 -7.442067 75.967606
-16.677039 -7.783519 77.703521
-17.318954 -6.878007 76.515175
-15.998326 -8.674475 78.845688
-16.677039 -7.783519 77.703521
-16.885652 -9.218744 78.310944
-15.314386 -9.589496 79.962231
-15.105774 -8.154272 79.354809
-15.998326 -8.674475 78.845688
-27.564455 -18.848602 78.456974
-27.392988 -17.883812 78.476822
-28.454704 -17.967689 77.985905
-26.638223 -19.73997 78.721001
-27.564455 -18.848602 78.456974
-27.699939 -19.823848 78.230084
-26.869733 -21.668405 78.006385
-27.804915 -20.770972 77.89962
-27.900941 -21.724162 77.411895
-23.241107 -29.575556 76.415199
-22.869644 -28.79187 76.878212
-24.030769 -28.731566 76.156357
-22.567606 -30.363694 76.832375
-23.241107 -29.575556 76.415199
-25.01252 -10.802326 74.7626
-24.542372 -9.72277 73.842377
-24.28223 -11.655185 75.803917
-25.01252 -10.802326 74.7626
-25.445956 -11.878941 75.592701
-5.726926 -12.70186 86.998299
-6.531912 -11.487196 86.582782
-5.634093 -14.339436 87.302864
-4.91078 -13.914003 87.389793
-5.726926 -12.70186 86.998299
-7.23784 -13.573701 86.681831
-7.272644 -11.990591 86.350441
-8.060246 -12.436998 86.120903
-5.522166 -17.521394 87.831516
-4.757512 -17.147202 87.93636
-5.582601 -15.925771 87.589516
-5.522166 -17.521394 87.831516
-6.328981 -17.834797 87.690201
-9.885998 -19.16829 86.44178
-10.777541 -18.11755 85.904808
-10.843131 -19.497535 86.033478
-8.945222 -18.885787 86.824684
-9.885998 -19.16829 86.44178
-8.044867 -18.521899 87.167652
-8.920053 -17.424418 86.656078
-8.945222 -18.885787 86.824684
-7.165202 -18.21508 87.447388
-8.044867 -18.521899 87.167652
-15.056344 -21.610248 84.120308
-14.918196 -20.463178 84.161774
-15.979548 -20.625833 83.626381
-15.056344 -21.610248 84.120308
-15.168496 -22.776608 83.933654
-18.652245 -25.137791 81.248695
-19.612374 -24.192333 81.091855
-19.744404 -25.197883 80.581524
-17.563737 -25.108824 81.962578
-18.652245 -25.137791 81.248695
-17.436991 -24.055982 82.403862
-17.563737 -25.108824 81.962578
-23.63052 -7.402108 72.036262
-24.095914 -8.568123 72.952461
-23.63052 -7.402108 72.036262
-22.537206 -7.010813 72.343148
-21.467704 -6.628238 72.683022
-20.465776 -6.143111 73.108261
-14.296043 -7.53733 79.948696
-13.597967 -8.485869 81.014035
-3.569816 -13.188402 87.232586
-4.22517 -13.569078 87.322365
-2.847074 -14.566068 87.295624
-3.569816 -13.188402 87.232586
-3.34977 -16.502792 87.838268
-4.132338 -15.206654 87.626931
-4.03538 -16.847717 87.905697
-2.723058 -16.237043 87.610093
-3.34977 -16.502792 87.838268
-2.847074 -14.566068 87.295624
-2.723058 -16.237043 87.610093
3 0 21 19
3 74 73 22
3 0 25 23
3 0 19 25
3 1 29 27
3 1 75 77
3 75 32 76
3 75 76 77
3 1 27 32
3 3 36 34
3 2 39 37
3 80 79 40
3 78 79 80
3 3 42 41
3 3 34 42
3 4 45 43
3 6 46 20
3 6 81 83
3 83 82 46
3 81 82 83
3 7 84 86
3 86 85 47
3 84 85 86
3 8 50 48
3 10 51 24
3 10 52 51
3 10 53 52
3 4 54 26
3 4 43 54
3 12 57 55
3 14 58 28
3 14 59 58
3 87 60 88
3 15 61 30
3 15 62 61
3 15 63 62
3 89 64 90
3 91 90 31
3 89 90 91
3 93 92 64
3 16 94 95
3 16 96 97
3 16 98 100
3 98 65 99
3 98 99 100
3 12 66 33
3 12 55 66
3 101 67 102
3 18 68 35
3 18 103 105
3 105 104 68
3 103 104 105
3 5 69 44
3 13 70 56
3 106 71 107
3 108 107 38
3 106 107 108
3 110 109 71
3 9 111 113
3 113 112 49
3 111 112 113
3 11 114 115
3 17 116 118
3 116 72 117
3 116 117 118
3 19 20 4
3 21 20 19
3 21 6 20
3 22 119 121
3 121 120 7
3 119 120 121
3 123 122 22
3 23 24 8
3 25 24 23
3 25 10 24
3 25 26 10
3 19 26 25
3 19 4 26
3 27 28 12
3 29 28 27
3 29 14 28
3 124 30 125
3 126 30 127
3 128 15 129
3 130 129 30
3 128 129 130
3 131 31 132
3 133 132 15
3 131 132 133
3 134 31 135
3 137 136 31
3 32 138 139
3 32 140 142
3 140 16 141
3 140 141 142
3 32 33 16
3 27 33 32
3 27 12 33
3 34 143 145
3 143 35 144
3 143 144 145
3 36 35 34
3 36 18 35
3 147 146 5
3 37 38 13
3 39 38 37
3 39 148 150
3 150 149 38
3 148 149 150
3 40 151 153
3 153 152 9
3 151 152 153
3 156 155 40
3 154 155 156
3 41 157 159
3 159 158 11
3 157 158 159
3 42 160 162
3 162 161 41
3 160 161 162
3 42 163 164
3 42 165 166
3 34 167 169
3 169 168 42
3 167 168 169
3 34 170 171
3 173 172 17
3 175 174 1
3 176 1 177
3 43 44 3
3 45 44 43
3 45 5 44
3 20 45 4
3 46 45 20
3 46 5 45
3 46 178 180
3 180 179 5
3 178 179 180
3 182 181 46
3 47 183 185
3 185 184 2
3 183 184 185
3 187 186 47
3 189 188 7
3 48 190 192
3 190 49 191
3 190 191 192
3 50 49 48
3 50 9 49
3 24 50 8
3 51 50 24
3 51 9 50
3 51 40 9
3 52 40 51
3 52 193 195
3 195 194 40
3 193 194 195
3 52 196 197
3 53 198 200
3 200 199 52
3 198 199 200
3 53 201 203
3 201 11 202
3 201 202 203
3 26 53 10
3 54 53 26
3 54 11 53
3 54 41 11
3 43 41 54
3 43 3 41
3 55 56 0
3 57 56 55
3 57 13 56
3 28 57 12
3 58 57 28
3 58 13 57
3 58 37 13
3 59 37 58
3 59 2 37
3 204 29 205
3 206 205 1
3 204 205 206
3 60 207 209
3 207 29 208
3 207 208 209
3 60 14 29
3 30 210 212
3 210 60 211
3 210 211 212
3 61 60 30
3 61 14 60
3 61 59 14
3 62 59 61
3 62 2 59
3 62 47 2
3 63 47 62
3 63 7 47
3 31 63 15
3 64 63 31
3 64 7 63
3 64 22 7
3 213 22 214
3 215 214 64
3 213 214 215
3 217 216 22
3 218 48 219
3 65 220 222
3 220 48 221
3 220 221 222
3 65 8 48
3 33 65 16
3 66 65 33
3 66 8 65
3 66 23 8
3 55 23 66
3 55 0 23
3 67 223 224
3 67 225 227
3 225 17 226
3 225 226 227
3 35 228 230
3 228 67 229
3 228 229 230
3 68 67 35
3 68 17 67
3 68 231 233
3 233 232 17
3 231 232 233
3 235 234 68
3 44 36 3
3 69 36 44
3 69 18 36
3 236 69 237
3 238 237 5
3 236 237 238
3 239 69 240
3 241 18 242
3 243 242 69
3 241 242 243
3 245 244 18
3 56 21 0
3 70 21 56
3 70 6 21
3 38 70 13
3 71 70 38
3 71 6 70
3 71 246 248
3 248 247 6
3 246 247 248
3 250 249 71
3 251 39 252
3 253 252 2
3 251 252 253
3 254 39 255
3 257 256 39
3 49 258 259
3 261 260 49
3 263 262 9
3 265 264 11
3 72 266 267
3 72 268 269
3 270 72 271
3 272 271 17
3 270 271 272
3 273 72 274
3 276 275 72
