ply
format ascii 1.0
element vertex 228
property float x
property float y
property float z
element face 224
property list uchar int vertex_index
end_header
0.767208 -84.198616 51.69146
0.458405 -75.656837 46.590927
6.190922 -92.704819 48.064735
3.032101 -84.853073 42.467358
3.16246 -88.664345 49.882263
4.515465 -89.032967 45.267212
1.846968 -84.883926 47.040146
0.874199 -75.793427 42.027157
1.838964 -87.464981 54.574776
-0.355623 -79.131393 53.728775
0.292976 -80.204803 48.978897
7.101486 -93.031792 43.308334
5.706755 -88.778198 40.523071
1.054295 -80.548721 44.383926
1.926651 -80.36705 39.848572
1.82214 -86.506676 50.766937
2.450966 -86.855667 48.449501
1.288237 -84.644943 49.345551
0.301355 -83.527512 54.092072
0.712936 -85.133179 55.545074
1.233612 -85.93631 53.127563
2.479578 -88.178055 52.206627
-0.254919 -77.149574 52.430618
6.71456 -92.952507 45.722855
3.739765 -86.989021 43.85186
5.136475 -88.969788 42.922112
4.373508 -86.834389 41.523739
3.65202 -84.644409 40.159576
0.300014 -77.991043 47.739632
0.662037 -80.45639 46.667099
0.592733 -78.168823 45.440865
1.072758 -75.737335 39.761925
1.208994 -78.163231 40.897305
1.555893 -78.026382 38.634735
2.002384 -87.654411 58.406181
5.554428 -92.271866 50.362343
4.673748 -90.711403 48.997932
5.336012 -90.953468 46.68605
3.851027 -88.940804 47.578438
3.095972 -87.006439 46.152885
2.430456 -84.942802 44.754673
0.732916 -73.21907 45.537964
0.673428 -75.773766 44.301781
0.864132 -73.285675 43.257751
0.954575 -73.286148 40.98719
1.279091 -86.520203 56.999077
2.578892 -88.749596 55.987114
3.249022 -89.623207 53.621727
3.963737 -90.274033 51.299774
0.046009 -81.731659 52.678177
0.449955 -82.280449 50.30085
-0.049398 -79.768806 51.330948
0.014959 -77.658379 50.068115
0.227282 -75.417923 48.899391
7.8794 -95.085442 42.153618
7.348665 -92.959129 40.802914
5.91964 -91.023575 44.33411
6.409452 -90.945534 41.91814
0.895855 -82.620956 47.972538
1.374441 -82.775406 45.679703
1.881891 -82.772797 43.404556
0.893076 -78.217651 43.163269
1.472715 -80.510193 42.115391
2.420465 -82.643158 41.129501
6.452741 -92.828663 46.893795
7.12183 -93.825565 46.377212
6.86001 -93.701721 47.548153
1.423168 -76.823204 38.068344
1.314326 -76.881858 39.19833
1.181601 -75.67868 38.631939
1.755024 -77.92337 37.50219
1.423168 -76.823204 38.068344
2.445182 -88.076141 59.058868
2.728715 -88.702106 57.857608
6.637818 -93.466995 48.703316
6.319572 -93.250519 49.85212
5.872675 -92.488343 49.213539
6.86001 -93.701721 47.548153
6.637818 -93.466995 48.703316
0.964794 -71.989662 43.922073
0.798524 -73.252373 44.397858
0.899186 -71.956359 45.062179
1.011838 -71.995461 40.522878
1.028018 -72.00196 41.653146
0.987604 -73.261539 39.856014
1.011838 -71.995461 40.522878
0.001269 -76.346062 50.648586
-0.11998 -77.403976 51.249367
-0.13367 -76.091659 51.829837
0.107431 -75.225834 50.064224
0.121121 -76.538151 49.483753
0.001269 -76.346062 50.648586
-0.328889 -80.047439 54.419265
-0.483214 -78.709014 54.948914
-0.154807 -80.431526 53.203476
-0.128073 -81.347572 53.893966
-0.328889 -80.047439 54.419265
7.490443 -94.058617 42.730976
7.837907 -95.033288 43.39851
7.44895 -94.006462 43.975868
6.256328 -89.758999 39.973534
6.607677 -90.842667 40.671068
6.058103 -89.861866 41.220606
5.968103 -88.628795 39.291038
6.256328 -89.758999 39.973534
2.462187 -81.38963 39.344447
2.709094 -82.527683 39.984911
2.173558 -81.505104 40.489036
0.507146 -84.330345 54.818573
0.311963 -83.88018 56.048015
0.106172 -83.077347 55.321514
-0.3751 -76.800587 53.627544
-0.305271 -78.140484 53.079696
-0.425452 -77.791496 54.276623
-0.249964 -75.817928 53.003376
-0.3751 -76.800587 53.627544
-0.13367 -76.091659 51.829837
-0.249964 -75.817928 53.003376
-0.425452 -77.791496 54.276623
-0.483214 -78.709014 54.948914
7.255486 -93.96682 45.183129
7.12183 -93.825565 46.377212
6.908023 -92.992149 44.515595
7.44895 -94.006462 43.975868
7.255486 -93.96682 45.183129
4.685099 -86.701752 40.3379
5.351723 -87.673656 39.837566
5.040132 -87.806294 41.023405
4.324356 -85.606762 39.655819
4.685099 -86.701752 40.3379
4.012764 -85.739399 40.841657
3.973724 -84.492351 38.989012
4.324356 -85.606762 39.655819
1.993066 -79.082806 38.104183
2.178445 -80.25314 38.711101
1.741272 -79.196716 39.241653
1.993066 -79.082806 38.104183
1.755024 -77.92337 37.50219
1.782348 -87.001548 59.639492
1.419116 -86.502712 58.941707
1.782348 -87.001548 59.639492
2.445182 -88.076141 59.058868
6.025315 -92.919297 50.985112
5.201209 -91.955669 51.50581
6.025315 -92.919297 50.985112
6.319572 -93.250519 49.85212
0.982796 -72.001724 42.788427
0.964794 -71.989662 43.922073
0.909353 -73.285911 42.12247
0.982796 -72.001724 42.788427
1.028018 -72.00196 41.653146
1.046696 -74.487133 39.243381
1.013667 -74.511741 40.374557
0.987604 -73.261539 39.856014
1.181601 -75.67868 38.631939
1.046696 -74.487133 39.243381
0.50056 -84.616215 56.782757
0.311963 -83.88018 56.048015
0.783637 -85.309727 57.509758
0.50056 -84.616215 56.782757
0.996013 -85.826691 56.272075
1.05747 -85.935608 58.238156
0.783637 -85.309727 57.509758
1.640738 -87.087307 57.702629
1.419116 -86.502712 58.941707
1.05747 -85.935608 58.238156
3.016969 -89.249699 56.648075
2.728715 -88.702106 57.857608
2.290638 -88.202003 57.196647
3.353333 -89.774376 55.472225
3.016969 -89.249699 56.648075
3.688398 -90.211181 54.289531
3.353333 -89.774376 55.472225
2.913957 -89.186401 54.80442
4.048506 -90.63134 53.135502
4.487882 -91.219314 53.803306
3.688398 -90.211181 54.289531
4.405864 -90.956753 51.974525
4.048506 -90.63134 53.135502
3.60638 -89.94862 52.460751
4.759082 -91.27295 50.831058
5.201209 -91.955669 51.50581
4.405864 -90.956753 51.974525
0.286927 -74.10807 49.514702
0.107431 -75.225834 50.064224
0.392418 -74.241112 48.364208
0.286927 -74.10807 49.514702
0.50798 -74.360569 47.209976
0.342844 -75.53738 47.745159
0.392418 -74.241112 48.364208
0.645235 -73.141685 46.683495
0.595661 -74.437953 46.064446
0.50798 -74.360569 47.209976
0.844124 -71.916504 46.198445
0.645235 -73.141685 46.683495
0.899186 -71.956359 45.062179
0.844124 -71.916504 46.198445
-4e-04 -82.245499 54.600914
0.106172 -83.077347 55.321514
0.173682 -82.629585 53.385125
-4e-04 -82.245499 54.600914
-0.128073 -81.347572 53.893966
8.15745 -96.069008 42.781357
7.837907 -95.033288 43.39851
8.009863 -96.132431 41.497751
8.287913 -97.115997 42.12549
8.15745 -96.069008 42.781357
7.837188 -95.053708 40.852654
8.009863 -96.132431 41.497751
7.57182 -93.990551 40.177301
7.837188 -95.053708 40.852654
7.614033 -94.022286 41.478266
7.409944 -92.853996 39.501816
7.57182 -93.990551 40.177301
7.077283 -91.849464 40.113455
6.879058 -91.952331 41.360527
6.607677 -90.842667 40.671068
7.409944 -92.853996 39.501816
7.077283 -91.849464 40.113455
5.968103 -88.628795 39.291038
5.351723 -87.673656 39.837566
3.324871 -83.528309 39.499949
3.036243 -83.643783 40.644538
2.709094 -82.527683 39.984911
3.973724 -84.492351 38.989012
3.324871 -83.528309 39.499949
2.462187 -81.38963 39.344447
2.178445 -80.25314 38.711101
3 0 17 15
3 0 20 18
3 0 15 20
3 2 64 66
3 64 23 65
3 64 65 66
3 3 26 24
3 3 27 26
3 1 30 28
3 67 33 68
3 69 68 31
3 67 68 69
3 71 70 33
3 73 72 34
3 2 74 76
3 76 75 35
3 74 75 76
3 2 77 78
3 4 38 36
3 6 39 16
3 6 40 39
3 79 43 80
3 81 80 41
3 79 80 81
3 82 44 83
3 85 84 44
3 8 45 19
3 8 46 45
3 8 47 46
3 4 48 21
3 4 36 48
3 9 51 49
3 86 52 87
3 88 87 22
3 86 87 88
3 89 53 90
3 91 90 52
3 89 90 91
3 9 92 93
3 9 94 96
3 94 49 95
3 94 95 96
3 11 97 99
3 97 54 98
3 97 98 99
3 11 55 54
3 5 56 37
3 12 57 25
3 12 100 102
3 102 101 57
3 100 101 102
3 12 103 104
3 10 58 50
3 13 59 29
3 13 60 59
3 7 61 42
3 14 62 32
3 14 63 62
3 14 105 107
3 107 106 63
3 105 106 107
3 15 16 4
3 17 16 15
3 17 6 16
3 18 108 110
3 108 19 109
3 108 109 110
3 20 19 18
3 20 8 19
3 20 21 8
3 15 21 20
3 15 4 21
3 111 22 112
3 113 112 9
3 111 112 113
3 114 22 115
3 117 116 22
3 118 9 119
3 23 120 121
3 23 122 124
3 122 11 123
3 122 123 124
3 24 25 5
3 26 25 24
3 26 12 25
3 26 125 127
3 127 126 12
3 125 126 127
3 27 128 130
3 130 129 26
3 128 129 130
3 27 131 132
3 28 29 10
3 30 29 28
3 30 13 29
3 31 32 7
3 33 32 31
3 33 14 32
3 33 133 135
3 135 134 14
3 133 134 135
3 137 136 33
3 34 138 139
3 141 140 34
3 35 142 143
3 145 144 35
3 36 37 2
3 38 37 36
3 38 5 37
3 16 38 4
3 39 38 16
3 39 5 38
3 39 24 5
3 40 24 39
3 40 3 24
3 41 42 1
3 43 42 41
3 43 7 42
3 146 43 147
3 44 148 150
3 148 43 149
3 148 149 150
3 44 7 43
3 44 31 7
3 151 31 152
3 153 152 44
3 151 152 153
3 155 154 31
3 19 156 157
3 45 158 160
3 160 159 19
3 158 159 160
3 45 161 162
3 45 163 165
3 163 34 164
3 163 164 165
3 46 34 45
3 46 166 168
3 168 167 34
3 166 167 168
3 46 169 170
3 47 171 173
3 173 172 46
3 171 172 173
3 47 174 176
3 174 175 176
3 21 47 8
3 48 47 21
3 48 177 179
3 179 178 47
3 177 178 179
3 48 180 182
3 180 35 181
3 180 181 182
3 36 35 48
3 36 2 35
3 49 50 0
3 51 50 49
3 51 10 50
3 22 51 9
3 52 51 22
3 52 10 51
3 52 28 10
3 53 28 52
3 53 1 28
3 183 53 184
3 185 53 186
3 187 1 188
3 189 188 53
3 187 188 189
3 190 41 191
3 192 191 1
3 190 191 192
3 193 41 194
3 196 195 41
3 197 18 198
3 49 199 201
3 199 18 200
3 199 200 201
3 49 0 18
3 54 202 203
3 54 204 206
3 204 205 206
3 54 207 208
3 55 209 211
3 211 210 54
3 209 210 211
3 55 212 213
3 37 23 2
3 56 23 37
3 56 11 23
3 25 56 5
3 57 56 25
3 57 11 56
3 57 55 11
3 214 55 215
3 216 215 57
3 214 215 216
3 218 217 55
3 220 219 12
3 50 17 0
3 58 17 50
3 58 6 17
3 29 58 10
3 59 58 29
3 59 6 58
3 59 40 6
3 60 40 59
3 60 3 40
3 42 30 1
3 61 30 42
3 61 13 30
3 32 61 7
3 62 61 32
3 62 13 61
3 62 60 13
3 63 60 62
3 63 3 60
3 63 27 3
3 221 27 222
3 223 222 63
3 221 222 223
3 225 224 27
3 227 226 14
