ply
format ascii 1.0
element vertex 259
property float x
property float y
property float z
element face 253
property list uchar int vertex_index
end_header
11.599033 -73.720734 76.648445
20.472874 -69.900009 75.033455
23.890114 -73.690582 65.587814
4.110527 -75.368088 75.712944
16.046864 -71.915878 76.11129
18.118122 -74.079468 72.32991
13.824551 -76.328262 73.273376
24.495461 -67.948227 73.299484
22.17765 -71.945511 70.803185
20.238491 -75.563591 67.352608
7.510494 -74.966309 76.57608
9.627493 -78.295105 73.565613
13.848791 -68.850754 78.875221
9.542223 -70.103668 79.324707
5.840673 -70.695549 79.137756
3.02424 -70.482414 78.037827
13.801189 -72.866295 76.447113
14.885235 -74.163788 74.806717
12.689457 -75.161591 75.090073
22.556807 -68.904907 74.259911
23.323984 -69.99427 72.184006
21.353567 -70.989975 73.077042
17.104164 -76.035416 70.632332
19.155704 -74.877441 69.972412
18.27758 -76.692337 68.096687
5.707117 -75.284378 76.253304
6.61512 -77.291077 74.914299
4.897984 -77.571091 74.448685
10.574183 -67.585297 80.439156
8.581396 -68.011887 80.62722
7.595821 -70.494759 79.330696
6.765856 -68.269882 80.628456
3.802834 -68.222656 79.897942
2.703424 -67.914108 79.121384
24.742823 -71.950562 67.240349
18.287117 -70.91394 75.643707
19.26239 -72.035583 73.803596
17.091507 -73.10611 74.377449
15.980522 -75.210815 72.875999
15.012408 -77.232704 71.154953
2.746149 -75.21096 74.949188
3.390989 -77.594505 73.76062
2.11676 -77.35939 72.856529
23.193165 -75.33812 63.719521
25.137928 -69.059296 71.110527
24.028244 -70.990158 69.814377
23.003052 -72.823334 68.274582
20.196484 -72.980392 71.639694
21.132282 -73.799538 69.185196
22.117306 -74.560715 66.513763
21.398067 -76.214699 64.545647
9.487524 -74.434319 76.699471
10.550068 -76.047974 75.215714
8.511478 -76.772476 75.164291
7.670746 -79.029114 73.420685
23.71822 -66.733154 75.163292
21.667614 -67.677948 76.000465
19.492363 -68.637802 76.662537
17.241642 -69.58757 77.181152
14.966892 -70.493996 77.579407
12.719639 -71.318825 77.864975
11.641239 -69.545593 79.160423
10.549585 -72.022354 78.027634
8.503023 -72.567215 78.042503
6.621531 -72.922012 77.877571
4.940842 -73.064621 77.503143
5.163429 -68.342529 80.396179
4.30884 -70.692253 78.712799
3.489475 -72.984657 76.899956
2.287067 -72.684555 76.063828
11.692638 -77.376114 73.509499
12.917717 -78.413162 71.523651
17.270341 -77.304458 68.413914
17.690872 -76.363877 69.364509
16.683633 -76.975998 69.681736
17.931568 -77.569706 67.064167
17.270341 -77.304458 68.413914
8.126374 -66.903099 81.306347
9.055471 -66.746544 81.203983
7.218604 -67.032097 81.306965
7.673626 -68.140884 80.627838
8.126374 -66.903099 81.306347
2.606911 -66.617058 79.615857
3.057087 -66.807361 80.077156
2.288067 -67.672894 78.597904
2.606911 -66.617058 79.615857
24.714914 -73.314289 65.082111
25.141269 -72.444279 65.908378
24.316468 -72.820572 66.414081
1.873319 -76.09 73.413429
2.431455 -76.285175 73.902859
2.188013 -75.015785 74.459759
23.789904 -75.77026 62.309117
22.924629 -76.124336 62.678345
24.816694 -68.503761 72.205005
25.694825 -68.048496 71.621811
25.373591 -67.492962 72.71629
6.766125 -79.280312 73.238846
7.142933 -78.160096 74.167492
6.238312 -78.411293 73.985653
7.338234 -80.113751 72.451054
6.766125 -79.280312 73.238846
3.812858 -78.68232 73.113121
3.105068 -78.662472 72.705406
23.237923 -66.058166 75.926441
24.231823 -65.611939 75.465256
22.21262 -66.530563 76.345028
22.692917 -67.205551 75.581879
23.237923 -66.058166 75.926441
18.942337 -67.913185 77.339131
20.057944 -67.463516 77.044266
17.816976 -68.388069 77.598438
18.367002 -69.112686 76.921844
18.942337 -67.913185 77.339131
14.407841 -69.672375 78.227314
15.541632 -69.273685 78.036045
14.982582 -68.452065 78.683952
4.872927 -67.126632 81.022045
5.587269 -67.141956 81.176518
12.559603 -79.420997 70.55085
11.888307 -78.962261 71.620064
13.572145 -78.798893 70.378853
12.559603 -79.420997 70.55085
18.899368 -76.974186 66.709373
19.879824 -76.409813 66.337334
19.258035 -76.127964 67.724648
18.899368 -76.974186 66.709373
17.931568 -77.569706 67.064167
5.379744 -78.5513 73.752846
6.238312 -78.411293 73.985653
5.756552 -77.431084 74.681492
14.384721 -67.589416 79.284301
14.982582 -68.452065 78.683952
10.051864 -66.533249 81.109951
11.060192 -66.303421 80.920437
9.577789 -67.798592 80.533188
10.051864 -66.533249 81.109951
9.055471 -66.746544 81.203983
3.606791 -66.961635 80.465435
4.192629 -67.066696 80.772926
3.253129 -68.068382 79.509663
3.606791 -66.961635 80.465435
3.057087 -66.807361 80.077156
2.352048 -68.99474 78.117111
2.512456 -70.278893 77.575333
2.863832 -69.198261 78.579605
2.352048 -68.99474 78.117111
2.288067 -67.672894 78.597904
25.538547 -71.557969 66.660667
25.232183 -71.03186 67.953877
25.538547 -71.557969 66.660667
25.141269 -72.444279 65.908378
10.243195 -78.903233 72.641044
9.251404 -79.37761 72.637543
15.637755 -77.574642 69.943047
16.683633 -76.975998 69.681736
16.058286 -76.63406 70.893642
2.467954 -78.544914 72.25336
3.105068 -78.662472 72.705406
2.753875 -77.476947 73.308574
1.602321 -77.119019 72.306057
1.873319 -76.09 73.413429
1.875752 -78.387439 71.742153
1.602321 -77.119019 72.306057
2.467954 -78.544914 72.25336
1.875752 -78.387439 71.742153
24.040934 -74.976295 63.285309
24.389408 -74.152526 64.219455
23.54164 -74.514351 64.653667
24.040934 -74.976295 63.285309
23.789904 -75.77026 62.309117
25.952739 -68.620994 70.479255
25.694825 -68.048496 71.621811
25.429735 -69.586228 69.888966
25.952739 -68.620994 70.479255
24.874893 -70.551659 69.240891
25.429735 -69.586228 69.888966
24.583086 -70.024727 70.462452
24.385534 -71.47036 68.527363
25.232183 -71.03186 67.953877
24.874893 -70.551659 69.240891
22.027079 -76.562626 63.091408
22.924629 -76.124336 62.678345
22.295616 -75.776409 64.132584
20.459612 -76.735367 64.933853
20.818279 -75.889145 65.949128
19.879824 -76.409813 66.337334
21.12357 -77.012829 63.462181
20.459612 -76.735367 64.933853
22.027079 -76.562626 63.091408
21.12357 -77.012829 63.462181
8.273031 -79.744614 72.565079
9.251404 -79.37761 72.637543
8.649119 -78.66211 73.493149
8.273031 -79.744614 72.565079
7.338234 -80.113751 72.451054
4.566356 -78.670613 73.457154
4.144487 -77.582798 74.104653
3.812858 -78.68232 73.113121
5.379744 -78.5513 73.752846
4.566356 -78.670613 73.457154
25.047534 -66.8834 73.709965
25.373591 -67.492962 72.71629
24.658913 -66.275863 74.641869
24.231823 -65.611939 75.465256
24.10684 -67.34069 74.231388
25.047534 -66.8834 73.709965
24.658913 -66.275863 74.641869
21.145569 -66.983589 76.71323
22.21262 -66.530563 76.345028
20.579988 -68.157875 76.331501
21.145569 -66.983589 76.71323
20.057944 -67.463516 77.044266
16.679007 -68.820472 77.836917
17.816976 -68.388069 77.598438
16.104267 -70.040783 77.38028
16.679007 -68.820472 77.836917
15.541632 -69.273685 78.036045
13.275733 -67.932548 79.494777
14.384721 -67.589416 79.284301
11.638429 -67.29982 80.276745
11.060192 -66.303421 80.920437
12.171957 -68.279968 79.637378
11.638429 -67.29982 80.276745
11.107711 -68.565445 79.79979
12.745015 -69.198173 79.017822
13.275733 -67.932548 79.494777
12.171957 -68.279968 79.637378
6.388482 -67.105632 81.292656
7.218604 -67.032097 81.306965
5.964643 -68.306206 80.512317
6.388482 -67.105632 81.292656
5.587269 -67.141956 81.176518
4.483131 -68.282592 80.147061
4.872927 -67.126632 81.022045
4.192629 -67.066696 80.772926
1.958472 -73.752583 75.017078
2.188013 -75.015785 74.459759
2.516608 -73.947757 75.506508
2.14387 -71.379963 76.588334
2.655653 -71.583484 77.050827
2.512456 -70.278893 77.575333
1.81478 -72.431835 75.534871
2.14387 -71.379963 76.588334
1.958472 -73.752583 75.017078
1.81478 -72.431835 75.534871
24.714914 -73.314289 65.082111
24.389408 -74.152526 64.219455
11.275768 -78.443737 72.612988
10.660065 -77.83561 73.537556
10.243195 -78.903233 72.641044
12.305177 -77.894638 72.516575
11.275768 -78.443737 72.612988
11.888307 -78.962261 71.620064
14.619491 -78.208664 70.194504
13.965063 -77.822933 71.339302
13.572145 -78.798893 70.378853
15.637755 -77.574642 69.943047
14.619491 -78.208664 70.194504
3 0 18 16
3 1 21 19
3 72 24 73
3 74 73 22
3 72 73 74
3 76 75 24
3 3 27 25
3 77 29 78
3 79 31 80
3 81 80 29
3 79 80 81
3 82 33 83
3 85 84 33
3 2 86 88
3 88 87 34
3 86 87 88
3 4 37 35
3 6 38 17
3 6 39 38
3 89 42 90
3 91 90 40
3 89 90 91
3 93 92 43
3 7 94 96
3 94 44 95
3 94 95 96
3 8 45 20
3 8 46 45
3 5 47 36
3 9 48 23
3 9 49 48
3 9 50 49
3 10 53 51
3 97 54 98
3 99 98 26
3 97 98 99
3 101 100 54
3 103 102 41
3 104 55 105
3 106 56 107
3 108 107 55
3 106 107 108
3 109 57 110
3 111 58 112
3 113 112 57
3 111 112 113
3 12 114 116
3 114 59 115
3 114 115 116
3 12 60 59
3 13 61 28
3 13 62 61
3 13 63 62
3 14 64 30
3 14 65 64
3 117 66 118
3 15 67 32
3 15 68 67
3 15 69 68
3 11 70 52
3 119 71 120
3 122 121 71
3 16 17 4
3 18 17 16
3 18 6 17
3 19 20 7
3 21 20 19
3 21 8 20
3 22 23 5
3 24 23 22
3 24 9 23
3 24 123 125
3 125 124 9
3 123 124 125
3 127 126 24
3 25 26 10
3 27 26 25
3 27 128 130
3 130 129 26
3 128 129 130
3 131 12 132
3 133 28 134
3 29 135 137
3 135 28 136
3 135 136 137
3 29 13 28
3 29 30 13
3 31 30 29
3 31 14 30
3 138 32 139
3 33 140 142
3 140 32 141
3 140 141 142
3 33 15 32
3 33 143 145
3 145 144 15
3 143 144 145
3 147 146 33
3 34 148 149
3 151 150 34
3 153 152 11
3 35 36 1
3 37 36 35
3 37 5 36
3 17 37 4
3 38 37 17
3 38 5 37
3 38 22 5
3 39 22 38
3 39 154 156
3 156 155 22
3 154 155 156
3 40 41 3
3 42 41 40
3 42 157 159
3 159 158 41
3 157 158 159
3 160 42 161
3 162 42 163
3 165 164 42
3 43 166 168
3 168 167 2
3 166 167 168
3 170 169 43
3 44 171 172
3 44 173 174
3 20 44 7
3 45 44 20
3 45 175 177
3 177 176 44
3 175 176 177
3 45 178 180
3 178 34 179
3 178 179 180
3 46 34 45
3 46 2 34
3 36 21 1
3 47 21 36
3 47 8 21
3 23 47 5
3 48 47 23
3 48 8 47
3 48 46 8
3 49 46 48
3 49 2 46
3 49 43 2
3 50 43 49
3 50 181 183
3 183 182 43
3 181 182 183
3 184 50 185
3 186 185 9
3 184 185 186
3 187 50 188
3 190 189 50
3 51 52 0
3 53 52 51
3 53 11 52
3 26 53 10
3 54 53 26
3 54 11 53
3 54 191 193
3 193 192 11
3 191 192 193
3 195 194 54
3 41 27 3
3 196 27 197
3 198 197 41
3 196 197 198
3 200 199 27
3 201 7 202
3 55 203 204
3 55 205 207
3 205 7 206
3 205 206 207
3 55 19 7
3 56 19 55
3 56 1 19
3 208 56 209
3 57 210 212
3 210 56 211
3 210 211 212
3 57 1 56
3 57 35 1
3 58 35 57
3 58 4 35
3 213 58 214
3 59 215 217
3 215 58 216
3 215 216 217
3 59 4 58
3 59 16 4
3 60 16 59
3 60 0 16
3 218 12 219
3 28 220 221
3 61 222 224
3 224 223 28
3 222 223 224
3 61 225 227
3 225 12 226
3 225 226 227
3 61 60 12
3 62 60 61
3 62 0 60
3 62 51 0
3 63 51 62
3 63 10 51
3 30 63 13
3 64 63 30
3 64 10 63
3 64 25 10
3 65 25 64
3 65 3 25
3 228 31 229
3 66 230 232
3 230 31 231
3 230 231 232
3 66 14 31
3 32 233 235
3 233 66 234
3 233 234 235
3 67 66 32
3 67 14 66
3 67 65 14
3 68 65 67
3 68 3 65
3 68 40 3
3 69 40 68
3 69 236 238
3 238 237 40
3 236 237 238
3 239 69 240
3 241 240 15
3 239 240 241
3 242 69 243
3 245 244 69
3 247 246 2
3 52 18 0
3 70 18 52
3 70 6 18
3 248 70 249
3 250 249 11
3 248 249 250
3 71 251 253
3 251 70 252
3 251 252 253
3 71 6 70
3 71 39 6
3 254 39 255
3 256 255 71
3 254 255 256
3 258 257 39
