ply
format ascii 1.0
element vertex 254
property float x
property float y
property float z
element face 249
property list uchar int vertex_index
end_header
52.091652 -19.008293 56.872948
54.099701 -13.066685 47.26701
58.108303 -26.096977 50.846519
58.328865 -18.218994 51.321281
53.936371 -24.515652 57.175278
52.99865 -16.057346 52.064995
56.680897 -15.455918 49.723038
55.470444 -18.28964 54.196777
56.425415 -21.19733 54.716339
53.917336 -21.361418 58.067551
50.155891 -13.840148 49.710983
49.081669 -17.02603 54.428528
58.585106 -21.789787 51.452217
55.960098 -24.972113 53.670197
52.786957 -28.408407 54.911247
45.287613 -18.206722 56.962059
50.761421 -28.222511 58.584915
49.136597 -32.040131 55.255493
52.550934 -17.512667 54.499252
54.377048 -17.123177 53.271843
53.841446 -18.572556 55.564995
54.760918 -19.774834 56.234444
53.223213 -20.098703 57.716934
48.252373 -14.258938 51.092056
49.543869 -15.450846 52.018539
47.615788 -15.938371 53.322868
59.459484 -24.510048 49.80275
57.680912 -16.751846 50.702782
58.608894 -19.897255 51.548759
55.264793 -22.8057 56.075172
56.31789 -22.984755 54.328918
54.954742 -24.643223 55.356537
54.441307 -26.659859 54.412704
53.434685 -26.38516 56.128319
46.777252 -19.287033 58.061226
49.955383 -30.076591 56.944168
48.038651 -31.987366 57.04158
56.644669 -27.724815 51.653351
53.49696 -14.589584 49.635704
55.43055 -14.257945 48.510719
54.887794 -15.700594 50.900375
56.093178 -16.864801 52.007507
56.965302 -18.170078 52.777367
57.437054 -19.676702 53.120567
56.162548 -19.633778 54.692825
55.230865 -21.179045 56.402512
54.137283 -22.833347 57.868568
52.887493 -11.794628 46.218178
50.959599 -12.155943 47.550617
52.119576 -13.435398 48.443672
51.520168 -14.99485 50.796753
51.048492 -16.505758 53.234619
50.647209 -18.016405 55.697998
59.631714 -22.318983 49.943726
58.374054 -23.870424 51.166107
57.530323 -21.407135 53.052917
57.339336 -23.349846 52.680267
56.99836 -25.470268 52.160301
55.498596 -27.120522 52.913208
53.877571 -28.817524 53.423317
45.782036 -16.442179 54.726326
47.146378 -17.599289 55.665581
48.707756 -18.615271 56.880348
50.248459 -19.580956 58.118263
51.556637 -20.595551 59.118431
52.469315 -21.743126 59.669441
52.901531 -23.076063 59.653099
52.860241 -24.608337 59.066368
52.43335 -26.326355 58.00927
51.762856 -28.202045 56.650764
51.011017 -30.206625 55.182426
47.352198 -14.467565 51.847519
47.799286 -13.565754 50.86385
47.033906 -15.307282 52.962925
47.934081 -15.098655 52.207462
47.352198 -14.467565 51.847519
58.710066 -26.453072 50.282719
59.385657 -25.659608 49.760834
58.783894 -25.303513 50.324635
55.077652 -12.913718 46.710158
54.473244 -12.264944 46.13288
58.733113 -17.506838 50.340122
58.409136 -16.773264 50.030873
58.004888 -17.48542 51.012031
58.954067 -18.326949 50.583847
58.733113 -17.506838 50.340122
58.468879 -19.058124 51.43502
59.094082 -19.16608 50.697586
58.954067 -18.326949 50.583847
47.516371 -32.075795 58.052803
48.488575 -31.082861 57.983116
47.043574 -32.950793 57.014415
47.516371 -32.075795 58.052803
56.51616 -28.898485 51.46516
55.857644 -28.556849 51.934105
52.429962 -11.086581 45.889553
53.365469 -10.926997 45.180394
50.557745 -12.998045 48.6308
50.02997 -12.338696 48.284475
49.628116 -13.180798 49.364658
56.983019 -14.740346 48.559838
56.357845 -14.141359 47.953678
56.055723 -14.856931 49.116878
59.10841 -22.054385 50.697971
59.672191 -21.300199 49.975056
59.148888 -21.035601 50.729301
52.467022 -29.480878 54.30653
53.012329 -29.685437 53.562565
53.332264 -28.612966 54.167282
44.683962 -17.578307 56.600021
44.413674 -18.517474 57.645882
45.534824 -17.32445 55.844193
44.931173 -16.696036 55.482155
44.683962 -17.578307 56.600021
48.527804 -19.441869 58.092918
47.742504 -18.951152 57.470787
47.562551 -19.77775 58.683357
49.298155 -19.924712 58.711876
49.478108 -19.098114 57.499305
48.527804 -19.441869 58.092918
51.2213 -21.453651 60.146095
50.668825 -20.921119 59.772106
51.677639 -22.027439 60.4216
52.012976 -21.169339 59.393936
51.2213 -21.453651 60.146095
52.294973 -24.00037 60.308151
52.218645 -23.302283 60.513996
52.274328 -24.766507 60.014786
52.880886 -23.8422 59.359733
52.294973 -24.00037 60.308151
51.076418 -27.359593 59.286038
50.248818 -28.348217 59.611733
51.597386 -27.274433 58.297093
51.912382 -26.411515 58.998215
51.076418 -27.359593 59.286038
49.731915 -32.17922 54.514145
50.669125 -31.262467 54.477611
50.073807 -31.123378 55.218959
48.790917 -33.071999 54.464211
49.731915 -32.17922 54.514145
48.676357 -13.390193 50.055194
47.799286 -13.565754 50.86385
49.204132 -14.049543 50.401519
49.628116 -13.180798 49.364658
48.676357 -13.390193 50.055194
60.037165 -24.870945 49.192234
60.081776 -23.737032 49.171715
60.037165 -24.870945 49.192234
59.385657 -25.659608 49.760834
58.018228 -16.047259 49.610554
57.518221 -15.399295 49.120682
57.180904 -16.103882 50.21291
58.018228 -16.047259 49.610554
58.409136 -16.773264 50.030873
59.160781 -20.089336 50.777572
59.094082 -19.16608 50.697586
58.597 -20.843521 51.500488
59.148888 -21.035601 50.729301
59.160781 -20.089336 50.777572
45.091625 -19.105959 58.109279
44.413674 -18.517474 57.645882
45.836445 -19.646115 58.658863
46.032432 -18.746878 57.511643
45.091625 -19.105959 58.109279
46.602337 -20.164222 59.253322
45.836445 -19.646115 58.658863
47.562551 -19.77775 58.683357
46.602337 -20.164222 59.253322
49.84996 -29.200434 58.754784
50.248818 -28.348217 59.611733
49.446941 -30.127474 57.93441
50.358402 -29.149551 57.764541
49.84996 -29.200434 58.754784
48.997017 -31.031979 56.992874
49.446941 -30.127474 57.93441
48.488575 -31.082861 57.983116
47.616826 -32.941299 56.106465
48.165799 -32.967682 55.213421
48.587624 -32.013749 56.148537
47.616826 -32.941299 56.106465
47.043574 -32.950793 57.014415
57.273419 -28.074804 51.138138
58.005235 -27.260885 50.734722
57.376486 -26.910896 51.249935
57.144909 -29.248474 50.949948
57.273419 -28.074804 51.138138
56.51616 -28.898485 51.46516
53.86714 -11.628915 45.608463
53.365469 -10.926997 45.180394
53.493597 -12.430656 46.742594
54.473244 -12.264944 46.13288
53.86714 -11.628915 45.608463
50.56779 -11.428486 47.338533
50.02997 -12.338696 48.284475
51.466015 -11.267238 46.555773
50.56779 -11.428486 47.338533
51.923546 -11.975286 46.884398
52.429962 -11.086581 45.889553
51.466015 -11.267238 46.555773
58.710066 -26.453072 50.282719
58.005235 -27.260885 50.734722
55.743077 -13.509348 47.332012
55.077652 -12.913718 46.710158
54.765125 -13.662315 47.888864
55.743077 -13.509348 47.332012
56.357845 -14.141359 47.953678
56.983019 -14.740346 48.559838
57.518221 -15.399295 49.120682
60.208458 -21.563777 49.229542
59.672191 -21.300199 49.975056
60.16789 -22.6415 49.242203
60.208458 -21.563777 49.229542
59.545599 -23.414516 49.873238
60.081776 -23.737032 49.171715
60.16789 -22.6415 49.242203
55.284607 -28.254702 52.564033
55.857644 -28.556849 51.934105
56.071632 -27.422669 52.283279
54.474095 -29.103203 52.819088
55.284607 -28.254702 52.564033
54.688084 -27.969023 53.168262
53.636944 -29.949547 52.97916
54.474095 -29.103203 52.819088
53.636944 -29.949547 52.97916
53.012329 -29.685437 53.562565
45.286983 -15.762472 54.488404
44.931173 -16.696036 55.482155
46.11703 -15.559185 53.664654
45.286983 -15.762472 54.488404
46.698912 -16.190275 54.024597
47.033906 -15.307282 52.962925
46.11703 -15.559185 53.664654
50.014736 -20.413822 59.272022
49.298155 -19.924712 58.711876
50.902548 -20.088254 58.618347
50.014736 -20.413822 59.272022
50.668825 -20.921119 59.772106
52.002537 -22.635815 60.522167
51.677639 -22.027439 60.4216
52.685423 -22.409595 59.66127
52.002537 -22.635815 60.522167
52.218645 -23.302283 60.513996
52.125828 -25.552506 59.526764
52.274328 -24.766507 60.014786
52.646795 -25.467346 58.537819
52.125828 -25.552506 59.526764
51.912382 -26.411515 58.998215
51.579052 -30.379987 54.44212
52.467022 -29.480878 54.30653
51.898987 -29.307516 55.046836
51.579052 -30.379987 54.44212
50.669125 -31.262467 54.477611
48.790917 -33.071999 54.464211
48.165799 -32.967682 55.213421
3 0 20 18
3 0 22 20
3 71 23 72
3 73 25 74
3 75 74 23
3 73 74 75
3 2 76 78
3 78 77 26
3 76 77 78
3 1 79 80
3 3 81 83
3 83 82 27
3 81 82 83
3 3 84 85
3 3 86 88
3 86 28 87
3 86 87 88
3 4 31 29
3 4 33 31
3 89 36 90
3 92 91 36
3 94 93 37
3 5 40 38
3 7 41 19
3 7 42 41
3 7 44 42
3 9 45 21
3 9 46 45
3 95 47 96
3 10 97 99
3 97 48 98
3 97 98 99
3 10 49 48
3 10 50 49
3 11 51 24
3 11 52 51
3 6 100 102
3 102 101 39
3 100 101 102
3 12 103 105
3 103 53 104
3 103 104 105
3 12 54 53
3 8 55 43
3 13 56 30
3 13 57 56
3 13 58 57
3 14 59 32
3 14 106 108
3 108 107 59
3 106 107 108
3 15 109 110
3 15 111 113
3 111 60 112
3 111 112 113
3 15 61 60
3 114 62 115
3 116 115 34
3 114 115 116
3 117 63 118
3 119 118 62
3 117 118 119
3 120 64 121
3 122 65 123
3 124 123 64
3 122 123 124
3 125 66 126
3 127 67 128
3 129 128 66
3 127 128 129
3 16 130 131
3 16 132 134
3 132 68 133
3 132 133 134
3 16 69 68
3 17 70 35
3 17 135 137
3 137 136 70
3 135 136 137
3 17 138 139
3 18 19 5
3 20 19 18
3 20 7 19
3 20 21 7
3 22 21 20
3 22 9 21
3 23 140 141
3 23 142 144
3 142 10 143
3 142 143 144
3 23 24 10
3 25 24 23
3 25 11 24
3 26 145 146
3 148 147 26
3 27 149 151
3 151 150 6
3 149 150 151
3 153 152 27
3 28 154 155
3 28 156 158
3 156 12 157
3 156 157 158
3 29 30 8
3 31 30 29
3 31 13 30
3 31 32 13
3 33 32 31
3 33 14 32
3 159 15 160
3 161 34 162
3 163 162 15
3 161 162 163
3 164 34 165
3 167 166 34
3 168 16 169
3 170 35 171
3 172 171 16
3 170 171 172
3 36 173 175
3 173 35 174
3 173 174 175
3 36 17 35
3 36 176 178
3 178 177 17
3 176 177 178
3 180 179 36
3 37 181 183
3 183 182 2
3 181 182 183
3 186 185 37
3 184 185 186
3 38 39 1
3 40 39 38
3 40 6 39
3 19 40 5
3 41 40 19
3 41 6 40
3 41 27 6
3 42 27 41
3 42 3 27
3 42 43 3
3 44 43 42
3 44 8 43
3 21 44 7
3 45 44 21
3 45 8 44
3 45 29 8
3 46 29 45
3 46 4 29
3 47 187 188
3 47 189 191
3 189 1 190
3 189 190 191
3 48 192 193
3 48 194 195
3 48 196 198
3 196 47 197
3 196 197 198
3 49 47 48
3 49 1 47
3 49 38 1
3 50 38 49
3 50 5 38
3 24 50 10
3 51 50 24
3 51 5 50
3 51 18 5
3 52 18 51
3 52 0 18
3 200 199 2
3 39 201 203
3 203 202 1
3 201 202 203
3 205 204 39
3 207 206 6
3 53 208 209
3 53 210 211
3 53 212 214
3 212 26 213
3 212 213 214
3 54 26 53
3 54 2 26
3 43 28 3
3 55 28 43
3 55 12 28
3 30 55 8
3 56 55 30
3 56 12 55
3 56 54 12
3 57 54 56
3 57 2 54
3 57 37 2
3 58 37 57
3 58 215 217
3 217 216 37
3 215 216 217
3 32 58 13
3 59 58 32
3 59 218 220
3 220 219 58
3 218 219 220
3 59 221 222
3 224 223 59
3 60 225 226
3 60 227 228
3 60 229 231
3 229 25 230
3 229 230 231
3 61 25 60
3 61 11 25
3 34 61 15
3 62 61 34
3 62 11 61
3 62 52 11
3 63 52 62
3 63 0 52
3 232 63 233
3 64 234 236
3 234 63 235
3 234 235 236
3 64 0 63
3 64 22 0
3 65 22 64
3 65 9 22
3 237 65 238
3 66 239 241
3 239 65 240
3 239 240 241
3 66 9 65
3 66 46 9
3 67 46 66
3 67 4 46
3 242 67 243
3 68 244 246
3 244 67 245
3 244 245 246
3 68 4 67
3 68 33 4
3 69 33 68
3 69 14 33
3 35 69 16
3 70 69 35
3 70 14 69
3 70 247 249
3 249 248 14
3 247 248 249
3 251 250 70
3 253 252 17
