ply
format ascii 1.0
element vertex 196
property float x
property float y
property float z
element face 182
property list uchar int vertex_index
end_header
-48.552551 -19.99122 -48.145432
-55.949074 -19.200155 -49.091866
-59.246765 -18.644455 -46.99704
-51.683132 -27.017605 -45.442024
-47.688335 -27.493074 -43.838459
-44.770164 -20.881886 -46.095596
-55.480385 -26.780914 -46.111626
-52.357719 -19.556219 -49.402977
-58.861206 -11.044159 -47.838993
-55.449242 -11.729048 -51.032478
-51.873466 -12.32662 -52.651421
-48.172646 -12.92383 -52.374901
-44.483948 -13.864915 -50.607262
-60.808609 -18.283867 -45.412994
-50.246964 -23.428169 -46.812263
-49.691849 -27.205971 -44.705845
-48.288452 -23.68681 -45.946701
-46.3451 -24.069004 -44.972786
-46.642258 -20.35981 -47.164421
-57.563541 -22.792486 -47.182373
-57.234978 -26.64143 -45.88171
-55.859795 -22.981903 -47.705406
-54.062893 -23.123137 -47.784992
-54.190369 -19.391045 -49.474899
-56.767338 -7.701441 -49.837395
-57.177902 -11.390236 -49.589722
-50.032494 -12.607899 -52.741302
-43.9613 -10.547112 -52.778183
-59.18071 -22.53112 -46.225918
-57.631149 -18.954325 -48.250664
-45.713089 -27.899298 -42.932152
-44.452431 -24.594147 -43.981968
-42.964691 -21.574583 -45.025536
-53.623383 -26.891144 -45.942581
-52.183365 -23.255947 -47.460331
-50.468826 -19.739443 -48.92907
-59.125786 -14.806419 -47.53545
-57.484421 -15.147505 -49.058182
-55.792717 -15.446543 -50.213882
-53.680946 -12.040842 -52.074814
-54.04422 -15.697612 -50.92765
-52.23735 -15.916315 -51.165459
-50.382317 -16.137142 -50.944313
-48.500641 -16.407707 -50.32975
-46.315353 -13.32501 -51.628304
-46.6203 -16.78072 -49.422516
-44.769661 -17.304596 -48.337414
-42.973614 -18.013918 -47.180149
-61.562247 -18.095533 -44.505302
-61.517822 -20.045029 -44.33914
-62.27146 -19.856695 -43.431448
-55.6145 -6.071111 -50.761914
-56.536133 -5.903759 -49.814656
-55.875634 -7.878599 -50.681953
-55.6145 -6.071111 -50.761914
-59.213738 -20.587788 -46.611479
-59.955211 -22.363283 -45.558678
-59.988239 -20.41995 -45.944239
-51.266138 -28.927692 -44.443049
-52.269624 -28.853355 -44.739409
-48.245039 -29.280212 -43.268206
-49.246796 -29.136661 -43.701898
-48.690092 -27.349522 -44.272152
-47.222054 -29.445813 -42.862905
-48.245039 -29.280212 -43.268206
-46.700712 -27.696186 -43.385306
-46.234431 -29.648925 -42.409752
-47.222054 -29.445813 -42.862905
-56.047032 -28.630052 -45.251684
-56.924328 -28.56031 -45.136726
-56.357681 -26.711172 -45.996668
-55.133356 -28.682755 -45.246006
-56.047032 -28.630052 -45.251684
-54.551884 -26.836029 -46.027103
-54.204855 -28.73787 -45.161484
-55.133356 -28.682755 -45.246006
-59.668484 -10.886468 -46.859287
-58.67788 -9.214686 -47.869702
-59.78796 -12.747319 -46.790914
-59.668484 -10.886468 -46.859287
-58.993496 -12.925289 -47.687221
-59.92025 -14.62845 -46.639143
-59.78796 -12.747319 -46.790914
-52.777206 -12.183731 -52.363118
-52.506561 -10.406837 -52.930301
-51.602821 -10.549726 -53.218605
-41.975937 -16.772263 -47.679907
-42.836433 -16.301969 -48.302549
-42.113401 -18.468046 -46.604506
-41.975937 -16.772263 -47.679907
-60.769161 -20.239657 -45.152216
-61.517822 -20.045029 -44.33914
-60.027687 -18.464161 -46.205017
-59.988239 -20.41995 -45.944239
-60.769161 -20.239657 -45.152216
-57.399259 -24.716958 -46.532041
-58.06039 -26.539041 -45.554692
-58.224672 -24.61457 -46.205023
-57.630946 -7.543327 -48.868903
-56.536133 -5.903759 -49.814656
-57.814272 -9.3728 -48.838194
-58.67788 -9.214686 -47.869702
-57.630946 -7.543327 -48.868903
-56.080916 -9.722997 -50.558117
-56.97262 -9.545839 -49.713559
-55.875634 -7.878599 -50.681953
-55.216586 -9.892402 -51.279495
-56.313572 -11.559642 -50.3111
-56.080916 -9.722997 -50.558117
-50.677028 -10.728207 -53.43428
-51.602821 -10.549726 -53.218605
-49.756542 -10.868847 -53.479221
-50.95298 -12.46726 -52.696361
-50.677028 -10.728207 -53.43428
-48.828426 -11.061224 -53.449485
-49.756542 -10.868847 -53.479221
-47.898502 -11.219189 -53.266285
-49.10257 -12.765864 -52.558101
-48.828426 -11.061224 -53.449485
-42.72801 -9.332135 -53.251781
-43.610529 -8.933622 -53.748466
-43.074585 -10.922838 -52.213741
-42.72801 -9.332135 -53.251781
-43.335909 -12.58174 -51.128281
-44.222624 -12.206014 -51.692723
-43.074585 -10.922838 -52.213741
-43.5916 -14.227467 -50.016106
-43.335909 -12.58174 -51.128281
-59.814697 -24.339638 -45.198623
-59.955211 -22.363283 -45.558678
-59.033257 -24.483887 -45.726796
-59.814697 -24.339638 -45.198623
-58.372125 -22.661803 -46.704145
-58.224672 -24.61457 -46.205023
-59.033257 -24.483887 -45.726796
-50.270497 -29.021876 -44.074959
-51.266138 -28.927692 -44.443049
-50.68749 -27.111788 -45.073935
-50.270497 -29.021876 -44.074959
-49.246796 -29.136661 -43.701898
-45.234327 -29.865422 -42.005177
-46.234431 -29.648925 -42.409752
-44.75917 -28.161441 -42.491831
-45.234327 -29.865422 -42.005177
-44.128842 -26.508865 -43.016739
-44.75917 -28.161441 -42.491831
-45.08276 -26.246723 -43.45706
-43.547298 -24.926385 -43.508095
-44.128842 -26.508865 -43.016739
-42.803429 -23.416603 -44.029879
-43.547298 -24.926385 -43.508095
-43.708561 -23.084365 -44.503752
-42.107492 -22.002713 -44.516075
-42.803429 -23.416603 -44.029879
-57.781368 -28.485205 -44.949747
-58.06039 -26.539041 -45.554692
-57.781368 -28.485205 -44.949747
-56.924328 -28.56031 -45.136726
-53.23975 -28.790124 -44.989687
-54.204855 -28.73787 -45.161484
-52.653257 -26.954375 -45.692302
-52.269624 -28.853355 -44.739409
-53.23975 -28.790124 -44.989687
-60.761662 -16.367173 -45.577915
-61.562247 -18.095533 -44.505302
-59.967197 -16.545143 -46.474222
-60.761662 -16.367173 -45.577915
-59.92025 -14.62845 -46.639143
-54.309021 -10.073113 -51.951744
-55.216586 -9.892402 -51.279495
-53.424873 -10.22901 -52.472912
-52.506561 -10.406837 -52.930301
-54.565094 -11.884945 -51.553646
-54.309021 -10.073113 -51.951744
-53.424873 -10.22901 -52.472912
-46.97571 -11.446768 -53.012478
-47.898502 -11.219189 -53.266285
-44.870037 -10.258409 -53.214119
-43.610529 -8.933622 -53.748466
-46.047064 -11.647358 -52.639179
-44.870037 -10.258409 -53.214119
-45.138327 -11.936061 -52.203243
-47.244 -13.12442 -52.001603
-46.97571 -11.446768 -53.012478
-46.047064 -11.647358 -52.639179
-43.734457 -15.947308 -48.881182
-44.626804 -15.584755 -49.472338
-43.5916 -14.227467 -50.016106
-43.871637 -17.659257 -47.758781
-43.734457 -15.947308 -48.881182
-42.836433 -16.301969 -48.302549
-42.10894 -20.248379 -45.527199
-42.969152 -19.794251 -46.102843
-42.113401 -18.468046 -46.604506
-42.107492 -22.002713 -44.516075
-42.10894 -20.248379 -45.527199
3 48 13 49
3 48 49 50
3 0 16 14
3 0 18 16
3 1 21 19
3 1 23 21
3 51 24 52
3 54 53 24
3 2 55 57
3 55 28 56
3 55 56 57
3 2 29 28
3 3 58 59
3 4 60 62
3 62 61 15
3 60 61 62
3 4 63 64
3 4 65 67
3 65 30 66
3 65 66 67
3 5 31 17
3 5 32 31
3 6 68 70
3 70 69 20
3 68 69 70
3 6 71 72
3 6 73 75
3 73 33 74
3 73 74 75
3 7 34 22
3 7 35 34
3 8 76 77
3 8 78 79
3 8 80 82
3 80 36 81
3 80 81 82
3 9 37 25
3 9 38 37
3 10 83 85
3 83 39 84
3 83 84 85
3 10 40 39
3 10 41 40
3 11 42 26
3 11 43 42
3 12 44 27
3 12 45 44
3 12 46 45
3 86 47 87
3 89 88 47
3 13 90 91
3 13 92 94
3 92 2 93
3 92 93 94
3 14 15 3
3 16 15 14
3 16 4 15
3 16 17 4
3 18 17 16
3 18 5 17
3 19 95 97
3 95 20 96
3 95 96 97
3 21 20 19
3 21 6 20
3 21 22 6
3 23 22 21
3 23 7 22
3 24 98 99
3 24 100 102
3 100 8 101
3 100 101 102
3 24 25 8
3 103 25 104
3 105 104 24
3 103 104 105
3 106 9 107
3 108 107 25
3 106 107 108
3 109 10 110
3 111 26 112
3 113 112 10
3 111 112 113
3 114 26 115
3 116 11 117
3 118 117 26
3 116 117 118
3 119 27 120
3 121 27 122
3 123 12 124
3 125 124 27
3 123 124 125
3 127 126 12
3 28 128 129
3 28 130 131
3 28 132 134
3 132 19 133
3 132 133 134
3 29 19 28
3 29 1 19
3 15 135 137
3 137 136 3
3 135 136 137
3 139 138 15
3 30 140 141
3 30 142 143
3 17 30 4
3 31 30 17
3 31 144 146
3 146 145 30
3 144 145 146
3 31 147 148
3 32 149 151
3 151 150 31
3 149 150 151
3 32 152 153
3 20 154 155
3 157 156 20
3 33 158 159
3 33 160 162
3 160 3 161
3 160 161 162
3 22 33 6
3 34 33 22
3 34 3 33
3 34 14 3
3 35 14 34
3 35 0 14
3 163 13 164
3 36 165 167
3 165 13 166
3 165 166 167
3 36 2 13
3 25 36 8
3 37 36 25
3 37 2 36
3 37 29 2
3 38 29 37
3 38 1 29
3 168 9 169
3 39 170 171
3 39 172 174
3 172 9 173
3 172 173 174
3 39 38 9
3 40 38 39
3 40 1 38
3 40 23 1
3 41 23 40
3 41 7 23
3 26 41 10
3 42 41 26
3 42 7 41
3 42 35 7
3 43 35 42
3 43 0 35
3 175 11 176
3 27 177 178
3 44 179 181
3 181 180 27
3 179 180 181
3 44 182 184
3 182 11 183
3 182 183 184
3 44 43 11
3 45 43 44
3 45 0 43
3 45 18 0
3 46 18 45
3 46 5 18
3 185 46 186
3 187 186 12
3 185 186 187
3 47 188 190
3 188 46 189
3 188 189 190
3 47 5 46
3 47 32 5
3 191 32 192
3 193 192 47
3 191 192 193
3 195 194 32
