ply
format ascii 1.0
element vertex 364
property float x
property float y
property float z
element face 323
property list uchar int vertex_index
end_header
-32.406281 35.871651 -16.948601
-26.753277 38.959602 -28.741283
-36.28595 44.248241 -18.430038
-31.888451 37.494434 -23.85228
-33.414673 37.772118 -10.162464
-32.146435 31.891373 -18.970425
-37.926334 46.34502 -15.08511
-33.84021 37.954807 -6.100521
-30.077888 38.149044 -26.79586
-22.311308 39.952274 -30.035294
-33.657078 39.904522 -17.459991
-32.409443 36.80304 -20.186348
-34.172169 41.316017 -21.331074
-9.915268 49.851917 -32.723759
-5.378384 50.346996 -33.891182
-35.601112 43.096081 -10.291086
-34.757515 41.909412 -14.113752
-32.924976 36.957558 -13.954657
-31.376549 32.407673 -22.714581
-32.401237 34.12011 -16.117743
-32.219688 34.16045 -17.789898
-34.126072 37.728031 -4.068377
-28.592258 38.529987 -27.882095
-28.685881 35.745564 -27.770084
-34.849609 42.089111 -17.920315
-34.02224 40.712757 -19.415092
-35.277786 42.887497 -19.934662
-4.894196 57.838642 -33.759888
-6.194239 54.086369 -33.668926
-4.030422 54.113628 -34.173588
-35.995529 43.329502 -8.284807
-37.168854 45.404797 -16.812824
-36.227119 44.188801 -14.539536
-35.588951 43.243073 -16.291695
-34.241364 41.009464 -15.862642
-33.151642 34.853634 -8.61138
-33.013344 34.764179 -10.620691
-32.839661 34.57233 -12.561687
-33.189049 37.425365 -12.112858
-32.270947 37.171501 -22.062851
-31.841814 34.73542 -21.439705
-31.462305 35.005978 -23.289368
-33.283798 34.801529 -6.565607
-33.618935 37.960224 -8.145527
-31.174339 37.810017 -25.44928
-30.845337 35.252323 -25.007214
-29.930113 35.492771 -26.514507
-24.630207 39.436161 -29.43576
-32.820667 37.744694 -17.115677
-32.414948 36.359173 -18.382771
-33.03183 38.528633 -18.888588
-33.144485 39.080013 -20.784935
-33.02042 39.519909 -22.631435
-33.960312 41.839348 -23.07806
-32.54245 39.927334 -24.301628
-31.634691 40.356598 -25.720554
-30.273516 40.838947 -26.867432
-18.807411 44.053074 -30.433605
-16.223347 44.748795 -31.119099
-13.707611 45.39362 -31.804031
-11.289663 45.936611 -32.443413
-8.986446 46.317371 -32.995621
-7.565754 50.23357 -33.38665
-6.812664 46.473736 -33.431335
-4.789267 46.352283 -33.729427
-34.906624 40.790363 -6.020576
-34.578426 40.79493 -8.055626
-34.285561 40.55938 -10.072132
-36.777924 44.91251 -12.682386
-35.20282 42.612156 -12.24559
-33.981556 40.115108 -12.030174
-33.634781 39.493362 -13.89031
-33.239304 38.712036 -15.606348
-32.639256 36.411407 -15.623999
-32.626198 34.328773 -14.402979
-32.064579 34.437069 -19.566467
-31.81464 32.152538 -20.846786
-30.773684 32.630882 -24.493069
-34.324224 37.496021 -3.081275
-33.916355 35.941923 -3.289084
-34.114508 35.709913 -2.301982
-26.935139 37.491615 -28.757141
-27.85463 37.276808 -28.327547
-27.672767 38.744794 -28.311689
-3.848679 57.787658 -33.970365
-4.29764 59.64341 -33.662685
-3.416792 55.925151 -34.177216
-4.462309 55.976135 -33.966738
-3.848679 57.787658 -33.970365
-3.074047 53.952869 -34.297035
-3.416792 55.925151 -34.177216
-32.390718 30.482394 -18.739888
-32.285398 31.791964 -18.049869
-32.177801 30.632624 -19.680513
-32.390718 30.482394 -18.739888
-33.562004 36.378168 -6.333064
-33.368505 34.688898 -5.542032
-33.646711 36.265537 -5.309488
-28.779247 34.369517 -27.629081
-28.102364 34.451968 -28.194887
-22.7474 38.314746 -30.10594
-23.90685 38.05669 -29.806173
-23.470757 39.694218 -29.735527
-33.621189 42.103597 -23.823276
-34.450287 43.014896 -23.217413
-32.912258 41.14759 -24.43506
-33.251381 40.883341 -23.689844
-33.621189 42.103597 -23.823276
-32.458379 41.362223 -25.144523
-32.088571 40.141966 -25.011091
-32.912258 41.14759 -24.43506
-30.338958 42.226015 -26.787373
-31.18242 41.895544 -26.318697
-29.380707 41.112251 -27.320082
-30.338958 42.226015 -26.787373
-19.635009 45.453728 -29.947376
-20.108447 43.699011 -30.105648
-15.616179 46.639654 -31.108519
-16.966123 46.230559 -30.685667
-14.358311 46.962067 -31.450985
-14.965479 45.071207 -31.461565
-15.616179 46.639654 -31.108519
-10.602465 47.894264 -32.583586
-11.846293 47.599758 -32.193121
-11.159096 49.557411 -32.333294
-35.67205 42.037319 -6.143258
-35.11317 40.656807 -5.015699
-37.352129 45.628765 -13.883748
-37.680988 45.976169 -12.968579
-38.255193 46.692425 -14.169941
-31.533009 31.036114 -22.482235
-31.752054 30.908546 -21.548338
-31.595595 32.280106 -21.780684
-30.362903 32.726618 -25.298296
-30.809511 33.941603 -24.750141
-30.39873 34.037338 -25.555369
-32.4128 32.906332 -16.623528
-32.538143 32.864008 -15.708451
-32.322025 32.926502 -17.459606
-32.4128 32.906332 -16.623528
-32.310462 34.14028 -16.95382
-32.183061 33.025911 -18.380161
-32.285398 31.791964 -18.049869
-32.322025 32.926502 -17.459606
-33.789642 36.152149 -4.293416
-33.916355 35.941923 -3.289084
-33.983141 37.841419 -5.084449
-33.646711 36.265537 -5.309488
-33.789642 36.152149 -4.293416
-27.901441 35.884596 -28.271541
-28.639069 37.137776 -27.82609
-27.85463 37.276808 -28.327547
-28.102364 34.451968 -28.194887
-27.901441 35.884596 -28.271541
-21.635949 38.50107 -30.361289
-21.099574 40.223829 -30.315064
-10.511194 51.502567 -32.396902
-11.159096 49.557411 -32.333294
-5.443485 59.584358 -33.36689
-4.29764 59.64341 -33.662685
-6.072098 57.713066 -33.410978
-5.443485 59.584358 -33.36689
-5.544218 55.962505 -33.714407
-6.722119 55.836929 -33.365498
-6.072098 57.713066 -33.410978
-3.708242 52.129543 -34.188506
-4.382224 50.246227 -34.047303
-4.704403 52.230312 -34.032385
-2.751868 51.968784 -34.311953
-3.708242 52.129543 -34.188506
-3.074047 53.952869 -34.297035
-36.886532 44.450241 -8.519113
-36.216503 43.306888 -7.275374
-36.636764 44.356777 -9.514254
-36.886532 44.450241 -8.519113
-36.439556 44.240066 -10.517394
-35.798321 43.212791 -9.287947
-36.636764 44.356777 -9.514254
-33.152211 33.196239 -9.049857
-33.187432 33.123648 -8.030716
-33.083061 33.151512 -10.054512
-33.152211 33.196239 -9.049857
-33.082493 34.808906 -9.616036
-33.031081 33.179212 -11.053703
-33.083061 33.151512 -10.054512
-32.926502 34.668255 -11.591189
-32.944239 33.083288 -12.024201
-33.031081 33.179212 -11.053703
-36.470512 44.658851 -19.413992
-37.054287 45.322921 -18.677971
-38.817823 47.379932 -15.375679
-38.255193 46.692425 -14.169941
-38.381919 46.933662 -16.218376
-38.817823 47.379932 -15.375679
-39.273409 47.968575 -16.508945
-38.00318 46.463551 -17.082234
-37.547594 45.874909 -15.948967
-38.381919 46.933662 -16.218376
-37.495739 45.9012 -17.869363
-38.00318 46.463551 -17.082234
-37.054287 45.322921 -18.677971
-36.727402 44.826519 -17.621431
-37.495739 45.9012 -17.869363
-33.291227 32.963896 -5.98171
-33.368505 34.688898 -5.542032
-33.253509 33.097595 -7.007829
-33.291227 32.963896 -5.98171
-33.21772 34.827582 -7.588494
-33.187432 33.123648 -8.030716
-33.253509 33.097595 -7.007829
-29.941117 34.157562 -26.309015
-30.39873 34.037338 -25.555369
-30.387725 35.372547 -25.76086
-29.401363 34.24312 -27.001293
-29.307997 35.619168 -27.142295
-28.779247 34.369517 -27.629081
-29.941117 34.157562 -26.309015
-29.401363 34.24312 -27.001293
-24.945873 37.884951 -29.496398
-26.007407 37.646671 -29.14916
-25.691742 39.197881 -29.088521
-24.945873 37.884951 -29.496398
-23.90685 38.05669 -29.806173
-22.7474 38.314746 -30.10594
-21.635949 38.50107 -30.361289
-35.966431 43.97848 -20.166303
-35.781868 43.567869 -19.18235
-36.470512 44.658851 -19.413992
-35.315292 43.219084 -20.856716
-35.966431 43.97848 -20.166303
-34.762484 42.433344 -21.554922
-34.724977 42.101757 -20.632868
-35.315292 43.219084 -20.856716
-34.656555 42.695009 -22.428415
-34.450287 43.014896 -23.217413
-34.06624 41.577683 -22.204567
-34.762484 42.433344 -21.554922
-34.656555 42.695009 -22.428415
-31.863008 41.65437 -25.745258
-32.458379 41.362223 -25.144523
-30.954104 40.597772 -26.293993
-31.863008 41.65437 -25.745258
-31.18242 41.895544 -26.318697
-28.540078 39.957771 -27.827413
-29.432887 39.684467 -27.374764
-29.380707 41.112251 -27.320082
-27.620587 40.172579 -28.257008
-27.672767 38.744794 -28.311689
-28.540078 39.957771 -27.827413
-26.551305 40.476551 -28.623222
-27.620587 40.172579 -28.257008
-25.48977 40.71483 -28.970461
-25.691742 39.197881 -29.088521
-26.551305 40.476551 -28.623222
-24.292645 41.04397 -29.292343
-25.48977 40.71483 -28.970461
-23.133196 41.302026 -29.59211
-23.470757 39.694218 -29.735527
-24.292645 41.04397 -29.292343
-21.860396 41.648611 -29.906492
-23.133196 41.302026 -29.59211
-21.099574 40.223829 -30.315064
-21.860396 41.648611 -29.906492
-19.347625 42.274229 -30.514219
-20.108447 43.699011 -30.105648
-18.123779 42.549383 -30.786774
-19.347625 42.274229 -30.514219
-18.258155 45.882698 -30.34292
-19.635009 45.453728 -29.947376
-17.515379 44.400935 -30.776352
-18.258155 45.882698 -30.34292
-16.966123 46.230559 -30.685667
-16.831747 42.897244 -31.12952
-18.123779 42.549383 -30.786774
-17.515379 44.400935 -30.776352
-15.626037 43.160773 -31.392288
-16.831747 42.897244 -31.12952
-14.368168 43.483185 -31.734755
-15.626037 43.160773 -31.392288
-14.965479 45.071207 -31.461565
-13.199775 43.713459 -31.975463
-14.368168 43.483185 -31.734755
-13.055267 47.328263 -31.87343
-14.358311 46.962067 -31.450985
-12.498637 45.665115 -32.123722
-13.055267 47.328263 -31.87343
-11.846293 47.599758 -32.193121
-11.9908 43.984955 -32.295154
-13.199775 43.713459 -31.975463
-12.498637 45.665115 -32.123722
-10.869911 44.154566 -32.500187
-11.9908 43.984955 -32.295154
-9.718303 44.344946 -32.776291
-10.869911 44.154566 -32.500187
-10.138054 46.126991 -32.719517
-8.650447 44.423603 -32.93665
-9.718303 44.344946 -32.776291
-9.24033 51.799626 -32.837374
-10.511194 51.502567 -32.396902
-7.379815 53.916851 -33.309957
-6.722119 55.836929 -33.365498
-8.065573 51.990452 -33.168819
-7.379815 53.916851 -33.309957
-6.879996 52.15997 -33.527788
-8.740511 50.042744 -33.055205
-9.24033 51.799626 -32.837374
-8.065573 51.990452 -33.168819
-7.563555 44.501785 -33.154506
-8.650447 44.423603 -32.93665
-7.899555 46.395554 -33.213478
-6.554552 44.460995 -33.265987
-7.563555 44.501785 -33.154506
-5.542853 44.400268 -33.415033
-6.554552 44.460995 -33.265987
-5.800966 46.41301 -33.580381
-4.602447 44.218481 -33.472805
-5.542853 44.400268 -33.415033
-4.087665 48.24887 -33.966425
-5.083825 48.349639 -33.810305
-4.382224 50.246227 -34.047303
-3.867996 46.135349 -33.796885
-4.087665 48.24887 -33.966425
-4.602447 44.218481 -33.472805
-3.867996 46.135349 -33.796885
-34.722894 39.125641 -4.039599
-34.324224 37.496021 -3.081275
-34.516348 39.259197 -5.044477
-34.722894 39.125641 -4.039599
-35.11317 40.656807 -5.015699
-35.451076 42.059933 -7.152692
-35.67205 42.037319 -6.143258
-36.216503 43.306888 -7.275374
-37.027962 45.148281 -11.713044
-37.680988 45.976169 -12.968579
-36.189518 44.004295 -11.486736
-36.439556 44.240066 -10.517394
-37.027962 45.148281 -11.713044
-32.864535 33.086011 -12.993927
-32.969113 31.59697 -12.456442
-32.944239 33.083288 -12.024201
-32.757803 32.964233 -13.914573
-32.864535 33.086011 -12.993927
-32.732929 34.450552 -13.482333
-32.650624 32.968339 -14.851069
-32.757803 32.964233 -13.914573
-32.513717 34.224441 -15.260361
-32.538143 32.864008 -15.708451
-32.650624 32.968339 -14.851069
-32.011904 30.763207 -20.618694
-32.177801 30.632624 -19.680513
-31.980537 32.021956 -19.908606
-32.011904 30.763207 -20.618694
-31.752054 30.908546 -21.548338
-30.509563 31.368631 -25.091421
-30.362903 32.726618 -25.298296
-30.910124 31.272054 -24.265421
-30.509563 31.368631 -25.091421
-31.211557 31.16045 -23.376177
-31.075117 32.519278 -23.603825
-30.910124 31.272054 -24.265421
-31.533009 31.036114 -22.482235
-31.211557 31.16045 -23.376177
-26.935139 37.491615 -28.757141
-26.007407 37.646671 -29.14916
3 0 20 19
3 78 21 79
3 78 79 80
3 1 81 83
3 83 82 22
3 81 82 83
3 2 26 24
3 84 27 85
3 86 29 87
3 88 87 27
3 86 87 88
3 90 89 29
3 2 33 31
3 2 24 33
3 4 36 35
3 4 38 36
3 3 41 39
3 5 91 92
3 5 93 94
3 7 95 97
3 95 42 96
3 95 96 97
3 7 43 42
3 8 46 44
3 99 98 23
3 9 100 102
3 102 101 47
3 100 101 102
3 10 50 48
3 12 51 25
3 12 52 51
3 103 53 104
3 105 54 106
3 107 106 53
3 105 106 107
3 108 55 109
3 110 109 54
3 108 109 110
3 111 56 112
3 114 113 56
3 115 57 116
3 117 58 118
3 119 59 120
3 121 120 58
3 119 120 121
3 13 122 124
3 122 60 123
3 122 123 124
3 13 61 60
3 14 62 28
3 14 63 62
3 14 64 63
3 125 65 126
3 15 66 30
3 15 67 66
3 6 127 129
3 127 68 128
3 127 128 129
3 16 69 32
3 16 70 69
3 16 71 70
3 10 72 34
3 10 48 72
3 17 74 37
3 17 73 74
3 11 75 49
3 18 76 40
3 18 130 132
3 132 131 76
3 130 131 132
3 133 77 134
3 135 134 45
3 133 134 135
3 19 136 137
3 20 138 140
3 140 139 19
3 138 139 140
3 20 141 143
3 141 5 142
3 141 142 143
3 21 144 145
3 21 146 148
3 146 7 147
3 146 147 148
3 22 23 8
3 149 23 150
3 151 150 22
3 149 150 151
3 153 152 23
3 155 154 9
3 24 25 10
3 26 25 24
3 26 12 25
3 156 13 157
3 27 158 159
3 27 160 161
3 27 162 164
3 162 28 163
3 162 163 164
3 29 28 27
3 29 14 28
3 29 165 167
3 167 166 14
3 165 166 167
3 170 169 29
3 168 169 170
3 171 30 172
3 173 30 174
3 175 15 176
3 177 176 30
3 175 176 177
3 31 32 6
3 33 32 31
3 33 16 32
3 33 34 16
3 24 34 33
3 24 10 34
3 35 178 179
3 36 180 182
3 182 181 35
3 180 181 182
3 36 183 184
3 36 185 187
3 185 37 186
3 185 186 187
3 38 37 36
3 38 17 37
3 39 40 11
3 41 40 39
3 41 18 40
3 189 188 2
3 190 6 191
3 192 6 193
3 192 193 194
3 195 31 196
3 197 196 6
3 195 196 197
3 198 31 199
3 200 2 201
3 202 201 31
3 200 201 202
3 42 203 204
3 42 205 206
3 42 207 209
3 207 35 208
3 207 208 209
3 43 35 42
3 43 4 35
3 44 45 3
3 46 45 44
3 46 210 212
3 212 211 45
3 210 211 212
3 23 46 8
3 213 46 214
3 215 214 23
3 213 214 215
3 217 216 46
3 47 218 220
3 220 219 1
3 218 219 220
3 222 221 47
3 224 223 9
3 48 49 0
3 50 49 48
3 50 11 49
3 25 50 10
3 51 50 25
3 51 11 50
3 51 39 11
3 52 39 51
3 52 3 39
3 225 26 226
3 227 226 2
3 225 226 227
3 228 26 229
3 230 12 231
3 232 231 26
3 230 231 232
3 53 233 234
3 53 235 237
3 235 12 236
3 235 236 237
3 53 52 12
3 54 52 53
3 54 3 52
3 54 44 3
3 55 44 54
3 55 8 44
3 238 55 239
3 56 240 242
3 240 55 241
3 240 241 242
3 56 8 55
3 56 22 8
3 243 22 244
3 245 244 56
3 243 244 245
3 246 1 247
3 248 247 22
3 246 247 248
3 249 1 250
3 251 47 252
3 253 252 1
3 251 252 253
3 254 47 255
3 256 9 257
3 258 257 47
3 256 257 258
3 259 9 260
3 262 261 9
3 57 263 264
3 57 265 266
3 267 57 268
3 58 269 271
3 269 57 270
3 269 270 271
3 58 272 274
3 274 273 57
3 272 273 274
3 58 275 276
3 59 277 279
3 279 278 58
3 277 278 279
3 59 280 281
3 282 59 283
3 60 284 286
3 284 59 285
3 284 285 286
3 60 287 289
3 289 288 59
3 287 288 289
3 60 290 291
3 61 292 294
3 294 293 60
3 292 293 294
3 61 295 296
3 297 13 298
3 28 299 300
3 62 301 303
3 303 302 28
3 301 302 303
3 62 304 306
3 304 13 305
3 304 305 306
3 62 61 13
3 63 61 62
3 63 307 309
3 309 308 61
3 307 308 309
3 63 310 311
3 64 312 314
3 314 313 63
3 312 313 314
3 64 315 316
3 317 64 318
3 319 318 14
3 317 318 319
3 320 64 321
3 323 322 64
3 324 21 325
3 65 326 328
3 326 21 327
3 326 327 328
3 65 7 21
3 30 329 331
3 329 65 330
3 329 330 331
3 66 65 30
3 66 7 65
3 66 43 7
3 67 43 66
3 67 4 43
3 68 332 333
3 68 334 336
3 334 15 335
3 334 335 336
3 32 68 6
3 69 68 32
3 69 15 68
3 69 67 15
3 70 67 69
3 70 4 67
3 70 38 4
3 71 38 70
3 71 17 38
3 34 71 16
3 72 71 34
3 72 17 71
3 72 73 17
3 48 73 72
3 48 0 73
3 37 337 339
3 337 338 339
3 74 340 342
3 342 341 37
3 340 341 342
3 74 343 344
3 74 345 347
3 345 19 346
3 345 346 347
3 73 19 74
3 73 0 19
3 49 20 0
3 75 20 49
3 75 5 20
3 40 75 11
3 76 75 40
3 76 5 75
3 76 348 350
3 350 349 5
3 348 349 350
3 352 351 76
3 45 41 3
3 77 41 45
3 77 18 41
3 353 77 354
3 355 77 356
3 357 18 358
3 359 358 77
3 357 358 359
3 361 360 18
3 363 362 1
