ply
format ascii 1.0
element vertex 195
property float x
property float y
property float z
element face 185
property list uchar int vertex_index
end_header
-54.715004 -74.522293 -20.293007
-52.84655 -83.425293 -13.322186
-61.124302 -71.402557 -15.592134
-59.375809 -75.505219 -11.313135
-53.947174 -79.346909 -16.732754
-50.679985 -81.398247 -19.075371
-51.128731 -75.976105 -22.274342
-55.129444 -81.096375 -10.372124
-56.903885 -77.398956 -14.241854
-58.142891 -73.043076 -18.183308
-62.207565 -66.588379 -20.007538
-54.363419 -77.036385 -18.480682
-52.338844 -80.351471 -17.900181
-52.645798 -77.898155 -19.552074
-50.905258 -78.792053 -20.635921
-52.921951 -75.236176 -21.277493
-54.902573 -81.634476 -6.703579
-54.086475 -82.764961 -8.398478
-56.107723 -80.01844 -8.770384
-60.340347 -73.53846 -13.438522
-58.209698 -76.442146 -12.839762
-59.035027 -74.429932 -14.88414
-57.588253 -75.314026 -16.191601
-59.703438 -72.241104 -16.961853
-60.633919 -67.293304 -21.247421
-58.23777 -77.319061 -9.200636
-61.477928 -72.658173 -11.864937
-62.379295 -70.550125 -14.078815
-53.446156 -81.468414 -15.02496
-51.549416 -84.678452 -14.716908
-51.980835 -82.604782 -16.300243
-50.43755 -83.795654 -17.575947
-48.994518 -82.502991 -20.282757
-53.168716 -83.969574 -10.023726
-54.040558 -82.232468 -11.884289
-57.226341 -78.296684 -10.80929
-56.080727 -79.317551 -12.311308
-54.817009 -80.375046 -13.708483
-55.47686 -78.36676 -15.528709
-56.022202 -76.181183 -17.377365
-56.468887 -73.800034 -19.279011
-63.087463 -68.270279 -16.325552
-63.623859 -65.816299 -18.602051
-61.73996 -69.087494 -17.782539
-60.230339 -69.863892 -19.083519
-58.585205 -70.574875 -20.228634
-56.834602 -71.215263 -21.244831
-55.017147 -71.802162 -22.178589
-53.176506 -72.370636 -23.081158
-51.350151 -72.964233 -23.989826
-56.533674 -79.510067 -7.927246
-55.505148 -80.826458 -7.736982
-55.931099 -80.318085 -6.893844
-51.939718 -85.012764 -13.215296
-52.499637 -84.336403 -12.454292
-62.455315 -71.18436 -12.158355
-61.943556 -72.232193 -11.031
-62.905998 -70.130336 -13.265294
-61.928612 -71.604149 -12.971876
-62.455315 -71.18436 -12.158355
-49.756241 -83.224148 -18.977156
-49.635024 -84.422852 -18.227444
-50.558768 -82.59695 -18.325659
-49.837252 -81.950619 -19.679064
-48.913507 -83.77652 -19.580849
-49.756241 -83.224148 -18.977156
-50.148449 -77.859024 -22.013134
-50.036713 -79.266998 -21.193924
-51.016995 -77.384079 -21.455132
-50.243961 -76.375378 -22.785628
-50.148449 -77.859024 -22.013134
-50.674771 -86.354805 -14.667808
-50.850869 -85.338562 -15.410815
-63.969723 -66.643219 -16.6894
-63.663703 -67.858421 -15.532027
-64.545963 -66.231361 -15.895876
-62.915712 -66.202339 -19.304794
-63.817781 -64.502004 -19.748276
-63.109634 -64.888045 -20.45102
-58.757868 -69.241009 -21.277081
-59.609562 -68.934089 -20.738028
-59.782225 -67.600223 -21.786474
-57.882566 -69.561203 -21.785179
-57.709903 -70.895069 -20.736733
-58.757868 -69.241009 -21.277081
-55.1459 -70.344219 -23.154733
-56.073805 -70.115989 -22.724909
-54.22558 -70.628456 -23.606018
-54.096827 -72.086399 -22.629873
-55.1459 -70.344219 -23.154733
-51.452991 -71.374046 -24.878428
-52.377947 -71.142288 -24.471098
-50.452923 -73.294025 -24.450424
-51.452991 -71.374046 -24.878428
-54.494524 -82.199719 -7.551029
-53.548304 -83.557186 -7.385258
-53.956352 -82.991944 -6.537809
-62.376389 -65.246444 -21.130565
-63.109634 -64.888045 -20.45102
-61.589565 -65.598907 -21.750507
-61.420742 -66.940842 -20.627479
-62.376389 -65.246444 -21.130565
-60.780606 -65.912224 -22.343756
-61.589565 -65.598907 -21.750507
-59.782225 -67.600223 -21.786474
-60.780606 -65.912224 -22.343756
-58.662148 -76.85453 -8.35339
-57.598698 -78.160378 -8.142372
-59.306501 -75.959907 -9.439231
-58.662148 -76.85453 -8.35339
-59.875521 -75.052987 -10.49548
-58.806789 -76.41214 -10.256885
-59.306501 -75.959907 -9.439231
-60.926581 -73.629463 -10.771382
-61.943556 -72.232193 -11.031
-60.426868 -74.081696 -11.589036
-59.875521 -75.052987 -10.49548
-60.926581 -73.629463 -10.771382
-51.066578 -84.301727 -16.202482
-50.850869 -85.338562 -15.410815
-51.765125 -83.641617 -15.508575
-50.294936 -84.897163 -16.840334
-51.066578 -84.301727 -16.202482
-51.209193 -83.200218 -16.938095
-49.548544 -85.592835 -17.544094
-50.294936 -84.897163 -16.840334
-49.548544 -85.592835 -17.544094
-49.635024 -84.422852 -18.227444
-48.083902 -84.435563 -20.244335
-48.913507 -83.77652 -19.580849
-48.14285 -83.087738 -20.897316
-48.083902 -84.435563 -20.244335
-49.081342 -81.122467 -21.017342
-49.949888 -80.647522 -20.459339
-50.036713 -79.266998 -21.193924
-48.14285 -83.087738 -20.897316
-49.081342 -81.122467 -21.017342
-53.166763 -84.189793 -8.250111
-53.548304 -83.557186 -7.385258
-52.707884 -84.792099 -9.062735
-53.166763 -84.189793 -8.250111
-53.627595 -83.367267 -9.211102
-52.281035 -85.466957 -9.904528
-52.707884 -84.792099 -9.062735
-52.66072 -84.608543 -10.805062
-52.281035 -85.466957 -9.904528
-53.096641 -83.739991 -11.735343
-52.66072 -84.608543 -10.805062
-53.604637 -83.101021 -10.954007
-53.443554 -82.82888 -12.603238
-52.499637 -84.336403 -12.454292
-53.096641 -83.739991 -11.735343
-57.172747 -78.668751 -8.98551
-56.533674 -79.510067 -7.927246
-57.598698 -78.160378 -8.142372
-54.290017 -82.401055 -5.649619
-53.956352 -82.991944 -6.537809
-55.250915 -81.105457 -5.826371
-54.290017 -82.401055 -5.649619
-54.638359 -81.872036 -4.772411
-55.931099 -80.318085 -6.893844
-55.250915 -81.105457 -5.826371
-51.291151 -85.639343 -13.912657
-51.939718 -85.012764 -13.215296
-52.197983 -84.051873 -14.019547
-51.291151 -85.639343 -13.912657
-50.674771 -86.354805 -14.667808
-63.309619 -68.998345 -14.408659
-62.905998 -70.130336 -13.265294
-62.733379 -69.410202 -15.202184
-63.309619 -68.998345 -14.408659
-63.663703 -67.858421 -15.532027
-64.46026 -64.118955 -18.992073
-63.817781 -64.502004 -19.748276
-64.237921 -65.416229 -17.82765
-65.074321 -63.718885 -18.217672
-64.46026 -64.118955 -18.992073
-63.355661 -67.043289 -17.463801
-63.969723 -66.643219 -16.6894
-64.237921 -65.416229 -17.82765
-56.982532 -69.82254 -22.25803
-57.882566 -69.561203 -21.785179
-55.925874 -71.508713 -21.71171
-56.982532 -69.82254 -22.25803
-56.073805 -70.115989 -22.724909
-53.291125 -70.845489 -24.016764
-54.22558 -70.628456 -23.606018
-52.263329 -72.667434 -23.535492
-53.291125 -70.845489 -24.016764
-52.377947 -71.142288 -24.471098
-50.354671 -74.869442 -23.643369
-50.243961 -76.375378 -22.785628
-51.239441 -74.470169 -23.132084
-50.354671 -74.869442 -23.643369
-50.452923 -73.294025 -24.450424
3 0 13 11
3 0 15 13
3 50 18 51
3 52 51 16
3 50 51 52
3 2 21 19
3 2 23 21
3 1 53 54
3 55 26 56
3 57 27 58
3 59 58 26
3 57 58 59
3 4 30 28
3 5 31 12
3 5 60 62
3 62 61 31
3 60 61 62
3 5 63 65
3 63 32 64
3 63 64 65
3 6 66 68
3 68 67 14
3 66 67 68
3 6 69 70
3 7 33 17
3 7 34 33
3 3 35 25
3 8 36 20
3 8 37 36
3 8 38 37
3 9 39 22
3 9 40 39
3 72 71 29
3 73 41 74
3 73 74 75
3 10 76 78
3 76 42 77
3 76 77 78
3 10 43 42
3 10 44 43
3 79 45 80
3 81 80 24
3 79 80 81
3 82 46 83
3 84 83 45
3 82 83 84
3 85 47 86
3 87 48 88
3 89 88 47
3 87 88 89
3 90 49 91
3 93 92 49
3 11 12 4
3 13 12 11
3 13 5 12
3 13 14 5
3 15 14 13
3 15 6 14
3 16 94 96
3 94 17 95
3 94 95 96
3 18 17 16
3 18 7 17
3 19 20 3
3 21 20 19
3 21 8 20
3 21 22 8
3 23 22 21
3 23 9 22
3 97 10 98
3 99 24 100
3 101 100 10
3 99 100 101
3 102 24 103
3 105 104 24
3 106 25 107
3 108 25 109
3 110 3 111
3 112 111 25
3 110 111 112
3 26 113 114
3 26 115 117
3 115 3 116
3 115 116 117
3 26 19 3
3 27 19 26
3 27 2 19
3 28 29 1
3 30 29 28
3 30 118 120
3 120 119 29
3 118 119 120
3 12 30 4
3 31 30 12
3 31 121 123
3 123 122 30
3 121 122 123
3 31 124 125
3 127 126 31
3 32 128 129
3 32 130 131
3 14 32 5
3 132 32 133
3 134 133 14
3 132 133 134
3 136 135 32
3 17 137 138
3 33 139 141
3 141 140 17
3 139 140 141
3 33 142 143
3 33 144 145
3 34 146 148
3 148 147 33
3 146 147 148
3 34 149 151
3 149 1 150
3 149 150 151
3 25 152 154
3 152 18 153
3 152 153 154
3 35 18 25
3 35 7 18
3 20 35 3
3 36 35 20
3 36 7 35
3 36 34 7
3 37 34 36
3 37 1 34
3 37 28 1
3 38 28 37
3 38 4 28
3 22 38 8
3 39 38 22
3 39 4 38
3 39 11 4
3 40 11 39
3 40 0 11
3 155 16 156
3 157 16 158
3 157 158 159
3 161 160 16
3 29 162 164
3 164 163 1
3 162 163 164
3 166 165 29
3 167 27 168
3 41 169 171
3 169 27 170
3 169 170 171
3 41 2 27
3 42 172 173
3 42 174 176
3 174 175 176
3 42 177 179
3 177 41 178
3 177 178 179
3 43 41 42
3 43 2 41
3 43 23 2
3 44 23 43
3 44 9 23
3 24 44 10
3 45 44 24
3 45 9 44
3 45 40 9
3 46 40 45
3 46 0 40
3 180 46 181
3 47 182 184
3 182 46 183
3 182 183 184
3 47 0 46
3 47 15 0
3 48 15 47
3 48 6 15
3 185 48 186
3 49 187 189
3 187 48 188
3 187 188 189
3 49 6 48
3 49 190 192
3 192 191 6
3 190 191 192
3 194 193 49
