ply
format ascii 1.0
element vertex 246
property float x
property float y
property float z
element face 250
property list uchar int vertex_index
end_header
-10.741703 -81.386894 71.966873
-23.713602 -74.101181 66.603302
-6.82461 -77.075073 74.58252
-14.00116 -73.909744 76.961258
-17.116306 -78.405426 70.440659
-21.867527 -70.151413 75.447083
-8.928799 -79.84594 73.438499
-15.527536 -69.265091 78.82254
-17.980526 -72.114204 76.603943
-19.506256 -67.425308 78.045982
-11.593611 -70.930046 78.763428
-20.613438 -76.255783 68.795746
-4.866179 -73.569977 75.34201
-12.212761 -78.164497 74.540421
-13.577465 -80.261856 71.530746
-15.889817 -76.437874 74.388046
-19.683258 -74.466705 73.385429
-23.221758 -72.352196 71.656052
-25.369614 -68.088448 73.525589
-7.954462 -72.379822 77.650696
-10.208685 -75.542847 76.349899
-9.926065 -80.803749 72.704498
-17.526461 -68.363831 78.527397
-22.228695 -75.167297 67.769402
-5.810368 -75.383377 75.00267
-4.422043 -75.984619 73.55648
-5.348413 -77.793915 73.264572
-13.113146 -76.105362 75.816772
-14.012111 -77.331116 74.588043
-15.029308 -75.241623 75.819702
-19.954163 -71.150238 76.120529
-18.938026 -73.362671 75.160294
-20.848183 -72.355881 74.536415
-21.504883 -73.418678 72.610497
-22.675045 -71.319702 73.724182
-6.865616 -70.687164 78.231949
-8.532785 -70.056793 79.073097
-12.838938 -72.462158 77.908981
-10.917402 -73.257645 77.608391
-12.066267 -74.742233 76.791275
-11.269983 -76.934525 75.545067
-15.321587 -79.39389 71.05854
-7.876585 -78.583664 74.066826
-6.355949 -79.410454 72.866074
-7.424467 -80.760132 72.352264
-14.820003 -71.622849 77.960052
-15.983958 -73.03511 76.889938
-16.829063 -70.738495 77.788925
-18.833351 -69.811386 77.41748
-20.799286 -68.847557 76.858658
-13.539669 -70.122238 78.910538
-18.896582 -77.345657 69.685608
-11.377874 -79.998657 73.191635
-11.981266 -80.952721 71.841583
-12.983603 -79.257172 73.234833
-14.741992 -78.42392 73.017822
-16.577158 -77.491425 72.601044
-16.984535 -74.327545 75.592354
-17.796631 -75.479034 73.980484
-18.423664 -76.482437 72.010262
-20.228378 -75.425537 71.256081
-21.947525 -74.347061 70.340775
-23.545252 -73.267426 69.262276
-22.693064 -67.855377 76.116432
-23.684031 -69.127762 74.58345
-24.381741 -70.266281 72.721512
-24.800138 -71.280777 70.519211
-5.354059 -71.231361 77.070847
-6.32633 -73.010757 76.647301
-7.373661 -74.722076 76.164879
-9.721022 -71.684181 78.351616
-9.085726 -74.011322 77.032516
-8.453377 -76.320679 75.61515
-9.520445 -77.755417 74.966187
-10.520824 -78.983238 74.175385
-10.829095 -81.896526 71.228081
-10.200967 -81.875065 71.515328
-10.200967 -81.875065 71.515328
-9.793148 -81.583492 71.88414
-10.333884 -81.095321 72.335686
-23.066792 -75.011055 65.784767
-22.324339 -75.544113 66.367817
-22.971148 -74.634239 67.186352
-8.80781 -68.899002 79.764092
-7.969392 -69.228984 79.426541
-16.458778 -79.326294 69.579483
-15.561418 -79.820526 69.888423
-16.218947 -78.899658 70.749599
-14.533603 -69.693664 78.866539
-13.837384 -68.925804 79.364155
-14.831318 -68.497231 79.320156
-19.939691 -77.173862 67.922257
-19.081263 -77.7188 68.367188
-19.75501 -76.80072 69.240677
-4.231369 -73.810753 74.545563
-4.445638 -72.627762 75.470139
-3.824715 -76.249725 72.701954
-4.235672 -77.221725 72.620316
-5.670764 -79.810383 72.132076
-6.192148 -80.549435 71.923401
-22.991279 -66.662567 76.338963
-22.065059 -67.156571 76.753094
-24.925674 -67.465984 74.357029
-25.752322 -66.953793 73.797924
-24.526823 -68.608105 74.054519
-24.082883 -67.985641 74.885959
-24.925674 -67.465984 74.357029
-25.507369 -70.747009 69.858338
-25.368384 -70.242889 71.02195
-24.897249 -71.740395 69.268425
-25.507369 -70.747009 69.858338
-5.611035 -70.095898 77.918014
-4.926899 -70.322823 77.242531
-10.657317 -71.307113 78.557522
-10.021895 -70.515812 78.976647
-10.958189 -70.138745 79.182552
-12.989657 -81.104683 70.757008
-12.191558 -81.450115 70.912426
-12.779366 -80.607288 71.686164
-9.228457 -81.287018 72.21846
-8.729824 -80.808113 72.58546
-9.427432 -80.324844 73.071498
-9.228457 -81.287018 72.21846
-9.793148 -81.583492 71.88414
-16.810209 -67.60244 79.049308
-16.526999 -68.814461 78.674969
-15.810747 -68.05307 79.19688
-17.788145 -67.138824 78.829037
-16.810209 -67.60244 79.049308
-18.778042 -66.669563 78.588329
-18.516359 -67.89457 78.286689
-17.788145 -67.138824 78.829037
-15.810747 -68.05307 79.19688
-14.831318 -68.497231 79.320156
-21.563317 -76.078774 66.914967
-20.755689 -76.623017 67.428139
-21.421066 -75.71154 68.282574
-21.658961 -76.45559 65.513382
-21.563317 -76.078774 66.914967
-22.324339 -75.544113 66.367817
-4.698857 -78.126373 72.474362
-4.235672 -77.221725 72.620316
-4.885228 -76.889267 73.410526
-26.132518 -67.564346 72.897724
-25.752322 -66.953793 73.797924
-25.653122 -68.646725 72.525139
-26.132518 -67.564346 72.897724
-7.135807 -69.54417 79.005966
-6.366814 -69.823799 78.498565
-7.6992 -70.371978 78.652523
-7.135807 -69.54417 79.005966
-7.969392 -69.228984 79.426541
-14.691112 -80.292671 70.229694
-13.819052 -80.726654 70.465797
-14.449526 -79.827873 71.294643
-14.691112 -80.292671 70.229694
-15.561418 -79.820526 69.888423
-6.726407 -81.224274 71.666496
-6.192148 -80.549435 71.923401
-6.890208 -80.085293 72.609169
-7.977658 -81.265209 72.042343
-8.176633 -80.303036 72.895381
-8.729824 -80.808113 72.58546
-7.296086 -81.787823 71.39341
-7.977658 -81.265209 72.042343
-6.726407 -81.224274 71.666496
-7.296086 -81.787823 71.39341
-11.897412 -69.749172 79.30143
-10.958189 -70.138745 79.182552
-12.870442 -69.345268 79.374985
-13.837384 -68.925804 79.364155
-12.56664 -70.526142 78.836983
-11.897412 -69.749172 79.30143
-12.870442 -69.345268 79.374985
-18.225189 -78.269493 68.809883
-17.335051 -78.799378 69.187409
-18.006444 -77.875541 70.063133
-18.225189 -78.269493 68.809883
-19.081263 -77.7188 68.367188
-19.939691 -77.173862 67.922257
-20.755689 -76.623017 67.428139
-4.009302 -75.018074 73.652797
-4.231369 -73.810753 74.545563
-4.644111 -74.777298 74.449245
-4.009302 -75.018074 73.652797
-3.824715 -76.249725 72.701954
-5.166996 -79.002114 72.331325
-5.852181 -78.602184 73.065323
-5.670764 -79.810383 72.132076
-4.698857 -78.126373 72.474362
-5.166996 -79.002114 72.331325
-23.762884 -74.50206 65.183012
-24.381795 -73.585041 65.949192
-19.741468 -66.191677 78.282257
-18.778042 -66.669563 78.588329
-20.471655 -66.941536 77.717868
-19.741468 -66.191677 78.282257
-21.11817 -67.65266 77.124206
-20.152771 -68.136432 77.45232
-20.471655 -66.941536 77.717868
-21.746175 -68.351467 76.487545
-21.11817 -67.65266 77.124206
-22.065059 -67.156571 76.753094
-23.5874 -67.349449 75.652451
-22.991279 -66.662567 76.338963
-23.188547 -68.491569 75.349941
-23.5874 -67.349449 75.652451
-24.082883 -67.985641 74.885959
-25.159185 -69.735641 72.1231
-24.875678 -69.177365 73.12355
-25.653122 -68.646725 72.525139
-24.59094 -70.773529 71.620362
-25.159185 -69.735641 72.1231
-25.368384 -70.242889 71.02195
-24.269806 -72.733719 68.639958
-24.172695 -72.274102 69.890743
-24.897249 -71.740395 69.268425
-24.353981 -73.150597 67.310471
-23.629427 -73.684303 67.932789
-24.269806 -72.733719 68.639958
-24.381795 -73.585041 65.949192
-24.353981 -73.150597 67.310471
-4.689578 -71.458454 76.334557
-4.926899 -70.322823 77.242531
-5.110119 -72.400669 76.206429
-4.445638 -72.627762 75.470139
-4.689578 -71.458454 76.334557
-6.109838 -70.959262 77.651398
-5.611035 -70.095898 77.918014
-6.366814 -69.823799 78.498565
-9.427776 -69.702118 79.337387
-8.80781 -68.899002 79.764092
-9.126904 -70.870487 78.712356
-9.427776 -69.702118 79.337387
-10.021895 -70.515812 78.976647
-11.448877 -81.67944 71.165436
-10.829095 -81.896526 71.228081
-11.361484 -81.169807 71.904228
-11.448877 -81.67944 71.165436
-12.191558 -81.450115 70.912426
-12.989657 -81.104683 70.757008
-13.819052 -80.726654 70.465797
-16.458778 -79.326294 69.579483
-17.335051 -78.799378 69.187409
-23.066792 -75.011055 65.784767
-23.762884 -74.50206 65.183012
3 0 75 76
3 0 77 79
3 79 78 21
3 77 78 79
3 1 80 82
3 82 81 23
3 80 81 82
3 2 26 24
3 3 29 27
3 5 32 30
3 5 34 32
3 83 36 84
3 3 39 37
3 3 27 39
3 4 85 87
3 87 86 41
3 85 86 87
3 6 44 42
3 7 47 45
3 9 48 22
3 9 49 48
3 7 88 90
3 88 50 89
3 88 89 90
3 7 45 50
3 11 91 93
3 93 92 51
3 91 92 93
3 12 94 95
3 97 96 25
3 99 98 43
3 13 54 52
3 15 55 28
3 15 56 55
3 8 57 46
3 16 58 31
3 16 59 58
3 16 60 59
3 17 61 33
3 17 62 61
3 100 63 101
3 18 102 103
3 18 104 106
3 104 64 105
3 104 105 106
3 18 65 64
3 107 66 108
3 110 109 66
3 111 67 112
3 19 68 35
3 19 69 68
3 10 113 115
3 113 70 114
3 113 114 115
3 20 71 38
3 20 72 71
3 20 73 72
3 13 74 40
3 13 52 74
3 14 116 118
3 118 117 53
3 116 117 118
3 21 119 121
3 121 120 6
3 119 120 121
3 123 122 21
3 124 22 125
3 126 125 7
3 124 125 126
3 127 22 128
3 129 9 130
3 131 130 22
3 129 130 131
3 132 7 133
3 23 134 136
3 136 135 11
3 134 135 136
3 139 138 23
3 137 138 139
3 24 25 12
3 26 25 24
3 26 140 142
3 142 141 25
3 140 141 142
3 27 28 13
3 29 28 27
3 29 15 28
3 30 31 8
3 32 31 30
3 32 16 31
3 32 33 16
3 34 33 32
3 34 17 33
3 143 18 144
3 146 145 18
3 147 35 148
3 36 149 151
3 149 35 150
3 149 150 151
3 36 19 35
3 37 38 10
3 39 38 37
3 39 20 38
3 39 40 20
3 27 40 39
3 27 13 40
3 41 152 154
3 154 153 14
3 152 153 154
3 156 155 41
3 42 43 2
3 44 43 42
3 44 157 159
3 159 158 43
3 157 158 159
3 160 44 161
3 162 161 6
3 160 161 162
3 163 44 164
3 166 165 44
3 45 46 3
3 47 46 45
3 47 8 46
3 22 47 7
3 48 47 22
3 48 8 47
3 48 30 8
3 49 30 48
3 49 5 30
3 167 10 168
3 50 169 170
3 50 171 173
3 171 10 172
3 171 172 173
3 50 37 10
3 45 37 50
3 45 3 37
3 51 174 176
3 176 175 4
3 174 175 176
3 178 177 51
3 180 179 11
3 25 181 183
3 183 182 12
3 181 182 183
3 185 184 25
3 43 26 2
3 186 26 187
3 188 187 43
3 186 187 188
3 190 189 26
3 192 191 1
3 52 53 0
3 54 53 52
3 54 14 53
3 28 54 13
3 55 54 28
3 55 14 54
3 55 41 14
3 56 41 55
3 56 4 41
3 46 29 3
3 57 29 46
3 57 15 29
3 31 57 8
3 58 57 31
3 58 15 57
3 58 56 15
3 59 56 58
3 59 4 56
3 59 51 4
3 60 51 59
3 60 11 51
3 33 60 16
3 61 60 33
3 61 11 60
3 61 23 11
3 62 23 61
3 62 1 23
3 193 9 194
3 195 9 196
3 197 49 198
3 199 198 9
3 197 198 199
3 63 200 202
3 200 49 201
3 200 201 202
3 63 5 49
3 203 63 204
3 64 205 207
3 205 63 206
3 205 206 207
3 64 5 63
3 64 34 5
3 65 34 64
3 65 17 34
3 208 65 209
3 210 209 18
3 208 209 210
3 66 211 213
3 211 65 212
3 211 212 213
3 66 17 65
3 66 62 17
3 214 62 215
3 216 215 66
3 214 215 216
3 217 1 218
3 219 218 62
3 217 218 219
3 221 220 1
3 67 222 223
3 67 224 226
3 224 12 225
3 224 225 226
3 35 227 229
3 227 67 228
3 227 228 229
3 68 67 35
3 68 12 67
3 68 24 12
3 69 24 68
3 69 2 24
3 230 36 231
3 70 232 234
3 232 36 233
3 232 233 234
3 70 19 36
3 38 70 10
3 71 70 38
3 71 19 70
3 71 69 19
3 72 69 71
3 72 2 69
3 72 42 2
3 73 42 72
3 73 6 42
3 40 73 20
3 74 73 40
3 74 6 73
3 74 21 6
3 52 21 74
3 52 0 21
3 53 235 237
3 237 236 0
3 235 236 237
3 239 238 53
3 241 240 14
3 243 242 4
3 245 244 1
