ply
format ascii 1.0
element vertex 153
property float x
property float y
property float z
element face 132
property list uchar int vertex_index
end_header
18.041145 -95.172699 -18.384069
15.189245 -107.39949 -19.115465
7.883289 -88.987793 -11.360723
17.679905 -88.982483 -16.992842
12.396406 -89.651436 -14.42737
12.37595 -96.567963 -16.021334
13.253731 -102.538567 -17.74132
19.399494 -100.288544 -19.728331
6.266479 -88.270233 -9.666407
12.652016 -85.925926 -13.864693
15.185039 -85.902084 -15.178774
17.748615 -92.202904 -17.667299
14.986685 -92.900124 -16.473368
15.170965 -96.070877 -17.262022
12.688587 -99.685547 -16.90291
15.594797 -98.983086 -18.05266
16.279518 -101.618919 -18.787848
18.587086 -97.87133 -19.085161
7.558622 -92.760239 -12.048914
20.318726 -88.089989 -18.203932
20.493074 -91.116234 -18.826925
20.912064 -93.87899 -19.469767
10.331547 -85.648613 -12.447878
9.974274 -89.467224 -12.962536
9.771103 -93.154549 -13.699902
15.007009 -89.498642 -15.756468
12.290279 -93.211815 -15.169601
9.75655 -96.670006 -14.592075
14.086077 -105.111557 -18.485628
17.233332 -103.970924 -19.434153
21.594948 -96.364487 -20.086443
16.599804 -83.910873 -15.593659
15.325565 -84.026355 -14.985848
15.872687 -108.402282 -19.37672
14.274528 -108.977161 -18.89913
16.82107 -106.719944 -19.550216
15.872687 -108.402282 -19.37672
6.834939 -90.532772 -10.805727
6.026534 -90.173992 -9.958569
7.074884 -88.629013 -10.513565
7.720956 -90.874016 -11.704819
6.672605 -92.418995 -11.149822
6.834939 -90.532772 -10.805727
21.592375 -87.455223 -18.830278
21.556063 -85.915729 -18.571853
21.679549 -88.968345 -19.141775
20.4059 -89.603112 -18.515428
21.592375 -87.455223 -18.830278
21.832707 -90.382058 -19.423723
21.679549 -88.968345 -19.141775
11.67161 -83.862316 -12.988727
10.569401 -83.693386 -12.321258
16.343457 -89.240563 -16.374655
16.397828 -87.520363 -16.089327
17.734276 -87.262283 -16.707514
11.168736 -98.271138 -15.787346
9.859036 -98.322159 -15.072716
11.06625 -96.618985 -15.306704
11.832495 -102.786137 -17.11917
11.549923 -101.359627 -16.699965
12.971159 -101.112057 -17.322115
12.18863 -104.181213 -17.547405
11.832495 -102.786137 -17.11917
13.669904 -103.825062 -18.113474
12.604803 -105.467709 -17.919559
12.18863 -104.181213 -17.547405
19.938579 -101.356015 -20.011143
18.855498 -103.197204 -19.864054
18.316413 -102.129734 -19.581242
22.667314 -94.28492 -20.336396
21.253506 -95.121738 -19.778105
22.325873 -93.042171 -20.028058
13.648114 -107.865662 -18.599655
14.274528 -108.977161 -18.89913
6.601935 -86.336472 -9.523837
5.757078 -87.826332 -8.812717
7.322095 -86.695091 -10.301745
6.601935 -86.336472 -9.523837
8.1305 -87.053871 -11.148903
7.074884 -88.629013 -10.513565
7.322095 -86.695091 -10.301745
14.059054 -84.038276 -14.328808
12.831844 -84.000973 -13.697135
13.918527 -85.914005 -14.521733
14.059054 -84.038276 -14.328808
15.325565 -84.026355 -14.985848
5.421436 -89.720417 -9.02457
5.757078 -87.826332 -8.812717
5.421436 -89.720417 -9.02457
6.026534 -90.173992 -9.958569
6.538833 -94.274681 -11.568453
6.672605 -92.418995 -11.149822
7.494369 -94.578941 -12.49523
6.538833 -94.274681 -11.568453
19.014511 -86.903599 -17.323628
17.734276 -87.262283 -16.707514
20.333922 -86.457352 -17.929172
21.556063 -85.915729 -18.571853
18.999316 -88.536236 -17.598387
19.014511 -86.903599 -17.323628
20.333922 -86.457352 -17.929172
22.042202 -91.763435 -19.745144
20.702569 -92.497612 -19.148346
21.832707 -90.382058 -19.423723
22.325873 -93.042171 -20.028058
22.042202 -91.763435 -19.745144
9.354629 -85.384281 -11.692481
10.569401 -83.693386 -12.321258
9.107418 -87.318203 -11.9043
8.1305 -87.053871 -11.148903
9.354629 -85.384281 -11.692481
11.491782 -85.78727 -13.156285
11.67161 -83.862316 -12.988727
12.831844 -84.000973 -13.697135
8.600609 -94.776096 -13.320725
7.494369 -94.578941 -12.49523
8.664862 -92.957394 -12.874408
16.486843 -85.722084 -15.80048
16.599804 -83.910873 -15.593659
15.096024 -87.700363 -15.467621
16.486843 -85.722084 -15.80048
16.397828 -87.520363 -16.089327
8.593333 -96.533825 -13.766811
8.600609 -94.776096 -13.320725
9.763827 -94.912278 -14.145988
8.638967 -98.264054 -14.272263
8.593333 -96.533825 -13.766811
8.638967 -98.264054 -14.272263
9.859036 -98.322159 -15.072716
11.325054 -99.829929 -16.228134
11.168736 -98.271138 -15.787346
12.532269 -98.126755 -16.462122
11.325054 -99.829929 -16.228134
11.549923 -101.359627 -16.699965
13.09653 -106.721695 -18.284737
12.604803 -105.467709 -17.919559
14.637661 -106.255524 -18.800546
13.648114 -107.865662 -18.599655
13.09653 -106.721695 -18.284737
17.843114 -105.005661 -19.70956
16.82107 -106.719944 -19.550216
16.211289 -105.685207 -19.274809
17.843114 -105.005661 -19.70956
18.855498 -103.197204 -19.864054
23.084173 -95.424744 -20.602555
22.667314 -94.28492 -20.336396
22.069271 -97.46671 -20.366907
23.084173 -95.424744 -20.602555
20.971544 -99.428738 -20.187851
20.497221 -98.326515 -19.907387
22.069271 -97.46671 -20.366907
19.938579 -101.356015 -20.011143
20.971544 -99.428738 -20.187851
3 31 10 32
3 0 13 11
3 0 15 13
3 0 17 15
3 1 33 34
3 1 35 36
3 2 37 39
3 39 38 8
3 37 38 39
3 2 40 42
3 40 18 41
3 40 41 42
3 43 19 44
3 45 20 46
3 47 46 19
3 45 46 47
3 49 48 20
3 50 22 51
3 4 23 9
3 4 24 23
3 3 52 54
3 52 25 53
3 52 53 54
3 5 26 12
3 5 27 26
3 5 55 57
3 57 56 27
3 55 56 57
3 6 58 60
3 60 59 14
3 58 59 60
3 6 61 62
3 6 63 65
3 63 28 64
3 63 64 65
3 7 29 16
3 7 66 68
3 68 67 29
3 66 67 68
3 69 30 70
3 71 70 21
3 69 70 71
3 72 1 73
3 74 8 75
3 76 8 77
3 78 2 79
3 80 79 8
3 78 79 80
3 81 9 82
3 10 83 85
3 83 9 84
3 83 84 85
3 10 4 9
3 11 12 3
3 13 12 11
3 13 5 12
3 13 14 5
3 15 14 13
3 15 6 14
3 15 16 6
3 17 16 15
3 17 7 16
3 8 86 87
3 89 88 8
3 18 90 91
3 18 92 93
3 94 3 95
3 19 96 97
3 19 98 100
3 98 3 99
3 98 99 100
3 19 11 3
3 20 11 19
3 20 0 11
3 20 21 0
3 101 21 102
3 103 102 20
3 101 102 103
3 105 104 21
3 22 106 107
3 22 108 110
3 108 2 109
3 108 109 110
3 9 111 113
3 111 22 112
3 111 112 113
3 23 22 9
3 23 2 22
3 23 18 2
3 24 18 23
3 24 114 116
3 116 115 18
3 114 115 116
3 117 10 118
3 25 119 121
3 119 10 120
3 119 120 121
3 25 4 10
3 12 25 3
3 26 25 12
3 26 4 25
3 26 24 4
3 27 24 26
3 27 122 124
3 124 123 24
3 122 123 124
3 27 125 126
3 128 127 27
3 14 129 131
3 131 130 5
3 129 130 131
3 133 132 14
3 28 134 135
3 28 136 138
3 136 1 137
3 136 137 138
3 16 28 6
3 29 28 16
3 29 1 28
3 29 139 141
3 141 140 1
3 139 140 141
3 143 142 29
3 21 17 0
3 30 17 21
3 30 7 17
3 144 30 145
3 146 30 147
3 148 7 149
3 150 149 30
3 148 149 150
3 152 151 7
