ply
format ascii 1.0
element vertex 225
property float x
property float y
property float z
element face 230
property list uchar int vertex_index
end_header
-64.629013 -24.938894 -12.7575
-63.001595 -22.489141 -19.99498
-67.778427 -23.577148 -6.951735
-66.594696 -32.439659 -7.178049
-63.250572 -28.555046 -13.7679
-63.330482 -23.838373 -15.952736
-66.290817 -24.503754 -4.022396
-66.612549 -19.867188 -6.730448
-63.529018 -21.698946 -3.680395
-68.092354 -28.005259 -4.053421
-66.607544 -23.921135 -10.081797
-65.158791 -20.961359 -13.381517
-66.83609 -19.627863 -10.07749
-67.758636 -27.79546 -7.049839
-65.474945 -28.293432 -10.306019
-63.889328 -33.079502 -10.765882
-63.963879 -26.489389 -13.245298
-63.193733 -26.243145 -14.975481
-63.953655 -24.438416 -14.156855
-65.002571 -23.008198 -3.884562
-65.881516 -26.915791 -2.712559
-67.443512 -23.612722 -8.511353
-66.836182 -21.763218 -10.080647
-67.383743 -21.527878 -8.456919
-65.655792 -18.258818 -6.5672
-66.477333 -17.685419 -8.261824
-68.011475 -25.748119 -5.501947
-68.276077 -27.770737 -5.509691
-67.925247 -25.630838 -7.005487
-67.224831 -25.772343 -8.567019
-65.750198 -34.90641 -7.252819
-64.367096 -35.291458 -9.074648
-65.199203 -32.764156 -8.940071
-64.677582 -30.619356 -10.536432
-66.029892 -30.332703 -8.788824
-65.368828 -18.635441 -13.649317
-64.435677 -19.786037 -15.301596
-62.694408 -30.90086 -14.216389
-62.64085 -28.413363 -15.634607
-62.749493 -25.844358 -16.871906
-62.981705 -23.186859 -17.932465
-67.421669 -23.868013 -5.451319
-67.331207 -21.648489 -6.863632
-66.54567 -22.146179 -5.339434
-65.429047 -20.600632 -5.169481
-64.113739 -19.249676 -4.974291
-67.114609 -28.535158 -2.678019
-67.339951 -26.173481 -4.07514
-65.546501 -24.414515 -11.568121
-64.879158 -23.154484 -13.064585
-65.91098 -22.313971 -11.657475
-66.126045 -20.108778 -11.776525
-66.170334 -17.885715 -11.866533
-67.055847 -19.540937 -8.375101
-66.606796 -17.561737 -10.04479
-67.796486 -32.192719 -5.494188
-68.499008 -29.987309 -3.985582
-68.198517 -29.922867 -5.500408
-67.295853 -30.066042 -7.10598
-66.737061 -28.006254 -8.656792
-66.147232 -26.083206 -10.142834
-64.981766 -26.416012 -11.679747
-63.653805 -37.891182 -9.158104
-63.241219 -35.647465 -10.942663
-62.905689 -33.313988 -12.640343
-63.498829 -30.828259 -12.346319
-64.242111 -28.512901 -11.997948
-64.169083 -22.197065 -14.792124
-63.586151 -21.315094 -16.744171
-63.265343 -20.452486 -18.840298
-63.064339 -23.624251 -20.422926
-62.861902 -23.916224 -19.424366
-63.198748 -22.117672 -21.033009
-63.064339 -23.624251 -20.422926
-65.66214 -17.127221 -7.354595
-65.073837 -17.553562 -6.492045
-65.010647 -17.967734 -14.68104
-65.40931 -17.461932 -13.751916
-66.238652 -28.945317 -2.014885
-66.948159 -29.729712 -1.946461
-66.379089 -16.586583 -10.016503
-66.542065 -17.623578 -9.153307
-66.314357 -16.648424 -9.12502
-66.314754 -16.637842 -10.980423
-66.379089 -16.586583 -10.016503
-68.166096 -32.14959 -4.698059
-68.006302 -33.2697 -4.659078
-68.295681 -28.996284 -4.019502
-68.270203 -30.150954 -3.274499
-68.066876 -29.159929 -3.308419
-64.265806 -37.669412 -8.232617
-63.872564 -38.966314 -8.236273
-63.722831 -20.009825 -17.071537
-64.010914 -20.550565 -16.022883
-64.147594 -19.245297 -16.35025
-63.562427 -19.578521 -18.119601
-63.425747 -20.88379 -17.792234
-63.722831 -20.009825 -17.071537
-64.707439 -24.235741 -3.262957
-65.646694 -23.755976 -3.953479
-65.351562 -24.983519 -3.331874
-63.88809 -23.595977 -3.175204
-64.707439 -24.235741 -3.262957
-63.151314 -22.941351 -3.073121
-64.265794 -22.353572 -3.782478
-63.88809 -23.595977 -3.175204
-64.795317 -27.429367 -2.042299
-65.622105 -28.135633 -2.032155
-65.146912 -26.189538 -2.676956
-64.795317 -27.429367 -2.042299
-65.351562 -24.983519 -3.331874
-66.086167 -25.709772 -3.367477
-65.146912 -26.189538 -2.676956
-66.072911 -16.840522 -8.201906
-66.066563 -17.972119 -7.414512
-65.66214 -17.127221 -7.354595
-66.314357 -16.648424 -9.12502
-66.072911 -16.840522 -8.201906
-65.058647 -35.098934 -8.163733
-64.622452 -36.369551 -8.19089
-65.314003 -36.177026 -7.279975
-64.544072 -18.543031 -15.507179
-64.902253 -19.210739 -14.475456
-65.010647 -17.967734 -14.68104
-64.147594 -19.245297 -16.35025
-64.544072 -18.543031 -15.507179
-62.541439 -30.862122 -15.171862
-62.554428 -32.162226 -14.379192
-62.51466 -29.618373 -15.880971
-62.541439 -30.862122 -15.171862
-62.667629 -29.657111 -14.925498
-62.570329 -28.269858 -16.600879
-62.51466 -29.618373 -15.880971
-62.624651 -26.985356 -17.219528
-62.570329 -28.269858 -16.600879
-62.695172 -27.128861 -16.253256
-62.735851 -25.593832 -17.862829
-62.624651 -26.985356 -17.219528
-62.851957 -24.265083 -18.393109
-62.735851 -25.593832 -17.862829
-62.865599 -24.515608 -17.402186
-62.99165 -22.838 -18.963723
-62.861902 -23.916224 -19.424366
-62.851957 -24.265083 -18.393109
-64.30281 -18.048991 -5.69559
-65.073837 -17.553562 -6.492045
-64.884766 -18.754247 -5.770746
-67.578003 -29.424879 -2.620718
-66.948159 -29.729712 -1.946461
-67.603482 -28.270208 -3.36572
-68.066876 -29.159929 -3.308419
-67.578003 -29.424879 -2.620718
-66.498063 -27.725474 -2.695289
-66.238652 -28.945317 -2.014885
-65.622105 -28.135633 -2.032155
-66.016132 -35.964832 -6.376732
-65.314003 -36.177026 -7.279975
-66.438721 -34.736141 -6.37493
-66.016132 -35.964832 -6.376732
-66.86097 -33.502765 -6.337546
-66.172447 -33.673034 -7.215434
-66.438721 -34.736141 -6.37493
-65.810063 -17.087069 -12.860524
-65.40931 -17.461932 -13.751916
-65.769581 -18.260578 -12.757925
-66.096523 -16.79983 -11.891295
-66.388565 -17.723726 -10.955662
-66.314754 -16.637842 -10.980423
-65.810063 -17.087069 -12.860524
-66.096523 -16.79983 -11.891295
-62.273832 -22.390505 -2.951413
-63.151314 -22.941351 -3.073121
-62.721069 -21.142572 -3.570531
-62.273832 -22.390505 -2.951413
-63.01343 -19.917938 -4.217479
-63.821378 -20.474311 -4.327343
-62.721069 -21.142572 -3.570531
-63.373863 -18.679264 -4.893987
-63.01343 -19.917938 -4.217479
-64.30281 -18.048991 -5.69559
-63.373863 -18.679264 -4.893987
-67.461865 -33.379295 -5.495615
-68.006302 -33.2697 -4.659078
-67.195591 -32.316189 -6.336118
-66.86097 -33.502765 -6.337546
-67.461865 -33.379295 -5.495615
-68.550872 -31.11652 -3.196348
-68.270203 -30.150954 -3.274499
-68.517357 -31.046885 -3.943756
-68.550872 -31.11652 -3.196348
-68.367111 -31.014664 -4.701169
-68.517357 -31.046885 -3.943756
-68.348762 -29.955088 -4.742995
-67.997501 -31.057793 -5.497298
-68.166096 -32.14959 -4.698059
-68.367111 -31.014664 -4.701169
-63.40426 -39.215032 -9.15947
-63.872564 -38.966314 -8.236273
-63.244202 -38.090227 -10.094081
-63.40426 -39.215032 -9.15947
-64.010451 -36.59132 -9.116376
-64.265806 -37.669412 -8.232617
-64.622452 -36.369551 -8.19089
-63.037909 -36.968368 -10.98636
-63.244202 -38.090227 -10.094081
-63.447512 -36.769323 -10.050383
-62.90708 -35.781645 -11.887956
-63.037909 -36.968368 -10.98636
-62.739315 -34.614907 -12.736795
-62.90708 -35.781645 -11.887956
-63.073454 -34.480727 -11.791503
-62.660069 -33.36879 -13.591169
-62.739315 -34.614907 -12.736795
-62.800049 -32.107424 -13.428366
-62.554428 -32.162226 -14.379192
-62.660069 -33.36879 -13.591169
-63.394644 -19.061476 -19.230372
-63.562427 -19.578521 -18.119601
-63.268439 -20.018864 -19.923752
-63.394644 -19.061476 -19.230372
-63.136565 -21.037192 -20.501093
-63.133469 -21.470813 -19.417639
-63.268439 -20.018864 -19.923752
-63.198748 -22.117672 -21.033009
-63.136565 -21.037192 -20.501093
3 0 18 16
3 1 70 71
3 1 72 73
3 2 23 21
3 75 74 24
3 2 28 26
3 2 21 28
3 3 32 30
3 3 34 32
3 77 76 35
3 4 38 37
3 5 39 17
3 5 40 39
3 6 43 41
3 8 44 19
3 8 45 44
3 78 46 79
3 6 47 20
3 6 41 47
3 10 50 48
3 12 51 22
3 12 52 51
3 7 53 42
3 80 54 81
3 82 81 25
3 80 81 82
3 84 83 54
3 85 55 86
3 9 87 89
3 87 56 88
3 87 88 89
3 13 57 27
3 13 58 57
3 13 59 58
3 10 60 29
3 10 48 60
3 90 62 91
3 15 63 31
3 15 64 63
3 15 65 64
3 14 66 33
3 14 61 66
3 11 67 49
3 92 68 93
3 94 93 36
3 92 93 94
3 95 69 96
3 97 96 68
3 95 96 97
3 16 17 4
3 18 17 16
3 18 5 17
3 98 19 99
3 100 99 6
3 98 99 100
3 101 19 102
3 103 8 104
3 105 104 19
3 103 104 105
3 106 20 107
3 108 20 109
3 110 6 111
3 112 111 20
3 110 111 112
3 21 22 10
3 23 22 21
3 23 12 22
3 24 25 7
3 113 25 114
3 115 114 24
3 113 114 115
3 117 116 25
3 26 27 9
3 28 27 26
3 28 13 27
3 28 29 13
3 21 29 28
3 21 10 29
3 30 118 120
3 118 31 119
3 118 119 120
3 32 31 30
3 32 15 31
3 32 33 15
3 34 33 32
3 34 14 33
3 35 36 11
3 121 36 122
3 123 122 35
3 121 122 123
3 125 124 36
3 37 126 127
3 38 128 130
3 130 129 37
3 128 129 130
3 38 131 132
3 17 38 4
3 39 38 17
3 39 133 135
3 135 134 38
3 133 134 135
3 39 136 137
3 40 138 140
3 140 139 39
3 138 139 140
3 40 141 143
3 141 1 142
3 141 142 143
3 41 42 2
3 43 42 41
3 43 7 42
3 19 43 6
3 44 43 19
3 44 7 43
3 44 24 7
3 45 24 44
3 45 144 146
3 146 145 24
3 144 145 146
3 46 147 148
3 46 149 151
3 149 9 150
3 149 150 151
3 20 152 154
3 152 46 153
3 152 153 154
3 47 46 20
3 47 9 46
3 47 26 9
3 41 26 47
3 41 2 26
3 155 30 156
3 157 30 158
3 159 3 160
3 161 160 30
3 159 160 161
3 48 49 0
3 50 49 48
3 50 11 49
3 22 50 10
3 51 50 22
3 51 11 50
3 51 35 11
3 52 35 51
3 52 162 164
3 164 163 35
3 162 163 164
3 42 23 2
3 53 23 42
3 53 12 23
3 25 53 7
3 54 53 25
3 54 12 53
3 54 52 12
3 165 52 166
3 167 166 54
3 165 166 167
3 169 168 52
3 170 8 171
3 172 8 173
3 174 45 175
3 176 175 8
3 174 175 176
3 177 45 178
3 180 179 45
3 55 181 182
3 55 183 185
3 183 3 184
3 183 184 185
3 56 186 187
3 56 188 189
3 27 56 9
3 57 56 27
3 57 190 192
3 192 191 56
3 190 191 192
3 57 193 195
3 193 55 194
3 193 194 195
3 58 55 57
3 58 3 55
3 58 34 3
3 59 34 58
3 59 14 34
3 29 59 13
3 60 59 29
3 60 14 59
3 60 61 14
3 48 61 60
3 48 0 61
3 62 196 197
3 62 198 199
3 31 200 202
3 200 62 201
3 200 201 202
3 63 62 31
3 63 203 205
3 205 204 62
3 203 204 205
3 63 206 207
3 64 208 210
3 210 209 63
3 208 209 210
3 64 211 212
3 64 213 215
3 213 37 214
3 213 214 215
3 65 37 64
3 65 4 37
3 33 65 15
3 66 65 33
3 66 4 65
3 66 16 4
3 61 16 66
3 61 0 16
3 49 18 0
3 67 18 49
3 67 5 18
3 36 67 11
3 68 67 36
3 68 5 67
3 68 40 5
3 69 40 68
3 69 1 40
3 216 69 217
3 218 69 219
3 220 1 221
3 222 221 69
3 220 221 222
3 224 223 1
