ply
format ascii 1.0
element vertex 226
property float x
property float y
property float z
element face 201
property list uchar int vertex_index
end_header
-21.739716 29.059074 60.244938
-16.339737 23.700584 68.508224
-9.753672 32.125088 71.574371
-2.601538 37.127972 70.066666
-19.069199 19.265789 66.411346
-5.918295 35.220776 71.541183
-18.979015 26.553875 64.127762
-15.874088 31.387791 65.689285
-13.327515 28.149254 70.435669
-12.397173 36.132339 67.072052
-8.473114 40.197601 67.637665
-4.612427 43.10981 66.965187
-0.521433 37.678719 66.979431
-20.009991 31.342178 60.491917
-17.708683 21.45089 67.437187
-19.081619 22.91803 65.385223
-17.643545 25.204079 66.264946
-17.450085 28.94339 64.883789
-16.173943 27.550526 67.192566
-11.607494 30.224201 71.132721
-12.922161 32.150352 68.830841
-11.089653 34.267361 69.382034
-10.472343 38.282745 67.487244
-9.149731 36.181381 69.676315
-4.141563 36.338036 70.999817
-5.271643 39.201405 69.32901
-3.546581 40.226154 68.613617
-2.099356 40.889591 67.49733
-1.380022 37.574467 68.72377
-20.484043 17.195877 65.501694
-17.683578 17.683998 68.411804
-8.418335 29.728127 73.621964
-7.825897 33.804474 71.721626
-6.537117 31.183224 73.596085
-4.736071 32.374043 73.218033
-20.548042 20.750362 64.629562
-20.516953 24.286842 63.505241
-20.345577 27.812 62.118172
-18.727467 30.182343 62.641491
-17.105663 32.676941 63.303822
-15.428228 35.217247 64.011841
-14.896956 25.954521 69.536682
-14.614008 29.889355 68.077042
-14.199728 33.810005 66.448448
-13.651785 37.716816 64.664703
-11.758228 40.09074 65.171082
-9.767183 42.261703 65.456726
-7.176311 37.840908 69.671295
-6.48431 41.821987 67.47728
-21.521989 30.785076 59.351376
-22.448349 29.718742 59.375641
-20.874854 30.200626 60.368427
-20.657127 31.926628 59.474865
-21.521989 30.785076 59.351376
-10.680583 31.174644 71.353546
-10.940517 29.133199 72.228192
-10.013606 30.083643 72.449016
-17.033701 16.828544 69.50325
-17.64999 15.799976 68.818237
-17.040565 18.761158 69.02412
-17.033701 16.828544 69.50325
-7.765019 28.418213 74.553196
-8.678947 27.67911 74.492268
-6.824409 29.145761 74.540256
-7.477726 30.455675 73.609025
-7.765019 28.418213 74.553196
-4.196452 30.855715 73.938
-5.025239 30.363409 74.237839
-3.930528 32.823164 72.838219
-4.196452 30.855715 73.938
-13.472205 26.142224 71.156327
-12.674119 27.156303 71.582618
-14.112236 27.051887 69.986176
-14.256925 25.044857 70.706833
-13.472205 26.142224 71.156327
-8.106044 42.179941 66.550278
-8.753078 43.211992 65.459809
-9.120148 41.229652 66.547196
-5.189296 44.42259 66.053097
-6.125237 43.778679 66.309143
-5.548369 42.465899 67.221233
-4.284221 45.02241 65.707622
-5.189296 44.42259 66.053097
-0.39643 39.3976 65.521248
-0.759869 39.43063 66.476013
-0.274823 37.569954 65.927376
-0.39643 39.3976 65.521248
-19.760233 33.119459 59.583077
-20.657127 31.926628 59.474865
-19.161769 32.580413 60.722597
-19.760233 33.119459 59.583077
-11.814108 28.193777 71.931145
-10.940517 29.133199 72.228192
-12.467505 29.186727 70.784195
-12.674119 27.156303 71.582618
-11.814108 28.193777 71.931145
-3.255684 42.12595 67.340126
-3.788607 43.567778 66.515911
-4.079504 41.667982 67.789402
-2.532071 42.457668 66.781982
-3.255684 42.12595 67.340126
-2.822968 40.557873 68.055474
-1.864347 42.719561 66.129456
-2.532071 42.457668 66.781982
-1.548831 41.036066 66.734962
-1.864347 42.719561 66.129456
-1.189164 39.378504 67.348183
-1.548831 41.036066 66.734962
-1.739689 39.232029 68.11055
-0.950728 37.626593 67.851601
-0.759869 39.43063 66.476013
-1.189164 39.378504 67.348183
-22.635963 28.036386 60.244947
-22.448349 29.718742 59.375641
-20.434448 15.413715 65.836377
-21.243567 16.23649 65.124775
-19.737699 16.397863 66.367699
-20.434448 15.413715 65.836377
-19.030276 17.43282 66.822525
-19.776621 18.230833 65.95652
-19.737699 16.397863 66.367699
-18.337466 16.641924 67.822754
-17.64999 15.799976 68.818237
-18.376389 18.474894 67.411575
-19.030276 17.43282 66.822525
-18.337466 16.641924 67.822754
-17.053117 20.644604 68.536811
-17.696131 19.567444 67.924496
-17.040565 18.761158 69.02412
-16.368645 21.769451 69.07233
-17.02421 22.575737 67.972705
-17.053117 20.644604 68.536811
-9.345937 28.885162 73.472813
-8.678947 27.67911 74.492268
-9.086004 30.926607 72.598168
-10.013606 30.083643 72.449016
-9.345937 28.885162 73.472813
-5.925762 29.768 74.426865
-6.824409 29.145761 74.540256
-5.636594 31.778633 73.407059
-5.925762 29.768 74.426865
-5.025239 30.363409 74.237839
-3.633274 34.80516 71.729111
-4.438817 34.35604 72.108925
-3.930528 32.823164 72.838219
-2.863262 35.200128 71.262535
-3.37155 36.733004 70.533242
-3.633274 34.80516 71.729111
-2.199161 35.49296 70.680176
-2.863262 35.200128 71.262535
-21.872635 27.342548 61.021527
-22.635963 28.036386 60.244947
-21.287954 17.969072 64.771679
-21.243567 16.23649 65.124775
-21.319954 19.746315 64.335613
-21.287954 17.969072 64.771679
-20.516042 18.973119 65.065628
-21.329656 21.471002 63.849007
-21.319954 19.746315 64.335613
-21.314111 23.239242 63.286846
-21.329656 21.471002 63.849007
-20.532497 22.518602 64.067402
-21.261254 24.956432 62.651678
-21.314111 23.239242 63.286846
-21.175565 26.719011 61.958144
-21.261254 24.956432 62.651678
-20.431265 26.049421 62.811706
-21.042647 28.435537 61.181555
-21.872635 27.342548 61.021527
-21.175565 26.719011 61.958144
-18.520507 32.000496 61.797384
-19.161769 32.580413 60.722597
-19.368729 30.762261 61.566704
-17.709605 33.247795 62.12855
-18.520507 32.000496 61.797384
-17.916565 31.429642 62.972656
-16.855978 34.546522 62.427443
-17.709605 33.247795 62.12855
-16.01726 35.816675 62.781453
-16.855978 34.546522 62.427443
-16.266945 33.947094 63.657832
-15.134366 37.131098 63.097324
-16.01726 35.816675 62.781453
-15.701327 22.854354 69.664562
-16.368645 21.769451 69.07233
-14.979937 23.981323 70.178791
-14.256925 25.044857 70.706833
-15.618346 24.827552 69.022453
-15.701327 22.854354 69.664562
-14.979937 23.981323 70.178791
-14.246144 38.380882 63.423755
-15.134366 37.131098 63.097324
-14.540007 36.467032 64.338272
-13.316358 39.663517 63.703958
-14.246144 38.380882 63.423755
-12.36958 40.850479 63.957148
-13.316358 39.663517 63.703958
-12.705006 38.903778 64.917892
-11.389605 42.055904 64.155159
-12.36958 40.850479 63.957148
-10.394082 43.141386 64.297981
-11.389605 42.055904 64.155159
-10.762705 41.176221 65.313904
-9.380007 44.228921 64.376013
-10.394082 43.141386 64.297981
-9.380007 44.228921 64.376013
-8.753078 43.211992 65.459809
-7.111642 42.992134 66.470085
-8.106044 42.179941 66.550278
-7.478712 41.009794 67.557472
-7.111642 42.992134 66.470085
-6.125237 43.778679 66.309143
-4.284221 45.02241 65.707622
-3.788607 43.567778 66.515911
-1.588402 35.716207 70.008728
-1.99078 37.351219 69.395218
-2.199161 35.49296 70.680176
-1.095884 35.849384 69.221741
-1.588402 35.716207 70.008728
-0.666589 35.901511 68.349571
-0.950728 37.626593 67.851601
-1.095884 35.849384 69.221741
-0.35517 35.880047 67.371048
-0.666589 35.901511 68.349571
-0.274823 37.569954 65.927376
-0.35517 35.880047 67.371048
3 0 49 50
3 0 51 53
3 51 13 52
3 51 52 53
3 1 16 14
3 1 18 16
3 2 54 56
3 54 19 55
3 54 55 56
3 2 21 19
3 2 23 21
3 3 26 24
3 3 27 26
3 3 28 27
3 57 30 58
3 60 59 30
3 61 31 62
3 63 33 64
3 65 64 31
3 63 64 65
3 66 34 67
3 69 68 34
3 4 35 29
3 6 36 15
3 6 37 36
3 6 38 37
3 7 39 17
3 7 40 39
3 8 70 71
3 8 72 74
3 72 41 73
3 72 73 74
3 8 42 41
3 9 43 20
3 9 44 43
3 9 45 44
3 10 46 22
3 10 75 77
3 77 76 46
3 75 76 77
3 5 47 32
3 11 48 25
3 11 78 80
3 80 79 48
3 78 79 80
3 11 81 82
3 12 83 84
3 12 85 86
3 13 87 88
3 13 89 90
3 14 15 4
3 16 15 14
3 16 6 15
3 16 17 6
3 18 17 16
3 18 7 17
3 19 91 92
3 19 93 95
3 93 8 94
3 93 94 95
3 19 20 8
3 21 20 19
3 21 9 20
3 21 22 9
3 23 22 21
3 23 10 22
3 24 25 5
3 26 25 24
3 26 11 25
3 26 96 98
3 98 97 11
3 96 97 98
3 27 99 101
3 101 100 26
3 99 100 101
3 27 102 103
3 27 104 105
3 28 106 108
3 108 107 27
3 106 107 108
3 28 109 111
3 109 12 110
3 109 110 111
3 112 0 113
3 114 29 115
3 116 29 117
3 118 4 119
3 120 119 29
3 118 119 120
3 30 121 122
3 30 123 125
3 123 4 124
3 123 124 125
3 30 14 4
3 126 14 127
3 128 127 30
3 126 127 128
3 129 1 130
3 131 130 14
3 129 130 131
3 31 132 133
3 31 134 136
3 134 2 135
3 134 135 136
3 31 32 2
3 33 32 31
3 33 5 32
3 137 33 138
3 34 139 141
3 139 33 140
3 139 140 141
3 34 5 33
3 34 24 5
3 142 24 143
3 144 143 34
3 142 143 144
3 145 3 146
3 147 146 24
3 145 146 147
3 149 148 3
3 150 0 151
3 29 152 153
3 35 154 156
3 156 155 29
3 154 155 156
3 35 157 158
3 15 35 4
3 36 35 15
3 36 159 161
3 161 160 35
3 159 160 161
3 36 162 163
3 37 164 166
3 166 165 36
3 164 165 166
3 37 167 169
3 167 0 168
3 167 168 169
3 37 13 0
3 38 13 37
3 38 170 172
3 172 171 13
3 170 171 172
3 17 38 6
3 39 38 17
3 39 173 175
3 175 174 38
3 173 174 175
3 39 176 177
3 40 178 180
3 180 179 39
3 178 179 180
3 40 181 182
3 183 1 184
3 41 185 186
3 41 187 189
3 187 1 188
3 187 188 189
3 41 18 1
3 42 18 41
3 42 7 18
3 20 42 8
3 43 42 20
3 43 7 42
3 43 40 7
3 44 40 43
3 44 190 192
3 192 191 40
3 190 191 192
3 44 193 194
3 45 195 197
3 197 196 44
3 195 196 197
3 45 198 199
3 22 45 9
3 46 45 22
3 46 200 202
3 202 201 45
3 200 201 202
3 46 203 204
3 206 205 46
3 32 23 2
3 47 23 32
3 47 10 23
3 25 47 5
3 48 47 25
3 48 10 47
3 48 207 209
3 209 208 10
3 207 208 209
3 211 210 48
3 213 212 11
3 214 28 215
3 216 215 3
3 214 215 216
3 217 28 218
3 219 12 220
3 221 220 28
3 219 220 221
3 222 12 223
3 225 224 12
