ply
format ascii 1.0
element vertex 266
property float x
property float y
property float z
element face 260
property list uchar int vertex_index
end_header
-60.642788 -63.421463 19.423527
-65.070038 -61.299072 27.080452
-65.698174 -55.170097 35.143204
-64.958023 -54.874928 25.195692
-64.36425 -60.343681 18.044706
-62.515511 -64.12191 28.2085
-64.190536 -61.810215 32.215405
-65.950912 -50.591415 38.000122
-65.038635 -51.634842 33.492805
-65.364182 -55.538822 30.221212
-63.648396 -51.998089 28.799236
-59.798553 -65.528442 24.570393
-63.436756 -62.712727 23.093357
-65.873596 -59.72765 21.981937
-65.512276 -54.186073 39.878616
-65.613403 -58.809765 31.271404
-65.975426 -58.233406 26.163055
-66.392212 -56.443417 21.081524
-64.363174 -51.925995 31.16711
-58.53944 -64.931549 20.251564
-59.021229 -63.711575 17.657492
-57.823223 -66.964432 25.459406
-59.443104 -66.318321 27.148487
-63.955669 -62.729008 27.604311
-62.977364 -63.533939 25.646458
-64.412735 -62.124676 25.044468
-64.860855 -61.255527 22.498486
-65.47374 -60.658653 24.522202
-65.780334 -52.973793 36.736626
-65.857132 -52.406948 39.023064
-65.694626 -54.725719 37.543098
-65.303246 -56.427383 38.217175
-65.547974 -56.846283 35.776085
-65.371483 -58.725704 33.809441
-65.666786 -57.127411 33.291569
-65.142014 -55.355576 27.717484
-65.694489 -57.045113 28.245602
-65.696167 -56.585705 25.702656
-66.16375 -57.496689 23.612656
-65.744522 -55.81049 23.160635
-62.623875 -61.904076 18.687185
-61.133259 -62.113297 16.871899
-63.105804 -60.494694 16.176878
-60.865051 -65.513603 28.912174
-63.479687 -63.093437 30.171515
-64.647675 -61.670269 29.647301
-65.593262 -51.172291 35.773689
-65.511551 -53.43195 34.390152
-65.569382 -55.460339 32.698902
-65.1129 -53.724125 31.998497
-64.654434 -53.796719 29.568737
-64.206108 -53.605637 27.105366
-56.097221 -67.524231 23.805439
-58.140762 -66.017975 22.855463
-60.19677 -64.563034 21.993515
-61.280693 -64.918869 26.34479
-61.708969 -64.12471 23.781719
-62.156273 -63.1194 21.226412
-63.898987 -61.647148 20.555872
-65.257355 -51.165092 43.291458
-66.048508 -49.946175 40.150581
-65.693466 -51.787254 41.222103
-65.117599 -53.606079 42.116234
-65.096863 -60.337288 31.737675
-65.445549 -60.200043 29.174616
-65.70015 -57.211727 30.778238
-65.802917 -58.661163 28.719522
-65.762794 -59.804951 26.610683
-66.07309 -59.116806 24.055218
-66.396606 -58.120522 21.519844
-62.971756 -51.813618 26.390144
-63.828972 -53.121742 24.614639
-64.855438 -54.080704 22.667042
-65.865791 -54.719177 20.633848
-59.281212 -66.629536 28.437763
-58.508871 -67.043804 27.60418
-63.835111 -62.451826 31.19346
-63.227339 -63.174244 31.456264
-63.582763 -62.532633 32.478209
-65.315948 -51.403566 34.633247
-65.391255 -50.249205 35.208524
-65.113941 -50.48048 34.068083
-60.354803 -62.24189 15.980289
-61.394331 -61.385893 15.613157
-55.990451 -67.996384 25.124593
-55.125912 -68.319218 24.319515
-65.590217 -59.921242 20.978982
-65.083847 -60.685181 21.237257
-65.367226 -60.491588 22.240212
-66.076271 -59.117018 20.726808
-65.590217 -59.921242 20.978982
-65.549141 -50.226247 42.740246
-65.280365 -49.912261 43.678623
-65.99971 -50.268795 39.075351
-66.126312 -49.016407 39.522003
-66.077515 -49.339027 38.446773
-65.207028 -55.057144 40.234165
-65.009689 -54.767147 41.352974
-65.314937 -53.896076 40.997425
-64.955578 -57.255783 38.504897
-65.174031 -57.446041 37.26985
-66.568458 -56.634005 20.049939
-66.570656 -57.472558 20.269099
-66.394409 -57.28197 21.300684
-62.684634 -51.581385 25.166964
-62.251683 -50.906208 25.979256
-63.113242 -52.235447 24.279212
-63.400364 -52.46768 25.502392
-62.684634 -51.581385 25.166964
-64.857769 -53.529486 21.406875
-64.211525 -53.207566 22.387158
-65.362945 -53.848723 20.390278
-65.360614 -54.39994 21.650445
-64.857769 -53.529486 21.406875
-64.594944 -59.585241 16.809075
-65.057732 -59.530265 17.767136
-63.937683 -61.788191 33.496008
-63.582763 -62.532633 32.478209
-64.694195 -50.710769 32.966701
-65.113941 -50.48048 34.068083
-64.356464 -50.856346 31.803854
-64.700905 -51.780418 32.329957
-64.694195 -50.710769 32.966701
-63.882416 -51.001938 30.681331
-64.356464 -50.856346 31.803854
-63.525026 -51.037985 29.497394
-64.005785 -51.962042 29.983173
-63.882416 -51.001938 30.681331
-57.709265 -65.128799 19.388453
-57.482489 -65.702973 20.707353
-57.950159 -64.518812 18.091417
-57.709265 -65.128799 19.388453
-58.780334 -64.321562 18.954528
-58.237532 -63.899305 16.782112
-57.950159 -64.518812 18.091417
-57.698931 -67.36686 26.759639
-56.853453 -67.716484 25.951577
-58.633163 -66.641377 26.303947
-57.698931 -67.36686 26.759639
-58.508871 -67.043804 27.60418
-65.296394 -57.655491 36.049305
-65.174031 -57.446041 37.26985
-65.42561 -56.636833 36.99663
-65.459728 -57.785994 34.792763
-65.208149 -58.595202 35.065983
-65.296394 -57.655491 36.049305
-62.380603 -60.576592 15.265647
-61.394331 -61.385893 15.613157
-62.119532 -61.303995 16.524389
-63.965721 -59.660747 15.875161
-63.735027 -60.419187 17.110792
-64.594944 -59.585241 16.809075
-63.346991 -59.707585 14.943897
-63.965721 -59.660747 15.875161
-62.380603 -60.576592 15.265647
-63.346991 -59.707585 14.943897
-60.659115 -65.721294 30.19765
-59.992186 -66.227176 29.319606
-61.454347 -65.007442 29.844148
-60.659115 -65.721294 30.19765
-62.279578 -64.311596 29.492311
-61.690281 -64.817757 28.560337
-61.454347 -65.007442 29.844148
-62.761665 -63.797359 30.473819
-63.227339 -63.174244 31.456264
-62.997599 -63.607674 29.190008
-62.279578 -64.311596 29.492311
-62.761665 -63.797359 30.473819
-65.891784 -49.667182 37.399856
-66.077515 -49.339027 38.446773
-65.712959 -49.957621 36.28664
-65.391255 -50.249205 35.208524
-65.772087 -50.881853 36.886905
-65.891784 -49.667182 37.399856
-65.712959 -49.957621 36.28664
-59.298788 -63.041029 16.373085
-60.077244 -62.912436 17.264696
-60.354803 -62.24189 15.980289
-58.237532 -63.899305 16.782112
-59.298788 -63.041029 16.373085
-55.246856 -67.805206 22.976211
-55.125912 -68.319218 24.319515
-56.261379 -66.999313 22.484291
-55.246856 -67.805206 22.976211
-56.960222 -67.244332 24.632423
-55.990451 -67.996384 25.124593
-56.853453 -67.716484 25.951577
-57.28315 -66.246185 22.009303
-56.261379 -66.999313 22.484291
-57.118991 -66.771103 23.330451
-58.340101 -65.474762 21.553514
-57.482489 -65.702973 20.707353
-57.28315 -66.246185 22.009303
-60.154077 -65.915962 28.03033
-59.281212 -66.629536 28.437763
-59.992186 -66.227176 29.319606
-64.602913 -60.880991 20.265949
-64.379921 -61.451338 21.527179
-65.083847 -60.685181 21.237257
-64.835544 -60.229258 19.010366
-64.131619 -60.995414 19.300289
-64.602913 -60.880991 20.265949
-65.057732 -59.530265 17.767136
-64.835544 -60.229258 19.010366
-64.895676 -50.873648 44.233425
-65.280365 -49.912261 43.678623
-64.874085 -52.099045 43.749184
-64.895676 -50.873648 44.233425
-66.147316 -48.676022 40.522535
-66.126312 -49.016407 39.522003
-65.944717 -49.616789 41.169808
-66.147316 -48.676022 40.522535
-65.767196 -50.537329 41.705568
-65.944717 -49.616789 41.169808
-65.870987 -50.866715 40.686342
-65.475411 -51.476173 42.25678
-65.549141 -50.226247 42.740246
-65.767196 -50.537329 41.705568
-64.804206 -53.319538 43.161572
-64.874085 -52.099045 43.749184
-65.187477 -52.385586 42.703846
-64.720512 -54.502993 42.484951
-64.804206 -53.319538 43.161572
-64.720512 -54.502993 42.484951
-65.009689 -54.767147 41.352974
-65.102513 -56.177799 39.403444
-65.207028 -55.057144 40.234165
-65.407761 -55.306728 39.047895
-65.102513 -56.177799 39.403444
-64.955578 -57.255783 38.504897
-64.441734 -61.037739 33.253203
-63.937683 -61.788191 33.496008
-65.032207 -59.495483 34.05022
-65.208149 -58.595202 35.065983
-64.894897 -60.301276 33.014337
-65.032207 -59.495483 34.05022
-65.234173 -59.531496 32.773558
-64.643699 -61.073752 31.97654
-64.441734 -61.037739 33.253203
-64.894897 -60.301276 33.014337
-66.337776 -58.313454 20.495762
-66.076271 -59.117018 20.726808
-66.135101 -58.924086 21.75089
-66.337776 -58.313454 20.495762
-66.570656 -57.472558 20.269099
-63.041628 -51.07855 28.35255
-63.525026 -51.037985 29.497394
-62.703308 -50.986315 27.148004
-62.251683 -50.906208 25.979256
-63.310076 -51.905853 27.59469
-63.041628 -51.07855 28.35255
-62.703308 -50.986315 27.148004
-63.698292 -52.728084 23.360956
-63.113242 -52.235447 24.279212
-64.342205 -53.601223 23.64084
-63.698292 -52.728084 23.360956
-64.211525 -53.207566 22.387158
-65.967747 -54.02648 19.386451
-65.362945 -53.848723 20.390278
-66.269077 -54.904492 19.609391
-65.967747 -54.02648 19.386451
-66.532287 -55.766611 19.833229
-66.129002 -55.581297 20.857686
-66.269077 -54.904492 19.609391
-66.568458 -56.634005 20.049939
-66.532287 -55.766611 19.833229
3 0 20 19
3 74 22 75
3 1 25 23
3 1 27 25
3 2 30 28
3 2 32 30
3 2 34 32
3 3 37 35
3 3 39 37
3 4 42 40
3 6 76 78
3 76 44 77
3 76 77 78
3 6 45 44
3 8 79 81
3 79 46 80
3 79 80 81
3 8 47 46
3 8 49 47
3 10 50 18
3 10 51 50
3 83 82 41
3 84 52 85
3 11 53 21
3 11 54 53
3 5 55 43
3 12 56 24
3 12 57 56
3 12 58 57
3 13 86 88
3 88 87 26
3 86 87 88
3 13 89 90
3 91 59 92
3 7 93 95
3 93 60 94
3 93 94 95
3 14 61 29
3 14 62 61
3 14 96 98
3 98 97 62
3 96 97 98
3 100 99 31
3 15 63 33
3 15 64 63
3 9 65 48
3 16 66 36
3 16 67 66
3 16 68 67
3 17 69 38
3 17 101 103
3 103 102 69
3 101 102 103
3 104 70 105
3 106 71 107
3 108 107 70
3 106 107 108
3 109 72 110
3 111 73 112
3 113 112 72
3 111 112 113
3 115 114 4
3 116 6 117
3 118 8 119
3 120 18 121
3 122 121 8
3 120 121 122
3 123 18 124
3 125 10 126
3 127 126 18
3 125 126 127
3 19 128 129
3 20 130 132
3 132 131 19
3 130 131 132
3 20 133 134
3 135 21 136
3 22 137 139
3 137 21 138
3 137 138 139
3 22 11 21
3 23 24 5
3 25 24 23
3 25 12 24
3 25 26 12
3 27 26 25
3 27 13 26
3 28 29 7
3 30 29 28
3 30 14 29
3 30 31 14
3 32 31 30
3 32 140 142
3 142 141 31
3 140 141 142
3 32 143 145
3 143 33 144
3 143 144 145
3 34 33 32
3 34 15 33
3 35 36 9
3 37 36 35
3 37 16 36
3 37 38 16
3 39 38 37
3 39 17 38
3 40 41 0
3 42 41 40
3 42 146 148
3 148 147 41
3 146 147 148
3 149 42 150
3 151 150 4
3 149 150 151
3 152 42 153
3 155 154 42
3 156 43 157
3 158 43 159
3 160 5 161
3 162 161 43
3 160 161 162
3 44 163 164
3 44 165 167
3 165 5 166
3 165 166 167
3 44 23 5
3 45 23 44
3 45 1 23
3 168 7 169
3 46 170 171
3 46 172 174
3 172 7 173
3 172 173 174
3 46 28 7
3 47 28 46
3 47 2 28
3 47 48 2
3 49 48 47
3 49 9 48
3 18 49 8
3 50 49 18
3 50 9 49
3 50 35 9
3 51 35 50
3 51 3 35
3 41 20 0
3 175 20 176
3 177 176 41
3 175 176 177
3 179 178 20
3 52 180 181
3 52 182 183
3 21 184 186
3 184 52 185
3 184 185 186
3 53 52 21
3 53 187 189
3 189 188 52
3 187 188 189
3 53 190 192
3 190 19 191
3 190 191 192
3 54 19 53
3 54 0 19
3 43 193 195
3 193 22 194
3 193 194 195
3 55 22 43
3 55 11 22
3 24 55 5
3 56 55 24
3 56 11 55
3 56 54 11
3 57 54 56
3 57 0 54
3 57 40 0
3 58 40 57
3 58 4 40
3 26 58 12
3 196 58 197
3 198 197 26
3 196 197 198
3 199 4 200
3 201 200 58
3 199 200 201
3 203 202 4
3 59 204 205
3 59 206 207
3 60 208 209
3 60 210 211
3 29 60 7
3 61 60 29
3 61 212 214
3 214 213 60
3 212 213 214
3 61 215 217
3 215 59 216
3 215 216 217
3 62 59 61
3 62 218 220
3 220 219 59
3 218 219 220
3 62 221 222
3 224 223 62
3 31 225 227
3 227 226 14
3 225 226 227
3 229 228 31
3 230 6 231
3 33 232 233
3 63 234 236
3 236 235 33
3 234 235 236
3 63 237 239
3 237 6 238
3 237 238 239
3 63 45 6
3 64 45 63
3 64 1 45
3 48 34 2
3 65 34 48
3 65 15 34
3 36 65 9
3 66 65 36
3 66 15 65
3 66 64 15
3 67 64 66
3 67 1 64
3 67 27 1
3 68 27 67
3 68 13 27
3 38 68 16
3 69 68 38
3 69 13 68
3 69 240 242
3 242 241 13
3 240 241 242
3 244 243 69
3 245 10 246
3 70 247 248
3 70 249 251
3 249 10 250
3 249 250 251
3 70 51 10
3 71 51 70
3 71 3 51
3 252 71 253
3 72 254 256
3 254 71 255
3 254 255 256
3 72 3 71
3 72 39 3
3 73 39 72
3 73 17 39
3 257 73 258
3 259 73 260
3 261 17 262
3 263 262 73
3 261 262 263
3 265 264 17
