ply
format ascii 1.0
element vertex 284
property float x
property float y
property float z
element face 261
property list uchar int vertex_index
end_header
-66.69062 -57.017818 17.005142
-68.119522 -49.338448 7.818119
-65.200333 -49.96154 15.206806
-66.627396 -41.850899 6.249184
-67.883591 -32.648102 -1.001509
-67.489502 -53.41687 12.256681
-57.647255 -46.355511 17.639103
-61.710487 -49.565384 18.985971
-61.684921 -46.745647 14.082792
-65.858963 -46.143791 10.53319
-64.877808 -37.447643 -7.307131
-67.001472 -53.472652 16.138891
-67.737213 -49.653091 11.456398
-68.407158 -45.393654 7.117518
-68.828156 -40.980148 3.137252
-67.343163 -37.306404 2.407663
-68.889 -36.536247 -0.521688
-68.535706 -32.106461 -3.90193
-65.751213 -58.71685 17.489567
-66.186523 -57.095181 15.052882
-67.099838 -55.303692 14.5961
-59.531906 -46.724594 15.884889
-61.882935 -45.01265 11.719297
-63.46701 -49.897987 17.111292
-64.978577 -51.592381 17.653204
-66.069702 -53.333782 18.139055
-66.349739 -51.693802 15.694047
-67.364304 -51.642185 13.758503
-66.686615 -49.848503 13.315897
-66.241302 -44.040092 8.337446
-67.423576 -45.739571 8.814598
-67.770943 -43.557884 6.707952
-68.657425 -43.195221 5.08423
-68.076141 -41.330105 4.700514
-67.643661 -34.984245 0.651734
-68.50238 -36.801796 0.972343
-68.599449 -34.52227 -0.757822
-68.7659 -34.316307 -2.244364
-68.602737 -32.245731 -2.407114
-67.837311 -51.412212 9.995836
-59.747189 -47.933064 18.320854
-61.620197 -48.27282 16.514484
-63.617535 -48.306499 14.666769
-65.502991 -48.130585 12.827556
-63.874081 -46.515076 12.289627
-64.210312 -44.560196 10.001756
-64.602325 -42.474281 7.821025
-68.041397 -30.3146 -2.563416
-67.127243 -34.565872 -5.497042
-65.306839 -60.114834 19.976027
-66.278946 -58.506386 19.47168
-66.744705 -56.824593 19.018354
-66.672363 -55.089806 18.584934
-67.117264 -55.259956 16.565498
-67.502815 -53.474194 14.175362
-67.88121 -51.522808 11.859791
-68.22773 -49.460136 9.627041
-67.053848 -47.848598 11.0192
-68.093346 -47.556343 9.241371
-68.517464 -47.332306 7.4808
-68.728668 -45.173378 5.419901
-68.844711 -43.004726 3.439063
-68.854553 -40.836693 1.530687
-66.999542 -39.60025 4.272516
-68.324043 -39.074127 2.790046
-68.907974 -38.758816 1.270571
-68.752579 -38.671745 -0.31278
-68.538231 -36.508499 -2.096827
-68.216118 -34.34668 -3.823967
-67.795304 -49.339264 6.91905
-67.690964 -50.356938 7.988421
-68.216972 -48.285677 6.770577
-67.795304 -49.339264 6.91905
-67.763626 -33.816174 -0.174887
-67.010818 -34.149696 0.498685
-67.130783 -32.981625 -0.327936
-67.226715 -53.395457 11.317781
-67.043571 -54.35687 12.467896
-67.663407 -52.414541 11.126259
-67.40062 -52.393127 10.187358
-67.226715 -53.395457 11.317781
-56.935858 -45.964603 18.453147
-56.570816 -45.587332 17.316483
-57.930988 -46.785112 18.825751
-56.935858 -45.964603 18.453147
-58.697222 -47.144288 17.979979
-58.980956 -47.573889 19.166627
-57.930988 -46.785112 18.825751
-63.200962 -43.831306 9.726223
-63.046624 -44.786423 10.860526
-62.037273 -44.057534 10.584994
-63.396968 -42.788349 8.635858
-64.406318 -43.517238 8.91139
-63.200962 -43.831306 9.726223
-67.360394 -35.627043 -4.627909
-66.704655 -35.794563 -5.498843
-65.590217 -59.921242 20.978982
-65.083847 -60.685181 21.237257
-66.076271 -59.117018 20.726808
-65.792892 -59.31061 19.723853
-65.590217 -59.921242 20.978982
-66.568458 -56.634005 20.049939
-66.570656 -57.472558 20.269099
-61.840189 -50.081299 20.228034
-60.933228 -49.226627 19.874246
-66.4118 -37.660755 3.117182
-66.639462 -36.495922 2.215268
-67.171353 -38.453327 3.34009
-66.23999 -38.807678 4.049608
-66.4118 -37.660755 3.117182
-68.166096 -32.14959 -4.698059
-68.006302 -33.2697 -4.659078
-68.375912 -33.226571 -3.862948
-68.270203 -30.150954 -3.274499
-68.066876 -29.159929 -3.308419
-64.265806 -37.669412 -8.232617
-64.484566 -38.744545 -7.310786
-65.288426 -58.771826 16.531506
-65.057732 -59.530265 17.767136
-65.50608 -57.960991 15.313163
-65.288426 -58.771826 16.531506
-65.968868 -57.906015 16.271225
-65.727688 -57.115223 14.104689
-65.50608 -57.960991 15.313163
-66.392082 -56.196026 13.865996
-65.727688 -57.115223 14.104689
-66.848739 -55.300281 13.637605
-66.392082 -56.196026 13.865996
-66.64318 -56.199436 14.824491
-67.29467 -54.360281 13.426391
-67.043571 -54.35687 12.467896
-66.848739 -55.300281 13.637605
-57.472222 -45.800297 16.452281
-56.570816 -45.587332 17.316483
-58.414547 -45.984839 15.575174
-58.58958 -46.540053 16.761996
-57.472222 -45.800297 16.452281
-59.514988 -46.001839 14.685249
-58.414547 -45.984839 15.575174
-60.591496 -46.012365 13.784201
-60.608413 -46.735121 14.98384
-59.514988 -46.001839 14.685249
-60.690503 -45.145866 12.602453
-61.783928 -45.879148 12.901044
-60.591496 -46.012365 13.784201
-60.755579 -44.314435 11.437661
-60.690503 -45.145866 12.602453
-62.037273 -44.057534 10.584994
-60.755579 -44.314435 11.437661
-63.456455 -50.574944 18.355286
-62.578193 -50.408642 19.292625
-62.588749 -49.731685 18.048631
-64.212238 -51.42214 18.626241
-63.456455 -50.574944 18.355286
-64.222793 -50.745184 17.382248
-64.919339 -52.285325 18.899956
-64.212238 -51.42214 18.626241
-65.52414 -52.463082 17.89613
-65.464901 -53.156025 19.142882
-64.919339 -52.285325 18.899956
-66.78971 -35.334843 1.337303
-67.010818 -34.149696 0.498685
-67.493412 -36.145325 1.529698
-66.639462 -36.495922 2.215268
-66.78971 -35.334843 1.337303
-64.622452 -36.369551 -8.19089
-65.314003 -36.177026 -7.279975
-67.549858 -51.393819 9.07728
-67.40062 -52.393127 10.187358
-67.978417 -50.37533 8.906977
-67.690964 -50.356938 7.988421
-67.549858 -51.393819 9.07728
-59.951578 -48.410467 19.541688
-58.980956 -47.573889 19.166627
-60.728838 -48.749224 18.653413
-60.933228 -49.226627 19.874246
-59.951578 -48.410467 19.541688
-67.33265 -31.786185 -1.108206
-67.130783 -32.981625 -0.327936
-67.411552 -30.619433 -1.88916
-67.962494 -31.481351 -1.782463
-67.33265 -31.786185 -1.108206
-67.578003 -29.424879 -2.620718
-67.411552 -30.619433 -1.88916
-68.066876 -29.159929 -3.308419
-67.578003 -29.424879 -2.620718
-65.124443 -38.495331 -6.396813
-64.484566 -38.744545 -7.310786
-65.579937 -37.235449 -6.403888
-65.124443 -38.495331 -6.396813
-65.314003 -36.177026 -7.279975
-65.579937 -37.235449 -6.403888
-66.438721 -34.736141 -6.37493
-66.704655 -35.794563 -5.498843
-66.86097 -33.502765 -6.337546
-66.438721 -34.736141 -6.37493
-64.602913 -60.880991 20.265949
-65.083847 -60.685181 21.237257
-64.835544 -60.229258 19.010366
-64.602913 -60.880991 20.265949
-65.529026 -59.415842 18.732797
-65.057732 -59.530265 17.767136
-64.835544 -60.229258 19.010366
-66.337776 -58.313454 20.495762
-66.076271 -59.117018 20.726808
-66.511826 -57.665489 19.245017
-66.337776 -58.313454 20.495762
-66.570656 -57.472558 20.269099
-61.840189 -50.081299 20.228034
-62.578193 -50.408642 19.292625
-65.967747 -54.02648 19.386451
-65.362945 -53.848723 20.390278
-65.464901 -53.156025 19.142882
-66.269077 -54.904492 19.609391
-65.967747 -54.02648 19.386451
-66.371033 -54.211794 18.361995
-66.532287 -55.766611 19.833229
-66.269077 -54.904492 19.609391
-66.708534 -55.9572 18.801644
-66.568458 -56.634005 20.049939
-66.532287 -55.766611 19.833229
-68.415943 -47.282606 6.601918
-68.216972 -48.285677 6.770577
-68.318493 -48.335377 7.64946
-68.521546 -46.203142 5.571468
-68.415943 -47.282606 6.601918
-68.623066 -46.252842 6.450351
-68.566738 -45.14648 4.562618
-68.521546 -46.203142 5.571468
-68.62476 -44.062154 3.572199
-68.566738 -45.14648 4.562618
-68.786689 -44.089052 4.429482
-68.611999 -43.007295 2.597773
-68.62476 -44.062154 3.572199
-68.61692 -41.923279 1.643585
-68.611999 -43.007295 2.597773
-68.849632 -41.92071 2.484875
-68.543762 -40.870891 0.698906
-68.61692 -41.923279 1.643585
-63.596958 -41.758129 7.560291
-63.396968 -42.788349 8.635858
-64.816604 -41.379562 6.790608
-63.596958 -41.758129 7.560291
-65.82914 -41.067871 6.004688
-65.61486 -42.16259 7.035104
-64.816604 -41.379562 6.790608
-66.015213 -39.942547 5.016354
-66.23999 -38.807678 4.049608
-66.813469 -40.725575 5.26085
-65.82914 -41.067871 6.004688
-66.015213 -39.942547 5.016354
-68.492775 -39.788418 -0.222827
-68.543762 -40.870891 0.698906
-68.803566 -39.754219 0.608953
-68.360245 -38.735965 -1.141474
-68.492775 -39.788418 -0.222827
-68.253071 -37.654342 -2.033497
-68.360245 -38.735965 -1.141474
-68.645405 -37.590122 -1.204804
-68.065888 -36.598356 -2.927802
-68.253071 -37.654342 -2.033497
-67.904831 -35.517446 -3.791372
-68.065888 -36.598356 -2.927802
-68.377174 -35.427589 -2.960397
-67.671681 -34.456276 -4.660505
-67.360394 -35.627043 -4.627909
-67.904831 -35.517446 -3.791372
-67.461865 -33.379295 -5.495615
-67.671681 -34.456276 -4.660505
-68.006302 -33.2697 -4.659078
-66.86097 -33.502765 -6.337546
-67.461865 -33.379295 -5.495615
-68.550872 -31.11652 -3.196348
-68.322067 -31.280165 -2.485265
-68.270203 -30.150954 -3.274499
-68.517357 -31.046885 -3.943756
-68.569221 -32.176096 -3.154522
-68.550872 -31.11652 -3.196348
-68.367111 -31.014664 -4.701169
-68.517357 -31.046885 -3.943756
-68.166096 -32.14959 -4.698059
-68.367111 -31.014664 -4.701169
-64.265806 -37.669412 -8.232617
-64.622452 -36.369551 -8.19089
3 0 19 18
3 0 20 19
3 1 69 70
3 1 71 72
3 2 24 23
3 2 26 24
3 2 28 26
3 3 31 29
3 3 33 31
3 4 73 75
3 73 34 74
3 73 74 75
3 4 36 34
3 4 38 36
3 5 76 77
3 5 78 80
3 78 39 79
3 78 79 80
3 6 81 82
3 6 83 84
3 6 85 87
3 85 40 86
3 85 86 87
3 8 41 21
3 8 42 41
3 8 44 42
3 88 45 89
3 90 89 22
3 88 89 90
3 91 46 92
3 93 92 45
3 91 92 93
3 94 48 95
3 96 49 97
3 98 50 99
3 100 99 49
3 98 99 100
3 101 51 102
3 7 103 104
3 11 52 25
3 11 53 52
3 11 54 53
3 12 55 27
3 12 56 55
3 9 57 43
3 13 58 30
3 13 59 58
3 13 60 59
3 14 61 32
3 14 62 61
3 15 105 106
3 15 107 109
3 107 63 108
3 107 108 109
3 15 64 63
3 16 65 35
3 16 66 65
3 16 67 66
3 17 68 37
3 17 110 112
3 112 111 68
3 110 111 112
3 114 113 47
3 10 115 116
3 18 117 118
3 19 119 121
3 121 120 18
3 119 120 121
3 19 122 123
3 19 124 125
3 20 126 128
3 128 127 19
3 126 127 128
3 20 129 131
3 129 5 130
3 129 130 131
3 132 6 133
3 134 21 135
3 136 135 6
3 134 135 136
3 137 21 138
3 139 8 140
3 141 140 21
3 139 140 141
3 142 22 143
3 144 143 8
3 142 143 144
3 145 22 146
3 148 147 22
3 23 149 151
3 151 150 7
3 149 150 151
3 24 152 154
3 154 153 23
3 152 153 154
3 24 155 156
3 24 157 159
3 157 25 158
3 157 158 159
3 26 25 24
3 26 11 25
3 26 27 11
3 28 27 26
3 28 12 27
3 29 30 9
3 31 30 29
3 31 13 30
3 31 32 13
3 33 32 31
3 33 14 32
3 34 160 161
3 34 162 164
3 162 15 163
3 162 163 164
3 34 35 15
3 36 35 34
3 36 16 35
3 36 37 16
3 38 37 36
3 38 17 37
3 166 165 10
3 39 167 168
3 39 169 171
3 169 1 170
3 169 170 171
3 40 172 173
3 40 174 176
3 174 7 175
3 174 175 176
3 21 40 6
3 41 40 21
3 41 7 40
3 41 23 7
3 42 23 41
3 42 2 23
3 42 43 2
3 44 43 42
3 44 9 43
3 22 44 8
3 45 44 22
3 45 9 44
3 45 29 9
3 46 29 45
3 46 3 29
3 177 4 178
3 179 47 180
3 181 180 4
3 179 180 181
3 182 47 183
3 185 184 47
3 186 10 187
3 188 10 189
3 191 190 10
3 48 192 193
3 48 194 195
3 49 196 197
3 49 198 199
3 49 200 202
3 200 18 201
3 200 201 202
3 50 18 49
3 50 0 18
3 203 50 204
3 51 205 207
3 205 50 206
3 205 206 207
3 51 0 50
3 209 208 7
3 25 210 212
3 210 211 212
3 52 213 215
3 215 214 25
3 213 214 215
3 52 216 217
3 52 218 220
3 218 51 219
3 218 219 220
3 53 51 52
3 53 0 51
3 53 20 0
3 54 20 53
3 54 5 20
3 27 54 11
3 55 54 27
3 55 5 54
3 55 39 5
3 56 39 55
3 56 1 39
3 43 28 2
3 57 28 43
3 57 12 28
3 30 57 9
3 58 57 30
3 58 12 57
3 58 56 12
3 59 56 58
3 59 1 56
3 59 221 223
3 223 222 1
3 221 222 223
3 60 224 226
3 226 225 59
3 224 225 226
3 60 227 228
3 32 60 13
3 61 60 32
3 61 229 231
3 231 230 60
3 229 230 231
3 61 232 233
3 62 234 236
3 236 235 61
3 234 235 236
3 62 237 238
3 239 46 240
3 241 46 242
3 243 3 244
3 245 244 46
3 243 244 245
3 63 246 247
3 63 248 250
3 248 3 249
3 248 249 250
3 63 33 3
3 64 33 63
3 64 14 33
3 35 64 15
3 65 64 35
3 65 14 64
3 65 62 14
3 66 62 65
3 66 251 253
3 253 252 62
3 251 252 253
3 66 254 255
3 67 256 258
3 258 257 66
3 256 257 258
3 67 259 260
3 37 67 16
3 68 67 37
3 68 261 263
3 263 262 67
3 261 262 263
3 68 264 266
3 264 48 265
3 264 265 266
3 267 48 268
3 269 268 68
3 267 268 269
3 271 270 48
3 47 38 4
3 272 38 273
3 274 273 47
3 272 273 274
3 275 17 276
3 277 276 38
3 275 276 277
3 278 17 279
3 281 280 17
3 283 282 10
