ply
format ascii 1.0
element vertex 237
property float x
property float y
property float z
element face 232
property list uchar int vertex_index
end_header
-4.963737 -52.043228 87.932472
-1.919603 -44.160847 75.113373
-0.375378 -44.263664 84.75959
-4.942215 -48.348068 67.063629
-1.333529 -38.49987 72.62413
0.218931 -38.837097 77.934677
-1.184616 -43.672943 87.842148
-2.449722 -48.562458 86.74263
-2.098106 -49.157444 82.861549
-3.752539 -53.187523 84.982323
-3.594545 -43.679371 69.688705
-3.72529 -48.946594 72.543839
0.625574 -38.880646 86.464256
0.976744 -38.979362 82.75676
-0.713139 -44.379181 80.299782
-2.635521 -49.229439 77.938477
1.036922 -35.948799 79.466911
-4.421097 -49.691353 88.591003
-3.021139 -48.025612 88.097595
-3.671894 -50.381912 87.493988
-3.167683 -50.902809 85.953239
-4.2495 -52.703026 86.667641
-1.603792 -41.395817 73.809875
-2.504894 -41.15744 71.103897
-2.72681 -43.954971 72.409386
-3.688139 -46.383614 71.083611
-2.942181 -46.614162 73.813126
-0.626741 -44.034378 86.512642
-0.155285 -41.425774 87.144547
0.278706 -41.635021 85.634766
0.954601 -38.965988 84.793289
0.401817 -41.739632 83.729118
0.236353 -41.753822 81.511536
-0.414347 -44.372353 82.659943
-2.85807 -51.454163 81.798149
-2.273895 -49.246979 80.490662
-3.003658 -51.523983 79.339188
-3.299818 -51.489166 76.725128
-5.154104 -45.666946 65.654404
-5.452232 -47.896492 64.382317
-0.480776 -38.694561 75.309242
-0.812126 -41.572884 76.480804
-2.048244 -43.179878 88.694786
-2.435787 -45.627964 88.490242
-1.739935 -46.156586 87.365768
-1.337088 -46.534561 85.793701
-1.218245 -46.766567 83.840187
-2.1472 -48.936272 84.972832
-2.902626 -51.255054 84.029266
-4.458509 -43.31678 66.983124
-4.447023 -46.074219 68.353256
-4.346598 -48.691544 69.795929
-4.156481 -51.16861 71.264305
0.596031 -36.020557 87.227692
1.155159 -36.06591 85.826797
1.401279 -36.063332 84.011337
1.351774 -36.022186 81.862129
0.719082 -38.933132 80.441963
-0.182678 -41.69392 79.069199
-1.23081 -44.303841 77.761215
-1.359503 -46.869247 81.586937
-1.724775 -46.865116 79.117477
-2.269249 -46.775482 76.506241
-3.136505 -49.125572 75.271881
-3.700663 -51.368149 74.017075
1.292809 -34.434166 80.252288
1.123677 -34.397346 79.022617
-5.168128 -53.211839 87.474129
-4.81101 -53.541739 86.841713
-4.606618 -52.373127 87.300057
-3.186653 -52.597374 79.980495
-2.930864 -51.489073 80.568669
-3.113859 -52.562464 81.209976
-3.219167 -52.61896 78.718788
-3.186653 -52.597374 79.980495
-0.130922 -38.765829 76.62196
0.006695 -37.268978 76.108825
0.356548 -37.340246 77.421543
-3.149237 -46.479467 88.738231
-2.926773 -45.293798 88.810119
-3.609086 -53.345583 83.962025
-3.18413 -52.379348 83.485497
-3.327583 -52.221288 84.505795
-3.92566 -54.303514 84.401913
-3.609086 -53.345583 83.962025
-1.810742 -38.368919 71.273407
-1.221958 -36.998219 72.094905
-3.525385 -42.260786 69.043472
-2.980559 -40.99982 69.751068
-3.04972 -42.418406 70.396301
-4.026527 -43.498075 68.335915
-3.957367 -42.079491 67.690682
-3.525385 -42.260786 69.043472
-1.045177 -42.388904 88.017216
-1.476992 -42.142372 88.443535
-1.61643 -43.426411 88.268467
0.301735 -38.796776 87.079247
-0.088695 -40.06934 87.419392
0.235144 -40.15321 86.804402
0.610802 -37.450601 86.845974
0.286963 -37.366732 87.460965
0.301735 -38.796776 87.079247
-3.66165 -52.512255 74.728425
-3.500241 -51.428657 75.371102
-3.461228 -52.572763 76.082451
-3.795545 -52.440773 73.36036
-3.66165 -52.512255 74.728425
-4.983949 -49.427696 66.424278
-4.778883 -49.617183 67.785675
0.765543 -35.896097 78.18766
1.123677 -34.397346 79.022617
0.627926 -37.392948 78.700794
0.356548 -37.340246 77.421543
0.765543 -35.896097 78.18766
-3.721118 -48.858483 88.344299
-3.441914 -47.678292 88.541908
-4.141892 -48.511162 88.788612
-4.444254 -53.845332 86.142701
-4.195774 -54.08758 85.300041
-4.001019 -52.945274 85.824982
-4.444254 -53.845332 86.142701
-4.81101 -53.541739 86.841713
-3.367247 -52.601551 77.411758
-3.151738 -51.506574 78.032158
-3.219167 -52.61896 78.718788
-3.461228 -52.572763 76.082451
-3.367247 -52.601551 77.411758
-5.447836 -45.40275 64.338351
-5.200897 -44.255224 64.98917
-5.5969 -46.517523 63.702307
-5.447836 -45.40275 64.338351
-5.303168 -46.781719 65.018361
-5.63497 -47.606125 63.086758
-5.779638 -46.227156 62.406748
-5.5969 -46.517523 63.702307
-5.238958 -49.201908 65.083622
-5.197223 -48.12228 65.722973
-4.983949 -49.427696 66.424278
-5.394157 -48.954792 63.758341
-5.238958 -49.201908 65.083622
-5.63497 -47.606125 63.086758
-5.394157 -48.954792 63.758341
-0.78475 -37.098984 73.44033
-1.221958 -36.998219 72.094905
-0.358374 -37.196329 74.782886
0.006695 -37.268978 76.108825
-0.907153 -38.597216 73.966686
-0.78475 -37.098984 73.44033
-0.358374 -37.196329 74.782886
-2.733002 -44.069755 88.912391
-2.624188 -42.874809 88.874157
-2.242015 -44.403921 88.592514
-2.733002 -44.069755 88.912391
-2.926773 -45.293798 88.810119
-2.728463 -46.826788 88.293918
-3.149237 -46.479467 88.738231
-3.441914 -47.678292 88.541908
-3.161852 -52.478903 82.369938
-2.880348 -51.354608 82.913708
-3.18413 -52.379348 83.485497
-3.113859 -52.562464 81.209976
-3.161852 -52.478903 82.369938
-3.92566 -54.303514 84.401913
-4.195774 -54.08758 85.300041
-4.914939 -49.269516 88.901062
-4.141892 -48.511162 88.788612
-5.156154 -50.454655 88.662312
-4.914939 -49.269516 88.901062
-5.427475 -51.630592 88.333046
-4.692417 -50.86729 88.261738
-5.156154 -50.454655 88.662312
-6.093026 -52.409571 88.350014
-5.629288 -52.822207 87.94944
-5.427475 -51.630592 88.333046
-2.396425 -39.697704 70.513291
-1.810742 -38.368919 71.273407
-1.919212 -39.828655 71.864013
-2.396425 -39.697704 70.513291
-2.980559 -40.99982 69.751068
-4.424207 -41.871856 66.353043
-3.957367 -42.079491 67.690682
-4.8531 -43.080141 65.65353
-4.424207 -41.871856 66.353043
-4.806306 -44.491863 66.318764
-5.200897 -44.255224 64.98917
-4.8531 -43.080141 65.65353
-4.481075 -49.788922 69.151825
-4.778883 -49.617183 67.785675
-4.644407 -48.519806 68.429779
-4.386016 -51.027455 69.886013
-4.481075 -49.788922 69.151825
-4.251539 -49.930077 70.530117
-4.174629 -52.228989 70.601246
-4.386016 -51.027455 69.886013
-2.004018 -41.927942 88.719146
-2.579962 -41.622873 88.898517
-2.624188 -42.874809 88.874157
-2.004018 -41.927942 88.719146
-1.476992 -42.142372 88.443535
-0.530512 -41.26532 87.668416
-1.045177 -42.388904 88.017216
-0.66995 -42.549358 87.493347
-0.530512 -41.26532 87.668416
-0.088695 -40.06934 87.419392
0.160129 -35.969521 87.690762
0.286963 -37.366732 87.460965
0.383925 -34.557775 87.557488
0.160129 -35.969521 87.690762
0.78099 -34.548194 87.004513
0.568885 -33.085413 87.334308
0.383925 -34.557775 87.557488
1.060555 -34.570871 86.304066
0.78099 -34.548194 87.004513
0.875595 -36.043233 86.527244
1.304202 -34.550545 85.525211
1.060555 -34.570871 86.304066
1.427262 -34.549256 84.617481
1.304202 -34.550545 85.525211
1.278219 -36.064621 84.919067
1.520721 -34.522517 83.646389
1.427262 -34.549256 84.617481
1.495969 -34.501943 82.571785
1.520721 -34.522517 83.646389
1.376526 -36.042759 82.936733
1.450235 -34.47086 81.449897
1.495969 -34.501943 82.571785
1.194348 -35.985492 80.66452
1.292809 -34.434166 80.252288
1.450235 -34.47086 81.449897
-4.023454 -52.341003 71.983974
-3.928572 -51.26838 72.64069
-3.795545 -52.440773 73.36036
-4.174629 -52.228989 70.601246
-4.023454 -52.341003 71.983974
-5.83368 -53.990818 87.491096
-5.168128 -53.211839 87.474129
-5.629288 -52.822207 87.94944
3 65 16 66
3 0 19 17
3 0 21 19
3 0 67 69
3 69 68 21
3 67 68 69
3 1 24 22
3 1 26 24
3 2 29 27
3 2 31 29
3 2 33 31
3 70 36 71
3 72 71 34
3 70 71 72
3 74 73 36
3 3 39 38
3 5 75 77
3 75 40 76
3 75 76 77
3 5 41 40
3 78 43 79
3 7 44 18
3 7 45 44
3 7 47 45
3 9 48 20
3 9 80 82
3 82 81 48
3 80 81 82
3 9 83 84
3 4 85 86
3 10 87 89
3 89 88 23
3 87 88 89
3 10 90 92
3 90 49 91
3 90 91 92
3 10 50 49
3 11 51 25
3 11 52 51
3 6 93 95
3 95 94 42
3 93 94 95
3 12 96 98
3 98 97 28
3 96 97 98
3 12 99 101
3 99 53 100
3 99 100 101
3 12 54 53
3 13 55 30
3 13 56 55
3 13 57 56
3 14 58 32
3 14 59 58
3 8 60 46
3 15 61 35
3 15 62 61
3 15 63 62
3 102 64 103
3 104 103 37
3 102 103 104
3 106 105 64
3 108 107 3
3 16 109 110
3 16 111 113
3 111 5 112
3 111 112 113
3 17 114 116
3 114 18 115
3 114 115 116
3 19 18 17
3 19 7 18
3 19 20 7
3 21 20 19
3 21 9 20
3 21 117 119
3 119 118 9
3 117 118 119
3 121 120 21
3 22 23 4
3 24 23 22
3 24 10 23
3 24 25 10
3 26 25 24
3 26 11 25
3 27 28 6
3 29 28 27
3 29 12 28
3 29 30 12
3 31 30 29
3 31 13 30
3 31 32 13
3 33 32 31
3 33 14 32
3 34 35 8
3 36 35 34
3 36 15 35
3 36 37 15
3 122 37 123
3 124 123 36
3 122 123 124
3 126 125 37
3 38 127 128
3 39 129 131
3 131 130 38
3 129 130 131
3 39 132 134
3 132 133 134
3 135 39 136
3 137 136 3
3 135 136 137
3 138 39 139
3 141 140 39
3 142 4 143
3 40 144 145
3 40 146 148
3 146 4 147
3 146 147 148
3 40 22 4
3 41 22 40
3 41 1 22
3 149 42 150
3 43 151 153
3 151 42 152
3 151 152 153
3 43 6 42
3 18 154 156
3 154 43 155
3 154 155 156
3 44 43 18
3 44 6 43
3 44 27 6
3 45 27 44
3 45 2 27
3 45 46 2
3 47 46 45
3 47 8 46
3 20 47 7
3 48 47 20
3 48 8 47
3 48 34 8
3 157 34 158
3 159 158 48
3 157 158 159
3 161 160 34
3 163 162 9
3 164 17 165
3 166 17 167
3 168 0 169
3 170 169 17
3 168 169 170
3 173 172 0
3 171 172 173
3 23 174 176
3 176 175 4
3 174 175 176
3 178 177 23
3 49 179 180
3 49 181 182
3 49 183 185
3 183 38 184
3 183 184 185
3 50 38 49
3 50 3 38
3 25 50 10
3 51 50 25
3 51 3 50
3 51 186 188
3 188 187 3
3 186 187 188
3 52 189 191
3 191 190 51
3 189 190 191
3 52 192 193
3 42 194 196
3 194 195 196
3 198 197 42
3 28 199 201
3 201 200 6
3 199 200 201
3 203 202 28
3 53 204 205
3 53 206 207
3 53 208 210
3 208 209 210
3 54 211 213
3 213 212 53
3 211 212 213
3 54 214 215
3 30 54 12
3 55 54 30
3 55 216 218
3 218 217 54
3 216 217 218
3 55 219 220
3 56 221 223
3 223 222 55
3 221 222 223
3 56 224 225
3 56 226 228
3 226 16 227
3 226 227 228
3 57 16 56
3 57 5 16
3 32 57 13
3 58 57 32
3 58 5 57
3 58 41 5
3 59 41 58
3 59 1 41
3 46 33 2
3 60 33 46
3 60 14 33
3 35 60 8
3 61 60 35
3 61 14 60
3 61 59 14
3 62 59 61
3 62 1 59
3 62 26 1
3 63 26 62
3 63 11 26
3 37 63 15
3 64 63 37
3 64 11 63
3 64 52 11
3 229 52 230
3 231 230 64
3 229 230 231
3 233 232 52
3 236 235 0
3 234 235 236
