ply
format ascii 1.0
element vertex 285
property float x
property float y
property float z
element face 280
property list uchar int vertex_index
end_header
-8.314447 42.529835 -32.877678
-17.440147 41.045692 -31.139942
-22.611906 27.397896 -30.774288
-15.135777 26.896774 -30.7178
-8.144985 24.716984 -29.674873
-28.76914 27.574516 -28.143581
-12.691938 42.033298 -32.146896
-15.638957 34.391907 -31.544178
-11.530058 34.588413 -31.715847
-29.952122 32.822353 -26.103523
-27.518847 33.158371 -28.61969
-24.05835 33.51709 -30.175171
-19.930695 33.950268 -31.05732
-18.885017 27.212807 -30.97123
-19.161568 19.924156 -30.259544
-4.415627 42.084679 -33.216183
-7.723143 34.138752 -31.642345
-25.997372 27.54496 -29.912853
-11.540688 26.172657 -30.203587
-15.920045 18.72686 -29.394154
-10.450159 42.37252 -32.556961
-11.96545 38.434944 -32.10778
-9.882551 38.553581 -32.292091
-27.117001 36.023628 -28.772999
-19.88784 40.495384 -30.594833
-20.96059 37.049866 -30.687283
-18.670658 37.440182 -31.128834
-15.22392 30.744602 -31.251774
-17.219223 30.724606 -31.242661
-16.997711 27.085049 -30.890198
-18.865627 23.620037 -30.640057
-17.106842 23.287769 -30.384701
-29.25293 30.245899 -27.145958
-30.245443 30.10638 -25.689774
-23.171875 30.529068 -30.575787
-24.980968 30.47044 -30.058071
-24.368179 27.478115 -30.443275
-7.804365 29.541306 -30.694897
-9.562061 30.127251 -30.875393
-9.81579 25.552319 -29.927124
-14.324534 17.956581 -28.929661
-15.028726 41.57275 -31.665478
-16.379856 37.826366 -31.516914
-14.135559 38.173775 -31.847172
-13.550266 34.544235 -31.667477
-13.276266 30.684155 -31.17944
-28.872614 32.993469 -27.488079
-28.045652 30.342888 -28.364929
-22.370289 24.159046 -30.824947
-24.055807 24.393379 -30.702328
-10.354362 20.797462 -28.976776
-25.261538 36.33374 -29.557037
-23.183493 36.677219 -30.176586
-22.045807 33.72477 -30.678242
-21.238941 30.594933 -30.924248
-17.777544 34.181038 -31.341763
-19.237522 30.665142 -31.138489
-20.76947 27.311047 -30.940319
-20.629236 23.903687 -30.79504
-20.796963 20.411083 -30.590214
-6.29644 42.448254 -33.100639
-7.894028 38.472385 -32.403019
-6.010229 38.142883 -32.445911
-5.951948 33.557022 -31.549202
-6.125244 28.711426 -30.513981
-6.539042 23.652767 -29.452209
-31.046564 29.913227 -24.037773
-25.901711 33.329784 -29.504421
-26.616983 30.412571 -29.331676
-27.46933 27.583466 -29.152058
-25.653624 24.60117 -30.395866
-27.138695 24.766518 -29.874622
-9.585955 34.470051 -31.701603
-11.387587 30.494656 -31.045212
-13.314793 26.607376 -30.478474
-11.992697 21.664131 -29.314659
-13.66526 22.346867 -29.686333
-15.370673 22.875774 -30.055779
-17.53307 19.372307 -29.850235
-26.935139 37.491615 -28.757141
-27.85463 37.276808 -28.327547
-29.33322 27.536792 -27.517437
-29.575115 28.872484 -27.018625
-29.011035 28.910207 -27.64477
-29.247195 26.226904 -28.12792
-29.33322 27.536792 -27.517437
-28.19573 33.07592 -28.053884
-28.779247 34.369517 -27.629081
-28.102364 34.451968 -28.194887
-23.193989 22.710539 -30.866533
-22.396625 22.506483 -30.820107
-22.7474 38.314746 -30.10594
-23.90685 38.05669 -29.806173
-20.201214 18.401516 -30.350779
-21.018912 18.64498 -30.516113
-19.979266 20.16762 -30.424879
-5.121522 33.131809 -31.481098
-5.101071 35.545582 -31.98184
-5.20817 30.709011 -30.963487
-6.038596 31.134224 -31.031592
-5.121522 33.131809 -31.481098
-5.776268 23.007528 -29.344774
-5.540727 25.641848 -29.884783
-6.872225 21.052956 -28.96055
-5.776268 23.007528 -29.344774
-30.362903 32.726618 -25.298296
-30.39873 34.037338 -25.555369
-30.9563 28.62792 -24.729834
-30.646003 30.009804 -24.863774
-30.555739 28.724497 -25.555834
-31.369935 28.506287 -23.908968
-30.9563 28.62792 -24.729834
-25.605933 23.116507 -30.617628
-24.854716 24.497274 -30.549097
-24.807025 23.012611 -30.770859
-27.773525 23.476154 -29.984941
-27.082206 23.357188 -30.226209
-27.817809 24.816826 -29.49521
-27.773525 23.476154 -29.984941
-12.369231 19.348793 -28.906105
-11.17353 21.230797 -29.145717
-11.550063 18.915458 -28.737164
-27.901441 35.884596 -28.271541
-27.85463 37.276808 -28.327547
-27.317924 34.591 -28.696344
-28.102364 34.451968 -28.194887
-27.901441 35.884596 -28.271541
-20.424215 38.772625 -30.641058
-21.635949 38.50107 -30.361289
-21.099574 40.223829 -30.315064
-4.33291 39.80941 -32.815331
-3.558228 41.751188 -33.207769
-30.071372 28.802725 -26.290534
-29.749187 30.17614 -26.417866
-29.575115 28.872484 -27.018625
-30.555739 28.724497 -25.555834
-30.071372 28.802725 -26.290534
-14.804475 15.732326 -28.623804
-13.535149 17.495018 -28.713606
-15.547071 16.234234 -28.89106
-14.804475 15.732326 -28.623804
-16.344826 16.619373 -29.123306
-15.12229 18.341721 -29.161907
-15.547071 16.234234 -28.89106
-17.087954 17.059607 -29.402493
-16.344826 16.619373 -29.123306
-29.941117 34.157562 -26.309015
-30.39873 34.037338 -25.555369
-29.401363 34.24312 -27.001293
-28.779247 34.369517 -27.629081
-29.412368 32.907911 -26.795801
-29.941117 34.157562 -26.309015
-29.401363 34.24312 -27.001293
-24.036748 22.827706 -30.805224
-23.213048 24.276212 -30.763638
-23.193989 22.710539 -30.866533
-24.807025 23.012611 -30.770859
-24.036748 22.827706 -30.805224
-9.554831 20.26301 -28.835951
-9.249674 22.757223 -29.325825
-8.450142 22.222771 -29.184999
-10.769372 18.367532 -28.554424
-9.554831 20.26301 -28.835951
-11.550063 18.915458 -28.737164
-10.769372 18.367532 -28.554424
-24.945873 37.884951 -29.496398
-26.007407 37.646671 -29.14916
-24.222516 36.505479 -29.866812
-24.945873 37.884951 -29.496398
-23.90685 38.05669 -29.806173
-22.072041 36.863543 -30.431935
-22.7474 38.314746 -30.10594
-21.635949 38.50107 -30.361289
-21.526099 22.378804 -30.805153
-22.396625 22.506483 -30.820107
-21.499762 24.031367 -30.809994
-21.609963 20.632502 -30.70274
-21.526099 22.378804 -30.805153
-20.713099 22.157385 -30.692627
-21.765208 18.969732 -30.720579
-21.609963 20.632502 -30.70274
-21.765208 18.969732 -30.720579
-21.018912 18.64498 -30.516113
-5.130211 37.838513 -32.430194
-5.212928 40.113781 -32.831047
-4.33291 39.80941 -32.815331
-5.981089 35.849953 -31.997557
-5.130211 37.838513 -32.430194
-5.101071 35.545582 -31.98184
-5.333828 28.171177 -30.415669
-5.20817 30.709011 -30.963487
-6.332143 26.182097 -29.983095
-5.333828 28.171177 -30.415669
-5.540727 25.641848 -29.884783
-7.647171 21.690663 -29.073667
-8.450142 22.222771 -29.184999
-7.342014 24.184876 -29.563541
-7.647171 21.690663 -29.073667
-6.872225 21.052956 -28.96055
-20.648662 41.920166 -30.186262
-21.099574 40.223829 -30.315064
-21.860396 41.648611 -29.906492
-19.347625 42.274229 -30.514219
-20.648662 41.920166 -30.186262
-20.108447 43.699011 -30.105648
-18.123779 42.549383 -30.786774
-18.663994 40.770538 -30.867387
-19.347625 42.274229 -30.514219
-16.831747 42.897244 -31.12952
-18.123779 42.549383 -30.786774
-15.626037 43.160773 -31.392288
-16.234437 41.309221 -31.40271
-16.831747 42.897244 -31.12952
-14.368168 43.483185 -31.734755
-15.626037 43.160773 -31.392288
-13.199775 43.713459 -31.975463
-13.860332 41.803024 -31.906187
-14.368168 43.483185 -31.734755
-11.9908 43.984955 -32.295154
-13.199775 43.713459 -31.975463
-10.869911 44.154566 -32.500187
-11.571048 42.202909 -32.351928
-11.9908 43.984955 -32.295154
-9.718303 44.344946 -32.776291
-10.869911 44.154566 -32.500187
-8.650447 44.423603 -32.93665
-9.382303 42.451178 -32.71732
-9.718303 44.344946 -32.776291
-7.563555 44.501785 -33.154506
-8.650447 44.423603 -32.93665
-6.554552 44.460995 -33.265987
-7.305443 42.489044 -32.989159
-7.563555 44.501785 -33.154506
-5.542853 44.400268 -33.415033
-6.554552 44.460995 -33.265987
-4.602447 44.218481 -33.472805
-5.356033 42.266466 -33.158411
-5.542853 44.400268 -33.415033
-3.681176 44.001547 -33.540262
-4.602447 44.218481 -33.472805
-3.867996 46.135349 -33.796885
-3.558228 41.751188 -33.207769
-3.681176 44.001547 -33.540262
-30.509563 31.368631 -25.091421
-30.362903 32.726618 -25.298296
-30.098782 31.464367 -25.896648
-30.910124 31.272054 -24.265421
-30.509563 31.368631 -25.091421
-30.646003 30.009804 -24.863774
-31.211557 31.16045 -23.376177
-30.910124 31.272054 -24.265421
-31.368016 29.788891 -23.143831
-31.533009 31.036114 -22.482235
-31.211557 31.16045 -23.376177
-31.368016 29.788891 -23.143831
-31.369935 28.506287 -23.908968
-26.18927 36.178684 -29.165018
-26.935139 37.491615 -28.757141
-26.007407 37.646671 -29.14916
-26.339671 23.274513 -30.486832
-25.605933 23.116507 -30.617628
-26.396159 24.683844 -30.135244
-26.339671 23.274513 -30.486832
-27.082206 23.357188 -30.226209
-27.983126 26.2253 -29.133928
-27.304012 26.174992 -29.51334
-27.817809 24.816826 -29.49521
-28.633032 26.220825 -28.62969
-28.119235 27.578991 -28.64782
-27.983126 26.2253 -29.133928
-29.247195 26.226904 -28.12792
-28.633032 26.220825 -28.62969
-13.158615 19.810356 -29.12216
-12.369231 19.348793 -28.906105
-13.535149 17.495018 -28.713606
-17.894467 17.38233 -29.630533
-16.726557 19.049583 -29.622194
-17.087954 17.059607 -29.402493
-18.639728 17.772812 -29.901305
-17.894467 17.38233 -29.630533
-19.453978 18.048737 -30.105959
-18.347319 19.648232 -30.05489
-18.639728 17.772812 -29.901305
-20.201214 18.401516 -30.350779
-19.453978 18.048737 -30.105959
3 0 22 20
3 79 23 80
3 1 26 24
3 3 29 27
3 3 31 29
3 5 81 83
3 83 82 32
3 81 82 83
3 5 84 85
3 2 36 34
3 4 39 37
3 6 43 41
3 8 44 21
3 8 45 44
3 10 86 88
3 86 46 87
3 86 87 88
3 10 47 46
3 90 89 48
3 91 52 92
3 12 53 25
3 12 54 53
3 7 55 42
3 13 56 28
3 13 57 56
3 13 58 57
3 14 59 30
3 14 93 95
3 95 94 59
3 93 94 95
3 15 62 60
3 96 63 97
3 98 64 99
3 100 99 63
3 98 99 100
3 101 65 102
3 104 103 65
3 9 105 106
3 107 66 108
3 109 108 33
3 107 108 109
3 111 110 66
3 11 67 51
3 17 68 35
3 17 69 68
3 112 70 113
3 114 113 49
3 112 113 114
3 115 71 116
3 118 117 71
3 16 72 61
3 18 73 38
3 18 74 73
3 119 75 120
3 121 120 50
3 119 120 121
3 19 76 40
3 19 77 76
3 19 78 77
3 20 21 6
3 22 21 20
3 22 8 21
3 23 122 123
3 23 124 126
3 124 10 125
3 124 125 126
3 24 127 129
3 127 25 128
3 127 128 129
3 26 25 24
3 26 12 25
3 27 28 7
3 29 28 27
3 29 13 28
3 29 30 13
3 31 30 29
3 31 14 30
3 131 130 15
3 32 33 9
3 132 33 133
3 134 133 32
3 132 133 134
3 136 135 33
3 34 35 11
3 36 35 34
3 36 17 35
3 37 38 16
3 39 38 37
3 39 18 38
3 137 40 138
3 139 40 140
3 141 19 142
3 143 142 40
3 141 142 143
3 145 144 19
3 41 42 1
3 43 42 41
3 43 7 42
3 21 43 6
3 44 43 21
3 44 7 43
3 44 27 7
3 45 27 44
3 45 3 27
3 146 9 147
3 46 148 149
3 46 150 152
3 150 9 151
3 150 151 152
3 46 32 9
3 47 32 46
3 47 5 32
3 48 49 2
3 153 49 154
3 155 154 48
3 153 154 155
3 157 156 49
3 158 50 159
3 160 159 4
3 158 159 160
3 161 50 162
3 164 163 50
3 165 51 166
3 52 167 169
3 167 51 168
3 167 168 169
3 52 11 51
3 25 170 172
3 170 52 171
3 170 171 172
3 53 52 25
3 53 11 52
3 53 34 11
3 54 34 53
3 54 2 34
3 42 26 1
3 55 26 42
3 55 12 26
3 28 55 7
3 56 55 28
3 56 12 55
3 56 54 12
3 57 54 56
3 57 2 54
3 57 48 2
3 58 48 57
3 58 173 175
3 175 174 48
3 173 174 175
3 30 58 13
3 59 58 30
3 59 176 178
3 178 177 58
3 176 177 178
3 59 179 180
3 182 181 59
3 60 61 0
3 62 61 60
3 62 16 61
3 183 62 184
3 185 184 15
3 183 184 185
3 63 186 188
3 186 62 187
3 186 187 188
3 63 16 62
3 63 37 16
3 64 37 63
3 64 4 37
3 189 64 190
3 65 191 193
3 191 64 192
3 191 192 193
3 65 4 64
3 65 194 196
3 196 195 4
3 194 195 196
3 198 197 65
3 199 24 200
3 199 200 201
3 202 24 203
3 202 203 204
3 205 1 206
3 207 206 24
3 205 206 207
3 208 1 209
3 210 41 211
3 212 211 1
3 210 211 212
3 213 41 214
3 215 6 216
3 217 216 41
3 215 216 217
3 218 6 219
3 220 20 221
3 222 221 6
3 220 221 222
3 223 20 224
3 225 0 226
3 227 226 20
3 225 226 227
3 228 0 229
3 230 60 231
3 232 231 0
3 230 231 232
3 233 60 234
3 235 15 236
3 237 236 60
3 235 236 237
3 238 15 239
3 238 239 240
3 242 241 15
3 33 243 245
3 245 244 9
3 243 244 245
3 66 246 248
3 248 247 33
3 246 247 248
3 66 249 250
3 66 251 253
3 251 252 253
3 255 254 66
3 51 256 258
3 256 23 257
3 256 257 258
3 67 23 51
3 67 10 23
3 35 67 11
3 68 67 35
3 68 10 67
3 68 47 10
3 69 47 68
3 69 5 47
3 49 36 2
3 70 36 49
3 70 17 36
3 259 70 260
3 71 261 263
3 261 70 262
3 261 262 263
3 71 17 70
3 71 69 17
3 264 69 265
3 266 265 71
3 264 265 266
3 267 5 268
3 269 268 69
3 267 268 269
3 271 270 5
3 61 22 0
3 72 22 61
3 72 8 22
3 38 72 16
3 73 72 38
3 73 8 72
3 73 45 8
3 74 45 73
3 74 3 45
3 50 39 4
3 75 39 50
3 75 18 39
3 40 272 274
3 272 75 273
3 272 273 274
3 76 75 40
3 76 18 75
3 76 74 18
3 77 74 76
3 77 3 74
3 77 31 3
3 78 31 77
3 78 14 31
3 275 78 276
3 277 276 19
3 275 276 277
3 278 78 279
3 280 14 281
3 282 281 78
3 280 281 282
3 284 283 14
