ply
format ascii 1.0
element vertex 182
property float x
property float y
property float z
element face 176
property list uchar int vertex_index
end_header
-30.503439 11.655523 -49.549889
-37.521198 17.4846 -48.532227
-44.140678 17.083576 -50.972939
-34.942738 13.366093 -56.411888
-33.534603 15.274944 -49.9216
-35.846458 16.589481 -53.094086
-32.037037 13.327522 -53.827911
-31.489237 9.686392 -56.29969
-29.344641 8.965551 -52.762306
-40.440544 18.335308 -50.48185
-39.285702 15.925457 -54.57061
-35.323471 15.576321 -44.973034
-32.090881 13.202682 -45.214054
-29.789589 9.699902 -44.047489
-31.876966 13.609802 -49.941818
-32.697552 14.529678 -52.030556
-31.11689 12.623856 -51.884659
-30.543743 11.257376 -53.499153
-29.83573 10.464384 -51.326286
-38.877983 18.127308 -49.707985
-35.258732 15.243511 -54.932091
-37.430214 16.547157 -54.035995
-37.019512 14.804241 -55.730949
-39.058407 13.787865 -56.12442
-36.895569 12.558992 -57.054573
-34.925423 11.067625 -57.493393
-34.37476 14.711159 -42.702171
-33.608131 14.563698 -45.293018
-32.833405 13.700035 -42.784405
-35.436634 16.585873 -49.454445
-36.635994 17.336582 -50.944756
-34.553051 16.120426 -51.722588
-33.814766 15.123245 -53.700638
-33.311497 13.609463 -55.340675
-33.09341 11.648247 -56.597511
-31.623741 11.691582 -55.265182
-30.209347 9.535055 -54.736877
-42.203362 18.000195 -50.888687
-38.079144 17.67432 -52.011848
-39.769547 17.477493 -52.674393
-41.683792 16.694698 -52.967827
-41.374249 14.724609 -54.734993
-36.350872 16.569042 -46.943733
-34.44783 15.594311 -47.551914
-32.741241 14.233917 -47.725391
-31.283539 12.551037 -47.491062
-31.477814 12.384949 -42.514771
-30.812086 11.558914 -44.778851
-30.104364 10.613611 -46.89922
-29.431011 9.477383 -48.801697
-38.19959 17.805954 -49.120106
-39.293535 18.027317 -48.441029
-38.615142 17.705963 -47.85315
-33.901909 14.435678 -41.483288
-34.665135 14.765125 -41.354866
-33.131231 13.930117 -41.524405
-33.604083 14.205597 -42.743288
-33.901909 14.435678 -41.483288
-45.357597 17.079168 -49.808319
-44.394397 17.588743 -49.853093
-29.205308 8.072979 -53.286774
-29.637661 8.357731 -54.274059
-29.776994 9.250303 -53.749592
-41.643313 18.440008 -49.516476
-40.818104 18.396088 -49.264555
-41.321953 18.167752 -50.685268
-42.524721 18.272452 -49.719894
-41.643313 18.440008 -49.516476
-40.191154 13.009151 -56.135162
-39.087198 12.497227 -56.710079
-32.328775 9.513227 -56.866661
-33.130861 10.494155 -57.015572
-32.291323 10.667319 -56.4486
-36.249611 15.880434 -44.604891
-35.688842 15.467991 -43.604154
-35.837171 16.072682 -45.958383
-36.763312 16.376794 -45.590241
-36.249611 15.880434 -44.604891
-31.133737 12.170803 -41.153248
-31.753659 12.785761 -41.34643
-30.300838 10.629408 -44.41317
-30.573413 11.194885 -43.362616
-30.062165 10.265379 -42.996935
-29.04409 8.306508 -48.283034
-29.321086 8.982421 -47.407994
-29.144857 8.793353 -49.608837
-29.04409 8.306508 -48.283034
-40.036823 18.292088 -48.877623
-39.293535 18.027317 -48.441029
-39.659264 18.231308 -50.094918
-40.818104 18.396088 -49.264555
-40.036823 18.292088 -48.877623
-38.00578 11.88279 -57.175156
-39.087198 12.497227 -56.710079
-37.976988 13.173428 -56.589496
-36.980423 11.253103 -57.511764
-38.00578 11.88279 -57.175156
-35.99535 10.50742 -57.731174
-36.980423 11.253103 -57.511764
-35.910496 11.813308 -57.273983
-35.060024 9.769417 -57.81752
-35.99535 10.50742 -57.731174
-31.558222 8.541951 -56.599495
-30.809829 8.599177 -55.929688
-35.214487 15.03541 -42.468723
-34.665135 14.765125 -41.354866
-34.849115 15.14374 -43.837603
-35.688842 15.467991 -43.604154
-35.214487 15.03541 -42.468723
-29.599875 9.400613 -42.594893
-30.062165 10.265379 -42.996935
-30.169884 8.523509 -55.148281
-30.809829 8.599177 -55.929688
-30.849292 9.610723 -55.518283
-30.169884 8.523509 -55.148281
-29.637661 8.357731 -54.274059
-45.178967 16.346001 -50.875622
-43.962736 16.211643 -51.953621
-43.425739 18.047052 -49.810966
-42.524721 18.272452 -49.719894
-43.17202 17.541885 -50.930813
-44.394397 17.588743 -49.853093
-43.425739 18.047052 -49.810966
-42.734293 16.017204 -52.951065
-43.962736 16.211643 -51.953621
-42.912235 16.889137 -51.970383
-42.579521 15.032159 -53.834648
-42.734293 16.017204 -52.951065
-41.529021 15.709653 -53.85141
-42.510878 13.859445 -54.649826
-42.579521 15.032159 -53.834648
-41.349075 13.477522 -55.440449
-40.216328 14.256237 -55.429707
-40.191154 13.009151 -56.135162
-42.510878 13.859445 -54.649826
-41.349075 13.477522 -55.440449
-34.046868 10.203844 -57.463513
-34.009417 11.357936 -57.045452
-33.130861 10.494155 -57.015572
-35.060024 9.769417 -57.81752
-34.046868 10.203844 -57.463513
-32.328775 9.513227 -56.866661
-31.558222 8.541951 -56.599495
-37.949852 17.295946 -47.21698
-38.615142 17.705963 -47.85315
-37.364689 16.838167 -46.422733
-36.763312 16.376794 -45.590241
-36.936035 17.026821 -47.73798
-37.949852 17.295946 -47.21698
-37.364689 16.838167 -46.422733
-32.431454 13.443304 -41.481247
-33.131231 13.930117 -41.524405
-32.155609 13.042492 -42.649588
-32.431454 13.443304 -41.481247
-31.753659 12.785761 -41.34643
-30.906277 11.607903 -42.230576
-31.133737 12.170803 -41.153248
-31.14495 11.971932 -43.646811
-30.906277 11.607903 -42.230576
-30.573413 11.194885 -43.362616
-29.40508 8.694118 -43.56673
-29.599875 9.400613 -42.594893
-29.500375 9.09368 -45.03089
-29.40508 8.694118 -43.56673
-29.657763 9.550535 -46.456755
-29.946976 10.156757 -45.473354
-29.500375 9.09368 -45.03089
-29.767688 10.045497 -47.850459
-29.657763 9.550535 -46.456755
-29.321086 8.982421 -47.407994
-29.347216 9.286853 -50.871132
-29.633371 9.970883 -50.063992
-29.144857 8.793353 -49.608837
-29.101672 8.537437 -51.589141
-29.590186 9.714968 -52.044296
-29.347216 9.286853 -50.871132
-28.889648 7.732589 -52.222485
-29.101672 8.537437 -51.589141
-29.205308 8.072979 -53.286774
-28.889648 7.732589 -52.222485
-45.357597 17.079168 -49.808319
-45.178967 16.346001 -50.875622
3 0 16 14
3 0 18 16
3 1 50 52
3 50 19 51
3 50 51 52
3 3 22 20
3 3 24 22
3 3 25 24
3 53 26 54
3 55 28 56
3 57 56 26
3 55 56 57
3 2 58 59
3 4 31 29
3 6 32 15
3 6 33 32
3 6 35 33
3 8 36 17
3 8 60 62
3 62 61 36
3 60 61 62
3 9 63 64
3 9 65 67
3 65 37 66
3 65 66 67
3 5 38 30
3 10 39 21
3 10 40 39
3 10 41 40
3 69 68 23
3 7 70 72
3 72 71 34
3 70 71 72
3 11 73 74
3 11 75 77
3 75 42 76
3 75 76 77
3 11 43 42
3 12 44 27
3 12 45 44
3 78 46 79
3 13 80 82
3 80 47 81
3 80 81 82
3 13 48 47
3 83 49 84
3 86 85 49
3 14 15 4
3 16 15 14
3 16 6 15
3 16 17 6
3 18 17 16
3 18 8 17
3 19 87 88
3 19 89 91
3 89 9 90
3 89 90 91
3 20 21 5
3 22 21 20
3 22 10 21
3 22 23 10
3 24 23 22
3 24 92 94
3 94 93 23
3 92 93 94
3 24 95 96
3 25 97 99
3 99 98 24
3 97 98 99
3 25 100 101
3 103 102 7
3 26 104 105
3 26 106 108
3 106 11 107
3 106 107 108
3 26 27 11
3 28 27 26
3 28 12 27
3 109 13 110
3 29 30 1
3 31 30 29
3 31 5 30
3 15 31 4
3 32 31 15
3 32 5 31
3 32 20 5
3 33 20 32
3 33 3 20
3 33 34 3
3 35 34 33
3 35 7 34
3 17 35 6
3 36 35 17
3 36 7 35
3 36 111 113
3 113 112 7
3 111 112 113
3 115 114 36
3 117 116 2
3 37 118 119
3 37 120 122
3 120 2 121
3 120 121 122
3 30 19 1
3 38 19 30
3 38 9 19
3 21 38 5
3 39 38 21
3 39 9 38
3 39 37 9
3 40 37 39
3 40 2 37
3 40 123 125
3 125 124 2
3 123 124 125
3 41 126 128
3 128 127 40
3 126 127 128
3 41 129 130
3 23 41 10
3 131 41 132
3 133 132 23
3 131 132 133
3 135 134 41
3 34 25 3
3 136 25 137
3 138 137 34
3 136 137 138
3 140 139 25
3 142 141 7
3 143 1 144
3 42 145 146
3 42 147 149
3 147 1 148
3 147 148 149
3 42 29 1
3 43 29 42
3 43 4 29
3 27 43 11
3 44 43 27
3 44 4 43
3 44 14 4
3 45 14 44
3 45 0 14
3 150 28 151
3 46 152 154
3 152 28 153
3 152 153 154
3 46 12 28
3 155 46 156
3 47 157 159
3 157 46 158
3 157 158 159
3 47 12 46
3 47 45 12
3 48 45 47
3 48 0 45
3 160 13 161
3 162 13 163
3 164 48 165
3 166 165 13
3 164 165 166
3 49 167 169
3 167 48 168
3 167 168 169
3 49 0 48
3 49 18 0
3 170 18 171
3 172 171 49
3 170 171 172
3 173 8 174
3 175 174 18
3 173 174 175
3 176 8 177
3 179 178 8
3 181 180 2
