ply
format ascii 1.0
element vertex 187
property float x
property float y
property float z
element face 177
property list uchar int vertex_index
end_header
34.284664 75.107491 4.032663
41.869514 66.840141 6.497102
40.755836 71.730392 -4.651949
32.56348 77.493805 -1.820795
36.016434 75.967834 -6.1068
37.493473 73.980278 -0.463465
44.720406 64.184715 2.237878
29.275816 78.189423 2.916615
38.517868 71.498489 5.273478
39.425827 73.270241 -9.917042
43.937813 68.348541 -8.37896
41.460205 69.547951 0.870136
44.584251 66.566444 -3.174877
33.480927 76.353691 1.104715
35.144638 75.821228 -1.146095
35.880104 74.678276 1.751211
31.850872 76.661568 3.443318
30.88826 77.927887 0.490812
38.515862 73.969048 -5.37463
37.742599 74.784042 -8.076014
40.186836 72.595657 -7.333649
41.80806 70.911186 -9.163982
42.375633 70.173134 -6.588022
40.288101 69.30368 5.886543
39.966209 70.666252 3.042406
41.67717 68.25676 3.674017
44.695259 65.439583 -0.488325
46.137569 64.773766 -4.971905
34.280815 76.855499 -4.020182
36.828007 75.03653 -3.307901
39.121368 73.000427 -2.602858
43.236031 65.61544 4.317026
44.710564 62.817429 5.003382
28.164421 79.503685 -0.057846
35.006794 73.736298 6.945076
36.518108 73.417274 4.651553
37.09663 72.022316 7.539865
38.958893 70.057175 8.138597
41.024174 71.418411 -11.611252
43.329369 68.934578 -10.834568
38.044209 72.803375 2.402258
39.592216 71.897942 0.209101
41.167694 70.708458 -1.909262
43.147884 66.955276 1.536165
43.006256 68.170631 -1.213892
42.762627 69.24942 -3.927542
44.344269 67.545631 -5.812847
45.848022 65.634361 -7.523504
33.067768 75.884529 3.737991
32.282118 75.970726 4.910774
33.499014 75.193687 5.205447
33.422147 77.174652 -2.920489
32.89412 77.694801 -4.370337
32.035452 78.013954 -3.270643
44.715736 62.085281 6.406001
44.018015 63.490017 6.065431
28.509969 78.240109 4.188239
29.773089 77.476105 4.394462
27.950615 78.986489 2.700114
28.509969 78.240109 4.188239
28.720118 78.846554 1.429385
27.394917 79.643619 1.212884
27.950615 78.986489 2.700114
31.180912 78.294426 -2.139873
30.343302 78.511467 -0.984069
31.72587 77.710846 -0.664991
32.035452 78.013954 -3.270643
31.180912 78.294426 -2.139873
36.391458 72.121731 8.682983
36.051712 72.879307 7.24247
35.346541 72.978722 8.385589
39.186287 69.268109 9.561497
38.308823 70.269925 9.27001
39.78344 68.933979 8.436048
39.186287 69.268109 9.561497
35.346541 72.978722 8.385589
34.258817 73.748394 8.111853
34.598564 72.990818 9.552366
35.523838 76.3587 -7.46656
34.639938 76.870346 -6.474973
38.098453 74.337913 -10.291837
37.256839 75.094814 -9.371323
38.584213 74.027141 -8.996528
38.932932 73.486709 -11.136579
38.098453 74.337913 -10.291837
40.225001 72.344326 -10.764147
39.732106 72.560795 -11.983684
38.932932 73.486709 -11.136579
44.655461 67.322052 -9.180675
44.351239 67.615071 -10.40848
43.633591 68.641559 -9.606764
46.709598 64.235996 -7.040343
45.992795 65.204063 -6.247704
46.854372 63.805698 -5.764544
46.512821 64.599655 -8.266312
46.709598 64.235996 -7.040343
31.060617 76.712177 4.657814
31.491864 76.021335 6.12527
32.282118 75.970726 4.910774
30.563344 77.425496 3.179966
29.773089 77.476105 4.394462
31.060617 76.712177 4.657814
45.494152 64.016087 -0.092062
44.707832 64.812149 0.874776
45.506726 63.388652 1.271039
45.484674 64.595196 -1.423106
45.494152 64.016087 -0.092062
45.42917 65.158626 -2.766382
44.639755 66.003014 -1.831601
45.484674 64.595196 -1.423106
46.20583 64.262287 -3.664896
45.36091 65.670105 -4.073391
45.42917 65.158626 -2.766382
46.965978 63.352593 -4.499578
46.20583 64.262287 -3.664896
46.854372 63.805698 -5.764544
46.965978 63.352593 -4.499578
33.772129 77.314178 -5.431665
32.89412 77.694801 -4.370337
35.148624 76.411666 -5.063491
34.639938 76.870346 -6.474973
33.772129 77.314178 -5.431665
43.280749 64.889023 5.722253
42.552773 66.22779 5.407064
42.59749 65.501373 6.812291
43.973298 64.216435 4.660204
43.280749 64.889023 5.722253
44.018015 63.490017 6.065431
45.433312 61.383076 5.385537
44.715736 62.085281 6.406001
45.473785 62.068444 4.007693
45.433312 61.383076 5.385537
45.478707 62.752086 2.624941
44.715485 63.501072 3.62063
45.473785 62.068444 4.007693
45.506726 63.388652 1.271039
45.478707 62.752086 2.624941
26.769355 80.328544 -0.284633
27.394917 79.643619 1.212884
27.539049 80.108444 -1.543305
26.769355 80.328544 -0.284633
28.981383 79.299366 -1.258398
29.52634 78.715786 0.216483
30.343302 78.511467 -0.984069
27.539049 80.108444 -1.543305
28.981383 79.299366 -1.258398
37.377691 71.252495 8.970644
36.391458 72.121731 8.682983
38.027761 71.039746 7.839231
37.377691 71.252495 8.970644
38.308823 70.269925 9.27001
40.448043 68.557232 7.310021
39.623497 69.680428 7.01257
39.78344 68.933979 8.436048
41.23875 67.325462 7.6153
41.078807 68.071911 6.191822
40.448043 68.557232 7.310021
41.980179 66.073559 7.915684
41.23875 67.325462 7.6153
42.59749 65.501373 6.812291
41.980179 66.073559 7.915684
33.860079 74.508091 6.661653
34.258817 73.748394 8.111853
34.645729 74.421895 5.488869
33.499014 75.193687 5.205447
33.860079 74.508091 6.661653
36.386921 75.766804 -8.451168
35.523838 76.3587 -7.46656
36.879516 75.375938 -7.091407
36.386921 75.766804 -8.451168
37.256839 75.094814 -9.371323
40.507821 71.528511 -12.745895
39.732106 72.560795 -11.983684
41.754259 70.33535 -12.370924
40.507821 71.528511 -12.745895
42.906857 69.093434 -11.982582
41.754259 70.33535 -12.370924
42.176772 70.176495 -11.22291
44.004961 67.822449 -11.569371
42.906857 69.093434 -11.982582
44.004961 67.822449 -11.569371
44.351239 67.615071 -10.40848
45.610565 65.964962 -8.752947
44.655461 67.322052 -9.180675
44.892917 66.991451 -7.951232
45.610565 65.964962 -8.752947
46.512821 64.599655 -8.266312
3 0 15 13
3 0 48 50
3 48 16 49
3 48 49 50
3 0 13 16
3 2 20 18
3 2 22 20
3 1 25 23
3 3 51 53
3 51 28 52
3 51 52 53
3 5 29 14
3 5 30 29
3 54 32 55
3 7 56 57
3 7 58 59
3 7 60 62
3 60 33 61
3 60 61 62
3 3 63 65
3 65 64 17
3 63 64 65
3 3 66 67
3 68 36 69
3 70 69 34
3 68 69 70
3 71 37 72
3 74 73 37
3 75 34 76
3 75 76 77
3 4 78 79
3 9 80 82
3 82 81 19
3 80 81 82
3 9 83 84
3 9 85 87
3 85 38 86
3 85 86 87
3 10 39 21
3 10 88 90
3 90 89 39
3 88 89 90
3 8 40 35
3 11 41 24
3 11 42 41
3 6 43 31
3 12 44 26
3 12 45 44
3 12 46 45
3 91 47 92
3 93 92 27
3 91 92 93
3 95 94 47
3 13 14 3
3 15 14 13
3 15 5 14
3 16 96 98
3 96 97 98
3 16 99 101
3 99 7 100
3 99 100 101
3 16 17 7
3 13 17 16
3 13 3 17
3 18 19 4
3 20 19 18
3 20 9 19
3 20 21 9
3 22 21 20
3 22 10 21
3 23 24 8
3 25 24 23
3 25 11 24
3 102 26 103
3 104 103 6
3 102 103 104
3 105 26 106
3 107 12 108
3 109 108 26
3 107 108 109
3 110 27 111
3 112 111 12
3 110 111 112
3 113 27 114
3 116 115 27
3 28 117 118
3 28 119 121
3 119 4 120
3 119 120 121
3 14 28 3
3 29 28 14
3 29 4 28
3 29 18 4
3 30 18 29
3 30 2 18
3 122 31 123
3 124 123 1
3 122 123 124
3 32 125 127
3 125 31 126
3 125 126 127
3 32 6 31
3 128 32 129
3 130 32 131
3 132 6 133
3 134 133 32
3 132 133 134
3 136 135 6
3 33 137 138
3 33 139 140
3 17 33 7
3 141 33 142
3 143 142 17
3 141 142 143
3 145 144 33
3 34 35 0
3 36 35 34
3 36 8 35
3 146 36 147
3 37 148 150
3 148 36 149
3 148 149 150
3 37 8 36
3 37 23 8
3 151 23 152
3 153 152 37
3 151 152 153
3 154 1 155
3 156 155 23
3 154 155 156
3 157 1 158
3 160 159 1
3 34 161 162
3 34 163 165
3 163 0 164
3 163 164 165
3 19 166 168
3 168 167 4
3 166 167 168
3 170 169 19
3 38 171 172
3 38 173 174
3 21 38 9
3 39 38 21
3 39 175 177
3 177 176 38
3 175 176 177
3 39 178 179
3 181 180 39
3 35 15 0
3 40 15 35
3 40 5 15
3 24 40 8
3 41 40 24
3 41 5 40
3 41 30 5
3 42 30 41
3 42 2 30
3 31 25 1
3 43 25 31
3 43 11 25
3 26 43 6
3 44 43 26
3 44 11 43
3 44 42 11
3 45 42 44
3 45 2 42
3 45 22 2
3 46 22 45
3 46 10 22
3 27 46 12
3 47 46 27
3 47 10 46
3 47 182 184
3 184 183 10
3 182 183 184
3 186 185 47
