ply
format ascii 1.0
element vertex 177
property float x
property float y
property float z
element face 158
property list uchar int vertex_index
end_header
47.168373 -95.936012 -17.028105
41.956993 -96.531685 -22.793245
44.96479 -96.634224 -20.581755
47.025299 -89.449944 -22.287771
46.800507 -99.202751 -9.266108
45.153889 -101.485725 -14.275841
42.833805 -102.994713 -18.506525
39.719009 -103.582237 -21.374392
35.977421 -103.217445 -22.698236
43.551384 -96.682106 -21.861994
46.000195 -93.11557 -21.460714
44.587894 -93.012924 -22.593428
45.848064 -101.068634 -7.528372
45.048767 -102.486107 -10.166935
46.050831 -100.426605 -11.828239
44.101772 -103.759537 -12.717493
41.702961 -105.721817 -17.249205
40.214897 -106.353455 -19.064604
41.374252 -103.407768 -20.135889
38.529419 -106.728325 -20.491438
34.689011 -106.688705 -22.120195
34.013153 -102.685043 -22.881334
40.230965 -96.185974 -23.403502
43.01059 -92.728493 -23.415964
46.170597 -96.385254 -18.957769
47.211124 -93.032822 -20.006117
47.411102 -97.851067 -6.653364
47.008125 -98.018387 -13.39023
46.160824 -98.863533 -15.710047
42.993271 -104.84903 -15.106447
44.089287 -102.349312 -16.529539
45.137337 -99.511322 -17.807936
43.913799 -99.947495 -19.608706
42.48251 -100.165909 -21.056555
40.860512 -100.166267 -22.127508
36.671452 -106.839973 -21.504343
37.901737 -103.517792 -22.217199
39.08984 -99.951241 -22.834826
37.230362 -99.523575 -23.224627
48.088955 -94.121994 -16.632294
47.573707 -95.615162 -15.941816
44.003647 -104.076565 -10.601278
44.498234 -103.339527 -9.288434
43.530149 -104.71328 -11.876558
44.575269 -103.122822 -11.442214
44.003647 -104.076565 -10.601278
38.75066 -107.95591 -19.251846
39.602043 -107.655934 -18.43947
38.137806 -109.258388 -18.626713
37.907921 -108.143345 -19.965263
39.372158 -106.54089 -19.778021
38.75066 -107.95591 -19.251846
40.776951 -94.224823 -23.685296
39.333189 -95.915622 -23.574556
47.646068 -89.483486 -21.638656
47.133516 -91.316299 -21.225128
46.512747 -91.282757 -21.874243
48.179756 -87.671268 -22.119136
47.646068 -89.483486 -21.638656
44.303574 -90.969139 -23.356006
43.518158 -90.763989 -23.728229
47.536454 -97.519261 -8.830157
47.841751 -96.843418 -7.523785
47.105805 -98.526909 -7.959736
47.253312 -98.100846 -10.097115
47.536454 -97.519261 -8.830157
41.74487 -106.469594 -15.46359
42.403591 -105.914952 -14.31953
35.025196 -108.368404 -21.471166
36.037278 -108.356491 -21.076364
34.68101 -100.784412 -23.122341
33.045071 -102.303901 -22.862356
44.897883 -102.630791 -7.969152
45.319143 -101.838234 -6.623534
45.448415 -101.777371 -8.847653
44.897883 -102.630791 -7.969152
44.498234 -103.339527 -9.288434
40.346075 -107.340114 -17.531771
41.099715 -106.905987 -16.534969
40.958929 -106.037636 -18.156904
40.346075 -107.340114 -17.531771
39.602043 -107.655934 -18.43947
32.980927 -108.160686 -21.983494
34.033976 -108.29277 -21.779092
33.667765 -106.48407 -22.256867
32.980927 -108.160686 -21.983494
34.31197 -104.748439 -22.545887
35.333216 -104.953075 -22.409216
33.667765 -106.48407 -22.256867
33.329836 -104.482238 -22.637436
34.995287 -102.951244 -22.789785
34.31197 -104.748439 -22.545887
32.313717 -104.15184 -22.641939
33.329836 -104.482238 -22.637436
33.045071 -102.303901 -22.862356
32.313717 -104.15184 -22.641939
42.166764 -92.496082 -23.691527
41.620778 -94.457234 -23.409733
40.776951 -94.224823 -23.685296
43.518158 -90.763989 -23.728229
42.166764 -92.496082 -23.691527
47.190106 -94.57386 -18.603405
47.688994 -94.349239 -17.638573
46.669485 -96.160633 -17.992937
47.710369 -92.897644 -19.127579
47.190106 -94.57386 -18.603405
46.69086 -94.709038 -19.481943
48.25462 -91.220246 -19.70431
47.710369 -92.897644 -19.127579
47.738981 -91.274925 -20.49783
46.60566 -93.074196 -20.733415
47.133516 -91.316299 -21.225128
48.25462 -91.220246 -19.70431
47.738981 -91.274925 -20.49783
45.092226 -91.111355 -22.944738
43.799242 -92.870709 -23.004696
44.303574 -90.969139 -23.356006
46.310929 -89.329864 -22.79191
45.806596 -91.231434 -22.440599
45.092226 -91.111355 -22.944738
47.533035 -87.5676 -22.698276
46.310929 -89.329864 -22.79191
48.179756 -87.671268 -22.119136
47.533035 -87.5676 -22.698276
46.174329 -100.309815 -6.191797
45.319143 -101.838234 -6.623534
46.955849 -98.701031 -5.754293
46.174329 -100.309815 -6.191797
46.629583 -99.459851 -7.090868
47.643704 -97.130981 -5.342676
46.955849 -98.701031 -5.754293
48.05994 -96.20739 -6.246954
47.643704 -97.130981 -5.342676
48.05994 -96.20739 -6.246954
47.841751 -96.843418 -7.523785
46.878473 -98.712772 -11.37818
47.253312 -98.100846 -10.097115
46.425669 -99.814678 -10.547173
47.357121 -97.508664 -12.159176
46.878473 -98.712772 -11.37818
46.529478 -99.222496 -12.609234
47.820777 -96.247753 -12.952369
47.357121 -97.508664 -12.159176
47.493583 -96.65635 -14.122878
47.820777 -96.247753 -12.952369
47.069933 -97.078923 -15.282787
47.493583 -96.65635 -14.122878
46.584474 -98.44096 -14.550138
46.664598 -97.399773 -16.369076
47.573707 -95.615162 -15.941816
47.069933 -97.078923 -15.282787
42.957842 -105.370205 -13.125053
43.530149 -104.71328 -11.876558
43.547522 -104.304283 -13.91197
42.957842 -105.370205 -13.125053
42.403591 -105.914952 -14.31953
42.348116 -105.285424 -16.177826
41.74487 -106.469594 -15.46359
41.099715 -106.905987 -16.534969
36.966261 -108.300667 -20.569912
37.907921 -108.143345 -19.965263
37.600436 -106.784149 -20.99789
36.966261 -108.300667 -20.569912
36.037278 -108.356491 -21.076364
35.680232 -106.764339 -21.812269
35.025196 -108.368404 -21.471166
34.033976 -108.29277 -21.779092
37.832887 -97.584423 -23.485119
39.333189 -95.915622 -23.574556
38.730663 -97.854774 -23.314065
36.289614 -99.203678 -23.293988
35.621758 -101.104309 -23.052981
34.68101 -100.784412 -23.122341
37.832887 -97.584423 -23.485119
36.289614 -99.203678 -23.293988
48.088955 -94.121994 -16.632294
47.688994 -94.349239 -17.638573
3 0 39 40
3 1 11 9
3 41 13 42
3 43 15 44
3 45 44 13
3 43 44 45
3 46 17 47
3 46 47 48
3 49 19 50
3 51 50 17
3 49 50 51
3 53 52 22
3 2 25 24
3 3 54 56
3 56 55 10
3 54 55 56
3 3 57 58
3 60 59 23
3 4 26 12
3 4 61 63
3 63 62 26
3 61 62 63
3 4 64 65
3 5 27 14
3 5 28 27
3 66 29 67
3 6 30 16
3 6 31 30
3 6 32 31
3 7 33 18
3 7 34 33
3 68 35 69
3 8 36 20
3 8 37 36
3 8 38 37
3 71 70 21
3 9 10 2
3 11 10 9
3 11 3 10
3 72 12 73
3 13 74 76
3 74 12 75
3 74 75 76
3 13 4 12
3 13 14 4
3 15 14 13
3 15 5 14
3 77 16 78
3 17 79 81
3 79 16 80
3 79 80 81
3 17 6 16
3 17 18 6
3 19 18 17
3 19 7 18
3 82 20 83
3 84 20 85
3 86 8 87
3 88 87 20
3 86 87 88
3 89 21 90
3 91 90 8
3 89 90 91
3 92 21 93
3 95 94 21
3 22 23 1
3 96 23 97
3 98 97 22
3 96 97 98
3 100 99 23
3 24 101 103
3 103 102 0
3 101 102 103
3 25 104 106
3 106 105 24
3 104 105 106
3 25 107 108
3 10 25 2
3 109 25 110
3 111 110 10
3 109 110 111
3 113 112 25
3 23 11 1
3 114 11 115
3 116 115 23
3 114 115 116
3 117 3 118
3 119 118 11
3 117 118 119
3 120 3 121
3 123 122 3
3 12 124 125
3 26 126 128
3 128 127 12
3 126 127 128
3 26 129 130
3 26 131 132
3 134 133 26
3 14 135 137
3 137 136 4
3 135 136 137
3 27 138 140
3 140 139 14
3 138 139 140
3 27 141 142
3 27 143 144
3 28 145 147
3 147 146 27
3 145 146 147
3 28 148 150
3 148 0 149
3 148 149 150
3 151 15 152
3 29 153 155
3 153 15 154
3 153 154 155
3 29 5 15
3 16 156 158
3 156 29 157
3 156 157 158
3 30 29 16
3 30 5 29
3 30 28 5
3 31 28 30
3 31 0 28
3 31 24 0
3 32 24 31
3 32 2 24
3 18 32 6
3 33 32 18
3 33 2 32
3 33 9 2
3 34 9 33
3 34 1 9
3 159 19 160
3 35 161 163
3 161 19 162
3 161 162 163
3 35 7 19
3 20 164 166
3 164 35 165
3 164 165 166
3 36 35 20
3 36 7 35
3 36 34 7
3 37 34 36
3 37 1 34
3 37 22 1
3 38 22 37
3 38 167 169
3 169 168 22
3 167 168 169
3 21 38 8
3 170 38 171
3 172 171 21
3 170 171 172
3 174 173 38
3 176 175 0
