ply
format ascii 1.0
element vertex 265
property float x
property float y
property float z
element face 265
property list uchar int vertex_index
end_header
66.253845 -26.89855 33.759777
66.56028 -19.858797 25.22102
69.154465 -17.279436 31.488972
60.460014 -29.765764 27.998539
66.557228 -23.323652 39.77034
66.253708 -23.637493 29.385178
63.334366 -24.886021 26.705526
63.871864 -28.430792 30.784777
62.136147 -33.013592 31.685635
64.91761 -31.473991 34.968727
64.96122 -21.536032 42.63092
68.578911 -18.700371 28.148722
67.792969 -22.135548 32.454285
55.80867 -35.256752 24.923059
56.653835 -30.9408 25.417446
58.885498 -34.304798 28.34621
67.866501 -20.408228 35.680588
67.145844 -25.163502 36.800621
66.513123 -27.942936 41.02951
66.513428 -29.747549 38.127514
66.208595 -25.328905 31.55904
65.029381 -26.05587 30.097158
65.228607 -27.691986 32.2547
64.342415 -30.008423 32.883476
65.532028 -29.209328 34.424419
69.531914 -16.232151 27.689577
69.040787 -18.019131 29.792822
68.174957 -20.474615 30.287241
68.518936 -19.701855 31.92412
61.794693 -27.35046 27.418941
61.485855 -25.442112 25.556673
59.883224 -27.940266 26.2192
58.568291 -30.374052 26.686914
57.668671 -32.695126 26.859943
59.45248 -32.101284 28.341211
63.185623 -34.460091 33.498581
61.753159 -35.164482 31.681393
66.65255 -20.970613 39.275902
67.436371 -19.510296 37.28046
67.216515 -21.885765 37.746384
67.50309 -22.801752 36.193966
67.014854 -24.247421 38.300106
66.715904 -28.847176 39.618439
66.27655 -31.979824 38.660091
66.381508 -21.815556 27.264553
64.959915 -22.386362 25.949108
64.945168 -24.289272 27.985271
63.535423 -26.726105 28.712784
62.255051 -29.119576 29.363815
61.214577 -31.453606 29.836395
62.874161 -30.756296 31.35113
63.63237 -32.27182 33.336155
64.4814 -33.684368 35.275169
65.880096 -20.083733 40.778061
65.846184 -22.412874 41.211014
68.033043 -17.315002 24.573696
68.965424 -16.804514 26.060112
67.75061 -19.313606 26.610092
67.462044 -21.180439 28.720964
67.211304 -22.920229 30.884274
67.023491 -24.540127 33.078392
54.294621 -33.652885 23.883707
55.931141 -33.221069 25.379986
57.294151 -34.833618 26.649761
58.84639 -36.306213 27.933971
60.524345 -33.693634 30.022648
60.27943 -35.784821 29.827065
68.516335 -18.876413 33.589024
68.00161 -21.292049 34.063362
67.451828 -23.693375 34.63134
66.898575 -26.0525 35.281616
65.864601 -24.74272 41.733063
66.509911 -25.652618 40.362762
66.847183 -26.56942 38.941978
66.811127 -27.47805 37.470688
66.370033 -28.362705 35.959343
65.90152 -30.628374 36.571465
65.541359 -32.851673 37.001205
69.097626 -17.649284 30.640897
69.394478 -16.811802 29.597285
69.451317 -16.441955 30.44536
65.798416 -20.101731 24.616557
66.651505 -18.81201 24.247746
63.132366 -35.49609 33.385238
63.740493 -35.13739 34.365659
65.420658 -20.809883 41.704491
65.421478 -19.668383 41.516526
64.96204 -20.394532 42.442955
68.658509 -16.047038 24.310391
68.145054 -16.248076 23.603982
55.140766 -35.398587 24.039136
54.383741 -34.596653 23.519461
55.051645 -34.454819 24.403383
63.289887 -23.896127 25.749869
64.102661 -22.646297 25.37166
64.147141 -23.636191 26.327317
61.393231 -24.41622 24.681199
60.478508 -25.706032 25.046906
56.248453 -29.984885 24.738909
57.265093 -29.721047 25.261736
55.716922 -31.195548 24.793657
56.248453 -29.984885 24.738909
56.292488 -32.080934 25.398716
55.355576 -32.335683 24.774927
55.716922 -31.195548 24.793657
61.038703 -36.46904 30.541111
61.016295 -35.474652 30.754229
61.775568 -36.15887 31.468274
60.409956 -36.722165 29.50636
61.038703 -36.46904 30.541111
68.03656 -19.214905 35.461428
67.821495 -18.765939 36.261364
67.651436 -19.959262 36.480524
68.191418 -19.642321 34.634806
68.361477 -18.448997 34.415646
68.03656 -19.214905 35.461428
65.486213 -25.455562 42.670506
65.430595 -24.298012 42.399212
66.232033 -27.495123 41.692737
66.304321 -28.631861 42.029376
66.511517 -26.797777 40.696136
66.230427 -26.349964 41.359364
66.232033 -27.495123 41.692737
65.839409 -33.513531 37.972393
65.908954 -32.415748 37.830648
66.207005 -33.077606 38.801836
65.444435 -33.936468 37.064993
65.839409 -33.513531 37.972393
64.466904 -21.125294 43.337778
64.96204 -20.394532 42.442955
69.640041 -15.918312 28.545662
69.891308 -15.032116 27.521273
69.28635 -17.125641 28.7412
69.640041 -15.918312 28.545662
69.394478 -16.811802 29.597285
56.074734 -36.108137 24.468261
56.663387 -35.98217 25.460335
59.677193 -26.955109 25.37817
60.478508 -25.706032 25.046906
60.684539 -26.691189 25.887937
58.879787 -28.220781 25.662613
59.677193 -26.955109 25.37817
58.222321 -29.437673 25.89647
58.879787 -28.220781 25.662613
59.225758 -29.157159 26.453057
57.611063 -30.657426 26.05218
57.265093 -29.721047 25.261736
58.222321 -29.437673 25.89647
62.416134 -35.848286 32.476644
62.469391 -34.812286 32.589987
63.132366 -35.49609 33.385238
61.775568 -36.15887 31.468274
62.416134 -35.848286 32.476644
67.04446 -20.240454 38.278181
67.102627 -19.06987 38.063124
66.710717 -19.800028 39.060845
66.535031 -29.070468 41.360534
66.304321 -28.631861 42.029376
66.636421 -29.522588 40.654999
66.614513 -28.395056 40.323975
66.535031 -29.070468 41.360534
66.669719 -29.968063 39.924508
66.636421 -29.522588 40.654999
66.568482 -30.41825 39.179045
66.614666 -29.297362 38.872977
66.669719 -29.968063 39.924508
66.450042 -31.534388 39.445334
66.394989 -30.863687 38.393802
66.568482 -30.41825 39.179045
66.429878 -32.641413 39.656736
66.450042 -31.534388 39.445334
66.207005 -33.077606 38.801836
66.429878 -32.641413 39.656736
69.400486 -16.106291 31.307165
69.451317 -16.441955 30.44536
64.388382 -34.749529 35.253953
63.740493 -35.13739 34.365659
63.833512 -34.072229 34.386875
65.899693 -18.941381 40.572918
65.421478 -19.668383 41.516526
66.324489 -19.356589 39.811924
65.899693 -18.941381 40.572918
66.266323 -20.527173 40.026982
66.710717 -19.800028 39.060845
66.324489 -19.356589 39.811924
67.387886 -17.540113 23.924084
68.145054 -16.248076 23.603982
67.296661 -18.5869 24.897358
66.651505 -18.81201 24.247746
67.387886 -17.540113 23.924084
69.738136 -15.279714 26.664782
69.891308 -15.032116 27.521273
69.454892 -15.565895 25.850049
69.738136 -15.279714 26.664782
69.248669 -16.518332 26.874845
69.124699 -15.791794 25.053598
69.454892 -15.565895 25.850049
68.499234 -17.059758 25.316904
68.658509 -16.047038 24.310391
69.124699 -15.791794 25.053598
53.548769 -33.803156 23.117853
53.647346 -32.763502 23.400672
53.548769 -33.803156 23.117853
54.383741 -34.596653 23.519461
55.140766 -35.398587 24.039136
56.074734 -36.108137 24.468261
64.998233 -21.365513 24.980601
65.798416 -20.101731 24.616557
65.760098 -21.12258 25.585064
64.998233 -21.365513 24.980601
64.102661 -22.646297 25.37166
62.365631 -24.174173 25.175443
63.289887 -23.896127 25.749869
62.410111 -25.164067 26.131099
62.365631 -24.174173 25.175443
61.393231 -24.41622 24.681199
54.537315 -32.551591 24.026788
53.647346 -32.763502 23.400672
55.112881 -33.436977 24.631847
54.537315 -32.551591 24.026788
55.355576 -32.335683 24.774927
57.406128 -35.770603 26.323686
56.663387 -35.98217 25.460335
56.551411 -35.045185 25.78641
58.182248 -36.506901 26.965791
57.406128 -35.770603 26.323686
58.07027 -35.569916 27.291866
59.111881 -37.168256 27.498732
58.182248 -36.506901 26.965791
59.693436 -36.982861 28.559814
59.56291 -36.045517 28.880518
60.409956 -36.722165 29.50636
59.111881 -37.168256 27.498732
59.693436 -36.982861 28.559814
69.0541 -16.888993 32.335262
69.400486 -16.106291 31.307165
67.536671 -18.339083 37.066809
67.102627 -19.06987 38.063124
67.536671 -18.339083 37.066809
67.821495 -18.765939 36.261364
68.735035 -17.687482 33.385289
68.361477 -18.448997 34.415646
68.8354 -18.077925 32.538998
69.0541 -16.888993 32.335262
68.735035 -17.687482 33.385289
64.477543 -22.266875 43.50691
64.466904 -21.125294 43.337778
64.978905 -22.694668 42.84814
64.477543 -22.266875 43.50691
65.421387 -23.133089 42.138188
65.403702 -21.974453 41.920967
64.978905 -22.694668 42.84814
65.855392 -23.577797 41.472038
65.421387 -23.133089 42.138188
65.430595 -24.298012 42.399212
65.907772 -25.895015 42.044514
65.486213 -25.455562 42.670506
66.187256 -25.197669 41.047912
65.907772 -25.895015 42.044514
66.230427 -26.349964 41.359364
64.914456 -34.352815 36.201974
65.01138 -33.26802 36.138187
65.444435 -33.936468 37.064993
64.388382 -34.749529 35.253953
64.914456 -34.352815 36.201974
3 0 22 20
3 0 24 22
3 2 78 80
3 78 26 79
3 78 79 80
3 2 28 26
3 1 81 82
3 3 31 29
3 3 32 31
3 3 34 32
3 84 83 35
3 4 39 37
3 4 41 39
3 5 46 44
3 7 47 21
3 7 48 47
3 7 50 48
3 9 51 23
3 9 52 51
3 10 85 87
3 85 53 86
3 85 86 87
3 10 54 53
3 88 55 89
3 11 56 25
3 11 57 56
3 11 58 57
3 12 59 27
3 12 60 59
3 13 90 92
3 92 91 61
3 90 91 92
3 6 93 95
3 95 94 45
3 93 94 95
3 97 96 30
3 14 98 99
3 14 100 101
3 14 102 104
3 102 62 103
3 102 103 104
3 15 63 33
3 15 64 63
3 8 65 49
3 105 66 106
3 107 106 36
3 105 106 107
3 109 108 66
3 16 110 112
3 112 111 38
3 110 111 112
3 16 113 115
3 113 67 114
3 113 114 115
3 16 68 67
3 17 69 40
3 17 70 69
3 116 71 117
3 18 118 119
3 18 120 122
3 120 72 121
3 120 121 122
3 18 73 72
3 19 74 42
3 19 75 74
3 19 76 75
3 123 77 124
3 125 124 43
3 123 124 125
3 127 126 77
3 20 21 5
3 22 21 20
3 22 7 21
3 22 23 7
3 24 23 22
3 24 9 23
3 128 10 129
3 130 25 131
3 26 132 134
3 132 25 133
3 132 133 134
3 26 11 25
3 26 27 11
3 28 27 26
3 28 12 27
3 136 135 13
3 29 30 6
3 31 30 29
3 31 137 139
3 139 138 30
3 137 138 139
3 31 140 141
3 32 142 144
3 144 143 31
3 142 143 144
3 32 145 147
3 145 14 146
3 145 146 147
3 32 33 14
3 34 33 32
3 34 15 33
3 35 36 8
3 148 36 149
3 150 149 35
3 148 149 150
3 152 151 36
3 37 153 155
3 153 38 154
3 153 154 155
3 39 38 37
3 39 16 38
3 39 40 16
3 41 40 39
3 41 17 40
3 156 18 157
3 158 42 159
3 160 159 18
3 158 159 160
3 161 42 162
3 163 19 164
3 165 164 42
3 163 164 165
3 166 43 167
3 168 167 19
3 166 167 168
3 169 43 170
3 172 171 43
3 173 2 174
3 44 45 1
3 46 45 44
3 46 6 45
3 21 46 5
3 47 46 21
3 47 6 46
3 47 29 6
3 48 29 47
3 48 3 29
3 48 49 3
3 50 49 48
3 50 8 49
3 23 50 7
3 51 50 23
3 51 8 50
3 51 35 8
3 52 35 51
3 52 175 177
3 177 176 35
3 175 176 177
3 53 178 179
3 53 180 181
3 53 182 184
3 182 37 183
3 182 183 184
3 54 37 53
3 54 4 37
3 55 185 186
3 55 187 189
3 187 1 188
3 187 188 189
3 25 190 191
3 56 192 194
3 194 193 25
3 192 193 194
3 56 195 196
3 56 197 199
3 197 55 198
3 197 198 199
3 57 55 56
3 57 1 55
3 57 44 1
3 58 44 57
3 58 5 44
3 27 58 11
3 59 58 27
3 59 5 58
3 59 20 5
3 60 20 59
3 60 0 20
3 61 200 201
3 203 202 61
3 205 204 13
3 45 206 208
3 208 207 1
3 206 207 208
3 210 209 45
3 30 211 213
3 213 212 6
3 211 212 213
3 215 214 30
3 216 61 217
3 62 218 220
3 218 61 219
3 218 219 220
3 62 13 61
3 33 62 14
3 63 62 33
3 63 13 62
3 63 221 223
3 223 222 13
3 221 222 223
3 64 224 226
3 226 225 63
3 224 225 226
3 64 227 228
3 49 34 3
3 65 34 49
3 65 15 34
3 36 65 8
3 66 65 36
3 66 15 65
3 66 64 15
3 229 64 230
3 231 230 66
3 229 230 231
3 233 232 64
3 234 2 235
3 38 236 237
3 239 238 38
3 67 240 241
3 67 242 244
3 242 2 243
3 242 243 244
3 67 28 2
3 68 28 67
3 68 12 28
3 40 68 16
3 69 68 40
3 69 12 68
3 69 60 12
3 70 60 69
3 70 0 60
3 245 10 246
3 247 10 248
3 249 54 250
3 251 250 10
3 249 250 251
3 71 252 254
3 252 54 253
3 252 253 254
3 71 4 54
3 255 71 256
3 72 257 259
3 257 71 258
3 257 258 259
3 72 4 71
3 72 41 4
3 73 41 72
3 73 17 41
3 42 73 18
3 74 73 42
3 74 17 73
3 74 70 17
3 75 70 74
3 75 0 70
3 75 24 0
3 76 24 75
3 76 9 24
3 43 76 19
3 77 76 43
3 77 9 76
3 77 52 9
3 260 52 261
3 262 261 77
3 260 261 262
3 264 263 52
