ply
format ascii 1.0
element vertex 259
property float x
property float y
property float z
element face 255
property list uchar int vertex_index
end_header
-35.556824 -38.759636 75.874634
-25.960318 -41.163876 79.772926
-29.485664 -35.211819 77.387123
-20.386522 -46.759701 81.208702
-20.853027 -34.087814 78.934692
-24.248743 -36.083504 79.401054
-25.905695 -33.430866 76.534882
-30.803465 -40.017914 77.869064
-28.737326 -43.821678 76.800179
-33.02298 -42.498985 74.737671
-37.007488 -41.013451 72.380455
-21.30471 -42.441631 81.860886
-22.697405 -38.955868 81.371025
-27.783424 -37.924164 79.404091
-32.942085 -36.86277 77.528885
-24.446648 -45.190315 78.892685
-34.427231 -45.243629 70.59436
-21.875803 -32.611637 77.633804
-23.360378 -33.757156 77.703293
-24.344381 -32.351505 76.344711
-33.211636 -39.419941 76.903671
-32.017899 -41.213203 76.472031
-34.268841 -40.562569 75.444061
-20.940065 -37.977104 81.621033
-26.858002 -35.656719 78.374619
-26.046955 -36.99276 79.548767
-28.662968 -36.525131 78.584305
-30.370632 -37.416042 78.470215
-31.28208 -36.025337 77.637573
-23.595716 -41.7742 80.783165
-22.908113 -43.752571 80.494003
-25.130329 -43.072536 79.429108
-29.947979 -45.28875 74.99855
-27.941858 -45.998779 76.074875
-35.625458 -43.078819 71.503891
-35.957146 -44.403343 69.195129
-18.395926 -50.149109 81.955475
-20.183512 -49.204559 80.714264
-22.040539 -48.323959 79.489525
-19.963324 -35.543095 80.312057
-21.683632 -36.527229 80.482918
-22.483364 -35.13649 79.13121
-25.054409 -34.754227 78.013214
-27.655573 -34.366726 76.949921
-28.373631 -40.588058 78.812149
-27.410347 -42.438652 78.423424
-29.718353 -41.828194 77.450562
-30.899298 -43.167076 75.785019
-31.920309 -44.580994 73.904907
-36.431557 -39.845924 74.325882
-21.964493 -40.601387 81.799995
-24.384512 -40.00663 80.767036
-23.464863 -37.466545 80.555573
-25.216137 -38.426216 80.362656
-26.866844 -39.456833 79.793556
-29.384558 -38.923759 78.856369
-31.903763 -38.372871 77.922073
-34.384914 -37.766563 76.952637
-26.834282 -32.073822 75.117538
-28.464249 -33.075325 75.421753
-30.257355 -33.935181 75.925682
-32.097603 -34.707146 76.415451
-33.866066 -35.451607 76.678909
-35.456581 -36.224976 76.5457
-36.785763 -37.069656 75.911369
-20.765507 -44.495964 81.628029
-22.377905 -45.94313 80.020409
-23.962509 -47.502373 78.305054
-26.575205 -44.488808 77.82518
-25.936813 -46.731308 77.169342
-35.070141 -41.789627 73.614761
-33.823208 -43.852249 72.752747
-23.699806 -31.721516 76.436203
-23.110092 -32.481571 76.989258
-22.465517 -31.851582 77.080749
-22.465517 -31.851582 77.080749
-21.274287 -31.94598 77.782402
-21.864001 -31.185925 77.229347
-20.060673 -37.49525 81.624398
-19.71502 -38.261541 82.18557
-29.589723 -46.428314 74.630779
-30.494535 -46.047661 74.047539
-36.661551 -43.953114 68.434814
-36.631155 -43.321877 69.663528
-17.53104 -49.380886 82.817383
-17.536161 -50.653496 82.565083
-20.285017 -47.98213 80.961483
-19.332616 -48.426452 81.577148
-19.434121 -47.204023 81.824367
-19.626555 -34.266621 79.581883
-20.150849 -33.48447 78.959655
-20.408175 -34.815455 79.623374
-19.181703 -34.994261 80.270565
-19.626555 -34.266621 79.581883
-22.330949 -39.778627 81.58551
-21.106768 -40.070175 82.121601
-21.473224 -39.247416 81.907116
-27.350785 -31.36292 74.505088
-26.148071 -31.483207 75.149445
-29.732822 -32.862217 74.885361
-28.889848 -32.408333 74.683457
-30.629376 -33.292145 75.137326
-29.360802 -33.505253 75.673717
-29.732822 -32.862217 74.885361
-33.374832 -34.403878 75.923718
-32.459347 -34.061768 75.666973
-34.259063 -34.776108 76.055447
-32.981834 -35.079377 76.54718
-33.374832 -34.403878 75.923718
-36.663714 -35.847481 76.017181
-35.914017 -35.495293 76.111458
-37.328305 -36.269821 75.700016
-36.121172 -36.647316 76.228534
-36.663714 -35.847481 76.017181
-37.925785 -36.662823 75.339932
-37.328305 -36.269821 75.700016
-21.035108 -43.468798 81.744457
-19.935262 -43.839264 82.317463
-20.204864 -42.812098 82.433891
-26.660919 -47.535797 76.294037
-26.939335 -46.365043 76.622108
-27.663441 -47.169533 75.746803
-25.734393 -47.934894 76.87896
-26.660919 -47.535797 76.294037
-33.604754 -45.641016 71.239906
-33.302742 -44.945326 72.319099
-34.12522 -44.547939 71.673553
-19.551497 -46.037278 82.015629
-19.434121 -47.204023 81.824367
-20.662237 -32.746381 78.309212
-21.274287 -31.94598 77.782402
-21.364415 -33.349726 78.284248
-20.150849 -33.48447 78.959655
-20.662237 -32.746381 78.309212
-20.594554 -38.758033 82.03212
-19.71502 -38.261541 82.18557
-21.818735 -38.466486 81.496029
-21.473224 -39.247416 81.907116
-20.594554 -38.758033 82.03212
-28.586662 -46.783329 75.168942
-28.944918 -45.643765 75.536712
-29.589723 -46.428314 74.630779
-27.663441 -47.169533 75.746803
-28.586662 -46.783329 75.168942
-36.465311 -42.659615 70.817909
-36.316473 -42.046135 71.942173
-37.156326 -41.626931 71.256191
-35.791302 -43.741081 70.34951
-36.465311 -42.659615 70.817909
-36.631155 -43.321877 69.663528
-18.410201 -51.458103 81.701256
-17.536161 -50.653496 82.565083
-19.267198 -50.966717 81.094684
-18.410201 -51.458103 81.701256
-18.438823 -48.898727 82.197754
-17.53104 -49.380886 82.817383
-19.289719 -49.676834 81.334869
-18.438823 -48.898727 82.197754
-19.332616 -48.426452 81.577148
-20.160991 -50.494442 80.474079
-19.267198 -50.966717 81.094684
-19.289719 -49.676834 81.334869
-21.039929 -50.029194 79.859302
-20.160991 -50.494442 80.474079
-21.968442 -49.588893 79.246933
-21.039929 -50.029194 79.859302
-21.112026 -48.764259 80.101895
-22.868719 -49.148798 78.63697
-22.796622 -50.413732 78.394378
-21.968442 -49.588893 79.246933
-20.823478 -36.035162 80.397487
-20.432456 -36.770313 81.05534
-19.572302 -36.278246 80.969909
-18.736047 -35.767981 80.93346
-19.181703 -34.994261 80.270565
-19.572302 -36.278246 80.969909
-18.736047 -35.767981 80.93346
-31.4807 -45.693783 73.500717
-30.494535 -46.047661 74.047539
-30.934144 -44.934872 74.451729
-37.11515 -38.92646 74.536186
-35.994191 -39.30278 75.100258
-36.677784 -38.383316 75.310562
-37.451661 -39.4424 73.706524
-37.11515 -38.92646 74.536186
-37.739626 -40.026164 72.733811
-36.719522 -40.429688 73.353168
-37.451661 -39.4424 73.706524
-37.909388 -40.582608 71.696956
-37.739626 -40.026164 72.733811
-37.156326 -41.626931 71.256191
-37.909388 -40.582608 71.696956
-20.465849 -41.851883 82.381046
-20.204864 -42.812098 82.433891
-20.795741 -40.931761 82.350601
-21.106768 -40.070175 82.121601
-21.634602 -41.521509 81.83044
-20.465849 -41.851883 82.381046
-20.795741 -40.931761 82.350601
-21.311848 -37.252167 81.051975
-20.060673 -37.49525 81.624398
-20.432456 -36.770313 81.05534
-24.90312 -31.622049 75.763031
-23.699806 -31.721516 76.436203
-25.589332 -32.212664 75.731124
-24.90312 -31.622049 75.763031
-26.148071 -31.483207 75.149445
-28.074865 -31.907581 74.531349
-27.350785 -31.36292 74.505088
-28.591367 -31.19668 73.9189
-27.649265 -32.574573 75.269645
-28.074865 -31.907581 74.531349
-28.889848 -32.408333 74.683457
-31.539223 -33.675785 75.422089
-30.629376 -33.292145 75.137326
-31.177479 -34.321163 76.170567
-31.539223 -33.675785 75.422089
-32.459347 -34.061768 75.666973
-35.118759 -35.108609 76.178063
-34.259063 -34.776108 76.055447
-34.661323 -35.838291 76.612304
-35.118759 -35.108609 76.178063
-35.914017 -35.495293 76.111458
-37.292254 -37.538326 75.328929
-36.677784 -38.383316 75.310562
-36.171294 -37.914646 75.893001
-37.292254 -37.538326 75.328929
-37.925785 -36.662823 75.339932
-19.74099 -44.905409 82.225292
-19.935262 -43.839264 82.317463
-20.576014 -45.627832 81.418365
-19.551497 -46.037278 82.015629
-19.74099 -44.905409 82.225292
-23.829704 -48.738005 78.044735
-22.868719 -49.148798 78.63697
-23.001524 -47.913166 78.897289
-24.747241 -48.320427 77.446815
-24.949661 -47.11684 77.737198
-25.734393 -47.934894 76.87896
-23.829704 -48.738005 78.044735
-24.747241 -48.320427 77.446815
-32.351292 -45.309698 72.895179
-32.871758 -44.216622 73.328827
-33.302742 -44.945326 72.319099
-31.4807 -45.693783 73.500717
-32.351292 -45.309698 72.895179
-36.028571 -45.07101 67.975739
-36.661551 -43.953114 68.434814
-36.732975 -44.620781 67.215424
-35.402163 -45.523499 68.756023
-36.028571 -45.07101 67.975739
-35.473587 -46.191166 67.536632
-34.637205 -45.943641 69.455638
-35.192189 -44.823486 69.894745
-35.402163 -45.523499 68.756023
-33.953783 -46.374631 70.183151
-34.637205 -45.943641 69.455638
-33.604754 -45.641016 71.239906
-33.953783 -46.374631 70.183151
3 72 19 73
3 74 73 17
3 72 73 74
3 75 17 76
3 75 76 77
3 0 22 20
3 78 23 79
3 2 26 24
3 2 28 26
3 1 31 29
3 81 80 32
3 82 35 83
3 84 36 85
3 3 86 88
3 86 37 87
3 86 87 88
3 3 38 37
3 4 41 39
3 6 42 18
3 6 43 42
3 4 89 90
3 4 91 93
3 91 39 92
3 91 92 93
3 7 46 44
3 9 47 21
3 9 48 47
3 12 94 96
3 94 50 95
3 94 95 96
3 12 51 50
3 5 52 40
3 13 53 25
3 13 54 53
3 13 55 54
3 14 56 27
3 14 57 56
3 97 58 98
3 99 59 100
3 101 60 102
3 103 102 59
3 101 102 103
3 104 61 105
3 106 62 107
3 108 107 61
3 106 107 108
3 109 63 110
3 111 64 112
3 113 112 63
3 111 112 113
3 115 114 64
3 11 116 118
3 116 65 117
3 116 117 118
3 15 66 30
3 15 67 66
3 8 68 45
3 119 69 120
3 121 120 33
3 119 120 121
3 123 122 69
3 10 70 49
3 16 71 34
3 16 124 126
3 126 125 71
3 124 125 126
3 127 3 128
3 17 18 4
3 19 18 17
3 19 6 18
3 17 129 130
3 17 131 133
3 131 4 132
3 131 132 133
3 20 21 7
3 22 21 20
3 22 9 21
3 23 134 135
3 23 136 138
3 136 12 137
3 136 137 138
3 24 25 5
3 26 25 24
3 26 13 25
3 26 27 13
3 28 27 26
3 28 14 27
3 29 30 11
3 31 30 29
3 31 15 30
3 32 33 8
3 139 33 140
3 141 140 32
3 139 140 141
3 143 142 33
3 144 34 145
3 146 145 10
3 144 145 146
3 35 147 149
3 147 34 148
3 147 148 149
3 35 16 34
3 36 150 151
3 36 152 153
3 154 36 155
3 37 156 158
3 156 36 157
3 156 157 158
3 37 159 161
3 161 160 36
3 159 160 161
3 37 162 163
3 38 164 166
3 166 165 37
3 164 165 166
3 38 167 169
3 167 168 169
3 39 170 172
3 170 40 171
3 170 171 172
3 41 40 39
3 41 5 40
3 18 41 4
3 42 41 18
3 42 5 41
3 42 24 5
3 43 24 42
3 43 2 24
3 39 173 174
3 39 175 176
3 44 45 1
3 46 45 44
3 46 8 45
3 21 46 7
3 47 46 21
3 47 8 46
3 47 32 8
3 48 32 47
3 48 177 179
3 179 178 32
3 177 178 179
3 180 49 181
3 182 181 0
3 180 181 182
3 183 49 184
3 185 10 186
3 187 186 49
3 185 186 187
3 188 10 189
3 191 190 10
3 192 11 193
3 50 194 195
3 50 196 198
3 196 11 197
3 196 197 198
3 50 29 11
3 51 29 50
3 51 1 29
3 40 199 201
3 199 23 200
3 199 200 201
3 52 23 40
3 52 12 23
3 25 52 5
3 53 52 25
3 53 12 52
3 53 51 12
3 54 51 53
3 54 1 51
3 54 44 1
3 55 44 54
3 55 7 44
3 27 55 13
3 56 55 27
3 56 7 55
3 56 20 7
3 57 20 56
3 57 0 20
3 202 19 203
3 58 204 206
3 204 19 205
3 204 205 206
3 58 6 19
3 207 58 208
3 207 208 209
3 59 210 212
3 210 58 211
3 210 211 212
3 59 6 58
3 59 43 6
3 60 43 59
3 60 2 43
3 213 60 214
3 61 215 217
3 215 60 216
3 215 216 217
3 61 2 60
3 61 28 2
3 62 28 61
3 62 14 28
3 218 62 219
3 63 220 222
3 220 62 221
3 220 221 222
3 63 14 62
3 63 57 14
3 64 57 63
3 64 0 57
3 64 223 225
3 225 224 0
3 223 224 225
3 227 226 64
3 65 228 229
3 65 230 232
3 230 3 231
3 230 231 232
3 30 65 11
3 66 65 30
3 66 3 65
3 66 38 3
3 67 38 66
3 67 233 235
3 235 234 38
3 233 234 235
3 45 31 1
3 68 31 45
3 68 15 31
3 33 68 8
3 69 68 33
3 69 15 68
3 69 67 15
3 236 67 237
3 238 237 69
3 236 237 238
3 240 239 67
3 49 22 0
3 70 22 49
3 70 9 22
3 34 70 10
3 71 70 34
3 71 9 70
3 71 48 9
3 241 48 242
3 243 242 71
3 241 242 243
3 245 244 48
3 246 35 247
3 246 247 248
3 249 35 250
3 249 250 251
3 252 16 253
3 254 253 35
3 252 253 254
3 255 16 256
3 258 257 16
