ply
format ascii 1.0
element vertex 233
property float x
property float y
property float z
element face 232
property list uchar int vertex_index
end_header
-59.763653 -60.233524 2.75519
-62.703194 -57.422855 9.48945
-55.746391 -70.417358 6.047113
-63.033287 -64.740814 -2.882072
-61.655403 -60.658489 14.354416
-65.268852 -57.135265 13.156497
-66.016922 -53.412476 8.533728
-57.4058 -62.97015 7.425006
-54.636269 -67.641525 9.122419
-57.845207 -65.35498 4.348722
-59.583824 -67.957321 1.521924
-60.956787 -62.531532 -0.140606
-63.492458 -59.046001 -4.493874
-61.785309 -57.082909 -1.631521
-58.879417 -61.374638 10.802597
-60.42762 -58.409515 5.986139
-61.765038 -55.224854 1.504417
-63.562416 -53.941788 4.930567
-64.825638 -58.826801 15.573444
-66.597641 -55.296871 12.67911
-58.601761 -61.647137 5.048193
-57.397583 -64.093231 5.845468
-58.81176 -62.787861 3.521657
-59.447296 -64.021271 2.077032
-60.16626 -61.359676 1.270284
-61.405998 -59.794201 -0.925827
-60.838959 -58.715836 0.534358
-62.187878 -59.084755 11.888387
-60.183712 -60.926041 12.563566
-60.813377 -59.398655 10.100142
-59.659378 -59.92017 8.352586
-61.43029 -57.807846 7.712549
-61.998371 -56.168858 5.408463
-63.171162 -55.701263 7.168692
-67.262405 -51.375427 8.158724
-66.275146 -51.465302 6.341395
-55.044937 -69.003448 7.557925
-61.391144 -66.450104 -0.684446
-64.461731 -62.830357 -5.08832
-63.588177 -58.920475 13.710917
-64.050308 -57.219097 11.304655
-64.467239 -55.430088 8.97067
-65.673721 -55.315266 10.806807
-66.963928 -53.374043 10.37888
-56.234276 -64.21788 9.88992
-54.648994 -66.419495 10.752056
-55.987473 -65.295761 8.253811
-56.217155 -66.552551 6.692543
-56.83033 -67.907745 5.202038
-57.676689 -69.272491 3.758038
-58.629753 -66.670509 2.919054
-60.367126 -65.265366 0.688745
-61.975315 -63.676357 -1.510025
-63.401192 -61.897854 -3.697321
-62.31834 -60.874416 -2.324324
-62.488819 -58.082329 -3.086594
-56.971657 -63.37125 11.587613
-57.913734 -62.052963 9.083189
-58.889153 -60.674362 6.662245
-59.846519 -59.22937 4.328435
-60.737831 -57.710304 2.07709
-61.141911 -56.845085 3.705462
-62.484386 -54.490456 3.187652
-64.812897 -53.58836 6.716512
-65.063278 -51.71957 4.543263
-64.610497 -59.932594 -5.89003
-61.522564 -56.108246 -0.104029
-67.366745 -50.357754 7.089353
-67.690964 -50.356938 7.988421
-54.810785 -70.920818 7.229831
-54.460058 -70.213863 7.985238
-55.395664 -69.710403 6.802519
-55.170292 -71.639946 6.45182
-54.810785 -70.920818 7.229831
-56.161297 -71.107529 5.303866
-55.585197 -72.330117 5.708572
-55.170292 -71.639946 6.45182
-62.684889 -66.13628 -2.485575
-61.863817 -66.990925 -1.386761
-62.212215 -65.595459 -1.783259
-63.491703 -65.220844 -3.591619
-62.684889 -66.13628 -2.485575
-63.747509 -63.785585 -3.985196
-64.205925 -64.265615 -4.694743
-63.491703 -65.220844 -3.591619
-67.226715 -53.395457 11.317781
-66.780784 -54.335457 11.528995
-67.043571 -54.35687 12.467896
-67.40062 -52.393127 10.187358
-67.226715 -53.395457 11.317781
-62.179802 -56.204122 -2.696909
-62.531557 -56.703833 -3.424446
-62.137064 -57.582619 -2.359058
-60.615875 -61.514486 14.721547
-60.354803 -62.24189 15.980289
-61.394331 -61.385893 15.613157
-58.505218 -62.070616 12.064322
-59.157366 -61.846317 12.944807
-59.531565 -61.15034 11.683082
-57.925537 -62.372944 11.195105
-57.551338 -63.068922 12.45683
-58.505218 -62.070616 12.064322
-63.707009 -53.049444 3.851304
-63.167994 -53.323779 2.979846
-63.023401 -54.216122 4.059109
-65.745678 -50.610126 4.385587
-65.669212 -51.592436 5.442329
-66.351612 -50.482993 5.284654
-65.13124 -50.778784 3.494288
-65.745678 -50.610126 4.385587
-53.90641 -68.147979 10.384279
-53.912773 -67.536964 11.199098
-54.642632 -67.03051 9.937238
-59.082459 -69.263816 1.921591
-58.128891 -69.921402 3.039649
-58.630257 -68.614906 2.639981
-65.288426 -58.771826 16.531506
-64.594944 -59.585241 16.809075
-65.057732 -59.530265 17.767136
-65.50608 -57.960991 15.313163
-65.288426 -58.771826 16.531506
-65.727688 -57.115223 14.104689
-65.047245 -57.981033 14.364971
-65.50608 -57.960991 15.313163
-66.392082 -56.196026 13.865996
-65.933246 -56.216068 12.917803
-65.727688 -57.115223 14.104689
-66.848739 -55.300281 13.637605
-66.392082 -56.196026 13.865996
-67.043571 -54.35687 12.467896
-66.848739 -55.300281 13.637605
-66.873116 -50.402691 6.180689
-66.768776 -51.420365 7.250059
-67.366745 -50.357754 7.089353
-66.351612 -50.482993 5.284654
-66.873116 -50.402691 6.180689
-54.199032 -69.497898 8.780796
-53.994698 -68.816936 9.563043
-54.840603 -68.322486 8.340172
-54.199032 -69.497898 8.780796
-54.460058 -70.213863 7.985238
-60.958708 -67.801834 -0.286071
-60.055048 -68.555442 0.817114
-60.487484 -67.203712 0.418739
-60.958708 -67.801834 -0.286071
-61.863817 -66.990925 -1.386761
-64.893577 -63.248827 -5.812655
-64.205925 -64.265615 -4.694743
-65.055794 -61.779074 -6.201818
-65.48764 -62.197544 -6.926153
-64.893577 -63.248827 -5.812655
-63.976034 -58.046604 -5.57971
-63.440992 -57.632385 -4.862659
-62.016661 -54.383606 0.437068
-62.313126 -53.999447 1.27323
-62.380603 -60.576592 15.265647
-61.394331 -61.385893 15.613157
-63.965721 -59.660747 15.875161
-64.594944 -59.585241 16.809075
-63.346991 -59.707585 14.943897
-63.965721 -59.660747 15.875161
-64.206907 -58.873638 14.642181
-62.62179 -59.789482 14.032667
-62.380603 -60.576592 15.265647
-63.346991 -59.707585 14.943897
-67.549858 -51.393819 9.07728
-67.113167 -52.374735 9.268802
-67.40062 -52.393127 10.187358
-67.690964 -50.356938 7.988421
-67.549858 -51.393819 9.07728
-55.441635 -65.318687 10.320988
-54.897873 -65.912812 11.595652
-55.690514 -64.812004 11.164584
-62.939172 -57.150549 -4.159019
-63.440992 -57.632385 -4.862659
-62.990639 -58.564165 -3.790234
-62.939172 -57.150549 -4.159019
-62.531557 -56.703833 -3.424446
-59.880029 -61.648262 13.826122
-60.615875 -61.514486 14.721547
-60.919557 -60.792265 13.458991
-59.880029 -61.648262 13.826122
-59.157366 -61.846317 12.944807
-56.542231 -64.002241 12.875901
-57.551338 -63.068922 12.45683
-56.059204 -64.388689 12.01343
-56.542231 -64.002241 12.875901
-56.602967 -63.794565 10.738767
-55.690514 -64.812004 11.164584
-56.059204 -64.388689 12.01343
-62.6728 -53.632248 2.114847
-62.313126 -53.999447 1.27323
-62.124712 -54.857655 2.346035
-62.6728 -53.632248 2.114847
-63.167994 -53.323779 2.979846
-64.457439 -51.938335 3.657652
-63.707009 -53.049444 3.851304
-64.312847 -52.830679 4.736915
-64.457439 -51.938335 3.657652
-65.13124 -50.778784 3.494288
-54.048328 -66.954704 12.044979
-54.897873 -65.912812 11.595652
-54.048328 -66.954704 12.044979
-53.912773 -67.536964 11.199098
-53.90641 -68.147979 10.384279
-53.994698 -68.816936 9.563043
-57.126446 -70.535095 4.159328
-56.161297 -71.107529 5.303866
-56.71154 -69.844924 4.902576
-57.126446 -70.535095 4.159328
-58.128891 -69.921402 3.039649
-59.082459 -69.263816 1.921591
-60.055048 -68.555442 0.817114
-65.130177 -60.330193 -6.602673
-65.055794 -61.779074 -6.201818
-64.536114 -61.381476 -5.489175
-64.535054 -58.489901 -6.277788
-64.051478 -59.489297 -5.191952
-63.976034 -58.046604 -5.57971
-65.101101 -58.860375 -6.994615
-64.535054 -58.489901 -6.277788
-65.130177 -60.330193 -6.602673
-65.101101 -58.860375 -6.994615
-61.895424 -54.825302 -0.367154
-61.643801 -55.66655 0.700194
-62.016661 -54.383606 0.437068
-61.846948 -55.260687 -1.168265
-61.895424 -54.825302 -0.367154
-61.978321 -55.748019 -1.932011
-61.653937 -56.595578 -0.867775
-61.846948 -55.260687 -1.168265
-62.179802 -56.204122 -2.696909
-61.978321 -55.748019 -1.932011
3 0 22 20
3 0 24 22
3 0 26 24
3 1 29 27
3 1 31 29
3 1 33 31
3 68 67 34
3 2 69 71
3 71 70 36
3 69 70 71
3 2 72 73
3 2 74 76
3 74 75 76
3 3 77 79
3 79 78 37
3 77 78 79
3 3 80 81
3 3 82 84
3 82 38 83
3 82 83 84
3 5 39 18
3 5 40 39
3 5 42 40
3 85 43 86
3 87 86 19
3 85 86 87
3 89 88 43
3 7 46 44
3 9 47 21
3 9 48 47
3 9 50 48
3 11 51 23
3 11 52 51
3 11 54 52
3 13 55 25
3 13 90 92
3 92 91 55
3 90 91 92
3 4 93 95
3 93 94 95
3 14 96 98
3 98 97 28
3 96 97 98
3 14 99 101
3 99 56 100
3 99 100 101
3 14 57 56
3 15 58 30
3 15 59 58
3 15 61 59
3 17 62 32
3 17 102 104
3 104 103 62
3 102 103 104
3 6 63 41
3 105 64 106
3 107 106 35
3 105 106 107
3 109 108 64
3 8 110 112
3 112 111 45
3 110 111 112
3 10 113 115
3 115 114 49
3 113 114 115
3 12 65 53
3 16 66 60
3 116 18 117
3 116 117 118
3 119 18 120
3 121 5 122
3 123 122 18
3 121 122 123
3 124 19 125
3 126 125 5
3 124 125 126
3 127 19 128
3 130 129 19
3 20 21 7
3 22 21 20
3 22 9 21
3 22 23 9
3 24 23 22
3 24 11 23
3 24 25 11
3 26 25 24
3 26 13 25
3 27 28 4
3 29 28 27
3 29 14 28
3 29 30 14
3 31 30 29
3 31 15 30
3 31 32 15
3 33 32 31
3 33 17 32
3 34 35 6
3 131 35 132
3 133 132 34
3 131 132 133
3 135 134 35
3 36 136 138
3 138 137 8
3 136 137 138
3 140 139 36
3 37 141 143
3 143 142 10
3 141 142 143
3 145 144 37
3 38 146 147
3 38 148 150
3 148 149 150
3 152 151 12
3 154 153 16
3 155 4 156
3 18 157 158
3 39 159 161
3 161 160 18
3 159 160 161
3 39 162 164
3 162 4 163
3 162 163 164
3 39 27 4
3 40 27 39
3 40 1 27
3 40 41 1
3 42 41 40
3 42 6 41
3 19 42 5
3 43 42 19
3 43 6 42
3 43 34 6
3 165 34 166
3 167 166 43
3 165 166 167
3 169 168 34
3 44 170 172
3 170 45 171
3 170 171 172
3 46 45 44
3 46 8 45
3 21 46 7
3 47 46 21
3 47 8 46
3 47 36 8
3 48 36 47
3 48 2 36
3 48 49 2
3 50 49 48
3 50 10 49
3 23 50 9
3 51 50 23
3 51 10 50
3 51 37 10
3 52 37 51
3 52 3 37
3 52 53 3
3 54 53 52
3 54 12 53
3 25 54 11
3 55 54 25
3 55 12 54
3 55 173 175
3 175 174 12
3 173 174 175
3 177 176 55
3 28 178 180
3 180 179 4
3 178 179 180
3 182 181 28
3 56 183 184
3 56 185 186
3 56 187 189
3 187 44 188
3 187 188 189
3 57 44 56
3 57 7 44
3 30 57 14
3 58 57 30
3 58 7 57
3 58 20 7
3 59 20 58
3 59 0 20
3 59 60 0
3 61 60 59
3 61 16 60
3 32 61 15
3 62 61 32
3 62 16 61
3 62 190 192
3 192 191 16
3 190 191 192
3 194 193 62
3 41 33 1
3 63 33 41
3 63 17 33
3 35 63 6
3 64 63 35
3 64 17 63
3 64 195 197
3 197 196 17
3 195 196 197
3 199 198 64
3 45 200 201
3 203 202 45
3 205 204 8
3 49 206 208
3 208 207 2
3 206 207 208
3 210 209 49
3 212 211 10
3 53 38 3
3 65 38 53
3 65 213 215
3 215 214 38
3 213 214 215
3 216 65 217
3 218 217 12
3 216 217 218
3 219 65 220
3 222 221 65
3 60 26 0
3 66 26 60
3 66 13 26
3 223 66 224
3 225 224 16
3 223 224 225
3 226 66 227
3 228 13 229
3 230 229 66
3 228 229 230
3 232 231 13
