ply
format ascii 1.0
element vertex 180
property float x
property float y
property float z
element face 172
property list uchar int vertex_index
end_header
-1.269779 -119.455109 -3.612608
-0.605923 -109.002121 2.118323
-0.236984 -114.483932 -0.537788
-0.551962 -111.64299 -3.441158
-1.244701 -116.521637 -6.759668
-3.582781 -123.457214 -6.78026
-3.272011 -120.57991 -10.092014
-0.960796 -104.955597 7.24403
0.422436 -110.832535 5.57383
0.303291 -116.557159 3.211085
-1.226929 -121.597137 0.374807
-0.585835 -117.061951 -2.044121
-0.689041 -115.727112 -3.679098
-1.282682 -118.100571 -5.307966
-1.338346 -106.203156 3.183363
-1.007866 -107.807266 0.678581
-0.713734 -112.315979 -6.221481
-0.609732 -109.804459 -4.549461
-5.188053 -124.957626 -8.296122
-4.964037 -123.694489 -10.119957
-6.785734 -124.890411 -11.575005
0.547245 -108.587814 8.434166
0.548342 -113.745361 4.468337
-2.474993 -123.685379 -1.119631
-0.239525 -111.77887 0.86441
-0.538713 -110.529388 -0.633341
-0.435999 -113.185867 -2.104019
-0.724104 -114.160461 -5.074957
-1.175169 -114.679321 -7.949247
-0.742992 -109.017731 -1.920115
-2.2731 -121.60553 -5.204353
-2.201578 -120.253433 -6.948195
-3.432396 -122.134232 -8.563925
-4.753262 -122.184174 -11.672903
-1.719007 -104.265915 5.557412
-0.736603 -107.115189 4.753863
-0.214014 -105.581635 9.103277
-0.083374 -107.883896 6.503579
-0.112581 -109.985733 3.750759
0.140657 -112.830383 2.569769
0.028418 -115.592178 1.242489
-0.43442 -118.208755 -0.195128
-0.295006 -119.198029 1.833734
-1.230061 -120.615967 -1.705338
-2.342216 -122.750214 -3.247705
-3.757647 -124.550629 -4.776293
-2.098553 -118.677383 -8.444555
-1.978302 -116.847885 -9.670572
-0.714198 -111.236786 -6.674837
-0.921293 -112.427032 -7.549414
-6.931511 -125.475212 -10.637254
-5.986893 -124.924019 -9.935564
-6.13267 -125.50882 -8.997813
-0.744144 -108.497459 -3.777936
-0.638316 -108.720146 -4.998573
-5.642183 -122.816834 -12.415385
-4.85865 -122.939332 -10.89643
-5.74757 -123.571991 -11.638912
-5.529207 -121.96508 -13.049682
-5.642183 -122.816834 -12.415385
-1.339901 -104.610756 6.400721
-1.947337 -103.177765 6.676513
-1.568232 -103.522606 7.519822
0.112292 -105.899781 10.121516
-0.392725 -104.393723 10.33187
-0.760968 -120.397583 1.10427
-0.274863 -119.61924 2.91878
-0.740825 -120.818794 2.189316
-3.891002 -124.974312 -3.685891
-3.11632 -124.118004 -2.947962
-3.249675 -124.541687 -1.85756
-4.61108 -125.255951 -5.506937
-3.891002 -124.974312 -3.685891
-2.483738 -116.772469 -10.987188
-2.54371 -117.812088 -10.505831
-1.935153 -115.79023 -10.145689
-2.483738 -116.772469 -10.987188
-1.590708 -105.632821 2.483275
-1.879447 -104.81205 3.607336
-1.425469 -106.434876 1.230884
-1.590708 -105.632821 2.483275
-1.173106 -107.005211 1.930972
-1.157429 -107.068543 0.051314
-1.425469 -106.434876 1.230884
-0.662197 -109.981026 -5.838827
-0.661733 -111.060219 -5.385471
-0.714198 -111.236786 -6.674837
-0.638316 -108.720146 -4.998573
-0.662197 -109.981026 -5.838827
-6.658418 -124.169952 -12.366436
-5.74757 -123.571991 -11.638912
-5.874885 -124.29245 -10.847481
-1.147376 -103.79718 8.418215
-1.568232 -103.522606 7.519822
0.80691 -108.936409 9.486251
0.492921 -107.40287 9.78696
0.733659 -110.096748 8.005485
0.80691 -108.936409 9.486251
0.671254 -111.219109 6.575318
0.484841 -109.710174 7.003998
0.733659 -110.096748 8.005485
0.734208 -112.675522 6.022571
0.485389 -112.288948 5.021083
0.671254 -111.219109 6.575318
0.724515 -114.157692 5.50287
0.734208 -112.675522 6.022571
0.601989 -115.563591 4.874244
0.425816 -115.15126 3.839711
0.724515 -114.157692 5.50287
-1.287316 -121.994895 1.48016
-0.740825 -120.818794 2.189316
-1.911348 -123.039017 0.73294
-1.850961 -122.641258 -0.372412
-1.287316 -121.994895 1.48016
-2.615957 -124.038025 0.007485
-1.911348 -123.039017 0.73294
-3.249675 -124.541687 -1.85756
-2.615957 -124.038025 0.007485
-3.190565 -119.6781 -10.716552
-3.913674 -120.500855 -11.512473
-1.152011 -113.608704 -8.413297
-0.921293 -112.427032 -7.549414
-0.944451 -113.49765 -7.085364
-1.024992 -107.673775 -1.248034
-1.157429 -107.068543 0.051314
-0.875429 -108.412498 -0.620767
-0.810774 -108.104095 -2.463263
-0.676362 -109.411095 -3.234788
-0.744144 -108.497459 -3.777936
-1.024992 -107.673775 -1.248034
-0.810774 -108.104095 -2.463263
-4.6543 -121.302987 -12.302917
-3.913674 -120.500855 -11.512473
-4.012637 -121.382042 -10.882459
-4.6543 -121.302987 -12.302917
-5.529207 -121.96508 -13.049682
-7.834448 -125.287704 -12.226562
-6.931511 -125.475212 -10.637254
-7.688941 -124.615875 -13.042075
-7.834448 -125.287704 -12.226562
-6.658418 -124.169952 -12.366436
-7.688941 -124.615875 -13.042075
-2.370136 -102.868324 5.856715
-1.947337 -103.177765 6.676513
-2.069778 -103.84343 4.79436
-2.370136 -102.868324 5.856715
-1.528676 -105.234536 4.370387
-1.879447 -104.81205 3.607336
-2.069778 -103.84343 4.79436
-0.773985 -104.110199 9.347838
-0.392725 -104.393723 10.33187
-0.587405 -105.268616 8.173654
-1.147376 -103.79718 8.418215
-0.773985 -104.110199 9.347838
0.166615 -107.084724 8.768721
0.112292 -105.899781 10.121516
0.492921 -107.40287 9.78696
0.402699 -116.982231 4.273386
0.601989 -115.563591 4.874244
0.103551 -118.302666 3.584711
-0.274863 -119.61924 2.91878
0.004142 -117.877594 2.52241
0.402699 -116.982231 4.273386
0.103551 -118.302666 3.584711
-5.326284 -125.45945 -7.266851
-4.47285 -124.754128 -6.536207
-4.61108 -125.255951 -5.506937
-6.13267 -125.50882 -8.997813
-5.326284 -125.45945 -7.266851
-2.603836 -118.726837 -9.892822
-2.685282 -119.628647 -9.268285
-3.190565 -119.6781 -10.716552
-2.038428 -117.762634 -9.057564
-2.603836 -118.726837 -9.892822
-2.54371 -117.812088 -10.505831
-1.533586 -114.705948 -9.285027
-1.576735 -115.763603 -8.809909
-1.935153 -115.79023 -10.145689
-1.152011 -113.608704 -8.413297
-1.533586 -114.705948 -9.285027
3 0 13 11
3 1 15 14
3 49 48 16
3 50 20 51
3 52 51 18
3 50 51 52
3 2 26 24
3 4 27 12
3 4 28 27
3 3 29 25
3 54 53 17
3 5 32 30
3 55 33 56
3 57 56 19
3 55 56 57
3 59 58 33
3 7 60 62
3 60 34 61
3 60 61 62
3 7 35 34
3 63 36 64
3 8 37 21
3 8 38 37
3 8 39 38
3 9 40 22
3 9 41 40
3 10 65 67
3 65 42 66
3 65 66 67
3 10 43 42
3 10 44 43
3 68 45 69
3 70 69 23
3 68 69 70
3 72 71 45
3 6 46 31
3 73 47 74
3 76 75 47
3 11 12 2
3 13 12 11
3 13 4 12
3 14 77 78
3 15 79 81
3 81 80 14
3 79 80 81
3 15 82 83
3 16 17 3
3 84 17 85
3 86 85 16
3 84 85 86
3 88 87 17
3 18 19 5
3 20 19 18
3 20 89 91
3 91 90 19
3 89 90 91
3 92 7 93
3 94 21 95
3 96 21 97
3 98 8 99
3 100 99 21
3 98 99 100
3 101 22 102
3 103 102 8
3 101 102 103
3 104 22 105
3 106 9 107
3 108 107 22
3 106 107 108
3 109 10 110
3 111 23 112
3 113 112 10
3 111 112 113
3 114 23 115
3 117 116 23
3 119 118 6
3 24 25 1
3 26 25 24
3 26 3 25
3 12 26 2
3 27 26 12
3 27 3 26
3 27 16 3
3 28 16 27
3 28 120 122
3 122 121 16
3 120 121 122
3 25 15 1
3 29 15 25
3 29 123 125
3 125 124 15
3 123 124 125
3 17 29 3
3 126 29 127
3 128 127 17
3 126 127 128
3 130 129 29
3 30 31 0
3 32 31 30
3 32 6 31
3 19 32 5
3 33 32 19
3 33 6 32
3 33 131 133
3 133 132 6
3 131 132 133
3 135 134 33
3 136 20 137
3 138 20 139
3 141 140 20
3 34 142 143
3 34 144 145
3 34 146 148
3 146 14 147
3 146 147 148
3 35 14 34
3 35 1 14
3 36 149 150
3 36 151 153
3 151 7 152
3 151 152 153
3 21 154 156
3 154 36 155
3 154 155 156
3 37 36 21
3 37 7 36
3 37 35 7
3 38 35 37
3 38 1 35
3 38 24 1
3 39 24 38
3 39 2 24
3 22 39 8
3 40 39 22
3 40 2 39
3 40 11 2
3 41 11 40
3 41 0 11
3 157 9 158
3 42 159 160
3 42 161 163
3 161 9 162
3 161 162 163
3 42 41 9
3 43 41 42
3 43 0 41
3 43 30 0
3 44 30 43
3 44 5 30
3 23 44 10
3 45 44 23
3 45 5 44
3 45 18 5
3 164 18 165
3 166 165 45
3 164 165 166
3 168 167 18
3 31 13 0
3 46 13 31
3 46 4 13
3 169 46 170
3 171 170 6
3 169 170 171
3 47 172 174
3 172 46 173
3 172 173 174
3 47 4 46
3 47 28 4
3 175 28 176
3 177 176 47
3 175 176 177
3 179 178 28
