ply
format ascii 1.0
element vertex 349
property float x
property float y
property float z
element face 289
property list uchar int vertex_index
end_header
2.434093 40.630913 36.859573
2.077692 38.902412 46.063957
0.529682 51.499611 47.994209
2.117649 35.333263 39.922699
1.299309 45.057373 47.096252
0.444399 44.036011 53.393845
1.943775 53.061653 60.15921
0.529413 56.038551 54.871521
2.553354 39.920372 40.810493
0.070784 50.33004 54.490509
7.658613 51.11702 61.498322
14.524866 45.05249 59.242233
2.345997 33.353409 44.872017
2.308657 38.317753 38.227436
3.089418 54.934952 59.515739
1.986582 56.86834 57.268776
23.07901 40.403919 53.895996
2.383131 39.438622 43.337795
2.459421 42.622295 41.039772
2.140734 42.322803 43.724182
0.883224 48.267754 47.566921
1.380184 48.539558 44.415836
0.068359 46.428375 57.164703
0.154886 49.409439 57.583244
0.620619 59.753052 51.800987
0.245201 57.06324 51.822891
9.380785 48.175255 62.490608
17.724936 41.34457 57.758865
16.072693 41.680687 59.643585
2.037279 35.320629 48.236816
2.307301 36.039909 45.493301
2.453812 36.760677 42.887341
1.685608 38.315956 48.934769
1.719116 41.920467 46.595215
1.26016 41.425499 49.598061
0.831142 44.612198 50.220215
0.462111 47.829971 50.785904
1.075321 50.814468 60.47287
0.487509 52.192329 57.765228
1.093756 54.70211 57.670006
1.159807 58.481178 54.682663
3.067148 51.133034 62.299896
4.435669 52.71051 61.403206
19.426823 40.974308 56.121582
21.20713 40.643757 54.820427
2.562574 40.332699 38.572224
2.617897 42.78833 38.614655
1.78607 45.373207 44.077675
0.175243 47.220024 54.008835
0.208895 51.023262 51.268356
0.17602 53.295372 54.793694
0.121397 54.126183 51.629425
0.292082 54.692787 48.350967
5.974955 50.231033 62.933182
6.003792 53.871338 60.193588
12.82618 45.202385 61.253883
11.143629 48.454559 60.657043
2.303936 34.296738 42.344112
2.452288 37.50079 40.455223
2.366531 41.405147 35.918005
2.250078 40.055292 36.463743
2.250078 40.055292 36.463743
2.18736 38.898712 37.147674
2.371375 39.474333 37.543504
3.124959 56.783604 58.032639
3.786679 55.663224 59.032269
0.755518 51.634552 46.367226
0.932289 50.018623 46.153582
0.706453 49.883682 47.780565
0.586985 53.253475 46.515232
0.755518 51.634552 46.367226
0.322738 48.830936 59.026493
0.166186 47.426445 58.880607
0.491893 60.213444 50.243305
0.691768 61.5257 50.184463
10.242857 46.634315 62.848747
9.374562 46.421713 63.749565
16.970332 43.031744 57.520847
17.825958 42.815694 56.625835
1.829603 34.316469 39.588503
2.013354 33.670536 40.815283
1.261787 39.551569 50.753075
1.472884 39.870728 49.266415
1.474511 37.996797 50.421429
0.637771 44.324105 51.80703
0.829014 42.725401 51.45205
0.635643 42.437308 53.038865
1.620678 59.516437 54.440911
1.573195 57.674759 55.975719
2.034066 58.710019 55.733967
1.219187 60.298096 53.102798
1.620678 59.516437 54.440911
1.474511 37.996797 50.421429
1.685875 36.454355 50.01088
3.748447 50.036747 63.188637
3.074068 49.195317 63.598179
4.432707 50.825485 62.740291
3.751409 51.921772 61.851551
3.748447 50.036747 63.188637
20.162723 39.369827 56.452736
19.302878 39.50906 57.167255
21.36535 42.04406 53.811764
22.14307 40.523838 54.358211
22.301291 41.924141 53.349548
20.448024 42.241558 54.398381
21.36535 42.04406 53.811764
2.490353 44.099927 39.810531
2.338985 44.087874 41.129553
1.63041 48.593021 42.903421
1.438624 50.190597 42.993534
0.171013 55.951721 50.113388
0.183299 55.594712 51.726158
0.232915 57.42025 50.210121
0.256356 56.235023 48.474159
0.20674 54.409485 49.990196
0.171013 55.951721 50.113388
0.356912 56.441509 46.812416
0.256356 56.235023 48.474159
6.816784 50.674026 62.215752
6.808867 48.883609 63.52892
7.650697 49.326603 62.81149
14.479301 43.475578 60.451161
15.253214 41.789676 60.651837
15.29878 43.366588 59.442909
13.675523 45.127437 60.248058
13.629957 43.550525 61.456986
14.479301 43.475578 60.451161
11.181776 50.094082 59.317249
12.022493 48.436928 59.680611
10.283189 50.030895 60.240177
11.181776 50.094082 59.317249
2.296476 31.558287 45.809162
2.295209 32.90959 46.189197
2.248172 32.095928 44.534488
2.296476 31.558287 45.809162
2.324967 33.825074 43.608064
2.227142 32.567593 43.270536
2.248172 32.095928 44.534488
2.059608 37.430518 37.894476
1.964104 35.938272 38.742108
2.213153 36.825508 39.075068
2.059608 37.430518 37.894476
2.18736 38.898712 37.147674
0.459067 42.095274 54.597805
0.635643 42.437308 53.038865
2.573541 57.750298 56.909157
2.538 55.901646 58.392257
3.124959 56.783604 58.032639
2.034066 58.710019 55.733967
2.573541 57.750298 56.909157
24.058089 40.338888 53.611999
23.859833 38.941925 54.485798
23.258657 41.773327 52.943398
24.058089 40.338888 53.611999
22.301291 41.924141 53.349548
23.258657 41.773327 52.943398
2.179641 43.938128 42.471758
2.338985 44.087874 41.129553
2.300077 42.472549 42.381977
1.180769 50.154525 44.578039
1.131704 48.403656 45.991378
0.932289 50.018623 46.153582
1.438624 50.190597 42.993534
1.180769 50.154525 44.578039
0.122923 45.935913 58.671337
0.088565 44.443176 58.400997
0.111622 47.918907 57.373974
0.122923 45.935913 58.671337
0.166186 47.426445 58.880607
0.304184 58.868538 50.254257
0.43291 58.408146 51.811939
0.491893 60.213444 50.243305
0.232915 57.42025 50.210121
0.304184 58.868538 50.254257
8.511782 47.855721 63.307632
9.374562 46.421713 63.749565
8.519699 49.646137 61.994465
7.650697 49.326603 62.81149
8.511782 47.855721 63.307632
16.898815 41.512628 58.701225
16.806355 40.011907 59.802548
17.632476 39.843849 58.860187
16.144211 43.199803 58.463207
16.898815 41.512628 58.701225
16.970332 43.031744 57.520847
15.370297 44.885704 58.262531
15.29878 43.366588 59.442909
16.144211 43.199803 58.463207
2.14085 33.8932 47.871597
2.029515 33.467363 49.235893
2.275861 34.25284 46.49984
2.14085 33.8932 47.871597
2.17229 35.680269 46.865059
2.326649 34.696659 45.182659
2.295209 32.90959 46.189197
2.275861 34.25284 46.49984
1.829603 34.316469 39.588503
1.964104 35.938272 38.742108
1.043524 41.132052 51.140973
1.261787 39.551569 50.753075
1.045651 43.018849 49.909138
1.043524 41.132052 51.140973
0.829014 42.725401 51.45205
0.781415 51.503399 59.119049
0.489049 50.222381 59.117485
0.782955 49.533451 60.471306
0.949593 60.934033 51.66196
0.890213 59.117115 53.241825
1.219187 60.298096 53.102798
0.691768 61.5257 50.184463
0.949593 60.934033 51.66196
1.861711 34.956691 49.661903
2.029515 33.467363 49.235893
1.861444 36.818292 48.585792
1.861711 34.956691 49.661903
1.685875 36.454355 50.01088
1.085793 48.833957 61.777519
0.782955 49.533451 60.471306
1.509795 49.990166 61.667068
1.085793 48.833957 61.777519
1.944022 51.113758 61.510238
1.509548 51.93806 60.31604
1.509795 49.990166 61.667068
2.505708 50.149449 62.580581
3.074068 49.195317 63.598179
2.505462 52.097344 61.229553
1.944022 51.113758 61.510238
2.505708 50.149449 62.580581
4.459804 54.551002 59.976002
3.786679 55.663224 59.032269
3.762544 53.822731 60.459473
18.451934 39.694191 57.985897
17.632476 39.843849 58.860187
18.575879 41.159439 56.940224
18.451934 39.694191 57.985897
19.302878 39.50906 57.167255
18.676901 42.630564 55.807193
17.825958 42.815694 56.625835
18.575879 41.159439 56.940224
22.899116 38.98551 54.816539
23.859833 38.941925 54.485798
21.963176 39.105429 55.278755
22.899116 38.98551 54.816539
22.14307 40.523838 54.358211
21.052877 39.204552 55.802159
21.963176 39.105429 55.278755
20.316976 40.809033 55.471004
20.162723 39.369827 56.452736
21.052877 39.204552 55.802159
19.557871 42.406834 55.048958
20.316976 40.809033 55.471004
20.448024 42.241558 54.398381
18.676901 42.630564 55.807193
19.557871 42.406834 55.048958
2.569936 41.533762 37.564312
2.505695 41.682869 36.707986
2.498334 40.481806 37.715898
2.597597 42.761578 37.585527
2.569936 41.533762 37.564312
2.590236 41.560514 38.59344
2.622604 44.092674 37.423099
2.597597 42.761578 37.585527
2.569592 44.182945 38.597973
2.538659 42.705313 39.827213
2.490353 44.099927 39.810531
2.622604 44.092674 37.423099
2.569592 44.182945 38.597973
2.002309 45.46333 42.648505
2.179641 43.938128 42.471758
1.963402 43.848005 43.900928
1.833353 47.009845 42.734341
1.583127 46.956383 44.246755
1.63041 48.593021 42.903421
2.002309 45.46333 42.648505
1.833353 47.009845 42.734341
0.317184 43.67887 54.97477
0.459067 42.095274 54.597805
0.129163 44.875051 56.860199
0.088565 44.443176 58.400997
0.182606 45.270876 55.282265
0.129163 44.875051 56.860199
0.121801 46.8242 55.586769
0.309821 45.628017 53.70134
0.317184 43.67887 54.97477
0.182606 45.270876 55.282265
0.321198 50.800884 57.674236
0.322738 48.830936 59.026493
0.489049 50.222381 59.117485
0.468185 54.850063 46.693611
0.586985 53.253475 46.515232
0.410882 53.096199 48.172588
0.468185 54.850063 46.693611
0.356912 56.441509 46.812416
5.977034 48.372871 64.216019
6.808867 48.883609 63.52892
5.20235 49.585746 63.50528
5.977034 48.372871 64.216019
5.205312 51.470771 62.168194
4.432707 50.825485 62.740291
5.20235 49.585746 63.50528
5.243866 55.131417 59.371193
4.459804 54.551002 59.976002
5.21973 53.290924 60.798397
16.009287 40.133415 60.784202
16.806355 40.011907 59.802548
16.009287 40.133415 60.784202
15.253214 41.789676 60.651837
12.801053 43.559977 62.471199
13.629957 43.550525 61.456986
11.965554 45.14788 62.230384
12.801053 43.559977 62.471199
14.585932 46.59399 57.986946
15.370297 44.885704 58.262531
13.713112 46.735893 58.973205
14.585932 46.59399 57.986946
12.863769 46.81084 59.979031
13.675523 45.127437 60.248058
13.713112 46.735893 58.973205
11.984905 46.828472 60.955463
12.863769 46.81084 59.979031
12.022493 48.436928 59.680611
11.124279 46.773967 61.931964
11.965554 45.14788 62.230384
11.984905 46.828472 60.955463
10.262207 48.314907 61.573825
10.242857 46.634315 62.848747
11.124279 46.773967 61.931964
9.401767 49.891243 61.156959
10.262207 48.314907 61.573825
10.283189 50.030895 60.240177
8.540681 51.362125 60.660816
8.519699 49.646137 61.994465
9.401767 49.891243 61.156959
7.686913 52.863281 60.104664
8.540681 51.362125 60.660816
6.859502 54.240441 59.452297
6.831202 52.494179 60.845955
7.686913 52.863281 60.104664
6.0431 55.640381 58.739521
6.859502 54.240441 59.452297
5.243866 55.131417 59.371193
6.0431 55.640381 58.739521
2.106497 33.152273 42.02599
2.227142 32.567593 43.270536
2.210793 34.815 41.133406
2.013354 33.670536 40.815283
2.106497 33.152273 42.02599
2.366531 41.405147 35.918005
2.505695 41.682869 36.707986
3 0 59 60
3 0 61 63
3 63 62 13
3 61 62 63
3 65 64 14
3 1 19 17
3 2 66 68
3 68 67 20
3 66 67 68
3 2 69 70
3 71 23 72
3 74 73 24
3 75 26 76
3 78 77 27
3 1 30 29
3 1 17 30
3 3 79 80
3 81 34 82
3 83 82 32
3 81 82 83
3 5 84 86
3 84 35 85
3 84 85 86
3 5 36 35
3 6 39 37
3 87 40 88
3 89 88 15
3 87 88 89
3 91 90 40
3 92 32 93
3 94 41 95
3 96 42 97
3 98 97 41
3 96 97 98
3 99 43 100
3 101 44 102
3 103 102 16
3 101 102 103
3 105 104 44
3 8 46 45
3 107 106 18
3 4 47 33
3 109 108 21
3 9 48 22
3 9 49 48
3 7 50 38
3 110 51 111
3 112 111 25
3 110 111 112
3 113 52 114
3 115 114 51
3 113 114 115
3 117 116 52
3 10 118 120
3 118 53 119
3 118 119 120
3 10 54 53
3 11 121 123
3 123 122 28
3 121 122 123
3 11 124 126
3 124 55 125
3 124 125 126
3 127 56 128
3 130 129 56
3 12 131 132
3 12 133 134
3 12 135 137
3 135 57 136
3 135 136 137
3 8 58 31
3 8 45 58
3 13 138 140
3 140 139 3
3 138 139 140
3 142 141 13
3 143 5 144
3 14 15 6
3 145 15 146
3 147 146 14
3 145 146 147
3 149 148 15
3 150 16 151
3 152 16 153
3 155 154 16
3 17 18 8
3 19 18 17
3 19 156 158
3 158 157 18
3 156 157 158
3 20 21 4
3 159 21 160
3 161 160 20
3 159 160 161
3 163 162 21
3 164 22 165
3 23 166 168
3 166 22 167
3 166 167 168
3 23 9 22
3 24 25 7
3 169 25 170
3 171 170 24
3 169 170 171
3 173 172 25
3 26 174 175
3 26 176 178
3 176 10 177
3 176 177 178
3 27 179 181
3 179 28 180
3 179 180 181
3 182 28 183
3 184 183 27
3 182 183 184
3 185 11 186
3 187 186 28
3 185 186 187
3 29 188 189
3 30 190 192
3 192 191 29
3 190 191 192
3 30 193 195
3 193 12 194
3 193 194 195
3 30 31 12
3 17 31 30
3 17 8 31
3 197 196 3
3 32 33 1
3 34 33 32
3 34 4 33
3 198 34 199
3 35 200 202
3 200 34 201
3 200 201 202
3 35 4 34
3 35 20 4
3 36 20 35
3 36 2 20
3 37 203 205
3 203 38 204
3 203 204 205
3 39 38 37
3 39 7 38
3 15 39 6
3 40 39 15
3 40 7 39
3 40 24 7
3 206 24 207
3 208 207 40
3 206 207 208
3 210 209 24
3 211 29 212
3 32 213 215
3 213 29 214
3 213 214 215
3 32 1 29
3 216 37 217
3 218 37 219
3 220 6 221
3 222 221 37
3 220 221 222
3 41 223 224
3 41 225 227
3 225 6 226
3 225 226 227
3 41 14 6
3 42 14 41
3 42 228 230
3 230 229 14
3 228 229 230
3 231 27 232
3 43 233 235
3 233 27 234
3 233 234 235
3 43 236 238
3 238 237 27
3 236 237 238
3 16 239 240
3 44 241 243
3 243 242 16
3 241 242 243
3 44 244 245
3 44 246 248
3 246 43 247
3 246 247 248
3 249 43 250
3 251 250 44
3 249 250 251
3 253 252 43
3 45 254 256
3 256 255 0
3 254 255 256
3 46 257 259
3 259 258 45
3 257 258 259
3 46 260 261
3 18 46 8
3 262 46 263
3 264 263 18
3 262 263 264
3 266 265 46
3 33 19 1
3 47 19 33
3 47 267 269
3 269 268 19
3 267 268 269
3 21 47 4
3 270 47 271
3 272 271 21
3 270 271 272
3 274 273 47
3 275 5 276
3 22 277 278
3 48 279 281
3 281 280 22
3 279 280 281
3 48 282 284
3 282 5 283
3 282 283 284
3 48 36 5
3 49 36 48
3 49 2 36
3 38 285 287
3 285 23 286
3 285 286 287
3 50 23 38
3 50 9 23
3 25 50 7
3 51 50 25
3 51 9 50
3 51 49 9
3 52 49 51
3 52 2 49
3 52 288 290
3 290 289 2
3 288 289 290
3 292 291 52
3 53 293 294
3 53 295 296
3 53 297 299
3 297 42 298
3 297 298 299
3 54 42 53
3 54 300 302
3 302 301 42
3 300 301 302
3 28 303 304
3 306 305 28
3 55 307 308
3 55 309 310
3 311 11 312
3 313 11 314
3 315 55 316
3 317 316 11
3 315 316 317
3 56 318 320
3 318 55 319
3 318 319 320
3 56 321 323
3 323 322 55
3 321 322 323
3 56 324 326
3 324 26 325
3 324 325 326
3 327 26 328
3 329 328 56
3 327 328 329
3 330 10 331
3 332 331 26
3 330 331 332
3 333 10 334
3 335 54 336
3 337 336 10
3 335 336 337
3 338 54 339
3 341 340 54
3 57 342 343
3 57 344 346
3 344 3 345
3 344 345 346
3 31 57 12
3 58 57 31
3 58 3 57
3 58 13 3
3 45 13 58
3 45 0 13
3 348 347 0
