ply
format ascii 1.0
element vertex 303
property float x
property float y
property float z
element face 293
property list uchar int vertex_index
end_header
49.896248 -10.885262 16.426113
66.836197 -10.679463 18.143646
58.69133 -11.097974 16.332146
65.115601 0.107254 13.160477
69.465187 -0.40209 18.239395
46.040352 -10.541408 16.278091
63.053459 -10.950062 16.854584
61.872444 0.428236 11.619246
54.199905 -11.082246 16.302776
49.692501 -17.132931 18.41165
43.418877 -2.822905 13.727684
46.658417 -3.481256 14.10829
50.403538 -4.162932 13.902319
54.428219 -4.766189 13.588854
58.553806 -5.184176 13.588564
62.597244 -5.37534 14.140505
66.250595 -5.390535 15.376004
67.788933 -0.088816 15.370736
69.049889 -5.34484 17.418634
47.89624 -10.727566 16.414452
45.829197 -13.883318 17.171631
47.70385 -14.001108 17.40057
65.05024 -10.827762 17.388725
63.174942 -13.595743 18.272356
56.439461 -11.112702 16.275143
54.150932 -14.080045 17.499733
56.449596 -14.013468 17.52368
42.240101 1.376755 12.384168
42.061897 -2.519575 13.205323
43.662373 1.009085 12.781269
46.971619 0.201145 12.929161
48.793678 -0.227777 12.772629
48.482849 -3.824559 14.049955
50.684425 -0.660236 12.545163
54.567902 -1.474163 12.146109
56.522934 -1.821543 12.088439
56.488388 -5.003106 13.530422
58.468452 -2.110189 12.175824
63.541656 0.239943 12.303944
62.267624 -2.490189 12.844227
64.068886 -2.590544 13.433582
64.499123 -5.398694 14.665077
65.749184 -2.649416 14.197234
68.777298 -0.214008 16.723917
68.517654 -2.728945 16.276741
69.488815 -2.798965 17.605907
70.124695 -2.922951 19.12496
44.360462 -10.336722 15.964984
60.913284 -11.041954 16.513327
58.754631 -13.906996 17.630476
61.016018 -13.76627 17.86623
69.822807 -0.683958 19.904167
52.008072 -11.005565 16.370161
49.740108 -14.075184 17.494057
51.90152 -14.101604 17.50808
41.846542 -6.289396 13.974037
43.144447 -6.541468 14.625254
45.250076 0.615723 12.949995
44.960304 -3.144783 14.0173
44.648323 -6.802745 15.038434
46.333199 -7.068583 15.243042
48.170151 -7.330386 15.28384
50.129051 -7.57661 15.216358
52.616371 -1.081436 12.315205
52.393158 -4.481827 13.728924
52.18084 -7.794716 15.100161
54.298431 -7.973455 14.991878
56.455948 -8.104837 14.94019
58.625839 -8.185379 14.984212
60.39024 -2.332895 12.425665
60.600815 -5.30697 13.786505
60.774895 -8.216352 15.155202
62.860313 -8.20313 15.480062
64.827957 -8.153894 15.984282
66.614365 -8.078172 16.692268
66.549538 0.007355 14.183084
67.252403 -2.687534 15.142174
67.788292 -5.366869 16.289616
68.153252 -7.985741 17.62446
47.633537 -17.136805 18.225965
66.000713 -12.038405 18.513886
65.107735 -12.112555 18.136425
65.943219 -10.753612 17.766185
43.042263 3.15164 12.105228
42.296625 3.371879 11.961945
43.753399 2.967805 12.303778
42.951237 1.19292 12.582719
43.042263 3.15164 12.105228
49.86729 1.342081 11.996582
48.931663 1.605474 12.147005
50.812664 1.125852 11.882849
49.739052 -0.444007 12.658896
49.86729 1.342081 11.996582
57.441299 -0.40063 11.44624
56.533121 -0.198552 11.38607
58.414058 -0.544953 11.489932
57.495693 -1.965866 12.132131
57.441299 -0.40063 11.44624
69.121242 -0.308049 17.481656
68.675339 0.951789 17.1926
69.019284 0.857748 17.950339
45.095646 -12.135048 16.517777
44.255701 -12.032705 16.361224
45.200407 -10.439065 16.121537
44.952354 -15.423185 17.281362
45.788828 -15.481355 17.536738
62.131085 -14.984907 18.755185
63.20269 -14.859862 19.012758
53.017719 -15.575007 18.007054
54.159058 -15.517078 18.046109
57.625233 -15.350484 18.16706
58.787922 -15.252683 18.266406
46.244693 2.28574 12.358322
45.367593 2.534798 12.418761
53.655897 0.402539 11.527589
52.719896 0.653661 11.626224
61.131342 -0.95233 12.022455
60.264646 -0.8231 11.770937
61.005748 0.557466 11.367728
67.326214 1.215211 15.030169
67.816589 1.12981 15.740125
67.169235 -0.040731 14.77691
66.706516 1.263297 14.436343
67.326214 1.215211 15.030169
69.217579 -6.615607 18.105338
68.769261 -7.936058 18.208251
68.60157 -6.66529 17.521547
70.11649 -1.904535 20.359977
69.833877 -0.884975 20.800967
46.726154 -15.54025 17.651208
45.788828 -15.481355 17.536738
46.766524 -13.942213 17.2861
64.170086 -13.496545 18.57824
64.112591 -12.211752 17.83054
65.107735 -12.112555 18.136425
64.197834 -14.760665 19.318643
63.20269 -14.859862 19.012758
64.170086 -13.496545 18.57824
55.30839 -15.48379 18.058082
54.159058 -15.517078 18.046109
55.300264 -14.046757 17.511706
41.62507 1.545454 12.059928
41.681595 3.540578 11.637704
42.296625 3.371879 11.961945
41.575878 -0.42984 12.408335
40.960847 -0.261141 12.084094
41.62507 1.545454 12.059928
42.150999 -0.57141 12.794746
41.486776 -2.378005 12.818912
41.575878 -0.42984 12.408335
48.020634 1.819935 12.225271
47.105465 2.078451 12.347905
47.882649 -0.013316 12.850895
48.020634 1.819935 12.225271
48.931663 1.605474 12.147005
55.555605 -0.024862 11.414905
54.631662 0.206176 11.443041
55.545418 -1.647853 12.117274
55.555605 -0.024862 11.414905
56.533121 -0.198552 11.38607
68.310772 1.067214 16.416716
68.675339 0.951789 17.1926
68.283116 -0.151412 16.047327
67.816589 1.12981 15.740125
68.310772 1.067214 16.416716
69.736759 -4.070435 18.186145
69.517296 -5.343372 18.092509
69.269352 -4.071903 17.51227
70.054699 -4.132428 18.945672
69.736759 -4.070435 18.186145
69.806755 -2.860958 18.365434
70.344116 -4.149599 19.723196
70.054699 -4.132428 18.945672
48.706804 -18.626188 18.656799
49.736874 -18.588323 18.80554
43.53015 -11.941065 16.042417
43.623081 -10.22955 15.699592
43.53015 -11.941065 16.042417
44.255701 -12.032705 16.361224
44.990068 -13.806003 16.964547
45.095646 -12.135048 16.517777
45.934775 -12.212363 16.724861
44.990068 -13.806003 16.964547
44.952354 -15.423185 17.281362
59.918616 -15.18232 18.384283
58.787922 -15.252683 18.266406
59.885325 -13.836633 17.748353
61.051623 -15.07017 18.552122
62.09548 -13.681007 18.069293
62.131085 -14.984907 18.755185
59.918616 -15.18232 18.384283
61.051623 -15.07017 18.552122
61.641132 1.893777 11.066408
61.005748 0.557466 11.367728
62.395859 1.746886 11.462152
61.641132 1.893777 11.066408
63.230464 1.652739 11.804501
62.70705 0.334089 11.961595
62.395859 1.746886 11.462152
63.947643 1.541686 12.290176
63.230464 1.652739 11.804501
63.636451 2.954483 11.790733
64.734615 1.475342 12.718442
64.328629 0.173598 12.732211
63.947643 1.541686 12.290176
69.23706 0.69231 18.7859
69.019284 0.857748 17.950339
69.41587 0.551376 19.618286
69.643997 -0.543024 19.071781
69.23706 0.69231 18.7859
69.475845 0.318925 20.504779
69.41587 0.551376 19.618286
69.486916 0.117908 21.401579
69.833877 -0.884975 20.800967
69.475845 0.318925 20.504779
66.877434 -11.924767 18.935586
67.591072 -10.5939 18.640904
51.893013 -15.585787 18.011228
53.026226 -14.090825 17.503906
53.017719 -15.575007 18.007054
50.788504 -17.10145 18.463013
50.79701 -15.617268 17.959865
51.893013 -15.585787 18.011228
49.736874 -18.588323 18.80554
50.788504 -17.10145 18.463013
56.472715 -15.40372 18.113662
57.602114 -13.960232 17.577078
57.625233 -15.350484 18.16706
55.30839 -15.48379 18.058082
56.472715 -15.40372 18.113662
66.000713 -12.038405 18.513886
66.877434 -11.924767 18.935586
41.4174 -4.283497 13.138676
41.486776 -2.378005 12.818912
41.309722 -6.168407 13.523033
41.4174 -4.283497 13.138676
41.95422 -4.404485 13.58968
41.242076 -7.98691 13.804412
41.309722 -6.168407 13.523033
41.743085 -8.096848 14.31717
41.242076 -7.98691 13.804412
42.392038 -8.222884 14.642779
41.743085 -8.096848 14.31717
42.495494 -6.415432 14.299646
43.015073 -8.331923 15.029727
42.392038 -8.222884 14.642779
44.573742 2.731479 12.334398
43.753399 2.967805 12.303778
44.456225 0.812404 12.865632
44.573742 2.731479 12.334398
45.367593 2.534798 12.418761
46.110847 0.408434 12.939578
46.244693 2.28574 12.358322
47.105465 2.078451 12.347905
43.767011 -8.462561 15.236318
43.015073 -8.331923 15.029727
43.896385 -6.672106 14.831844
44.504392 -8.569733 15.501709
43.623081 -10.22955 15.699592
43.767011 -8.462561 15.236318
51.753923 0.864261 11.741203
50.812664 1.125852 11.882849
51.650398 -0.870836 12.430184
51.753923 0.864261 11.741203
52.719896 0.653661 11.626224
53.592136 -1.277799 12.230657
53.655897 0.402539 11.527589
54.631662 0.206176 11.443041
59.303753 -0.711747 11.646016
58.414058 -0.544953 11.489932
59.429346 -2.221542 12.300745
59.303753 -0.711747 11.646016
60.264646 -0.8231 11.770937
65.399186 1.389445 13.284758
64.734615 1.475342 12.718442
66.116154 1.339495 13.796062
66.706516 1.263297 14.436343
65.83257 0.057305 13.671781
65.399186 1.389445 13.284758
66.116154 1.339495 13.796062
68.249599 -9.247039 18.38131
67.591072 -10.5939 18.640904
67.494724 -9.332602 17.884053
68.249599 -9.247039 18.38131
68.769261 -7.936058 18.208251
69.217579 -6.615607 18.105338
69.517296 -5.343372 18.092509
70.267434 -3.024032 19.970374
69.973751 -1.803454 19.514564
70.11649 -1.904535 20.359977
70.344116 -4.149599 19.723196
70.267434 -3.024032 19.970374
46.690998 -17.108098 18.063905
46.726154 -15.54025 17.651208
47.668694 -15.568956 17.813267
47.677322 -18.628125 18.563957
48.663019 -17.134868 18.318807
48.706804 -18.626188 18.656799
46.737815 -18.625586 18.348572
47.677322 -18.628125 18.563957
45.795276 -18.596879 18.186513
46.690998 -17.108098 18.063905
46.737815 -18.625586 18.348572
3 0 21 19
3 1 80 82
3 82 81 22
3 80 81 82
3 2 26 24
3 83 27 84
3 85 29 86
3 87 86 27
3 85 86 87
3 88 31 89
3 90 33 91
3 92 91 31
3 90 91 92
3 93 35 94
3 95 37 96
3 97 96 35
3 95 96 97
3 3 40 38
3 3 42 40
3 4 98 100
3 98 43 99
3 98 99 100
3 4 45 43
3 4 46 45
3 5 101 103
3 103 102 47
3 101 102 103
3 105 104 20
3 6 50 48
3 107 106 23
3 8 54 52
3 109 108 25
3 111 110 49
3 10 55 28
3 10 56 55
3 112 57 113
3 11 58 30
3 11 59 58
3 11 60 59
3 12 61 32
3 12 62 61
3 114 63 115
3 13 64 34
3 13 65 64
3 13 66 65
3 14 67 36
3 14 68 67
3 7 116 118
3 116 69 117
3 116 117 118
3 15 70 39
3 15 71 70
3 15 72 71
3 16 73 41
3 16 74 73
3 17 119 120
3 17 121 123
3 121 75 122
3 121 122 123
3 17 76 75
3 18 77 44
3 18 78 77
3 18 124 126
3 126 125 78
3 124 125 126
3 128 127 51
3 9 79 53
3 19 20 5
3 21 20 19
3 21 129 131
3 131 130 20
3 129 130 131
3 22 23 6
3 132 23 133
3 134 133 22
3 132 133 134
3 137 136 23
3 135 136 137
3 24 25 8
3 26 25 24
3 26 138 140
3 140 139 25
3 138 139 140
3 27 141 143
3 141 142 143
3 27 144 146
3 144 145 146
3 27 147 149
3 147 28 148
3 147 148 149
3 29 28 27
3 29 10 28
3 150 30 151
3 31 152 154
3 152 30 153
3 152 153 154
3 31 11 30
3 31 32 11
3 33 32 31
3 33 12 32
3 155 34 156
3 35 157 159
3 157 34 158
3 157 158 159
3 35 13 34
3 35 36 13
3 37 36 35
3 37 14 36
3 38 39 7
3 40 39 38
3 40 15 39
3 40 41 15
3 42 41 40
3 42 16 41
3 43 160 161
3 43 162 164
3 162 17 163
3 162 163 164
3 43 44 17
3 45 44 43
3 45 18 44
3 45 165 167
3 167 166 18
3 165 166 167
3 46 168 170
3 170 169 45
3 168 169 170
3 46 171 172
3 174 173 9
3 47 175 176
3 178 177 47
3 20 179 181
3 181 180 5
3 179 180 181
3 183 182 20
3 48 49 2
3 50 49 48
3 50 184 186
3 186 185 49
3 184 185 186
3 23 50 6
3 187 50 188
3 189 188 23
3 187 188 189
3 191 190 50
3 192 7 193
3 194 7 195
3 196 38 197
3 198 197 7
3 196 197 198
3 199 38 200
3 199 200 201
3 202 3 203
3 204 203 38
3 202 203 204
3 205 4 206
3 207 51 208
3 209 208 4
3 207 208 209
3 210 51 211
3 214 213 51
3 212 213 214
3 216 215 1
3 52 53 0
3 54 53 52
3 54 9 53
3 25 54 8
3 217 54 218
3 219 218 25
3 217 218 219
3 220 9 221
3 222 221 54
3 220 221 222
3 224 223 9
3 49 26 2
3 225 26 226
3 227 226 49
3 225 226 227
3 229 228 26
3 231 230 1
3 28 232 233
3 55 234 236
3 236 235 28
3 234 235 236
3 55 237 238
3 55 239 240
3 56 241 243
3 243 242 55
3 241 242 243
3 56 244 245
3 246 29 247
3 57 248 250
3 248 29 249
3 248 249 250
3 57 10 29
3 30 251 253
3 251 57 252
3 251 252 253
3 58 57 30
3 58 10 57
3 58 56 10
3 59 56 58
3 59 254 256
3 256 255 56
3 254 255 256
3 59 257 259
3 257 47 258
3 257 258 259
3 60 47 59
3 60 5 47
3 32 60 11
3 61 60 32
3 61 5 60
3 61 19 5
3 62 19 61
3 62 0 19
3 260 33 261
3 63 262 264
3 262 33 263
3 262 263 264
3 63 12 33
3 34 265 267
3 265 63 266
3 265 266 267
3 64 63 34
3 64 12 63
3 64 62 12
3 65 62 64
3 65 0 62
3 65 52 0
3 66 52 65
3 66 8 52
3 36 66 13
3 67 66 36
3 67 8 66
3 67 24 8
3 68 24 67
3 68 2 24
3 268 37 269
3 69 270 272
3 270 37 271
3 270 271 272
3 69 14 37
3 39 69 7
3 70 69 39
3 70 14 69
3 70 68 14
3 71 68 70
3 71 2 68
3 71 48 2
3 72 48 71
3 72 6 48
3 41 72 15
3 73 72 41
3 73 6 72
3 73 22 6
3 74 22 73
3 74 1 22
3 273 3 274
3 75 275 276
3 75 277 279
3 277 3 278
3 277 278 279
3 75 42 3
3 76 42 75
3 76 16 42
3 44 76 17
3 77 76 44
3 77 16 76
3 77 74 16
3 78 74 77
3 78 1 74
3 78 280 282
3 282 281 1
3 280 281 282
3 284 283 78
3 286 285 18
3 51 46 4
3 287 46 288
3 289 288 51
3 287 288 289
3 291 290 46
3 53 21 0
3 79 21 53
3 79 292 294
3 294 293 21
3 292 293 294
3 295 79 296
3 297 296 9
3 295 296 297
3 298 79 299
3 302 301 79
3 300 301 302
