ply
format ascii 1.0
element vertex 177
property float x
property float y
property float z
element face 164
property list uchar int vertex_index
end_header
-38.54821 71.942123 -11.548656
-42.081482 66.680679 -0.805864
-38.094154 68.501068 9.777433
-40.72319 69.78949 -6.426493
-44.53743 64.397614 -5.60647
-43.122337 66.837387 -10.842707
-36.075008 72.364182 3.833848
-36.021164 74.418793 -6.996656
-39.906624 64.019257 15.587219
-39.863743 68.061081 4.446878
-38.267921 71.621796 -1.413443
-39.734207 70.182816 -13.555666
-39.757004 71.001083 -9.06834
-41.962147 68.444626 -8.736225
-40.976273 69.465378 -11.244835
-42.568233 64.831818 2.101405
-43.769424 63.927128 -0.432486
-37.302677 68.365417 12.377981
-39.012711 66.329117 12.714499
-40.507294 64.03894 12.98862
-39.727898 66.290405 10.079214
-40.534515 66.022018 7.404638
-38.931141 68.398926 7.122625
-34.898647 74.052643 0.886789
-37.13203 72.119888 1.199094
-36.040054 73.722137 -1.70706
-37.245827 73.121902 -4.254301
-41.483261 68.340652 -3.660088
-43.31414 65.644989 -3.289547
-42.727375 67.160019 -6.070473
-43.924171 65.742966 -8.296576
-36.233433 70.449692 9.429624
-37.127079 70.514999 6.807064
-35.084652 72.374512 6.461324
-45.00547 62.833981 -2.816698
-37.29435 73.356567 -9.346811
-41.478409 65.533157 4.730352
-40.916641 67.488083 1.789378
-38.080952 70.344955 4.152116
-39.125095 69.931793 1.497
-40.266155 69.265823 -1.121225
-39.474831 70.84935 -3.969131
-38.496658 72.220978 -6.721823
-37.809314 72.257416 -12.692062
-38.402313 71.377762 -13.695567
-39.141208 71.062469 -12.552161
-34.801766 74.654846 -1.857289
-35.46935 73.88739 -0.410135
-34.231062 74.820099 -0.560365
-35.404072 74.435715 -3.123165
-34.801766 74.654846 -1.857289
-44.051682 65.481217 -10.5606
-44.452599 64.934006 -9.287535
-43.523254 66.290177 -9.569641
-43.622015 65.923683 -11.765698
-44.051682 65.481217 -10.5606
-35.182957 71.307449 9.243123
-35.793665 70.30172 10.711664
-34.743189 71.159477 10.525163
-34.608566 72.269859 7.758973
-35.659042 71.412102 7.945474
-35.182957 71.307449 9.243123
-35.293873 74.953804 -8.305426
-35.930466 74.422691 -9.480503
-36.657757 73.88768 -8.171734
-39.599247 63.891409 16.846182
-39.112415 65.074211 15.433002
-40.342686 62.810721 16.976386
-39.599247 63.891409 16.846182
-40.595907 62.846483 15.70201
-40.342686 62.810721 16.976386
-41.173361 62.783602 13.097562
-40.845314 63.936887 11.66257
-38.972712 70.369278 -14.596559
-40.265698 69.149315 -14.438751
-38.972712 70.369278 -14.596559
-38.402313 71.377762 -13.695567
-41.533876 68.553779 -12.221576
-42.606909 67.239784 -12.020512
-42.049305 68.151383 -11.043771
-40.912843 68.912498 -13.376991
-41.533876 68.553779 -12.221576
-40.35524 69.824097 -12.400251
-40.265698 69.149315 -14.438751
-40.912843 68.912498 -13.376991
-43.355611 63.431792 2.283127
-42.782162 63.824625 3.564588
-43.956207 62.979447 1.016182
-43.355611 63.431792 2.283127
-43.168829 64.379473 0.83446
-44.571314 62.503479 -0.199575
-43.956207 62.979447 1.016182
-45.352097 62.987139 -5.299178
-45.093323 63.682974 -6.651498
-34.655152 75.40419 -7.135224
-35.394627 74.784042 -5.767963
-37.810442 67.247291 13.828383
-36.897812 68.178085 13.638783
-38.665459 66.229141 13.996642
-37.810442 67.247291 13.828383
-38.157694 67.347267 12.54624
-39.459668 65.174187 14.150859
-39.112415 65.074211 15.433002
-38.665459 66.229141 13.996642
-40.455616 65.06262 10.207866
-40.845314 63.936887 11.66257
-40.117596 65.164672 11.533917
-40.131207 66.156212 8.741926
-40.858925 64.928427 8.870579
-40.455616 65.06262 10.207866
-36.006958 74.135597 -4.396786
-36.64294 73.42202 -2.980681
-35.404072 74.435715 -3.123165
-35.394627 74.784042 -5.767963
-36.633495 73.770347 -5.625478
-36.006958 74.135597 -4.396786
-44.786693 64.35565 -7.996551
-45.093323 63.682974 -6.651498
-44.230801 65.07029 -6.951523
-44.786693 64.35565 -7.996551
-44.452599 64.934006 -9.287535
-43.622015 65.923683 -11.765698
-42.606909 67.239784 -12.020512
-36.328287 69.259582 12.185842
-36.897812 68.178085 13.638783
-36.768055 69.407555 10.903803
-36.328287 69.259582 12.185842
-35.793665 70.30172 10.711664
-33.945106 73.202484 6.286662
-34.608566 72.269859 7.758973
-34.454611 73.260514 4.980943
-33.945106 73.202484 6.286662
-34.949789 73.255348 3.667204
-35.57983 72.369347 5.147586
-34.454611 73.260514 4.980943
-34.361609 74.099579 2.193675
-35.486827 73.208413 2.360318
-34.949789 73.255348 3.667204
-33.660839 74.916108 0.730112
-34.361609 74.099579 2.193675
-33.123801 74.963043 2.036998
-34.231062 74.820099 -0.560365
-33.660839 74.916108 0.730112
-45.189336 61.956906 -1.391682
-44.571314 62.503479 -0.199575
-44.387447 63.380555 -1.624592
-45.586117 62.205323 -3.904292
-44.77145 63.615797 -4.211584
-45.352097 62.987139 -5.299178
-45.789499 61.407414 -2.512575
-45.586117 62.205323 -3.904292
-45.189336 61.956906 -1.391682
-45.789499 61.407414 -2.512575
-36.567543 73.789535 -10.580632
-37.194473 73.082313 -11.681555
-37.92128 72.649345 -10.447734
-36.567543 73.789535 -10.580632
-35.930466 74.422691 -9.480503
-35.293873 74.953804 -8.305426
-34.655152 75.40419 -7.135224
-40.896242 62.856325 14.40271
-40.595907 62.846483 15.70201
-40.206959 64.029099 14.287919
-40.896242 62.856325 14.40271
-41.173361 62.783602 13.097562
-41.268768 64.722403 7.536389
-40.858925 64.928427 8.870579
-41.740715 64.477972 6.199245
-41.268768 64.722403 7.536389
-41.006462 65.777588 6.067495
-42.23725 64.175295 4.879062
-41.740715 64.477972 6.199245
-42.023321 65.182488 3.415878
-42.782162 63.824625 3.564588
-42.23725 64.175295 4.879062
-37.809314 72.257416 -12.692062
-37.194473 73.082313 -11.681555
3 0 43 45
3 45 44 11
3 43 44 45
3 0 14 12
3 0 11 14
3 1 16 15
3 2 18 17
3 2 20 18
3 2 22 20
3 46 25 47
3 48 47 23
3 46 47 48
3 50 49 25
3 3 29 27
3 5 30 13
3 5 51 53
3 53 52 30
3 51 52 53
3 5 54 55
3 56 31 57
3 56 57 58
3 59 33 60
3 61 60 31
3 59 60 61
3 4 34 28
3 7 62 64
3 64 63 35
3 62 63 64
3 8 65 66
3 8 67 68
3 8 69 70
3 72 71 19
3 9 36 21
3 9 37 36
3 6 38 32
3 10 39 24
3 10 40 39
3 10 41 40
3 7 42 26
3 7 35 42
3 11 73 74
3 76 75 11
3 12 13 3
3 14 13 12
3 14 5 13
3 14 77 79
3 79 78 5
3 77 78 79
3 11 80 82
3 82 81 14
3 80 81 82
3 11 83 84
3 15 85 86
3 16 87 89
3 89 88 15
3 87 88 89
3 16 90 91
3 93 92 4
3 95 94 7
3 17 96 97
3 18 98 100
3 100 99 17
3 98 99 100
3 18 101 103
3 101 8 102
3 101 102 103
3 18 19 8
3 20 19 18
3 20 104 106
3 106 105 19
3 104 105 106
3 20 107 109
3 107 21 108
3 107 108 109
3 22 21 20
3 22 9 21
3 23 24 6
3 25 24 23
3 25 10 24
3 25 26 10
3 110 26 111
3 112 111 25
3 110 111 112
3 113 7 114
3 115 114 26
3 113 114 115
3 27 28 1
3 29 28 27
3 29 4 28
3 13 29 3
3 30 29 13
3 30 4 29
3 30 116 118
3 118 117 4
3 116 117 118
3 120 119 30
3 122 121 5
3 123 17 124
3 31 125 127
3 125 17 126
3 125 126 127
3 31 2 17
3 31 32 2
3 33 32 31
3 33 6 32
3 128 33 129
3 130 33 131
3 132 6 133
3 134 133 33
3 132 133 134
3 135 23 136
3 137 136 6
3 135 136 137
3 138 23 139
3 138 139 140
3 142 141 23
3 28 16 1
3 34 16 28
3 34 143 145
3 145 144 16
3 143 144 145
3 146 34 147
3 148 147 4
3 146 147 148
3 149 34 150
3 152 151 34
3 35 153 155
3 155 154 0
3 153 154 155
3 157 156 35
3 159 158 7
3 19 160 162
3 162 161 8
3 160 161 162
3 164 163 19
3 21 165 166
3 36 167 169
3 169 168 21
3 167 168 169
3 36 170 171
3 36 172 174
3 172 15 173
3 172 173 174
3 37 15 36
3 37 1 15
3 32 22 2
3 38 22 32
3 38 9 22
3 24 38 6
3 39 38 24
3 39 9 38
3 39 37 9
3 40 37 39
3 40 1 37
3 40 27 1
3 41 27 40
3 41 3 27
3 26 41 10
3 42 41 26
3 42 3 41
3 42 12 3
3 35 12 42
3 35 0 12
3 176 175 0
