ply
format ascii 1.0
element vertex 213
property float x
property float y
property float z
element face 191
property list uchar int vertex_index
end_header
54.830681 33.506935 15.139504
56.22813 36.363567 11.829028
56.718315 32.942413 9.046719
56.863907 30.349213 11.538561
52.520584 30.276848 18.214123
53.86644 39.33181 14.882379
50.830978 41.86845 18.112537
51.68708 36.214241 18.695045
49.003517 32.695896 22.11702
55.120007 35.313824 6.700931
55.679955 34.983494 13.516178
56.578117 33.390682 11.862485
56.059868 31.986568 13.326954
51.246685 28.554562 19.715551
49.849152 40.243969 20.264503
51.302597 39.084446 18.528675
50.115639 37.412338 20.46846
50.372292 34.499447 20.441961
48.831932 35.640728 22.30007
46.241714 31.870934 25.780741
56.815601 29.848003 8.873598
56.119217 31.055309 7.940697
52.156197 34.493114 5.518784
56.432926 37.655426 10.095437
56.55632 35.955647 8.883872
56.752602 34.710011 10.375437
56.973614 31.680557 10.280743
53.748253 31.934479 16.699427
55.255943 30.495647 14.764886
54.250053 28.926613 16.18737
55.753387 39.248459 11.416742
55.220455 37.903927 13.340206
54.391716 36.461243 15.182022
51.668999 43.392387 15.830882
52.342152 40.65073 16.463953
52.872635 37.826492 16.846054
53.316307 34.914661 16.928873
52.063438 33.266865 18.587446
50.717403 31.530136 20.182882
49.370773 29.72604 21.753304
47.515602 33.785416 24.056511
47.664276 30.82642 23.761881
53.739452 33.367561 6.270094
56.092361 34.147984 7.848783
55.079903 32.223915 7.073769
56.429665 28.943535 12.815775
51.641824 27.09702 19.402635
50.636923 27.675287 20.479118
49.297398 39.381496 21.275799
49.241957 40.780683 21.172873
49.430642 37.965681 21.377778
49.982395 38.828153 20.366481
49.297398 39.381496 21.275799
48.788788 37.079876 22.293583
49.473786 36.526533 21.384265
49.430642 37.965681 21.377778
56.466276 28.865108 8.319968
56.85626 28.270381 8.668297
52.245157 36.031357 5.049005
51.276207 35.043888 5.157951
57.008507 29.468718 10.705488
57.063361 30.13439 10.076579
56.91876 31.014885 10.909652
55.43038 40.645531 11.039385
55.858566 39.877786 10.429561
54.543447 38.617869 14.111293
54.92099 39.318903 13.07609
54.243983 40.032844 13.847176
50.523317 43.225081 17.804026
50.159298 42.432418 18.983913
51.249989 42.630419 16.971709
50.942328 43.987049 16.663199
50.523317 43.225081 17.804026
46.928126 34.299499 25.046078
47.536766 35.244044 24.127962
46.949289 35.758127 25.117529
47.052637 29.873576 24.591862
46.952995 31.348677 24.771311
46.341356 30.395832 25.601292
47.890728 29.355007 23.552045
47.052637 29.873576 24.591862
54.48374 35.883491 6.156465
55.107245 36.803404 6.344975
54.42973 34.340693 6.485513
53.793463 34.91036 5.941046
54.48374 35.883491 6.156465
55.045406 30.629892 7.118458
55.59956 31.639612 7.507233
55.565064 30.045589 7.551922
54.34664 31.194748 6.855211
55.045406 30.629892 7.118458
56.085875 28.206555 13.467285
55.842804 29.719591 13.79033
55.499014 28.98261 14.441841
52.194422 27.926617 18.666984
52.831372 28.78776 17.916269
51.883634 29.415705 18.964837
52.194422 27.926617 18.666984
51.641824 27.09702 19.402635
53.531925 40.72251 14.579885
54.243983 40.032844 13.847176
49.668385 41.620178 20.059896
49.241957 40.780683 21.172873
50.340065 41.05621 19.18852
50.159298 42.432418 18.983913
49.668385 41.620178 20.059896
45.702707 32.37447 26.80987
46.291182 33.342258 25.908193
45.666645 30.899191 26.649423
45.702707 32.37447 26.80987
45.127638 31.402727 27.678552
46.341356 30.395832 25.601292
45.666645 30.899191 26.649423
55.556887 36.229114 7.05718
55.107245 36.803404 6.344975
56.118084 29.468761 7.853518
56.467409 30.451656 8.407148
56.466276 28.865108 8.319968
55.565064 30.045589 7.551922
56.118084 29.468761 7.853518
51.163761 33.434839 5.617284
50.283772 33.985613 5.256451
51.276207 35.043888 5.157951
52.067432 32.886425 5.841641
51.163761 33.434839 5.617284
56.494623 36.805537 9.489655
56.418169 37.414805 8.615182
56.356472 38.264694 9.220964
56.984354 29.218113 9.373006
56.894607 30.76428 9.57717
57.063361 30.13439 10.076579
56.85626 28.270381 8.668297
56.984354 29.218113 9.373006
54.996069 28.198093 15.153083
55.499014 28.98261 14.441841
54.752998 29.71113 15.476128
53.696106 28.112642 16.902893
53.385318 29.601731 17.200747
52.831372 28.78776 17.916269
54.572345 27.435633 15.825667
53.696106 28.112642 16.902893
54.996069 28.198093 15.153083
54.572345 27.435633 15.825667
56.198335 39.08127 9.768909
56.356472 38.264694 9.220964
56.121882 39.690538 8.894436
56.093156 38.451943 10.756089
56.198335 39.08127 9.768909
55.858566 39.877786 10.429561
55.187456 39.991169 12.114358
55.43038 40.645531 11.039385
55.486921 38.576193 12.378474
55.187456 39.991169 12.114358
54.92099 39.318903 13.07609
51.246956 44.73505 15.424319
50.942328 43.987049 16.663199
52.01033 44.107301 14.634563
51.588287 45.449965 14.227999
51.246956 44.73505 15.424319
52.433205 42.752798 15.054136
52.01033 44.107301 14.634563
52.769782 41.381969 15.370672
52.433205 42.752798 15.054136
52.005575 42.021558 16.147417
53.104296 39.99127 15.673166
53.531925 40.72251 14.579885
52.769782 41.381969 15.370672
49.698967 28.261026 21.497995
50.636923 27.675287 20.479118
50.308729 29.140301 20.734428
48.194931 36.1717 23.249741
48.788788 37.079876 22.293583
48.173767 34.713072 23.178291
48.194931 36.1717 23.249741
47.536766 35.244044 24.127962
46.878658 32.828175 24.918626
46.928126 34.299499 25.046078
46.291182 33.342258 25.908193
48.743977 28.804817 22.547756
48.517525 30.27623 22.757593
47.890728 29.355007 23.552045
49.698967 28.261026 21.497995
48.743977 28.804817 22.547756
53.001835 35.473136 5.565391
52.245157 36.031357 5.049005
52.947824 33.930338 5.894439
53.001835 35.473136 5.565391
53.793463 34.91036 5.941046
52.85906 32.323649 6.217296
52.067432 32.886425 5.841641
52.947824 33.930338 5.894439
56.275043 36.550026 8.148651
56.418169 37.414805 8.615182
56.043064 35.646195 7.631106
56.275043 36.550026 8.148651
56.32434 35.051816 8.366328
55.606184 34.730904 7.274857
55.556887 36.229114 7.05718
56.043064 35.646195 7.631106
53.676414 31.766571 6.453373
54.409678 32.795738 6.671932
54.34664 31.194748 6.855211
52.85906 32.323649 6.217296
53.676414 31.766571 6.453373
56.642474 27.41848 12.44736
56.085875 28.206555 13.467285
56.789378 28.106257 11.877235
56.642474 27.41848 12.44736
57.006498 28.809095 11.238627
56.646786 29.646374 12.177168
56.789378 28.106257 11.877235
57.008507 29.468718 10.705488
57.006498 28.809095 11.238627
3 0 12 10
3 47 46 13
3 48 14 49
3 50 16 51
3 52 51 14
3 50 51 52
3 53 18 54
3 55 54 16
3 53 54 55
3 57 56 20
3 58 22 59
3 1 25 23
3 3 26 11
3 3 60 62
3 62 61 26
3 60 61 62
3 4 29 27
3 63 30 64
3 5 65 67
3 65 31 66
3 65 66 67
3 5 32 31
3 6 68 69
3 6 70 72
3 70 33 71
3 70 71 72
3 6 34 33
3 7 35 15
3 7 36 35
3 7 37 36
3 8 38 17
3 8 39 38
3 73 40 74
3 73 74 75
3 76 41 77
3 78 77 19
3 76 77 78
3 80 79 41
3 9 81 82
3 9 83 85
3 83 42 84
3 83 84 85
3 2 43 24
3 86 44 87
3 88 87 21
3 86 87 88
3 90 89 44
3 91 45 92
3 93 92 28
3 91 92 93
3 10 11 1
3 12 11 10
3 12 3 11
3 13 94 96
3 96 95 4
3 94 95 96
3 98 97 13
3 99 5 100
3 14 101 102
3 14 103 105
3 103 6 104
3 103 104 105
3 14 15 6
3 16 15 14
3 16 7 15
3 16 17 7
3 18 17 16
3 18 8 17
3 106 19 107
3 108 19 109
3 108 109 110
3 112 111 19
3 113 9 114
3 20 21 2
3 115 21 116
3 117 116 20
3 115 116 117
3 119 118 21
3 22 120 122
3 120 121 122
3 22 123 124
3 23 125 127
3 125 24 126
3 125 126 127
3 25 24 23
3 25 2 24
3 11 25 1
3 26 25 11
3 26 2 25
3 26 20 2
3 128 20 129
3 130 129 26
3 128 129 130
3 132 131 20
3 27 28 0
3 29 28 27
3 29 133 135
3 135 134 28
3 133 134 135
3 136 29 137
3 138 137 4
3 136 137 138
3 139 29 140
3 142 141 29
3 143 23 144
3 143 144 145
3 30 146 148
3 146 23 147
3 146 147 148
3 30 1 23
3 149 30 150
3 31 151 153
3 151 30 152
3 151 152 153
3 31 1 30
3 31 10 1
3 32 10 31
3 32 0 10
3 33 154 155
3 33 156 158
3 156 157 158
3 33 159 160
3 34 161 163
3 163 162 33
3 161 162 163
3 34 164 166
3 164 5 165
3 164 165 166
3 15 34 6
3 35 34 15
3 35 5 34
3 35 32 5
3 36 32 35
3 36 0 32
3 36 27 0
3 37 27 36
3 37 4 27
3 17 37 7
3 38 37 17
3 38 4 37
3 38 13 4
3 39 13 38
3 39 167 169
3 169 168 13
3 167 168 169
3 170 18 171
3 40 172 174
3 172 18 173
3 172 173 174
3 40 8 18
3 19 175 177
3 175 40 176
3 175 176 177
3 41 40 19
3 41 8 40
3 41 39 8
3 178 39 179
3 180 179 41
3 178 179 180
3 182 181 39
3 183 22 184
3 42 185 187
3 185 22 186
3 185 186 187
3 42 188 190
3 190 189 22
3 188 189 190
3 24 191 192
3 43 193 195
3 195 194 24
3 193 194 195
3 43 196 198
3 196 9 197
3 196 197 198
3 21 43 2
3 44 43 21
3 44 9 43
3 44 42 9
3 199 42 200
3 201 200 44
3 199 200 201
3 203 202 42
3 28 12 0
3 45 12 28
3 45 3 12
3 204 45 205
3 206 45 207
3 208 3 209
3 210 209 45
3 208 209 210
3 212 211 3
