ply
format ascii 1.0
element vertex 170
property float x
property float y
property float z
element face 160
property list uchar int vertex_index
end_header
17.104214 -126.378906 -0.016056
11.189243 -123.543571 9.532655
18.086479 -126.556046 -4.725187
8.397411 -120.125687 15.205566
6.70495 -122.472626 10.023925
13.458858 -120.333054 13.98012
14.337103 -125.752174 4.223652
13.784653 -127.246292 -0.828331
10.008675 -125.728996 4.325311
6.285885 -123.951195 4.253069
16.226284 -122.831688 8.669975
18.913204 -124.119774 3.476802
18.867472 -125.632195 -0.838724
17.495409 -126.583015 -2.10803
12.752546 -124.834091 6.821157
12.131428 -125.956444 4.318621
10.440817 -124.780952 7.018332
6.338854 -123.336464 7.196893
12.213722 -122.051147 11.856512
14.820244 -121.715576 11.303747
13.670547 -123.406677 9.151277
15.15543 -124.447044 6.509538
20.103518 -122.419106 5.499201
11.895288 -127.168289 -1.199242
9.715889 -121.945145 12.325394
8.84449 -123.231277 9.819958
10.854977 -120.449059 14.634664
15.853554 -126.264854 1.845835
15.608684 -126.935974 -0.407602
13.865156 -126.692421 1.794339
11.849552 -126.73938 1.640489
9.897465 -126.358772 1.474332
8.281036 -124.279602 7.13518
8.038897 -125.057495 4.294373
8.092859 -125.536072 1.334455
6.49234 -124.289772 1.237905
17.472771 -120.960167 10.684862
18.809998 -121.843132 8.103072
17.611393 -123.634895 6.060938
16.591015 -125.137413 3.957219
17.874174 -125.49424 1.545321
20.079773 -124.328201 0.895738
15.842052 -127.194878 -2.968597
20.748316 -121.450074 6.496887
21.362496 -121.627778 5.198133
12.049794 -127.206848 -2.669822
10.981138 -126.910743 -1.344126
19.316389 -125.958401 -5.425812
18.884615 -126.080704 -4.062275
18.45752 -126.407299 -6.113354
19.316389 -125.958401 -5.425812
7.897633 -120.759231 13.953774
8.556873 -121.66896 12.513689
9.05665 -121.035416 13.76548
9.626194 -120.287373 14.920115
10.258874 -119.567818 16.074433
9.030091 -119.406132 16.359884
14.799036 -120.064126 13.62471
14.164263 -119.369827 14.940447
19.496488 -124.223988 2.18627
20.70245 -123.515064 1.878587
20.119166 -123.410851 3.169119
19.275112 -125.618778 -2.119044
19.995137 -124.974178 -1.290288
18.58908 -126.094189 -2.753697
19.275112 -125.618778 -2.119044
18.181441 -126.107605 -1.473377
17.790944 -126.56953 -3.416608
18.884615 -126.080704 -4.062275
18.58908 -126.094189 -2.753697
7.278358 -119.74498 15.437753
7.847748 -119.152794 16.698156
7.847748 -119.152794 16.698156
9.030091 -119.406132 16.359884
5.58558 -122.311218 8.674906
6.521902 -122.904545 8.610409
5.768628 -121.8793 10.088422
5.502797 -122.656284 7.208062
5.58558 -122.311218 8.674906
5.476313 -122.96365 5.73615
6.31237 -123.64383 5.724981
5.502797 -122.656284 7.208062
5.538528 -123.197178 4.234916
5.476313 -122.96365 5.73615
20.714323 -122.560517 4.180318
21.362496 -121.627778 5.198133
19.508361 -123.26944 4.488002
20.119166 -123.410851 3.169119
20.714323 -122.560517 4.180318
12.96508 -127.301086 -2.417694
13.909762 -127.340088 -2.232239
12.83997 -127.20729 -1.013786
12.96508 -127.301086 -2.417694
12.049794 -127.206848 -2.669822
8.121173 -122.312027 11.26097
9.28019 -122.588211 11.072676
8.556873 -121.66896 12.513689
7.051403 -121.932701 11.362954
7.77472 -122.851952 9.921941
8.121173 -122.312027 11.26097
7.897633 -120.759231 13.953774
7.278358 -119.74498 15.437753
6.016869 -121.439015 11.502291
7.051403 -121.932701 11.362954
5.768628 -121.8793 10.088422
6.016869 -121.439015 11.502291
12.834733 -119.545441 15.358646
14.164263 -119.369827 14.940447
11.532793 -119.603443 15.685918
10.258874 -119.567818 16.074433
12.156917 -120.391057 14.307392
12.834733 -119.545441 15.358646
11.532793 -119.603443 15.685918
9.982226 -126.505985 -0.007339
10.981138 -126.910743 -1.344126
10.896377 -126.763531 0.137545
9.079923 -126.094635 -0.077277
9.982226 -126.505985 -0.007339
8.995162 -125.947422 1.404393
8.235406 -125.617561 -0.175418
9.079923 -126.094635 -0.077277
7.435147 -124.994411 -0.223693
8.235406 -125.617561 -0.175418
7.2926 -124.912922 1.28618
6.681718 -124.312947 -0.275014
7.435147 -124.994411 -0.223693
5.641756 -123.366467 2.727334
6.389113 -124.120484 2.745487
5.538528 -123.197178 4.234916
5.808816 -123.475647 1.214586
5.641756 -123.366467 2.727334
6.681718 -124.312947 -0.275014
5.808816 -123.475647 1.214586
15.479729 -120.755387 12.286523
14.799036 -120.064126 13.62471
14.139551 -121.024315 12.641934
16.805993 -120.377682 11.977081
15.479729 -120.755387 12.286523
16.146508 -121.337872 10.994305
18.155446 -119.916748 11.611737
16.805993 -120.377682 11.977081
18.798821 -120.392483 10.359794
18.155446 -119.916748 11.611737
19.467434 -120.833966 9.0689
18.798821 -120.392483 10.359794
18.141385 -121.401649 9.393967
20.101556 -121.162087 7.798822
19.467434 -120.833966 9.0689
19.456758 -122.131119 6.801137
20.748316 -121.450074 6.496887
20.101556 -121.162087 7.798822
21.27899 -123.530403 0.537813
21.901667 -122.717266 1.520662
20.70245 -123.515064 1.878587
20.601288 -124.322181 -0.423057
21.800505 -123.524383 -0.780982
21.27899 -123.530403 0.537813
19.473622 -124.980198 0.028507
19.995137 -124.974178 -1.290288
20.601288 -124.322181 -0.423057
14.938462 -127.314381 -3.302372
14.813353 -127.220585 -1.898464
13.909762 -127.340088 -2.232239
16.090505 -127.161468 -4.360458
14.938462 -127.314381 -3.302372
17.212719 -126.842052 -5.238753
16.964265 -126.875462 -3.846892
16.090505 -127.161468 -4.360458
18.45752 -126.407299 -6.113354
17.212719 -126.842052 -5.238753
3 0 13 12
3 1 16 14
3 1 20 18
3 1 14 20
3 43 22 44
3 46 45 23
3 2 47 48
3 2 49 50
3 3 51 53
3 53 52 24
3 51 52 53
3 3 54 56
3 54 26 55
3 54 55 56
3 3 24 26
3 6 29 27
3 8 30 15
3 8 31 30
3 4 32 25
3 9 33 17
3 9 34 33
3 9 35 34
3 5 57 58
3 10 36 19
3 10 37 36
3 10 38 37
3 6 39 21
3 6 27 39
3 11 59 61
3 59 41 60
3 59 60 61
3 11 40 41
3 7 42 28
3 12 62 63
3 13 64 66
3 66 65 12
3 64 65 66
3 13 67 69
3 67 2 68
3 67 68 69
3 71 70 3
3 72 3 73
3 14 15 6
3 16 15 14
3 16 8 15
3 74 17 75
3 76 75 4
3 74 75 76
3 77 17 78
3 79 9 80
3 81 80 17
3 79 80 81
3 83 82 9
3 18 19 5
3 20 19 18
3 20 10 19
3 20 21 10
3 14 21 20
3 14 6 21
3 22 84 85
3 22 86 88
3 86 11 87
3 86 87 88
3 23 89 91
3 91 90 7
3 89 90 91
3 93 92 23
3 24 25 1
3 94 25 95
3 96 95 24
3 94 95 96
3 97 4 98
3 99 98 25
3 97 98 99
3 101 100 3
3 102 4 103
3 105 104 4
3 106 5 107
3 26 108 109
3 26 110 112
3 110 5 111
3 110 111 112
3 26 18 5
3 24 18 26
3 24 1 18
3 27 28 0
3 29 28 27
3 29 7 28
3 15 29 6
3 30 29 15
3 30 7 29
3 30 23 7
3 31 23 30
3 31 113 115
3 115 114 23
3 113 114 115
3 25 16 1
3 32 16 25
3 32 8 16
3 17 32 4
3 33 32 17
3 33 8 32
3 33 31 8
3 34 31 33
3 34 116 118
3 118 117 31
3 116 117 118
3 34 119 120
3 35 121 123
3 123 122 34
3 121 122 123
3 35 124 125
3 126 35 127
3 128 127 9
3 126 127 128
3 129 35 130
3 132 131 35
3 19 133 135
3 135 134 5
3 133 134 135
3 36 136 138
3 138 137 19
3 136 137 138
3 36 139 140
3 36 141 142
3 37 143 145
3 145 144 36
3 143 144 145
3 37 146 147
3 37 148 150
3 148 22 149
3 148 149 150
3 38 22 37
3 38 11 22
3 21 38 10
3 39 38 21
3 39 11 38
3 39 40 11
3 27 40 39
3 27 0 40
3 41 151 153
3 151 152 153
3 41 154 156
3 154 155 156
3 41 157 159
3 157 12 158
3 157 158 159
3 40 12 41
3 40 0 12
3 28 13 0
3 42 13 28
3 42 2 13
3 160 42 161
3 162 161 7
3 160 161 162
3 163 42 164
3 165 2 166
3 167 166 42
3 165 166 167
3 169 168 2
