ply
format ascii 1.0
element vertex 250
property float x
property float y
property float z
element face 253
property list uchar int vertex_index
end_header
3.192894 -40.244576 37.971535
4.971291 -38.953972 30.500929
3.046612 -52.785965 29.880951
0.85845 -54.307819 37.471218
4.011803 -39.449402 34.321423
3.978996 -46.022102 30.342216
3.136776 -46.523685 34.175537
-0.470379 -55.426956 41.251221
-0.141935 -61.278954 37.007317
1.00971 -60.314655 33.110176
6.071918 -31.315037 30.363958
6.300911 -38.536591 26.30925
4.983414 -45.614967 26.210052
3.799015 -52.224201 25.787231
2.697853 -58.594971 25.138893
0.719959 -48.458305 41.486748
2.108765 -47.299438 37.867374
2.108297 -53.445641 33.726044
2.028492 -59.425274 29.214191
1.413921 -64.748886 24.515202
3.617298 -39.798775 36.159004
3.588432 -43.020531 34.285912
3.17057 -43.358307 36.134548
4.912598 -35.471199 32.419441
5.512562 -35.219231 30.469389
6.213474 -34.987289 28.412083
5.601391 -38.75145 28.463156
5.633907 -42.15152 26.301985
5.007366 -42.352409 28.433537
3.514465 -49.426018 30.147629
3.927025 -49.192596 28.134949
3.42997 -52.50161 27.873001
3.252007 -55.431549 25.479147
2.932961 -55.770447 27.554127
0.177826 -54.834564 39.350342
0.074537 -51.94331 41.381676
0.791649 -51.329201 39.539322
1.453299 -47.827202 39.68557
1.483307 -50.802414 37.697731
2.106873 -50.359505 35.850006
1.516251 -53.846676 35.601662
1.007267 -63.183342 30.870594
1.556934 -59.861015 31.174812
1.458838 -62.684608 28.887499
1.827843 -62.19244 26.870346
1.17354 -65.304276 26.588335
4.445866 -39.176422 32.444042
4.460293 -42.543579 30.459442
3.998901 -42.75679 32.401527
3.556946 -46.248154 32.285236
3.100796 -49.685669 32.0914
-0.316149 -58.330116 39.159927
0.297369 -57.808254 37.225235
0.939095 -57.329147 35.318645
0.425484 -60.787319 35.045929
0.508387 -63.685219 32.843334
6.817463 -31.0417 28.276226
5.561108 -45.374054 23.990576
4.848518 -48.703125 23.841537
4.448448 -45.820713 28.323843
4.370682 -48.960953 26.036129
4.173054 -51.930664 23.615986
3.535835 -55.085796 23.32888
2.675167 -40.800987 39.759224
1.3906 -44.973907 41.53479
2.096037 -44.324387 39.761925
2.686306 -43.788475 37.959564
2.66658 -46.868809 36.032234
2.64286 -49.991501 33.986065
2.615616 -53.095848 31.82575
1.553171 -56.891254 33.420616
2.098009 -56.490067 31.50845
2.55574 -56.119282 29.559422
2.407593 -59.004997 27.206829
2.097565 -61.708282 24.803616
3.405096 -40.021676 37.065269
3.623911 -38.21645 37.036438
3.411709 -38.439351 37.942704
1.151593 -64.274067 28.756232
1.233052 -62.933975 29.879047
0.925807 -64.523433 29.74778
1.008943 -65.5839 27.606651
1.316189 -63.994442 27.737917
1.151593 -64.274067 28.756232
4.219597 -37.611717 34.306792
4.224979 -35.964371 35.204724
4.017186 -37.802055 35.219355
4.228834 -39.312912 33.382733
4.436628 -37.475228 33.368101
4.219597 -37.611717 34.306792
-0.229042 -59.804535 38.083622
-0.476058 -60.05871 39.087463
-0.388951 -61.533129 38.011158
0.285469 -65.323398 32.75477
0.260086 -63.935749 33.838155
0.483753 -65.05207 31.742971
0.285469 -65.323398 32.75477
5.99081 -29.448906 31.27027
5.737552 -31.463584 31.347651
6.350147 -29.273342 30.270831
5.99081 -29.448906 31.27027
6.444691 -31.178368 29.320092
6.722919 -29.136674 29.226965
6.350147 -29.273342 30.270831
6.626737 -36.640719 26.269104
6.583019 -34.866067 27.320521
6.257193 -36.76194 27.360667
6.645715 -38.408462 25.171931
6.626737 -36.640719 26.269104
6.294176 -40.223158 25.182686
6.645715 -38.408462 25.171931
2.805988 -58.390183 24.072367
3.083066 -56.808471 24.242494
2.97493 -57.01326 25.30902
2.482506 -59.912239 23.910642
2.805988 -58.390183 24.072367
2.350295 -41.138687 40.634834
2.632063 -39.370361 40.587305
-0.542723 -54.033619 42.241248
-0.751948 -55.752234 42.217408
0.335354 -48.824814 42.37894
0.012644 -50.567316 42.326404
0.397248 -50.200807 41.434212
0.655649 -47.098116 42.37859
0.271044 -47.464624 43.270782
0.335354 -48.824814 42.37894
1.05528 -46.716106 41.510769
0.99097 -45.355916 42.402611
0.655649 -47.098116 42.37859
1.480549 -64.475266 23.457135
1.82237 -62.954963 23.601343
1.755743 -63.228584 24.659409
3.819933 -37.976742 36.138146
3.623911 -38.21645 37.036438
3.81455 -39.624088 35.240214
4.017186 -37.802055 35.219355
3.819933 -37.976742 36.138146
-0.285177 -62.98061 36.936058
-0.388951 -61.533129 38.011158
-0.065075 -62.732616 35.920147
-0.285177 -62.98061 36.936058
5.157892 -33.541665 32.375393
4.882393 -33.716688 33.313148
5.457874 -33.415681 31.400367
5.157892 -33.541665 32.375393
5.21258 -35.345215 31.444415
5.79224 -33.267134 30.416674
5.737552 -31.463584 31.347651
5.457874 -33.415681 31.400367
4.669994 -35.622616 33.355801
4.882393 -33.716688 33.313148
4.679232 -37.323811 32.431742
4.669994 -35.622616 33.355801
4.436628 -37.475228 33.368101
-0.657978 -57.159182 41.194244
-0.751948 -55.752234 42.217408
-0.939547 -57.484459 42.160431
-0.580863 -58.610761 40.148598
-0.476058 -60.05871 39.087463
-0.393264 -56.878536 40.205574
-0.657978 -57.159182 41.194244
-0.580863 -58.610761 40.148598
0.218635 -62.486799 34.939453
0.141774 -61.033136 36.026623
-0.065075 -62.732616 35.920147
0.466936 -62.236269 33.944631
0.218635 -62.486799 34.939453
0.260086 -63.935749 33.838155
0.733192 -64.801132 30.756602
0.757827 -63.43428 31.856964
0.483753 -65.05207 31.742971
0.925807 -64.523433 29.74778
0.733192 -64.801132 30.756602
7.101628 -28.977116 28.161293
6.722919 -29.136674 29.226965
7.18688 -30.903495 27.165534
7.101628 -28.977116 28.161293
6.885013 -32.893273 27.252592
6.515468 -33.014494 28.344155
6.583019 -34.866067 27.320521
7.18688 -30.903495 27.165534
6.885013 -32.893273 27.252592
5.960674 -42.030622 25.179053
6.294176 -40.223158 25.182686
5.967409 -40.344055 26.305617
5.924275 -43.64189 24.023349
5.960674 -42.030622 25.179053
5.597507 -43.762787 25.14628
5.839104 -45.222081 22.830936
5.924275 -43.64189 24.023349
5.443176 -46.882553 22.772407
5.839104 -45.222081 22.830936
5.086882 -48.547089 22.697887
5.443176 -46.882553 22.772407
5.204813 -47.03859 23.916056
4.695673 -50.149227 22.601641
5.086882 -48.547089 22.697887
4.357941 -51.762996 22.488865
4.695673 -50.149227 22.601641
4.510786 -50.316895 23.728761
3.982641 -53.321371 22.361366
4.357941 -51.762996 22.488865
3.664032 -54.898937 22.217813
3.982641 -53.321371 22.361366
3.854444 -53.50823 23.472433
3.302559 -56.423496 22.07066
3.664032 -54.898937 22.217813
3.224979 -56.635595 23.16736
3.393921 -55.258673 24.404014
3.083066 -56.808471 24.242494
3.302559 -56.423496 22.07066
3.224979 -56.635595 23.16736
3.183375 -38.735546 38.827942
3.411709 -38.439351 37.942704
2.924511 -39.013752 39.721787
2.632063 -39.370361 40.587305
2.93403 -40.522782 38.86538
3.183375 -38.735546 38.827942
2.924511 -39.013752 39.721787
-0.270265 -52.291796 42.306475
-0.542723 -54.033619 42.241248
-0.197921 -53.685133 41.316448
-0.270265 -52.291796 42.306475
0.012644 -50.567316 42.326404
1.314479 -43.623306 42.372242
0.99097 -45.355916 42.402611
1.708012 -43.225147 41.522617
1.314479 -43.623306 42.372242
2.06073 -42.900387 40.636185
1.708012 -43.225147 41.522617
1.743318 -44.649147 40.648358
2.385602 -42.562687 39.760575
2.350295 -41.138687 40.634834
2.06073 -42.900387 40.636185
2.182362 -61.468894 23.743003
2.482506 -59.912239 23.910642
2.397709 -60.151626 24.971255
2.182362 -61.468894 23.743003
1.82237 -62.954963 23.601343
0.802466 -66.804161 26.493801
1.008943 -65.5839 27.606651
0.896345 -66.494408 25.449921
0.802466 -66.804161 26.493801
1.016536 -66.216713 24.413354
1.293731 -65.026581 25.551769
0.896345 -66.494408 25.449921
1.063096 -65.911644 23.35418
1.016536 -66.216713 24.413354
1.480549 -64.475266 23.457135
1.063096 -65.911644 23.35418
3 0 75 77
3 75 20 76
3 75 76 77
3 0 22 20
3 1 24 23
3 1 26 24
3 1 28 26
3 2 31 29
3 2 33 31
3 3 36 34
3 3 38 36
3 3 40 38
3 78 43 79
3 80 79 41
3 78 79 80
3 81 45 82
3 83 82 43
3 81 82 83
3 4 84 86
3 84 85 86
3 4 87 89
3 87 46 88
3 87 88 89
3 4 48 46
3 6 49 21
3 6 50 49
3 8 90 92
3 90 51 91
3 90 91 92
3 8 52 51
3 8 54 52
3 93 55 94
3 96 95 55
3 10 97 98
3 10 99 100
3 10 101 103
3 101 56 102
3 101 102 103
3 11 104 106
3 106 105 25
3 104 105 106
3 11 107 108
3 11 109 110
3 12 57 27
3 12 58 57
3 5 59 47
3 13 60 30
3 13 61 60
3 13 62 61
3 14 111 113
3 113 112 32
3 111 112 113
3 14 114 115
3 116 63 117
3 7 118 119
3 15 120 122
3 122 121 35
3 120 121 122
3 15 123 125
3 123 124 125
3 15 126 128
3 126 64 127
3 126 127 128
3 16 65 37
3 16 66 65
3 16 67 66
3 17 68 39
3 17 69 68
3 9 70 53
3 18 71 42
3 18 72 71
3 18 73 72
3 19 74 44
3 19 129 131
3 131 130 74
3 129 130 131
3 20 132 133
3 20 134 136
3 134 4 135
3 134 135 136
3 20 21 4
3 22 21 20
3 22 6 21
3 137 8 138
3 140 139 8
3 23 141 142
3 24 143 145
3 145 144 23
3 143 144 145
3 24 146 148
3 146 10 147
3 146 147 148
3 24 25 10
3 26 25 24
3 26 11 25
3 26 27 11
3 28 27 26
3 28 12 27
3 29 30 5
3 31 30 29
3 31 13 30
3 31 32 13
3 33 32 31
3 33 14 32
3 34 35 7
3 36 35 34
3 36 15 35
3 36 37 15
3 38 37 36
3 38 16 37
3 38 39 16
3 40 39 38
3 40 17 39
3 41 42 9
3 43 42 41
3 43 18 42
3 43 44 18
3 45 44 43
3 45 19 44
3 149 23 150
3 46 151 153
3 151 23 152
3 151 152 153
3 46 1 23
3 46 47 1
3 48 47 46
3 48 5 47
3 21 48 4
3 49 48 21
3 49 5 48
3 49 29 5
3 50 29 49
3 50 2 29
3 154 7 155
3 154 155 156
3 51 157 158
3 51 159 161
3 159 7 160
3 159 160 161
3 51 34 7
3 52 34 51
3 52 3 34
3 52 53 3
3 54 53 52
3 54 9 53
3 162 54 163
3 164 163 8
3 162 163 164
3 55 165 167
3 165 54 166
3 165 166 167
3 55 9 54
3 55 41 9
3 168 41 169
3 170 169 55
3 168 169 170
3 172 171 41
3 56 173 174
3 56 175 176
3 25 56 10
3 177 56 178
3 179 178 25
3 177 178 179
3 181 180 56
3 27 182 184
3 184 183 11
3 182 183 184
3 57 185 187
3 187 186 27
3 185 186 187
3 57 188 189
3 57 190 191
3 58 192 194
3 194 193 57
3 192 193 194
3 58 195 196
3 47 28 1
3 59 28 47
3 59 12 28
3 30 59 5
3 60 59 30
3 60 12 59
3 60 58 12
3 61 58 60
3 61 197 199
3 199 198 58
3 197 198 199
3 61 200 201
3 62 202 204
3 204 203 61
3 202 203 204
3 62 205 206
3 32 62 13
3 207 62 208
3 209 208 32
3 207 208 209
3 211 210 62
3 212 0 213
3 63 214 215
3 63 216 218
3 216 0 217
3 216 217 218
3 35 219 221
3 221 220 7
3 219 220 221
3 223 222 35
3 64 224 225
3 64 226 227
3 37 64 15
3 65 64 37
3 65 228 230
3 230 229 64
3 228 229 230
3 65 231 233
3 231 63 232
3 231 232 233
3 66 63 65
3 66 0 63
3 66 22 0
3 67 22 66
3 67 6 22
3 39 67 16
3 68 67 39
3 68 6 67
3 68 50 6
3 69 50 68
3 69 2 50
3 53 40 3
3 70 40 53
3 70 17 40
3 42 70 9
3 71 70 42
3 71 17 70
3 71 69 17
3 72 69 71
3 72 2 69
3 72 33 2
3 73 33 72
3 73 14 33
3 44 73 18
3 74 73 44
3 74 14 73
3 74 234 236
3 236 235 14
3 234 235 236
3 238 237 74
3 239 45 240
3 241 45 242
3 243 19 244
3 245 244 45
3 243 244 245
3 246 19 247
3 249 248 19
