ply
format ascii 1.0
element vertex 237
property float x
property float y
property float z
element face 233
property list uchar int vertex_index
end_header
56.482155 -66.205521 30.621853
53.809883 -70.530518 21.792034
60.393517 -61.075497 38.078217
60.539753 -58.92271 27.865288
56.844284 -67.456596 35.783073
55.052483 -70.024544 31.562229
58.519356 -64.600533 39.451759
58.623817 -63.799622 34.503494
53.514313 -72.412659 16.999815
57.832291 -60.839977 24.332111
56.016014 -64.614273 25.531586
54.739258 -66.6996 21.348103
54.747211 -68.446083 26.373795
53.623352 -72.328751 26.94573
62.393387 -57.592003 36.742287
62.997566 -56.770466 31.486479
60.642532 -60.253529 33.045265
58.254681 -62.512909 29.38158
57.741177 -66.070923 37.694008
56.687332 -61.799229 22.502506
56.232986 -65.444656 28.06024
55.334465 -66.524918 25.994328
55.524616 -67.342422 28.543999
54.28326 -71.212257 29.292889
60.017193 -61.27758 40.401031
60.947235 -59.537392 39.784966
61.367496 -59.331928 37.403419
61.628227 -58.985973 34.877365
60.586018 -60.732597 35.604469
57.548611 -65.030121 32.606583
58.47068 -63.211384 31.943775
57.311596 -64.345261 30.039429
57.057922 -63.569672 27.492411
54.2883 -68.626015 21.599566
54.135906 -69.62587 19.292347
61.849388 -57.894516 29.645191
61.886055 -57.164085 27.029018
56.706192 -66.881378 33.20406
55.741123 -68.09726 31.127748
55.921722 -68.772133 33.732742
59.450264 -62.828037 38.764351
59.601501 -62.489796 36.322803
58.657753 -64.265396 37.023575
57.711048 -65.609451 35.170673
53.243156 -72.42659 21.948729
53.602234 -71.496635 19.412106
52.923843 -73.361351 19.513746
59.160316 -59.891624 26.107864
60.457817 -58.091881 25.305412
59.015495 -58.987156 23.598276
55.876839 -63.726181 23.041771
55.225006 -65.658585 23.48447
54.680107 -67.588196 23.838589
54.179298 -69.511757 24.118641
54.891937 -69.263809 28.950377
54.197273 -70.378441 26.684336
53.656654 -71.434052 24.344826
63.48484 -55.857666 36.092381
62.742943 -57.248035 34.146881
61.774719 -58.504444 32.273666
60.612404 -59.646751 30.453098
59.596458 -62.017105 33.791615
59.488003 -61.41851 31.222923
59.327988 -60.705807 28.653856
58.02813 -61.718166 26.840061
56.837921 -62.717518 24.977966
56.655079 -61.309536 21.286437
56.264925 -62.292427 21.548577
58.807495 -63.814284 40.251732
58.341949 -64.701153 40.587681
58.98481 -63.714285 39.108055
59.272949 -62.928036 39.908028
58.807495 -63.814284 40.251732
52.73703 -73.850853 20.802451
53.0835 -72.89397 20.731237
52.896687 -73.383473 22.019942
53.338871 -72.849235 25.742722
53.355522 -72.401886 24.44227
53.640003 -71.881401 25.645278
62.659588 -56.825648 37.696754
62.41766 -56.928955 38.927967
62.151459 -57.69531 37.9735
62.939113 -56.724835 36.417334
63.205315 -55.958479 37.371802
62.659588 -56.825648 37.696754
54.845353 -66.239277 20.127251
54.986679 -65.72483 21.182966
53.844412 -71.495407 16.968971
53.888373 -71.037396 18.175116
53.558273 -71.954647 18.205961
63.646668 -55.913786 31.09142
63.464355 -56.146889 32.452331
61.182062 -57.206326 24.876722
60.421701 -57.627693 24.046011
56.42469 -68.403369 36.058611
56.842064 -67.687485 37.051609
58.053734 -65.503483 39.78767
58.341949 -64.701153 40.587681
57.664645 -66.238678 38.908794
58.130267 -65.335728 38.572884
58.053734 -65.503483 39.78767
57.29051 -66.994648 38.007076
57.664645 -66.238678 38.908794
56.842064 -67.687485 37.051609
57.292731 -66.763759 36.73854
57.29051 -66.994648 38.007076
57.189796 -60.843508 22.183594
57.762276 -60.363882 23.098396
57.259811 -61.319603 23.417309
57.189796 -60.843508 22.183594
56.655079 -61.309536 21.286437
54.326421 -71.60231 30.615171
54.667872 -70.618401 30.427559
54.711033 -71.008454 31.749841
53.962543 -72.203709 29.441578
54.326421 -71.60231 30.615171
54.005705 -72.593761 30.76386
53.632589 -72.761955 28.267999
53.953306 -71.770504 28.119309
53.962543 -72.203709 29.441578
53.296966 -73.319931 27.06244
53.632589 -72.761955 28.267999
60.171492 -60.439298 41.174265
59.717121 -61.308205 41.451107
60.636512 -59.569204 40.866232
60.171492 -60.439298 41.174265
60.482214 -60.407486 40.092999
61.099198 -58.701624 40.620695
60.788475 -58.733436 41.701962
60.636512 -59.569204 40.866232
61.428383 -58.668005 39.494839
61.099198 -58.701624 40.620695
61.638514 -58.565273 38.304066
61.428383 -58.668005 39.494839
61.157365 -59.43466 38.594192
61.880442 -58.461965 37.072853
62.151459 -57.69531 37.9735
61.638514 -58.565273 38.304066
54.426104 -68.174679 20.365481
54.651583 -67.211472 20.239749
54.513779 -67.662807 21.473834
54.349907 -68.674607 19.211871
54.426104 -68.174679 20.365481
54.212103 -69.125943 20.445957
54.398871 -69.1689 18.072575
54.349907 -68.674607 19.211871
53.932403 -71.946281 15.780507
53.515011 -72.850975 15.788582
62.519775 -57.029106 29.229345
63.093864 -56.467081 30.149989
62.423477 -57.332491 30.565835
62.538109 -56.663891 27.921259
62.519775 -57.029106 29.229345
61.867722 -57.529301 28.337105
62.6147 -56.298096 26.596315
62.538109 -56.663891 27.921259
55.963409 -69.061138 35.033445
56.383003 -68.114364 34.757908
56.42469 -68.403369 36.058611
55.542709 -69.740314 33.964184
55.963409 -69.061138 35.033445
55.10809 -70.36652 32.878927
55.487103 -69.398338 32.647486
55.542709 -69.740314 33.964184
54.711033 -71.008454 31.749841
55.10809 -70.36652 32.878927
59.556413 -62.152807 40.726368
59.717121 -61.308205 41.451107
59.733728 -62.052808 39.582691
59.556413 -62.152807 40.726368
59.272949 -62.928036 39.908028
52.510543 -74.310127 19.564067
52.73703 -73.850853 20.802451
52.801166 -73.80798 18.285915
52.510543 -74.310127 19.564067
52.387867 -74.756756 18.336236
53.096401 -73.333634 17.028949
53.219078 -72.887005 18.256781
52.801166 -73.80798 18.285915
53.515011 -72.850975 15.788582
53.096401 -73.333634 17.028949
59.700541 -58.075331 23.192443
60.421701 -57.627693 24.046011
59.736656 -58.539518 24.451844
58.353878 -59.437472 22.731479
58.423893 -59.913567 23.965193
57.762276 -60.363882 23.098396
58.96166 -58.494131 22.36518
58.353878 -59.437472 22.731479
59.700541 -58.075331 23.192443
58.96166 -58.494131 22.36518
55.55547 -64.238121 22.0298
55.859679 -63.255903 21.81821
55.229553 -65.204323 22.251149
55.55547 -64.238121 22.0298
55.550922 -64.692383 23.26312
54.982132 -66.179092 22.416286
54.986679 -65.72483 21.182966
55.229553 -65.204323 22.251149
53.148773 -72.898155 23.244222
53.449905 -71.930321 23.146777
53.355522 -72.401886 24.44227
52.896687 -73.383473 22.019942
53.148773 -72.898155 23.244222
53.338871 -72.849235 25.742722
53.296966 -73.319931 27.06244
63.743668 -55.091423 37.101584
63.205315 -55.958479 37.371802
64.059333 -54.997742 35.771842
63.743668 -55.091423 37.101584
63.707993 -55.690489 34.755282
64.059333 -54.997742 35.771842
63.337044 -56.385673 33.782532
63.707993 -55.690489 34.755282
63.113891 -56.552851 35.119631
62.870255 -57.009251 32.81668
63.464355 -56.146889 32.452331
63.337044 -56.385673 33.782532
55.859679 -63.255903 21.81821
56.264925 -62.292427 21.548577
56.282085 -62.762705 22.772139
54.845353 -66.239277 20.127251
54.651583 -67.211472 20.239749
54.155209 -70.102013 18.115237
53.86907 -70.561252 19.352227
53.888373 -71.037396 18.175116
54.398871 -69.1689 18.072575
54.155209 -70.102013 18.115237
53.844412 -71.495407 16.968971
53.932403 -71.946281 15.780507
63.646668 -55.913786 31.09142
63.093864 -56.467081 30.149989
61.896181 -56.742428 25.738525
61.171936 -57.627983 26.167215
61.182062 -57.206326 24.876722
62.6147 -56.298096 26.596315
61.896181 -56.742428 25.738525
3 67 66 19
3 0 22 20
3 2 25 24
3 2 26 25
3 2 28 26
3 0 31 29
3 0 20 31
3 1 34 33
3 3 36 35
3 4 39 37
3 6 68 69
3 6 70 72
3 70 40 71
3 70 71 72
3 6 42 40
3 4 43 18
3 4 37 43
3 73 46 74
3 75 74 44
3 73 74 75
3 9 49 47
3 10 51 50
3 12 52 21
3 12 53 52
3 5 54 38
3 13 55 23
3 13 56 55
3 13 76 78
3 78 77 56
3 76 77 78
3 14 79 81
3 79 80 81
3 14 82 84
3 82 57 83
3 82 83 84
3 14 58 57
3 16 59 27
3 16 60 59
3 7 61 41
3 17 62 30
3 17 63 62
3 17 64 63
3 10 65 32
3 10 50 65
3 11 85 86
3 8 87 89
3 89 88 45
3 87 88 89
3 15 90 91
3 93 92 48
3 95 94 4
3 96 6 97
3 98 18 99
3 100 99 6
3 98 99 100
3 101 18 102
3 103 4 104
3 105 104 18
3 103 104 105
3 19 106 108
3 108 107 9
3 106 107 108
3 110 109 19
3 20 21 10
3 22 21 20
3 22 12 21
3 111 23 112
3 113 112 5
3 111 112 113
3 114 23 115
3 114 115 116
3 117 13 118
3 119 118 23
3 117 118 119
3 121 120 13
3 24 122 123
3 25 124 126
3 126 125 24
3 124 125 126
3 25 127 129
3 127 128 129
3 25 130 131
3 26 132 134
3 134 133 25
3 132 133 134
3 26 135 137
3 135 14 136
3 135 136 137
3 26 27 14
3 28 27 26
3 28 16 27
3 29 30 7
3 31 30 29
3 31 17 30
3 31 32 17
3 20 32 31
3 20 10 32
3 33 138 140
3 140 139 11
3 138 139 140
3 34 141 143
3 143 142 33
3 141 142 143
3 34 144 145
3 147 146 8
3 35 148 150
3 150 149 15
3 148 149 150
3 36 151 153
3 153 152 35
3 151 152 153
3 36 154 155
3 37 38 0
3 39 38 37
3 39 5 38
3 156 39 157
3 158 157 4
3 156 157 158
3 159 39 160
3 161 5 162
3 163 162 39
3 161 162 163
3 165 164 5
3 166 24 167
3 40 168 170
3 168 24 169
3 168 169 170
3 40 2 24
3 40 41 2
3 42 41 40
3 42 7 41
3 18 42 6
3 43 42 18
3 43 7 42
3 43 29 7
3 37 29 43
3 37 0 29
3 44 45 1
3 46 45 44
3 46 8 45
3 171 46 172
3 173 46 174
3 173 174 175
3 176 8 177
3 178 177 46
3 176 177 178
3 180 179 8
3 47 48 3
3 49 48 47
3 49 181 183
3 183 182 48
3 181 182 183
3 184 49 185
3 186 185 9
3 184 185 186
3 187 49 188
3 190 189 49
3 50 191 192
3 51 193 195
3 195 194 50
3 193 194 195
3 51 196 198
3 196 11 197
3 196 197 198
3 21 51 10
3 52 51 21
3 52 11 51
3 52 33 11
3 53 33 52
3 53 1 33
3 38 22 0
3 54 22 38
3 54 12 22
3 23 54 5
3 55 54 23
3 55 12 54
3 55 53 12
3 56 53 55
3 56 1 53
3 56 44 1
3 199 44 200
3 201 200 56
3 199 200 201
3 203 202 44
3 205 204 13
3 57 206 207
3 57 208 209
3 57 210 211
3 58 212 214
3 214 213 57
3 212 213 214
3 58 215 217
3 215 15 216
3 215 216 217
3 27 58 14
3 59 58 27
3 59 15 58
3 59 35 15
3 60 35 59
3 60 3 35
3 41 28 2
3 61 28 41
3 61 16 28
3 30 61 7
3 62 61 30
3 62 16 61
3 62 60 16
3 63 60 62
3 63 3 60
3 63 47 3
3 64 47 63
3 64 9 47
3 32 64 17
3 65 64 32
3 65 9 64
3 65 19 9
3 50 19 65
3 50 218 220
3 220 219 19
3 218 219 220
3 222 221 11
3 45 34 1
3 223 34 224
3 225 224 45
3 223 224 225
3 227 226 34
3 229 228 8
3 231 230 15
3 48 36 3
3 232 36 233
3 234 233 48
3 232 233 234
3 236 235 36
