ply
format ascii 1.0
element vertex 186
property float x
property float y
property float z
element face 182
property list uchar int vertex_index
end_header
-49.146347 51.047604 -3.999538
-48.354313 55.360508 1.322517
-52.17868 44.426292 4.82606
-49.764408 53.288311 -2.077471
-50.776611 49.819805 3.034998
-50.704132 48.001591 0.5257
-50.365776 42.654003 3.085891
-48.270973 45.966442 -0.425207
-45.976616 57.108318 5.771371
-47.604897 58.761654 -4.198996
-48.967476 51.404285 6.790529
-51.607143 45.887249 7.933305
-49.746277 52.180729 -3.241869
-50.400368 50.633526 -0.808048
-49.926613 49.60387 -1.716967
-49.767426 47.015362 -0.147806
-48.858871 48.537228 -2.218122
-47.260792 47.41795 -2.330786
-47.974514 49.889675 -4.347731
-47.203468 56.283733 3.446522
-47.483055 54.237087 6.248605
-48.672924 53.438511 4.079845
-51.628883 47.1152 3.952977
-51.224609 47.899799 5.525537
-52.168167 45.191929 6.236283
-52.615578 43.188293 8.418557
-52.818588 42.500572 6.847178
-52.411957 41.72636 5.58131
-48.639107 41.617004 2.796062
-49.81773 39.862682 4.16807
-49.260635 54.355213 -0.538904
-49.664848 52.563602 2.140283
-50.286682 51.624004 0.491947
-51.032013 48.936878 1.597131
-51.46286 46.267498 2.712142
-51.573486 43.583706 3.763262
-50.681007 45.354992 1.849524
-49.315235 44.367844 1.382667
-47.4641 43.281776 1.290358
-46.326054 44.824688 -0.348286
-46.907845 58.207714 0.615873
-46.573528 59.980846 -2.208452
-48.005085 57.143452 -1.447851
-48.818954 55.994152 -3.221558
-49.208565 54.788425 -4.647764
-49.07357 53.552532 -5.681618
-47.749825 52.096714 8.984447
-49.224644 49.284016 9.417517
-50.036903 50.644154 4.786724
-50.367386 48.621967 7.368483
-50.628868 46.520084 9.849302
-51.389362 40.853104 4.679178
-48.230168 40.171846 3.414277
-47.584687 41.027662 2.824026
-46.25711 46.81356 -2.222428
-46.783223 48.052158 -3.325863
-46.140524 59.643772 0.324604
-46.29624 58.684735 1.761851
-47.089213 59.37125 -3.203724
-46.370146 60.778755 -3.600169
-46.88583 60.169159 -4.595441
-48.909267 55.443466 -5.918625
-48.766602 56.122101 -5.26252
-48.84177 54.825519 -6.435553
-49.141067 54.170479 -5.164691
-48.909267 55.443466 -5.918625
-48.725834 54.136055 -6.889761
-48.84177 54.825519 -6.435553
-46.122982 56.029327 7.178801
-45.399376 57.464675 7.004811
-51.746885 44.844618 9.078136
-51.257747 45.161035 10.036134
-51.118005 46.203666 8.891303
-52.771771 42.154646 9.44236
-52.978638 41.848817 8.584095
-50.390428 38.954803 4.787391
-49.465042 38.407415 4.61151
-47.140084 49.288021 -4.334335
-46.783223 48.052158 -3.325863
-47.617653 48.653813 -3.339258
-47.365319 59.47559 -5.547581
-46.88583 60.169159 -4.595441
-47.964768 58.108715 -5.038137
-47.365319 59.47559 -5.547581
-53.080143 41.504957 7.798405
-52.978638 41.848817 8.584095
-52.717083 42.844432 7.632867
-52.987865 41.152458 7.067165
-53.080143 41.504957 7.798405
-52.78455 40.765352 6.434232
-52.987865 41.152458 7.067165
-52.615273 42.113466 6.214244
-52.379982 40.357965 5.868258
-52.78455 40.765352 6.434232
-48.819479 39.294685 4.100281
-49.228419 40.739843 3.482066
-48.230168 40.171846 3.414277
-49.465042 38.407415 4.61151
-48.819479 39.294685 4.100281
-46.997183 41.860048 2.071174
-47.584687 41.027662 2.824026
-48.051603 42.44939 2.04321
-46.369575 42.668388 1.399211
-46.997183 41.860048 2.071174
-45.800552 43.439844 0.579889
-46.369575 42.668388 1.399211
-46.895077 44.053232 0.471036
-45.207217 44.182508 -0.174219
-45.800552 43.439844 0.579889
-45.789741 45.51693 -1.231178
-46.793423 46.121319 -1.339536
-46.25711 46.81356 -2.222428
-45.207217 44.182508 -0.174219
-45.789741 45.51693 -1.231178
-45.22937 58.547218 5.569394
-45.399376 57.464675 7.004811
-45.830625 58.135036 4.3396
-45.22937 58.547218 5.569394
-46.444052 57.722744 3.177175
-46.590042 56.696025 4.608947
-45.830625 58.135036 4.3396
-47.055656 57.245723 2.031197
-46.444052 57.722744 3.177175
-46.29624 58.684735 1.761851
-45.789499 61.407414 -2.512575
-45.586117 62.205323 -3.904292
-46.370146 60.778755 -3.600169
-45.973365 60.530338 -1.087558
-45.189336 61.956906 -1.391682
-45.789499 61.407414 -2.512575
-46.740687 59.09428 -0.796289
-46.140524 59.643772 0.324604
-45.973365 60.530338 -1.087558
-48.571796 56.724964 -4.549418
-48.211925 57.377903 -3.710277
-47.964768 58.108715 -5.038137
-49.013759 55.391289 -3.934661
-48.571796 56.724964 -4.549418
-48.766602 56.122101 -5.26252
-48.722519 52.927715 -5.991189
-48.758907 51.675251 -5.150149
-49.109958 52.300068 -4.840578
-48.722519 52.927715 -5.991189
-48.725834 54.136055 -6.889761
-46.876202 54.593711 7.417418
-46.122982 56.029327 7.178801
-46.729836 55.672702 6.009988
-47.009586 53.523525 8.785339
-46.876202 54.593711 7.417418
-47.61644 53.1669 7.616526
-47.153656 52.407219 10.148191
-47.009586 53.523525 8.785339
-47.865914 50.992626 10.299066
-47.153656 52.407219 10.148191
-48.603323 49.586277 10.515601
-47.865914 50.992626 10.299066
-48.487234 50.690365 9.200982
-49.317144 48.191613 10.669187
-48.603323 49.586277 10.515601
-50.019256 46.809646 10.885079
-49.317144 48.191613 10.669187
-49.926756 47.90205 9.633409
-50.703609 45.43795 11.019531
-50.019256 46.809646 10.885079
-50.703609 45.43795 11.019531
-51.257747 45.161035 10.036134
-52.251103 43.49514 9.320762
-51.746885 44.844618 9.078136
-52.111361 44.537771 8.175931
-52.251103 43.49514 9.320762
-52.771771 42.154646 9.44236
-51.868685 39.921337 5.417191
-52.379982 40.357965 5.868258
-51.90066 41.289732 5.130244
-51.176244 39.450015 5.042945
-50.603546 40.357893 4.423624
-50.390428 38.954803 4.787391
-51.868685 39.921337 5.417191
-51.176244 39.450015 5.042945
-48.172991 51.096286 -5.324245
-48.56043 50.468639 -4.173634
-48.758907 51.675251 -5.150149
-47.549822 50.463673 -5.43152
-48.172991 51.096286 -5.324245
-47.140084 49.288021 -4.334335
-47.549822 50.463673 -5.43152
3 0 14 12
3 0 16 14
3 0 18 16
3 1 21 19
3 2 24 22
3 2 26 24
3 2 27 26
3 53 52 28
3 3 32 30
3 5 33 13
3 5 34 33
3 5 36 34
3 7 37 15
3 7 38 37
3 7 39 38
3 55 54 17
3 56 40 57
3 9 58 60
3 58 41 59
3 58 59 60
3 9 42 41
3 9 43 42
3 61 44 62
3 63 45 64
3 65 64 44
3 63 64 65
3 67 66 45
3 8 68 69
3 10 46 20
3 10 47 46
3 4 48 31
3 11 49 23
3 11 50 49
3 11 70 72
3 72 71 50
3 70 71 72
3 74 73 25
3 6 51 35
3 76 75 29
3 12 13 3
3 14 13 12
3 14 5 13
3 14 15 5
3 16 15 14
3 16 7 15
3 16 17 7
3 18 17 16
3 18 77 79
3 79 78 17
3 77 78 79
3 80 9 81
3 83 82 9
3 19 20 8
3 21 20 19
3 21 10 20
3 22 23 4
3 24 23 22
3 24 11 23
3 24 25 11
3 26 25 24
3 26 84 86
3 86 85 25
3 84 85 86
3 26 87 88
3 27 89 91
3 91 90 26
3 89 90 91
3 27 92 93
3 28 29 6
3 94 29 95
3 96 95 28
3 94 95 96
3 98 97 29
3 30 31 1
3 32 31 30
3 32 4 31
3 13 32 3
3 33 32 13
3 33 4 32
3 33 22 4
3 34 22 33
3 34 2 22
3 34 35 2
3 36 35 34
3 36 6 35
3 15 36 5
3 37 36 15
3 37 6 36
3 37 28 6
3 38 28 37
3 38 99 101
3 101 100 28
3 99 100 101
3 38 102 103
3 39 104 106
3 106 105 38
3 104 105 106
3 39 107 108
3 17 39 7
3 109 39 110
3 111 110 17
3 109 110 111
3 113 112 39
3 114 8 115
3 116 8 117
3 118 19 119
3 120 119 8
3 118 119 120
3 40 121 123
3 121 19 122
3 121 122 123
3 40 1 19
3 41 124 126
3 124 125 126
3 41 127 129
3 127 128 129
3 41 130 132
3 130 40 131
3 130 131 132
3 42 40 41
3 42 1 40
3 42 30 1
3 43 30 42
3 43 3 30
3 133 43 134
3 135 134 9
3 133 134 135
3 44 136 138
3 136 43 137
3 136 137 138
3 44 3 43
3 44 12 3
3 45 12 44
3 45 0 12
3 45 139 141
3 141 140 0
3 139 140 141
3 143 142 45
3 20 144 146
3 146 145 8
3 144 145 146
3 46 147 149
3 149 148 20
3 147 148 149
3 46 150 151
3 46 152 153
3 47 154 156
3 156 155 46
3 154 155 156
3 47 157 158
3 31 21 1
3 48 21 31
3 48 10 21
3 23 48 4
3 49 48 23
3 49 10 48
3 49 47 10
3 50 47 49
3 50 159 161
3 161 160 47
3 159 160 161
3 50 162 163
3 165 164 50
3 25 166 168
3 168 167 11
3 166 167 168
3 170 169 25
3 35 27 2
3 51 27 35
3 51 171 173
3 173 172 27
3 171 172 173
3 29 51 6
3 174 51 175
3 176 175 29
3 174 175 176
3 178 177 51
3 179 18 180
3 181 180 0
3 179 180 181
3 182 18 183
3 185 184 18
