ply
format ascii 1.0
element vertex 190
property float x
property float y
property float z
element face 180
property list uchar int vertex_index
end_header
-30.017879 -102.797394 24.016659
-34.128521 -108.646484 16.748699
-31.397564 -98.38327 30.432529
-33.853561 -102.490463 26.544121
-32.149452 -106.588074 20.298494
-36.25523 -104.9263 22.797335
-40.240597 -104.782043 14.953961
-39.769516 -102.254395 25.416622
-27.883621 -97.889725 28.287685
-27.563839 -107.747177 18.92532
-29.291946 -111.054276 15.263133
-38.396584 -105.54007 18.970121
-35.873718 -108.930817 13.063439
-34.319878 -100.549667 30.001638
-35.608749 -102.07634 28.071447
-35.074883 -103.942001 24.668268
-36.877052 -103.138229 26.128387
-30.828121 -100.527359 27.09527
-29.677097 -98.09816 29.171328
-28.946684 -100.429199 26.063141
-26.996378 -100.442322 25.47765
-27.95899 -102.923569 23.287027
-26.695765 -105.570511 20.899437
-28.931341 -105.207809 21.282932
-33.168495 -107.852005 18.526405
-30.857635 -108.77919 17.629169
-31.769527 -109.921112 15.863333
-30.112507 -112.054901 13.453334
-32.628647 -110.595963 14.073153
-39.222717 -103.890991 22.141602
-40.259579 -103.688019 20.078257
-38.152935 -106.910187 14.004572
-36.710651 -108.568237 11.143314
-32.620438 -100.611572 28.455582
-31.988752 -102.692947 25.14448
-31.091286 -104.881638 22.111246
-33.144577 -104.494278 23.282438
-34.271709 -105.860275 21.467161
-35.344215 -106.757324 19.657846
-38.549294 -102.030792 27.525642
-29.904264 -107.188843 19.416513
-28.436531 -109.601974 17.068075
-38.091026 -103.730988 24.156006
-37.367413 -105.445053 20.904303
-36.344872 -107.193253 17.82173
-39.346966 -105.286804 16.986155
-37.274197 -107.216705 15.93907
-35.024746 -108.987015 14.932673
-36.433589 -101.720978 28.826088
-35.771471 -101.152244 29.82736
-37.067741 -102.251923 27.854558
-36.242901 -102.607284 27.099917
-36.433589 -101.720978 28.826088
-41.082752 -102.673942 20.559151
-40.575608 -102.894783 21.666065
-37.143951 -108.287117 10.165287
-37.862983 -107.472145 11.584238
-38.296284 -107.191025 10.606211
-36.331238 -109.136467 8.790713
-35.897937 -109.417587 9.76874
-37.143951 -108.287117 10.165287
-30.796737 -97.148392 31.466711
-31.592036 -97.355827 32.16448
-28.211561 -96.707222 29.843528
-29.108299 -96.81144 30.28535
-28.780359 -97.993943 28.729506
-27.354292 -96.594307 29.499676
-28.211561 -96.707222 29.843528
-26.961584 -97.883827 28.086966
-26.432255 -96.58841 29.298957
-27.354292 -96.594307 29.499676
-26.00462 -100.551072 25.448658
-26.421163 -101.807198 24.26372
-26.366083 -108.039497 18.9112
-25.932046 -106.951165 19.898259
-27.129802 -106.658844 19.912378
-26.75209 -109.063018 17.92167
-25.554333 -109.355339 17.90755
-26.366083 -108.039497 18.9112
-28.008873 -111.570236 15.142578
-27.581165 -110.844086 16.045049
-28.864238 -110.328125 16.165604
-28.397481 -112.217858 14.203841
-28.008873 -111.570236 15.142578
-29.187035 -113.14048 12.344392
-30.505133 -112.325256 12.526457
-39.793782 -105.034424 15.970058
-40.277663 -104.250275 17.475978
-40.724478 -103.997894 16.459881
-34.658943 -109.879868 12.6477
-34.234457 -109.907967 13.582317
-35.449232 -108.958916 13.998056
-35.127036 -100.388908 30.792455
-34.466263 -99.589714 31.768961
-34.964314 -101.313004 29.036542
-35.127036 -100.388908 30.792455
-35.771471 -101.152244 29.82736
-26.902468 -103.047821 23.168409
-26.421163 -101.807198 24.26372
-27.477684 -101.682946 24.382338
-27.327378 -104.24704 22.093232
-26.270856 -104.371292 21.974614
-26.902468 -103.047821 23.168409
-31.763202 -111.595788 12.836367
-30.505133 -112.325256 12.526457
-31.370577 -111.325432 13.763243
-40.057176 -102.996269 22.697737
-39.496116 -103.072693 23.779112
-40.330576 -102.177971 24.335247
-39.741148 -103.789505 21.109929
-40.057176 -102.996269 22.697737
-40.575608 -102.894783 21.666065
-38.584125 -106.64312 13.014867
-39.196766 -105.846115 14.479266
-39.627956 -105.579048 13.489562
-37.431793 -107.739212 12.573943
-38.584125 -106.64312 13.014867
-37.862983 -107.472145 11.584238
-35.479198 -109.627578 10.738947
-35.060732 -109.808869 11.69901
-36.292184 -108.749527 12.103376
-35.479198 -109.627578 10.738947
-35.897937 -109.417587 9.76874
-32.218637 -98.494179 31.18479
-31.592036 -97.355827 32.16448
-33.679794 -99.577377 30.969345
-34.466263 -99.589714 31.768961
-32.830074 -99.608329 30.196317
-33.679794 -99.577377 30.969345
-33.470158 -100.580619 29.22861
-32.009001 -99.497421 29.444055
-32.218637 -98.494179 31.18479
-32.830074 -99.608329 30.196317
-41.165638 -103.674248 15.382179
-40.724478 -103.997894 16.459881
-40.674078 -104.454536 13.918425
-41.165638 -103.674248 15.382179
-39.627956 -105.579048 13.489562
-40.674078 -104.454536 13.918425
-38.676857 -101.17337 29.232939
-37.903862 -101.698204 28.553186
-39.316922 -101.320198 28.13308
-38.676857 -101.17337 29.232939
-39.927033 -101.432 27.07857
-39.159405 -102.142594 26.471132
-39.316922 -101.320198 28.13308
-40.522227 -101.383515 25.944412
-39.927033 -101.432 27.07857
-40.679743 -100.561119 27.606359
-40.330576 -102.177971 24.335247
-40.522227 -101.383515 25.944412
-29.936504 -97.005836 30.83611
-30.796737 -97.148392 31.466711
-30.53733 -98.240715 29.801928
-29.936504 -97.005836 30.83611
-29.108299 -96.81144 30.28535
-26.517962 -99.160126 26.681949
-26.961584 -97.883827 28.086966
-27.439999 -99.166023 26.882668
-26.517962 -99.160126 26.681949
-26.00462 -100.551072 25.448658
-25.561992 -105.804665 20.962263
-26.270856 -104.371292 21.974614
-25.561992 -105.804665 20.962263
-25.932046 -106.951165 19.898259
-27.188435 -109.990417 16.993047
-26.75209 -109.063018 17.92167
-28.000185 -108.674576 17.996697
-27.188435 -109.990417 16.993047
-27.581165 -110.844086 16.045049
-28.807761 -112.71817 13.298942
-28.397481 -112.217858 14.203841
-29.702227 -111.554588 14.358234
-28.807761 -112.71817 13.298942
-29.187035 -113.14048 12.344392
-37.713173 -102.58451 26.827015
-37.067741 -102.251923 27.854558
-37.903862 -101.698204 28.553186
-40.733969 -103.450882 19.022029
-41.082752 -102.673942 20.559151
-39.803273 -104.487412 18.532206
-40.733969 -103.450882 19.022029
-40.277663 -104.250275 17.475978
-33.036407 -110.71244 13.152557
-33.826696 -109.791489 14.502913
-34.234457 -109.907967 13.582317
-31.763202 -111.595788 12.836367
-33.036407 -110.71244 13.152557
-34.658943 -109.879868 12.6477
-35.060732 -109.808869 11.69901
3 48 14 49
3 50 16 51
3 52 51 14
3 50 51 52
3 0 19 17
3 0 21 19
3 0 23 21
3 1 26 24
3 1 28 26
3 53 30 54
3 55 32 56
3 55 56 57
3 60 59 32
3 58 59 60
3 3 33 13
3 3 34 33
3 3 36 34
3 5 37 15
3 5 38 37
3 2 61 62
3 8 63 65
3 65 64 18
3 63 64 65
3 8 66 67
3 8 68 70
3 68 69 70
3 72 71 20
3 9 73 75
3 75 74 22
3 73 74 75
3 9 76 78
3 76 77 78
3 4 40 35
3 10 41 25
3 10 79 81
3 81 80 41
3 79 80 81
3 10 82 83
3 85 84 27
3 7 42 39
3 11 43 29
3 11 44 43
3 6 86 88
3 86 45 87
3 86 87 88
3 12 46 31
3 12 47 46
3 12 89 91
3 91 90 47
3 89 90 91
3 92 13 93
3 14 94 96
3 94 13 95
3 94 95 96
3 14 3 13
3 14 15 3
3 16 15 14
3 16 5 15
3 17 18 2
3 19 18 17
3 19 8 18
3 19 20 8
3 21 20 19
3 21 97 99
3 99 98 20
3 97 98 99
3 21 100 102
3 100 22 101
3 100 101 102
3 23 22 21
3 23 9 22
3 24 25 4
3 26 25 24
3 26 10 25
3 26 27 10
3 28 27 26
3 28 103 105
3 105 104 27
3 103 104 105
3 106 29 107
3 108 107 7
3 106 107 108
3 30 109 111
3 109 29 110
3 109 110 111
3 30 11 29
3 112 31 113
3 114 113 6
3 112 113 114
3 32 115 117
3 115 31 116
3 115 116 117
3 32 12 31
3 32 118 120
3 120 119 12
3 118 119 120
3 122 121 32
3 123 2 124
3 13 125 126
3 33 127 129
3 129 128 13
3 127 128 129
3 33 130 132
3 130 2 131
3 130 131 132
3 33 17 2
3 34 17 33
3 34 0 17
3 34 35 0
3 36 35 34
3 36 4 35
3 15 36 3
3 37 36 15
3 37 4 36
3 37 24 4
3 38 24 37
3 38 1 24
3 133 6 134
3 135 6 136
3 138 137 6
3 139 39 140
3 141 39 142
3 143 7 144
3 145 144 39
3 143 144 145
3 146 7 147
3 146 147 148
3 150 149 7
3 18 151 153
3 153 152 2
3 151 152 153
3 155 154 18
3 20 156 158
3 158 157 8
3 156 157 158
3 160 159 20
3 22 161 162
3 164 163 22
3 35 23 0
3 40 23 35
3 40 9 23
3 25 40 4
3 41 40 25
3 41 9 40
3 41 165 167
3 167 166 9
3 165 166 167
3 169 168 41
3 27 170 172
3 172 171 10
3 170 171 172
3 174 173 27
3 39 175 177
3 175 16 176
3 175 176 177
3 42 16 39
3 42 5 16
3 29 42 7
3 43 42 29
3 43 5 42
3 43 38 5
3 44 38 43
3 44 1 38
3 178 30 179
3 45 180 182
3 180 30 181
3 180 181 182
3 45 11 30
3 31 45 6
3 46 45 31
3 46 11 45
3 46 44 11
3 47 44 46
3 47 1 44
3 47 28 1
3 183 28 184
3 185 184 47
3 183 184 185
3 187 186 28
3 189 188 12
