ply
format ascii 1.0
element vertex 247
property float x
property float y
property float z
element face 222
property list uchar int vertex_index
end_header
-0.828814 51.55595 58.805096
-1.320612 43.338524 39.24865
-0.05378 48.812092 49.262585
-0.293903 58.124332 52.176723
0.154806 56.73666 47.317196
0.174728 50.795872 54.427067
0.120089 43.052589 56.087883
-0.067562 44.443829 60.991795
-0.801781 40.420868 35.141296
-0.396723 54.21735 42.039337
-0.839918 46.178028 44.034668
-0.531939 40.862518 50.782471
-1.629337 44.54953 64.761581
0.013277 54.544575 53.381039
-0.14472 51.36211 56.760437
0.083525 47.668758 57.778152
-0.372078 48.073589 59.985092
-1.257505 47.23341 38.145744
-1.292267 45.723866 35.909454
-1.038538 44.19519 33.852306
-1.21015 41.896347 37.10321
-1.045319 38.113129 38.235741
-1.311373 39.502815 40.286903
0.098154 52.803707 48.347733
-0.04031 55.578014 44.685501
-0.206072 51.566982 45.69976
-0.609404 50.187504 43.077534
-0.429873 47.542667 46.617935
-0.682035 43.55048 47.446785
-0.274372 44.817616 50.071697
0.144884 40.052948 59.344875
-2.964787 44.025745 66.066635
-0.998306 41.182541 65.972595
0.094063 57.611439 49.845924
0.199713 53.822437 50.93951
0.179657 49.921192 51.895493
0.054972 45.971241 52.725636
0.203566 46.945423 55.326229
0.173243 43.881165 58.638206
0.09409 40.723553 61.825825
-0.477789 42.618145 31.981834
-0.99765 48.728268 40.544643
-1.171267 44.767246 41.566345
-1.297503 40.869263 42.518349
-1.058416 42.222801 44.914303
-0.929707 39.621407 48.191463
-0.146948 42.024723 53.439133
-1.894516 51.332058 60.49086
-7.738974 44.162281 65.462891
-5.766165 45.735371 65.141006
-3.956015 46.935009 64.450058
-2.409365 47.729282 63.3606
-1.202036 48.105274 61.864582
-0.659592 44.681236 63.056606
-0.271427 41.116482 64.063065
-0.486767 51.45903 57.782767
-0.333376 53.130284 56.169029
-0.675423 53.227204 57.191358
0.086591 38.138937 59.621944
0.139499 38.506361 60.91445
-0.09992 57.867885 51.011324
-0.030033 59.414867 49.223897
-0.224016 59.671314 50.389297
-0.452519 39.645523 34.253677
-0.290523 40.744162 32.673946
-0.639785 41.519506 33.561565
-0.644863 38.544148 35.75629
-0.452519 39.645523 34.253677
-0.919571 36.239607 38.773083
-1.130161 36.919442 39.749588
0.097975 58.12751 45.441847
0.124145 58.640946 46.738161
-0.313047 56.219173 41.477507
-0.134841 56.899506 42.800589
-0.218517 54.897682 43.362419
-0.505548 55.477299 40.163519
-0.313047 56.219173 41.477507
-0.600032 53.473613 40.745632
-0.505548 55.477299 40.163519
-0.661733 38.917976 51.091193
-0.860617 38.297421 49.795688
-0.730823 40.241962 49.486967
-2.60691 51.000553 61.134166
-2.308134 52.818382 59.713074
-8.106044 42.179941 66.550278
-8.753078 43.211992 65.459809
-5.189296 44.42259 66.053097
-6.125237 43.778679 66.309143
-4.284221 45.02241 65.707622
-4.86109 46.33519 64.795532
-5.189296 44.42259 66.053097
-0.39643 39.3976 65.521248
-0.634867 41.149512 65.01783
-0.759869 39.43063 66.476013
-0.149819 39.288835 64.469192
-0.39643 39.3976 65.521248
-1.324854 38.956228 42.960862
-1.265999 39.605337 44.119102
-0.254378 54.721516 54.47933
-0.140313 56.334454 52.778881
-0.407968 56.511395 53.877172
-0.065721 52.953343 55.070738
-0.254378 54.721516 54.47933
-0.333376 53.130284 56.169029
-1.280179 48.413051 36.39982
-1.199861 49.204476 37.561763
-1.29756 47.658279 35.281675
-1.280179 48.413051 36.39982
-1.274886 46.478638 37.027599
-1.246007 46.859105 34.20631
-1.29756 47.658279 35.281675
-1.165402 44.959528 34.88088
-1.119142 46.094766 33.177736
-1.246007 46.859105 34.20631
-1.263187 37.614284 40.775169
-1.130161 36.919442 39.749588
-1.178346 38.807972 39.261322
0.048873 39.608604 58.031486
0.036476 41.108425 56.402991
0.132487 41.552768 57.716379
0.048873 39.608604 58.031486
0.086591 38.138937 59.621944
-3.255684 42.12595 67.340126
-3.788607 43.567778 66.515911
-2.532071 42.457668 66.781982
-3.255684 42.12595 67.340126
-1.864347 42.719561 66.129456
-2.297062 44.287638 65.414108
-2.532071 42.457668 66.781982
-1.548831 41.036066 66.734962
-1.313821 42.866035 65.367088
-1.864347 42.719561 66.129456
-1.189164 39.378504 67.348183
-1.548831 41.036066 66.734962
-0.759869 39.43063 66.476013
-1.189164 39.378504 67.348183
0.093774 59.078335 48.002525
-0.030033 59.414867 49.223897
0.124435 57.174049 48.58156
0.124145 58.640946 46.738161
0.093774 59.078335 48.002525
0.114102 38.841664 62.154924
0.139499 38.506361 60.91445
0.119487 40.38825 60.58535
-0.913258 45.281003 32.195144
-1.119142 46.094766 33.177736
-0.632883 44.492481 31.259909
-0.913258 45.281003 32.195144
-0.758163 43.406667 32.91707
-0.274163 43.64502 30.372225
-0.632883 44.492481 31.259909
-0.057596 41.78043 31.140041
-0.274163 43.64502 30.372225
-0.057596 41.78043 31.140041
-0.290523 40.744162 32.673946
-0.766632 37.390278 37.303512
-0.644863 38.544148 35.75629
-0.92355 39.266998 36.688519
-0.766632 37.390278 37.303512
-0.919571 36.239607 38.773083
0.000418 57.548187 44.126
0.097975 58.12751 45.441847
0.057248 56.157337 46.001349
0.000418 57.548187 44.126
-0.134841 56.899506 42.800589
-0.706372 51.458691 41.26473
-0.600032 53.473613 40.745632
-0.503063 52.202427 42.558436
-0.900496 50.729073 39.998285
-0.706372 51.458691 41.26473
-0.803527 49.457886 41.811088
-1.069934 49.951904 38.761213
-0.900496 50.729073 39.998285
-1.127578 47.980839 39.345194
-1.199861 49.204476 37.561763
-1.069934 49.951904 38.761213
-1.146456 40.282106 45.317079
-1.265999 39.605337 44.119102
-1.17796 41.546032 43.716326
-1.082101 38.981409 46.955659
-1.146456 40.282106 45.317079
-0.994061 40.922104 46.552883
-1.034999 37.696125 48.523718
-1.082101 38.981409 46.955659
-1.034999 37.696125 48.523718
-0.860617 38.297421 49.795688
-0.097043 40.594492 55.078615
-0.013429 42.538656 54.763508
0.036476 41.108425 56.402991
-0.26979 40.071932 53.740574
-0.097043 40.594492 55.078615
-0.462286 39.49083 52.412243
-0.339444 41.443621 52.110802
-0.26979 40.071932 53.740574
-0.661733 38.917976 51.091193
-0.462286 39.49083 52.412243
-0.524728 59.79533 51.489809
-0.224016 59.671314 50.389297
-0.672593 58.168048 53.198767
-0.524728 59.79533 51.489809
-0.407968 56.511395 53.877172
-0.672593 58.168048 53.198767
-1.132491 53.192493 58.12647
-0.675423 53.227204 57.191358
-1.665342 53.080548 58.969352
-2.308134 52.818382 59.713074
-1.361665 51.444004 59.647978
-1.132491 53.192493 58.12647
-1.665342 53.080548 58.969352
-8.365902 45.17921 64.379096
-8.753078 43.211992 65.459809
-7.35299 46.113888 64.306977
-8.365902 45.17921 64.379096
-7.111642 42.992134 66.470085
-8.106044 42.179941 66.550278
-6.752569 44.948826 65.301949
-7.111642 42.992134 66.470085
-6.125237 43.778679 66.309143
-6.366586 46.900433 64.146034
-7.35299 46.113888 64.306977
-6.752569 44.948826 65.301949
-5.4035 47.653298 63.899298
-6.366586 46.900433 64.146034
-4.498425 48.253117 63.553824
-5.4035 47.653298 63.899298
-4.86109 46.33519 64.795532
-3.637659 48.802028 63.113765
-4.498425 48.253117 63.553824
-3.460401 45.480377 65.258347
-4.284221 45.02241 65.707622
-3.788607 43.567778 66.515911
-2.864335 49.199165 62.569036
-3.637659 48.802028 63.113765
-3.18269 47.332145 63.905329
-2.151941 49.53067 61.92573
-2.60691 51.000553 61.134166
-2.864335 49.199165 62.569036
0.032939 39.092371 63.350572
-0.088668 40.920018 62.944445
-0.149819 39.288835 64.469192
0.114102 38.841664 62.154924
0.032939 39.092371 63.350572
-1.331789 38.273004 41.845139
-1.304438 40.186039 41.402626
-1.324854 38.956228 42.960862
-1.263187 37.614284 40.775169
-1.331789 38.273004 41.845139
3 0 55 57
3 55 14 56
3 55 56 57
3 0 16 14
3 1 18 17
3 1 20 18
3 1 22 20
3 2 25 23
3 2 27 25
3 2 29 27
3 59 58 30
3 3 60 62
3 60 33 61
3 60 61 62
3 5 34 13
3 5 35 34
3 5 37 35
3 7 38 15
3 7 39 38
3 8 40 19
3 8 63 65
3 65 64 40
3 63 64 65
3 8 66 67
3 69 68 21
3 4 70 71
3 9 72 74
3 74 73 24
3 72 73 74
3 9 75 76
3 9 77 78
3 10 41 26
3 10 42 41
3 10 44 42
3 11 45 28
3 11 79 81
3 81 80 45
3 79 80 81
3 6 46 36
3 82 47 83
3 84 48 85
3 86 49 87
3 88 50 89
3 90 89 49
3 88 89 90
3 12 51 31
3 12 52 51
3 12 53 52
3 91 54 92
3 93 92 32
3 91 92 93
3 95 94 54
3 97 96 43
3 98 13 99
3 100 99 3
3 98 99 100
3 14 101 103
3 101 13 102
3 101 102 103
3 14 5 13
3 14 15 5
3 16 15 14
3 16 7 15
3 17 104 105
3 18 106 108
3 108 107 17
3 106 107 108
3 18 109 110
3 18 111 113
3 111 19 112
3 111 112 113
3 20 19 18
3 20 8 19
3 20 21 8
3 22 21 20
3 22 114 116
3 116 115 21
3 114 115 116
3 23 24 4
3 25 24 23
3 25 9 24
3 25 26 9
3 27 26 25
3 27 10 26
3 27 28 10
3 29 28 27
3 29 11 28
3 30 117 119
3 119 118 6
3 117 118 119
3 121 120 30
3 122 31 123
3 124 31 125
3 126 12 127
3 128 127 31
3 126 127 128
3 129 32 130
3 131 130 12
3 129 130 131
3 132 32 133
3 135 134 32
3 33 136 137
3 33 138 140
3 138 4 139
3 138 139 140
3 13 33 3
3 34 33 13
3 34 4 33
3 34 23 4
3 35 23 34
3 35 2 23
3 35 36 2
3 37 36 35
3 37 6 36
3 15 37 5
3 38 37 15
3 38 6 37
3 38 30 6
3 39 30 38
3 39 141 143
3 143 142 30
3 141 142 143
3 19 144 145
3 40 146 148
3 148 147 19
3 146 147 148
3 40 149 150
3 40 151 152
3 154 153 40
3 21 155 157
3 157 156 8
3 155 156 157
3 159 158 21
3 24 160 162
3 162 161 4
3 160 161 162
3 164 163 24
3 26 165 167
3 167 166 9
3 165 166 167
3 41 168 170
3 170 169 26
3 168 169 170
3 41 171 172
3 41 173 175
3 173 17 174
3 173 174 175
3 42 17 41
3 42 1 17
3 42 43 1
3 44 43 42
3 44 176 178
3 178 177 43
3 176 177 178
3 28 44 10
3 45 44 28
3 45 179 181
3 181 180 44
3 179 180 181
3 45 182 183
3 185 184 45
3 36 29 2
3 46 29 36
3 46 11 29
3 186 46 187
3 188 187 6
3 186 187 188
3 189 46 190
3 191 11 192
3 193 192 46
3 191 192 193
3 195 194 11
3 196 3 197
3 198 3 199
3 201 200 3
3 202 0 203
3 47 204 205
3 47 206 208
3 206 0 207
3 206 207 208
3 48 209 210
3 48 211 212
3 213 48 214
3 49 215 217
3 215 48 216
3 215 216 217
3 49 218 220
3 220 219 48
3 218 219 220
3 49 221 222
3 50 223 225
3 225 224 49
3 223 224 225
3 50 226 227
3 31 228 230
3 228 50 229
3 228 229 230
3 51 50 31
3 51 231 233
3 233 232 50
3 231 232 233
3 51 234 236
3 234 47 235
3 234 235 236
3 52 47 51
3 52 0 47
3 52 16 0
3 53 16 52
3 53 7 16
3 32 53 12
3 54 53 32
3 54 7 53
3 54 39 7
3 237 39 238
3 239 238 54
3 237 238 239
3 241 240 39
3 43 22 1
3 242 22 243
3 244 243 43
3 242 243 244
3 246 245 22
