ply
format ascii 1.0
element vertex 203
property float x
property float y
property float z
element face 195
property list uchar int vertex_index
end_header
-43.842224 58.408619 10.793076
-45.284904 48.864391 20.920286
-41.6082 59.112568 21.023319
-44.717354 53.704258 16.180542
-46.963615 48.112423 16.336512
-46.557487 52.717724 11.311935
-42.99609 62.817432 5.027771
-45.373203 61.07983 0.033335
-45.105293 43.849968 24.90641
-44.424103 49.165791 25.56423
-43.726788 54.20525 21.102509
-42.50499 59.135349 15.97814
-41.183334 63.834835 10.336519
-46.769764 43.33984 20.593939
-44.288399 56.079258 13.553459
-45.523376 53.259029 13.724196
-45.175259 55.568981 11.037495
-44.14299 62.031765 2.46485
-42.355316 56.581379 23.541901
-43.377388 54.209415 23.526958
-42.765476 56.732998 21.107021
-43.151634 56.68697 18.618406
-42.050323 59.228214 18.531637
-45.303925 46.388462 23.006201
-45.804459 43.637611 22.731026
-46.008068 46.113033 20.77494
-48.134834 47.630627 14.096
-48.151932 45.329601 16.395622
-45.071522 51.298946 18.642851
-46.001198 48.531445 18.616665
-45.819725 50.910992 16.260502
-46.807297 50.434177 13.90764
-47.982002 49.888538 11.613685
-43.411339 60.665577 7.937777
-44.822136 57.821033 8.238251
-44.482124 59.986118 5.367416
-45.684635 59.161755 2.907829
-44.81728 46.552967 25.265099
-44.785912 49.083706 23.237831
-43.832207 51.66605 25.787817
-44.168556 51.699535 23.417686
-44.545696 51.570858 21.03335
-44.139118 54.028973 18.648224
-43.628643 56.460552 16.091957
-43.077435 58.854069 13.387161
-40.778748 61.602184 18.365553
-41.285191 61.67371 15.816801
-41.839428 61.528263 13.206504
-42.530552 61.185421 10.566566
-42.003021 63.422787 7.668139
-46.363071 40.856388 22.404795
-46.966095 45.751842 18.570513
-47.983536 42.980125 18.486105
-46.269348 54.950336 8.586231
-48.803722 46.246712 14.178422
-48.772239 47.364918 13.008428
-46.140524 59.643772 0.324604
-46.29624 58.684735 1.761851
-45.528919 60.120793 1.470582
-44.620691 47.859379 25.414665
-44.641245 46.571049 26.409155
-44.444657 47.87746 26.55872
-43.402632 52.847904 25.850558
-43.62644 51.565929 26.964371
-43.196865 52.747783 27.027112
-40.342686 62.810721 16.976386
-40.035309 62.682873 18.235349
-39.599247 63.891409 16.846182
-40.595907 62.846483 15.70201
-41.03197 61.637947 17.091177
-40.342686 62.810721 16.976386
-41.511381 62.681549 11.771511
-41.173361 62.783602 13.097562
-40.845314 63.936887 11.66257
-45.249073 42.465981 24.699666
-44.905493 42.53756 25.771184
-47.187868 41.95379 20.473968
-46.984521 40.712064 21.379396
-46.566418 42.098114 21.499367
-48.673237 42.778572 17.444488
-48.067734 44.154863 17.440863
-48.757435 43.95331 16.399247
-48.515631 41.607246 18.404368
-48.673237 42.778572 17.444488
-46.122982 56.029327 7.178801
-45.545742 56.385684 8.412241
-45.399376 57.464675 7.004811
-43.355611 63.431792 2.283127
-43.56954 62.424599 3.746311
-42.782162 63.824625 3.564588
-43.956207 62.979447 1.016182
-43.355611 63.431792 2.283127
-44.571314 62.503479 -0.199575
-44.758096 61.555797 1.249093
-43.956207 62.979447 1.016182
-44.257569 49.132199 26.730859
-44.444657 47.87746 26.55872
-42.866352 55.395397 23.53443
-43.175223 54.119586 24.720128
-42.664186 55.305568 24.7276
-40.455616 65.06262 10.207866
-40.845314 63.936887 11.66257
-40.858925 64.928427 8.870579
-40.455616 65.06262 10.207866
-48.812271 45.096199 15.328233
-48.143383 46.480114 15.245811
-48.803722 46.246712 14.178422
-48.757435 43.95331 16.399247
-48.812271 45.096199 15.328233
-42.082476 56.405777 24.729416
-42.664186 55.305568 24.7276
-41.711544 57.680889 23.491106
-42.082476 56.405777 24.729416
-41.337986 58.946483 22.231815
-41.981758 57.846974 22.28261
-41.711544 57.680889 23.491106
-48.695824 48.493873 11.767271
-48.772239 47.364918 13.008428
-48.058418 48.759582 12.854843
-45.22937 58.547218 5.569394
-45.399376 57.464675 7.004811
-44.65213 58.903576 6.802834
-45.830625 58.135036 4.3396
-45.22937 58.547218 5.569394
-45.083379 59.573937 4.137622
-46.444052 57.722744 3.177175
-45.830625 58.135036 4.3396
-46.444052 57.722744 3.177175
-46.29624 58.684735 1.761851
-45.189336 61.956906 -1.391682
-44.571314 62.503479 -0.199575
-45.973365 60.530338 -1.087558
-45.189336 61.956906 -1.391682
-46.140524 59.643772 0.324604
-45.973365 60.530338 -1.087558
-44.868069 43.903436 26.017389
-44.905493 42.53756 25.771184
-44.724062 45.254936 26.196734
-44.641245 46.571049 26.409155
-44.961286 45.201467 25.085755
-44.868069 43.903436 26.017389
-44.724062 45.254936 26.196734
-43.96162 50.382328 26.842652
-43.62644 51.565929 26.964371
-44.128155 50.41592 25.676023
-44.257569 49.132199 26.730859
-43.96162 50.382328 26.842652
-43.604798 52.937732 24.657387
-43.402632 52.847904 25.850558
-43.175223 54.119586 24.720128
-40.912437 60.207234 20.927823
-41.337986 58.946483 22.231815
-40.497712 61.452041 19.59894
-40.035309 62.682873 18.235349
-41.193474 60.357376 19.694436
-40.912437 60.207234 20.927823
-40.497712 61.452041 19.59894
-40.896242 62.856325 14.40271
-40.595907 62.846483 15.70201
-41.562309 61.600987 14.511653
-40.896242 62.856325 14.40271
-41.173361 62.783602 13.097562
-41.268768 64.722403 7.536389
-41.593177 63.628811 9.002329
-40.858925 64.928427 8.870579
-41.740715 64.477972 6.199245
-41.268768 64.722403 7.536389
-42.23725 64.175295 4.879062
-42.499555 63.120109 6.347955
-41.740715 64.477972 6.199245
-42.782162 63.824625 3.564588
-42.23725 64.175295 4.879062
-45.598656 42.359802 23.611974
-45.249073 42.465981 24.699666
-45.454876 43.743789 23.818718
-45.877962 40.96919 23.448859
-45.598656 42.359802 23.611974
-46.083765 42.247 22.56791
-46.070386 39.568641 23.209424
-45.877962 40.96919 23.448859
-46.699381 39.46545 22.202716
-46.070386 39.568641 23.209424
-46.699381 39.46545 22.202716
-46.984521 40.712064 21.379396
-47.794754 41.773933 19.420051
-47.187868 41.95379 20.473968
-47.37665 43.159982 19.540022
-47.794754 41.773933 19.420051
-48.515631 41.607246 18.404368
-46.876202 54.593711 7.417418
-46.122982 56.029327 7.178801
-47.009586 53.523525 8.785339
-46.876202 54.593711 7.417418
-47.153656 52.407219 10.148191
-46.413418 53.83403 9.949083
-47.009586 53.523525 8.785339
-47.865914 50.992626 10.299066
-47.269745 51.303131 11.46281
-47.153656 52.407219 10.148191
-48.603323 49.586277 10.515601
-47.865914 50.992626 10.299066
-48.695824 48.493873 11.767271
-48.603323 49.586277 10.515601
3 0 16 14
3 2 20 18
3 2 22 20
3 1 25 23
3 55 54 26
3 3 30 28
3 5 31 15
3 5 32 31
3 6 35 33
3 7 36 17
3 7 56 58
3 58 57 36
3 56 57 58
3 9 59 61
3 59 37 60
3 59 60 61
3 9 38 37
3 62 39 63
3 62 63 64
3 10 40 19
3 10 41 40
3 10 42 41
3 11 43 21
3 11 44 43
3 65 45 66
3 65 66 67
3 68 46 69
3 70 69 45
3 68 69 70
3 12 71 73
3 71 47 72
3 71 72 73
3 12 48 47
3 12 49 48
3 8 74 75
3 13 50 24
3 13 76 78
3 78 77 50
3 76 77 78
3 4 51 29
3 79 52 80
3 81 80 27
3 79 80 81
3 83 82 52
3 84 53 85
3 86 85 34
3 84 85 86
3 14 15 3
3 16 15 14
3 16 5 15
3 87 17 88
3 89 88 6
3 87 88 89
3 90 17 91
3 92 7 93
3 94 93 17
3 92 93 94
3 95 9 96
3 18 97 99
3 97 19 98
3 97 98 99
3 20 19 18
3 20 10 19
3 20 21 10
3 22 21 20
3 22 11 21
3 100 12 101
3 103 102 12
3 23 24 8
3 25 24 23
3 25 13 24
3 26 27 4
3 104 27 105
3 106 105 26
3 104 105 106
3 108 107 27
3 109 18 110
3 111 18 112
3 113 2 114
3 115 114 18
3 113 114 115
3 28 29 1
3 30 29 28
3 30 4 29
3 15 30 3
3 31 30 15
3 31 4 30
3 31 26 4
3 32 26 31
3 32 116 118
3 118 117 26
3 116 117 118
3 33 34 0
3 35 34 33
3 35 119 121
3 121 120 34
3 119 120 121
3 17 35 6
3 36 35 17
3 36 122 124
3 124 123 35
3 122 123 124
3 36 125 126
3 128 127 36
3 129 7 130
3 131 7 132
3 134 133 7
3 135 8 136
3 37 137 138
3 37 139 141
3 139 8 140
3 139 140 141
3 37 23 8
3 38 23 37
3 38 1 23
3 39 142 143
3 39 144 146
3 144 9 145
3 144 145 146
3 19 147 149
3 147 39 148
3 147 148 149
3 40 39 19
3 40 9 39
3 40 38 9
3 41 38 40
3 41 1 38
3 41 28 1
3 42 28 41
3 42 3 28
3 21 42 10
3 43 42 21
3 43 3 42
3 43 14 3
3 44 14 43
3 44 0 14
3 150 2 151
3 45 152 153
3 45 154 156
3 154 2 155
3 154 155 156
3 45 22 2
3 46 22 45
3 46 11 22
3 157 46 158
3 47 159 161
3 159 46 160
3 159 160 161
3 47 11 46
3 47 44 11
3 48 44 47
3 48 0 44
3 48 33 0
3 49 33 48
3 49 6 33
3 162 49 163
3 164 163 12
3 162 163 164
3 165 49 166
3 167 6 168
3 169 168 49
3 167 168 169
3 171 170 6
3 24 172 174
3 174 173 8
3 172 173 174
3 50 175 177
3 177 176 24
3 175 176 177
3 50 178 179
3 50 180 181
3 183 182 50
3 29 25 1
3 51 25 29
3 51 13 25
3 27 51 4
3 52 51 27
3 52 13 51
3 52 184 186
3 186 185 13
3 184 185 186
3 188 187 52
3 34 16 0
3 53 16 34
3 53 5 16
3 189 53 190
3 191 53 192
3 193 5 194
3 195 194 53
3 193 194 195
3 196 32 197
3 198 197 5
3 196 197 198
3 199 32 200
3 202 201 32
