ply
format ascii 1.0
element vertex 186
property float x
property float y
property float z
element face 173
property list uchar int vertex_index
end_header
2.329779 81.102547 -20.01346
2.806108 81.546692 -7.180216
0.62604 69.647438 -16.600058
2.389862 81.784668 -13.838078
1.777695 76.087173 -12.251261
1.061155 75.97847 -18.566946
-0.13155 69.136848 -22.504393
0.823519 75.040977 -24.304525
3.059479 79.236282 -25.245634
1.521601 69.690842 -10.332071
3.266441 83.620285 -17.597952
3.155724 84.03569 -14.500984
2.285103 81.573143 -17.010775
1.696384 79.030411 -16.287409
1.528246 78.754982 -19.364958
0.854513 75.633018 -21.536043
1.524912 78.225441 -22.257833
1.569513 66.418785 -5.97578
3.261049 84.1035 -7.884285
2.609043 78.659286 -6.439999
1.226915 72.97419 -14.530783
1.671864 72.916611 -11.342014
1.077841 69.719994 -13.499788
0.822411 66.45089 -12.339199
0.400034 66.326859 -15.424587
-0.021202 66.119713 -18.432318
3.791517 77.766563 -27.349474
2.19075 76.23777 -27.222509
4.167082 86.087509 -11.861628
3.17457 84.188927 -11.24696
2.583572 81.767929 -10.548693
2.293577 78.95871 -9.791134
1.971336 79.08873 -13.082232
1.388035 76.118813 -15.456974
0.804859 72.900452 -17.643469
0.206802 69.461914 -19.613131
0.4569 72.671066 -20.648245
0.238018 72.249535 -23.497057
2.576153 80.336472 -22.781008
2.176672 75.905258 -8.978754
2.095911 72.737968 -8.094917
1.925476 69.556152 -7.107002
1.218561 66.48764 -9.187387
1.735237 77.400085 -24.89908
1.014322 74.157684 -26.804968
1.918114 67.859425 -4.903164
1.71661 66.317917 -4.343459
2.065211 67.758556 -3.270843
3.081443 82.672344 -5.813155
3.308913 83.950749 -6.16519
3.033578 82.825096 -7.53225
2.905722 81.342003 -5.467797
3.081443 82.672344 -5.813155
2.707575 80.102989 -6.810107
2.80719 79.8983 -5.097688
2.905722 81.342003 -5.467797
3.345625 76.23558 -28.262529
4.274644 76.834125 -28.202252
4.263225 85.905686 -13.449571
4.893877 86.725807 -12.108923
0.512576 73.316341 -25.216312
0.219826 71.92062 -24.812578
0.530768 73.645256 -23.900791
0.598992 64.837414 -11.678576
0.425144 64.73272 -13.216665
-0.268064 67.476921 -21.922446
-0.098888 67.639454 -20.476814
0.037626 69.299381 -21.058762
1.235032 73.549839 -27.889427
1.602536 75.197727 -27.013738
1.823246 74.589882 -28.098197
0.7032 72.404984 -27.639525
1.235032 73.549839 -27.889427
3.211082 83.827988 -16.049468
3.757547 84.879776 -14.769249
3.812905 84.672073 -16.317733
1.27287 64.881214 -5.320816
1.71661 66.317917 -4.343459
1.131733 64.881359 -6.924308
0.83509 63.343788 -6.269343
1.27287 64.881214 -5.320816
3.650075 85.070793 -6.498878
3.670928 85.14526 -8.211828
3.650075 85.070793 -6.498878
3.308913 83.950749 -6.16519
2.741519 78.429489 -4.741227
2.80719 79.8983 -5.097688
2.574431 77.120941 -6.047588
2.741519 78.429489 -4.741227
0.213955 64.670704 -14.759359
0.425144 64.73272 -13.216665
0.611223 66.388875 -13.881893
0.032048 64.53125 -16.259483
0.213955 64.670704 -14.759359
-0.17857 64.427677 -17.763348
0.032048 64.53125 -16.259483
0.189416 66.223286 -16.928452
-0.357449 64.255398 -19.21925
-0.17857 64.427677 -17.763348
-0.417914 67.263653 -23.307911
-0.233778 68.88522 -23.863636
2.545241 75.471183 -28.199047
2.991134 77.002167 -27.285992
3.345625 76.23558 -28.262529
1.823246 74.589882 -28.098197
2.545241 75.471183 -28.199047
4.750617 86.882889 -10.488511
4.893877 86.725807 -12.108923
4.123945 86.137264 -10.200499
4.707479 86.932644 -8.827382
4.750617 86.882889 -10.488511
3.661403 85.061599 -13.181306
4.263225 85.905686 -13.449571
3.757547 84.879776 -14.769249
3.627689 85.187973 -9.893165
4.123945 86.137264 -10.200499
3.670826 85.138218 -11.554294
3.217809 84.146214 -9.565622
3.670928 85.14526 -8.211828
3.627689 85.187973 -9.893165
-0.048994 70.441563 -24.359968
-0.233778 68.88522 -23.863636
0.053234 70.693191 -23.000725
-0.048994 70.441563 -24.359968
0.219826 71.92062 -24.812578
3.991376 84.348549 -17.804458
3.812905 84.672073 -16.317733
3.414509 83.267147 -19.037161
3.991376 84.348549 -17.804458
2.946178 82.008278 -20.244915
2.79811 82.361416 -18.805706
3.414509 83.267147 -19.037161
3.069365 81.62524 -21.628689
2.452966 80.71951 -21.397234
2.946178 82.008278 -20.244915
3.330071 81.110116 -22.924946
3.069365 81.62524 -21.628689
3.571734 80.560021 -24.157259
2.817816 79.786377 -24.013321
3.330071 81.110116 -22.924946
3.953594 79.865482 -25.279529
3.571734 80.560021 -24.157259
4.319612 79.130623 -26.331449
3.425498 78.501423 -26.297554
3.953594 79.865482 -25.279529
4.81678 78.241478 -27.257248
4.319612 79.130623 -26.331449
4.274644 76.834125 -28.202252
4.81678 78.241478 -27.257248
2.358245 75.743927 -7.316965
2.574431 77.120941 -6.047588
2.392857 77.282272 -7.709377
2.317864 74.160282 -6.875046
2.358245 75.743927 -7.316965
2.136292 74.321613 -8.536836
2.280305 72.586704 -6.446632
2.502258 74.009018 -5.226761
2.317864 74.160282 -6.875046
2.195088 70.995796 -5.952674
2.280305 72.586704 -6.446632
2.010693 71.14706 -7.60096
2.096095 69.428108 -5.468775
2.195088 70.995796 -5.952674
1.747494 67.987469 -6.541391
1.918114 67.859425 -4.903164
2.096095 69.428108 -5.468775
0.956257 64.915786 -8.530111
1.131733 64.881359 -6.924308
1.394037 66.453213 -7.581583
0.797067 64.855789 -10.102669
1.020486 66.469265 -10.763293
0.598992 64.837414 -11.678576
0.956257 64.915786 -8.530111
0.797067 64.855789 -10.102669
-0.21289 65.968354 -19.886408
0.0928 67.790813 -19.022724
-0.098888 67.639454 -20.476814
-0.357449 64.255398 -19.21925
-0.21289 65.968354 -19.886408
-0.268064 67.476921 -21.922446
-0.417914 67.263653 -23.307911
0.607977 72.874695 -26.466533
0.512576 73.316341 -25.216312
0.918921 74.599331 -25.554747
0.607977 72.874695 -26.466533
0.7032 72.404984 -27.639525
3 0 12 10
3 0 14 12
3 0 16 14
3 45 17 46
3 45 46 47
3 1 48 50
3 50 49 18
3 48 49 50
3 1 51 52
3 1 53 55
3 53 19 54
3 53 54 55
3 2 22 20
3 2 24 22
3 2 25 24
3 57 56 26
3 58 28 59
3 3 29 11
3 3 30 29
3 3 32 30
3 5 33 13
3 5 34 33
3 5 36 34
3 7 37 15
3 7 60 62
3 62 61 37
3 60 61 62
3 4 39 31
3 9 40 21
3 9 41 40
3 9 42 41
3 64 63 23
3 6 65 67
3 67 66 35
3 65 66 67
3 8 43 38
3 68 44 69
3 70 69 27
3 68 69 70
3 72 71 44
3 10 73 75
3 73 11 74
3 73 74 75
3 12 11 10
3 12 3 11
3 12 13 3
3 14 13 12
3 14 5 13
3 14 15 5
3 16 15 14
3 16 7 15
3 17 76 77
3 17 78 80
3 78 79 80
3 18 81 82
3 84 83 18
3 19 85 86
3 19 87 88
3 20 21 4
3 22 21 20
3 22 9 21
3 22 23 9
3 24 23 22
3 24 89 91
3 91 90 23
3 89 90 91
3 24 92 93
3 25 94 96
3 96 95 24
3 94 95 96
3 25 97 98
3 100 99 6
3 26 27 8
3 101 27 102
3 103 102 26
3 101 102 103
3 105 104 27
3 28 106 107
3 28 108 110
3 108 109 110
3 11 111 113
3 111 28 112
3 111 112 113
3 29 28 11
3 29 114 116
3 116 115 28
3 114 115 116
3 29 117 119
3 117 18 118
3 117 118 119
3 30 18 29
3 30 1 18
3 30 31 1
3 32 31 30
3 32 4 31
3 13 32 3
3 33 32 13
3 33 4 32
3 33 20 4
3 34 20 33
3 34 2 20
3 34 35 2
3 36 35 34
3 36 6 35
3 15 36 5
3 37 36 15
3 37 6 36
3 37 120 122
3 122 121 6
3 120 121 122
3 124 123 37
3 125 10 126
3 127 10 128
3 129 0 130
3 131 130 10
3 129 130 131
3 132 38 133
3 134 133 0
3 132 133 134
3 135 38 136
3 137 8 138
3 139 138 38
3 137 138 139
3 140 8 141
3 142 26 143
3 144 143 8
3 142 143 144
3 145 26 146
3 148 147 26
3 31 19 1
3 39 19 31
3 39 149 151
3 151 150 19
3 149 150 151
3 21 39 4
3 40 39 21
3 40 152 154
3 154 153 39
3 152 153 154
3 40 155 157
3 155 156 157
3 41 158 160
3 160 159 40
3 158 159 160
3 41 161 162
3 41 163 165
3 163 17 164
3 163 164 165
3 42 17 41
3 42 166 168
3 168 167 17
3 166 167 168
3 23 42 9
3 169 42 170
3 171 170 23
3 169 170 171
3 173 172 42
3 35 25 2
3 174 25 175
3 176 175 35
3 174 175 176
3 178 177 25
3 180 179 6
3 38 16 0
3 43 16 38
3 43 7 16
3 27 43 8
3 44 43 27
3 44 7 43
3 44 181 183
3 183 182 7
3 181 182 183
3 185 184 44
