ply
format ascii 1.0
element vertex 241
property float x
property float y
property float z
element face 235
property list uchar int vertex_index
end_header
-51.108788 -79.834709 8.989416
-48.178932 -89.137756 11.331538
-46.866779 -83.164093 19.715252
-47.384155 -77.660568 27.690174
-46.476921 -87.842224 21.24468
-45.992783 -84.871994 25.703562
-49.334381 -84.417664 10.238631
-49.6991 -87.15918 6.33637
-51.773132 -82.400101 5.384897
-54.535477 -77.813713 4.323772
-47.084053 -93.951767 11.988992
-46.984528 -90.869705 16.664846
-47.616196 -86.164597 15.537721
-48.500832 -81.537582 14.096596
-48.225975 -92.147049 7.05451
-46.545677 -80.252274 23.826097
-47.715607 -78.552383 17.964563
-50.135761 -82.114281 9.62624
-50.464432 -83.453247 7.761547
-51.525616 -81.155685 7.200686
-53.096535 -80.102142 4.870922
-52.742165 -78.878281 6.613472
-46.533714 -93.238617 16.990099
-46.439247 -91.711929 19.425671
-46.652023 -85.496109 20.52387
-46.993065 -87.000671 18.349941
-47.233643 -84.665146 17.629288
-47.990433 -83.84111 14.83821
-47.566711 -82.346519 16.846558
-47.678932 -91.541428 11.739542
-47.657463 -93.084869 9.495378
-48.279331 -90.629501 9.204854
-50.635231 -86.025726 3.964509
-46.298111 -81.1521 26.852566
-46.78532 -78.904083 25.804066
-46.248547 -90.198303 21.828674
-46.013077 -88.696274 24.193996
-46.194977 -86.34584 23.494688
-46.361504 -84.006042 22.677969
-48.699631 -86.759003 10.81653
-48.886787 -88.192307 8.78968
-49.591175 -85.796478 8.2969
-50.634186 -84.746201 5.875464
-51.831417 -83.598648 3.537428
-53.240593 -81.246788 3.086679
-48.292953 -75.554016 26.546623
-47.485504 -76.707275 24.72739
-46.281319 -96.351471 12.033022
-46.49181 -94.782898 14.524769
-47.104401 -92.400742 14.339523
-47.553459 -90.020172 13.960375
-46.760231 -89.351212 18.966503
-47.311565 -88.509003 16.162409
-47.947044 -87.654007 13.440247
-48.388138 -85.312759 12.830118
-48.954239 -83.00032 12.16889
-49.684605 -80.710754 11.478266
-46.895004 -95.53241 9.612835
-48.927711 -89.634216 6.742739
-46.2118 -82.550018 24.796146
-46.603947 -81.682899 21.787189
-47.06654 -77.989929 22.819902
-46.999836 -79.382751 20.852875
-47.201904 -80.848846 18.854807
-48.053104 -80.043404 16.028528
-49.180336 -79.246735 13.329049
-46.157894 -92.134697 20.822529
-46.189411 -92.893394 19.54861
-50.555397 -86.676827 2.997403
-51.171458 -85.409088 2.813211
-47.084738 -78.282325 26.74712
-46.742132 -79.368611 27.309917
-47.04155 -78.746853 28.252972
-45.777529 -89.122772 25.681217
-45.868655 -89.872986 24.458103
-46.09388 -85.608917 24.599125
-45.997647 -86.777137 25.002659
-45.89655 -86.040214 26.107096
-54.670227 -78.375218 3.466606
-53.950756 -79.519432 3.740181
-53.816006 -78.957928 4.597347
-55.480266 -77.215679 3.206788
-54.670227 -78.375218 3.466606
-48.365429 -75.066192 25.093601
-48.872562 -74.542679 25.975645
-46.179636 -95.19429 15.805913
-46.058035 -95.968933 14.499454
-47.846276 -93.405327 7.139801
-47.56202 -93.874237 8.360235
-47.941719 -92.615959 8.274944
-48.115862 -92.927002 5.96582
-47.846276 -93.405327 7.139801
-47.445093 -76.882935 22.307588
-47.276022 -77.348602 23.773646
-47.654575 -76.241608 23.261332
-47.357721 -78.967567 19.408719
-47.302149 -78.247917 20.373435
-47.660034 -77.832733 18.929279
-49.605083 -78.101677 12.933759
-48.952488 -78.499283 14.258392
-49.879505 -78.837559 12.046225
-49.605083 -78.101677 12.933759
-45.843232 -85.306885 27.231256
-45.89655 -86.040214 26.107096
-45.746998 -86.475105 27.63479
-46.236644 -93.656739 18.330824
-46.200588 -94.42215 17.038578
-46.48648 -92.475273 18.207885
-46.236644 -93.656739 18.330824
-46.189411 -92.893394 19.54861
-50.142776 -87.28051 4.158749
-49.674711 -87.847237 5.34468
-50.167165 -86.592453 5.15044
-50.142776 -87.28051 4.158749
-50.555397 -86.676827 2.997403
-46.498527 -80.492619 27.834167
-46.243179 -81.603016 28.376019
-46.541715 -80.028092 26.328316
-46.498527 -80.492619 27.834167
-46.742132 -79.368611 27.309917
-48.077923 -77.414672 17.510008
-47.660034 -77.832733 18.929279
-48.220123 -78.152107 16.576149
-48.077923 -77.414672 17.510008
-45.98639 -90.624 23.275442
-46.062544 -91.377884 22.024031
-46.130812 -89.447288 23.011335
-45.98639 -90.624 23.275442
-45.868655 -89.872986 24.458103
-45.906697 -87.952354 25.352313
-45.777529 -89.122772 25.681217
-46.104027 -87.521057 23.844342
-45.906697 -87.952354 25.352313
-45.997647 -86.777137 25.002659
-51.769551 -84.195549 2.59967
-51.171458 -85.409088 2.813211
-51.233324 -84.812187 3.750968
-52.501703 -82.976036 2.40064
-52.439836 -83.572937 1.462882
-51.769551 -84.195549 2.59967
-53.206291 -81.800106 2.175265
-52.501703 -82.976036 2.40064
-52.536005 -82.422718 3.312054
-54.035536 -80.617081 1.96459
-53.206291 -81.800106 2.175265
-54.022785 -80.091755 2.84806
-53.168564 -80.674465 3.978801
-53.950756 -79.519432 3.740181
-54.035536 -80.617081 1.96459
-54.022785 -80.091755 2.84806
-47.961704 -75.642822 24.183985
-47.889229 -76.130645 25.637006
-48.365429 -75.066192 25.093601
-47.654575 -76.241608 23.261332
-47.961704 -75.642822 24.183985
-45.95279 -96.75322 13.25358
-45.732678 -97.540306 11.937743
-46.386565 -95.567184 13.278896
-45.95279 -96.75322 13.25358
-46.058035 -95.968933 14.499454
-46.512762 -94.010758 15.757434
-46.179636 -95.19429 15.805913
-46.200588 -94.42215 17.038578
-46.343897 -90.955116 20.627173
-46.157894 -92.134697 20.822529
-46.062544 -91.377884 22.024031
-47.418194 -78.131065 29.173271
-47.04155 -78.746853 28.252972
-47.867203 -77.092277 28.574809
-47.418194 -78.131065 29.173271
-48.321601 -76.039002 28.003034
-47.838554 -76.607292 27.118398
-47.867203 -77.092277 28.574809
-48.878116 -75.037941 27.402541
-48.321601 -76.039002 28.003034
-48.872562 -74.542679 25.975645
-48.878116 -75.037941 27.402541
-46.080347 -97.151748 10.776601
-45.732678 -97.540306 11.937743
-46.38719 -96.742218 9.566507
-46.080347 -97.151748 10.776601
-46.588161 -95.941941 10.822928
-46.706813 -96.342087 8.412955
-46.198999 -97.551895 8.366627
-46.38719 -96.742218 9.566507
-47.18079 -95.098007 8.418964
-47.276234 -94.308639 9.554106
-47.56202 -93.874237 8.360235
-46.706813 -96.342087 8.412955
-47.18079 -95.098007 8.418964
-49.289017 -89.084755 5.547865
-49.313406 -88.396698 6.539554
-49.674711 -87.847237 5.34468
-48.869843 -90.371223 5.706964
-49.289017 -89.084755 5.547865
-48.518974 -91.62764 5.862849
-48.576843 -90.890632 6.898625
-48.869843 -90.371223 5.706964
-48.115862 -92.927002 5.96582
-48.518974 -91.62764 5.862849
-45.977063 -84.153954 26.776083
-45.843232 -85.306885 27.231256
-46.129727 -82.294006 27.350585
-46.243179 -81.603016 28.376019
-46.086571 -82.992965 26.322375
-46.129727 -82.294006 27.350585
-46.254955 -81.851059 25.824356
-46.102291 -83.711006 25.249854
-45.977063 -84.153954 26.776083
-46.086571 -82.992965 26.322375
-47.335501 -77.551506 21.356949
-47.445093 -76.882935 22.307588
-47.033188 -78.68634 21.836388
-47.335501 -77.551506 21.356949
-47.302149 -78.247917 20.373435
-48.388872 -78.897617 15.608132
-47.884355 -79.297894 16.996545
-48.220123 -78.152107 16.576149
-48.61672 -79.64507 14.678788
-48.388872 -78.897617 15.608132
-48.952488 -78.499283 14.258392
-50.131639 -79.569569 11.120833
-49.43247 -79.978745 12.403657
-49.879505 -78.837559 12.046225
-50.843731 -79.131546 9.876409
-50.396696 -80.272731 10.233841
-50.131639 -79.569569 11.120833
-51.663067 -78.693676 8.656306
-50.843731 -79.131546 9.876409
-52.479755 -78.215462 7.468333
-51.925477 -79.356495 7.801444
-51.663067 -78.693676 8.656306
-53.393318 -77.730797 6.300205
-52.479755 -78.215462 7.468333
-54.289974 -77.198513 5.155355
-53.638821 -78.345997 5.468622
-53.393318 -77.730797 6.300205
-55.264115 -76.650479 4.02457
-54.289974 -77.198513 5.155355
-55.480266 -77.215679 3.206788
-55.264115 -76.650479 4.02457
3 0 19 17
3 0 21 19
3 66 23 67
3 2 26 24
3 2 28 26
3 1 31 29
3 69 68 32
3 3 70 72
3 70 34 71
3 70 71 72
3 73 36 74
3 5 75 77
3 75 37 76
3 75 76 77
3 5 38 37
3 6 41 39
3 8 42 18
3 8 43 42
3 8 44 43
3 9 78 80
3 80 79 20
3 78 79 80
3 9 81 82
3 84 83 45
3 85 48 86
3 11 49 22
3 11 50 49
3 4 51 35
3 12 52 25
3 12 53 52
3 12 54 53
3 13 55 27
3 13 56 55
3 10 57 47
3 14 87 89
3 89 88 30
3 87 88 89
3 14 90 91
3 7 58 40
3 15 59 33
3 15 60 59
3 92 61 93
3 94 93 46
3 92 93 94
3 16 95 97
3 95 62 96
3 95 96 97
3 16 63 62
3 16 64 63
3 98 65 99
3 101 100 65
3 102 5 103
3 102 103 104
3 17 18 6
3 19 18 17
3 19 8 18
3 19 20 8
3 21 20 19
3 21 9 20
3 105 22 106
3 23 107 109
3 107 22 108
3 107 108 109
3 23 11 22
3 24 25 4
3 26 25 24
3 26 12 25
3 26 27 12
3 28 27 26
3 28 13 27
3 29 30 10
3 31 30 29
3 31 14 30
3 32 110 112
3 112 111 7
3 110 111 112
3 114 113 32
3 115 33 116
3 34 117 119
3 117 33 118
3 117 118 119
3 34 15 33
3 120 16 121
3 123 122 16
3 124 35 125
3 36 126 128
3 126 35 127
3 126 127 128
3 36 4 35
3 129 36 130
3 37 131 133
3 131 36 132
3 131 132 133
3 37 4 36
3 37 24 4
3 38 24 37
3 38 2 24
3 39 40 1
3 41 40 39
3 41 7 40
3 18 41 6
3 42 41 18
3 42 7 41
3 42 32 7
3 43 32 42
3 43 134 136
3 136 135 32
3 134 135 136
3 43 137 139
3 137 138 139
3 44 140 142
3 142 141 43
3 140 141 142
3 44 143 144
3 20 44 8
3 145 44 146
3 147 146 20
3 145 146 147
3 149 148 44
3 45 46 3
3 150 46 151
3 152 151 45
3 150 151 152
3 154 153 46
3 155 47 156
3 48 157 159
3 157 47 158
3 157 158 159
3 48 10 47
3 22 160 162
3 160 48 161
3 160 161 162
3 49 48 22
3 49 10 48
3 49 29 10
3 50 29 49
3 50 1 29
3 35 163 165
3 163 23 164
3 163 164 165
3 51 23 35
3 51 11 23
3 25 51 4
3 52 51 25
3 52 11 51
3 52 50 11
3 53 50 52
3 53 1 50
3 53 39 1
3 54 39 53
3 54 6 39
3 27 54 12
3 55 54 27
3 55 6 54
3 55 17 6
3 56 17 55
3 56 0 17
3 166 3 167
3 168 3 169
3 170 45 171
3 172 171 3
3 170 171 172
3 173 45 174
3 176 175 45
3 47 177 178
3 57 179 181
3 181 180 47
3 179 180 181
3 57 182 184
3 182 183 184
3 30 57 10
3 185 57 186
3 187 186 30
3 185 186 187
3 189 188 57
3 40 31 1
3 58 31 40
3 58 14 31
3 190 58 191
3 192 191 7
3 190 191 192
3 193 58 194
3 195 14 196
3 197 196 58
3 195 196 197
3 199 198 14
3 200 5 201
3 33 202 203
3 59 204 206
3 206 205 33
3 204 205 206
3 59 207 209
3 207 5 208
3 207 208 209
3 59 38 5
3 60 38 59
3 60 2 38
3 46 34 3
3 61 34 46
3 61 15 34
3 210 61 211
3 62 212 214
3 212 61 213
3 212 213 214
3 62 15 61
3 62 60 15
3 63 60 62
3 63 2 60
3 63 28 2
3 64 28 63
3 64 13 28
3 215 64 216
3 217 216 16
3 215 216 217
3 65 218 220
3 218 64 219
3 218 219 220
3 65 13 64
3 65 56 13
3 221 56 222
3 223 222 65
3 221 222 223
3 224 0 225
3 226 225 56
3 224 225 226
3 227 0 228
3 229 21 230
3 231 230 0
3 229 230 231
3 232 21 233
3 234 9 235
3 236 235 21
3 234 235 236
3 237 9 238
3 240 239 9
