ply
format ascii 1.0
element vertex 169
property float x
property float y
property float z
element face 152
property list uchar int vertex_index
end_header
19.689968 -125.673592 -10.244291
10.066988 -126.653198 -1.48901
12.0634 -124.464005 -12.638765
15.296179 -116.884613 -18.845968
10.938772 -126.227127 -7.416
21.661869 -123.569427 -15.095968
14.514046 -127.277916 -6.529997
15.858909 -125.956909 -12.027773
17.478765 -123.266273 -16.374857
13.373617 -121.355095 -16.493017
19.452917 -119.180275 -19.176508
20.641727 -124.783936 -12.811052
14.034872 -127.433884 -3.636147
12.2043 -127.245407 -4.140402
11.489302 -125.512032 -10.166645
13.285423 -126.367973 -9.891291
13.934971 -125.419334 -12.46133
16.63796 -124.785934 -14.3866
14.629263 -124.128891 -14.697346
14.227459 -119.288078 -17.842573
16.270092 -120.51104 -17.998701
17.312569 -118.189262 -19.087183
18.82856 -126.258553 -7.50152
8.377954 -125.699051 -1.685291
10.442335 -126.608574 -4.486588
16.338959 -127.128059 -5.752319
17.008331 -126.745491 -8.580624
12.692511 -126.977081 -7.078756
15.141198 -126.785767 -9.371994
17.793562 -126.043068 -11.295965
18.657953 -125.010452 -13.769768
19.585527 -123.634811 -15.909845
20.580585 -121.907143 -17.666803
10.811666 -121.686455 -14.633444
12.674538 -123.080132 -14.759495
15.392361 -122.492737 -16.546045
18.405418 -121.396454 -17.965075
21.117074 -124.894745 -10.873767
20.59545 -125.272793 -9.558456
20.165847 -125.228764 -11.527672
21.592954 -124.449917 -12.157147
21.117074 -124.894745 -10.873767
11.135644 -126.949303 -2.814706
12.049794 -127.206848 -2.669822
10.981138 -126.910743 -1.344126
14.761819 -118.086345 -18.344271
13.276616 -118.523964 -17.69804
13.810976 -117.322232 -18.199737
16.925338 -116.21296 -19.359201
17.933533 -116.865284 -19.479809
16.304374 -117.536937 -18.966575
18.45752 -126.407299 -6.113354
19.68743 -125.809654 -6.813978
19.316389 -125.958401 -5.425812
8.591943 -125.619808 -3.184781
7.624525 -125.017586 -1.736612
23.245577 -122.631305 -15.556181
22.66064 -123.317516 -14.502946
22.200975 -122.790447 -16.064388
23.245577 -122.631305 -15.556181
12.092641 -121.520775 -15.56323
11.139217 -120.790333 -15.455622
12.420192 -120.624653 -16.385408
20.557275 -119.503769 -19.108642
20.033526 -120.611859 -18.502926
18.929167 -120.288365 -18.570791
21.151324 -118.291569 -19.623695
22.255682 -118.615063 -19.55583
20.557275 -119.503769 -19.108642
22.150568 -123.92477 -13.360488
21.592954 -124.449917 -12.157147
21.151798 -124.176682 -13.95351
22.66064 -123.317516 -14.502946
22.150568 -123.92477 -13.360488
12.96508 -127.301086 -2.417694
13.909762 -127.340088 -2.232239
13.119586 -127.339646 -3.888274
12.96508 -127.301086 -2.417694
12.049794 -127.206848 -2.669822
12.847113 -119.591144 -17.060187
13.276616 -118.523964 -17.69804
13.800538 -120.321586 -17.167795
12.420192 -120.624653 -16.385408
12.847113 -119.591144 -17.060187
18.9822 -117.409526 -19.574915
20.052374 -117.905033 -19.619577
18.382743 -118.684768 -19.131845
18.9822 -117.409526 -19.574915
17.933533 -116.865284 -19.479809
20.164746 -125.565274 -8.18707
19.68743 -125.809654 -6.813978
19.259264 -125.966072 -8.872905
20.59545 -125.272793 -9.558456
20.164746 -125.565274 -8.18707
9.624133 -126.074569 -4.58543
9.410145 -126.153813 -3.08594
8.591943 -125.619808 -3.184781
9.872352 -125.883846 -6.050135
10.690554 -126.417851 -5.951294
9.624133 -126.074569 -4.58543
10.115771 -125.64407 -7.491578
9.872352 -125.883846 -6.050135
10.391036 -125.286522 -8.8669
11.214037 -125.86958 -8.791322
10.115771 -125.64407 -7.491578
10.637137 -124.886723 -10.201993
10.391036 -125.286522 -8.8669
10.924186 -124.362709 -11.438053
11.776351 -124.988019 -11.402705
10.637137 -124.886723 -10.201993
14.374104 -116.08664 -18.67201
13.810976 -117.322232 -18.199737
15.032111 -114.723946 -19.031281
15.954186 -115.521919 -19.205238
14.374104 -116.08664 -18.67201
9.982226 -126.505985 -0.007339
10.981138 -126.910743 -1.344126
9.079923 -126.094635 -0.077277
9.982226 -126.505985 -0.007339
8.235406 -125.617561 -0.175418
9.222471 -126.176125 -1.58715
9.079923 -126.094635 -0.077277
7.435147 -124.994411 -0.223693
8.235406 -125.617561 -0.175418
6.681718 -124.312947 -0.275014
7.624525 -125.017586 -1.736612
7.435147 -124.994411 -0.223693
14.938462 -127.314381 -3.302372
13.909762 -127.340088 -2.232239
16.090505 -127.161468 -4.360458
14.938462 -127.314381 -3.302372
15.186915 -127.280971 -4.694233
17.212719 -126.842052 -5.238753
16.090505 -127.161468 -4.360458
17.583759 -126.693306 -6.626919
18.45752 -126.407299 -6.113354
17.212719 -126.842052 -5.238753
21.162805 -122.823139 -16.471326
22.200975 -122.790447 -16.064388
20.623698 -123.602119 -15.502906
21.660334 -121.959305 -17.349806
21.162805 -122.823139 -16.471326
20.083056 -122.770977 -16.788324
22.229446 -121.003354 -18.132591
21.660334 -121.959305 -17.349806
11.170097 -123.801495 -12.625276
10.924186 -124.362709 -11.438053
9.943943 -120.83802 -14.49924
11.139217 -120.790333 -15.455622
9.707826 -121.590301 -13.530188
9.943943 -120.83802 -14.49924
10.54423 -122.41272 -13.622615
9.44039 -122.316566 -12.519358
9.707826 -121.590301 -13.530188
11.475666 -123.109559 -13.68564
10.54423 -122.41272 -13.622615
11.743102 -122.383294 -14.696469
12.368969 -123.772069 -13.69913
11.170097 -123.801495 -12.625276
11.475666 -123.109559 -13.68564
21.121109 -120.867203 -18.35379
19.493001 -121.651799 -17.815939
20.033526 -120.611859 -18.502926
22.229446 -121.003354 -18.132591
21.121109 -120.867203 -18.35379
21.151324 -118.291569 -19.623695
20.052374 -117.905033 -19.619577
16.925338 -116.21296 -19.359201
15.954186 -115.521919 -19.205238
3 0 37 38
3 0 39 41
3 39 11 40
3 39 40 41
3 1 42 44
3 42 13 43
3 42 43 44
3 2 16 14
3 2 18 16
3 3 45 47
3 45 19 46
3 45 46 47
3 3 21 19
3 3 48 50
3 50 49 21
3 48 49 50
3 51 22 52
3 51 52 53
3 55 54 23
3 5 56 57
3 5 58 59
3 6 25 12
3 6 26 25
3 4 27 24
3 7 28 15
3 7 29 28
3 7 30 29
3 8 31 17
3 8 32 31
3 9 60 62
3 60 33 61
3 60 61 62
3 9 34 33
3 9 35 34
3 10 36 20
3 10 63 65
3 65 64 36
3 63 64 65
3 10 66 68
3 66 67 68
3 11 69 70
3 11 71 73
3 71 5 72
3 71 72 73
3 74 12 75
3 13 76 78
3 76 12 77
3 76 77 78
3 13 6 12
3 14 15 4
3 16 15 14
3 16 7 15
3 16 17 7
3 18 17 16
3 18 8 17
3 19 79 80
3 19 81 83
3 81 9 82
3 81 82 83
3 19 20 9
3 21 20 19
3 21 10 20
3 21 84 86
3 86 85 10
3 84 85 86
3 88 87 21
3 22 89 90
3 22 91 93
3 91 0 92
3 91 92 93
3 23 24 1
3 94 24 95
3 96 95 23
3 94 95 96
3 97 4 98
3 99 98 24
3 97 98 99
3 100 4 101
3 102 14 103
3 104 103 4
3 102 103 104
3 105 14 106
3 107 2 108
3 109 108 14
3 107 108 109
3 110 3 111
3 114 113 3
3 112 113 114
3 115 1 116
3 117 1 118
3 119 23 120
3 121 120 1
3 119 120 121
3 122 23 123
3 126 125 23
3 124 125 126
3 12 127 128
3 25 129 131
3 131 130 12
3 129 130 131
3 25 132 133
3 25 134 136
3 134 22 135
3 134 135 136
3 26 22 25
3 26 0 22
3 24 13 1
3 27 13 24
3 27 6 13
3 15 27 4
3 28 27 15
3 28 6 27
3 28 26 6
3 29 26 28
3 29 0 26
3 29 11 0
3 30 11 29
3 30 5 11
3 17 30 7
3 31 30 17
3 31 5 30
3 31 137 139
3 139 138 5
3 137 138 139
3 32 140 142
3 142 141 31
3 140 141 142
3 32 143 144
3 145 2 146
3 33 147 148
3 33 149 150
3 33 151 153
3 151 152 153
3 34 154 156
3 156 155 33
3 154 155 156
3 34 157 159
3 157 2 158
3 157 158 159
3 34 18 2
3 35 18 34
3 35 8 18
3 20 35 9
3 36 35 20
3 36 8 35
3 36 32 8
3 160 32 161
3 162 161 36
3 160 161 162
3 164 163 32
3 166 165 10
3 168 167 3
