ply
format ascii 1.0
element vertex 232
property float x
property float y
property float z
element face 213
property list uchar int vertex_index
end_header
26.237247 -50.730114 -22.496977
16.179115 -53.338146 -12.451799
19.591356 -52.853291 -17.691515
25.883593 -41.957405 -22.698122
29.584103 -48.53463 -25.458944
17.446957 -53.187786 -15.179287
15.196817 -53.373043 -9.634317
22.677483 -52.117405 -20.03034
19.385601 -48.887589 -13.945679
21.016479 -48.221149 -17.107676
22.994665 -47.138847 -20.127211
25.3927 -45.528236 -23.086138
27.244276 -39.476257 -26.36537
27.981943 -43.291882 -26.234266
24.8776 -54.62587 -20.785112
26.828815 -53.829262 -22.035299
28.6443 -52.802486 -23.450129
27.975592 -49.737286 -23.900537
14.897846 -55.867599 -11.576712
15.240336 -55.904636 -12.867964
16.730812 -53.277546 -13.836147
20.969246 -55.590271 -18.595945
21.035839 -52.552109 -18.869101
20.175472 -48.600384 -15.5403
23.634579 -45.301624 -19.737257
24.510277 -44.491058 -21.389898
24.149979 -46.406712 -21.600355
25.438358 -43.537601 -23.038561
27.42075 -41.188805 -26.420259
29.243509 -41.926376 -27.945158
31.022661 -47.128696 -27.170237
18.391281 -53.054623 -16.465841
14.640989 -55.819256 -10.261021
15.701649 -53.372261 -11.045338
22.887154 -55.204849 -19.657393
24.441334 -51.518257 -21.222101
16.341927 -51.192516 -10.226526
17.039124 -51.1287 -11.723143
17.697672 -51.012829 -13.225504
18.398287 -50.844749 -14.711592
19.211853 -50.617737 -16.160036
20.187937 -50.317505 -17.556826
22.802486 -45.974571 -18.065256
21.94945 -47.738651 -18.635798
21.347637 -49.923382 -18.901976
22.681633 -49.411217 -20.213148
24.152699 -48.756805 -21.52434
25.702587 -47.939072 -22.87945
27.521931 -38.135208 -26.028929
26.556633 -40.78904 -24.520727
26.413668 -42.437431 -24.707029
26.684875 -44.492222 -24.620382
27.262743 -46.942566 -24.321947
28.767801 -45.759407 -25.883509
30.169579 -44.390862 -27.574526
19.411582 -54.33456 -17.618277
18.676414 -54.387497 -17.076586
20.313598 -52.7027 -18.280308
20.133823 -54.18397 -18.20707
19.411582 -54.33456 -17.618277
25.196935 -43.224232 -22.04401
24.860694 -43.733306 -21.13651
25.547352 -42.46648 -21.790623
29.922362 -50.040184 -25.252092
29.45246 -52.174112 -24.247684
29.114202 -50.668558 -24.454536
30.303382 -47.831663 -26.314591
30.641641 -49.337217 -26.107738
29.922362 -50.040184 -25.252092
17.02825 -54.568581 -15.250644
16.614887 -54.561526 -14.650227
17.919119 -53.121205 -15.822564
17.500412 -54.501999 -15.893921
17.02825 -54.568581 -15.250644
14.918903 -54.59615 -9.947669
14.492755 -55.781107 -9.596091
14.770669 -54.558001 -9.282739
17.034939 -50.202604 -10.494597
16.540147 -50.225032 -9.722415
17.383538 -50.170696 -11.242905
16.690525 -51.160608 -10.974835
17.034939 -50.202604 -10.494597
18.988169 -48.988941 -13.145433
19.829234 -48.058255 -13.457765
18.541637 -49.950209 -13.585591
18.144204 -50.051562 -12.785346
18.988169 -48.988941 -13.145433
23.659945 -44.906887 -18.565724
23.287847 -45.260364 -17.656204
27.383103 -38.805732 -26.19715
27.720589 -37.380165 -27.030758
27.581761 -38.050689 -27.198978
30.306805 -42.396523 -28.662318
29.706544 -43.158619 -27.759842
29.84377 -41.16428 -28.847634
30.808939 -43.619595 -28.476744
30.306805 -42.396523 -28.662318
25.094091 -56.309412 -20.549019
24.028529 -56.607867 -19.989618
26.069698 -55.911108 -21.174112
25.094091 -56.309412 -20.549019
25.853207 -54.227566 -21.410206
27.076517 -55.490237 -21.811096
26.069698 -55.911108 -21.174112
27.736557 -53.315874 -22.742714
27.98426 -54.976849 -22.518511
27.076517 -55.490237 -21.811096
14.440613 -57.286955 -11.675311
14.399614 -57.221708 -11.07214
14.611857 -57.305473 -12.320937
14.440613 -57.286955 -11.675311
15.069091 -55.886117 -12.222338
14.75977 -57.373701 -12.90915
14.611857 -57.305473 -12.320937
15.511576 -55.91995 -13.494566
14.75977 -57.373701 -12.90915
16.256814 -54.606406 -13.978658
15.511576 -55.91995 -13.494566
15.985574 -54.591091 -13.352056
17.088884 -53.232666 -14.507717
16.614887 -54.561526 -14.650227
16.256814 -54.606406 -13.978658
14.883525 -53.350649 -8.93355
14.770669 -54.558001 -9.282739
20.100527 -55.703051 -18.070492
20.010965 -57.366938 -17.89624
21.002542 -54.07119 -18.732523
20.100527 -55.703051 -18.070492
20.133823 -54.18397 -18.20707
20.274013 -47.909859 -14.30589
19.829234 -48.058255 -13.457765
20.668948 -47.766256 -15.1032
19.780537 -48.743986 -14.74299
20.274013 -47.909859 -14.30589
21.083014 -47.558186 -15.95581
20.668948 -47.766256 -15.1032
21.503518 -47.368568 -16.739498
20.595976 -48.410766 -16.323988
21.083014 -47.558186 -15.95581
24.422845 -44.138589 -20.31019
24.075992 -44.570414 -19.401724
24.072428 -44.896341 -20.563578
24.422845 -44.138589 -20.31019
24.860694 -43.733306 -21.13651
27.599379 -38.751092 -27.305324
27.581761 -38.050689 -27.198978
27.687615 -39.607366 -27.332769
27.332513 -40.332531 -26.392815
27.599379 -38.751092 -27.305324
27.930428 -40.490841 -27.308323
27.687615 -39.607366 -27.332769
28.211024 -41.542379 -27.215326
27.701346 -42.240344 -26.327263
27.930428 -40.490841 -27.308323
28.841807 -40.859626 -28.070772
28.612726 -42.609129 -27.089712
28.211024 -41.542379 -27.215326
29.3497 -40.090618 -28.992569
28.841807 -40.859626 -28.070772
29.84377 -41.16428 -28.847634
29.3497 -40.090618 -28.992569
28.88827 -54.429865 -23.250273
27.98426 -54.976849 -22.518511
28.88827 -54.429865 -23.250273
29.45246 -52.174112 -24.247684
31.341344 -48.600557 -26.986424
30.641641 -49.337217 -26.107738
31.657332 -46.333307 -28.08585
31.341344 -48.600557 -26.986424
18.076377 -54.488163 -16.463749
17.500412 -54.501999 -15.893921
18.991318 -52.953957 -17.078678
18.676414 -54.387497 -17.076586
18.076377 -54.488163 -16.463749
26.269364 -41.338482 -22.389372
25.547352 -42.46648 -21.790623
14.265663 -57.127459 -9.798409
14.492755 -55.781107 -9.596091
14.271185 -57.197536 -10.414295
14.265663 -57.127459 -9.798409
14.769417 -55.843428 -10.918867
14.399614 -57.221708 -11.07214
14.271185 -57.197536 -10.414295
21.00966 -57.276394 -18.385681
20.010965 -57.366938 -17.89624
21.968614 -57.083683 -18.916405
21.00966 -57.276394 -18.385681
21.9282 -55.39756 -19.126669
23.033305 -56.897356 -19.425759
21.968614 -57.083683 -18.916405
23.882377 -54.91536 -20.221252
24.028529 -56.607867 -19.989618
23.033305 -56.897356 -19.425759
15.363408 -52.286938 -9.194062
14.883525 -53.350649 -8.93355
15.935963 -51.196674 -9.490167
16.540147 -50.225032 -9.722415
15.769372 -52.28278 -9.930421
15.363408 -52.286938 -9.194062
15.935963 -51.196674 -9.490167
17.81493 -50.109497 -12.034166
17.383538 -50.170696 -11.242905
17.368398 -51.070765 -12.474324
17.81493 -50.109497 -12.034166
18.144204 -50.051562 -12.785346
22.396521 -46.245279 -17.218288
23.287847 -45.260364 -17.656204
21.909482 -47.09786 -17.586466
21.503518 -47.368568 -16.739498
22.396521 -46.245279 -17.218288
23.218532 -45.638098 -18.901257
23.659945 -44.906887 -18.565724
24.075992 -44.570414 -19.401724
26.497664 -40.731093 -23.372261
26.269364 -41.338482 -22.389372
27.937841 -36.839664 -26.784235
27.720589 -37.380165 -27.030758
27.859238 -37.615071 -25.724108
27.937841 -36.839664 -26.784235
27.316834 -38.819994 -25.037664
27.859238 -37.615071 -25.724108
26.834184 -40.14691 -24.283563
27.316834 -38.819994 -25.037664
27.039282 -39.462124 -25.274828
26.220113 -41.373222 -23.609425
26.497664 -40.731093 -23.372261
26.834184 -40.14691 -24.283563
31.23548 -44.988512 -28.2746
30.59612 -45.759779 -27.372381
30.808939 -43.619595 -28.476744
31.657332 -46.333307 -28.08585
31.23548 -44.988512 -28.2746
3 0 15 14
3 0 17 15
3 1 19 18
3 1 20 19
3 2 55 56
3 2 57 59
3 57 22 58
3 57 58 59
3 3 60 62
3 60 25 61
3 60 61 62
3 3 27 25
3 4 63 65
3 65 64 16
3 63 64 65
3 4 66 68
3 66 30 67
3 66 67 68
3 5 69 70
3 5 71 73
3 71 31 72
3 71 72 73
3 6 74 76
3 74 32 75
3 74 75 76
3 6 33 32
3 7 34 21
3 7 35 34
3 77 36 78
3 79 37 80
3 81 80 36
3 79 80 81
3 8 82 83
3 8 84 86
3 84 38 85
3 84 85 86
3 8 39 38
3 9 40 23
3 9 41 40
3 87 42 88
3 10 43 24
3 10 44 43
3 10 45 44
3 11 46 26
3 11 47 46
3 12 89 91
3 89 48 90
3 89 90 91
3 12 49 48
3 12 50 49
3 13 51 28
3 13 52 51
3 13 53 52
3 92 54 93
3 94 93 29
3 92 93 94
3 96 95 54
3 14 97 98
3 15 99 101
3 101 100 14
3 99 100 101
3 15 102 103
3 15 104 106
3 104 16 105
3 104 105 106
3 17 16 15
3 17 4 16
3 18 107 108
3 19 109 111
3 111 110 18
3 109 110 111
3 19 112 113
3 19 114 115
3 20 116 118
3 118 117 19
3 116 117 118
3 20 119 121
3 119 5 120
3 119 120 121
3 122 6 123
3 124 21 125
3 22 126 128
3 126 21 127
3 126 127 128
3 22 7 21
3 129 8 130
3 131 23 132
3 133 132 8
3 131 132 133
3 134 23 135
3 136 9 137
3 138 137 23
3 136 137 138
3 139 24 140
3 25 141 143
3 141 24 142
3 141 142 143
3 25 10 24
3 25 26 10
3 27 26 25
3 27 11 26
3 144 12 145
3 146 28 147
3 148 147 12
3 146 147 148
3 149 28 150
3 151 13 152
3 153 152 28
3 151 152 153
3 154 29 155
3 156 155 13
3 154 155 156
3 157 29 158
3 160 159 29
3 16 161 162
3 164 163 16
3 30 165 166
3 30 167 168
3 31 169 170
3 31 171 173
3 171 2 172
3 171 172 173
3 174 3 175
3 32 176 177
3 32 178 179
3 32 180 182
3 180 18 181
3 180 181 182
3 33 18 32
3 33 1 18
3 21 183 184
3 34 185 187
3 187 186 21
3 185 186 187
3 34 188 189
3 34 190 192
3 190 14 191
3 190 191 192
3 35 14 34
3 35 0 14
3 193 6 194
3 36 195 196
3 36 197 199
3 197 6 198
3 197 198 199
3 36 33 6
3 37 33 36
3 37 1 33
3 200 37 201
3 38 202 204
3 202 37 203
3 202 203 204
3 38 1 37
3 38 20 1
3 39 20 38
3 39 5 20
3 23 39 8
3 40 39 23
3 40 5 39
3 40 31 5
3 41 31 40
3 41 2 31
3 42 205 206
3 42 207 209
3 207 9 208
3 207 208 209
3 24 210 212
3 210 42 211
3 210 211 212
3 43 42 24
3 43 9 42
3 43 41 9
3 44 41 43
3 44 2 41
3 44 22 2
3 45 22 44
3 45 7 22
3 26 45 10
3 46 45 26
3 46 7 45
3 46 35 7
3 47 35 46
3 47 0 35
3 213 3 214
3 48 215 216
3 48 217 218
3 48 219 220
3 49 221 223
3 223 222 48
3 221 222 223
3 49 224 226
3 224 3 225
3 224 225 226
3 49 27 3
3 50 27 49
3 50 11 27
3 28 50 12
3 51 50 28
3 51 11 50
3 51 47 11
3 52 47 51
3 52 0 47
3 52 17 0
3 53 17 52
3 53 4 17
3 29 53 13
3 54 53 29
3 54 4 53
3 54 30 4
3 227 30 228
3 229 228 54
3 227 228 229
3 231 230 30
