ply
format ascii 1.0
element vertex 208
property float x
property float y
property float z
element face 204
property list uchar int vertex_index
end_header
46.587601 64.070152 -11.347015
47.220535 54.726784 -13.422504
41.794807 62.963242 -18.702749
41.055084 51.244164 -19.044291
42.484344 69.252289 -13.130596
39.980633 68.870346 -17.06378
44.71077 64.217583 -15.493031
44.364254 53.565018 -16.51309
41.613773 48.615288 -15.16765
47.92038 59.370064 -13.140818
33.953346 72.959206 -18.428919
36.409904 66.929779 -20.031752
37.972618 60.311935 -21.071066
45.483276 58.799431 -16.684042
42.227085 56.903214 -19.389647
44.680553 66.71032 -12.304174
43.739349 66.826241 -14.438482
45.773697 64.303749 -13.523983
43.049595 49.595665 -13.746052
41.03437 65.985764 -17.993704
38.313961 68.096893 -18.658953
39.283657 64.992149 -19.403395
37.319633 63.63855 -20.617296
39.974327 61.795662 -19.966043
47.848846 57.020851 -13.480118
46.806335 59.250786 -15.017939
46.592804 56.74295 -15.220121
42.758698 52.531967 -17.833628
43.572968 55.216896 -18.132196
41.834946 54.010468 -19.344133
40.34824 55.519539 -20.505377
39.984276 52.564911 -20.45669
39.991467 71.638611 -13.880539
38.687298 71.514198 -15.929674
41.37339 69.24659 -15.218395
42.526276 66.595421 -16.342276
43.383354 63.77552 -17.221487
45.853981 54.303963 -15.047789
44.635525 51.934845 -14.533268
43.139183 51.073418 -15.955599
41.578556 49.939369 -17.274729
39.967213 48.575226 -18.521833
40.163994 47.380447 -16.524488
47.472328 61.739021 -12.417162
45.373108 66.295563 -9.982391
31.992044 71.897446 -20.015638
37.108006 70.999115 -17.735979
35.278362 70.073387 -19.307768
33.250103 68.747559 -20.686472
34.329384 65.401077 -21.241358
46.512215 61.791801 -14.4433
45.316364 61.514122 -16.252768
43.877098 60.884232 -17.826136
45.16571 56.138367 -16.768686
43.950439 58.010071 -18.133043
42.207336 59.906502 -19.173231
40.341255 58.611259 -20.337831
38.330296 57.0467 -21.386751
40.168319 50.495942 -19.617871
39.632915 51.156315 -20.32407
40.51968 51.904538 -19.75049
44.552592 51.109867 -13.388856
45.348644 52.2137 -13.76166
45.265711 51.388722 -12.617247
44.655461 67.322052 -9.180675
44.351239 67.615071 -10.40848
32.26283 73.853272 -18.810472
33.207146 74.228676 -17.901512
32.972695 72.428326 -19.222279
31.282179 73.322392 -19.603832
32.26283 73.853272 -18.810472
36.59032 61.141941 -21.389384
36.263828 62.805249 -21.162498
37.646125 61.975243 -20.844181
36.91394 59.439087 -21.5835
36.59032 61.141941 -21.389384
38.346201 55.478234 -21.46652
39.339268 56.283119 -20.946064
39.355173 54.714653 -21.025833
37.283049 56.156746 -21.891089
38.346201 55.478234 -21.46652
39.147074 47.799542 -19.127699
39.337553 47.254418 -18.181185
42.826614 48.815906 -12.515245
43.759626 49.940277 -12.995248
42.157512 48.403824 -13.267558
42.826614 48.815906 -12.515245
41.439602 47.913635 -13.978357
42.331684 49.105476 -14.456851
42.157512 48.403824 -13.267558
40.788431 47.361927 -14.709646
41.439602 47.913635 -13.978357
34.828577 73.279335 -17.530962
33.207146 74.228676 -17.901512
39.173191 53.237339 -21.001489
39.355173 54.714653 -21.025833
40.166258 54.042225 -20.481033
39.023865 51.746456 -20.992344
39.173191 53.237339 -21.001489
39.023865 51.746456 -20.992344
39.632915 51.156315 -20.32407
39.339382 71.576404 -14.905107
37.945305 72.673596 -15.267653
38.597389 72.735802 -14.243086
45.957872 53.398258 -14.01892
46.537258 54.515374 -14.235146
46.641149 53.609669 -13.206277
45.244753 53.119404 -14.790529
45.957872 53.398258 -14.01892
45.348644 52.2137 -13.76166
43.84256 50.765255 -14.13966
44.552592 51.109867 -13.388856
43.759626 49.940277 -12.995248
39.435944 46.657028 -17.182512
39.337553 47.254418 -18.181185
40.065604 47.977836 -17.523161
40.063541 46.744506 -15.388065
40.888884 47.997867 -15.846069
40.788431 47.361927 -14.709646
39.428154 46.072904 -16.103251
40.063541 46.744506 -15.388065
39.435944 46.657028 -17.182512
39.428154 46.072904 -16.103251
47.843441 61.56718 -11.315262
47.029964 62.904586 -11.882089
47.401077 62.732746 -10.780189
48.15424 60.46217 -11.748797
47.843441 61.56718 -11.315262
48.378265 59.277691 -12.110625
47.696354 60.554542 -12.77899
48.15424 60.46217 -11.748797
48.429856 58.178581 -12.352843
48.378265 59.277691 -12.110625
48.394089 57.003975 -12.522493
47.884613 58.195458 -13.310468
48.429856 58.178581 -12.352843
48.156796 55.927746 -12.561633
48.394089 57.003975 -12.522493
47.84264 54.780712 -12.532826
47.53469 55.873818 -13.451311
48.156796 55.927746 -12.561633
47.31892 53.731099 -12.373742
47.84264 54.780712 -12.532826
46.641149 53.609669 -13.206277
47.31892 53.731099 -12.373742
39.215752 72.670895 -13.118328
38.597389 72.735802 -14.243086
40.507821 71.528511 -12.745895
39.215752 72.670895 -13.118328
39.732106 72.560795 -11.983684
41.754259 70.33535 -12.370924
41.237905 70.44545 -13.505568
40.507821 71.528511 -12.745895
42.906857 69.093434 -11.982582
41.754259 70.33535 -12.370924
44.004961 67.822449 -11.569371
43.582448 67.981304 -12.717385
42.906857 69.093434 -11.982582
45.026831 66.502941 -11.143282
44.004961 67.822449 -11.569371
44.351239 67.615071 -10.40848
45.610565 65.964962 -8.752947
44.655461 67.322052 -9.180675
46.275364 64.930256 -9.495756
45.610565 65.964962 -8.752947
46.512821 64.599655 -8.266312
46.88261 63.81755 -10.178068
45.980355 65.182857 -10.664703
46.275364 64.930256 -9.495756
47.401077 62.732746 -10.780189
46.88261 63.81755 -10.178068
30.258457 72.731331 -20.423448
31.282179 73.322392 -19.603832
30.93804 71.164288 -20.729745
30.258457 72.731331 -20.423448
37.195553 72.556831 -16.28134
37.945305 72.673596 -15.267653
36.405907 72.29929 -17.184492
37.195553 72.556831 -16.28134
37.897652 71.256656 -16.832826
35.530676 71.979161 -18.082449
34.828577 73.279335 -17.530962
36.405907 72.29929 -17.184492
31.56707 69.589344 -21.065162
30.93804 71.164288 -20.729745
32.621074 70.322502 -20.351055
32.172892 67.904022 -21.313052
31.56707 69.589344 -21.065162
32.712532 66.230782 -21.590494
32.172892 67.904022 -21.313052
33.789744 67.074318 -20.963915
33.238977 64.482406 -21.804129
32.712532 66.230782 -21.590494
34.768704 63.686512 -21.47453
35.824509 64.519813 -20.929327
36.263828 62.805249 -21.162498
33.238977 64.482406 -21.804129
34.768704 63.686512 -21.47453
37.092779 57.806469 -21.741343
36.91394 59.439087 -21.5835
38.151457 58.679317 -21.228908
37.092779 57.806469 -21.741343
37.283049 56.156746 -21.891089
39.624384 49.161473 -19.356642
40.168319 50.495942 -19.617871
40.511149 49.909695 -18.783062
39.624384 49.161473 -19.356642
39.147074 47.799542 -19.127699
3 0 17 15
3 2 21 19
3 2 23 21
3 1 26 24
3 3 29 27
3 3 31 29
3 3 58 60
3 60 59 31
3 58 59 60
3 4 34 32
3 6 35 16
3 6 36 35
3 61 38 62
3 61 62 63
3 8 39 18
3 8 40 39
3 8 42 40
3 64 44 65
3 10 66 67
3 10 68 70
3 68 45 69
3 68 69 70
3 5 46 33
3 11 47 20
3 11 48 47
3 11 49 48
3 12 71 73
3 73 72 22
3 71 72 73
3 12 74 75
3 9 50 43
3 13 51 25
3 13 52 51
3 7 53 37
3 14 54 28
3 14 55 54
3 14 56 55
3 76 57 77
3 78 77 30
3 76 77 78
3 80 79 57
3 82 81 41
3 15 16 4
3 17 16 15
3 17 6 16
3 83 18 84
3 85 18 86
3 87 8 88
3 89 88 18
3 87 88 89
3 91 90 8
3 92 10 93
3 19 20 5
3 21 20 19
3 21 11 20
3 21 22 11
3 23 22 21
3 23 12 22
3 24 25 9
3 26 25 24
3 26 13 25
3 27 28 7
3 29 28 27
3 29 14 28
3 29 30 14
3 31 30 29
3 31 94 96
3 96 95 30
3 94 95 96
3 31 97 98
3 100 99 31
3 32 101 103
3 101 33 102
3 101 102 103
3 34 33 32
3 34 5 33
3 16 34 4
3 35 34 16
3 35 5 34
3 35 19 5
3 36 19 35
3 36 2 19
3 104 37 105
3 106 105 1
3 104 105 106
3 38 107 109
3 107 37 108
3 107 108 109
3 38 7 37
3 18 110 112
3 110 38 111
3 110 111 112
3 39 38 18
3 39 7 38
3 39 27 7
3 40 27 39
3 40 3 27
3 40 41 3
3 42 41 40
3 42 113 115
3 115 114 41
3 113 114 115
3 116 42 117
3 118 117 8
3 116 117 118
3 119 42 120
3 122 121 42
3 123 43 124
3 125 124 0
3 123 124 125
3 126 43 127
3 128 9 129
3 130 129 43
3 128 129 130
3 131 9 132
3 133 24 134
3 135 134 9
3 133 134 135
3 136 24 137
3 138 1 139
3 140 139 24
3 138 139 140
3 141 1 142
3 144 143 1
3 145 32 146
3 147 32 148
3 147 148 149
3 150 4 151
3 152 151 32
3 150 151 152
3 153 4 154
3 155 15 156
3 157 156 4
3 155 156 157
3 44 158 160
3 158 15 159
3 158 159 160
3 44 0 15
3 161 44 162
3 163 44 164
3 163 164 165
3 166 0 167
3 168 167 44
3 166 167 168
3 170 169 0
3 45 171 172
3 45 173 174
3 33 175 176
3 46 177 179
3 179 178 33
3 177 178 179
3 46 180 182
3 180 10 181
3 180 181 182
3 20 46 5
3 47 46 20
3 47 10 46
3 47 45 10
3 48 45 47
3 48 183 185
3 185 184 45
3 183 184 185
3 48 186 187
3 49 188 190
3 190 189 48
3 188 189 190
3 49 191 192
3 22 49 11
3 193 49 194
3 195 194 22
3 193 194 195
3 197 196 49
3 43 17 0
3 50 17 43
3 50 6 17
3 25 50 9
3 51 50 25
3 51 6 50
3 51 36 6
3 52 36 51
3 52 2 36
3 37 26 1
3 53 26 37
3 53 13 26
3 28 53 7
3 54 53 28
3 54 13 53
3 54 52 13
3 55 52 54
3 55 2 52
3 55 23 2
3 56 23 55
3 56 12 23
3 30 56 14
3 57 56 30
3 57 12 56
3 57 198 200
3 200 199 12
3 198 199 200
3 202 201 57
3 41 203 205
3 205 204 3
3 203 204 205
3 207 206 41
