ply
format ascii 1.0
element vertex 208
property float x
property float y
property float z
element face 202
property list uchar int vertex_index
end_header
25.445385 7.587471 64.112534
42.060555 9.645266 60.409027
28.84304 19.897362 61.44178
37.016335 20.778332 61.015808
33.732109 8.571697 62.718834
24.887285 19.6078 61.949722
27.018826 13.636684 62.546623
31.167946 14.071674 62.299515
29.411558 7.938459 63.082924
39.393333 14.976948 60.995399
33.037827 20.406841 61.547142
35.433556 14.630371 62.115471
38.061451 9.240513 62.049919
24.342346 10.507118 63.981026
25.107082 13.534687 63.053246
26.17923 10.576418 63.218811
28.159586 10.731396 62.79921
27.364857 7.719124 63.455902
40.687252 12.235186 60.729874
41.142475 14.971249 59.93045
42.462978 12.246794 59.563087
26.810537 19.710415 61.542854
25.673599 22.68066 60.999557
27.660173 22.830963 60.775276
29.726255 23.05685 60.789062
31.818924 23.319065 60.876976
30.937237 20.143356 61.499069
32.400505 11.256781 62.530914
33.312431 14.355206 62.272522
34.569374 11.57016 62.40609
36.704651 11.864759 62.117981
35.918209 8.921202 62.475563
24.099789 16.549919 62.909103
25.944059 16.606846 62.271255
27.923649 16.749847 61.992554
29.997993 16.967148 61.95034
29.053495 13.821472 62.340187
30.247894 10.965687 62.615204
31.548195 8.231886 62.880241
38.181889 17.840572 61.120491
39.921906 17.831512 60.182976
23.80905 22.624779 61.58931
24.487226 25.658752 60.399529
33.878502 23.564423 60.8685
35.084728 20.636425 61.42765
32.117325 17.229465 61.989311
34.226311 17.494793 61.949562
36.266846 17.714577 61.692757
37.477238 14.851864 61.714027
38.75795 12.09877 61.576454
40.120163 9.492043 61.373039
28.698774 5.013664 63.830154
30.801939 5.30711 63.467056
32.972836 5.665373 63.210632
35.170864 6.05575 62.944351
37.354927 6.440212 62.564438
24.893866 9.047294 64.04678
24.011343 9.023332 64.555237
24.562863 7.563508 64.620991
37.330322 22.275211 60.514534
36.428884 22.256203 60.815621
23.724964 15.032415 63.430419
23.258131 16.560434 63.441139
22.883306 15.042931 63.962455
41.298067 16.315109 59.403472
41.922838 14.89259 59.22905
24.348167 21.11629 61.769516
23.458755 21.109468 62.175815
23.997873 19.600979 62.356021
25.454389 25.708004 60.194679
25.080413 24.169706 60.699543
26.047576 24.218958 60.494693
24.802431 27.172531 59.772476
25.454389 25.708004 60.194679
28.412706 3.613106 64.385292
27.699908 4.91001 64.121059
31.563514 4.090516 63.73798
30.494616 3.905505 63.933361
32.648962 4.269647 63.609768
31.887388 5.486242 63.338844
31.563514 4.090516 63.73798
35.927145 4.891191 63.103153
34.836922 4.674722 63.303826
37.019177 5.083423 62.913196
36.262895 6.247981 62.754395
35.927145 4.891191 63.103153
23.506515 10.509421 64.562382
24.011343 9.023332 64.555237
23.846243 12.011015 63.966381
23.506515 10.509421 64.562382
24.724714 12.020903 63.517136
24.228611 13.5248 63.502491
23.846243 12.011015 63.966381
42.583089 13.530362 59.045368
41.922838 14.89259 59.22905
41.802726 13.609022 59.746769
27.040863 24.29411 60.382553
26.047576 24.218958 60.494693
26.666886 22.755812 60.887417
28.056309 24.389698 60.333145
27.040863 24.29411 60.382553
29.08935 24.502642 60.340038
28.056309 24.389698 60.333145
28.693214 22.943907 60.782169
30.129172 24.627727 60.372257
29.08935 24.502642 60.340038
30.772589 23.187957 60.833019
31.175506 24.758835 60.416214
30.129172 24.627727 60.372257
23.604125 18.072038 62.835712
23.258131 16.560434 63.441139
24.493537 18.07886 62.429412
23.997873 19.600979 62.356021
23.604125 18.072038 62.835712
24.603435 15.042303 62.981175
23.724964 15.032415 63.430419
24.228611 13.5248 63.502491
38.478234 19.312292 60.677921
37.895456 20.781172 60.62558
37.599112 19.309452 61.06815
39.348242 19.307762 60.209164
38.478234 19.312292 60.677921
39.051897 17.836042 60.651733
40.117743 19.224477 59.622829
39.348242 19.307762 60.209164
40.687782 17.745241 59.529736
40.53219 16.401381 60.056713
41.298067 16.315109 59.403472
40.117743 19.224477 59.622829
40.687782 17.745241 59.529736
25.142614 6.138789 64.706486
24.562863 7.563508 64.620991
24.260091 6.114826 65.214943
26.073214 6.196913 64.262249
25.142614 6.138789 64.706486
43.660049 8.447396 59.617542
42.961012 9.663032 59.779792
42.759592 8.429631 60.246776
22.95104 22.641489 62.100655
23.458755 21.109468 62.175815
23.246356 24.143249 61.402862
22.95104 22.641489 62.100655
23.585444 25.660236 60.807972
23.246356 24.143249 61.402862
24.148138 24.141765 60.994419
23.864436 27.159464 60.095039
22.962654 27.160947 60.503483
23.585444 25.660236 60.807972
23.864436 27.159464 60.095039
24.802431 27.172531 59.772476
32.211312 24.887125 60.444248
31.175506 24.758835 60.416214
33.241101 25.009804 60.44001
32.211312 24.887125 60.444248
32.848713 23.441744 60.872738
34.241558 25.109969 60.381493
33.241101 25.009804 60.44001
34.859968 23.649248 60.741967
34.241558 25.109969 60.381493
35.463081 22.185249 61.021541
34.859968 23.649248 60.741967
34.481615 22.100424 61.148075
36.050531 20.707378 61.221729
36.428884 22.256203 60.815621
35.463081 22.185249 61.021541
27.03295 6.26274 63.933933
26.405121 7.653297 63.784218
26.073214 6.196913 64.262249
28.031816 6.366394 63.643028
27.03295 6.26274 63.933933
27.699908 4.91001 64.121059
29.443034 3.758782 64.11491
28.412706 3.613106 64.385292
29.750357 5.160387 63.648605
29.443034 3.758782 64.11491
30.494616 3.905505 63.933361
33.737908 4.479534 63.436966
32.648962 4.269647 63.609768
34.07185 5.860561 63.077491
33.737908 4.479534 63.436966
34.836922 4.674722 63.303826
38.092682 5.287653 62.642453
37.019177 5.083423 62.913196
38.420346 6.610741 62.277794
38.092682 5.287653 62.642453
38.773607 8.010891 62.020534
37.708189 7.840362 62.307179
38.420346 6.610741 62.277794
39.802964 8.136656 61.682094
39.090807 9.366278 61.711479
38.773607 8.010891 62.020534
40.82456 8.269442 61.272953
39.802964 8.136656 61.682094
40.507361 6.914055 61.582009
41.794756 8.346054 60.790947
41.090359 9.568655 60.891033
40.82456 8.269442 61.272953
42.759592 8.429631 60.246776
41.794756 8.346054 60.790947
37.330322 22.275211 60.514534
37.895456 20.781172 60.62558
43.162223 10.963796 59.356822
42.261767 10.94603 59.986057
42.961012 9.663032 59.779792
43.26811 12.183715 58.826465
43.162223 10.963796 59.356822
42.583089 13.530362 59.045368
43.26811 12.183715 58.826465
3 0 56 58
3 56 13 57
3 56 57 58
3 0 15 13
3 0 17 15
3 1 20 18
3 2 23 21
3 2 24 23
3 2 26 24
3 4 29 27
3 4 31 29
3 3 59 60
3 61 32 62
3 61 62 63
3 6 33 14
3 6 34 33
3 6 36 34
3 8 37 16
3 8 38 37
3 9 40 39
3 65 64 19
3 5 66 68
3 66 41 67
3 66 67 68
3 69 42 70
3 71 70 22
3 69 70 71
3 73 72 42
3 10 43 25
3 10 44 43
3 7 45 35
3 11 46 28
3 11 47 46
3 11 48 47
3 12 49 30
3 12 50 49
3 74 51 75
3 76 52 77
3 78 53 79
3 80 79 52
3 78 79 80
3 81 54 82
3 83 55 84
3 85 84 54
3 83 84 85
3 13 86 87
3 13 88 89
3 13 90 92
3 90 14 91
3 90 91 92
3 15 14 13
3 15 6 14
3 15 16 6
3 17 16 15
3 17 8 16
3 18 19 9
3 20 19 18
3 20 93 95
3 95 94 19
3 93 94 95
3 21 22 5
3 23 22 21
3 23 96 98
3 98 97 22
3 96 97 98
3 23 99 100
3 24 101 103
3 103 102 23
3 101 102 103
3 24 104 105
3 24 106 108
3 106 25 107
3 106 107 108
3 26 25 24
3 26 10 25
3 27 28 7
3 29 28 27
3 29 11 28
3 29 30 11
3 31 30 29
3 31 12 30
3 32 109 110
3 32 111 113
3 111 5 112
3 111 112 113
3 14 114 116
3 114 32 115
3 114 115 116
3 33 32 14
3 33 5 32
3 33 21 5
3 34 21 33
3 34 2 21
3 34 35 2
3 36 35 34
3 36 7 35
3 16 36 6
3 37 36 16
3 37 7 36
3 37 27 7
3 38 27 37
3 38 4 27
3 39 117 119
3 119 118 3
3 117 118 119
3 40 120 122
3 122 121 39
3 120 121 122
3 40 123 124
3 19 40 9
3 125 40 126
3 127 126 19
3 125 126 127
3 129 128 40
3 130 0 131
3 130 131 132
3 134 133 0
3 137 136 1
3 135 136 137
3 41 138 139
3 41 140 141
3 22 41 5
3 42 41 22
3 42 142 144
3 144 143 41
3 142 143 144
3 42 145 147
3 145 146 147
3 149 148 42
3 25 150 151
3 43 152 154
3 154 153 25
3 152 153 154
3 43 155 156
3 43 157 158
3 44 159 161
3 161 160 43
3 159 160 161
3 44 162 164
3 162 3 163
3 162 163 164
3 35 26 2
3 45 26 35
3 45 10 26
3 28 45 7
3 46 45 28
3 46 10 45
3 46 44 10
3 47 44 46
3 47 3 44
3 47 39 3
3 48 39 47
3 48 9 39
3 30 48 11
3 49 48 30
3 49 9 48
3 49 18 9
3 50 18 49
3 50 1 18
3 165 17 166
3 167 166 0
3 165 166 167
3 51 168 170
3 168 17 169
3 168 169 170
3 51 8 17
3 171 51 172
3 52 173 175
3 173 51 174
3 173 174 175
3 52 8 51
3 52 38 8
3 53 38 52
3 53 4 38
3 176 53 177
3 54 178 180
3 178 53 179
3 178 179 180
3 54 4 53
3 54 31 4
3 55 31 54
3 55 12 31
3 181 55 182
3 183 55 184
3 185 12 186
3 187 186 55
3 185 186 187
3 188 50 189
3 190 189 12
3 188 189 190
3 191 50 192
3 191 192 193
3 194 1 195
3 196 195 50
3 194 195 196
3 198 197 1
3 200 199 3
3 201 20 202
3 203 202 1
3 201 202 203
3 204 20 205
3 207 206 20
