ply
format ascii 1.0
element vertex 234
property float x
property float y
property float z
element face 223
property list uchar int vertex_index
end_header
1.210854 64.257591 35.340961
2.384222 51.405785 35.716843
0.762917 63.298347 48.56794
2.691233 60.673286 23.156269
1.808317 57.815788 35.454044
2.54048 56.449348 29.637058
2.183002 62.874031 28.887966
2.62731 45.397018 36.231544
2.218548 45.553452 41.219334
1.497065 51.841637 41.571232
0.800081 58.319107 41.929703
0.220629 57.77726 48.597351
0.554888 64.498886 42.085846
2.507483 50.139954 30.824898
2.30562 54.325829 24.79949
2.093412 57.816711 18.423006
2.298969 42.179382 34.976437
1.486536 61.056374 35.39299
1.989946 60.461494 32.217461
1.703568 63.686378 32.047852
0.981354 51.769493 44.740242
1.119467 55.084488 41.757301
0.644287 55.007339 45.036255
0.363167 60.673836 48.685623
0.366138 61.245445 45.410606
0.528986 64.091179 45.397667
2.56027 48.323059 35.94429
2.584917 47.832626 33.626678
2.577557 50.884789 33.132088
2.616333 58.664848 26.435268
2.573288 55.480705 27.082943
2.563524 57.501419 23.903858
2.199242 56.166115 21.643198
2.551949 59.326485 20.654377
1.453241 65.569328 48.206039
2.122238 54.584854 35.555584
2.463554 54.028786 32.738937
2.257896 57.230965 32.43927
2.399332 59.656036 29.217279
2.544468 61.860199 25.910717
2.577297 42.734825 36.5564
2.521286 45.57756 38.581291
2.301838 48.581322 38.548622
1.880636 48.646484 41.391006
1.994972 51.721024 38.545586
1.642189 54.939362 38.57819
1.290098 58.186142 38.635605
0.990707 61.408211 38.692047
0.421743 58.190231 45.273865
0.5931 61.481972 42.054192
0.801617 64.542786 38.709137
2.485762 44.916103 34.230209
2.330635 47.066841 31.618816
2.140802 49.155556 28.806721
2.579599 53.272285 30.168293
2.410574 52.310966 27.869816
1.936798 66.075897 28.619385
2.38341 65.056602 25.485489
2.689939 63.846313 22.54002
2.762529 62.473618 19.820377
2.536304 60.948898 17.353708
2.366531 41.405147 35.918005
2.182516 40.829527 35.522175
0.755518 51.634552 46.367226
0.932289 50.018623 46.153582
0.586985 53.253475 46.515232
0.81282 53.388416 44.888249
0.755518 51.634552 46.367226
0.563042 61.986092 48.626781
0.491893 60.213444 50.243305
0.691768 61.5257 50.184463
0.859998 64.969978 46.878348
0.743032 65.366394 45.293211
0.645952 63.694763 46.982804
2.369917 45.565506 39.900312
2.490353 44.099927 39.810531
2.338985 44.087874 41.129553
1.688851 50.244061 41.481119
1.63041 48.593021 42.903421
1.438624 50.190597 42.993534
0.171013 55.951721 50.113388
0.232915 57.42025 50.210121
0.256356 56.235023 48.474159
0.171013 55.951721 50.113388
0.321186 57.983745 46.935608
0.356912 56.441509 46.812416
0.256356 56.235023 48.474159
0.669663 66.006954 40.363228
0.793027 66.028904 38.674874
0.678253 64.520836 40.397492
1.56967 67.192459 46.478111
1.952362 66.493435 47.893226
2.120775 52.731644 25.325877
2.173252 51.724213 26.86104
2.358097 53.318398 26.334653
2.016902 53.65128 23.796957
2.120775 52.731644 25.325877
1.808517 56.231701 19.041424
1.861432 55.406402 20.651521
2.146327 56.991413 20.033102
1.708689 56.971664 17.445169
1.808517 56.231701 19.041424
1.829917 67.647628 28.496592
1.696575 66.468204 30.257171
2.484302 66.03627 23.757691
2.2822 66.643878 25.306534
2.637567 65.431126 22.284957
2.536675 64.451458 24.012754
2.484302 66.03627 23.757691
2.79313 63.269211 18.132941
2.795953 64.045968 19.47238
2.680017 62.506851 16.899607
2.649417 61.711258 18.587043
2.79313 63.269211 18.132941
2.026706 41.624317 34.357271
2.182516 40.829527 35.522175
2.184127 43.118719 33.774157
2.026706 41.624317 34.357271
2.179641 43.938128 42.471758
2.338985 44.087874 41.129553
1.180769 50.154525 44.578039
0.932289 50.018623 46.153582
1.23921 51.805565 43.155737
1.438624 50.190597 42.993534
1.180769 50.154525 44.578039
0.304184 58.868538 50.254257
0.491893 60.213444 50.243305
0.291898 59.225548 48.641487
0.232915 57.42025 50.210121
0.304184 58.868538 50.254257
0.635297 65.688789 43.686878
0.648248 65.892643 42.030968
0.541937 64.295032 43.741756
0.635297 65.688789 43.686878
0.743032 65.366394 45.293211
1.020741 62.70668 50.045437
0.691768 61.5257 50.184463
0.949593 60.934033 51.66196
1.365903 63.84217 49.864486
1.108079 64.433837 48.386989
1.020741 62.70668 50.045437
1.84413 64.823692 49.584957
1.365903 63.84217 49.864486
1.952362 66.493435 47.893226
1.84413 64.823692 49.584957
1.333603 65.559052 33.617959
1.127338 65.80777 35.298807
2.569936 41.533762 37.564312
2.505695 41.682869 36.707986
2.597597 42.761578 37.585527
2.569936 41.533762 37.564312
2.622604 44.092674 37.423099
2.602304 44.065922 36.393972
2.597597 42.761578 37.585527
2.569592 44.182945 38.597973
2.490353 44.099927 39.810531
2.574298 45.487289 37.406418
2.622604 44.092674 37.423099
2.569592 44.182945 38.597973
2.002309 45.46333 42.648505
2.179641 43.938128 42.471758
1.833353 47.009845 42.734341
1.63041 48.593021 42.903421
2.049592 47.099968 41.30517
2.002309 45.46333 42.648505
1.833353 47.009845 42.734341
0.468185 54.850063 46.693611
0.586985 53.253475 46.515232
0.533015 56.598785 45.15506
0.468185 54.850063 46.693611
0.356912 56.441509 46.812416
0.922719 65.950367 36.982895
1.127338 65.80777 35.298807
1.006236 64.400189 37.025049
0.922719 65.950367 36.982895
0.793027 66.028904 38.674874
0.669663 66.006954 40.363228
0.648248 65.892643 42.030968
1.20516 66.105469 46.697397
0.859998 64.969978 46.878348
1.108079 64.433837 48.386989
1.20516 66.105469 46.697397
1.56967 67.192459 46.478111
2.438133 42.457104 35.766419
2.366531 41.405147 35.918005
2.505695 41.682869 36.707986
2.277524 44.48708 33.401043
2.184127 43.118719 33.774157
2.392365 43.547742 34.603323
2.19996 45.562449 32.095346
2.277524 44.48708 33.401043
2.408199 45.991472 32.924512
2.059817 46.538071 30.761375
2.19996 45.562449 32.095346
1.964901 47.582428 29.355328
2.059817 46.538071 30.761375
2.235718 48.111199 30.212768
1.813173 48.540443 27.936212
1.964901 47.582428 29.355328
2.038366 50.146507 27.329493
2.275688 50.733261 28.338268
2.173252 51.724213 26.86104
1.813173 48.540443 27.936212
2.038366 50.146507 27.329493
1.963713 54.571422 22.218811
2.016902 53.65128 23.796957
2.252431 55.245972 23.221344
1.963713 54.571422 22.218811
1.861432 55.406402 20.651521
1.57996 65.273445 31.971405
1.457211 63.971985 33.694406
1.333603 65.559052 33.617959
1.820183 64.881137 30.333619
1.57996 65.273445 31.971405
1.696575 66.468204 30.257171
2.058894 67.153526 26.873482
1.829917 67.647628 28.496592
2.160104 65.566249 27.052437
2.058894 67.153526 26.873482
2.2822 66.643878 25.306534
2.759659 64.732315 20.832202
2.637567 65.431126 22.284957
2.726234 63.159965 21.180198
2.759659 64.732315 20.832202
2.795953 64.045968 19.47238
2.523379 61.655434 15.685834
2.680017 62.506851 16.899607
2.261259 60.106769 16.254827
2.523379 61.655434 15.685834
2.039813 58.540676 16.789476
2.314858 59.382804 17.888357
2.261259 60.106769 16.254827
1.708689 56.971664 17.445169
2.039813 58.540676 16.789476
3 61 16 62
3 0 19 17
3 63 20 64
3 65 22 66
3 67 66 20
3 65 66 67
3 2 68 70
3 68 23 69
3 68 69 70
3 2 25 23
3 2 71 73
3 73 72 25
3 71 72 73
3 1 28 26
3 3 31 29
3 3 33 31
3 4 37 35
3 6 38 18
3 6 39 38
3 8 74 76
3 74 41 75
3 74 75 76
3 8 42 41
3 9 77 79
3 77 43 78
3 77 78 79
3 9 44 43
3 9 45 44
3 10 46 21
3 10 47 46
3 11 80 81
3 11 82 83
3 11 84 86
3 84 48 85
3 84 85 86
3 12 49 24
3 12 50 49
3 12 87 89
3 89 88 50
3 87 88 89
3 91 90 34
3 7 51 40
3 13 52 27
3 13 53 52
3 5 54 36
3 14 55 30
3 14 92 94
3 94 93 55
3 92 93 94
3 14 95 96
3 15 97 99
3 99 98 32
3 97 98 99
3 15 100 101
3 102 56 103
3 104 57 105
3 106 58 107
3 108 107 57
3 106 107 108
3 109 59 110
3 111 60 112
3 113 112 59
3 111 112 113
3 16 114 115
3 16 116 117
3 17 18 4
3 19 18 17
3 19 6 18
3 118 8 119
3 20 120 121
3 20 122 124
3 122 9 123
3 122 123 124
3 20 21 9
3 22 21 20
3 22 10 21
3 23 125 126
3 23 127 129
3 127 11 128
3 127 128 129
3 23 24 11
3 25 24 23
3 25 12 24
3 25 130 132
3 132 131 12
3 130 131 132
3 134 133 25
3 26 27 7
3 28 27 26
3 28 13 27
3 29 30 5
3 31 30 29
3 31 14 30
3 31 32 14
3 33 32 31
3 33 15 32
3 135 2 136
3 135 136 137
3 138 34 139
3 140 139 2
3 138 139 140
3 141 34 142
3 144 143 34
3 35 36 1
3 37 36 35
3 37 5 36
3 18 37 4
3 38 37 18
3 38 5 37
3 38 29 5
3 39 29 38
3 39 3 29
3 146 145 0
3 147 40 148
3 149 40 150
3 151 7 152
3 153 152 40
3 151 152 153
3 41 154 155
3 41 156 158
3 156 7 157
3 156 157 158
3 41 26 7
3 42 26 41
3 42 1 26
3 159 8 160
3 43 161 162
3 43 163 165
3 163 8 164
3 163 164 165
3 43 42 8
3 44 42 43
3 44 1 42
3 44 35 1
3 45 35 44
3 45 4 35
3 21 45 9
3 46 45 21
3 46 4 45
3 46 17 4
3 47 17 46
3 47 0 17
3 166 22 167
3 48 168 170
3 168 22 169
3 168 169 170
3 48 10 22
3 24 48 11
3 49 48 24
3 49 10 48
3 49 47 10
3 50 47 49
3 50 0 47
3 50 171 173
3 173 172 0
3 171 172 173
3 175 174 50
3 177 176 12
3 34 178 180
3 180 179 2
3 178 179 180
3 182 181 34
3 40 183 185
3 183 16 184
3 183 184 185
3 51 16 40
3 51 186 188
3 188 187 16
3 186 187 188
3 27 51 7
3 52 51 27
3 52 189 191
3 191 190 51
3 189 190 191
3 52 192 193
3 53 194 196
3 196 195 52
3 194 195 196
3 53 197 198
3 36 28 1
3 54 28 36
3 54 13 28
3 30 54 5
3 55 54 30
3 55 13 54
3 55 53 13
3 199 53 200
3 201 200 55
3 199 200 201
3 203 202 53
3 32 204 206
3 206 205 14
3 204 205 206
3 208 207 32
3 209 19 210
3 211 210 0
3 209 210 211
3 56 212 214
3 212 19 213
3 212 213 214
3 56 6 19
3 215 56 216
3 57 217 219
3 217 56 218
3 217 218 219
3 57 6 56
3 57 39 6
3 58 39 57
3 58 3 39
3 220 58 221
3 59 222 224
3 222 58 223
3 222 223 224
3 59 3 58
3 59 33 3
3 60 33 59
3 60 15 33
3 225 60 226
3 227 60 228
3 229 15 230
3 231 230 60
3 229 230 231
3 233 232 15
