ply
format ascii 1.0
element vertex 353
property float x
property float y
property float z
element face 315
property list uchar int vertex_index
end_header
-62.029716 -1.389009 10.231513
-59.216125 2.721642 36.364483
-52.793312 7.295448 42.946491
-57.6213 -6.125966 38.506592
-64.345093 2.634321 9.679188
-66.455643 1.891579 12.133095
-57.028214 0.819054 40.780106
-56.355949 4.92524 39.804878
-55.924675 -3.745888 41.362747
-58.814728 -1.60169 37.260559
-49.898685 12.19409 35.809361
-64.039337 1.313801 28.678228
-66.042793 1.872766 24.193571
-67.27153 1.950277 19.71611
-61.319092 4.295185 31.831287
-57.912025 6.553167 35.110161
-53.696213 8.577162 38.084347
-49.334461 11.249023 40.793789
-61.557823 0.139931 33.037682
-67.447891 1.834412 15.553247
-65.533203 2.144981 10.796482
-55.902966 -0.201895 42.937271
-56.022614 2.005209 42.617958
-56.640732 -1.421303 41.075882
-47.668823 13.738049 37.065582
-47.994289 14.178722 34.596848
-63.78978 3.387974 27.91954
-65.11821 1.666307 26.447107
-64.735199 3.727045 25.609154
-60.281834 3.561539 34.113617
-59.725372 5.499104 33.492615
-58.804241 4.707403 35.812538
-54.642143 6.044231 41.419456
-55.241695 6.790335 39.036049
-53.218204 7.922209 40.518021
-51.466614 9.78027 39.455772
-51.159618 9.251759 41.933613
-57.090889 -8.348205 39.488483
-59.292664 -5.101027 36.544411
-59.18639 0.607683 36.819111
-60.209549 -0.668434 35.16481
-60.415108 1.494255 34.645042
-61.60379 2.26486 32.438972
-67.503685 1.895124 17.569689
-63.374851 0.724457 9.746061
-58.130955 1.799816 38.586971
-57.880322 3.845922 38.107449
-56.955261 2.939289 40.377987
-55.602509 4.08444 42.122238
-54.066284 5.309446 43.781258
-56.659813 -4.94678 39.785744
-58.241737 -3.862108 37.789936
-57.384453 -2.636307 39.326767
-57.927162 -0.371967 38.963219
-64.061417 -0.802538 29.508694
-65.277191 -0.435852 27.354073
-66.330109 -0.225706 25.17421
-67.177361 -0.149385 22.987417
-67.775284 -0.172426 20.823038
-66.773529 1.956259 21.938896
-62.312008 4.901533 29.513496
-60.634434 6.19426 31.142937
-58.719395 7.294226 32.734142
-56.570042 8.276031 34.241653
-57.12352 5.754417 37.466072
-55.882057 7.541298 36.642937
-54.245384 9.252262 35.654266
-51.858364 10.352129 36.990433
-49.557514 11.693993 38.286415
-47.496517 13.359543 39.581795
-59.789215 -2.881865 35.767143
-61.288704 -2.032871 33.714798
-62.721222 -1.335621 31.62945
-62.842365 0.804529 30.876072
-62.736298 2.900118 30.197577
-67.096581 1.814594 13.724294
-55.485537 0.42537 43.875504
-55.323765 -0.725436 43.992176
-55.323765 -0.725436 43.992176
-55.614061 -1.359922 43.044511
-46.815933 14.854321 36.452495
-46.739102 14.690136 37.704967
-63.986753 4.547334 26.384125
-64.26249 3.55751 26.764347
-63.514044 4.377799 27.539318
-64.402786 4.709469 25.191332
-63.986753 4.547334 26.384125
-61.117536 -1.047595 9.946982
-61.185285 -2.527689 10.667139
-62.149269 -2.795065 10.937261
-62.88941 -1.66468 10.610656
-61.185285 -2.527689 10.667139
-62.149269 -2.795065 10.937261
-57.356094 -7.237086 38.997537
-56.506119 -7.799627 39.967402
-56.771324 -6.688507 39.476456
-58.233536 -6.706497 38.037453
-57.96833 -7.817616 38.528399
-57.356094 -7.237086 38.997537
-58.456982 -5.613497 37.525501
-59.069218 -6.194028 37.056362
-58.233536 -6.706497 38.037453
-63.642681 2.986469 9.20486
-63.15756 2.031537 9.238297
-63.859972 1.679389 9.712625
-66.275207 0.861178 12.004017
-66.762497 0.772262 12.702035
-64.595787 1.409668 10.193418
-65.189842 1.164998 10.752066
-64.939148 2.389651 10.237835
-63.859972 1.679389 9.712625
-64.110666 0.454736 10.226855
-64.595787 1.409668 10.193418
-55.224755 3.661475 43.263348
-55.812562 3.044824 42.370098
-55.434807 2.62186 43.511207
-54.456642 4.273978 44.092858
-54.834396 4.696943 42.951748
-55.224755 3.661475 43.263348
-55.488777 -4.925 41.55928
-55.181221 -4.324051 42.364344
-56.292244 -4.346334 40.574246
-55.856346 -5.525446 40.770779
-55.488777 -4.925 41.55928
-50.139833 12.465233 34.586821
-51.12672 11.575512 35.176054
-48.247203 14.422489 33.385582
-47.150293 15.270496 33.997429
-67.678044 0.849285 19.218561
-67.929921 -0.212066 19.772025
-67.523407 0.888926 20.269574
-67.762032 0.747394 16.141194
-67.789929 0.77775 17.149415
-67.475788 1.864768 16.561468
-67.592167 0.723413 15.225482
-67.762032 0.747394 16.141194
-67.272236 1.824503 14.63877
-67.416512 0.713504 14.311006
-67.592167 0.723413 15.225482
-64.06168 3.804995 9.321773
-64.638435 3.452827 9.836605
-65.660095 3.030404 10.990184
-65.994423 2.01828 11.464789
-66.121315 2.903703 11.65849
-65.23249 3.208157 10.395252
-65.660095 3.030404 10.990184
-64.638435 3.452827 9.836605
-64.939148 2.389651 10.237835
-65.23249 3.208157 10.395252
-55.545361 1.528922 43.715847
-55.96279 0.901657 42.777614
-55.485537 0.42537 43.875504
-55.434807 2.62186 43.511207
-55.545361 1.528922 43.715847
-55.624916 -3.131919 42.25725
-55.181221 -4.324051 42.364344
-55.982945 -1.969626 42.113817
-56.282703 -2.583595 41.219314
-55.624916 -3.131919 42.25725
-56.271849 -0.811599 42.006577
-55.982945 -1.969626 42.113817
-55.614061 -1.359922 43.044511
-46.978666 15.074657 35.218129
-47.831556 13.958386 35.831215
-46.815933 14.854321 36.452495
-47.150293 15.270496 33.997429
-46.978666 15.074657 35.218129
-65.137035 3.827638 24.444356
-65.790832 2.900499 23.736565
-65.388996 2.799905 24.901362
-65.137035 3.827638 24.444356
-64.402786 4.709469 25.191332
-56.203605 -8.922493 40.440383
-56.506119 -7.799627 39.967402
-56.918581 -9.418981 40.132143
-56.203605 -8.922493 40.440383
-57.814583 -8.878979 39.181467
-56.918581 -9.418981 40.132143
-57.814583 -8.878979 39.181467
-57.96833 -7.817616 38.528399
-59.927418 -5.726947 36.085113
-59.069218 -6.194028 37.056362
-60.105896 -4.654898 35.550061
-59.927418 -5.726947 36.085113
-67.042233 2.954802 18.121908
-67.387608 1.9227 18.642899
-66.926155 2.982379 19.195119
-67.131325 2.929861 17.028601
-67.042233 2.954802 18.121908
-67.103428 2.899505 16.02038
-67.475788 1.864768 16.561468
-67.131325 2.929861 17.028601
-67.066265 2.867124 15.006666
-67.103428 2.899505 16.02038
-62.55999 1.075335 9.357088
-61.887422 0.018603 9.599814
-62.702284 -0.332276 9.988787
-62.55999 1.075335 9.357088
-63.15756 2.031537 9.238297
-63.642681 2.986469 9.20486
-64.06168 3.804995 9.321773
-65.813987 0.98788 11.33571
-66.275207 0.861178 12.004017
-65.994423 2.01828 11.464789
-65.813987 0.98788 11.33571
-65.189842 1.164998 10.752066
-63.561977 -0.607947 10.36793
-64.110666 0.454736 10.226855
-62.702284 -0.332276 9.988787
-62.88941 -1.66468 10.610656
-63.561977 -0.607947 10.36793
-56.290581 -6.098914 40.116032
-55.856346 -5.525446 40.770779
-57.140557 -5.536373 39.146168
-56.771324 -6.688507 39.476456
-56.290581 -6.098914 40.116032
-49.187635 13.457549 33.980564
-50.139833 12.465233 34.586821
-48.946487 13.186406 35.203105
-49.187635 13.457549 33.980564
-48.247203 14.422489 33.385582
-64.673985 -1.664879 28.951815
-64.003998 -1.857228 29.995613
-65.281871 -1.481536 27.874505
-64.673985 -1.664879 28.951815
-64.669304 -0.619195 28.431383
-65.868168 -1.373846 26.817
-65.281871 -1.481536 27.874505
-66.394627 -1.268773 25.727068
-65.868168 -1.373846 26.817
-65.80365 -0.330779 26.264142
-66.874542 -1.23504 24.663643
-66.394627 -1.268773 25.727068
-67.298169 -1.19688 23.570246
-66.874542 -1.23504 24.663643
-66.753735 -0.187545 24.080813
-67.648045 -1.220017 22.514012
-67.298169 -1.19688 23.570246
-67.476323 -0.160905 21.905228
-67.947007 -1.231537 21.431822
-67.648045 -1.220017 22.514012
-66.1562 2.942245 22.609227
-66.408161 1.914512 23.066233
-65.790832 2.900499 23.736565
-66.469375 2.985059 21.447103
-66.1562 2.942245 22.609227
-66.718376 2.982068 20.33571
-67.022529 1.953268 20.827503
-66.469375 2.985059 21.447103
-66.926155 2.982379 19.195119
-66.718376 2.982068 20.33571
-61.117536 -1.047595 9.946982
-61.887422 0.018603 9.599814
-61.913639 5.835807 29.135976
-62.775158 5.134578 28.336296
-61.074852 6.482171 29.950696
-61.913639 5.835807 29.135976
-61.473221 5.547897 30.328216
-60.085054 7.071402 30.737085
-61.074852 6.482171 29.950696
-59.127535 7.621385 31.532688
-60.085054 7.071402 30.737085
-59.676914 6.744243 31.938539
-58.011259 8.129499 32.280313
-59.127535 7.621385 31.532688
-56.936583 8.620402 33.034068
-58.011259 8.129499 32.280313
-57.644718 7.785128 33.487898
-55.721502 9.099995 33.733891
-56.936583 8.620402 33.034068
-54.559173 9.58811 34.440197
-55.721502 9.099995 33.733891
-55.407713 8.764146 34.947959
-53.300069 10.104598 35.098506
-54.559173 9.58811 34.440197
-52.10656 10.654532 35.76659
-53.300069 10.104598 35.098506
-53.051874 9.802195 36.32235
-50.878524 11.27311 36.399897
-51.12672 11.575512 35.176054
-52.10656 10.654532 35.76659
-46.652948 14.500883 38.963074
-46.739102 14.690136 37.704967
-47.58267 13.548796 38.323689
-60.354171 -3.545318 35.161426
-60.105896 -4.654898 35.550061
-59.54094 -3.991446 36.155777
-61.103916 -3.120821 34.135254
-60.354171 -3.545318 35.161426
-60.53896 -2.457368 34.740971
-61.8841 -2.7534 33.125489
-61.103916 -3.120821 34.135254
-62.600359 -2.404775 32.082814
-61.8841 -2.7534 33.125489
-62.004963 -1.684246 32.672124
-63.3339 -2.123769 31.055991
-62.600359 -2.404775 32.082814
-63.39132 -1.069079 30.569072
-64.003998 -1.857228 29.995613
-63.3339 -2.123769 31.055991
-62.775158 5.134578 28.336296
-63.514044 4.377799 27.539318
-63.050894 4.144754 28.716518
-53.776421 4.942882 44.939789
-54.456642 4.273978 44.092858
-53.229244 5.997585 44.564774
-53.776421 4.942882 44.939789
-52.592758 6.990586 44.14739
-53.429798 6.302447 43.363875
-53.229244 5.997585 44.564774
-51.849642 8.025818 43.676214
-52.592758 6.990586 44.14739
-51.032795 9.003974 43.169775
-51.976465 8.273604 42.440052
-51.849642 8.025818 43.676214
-50.177185 10.051429 42.625666
-51.032795 9.003974 43.169775
-49.264606 11.050061 42.055754
-50.247039 10.250391 41.363701
-50.177185 10.051429 42.625666
-48.386022 12.143756 41.464842
-49.264606 11.050061 42.055754
-47.46705 13.199016 40.858845
-48.415489 12.304283 40.187792
-48.386022 12.143756 41.464842
-46.647855 14.368025 40.24424
-47.46705 13.199016 40.858845
-46.652948 14.500883 38.963074
-46.647855 14.368025 40.24424
-68.144638 -1.289393 20.401124
-67.947007 -1.231537 21.431822
-68.144638 -1.289393 20.401124
-67.929921 -0.212066 19.772025
-67.794121 0.821708 18.14535
-67.678044 0.849285 19.218561
-67.387608 1.9227 18.642899
-67.794121 0.821708 18.14535
-67.789929 0.77775 17.149415
-67.082966 0.733769 13.497635
-67.416512 0.713504 14.311006
-66.776112 1.853086 12.928695
-66.762497 0.772262 12.702035
-67.082966 0.733769 13.497635
-66.89061 2.857215 14.092189
-67.272236 1.824503 14.63877
-67.066265 2.867124 15.006666
-66.726944 2.837556 13.195679
-66.89061 2.857215 14.092189
-66.406475 2.876049 12.40008
-66.776112 1.853086 12.928695
-66.726944 2.837556 13.195679
-66.121315 2.903703 11.65849
-66.406475 2.876049 12.40008
3 77 76 21
3 78 21 79
3 81 80 24
3 82 28 83
3 84 83 26
3 82 83 84
3 86 85 28
3 0 87 88
3 0 89 90
3 0 91 92
3 1 31 29
3 2 34 32
3 2 36 34
3 3 93 95
3 93 37 94
3 93 94 95
3 3 96 98
3 98 97 37
3 96 97 98
3 3 99 101
3 99 38 100
3 99 100 101
3 1 41 39
3 1 29 41
3 4 102 104
3 104 103 44
3 102 103 104
3 5 105 106
3 4 107 109
3 109 108 20
3 107 108 109
3 4 110 112
3 110 44 111
3 110 111 112
3 6 47 45
3 113 48 114
3 115 114 22
3 113 114 115
3 116 49 117
3 118 117 48
3 116 117 118
3 8 119 120
3 8 121 123
3 121 50 122
3 121 122 123
3 8 52 50
3 6 53 23
3 6 45 53
3 10 124 125
3 127 126 25
3 11 55 54
3 12 56 27
3 12 57 56
3 12 59 57
3 14 61 60
3 15 62 30
3 15 63 62
3 7 64 46
3 16 65 33
3 16 66 65
3 16 67 66
3 17 68 35
3 17 69 68
3 9 70 51
3 18 71 40
3 18 72 71
3 18 73 72
3 14 74 42
3 14 60 74
3 13 128 130
3 130 129 58
3 128 129 130
3 19 131 133
3 133 132 43
3 131 132 133
3 19 134 135
3 19 136 138
3 136 75 137
3 136 137 138
3 140 139 4
3 141 20 142
3 143 142 5
3 141 142 143
3 144 20 145
3 146 4 147
3 148 147 20
3 146 147 148
3 21 22 6
3 149 22 150
3 151 150 21
3 149 150 151
3 153 152 22
3 154 8 155
3 156 23 157
3 158 157 8
3 156 157 158
3 21 159 161
3 159 23 160
3 159 160 161
3 21 6 23
3 24 25 10
3 162 25 163
3 164 163 24
3 162 163 164
3 166 165 25
3 26 27 11
3 28 27 26
3 28 12 27
3 28 167 169
3 169 168 12
3 167 168 169
3 171 170 28
3 29 30 14
3 31 30 29
3 31 15 30
3 32 33 7
3 34 33 32
3 34 16 33
3 34 35 16
3 36 35 34
3 36 17 35
3 37 172 173
3 37 174 175
3 37 176 177
3 179 178 37
3 38 180 181
3 38 182 183
3 39 40 9
3 41 40 39
3 41 18 40
3 41 42 18
3 29 42 41
3 29 14 42
3 184 43 185
3 186 185 13
3 184 185 186
3 187 43 188
3 189 19 190
3 191 190 43
3 189 190 191
3 193 192 19
3 44 194 196
3 196 195 0
3 194 195 196
3 198 197 44
3 200 199 4
3 20 201 203
3 203 202 5
3 201 202 203
3 205 204 20
3 44 206 207
3 44 208 210
3 208 0 209
3 208 209 210
3 45 46 1
3 47 46 45
3 47 7 46
3 22 47 6
3 48 47 22
3 48 7 47
3 48 32 7
3 49 32 48
3 49 2 32
3 50 211 212
3 50 213 215
3 213 3 214
3 213 214 215
3 50 51 3
3 52 51 50
3 52 9 51
3 23 52 8
3 53 52 23
3 53 9 52
3 53 39 9
3 45 39 53
3 45 1 39
3 25 216 218
3 218 217 10
3 216 217 218
3 220 219 25
3 54 221 222
3 55 223 225
3 225 224 54
3 223 224 225
3 55 226 227
3 27 55 11
3 56 55 27
3 56 228 230
3 230 229 55
3 228 229 230
3 56 231 232
3 57 233 235
3 235 234 56
3 233 234 235
3 57 236 237
3 57 238 240
3 238 58 239
3 238 239 240
3 59 58 57
3 59 13 58
3 241 59 242
3 243 242 12
3 241 242 243
3 244 59 245
3 246 13 247
3 248 247 59
3 246 247 248
3 250 249 13
3 252 251 0
3 60 253 254
3 61 255 257
3 257 256 60
3 255 256 257
3 61 258 259
3 30 61 14
3 62 61 30
3 62 260 262
3 262 261 61
3 260 261 262
3 62 263 264
3 63 265 267
3 267 266 62
3 265 266 267
3 63 268 269
3 46 31 1
3 64 31 46
3 64 15 31
3 33 64 7
3 65 64 33
3 65 15 64
3 65 63 15
3 66 63 65
3 66 270 272
3 272 271 63
3 270 271 272
3 66 273 274
3 67 275 277
3 277 276 66
3 275 276 277
3 67 278 280
3 278 10 279
3 278 279 280
3 35 67 16
3 68 67 35
3 68 10 67
3 68 24 10
3 69 24 68
3 69 281 283
3 283 282 24
3 281 282 283
3 51 38 3
3 70 38 51
3 70 284 286
3 286 285 38
3 284 285 286
3 40 70 9
3 71 70 40
3 71 287 289
3 289 288 70
3 287 288 289
3 71 290 291
3 72 292 294
3 294 293 71
3 292 293 294
3 72 295 296
3 72 297 299
3 297 54 298
3 297 298 299
3 73 54 72
3 73 11 54
3 42 73 18
3 74 73 42
3 74 11 73
3 74 26 11
3 60 26 74
3 60 300 302
3 302 301 26
3 300 301 302
3 303 49 304
3 305 49 306
3 307 2 308
3 309 308 49
3 307 308 309
3 310 2 311
3 312 36 313
3 314 313 2
3 312 313 314
3 315 36 316
3 317 17 318
3 319 318 36
3 317 318 319
3 320 17 321
3 322 69 323
3 324 323 17
3 322 323 324
3 325 69 326
3 328 327 69
3 58 329 330
3 332 331 58
3 43 333 335
3 335 334 13
3 333 334 335
3 337 336 43
3 75 338 339
3 75 340 342
3 340 5 341
3 340 341 342
3 343 75 344
3 345 344 19
3 343 344 345
3 346 75 347
3 348 5 349
3 350 349 75
3 348 349 350
3 352 351 5
