ply
format ascii 1.0
element vertex 369
property float x
property float y
property float z
element face 330
property list uchar int vertex_index
end_header
-2.518732 -36.854034 85.174385
-1.385149 -32.798794 75.856186
0.579529 -47.316475 87.757957
3.081182 -7.746293 58.332222
-1.419146 -41.100468 82.19104
-2.34025 -34.932823 80.813881
-1.673006 -38.345165 88.353355
-1.300272 -42.494034 86.483322
0.05167 -46.411976 83.857628
2.355394 -10.159456 62.170074
1.622076 -50.156853 80.764801
-2.23303 -32.360302 87.507278
-2.797518 -30.200508 84.264587
4.535473 -21.271809 53.87529
2.929865 -18.278969 61.535706
3.827644 -15.81496 57.709991
3.608416 -13.305792 54.419708
-2.118055 -39.019958 83.734833
-1.970209 -38.135902 81.437569
-2.542715 -35.932758 83.104073
-2.236853 -37.667336 86.948128
-1.646086 -40.444641 87.532669
-2.019556 -39.798965 85.792397
-1.490644 -41.860363 84.468704
-1.067102 -36.166679 76.416275
-0.689178 -31.700279 73.304832
0.174103 -45.315269 88.732544
1.275251 -47.533016 89.145103
1.598173 -49.578018 88.123085
1.076515 -49.293091 86.536133
0.181921 -45.76292 81.499596
0.862574 -48.297455 82.356346
-1.51185 -30.11149 88.294525
-1.567553 -33.295578 88.574806
4.773809 -22.495005 55.456253
-2.74774 -29.036705 82.225349
2.197174 -19.498356 63.626801
2.825466 -8.95323 60.207581
3.139957 -13.018445 59.886093
3.432821 -11.788519 58.039879
3.871906 -14.568644 55.99736
3.452755 -10.549077 56.307266
3.182774 -9.289171 54.684654
3.08098 -6.527262 56.548676
-0.501385 -43.094978 80.592255
-1.117239 -40.243649 79.727722
-1.609007 -37.176064 78.975868
-1.944334 -33.881065 78.376663
-0.978958 -40.934246 88.885498
-0.823709 -42.976532 88.15696
-0.410807 -44.978931 87.173195
0.175877 -46.937836 85.97049
-0.70409 -44.482162 85.244743
-0.724707 -43.845081 83.024658
2.13842 -6.054155 62.454491
0.838026 -48.859406 84.587646
1.474682 -50.755539 83.058968
-2.566786 -34.62236 86.451233
-2.776079 -33.648945 84.664864
-2.635836 -31.318253 86.049118
-1.339396 -36.219048 88.91526
-2.093653 -35.488167 87.888474
-2.749285 -32.597755 82.602142
-2.518896 -31.496574 80.33786
-2.116167 -30.367664 77.941696
-1.56735 -29.225916 75.474205
-0.893875 -28.078827 72.985214
-0.116625 -26.927849 70.514069
0.737217 -25.770618 68.090828
1.627377 -24.603373 65.738686
2.497108 -23.422962 63.476822
3.275188 -22.227978 61.323357
3.88372 -21.01878 59.296745
2.620501 -14.245018 61.840065
3.496716 -17.050987 59.559013
4.249994 -19.796406 57.414833
4.319586 -18.560846 55.690804
4.067375 -17.309422 54.127022
3.051132 -12.016472 52.960213
-0.880069 -33.963499 74.834866
-0.721046 -35.647441 75.11491
-1.226125 -34.482737 76.13623
-1.037163 -32.249536 74.580509
-0.532084 -33.414241 73.559189
-0.880069 -33.963499 74.834866
0.650598 -46.698629 80.709499
0.357888 -45.391267 80.235653
-1.358254 -28.40795 88.161567
-0.965203 -29.015481 88.53854
-0.965203 -29.015481 88.53854
-1.086269 -30.619639 88.639518
4.727296 -23.097934 56.338532
4.992205 -24.417106 55.404457
-1.325982 -39.639706 88.619427
-0.897425 -39.900416 89.109401
-1.244449 -38.605875 88.84333
2.053711 -4.004646 62.539329
1.798681 -4.573891 63.596711
2.349649 -5.468644 61.452885
2.053711 -4.004646 62.539329
1.808694 -51.39718 81.087834
1.734997 -51.696523 82.234917
1.548379 -50.456196 81.911884
1.928373 -51.080677 79.930722
1.808694 -51.39718 81.087834
-0.985294 -35.157652 89.060021
-0.820829 -36.507076 89.204239
-0.466727 -35.44568 89.348999
4.483228 -22.616798 53.085888
4.761311 -23.216283 53.800476
4.254075 -20.65012 53.171325
4.483228 -22.616798 53.085888
-2.51853 -29.673745 80.170166
-2.633318 -30.26664 81.281605
-2.632952 -28.443811 81.113911
-2.317165 -29.10929 78.972084
-2.317531 -30.932119 79.139778
-2.51853 -29.673745 80.170166
-1.595701 -27.347876 75.366059
-1.851976 -27.942614 76.567677
-1.258964 -26.774332 74.121563
-1.230612 -28.652372 74.229709
-1.595701 -27.347876 75.366059
-0.192675 -25.012699 70.478409
-0.55639 -25.605743 71.676781
0.234245 -24.434083 69.266789
0.310296 -26.349233 69.302448
-0.192675 -25.012699 70.478409
1.501281 -22.655572 65.778408
1.080955 -23.255135 66.917068
1.936146 -22.065366 64.647476
2.062242 -24.013168 64.607754
1.501281 -22.655572 65.778408
2.487947 -12.202237 62.00507
2.17678 -12.807954 63.025421
2.044226 -10.765173 63.190425
3.556194 -14.670977 53.564346
3.785673 -16.672792 53.418003
3.837896 -15.307607 54.273365
3.329774 -12.661132 53.68996
3.277551 -14.026317 52.834598
3.556194 -14.670977 53.564346
2.725465 -6.637322 54.003422
2.91109 -8.641886 53.91951
2.997149 -7.284608 54.768566
-0.511945 -37.259239 75.462932
-0.84288 -37.742849 76.782196
-0.511945 -37.259239 75.462932
-0.721046 -35.647441 75.11491
-0.126012 -32.887127 72.257736
-0.532084 -33.414241 73.559189
-0.285709 -31.146531 72.034328
-0.126012 -32.887127 72.257736
0.614729 -45.398735 89.295727
0.062619 -44.303461 89.07721
1.165303 -46.507609 89.502006
0.614729 -45.398735 89.295727
0.724677 -46.424143 88.938824
1.767557 -47.559057 89.609909
1.165303 -46.507609 89.502006
1.841833 -48.618576 89.212429
2.334139 -48.644617 89.677235
1.767557 -47.559057 89.609909
2.003294 -49.641077 88.70142
1.841833 -48.618576 89.212429
1.436712 -48.555517 88.634094
2.092358 -50.702252 88.146068
2.003294 -49.641077 88.70142
1.767145 -50.594757 87.479519
2.092358 -50.702252 88.146068
1.506316 -50.452293 86.686043
1.767145 -50.594757 87.479519
1.337344 -49.435554 87.329609
1.323335 -50.270925 85.822163
1.506316 -50.452293 86.686043
0.990925 -47.965896 81.137875
0.522247 -47.030187 81.927971
0.650598 -46.698629 80.709499
1.370676 -48.895595 80.342102
1.242325 -49.227154 81.560574
0.990925 -47.965896 81.137875
1.798596 -49.81912 79.530388
1.370676 -48.895595 80.342102
-1.810696 -29.549186 87.741612
-2.171285 -30.673592 87.347988
-1.87244 -31.235896 87.900902
-1.810696 -29.549186 87.741612
-1.358254 -28.40795 88.161567
-1.114121 -32.211683 88.779659
-1.099372 -33.695917 88.889793
-1.539702 -31.703534 88.434665
-1.114121 -32.211683 88.779659
-1.086269 -30.619639 88.639518
4.880479 -23.827881 54.590958
4.992205 -24.417106 55.404457
4.654641 -21.883407 54.665771
4.761311 -23.216283 53.800476
4.880479 -23.827881 54.590958
-2.678261 -27.790357 83.08855
-2.772629 -29.618606 83.244968
-2.70315 -28.372259 84.10817
-2.656147 -27.161045 82.08881
-2.678261 -27.790357 83.08855
-2.632952 -28.443811 81.113911
-2.656147 -27.161045 82.08881
1.686523 -18.095403 64.828243
1.78618 -20.103064 64.722465
2.069079 -17.484176 63.759193
1.686523 -18.095403 64.828243
2.435425 -16.874482 62.713646
2.563519 -18.888663 62.581254
2.069079 -17.484176 63.759193
2.946251 -5.903654 55.700577
2.997149 -7.284608 54.768566
3.131877 -7.908216 55.616665
-0.284596 -42.678344 79.306068
0.016235 -44.057296 79.781982
-0.592523 -41.25268 78.873802
-0.284596 -42.678344 79.306068
-0.809312 -41.669314 80.159988
-0.867949 -39.781334 78.437919
-0.592523 -41.25268 78.873802
-1.113833 -38.247541 78.061993
-0.867949 -39.781334 78.437919
-1.363123 -38.709857 79.351795
-1.338055 -36.671371 77.696072
-0.84288 -37.742849 76.782196
-1.113833 -38.247541 78.061993
-0.496412 -41.094671 89.342373
-0.897425 -39.900416 89.109401
-0.513912 -42.112949 89.153686
-0.496412 -41.094671 89.342373
-0.436287 -43.134092 88.789417
-0.513912 -42.112949 89.153686
-0.901334 -41.955389 88.521229
-0.324803 -44.1459 88.444752
0.062619 -44.303461 89.07721
-0.436287 -43.134092 88.789417
0.016235 -44.057296 79.781982
0.357888 -45.391267 80.235653
-0.159732 -44.428949 81.045925
1.964542 -8.697308 63.343254
2.044226 -10.765173 63.190425
1.856055 -6.644657 63.485462
1.798681 -4.573891 63.596711
2.246907 -8.106806 62.312282
1.964542 -8.697308 63.343254
1.856055 -6.644657 63.485462
2.693173 -6.918181 60.32943
2.481943 -7.503692 61.331036
2.349649 -5.468644 61.452885
2.82103 -6.314713 59.391751
2.953324 -8.349761 59.269902
2.693173 -6.918181 60.32943
2.932579 -5.728482 58.424247
2.82103 -6.314713 59.391751
1.20409 -50.054083 84.847919
1.323335 -50.270925 85.822163
0.957271 -49.076248 85.56189
1.522418 -51.00215 84.08358
1.20409 -50.054083 84.847919
1.156354 -49.807473 83.823307
1.724744 -51.972297 83.2854
1.522418 -51.00215 84.08358
1.724744 -51.972297 83.2854
1.734997 -51.696523 82.234917
1.928373 -51.080677 79.930722
1.798596 -49.81912 79.530388
-2.372688 -30.152567 86.618908
-2.434433 -31.839277 86.778198
-2.171285 -30.673592 87.347988
-2.551458 -29.552584 85.884422
-2.372688 -30.152567 86.618908
-2.6323 -28.993711 84.992157
-2.716677 -30.75938 85.156853
-2.551458 -29.552584 85.884422
-2.70315 -28.372259 84.10817
-2.6323 -28.993711 84.992157
-1.077643 -37.542817 89.124282
-0.820829 -36.507076 89.204239
-1.506201 -37.282106 88.634308
-1.244449 -38.605875 88.84333
-1.077643 -37.542817 89.124282
-1.453475 -34.757313 88.745033
-0.985294 -35.157652 89.060021
-1.099372 -33.695917 88.889793
-2.126384 -28.513488 77.801422
-2.317165 -29.10929 78.972084
-1.841759 -29.79679 76.70795
-2.126384 -28.513488 77.801422
-1.851976 -27.942614 76.567677
-0.388057 -29.335805 71.874519
-0.285709 -31.146531 72.034328
-0.791527 -29.889553 73.145023
-0.945015 -26.181233 72.912353
-1.258964 -26.774332 74.121563
-0.50525 -27.503338 71.749641
-0.945015 -26.181233 72.912353
-0.55639 -25.605743 71.676781
0.000567 -28.760316 70.638947
-0.388057 -29.335805 71.874519
-0.50525 -27.503338 71.749641
0.444 -28.202837 69.389481
0.000567 -28.760316 70.638947
0.870921 -27.624221 68.177861
0.444 -28.202837 69.389481
0.310296 -26.349233 69.302448
1.333029 -27.061926 66.962013
0.870921 -27.624221 68.177861
0.635875 -23.838757 68.09314
0.234245 -24.434083 69.266789
1.182297 -25.186996 66.914757
0.635875 -23.838757 68.09314
1.080955 -23.255135 66.917068
1.778109 -26.478303 65.785943
1.333029 -27.061926 66.962013
1.182297 -25.186996 66.914757
2.229999 -25.909413 64.614674
1.778109 -26.478303 65.785943
2.664865 -25.319208 63.483742
2.229999 -25.909413 64.614674
2.062242 -24.013168 64.607754
3.070704 -24.742219 62.367924
2.664865 -25.319208 63.483742
2.347141 -21.460659 63.551811
1.936146 -22.065366 64.647476
1.78618 -20.103064 64.722465
3.459744 -24.144727 61.291191
3.070704 -24.742219 62.367924
2.886148 -22.82547 62.400089
3.780181 -23.558934 60.242348
3.459744 -24.144727 61.291191
4.084447 -22.954335 59.229042
3.780181 -23.558934 60.242348
3.579454 -21.623379 60.310051
4.282252 -22.359821 58.258778
4.084447 -22.954335 59.229042
2.280743 -14.857507 62.865825
2.17678 -12.807954 63.025421
2.775183 -16.261993 61.687886
2.435425 -16.874482 62.713646
2.280743 -14.857507 62.865825
4.465389 -21.748635 57.317822
4.282252 -22.359821 58.258778
4.066857 -20.407593 58.355789
4.511902 -21.145705 56.435543
4.727296 -23.097934 56.338532
4.465389 -21.748635 57.317822
4.020026 -18.668927 53.297191
4.254075 -20.65012 53.171325
4.301424 -19.290616 54.001156
4.020026 -18.668927 53.297191
3.785673 -16.672792 53.418003
2.863588 -13.374663 52.181199
3.277551 -14.026317 52.834598
2.649711 -11.352903 52.272309
2.863588 -13.374663 52.181199
2.845269 -10.005536 53.05729
3.116953 -10.652821 53.822434
2.91109 -8.641886 53.91951
2.649711 -11.352903 52.272309
2.845269 -10.005536 53.05729
2.932478 -5.118966 57.532474
3.081081 -7.136777 57.440449
2.932579 -5.728482 58.424247
2.925847 -4.523475 56.601464
2.932478 -5.118966 57.532474
2.946251 -5.903654 55.700577
2.925847 -4.523475 56.601464
3 0 19 17
3 0 22 20
3 0 17 22
3 1 79 81
3 81 80 24
3 79 80 81
3 1 82 84
3 82 25 83
3 82 83 84
3 2 27 26
3 2 28 27
3 2 29 28
3 86 85 30
3 88 87 32
3 89 32 90
3 91 34 92
3 3 39 37
3 3 41 39
3 3 43 41
3 4 45 44
3 5 46 18
3 5 47 46
3 6 93 95
3 93 48 94
3 93 94 95
3 7 49 21
3 7 50 49
3 7 52 50
3 4 53 23
3 4 44 53
3 96 54 97
3 99 98 54
3 8 55 51
3 10 56 31
3 10 100 102
3 102 101 56
3 100 101 102
3 10 103 104
3 11 59 57
3 105 60 106
3 105 106 107
3 11 61 33
3 11 57 61
3 13 108 109
3 13 110 111
3 12 62 58
3 112 63 113
3 114 113 35
3 112 113 114
3 115 64 116
3 117 116 63
3 115 116 117
3 118 65 119
3 120 66 121
3 122 121 65
3 120 121 122
3 123 67 124
3 125 68 126
3 127 126 67
3 125 126 127
3 128 69 129
3 130 70 131
3 132 131 69
3 130 131 132
3 14 71 36
3 14 72 71
3 9 133 135
3 133 73 134
3 133 134 135
3 15 74 38
3 15 75 74
3 15 76 75
3 16 77 40
3 16 136 138
3 138 137 77
3 136 137 138
3 16 139 141
3 139 78 140
3 139 140 141
3 144 143 42
3 142 143 144
3 17 18 4
3 19 18 17
3 19 5 18
3 20 21 6
3 22 21 20
3 22 7 21
3 22 23 7
3 17 23 22
3 17 4 23
3 24 145 146
3 148 147 24
3 25 149 150
3 25 151 152
3 26 153 154
3 27 155 157
3 157 156 26
3 155 156 157
3 27 158 159
3 27 160 162
3 160 161 162
3 28 163 165
3 165 164 27
3 163 164 165
3 28 166 167
3 28 168 169
3 29 170 172
3 172 171 28
3 170 171 172
3 29 173 174
3 30 31 8
3 175 31 176
3 177 176 30
3 175 176 177
3 178 10 179
3 180 179 31
3 178 179 180
3 182 181 10
3 32 183 185
3 185 184 11
3 183 184 185
3 187 186 32
3 188 33 189
3 32 190 192
3 190 33 191
3 190 191 192
3 32 11 33
3 34 193 194
3 34 195 197
3 195 13 196
3 195 196 197
3 198 35 199
3 200 199 12
3 198 199 200
3 201 35 202
3 204 203 35
3 205 36 206
3 207 36 208
3 209 14 210
3 211 210 36
3 209 210 211
3 37 38 9
3 39 38 37
3 39 15 38
3 39 40 15
3 41 40 39
3 41 16 40
3 41 42 16
3 43 42 41
3 43 212 214
3 214 213 42
3 212 213 214
3 44 215 216
3 45 217 219
3 219 218 44
3 217 218 219
3 45 220 221
3 18 45 4
3 46 45 18
3 46 222 224
3 224 223 45
3 222 223 224
3 46 225 227
3 225 24 226
3 225 226 227
3 47 24 46
3 47 1 24
3 48 228 229
3 48 230 231
3 21 48 6
3 49 48 21
3 49 232 234
3 234 233 48
3 232 233 234
3 49 235 237
3 235 26 236
3 235 236 237
3 50 26 49
3 50 2 26
3 50 51 2
3 52 51 50
3 52 8 51
3 23 52 7
3 53 52 23
3 53 8 52
3 53 30 8
3 44 30 53
3 44 238 240
3 240 239 30
3 238 239 240
3 241 9 242
3 54 243 244
3 54 245 247
3 245 9 246
3 245 246 247
3 54 37 9
3 248 37 249
3 250 249 54
3 248 249 250
3 251 3 252
3 253 252 37
3 251 252 253
3 255 254 3
3 51 29 2
3 55 29 51
3 55 256 258
3 258 257 29
3 256 257 258
3 31 55 8
3 56 55 31
3 56 259 261
3 261 260 55
3 259 260 261
3 56 262 263
3 265 264 56
3 267 266 10
3 57 58 0
3 59 58 57
3 59 12 58
3 268 59 269
3 270 269 11
3 268 269 270
3 271 59 272
3 273 12 274
3 275 274 59
3 273 274 275
3 277 276 12
3 60 278 279
3 60 280 282
3 280 6 281
3 280 281 282
3 33 283 285
3 283 60 284
3 283 284 285
3 61 60 33
3 61 6 60
3 61 20 6
3 57 20 61
3 57 0 20
3 58 19 0
3 62 19 58
3 62 5 19
3 35 62 12
3 63 62 35
3 63 5 62
3 63 47 5
3 64 47 63
3 64 1 47
3 286 64 287
3 65 288 290
3 288 64 289
3 288 289 290
3 65 1 64
3 65 25 1
3 66 25 65
3 66 291 293
3 293 292 25
3 291 292 293
3 294 66 295
3 67 296 298
3 296 66 297
3 296 297 298
3 67 299 301
3 301 300 66
3 299 300 301
3 67 302 303
3 68 304 306
3 306 305 67
3 304 305 306
3 68 307 308
3 309 68 310
3 69 311 313
3 311 68 312
3 311 312 313
3 69 314 316
3 316 315 68
3 314 315 316
3 69 317 318
3 70 319 321
3 321 320 69
3 319 320 321
3 70 322 323
3 36 324 326
3 324 70 325
3 324 325 326
3 71 70 36
3 71 327 329
3 329 328 70
3 327 328 329
3 71 330 331
3 72 332 334
3 334 333 71
3 332 333 334
3 72 335 336
3 73 337 338
3 73 339 341
3 339 14 340
3 339 340 341
3 38 73 9
3 74 73 38
3 74 14 73
3 74 72 14
3 75 72 74
3 75 342 344
3 344 343 72
3 342 343 344
3 75 345 347
3 345 34 346
3 345 346 347
3 76 34 75
3 76 13 34
3 40 76 15
3 77 76 40
3 77 13 76
3 77 348 350
3 350 349 13
3 348 349 350
3 352 351 77
3 78 353 354
3 78 355 356
3 42 78 16
3 357 78 358
3 359 358 42
3 357 358 359
3 361 360 78
3 362 43 363
3 364 363 3
3 362 363 364
3 365 43 366
3 368 367 43
