ply
format ascii 1.0
element vertex 180
property float x
property float y
property float z
element face 165
property list uchar int vertex_index
end_header
-38.110943 56.683262 30.259901
-34.579445 66.566422 19.66963
-27.465372 67.245529 23.512409
-42.973057 54.029758 25.913298
-40.336105 58.242062 25.780804
-36.492947 67.990753 14.899585
-33.70863 59.594883 29.397369
-36.56522 61.667294 25.099186
-32.070053 64.498016 24.139626
-29.976942 69.368607 18.880859
-38.572788 63.270756 20.528088
-41.042755 55.695988 28.233738
-39.35548 57.527958 28.051094
-32.943108 62.038876 26.776779
-30.612122 63.390308 26.303965
-28.749203 68.319687 21.215023
-35.623951 64.143738 22.410408
-37.677357 62.558559 22.855669
-36.682796 65.015045 20.126301
-38.318207 66.129166 15.278785
-28.324154 64.776947 25.93996
-26.1567 66.23053 25.754986
-41.809635 56.230175 25.916931
-41.067772 58.780399 23.440311
-33.435131 68.901505 16.890661
-35.601608 67.383621 17.329647
-34.436531 69.632919 14.48234
-35.353897 70.153748 11.993704
-35.982822 58.194897 29.877556
-37.396233 59.171627 27.720287
-35.23262 60.656612 27.275333
-34.372349 63.127956 24.62104
-33.401363 65.582932 21.933214
-29.740894 65.85144 23.741581
-31.083149 66.949951 21.504948
-32.319748 67.990112 19.226282
-31.125147 70.321335 16.507805
-38.573563 60.051495 25.501616
-39.50407 60.776707 23.209578
-40.216675 61.301899 20.832327
-37.565086 65.687485 17.751572
-39.29187 63.763561 18.105145
-36.627789 55.756634 32.410969
-38.733211 57.10561 29.155497
-39.68243 56.269565 29.274259
-39.060161 55.847217 30.378662
-29.839799 62.864852 27.366499
-30.993569 62.17118 27.596212
-25.500427 65.799729 26.828855
-26.511437 65.020193 26.921171
-33.312285 70.378898 14.283365
-33.935831 69.267212 15.686501
-32.811584 70.013192 15.487526
-34.743189 71.159477 10.525163
-34.26701 70.949624 11.797322
-35.793665 70.30172 10.711664
-34.743189 71.159477 10.525163
-43.402632 52.847904 25.850558
-43.196865 52.747783 27.027112
-39.599247 63.891409 16.846182
-38.805039 64.946364 16.691965
-39.112415 65.074211 15.433002
-40.035309 62.682873 18.235349
-39.599247 63.891409 16.846182
-35.794468 55.271569 33.454094
-36.903124 54.548569 33.63871
-35.502068 56.467354 32.194236
-35.794468 55.271569 33.454094
-40.526067 55.35358 29.365581
-41.322902 54.425266 29.401544
-40.199117 56.611973 28.142416
-40.526067 55.35358 29.365581
-39.68243 56.269565 29.274259
-32.159061 61.495464 27.832619
-33.325869 60.816879 28.087074
-32.541823 60.273468 29.142913
-31.777615 62.714592 26.540372
-32.159061 61.495464 27.832619
-30.993569 62.17118 27.596212
-27.610644 69.029991 21.180738
-28.107287 67.782608 22.363716
-26.968728 68.492912 22.329431
-28.187997 69.547439 19.967495
-27.610644 69.029991 21.180738
-28.801867 70.0719 18.800413
-29.363073 68.844147 20.047941
-28.187997 69.547439 19.967495
-29.360923 70.549866 17.572689
-28.801867 70.0719 18.800413
-43.175223 54.119586 24.720128
-42.664186 55.305568 24.7276
-37.810442 67.247291 13.828383
-37.405577 67.059959 15.089185
-36.897812 68.178085 13.638783
-38.665459 66.229141 13.996642
-37.810442 67.247291 13.828383
-39.112415 65.074211 15.433002
-38.665459 66.229141 13.996642
-27.595163 64.293402 27.013658
-28.695815 63.558172 27.184497
-27.240427 65.503738 25.847473
-27.595163 64.293402 27.013658
-26.511437 65.020193 26.921171
-25.165774 66.974846 25.776806
-25.500427 65.799729 26.828855
-25.733463 67.461761 24.639538
-25.165774 66.974846 25.776806
-26.387799 67.969261 23.51825
-26.811036 66.73803 24.633698
-25.733463 67.461761 24.639538
-26.968728 68.492912 22.329431
-26.387799 67.969261 23.51825
-42.689936 53.850498 27.086671
-43.196865 52.747783 27.027112
-41.724785 54.683613 28.246891
-41.322902 54.425266 29.401544
-42.108225 54.950707 27.088487
-41.724785 54.683613 28.246891
-41.426195 55.963082 27.075335
-42.391346 55.129967 25.915115
-42.689936 53.850498 27.086671
-42.108225 54.950707 27.088487
-42.082476 56.405777 24.729416
-42.664186 55.305568 24.7276
-42.391346 55.129967 25.915115
-41.711544 57.680889 23.491106
-42.082476 56.405777 24.729416
-41.438704 57.505287 24.678621
-41.337986 58.946483 22.231815
-41.711544 57.680889 23.491106
-33.808326 70.689209 13.04164
-33.312285 70.378898 14.283365
-34.895214 69.893333 13.238022
-33.808326 70.689209 13.04164
-34.26701 70.949624 11.797322
-36.328287 69.259582 12.185842
-36.897812 68.178085 13.638783
-35.923422 69.07225 13.446644
-36.328287 69.259582 12.185842
-35.793665 70.30172 10.711664
-29.468138 64.083628 26.121963
-29.839799 62.864852 27.366499
-28.695815 63.558172 27.184497
-31.656592 70.723107 15.296098
-32.811584 70.013192 15.487526
-32.280139 69.61142 16.699233
-29.935026 71.02623 16.386162
-30.551044 69.844971 17.694332
-29.360923 70.549866 17.572689
-30.468212 71.440216 15.143977
-29.935026 71.02623 16.386162
-31.656592 70.723107 15.296098
-30.468212 71.440216 15.143977
-43.402632 52.847904 25.850558
-43.175223 54.119586 24.720128
-40.912437 60.207234 20.927823
-41.337986 58.946483 22.231815
-40.642224 60.041149 22.136319
-40.497712 61.452041 19.59894
-39.754272 62.53273 19.468736
-40.035309 62.682873 18.235349
-40.912437 60.207234 20.927823
-40.497712 61.452041 19.59894
-38.409796 55.449078 31.485175
-39.060161 55.847217 30.378662
-37.668219 54.985764 32.560709
-36.903124 54.548569 33.63871
-37.369366 56.219948 31.335435
-38.409796 55.449078 31.485175
-37.668219 54.985764 32.560709
-35.179585 57.686486 30.927529
-36.305306 56.975765 31.144262
-35.502068 56.467354 32.194236
-34.042489 58.386479 30.687436
-34.845726 58.89489 29.637462
-35.179585 57.686486 30.927529
-32.876511 59.069565 30.432539
-34.042489 58.386479 30.687436
-32.541823 60.273468 29.142913
-32.876511 59.069565 30.432539
3 0 43 45
3 43 12 44
3 43 44 45
3 46 14 47
3 1 18 16
3 48 21 49
3 4 22 11
3 4 23 22
3 50 26 51
3 52 51 24
3 50 51 52
3 53 27 54
3 56 55 27
3 6 30 28
3 8 31 13
3 8 32 31
3 2 33 20
3 9 34 15
3 9 35 34
3 9 36 35
3 3 57 58
3 7 37 29
3 10 38 17
3 10 39 38
3 5 40 25
3 59 41 60
3 61 60 19
3 59 60 61
3 63 62 41
3 64 42 65
3 67 66 42
3 68 11 69
3 12 70 72
3 70 11 71
3 70 71 72
3 12 4 11
3 73 13 74
3 75 74 6
3 73 74 75
3 14 76 78
3 76 13 77
3 76 77 78
3 14 8 13
3 79 15 80
3 81 80 2
3 79 80 81
3 82 15 83
3 84 9 85
3 86 85 15
3 84 85 86
3 88 87 9
3 90 89 3
3 16 17 7
3 18 17 16
3 18 10 17
3 91 19 92
3 93 92 5
3 91 92 93
3 94 19 95
3 97 96 19
3 98 20 99
3 21 100 102
3 100 20 101
3 100 101 102
3 21 2 20
3 103 21 104
3 105 21 106
3 107 2 108
3 109 108 21
3 107 108 109
3 111 110 2
3 112 3 113
3 11 114 115
3 22 116 118
3 118 117 11
3 116 117 118
3 22 119 121
3 119 3 120
3 119 120 121
3 22 122 124
3 124 123 3
3 122 123 124
3 23 125 127
3 127 126 22
3 125 126 127
3 23 128 129
3 24 25 1
3 26 25 24
3 26 5 25
3 130 26 131
3 27 132 134
3 132 26 133
3 132 133 134
3 27 5 26
3 27 135 137
3 137 136 5
3 135 136 137
3 139 138 27
3 28 29 0
3 30 29 28
3 30 7 29
3 13 30 6
3 31 30 13
3 31 7 30
3 31 16 7
3 32 16 31
3 32 1 16
3 20 140 142
3 140 14 141
3 140 141 142
3 33 14 20
3 33 8 14
3 15 33 2
3 34 33 15
3 34 8 33
3 34 32 8
3 35 32 34
3 35 1 32
3 35 24 1
3 36 24 35
3 36 143 145
3 145 144 24
3 143 144 145
3 146 36 147
3 148 147 9
3 146 147 148
3 149 36 150
3 152 151 36
3 154 153 3
3 29 12 0
3 37 12 29
3 37 4 12
3 17 37 7
3 38 37 17
3 38 4 37
3 38 23 4
3 39 23 38
3 39 155 157
3 157 156 23
3 155 156 157
3 25 18 1
3 40 18 25
3 40 10 18
3 19 40 5
3 41 40 19
3 41 10 40
3 41 39 10
3 158 39 159
3 160 159 41
3 158 159 160
3 162 161 39
3 163 0 164
3 42 165 166
3 42 167 169
3 167 0 168
3 167 168 169
3 42 28 0
3 170 28 171
3 172 171 42
3 170 171 172
3 173 6 174
3 175 174 28
3 173 174 175
3 176 6 177
3 179 178 6
