ply
format ascii 1.0
element vertex 297
property float x
property float y
property float z
element face 276
property list uchar int vertex_index
end_header
1.548695 -32.919533 81.037666
0.137815 -20.225912 86.174049
-5.24769 -42.843502 64.323936
-6.229799 -39.477226 54.966267
-0.925852 -32.407429 70.630714
-0.399723 -13.473104 84.756157
1.559549 -26.470516 79.50589
0.784613 -26.372211 74.3564
0.660759 -32.74979 75.982437
0.713388 -13.161424 81.080406
1.153034 -19.919142 82.619148
1.509706 -26.579889 84.005356
-5.109741 -36.806633 62.042187
-6.302057 -41.473831 59.298523
-3.284447 -37.886078 67.238068
0.434307 -26.851961 87.225822
1.453245 -33.035179 85.223625
1.603621 -29.722427 80.260643
1.272787 -29.665257 77.755287
1.210432 -32.845894 78.578323
0.494165 -35.843395 76.908409
-0.119581 -16.862238 85.497803
0.503256 -16.660482 83.836235
0.758173 -20.027693 84.565994
1.360537 -23.260782 83.33786
0.973824 -23.375719 85.229156
-5.22921 -39.885723 63.109924
-5.892307 -39.195908 60.597706
-5.886761 -42.235291 61.747795
0.056635 -29.458168 72.472672
-1.878849 -32.105984 67.966064
-3.086246 -34.826729 66.222076
-2.080248 -35.215343 68.876732
-0.519709 -27.050148 88.192703
0.394411 -30.049755 87.592987
1.122536 -29.944229 86.321785
0.96595 -33.075832 86.781334
-6.388508 -37.329163 56.060444
-6.117973 -36.16555 54.122562
-0.952711 -17.179493 86.785042
-5.741568 -45.138554 63.022297
1.458895 -23.185532 78.7556
1.262398 -26.435013 76.975174
0.747034 -29.586763 75.13829
-0.064127 -32.612175 73.316025
-1.110386 -35.496567 71.565681
-0.235971 -35.698097 74.256531
0.246351 -13.267254 83.064743
0.926331 -16.557228 81.859886
1.340218 -19.877947 80.405891
1.514473 -23.205643 81.153519
1.651093 -26.510643 81.876076
1.708363 -29.780472 82.578911
-5.770075 -36.034668 59.604118
-6.300323 -38.34388 58.232002
-6.430498 -40.552078 57.023735
-6.142588 -44.468109 60.498272
-6.297964 -43.643204 58.128098
-6.16432 -42.664318 55.955341
-4.055401 -34.303009 63.632229
-4.252224 -37.417488 64.600197
-4.389906 -40.426933 65.722961
-2.287956 -38.237968 69.922684
-3.456224 -40.842201 68.398239
-1.999388 -17.612356 87.660683
-0.719557 -20.521414 87.386185
-0.564131 -23.821295 87.861008
0.335148 -23.562927 86.755203
1.10984 -26.692642 85.812599
1.556313 -29.852997 84.626816
1.640163 -32.981701 83.281441
1.292809 -34.434166 80.252288
1.123677 -34.397346 79.022617
1.379563 -32.882714 79.807995
-0.845719 -30.827223 70.219486
-0.354476 -29.352593 71.140465
-0.434609 -30.932799 71.551693
-1.402351 -32.256706 69.298389
-1.322218 -30.6765 68.887161
-0.845719 -30.827223 70.219486
0.283116 -31.572375 87.740135
-0.114476 -30.104184 87.992935
0.568885 -33.085413 87.334308
0.68018 -31.562793 87.187161
0.283116 -31.572375 87.740135
-1.600066 -15.72495 86.908394
-1.091523 -15.491962 86.438813
0.006695 -37.268978 76.108825
0.356548 -37.340246 77.421543
0.859911 -13.139917 79.977947
0.626451 -11.436028 80.690418
0.937968 -14.841451 80.360905
0.859911 -13.139917 79.977947
-0.076686 -13.370179 83.91045
-0.209371 -11.656337 83.522969
-0.532408 -11.759262 84.368675
-5.439908 -36.420651 60.823152
-5.336239 -34.82799 60.372709
-5.006072 -35.213972 61.591743
-5.980149 -45.891934 61.144735
-5.942078 -44.803331 61.760284
-5.779638 -46.227156 62.406748
-6.105161 -44.678421 57.589674
-6.141552 -45.116574 58.730744
-6.038339 -44.188978 56.503296
-6.231142 -43.153761 57.041719
-6.105161 -44.678421 57.589674
-5.869595 -43.679655 55.466606
-6.038339 -44.188978 56.503296
0.792763 -24.740969 73.989532
0.999945 -24.769372 75.289185
-3.459974 -32.990458 64.49336
-3.931859 -32.699976 63.22959
-1.810742 -38.368919 71.273407
-1.699171 -36.867267 70.744182
-1.221958 -36.998219 72.094905
-3.525385 -42.260786 69.043472
-2.980559 -40.99982 69.751068
-3.957367 -42.079491 67.690682
-3.525385 -42.260786 69.043472
-1.906742 -19.259258 87.915059
-2.626101 -17.878105 87.888859
-1.266827 -20.713787 87.777809
-1.359472 -19.066885 87.523434
-1.906742 -19.259258 87.915059
0.765543 -35.896097 78.18766
0.852298 -34.344645 77.743366
1.123677 -34.397346 79.022617
0.356548 -37.340246 77.421543
0.765543 -35.896097 78.18766
0.367173 -11.495538 81.679004
0.626451 -11.436028 80.690418
0.103055 -27.852203 72.091515
0.467044 -26.309224 73.033379
0.420624 -27.91519 73.414536
0.103055 -27.852203 72.091515
-0.354476 -29.352593 71.140465
-1.778202 -30.513272 67.575016
-1.322218 -30.6765 68.887161
-2.371698 -31.891945 66.660278
-1.778202 -30.513272 67.575016
-2.482547 -33.466357 67.09407
-2.975397 -33.252318 65.788284
-2.371698 -31.891945 66.660278
-0.571536 -28.60438 88.292793
-1.128645 -27.160595 88.441326
-0.062649 -28.549951 87.892845
-0.571536 -28.60438 88.292793
-0.114476 -30.104184 87.992935
-6.288639 -35.66026 55.665535
-6.269825 -36.211647 56.696169
-6.153372 -35.078453 54.696594
-6.288639 -35.66026 55.665535
-6.253241 -36.747357 55.091503
-5.983722 -34.455677 53.788143
-6.153372 -35.078453 54.696594
-0.957766 -11.931328 85.051952
-0.532408 -11.759262 84.368675
-0.815029 -13.638768 85.42437
-0.957766 -11.931328 85.051952
-0.674958 -15.333335 85.795193
-0.259652 -15.167671 85.12698
-0.815029 -13.638768 85.42437
-0.536146 -17.020865 86.141423
-0.674958 -15.333335 85.795193
-1.091523 -15.491962 86.438813
-5.447836 -45.40275 64.338351
-5.494629 -43.991028 63.673117
-5.200897 -44.255224 64.98917
-5.5969 -46.517523 63.702307
-5.447836 -45.40275 64.338351
-5.779638 -46.227156 62.406748
-5.5969 -46.517523 63.702307
1.337086 -23.176032 77.488785
1.398299 -21.527922 78.379921
1.238837 -24.800773 76.598572
1.337086 -23.176032 77.488785
1.360647 -24.810272 77.865387
1.023505 -26.403612 75.665787
0.999945 -24.769372 75.289185
1.238837 -24.800773 76.598572
-0.78475 -37.098984 73.44033
-1.221958 -36.998219 72.094905
-0.673179 -35.597332 72.911106
-0.358374 -37.196329 74.782886
0.129097 -35.770746 75.58247
0.006695 -37.268978 76.108825
-0.78475 -37.098984 73.44033
-0.358374 -37.196329 74.782886
-5.958734 -38.873779 54.059378
-5.975964 -40.51178 54.488604
0.133654 -11.548453 82.671173
-0.209371 -11.656337 83.522969
0.47987 -13.214339 82.072575
0.367173 -11.495538 81.679004
0.133654 -11.548453 82.671173
1.044439 -16.539352 80.750644
0.937968 -14.841451 80.360905
0.819859 -14.859326 81.470146
1.251383 -18.199712 80.023647
1.044439 -16.539352 80.750644
1.133274 -18.217588 81.132889
1.33896 -19.874129 79.205067
1.251383 -18.199712 80.023647
1.399557 -21.53174 79.580746
1.398299 -21.527922 78.379921
1.33896 -19.874129 79.205067
-5.653457 -34.401428 59.196788
-5.336239 -34.82799 60.372709
-5.960609 -35.5644 58.468006
-5.653457 -34.401428 59.196788
-6.225732 -36.719005 57.781948
-5.960609 -35.5644 58.468006
-6.035199 -37.189274 58.91806
-6.344416 -37.836522 57.146223
-6.269825 -36.211647 56.696169
-6.225732 -36.719005 57.781948
-6.063864 -45.529026 59.91583
-5.980149 -45.891934 61.144735
-5.901425 -46.95285 60.562294
-6.220276 -44.055656 59.313185
-6.063864 -45.529026 59.91583
-6.141552 -45.116574 58.730744
-5.943225 -42.105325 54.983141
-5.975964 -40.51178 54.488604
-6.197059 -41.070772 55.460804
-5.6485 -43.120662 54.494406
-5.943225 -42.105325 54.983141
-5.869595 -43.679655 55.466606
0.792763 -24.740969 73.989532
0.467044 -26.309224 73.033379
-4.478902 -33.96216 62.386764
-3.931859 -32.699976 63.22959
-4.582571 -35.554821 62.837208
-5.006072 -35.213972 61.591743
-4.478902 -33.96216 62.386764
-3.570823 -34.564869 64.927153
-3.459974 -32.990458 64.49336
-2.975397 -33.252318 65.788284
-2.396425 -39.697704 70.513291
-1.810742 -38.368919 71.273407
-2.87209 -39.540085 69.160461
-2.396425 -39.697704 70.513291
-2.980559 -40.99982 69.751068
-4.424207 -41.871856 66.353043
-3.923065 -40.634567 67.0606
-3.957367 -42.079491 67.690682
-4.8531 -43.080141 65.65353
-4.818798 -41.635217 65.023449
-4.424207 -41.871856 66.353043
-5.200897 -44.255224 64.98917
-4.8531 -43.080141 65.65353
-2.723058 -16.237043 87.610093
-3.34977 -16.502792 87.838268
-2.626101 -17.878105 87.888859
-2.123404 -15.941381 87.346215
-2.847074 -14.566068 87.295624
-2.723058 -16.237043 87.610093
-1.47605 -17.395924 87.222863
-1.600066 -15.72495 86.908394
-2.123404 -15.941381 87.346215
-1.118695 -25.593573 88.355209
-1.128645 -27.160595 88.441326
-1.140906 -23.979146 88.189361
-1.118695 -25.593573 88.355209
-0.54192 -25.435721 88.026855
-1.189113 -22.363727 88.015221
-1.140906 -23.979146 88.189361
-0.641844 -22.171354 87.623596
-1.266827 -20.713787 87.777809
-1.189113 -22.363727 88.015221
0.78099 -34.548194 87.004513
0.568885 -33.085413 87.334308
1.060555 -34.570871 86.304066
0.78099 -34.548194 87.004513
1.304202 -34.550545 85.525211
1.209597 -33.055505 86.002479
1.060555 -34.570871 86.304066
1.427262 -34.549256 84.617481
1.304202 -34.550545 85.525211
1.520721 -34.522517 83.646389
1.546704 -33.00844 84.252533
1.427262 -34.549256 84.617481
1.495969 -34.501943 82.571785
1.520721 -34.522517 83.646389
1.450235 -34.47086 81.449897
1.594429 -32.950617 82.159554
1.495969 -34.501943 82.571785
1.292809 -34.434166 80.252288
1.450235 -34.47086 81.449897
-5.902821 -37.217941 53.637526
-6.173886 -37.821388 54.544415
-5.958734 -38.873779 54.059378
-5.801666 -35.52227 53.280035
-5.902821 -37.217941 53.637526
-5.983722 -34.455677 53.788143
-5.801666 -35.52227 53.280035
3 0 19 17
3 0 71 73
3 73 72 19
3 71 72 73
3 1 23 21
3 1 25 23
3 2 28 26
3 4 74 76
3 76 75 29
3 74 75 76
3 4 77 79
3 77 30 78
3 77 78 79
3 4 32 30
3 80 34 81
3 82 36 83
3 84 83 34
3 82 83 84
3 3 38 37
3 85 39 86
3 6 42 41
3 8 43 18
3 8 44 43
3 8 46 44
3 88 87 20
3 9 89 90
3 9 91 92
3 5 93 95
3 93 47 94
3 93 94 95
3 10 48 22
3 10 49 48
3 10 50 49
3 11 51 24
3 11 52 51
3 12 96 98
3 96 53 97
3 96 97 98
3 13 54 27
3 13 55 54
3 99 56 100
3 101 100 40
3 99 100 101
3 102 57 103
3 104 58 105
3 106 105 57
3 104 105 106
3 108 107 58
3 7 109 110
3 111 59 112
3 14 60 31
3 14 61 60
3 113 62 114
3 115 114 45
3 113 114 115
3 116 63 117
3 119 118 63
3 120 64 121
3 122 65 123
3 124 123 64
3 122 123 124
3 15 66 33
3 15 67 66
3 15 68 67
3 16 69 35
3 16 70 69
3 17 18 6
3 19 18 17
3 19 8 18
3 19 20 8
3 125 20 126
3 127 126 19
3 125 126 127
3 129 128 20
3 130 9 131
3 21 22 5
3 23 22 21
3 23 10 22
3 23 24 10
3 25 24 23
3 25 11 24
3 26 27 12
3 28 27 26
3 28 13 27
3 29 132 134
3 134 133 7
3 132 133 134
3 136 135 29
3 30 137 138
3 30 139 140
3 30 141 143
3 141 31 142
3 141 142 143
3 32 31 30
3 32 14 31
3 144 33 145
3 34 146 148
3 146 33 147
3 146 147 148
3 34 15 33
3 34 35 15
3 36 35 34
3 36 16 35
3 37 149 150
3 38 151 153
3 153 152 37
3 151 152 153
3 38 154 155
3 156 5 157
3 158 5 159
3 160 21 161
3 162 161 5
3 160 161 162
3 39 163 165
3 163 21 164
3 163 164 165
3 39 1 21
3 166 40 167
3 168 167 2
3 166 167 168
3 169 40 170
3 172 171 40
3 41 173 174
3 42 175 177
3 177 176 41
3 175 176 177
3 42 178 180
3 178 7 179
3 178 179 180
3 18 42 6
3 43 42 18
3 43 7 42
3 43 29 7
3 44 29 43
3 44 4 29
3 44 45 4
3 46 45 44
3 46 181 183
3 183 182 45
3 181 182 183
3 20 46 8
3 184 46 185
3 186 185 20
3 184 185 186
3 188 187 46
3 190 189 3
3 47 191 192
3 47 193 195
3 193 9 194
3 193 194 195
3 22 47 5
3 48 47 22
3 48 9 47
3 48 196 198
3 198 197 9
3 196 197 198
3 49 199 201
3 201 200 48
3 199 200 201
3 49 202 203
3 49 204 206
3 204 41 205
3 204 205 206
3 50 41 49
3 50 6 41
3 24 50 10
3 51 50 24
3 51 6 50
3 51 17 6
3 52 17 51
3 52 0 17
3 53 207 208
3 53 209 210
3 27 53 12
3 54 53 27
3 54 211 213
3 213 212 53
3 211 212 213
3 54 214 216
3 214 37 215
3 214 215 216
3 55 37 54
3 55 3 37
3 40 28 2
3 56 28 40
3 56 13 28
3 217 56 218
3 217 218 219
3 57 220 222
3 220 56 221
3 220 221 222
3 57 13 56
3 57 55 13
3 58 55 57
3 58 3 55
3 58 223 225
3 225 224 3
3 223 224 225
3 228 227 58
3 226 227 228
3 230 229 7
3 59 231 232
3 59 233 235
3 233 12 234
3 233 234 235
3 31 236 238
3 236 59 237
3 236 237 238
3 60 59 31
3 60 12 59
3 60 26 12
3 61 26 60
3 61 2 26
3 45 32 4
3 62 32 45
3 62 14 32
3 239 62 240
3 63 241 243
3 241 62 242
3 241 242 243
3 63 14 62
3 63 61 14
3 244 61 245
3 246 245 63
3 244 245 246
3 247 2 248
3 249 248 61
3 247 248 249
3 251 250 2
3 64 252 254
3 252 253 254
3 64 255 257
3 255 256 257
3 64 258 260
3 258 39 259
3 258 259 260
3 65 39 64
3 65 1 39
3 33 261 262
3 66 263 265
3 265 264 33
3 263 264 265
3 66 266 267
3 66 268 270
3 268 65 269
3 268 269 270
3 67 65 66
3 67 1 65
3 67 25 1
3 68 25 67
3 68 11 25
3 35 68 15
3 69 68 35
3 69 11 68
3 69 52 11
3 70 52 69
3 70 0 52
3 271 36 272
3 273 36 274
3 275 16 276
3 277 276 36
3 275 276 277
3 278 16 279
3 280 70 281
3 282 281 16
3 280 281 282
3 283 70 284
3 285 0 286
3 287 286 70
3 285 286 287
3 289 288 0
3 290 38 291
3 292 291 3
3 290 291 292
3 293 38 294
3 296 295 38
