ply
format ascii 1.0
element vertex 172
property float x
property float y
property float z
element face 159
property list uchar int vertex_index
end_header
13.597265 88.057419 2.25206
19.372826 81.15258 14.302153
23.954544 81.487411 2.167412
26.309021 78.22686 8.123588
12.004593 87.726654 9.16751
14.898492 84.368851 15.198197
16.691807 85.255722 8.349497
23.780708 77.539314 13.808842
21.463161 81.7323 7.980089
18.674107 85.064819 1.933063
30.270363 76.762787 5.87231
12.796946 88.037804 5.656244
11.223671 88.951172 2.611775
18.451321 80.48056 17.592299
16.273411 82.114883 18.115108
17.152912 82.875076 14.706627
15.778865 84.959526 11.734126
18.082727 83.349724 11.359032
25.192976 79.931984 5.165218
23.872635 79.926659 7.984209
22.653488 81.69323 5.001317
20.138826 83.514061 4.971479
21.298031 83.277618 1.981733
20.583626 78.697037 17.151773
27.337387 76.364365 11.023839
28.758575 76.66404 8.397055
27.744122 78.290794 5.459864
26.625414 79.783554 2.483613
25.37429 81.153404 -0.511421
14.045637 83.479141 18.710741
12.630701 85.510345 15.768923
13.471842 86.254303 12.204294
14.323814 86.693764 8.706625
15.192981 86.837494 5.303944
21.571527 79.333237 13.996959
24.984348 77.982033 10.908309
22.665987 79.736649 10.933066
20.373133 81.563225 11.087981
19.073273 83.552666 8.10471
17.649807 85.278305 5.073688
16.097866 86.711174 2.02357
23.262874 82.189517 0.660178
21.934618 83.084621 0.567338
22.626288 82.382514 2.074572
21.164904 77.35923 18.519976
20.137207 78.258507 18.757922
29.969226 75.934101 8.593995
29.232502 75.775711 9.837866
28.509969 78.240109 4.188239
29.007243 77.526791 5.666087
29.773089 77.476105 4.394462
27.950615 78.986489 2.700114
27.184768 79.037174 3.971738
28.509969 78.240109 4.188239
27.394917 79.643619 1.212884
27.950615 78.986489 2.700114
10.902932 87.983749 9.443202
10.504603 87.676552 11.239556
11.606265 87.419456 10.963864
23.241753 77.213154 15.309811
24.315182 76.347897 15.200637
22.676118 78.436275 13.902901
22.137162 78.110115 15.40387
23.241753 77.213154 15.309811
17.871517 85.710236 0.41247
16.583397 86.533413 0.457724
17.385987 85.887996 1.978317
24.674268 81.774258 -2.006324
26.143983 80.933303 -1.770093
31.491864 76.021335 6.12527
30.72512 75.983475 7.331622
31.060617 76.712177 4.657814
31.491864 76.021335 6.12527
29.773089 77.476105 4.394462
31.060617 76.712177 4.657814
11.658262 88.391125 5.887964
11.262085 88.23555 7.643597
12.400769 87.882229 7.411877
10.871624 88.847809 4.36573
11.658262 88.391125 5.887964
12.010309 88.494488 4.13401
10.136933 89.111626 2.849511
10.871624 88.847809 4.36573
17.362366 81.297721 17.853704
16.934744 80.82806 19.518751
18.023699 80.010898 19.257347
24.904689 76.700336 13.782726
24.315182 76.347897 15.200637
20.54551 83.970852 0.466241
19.233548 84.864452 0.441906
19.986069 84.171219 1.957398
20.54551 83.970852 0.466241
21.934618 83.084621 0.567338
19.071055 79.150268 18.978185
18.023699 80.010898 19.257347
19.517474 79.588798 17.372036
19.071055 79.150268 18.978185
20.137207 78.258507 18.757922
28.521908 75.625874 11.151258
27.829186 75.351669 12.43777
29.013708 74.613179 12.565189
28.047981 76.514203 9.710447
28.521908 75.625874 11.151258
29.232502 75.775711 9.837866
29.514469 76.713414 7.134683
29.969226 75.934101 8.593995
30.72512 75.983475 7.331622
26.769355 80.328544 -0.284633
25.999852 80.468479 0.986096
27.394917 79.643619 1.212884
26.143983 80.933303 -1.770093
26.769355 80.328544 -0.284633
10.902932 87.983749 9.443202
11.262085 88.23555 7.643597
12.766077 88.465492 0.735846
14.015109 87.935154 0.616861
15.854678 81.592254 19.832643
16.934744 80.82806 19.518751
14.740791 82.274383 20.13046
15.854678 81.592254 19.832643
15.159524 82.797012 18.412924
13.632563 82.889012 20.476472
14.740791 82.274383 20.13046
12.924266 83.973236 19.042111
12.511193 83.383106 20.807842
13.632563 82.889012 20.476472
12.216798 84.988838 17.571202
12.924266 83.973236 19.042111
13.338169 84.494743 17.239832
11.519541 85.853943 16.089268
12.216798 84.988838 17.571202
11.919319 86.311302 14.264571
10.808159 86.654899 14.584916
11.519541 85.853943 16.089268
12.339889 86.683281 12.482257
11.919319 86.311302 14.264571
13.051272 85.882324 13.986608
12.738218 86.990478 10.685902
11.606265 87.419456 10.963864
12.339889 86.683281 12.482257
21.643211 77.792015 16.981276
21.164904 77.35923 18.519976
21.077576 79.015137 15.574366
21.643211 77.792015 16.981276
22.137162 78.110115 15.40387
26.683029 76.112862 12.390225
27.829186 75.351669 12.43777
25.506509 76.921696 12.332459
26.683029 76.112862 12.390225
26.160868 77.173199 10.966074
24.382528 77.760673 12.358576
24.904689 76.700336 13.782726
25.506509 76.921696 12.332459
15.26541 87.262032 0.502615
14.015109 87.935154 0.616861
14.847565 87.384297 2.137815
15.26541 87.262032 0.502615
16.583397 86.533413 0.457724
17.871517 85.710236 0.41247
19.233548 84.864452 0.441906
23.972747 82.022514 -0.679239
23.262874 82.189517 0.660178
24.664417 81.320407 0.827996
23.972747 82.022514 -0.679239
24.674268 81.774258 -2.006324
11.57928 88.912369 0.915703
12.410468 88.504295 2.431917
12.766077 88.465492 0.735846
10.433497 89.173713 1.103993
11.57928 88.912369 0.915703
10.136933 89.111626 2.849511
10.433497 89.173713 1.103993
3 0 12 11
3 1 15 13
3 1 17 15
3 2 20 18
3 2 22 20
3 2 41 43
3 43 42 22
3 41 42 43
3 44 23 45
3 46 25 47
3 48 26 49
3 50 49 10
3 48 49 50
3 51 27 52
3 53 52 26
3 51 52 53
3 55 54 27
3 4 56 58
3 56 57 58
3 5 29 14
3 5 30 29
3 5 31 30
3 6 32 16
3 6 33 32
3 7 59 60
3 7 61 63
3 61 34 62
3 61 62 63
3 3 35 24
3 8 36 19
3 8 37 36
3 8 38 37
3 9 39 21
3 9 40 39
3 9 64 66
3 66 65 40
3 64 65 66
3 68 67 28
3 69 10 70
3 71 10 72
3 74 73 10
3 11 75 77
3 77 76 4
3 75 76 77
3 12 78 80
3 80 79 11
3 78 79 80
3 12 81 82
3 13 83 85
3 83 14 84
3 83 84 85
3 15 14 13
3 15 5 14
3 15 16 5
3 17 16 15
3 17 6 16
3 86 7 87
3 18 19 3
3 20 19 18
3 20 8 19
3 20 21 8
3 22 21 20
3 22 9 21
3 22 88 90
3 90 89 9
3 88 89 90
3 92 91 22
3 93 13 94
3 23 95 97
3 95 13 96
3 95 96 97
3 23 1 13
3 98 24 99
3 98 99 100
3 25 101 103
3 101 24 102
3 101 102 103
3 25 3 24
3 10 104 106
3 104 25 105
3 104 105 106
3 26 25 10
3 26 3 25
3 26 18 3
3 27 18 26
3 27 2 18
3 27 28 2
3 107 28 108
3 109 108 27
3 107 108 109
3 111 110 28
3 113 112 4
3 115 114 0
3 14 116 117
3 29 118 120
3 120 119 14
3 118 119 120
3 29 121 122
3 29 123 125
3 123 124 125
3 30 126 128
3 128 127 29
3 126 127 128
3 30 129 130
3 30 131 133
3 131 132 133
3 31 134 136
3 136 135 30
3 134 135 136
3 31 137 139
3 137 4 138
3 137 138 139
3 16 31 5
3 32 31 16
3 32 4 31
3 32 11 4
3 33 11 32
3 33 0 11
3 140 23 141
3 34 142 144
3 142 23 143
3 142 143 144
3 34 1 23
3 24 145 146
3 35 147 149
3 149 148 24
3 147 148 149
3 35 150 152
3 150 7 151
3 150 151 152
3 19 35 3
3 36 35 19
3 36 7 35
3 36 34 7
3 37 34 36
3 37 1 34
3 37 17 1
3 38 17 37
3 38 6 17
3 21 38 8
3 39 38 21
3 39 6 38
3 39 33 6
3 40 33 39
3 40 0 33
3 40 153 155
3 155 154 0
3 153 154 155
3 157 156 40
3 159 158 9
3 28 160 162
3 162 161 2
3 160 161 162
3 164 163 28
3 165 12 166
3 167 166 0
3 165 166 167
3 168 12 169
3 171 170 12
