ply
format ascii 1.0
element vertex 273
property float x
property float y
property float z
element face 274
property list uchar int vertex_index
end_header
-63.708206 -43.193531 45.653805
-53.247913 -33.944904 48.152992
-66.604118 -35.499146 39.126747
-66.492767 -45.524002 39.416168
-56.059772 -42.279228 47.926651
-60.787399 -34.092163 44.073086
-51.697372 -42.290276 48.138386
-56.966141 -33.870522 46.02533
-59.725143 -29.925747 44.833031
-62.979744 -30.138847 42.021713
-50.134743 -38.135033 48.369205
-65.352646 -39.297501 42.536667
-65.894882 -44.212227 42.954048
-66.874435 -40.42485 39.553192
-66.612068 -41.755554 36.013878
-60.249344 -42.565536 47.265923
-54.178123 -37.947601 47.154438
-58.406837 -38.092331 46.09922
-62.340458 -38.522163 44.696144
-64.210228 -34.619717 41.876534
-60.998901 -27.953342 44.181488
-62.76321 -45.203026 47.001526
-64.16024 -45.623085 45.860867
-66.029587 -37.394291 40.847446
-66.326859 -39.822861 41.136906
-66.832855 -37.939384 39.352257
-67.091133 -39.198898 35.971069
-66.524521 -39.858906 34.179314
-65.832962 -42.420734 34.152
-54.982895 -44.464352 48.679028
-57.125763 -44.524025 48.620247
-59.181335 -44.661503 48.359013
-58.208946 -42.384605 47.689957
-51.64809 -36.000332 48.269939
-52.112251 -37.990875 47.714508
-53.561176 -35.895199 47.388382
-58.890244 -33.946548 45.052513
-57.589386 -35.945389 45.85379
-59.608742 -36.076355 45.096046
-60.448288 -38.268745 45.472672
-61.54287 -36.278603 44.263115
-63.312084 -36.561058 43.299526
-62.587154 -34.313591 43.030735
-66.398758 -44.844849 41.265129
-65.923447 -46.745258 42.758511
-53.870056 -42.245934 48.049618
-55.071835 -33.865871 47.044914
-56.593456 -31.885143 46.681496
-58.369347 -31.891815 45.440018
-60.162704 -31.968758 44.244621
-61.917389 -32.119774 43.047028
-61.377724 -29.991291 43.427307
-62.511883 -27.996307 42.584747
-48.270119 -38.403687 49.154568
-49.840378 -36.221989 49.273071
-64.576096 -41.226494 44.152615
-64.987823 -43.655678 44.431286
-65.711647 -41.724113 42.844185
-66.443161 -42.308525 41.31562
-66.742355 -42.958031 39.609833
-67.194969 -38.549446 37.711731
-66.96917 -41.079277 37.829124
-66.606873 -43.641781 37.776764
-66.061905 -44.323479 35.863171
-61.082977 -44.884567 47.831924
-62.10688 -42.831711 46.597744
-50.773502 -40.165794 48.013702
-52.878937 -40.080482 47.676079
-55.041862 -40.081879 47.37949
-55.554893 -35.882671 46.598442
-56.294167 -37.985138 46.637238
-57.212498 -40.156441 47.054543
-59.32724 -40.300579 46.627686
-61.311832 -40.520065 46.031548
-63.08709 -40.825638 45.215343
-64.001373 -38.862968 43.724625
-64.833755 -36.932243 42.166267
-65.574936 -35.015862 40.578316
-63.564243 -32.353573 41.797405
-65.025848 -32.677773 40.454449
-65.224396 -46.142044 44.432003
-66.438633 -38.901506 33.257584
-66.820278 -38.582044 34.13616
-66.026356 -40.180099 33.279171
-66.438633 -38.901506 33.257584
-66.369445 -46.464936 40.155328
-66.322441 -46.125359 41.079809
-66.445763 -45.184426 40.340649
-52.255154 -43.385479 48.376875
-51.181679 -43.434406 48.326477
-52.783714 -42.268105 48.094002
-53.341496 -43.363308 48.332491
-52.255154 -43.385479 48.376875
-56.532217 -30.947847 47.244091
-55.73443 -31.919662 47.34416
-59.047245 -30.908781 45.136525
-58.222891 -30.912415 45.860745
-58.900789 -29.929381 45.557251
-62.336761 -26.978673 43.018753
-61.755392 -27.974825 43.383117
-61.58027 -26.957191 43.817124
-63.029535 -26.984555 42.138016
-62.336761 -26.978673 43.018753
-47.401379 -38.610273 49.622942
-47.568272 -39.540642 49.091301
-49.868588 -35.332211 49.995461
-48.995545 -36.402922 49.842287
-50.679737 -35.175411 49.323845
-49.868588 -35.332211 49.995461
-67.302814 -37.608419 36.777314
-67.213482 -37.303097 37.624153
-65.496353 -43.692813 34.028358
-65.261375 -42.73169 33.213752
-50.454122 -39.150413 48.191454
-49.767403 -40.261871 48.231909
-49.448023 -39.246491 48.40966
-65.391532 -31.696793 39.753147
-64.745159 -31.528182 40.514235
-65.624191 -32.885656 39.724256
-65.391532 -31.696793 39.753147
-65.613411 -47.702344 43.412149
-65.882187 -48.01633 42.473772
-50.641953 -42.358084 48.203279
-51.181679 -43.434406 48.326477
-59.600038 -28.957949 45.324114
-58.900789 -29.929381 45.557251
-60.236917 -27.971746 44.998342
-60.362022 -28.939545 44.50726
-59.600038 -28.957949 45.324114
-60.873893 -26.997138 44.7127
-60.236917 -27.971746 44.998342
-61.58027 -26.957191 43.817124
-60.873893 -26.997138 44.7127
-63.001697 -46.413374 47.0524
-62.262522 -46.226796 47.582409
-63.700212 -46.623404 46.482071
-63.001697 -46.413374 47.0524
-63.461725 -45.413055 46.431196
-64.295856 -46.860096 45.791848
-63.700212 -46.623404 46.482071
-67.103584 -38.25204 35.032038
-67.250896 -37.933145 35.906982
-66.807827 -39.528902 35.075192
-67.103584 -38.25204 35.032038
-66.820278 -38.582044 34.13616
-65.680577 -41.461013 33.265514
-66.178742 -41.13982 34.165657
-66.026356 -40.180099 33.279171
-65.261375 -42.73169 33.213752
-65.680577 -41.461013 33.265514
-55.546608 -45.589373 49.031855
-54.497841 -45.586371 48.979764
-56.618042 -45.619209 49.002465
-55.546608 -45.589373 49.031855
-56.054329 -44.494188 48.649637
-57.63257 -45.663269 48.948026
-56.618042 -45.619209 49.002465
-58.153549 -44.592764 48.48963
-58.660356 -45.732008 48.817409
-57.63257 -45.663269 48.948026
-63.722107 -30.258719 41.297866
-63.470733 -29.135849 41.505348
-66.084785 -47.075564 41.8265
-66.161102 -45.795054 42.01182
-66.322441 -46.125359 41.079809
-65.882187 -48.01633 42.473772
-66.084785 -47.075564 41.8265
-66.918057 -35.777946 38.331661
-66.841426 -34.545851 38.270661
-53.897915 -44.472517 48.647196
-54.497841 -45.586371 48.979764
-54.426475 -43.355143 48.364323
-53.897915 -44.472517 48.647196
-53.341496 -43.363308 48.332491
-54.973619 -32.910026 47.525869
-54.159874 -33.905388 47.598953
-54.061659 -32.949542 48.079908
-55.832645 -32.875507 46.863205
-54.973619 -32.910026 47.525869
-55.73443 -31.919662 47.34416
-57.334946 -30.909078 46.481484
-56.532217 -30.947847 47.244091
-57.481402 -31.888479 46.060757
-57.334946 -30.909078 46.481484
-58.222891 -30.912415 45.860745
-63.236803 -28.064579 41.786865
-63.470733 -29.135849 41.505348
-62.745813 -29.067577 42.30323
-63.236803 -28.064579 41.786865
-63.029535 -26.984555 42.138016
-66.348442 -46.805321 39.154797
-66.344337 -45.867954 38.436497
-48.515711 -39.380817 48.802341
-47.568272 -39.540642 49.091301
-49.202431 -38.26936 48.761887
-49.448023 -39.246491 48.40966
-48.515711 -39.380817 48.802341
-48.210415 -37.493771 49.783035
-47.401379 -38.610273 49.622942
-49.055249 -37.312838 49.213819
-48.210415 -37.493771 49.783035
-48.995545 -36.402922 49.842287
-51.583593 -35.064583 48.822279
-50.744234 -36.11116 48.771505
-50.679737 -35.175411 49.323845
-52.383505 -34.036869 48.763806
-52.448002 -34.972618 48.211466
-51.583593 -35.064583 48.822279
-53.243757 -33.029714 48.795298
-52.383505 -34.036869 48.763806
-54.061659 -32.949542 48.079908
-53.243757 -33.029714 48.795298
-67.032425 -36.998065 38.444416
-66.718486 -36.719265 39.239502
-66.918057 -35.777946 38.331661
-67.013912 -38.244415 38.531994
-67.032425 -36.998065 38.444416
-67.213482 -37.303097 37.624153
-67.143051 -38.874172 36.8414
-67.302814 -37.608419 36.777314
-67.250896 -37.933145 35.906982
-66.40139 -44.926844 37.616794
-66.344337 -45.867954 38.436497
-66.54982 -44.582892 38.596466
-66.128906 -45.267692 36.659998
-66.40139 -44.926844 37.616794
-66.334389 -43.98263 36.819968
-65.807369 -45.594761 35.64496
-66.128906 -45.267692 36.659998
-65.610825 -44.644186 34.883944
-65.947433 -43.372107 35.007586
-65.496353 -43.692813 34.028358
-65.807369 -45.594761 35.64496
-65.610825 -44.644186 34.883944
-59.612146 -45.820093 48.621221
-58.660356 -45.732008 48.817409
-60.562967 -45.931625 48.357677
-59.612146 -45.820093 48.621221
-60.132156 -44.773035 48.095468
-61.422405 -46.067566 47.997608
-60.562967 -45.931625 48.357677
-61.923094 -45.043796 47.416725
-62.262522 -46.226796 47.582409
-61.422405 -46.067566 47.997608
-50.180018 -41.295843 48.140937
-49.767403 -40.261871 48.231909
-51.235437 -41.228035 48.076044
-50.641953 -42.358084 48.203279
-50.180018 -41.295843 48.140937
-64.014357 -31.366081 41.185712
-63.271993 -31.24621 41.909559
-63.722107 -30.258719 41.297866
-64.295046 -32.515673 41.125927
-64.014357 -31.366081 41.185712
-64.745159 -31.528182 40.514235
-65.898735 -34.054701 39.78619
-65.300392 -33.846818 40.516382
-65.624191 -32.885656 39.724256
-66.413326 -34.296343 39.060406
-66.089527 -35.257504 39.852531
-65.898735 -34.054701 39.78619
-66.841426 -34.545851 38.270661
-66.413326 -34.296343 39.060406
-64.827934 -47.119575 45.077416
-64.295856 -46.860096 45.791848
-64.692318 -45.882565 45.146435
-65.263886 -47.400737 44.248896
-65.573921 -46.443651 43.595257
-65.613411 -47.702344 43.412149
-64.827934 -47.119575 45.077416
-65.263886 -47.400737 44.248896
-66.369445 -46.464936 40.155328
-66.348442 -46.805321 39.154797
3 0 22 21
3 2 25 23
3 81 27 82
3 84 83 27
3 4 30 29
3 4 32 30
3 1 35 33
3 5 38 36
3 5 40 38
3 5 42 40
3 3 85 87
3 87 86 43
3 85 86 87
3 6 88 89
3 6 90 92
3 90 45 91
3 90 91 92
3 93 47 94
3 8 95 97
3 95 48 96
3 95 96 97
3 8 49 48
3 8 51 49
3 98 52 99
3 100 99 20
3 98 99 100
3 102 101 52
3 103 53 104
3 105 54 106
3 108 107 54
3 11 57 55
3 13 58 24
3 13 59 58
3 109 60 110
3 14 61 26
3 14 62 61
3 14 63 62
3 112 111 28
3 15 64 31
3 15 65 64
3 10 113 115
3 113 66 114
3 113 114 115
3 16 67 34
3 16 68 67
3 7 69 46
3 17 70 37
3 17 71 70
3 17 72 71
3 18 73 39
3 18 74 73
3 18 75 74
3 19 76 41
3 19 77 76
3 9 78 50
3 116 79 117
3 119 118 79
3 12 80 56
3 121 120 44
3 122 6 123
3 124 8 125
3 126 20 127
3 128 127 8
3 126 127 128
3 129 20 130
3 132 131 20
3 21 133 134
3 22 135 137
3 137 136 21
3 135 136 137
3 22 138 139
3 23 24 11
3 25 24 23
3 25 13 24
3 140 26 141
3 27 142 144
3 142 26 143
3 142 143 144
3 27 14 26
3 27 28 14
3 145 28 146
3 147 146 27
3 145 146 147
3 149 148 28
3 29 150 151
3 30 152 154
3 154 153 29
3 152 153 154
3 30 155 156
3 30 157 159
3 157 31 158
3 157 158 159
3 32 31 30
3 32 15 31
3 33 34 10
3 35 34 33
3 35 16 34
3 36 37 7
3 38 37 36
3 38 17 37
3 38 39 17
3 40 39 38
3 40 18 39
3 40 41 18
3 42 41 40
3 42 19 41
3 161 160 9
3 43 44 12
3 162 44 163
3 164 163 43
3 162 163 164
3 166 165 44
3 168 167 2
3 169 29 170
3 45 171 173
3 171 29 172
3 171 172 173
3 45 4 29
3 174 46 175
3 176 175 1
3 174 175 176
3 47 177 179
3 177 46 178
3 177 178 179
3 47 7 46
3 180 47 181
3 48 182 184
3 182 47 183
3 182 183 184
3 48 7 47
3 48 36 7
3 49 36 48
3 49 5 36
3 49 50 5
3 51 50 49
3 51 9 50
3 20 51 8
3 52 51 20
3 52 9 51
3 52 185 187
3 187 186 9
3 185 186 187
3 189 188 52
3 191 190 3
3 53 192 193
3 53 194 196
3 194 10 195
3 194 195 196
3 197 53 198
3 54 199 201
3 199 53 200
3 199 200 201
3 54 10 53
3 54 33 10
3 202 33 203
3 204 203 54
3 202 203 204
3 205 1 206
3 207 206 33
3 205 206 207
3 208 1 209
3 211 210 1
3 55 56 0
3 57 56 55
3 57 12 56
3 24 57 11
3 58 57 24
3 58 12 57
3 58 43 12
3 59 43 58
3 59 3 43
3 212 25 213
3 214 213 2
3 212 213 214
3 60 215 217
3 215 25 216
3 215 216 217
3 60 13 25
3 26 218 220
3 218 60 219
3 218 219 220
3 61 60 26
3 61 13 60
3 61 59 13
3 62 59 61
3 62 3 59
3 62 221 223
3 223 222 3
3 221 222 223
3 63 224 226
3 226 225 62
3 224 225 226
3 63 227 228
3 28 63 14
3 229 63 230
3 231 230 28
3 229 230 231
3 233 232 63
3 31 234 235
3 64 236 238
3 238 237 31
3 236 237 238
3 64 239 240
3 64 241 243
3 241 21 242
3 241 242 243
3 65 21 64
3 65 0 21
3 66 244 245
3 66 246 248
3 246 6 247
3 246 247 248
3 34 66 10
3 67 66 34
3 67 6 66
3 67 45 6
3 68 45 67
3 68 4 45
3 46 35 1
3 69 35 46
3 69 16 35
3 37 69 7
3 70 69 37
3 70 16 69
3 70 68 16
3 71 68 70
3 71 4 68
3 71 32 4
3 72 32 71
3 72 15 32
3 39 72 17
3 73 72 39
3 73 15 72
3 73 65 15
3 74 65 73
3 74 0 65
3 74 55 0
3 75 55 74
3 75 11 55
3 41 75 18
3 76 75 41
3 76 11 75
3 76 23 11
3 77 23 76
3 77 2 23
3 50 42 5
3 78 42 50
3 78 19 42
3 249 78 250
3 251 250 9
3 249 250 251
3 79 252 254
3 252 78 253
3 252 253 254
3 79 19 78
3 79 77 19
3 255 77 256
3 257 256 79
3 255 256 257
3 258 2 259
3 260 259 77
3 258 259 260
3 262 261 2
3 56 22 0
3 80 22 56
3 80 263 265
3 265 264 22
3 263 264 265
3 44 80 12
3 266 80 267
3 268 267 44
3 266 267 268
3 270 269 80
3 272 271 3
