ply
format ascii 1.0
element vertex 262
property float x
property float y
property float z
element face 266
property list uchar int vertex_index
end_header
0.559498 -64.855553 59.418449
0.14839 -73.429382 71.459534
-0.447538 -73.764175 55.930077
-0.376373 -69.133499 65.16687
-0.558191 -80.18512 61.595001
-0.035179 -68.698761 57.981522
0.83881 -65.193024 56.020798
0.045771 -66.785233 61.981812
-0.643595 -71.780563 60.601219
1.629877 -74.82061 73.970329
0.690964 -78.843323 69.426765
-0.08901 -82.627182 56.550957
0.835848 -85.351013 59.477234
-0.437653 -71.440376 68.429428
-0.493391 -77.047653 66.636429
-0.865942 -74.612694 63.592232
-0.795452 -77.240204 58.639442
0.410589 -82.414474 64.512093
2.474886 -87.056076 62.154167
1.204517 -62.399117 62.200035
1.568209 -61.429214 58.457031
0.258905 -66.52095 58.818459
0.371382 -67.027969 56.917458
0.66008 -65.014351 57.917381
0.311926 -65.710007 60.552818
-0.071918 -67.860985 60.013077
0.766424 -74.217049 72.797218
1.087881 -76.878647 71.755585
0.305519 -76.177002 70.486885
-0.495281 -76.451599 54.824471
-0.469574 -70.309738 66.808952
-0.716789 -73.081467 66.03344
-0.707571 -71.833893 64.457451
-0.590996 -72.862015 58.276138
-0.800825 -74.483597 59.660507
-0.685619 -75.560997 57.239525
-0.610804 -78.286636 56.169052
-0.598799 -78.689377 64.13089
-0.175894 -79.793289 65.604591
-0.174299 -81.404358 63.079239
1.562311 -86.348686 60.872803
2.88798 -88.497871 59.711555
1.951067 -60.26403 61.827591
-0.279243 -71.150368 56.999634
-0.101431 -71.855667 54.731346
0.114481 -69.340355 55.856018
-0.193827 -67.94561 63.542397
-0.577351 -70.530289 62.898628
-0.356688 -69.198105 61.399376
-0.376846 -70.268921 59.223053
1.634743 -79.415489 70.627777
1.326885 -81.36235 68.281281
-0.382429 -81.506485 59.058884
-0.014717 -82.848686 60.540321
0.288183 -84.099251 58.020439
-0.243359 -72.491898 69.991631
-0.240822 -75.286736 69.085411
-0.572063 -74.243248 67.588463
-0.768349 -75.893463 65.126556
-0.828075 -77.417755 62.62326
-0.815037 -73.233887 62.071136
-0.88743 -76.007858 61.120979
-0.759001 -78.7883 60.102303
-0.577085 -79.977768 57.589897
-0.302155 -80.963486 55.109756
-0.014133 -78.042641 68.083138
0.461271 -80.6959 67.002472
1.210573 -83.180885 65.847488
0.53919 -83.974648 61.991562
1.291523 -84.850334 63.364693
2.250095 -85.440865 64.609589
0.794321 -63.761192 60.663834
0.984879 -63.334152 59.024414
1.400322 -61.810005 60.355026
-0.043491 -67.6185 67.405067
0.11458 -66.543167 65.666512
0.328075 -65.499855 63.940186
0.564749 -64.542206 62.264061
1.157568 -63.213203 57.20192
-0.346273 -74.125228 54.753106
-0.370144 -75.468941 54.200303
-0.47141 -75.107887 55.377274
3.171513 -89.123837 58.510295
2.445182 -88.076141 59.058868
2.728715 -88.702106 57.857608
3.6797 -89.460887 59.095901
3.171513 -89.123837 58.510295
0.704312 -66.301868 55.435727
0.470598 -67.219341 55.884056
0.605096 -66.110496 56.469128
0.949734 -65.269913 54.990181
0.704312 -66.301868 55.435727
1.873319 -76.09 73.413429
2.188013 -75.015785 74.459759
0.008381 -72.128101 53.583233
0.112974 -70.845211 54.191845
-0.328889 -80.047439 54.419265
-0.45648 -79.625061 55.639404
-0.483214 -78.709014 54.948914
-0.128073 -81.347572 53.893966
-0.328889 -80.047439 54.419265
3.025313 -87.247822 62.711422
2.912917 -86.440216 63.939133
2.36249 -86.24847 63.381878
2.028926 -60.004133 60.815331
2.357144 -59.172782 61.52193
0.176559 -66.8144 68.507793
-0.076273 -68.152405 68.261795
0.434144 -65.305336 65.788117
0.330426 -65.784927 66.720833
0.540892 -64.78368 64.924954
0.221328 -66.021511 64.803349
0.434144 -65.305336 65.788117
0.884633 -63.470661 62.232048
0.773667 -63.858013 63.154575
1.093551 -62.786468 63.122563
0.311963 -83.88018 56.048015
0.106172 -83.077347 55.321514
-0.3751 -76.800587 53.627544
-0.425452 -77.791496 54.276623
-0.249964 -75.817928 53.003376
-0.3751 -76.800587 53.627544
-0.370144 -75.468941 54.200303
-0.425452 -77.791496 54.276623
-0.483214 -78.709014 54.948914
-0.553042 -77.369118 55.496762
1.782348 -87.001548 59.639492
1.19908 -85.84985 60.175019
1.419116 -86.502712 58.941707
2.225145 -87.423279 60.292179
1.782348 -87.001548 59.639492
2.445182 -88.076141 59.058868
3.413739 -88.755539 60.284985
3.207191 -88.034641 61.506291
2.681433 -87.776973 60.932861
3.413739 -88.755539 60.284985
3.6797 -89.460887 59.095901
1.851666 -60.590725 62.837581
1.577792 -61.331573 62.013813
1.478391 -61.658268 63.023803
2.275065 -59.46947 62.601624
1.851666 -60.590725 62.837581
2.357144 -59.172782 61.52193
2.275065 -59.46947 62.601624
1.478391 -61.658268 63.023803
1.093551 -62.786468 63.122563
1.645211 -61.310522 57.46838
1.895326 -60.386314 58.110912
0.22093 -69.587555 54.754181
0.112974 -70.845211 54.191845
0.006525 -70.598011 55.293682
0.342148 -68.375534 55.353336
0.242931 -68.184162 56.386738
0.470598 -67.219341 55.884056
0.22093 -69.587555 54.754181
0.342148 -68.375534 55.353336
1.602321 -77.119019 72.306057
1.873319 -76.09 73.413429
1.358879 -75.849628 72.862957
1.875752 -78.387439 71.742153
1.602321 -77.119019 72.306057
1.361312 -78.147068 71.191681
2.226945 -79.572964 71.138984
2.467954 -78.544914 72.25336
1.875752 -78.387439 71.742153
2.030213 -80.588211 70.013554
2.226945 -79.572964 71.138984
1.876283 -81.561642 68.840305
2.030213 -80.588211 70.013554
1.480814 -80.38892 69.454529
1.779698 -82.516166 67.660153
1.876283 -81.561642 68.840305
0.50056 -84.616215 56.782757
0.099587 -83.363216 57.285698
0.311963 -83.88018 56.048015
0.783637 -85.309727 57.509758
0.50056 -84.616215 56.782757
1.05747 -85.935608 58.238156
0.562016 -84.725132 58.748837
0.783637 -85.309727 57.509758
1.419116 -86.502712 58.941707
1.05747 -85.935608 58.238156
-0.173219 -73.170974 54.15374
-0.346273 -74.125228 54.753106
-0.274485 -72.809921 55.330711
-0.173219 -73.170974 54.15374
0.008381 -72.128101 53.583233
-4e-04 -82.245499 54.600914
0.106172 -83.077347 55.321514
-0.195582 -81.795334 55.830356
-4e-04 -82.245499 54.600914
-0.128073 -81.347572 53.893966
1.721542 -83.425434 66.443256
1.779698 -82.516166 67.660153
1.268729 -82.271618 67.064385
2.241303 -84.555424 65.824307
1.721542 -83.425434 66.443256
1.730334 -84.310875 65.228538
2.832416 -85.578415 65.14397
2.241303 -84.555424 65.824307
2.832416 -85.578415 65.14397
2.912917 -86.440216 63.939133
3.025313 -87.247822 62.711422
3.207191 -88.034641 61.506291
1.753553 -60.77712 60.079048
1.675695 -61.037017 61.091308
2.028926 -60.004133 60.815331
1.837497 -60.586725 59.13005
1.484266 -61.619609 59.406029
1.753553 -60.77712 60.079048
1.895326 -60.386314 58.110912
1.837497 -60.586725 59.13005
1.958472 -73.752583 75.017078
2.188013 -75.015785 74.459759
1.486185 -73.499863 74.488121
1.958472 -73.752583 75.017078
1.054458 -73.198082 73.901566
1.198151 -74.51883 73.383774
1.486185 -73.499863 74.488121
0.709358 -72.855175 73.273457
1.054458 -73.198082 73.901566
0.400341 -72.461342 72.604614
0.457407 -73.823216 72.128376
0.709358 -72.855175 73.273457
0.174323 -72.04419 71.892975
0.400341 -72.461342 72.604614
-0.021552 -71.575447 71.159023
-0.047484 -72.96064 70.725583
0.174323 -72.04419 71.892975
-0.14238 -71.101669 70.381237
-0.021552 -71.575447 71.159023
-0.239527 -70.575908 69.600136
-0.340506 -71.966137 69.21053
-0.14238 -71.101669 70.381237
-0.273354 -70.063343 68.773976
-0.239527 -70.575908 69.600136
-0.289314 -69.498024 67.963738
-0.453614 -70.875057 67.61919
-0.273354 -70.063343 68.773976
-0.256532 -68.964119 67.10701
-0.289314 -69.498024 67.963738
-0.076273 -68.152405 68.261795
0.25139 -66.322594 67.590111
0.176559 -66.8144 68.507793
0.035544 -67.080833 66.535789
0.25139 -66.322594 67.590111
0.330426 -65.784927 66.720833
0.65533 -64.336838 63.992638
0.540892 -64.78368 64.924954
0.446412 -65.02103 63.102123
0.65533 -64.336838 63.992638
0.773667 -63.858013 63.154575
1.43989 -62.202517 56.840824
1.362888 -62.321208 57.829476
1.645211 -61.310522 57.46838
1.253763 -63.195894 56.209831
1.43989 -62.202517 56.840824
1.094384 -64.185804 55.61927
0.998189 -64.203114 56.611359
1.253763 -63.195894 56.209831
0.949734 -65.269913 54.990181
1.094384 -64.185804 55.61927
3 0 23 21
3 0 21 24
3 1 28 26
3 2 79 81
3 81 80 29
3 79 80 81
3 3 32 30
3 2 35 33
3 2 29 35
3 4 39 37
3 82 41 83
3 82 83 84
3 86 85 41
3 5 45 43
3 6 87 89
3 89 88 22
3 87 88 89
3 6 90 91
3 7 48 46
3 5 49 25
3 5 43 49
3 9 92 93
3 10 50 27
3 10 51 50
3 11 54 52
3 95 94 44
3 13 57 55
3 15 58 31
3 15 59 58
3 8 60 47
3 16 61 34
3 16 62 61
3 16 63 62
3 96 64 97
3 98 97 36
3 96 97 98
3 100 99 64
3 14 65 56
3 17 66 38
3 17 67 66
3 12 68 53
3 18 69 40
3 18 70 69
3 18 101 103
3 103 102 70
3 101 102 103
3 19 73 71
3 105 104 42
3 106 74 107
3 108 75 109
3 110 76 111
3 112 111 75
3 110 111 112
3 19 113 115
3 113 77 114
3 113 114 115
3 19 71 77
3 20 78 72
3 21 22 5
3 23 22 21
3 23 6 22
3 24 25 7
3 21 25 24
3 21 5 25
3 26 27 9
3 28 27 26
3 28 10 27
3 117 116 11
3 29 118 119
3 122 121 29
3 120 121 122
3 30 31 13
3 32 31 30
3 32 15 31
3 33 34 8
3 35 34 33
3 35 16 34
3 35 36 16
3 29 36 35
3 29 123 125
3 125 124 36
3 123 124 125
3 37 38 14
3 39 38 37
3 39 17 38
3 126 40 127
3 128 127 12
3 126 127 128
3 41 129 131
3 129 40 130
3 129 130 131
3 41 18 40
3 41 132 134
3 134 133 18
3 132 133 134
3 136 135 41
3 137 42 138
3 139 138 19
3 137 138 139
3 140 42 141
3 143 142 42
3 144 19 145
3 147 146 20
3 43 44 2
3 45 44 43
3 45 148 150
3 150 149 44
3 148 149 150
3 22 45 5
3 151 45 152
3 153 152 22
3 151 152 153
3 155 154 45
3 46 47 3
3 48 47 46
3 48 8 47
3 25 48 7
3 49 48 25
3 49 8 48
3 49 33 8
3 43 33 49
3 43 2 33
3 27 156 158
3 158 157 9
3 156 157 158
3 50 159 161
3 161 160 27
3 159 160 161
3 50 162 164
3 162 163 164
3 50 165 166
3 51 167 169
3 169 168 50
3 167 168 169
3 51 170 171
3 52 53 4
3 54 53 52
3 54 12 53
3 172 54 173
3 174 173 11
3 172 173 174
3 175 54 176
3 177 12 178
3 179 178 54
3 177 178 179
3 181 180 12
3 44 182 184
3 184 183 2
3 182 183 184
3 186 185 44
3 55 56 1
3 57 56 55
3 57 14 56
3 31 57 13
3 58 57 31
3 58 14 57
3 58 37 14
3 59 37 58
3 59 4 37
3 47 32 3
3 60 32 47
3 60 15 32
3 34 60 8
3 61 60 34
3 61 15 60
3 61 59 15
3 62 59 61
3 62 4 59
3 62 52 4
3 63 52 62
3 63 11 52
3 36 63 16
3 64 63 36
3 64 11 63
3 64 187 189
3 189 188 11
3 187 188 189
3 191 190 64
3 56 28 1
3 65 28 56
3 65 10 28
3 38 65 14
3 66 65 38
3 66 10 65
3 66 51 10
3 67 51 66
3 67 192 194
3 194 193 51
3 192 193 194
3 53 39 4
3 68 39 53
3 68 17 39
3 40 68 12
3 69 68 40
3 69 17 68
3 69 67 17
3 70 67 69
3 70 195 197
3 197 196 67
3 195 196 197
3 70 198 199
3 201 200 70
3 203 202 18
3 71 72 0
3 73 72 71
3 73 20 72
3 42 73 19
3 204 73 205
3 206 205 42
3 204 205 206
3 207 20 208
3 209 208 73
3 207 208 209
3 211 210 20
3 212 9 213
3 214 9 215
3 216 26 217
3 218 217 9
3 216 217 218
3 219 26 220
3 221 1 222
3 223 222 26
3 221 222 223
3 224 1 225
3 226 55 227
3 228 227 1
3 226 227 228
3 229 55 230
3 231 13 232
3 233 232 55
3 231 232 233
3 234 13 235
3 236 30 237
3 238 237 13
3 236 237 238
3 74 239 241
3 239 30 240
3 239 240 241
3 74 3 30
3 242 74 243
3 75 244 246
3 244 74 245
3 244 245 246
3 75 3 74
3 75 46 3
3 76 46 75
3 76 7 46
3 247 76 248
3 77 249 251
3 249 76 250
3 249 250 251
3 77 7 76
3 77 24 7
3 71 24 77
3 71 0 24
3 72 23 0
3 78 23 72
3 78 6 23
3 252 78 253
3 254 253 20
3 252 253 254
3 255 78 256
3 257 6 258
3 259 258 78
3 257 258 259
3 261 260 6
