ply
format ascii 1.0
element vertex 205
property float x
property float y
property float z
element face 187
property list uchar int vertex_index
end_header
-29.314949 -99.270218 -23.590366
-30.947779 -84.855484 -24.225933
-39.472492 -94.853226 -23.750153
-35.159283 -90.920837 -25.160561
-30.196171 -92.376205 -23.739368
-35.521255 -83.761017 -26.091106
-23.998787 -99.972107 -21.822338
-25.467003 -92.60788 -21.659409
-26.914326 -84.654984 -21.947292
-34.650402 -97.434921 -24.422703
-39.771881 -88.699387 -25.209599
-37.712433 -86.438629 -25.983738
-35.375107 -87.406815 -25.598793
-26.087029 -103.052856 -22.896152
-26.617411 -99.785416 -22.771935
-30.599514 -88.680603 -23.934612
-27.767258 -92.66684 -22.728737
-28.321335 -88.862732 -22.853325
-26.202156 -88.68985 -21.741814
-28.836048 -84.93277 -23.091259
-29.311392 -80.904709 -23.446751
-31.2388 -80.928047 -24.619358
-37.1488 -96.213943 -24.285053
-37.338161 -93.142319 -24.817989
-39.60944 -91.878464 -24.465717
-32.355057 -95.214966 -24.352226
-29.757231 -95.914383 -23.629997
-32.686714 -91.775452 -24.585583
-32.977104 -88.176712 -24.885605
-33.201229 -84.447495 -25.260361
-39.379051 -97.608826 -23.039459
-21.518559 -99.801208 -20.834606
-27.189583 -96.316467 -22.707329
-24.723492 -96.378326 -21.69175
-22.411617 -96.077179 -20.671844
-23.338509 -92.185349 -20.613052
-24.272194 -88.15863 -20.672649
-25.196093 -84.030197 -20.856441
-26.10239 -79.830215 -21.164139
-27.601736 -80.532532 -22.277302
-32.017845 -98.470123 -24.171772
-34.90498 -94.272171 -24.772121
-37.538757 -89.875107 -25.381481
-39.925617 -85.341263 -25.988773
-41.608982 -93.395737 -22.860226
-41.705147 -90.528519 -23.744316
-37.76757 -84.652329 -26.304182
-38.872 -84.138542 -26.391556
-38.310646 -95.533585 -24.017603
-37.073721 -97.643318 -24.022463
-38.235567 -96.96296 -23.755012
-35.55187 -81.88797 -26.365648
-34.391857 -82.231209 -25.950276
-34.361242 -84.104256 -25.675733
-39.352026 -98.874061 -22.665983
-38.137897 -99.659019 -23.120651
-38.110872 -100.924255 -22.747175
-22.346731 -101.650253 -21.449571
-23.66359 -101.668556 -21.923731
-22.758673 -99.886657 -21.328472
-21.106617 -101.564804 -20.955706
-22.346731 -101.650253 -21.449571
-29.536272 -78.853927 -23.682615
-30.399597 -78.913368 -24.281779
-33.181083 -99.478653 -24.221184
-34.539999 -98.912857 -24.255823
-33.334124 -97.952522 -24.297238
-31.864805 -99.996254 -24.095719
-33.181083 -99.478653 -24.221184
-42.589594 -92.639336 -22.278454
-41.582065 -94.71775 -22.420952
-42.562677 -93.96135 -21.83918
-42.729513 -88.348953 -23.769611
-42.673132 -89.832016 -23.235971
-41.771946 -88.988503 -24.201922
-42.729513 -88.348953 -23.769611
-26.544633 -77.707111 -21.378466
-27.187023 -78.089153 -21.946155
-36.598907 -85.136421 -26.111709
-36.54377 -86.922722 -25.791266
-37.76757 -84.652329 -26.304182
-36.671982 -83.313523 -26.357866
-35.448181 -85.583916 -25.844949
-36.598907 -85.136421 -26.111709
-36.683492 -81.47683 -26.696528
-36.671982 -83.313523 -26.357866
-24.707712 -103.208931 -22.460638
-24.418034 -104.796188 -22.579277
-24.972903 -101.57521 -22.39853
-24.707712 -103.208931 -22.460638
-26.35222 -101.419136 -22.834043
-25.308099 -99.878761 -22.297137
-23.66359 -101.668556 -21.923731
-24.972903 -101.57521 -22.39853
-31.363301 -78.925038 -24.868082
-30.399597 -78.913368 -24.281779
-30.275096 -80.916378 -24.033054
-35.789198 -98.302368 -24.186998
-35.714119 -99.731743 -23.924408
-37.073721 -97.643318 -24.022463
-35.899601 -96.824432 -24.353878
-34.539999 -98.912857 -24.255823
-35.789198 -98.302368 -24.186998
-33.276369 -82.53191 -25.487929
-32.149644 -82.735905 -24.970714
-32.074504 -84.651489 -24.743147
-33.276369 -82.53191 -25.487929
-34.391857 -82.231209 -25.950276
-35.55187 -81.88797 -26.365648
-36.683492 -81.47683 -26.696528
-38.188846 -98.340759 -23.399666
-36.947693 -100.390953 -23.480857
-38.137897 -99.659019 -23.120651
-39.425771 -96.231026 -23.394806
-38.235567 -96.96296 -23.755012
-38.188846 -98.340759 -23.399666
-19.875671 -101.364227 -20.476574
-19.463729 -103.127823 -20.597673
-21.106617 -101.564804 -20.955706
-20.367109 -99.53334 -20.351772
-19.875671 -101.364227 -20.476574
-20.813638 -97.671325 -20.270391
-20.367109 -99.53334 -20.351772
-21.965088 -97.939194 -20.753225
-21.347155 -95.746811 -20.185839
-20.813638 -97.671325 -20.270391
-21.810601 -93.800896 -20.156443
-21.347155 -95.746811 -20.185839
-22.875063 -94.131264 -20.642448
-22.368085 -91.79992 -20.123157
-20.840177 -93.415467 -19.666548
-21.810601 -93.800896 -20.156443
-22.834927 -89.78656 -20.152956
-22.368085 -91.79992 -20.123157
-23.805352 -90.171989 -20.642851
-23.401798 -87.72731 -20.17683
-22.834927 -89.78656 -20.152956
-23.863748 -85.663094 -20.268726
-23.401798 -87.72731 -20.17683
-24.734144 -86.094414 -20.764545
-24.429029 -83.562733 -20.351883
-23.863748 -85.663094 -20.268726
-25.649242 -81.930206 -21.01029
-24.882177 -81.462741 -20.505731
-24.429029 -83.562733 -20.351883
-27.936696 -78.440312 -22.502737
-27.187023 -78.089153 -21.946155
-26.852063 -80.181374 -21.72072
-28.681444 -78.667839 -23.097891
-28.456564 -80.718621 -22.862026
-29.536272 -78.853927 -23.682615
-27.936696 -78.440312 -22.502737
-28.681444 -78.667839 -23.097891
-32.295155 -80.772186 -25.167427
-31.09329 -82.891766 -24.422646
-32.149644 -82.735905 -24.970714
-32.339399 -78.817836 -25.437098
-32.295155 -80.772186 -25.167427
-31.363301 -78.925038 -24.868082
-32.339399 -78.817836 -25.437098
-25.860228 -104.578697 -22.968547
-24.418034 -104.796188 -22.579277
-27.496678 -102.738731 -23.245428
-25.860228 -104.578697 -22.968547
-29.110637 -100.847412 -23.592535
-27.700989 -101.161537 -23.243259
-27.496678 -102.738731 -23.245428
-30.462086 -100.447364 -23.883238
-31.864805 -99.996254 -24.095719
-30.666397 -98.870171 -23.881069
-29.110637 -100.847412 -23.592535
-30.462086 -100.447364 -23.883238
-39.978592 -83.589859 -26.394073
-38.872 -84.138542 -26.391556
-38.819025 -85.889946 -25.986255
-40.4671 -96.824295 -22.510568
-39.352026 -98.874061 -22.665983
-40.494017 -95.502281 -22.949843
-40.4671 -96.824295 -22.510568
-41.582065 -94.71775 -22.420952
-42.62505 -91.265625 -22.793926
-42.589594 -92.639336 -22.278454
-41.657064 -91.962128 -23.302271
-42.62505 -91.265625 -22.793926
-42.673132 -89.832016 -23.235971
-40.724092 -89.663475 -24.562622
-40.657293 -91.203491 -24.105017
-41.771946 -88.988503 -24.201922
-40.805313 -88.073937 -24.934563
-39.69066 -90.288926 -24.837658
-40.724092 -89.663475 -24.562622
-40.877956 -86.438629 -25.411648
-40.805313 -88.073937 -24.934563
-40.954825 -84.759568 -25.801235
-39.848749 -87.020325 -25.599186
-40.877956 -86.438629 -25.411648
-41.014597 -83.045716 -26.294935
-40.954825 -84.759568 -25.801235
-39.978592 -83.589859 -26.394073
-41.014597 -83.045716 -26.294935
-25.436895 -79.335831 -20.648584
-24.882177 -81.462741 -20.505731
-25.879138 -77.212727 -20.862912
-25.436895 -79.335831 -20.648584
-26.544633 -77.707111 -21.378466
3 47 46 11
3 0 14 13
3 1 17 15
3 1 19 17
3 1 21 19
3 2 48 50
3 48 22 49
3 48 49 50
3 2 24 22
3 3 27 25
3 5 28 12
3 5 29 28
3 5 51 53
3 53 52 29
3 51 52 53
3 54 30 55
3 54 55 56
3 6 57 58
3 6 59 61
3 59 31 60
3 59 60 61
3 4 32 26
3 7 33 16
3 7 34 33
3 7 35 34
3 8 36 18
3 8 37 36
3 8 39 37
3 63 62 20
3 9 64 65
3 9 66 68
3 66 40 67
3 66 67 68
3 9 41 40
3 10 42 23
3 10 43 42
3 69 44 70
3 69 70 71
3 72 45 73
3 75 74 45
3 77 76 38
3 11 12 3
3 78 12 79
3 80 79 11
3 78 79 80
3 81 5 82
3 83 82 12
3 81 82 83
3 85 84 5
3 13 86 87
3 14 88 90
3 90 89 13
3 88 89 90
3 14 91 93
3 91 6 92
3 91 92 93
3 15 16 4
3 17 16 15
3 17 7 16
3 17 18 7
3 19 18 17
3 19 8 18
3 19 20 8
3 21 20 19
3 21 94 96
3 96 95 20
3 94 95 96
3 22 97 99
3 97 98 99
3 22 100 102
3 100 9 101
3 100 101 102
3 22 23 9
3 24 23 22
3 24 10 23
3 25 26 0
3 27 26 25
3 27 4 26
3 12 27 3
3 28 27 12
3 28 4 27
3 28 15 4
3 29 15 28
3 29 1 15
3 29 103 105
3 105 104 1
3 103 104 105
3 107 106 29
3 109 108 5
3 30 110 112
3 110 111 112
3 30 113 115
3 113 2 114
3 113 114 115
3 31 116 118
3 116 117 118
3 31 119 120
3 26 14 0
3 32 14 26
3 32 6 14
3 16 32 4
3 33 32 16
3 33 6 32
3 33 31 6
3 34 31 33
3 34 121 123
3 123 122 31
3 121 122 123
3 34 124 125
3 35 126 128
3 128 127 34
3 126 127 128
3 35 129 131
3 129 130 131
3 18 35 7
3 36 35 18
3 36 132 134
3 134 133 35
3 132 133 134
3 36 135 136
3 37 137 139
3 139 138 36
3 137 138 139
3 37 140 141
3 37 142 144
3 142 38 143
3 142 143 144
3 39 38 37
3 39 145 147
3 147 146 38
3 145 146 147
3 20 39 8
3 148 39 149
3 150 149 20
3 148 149 150
3 152 151 39
3 153 21 154
3 155 154 1
3 153 154 155
3 156 21 157
3 159 158 21
3 160 13 161
3 162 13 163
3 164 0 165
3 166 165 13
3 164 165 166
3 40 167 168
3 40 169 171
3 169 0 170
3 169 170 171
3 40 25 0
3 41 25 40
3 41 3 25
3 23 41 9
3 42 41 23
3 42 3 41
3 42 11 3
3 43 11 42
3 43 172 174
3 174 173 11
3 172 173 174
3 175 30 176
3 44 177 179
3 177 30 178
3 177 178 179
3 44 2 30
3 180 44 181
3 45 182 184
3 182 44 183
3 182 183 184
3 45 2 44
3 45 24 2
3 185 24 186
3 187 186 45
3 185 186 187
3 188 10 189
3 190 189 24
3 188 189 190
3 191 10 192
3 193 43 194
3 195 194 10
3 193 194 195
3 196 43 197
3 199 198 43
3 38 200 201
3 204 203 38
3 202 203 204
