ply
format ascii 1.0
element vertex 213
property float x
property float y
property float z
element face 195
property list uchar int vertex_index
end_header
62.341675 -24.61515 -19.588839
65.808983 -16.631737 -28.29756
69.805908 -24.550688 -31.535799
69.829353 -27.366209 -27.642298
70.522453 -32.54982 -28.998243
69.203865 -30.580036 -32.763718
64.5354 -9.757874 -30.280653
64.080551 -20.729996 -23.914698
67.188171 -23.5779 -26.088427
68.477928 -19.935482 -30.153124
68.522362 -22.164593 -35.620018
67.175034 -28.743587 -36.608345
63.524567 -14.100807 -25.484938
66.176033 -25.454882 -24.085215
67.874008 -27.055496 -24.972055
69.989563 -25.90642 -29.569532
69.205353 -23.640093 -28.875204
69.37928 -22.057795 -30.874533
68.633995 -18.249666 -32.239899
69.199234 -20.593662 -32.922287
68.681427 -19.259155 -35.02562
69.302063 -23.305214 -33.551178
68.300293 -33.987309 -33.293892
68.248375 -29.656853 -34.676842
67.232239 -33.134247 -35.108727
64.993904 -18.6901 -26.098913
63.752045 -17.415812 -24.744028
64.49572 -15.305319 -27.03348
63.708969 -8.591102 -28.586824
69.329636 -28.913742 -25.741568
70.456802 -29.774448 -28.328848
70.246796 -28.545599 -30.230997
69.732376 -27.407444 -32.166306
69.982582 -31.536972 -30.87229
69.263428 -34.819687 -31.473795
66.430977 -14.600533 -30.514872
65.153175 -13.180582 -29.338354
63.166222 -22.713804 -21.74365
64.510948 -24.032074 -23.023428
65.558716 -22.075956 -25.108015
66.492737 -20.10047 -27.202845
68.689934 -25.31665 -26.912493
67.979729 -21.72427 -28.106676
67.220284 -18.148849 -29.316637
67.662796 -16.266947 -31.459139
68.963112 -26.349596 -34.141975
67.998032 -25.353931 -36.158607
66.892395 -24.396847 -38.205948
63.017273 -19.473639 -22.473715
64.069199 -11.933146 -27.87591
62.359948 -23.033463 -19.909489
62.142426 -22.393814 -19.127388
62.124153 -23.975501 -18.806738
68.19939 -28.79027 -24.412714
67.349052 -27.938349 -24.005781
67.165989 -35.331745 -34.403549
67.766266 -33.560778 -34.20131
67.700016 -35.758276 -33.496132
66.600567 -34.908069 -35.240757
67.165989 -35.331745 -34.403549
70.489627 -31.162134 -28.663545
70.614261 -31.7056 -27.731531
70.647087 -33.093286 -28.066229
69.208954 -36.923328 -30.855933
69.661995 -35.238834 -30.560051
68.720967 -36.561451 -31.730577
69.208954 -36.923328 -30.855933
66.03014 -12.844202 -31.086309
66.603882 -13.622563 -31.635412
64.771748 -25.673946 -22.554424
63.979011 -24.982579 -21.983564
68.198921 -16.373209 -32.93927
68.530422 -17.472739 -33.307923
68.192955 -20.108103 -36.402451
68.272487 -18.655384 -36.105252
68.601895 -20.711874 -35.322819
68.021728 -21.638472 -36.678959
68.192955 -20.108103 -36.402451
66.601006 -28.280401 -37.575245
66.459687 -26.107031 -38.374046
67.033715 -26.570217 -37.407146
63.258625 -15.161853 -24.300682
63.372364 -16.819355 -23.930227
63.638306 -15.758309 -25.114483
63.297523 -13.540477 -24.56661
63.258625 -15.161853 -24.300682
63.546768 -9.697256 -27.346239
63.507168 -8.071576 -27.58231
70.57624 -34.540624 -28.402317
70.647087 -33.093286 -28.066229
70.291507 -34.103901 -29.322275
70.57624 -34.540624 -28.402317
66.500065 -27.138041 -23.562361
65.60429 -26.385351 -23.085318
67.025021 -26.255189 -24.528635
66.500065 -27.138041 -23.562361
67.349052 -27.938349 -24.005781
68.813041 -18.644737 -33.649116
68.530422 -17.472739 -33.307923
68.916615 -19.421664 -32.581093
68.940331 -19.926409 -33.973954
68.554138 -17.977483 -34.700783
68.813041 -18.644737 -33.649116
66.669468 -32.686489 -36.010334
66.640865 -30.491159 -36.760143
67.203637 -30.938917 -35.858536
66.669468 -32.686489 -36.010334
66.600567 -34.908069 -35.240757
63.833454 -7.485399 -29.832822
64.122185 -9.174488 -29.433739
64.246669 -8.068786 -30.679737
63.553512 -6.948654 -28.859949
63.833454 -7.485399 -29.832822
63.507168 -8.071576 -27.58231
63.553512 -6.948654 -28.859949
69.602543 -30.708147 -25.161873
68.927204 -29.719393 -24.797471
69.831558 -30.004727 -26.095528
69.602543 -30.708147 -25.161873
70.081417 -29.23096 -27.045893
69.579494 -28.139975 -26.691933
69.831558 -30.004727 -26.095528
70.395141 -30.43508 -27.389168
70.614261 -31.7056 -27.731531
70.143078 -28.570329 -27.985573
70.081417 -29.23096 -27.045893
70.395141 -30.43508 -27.389168
70.021572 -33.597477 -30.259298
70.252517 -32.043396 -29.935266
70.291507 -34.103901 -29.322275
69.623005 -33.17833 -31.173043
70.021572 -33.597477 -30.259298
69.661995 -35.238834 -30.560051
68.239399 -36.145262 -32.640626
68.78186 -34.403498 -32.383843
68.720967 -36.561451 -31.730577
67.700016 -35.758276 -33.496132
68.239399 -36.145262 -32.640626
65.391239 -12.134227 -30.49805
65.792076 -13.890557 -29.926613
66.03014 -12.844202 -31.086309
65.082351 -10.422873 -30.9692
64.844288 -11.469228 -29.809503
65.391239 -12.134227 -30.49805
64.682591 -8.689144 -31.487002
65.082351 -10.422873 -30.9692
64.246669 -8.068786 -30.679737
64.682591 -8.689144 -31.487002
63.306648 -24.323444 -21.343675
62.753948 -23.664477 -20.666244
62.894375 -25.274117 -20.26627
63.838585 -23.372939 -22.383539
63.306648 -24.323444 -21.343675
63.979011 -24.982579 -21.983564
65.343491 -24.743478 -23.554322
64.771748 -25.673946 -22.554424
65.60429 -26.385351 -23.085318
68.601822 -27.984619 -25.356811
68.19939 -28.79027 -24.412714
68.927204 -29.719393 -24.797471
67.219791 -14.455769 -32.107545
66.603882 -13.622563 -31.635412
67.046886 -15.43374 -30.987006
67.713322 -15.381849 -32.54889
68.148395 -17.258306 -31.849519
68.198921 -16.373209 -32.93927
67.219791 -14.455769 -32.107545
67.713322 -15.381849 -32.54889
68.272816 -17.273841 -35.79506
68.554138 -17.977483 -34.700783
68.272816 -17.273841 -35.79506
68.272487 -18.655384 -36.105252
67.759563 -23.233142 -36.948254
68.021728 -21.638472 -36.678959
68.260197 -23.759262 -35.889313
67.206745 -22.7546 -37.971924
67.759563 -23.233142 -36.948254
67.445213 -24.875389 -37.182277
66.621407 -22.260454 -39.046928
67.206745 -22.7546 -37.971924
66.289318 -23.924895 -39.232254
66.621407 -22.260454 -39.046928
66.289318 -23.924895 -39.232254
66.459687 -26.107031 -38.374046
66.601006 -28.280401 -37.575245
66.640865 -30.491159 -36.760143
62.012516 -25.517468 -18.523203
62.124153 -23.975501 -18.806738
62.400825 -26.184299 -19.228521
62.012516 -25.517468 -18.523203
62.894375 -25.274117 -20.26627
62.400825 -26.184299 -19.228521
62.772221 -22.082791 -20.986894
62.359948 -23.033463 -19.909489
62.753948 -23.664477 -20.666244
62.697747 -20.462708 -21.351927
62.772221 -22.082791 -20.986894
63.091747 -21.093722 -22.108683
62.786076 -18.873041 -21.628198
62.697747 -20.462708 -21.351927
63.004978 -17.848268 -22.795071
63.384659 -18.444725 -23.608871
63.372364 -16.819355 -23.930227
62.786076 -18.873041 -21.628198
63.004978 -17.848268 -22.795071
63.726883 -11.368278 -26.990782
63.889084 -10.262124 -28.231367
63.546768 -9.697256 -27.346239
63.454567 -12.452108 -25.795296
63.796883 -13.016977 -26.680424
63.726883 -11.368278 -26.990782
63.297523 -13.540477 -24.56661
63.454567 -12.452108 -25.795296
3 0 50 52
3 50 51 52
3 53 14 54
3 2 17 15
3 2 19 17
3 2 21 19
3 55 24 56
3 57 56 22
3 55 56 57
3 59 58 24
3 1 27 25
3 4 60 62
3 60 30 61
3 60 61 62
3 4 31 30
3 4 33 31
3 63 34 64
3 66 65 34
3 68 67 35
3 69 38 70
3 8 39 13
3 8 40 39
3 3 41 29
3 9 42 16
3 9 43 42
3 9 44 43
3 72 71 18
3 10 73 75
3 75 74 20
3 73 74 75
3 10 76 77
3 5 45 32
3 11 46 23
3 11 47 46
3 11 78 80
3 80 79 47
3 78 79 80
3 7 48 37
3 12 81 83
3 83 82 26
3 81 82 83
3 12 84 85
3 6 49 36
3 87 86 28
3 88 4 89
3 91 90 4
3 92 13 93
3 14 94 96
3 94 13 95
3 94 95 96
3 14 8 13
3 15 16 3
3 17 16 15
3 17 9 16
3 17 18 9
3 19 18 17
3 19 97 99
3 99 98 18
3 97 98 99
3 19 100 102
3 100 20 101
3 100 101 102
3 21 20 19
3 21 10 20
3 22 23 5
3 24 23 22
3 24 11 23
3 24 103 105
3 105 104 11
3 103 104 105
3 107 106 24
3 25 26 7
3 27 26 25
3 27 12 26
3 108 28 109
3 110 109 6
3 108 109 110
3 111 28 112
3 114 113 28
3 115 29 116
3 117 29 118
3 119 3 120
3 121 120 29
3 119 120 121
3 30 122 123
3 30 124 126
3 124 3 125
3 124 125 126
3 30 15 3
3 31 15 30
3 31 2 15
3 31 32 2
3 33 32 31
3 33 5 32
3 127 33 128
3 129 128 4
3 127 128 129
3 34 130 132
3 130 33 131
3 130 131 132
3 34 5 33
3 34 22 5
3 133 22 134
3 135 134 34
3 133 134 135
3 137 136 22
3 35 36 1
3 138 36 139
3 140 139 35
3 138 139 140
3 141 6 142
3 143 142 36
3 141 142 143
3 144 6 145
3 147 146 6
3 148 37 149
3 150 149 0
3 148 149 150
3 38 151 153
3 151 37 152
3 151 152 153
3 38 7 37
3 13 154 156
3 154 38 155
3 154 155 156
3 39 38 13
3 39 7 38
3 39 25 7
3 40 25 39
3 40 1 25
3 29 157 159
3 157 14 158
3 157 158 159
3 41 14 29
3 41 8 14
3 16 41 3
3 42 41 16
3 42 8 41
3 42 40 8
3 43 40 42
3 43 1 40
3 43 35 1
3 44 35 43
3 44 160 162
3 162 161 35
3 160 161 162
3 18 44 9
3 163 44 164
3 165 164 18
3 163 164 165
3 167 166 44
3 20 168 169
3 171 170 20
3 32 21 2
3 45 21 32
3 45 10 21
3 23 45 5
3 46 45 23
3 46 10 45
3 46 172 174
3 174 173 10
3 172 173 174
3 47 175 177
3 177 176 46
3 175 176 177
3 47 178 179
3 47 180 181
3 183 182 47
3 185 184 11
3 186 0 187
3 188 0 189
3 191 190 0
3 37 192 194
3 194 193 0
3 192 193 194
3 48 195 197
3 197 196 37
3 195 196 197
3 48 198 199
3 26 48 7
3 200 48 201
3 202 201 26
3 200 201 202
3 204 203 48
3 36 27 1
3 49 27 36
3 49 12 27
3 28 49 6
3 205 49 206
3 207 206 28
3 205 206 207
3 208 12 209
3 210 209 49
3 208 209 210
3 212 211 12
