ply
format ascii 1.0
element vertex 246
property float x
property float y
property float z
element face 234
property list uchar int vertex_index
end_header
-64.425568 -44.320827 -14.268452
-67.995499 -45.98307 -27.300617
-67.32251 -55.998566 -11.840799
-67.567581 -58.221107 -18.424923
-68.88221 -44.673256 -20.708767
-68.285942 -50.636299 -16.375706
-66.927498 -44.541172 -17.516312
-68.009338 -52.381031 -23.018612
-64.869873 -38.736855 -18.229
-66.884918 -62.116474 -10.371033
-66.558853 -63.482475 -13.70623
-68.241028 -57.011356 -15.042976
-68.954857 -51.332954 -19.65324
-69.270325 -45.10334 -23.97683
-67.514015 -38.400284 -21.491867
-65.649857 -60.727791 -7.315315
-64.851982 -65.016159 -17.053249
-65.372147 -47.158966 -13.812176
-66.612579 -47.378059 -15.401529
-65.650803 -44.467316 -15.909319
-68.059517 -49.247879 -25.203838
-67.039612 -53.016624 -24.659386
-67.31897 -59.049507 -11.098278
-67.664764 -59.638866 -12.701382
-67.977341 -56.496422 -13.410839
-68.614212 -47.728287 -18.58186
-68.827301 -50.94923 -17.995041
-69.099747 -47.960823 -20.206783
-69.156708 -48.2854 -21.861935
-69.298996 -44.833313 -22.329811
-66.217125 -38.583214 -19.883339
-67.148705 -60.925056 -16.066963
-65.849167 -64.228729 -15.40362
-66.360168 -61.654049 -17.755939
-67.869812 -53.393738 -14.118553
-67.388367 -50.352226 -14.793518
-67.748337 -47.550697 -16.984711
-68.0578 -44.591782 -19.109283
-67.847694 -55.373024 -20.751789
-66.715256 -58.926411 -20.100979
-63.549141 -41.52441 -14.579891
-64.630768 -41.612839 -16.287642
-63.686062 -38.810585 -16.512861
-67.810364 -42.60463 -29.320229
-66.919754 -62.784107 -12.014193
-67.601059 -60.254936 -14.367363
-68.094681 -57.58028 -16.724407
-68.46489 -53.794949 -15.719429
-68.657967 -54.241875 -17.370483
-68.44043 -54.765278 -19.057796
-68.668442 -51.810764 -21.336975
-68.793602 -48.717651 -23.535892
-68.815804 -45.491936 -25.641048
-65.926865 -41.604424 -17.940441
-67.226593 -41.543419 -19.55212
-68.333664 -41.484047 -21.143932
-69.095535 -41.480446 -22.738434
-69.421234 -41.57663 -24.353039
-69.286209 -41.798256 -25.99461
-68.724625 -42.147911 -27.656925
-66.445381 -61.444672 -8.803204
-66.596008 -58.44627 -9.567789
-63.457047 -44.06736 -12.580219
-62.870949 -41.313301 -12.814766
-67.50956 -47.912849 -27.065376
-67.541569 -49.545254 -26.016987
-68.027508 -47.615474 -26.252228
-66.821106 -50.199663 -14.013848
-67.164535 -51.672809 -13.679317
-67.473548 -54.213881 -22.714733
-67.392727 -55.709877 -21.581322
-67.928516 -53.877027 -21.8852
-66.405693 -54.88101 -24.323435
-66.431748 -53.343622 -25.4371
-63.276064 -38.789129 -15.622348
-63.617601 -40.167498 -15.546376
-63.207603 -40.146042 -14.655862
-67.221924 -42.866116 -30.136026
-67.653808 -40.871235 -30.305084
-66.902336 -62.45029 -11.192613
-66.465653 -63.9704 -10.849388
-66.448234 -63.636584 -10.027808
-69.166793 -39.823799 -23.703913
-68.832016 -39.862297 -22.908573
-69.329643 -39.871891 -24.511215
-69.258385 -41.528538 -23.545737
-69.166793 -39.823799 -23.703913
-69.235401 -40.094307 -26.962853
-69.366059 -40.003683 -26.13925
-68.954609 -40.269134 -27.79401
-69.005417 -41.973084 -26.825768
-69.235401 -40.094307 -26.962853
-68.615108 -40.428123 -28.631613
-68.954609 -40.269134 -27.79401
-66.047619 -61.086231 -8.059259
-65.885402 -62.555984 -7.670097
-65.48764 -62.197544 -6.926153
-63.188761 -43.88114 -11.710705
-63.413675 -45.252271 -11.559515
-62.895712 -42.504111 -11.827979
-63.163998 -42.690331 -12.697492
-63.188761 -43.88114 -11.710705
-65.854836 -65.064701 -13.386429
-66.159946 -64.684314 -12.535315
-64.545963 -66.231361 -15.895876
-65.044556 -65.837647 -15.071061
-65.350574 -64.622444 -16.228434
-63.969723 -66.643219 -16.6894
-64.545963 -66.231361 -15.895876
-66.005958 -60.674012 -19.741537
-66.156731 -59.295281 -20.901659
-65.992363 -47.268512 -14.606852
-66.433212 -48.71258 -14.317854
-65.812996 -48.603033 -13.523177
-67.031617 -51.429626 -25.74476
-67.549565 -51.132251 -24.931612
-67.541569 -49.545254 -26.016987
-66.431748 -53.343622 -25.4371
-67.031617 -51.429626 -25.74476
-65.682575 -37.147564 -19.978975
-65.543499 -38.660034 -19.056169
-65.008949 -37.224384 -19.151806
-66.364857 -37.004673 -20.805222
-65.682575 -37.147564 -19.978975
-67.013302 -36.913208 -21.609485
-66.86557 -38.491749 -20.687603
-66.364857 -37.004673 -20.805222
-65.055794 -61.779074 -6.201818
-65.48764 -62.197544 -6.926153
-67.405258 -53.193565 -13.341834
-67.596161 -54.696152 -12.979676
-67.131607 -54.495979 -12.202957
-67.629089 -51.872982 -14.456036
-67.405258 -53.193565 -13.341834
-67.164535 -51.672809 -13.679317
-67.000473 -48.865143 -15.097524
-66.821106 -50.199663 -14.013848
-66.433212 -48.71258 -14.317854
-66.826507 -57.48657 -21.255916
-67.281475 -57.149718 -20.426384
-67.392727 -55.709877 -21.581322
-66.156731 -59.295281 -20.901659
-66.826507 -57.48657 -21.255916
-66.988686 -54.531677 -23.53512
-67.473548 -54.213881 -22.714733
-67.524475 -52.698828 -23.838999
-66.988686 -54.531677 -23.53512
-66.405693 -54.88101 -24.323435
-63.313006 -37.437645 -16.540129
-63.276064 -38.789129 -15.622348
-63.786984 -37.375008 -17.434672
-63.313006 -37.437645 -16.540129
-64.378889 -37.338143 -18.292741
-64.277968 -38.77372 -17.370931
-63.786984 -37.375008 -17.434672
-65.008949 -37.224384 -19.151806
-64.378889 -37.338143 -18.292741
-67.349457 -44.571812 -29.121262
-67.442025 -46.261032 -28.111456
-67.902931 -44.29385 -28.310423
-67.349457 -44.571812 -29.121262
-67.221924 -42.866116 -30.136026
-66.340397 -64.335131 -11.689297
-66.465653 -63.9704 -10.849388
-66.739304 -63.133291 -12.860212
-66.159946 -64.684314 -12.535315
-66.340397 -64.335131 -11.689297
-67.64146 -36.76803 -22.412615
-67.013302 -36.913208 -21.609485
-68.041256 -38.322216 -22.285289
-67.64146 -36.76803 -22.412615
-68.45108 -39.864097 -22.111322
-67.923839 -39.942166 -21.317899
-68.041256 -38.322216 -22.285289
-68.714599 -41.482247 -21.941183
-68.45108 -39.864097 -22.111322
-68.832016 -39.862297 -22.908573
-69.433571 -39.89287 -25.318464
-69.329643 -39.871891 -24.511215
-69.353722 -41.687443 -25.173825
-69.433571 -39.89287 -25.318464
-69.366059 -40.003683 -26.13925
-68.157978 -40.656483 -29.463265
-68.267494 -42.376271 -28.488577
-68.615108 -40.428123 -28.631613
-67.653808 -40.871235 -30.305084
-68.157978 -40.656483 -29.463265
-66.374592 -63.27337 -9.219645
-66.448234 -63.636584 -10.027808
-66.154823 -62.937469 -8.43573
-65.885402 -62.555984 -7.670097
-66.665149 -61.780573 -9.587118
-66.374592 -63.27337 -9.219645
-66.154823 -62.937469 -8.43573
-65.130177 -60.330193 -6.602673
-65.055794 -61.779074 -6.201818
-65.620781 -59.257973 -7.707257
-65.130177 -60.330193 -6.602673
-66.093857 -58.117213 -8.833494
-66.122932 -59.58703 -8.441552
-65.620781 -59.257973 -7.707257
-66.476658 -56.95964 -9.947453
-66.093857 -58.117213 -8.833494
-66.839909 -55.735788 -11.083958
-66.959259 -57.222418 -10.704294
-66.476658 -56.95964 -9.947453
-67.131607 -54.495979 -12.202957
-66.839909 -55.735788 -11.083958
-65.212734 -48.41735 -12.744071
-65.812996 -48.603033 -13.523177
-64.798707 -47.005684 -13.00422
-65.212734 -48.41735 -12.744071
-64.325417 -45.586614 -13.232358
-64.898857 -45.739897 -14.040314
-64.798707 -47.005684 -13.00422
-63.841157 -45.459881 -12.388241
-63.413675 -45.252271 -11.559515
-63.941308 -44.194094 -13.424335
-64.325417 -45.586614 -13.232358
-63.841157 -45.459881 -12.388241
-62.868507 -40.040487 -13.7733
-63.207603 -40.146042 -14.655862
-63.210045 -41.418856 -13.697329
-62.798556 -41.145306 -11.9084
-62.895712 -42.504111 -11.827979
-62.715439 -39.952425 -12.855819
-62.798556 -41.145306 -11.9084
-62.868507 -40.040487 -13.7733
-62.715439 -39.952425 -12.855819
-65.499992 -65.437828 -14.235124
-65.854836 -65.064701 -13.386429
-66.20401 -63.855602 -14.554925
-65.499992 -65.437828 -14.235124
-65.044556 -65.837647 -15.071061
-65.828415 -62.03783 -18.569017
-66.537712 -60.29023 -18.928459
-66.005958 -60.674012 -19.741537
-65.074321 -63.718885 -18.217672
-65.606075 -63.335104 -17.404594
-65.828415 -62.03783 -18.569017
-64.237921 -65.416229 -17.82765
-65.074321 -63.718885 -18.217672
-63.969723 -66.643219 -16.6894
-64.237921 -65.416229 -17.82765
-67.50956 -47.912849 -27.065376
-67.442025 -46.261032 -28.111456
3 0 19 17
3 1 64 66
3 66 65 20
3 64 65 66
3 2 24 22
3 4 27 25
3 4 29 27
3 3 33 31
3 67 35 68
3 6 36 18
3 6 37 36
3 7 69 71
3 71 70 38
3 69 70 71
3 73 72 21
3 74 42 75
3 76 75 40
3 74 75 76
3 78 77 43
3 9 79 81
3 79 44 80
3 79 80 81
3 11 45 23
3 11 46 45
3 5 47 34
3 12 48 26
3 12 49 48
3 12 50 49
3 13 51 28
3 13 52 51
3 8 53 41
3 14 54 30
3 14 55 54
3 82 56 83
3 84 57 85
3 86 85 56
3 84 85 86
3 87 58 88
3 89 59 90
3 91 90 58
3 89 90 91
3 93 92 59
3 15 94 96
3 94 60 95
3 94 95 96
3 15 61 60
3 97 62 98
3 99 63 100
3 101 100 62
3 99 100 101
3 10 102 103
3 16 104 106
3 106 105 32
3 104 105 106
3 16 107 108
3 110 109 39
3 17 111 113
3 111 18 112
3 111 112 113
3 19 18 17
3 19 6 18
3 20 21 7
3 114 21 115
3 116 115 20
3 114 115 116
3 118 117 21
3 22 23 9
3 24 23 22
3 24 11 23
3 25 26 5
3 27 26 25
3 27 12 26
3 27 28 12
3 29 28 27
3 29 13 28
3 119 30 120
3 121 120 8
3 119 120 121
3 122 30 123
3 124 14 125
3 126 125 30
3 124 125 126
3 127 15 128
3 31 32 10
3 33 32 31
3 33 16 32
3 129 34 130
3 131 130 2
3 129 130 131
3 35 132 134
3 132 34 133
3 132 133 134
3 35 5 34
3 18 135 137
3 135 35 136
3 135 136 137
3 36 35 18
3 36 5 35
3 36 25 5
3 37 25 36
3 37 4 25
3 38 39 3
3 138 39 139
3 140 139 38
3 138 139 140
3 142 141 39
3 21 143 145
3 145 144 7
3 143 144 145
3 147 146 21
3 40 41 0
3 42 41 40
3 42 8 41
3 148 42 149
3 150 42 151
3 152 8 153
3 154 153 42
3 152 153 154
3 156 155 8
3 43 157 159
3 159 158 1
3 157 158 159
3 161 160 43
3 44 162 163
3 44 164 166
3 164 10 165
3 164 165 166
3 23 44 9
3 45 44 23
3 45 10 44
3 45 31 10
3 46 31 45
3 46 3 31
3 34 24 2
3 47 24 34
3 47 11 24
3 26 47 5
3 48 47 26
3 48 11 47
3 48 46 11
3 49 46 48
3 49 3 46
3 49 38 3
3 50 38 49
3 50 7 38
3 28 50 12
3 51 50 28
3 51 7 50
3 51 20 7
3 52 20 51
3 52 1 20
3 41 19 0
3 53 19 41
3 53 6 19
3 30 53 8
3 54 53 30
3 54 6 53
3 54 37 6
3 55 37 54
3 55 4 37
3 167 14 168
3 169 14 170
3 171 55 172
3 173 172 14
3 171 172 173
3 56 174 176
3 174 55 175
3 174 175 176
3 56 4 55
3 56 29 4
3 57 29 56
3 57 13 29
3 177 57 178
3 58 179 181
3 179 57 180
3 179 180 181
3 58 13 57
3 58 52 13
3 59 52 58
3 59 1 52
3 59 43 1
3 182 43 183
3 184 183 59
3 182 183 184
3 186 185 43
3 187 9 188
3 60 189 190
3 60 191 193
3 191 9 192
3 191 192 193
3 60 22 9
3 61 22 60
3 61 2 22
3 194 15 195
3 196 15 197
3 198 61 199
3 200 199 15
3 198 199 200
3 201 61 202
3 203 2 204
3 205 204 61
3 203 204 205
3 207 206 2
3 208 17 209
3 210 17 211
3 212 0 213
3 214 213 17
3 212 213 214
3 62 215 216
3 62 217 219
3 217 0 218
3 217 218 219
3 62 40 0
3 63 40 62
3 63 220 222
3 222 221 40
3 220 221 222
3 223 63 224
3 225 63 226
3 228 227 63
3 32 229 231
3 231 230 10
3 229 230 231
3 233 232 32
3 39 33 3
3 234 33 235
3 236 235 39
3 234 235 236
3 237 16 238
3 239 238 33
3 237 238 239
3 240 16 241
3 243 242 16
3 245 244 1
