ply
format ascii 1.0
element vertex 343
property float x
property float y
property float z
element face 343
property list uchar int vertex_index
end_header
5.996883 -7.704256 36.095192
0.914143 -3.13341 47.662567
-2.854338 -10.933605 52.84005
7.158203 -22.975637 29.897484
6.453518 10.582523 32.656815
4.003414 4.672237 40.996742
3.757061 -12.830784 42.970955
4.852188 -31.962177 34.206856
3.591499 13.324459 39.260078
2.38842 9.366972 43.354736
0.412281 -11.32775 47.923992
2.531281 -7.64751 45.329384
6.383949 1.464207 34.700439
7.329956 -5.975547 32.072128
-0.554199 8.468779 49.897785
0.972567 5.078697 47.032784
-0.633293 0.69113 50.271179
-1.121382 -7.159113 50.318264
5.401699 -16.63995 36.948887
6.619873 -15.125963 33.214542
5.744793 -23.855164 33.867302
5.16753 7.958075 37.017982
5.184155 -1.042374 38.643288
2.672729 0.894779 44.572884
4.04377 -4.138992 42.207451
4.910667 -10.009625 39.705956
1.484751 11.344597 44.619293
6.224342 -3.130676 35.475697
6.885502 -2.154076 33.436905
6.635128 -6.768316 34.146011
-0.544468 4.597364 50.126881
-1.204845 2.337677 51.759895
-1.693123 -5.28152 51.6833
-2.070368 -9.094697 51.569843
-1.510807 -11.071278 50.254917
5.066624 -20.935589 37.236294
5.579422 -20.19132 35.453407
5.184925 -24.41667 35.697449
5.403187 -31.612131 32.331345
3.844372 9.033394 40.192451
4.427235 10.787756 38.131676
4.58329 6.38936 39.053478
5.217308 3.471586 37.906189
4.64946 1.94058 39.833641
1.000771 0.984112 47.40078
1.838131 3.090988 45.772263
1.849623 -1.104189 46.180962
3.210697 -10.157142 44.169941
3.359829 -5.856304 43.832138
3.936943 -8.517729 42.63385
4.537235 -6.972989 40.983353
4.377815 -11.364208 41.386436
4.69479 -14.389691 40.075687
4.163116 -15.665376 41.710232
6.898724 -19.024698 31.616507
7.339813 -14.537548 31.172384
4.793427 -28.48378 35.88324
4.427391 -35.774033 34.29216
3.005215 11.401533 41.355064
3.243172 7.146835 42.159645
0.715033 -7.246156 47.828972
1.748606 -5.305266 46.480881
1.541058 -9.481236 46.689949
2.313576 -11.862181 45.572922
6.463173 6.045328 33.760323
7.147961 7.068439 31.519356
7.059727 2.46909 32.562546
0.0215 10.798018 47.995064
0.834517 9.124304 46.560074
0.149456 6.867369 48.395451
0.177458 2.883316 48.703724
0.095549 -1.133984 48.914165
-0.826164 -3.233184 50.331341
-0.09808 -5.161703 49.031197
-0.398054 -9.177349 49.072033
5.71706 -12.219305 36.577747
6.322441 -11.336948 34.703381
5.964382 -15.822619 35.130562
6.193417 -19.559534 33.590267
6.415211 -23.382164 31.944164
5.29298 -27.991835 34.067577
5.909702 -27.582775 32.176582
6.628376 -27.231647 30.177704
5.028683 12.38685 35.981579
5.78833 9.360037 34.888523
5.815704 4.843996 35.884842
5.758015 0.291698 36.721985
5.625263 -4.263795 37.40332
1.714149 7.249504 45.249672
2.58387 5.155781 44.023293
3.381535 2.830967 42.840836
2.653809 -3.384295 45.004051
3.419182 -1.515099 43.395607
4.068424 0.269915 41.666943
4.63121 -2.525732 40.472992
5.077934 -5.548539 39.237118
5.430576 -8.785883 37.942944
5.188644 -13.237591 38.363823
4.913696 -17.585131 38.693863
7.004539 -10.585658 32.715889
1.042342 12.222555 45.306194
1.324885 13.351105 44.256935
-1.387417 3.066854 52.577564
-1.151057 4.233344 51.729567
-2.462353 -10.014151 52.204946
-2.248249 -8.167521 52.289438
-2.640234 -9.086975 52.924542
-2.689896 -11.917095 52.138803
-2.297911 -10.99764 51.5037
-2.462353 -10.014151 52.204946
4.954193 -24.750733 36.581081
5.125775 -22.67613 36.466871
4.895043 -23.010193 37.350504
6.799162 11.099922 31.485135
6.40237 12.817411 32.028632
7.399203 -20.77211 29.701618
7.269463 -18.796641 30.56113
7.028463 -21.000167 30.756995
4.219597 -37.611717 34.306792
4.224979 -35.964371 35.204724
4.436628 -37.475228 33.368101
4.219597 -37.611717 34.306792
2.696817 10.384253 42.3549
2.549683 12.452138 41.965817
2.241286 11.434857 42.965653
2.16301 -13.930909 45.669807
1.775845 -12.732941 46.205185
2.647419 -13.123537 45.005035
2.16301 -13.930909 45.669807
7.456116 -3.654624 31.669592
7.233888 -1.743889 32.351981
7.107729 -4.064811 32.754517
7.680634 -5.647818 30.963296
7.456116 -3.654624 31.669592
-1.15155 -12.115838 49.660793
-1.745229 -13.013174 50.215419
5.99081 -29.448906 31.27027
5.656445 -29.597453 32.253963
5.737552 -31.463584 31.347651
6.350147 -29.273342 30.270831
6.269039 -27.407211 31.177143
5.99081 -29.448906 31.27027
6.722919 -29.136674 29.226965
6.350147 -29.273342 30.270831
3.885992 14.217079 38.168575
3.4212 15.424871 38.736591
4.677368 -18.121389 39.534546
4.804243 -15.987411 39.384775
4.567915 -16.523668 40.225458
4.765274 -19.693389 38.827309
4.677368 -18.121389 39.534546
7.490503 7.489146 30.335808
7.449882 5.186534 30.906252
7.530655 -12.246937 30.881557
7.699228 -14.290457 30.078031
1.789451 12.42367 43.597931
1.324885 13.351105 44.256935
1.936586 10.355785 43.987015
2.241286 11.434857 42.965653
1.789451 12.42367 43.597931
0.825198 -12.465726 47.38072
0.216508 -13.341413 47.953224
-0.820869 5.363188 50.91306
-0.549333 6.533072 50.012333
-0.825734 7.298895 50.798512
-0.874656 3.467521 50.943388
-0.820869 5.363188 50.91306
-1.151057 4.233344 51.729567
-2.059627 -6.260932 52.346167
-1.880016 -4.420452 52.425652
-1.881746 -7.188109 51.626571
-2.059627 -6.260932 52.346167
-2.248249 -8.167521 52.289438
-2.01813 -11.985931 50.846237
-1.790587 -10.082987 50.91238
-2.297911 -10.99764 51.5037
-1.745229 -13.013174 50.215419
-2.01813 -11.985931 50.846237
5.157892 -33.541665 32.375393
5.127688 -31.787154 33.269101
4.882393 -33.716688 33.313148
5.457874 -33.415681 31.400367
5.157892 -33.541665 32.375393
5.737552 -31.463584 31.347651
5.457874 -33.415681 31.400367
4.302078 -17.161511 41.04273
4.567915 -16.523668 40.225458
4.428953 -15.027534 40.89296
7.490008 -16.553065 30.339068
7.119269 -16.781123 31.394445
7.269463 -18.796641 30.56113
7.699228 -14.290457 30.078031
7.490008 -16.553065 30.339068
-2.902789 -9.996771 53.596229
-2.640234 -9.086975 52.924542
4.584706 -28.781166 36.767286
4.758444 -26.784288 36.673977
4.601 -30.437813 35.952967
4.584706 -28.781166 36.767286
4.63038 -32.177011 35.114775
4.822807 -30.222978 35.045048
4.601 -30.437813 35.952967
4.417982 -34.08294 35.157427
4.224979 -35.964371 35.204724
4.63979 -33.868105 34.249508
4.63038 -32.177011 35.114775
4.417982 -34.08294 35.157427
4.669994 -35.622616 33.355801
4.882393 -33.716688 33.313148
4.63979 -33.868105 34.249508
4.669994 -35.622616 33.355801
4.436628 -37.475228 33.368101
3.133213 14.448158 39.849403
3.4212 15.424871 38.736591
2.840071 13.486695 40.896896
2.549683 12.452138 41.965817
3.298357 12.362996 40.307571
3.133213 14.448158 39.849403
2.840071 13.486695 40.896896
1.389587 -11.542469 46.763699
0.97667 -10.404493 47.30697
0.825198 -12.465726 47.38072
1.927317 -10.671709 46.131435
1.389587 -11.542469 46.763699
1.775845 -12.732941 46.205185
3.09598 -12.271017 44.303545
2.762136 -11.009661 44.871431
2.647419 -13.123537 45.005035
3.369162 -13.607838 43.704052
3.483879 -11.493963 43.570448
3.09598 -12.271017 44.303545
3.635233 -14.938937 43.10976
3.369162 -13.607838 43.704052
7.405765 2.88686 31.427847
7.449882 5.186534 30.906252
7.103844 4.768764 32.040951
7.321001 0.567694 31.914801
6.972614 0.157507 32.999725
7.233888 -1.743889 32.351981
7.405765 2.88686 31.427847
7.321001 0.567694 31.914801
7.527084 -22.794876 28.803051
7.271998 -24.944084 28.971922
0.428008 9.961161 47.277569
0.717224 11.112409 46.276584
0.310716 11.949265 46.994079
-1.492783 1.227173 52.530527
-1.387417 3.066854 52.577564
-1.304018 0.434525 51.755939
-1.492783 1.227173 52.530527
-1.018242 -0.388748 51.011581
-0.919069 1.514403 51.015537
-1.304018 0.434525 51.755939
-1.548157 -3.375073 51.717642
-1.880016 -4.420452 52.425652
-1.114677 -2.350905 51.041663
-1.548157 -3.375073 51.717642
-1.259643 -4.257352 51.007321
-0.729729 -1.271027 50.30126
-1.018242 -0.388748 51.011581
-1.114677 -2.350905 51.041663
-0.595174 -11.168874 49.069351
-0.95443 -10.124313 49.663475
-1.15155 -12.115838 49.660793
-0.190007 -12.244074 48.49533
0.007113 -10.25255 48.498013
-0.595174 -11.168874 49.069351
0.216508 -13.341413 47.953224
-0.190007 -12.244074 48.49533
4.989176 -26.450225 35.790345
4.954193 -24.750733 36.581081
4.758444 -26.784288 36.673977
7.007084 -27.072089 29.112032
7.271998 -24.944084 28.971922
6.893289 -25.103642 30.037594
7.007084 -27.072089 29.112032
6.722919 -29.136674 29.226965
6.061882 12.197643 33.198341
6.40237 12.817411 32.028632
4.30386 12.948728 37.604374
3.885992 14.217079 38.168575
4.009367 12.056107 38.695877
4.604584 13.748275 36.529325
4.30386 12.948728 37.604374
4.727959 11.587303 37.056628
4.914131 14.560969 35.395128
4.604584 13.748275 36.529325
5.349464 13.099806 34.860724
4.914131 14.560969 35.395128
5.729288 11.5864 34.314195
5.349464 13.099806 34.860724
5.408506 10.873444 35.435051
6.120924 9.97128 33.772669
6.061882 12.197643 33.198341
5.729288 11.5864 34.314195
1.159634 10.234451 45.589683
1.042342 12.222555 45.306194
0.717224 11.112409 46.276584
4.841738 -21.368618 38.098524
4.99016 -19.26036 37.965079
4.765274 -19.693389 38.827309
4.895043 -23.010193 37.350504
4.841738 -21.368618 38.098524
3.83826 -16.356233 42.479399
3.960088 -14.24808 42.340593
3.635233 -14.938937 43.10976
4.032208 -17.75707 41.847021
3.83826 -16.356233 42.479399
4.302078 -17.161511 41.04273
4.032208 -17.75707 41.847021
-0.082947 12.729938 47.754586
0.310716 11.949265 46.994079
-0.313476 11.544659 48.792637
-0.082947 12.729938 47.754586
-0.601326 10.380039 49.743997
-0.26635 9.633399 48.946424
-0.313476 11.544659 48.792637
-0.813505 9.181583 50.733232
-0.601326 10.380039 49.743997
-1.08504 8.011699 51.633959
-0.825734 7.298895 50.798512
-0.813505 9.181583 50.733232
-3.123706 -11.785219 53.512043
-2.902789 -9.996771 53.596229
-3.098765 -12.784977 52.762413
-3.123706 -11.785219 53.512043
-2.689896 -11.917095 52.138803
-3.098765 -12.784977 52.762413
7.146383 9.34288 30.916406
6.799162 11.099922 31.485135
6.800739 8.825481 32.088085
7.146383 9.34288 30.916406
7.490503 7.489146 30.335808
7.363018 -10.270993 31.653309
7.172176 -12.561603 31.944136
7.530655 -12.246937 30.881557
7.525727 -7.965937 31.331429
7.167248 -8.280603 32.394008
7.363018 -10.270993 31.653309
7.680634 -5.647818 30.963296
7.525727 -7.965937 31.331429
7.399203 -20.77211 29.701618
7.527084 -22.794876 28.803051
3 100 26 101
3 0 29 27
3 102 31 103
3 2 104 106
3 104 33 105
3 104 105 106
3 2 107 109
3 109 108 33
3 107 108 109
3 110 37 111
3 112 111 35
3 110 111 112
3 5 41 39
3 5 43 41
3 1 46 44
3 6 49 47
3 6 51 49
3 6 53 51
3 4 113 114
3 3 115 117
3 117 116 54
3 115 116 117
3 118 57 119
3 121 120 57
3 9 122 124
3 122 58 123
3 122 123 124
3 9 59 58
3 10 62 60
3 125 63 126
3 128 127 63
3 12 66 64
3 13 129 131
3 131 130 28
3 129 130 131
3 13 132 133
3 14 69 67
3 16 70 30
3 16 71 70
3 17 72 32
3 17 73 72
3 17 74 73
3 135 134 34
3 18 77 75
3 20 78 36
3 20 79 78
3 7 80 56
3 136 81 137
3 138 137 38
3 136 137 138
3 139 82 140
3 141 140 81
3 139 140 141
3 143 142 82
3 8 144 145
3 21 83 40
3 21 84 83
3 21 85 84
3 22 86 42
3 22 87 86
3 15 88 68
3 23 89 45
3 23 90 89
3 11 91 61
3 24 92 48
3 24 93 92
3 24 94 93
3 25 95 50
3 25 96 95
3 25 97 96
3 146 98 147
3 148 147 52
3 146 147 148
3 150 149 98
3 152 151 65
3 19 99 76
3 154 153 55
3 26 155 156
3 26 157 159
3 157 9 158
3 157 158 159
3 161 160 10
3 27 28 12
3 29 28 27
3 29 13 28
3 162 30 163
3 164 163 14
3 162 163 164
3 31 165 167
3 165 30 166
3 165 166 167
3 31 16 30
3 168 32 169
3 33 170 172
3 170 32 171
3 170 171 172
3 33 17 32
3 33 34 17
3 173 34 174
3 175 174 33
3 173 174 175
3 177 176 34
3 35 36 18
3 37 36 35
3 37 20 36
3 178 38 179
3 180 179 7
3 178 179 180
3 181 38 182
3 184 183 38
3 39 40 8
3 41 40 39
3 41 21 40
3 41 42 21
3 43 42 41
3 43 22 42
3 44 45 15
3 46 45 44
3 46 23 45
3 47 48 11
3 49 48 47
3 49 24 48
3 49 50 24
3 51 50 49
3 51 25 50
3 51 52 25
3 53 52 51
3 53 185 187
3 187 186 52
3 185 186 187
3 54 55 19
3 188 55 189
3 190 189 54
3 188 189 190
3 192 191 55
3 193 2 194
3 195 56 196
3 197 56 198
3 199 7 200
3 201 200 56
3 199 200 201
3 57 202 203
3 57 204 206
3 204 7 205
3 204 205 206
3 57 207 209
3 209 208 7
3 207 208 209
3 211 210 57
3 212 8 213
3 58 214 215
3 58 216 218
3 216 8 217
3 216 217 218
3 58 39 8
3 59 39 58
3 59 5 39
3 60 61 1
3 62 61 60
3 62 11 61
3 219 62 220
3 221 220 10
3 219 220 221
3 63 222 224
3 222 62 223
3 222 223 224
3 63 11 62
3 63 47 11
3 225 47 226
3 227 226 63
3 225 226 227
3 228 6 229
3 230 229 47
3 228 229 230
3 232 231 6
3 64 65 4
3 66 65 64
3 66 233 235
3 235 234 65
3 233 234 235
3 28 66 12
3 236 66 237
3 238 237 28
3 236 237 238
3 240 239 66
3 242 241 3
3 67 243 245
3 243 68 244
3 243 244 245
3 69 68 67
3 69 15 68
3 30 69 14
3 70 69 30
3 70 15 69
3 70 44 15
3 71 44 70
3 71 1 44
3 246 31 247
3 248 31 249
3 250 16 251
3 252 251 31
3 250 251 252
3 32 253 254
3 72 255 257
3 257 256 32
3 255 256 257
3 72 258 260
3 258 16 259
3 258 259 260
3 72 71 16
3 73 71 72
3 73 1 71
3 73 60 1
3 74 60 73
3 74 10 60
3 34 74 17
3 261 74 262
3 263 262 34
3 261 262 263
3 264 10 265
3 266 265 74
3 264 265 266
3 268 267 10
3 75 76 0
3 77 76 75
3 77 19 76
3 36 77 18
3 78 77 36
3 78 19 77
3 78 54 19
3 79 54 78
3 79 3 54
3 56 269 271
3 269 37 270
3 269 270 271
3 80 37 56
3 80 20 37
3 38 80 7
3 81 80 38
3 81 20 80
3 81 79 20
3 82 79 81
3 82 3 79
3 82 272 274
3 274 273 3
3 272 273 274
3 276 275 82
3 277 4 278
3 40 279 281
3 281 280 8
3 279 280 281
3 83 282 284
3 284 283 40
3 282 283 284
3 83 285 286
3 83 287 288
3 84 289 291
3 291 290 83
3 289 290 291
3 84 292 294
3 292 4 293
3 292 293 294
3 84 64 4
3 85 64 84
3 85 12 64
3 42 85 21
3 86 85 42
3 86 12 85
3 86 27 12
3 87 27 86
3 87 0 27
3 68 295 297
3 295 26 296
3 295 296 297
3 88 26 68
3 88 9 26
3 45 88 15
3 89 88 45
3 89 9 88
3 89 59 9
3 90 59 89
3 90 5 59
3 61 46 1
3 91 46 61
3 91 23 46
3 48 91 11
3 92 91 48
3 92 23 91
3 92 90 23
3 93 90 92
3 93 5 90
3 93 43 5
3 94 43 93
3 94 22 43
3 50 94 24
3 95 94 50
3 95 22 94
3 95 87 22
3 96 87 95
3 96 0 87
3 96 75 0
3 97 75 96
3 97 18 75
3 52 97 25
3 98 97 52
3 98 18 97
3 98 35 18
3 298 35 299
3 300 299 98
3 298 299 300
3 302 301 35
3 303 53 304
3 305 304 6
3 303 304 305
3 306 53 307
3 309 308 53
3 310 67 311
3 312 67 313
3 314 14 315
3 316 315 67
3 314 315 316
3 317 14 318
3 321 320 14
3 319 320 321
3 322 2 323
3 324 2 325
3 327 326 2
3 65 328 330
3 330 329 4
3 328 329 330
3 332 331 65
3 76 29 0
3 99 29 76
3 99 13 29
3 55 99 19
3 333 99 334
3 335 334 55
3 333 334 335
3 336 13 337
3 338 337 99
3 336 337 338
3 340 339 13
3 342 341 3
