ply
format ascii 1.0
element vertex 194
property float x
property float y
property float z
element face 183
property list uchar int vertex_index
end_header
-37.25843 -101.365616 29.58073
-37.957424 -93.676849 42.487
-25.764318 -92.772156 33.340504
-32.068024 -94.31073 37.324112
-26.737583 -88.310913 39.441677
-37.606953 -97.715546 36.450439
-35.003574 -94.653625 40.251244
-34.612648 -98.629761 33.536285
-40.237991 -98.930817 32.045212
-32.578674 -90.161179 43.384155
-29.694 -89.24324 41.083267
-29.017675 -93.327957 34.681599
-27.132235 -86.330795 42.406837
-37.473003 -99.571671 33.059036
-36.131634 -98.353088 35.083794
-35.934193 -100.228149 31.583273
-40.312824 -97.18959 35.252674
-36.754951 -92.150116 44.157791
-33.539322 -94.61972 38.818901
-33.767883 -92.535812 41.891705
-32.313343 -92.272629 40.541183
-31.133974 -89.764938 42.203979
-30.85968 -91.805832 39.192432
-29.382141 -91.254623 37.968903
-30.567116 -93.834824 35.899651
-26.298698 -90.438446 36.363884
-37.745045 -95.759659 39.633163
-36.476318 -94.346039 41.504333
-36.286861 -96.40538 38.437176
-34.813934 -96.68071 37.004272
-33.319748 -96.625854 35.445866
-31.786509 -96.328384 33.896431
-33.039711 -98.605087 31.937052
-39.177452 -94.750565 40.513092
-39.034538 -96.706787 37.536316
-38.937145 -98.552643 34.310501
-38.80442 -100.315948 30.940235
-40.084549 -100.609604 28.740517
-35.24519 -92.509598 43.129345
-34.053825 -90.335526 44.519135
-31.431889 -87.656494 44.783478
-30.000656 -87.227295 43.859322
-28.575565 -86.74791 43.038403
-28.233757 -88.716293 40.12925
-27.863047 -90.755035 36.991058
-27.413378 -92.932312 33.795052
-30.19591 -95.913513 32.500893
-28.539501 -95.524719 31.399372
-26.824963 -95.298889 30.711666
-27.325903 -85.376686 43.755047
-26.615311 -85.255257 43.615715
-26.808979 -84.301147 44.963925
-36.433589 -101.720978 28.826088
-35.771471 -101.152244 29.82736
-36.596311 -100.796883 30.582001
-37.067741 -102.251923 27.854558
-36.433589 -101.720978 28.826088
-24.929707 -92.851967 33.361723
-25.232623 -91.590844 34.75316
-25.42031 -94.056801 31.932231
-24.929707 -92.851967 33.361723
-37.356188 -92.913483 43.322395
-37.522199 -91.802765 44.531898
-38.123436 -92.566132 43.696503
-25.970764 -88.225746 39.272177
-26.197155 -87.198761 40.741373
-26.518141 -89.374679 37.90278
-25.751322 -89.289513 37.73328
-25.970764 -88.225746 39.272177
-39.785827 -95.05513 39.395588
-39.867928 -94.086616 40.77372
-40.476303 -94.391182 39.656216
-39.714371 -96.033241 37.9072
-39.105995 -95.728676 39.024704
-39.785827 -95.05513 39.395588
-32.737871 -89.04937 44.553595
-33.475447 -89.136544 45.121084
-33.316249 -90.248353 43.951645
-32.005282 -88.908837 44.083816
-32.164479 -87.797027 45.253256
-32.737871 -89.04937 44.553595
-30.796737 -97.148392 31.466711
-30.99121 -96.120948 33.198662
-31.592036 -97.355827 32.16448
-28.211561 -96.707222 29.843528
-29.108299 -96.81144 30.28535
-27.354292 -96.594307 29.499676
-27.682232 -95.411804 31.055519
-28.211561 -96.707222 29.843528
-26.432255 -96.58841 29.298957
-27.354292 -96.594307 29.499676
-26.394481 -86.208702 42.223953
-26.615311 -85.255257 43.615715
-26.934909 -87.320854 40.924257
-26.197155 -87.198761 40.741373
-26.394481 -86.208702 42.223953
-35.127036 -100.388908 30.792455
-34.466263 -99.589714 31.768961
-35.273421 -99.428955 32.559779
-35.127036 -100.388908 30.792455
-35.771471 -101.152244 29.82736
-40.943289 -96.362129 35.545603
-40.353513 -96.274642 36.765379
-40.925404 -97.220375 34.039385
-40.943289 -96.362129 35.545603
-40.887987 -98.090989 32.435654
-40.275408 -98.060204 33.648943
-40.925404 -97.220375 34.039385
-40.851944 -98.916923 30.86381
-40.887987 -98.090989 32.435654
-36.951971 -90.98043 45.227678
-37.522199 -91.802765 44.531898
-36.165779 -91.188263 44.836641
-36.951971 -90.98043 45.227678
-25.499813 -90.423989 36.26485
-25.751322 -89.289513 37.73328
-26.031508 -91.605301 34.852194
-25.232623 -91.590844 34.75316
-25.499813 -90.423989 36.26485
-32.218637 -98.494179 31.18479
-31.592036 -97.355827 32.16448
-32.41311 -97.466735 32.916742
-33.679794 -99.577377 30.969345
-33.826179 -98.617424 32.736669
-34.466263 -99.589714 31.768961
-32.830074 -99.608329 30.196317
-33.679794 -99.577377 30.969345
-32.218637 -98.494179 31.18479
-32.830074 -99.608329 30.196317
-38.693199 -93.17247 42.813665
-38.123436 -92.566132 43.696503
-39.303213 -93.709328 41.826712
-39.993688 -93.045379 42.087339
-39.867928 -94.086616 40.77372
-38.567438 -94.213707 41.500046
-38.693199 -93.17247 42.813665
-39.303213 -93.709328 41.826712
-39.673681 -96.948189 36.394495
-39.714371 -96.033241 37.9072
-40.353513 -96.274642 36.765379
-38.676857 -101.17337 29.232939
-37.903862 -101.698204 28.553186
-38.031425 -100.840782 30.260483
-39.316922 -101.320198 28.13308
-38.676857 -101.17337 29.232939
-39.444485 -100.462776 29.840376
-39.927033 -101.432 27.07857
-39.316922 -101.320198 28.13308
-40.775223 -99.756317 29.211462
-40.16127 -99.770211 30.392865
-40.851944 -98.916923 30.86381
-40.679743 -100.561119 27.606359
-40.775223 -99.756317 29.211462
-39.927033 -101.432 27.07857
-40.679743 -100.561119 27.606359
-35.410899 -91.368004 44.322418
-36.165779 -91.188263 44.836641
-36.00007 -92.329857 43.643568
-34.815216 -90.280968 45.017313
-35.410899 -91.368004 44.322418
-34.649507 -91.422562 43.82424
-34.236275 -89.167222 45.557243
-34.815216 -90.280968 45.017313
-34.236275 -89.167222 45.557243
-33.475447 -89.136544 45.121084
-31.602555 -86.54869 45.805134
-32.164479 -87.797027 45.253256
-30.881152 -86.402244 45.476265
-31.602555 -86.54869 45.805134
-30.165535 -86.187645 45.014187
-30.881152 -86.402244 45.476265
-30.716273 -87.441894 44.3214
-29.461456 -86.00267 44.71584
-30.165535 -86.187645 45.014187
-28.748911 -85.762978 44.30538
-29.461456 -86.00267 44.71584
-29.288111 -86.987603 43.448863
-28.047568 -85.585244 44.07083
-28.748911 -85.762978 44.30538
-27.8539 -86.539353 42.72262
-27.325903 -85.376686 43.755047
-28.047568 -85.585244 44.07083
-29.936504 -97.005836 30.83611
-30.796737 -97.148392 31.466711
-29.367705 -95.719116 31.950132
-29.936504 -97.005836 30.83611
-29.108299 -96.81144 30.28535
-25.950633 -95.320167 30.617812
-25.42031 -94.056801 31.932231
-26.29464 -94.035522 32.026085
-25.950633 -95.320167 30.617812
-26.432255 -96.58841 29.298957
-37.067741 -102.251923 27.854558
-37.903862 -101.698204 28.553186
3 49 12 50
3 49 50 51
3 0 15 13
3 0 52 54
3 54 53 15
3 52 53 54
3 0 55 56
3 2 57 58
3 2 59 60
3 1 61 63
3 61 17 62
3 61 62 63
3 3 20 18
3 3 22 20
3 3 24 22
3 4 64 65
3 4 66 68
3 66 25 67
3 66 67 68
3 5 28 26
3 7 29 14
3 7 30 29
3 7 32 30
3 69 33 70
3 69 70 71
3 72 34 73
3 74 73 33
3 72 73 74
3 8 35 16
3 8 36 35
3 8 37 36
3 6 38 27
3 9 39 19
3 9 75 77
3 77 76 39
3 75 76 77
3 9 78 80
3 78 40 79
3 78 79 80
3 10 41 21
3 10 42 41
3 10 43 42
3 11 44 23
3 11 45 44
3 81 46 82
3 83 82 31
3 81 82 83
3 84 47 85
3 86 48 87
3 88 87 47
3 86 87 88
3 90 89 48
3 12 91 92
3 12 93 95
3 93 4 94
3 93 94 95
3 13 14 5
3 15 14 13
3 15 7 14
3 15 96 98
3 98 97 7
3 96 97 98
3 100 99 15
3 101 16 102
3 103 16 104
3 105 8 106
3 107 106 16
3 105 106 107
3 109 108 8
3 17 110 111
3 17 112 113
3 18 19 6
3 20 19 18
3 20 9 19
3 20 21 9
3 22 21 20
3 22 10 21
3 22 23 10
3 24 23 22
3 24 11 23
3 25 114 115
3 25 116 118
3 116 2 117
3 116 117 118
3 26 27 1
3 28 27 26
3 28 6 27
3 14 28 5
3 29 28 14
3 29 6 28
3 29 18 6
3 30 18 29
3 30 3 18
3 30 31 3
3 32 31 30
3 32 119 121
3 121 120 31
3 119 120 121
3 122 32 123
3 124 123 7
3 122 123 124
3 125 32 126
3 128 127 32
3 129 1 130
3 33 131 133
3 131 132 133
3 33 134 136
3 134 1 135
3 134 135 136
3 33 26 1
3 34 26 33
3 34 5 26
3 16 137 139
3 137 34 138
3 137 138 139
3 35 34 16
3 35 5 34
3 35 13 5
3 36 13 35
3 36 0 13
3 36 140 142
3 142 141 0
3 140 141 142
3 37 143 145
3 145 144 36
3 143 144 145
3 37 146 147
3 148 37 149
3 150 149 8
3 148 149 150
3 151 37 152
3 154 153 37
3 27 17 1
3 38 17 27
3 38 155 157
3 157 156 17
3 155 156 157
3 19 38 6
3 39 38 19
3 39 158 160
3 160 159 38
3 158 159 160
3 39 161 162
3 164 163 39
3 40 165 166
3 40 167 168
3 21 40 9
3 41 40 21
3 41 169 171
3 171 170 40
3 169 170 171
3 41 172 173
3 42 174 176
3 176 175 41
3 174 175 176
3 42 177 178
3 42 179 181
3 179 12 180
3 179 180 181
3 43 12 42
3 43 4 12
3 23 43 10
3 44 43 23
3 44 4 43
3 44 25 4
3 45 25 44
3 45 2 25
3 31 24 3
3 46 24 31
3 46 11 24
3 182 46 183
3 47 184 186
3 184 46 185
3 184 185 186
3 47 11 46
3 47 45 11
3 48 45 47
3 48 2 45
3 48 187 189
3 189 188 2
3 187 188 189
3 191 190 48
3 193 192 0
