ply
format ascii 1.0
element vertex 202
property float x
property float y
property float z
element face 164
property list uchar int vertex_index
end_header
0.994892 -109.714188 22.150612
7.849922 -89.148964 16.277082
0.465427 -104.749847 15.134365
2.320681 -99.273369 14.078753
10.444981 -84.566612 14.727353
2.95381 -113.649841 22.209942
4.765823 -94.155258 17.936649
0.45499 -104.739136 18.107199
1.105423 -102.030746 17.481457
1.223516 -102.004745 14.631403
2.11401 -99.306725 16.790951
10.967567 -84.581116 12.393229
1.761536 -111.831192 22.30661
0.959902 -112.164482 19.243093
8.860514 -86.978836 17.986059
8.513998 -87.316498 20.585672
7.570206 -89.376381 18.839775
6.168472 -91.880081 19.74235
6.306145 -91.599365 17.092562
4.947517 -94.005539 15.324634
6.586668 -91.494522 14.583439
0.665716 -107.358223 21.763477
0.366674 -109.869789 19.022907
0.201334 -107.373253 18.633293
0.083733 -107.454002 15.569869
0.748123 -104.853409 12.295929
1.571676 -102.092834 11.934004
9.269831 -86.808395 15.49091
8.219166 -89.09446 13.8475
9.718979 -86.797546 13.117979
3.349241 -96.796242 18.797987
3.421959 -96.618233 16.064873
1.632599 -100.759129 18.567011
1.192369 -102.106666 18.972544
2.136893 -99.397118 18.221758
1.609716 -100.668735 17.136204
1.632599 -100.759129 18.567011
0.484648 -106.099861 19.908927
0.433525 -107.365738 20.198385
0.716839 -106.092346 21.474019
0.36949 -106.174331 13.873362
0.178644 -107.526409 14.091114
0.27458 -106.101924 15.352117
0.606775 -104.801628 13.715147
0.510838 -106.226112 12.454144
0.36949 -106.174331 13.873362
2.514438 -99.319474 12.803522
2.139935 -100.729206 11.731148
1.946179 -100.683101 13.006379
10.183038 -84.62751 15.949585
10.548903 -83.529335 15.55426
9.857406 -85.687504 15.109132
9.595463 -85.748401 16.331363
10.183038 -84.62751 15.949585
10.564155 -85.737533 11.63542
11.207334 -84.623261 11.287319
3.175885 -114.776924 20.653083
3.747743 -114.383964 22.035765
0.446152 -111.181045 17.586188
0.233509 -109.962967 17.46944
8.372499 -87.554085 21.925539
7.956822 -88.542492 21.051001
4.772308 -94.314648 19.313868
5.473633 -93.177059 20.216718
5.467148 -93.01767 18.839499
4.057532 -95.47575 18.367318
4.064017 -95.63514 19.744536
4.772308 -94.314648 19.313868
4.323528 -95.303249 14.406838
5.11373 -94.012604 14.097316
7.59015 -90.319996 13.036835
8.423551 -89.135532 12.704172
0.867153 -103.460861 19.285415
0.611476 -104.782803 19.64588
0.780207 -103.384941 17.794328
0.867153 -103.460861 19.285415
1.192369 -102.106666 18.972544
10.860077 -83.483204 14.351935
10.548903 -83.529335 15.55426
10.963999 -82.445927 15.178842
11.12137 -83.490456 13.184873
10.706274 -84.573864 13.560291
10.860077 -83.483204 14.351935
11.417269 -83.496598 12.032239
11.12137 -83.490456 13.184873
11.657037 -83.538742 10.926329
11.207334 -84.623261 11.287319
11.417269 -83.496598 12.032239
1.869209 -113.012958 20.788446
2.465345 -113.922283 20.740113
2.357673 -112.740516 22.258276
1.468392 -113.179604 19.256688
1.869209 -113.012958 20.788446
1.360719 -111.997837 20.774851
1.16009 -113.431381 17.746479
1.468392 -113.179604 19.256688
8.687256 -87.147667 19.285865
8.966566 -86.143432 20.147194
9.139824 -85.974602 18.847387
7.484925 -89.572433 20.178053
7.956822 -88.542492 21.051001
8.042102 -88.34644 19.712723
6.869339 -90.628231 19.291062
6.784059 -90.824284 20.62934
7.484925 -89.572433 20.178053
5.933306 -92.757095 13.726719
5.11373 -94.012604 14.097316
5.767093 -92.750031 14.954037
0.150839 -108.714699 17.274632
0.233509 -109.962967 17.46944
0.284004 -108.621521 18.8281
0.328162 -106.056195 18.370246
0.484648 -106.099861 19.908927
0.611476 -104.782803 19.64588
0.092038 -108.755074 15.742921
0.150839 -108.714699 17.274632
0.142534 -107.413628 17.101581
0.126306 -108.863426 14.223154
0.092038 -108.755074 15.742921
0.126306 -108.863426 14.223154
0.178644 -107.526409 14.091114
0.718303 -106.317375 11.038901
0.510838 -106.226112 12.454144
0.978569 -104.934238 10.949854
0.718303 -106.317375 11.038901
1.390346 -103.553951 10.768891
0.978569 -104.934238 10.949854
1.1599 -103.473121 12.114966
1.808857 -102.170681 10.663534
1.390346 -103.553951 10.768891
1.808857 -102.170681 10.663534
2.139935 -100.729206 11.731148
9.390804 -85.833622 17.578938
9.139824 -85.974602 18.847387
9.065172 -86.893616 16.738484
9.390804 -85.833622 17.578938
9.595463 -85.748401 16.331363
9.173458 -87.987076 12.339411
8.423551 -89.135532 12.704172
8.969072 -87.946003 13.48274
9.93986 -86.845748 11.997795
10.343273 -85.689331 12.755604
10.564155 -85.737533 11.63542
9.173458 -87.987076 12.339411
9.93986 -86.845748 11.997795
3.608486 -113.345661 23.613686
3.747743 -114.383964 22.035765
2.933361 -112.560215 23.746551
3.608486 -113.345661 23.613686
2.337224 -111.650891 23.794885
2.357673 -112.740516 22.258276
2.933361 -112.560215 23.746551
1.869696 -110.698848 23.773781
2.337224 -111.650891 23.794885
1.486374 -109.640346 23.695782
1.378214 -110.77269 22.228611
1.869696 -110.698848 23.773781
1.236799 -108.549836 23.528236
1.486374 -109.640346 23.695782
1.072211 -107.371853 23.334669
0.830304 -108.536205 21.957045
1.236799 -108.549836 23.528236
1.04011 -106.173523 23.04124
1.072211 -107.371853 23.334669
0.716839 -106.092346 21.474019
1.04011 -106.173523 23.04124
3.175885 -114.776924 20.653083
2.465345 -113.922283 20.740113
0.742765 -112.328392 17.696281
0.663288 -111.017135 19.133
0.446152 -111.181045 17.586188
1.16009 -113.431381 17.746479
0.742765 -112.328392 17.696281
8.729491 -86.356823 21.450567
8.966566 -86.143432 20.147194
8.729491 -86.356823 21.450567
8.372499 -87.554085 21.925539
6.177725 -92.097286 21.126173
6.784059 -90.824284 20.62934
6.177725 -92.097286 21.126173
5.473633 -93.177059 20.216718
3.433369 -96.962193 20.232601
4.064017 -95.63514 19.744536
2.754508 -98.141876 19.225276
3.433369 -96.962193 20.232601
2.731625 -98.051484 17.794469
2.136893 -99.397118 18.221758
2.754508 -98.141876 19.225276
3.560749 -96.609597 14.776958
4.184738 -95.311886 15.694753
4.323528 -95.303249 14.406838
3.01011 -97.937164 13.783898
2.87132 -97.945801 15.071813
3.560749 -96.609597 14.776958
2.514438 -99.319474 12.803522
3.01011 -97.937164 13.783898
6.773901 -91.520027 13.404804
7.402917 -90.294491 14.21547
7.59015 -90.319996 13.036835
6.120539 -92.782601 12.548084
5.933306 -92.757095 13.726719
6.773901 -91.520027 13.404804
3 32 8 33
3 34 10 35
3 36 35 8
3 34 35 36
3 0 13 12
3 1 16 14
3 1 18 16
3 1 20 18
3 37 23 38
3 39 38 21
3 37 38 39
3 2 24 7
3 2 40 42
3 42 41 24
3 40 41 42
3 2 43 45
3 43 25 44
3 43 44 45
3 3 26 9
3 3 46 48
3 48 47 26
3 46 47 48
3 4 49 50
3 4 51 53
3 51 27 52
3 51 52 53
3 4 29 27
3 55 54 11
3 5 56 57
3 59 58 22
3 61 60 15
3 6 62 64
3 64 63 17
3 62 63 64
3 6 65 67
3 65 30 66
3 65 66 67
3 6 31 30
3 69 68 19
3 71 70 28
3 72 7 73
3 8 74 76
3 74 7 75
3 74 75 76
3 8 2 7
3 8 9 2
3 10 9 8
3 10 3 9
3 77 4 78
3 77 78 79
3 80 11 81
3 82 81 4
3 80 81 82
3 83 11 84
3 87 86 11
3 85 86 87
3 12 88 90
3 90 89 5
3 88 89 90
3 13 91 93
3 93 92 12
3 91 92 93
3 13 94 95
3 14 96 98
3 96 15 97
3 96 97 98
3 16 15 14
3 16 99 101
3 101 100 15
3 99 100 101
3 16 102 104
3 102 17 103
3 102 103 104
3 18 17 16
3 18 6 17
3 18 19 6
3 20 19 18
3 20 105 107
3 107 106 19
3 105 106 107
3 21 22 0
3 23 22 21
3 23 108 110
3 110 109 22
3 108 109 110
3 7 111 113
3 111 23 112
3 111 112 113
3 24 23 7
3 24 114 116
3 116 115 23
3 114 115 116
3 24 117 118
3 120 119 24
3 25 121 122
3 25 123 124
3 9 25 2
3 26 25 9
3 26 125 127
3 127 126 25
3 125 126 127
3 26 128 129
3 131 130 26
3 132 14 133
3 27 134 136
3 134 14 135
3 134 135 136
3 27 1 14
3 27 28 1
3 29 28 27
3 29 137 139
3 139 138 28
3 137 138 139
3 11 29 4
3 140 29 141
3 142 141 11
3 140 141 142
3 144 143 29
3 145 5 146
3 147 5 148
3 149 12 150
3 151 150 5
3 149 150 151
3 152 12 153
3 154 0 155
3 156 155 12
3 154 155 156
3 157 0 158
3 159 21 160
3 161 160 0
3 159 160 161
3 162 21 163
3 165 164 21
3 167 166 5
3 22 13 0
3 168 13 169
3 170 169 22
3 168 169 170
3 172 171 13
3 15 173 174
3 176 175 15
3 17 177 178
3 180 179 17
3 30 181 182
3 30 183 184
3 30 185 187
3 185 10 186
3 185 186 187
3 31 10 30
3 31 3 10
3 19 31 6
3 188 31 189
3 190 189 19
3 188 189 190
3 191 3 192
3 193 192 31
3 191 192 193
3 195 194 3
3 28 20 1
3 196 20 197
3 198 197 28
3 196 197 198
3 201 200 20
3 199 200 201
