ply
format ascii 1.0
element vertex 259
property float x
property float y
property float z
element face 260
property list uchar int vertex_index
end_header
-37.674934 1.440115 -0.127955
-38.086685 -2.621399 7.181417
-37.113029 15.812687 7.141715
-43.700638 -6.905521 -11.4102
-39.1507 13.304451 8.832346
-37.697269 -0.636316 3.71597
-38.813641 -8.892638 2.896078
-39.403046 -6.690345 -1.380789
-42.597069 -10.266764 -6.787601
-40.106728 -4.218551 -5.78743
-40.819466 -1.484697 -10.242615
-37.905315 3.570257 -4.238523
-41.188251 2.223764 11.152365
-38.997406 -4.466969 10.144644
-39.116478 4.292126 9.594889
-37.593884 6.445887 7.345142
-36.587303 8.59824 4.457108
-36.045307 10.649652 1.012584
-37.64859 0.393667 1.834408
-38.356544 -3.883647 1.283623
-38.524326 -2.799486 -0.780077
-39.748833 -5.487418 -3.573498
-38.735764 -1.675419 -2.891964
-38.979027 -0.512676 -5.039742
-37.763874 2.499144 -2.157232
-40.083454 3.243887 10.462561
-40.223137 7.643358 9.934931
-38.068508 14.567142 8.088476
-38.167961 9.963318 8.366894
-37.334507 11.127693 7.306958
-37.029278 7.528912 5.976725
-36.632206 12.273441 6.065618
-36.060909 13.383873 4.649148
-36.291351 17.02066 5.991165
-38.467045 -3.563671 8.734678
-38.305096 -6.86333 7.048025
-43.172394 -8.641204 -9.103058
-44.686069 -10.76811 -9.260826
-45.306229 -8.866022 -11.593813
-45.849701 -6.84502 -13.918201
-44.172485 -5.067474 -13.708248
-39.522434 1.935987 -9.394049
-41.154228 -0.018843 -12.467945
-35.931526 11.617601 -0.878531
-40.351402 12.0436 9.379045
-37.836929 -1.643646 5.503116
-38.223106 -5.919063 5.213376
-38.248886 -4.924784 3.286245
-39.084198 -7.825894 0.780001
-40.335213 -10.164865 -1.856916
-41.985279 -11.777136 -4.467405
-40.823242 -8.871334 -4.120893
-41.305664 -7.485022 -6.394264
-41.770092 -6.007836 -8.669552
-42.207539 -4.442558 -10.941385
-40.466557 -2.884411 -8.013256
-39.244675 0.689981 -7.211178
-38.089108 4.656555 -6.35582
-40.896408 -2.016741 11.830538
-39.907593 -1.099581 10.951283
-39.074509 -0.149744 9.893829
-38.392174 0.831387 8.66975
-39.131718 8.797026 9.242826
-38.28772 5.362732 8.553648
-37.851097 1.838797 7.292041
-37.438793 2.864256 5.773457
-37.141823 3.897736 4.126195
-36.947609 4.929348 2.362615
-36.845367 5.951271 0.496368
-36.261448 9.641565 2.797462
-35.619526 14.444366 3.068824
-42.426437 1.233383 11.664176
-43.999619 -12.540364 -6.918528
-46.314445 -12.399262 -9.122004
-42.608467 -2.79287 -13.206066
-36.82571 6.959242 -1.456638
-36.879051 7.953335 -3.477966
-40.942 9.221657 9.836583
-40.830028 7.078097 10.190582
-39.660198 2.58282 -10.485271
-38.912266 3.849995 -8.943297
-35.614401 16.307837 3.855517
-35.840218 13.914119 3.858986
-35.835093 15.77759 4.645679
-35.344942 16.845863 3.08831
-35.614401 16.307837 3.855517
-43.108402 0.752453 11.834535
-42.233755 -0.834608 12.09425
-38.949329 -6.533036 10.250149
-39.345506 -4.898899 10.768264
-38.71645 -9.391381 3.923864
-38.421183 -7.904593 5.082513
-38.518373 -7.40585 4.054727
-46.667704 -11.37132 -10.295511
-45.500257 -11.583686 -9.191415
-45.853516 -10.555744 -10.364922
-47.571825 -11.892907 -10.085908
-46.667704 -11.37132 -10.295511
-42.056692 -0.541547 -13.964513
-41.304197 0.746749 -13.575184
-36.394437 10.249346 -3.165519
-36.405288 9.785468 -2.178249
-35.920675 12.081479 -1.865801
-36.936111 8.445592 -4.51258
-36.394437 10.249346 -3.165519
-40.760187 4.878362 10.454397
-40.635852 2.733826 10.807463
-41.312585 4.3683 10.799299
-40.153295 5.443623 10.198746
-40.760187 4.878362 10.454397
-40.830028 7.078097 10.190582
-35.950314 17.595983 5.316687
-35.835093 15.77759 4.645679
-36.17613 15.202267 5.320156
-38.494728 -5.65998 8.752304
-38.759908 -6.111629 9.457287
-38.732225 -4.01532 9.439661
-38.413753 -7.30981 7.908978
-38.494728 -5.65998 8.752304
-38.386071 -5.213501 7.891352
-38.419371 -8.841505 6.987526
-38.413753 -7.30981 7.908978
-39.119677 -10.683062 2.747561
-39.337046 -10.128862 1.641806
-46.163595 -9.6047 -11.531416
-45.853516 -10.555744 -10.364922
-44.996149 -9.817066 -10.427319
-46.468703 -8.510708 -12.703043
-46.163595 -9.6047 -11.531416
-46.740439 -7.500207 -13.865237
-46.468703 -8.510708 -12.703043
-45.577965 -7.855521 -12.756007
-46.9916 -6.349553 -15.037408
-46.740439 -7.500207 -13.865237
-46.077427 -5.782654 -15.078069
-46.9916 -6.349553 -15.037408
-45.238819 -4.893881 -14.973093
-46.077427 -5.782654 -15.078069
-45.011093 -5.956247 -13.813225
-44.374233 -4.102521 -14.853371
-45.238819 -4.893881 -14.973093
-40.476095 1.605406 -12.02222
-40.338331 0.958572 -10.930997
-39.660198 2.58282 -10.485271
-41.304197 0.746749 -13.575184
-40.476095 1.605406 -12.02222
-35.618347 13.530774 0.231671
-35.988416 11.133627 0.067026
-35.675238 13.046799 1.177228
-35.52148 13.996974 -0.693552
-35.618347 13.530774 0.231671
-35.920675 12.081479 -1.865801
-35.52148 13.996974 -0.693552
-41.124153 13.540478 9.21446
-41.006132 11.421778 9.55864
-40.430672 14.217822 9.089208
-41.124153 13.540478 9.21446
-39.83032 14.848247 8.815858
-39.751051 12.674025 9.105695
-40.430672 14.217822 9.089208
-39.185091 15.530388 8.591755
-39.83032 14.848247 8.815858
-38.643995 16.161734 8.21982
-38.609604 13.935797 8.460411
-39.185091 15.530388 8.591755
-38.054011 16.838663 7.88949
-38.643995 16.161734 8.21982
-37.576271 17.461436 7.416109
-37.590768 15.189915 7.615095
-38.054011 16.838663 7.88949
-37.048233 18.121582 6.974823
-37.576271 17.461436 7.416109
-39.472324 -9.59549 0.583767
-39.337046 -10.128862 1.641806
-38.94892 -8.359266 1.83804
-40.097832 -10.764976 -0.734691
-39.472324 -9.59549 0.583767
-39.709705 -8.99538 -0.538458
-40.844009 -11.667647 -2.003115
-40.097832 -10.764976 -0.734691
-41.160246 -10.971001 -3.162161
-41.669043 -12.473783 -3.30836
-40.844009 -11.667647 -2.003115
-38.195603 5.21028 -7.424183
-38.912266 3.849995 -8.943297
-38.805771 3.296271 -7.874935
-40.295007 -3.673785 11.611211
-40.731367 -4.087032 12.144278
-39.8006 -3.215205 11.171584
-40.295007 -3.673785 11.611211
-40.402 -1.558161 11.390911
-39.4525 -2.783275 10.547963
-39.345506 -4.898899 10.768264
-39.8006 -3.215205 11.171584
-40.28727 9.843479 9.656988
-40.942 9.221657 9.836583
-41.006132 11.421778 9.55864
-35.462347 14.944157 2.205348
-35.675238 13.046799 1.177228
-35.832417 12.547009 2.040704
-35.462347 14.944157 2.205348
-35.344942 16.845863 3.08831
-36.637394 18.725569 6.399547
-36.70219 16.416674 6.56644
-37.048233 18.121582 6.974823
-36.177712 19.356899 5.846022
-36.637394 18.725569 6.399547
-35.950314 17.595983 5.316687
-36.177712 19.356899 5.846022
-41.46874 -2.45967 12.17743
-40.731367 -4.087032 12.144278
-41.661423 -0.391679 11.747357
-41.46874 -2.45967 12.17743
-42.233755 -0.834608 12.09425
-43.310989 2.786204 11.312734
-43.108402 0.752453 11.834535
-42.595571 3.322212 11.22402
-43.310989 2.786204 11.312734
-41.976478 3.817403 10.968114
-41.807344 1.728573 11.408271
-42.595571 3.322212 11.22402
-41.312585 4.3683 10.799299
-41.976478 3.817403 10.968114
-38.949329 -6.533036 10.250149
-38.759908 -6.111629 9.457287
-38.462177 -8.376727 5.999837
-38.264101 -6.391197 6.1307
-38.421183 -7.904593 5.082513
-38.419371 -8.841505 6.987526
-38.462177 -8.376727 5.999837
-38.71645 -9.391381 3.923864
-39.119677 -10.683062 2.747561
-42.622785 -12.976973 -4.518768
-41.669043 -12.473783 -3.30836
-43.629956 -13.358587 -5.74433
-42.622785 -12.976973 -4.518768
-42.992449 -12.15875 -5.692967
-44.761813 -13.425402 -6.844637
-43.629956 -13.358587 -5.74433
-45.919225 -13.354851 -7.946375
-44.761813 -13.425402 -6.844637
-45.157032 -12.469813 -8.020266
-47.181793 -12.988049 -8.912992
-45.919225 -13.354851 -7.946375
-47.181793 -12.988049 -8.912992
-47.571825 -11.892907 -10.085908
-43.592224 -2.965219 -14.60228
-44.374233 -4.102521 -14.853371
-43.390476 -3.930172 -13.457157
-42.783811 -1.928561 -14.333573
-41.881348 -1.405857 -12.837006
-42.056692 -0.541547 -13.964513
-43.592224 -2.965219 -14.60228
-42.783811 -1.928561 -14.333573
-37.54114 6.797202 -5.951507
-37.484079 6.304945 -4.916893
-36.936111 8.445592 -4.51258
-38.195603 5.21028 -7.424183
-37.54114 6.797202 -5.951507
3 0 20 18
3 0 22 20
3 0 24 22
3 77 26 78
3 2 29 27
3 2 31 29
3 2 33 31
3 1 35 34
3 3 38 36
3 3 39 38
3 3 40 39
3 80 79 41
3 5 47 45
3 7 48 19
3 7 49 48
3 7 51 49
3 9 52 21
3 9 53 52
3 9 55 53
3 11 56 23
3 11 57 56
3 12 59 58
3 14 60 25
3 14 61 60
3 4 62 44
3 15 63 28
3 15 64 63
3 15 65 64
3 16 66 30
3 16 67 66
3 16 69 67
3 81 70 82
3 83 82 32
3 81 82 83
3 85 84 70
3 86 71 87
3 13 88 89
3 6 90 92
3 92 91 46
3 90 91 92
3 8 72 50
3 93 73 94
3 95 94 37
3 93 94 95
3 97 96 73
3 10 74 54
3 99 98 42
3 17 75 68
3 100 76 101
3 102 101 43
3 100 101 102
3 104 103 76
3 18 19 5
3 20 19 18
3 20 7 19
3 20 21 7
3 22 21 20
3 22 9 21
3 22 23 9
3 24 23 22
3 24 11 23
3 105 25 106
3 107 106 12
3 105 106 107
3 26 108 110
3 108 25 109
3 108 109 110
3 26 14 25
3 27 28 4
3 29 28 27
3 29 15 28
3 29 30 15
3 31 30 29
3 31 16 30
3 31 32 16
3 33 32 31
3 33 111 113
3 113 112 32
3 111 112 113
3 34 114 116
3 116 115 13
3 114 115 116
3 35 117 119
3 119 118 34
3 117 118 119
3 35 120 121
3 123 122 6
3 36 37 8
3 38 37 36
3 38 124 126
3 126 125 37
3 124 125 126
3 38 127 128
3 39 129 131
3 131 130 38
3 129 130 131
3 39 132 133
3 39 134 135
3 40 136 138
3 138 137 39
3 136 137 138
3 40 139 140
3 41 42 10
3 141 42 142
3 143 142 41
3 141 142 143
3 145 144 42
3 146 43 147
3 148 147 17
3 146 147 148
3 149 43 150
3 152 151 43
3 153 44 154
3 155 44 156
3 157 4 158
3 159 158 44
3 157 158 159
3 160 4 161
3 162 27 163
3 164 163 4
3 162 163 164
3 165 27 166
3 167 2 168
3 169 168 27
3 167 168 169
3 171 170 2
3 45 46 1
3 47 46 45
3 47 6 46
3 19 47 5
3 48 47 19
3 48 6 47
3 48 172 174
3 174 173 6
3 172 173 174
3 49 175 177
3 177 176 48
3 175 176 177
3 49 178 179
3 49 180 182
3 180 50 181
3 180 181 182
3 51 50 49
3 51 8 50
3 21 51 7
3 52 51 21
3 52 8 51
3 52 36 8
3 53 36 52
3 53 3 36
3 53 54 3
3 55 54 53
3 55 10 54
3 23 55 9
3 56 55 23
3 56 10 55
3 56 41 10
3 57 41 56
3 57 183 185
3 185 184 41
3 183 184 185
3 58 186 187
3 59 188 190
3 190 189 58
3 188 189 190
3 59 191 193
3 191 13 192
3 191 192 193
3 25 59 12
3 60 59 25
3 60 13 59
3 60 34 13
3 61 34 60
3 61 1 34
3 44 194 196
3 194 26 195
3 194 195 196
3 62 26 44
3 62 14 26
3 28 62 4
3 63 62 28
3 63 14 62
3 63 61 14
3 64 61 63
3 64 1 61
3 64 45 1
3 65 45 64
3 65 5 45
3 30 65 15
3 66 65 30
3 66 5 65
3 66 18 5
3 67 18 66
3 67 0 18
3 67 68 0
3 69 68 67
3 69 17 68
3 32 69 16
3 70 69 32
3 70 17 69
3 70 197 199
3 199 198 17
3 197 198 199
3 201 200 70
3 202 33 203
3 204 203 2
3 202 203 204
3 205 33 206
3 208 207 33
3 209 58 210
3 71 211 213
3 211 58 212
3 211 212 213
3 71 12 58
3 214 71 215
3 216 71 217
3 218 12 219
3 220 219 71
3 218 219 220
3 222 221 12
3 224 223 13
3 46 35 1
3 225 35 226
3 227 226 46
3 225 226 227
3 229 228 35
3 231 230 6
3 50 232 233
3 72 234 236
3 236 235 50
3 234 235 236
3 72 237 238
3 37 72 8
3 73 72 37
3 73 239 241
3 241 240 72
3 239 240 241
3 73 242 243
3 245 244 73
3 54 40 3
3 74 40 54
3 74 246 248
3 248 247 40
3 246 247 248
3 42 74 10
3 249 74 250
3 251 250 42
3 249 250 251
3 253 252 74
3 68 24 0
3 75 24 68
3 75 11 24
3 43 75 17
3 76 75 43
3 76 11 75
3 76 57 11
3 254 57 255
3 256 255 76
3 254 255 256
3 258 257 57
