ply
format ascii 1.0
element vertex 203
property float x
property float y
property float z
element face 196
property list uchar int vertex_index
end_header
45.925564 42.342335 30.133554
44.106739 30.925568 29.654217
42.800831 45.874969 37.1213
46.884094 40.516239 26.13467
46.340649 34.813583 26.035645
44.948124 36.763996 30.142876
36.937847 52.14917 36.853752
41.025543 50.725601 35.162445
45.950821 47.698013 29.447199
44.129601 49.270706 32.71431
44.870388 44.116913 33.905457
43.253582 40.737595 38.157658
44.263081 38.709877 34.284805
43.082855 32.981133 34.036331
46.563881 44.16798 27.93615
47.054077 43.264755 25.951427
46.344368 41.441864 28.136124
45.945705 38.656303 28.17531
45.500362 39.588192 30.215439
45.457153 50.321564 28.844654
45.1637 32.878006 27.838999
42.064461 48.327629 36.259468
42.735126 50.008789 34.042961
43.537132 47.53331 34.932106
44.683399 46.720718 33.415848
43.99268 44.999802 35.594986
42.46183 39.122993 40.307587
43.029701 38.022797 38.365562
43.857822 39.714241 36.271839
43.398079 36.9384 36.327301
43.667107 35.885162 34.221466
46.602646 37.701374 26.159897
45.500366 35.799255 28.068184
44.426762 33.868855 29.944267
39.752956 53.0867 33.836708
39.064556 51.433655 36.09045
40.305241 49.10408 37.40081
41.302544 46.733582 38.476002
46.512276 46.854248 27.573023
46.100365 45.040459 29.879242
41.643219 52.433113 32.931885
43.244198 51.767548 31.805447
44.512398 51.069077 30.439949
45.188904 48.502396 31.175476
45.514374 45.890038 31.721657
45.480705 43.2314 32.072979
42.002556 44.294792 39.312981
42.382462 41.764137 39.918259
43.195812 43.350437 37.750092
44.087029 42.397743 36.036423
44.706036 41.450798 34.18911
45.135303 40.515526 32.235664
44.580788 37.728836 32.228622
43.965302 34.865219 32.081818
43.463287 31.937126 31.832502
45.053051 51.611065 28.466999
45.465862 51.236767 27.625641
44.599158 30.426508 28.586161
45.127638 31.402727 27.678552
44.635219 31.901787 28.746608
44.126487 29.455838 29.48149
44.599158 30.426508 28.586161
42.830608 36.611515 38.384784
42.669346 37.191757 39.435367
43.014798 36.069316 37.365654
43.21389 37.480598 37.346431
42.830608 36.611515 38.384784
43.123614 35.503675 36.282387
43.014798 36.069316 37.365654
47.298057 41.417757 25.059514
47.383049 42.792015 24.967892
46.969085 41.890497 26.043048
47.274073 40.032152 25.155298
47.298057 41.417757 25.059514
46.74337 39.108807 26.147284
47.133348 38.624719 25.167912
47.274073 40.032152 25.155298
36.185774 53.303879 35.995384
35.834675 52.520168 37.167982
37.295114 52.950935 35.705196
36.185774 53.303879 35.995384
38.001202 51.791412 36.472101
38.358469 52.593178 35.323545
37.295114 52.950935 35.705196
39.926196 48.334987 38.528717
39.318404 49.484749 37.88377
40.424847 47.149738 39.066313
40.803893 47.918831 37.938406
39.926196 48.334987 38.528717
46.231549 47.276131 28.510111
46.329716 48.184944 27.31477
46.048989 48.606826 28.251858
46.928126 34.299499 25.046078
46.949289 35.758127 25.117529
41.613411 43.531908 40.423241
41.263739 44.753212 40.0128
46.808979 43.716368 26.943789
47.033437 44.616367 25.782393
46.788339 45.067979 26.774754
36.581804 51.383454 38.012234
35.834675 52.520168 37.167982
37.634707 51.007294 37.610241
36.581804 51.383454 38.012234
45.802155 49.918602 27.950585
45.465862 51.236767 27.625641
45.703987 49.009788 29.145927
46.048989 48.606826 28.251858
45.802155 49.918602 27.950585
45.702707 32.37447 26.80987
46.291182 33.342258 25.908193
45.752174 33.845794 26.937322
45.702707 32.37447 26.80987
45.127638 31.402727 27.678552
42.38541 37.741855 40.40638
42.125267 38.322744 41.409394
42.745766 38.572895 39.336574
42.38541 37.741855 40.40638
42.669346 37.191757 39.435367
43.258128 34.977057 35.22947
43.532593 36.411781 35.274383
43.123614 35.503675 36.282387
42.966002 33.525042 35.136902
43.374981 34.433148 34.128898
43.258128 34.977057 35.22947
47.328476 44.149788 24.793598
47.033437 44.616367 25.782393
47.328476 44.149788 24.793598
47.383049 42.792015 24.967892
47.080288 37.202022 25.179655
47.133348 38.624719 25.167912
46.471648 36.257479 26.097771
46.949289 35.758127 25.117529
47.080288 37.202022 25.179655
38.702669 53.419701 34.196675
39.042049 54.258331 33.065641
39.408756 52.260177 34.963579
38.702669 53.419701 34.196675
38.358469 52.593178 35.323545
38.698061 50.649536 37.22859
38.001202 51.791412 36.472101
37.634707 51.007294 37.610241
39.684899 50.268867 36.74563
38.698061 50.649536 37.22859
39.318404 49.484749 37.88377
46.607756 47.751571 26.354019
46.329716 48.184944 27.31477
46.762537 46.411113 26.59319
46.607756 47.751571 26.354019
46.538078 45.511114 27.754587
46.788339 45.067979 26.774754
46.762537 46.411113 26.59319
46.928126 34.299499 25.046078
46.291182 33.342258 25.908193
40.04921 53.948475 32.723072
39.338302 55.120106 31.952005
39.042049 54.258331 33.065641
40.994341 53.621681 32.27066
40.04921 53.948475 32.723072
40.698087 52.759906 33.384297
41.872095 53.317806 31.816826
40.994341 53.621681 32.27066
42.672584 52.985023 31.253607
41.872095 53.317806 31.816826
42.443708 52.10033 32.368666
43.391672 52.671837 30.668098
42.672584 52.985023 31.253607
44.025772 52.322602 29.985349
43.391672 52.671837 30.668098
43.878298 51.418312 31.122698
44.580674 51.984821 29.264646
44.025772 52.322602 29.985349
44.984775 50.695321 29.642301
45.053051 51.611065 28.466999
44.580674 51.984821 29.264646
40.913732 45.972607 39.594311
40.424847 47.149738 39.066313
41.65255 45.514187 38.894492
40.913732 45.972607 39.594311
41.263739 44.753212 40.0128
42.04857 39.667332 41.217528
42.125267 38.322744 41.409394
42.008887 40.987904 41.022863
42.04857 39.667332 41.217528
42.422146 40.443565 40.112923
41.803364 42.266581 40.72588
42.008887 40.987904 41.022863
42.192509 43.029465 39.61562
41.613411 43.531908 40.423241
41.803364 42.266581 40.72588
42.733415 32.052359 35.039299
42.966002 33.525042 35.136902
42.887447 31.503305 33.903374
42.733415 32.052359 35.039299
43.077663 30.981302 32.801459
43.273071 32.45913 32.934416
42.887447 31.503305 33.903374
43.356916 30.460546 31.676315
43.077663 30.981302 32.801459
43.678642 29.954767 30.587173
43.785013 31.431347 30.74336
43.356916 30.460546 31.676315
44.126487 29.455838 29.48149
43.678642 29.954767 30.587173
3 0 16 14
3 0 18 16
3 55 19 56
3 1 57 59
3 59 58 20
3 57 58 59
3 1 60 61
3 2 23 21
3 2 25 23
3 62 27 63
3 64 29 65
3 66 65 27
3 64 65 66
3 68 67 29
3 3 69 71
3 71 70 15
3 69 70 71
3 3 72 73
3 3 74 76
3 74 31 75
3 74 75 76
3 5 32 17
3 5 33 32
3 6 77 78
3 6 79 80
3 6 81 83
3 81 35 82
3 81 82 83
3 84 36 85
3 86 37 87
3 88 87 36
3 86 87 88
3 8 89 91
3 89 38 90
3 89 90 91
3 8 39 38
3 4 92 93
3 7 40 34
3 9 41 22
3 9 42 41
3 9 43 42
3 10 44 24
3 10 45 44
3 94 46 95
3 11 47 26
3 11 48 47
3 11 49 48
3 12 50 28
3 12 51 50
3 12 52 51
3 13 53 30
3 13 54 53
3 14 96 98
3 96 15 97
3 96 97 98
3 16 15 14
3 16 3 15
3 16 17 3
3 18 17 16
3 18 5 17
3 99 6 100
3 102 101 6
3 19 103 104
3 19 105 107
3 105 8 106
3 105 106 107
3 20 108 110
3 110 109 4
3 108 109 110
3 112 111 20
3 21 22 7
3 23 22 21
3 23 9 22
3 23 24 9
3 25 24 23
3 25 10 24
3 113 26 114
3 27 115 117
3 115 26 116
3 115 116 117
3 27 11 26
3 27 28 11
3 29 28 27
3 29 12 28
3 29 30 12
3 118 30 119
3 120 119 29
3 118 119 120
3 121 13 122
3 123 122 30
3 121 122 123
3 15 124 125
3 127 126 15
3 31 128 129
3 31 130 132
3 130 4 131
3 130 131 132
3 17 31 3
3 32 31 17
3 32 4 31
3 32 20 4
3 33 20 32
3 33 1 20
3 133 34 134
3 35 135 137
3 135 34 136
3 135 136 137
3 35 7 34
3 138 35 139
3 140 139 6
3 138 139 140
3 36 141 143
3 141 35 142
3 141 142 143
3 36 7 35
3 36 21 7
3 37 21 36
3 37 2 21
3 38 144 145
3 38 146 147
3 38 148 150
3 148 14 149
3 148 149 150
3 39 14 38
3 39 0 14
3 152 151 4
3 34 153 155
3 153 154 155
3 40 156 158
3 158 157 34
3 156 157 158
3 40 159 160
3 22 40 7
3 41 40 22
3 41 161 163
3 163 162 40
3 161 162 163
3 41 164 165
3 42 166 168
3 168 167 41
3 166 167 168
3 42 169 170
3 42 171 173
3 171 19 172
3 171 172 173
3 43 19 42
3 43 8 19
3 24 43 9
3 44 43 24
3 44 8 43
3 44 39 8
3 45 39 44
3 45 0 39
3 174 37 175
3 46 176 178
3 176 37 177
3 176 177 178
3 46 2 37
3 26 179 180
3 47 181 183
3 183 182 26
3 181 182 183
3 47 184 185
3 47 186 188
3 186 46 187
3 186 187 188
3 48 46 47
3 48 2 46
3 48 25 2
3 49 25 48
3 49 10 25
3 28 49 11
3 50 49 28
3 50 10 49
3 50 45 10
3 51 45 50
3 51 0 45
3 51 18 0
3 52 18 51
3 52 5 18
3 30 52 12
3 53 52 30
3 53 5 52
3 53 33 5
3 54 33 53
3 54 1 33
3 189 13 190
3 191 13 192
3 193 54 194
3 195 194 13
3 193 194 195
3 196 54 197
3 198 1 199
3 200 199 54
3 198 199 200
3 202 201 1
