ply
format ascii 1.0
element vertex 245
property float x
property float y
property float z
element face 231
property list uchar int vertex_index
end_header
51.377678 -7.044213 45.806515
46.669403 0.63056 58.843559
48.454414 9.121408 53.820717
52.356445 0.762735 50.362938
49.651226 0.728001 54.911423
49.488037 -3.415765 52.546547
51.998051 -3.222055 47.808472
51.09248 8.523088 49.355904
49.549088 11.872765 45.63213
54.560383 -6.558615 42.07605
44.778606 4.925016 59.755508
45.517693 9.593935 57.612015
48.181782 4.98295 56.521538
51.170963 4.804403 52.428291
53.893791 4.679495 47.771675
54.919083 0.93594 45.534302
54.64558 -2.88179 43.236679
48.248795 -3.473438 54.878021
49.023438 -5.452621 51.247673
52.385651 8.304857 46.979923
50.470383 10.236261 47.567471
51.708023 9.951761 45.155411
52.924873 -6.803998 43.867783
45.89003 2.744413 59.36924
46.538326 4.997442 58.259827
47.556931 2.820717 57.700775
51.030739 0.738285 52.694176
50.593628 2.801825 53.727455
51.991016 2.769337 51.489021
52.554955 4.716606 50.149139
53.331299 2.766104 49.138252
54.634228 2.815857 46.718544
53.646179 0.825056 47.962166
51.614296 -5.172217 46.652603
53.297688 -3.066645 45.484856
53.011154 -4.975589 44.486687
54.484238 -4.760957 42.440529
47.040382 9.397299 55.82254
48.201889 0.701931 56.972801
48.420746 -1.391022 56.028175
49.749725 -1.351158 53.807213
51.041611 -1.307083 51.482567
52.312637 -1.235317 49.098732
50.732887 -3.337238 50.175446
50.287659 -5.332918 48.916481
49.793159 8.812092 51.6502
48.083511 11.062717 52.215988
43.45863 7.213995 60.084526
45.260551 7.271933 58.722862
46.933762 7.224375 57.101288
48.48975 7.090908 55.245544
49.120857 2.830334 55.810562
49.720158 4.906668 54.566101
49.949394 6.905991 53.190529
51.33868 6.714468 50.977112
52.684589 6.562977 48.648308
54.012024 6.488667 46.244659
55.208488 4.714842 45.3358
53.579857 -1.122412 46.699387
54.861069 -0.969513 44.323441
41.528957 7.046841 61.172867
42.900333 4.753893 60.994682
52.704052 9.07173 44.856324
52.046837 9.128309 46.067667
53.042866 8.248278 45.76858
52.362454 9.87424 43.93974
52.704052 9.07173 44.856324
51.421583 -7.917904 45.611748
52.19518 -7.797796 44.642382
52.151275 -6.924105 44.837149
47.651989 10.30793 54.094937
46.944973 10.445875 55.095848
47.747398 9.259353 54.821629
47.709969 -2.462514 56.576695
47.72998 -1.422709 57.066322
49.426861 -6.380517 49.498573
49.655548 -5.392769 50.082077
48.79475 -6.440368 50.664169
50.105825 -6.294617 48.400043
49.426861 -6.380517 49.498573
50.183833 9.573186 49.644749
49.534172 9.717688 50.791897
50.442819 8.66759 50.503052
49.002922 12.112733 46.841837
49.46357 11.294481 47.809507
50.009735 11.054513 46.599801
48.489638 12.948391 45.832037
49.002922 12.112733 46.841837
48.992192 12.665795 44.606696
48.489638 12.948391 45.832037
54.771524 -7.396578 42.147395
55.417799 -6.448466 41.253563
55.419529 1.930436 44.901589
55.277102 2.870394 45.49371
54.776656 1.875898 46.126423
55.557068 1.012077 44.325102
55.419529 1.930436 44.901589
55.409935 -1.837963 42.61969
55.517679 -0.881825 43.163071
54.753325 -1.925652 43.78006
55.349989 -2.786811 42.162329
55.409935 -1.837963 42.61969
55.298624 -5.557579 41.301643
55.260551 -4.65875 41.483883
54.522311 -5.659786 42.25829
55.417799 -6.448466 41.253563
55.298624 -5.557579 41.301643
41.220266 5.766341 61.5751
40.507361 6.914055 61.582009
40.19867 5.633554 61.984241
41.905954 4.619866 61.486007
42.214645 5.900367 61.083774
41.220266 5.766341 61.5751
44.795468 10.857285 57.850929
44.689581 9.637366 58.381287
47.233875 12.284647 52.465523
47.751796 11.99034 51.321304
47.444083 -4.542017 55.415538
47.623993 -3.503722 56.001617
48.030266 -4.506288 54.242897
47.444083 -4.542017 55.415538
48.649887 -4.477451 53.07716
48.868416 -3.444602 53.712284
48.030266 -4.506288 54.242897
48.417587 -5.495879 52.427723
49.255737 -4.434193 51.89711
48.649887 -4.477451 53.07716
48.163097 -6.506187 51.808502
48.417587 -5.495879 52.427723
48.79475 -6.440368 50.664169
48.163097 -6.506187 51.808502
51.224239 10.737359 44.177235
50.144772 11.697861 44.415594
50.628555 10.912263 45.393771
51.224239 10.737359 44.177235
52.362454 9.87424 43.93974
53.05492 -7.655797 43.805206
53.872675 -7.533105 42.90934
53.742628 -6.681306 42.971917
53.05492 -7.655797 43.805206
52.19518 -7.797796 44.642382
46.283382 10.629454 56.083076
45.522037 10.727772 56.977814
46.279038 9.495617 56.717277
46.283382 10.629454 56.083076
46.944973 10.445875 55.095848
50.609972 -8.052136 46.527017
50.650835 -7.150265 46.845061
47.620552 -0.376233 57.538635
47.435646 0.666246 57.90818
46.854309 -0.411918 58.474014
48.311318 -0.344546 56.500488
47.620552 -0.376233 57.538635
47.72998 -1.422709 57.066322
48.334771 -2.43223 55.453098
47.709969 -2.462514 56.576695
47.623993 -3.503722 56.001617
50.769144 -6.214266 47.268104
50.950978 -5.252567 47.784542
50.105825 -6.294617 48.400043
50.650835 -7.150265 46.845061
51.495987 -6.108215 46.229559
50.769144 -6.214266 47.268104
48.679348 10.843 51.074791
48.938335 9.937404 51.933094
49.534172 9.717688 50.791897
47.751796 11.99034 51.321304
48.679348 10.843 51.074791
49.872784 10.429772 48.750532
50.183833 9.573186 49.644749
50.781431 9.379675 48.461687
49.872784 10.429772 48.750532
49.46357 11.294481 47.809507
48.992192 12.665795 44.606696
50.144772 11.697861 44.415594
54.771524 -7.396578 42.147395
53.872675 -7.533105 42.90934
51.421583 -7.917904 45.611748
50.609972 -8.052136 46.527017
43.660049 8.447396 59.617542
42.759592 8.429631 60.246776
44.56101 8.476365 58.93671
43.660049 8.447396 59.617542
44.35959 7.242964 59.403694
45.389122 8.432934 58.167439
44.689581 9.637366 58.381287
44.56101 8.476365 58.93671
53.856052 7.340183 45.400948
53.042866 8.248278 45.76858
53.198837 7.396762 46.612291
54.677138 6.498342 45.022131
53.856052 7.340183 45.400948
55.275369 5.611429 44.567701
54.677138 6.498342 45.022131
54.610256 5.601755 45.790229
55.863525 4.768281 44.1049
55.275369 5.611429 44.567701
55.564232 3.819887 44.802338
54.921358 3.76535 46.027172
55.277102 2.870394 45.49371
55.863525 4.768281 44.1049
55.564232 3.819887 44.802338
55.528061 0.059351 43.719672
55.557068 1.012077 44.325102
54.890076 -0.016786 44.928871
55.528061 0.059351 43.719672
55.517679 -0.881825 43.163071
55.269318 -3.726395 41.764253
55.349989 -2.786811 42.162329
54.564909 -3.821373 42.838604
55.269318 -3.726395 41.764253
55.260551 -4.65875 41.483883
40.82456 8.269442 61.272953
40.507361 6.914055 61.582009
41.794756 8.346054 60.790947
40.82456 8.269442 61.272953
42.493793 7.130418 60.628696
42.759592 8.429631 60.246776
41.794756 8.346054 60.790947
42.565971 3.541207 61.488666
41.905954 4.619866 61.486007
43.507351 3.6683 60.896462
42.565971 3.541207 61.488666
44.446487 3.753862 60.276874
43.83947 4.839455 60.375095
43.507351 3.6683 60.896462
45.002199 2.66356 60.08374
45.334318 3.834715 59.562374
44.446487 3.753862 60.276874
45.466856 1.617291 59.934086
45.002199 2.66356 60.08374
45.856543 0.560364 59.671245
46.279717 1.687487 59.106399
45.466856 1.617291 59.934086
46.129956 -0.468589 59.422955
45.856543 0.560364 59.671245
46.854309 -0.411918 58.474014
46.129956 -0.468589 59.422955
44.795468 10.857285 57.850929
45.522037 10.727772 56.977814
47.466538 11.278585 53.292572
47.651989 10.30793 54.094937
48.268963 10.092063 53.018353
47.466538 11.278585 53.292572
47.233875 12.284647 52.465523
3 62 21 63
3 64 63 19
3 62 63 64
3 66 65 21
3 0 67 69
3 69 68 22
3 67 68 69
3 1 25 23
3 3 28 26
3 3 30 28
3 3 32 30
3 0 35 33
3 0 22 35
3 2 70 72
3 72 71 37
3 70 71 72
3 73 39 74
3 5 40 17
3 5 41 40
3 5 43 41
3 75 44 76
3 77 76 18
3 75 76 77
3 79 78 44
3 7 80 82
3 82 81 45
3 80 81 82
3 8 83 85
3 85 84 20
3 83 84 85
3 8 86 87
3 8 88 89
3 9 90 91
3 10 48 47
3 12 49 24
3 12 50 49
3 4 51 38
3 13 52 27
3 13 53 52
3 13 54 53
3 14 55 29
3 14 56 55
3 14 57 56
3 15 92 94
3 94 93 31
3 92 93 94
3 15 95 96
3 6 58 42
3 16 59 34
3 16 97 99
3 99 98 59
3 97 98 99
3 16 100 101
3 9 102 104
3 104 103 36
3 102 103 104
3 9 105 106
3 107 60 108
3 107 108 109
3 110 61 111
3 112 111 60
3 110 111 112
3 11 113 114
3 116 115 46
3 117 17 118
3 119 17 120
3 121 5 122
3 123 122 17
3 121 122 123
3 124 18 125
3 126 125 5
3 124 125 126
3 127 18 128
3 130 129 18
3 19 20 7
3 21 20 19
3 21 8 20
3 21 131 133
3 133 132 8
3 131 132 133
3 135 134 21
3 22 136 138
3 138 137 9
3 136 137 138
3 140 139 22
3 23 24 10
3 25 24 23
3 25 12 24
3 26 27 4
3 28 27 26
3 28 13 27
3 28 29 13
3 30 29 28
3 30 14 29
3 30 31 14
3 32 31 30
3 32 15 31
3 33 34 6
3 35 34 33
3 35 16 34
3 35 36 16
3 22 36 35
3 22 9 36
3 37 141 143
3 143 142 11
3 141 142 143
3 145 144 37
3 147 146 0
3 148 38 149
3 150 149 1
3 148 149 150
3 39 151 153
3 151 38 152
3 151 152 153
3 39 4 38
3 17 154 156
3 154 39 155
3 154 155 156
3 40 39 17
3 40 4 39
3 40 26 4
3 41 26 40
3 41 3 26
3 41 42 3
3 43 42 41
3 43 6 42
3 18 43 5
3 44 43 18
3 44 6 43
3 44 33 6
3 157 33 158
3 159 158 44
3 157 158 159
3 160 0 161
3 162 161 33
3 160 161 162
3 45 46 2
3 163 46 164
3 165 164 45
3 163 164 165
3 167 166 46
3 20 168 170
3 170 169 7
3 168 169 170
3 172 171 20
3 174 173 8
3 176 175 9
3 178 177 0
3 47 179 180
3 48 181 183
3 183 182 47
3 181 182 183
3 48 184 186
3 184 11 185
3 184 185 186
3 24 48 10
3 49 48 24
3 49 11 48
3 49 37 11
3 50 37 49
3 50 2 37
3 38 25 1
3 51 25 38
3 51 12 25
3 27 51 4
3 52 51 27
3 52 12 51
3 52 50 12
3 53 50 52
3 53 2 50
3 53 45 2
3 54 45 53
3 54 7 45
3 29 54 13
3 55 54 29
3 55 7 54
3 55 19 7
3 56 19 55
3 56 187 189
3 189 188 19
3 187 188 189
3 56 190 191
3 57 192 194
3 194 193 56
3 192 193 194
3 57 195 196
3 31 57 14
3 197 57 198
3 199 198 31
3 197 198 199
3 201 200 57
3 42 32 3
3 58 32 42
3 58 15 32
3 34 58 6
3 59 58 34
3 59 15 58
3 59 202 204
3 204 203 15
3 202 203 204
3 206 205 59
3 36 207 209
3 209 208 16
3 207 208 209
3 211 210 36
3 60 212 213
3 60 214 215
3 60 216 218
3 216 47 217
3 216 217 218
3 61 47 60
3 61 10 47
3 219 61 220
3 221 61 222
3 223 10 224
3 225 224 61
3 223 224 225
3 226 23 227
3 228 227 10
3 226 227 228
3 229 23 230
3 231 1 232
3 233 232 23
3 231 232 233
3 234 1 235
3 237 236 1
3 239 238 11
3 46 240 242
3 242 241 2
3 240 241 242
3 244 243 46
