ply
format ascii 1.0
element vertex 258
property float x
property float y
property float z
element face 274
property list uchar int vertex_index
end_header
33.749649 -60.447842 56.332909
38.294834 -47.216866 51.11499
35.175903 -54.638546 53.348465
32.650673 -55.325191 62.293198
33.640358 -47.715473 59.406143
35.212448 -61.479546 53.54232
33.87405 -63.663158 55.898865
34.364853 -57.911449 54.967422
36.515747 -58.615379 51.767296
31.633566 -52.431484 65.5868
31.706411 -56.403355 67.002663
32.05669 -48.534645 64.239517
32.783657 -51.550747 60.7463
36.378643 -51.007847 51.936028
37.908073 -55.257996 50.266014
33.260799 -58.097515 58.942284
32.897999 -61.539082 59.451904
32.482662 -59.088509 63.358231
35.722729 -43.862556 58.707764
35.581139 -47.192764 54.806671
34.178684 -51.015198 55.982506
33.576859 -54.669441 57.559883
34.295181 -60.875961 54.987312
34.552719 -62.654972 54.610992
33.795521 -61.846298 56.117508
34.022079 -59.330181 55.721321
34.779125 -59.627293 54.087639
31.80183 -47.067959 66.112602
31.723553 -50.472786 64.861664
35.705299 -52.855732 52.58989
37.066505 -53.083542 50.941093
36.390396 -54.872791 51.632515
38.074684 -59.187366 50.638794
32.993221 -56.731064 60.596878
32.877548 -58.524849 61.116768
32.612476 -57.199928 62.927483
31.6294 -58.417435 67.501953
33.602463 -46.184185 61.371056
34.717113 -44.274864 61.088554
34.518818 -45.787945 58.966286
35.526226 -45.466724 56.639824
34.53484 -47.400856 57.035561
34.753937 -49.1171 55.316757
33.840752 -49.325428 57.60659
32.674736 -53.445652 61.535263
33.183029 -53.09705 59.10788
33.072109 -54.929302 59.897873
33.413094 -56.408535 58.319832
32.398983 -62.235748 61.418472
36.48774 -62.197575 52.297417
35.670464 -63.501411 53.27494
34.743084 -56.332558 54.158684
35.807587 -56.579208 52.409424
35.279556 -58.175674 53.234612
35.863033 -60.12376 52.616051
32.197861 -53.890915 63.963837
32.22263 -55.826206 64.68116
31.6703 -54.408386 66.332825
32.716312 -46.619858 63.774513
32.836479 -48.103127 61.832458
33.078171 -49.638985 60.013657
32.396717 -50.029621 62.45533
32.217239 -51.959602 63.191063
37.234814 -49.119827 51.433556
38.84444 -49.362625 49.984528
37.874863 -51.237816 50.378555
38.71106 -53.461437 49.658623
37.187897 -56.984585 50.979485
33.50526 -59.385597 57.447891
33.351749 -60.918465 57.677734
33.092091 -59.782078 59.333946
32.683716 -60.348072 61.394958
32.218517 -61.01075 63.536781
32.18309 -57.772972 65.249985
31.999834 -59.7402 65.594681
36.813026 -43.533699 56.428192
36.67905 -45.259804 54.479881
36.826035 -47.123367 52.807236
35.873848 -49.041431 53.231865
35.152508 -50.936211 53.827255
34.629505 -52.785534 54.552544
33.411404 -51.227695 58.317482
33.808483 -52.870136 56.753311
34.253487 -54.569344 55.350555
33.966671 -56.271023 56.153404
33.722298 -57.877224 56.884674
33.25444 -62.640587 57.603615
39.141481 -47.350302 50.450203
38.926924 -46.269003 51.053955
32.218291 -63.217793 61.318741
32.107826 -62.606459 62.436211
34.353876 -64.162531 55.152359
34.693211 -63.658437 54.508423
34.213385 -63.159065 55.254929
33.926494 -64.680009 55.805279
34.353876 -64.162531 55.152359
38.806368 -55.515194 49.772637
39.207861 -54.616915 49.468941
38.309567 -54.359716 49.962318
38.473028 -58.353317 50.277817
38.995817 -59.520634 50.257393
40.15633 -50.693647 49.057083
39.764065 -49.564118 49.450874
39.236705 -50.492155 49.590736
31.681799 -60.094837 66.675445
31.814617 -59.078817 66.548317
31.496582 -59.433454 67.629081
31.818204 -60.736384 65.63269
31.681799 -60.094837 66.675445
35.941437 -43.117107 59.84037
35.438629 -43.323261 61.030766
35.219921 -44.06871 59.898159
36.473743 -42.901466 58.662578
35.941437 -43.117107 59.84037
36.267877 -43.698127 57.567978
37.018892 -42.737037 57.522793
36.473743 -42.901466 58.662578
31.298147 -52.689878 66.734592
31.312648 -51.690775 66.382687
31.305957 -47.290011 67.22631
31.729431 -46.349649 67.09486
31.520041 -48.028281 66.340649
31.305957 -47.290011 67.22631
31.647471 -48.761623 65.404106
31.92926 -47.801302 65.17606
31.520041 -48.028281 66.340649
31.480902 -49.730694 65.71518
31.890121 -49.503715 64.55059
31.647471 -48.761623 65.404106
31.357641 -50.711426 66.020119
31.480902 -49.730694 65.71518
31.312648 -51.690775 66.382687
31.678559 -51.452135 65.224232
31.357641 -50.711426 66.020119
37.680554 -59.970605 51.034214
37.295215 -58.901372 51.203045
36.901085 -59.684612 51.598465
38.546593 -60.33077 50.615127
37.680554 -59.970605 51.034214
38.995817 -59.520634 50.257393
38.546593 -60.33077 50.615127
31.332231 -57.725903 68.353543
31.667905 -57.410395 67.252308
31.370737 -56.718863 68.103898
31.260359 -58.764257 68.564198
31.332231 -57.725903 68.353543
31.496582 -59.433454 67.629081
31.260359 -58.764257 68.564198
34.159788 -45.229524 61.229805
34.228384 -44.501457 62.287773
33.671059 -45.456118 62.429024
32.536637 -62.827137 60.38131
32.786144 -62.478804 59.398026
32.648491 -61.887415 60.435188
32.536637 -62.827137 60.38131
32.218291 -63.217793 61.318741
36.812945 -63.29748 52.265728
37.291422 -62.595623 51.834168
36.404307 -63.949398 52.75449
36.812945 -63.29748 52.265728
36.079102 -62.849493 52.786179
35.910099 -64.588764 53.242549
36.404307 -63.949398 52.75449
35.252083 -64.081657 53.840396
35.111592 -63.078192 53.942966
34.693211 -63.658437 54.508423
35.910099 -64.588764 53.242549
35.252083 -64.081657 53.840396
36.574728 -60.438802 52.022842
36.901085 -59.684612 51.598465
36.18939 -59.369569 52.191674
36.887082 -61.47571 51.863526
36.574728 -60.438802 52.022842
36.175387 -61.160668 52.456734
37.291422 -62.595623 51.834168
36.887082 -61.47571 51.863526
31.316513 -53.67833 67.107605
31.651933 -53.419935 65.959812
31.298147 -52.689878 66.734592
31.346052 -54.693222 67.4623
31.316513 -53.67833 67.107605
31.364107 -55.690706 67.797218
31.688356 -55.40587 66.667744
31.346052 -54.693222 67.4623
31.370737 -56.718863 68.103898
31.364107 -55.690706 67.797218
32.268473 -46.127854 65.973053
31.729431 -46.349649 67.09486
32.725713 -45.903803 64.804009
32.268473 -46.127854 65.973053
32.259071 -46.843908 64.943557
33.227984 -45.673954 63.630752
32.725713 -45.903803 64.804009
33.159388 -46.402022 62.572784
33.671059 -45.456118 62.429024
33.227984 -45.673954 63.630752
38.751917 -51.42975 49.78775
39.236705 -50.492155 49.590736
38.359651 -50.300221 50.181541
39.170016 -52.541561 49.427784
38.751917 -51.42975 49.78775
38.292962 -52.349626 50.018589
39.658503 -53.716392 49.208786
39.170016 -52.541561 49.427784
39.658503 -53.716392 49.208786
39.207861 -54.616915 49.468941
38.029635 -57.251926 50.448162
37.63129 -58.085976 50.80914
38.473028 -58.353317 50.277817
38.389723 -56.388632 50.091427
37.547985 -56.121291 50.622749
38.029635 -57.251926 50.448162
38.806368 -55.515194 49.772637
38.389723 -56.388632 50.091427
39.416285 -48.423181 49.884972
39.141481 -47.350302 50.450203
38.569637 -48.289746 50.549759
39.416285 -48.423181 49.884972
39.764065 -49.564118 49.450874
32.017593 -61.99396 63.495365
32.107826 -62.606459 62.436211
32.30875 -61.623249 62.477626
31.927546 -61.371659 64.603741
32.109175 -60.375475 64.565731
31.818204 -60.736384 65.63269
32.017593 -61.99396 63.495365
31.927546 -61.371659 64.603741
38.155888 -46.209927 51.844078
38.926924 -46.269003 51.053955
34.916456 -43.563514 62.2267
34.228384 -44.501457 62.287773
34.916456 -43.563514 62.2267
35.438629 -43.323261 61.030766
37.588214 -42.570415 56.406418
37.018892 -42.737037 57.522793
37.425231 -43.433084 55.383766
37.588214 -42.570415 56.406418
37.358244 -44.296137 54.40961
37.425231 -43.433084 55.383766
36.746038 -44.396752 55.454037
37.347995 -45.231396 53.526523
37.358244 -44.296137 54.40961
37.421488 -46.163178 52.690201
37.347995 -45.231396 53.526523
36.752542 -46.191586 53.643558
37.560434 -47.170117 51.961113
38.155888 -46.209927 51.844078
37.421488 -46.163178 52.690201
32.964365 -63.029556 58.473881
33.07622 -62.089834 58.52776
32.786144 -62.478804 59.398026
33.212433 -63.603359 57.507923
32.964365 -63.029556 58.473881
33.522238 -64.114645 56.655548
33.564245 -63.151872 56.75124
33.212433 -63.603359 57.507923
33.926494 -64.680009 55.805279
33.522238 -64.114645 56.655548
3 0 24 22
3 0 22 25
3 1 87 88
3 2 31 29
3 3 35 33
3 4 39 37
3 4 41 39
3 4 43 41
3 3 46 44
3 3 33 46
3 90 89 48
3 5 50 49
3 6 91 93
3 93 92 23
3 91 92 93
3 6 94 95
3 7 53 51
3 5 54 26
3 5 49 54
3 9 57 55
3 11 58 27
3 11 59 58
3 11 61 59
3 9 62 28
3 9 55 62
3 13 65 63
3 14 66 30
3 14 96 98
3 98 97 66
3 96 97 98
3 8 67 52
3 100 99 32
3 103 102 64
3 101 102 103
3 15 70 68
3 17 71 34
3 17 72 71
3 10 73 56
3 104 74 105
3 106 105 36
3 104 105 106
3 108 107 74
3 18 109 111
3 111 110 38
3 109 110 111
3 18 112 113
3 18 114 116
3 114 75 115
3 114 115 116
3 19 76 40
3 19 77 76
3 19 78 77
3 20 79 42
3 20 80 79
3 12 81 60
3 21 82 45
3 21 83 82
3 21 84 83
3 15 85 47
3 15 68 85
3 16 86 69
3 22 23 5
3 24 23 22
3 24 6 23
3 25 26 7
3 22 26 25
3 22 5 26
3 118 117 9
3 119 27 120
3 121 27 122
3 123 11 124
3 125 124 27
3 123 124 125
3 126 28 127
3 128 127 11
3 126 127 128
3 129 28 130
3 131 9 132
3 133 132 28
3 131 132 133
3 29 30 13
3 31 30 29
3 31 14 30
3 134 32 135
3 136 135 8
3 134 135 136
3 137 32 138
3 140 139 32
3 33 34 15
3 35 34 33
3 35 17 34
3 141 36 142
3 143 142 10
3 141 142 143
3 144 36 145
3 147 146 36
3 37 148 150
3 148 38 149
3 148 149 150
3 39 38 37
3 39 18 38
3 39 40 18
3 41 40 39
3 41 19 40
3 41 42 19
3 43 42 41
3 43 20 42
3 44 45 12
3 46 45 44
3 46 21 45
3 46 47 21
3 33 47 46
3 33 15 47
3 48 151 153
3 153 152 16
3 151 152 153
3 155 154 48
3 49 156 157
3 50 158 160
3 160 159 49
3 158 159 160
3 50 161 162
3 23 50 5
3 163 50 164
3 165 164 23
3 163 164 165
3 167 166 50
3 51 52 2
3 53 52 51
3 53 8 52
3 26 53 7
3 54 53 26
3 54 8 53
3 54 168 170
3 170 169 8
3 168 169 170
3 49 171 173
3 173 172 54
3 171 172 173
3 49 174 175
3 55 56 3
3 57 56 55
3 57 10 56
3 176 57 177
3 178 177 9
3 176 177 178
3 179 57 180
3 181 10 182
3 183 182 57
3 181 182 183
3 185 184 10
3 27 186 187
3 58 188 190
3 190 189 27
3 188 189 190
3 58 191 192
3 58 193 195
3 193 37 194
3 193 194 195
3 59 37 58
3 59 4 37
3 59 60 4
3 61 60 59
3 61 12 60
3 28 61 11
3 62 61 28
3 62 12 61
3 62 44 12
3 55 44 62
3 55 3 44
3 63 64 1
3 65 64 63
3 65 196 198
3 198 197 64
3 196 197 198
3 30 65 13
3 66 65 30
3 66 199 201
3 201 200 65
3 199 200 201
3 66 202 203
3 205 204 66
3 52 31 2
3 67 31 52
3 67 14 31
3 32 67 8
3 206 67 207
3 208 207 32
3 206 207 208
3 209 14 210
3 211 210 67
3 209 210 211
3 213 212 14
3 64 214 216
3 216 215 1
3 214 215 216
3 218 217 64
3 68 69 0
3 70 69 68
3 70 16 69
3 34 70 15
3 71 70 34
3 71 16 70
3 71 48 16
3 72 48 71
3 72 219 221
3 221 220 48
3 219 220 221
3 56 35 3
3 73 35 56
3 73 17 35
3 36 73 10
3 74 73 36
3 74 17 73
3 74 72 17
3 222 72 223
3 224 223 74
3 222 223 224
3 226 225 72
3 227 1 228
3 38 229 230
3 232 231 38
3 75 233 234
3 75 235 236
3 40 75 18
3 76 75 40
3 76 237 239
3 239 238 75
3 237 238 239
3 76 240 241
3 77 242 244
3 244 243 76
3 242 243 244
3 77 245 247
3 245 1 246
3 245 246 247
3 77 63 1
3 78 63 77
3 78 13 63
3 42 78 19
3 79 78 42
3 79 13 78
3 79 29 13
3 80 29 79
3 80 2 29
3 60 43 4
3 81 43 60
3 81 20 43
3 45 81 12
3 82 81 45
3 82 20 81
3 82 80 20
3 83 80 82
3 83 2 80
3 83 51 2
3 84 51 83
3 84 7 51
3 47 84 21
3 85 84 47
3 85 7 84
3 85 25 7
3 68 25 85
3 68 0 25
3 69 24 0
3 86 24 69
3 86 6 24
3 248 86 249
3 250 249 16
3 248 249 250
3 251 86 252
3 253 6 254
3 255 254 86
3 253 254 255
3 257 256 6
