ply
format ascii 1.0
element vertex 333
property float x
property float y
property float z
element face 303
property list uchar int vertex_index
end_header
36.689293 -9.648259 70.498962
23.701481 -3.23505 70.670784
31.367792 -2.311983 66.746124
26.681236 -7.446504 72.63253
39.562233 -8.820432 67.47496
39.41766 -12.805782 66.150124
37.278233 -13.432888 70.097816
34.53867 -6.096042 69.031242
35.535427 -1.385334 65.560989
38.236053 -5.110843 67.107323
39.034752 -20.555462 62.888962
24.363693 1.906326 66.81102
33.222256 -10.494011 72.91507
28.126638 2.212547 64.94043
27.339264 -2.948631 68.287453
30.586868 -6.950748 70.722847
38.783382 -16.880148 64.042519
32.325089 2.873922 64.008904
36.683426 3.726633 63.261955
24.426926 -9.476697 75.895348
38.20293 -9.215829 69.075188
38.484566 -11.119818 68.86132
37.176491 -11.497757 70.551659
35.794418 -7.864812 69.955078
36.433331 -5.600223 68.127335
37.513924 -7.388912 68.806541
39.103241 -6.938961 67.500786
39.744129 -22.115053 63.067017
22.061199 -3.324909 72.213226
20.818056 -0.867424 71.894249
22.350086 -0.802347 70.13723
22.697758 1.863094 68.222855
23.996571 -0.742001 68.623497
25.776344 -0.635202 67.390816
25.460556 -3.125712 69.358932
28.117023 -9.301407 73.850906
28.606642 -7.248248 71.628059
30.077127 -9.074579 72.890137
32.041054 -8.744011 71.948288
38.134552 -15.145956 67.207214
37.804855 -17.18796 66.109741
29.702856 -0.161407 65.727661
30.187294 2.503899 64.399666
31.797033 0.212317 65.185928
37.587307 -0.89649 64.901535
36.075478 1.11665 64.246246
38.191406 1.573816 63.671021
38.830437 4.135094 62.720467
23.432657 -5.553678 72.846085
25.173748 -5.442193 71.526268
24.85145 -7.568508 73.757202
26.214388 -9.425505 74.852097
39.634266 -10.779253 67.00058
38.418888 -13.105713 68.194633
33.021229 -4.270168 67.899437
33.451725 -1.8701 66.149445
35.03989 -3.785485 67.183044
37.012146 -3.282798 66.407906
38.91291 -2.801016 65.511185
19.357977 -0.994179 73.825447
24.839842 4.690107 65.300438
35.022724 -10.086648 71.767967
35.693768 -11.89001 72.075516
26.701042 4.806356 64.411964
26.176851 2.014698 65.72345
27.685543 -0.446409 66.438713
29.318565 -2.677896 67.434052
27.029095 -5.284417 70.395149
28.978376 -5.040495 69.441315
30.98839 -4.698362 68.6287
32.578079 -6.558441 69.875908
33.960335 -8.329572 70.986176
38.729599 -18.798546 63.245987
33.932991 0.650066 64.723274
34.502979 3.293695 63.6633
39.485764 6.781269 61.99115
29.723708 -10.074552 73.939896
29.097075 -9.187993 73.370521
28.743656 -10.187966 74.42028
30.699818 -9.95399 73.434006
29.723708 -10.074552 73.939896
37.283756 -17.332504 67.123317
37.969704 -16.166958 66.658478
37.448605 -16.311502 67.672054
37.139528 -18.336993 66.584285
37.283756 -17.332504 67.123317
38.886166 0.56666 63.888012
37.889357 0.338663 64.286278
38.584116 -0.668493 64.503269
39.221441 1.780277 63.30132
38.886166 0.56666 63.888012
23.2892 -6.612828 73.927346
22.617112 -5.619056 73.596218
23.998597 -7.620243 74.382904
24.142053 -6.561093 73.301644
23.2892 -6.612828 73.927346
25.878768 -10.315931 75.882981
25.320657 -9.451101 75.373722
24.985037 -10.341527 76.404606
26.818083 -10.312516 75.410847
25.878768 -10.315931 75.882981
39.598249 -9.799843 67.23777
40.209142 -9.631198 66.346012
40.173126 -8.651788 66.583202
37.184061 -14.436349 69.664272
37.754389 -14.272761 68.712681
37.848561 -13.2693 69.146224
39.084032 -4.887078 66.516868
39.42246 -3.732164 65.718799
38.574481 -3.955929 66.309254
40.062 -7.682257 66.743476
39.832504 -6.741522 66.75639
39.332737 -7.879696 67.487873
40.173126 -8.651788 66.583202
40.062 -7.682257 66.743476
39.730519 -20.290056 62.092595
39.461515 -19.470188 62.135177
40.560066 -21.784094 62.407635
40.278635 -22.795307 63.410141
19.935378 -2.225395 73.886494
19.18106 -2.341572 74.817974
20.279916 0.463778 71.884602
20.99328 0.487981 70.913609
23.748899 3.278657 66.676452
22.915931 3.257041 67.38237
23.530726 1.88471 67.516937
24.601768 3.298217 66.055729
23.986973 4.670547 65.921161
23.748899 3.278657 66.676452
33.631863 -11.379981 73.181995
34.532097 -11.1763 72.608444
34.12249 -10.29033 72.341519
39.871342 -12.672809 65.0686
40.038919 -11.647648 65.564606
39.372585 -15.731852 63.47453
38.927393 -15.869976 64.565754
39.273277 -16.717202 63.004593
39.372585 -15.731852 63.47453
38.75649 -17.839347 63.644253
39.246386 -17.6764 62.606327
39.273277 -16.717202 63.004593
35.828325 -12.831318 71.96222
35.077627 -12.996245 72.762257
28.412706 3.613106 64.385292
27.699908 4.91001 64.121059
27.41384 3.509451 64.676197
31.563514 4.090516 63.73798
30.494616 3.905505 63.933361
31.256191 2.68891 64.204285
32.648962 4.269647 63.609768
31.563514 4.090516 63.73798
35.927145 4.891191 63.103153
34.836922 4.674722 63.303826
35.593203 3.510164 63.462627
37.019177 5.083423 62.913196
35.927145 4.891191 63.103153
40.19867 5.633554 61.984241
39.158101 5.458182 62.355808
39.871006 4.310467 62.3489
40.507361 6.914055 61.582009
40.19867 5.633554 61.984241
23.619968 -9.505443 76.436905
23.786335 -8.574338 75.451977
24.12561 -10.293544 76.839726
23.619968 -9.505443 76.436905
24.985037 -10.341527 76.404606
24.12561 -10.293544 76.839726
38.959 -22.405594 63.755108
39.38944 -21.335257 62.977989
38.604311 -21.625799 63.666081
39.380918 -23.148314 63.975358
38.959 -22.405594 63.755108
40.278635 -22.795307 63.410141
39.380918 -23.148314 63.975358
21.439628 -2.096166 72.053738
20.665417 -2.162018 72.920895
21.286989 -3.39076 73.080383
21.759296 0.52052 70.035099
20.99328 0.487981 70.913609
21.584071 -0.834885 71.015739
22.523922 0.530374 69.180042
21.933132 1.85324 69.077911
21.759296 0.52052 70.035099
32.733229 -11.542295 73.805691
32.272382 -10.663706 73.446472
31.681781 -9.788706 72.963082
31.059091 -8.909295 72.419213
30.699818 -9.95399 73.434006
32.272382 -10.663706 73.446472
32.631655 -9.619011 72.431679
31.681781 -9.788706 72.963082
38.602978 -15.00288 66.148101
39.244532 -13.832794 65.619557
38.776106 -13.975869 66.678669
38.43813 -16.023882 65.599365
38.602978 -15.00288 66.148101
37.969704 -16.166958 66.658478
38.294119 -17.034054 65.07613
38.927393 -15.869976 64.565754
38.43813 -16.023882 65.599365
37.708298 -18.177219 65.628357
38.197561 -18.023314 64.594746
38.294119 -17.034054 65.07613
37.708298 -18.177219 65.628357
37.139528 -18.336993 66.584285
39.540957 3.060916 62.826042
38.510922 2.854455 63.195744
39.221441 1.780277 63.30132
39.871006 4.310467 62.3489
39.540957 3.060916 62.826042
21.931383 -4.504672 73.279789
21.286989 -3.39076 73.080383
22.746928 -4.439293 72.529656
21.931383 -4.504672 73.279789
22.617112 -5.619056 73.596218
24.639188 -8.522602 74.826275
23.998597 -7.620243 74.382904
23.786335 -8.574338 75.451977
27.7694 -10.250467 74.910251
27.165706 -9.363456 74.351501
26.818083 -10.312516 75.410847
28.743656 -10.187966 74.42028
27.7694 -10.250467 74.910251
40.147222 -10.634384 65.989834
40.209142 -9.631198 66.346012
39.525963 -11.792518 66.575352
40.038919 -11.647648 65.564606
40.147222 -10.634384 65.989834
37.612221 -15.292883 68.218971
38.27672 -14.125834 67.700923
37.754389 -14.272761 68.712681
37.448605 -16.311502 67.672054
37.612221 -15.292883 68.218971
39.246917 -1.620756 64.808094
38.584116 -0.668493 64.503269
38.250108 -1.848753 65.20636
39.819211 -2.586836 64.978127
39.246917 -1.620756 64.808094
39.819211 -2.586836 64.978127
39.42246 -3.732164 65.718799
39.517626 -5.801137 66.7136
39.084032 -4.887078 66.516868
38.669647 -6.024902 67.304055
39.517626 -5.801137 66.7136
39.832504 -6.741522 66.75639
40.085207 -21.069851 62.181622
39.730519 -20.290056 62.092595
39.38944 -21.335257 62.977989
40.085207 -21.069851 62.181622
40.560066 -21.784094 62.407635
18.634135 -1.114204 74.833812
19.18106 -2.341572 74.817974
18.860402 0.334825 73.890141
18.634135 -1.114204 74.833812
20.088017 -0.930802 72.859848
19.935378 -2.225395 73.886494
20.665417 -2.162018 72.920895
19.549877 0.4004 72.8502
20.088017 -0.930802 72.859848
20.279916 0.463778 71.884602
18.860402 0.334825 73.890141
19.549877 0.4004 72.8502
22.140517 3.2601 68.177162
21.933132 1.85324 69.077911
22.140517 3.2601 68.177162
22.915931 3.257041 67.38237
24.260091 6.114826 65.214943
23.986973 4.670547 65.921161
25.142614 6.138789 64.706486
24.260091 6.114826 65.214943
34.867619 -12.077981 72.762218
35.358246 -10.988329 71.921741
34.532097 -11.1763 72.608444
35.077627 -12.996245 72.762257
34.867619 -12.077981 72.762218
33.631863 -11.379981 73.181995
32.733229 -11.542295 73.805691
25.770442 4.748232 64.856201
26.073214 6.196913 64.262249
25.142614 6.138789 64.706486
39.871342 -12.672809 65.0686
39.244532 -13.832794 65.619557
39.308939 -18.59173 62.31369
39.246386 -17.6764 62.606327
38.882176 -19.677004 63.067475
39.461515 -19.470188 62.135177
39.308939 -18.59173 62.31369
38.17067 -18.982512 64.19648
38.75649 -17.839347 63.644253
38.197561 -18.023314 64.594746
38.217814 -19.908358 63.894062
38.17067 -18.982512 64.19648
38.37039 -20.786817 63.715549
38.882176 -19.677004 63.067475
38.217814 -19.908358 63.894062
38.604311 -21.625799 63.666081
38.37039 -20.786817 63.715549
36.569687 -12.635191 71.200291
36.43513 -11.693884 71.313587
35.828325 -12.831318 71.96222
36.620558 -13.602756 70.973369
37.227362 -12.465322 70.324737
36.569687 -12.635191 71.200291
36.584368 -14.583531 70.618068
36.620558 -13.602756 70.973369
37.184061 -14.436349 69.664272
36.584368 -14.583531 70.618068
27.03295 6.26274 63.933933
26.073214 6.196913 64.262249
27.03295 6.26274 63.933933
27.699908 4.91001 64.121059
29.443034 3.758782 64.11491
28.412706 3.613106 64.385292
29.156966 2.358223 64.670048
29.443034 3.758782 64.11491
30.494616 3.905505 63.933361
33.737908 4.479534 63.436966
32.648962 4.269647 63.609768
33.414034 3.083808 63.836102
33.737908 4.479534 63.436966
34.836922 4.674722 63.303826
38.092682 5.287653 62.642453
37.019177 5.083423 62.913196
37.756932 3.930864 62.991211
38.420346 6.610741 62.277794
38.092682 5.287653 62.642453
39.158101 5.458182 62.355808
38.773607 8.010891 62.020534
38.420346 6.610741 62.277794
39.802964 8.136656 61.682094
38.773607 8.010891 62.020534
39.802964 8.136656 61.682094
40.507361 6.914055 61.582009
3 0 22 20
3 0 25 23
3 0 20 25
3 1 30 28
3 1 32 30
3 1 34 32
3 76 37 77
3 78 77 35
3 76 77 78
3 80 79 37
3 81 40 82
3 83 82 39
3 81 82 83
3 85 84 40
3 2 43 41
3 86 46 87
3 88 87 44
3 86 87 88
3 90 89 46
3 91 48 92
3 93 50 94
3 95 94 48
3 93 94 95
3 96 51 97
3 98 97 19
3 96 97 98
3 100 99 51
3 4 101 103
3 101 52 102
3 101 102 103
3 6 53 21
3 6 104 106
3 106 105 53
3 104 105 106
3 7 56 54
3 9 57 24
3 9 58 57
3 9 107 109
3 109 108 58
3 107 108 109
3 4 110 112
3 112 111 26
3 110 111 112
3 4 113 114
3 10 115 116
3 118 117 27
3 119 59 120
3 122 121 29
3 11 123 125
3 125 124 31
3 123 124 125
3 11 126 128
3 126 60 127
3 126 127 128
3 12 129 131
3 131 130 61
3 129 130 131
3 11 64 60
3 14 65 33
3 14 66 65
3 3 67 49
3 15 68 36
3 15 69 68
3 15 70 69
3 12 71 38
3 12 61 71
3 5 132 133
3 16 134 135
3 16 136 137
3 16 138 140
3 138 72 139
3 138 139 140
3 142 141 62
3 13 143 145
3 145 144 63
3 143 144 145
3 17 146 148
3 148 147 42
3 146 147 148
3 17 149 150
3 8 73 55
3 18 74 45
3 18 151 153
3 153 152 74
3 151 152 153
3 18 154 155
3 156 75 157
3 158 157 47
3 156 157 158
3 160 159 75
3 161 19 162
3 163 19 164
3 166 165 19
3 20 21 4
3 22 21 20
3 22 6 21
3 23 24 7
3 25 24 23
3 25 9 24
3 25 26 9
3 20 26 25
3 20 4 26
3 167 27 168
3 169 168 10
3 167 168 169
3 170 27 171
3 173 172 27
3 28 174 176
3 174 29 175
3 174 175 176
3 30 29 28
3 30 177 179
3 179 178 29
3 177 178 179
3 30 180 182
3 180 31 181
3 180 181 182
3 32 31 30
3 32 11 31
3 184 183 12
3 32 33 11
3 34 33 32
3 34 14 33
3 35 36 3
3 37 36 35
3 37 15 36
3 37 38 15
3 185 38 186
3 187 186 37
3 185 186 187
3 188 12 189
3 190 189 38
3 188 189 190
3 39 191 193
3 193 192 5
3 191 192 193
3 40 194 196
3 196 195 39
3 194 195 196
3 40 197 199
3 197 16 198
3 197 198 199
3 40 200 202
3 202 201 16
3 200 201 202
3 204 203 40
3 41 42 13
3 43 42 41
3 43 17 42
3 44 45 8
3 46 45 44
3 46 18 45
3 46 47 18
3 205 47 206
3 207 206 46
3 205 206 207
3 209 208 47
3 210 28 211
3 48 212 214
3 212 28 213
3 212 213 214
3 48 1 28
3 48 49 1
3 50 49 48
3 50 3 49
3 19 215 217
3 215 50 216
3 215 216 217
3 51 50 19
3 51 3 50
3 51 35 3
3 218 35 219
3 220 219 51
3 218 219 220
3 222 221 35
3 52 223 224
3 52 225 227
3 225 5 226
3 225 226 227
3 21 52 4
3 53 52 21
3 53 5 52
3 53 39 5
3 228 39 229
3 230 229 53
3 228 229 230
3 232 231 39
3 54 55 2
3 56 55 54
3 56 8 55
3 24 56 7
3 57 56 24
3 57 8 56
3 57 44 8
3 58 44 57
3 58 233 235
3 235 234 44
3 233 234 235
3 58 236 237
3 239 238 58
3 26 240 242
3 242 241 9
3 240 241 242
3 244 243 26
3 27 245 247
3 247 246 10
3 245 246 247
3 249 248 27
3 59 250 251
3 59 252 253
3 29 254 256
3 254 59 255
3 254 255 256
3 257 59 258
3 259 258 29
3 257 258 259
3 261 260 59
3 31 262 263
3 265 264 31
3 60 266 267
3 60 268 269
3 61 62 0
3 270 62 271
3 272 271 61
3 270 271 272
3 274 273 62
3 276 275 12
3 60 277 279
3 277 63 278
3 277 278 279
3 64 63 60
3 64 13 63
3 33 64 11
3 65 64 33
3 65 13 64
3 65 41 13
3 66 41 65
3 66 2 41
3 49 34 1
3 67 34 49
3 67 14 34
3 36 67 3
3 68 67 36
3 68 14 67
3 68 66 14
3 69 66 68
3 69 2 66
3 69 54 2
3 70 54 69
3 70 7 54
3 38 70 15
3 71 70 38
3 71 7 70
3 71 23 7
3 61 23 71
3 61 0 23
3 281 280 5
3 72 282 283
3 72 284 286
3 284 10 285
3 284 285 286
3 287 72 288
3 289 288 16
3 287 288 289
3 290 72 291
3 292 10 293
3 294 293 72
3 292 293 294
3 296 295 10
3 62 22 0
3 297 22 298
3 299 298 62
3 297 298 299
3 300 6 301
3 302 301 22
3 300 301 302
3 303 6 304
3 306 305 6
3 63 307 308
3 310 309 63
3 42 311 313
3 313 312 13
3 311 312 313
3 315 314 42
3 55 43 2
3 73 43 55
3 73 17 43
3 45 73 8
3 74 73 45
3 74 17 73
3 74 316 318
3 318 317 17
3 316 317 318
3 320 319 74
3 47 321 323
3 323 322 18
3 321 322 323
3 75 324 326
3 326 325 47
3 324 325 326
3 75 327 328
3 75 329 330
3 332 331 75
